<?xml version="1.0" encoding="UTF-8"?><svg id="africa" xmlns="http://www.w3.org/2000/svg" width="235" height="321.9" viewBox="0 0 235 321.9"><defs><style>.cls-1{stroke-linecap:round;stroke-linejoin:round;}.cls-1,.cls-2{fill:none;stroke:#000;}.cls-2{stroke-miterlimit:10;}.cls-3{fill:#95613c;}.cls-3,.cls-4,.cls-5,.cls-6,.cls-7,.cls-8,.cls-9,.cls-10,.cls-11,.cls-12,.cls-13{stroke-width:0px;}.cls-4{fill:#37aa8f;}.cls-5{fill:#1e160d;}.cls-6{fill:#318c85;}.cls-7{fill:#93623d;}.cls-8{fill:#8158a5;}.cls-9{fill:#ef5b5b;}.cls-10{fill:#fff;}.cls-11{fill:#ffcf69;}.cls-12{fill:#eaea8c;}.cls-13{fill:#020000;}</style></defs><path class="cls-7" d="M35.4,161.9c-1.3-1.2-5.8-5.7-7.6-9.1-1.8-3.3-2.2-6.1-3.4-8.7.8-.8,4.1-4.8,5.7-6.2-1.5-.8-2.9-1.7-4.5-3.2-1.3-1.2-2.9-3.8-4-6.3-3.2,3.3-9.4,8.8-10.8,11.3-3,5.4,2.7,11.7,6.6,16.3,2.9,3.4,8.1,9.6,10.7,13.4-1.3,3,1.8,7.3,3.9,9.4,1.3,1.3,7.4,5,8.5,2.5,0,0,0,0,0,0,0-.5.1-.8.2-1.1,1.1,0,3.5-1.3,2.2-3,1.3-.2,2.9-1.7,2-3.8,4.4-1.1,2.6-3.6.7-5.6h0c.5-2.5-.9-3.7-2.9-4.5-2.2-.8-5.2-1-7.1-1.5h0Z"/><path class="cls-6" d="M13.6,298.1c-.4,1.4-.3,7.7.7,8.8s3.1,1.4,4.8,1.4c5.4.1,10.9.1,16.4,0,2,0,5.8.3,7.2-1.1,1.7-1.7.6-11.6-.6-13.6-.8-1.4-1.6-2.2-2.5-2.7-1.1-.6-2.4-.9-4.3-1.4-2.7-.7-6.4-1.3-10.2-.1-.9.5-2,.8-3,1.3-2.8,1.3-7.7,4.4-8.4,7.3Z"/><path class="cls-11" d="M44.5,127c.8-1.2,1.5-2.2,2.2-3.1-.4-3.8-1.7-10.1-3.1-13.1-1.4-3.3-3-4.3-6.6-4.8-2.4,1.9-4.2,4.6-6.4,6.7-2.1,2-10.2,10.5-10.2,10.5,0,1.4.5,3.4,1.3,5.3,1.1,2.6,2.7,5.1,4,6.3,1.6,1.5,3,2.4,4.5,3.2,1.4.7,2.9,1.2,4.7,1.9,2.2-2.4,5.1-6.4,7.7-10,0-.2,0-.2,0,0,.7-1,1.4-1.9,2-2.8Z"/><path class="cls-6" d="M26.7,288c-.4.7-1.1,1.1-1.8,1.5,3.8-1.2,7.4-.5,10.2.1,1.9.5,3.2.8,4.3,1.4,2-8.9-5-11.1-7.3-11.1-.7,0-1.5.1-2.1.4-1.4.5-2.6,1.4-3.2,2.8-.4.9.6,4.1,0,4.9Z"/><path class="cls-3" d="M29.8,279.9v.4c.8-.2,1.5-.3,2.3-.4,2.3,0,9.3,2.2,7.3,11.1.9.5,1.7,1.3,2.5,2.7.3-5.7,2.9-20.1,4.4-25,1.5-5.1,5.1-15.8,7-20.9-1.2,0-2.4-.1-3.7-.3-2.7-.3-5.7-.9-8.4-1.6-2.9-.7-5.4-1.5-7.3-2.2-.3-.1-.6-.2-.8-.4-1,7.5-.9,22.4-3.3,36.5Z"/><path class="cls-4" d="M31.4,242.4c.3.3.9.6,1.7,1,.3.1.5.2.8.4l.3-.6c3.8-18.1,7.6-36.1,11.4-54.2h0c-1.6-.8-3.1-1.6-4.6-2.5v.2c-1.6,8.5-9.8,55.8-9.8,55.8Z"/><path class="cls-8" d="M34.3,243.2l-.3.6c1.8.7,4.4,1.5,7.3,2.2h0c3.9-18.3,7.8-36.5,11.7-54.7v-.3c-2.5-.5-4.9-1.3-7.3-2.2h0c-3.8,18.2-7.6,36.3-11.4,54.4Z"/><path class="cls-4" d="M46.6,123.9s0,0,0,0h0c1.5,4.1,2.3,8.5,2.4,12.9,0,.1,0,.2,0,.3v.2c1.4-.5,2.8-.9,4.3-1.3v-.4c-.4-8.5-2.1-17-4.6-25.2-.4-1.5-.9-2.9-1.7-4.3-.8-1.3-2-2.5-3.4-3v-.2c-2.1.6-3.8,1.1-4.4,1.3-.8.4-1.6.9-2.3,1.4,3.6.5,5.2,1.5,6.6,4.8,1.3,3.1,2.7,9.3,3.1,13.1Z"/><path class="cls-7" d="M46.6,79.7h0c2.1,7.8,6.6,10.5,9.5,12.8.3.2.5.4.8.7,7.8,7,13.2,7.4,17.7,4.9,3.1-1.7,5.9-4.8,8.6-8.1,2.4-2.9,4.4-6.1,5.6-10.7,1-3.5,1.5-7.7,1.6-13.3,0-.4,0-.8,0-1.1,0-3.3-.2-.4,0-4.6-.4-19.5-8.7-8.1-18.4-10.8-12-3.4-16.2-4.8-22.2,4.9-2.2,3.5-1.3,11.2-2.1,12.5-.4.7-1.1,0-1.8-.9h0c-.2-.3-.4-.6-.5-.9h0c-.5-.5-1.2-.7-1.9-.7-.6,0-1.3.1-1.8.3-1.7.7-2,1.7-2,3.7,0,1.9.6,4,1.3,5.7.7,1.5,1.9,4.2,3.1,5,.7.5,1.6.7,2.4.5ZM78.4,85.6h0c-1.2,3.3-3.4,4.2-6.6,4.3-5.4.3-10-4.9-9.1-4.6,4.2,1.2,11.7,2.3,15.6.3ZM59.9,68.6c0-1.8.8-3.3,1.8-3.3s1.8,1.5,1.8,3.3-.8,3.4-1.8,3.4-1.8-1.5-1.8-3.4ZM81,68.4c0-1.6.7-2.9,1.5-2.9s1.5,1.3,1.5,2.9-.7,2.9-1.5,2.9-1.5-1.3-1.5-2.9Z"/><path class="cls-11" d="M68,192.3c1.3,0,2.6,0,3.9-.1,1.6,0,3.1-.2,4.5-.3,2.2-.2,4.3-.5,6.2-.7,2.1-.3,4-.6,5.6-.9,2.6-.5,4.5-.8,5.1-.8-.2-2.3-.5-5.2-.7-8.4-.4-6.4-.8-14-1-21h0c-.2-5.4-.3-10.4-.3-14.2s0-6.8,0-10c0,0,0,0,0,0-1.3-.1-2.5-.2-3.6-.3-2.1-.2-3.9-.4-5.5-.5-1.6-.1-3.1-.3-4.7-.4-1.5,0-3-.1-4.7-.2-1.5,0-3.3,0-5.3,0-.7,0-1.5,0-2.2,0-.6,0-1.3,0-2,.1-1.5.1-3.3.3-5.1.7-1.5.3-3.1.6-4.7,1-1.4.4-2.9.8-4.2,1.3-1.2.5-2.3,1-3.3,1.5-1.3.8-2.3,1.7-2.9,2.6.3,3.5.7,7.2.5,10.8-.3,5.1-.6,6.5-1,11,2,.7,3.4,2,2.9,4.5h0c2,2,3.7,4.6-.7,5.6.9,2.1-.7,3.6-2,3.8,1.3,1.7-1.1,3-2.2,3,0,.5,0,.8-.2,1.1,0,0,0,0,0,0-.2,1.4-.6,3.4-.7,4.2.5.3,1,.7,1.5,1,1.4.9,3,1.7,4.6,2.3,2.3,1,4.8,1.7,7.3,2.2,2.7.6,5.5.9,8.2,1.1,2.2.1,4.5.2,6.6.2Z"/><path class="cls-7" d="M40.6,180.2c0,.2,0,.6-.2,1.1.1-.3.2-.6.2-1.1Z"/><path class="cls-9" d="M41.3,245.9h0c2.7.8,5.6,1.4,8.4,1.7v-.2c4.7-18.1,8.2-36.2,11.6-54.9v-.3c-2.8-.2-5.5-.5-8.2-1.1v.3c-4,18.2-7.9,36.4-11.8,54.5Z"/><path class="cls-9" d="M42.5,129.8c0,1.2.4,10.2.5,11.8.6-1,1.6-1.8,2.9-2.6-.5-3.8-1-8.2-1.5-12-.6.9-1.3,1.9-2,2.8Z"/><path class="cls-5" d="M45.5,65.2h0c.2.2.4.5.5.9h0c.7.9,1.4,1.5,1.8.9.7-1.3,0-9.1,2.1-12.5,6.1-9.7,10.3-8.3,22.2-4.9,9.7,2.7,18-8.7,18.4,10.8-.2,4.2,0,1.3,0,4.6.6,0,1.1,0,1.5,0h0c0-5.3,0-9.5-1.5-17-2-10.3-6.8-13.9-20.1-14.9-8.8-.7-23.1,2.1-25.6,11.4-1.7,6.4-1.3,12-1.2,19v1c.7,0,1.4.2,1.8.7Z"/><path class="cls-12" d="M43.7,103.2v.2c1.5.5,2.7,1.7,3.5,3,.8,1.3,1.3,2.8,1.7,4.3,2.5,8.2,4.2,16.6,4.5,25.2v.4c1.7-.4,3.3-.8,4.8-1-.4-5.8-.8-12.2-2-17.8-1.2-5.6-3.1-11.1-6.3-15.8-2,.5-4.2,1.1-6.1,1.7Z"/><path class="cls-8" d="M46.6,123.9s0,0,0,0c-.6.9-1.4,1.9-2.2,3.1.5,3.8,1,8.2,1.5,12,1-.6,2.1-1.1,3.3-1.5v-.2c0-.1,0-.2,0-.3-.1-4.4-.9-8.8-2.4-12.9h0Z"/><path class="cls-5" d="M46,66.1c-.1-.4-.3-.7-.5-.9.2.3.3.6.5.9Z"/><path class="cls-12" d="M66,206.1c.5-2,.9-3.5,1.2-4.3.7-2,.8-7.4.8-9.5-2.2,0-4.4,0-6.6-.2v.3c-3.5,18.7-7,36.8-11.6,54.9v.2c1.3.2,2.5.3,3.7.3,1.2,0,2.3,0,3.3-.2.2,0,.4-.2.4-.5.8-3.9,6.1-30,8.9-41.2h0Z"/><path class="cls-8" d="M52.5,100.8c-.8.2-1.8.5-2.8.7,3.2,4.7,5.2,10.2,6.3,15.8,1.2,5.7,1.6,12,2,17.8,1.9-.3,3.6-.6,5.1-.7-.4-5.9-1.5-13.2-2.6-19-.7-3.9-1.8-7.4-3.7-10.6h0c-2.6-1.3-4.6-2.8-4.4-4Z"/><path class="cls-7" d="M73.8,106.3c1.3-.7,2.2-1.7,2.8-3.1.3-.7.6-1.6.8-2.6-1.1-.2-2.1-.3-2.8-.2h-.1c.1-.7.1-1.5,0-2.4-4.5,2.5-10,2.1-17.7-4.9-.2-.2-.5-.4-.8-.7,0,3.3,0,5.3-.2,7.4h0c-.5.1-1.7.5-3.2.9-.1,1.3,1.8,2.8,4.4,4h0c2,1,4.4,1.8,6.7,2.4,1.8.4,3.4.6,4.6.5.4,0,.8,0,1.2-.1,1.8-.2,3.2-.7,4.3-1.3Z"/><path class="cls-9" d="M57,104.8c1.8,3.2,2.9,6.7,3.7,10.6,1.1,5.8,2.2,13.2,2.6,19,.7,0,1.4,0,2-.1.8,0,1.5,0,2.2,0-.3-9.1-1.9-18-3.9-26.8v-.3c-2.1-.5-4.6-1.4-6.6-2.4Z"/><path class="cls-13" d="M61.7,65.2c-1,0-1.8,1.5-1.8,3.3s.8,3.4,1.8,3.4,1.8-1.5,1.8-3.4-.8-3.3-1.8-3.3Z"/><path class="cls-10" d="M62.9,85.3c-.9-.3,3.6,4.9,9.1,4.6,3.2-.2,5.4-1.1,6.6-4.2h0c-3.9,1.8-11.4.8-15.6-.4Z"/><path class="cls-4" d="M63.7,107.1v.3c2,8.8,3.5,17.8,3.9,26.8,2,0,3.7,0,5.3,0h0c0-8.4-1.4-18.5-3.3-26.7-.4,0-.8,0-1.2.1-1.2.1-2.8-.1-4.6-.5Z"/><path class="cls-8" d="M66,206.1h0c.2,4.9,4.6,38.5,4.7,41.8,1.9.7,3.8,1.2,5.5,1.5.6.1,1.2.2,1.8.3h0c-2.1-13.4-2.8-24.2-4.3-34.7-1.1-7.5-1.4-15.1-1.8-22.7h0c-1.3,0-2.6,0-3.9,0,0,2.1,0,7.5-.8,9.5-.3.8-.7,2.4-1.2,4.3Z"/><path class="cls-4" d="M71.9,192.1h0c.3,7.7.7,15.3,1.8,22.8,1.5,10.5,2.3,21.3,4.3,34.7h0c2.3.3,4.5.3,6.5.1-2.8-20.3-5.2-42.7-8.1-57.9h0c-1.5,0-3,.2-4.5.3Z"/><path class="cls-12" d="M69.5,107.6c1.9,8.2,3.4,18.3,3.3,26.7h0c1.8,0,3.3.1,4.7.2v-.3c0-10-.9-19.2-3.7-27.9-1.1.6-2.5,1-4.3,1.3Z"/><path class="cls-8" d="M76.6,103.2c-.6,1.3-1.5,2.3-2.8,3.1,2.8,8.7,3.6,17.9,3.7,27.9v.3c1.5,0,3,.2,4.6.4h0c0-6-.3-11.1-.7-15.9-.3-3.5-1.1-5.9-2-9.3-.6-2.4-1.6-4.5-2.9-6.4Z"/><path class="cls-3" d="M76.2,249.4h0c.2.5,2,7.3,2.1,7.8,4.4,13.4,9.8,29,10.5,37.9.9-1.7,1.6-3,3.1-3.7h-1.1c-.6-2.9-.2-6,1.7-8.2,1.3-1.5,4.6-2.5,7.2-2.4-.9-3.5-2.4-14.6-2.4-17.8,0-3-.4-10.3-.5-16.2-.6.2-1.1.4-1.7.6-1.7.6-3.6,1.1-5.5,1.6-1.6.4-3.3.6-5,.8-2.1.2-4.2.2-6.5,0-.6,0-1.2-.2-1.8-.3Z"/><path class="cls-9" d="M76.5,191.8h0c2.9,15.2,5.3,37.6,8.1,58,1.7-.2,3.4-.4,5-.8h0c-1.7-19.4-4-38.7-6.9-57.8h0c-1.9.1-4,.4-6.2.6Z"/><path class="cls-4" d="M77.4,100.6c-.2,1-.4,1.8-.8,2.6,1.4,1.9,2.3,4,2.9,6.4.9,3.4,1.7,5.8,2,9.3.4,4.8.7,9.9.7,15.8h0c1.6.3,3.4.5,5.5.7h0c-.3-6.4-.5-16.3-1.8-22.3-1.2-5.2-2.3-7.5-5.7-11.6v-.3c-.9-.2-1.9-.4-2.8-.5Z"/><path class="cls-9" d="M80.2,101.2v.3c3.4,4.1,4.5,6.4,5.6,11.6,1.3,5.9,1.5,15.9,1.8,22.2h0c1.1.2,2.3.3,3.6.4,0,0,0,0,0,0,0-4.8,0-9.4-.2-14.4h.1c-.3-7.7-1.1-13.7-5.4-18.7h0c-.3-.1-.7-.2-1.1-.3-1-.2-2.7-.7-4.5-1.1Z"/><path class="cls-13" d="M82.4,65.5c-.8,0-1.5,1.3-1.5,2.9s.7,2.9,1.5,2.9,1.5-1.3,1.5-2.9-.7-2.9-1.5-2.9Z"/><path class="cls-12" d="M82.6,191h0c2.9,19.3,5.2,38.5,6.9,57.8h0c1.9-.3,3.8-.9,5.5-1.5h0c-1.7-19.2-4-38.2-6.9-57.2-1.6.3-3.5.6-5.6.9Z"/><path class="cls-11" d="M91.2,121.3h-.1c.1,5,.2,9.6.2,14.4,1.1,1.3-.6-.8,1.3,2.8.6-.2,1.2-.4,1.8-.6,5.7-1.8,7.4-3.2,9.2-7.3.4-.8.7-1.7,1.1-2.8-4.3-6.9-7.7-16.1-12.1-20.1-2.4-2.2-4-4.2-6.8-5.2,4.2,5,5,11,5.4,18.7Z"/><path class="cls-6" d="M88.9,295.1c-1.1,2.1-1.6,11.4.4,12.7,1.5.9,19.5,1.5,24.6,1.2.5,0,3.4-.7,3.8-.9,1.5-.7.8-9.4,0-10.8-1.8-3.6-9.2-6.5-13.2-7.5-.4.7-1.3.7-2.1.7-2.4,0-7,0-9.4.5-.4.1-.8.3-1.2.4-1.5.7-2.2,2-3.1,3.7Z"/><path class="cls-7" d="M88.8,79.3c1.6,1,4-5.3,4.4-8,.3-1.8,1.3-5.6-1.2-6.3-.4-.1-.9-.1-1.5,0,0,.3,0,.7,0,1.1,0,5.5-.7,9.8-1.6,13.3Z"/><path class="cls-6" d="M99.7,280.8s0,0,0,0c-2.6-.1-5.9.9-7.2,2.4-1.9,2.2-2.3,5.4-1.7,8.2h1.1c.3-.1.7-.3,1.2-.4,2.4-.6,6.9-.5,9.4-.5.8,0,1.7,0,2.1-.7.2-.3.2-.8.2-1.2-.1-2.3-.2-5.3-2-6.8-.7-.6-1.8-.9-3.1-1Z"/><path class="cls-7" d="M92.3,159.9h-.7c.2,7,.6,14.6,1,21h.7c1.8-.5,1.1.2,2.2-2.8.8-2.3,1.2-4.3,2-6.6,1.7-5.3,5.3-8.3,9.2-12.5,5.3-5.7,8.7-9.7,4.6-15.5-.8-1.1-5.7-9.2-7.6-12.9-1.8,4-3.5,5.4-9.2,7.3v.2c1.5,2.8,5.2,11.1,5.4,10.6h.5c-1.2,2-1.9,3.8-3.2,6.4-.9,2-4.8,4.5-4.8,4.6Z"/><path class="cls-8" d="M88.2,190.1c2.9,19,5.2,38.1,6.9,57.2h0c.6-.2,1.1-.4,1.7-.6,1.4-.5,2.7-1,4-1.4,0-7.2-6.5-49.4-7.6-56.1-.6,0-2.4.4-5.1.8Z"/><path class="cls-2" d="M57,104.8c-2.6-1.3-4.6-2.8-4.4-4"/><path class="cls-2" d="M77.4,100.6c-.2,1-.4,1.8-.8,2.6-.6,1.3-1.5,2.3-2.8,3.1-1.1.6-2.5,1-4.3,1.3-.4,0-.8,0-1.2.1-1.2.1-2.8-.1-4.6-.5-2.2-.5-4.6-1.4-6.7-2.4"/><path class="cls-2" d="M74.5,100.4c0,.2,0,.3,0,.5"/><path class="cls-1" d="M74.6,98.1c0,.8,0,1.6,0,2.3"/><path class="cls-2" d="M85.9,102.6c2.8,1,4.4,3,6.8,5.2,4.4,4,7.8,13.3,12.1,20.1-.4,1-.8,2-1.1,2.8-1.8,4-3.5,5.4-9.2,7.3-.5.2-1.1.4-1.8.6"/><path class="cls-2" d="M74.6,100.4c.6,0,1.6,0,2.8.2.9.1,1.9.3,2.8.5,1.8.4,3.5.8,4.5,1.1.4,0,.8.2,1.1.3"/><path class="cls-2" d="M55.8,99.9c-.5.1-1.7.5-3.2.9-.8.2-1.8.5-2.8.7-2,.5-4.2,1.1-6.1,1.7-2.1.6-3.8,1.1-4.4,1.3-.8.4-1.6.9-2.3,1.4-2.4,1.9-4.2,4.6-6.4,6.7-2.1,2-10.2,10.5-10.2,10.5,0,1.4.5,3.4,1.3,5.3,1.1,2.6,2.7,5.1,4,6.3,1.6,1.5,3,2.4,4.5,3.2,1.4.7,2.9,1.2,4.7,1.9,2.2-2.4,5.1-6.4,7.7-10,0,0,0,0,0,0,.7-1,1.4-1.9,2-2.8.8-1.2,1.5-2.2,2.2-3.1,0-.1.2-.3.3-.4"/><path class="cls-2" d="M91.1,121.3c.1,5,.2,9.6.2,14.4,0,3.2,0,6.4,0,10s0,8.7.3,14.2h0c.2,7,.6,14.6,1,21,.2,3.2.4,6.1.7,8.4-.6,0-2.4.4-5.1.8-1.6.3-3.5.6-5.6.9-1.9.3-4,.5-6.2.7-1.5.1-3,.3-4.5.3-1.3,0-2.6.1-3.9.1-2.2,0-4.4,0-6.6-.2-2.8-.2-5.5-.5-8.2-1.1-2.5-.5-5-1.3-7.3-2.2-1.6-.7-3.1-1.4-4.6-2.3-.5-.3-1-.6-1.5-1"/><path class="cls-2" d="M42.5,129.8c0-.2,0-.2,0,0,0,1.2.4,10.2.5,11.8.3,3.5.7,7.2.5,10.8-.3,5.1-.6,6.5-1,11h0"/><path class="cls-2" d="M103.6,130.7c1.9,3.6,6.8,11.7,7.6,12.9,4.1,5.8.8,9.8-4.6,15.5-4,4.2-7.5,7.2-9.2,12.5-.7,2.3-1.2,4.3-2,6.6-1.1,3-.4,2.3-2.2,2.8"/><path class="cls-2" d="M94.5,138.2c1.5,2.8,5.1,11.1,5.3,10.6"/><path class="cls-2" d="M91.3,135.7s0,0,0,0c1.1,1.3-.6-.8,1.3,2.8"/><path class="cls-2" d="M103.8,144.3c-1.6,1.8-2.7,3.2-3.5,4.5-1.2,1.9-1.9,3.7-3.2,6.3-.9,2-4.8,4.5-4.8,4.6s0,0,0,0"/><path class="cls-2" d="M30.1,137.9h0c-1.5,1.3-4.9,5.4-5.7,6.2"/><path class="cls-2" d="M21.6,128.4c-3.2,3.3-9.4,8.8-10.8,11.3-3,5.4,2.7,11.7,6.6,16.3,2.9,3.4,8.1,9.6,10.7,13.4"/><path class="cls-2" d="M35.4,161.9c-1.3-1.2-5.8-5.7-7.6-9.1-1.8-3.3-2.2-6.1-3.4-8.7-.6-1.3-1.5-2.6-2.9-3.8"/><path class="cls-2" d="M35.7,162.2h0s-.2-.2-.3-.3"/><path class="cls-2" d="M40.4,181.3c-1.1,2.4-7.1-1.2-8.5-2.5-2.1-2-5.2-6.4-3.9-9.4"/><path class="cls-2" d="M45.4,167.8c2,2,3.7,4.6-.7,5.6.9,2.1-.7,3.6-2,3.8,1.3,1.7-1.1,3-2.2,3,0,.5,0,.8-.2,1.1"/><path class="cls-2" d="M43.2,165.6c.4.5,1.3,1.4,2.2,2.3"/><path class="cls-2" d="M35.1,161.8c0,0,.2,0,.3,0h0c1.9.5,4.9.7,7.1,1.5,2,.7,3.4,2,2.9,4.5h0s0,0,0,0"/><path class="cls-1" d="M55.8,101.2c0-.4,0-.9,0-1.3.1-2.1.2-4.1.2-7.4h0"/><path class="cls-1" d="M90.5,60.4c-.2,4.2,0,1.3,0,4.6,0,.3,0,.7,0,1.1,0,5.5-.7,9.8-1.6,13.3-1.3,4.6-3.2,7.8-5.6,10.7-2.8,3.3-5.5,6.4-8.6,8.1-4.5,2.5-10,2.1-17.7-4.9-.2-.2-.5-.4-.8-.7-2.9-2.3-7.4-5-9.5-12.7"/><path class="cls-1" d="M85.7,62.6c-1.1-.9-5.5-.9-6.6-.5"/><path class="cls-1" d="M64.9,62.2c-2.1-1-7.5-.4-7.9.4"/><path class="cls-1" d="M81,68.4c0,1.6.7,2.9,1.5,2.9s1.5-1.3,1.5-2.9-.7-2.9-1.5-2.9-1.5,1.3-1.5,2.9Z"/><path class="cls-1" d="M59.9,68.6c0,1.9.8,3.4,1.8,3.4s1.8-1.5,1.8-3.4-.8-3.3-1.8-3.3-1.8,1.5-1.8,3.3Z"/><path class="cls-1" d="M78.4,78.8c-1.1,2.8-6.6,3-10.8.9"/><path class="cls-1" d="M78.9,85.4c-.1,0-.3.2-.4.2-3.9,2-11.4.9-15.6-.3-.9-.3,3.6,4.9,9.1,4.6,3.2-.2,5.4-1.1,6.6-4.2"/><path class="cls-1" d="M92,64.9c0-5.2,0-9.4-1.5-16.9-2-10.3-6.8-13.9-20.1-14.9-8.8-.7-23.1,2.1-25.6,11.4-1.7,6.4-1.3,12-1.2,19"/><path class="cls-1" d="M45.5,65.2c-.5-.5-1.2-.7-1.9-.7-.6,0-1.3.1-1.8.3-1.7.7-2,1.7-2,3.7,0,1.9.6,4,1.3,5.7.7,1.5,1.9,4.2,3.1,5,.7.5,1.6.7,2.4.5.5-.1.9-.4,1.3-.9"/><path class="cls-1" d="M46,66.1c-.1-.4-.3-.7-.5-.9"/><path class="cls-1" d="M90.5,64.9c.6,0,1.1,0,1.5,0,2.5.7,1.5,4.5,1.2,6.3-.4,2.7-2.8,9.1-4.4,8,0,0,0,0,0,0"/><path class="cls-1" d="M44.8,63.2c0,.5.3,1.3.6,2.1h0c.2.3.3.6.5.9h0c.7.9,1.4,1.5,1.8.9.7-1.3,0-9.1,2.1-12.5,6.1-9.7,10.3-8.3,22.2-4.9,9.7,2.7,18-8.7,18.4,10.8,0,.5,0,1,0,1.5"/><path class="cls-2" d="M46.7,124.7c0-.2,0-.5,0-.8,0,0,0,0,0,0-.4-3.8-1.7-10.1-3.1-13.1-1.4-3.3-3-4.3-6.6-4.8h0"/><path class="cls-2" d="M91.3,122.7c0-.5,0-.9,0-1.4-.3-7.7-1.1-13.7-5.4-18.7h0"/><path class="cls-2" d="M43,141.6c.6-1,1.6-1.8,2.9-2.6,1-.6,2.1-1.1,3.3-1.5,1.3-.5,2.7-.9,4.2-1.3,1.6-.4,3.2-.8,4.7-1,1.9-.3,3.6-.6,5.1-.7.7,0,1.4,0,2-.1.8,0,1.5,0,2.2,0,2,0,3.7,0,5.3,0,1.8,0,3.3,0,4.7.2,1.6,0,3.1.2,4.7.4,1.6.1,3.4.3,5.5.5,1.1.1,2.3.2,3.6.3"/><path class="cls-2" d="M73.8,106.3h0c2.8,8.7,3.6,17.9,3.7,27.9"/><path class="cls-2" d="M76.6,103.2c1.4,1.9,2.3,4,2.9,6.4.9,3.4,1.7,5.8,2,9.3.4,4.8.7,9.9.7,15.8"/><path class="cls-2" d="M80.2,101.5c3.4,4.1,4.5,6.4,5.7,11.6,1.3,5.9,1.5,15.9,1.8,22.2"/><path class="cls-2" d="M43.7,103.3c1.4.5,2.6,1.7,3.4,3,.8,1.3,1.3,2.8,1.7,4.3,2.5,8.2,4.2,16.6,4.5,25.2"/><path class="cls-2" d="M49.5,101.1c0,.1.2.2.2.3,3.2,4.7,5.2,10.2,6.3,15.8,1.2,5.7,1.6,12,2,17.8,0,0,0,.1,0,.2"/><path class="cls-2" d="M56.9,104.7s0,0,0,.1h0c1.8,3.2,2.9,6.7,3.7,10.6,1.1,5.8,2.2,13.2,2.6,19"/><path class="cls-2" d="M63.6,107.4c2,8.8,3.6,17.8,3.9,26.8h0"/><path class="cls-2" d="M69.4,107.1c0,.1,0,.3,0,.4,1.9,8.2,3.4,18.3,3.3,26.7"/><path class="cls-2" d="M49.2,137.2c0-.1,0-.2,0-.3"/><path class="cls-2" d="M46.7,123.9c1.5,4.1,2.3,8.5,2.4,12.9"/><path class="cls-2" d="M44.4,126.9s0,0,0,.1c.5,3.8,1,8.2,1.5,12"/><path class="cls-1" d="M66,206.1c0-.1,0-.2,0-.3"/><path class="cls-1" d="M93.3,189.3c1,6.6,7.6,48.9,7.6,56.1-1.3.4-2.6.9-4,1.4-.6.2-1.1.4-1.7.6-1.7.6-3.6,1.1-5.5,1.6-1.6.4-3.3.6-5,.8-2.1.2-4.2.2-6.5,0-.6,0-1.2-.2-1.8-.3-1.8-.3-3.6-.8-5.5-1.5,0-3.2-4.5-36.8-4.7-41.8"/><path class="cls-1" d="M68,192c0,0,0,.2,0,.3,0,2.1,0,7.5-.8,9.5-.3.8-.7,2.4-1.2,4.3h0c-2.8,11.2-8.1,37.2-8.9,41.2,0,.2-.2.4-.4.5-.9.1-2.1.2-3.3.2-1.2,0-2.4-.1-3.7-.3-2.7-.3-5.7-.9-8.4-1.6-2.9-.7-5.4-1.5-7.3-2.2-.3-.1-.6-.2-.8-.4-.8-.4-1.5-.7-1.7-1,0,0,8.2-47.3,9.7-55.8"/><path class="cls-1" d="M96.8,246.8c.1,5.9.5,13.2.5,16.2"/><path class="cls-1" d="M76.2,249.4c.2.5,2,7.3,2.1,7.8,4.4,13.4,9.8,29,10.5,37.9"/><path class="cls-1" d="M53.4,247.9c-2,5.1-5.5,15.8-7,20.9-1.5,4.8-4.1,19.3-4.4,25"/><path class="cls-1" d="M33.2,243.5c-1,7.5-.9,22.4-3.3,36.5"/><path class="cls-1" d="M99.7,280.8c0,.1,0,.2,0,.3"/><path class="cls-1" d="M97.3,263c0,3.2,1.5,14.3,2.4,17.8"/><path class="cls-1" d="M32.1,279.9c-.7,0-1.5.1-2.1.4-1.4.5-2.6,1.4-3.2,2.8-.4.9.6,4.1,0,4.9-.4.7-1.1,1.1-1.8,1.5-.9.5-2,.8-3,1.3-2.8,1.3-7.7,4.4-8.4,7.3-.4,1.4-.3,7.7.7,8.8s3.1,1.4,4.8,1.4c5.4.1,10.9.1,16.4,0,2,0,5.8.3,7.2-1.1,1.7-1.7.6-11.6-.6-13.6-.8-1.4-1.6-2.2-2.5-2.7-1.1-.6-2.4-.9-4.3-1.4-2.7-.7-6.4-1.3-10.2-.1-1,.3-2,.7-3,1.3"/><path class="cls-1" d="M39.4,291c2-8.9-5-11.1-7.3-11.1"/><path class="cls-1" d="M90.8,291.3c-.6-2.8-.2-6,1.7-8.2,1.3-1.5,4.6-2.5,7.2-2.4,0,0,0,0,0,0,1.2,0,2.3.3,3.1,1,1.8,1.5,1.8,4.5,2,6.8,0,.4,0,.8-.2,1.2-.4.7-1.3.7-2.1.7-2.4,0-7,0-9.4.5-.4.1-.8.3-1.2.4-1.5.7-2.2,2-3.1,3.7-1.1,2.1-1.6,11.4.4,12.7,1.5.9,19.5,1.5,24.6,1.2.5,0,3.4-.7,3.8-.9,1.5-.7.8-9.4,0-10.8-1.8-3.6-9.2-6.5-13.2-7.5"/><path class="cls-2" d="M39.7,185.5c0-.8.4-2.8.7-4.2,0,0,0,0,0,0,0-.5.1-.8.2-1.1"/><path class="cls-2" d="M45.7,188.9c-3.8,18.1-7.6,36.2-11.4,54.2"/><path class="cls-2" d="M82.6,191.2c2.9,19.1,5.2,38.4,6.9,57.7"/><path class="cls-2" d="M71.9,192.2c.3,7.6.7,15.2,1.8,22.7,1.5,10.5,2.3,21.3,4.3,34.7"/><path class="cls-2" d="M61.3,192.4c-3.5,18.7-6.9,36.8-11.6,54.9"/><path class="cls-2" d="M53,191.4c-3.9,18.2-7.8,36.4-11.7,54.5"/><path class="cls-2" d="M88.2,190s0,0,0,.1c2.9,19,5.2,38.1,6.9,57.2"/><path class="cls-2" d="M76.5,191.9c2.9,15.2,5.3,37.6,8.1,57.9"/></svg>