<?xml version="1.0" encoding="UTF-8"?><svg id="africa" xmlns="http://www.w3.org/2000/svg" width="235" height="321.9" viewBox="0 0 235 321.9"><defs><style>.cls-1{stroke-linecap:round;stroke-linejoin:round;}.cls-1,.cls-2{fill:none;stroke:#000;}.cls-2{stroke-miterlimit:10;}.cls-3,.cls-4,.cls-5,.cls-6,.cls-7,.cls-8,.cls-9,.cls-10,.cls-11,.cls-12{stroke-width:0px;}.cls-4{fill:#37aa8f;}.cls-5{fill:#1e160d;}.cls-6{fill:#318c85;}.cls-7{fill:#93623d;}.cls-8{fill:#8158a5;}.cls-9{fill:#ef5b5b;}.cls-10{fill:#fff;}.cls-11{fill:#ffcf69;}.cls-12{fill:#eaea8c;}</style></defs><path class="cls-6" d="M211.9,212.1c2.8,1.1,3.3,4.9,1.8,7.5-1.5,2.6-4.4,4.3-7.3,5.8-8.7,4.4-18,7.4-27.2,10.5-1.1.4-2.4.7-3.4.2h-.3c-.3-.3-.6-.8-.8-1.2-1.5-3.1-2.7-6.3-3.4-9.6,0,0,0-.1,0-.2.9,3.5,10.3-6.1,9.7-7.3-.6-1.2-1-2-1.1-3.3.3,0,.7,0,1,0h0c8.4-.7,18.5-1.8,26.7-2.5,1.5-.1,3-.2,4.4.3Z"/><path class="cls-7" d="M140.8,216.5c.5-1.6,1.1-3.2,1.7-4.8.9-2.3,1.9-4.5,2.9-6.5.3-.7.7-1.4,1-2.1,11.1,3.9,21.1,6.9,33.5,11.3,0,1.3.4,2.1,1.1,3.3.6,1.2-8.8,10.8-9.7,7.3,0,0,0,.1,0,.2h-.2c-15.4-6.1-23.6-3-30.8-6.6.2-.7.4-1.4.6-2.1Z"/><path class="cls-12" d="M107.5,187.4c11.2,3.4,40.4,12.2,39.8,13.5-.3.7-.6,1.5-1,2.3-.3.7-.6,1.3-1,2.1h-.2c-10.7-6-22.8-8.9-34.4-12.7-10-3.2-19.7-7.1-29.4-11.1l.2-.9c3.6.6,7.4,1.4,11.5,2.3,7.8,1.6,9.9,3.5,13.8,4.4.2,0,.5.1.7.2Z"/><path class="cls-9" d="M145.1,205.1h.2c-.9,2.1-1.9,4.3-2.9,6.6-16.4-5-32.9-10.1-49.3-15.1-4.9-1.5-9.8-3-14.2-5.5-4.4-2.5-8.4-6.1-10.4-10.8v-.4c3.2-.6,7.7-.2,12.9.7l-.2.9c9.7,4.1,19.4,7.9,29.4,11.1,11.7,3.8,23.7,6.7,34.4,12.6Z"/><path class="cls-4" d="M93.2,196.6c16.4,5,32.8,10.1,49.3,15.1-.6,1.6-1.2,3.2-1.7,4.8-19.1-4-38.1-8.6-56.9-13.9-4.9-1.4-9.9-2.9-14-5.9-4.1-2.9-7.2-7.6-7-12.6.8-2.5,2.8-3.8,5.6-4.3v.4c2.1,4.7,6.1,8.3,10.5,10.8,4.4,2.5,9.4,4,14.2,5.5Z"/><path class="cls-8" d="M62.4,189c0-1.2,0-2.4.1-3.6,0-.4.2-.9.3-1.3-.2,5,3,9.6,7,12.6,4.1,3,9.1,4.5,14,5.9,18.8,5.3,37.7,10,56.9,13.9-.2.7-.4,1.4-.6,2.1-.2.7-.3,1.5-.4,2.2,0,.7-13.4-1.8-27.8-4.8-2.3-.5-4.6-.9-7-1.4-2.7-.6-5.4-1.1-8-1.6-4.6-1-8.9-1.8-12.3-2.6-2.8-.6-5.1-1.1-6.7-1.3-2.1-.5-3.8-1-4.9-1.4-4.5-2.1-10.4-8-10.7-18.6Z"/><path class="cls-5" d="M130.5,72c.7,2.2.7,4.4-.3,9.2,0,.5-.2.9-.3,1.3h0c-.3-.9-2.5-3.1-3.5-3.1-1,0-1.9.2-2.9.3-2.2.1-4.3-.9-6.1-2.1-1.8-1.3-3.5-2.8-5.4-3.8-2.2-1.1-3.9-1.7-6.2-1.5-2,.1-3.8.5-5.7,1.5-1.9,1-3.1,3-3.9,4.9-1.5,3.4-2.5,7-4.5,10.1-.7,1.1-1.6,2.1-2.9,2.5-1.2.3-2.4-.8-2.9-2-.7-1.6-2.7-1.9-4-1-1.3.9-2,2.6-2.2,4.3,0,.5,0,1,0,1.5h-1.2c-.2-1.9-.2-4-.3-6-.4-8.6,1.3-25.2,12.9-28.1,19.2-4.9,37.5,5.1,39.6,12.1Z"/><path class="cls-6" d="M129.8,299c15.4,6.9.9,14-6.4,13.2-10.1-1.1-22.1-2.3-33.1-4.3-1.2-.2-2.4-.9-2.9-2-.4-.8-.2-1.7,0-2.5.8-3.6,1.3-8.7,2.9-12,.1.5.4,1,.9,1.4,1.6,1.7,4.6,3,6.4,2.2,1.3-.6,2.2-1.8,2.9-3,.7-1.2,1.4-2.5,2.6-3.3,1.2-.8,2.3-.8,3.2.3h0c7.3,4,14.1,5.9,23.3,10Z"/><path class="cls-7" d="M103.7,108.5l-.2.2c-1.5,7.4,8.5,11.6,11,4.3-4.3-.4-7.1-2.1-10.8-4.6ZM83.7,116.4c.2-2.6.2-6.2.1-9.4-.1-2.5-.3-4.7-.6-6.2v-.4c0,0-.2,0-.3-.2-2.1-1.1-3.2-3.6-3.4-6.1,0-.5,0-1,0-1.5.2-1.7.9-3.5,2.2-4.3,1.3-.9,3.4-.5,4,1,.5,1.2,1.6,2.3,2.9,2,1.2-.3,2.2-1.4,2.9-2.5,2-3.1,3-6.8,4.5-10.1.9-1.9,2.1-3.9,3.9-4.9,1.9-1,3.7-1.4,5.7-1.5,2.3-.1,4.1.4,6.2,1.5,1.9,1,3.6,2.5,5.4,3.8,1.8,1.2,3.9,2.3,6.1,2.1,1,0,1.9-.3,2.9-.3,1,0,3.3,2.2,3.5,3.1h0c-.7,4-1.3,7.6-2.2,10.5-1.3,4.1-1.9,4.3-2.6,6.5-.6,1.9-.6,9.6-7.8,17.5,0,0-4.2,5-8,5.6-1.1.2-4-.5-7.7-2.2v.2c.4.2.9.9,1.3,1.5.4.7.7,1.4,1,1.9h.1c-.6,3.1-2.2,5.5-4.9,7.3-.3.2-.6.3-.9.5-2.1,1-4.5,1.3-6.9,1-.9,0-1.8-.2-2.7-.4-1-.2-1.9-.5-2.8-1-1.9-.9-3.5-2.4-4.5-4.4-.1-.3-.3-.6-.4-.9-1.1-3.3-.4-6.5,2.4-8.7,0-.1,0-.2,0-.4,0-.2,0-.5,0-.7ZM122.9,98.3c.3-1.4,0-2.6-.9-2.8-.8-.2-1.7.8-2,2.2s0,2.6.8,2.8c.8.2,1.7-.8,2-2.2ZM107.5,94.8c.3-1.3-.1-2.5-.9-2.7-.8-.2-1.7.8-2.1,2.1-.3,1.3.1,2.5.9,2.7.8.2,1.7-.8,2.1-2.1Z"/><path class="cls-3" d="M122,95.6c.8.2,1.2,1.4.9,2.8s-1.2,2.4-2,2.2c-.8-.2-1.2-1.4-.8-2.8s1.2-2.4,2-2.2Z"/><path class="cls-11" d="M119.4,156.7c-2.4-.8-7.5-3.2-11.9-3h0c-1,0-2,.2-2.8.6-.3-2.6-.9-5.3-.9-9.8-.1-4.5-.8-8.2,0-12,.1-.6.3-1.3.5-1.9h.1c1.1-2.7,4.6-5.1,6.2-4.9,2.4,1.3,4.5,2.9,5.2,4.5,4,9.6,5.6,26.1,5.1,26.6-.2.2-.7.1-1.4-.1Z"/><path class="cls-7" d="M75,150.4c0,0,.1,0,.2,0,1-.5,3.2,0,5.4,1,2,.9,4,2.1,5.3,3.3.8.7,1.2,1.4,1.3,2h0c2.5-.4,4.3-.6,6-.7s4-.2,6.5-.5c2-.3,4.4-.7,7.8-1.6h0c4.4-.2,9.4,2.2,11.9,3,0,2-.4,3-1.1,4.6-1,1.9-2.1,2-2.9,2.6-3.6,1.3-6.6,2.1-9.4,2.5-7.5,1.1-13.2-.5-23.5-1.6-2.5.9-11.6,1.1-12.6-1.2-.7-1.6,1.4-8.3,3.7-11.6.5-.7,1-1.3,1.5-1.6Z"/><path class="cls-8" d="M118,236.9c.5,8.6-2.8,15-3.1,19.4-1.1.2-2.2.4-3.2.5-.4,0-.8.1-1.2.2v-.3c.9-9.1,2.1-16.2,1.4-23.3-.7-6.9-4-14.1-7-18.8,2.3.5,4.7.9,7,1.4,1.3,4.3,5.6,14.4,6,20.9Z"/><path class="cls-12" d="M112,233.4c.7,7.1-.5,14.2-1.4,23.3v.3c-2.6.4-4.7.6-7,.7v-.5c1-8.3,1.9-16.6.7-24.7-1-6.5-3.4-12.9-7.2-19.5h0c2.6.4,5.3,1,8,1.5,3,4.7,6.3,11.9,7,18.8Z"/><path class="cls-7" d="M111.8,256.8v.3c-2.6,9.3-5.3,22.5-8.8,31.4l.2.2c-1.2.8-1.9,2.1-2.6,3.3-.7,1.2-1.6,2.4-2.9,3-1.8.8-4.9-.5-6.4-2.2h0c-.3-9.5-1-26.7,2.1-35.6.5,0,1.1.1,1.6.2,3.6.3,6.2.5,8.6.4,2.2,0,4.4-.3,7-.7.4,0,.8-.1,1.2-.2Z"/><path class="cls-4" d="M104.2,124.1h-.1c-.2-.5-.6-1.3-1-2,1.9.9,4.8,2.2,7.4,3.6-1.6-.2-5.1,2.2-6.2,4.9h-.1c-.2.6-.4,1.2-.5,1.9-3,6.9-3.8,15-4.1,22.5v.2c-2.5.3-4.3.4-6.5.5v-.4c0-8.4.7-16.4,5.4-23.4v-.2c.2-.1.5-.3.8-.5,2.7-1.7,4.3-4.2,4.9-7.2Z"/><path class="cls-10" d="M114.5,113c-2.5,7.3-12.4,3.1-11-4.3l.2-.2c3.7,2.5,6.5,4.1,10.8,4.6Z"/><path class="cls-3" d="M106.6,92.1c.8.2,1.2,1.4.9,2.7-.3,1.3-1.2,2.3-2.1,2.1-.8-.2-1.2-1.4-.9-2.7.3-1.3,1.2-2.3,2.1-2.1Z"/><path class="cls-11" d="M106.8,187.1c.2,0,.5.1.7.2-.3,0-.5-.1-.7-.2h0Z"/><path class="cls-11" d="M106.8,187.1h0c-3.9-.8-6-2.7-13.8-4.3-4.1-.8-7.9-1.7-11.5-2.3-5.2-.9-9.6-1.3-13-.7-2.8.5-4.8,1.8-5.6,4.3-.1.4-.2.8-.3,1.3-.1,1.3-.1,2.5-.1,3.6-2.7-10.2-.4-20.1,1.6-37.2.2-1.4.3-2.8.5-4.2h.1s0,0,.1.1c1.5,1.4,3.3,2.5,5.2,3.2,1.1.4,2.3.8,3.5,1-2.3,3.3-4.4,10-3.7,11.6,1,2.4,10.1,2.1,12.6,1.2,10.3,1.1,16.1,2.7,23.5,1.6-.7,2.8.8,16.3.9,20.8Z"/><path class="cls-9" d="M104.6,154.3c.9-.4,1.9-.6,2.8-.6-3.4.9-5.8,1.3-7.8,1.6v-.2c.3-7.5,1.1-15.6,4-22.5-.8,3.8,0,7.5,0,12,0,4.5.6,7.1.9,9.8Z"/><path class="cls-9" d="M104.2,232.6c1.2,8.1.3,16.4-.7,24.7v.5c-2.4,0-5,0-8.6-.4v-.2c2.1-7.3,3.4-15.3,2.1-22.7-1.4-8.2-5.8-16-12.4-23.6v-.4c3.6.7,7.8,1.6,12.4,2.6h0c3.8,6.7,6.2,13.1,7.2,19.6Z"/><path class="cls-8" d="M98.4,131.8v.2c-4.7,7-5.3,15-5.3,23.4v.4c-1.6.1-3.5.4-5.9.8h0c0-.7-.5-1.4-1.3-2.2l.5-.2c.9-7.1,2.1-14.7,5.1-21.3v-.3c2.4.2,4.9,0,7-1Z"/><path class="cls-4" d="M93.3,257.1c-.8,0-1.6-.2-2.4-.3,0-5.7,3.2-11.8,1.3-20-2.3-10.3-9.9-19.4-14.3-27.9,1.5.3,3.8.8,6.7,1.3v.4c6.5,7.6,10.9,15.4,12.3,23.6,1.3,7.5,0,15.4-2,22.7v.2c-.5,0-1.1-.1-1.6-.2Z"/><path class="cls-12" d="M91.5,132.9v.3c-3,6.5-4.2,14.2-5.1,21.3l-.5.2c-1.3-1.2-3.3-2.4-5.3-3.3,1-6.5,2.9-13.7,5.4-19.8h0c.9.4,1.8.7,2.8.9.9.2,1.8.3,2.7.4Z"/><path class="cls-9" d="M86,131.5h0c-2.5,6.1-4.4,13.3-5.4,19.8-2.2-.9-4.4-1.5-5.4-1,0,0-.1,0-.2,0,1.1-7.8,2.4-16.7,6.6-23.3.9,2,2.5,3.4,4.5,4.4Z"/><path class="cls-5" d="M83.8,107h-.4c-3.7-3.4-4.7-7.9-5.1-12.8h1.2c.1,2.5,1.3,5,3.4,6,.1,0,.2.1.3.2v.4c.2,1.5.4,3.7.5,6.2Z"/><path class="cls-8" d="M83.7,116.4c0,.2,0,.5,0,.7h-.2c-10.1,7.9-13.1,22.2-13.4,33.8-1.9-.8-3.7-1.9-5.2-3.2.5-11.2,6.6-26.4,16.3-31.1v-.2c.1,0,.3,0,.4,0h0c.8,0,1.5,0,2.2.1Z"/><path class="cls-4" d="M83.5,117.1h.2c0,.1,0,.3,0,.4-2.8,2.1-3.5,5.3-2.4,8.7.1.3.2.6.4.9-4.2,6.6-5.5,15.5-6.6,23.3-.5.3-1,.8-1.5,1.6-1.2-.2-2.3-.5-3.5-1,.3-11.7,3.4-25.9,13.4-33.8Z"/><path class="cls-11" d="M63.5,139.8c-4.4,3.9-9.7,8.7-12,10.3-.5-.3-1-.6-1.5-1-3.3-2.7-5.2-8.2-5.8-11.1-.2-.9-.2-1.5-.2-1.8.1-.9,11-11.3,11.7-11.9,3.9-3.4,6.8-6.1,12-7.1,1.5-.3,8.5-1.3,13.9-1h0c-.2,0-.3.1-.5.1-10.8,1.5-14.5,8.8-16.3,27.9-.1,1.1-.2,2.3-.3,3.3-.1,1.5-.3,2.8-.5,4.2h-.3c0-4.8.2-8.2-.3-12Z"/><path class="cls-12" d="M81.1,116.4v.2c-9.7,4.7-15.8,19.9-16.3,31.1,0,0,0,0-.1-.1h-.1c.1-1.1.2-2.2.3-3.4,1.8-19.1,5.5-26.4,16.3-27.9Z"/><path class="cls-7" d="M33.9,173.2h0c2.3.6,4.5,8.7,3,10.4-1.6,1.9-10.8,2.7-12.4,1.7-1.8-1.2.2-8.2,1.4-10,2.5-11.1,5.5-20.5,12.4-29.7,3.1-4.2,3.7-5.2,5.9-7.5.6,2.9,2.5,8.3,5.8,11.1-2,1.3-1.7,1.3-3.6,2.7-4.5,7.7-9.2,14.8-12.5,21.4Z"/><path class="cls-1" d="M63.7,139.7c0,0-.1.1-.2.2-4.4,3.9-9.7,8.7-12,10.3-.5-.3-1-.6-1.5-1-3.3-2.7-5.2-8.2-5.8-11.1-.2-.9-.2-1.5-.2-1.8.1-.9,11-11.3,11.7-11.9,3.9-3.4,6.8-6.1,12-7.1,1.5-.3,8.5-1.3,13.9-1,.8,0,1.5,0,2.2.2,0,0,.1,0,.2,0"/><path class="cls-1" d="M44.2,138.1c-2.2,2.4-2.8,3.3-5.9,7.5-6.8,9.3-9.8,18.7-12.4,29.7"/><path class="cls-1" d="M50,149.1c-2,1.3-1.7,1.3-3.6,2.7-4.5,7.7-9.2,14.8-12.5,21.4,0,.2-.2.3-.3.5"/><path class="cls-1" d="M34,173.2c2.3.6,4.5,8.6,3,10.4-1.6,1.9-10.8,2.7-12.4,1.7-1.8-1.2.2-8.2,1.4-10"/><path class="cls-1" d="M107.5,153.7c4.4-.2,9.4,2.2,11.9,3,.7.2,1.2.3,1.4.1.5-.5-1.1-17-5.1-26.6-.7-1.6-2.8-3.1-5.2-4.5-2.6-1.4-5.5-2.7-7.4-3.6-.3-.1-.6-.3-.8-.4"/><path class="cls-1" d="M103.7,144.6c0,4.5.6,7.1.9,9.8.9-.4,1.9-.6,2.8-.6"/><path class="cls-1" d="M115.3,163.8c-3.6,1.3-6.6,2.1-9.4,2.5-7.5,1.1-13.2-.5-23.5-1.6"/><path class="cls-1" d="M107.5,153.7h0c-3.4.9-5.8,1.3-7.8,1.6-2.5.3-4.3.4-6.5.5s-3.5.4-6,.8c-.2,0-.4,0-.7.1"/><path class="cls-1" d="M87.1,156.6c0-.6-.5-1.3-1.3-2-1.3-1.2-3.3-2.4-5.3-3.3-2.2-.9-4.4-1.5-5.4-1,0,0-.1,0-.2,0-.5.3-1,.8-1.5,1.6-2.3,3.3-4.4,10-3.7,11.6,1,2.4,10.1,2.1,12.6,1.2"/><path class="cls-1" d="M119.4,156.7h0c0,2-.4,3-1.1,4.6-1,1.9-2.1,2-2.9,2.6"/><path class="cls-1" d="M81.5,116.3c-.2,0-.3,0-.5,0-10.8,1.5-14.5,8.8-16.3,27.9-.1,1.1-.2,2.3-.3,3.3-.1,1.5-.3,2.8-.5,4.2-2,17.1-4.4,27-1.6,37.2,0,.3.2.6.3.9"/><path class="cls-1" d="M105.9,166.3s0,0,0,0c-.7,2.8.8,16.3.9,20.8h0"/><path class="cls-1" d="M62.4,133.9c.5,2.2.9,4.1,1.1,6,.4,3.8.3,7.2.3,12"/><path class="cls-1" d="M78,209c1.5.3,3.8.8,6.7,1.3,3.5.7,7.7,1.6,12.3,2.6,2.6.5,5.3,1.1,8,1.6,2.3.5,4.7.9,7,1.4,14.4,2.9,27.7,5.5,27.8,4.8,0-.7.2-1.4.4-2.2.2-.7.4-1.4.6-2.1.5-1.6,1.1-3.2,1.7-4.8.9-2.3,1.9-4.5,2.9-6.5.3-.7.7-1.4,1-2.1.4-.9.7-1.6,1-2.3.6-1.3-28.7-10.1-39.8-13.5-.3,0-.5-.2-.7-.2-1.6-.5-2.7-.8-3.2-1"/><path class="cls-1" d="M73.1,207.6c1.1.4,2.8.9,4.9,1.4"/><path class="cls-1" d="M78,209c4.3,8.4,11.9,17.6,14.3,27.9,1.9,8.2-1.3,14.3-1.3,20,.8,0,1.6.2,2.4.3.5,0,1.1.1,1.6.2,3.6.3,6.2.5,8.6.4,2.2,0,4.4-.3,7-.7.4,0,.8-.1,1.2-.2,1-.2,2-.3,3.2-.5.2-4.4,3.5-10.8,3.1-19.4-.4-6.5-4.8-16.5-6-20.9"/><path class="cls-1" d="M111.8,257.1c-2.6,9.3-5.4,22.5-8.9,31.4"/><path class="cls-1" d="M93.3,257.1h0c-3.2,8.9-2.4,26.1-2.1,35.6"/><path class="cls-1" d="M90.4,291.3c.1.5.4,1,.9,1.4,1.6,1.7,4.6,3,6.4,2.2,1.3-.6,2.2-1.8,2.9-3,.7-1.2,1.4-2.5,2.6-3.3,1.2-.8,2.3-.8,3.2.3"/><path class="cls-1" d="M90.4,291.3c-1.7,3.3-2.2,8.4-2.9,12-.2.8-.3,1.7,0,2.5.5,1.1,1.7,1.8,2.9,2,11,2,22.9,3.2,33.1,4.3,7.3.8,21.9-6.4,6.4-13.2-9.2-4.1-16-6-23.3-10"/><path class="cls-1" d="M62.5,185.4c-.1,1.3-.1,2.5-.1,3.6.3,10.6,6.2,16.4,10.7,18.6"/><path class="cls-1" d="M140.2,218.6c7.2,3.6,15.4.6,30.8,6.7"/><path class="cls-1" d="M179.8,214.4c-12.4-4.3-22.4-7.3-33.5-11.3"/><path class="cls-1" d="M179.7,213.8s0,0,0,0c0,0,.3.6,1.1.5"/><path class="cls-1" d="M171.1,225c.9,3.5,10.3-6.1,9.7-7.3-.6-1.2-1-2-1.1-3.3,0-.3,0-.5,0-.6"/><path class="cls-1" d="M175.7,236.1c1,.5,2.3.1,3.4-.2,9.3-3,18.6-6.1,27.2-10.5,2.8-1.4,5.7-3.2,7.3-5.8,1.5-2.6,1.1-6.4-1.8-7.5-1.3-.5-2.9-.4-4.4-.3-8.2.7-18.3,1.8-26.7,2.5h0c-.3,0-.7,0-1,0"/><path class="cls-1" d="M171.1,225c0,0,0,.1,0,.2.7,3.3,1.9,6.6,3.4,9.6.2.4.5.9.8,1.3.2.2.4.4.7.6"/><path class="cls-1" d="M108.1,187.5c-.2,0-.4,0-.6,0-.3,0-.5-.1-.7-.2-3.9-.9-6-2.8-13.8-4.4-4.1-.8-7.9-1.7-11.5-2.3-5.2-.9-9.6-1.3-13-.7-2.8.5-4.8,1.8-5.6,4.3-.1.4-.2.8-.3,1.3"/><path class="cls-2" d="M104.2,130.6c-.2.6-.4,1.3-.5,1.9-.8,3.8,0,7.5,0,12"/><path class="cls-2" d="M110.7,125.8c0,0-.1,0-.2,0-1.6-.2-5.1,2.2-6.2,4.9"/><path class="cls-1" d="M83.7,117.4c0,0-.1,0-.2.1-2.8,2.1-3.5,5.3-2.4,8.7.1.3.2.6.4.9.9,2,2.5,3.4,4.5,4.4.9.4,1.8.8,2.8,1,.9.2,1.8.3,2.7.4,2.4.2,4.9,0,6.9-1,.3-.1.6-.3.9-.5,2.7-1.7,4.3-4.2,4.9-7.2h0c0-.4.1-.8.2-1.2"/><path class="cls-1" d="M109.4,122.6c-1.1.2-4-.5-7.7-2.2-4.1-1.9-9-5-13.3-9.5"/><path class="cls-1" d="M127.8,93.1c-1.3,4.1-1.9,4.3-2.6,6.5-.6,1.9-.6,9.6-7.8,17.5,0,0-4.2,5-8,5.6"/><path class="cls-1" d="M125,92.5c-1.1-1.7-3.2-2.4-4.6-1.4"/><path class="cls-1" d="M102.6,86.9c3.5-1,6.9-.4,8.1,1.3"/><path class="cls-1" d="M117.8,106.3c-.2,3.9-8.5,1.6-9.6.2"/><path class="cls-1" d="M120,97.8c-.3,1.4,0,2.6.8,2.8.8.2,1.7-.8,2-2.2s0-2.6-.9-2.8c-.8-.2-1.7.8-2,2.2Z"/><path class="cls-1" d="M104.5,94.2c-.3,1.3.1,2.5.9,2.7.8.2,1.7-.8,2.1-2.1.3-1.3-.1-2.5-.9-2.7-.8-.2-1.7.8-2.1,2.1Z"/><path class="cls-1" d="M114.5,113c-4.3-.4-7.1-2.1-10.8-4.6-.3-.2-.6-.4-.8-.6"/><path class="cls-1" d="M114.5,113c-2.5,7.3-12.4,3.1-11-4.3"/><path class="cls-1" d="M83.2,100.8c.3,1.5.5,3.7.6,6.2.1,3.2.1,6.8-.1,9.4,0,.2,0,.5,0,.7,0,.1,0,.2,0,.4-.1,1-.3,1.8-.5,2.2"/><path class="cls-1" d="M104,124.1c-.2-.5-.6-1.3-1-1.9-.4-.7-.9-1.3-1.4-1.5-.2,0-.4-.1-.5-.1"/><path class="cls-1" d="M127.8,93.1c.9-2.9,1.5-6.5,2.2-10.5,0-.4.2-.9.3-1.3.9-4.8.9-7,.3-9.2-2.1-7-20.5-17-39.6-12.1-11.5,2.9-13.2,19.6-12.9,28.1,0,2.1.1,4.1.3,6.1.4,4.9,1.5,9.4,5.1,12.8"/><path class="cls-1" d="M86.2,99.6c-.5,1.1-1.9,1.2-2.9.8-.1,0-.2,0-.3-.2-2.1-1.1-3.2-3.6-3.4-6.1,0-.5,0-1,0-1.5.2-1.7.9-3.5,2.2-4.3,1.3-.9,3.4-.5,4,1,.5,1.2,1.6,2.3,2.9,2,1.2-.3,2.2-1.4,2.9-2.5,2-3.1,3-6.8,4.5-10.1.9-1.9,2.1-3.9,3.9-4.9,1.9-1,3.7-1.4,5.7-1.5,2.3-.1,4.1.4,6.2,1.5,1.9,1,3.6,2.5,5.4,3.8,1.8,1.2,3.9,2.3,6.1,2.1,1,0,1.9-.3,2.9-.3,1,0,3.3,2.2,3.5,3.1"/><path class="cls-1" d="M64.6,147.6s0,0,.1.1c1.5,1.4,3.3,2.5,5.2,3.2,1.1.4,2.3.8,3.5,1,0,0,.2,0,.2,0"/><path class="cls-1" d="M62.8,183.8c0,0,0,.2,0,.3-.2,5,3,9.6,7,12.6,4.1,3,9.1,4.5,14,5.9,18.8,5.3,37.7,10,56.9,13.9,0,0,0,0,0,0"/><path class="cls-1" d="M68.6,180.3c2,4.7,6,8.3,10.4,10.8,4.4,2.5,9.4,4,14.2,5.5,16.4,5,32.8,10.1,49.3,15.1.2,0,.3,0,.5.1"/><path class="cls-1" d="M81.3,181.4c9.7,4.1,19.4,7.9,29.4,11.1,11.7,3.8,23.7,6.7,34.4,12.6"/><path class="cls-1" d="M84.6,210.8c6.6,7.6,11,15.4,12.4,23.6,1.3,7.5,0,15.4-2,22.7"/><path class="cls-1" d="M97,213.1c3.8,6.6,6.2,12.9,7.2,19.5,1.2,8.1.3,16.4-.7,24.7"/><path class="cls-1" d="M104.9,214.4c0,0,0,0,0,.1,3,4.7,6.3,11.9,7,18.8.7,7.1-.5,14.2-1.4,23.3"/><path class="cls-2" d="M83.5,117.1c-10.1,7.9-13.1,22.2-13.4,33.8,0,.1,0,.2,0,.3"/><path class="cls-2" d="M81.6,126.9s0,0,0,.1c-4.2,6.6-5.5,15.5-6.6,23.3,0,0,0,.1,0,.2"/><path class="cls-2" d="M86,131.5c-2.5,6.1-4.4,13.3-5.4,19.8,0,.1,0,.2,0,.4"/><path class="cls-2" d="M91.4,133.1c-3,6.5-4.2,14.2-5.1,21.3"/><path class="cls-2" d="M98.5,132c-4.8,7-5.4,15-5.4,23.4"/><path class="cls-2" d="M104,131.8c-.1.2-.2.5-.3.7-3,6.9-3.8,15-4.1,22.5"/><path class="cls-2" d="M81.1,116.6c-9.7,4.7-15.9,19.9-16.3,31.1,0,0,0,.2,0,.3"/></svg>