<?xml version="1.0" encoding="UTF-8"?><svg id="africa" xmlns="http://www.w3.org/2000/svg" width="235" height="321.9" viewBox="0 0 235 321.9"><defs><style>.cls-1{fill:#281f15;}.cls-1,.cls-2,.cls-3,.cls-4,.cls-5,.cls-6,.cls-7,.cls-8,.cls-9,.cls-10,.cls-11,.cls-12{stroke:#000;stroke-linecap:round;stroke-linejoin:round;}.cls-2{fill:#4a92a2;}.cls-3{fill:#423426;}.cls-4{fill:#16100d;}.cls-5{fill:#926b4d;}.cls-6{fill:#805294;}.cls-7{fill:#9878b9;}.cls-8{fill:#d23581;}.cls-9{fill:#a687b5;}.cls-10{fill:#fff;}.cls-11{fill:none;}</style></defs><path class="cls-10" d="M122,150.9c-.4,0-.8,0-1.1.2-.7.4-.9,2.1-.4,2.9-.4-.2-1-.3-1.6-.3-1.1,0-2.7,1.7-3.9,1.8-1.7.1-2.7-1.5-4.3-1.2-.4,0-.8.3-1.3.6,0,.8.6,2.6.7,3.6-.6.1-1.1.3-1.6.4-4,.9-6.9,1.2-9.7,1.5.3-8-2.1-14.4-5.9-14.9-3.2-.4-6.5,3.8-8.3,9.9,0,0,0-.1,0-.2.2-1.4.7-1.7-.3-3.2,1-.4,1.1-2.2,1.2-3.3,0-.9,0-1.7-.3-2.4h0c-.2-.5-.6-.9-1.2-1.4-.4-.3,0-2,.9-3.6.1-.2.2-.5.3-.7h0c.6-1.5.7-3.3-.5-4.3.2-.2.5-.5.7-.8,1.2-1.5,2.3-3.9,3-6.2-.2,1.6-.5,2.9-.9,3.5,1.4,1.8,3.4,2.8,5.6,3.3,3.8.8,9.3-1.4,11.8-5.4-.2-1.9-.2-3.2-.1-4.8,3.1,1.7,11.6,5,13.1,8.6,1.7,4.3,2.9,8.6,3.6,12.2-.7.6-.7,2.5,0,3.1.2.2.4.3.7.4,0,.2,0,.5.1.7Z"/><path class="cls-5" d="M127.6,94c-1.1-4.3-1-7.3-.9-11-3.2-1.7-5.5-2.1-6-5.2h0c-1.2,1.3-1.9,1.1-5.5.8-3-.2-3.5-1.3-5.4-3-.7,3.4-8.9,4.8-10.6,2.3-.1,3.7-7.4,6-9.3,5,1.5,3.4-1.8,14.2-3.9,13.9-.3-.5-.8-.8-1.3-.9-1.1-.4-2.5,0-3.4.7-1.3,1.2-1.8,3.1-1.6,5,0,1,1.2,4.4,1.9,5.1,1.3,1.5,3.2,3,5.1,3,.5.8,1,3,1.4,5.6.3,2.1.5,4.6.6,7,0,.6,0,1.2,0,1.7.5,1.4.3,3.3-.2,5.4-.2,1.6-.5,2.9-.9,3.5,1.4,1.8,3.4,2.8,5.6,3.3,3.8.8,9.3-1.4,11.8-5.4-.2-1.9-.2-3.2-.1-4.8,0-.8.1-1.7.3-2.7v-.2c2.7,1.1,5,1.8,6,1.7,3.6-.6,8.9-5.7,8.9-5.7.2-.2.4-.3.5-.5,3.1-3,4.6-7.3,5.2-11.3.7-4.3.6-8,.9-9,.6-2.2-.2-.8,1.9-4.3-.2,0-.5,0-.6,0ZM104.2,91.4c-.3,0-.6-.2-.8-.5-.2-.2,0-.9.2-1.1,2.4-2,7.5-1.2,8.6.5.2.2,0,1.4,0,1.7,0,.3-.2.6-.5.6-.2,0-2-.5-2.2-.6-1.6-.9-3.6,0-5.4-.6ZM105.4,97.4c.3-1.4,1.2-2.3,2-2.2.8.2,1.2,1.4.9,2.8-.3,1.4-1.2,2.3-2,2.2-.8-.2-1.2-1.4-.9-2.8ZM106.4,109.4l.2-.2c3.6,2.5,6.3,4.2,10.4,4.7-2.4,7.5-10.6,7.1-10.5-4.5ZM123,101.6c-.3,1.4-1.2,2.4-2,2.3-.8-.2-1.1-1.5-.8-2.9s1.2-2.4,1.9-2.3c.8.2,1.1,1.5.8,2.9ZM123.9,96.6c-.1,0-.3,0-.4,0-1.2-.3-2.4-.5-3.5-.8-.2,0-.3,0-.5-.2-.3-.3.3-2.9.7-3,.9-1.2,4.3-.1,4.5,2.2,0,.3-.4,1.7-.7,1.8Z"/><path class="cls-1" d="M126.5,135.8c.9,1.9,1.3,3.3-.8,6.4,0,0,0,.2,0,.3,0,0-.2,0-.3,0-.6,0-1.5-.3-2.4-.3-1.3-.8-2.4-1.6-3.3-3.2-.3-2.1.6-3.7,1.1-3.2-1.5-1.3-2.4-4.4-.1-6.4,1.1-1-.4-4.2-.6-5.6,0-.5-.2-1-.2-1.5-.2-1.3,0-2.2.8-3.6h0c3.1-3.1,4.6-7.4,5.2-11.4l.9.2c.2,0,.6-.2,1-.5,0,0,0,0,.1-.1h.1c2.8,3.4,2.6,8.8-.3,11.8,0,0,0,.1,0,.2,1.2,2.9.8,6.4-.9,9,0,0,0,0,0,0,.5.4.8.9,1.1,1.4,0,.1.1.2.2.3,1,2.1.5,4.6-1.4,6.2Z"/><path class="cls-1" d="M131.4,99.5c0,3-2.3,6-3.8,7.2,0,0,0,0-.1.1-.4.3-.8.5-1,.5l-.9-.2c.7-4.3.6-8,.9-9,.6-2.2-.2-.8,1.9-4.3.2,0,.5.1.8.3,0,0,0,0,0,0,.1,0,.2.2.3.2,0,0,0,0,0,0,1,.8,2,2.5,2,5.1Z"/><path class="cls-1" d="M129.4,94.4s0,0,0,0c-.1,0-.2-.2-.3-.2,0,0,0,0,0,0-.2-.1-.4-.3-.6-.5.4-2,.6-3.9.5-5.8-.2-2.3-.7-4.5-1.7-6.7-.4-.8-.8-1.5-1.2-2.3-2-3.1-3.4-2.8-4.5-6.3h0c0-.4.1-.8.2-1.3.2-1.4,0-2.5-.6-3.4,2.6-.2,4.5,1,6,2.4.3.3.6.5.8.8,1.5,1.5,3.6,4.7,4.5,7.1.1.4.2.7.3,1,.2,1.2.4,2.6.5,3.9.5,6.5-.3,13.6-3.7,11.4Z"/><path class="cls-1" d="M127.8,129.5c1.1,2.1.7,4.7-1.2,6.5"/><path class="cls-1" d="M127.7,118.4c-1.7,2.2-5.3,3.9-8.1,3.8"/><path class="cls-1" d="M127.7,129.2c-.3-.5-.6-1-1.1-1.4,0,0-.1-.1-.2-.1,1.7-2.6,2.1-6,1-8.9l-.2-.4"/><path class="cls-11" d="M67,144.2c0,0-.2.2-.2.2"/><path class="cls-5" d="M50.1,156.7c-4.3,7.9-7.6,11.6-10.8,18.1h0c2.2.6,4.4,8.9,2.9,10.7-1.6,1.9-10.6,2.7-12.1,1.7-1.8-1.2.2-8.4,1.4-10.2,2.5-11.3,4-17.2,10.6-26.7,3-4.3,9-12.1,12-15.2l.4-.7c.5.2,1.1.6,1.5,1.9.3,1.2-.5,4.5,0,5.8.6,1.4,3.4,1.6,4.2,2.8.8,1.2-.2,3.5.9,4.1.4-.3.7-.5,1-.7-3.2,2.3-8.1,5.3-12.1,8.4Z"/><path class="cls-11" d="M39.3,174.8c0,.2-.2.3-.2.5"/><path class="cls-11" d="M63.5,147.3c-.4.3-.8.6-1.2.9"/><path class="cls-11" d="M109.4,154.9c-.9.6-2,1.5-2.6,1.7-.3-2.7-.7-2.8-.8-7.4"/><path class="cls-5" d="M122,154.8c0,1.5-.2,3-.1,4.5h-.5c0,2.5-.3,5-1.2,6.9-1,1.9-2,2.1-2.9,2.7-3.5,1.4-6.5,2.2-9.2,2.6-4,.6-7.5.4-11.5-.1-3.3-.4-6.9-1-11.4-1.5-.4.2-1.1.3-1.9.4-3.5.5-9.6.3-10.4-1.7-.8-2,2.5-12.3,5.2-13.6.4-.2,1-.2,1.7-.1,1.3.2,2.9.7,4.4,1.5,0,0,.2,0,.3.1,2.7,1.4,5.2,3.4,5.3,4.9h0c3.6-.6,6.2-.9,8.9-1.1,2.8-.3,5.7-.6,9.7-1.5.5-.1,1-.2,1.6-.4-.2-1-.6-2.8-.7-3.6.5-.3.9-.6,1.3-.6,1.7-.2,2.6,1.4,4.3,1.2,1.3,0,2.9-1.8,3.9-1.8.6,0,1.2.1,1.6.3,0,.1.1.2.2.3.3.3.6.4,1,.4.1,0,.2,0,.3,0Z"/><path class="cls-11" d="M89.9,161.6c-.2,0-.4,0-.7.1"/><path class="cls-11" d="M111.9,158c-.6.2-1.2.3-1.8.5"/><path class="cls-8" d="M98.7,160.4c-2.7.3-5.3.5-8.9,1.2h0c0-1.6-2.6-3.6-5.3-5,0-.9,0-.6,0-1.2,1.8-6.2,5.1-10.3,8.3-9.9,3.8.4,6.2,6.8,5.9,14.9Z"/><path class="cls-11" d="M121.4,159.4c0-1.5-.1-3-.2-4.2"/><path class="cls-10" d="M109.4,189.1h0c-3.8-.9-5.9-2.8-13.5-4.5-15.4-3.4-28.3-6.4-29.7,2.7-.2,1-.3,2-.4,3h0c-.7-12-.7-10.6,1.3-33.6,0-4.8.2-8.3-.2-12.1-3.2,3-3.4,3-4.5,3.7,0,0,0,0,0,0-.3.2-.6.4-1,.7-1.2-.6,0-2.9-.9-4.1-.9-1.2-3.7-1.4-4.2-2.8-.5-1.3.3-4.6,0-5.8-.3-1.3-1-1.7-1.5-1.9-.3-.1-.5-.2-.5-.4.1-.9,4.3-4.7,5-5.4,3.8-3.5,6.6-6.3,11.7-7.3.8-.2,3.8-1.1,6.7-1.3h.1c-.1.9-.2,1.5-.1,1.8.2,1.7,1.4,3.8,1.2,5.5-.2,1.5-1.1,2.9-1.5,4.4-.4,1.5-.1,3.4,1.3,4.1,0,0-.1,0-.2.1-1.8,1.3-2.4,3-1.5,5.1.4,1,1.1,1.9,1.3,2.9.2,1.2-.3,2.5-.4,3.8-.1,1.2.4,2.6,1.5,2.8h0s0,0,.1,0,0,0,.2,0c-1.5,1.7-.8,1.9.4,4.4-.7,0-1.3,0-1.7.1-2.7,1.3-6,11.5-5.2,13.6.8,2,6.9,2.2,10.4,1.7.7,5.2,2.8,8.8,5.6,9.1,2.9.3,5.8-2.9,7.7-8,4,.5,7.5.7,11.5.1-.7,2.8,1.1,13,1.2,17.6Z"/><path class="cls-11" d="M108.1,171.5s0,0,0,0"/><path class="cls-11" d="M66.8,144.5c-.2-1.9-.5-3.9-1.1-6.2"/><path class="cls-6" d="M130,197c-2.2,10.9-7.3,16.3-12.4,20.7-1.7,1.5-3.5,2.8-5.1,4.2-2.8,2.4-5.4,5-7,8.6-.8,1.7-4.3,9-7.4,13.7-1.6,2.5-3.2,4.2-4.1,4-8.9-14.6-32.4-25.8-28.3-58,.1-1,.3-2,.4-3,1.4-9.1,14.3-6,29.7-2.7,7.6,1.7,9.7,3.6,13.5,4.5,0,0,.1,0,.2,0h0c5.9,2,16.2,5.7,20.4,7.9Z"/><path class="cls-11" d="M106.2,188c.7.2,1.8.6,3.1,1.1,0,0,.1,0,.2,0"/><path class="cls-5" d="M114.3,260.5c-2.6,9.6-5.2,19.2-8.6,28.4h0c-.2.2-.5.4-.8.8-.9,1-1.3,2.3-1.7,3.5-.4,1.2-.9,2.5-2,3.3-1.8,1.4-6.1.2-7.2-1.7,0,.3-.1.5-.2.8h0c-.3-9.8-.7-27.8,2.4-36.9,1.1-3.1,2.2-6.7,2.7-10,.5-3.3.8-1.5-.7-4.5,3.1-4.7,6.6-12,7.4-13.7,1.6-3.6,4.1-6.2,7-8.6.4.5,6.7,18.2,6.8,18.8.9,4.6-2.9,11.7-5.1,19.8Z"/><path class="cls-5" d="M168.2,227c0,0,0,.1,0,.2h-.2c-18.6-7.7-21-.2-32.3-10.4-10.1-1.9-12.5.9-18.2.9,5.1-4.4,10.2-9.8,12.4-20.7,8.4,3.5,1-.5,11.5,6,13.8,5.1,21.3,8,35.1,13.1,0,1.4.4,2.2,1,3.4.6,1.2-8.6,11.1-9.5,7.5Z"/><path class="cls-11" d="M176.7,216.2c0-1.3-.3,0,.8,0"/><path class="cls-7" d="M209.7,221.5c-1.5,2.7-4.3,4.4-7.1,5.9-8.5,4.5-17.5,7.6-26.6,10.7-1.1.4-2.3.7-3.3.2l-.2.2s0,0-.1-.1c-.3-.4-.6-.9-.8-1.3-1.5-3.1-2.6-6.4-3.4-9.8,0,0,0-.2,0-.2.9,3.6,10.1-6.2,9.5-7.5-.6-1.2-1-2-1-3.4.3,0,.5,0,.8,0,0,0,.2,0,.2,0,8.1-.8,18-1.9,26-2.6,1.5-.1,3-.2,4.2.3,2.8,1.2,3.2,5,1.7,7.7Z"/><path class="cls-11" d="M173.1,239c-.2-.1-.4-.3-.6-.4"/><path class="cls-11" d="M110.6,189.4c-.4,0-.8-.1-1.1-.2"/><path class="cls-11" d="M110.1,158.7c0,0,0-.1,0-.2"/><path class="cls-11" d="M108.7,156.2c0,1.1-.1,1.5-.2,2.7"/><path class="cls-7" d="M133.4,310.7c-2.4,1.8-5.6,2.2-8.6,2.3-9.2.4-19.2-3.4-28.4-4.5-1.1-.1-2.3-.3-3-1.2-.5-.6-.5-1.5-.5-2.3,0-3.2.3-6.3,1-9.4,0-.3.1-.5.2-.8,1.1,2,5.4,3.1,7.2,1.7,1.1-.8,1.6-2.1,2-3.3.4-1.2.8-2.5,1.7-3.5.3-.3.5-.5.8-.6.5-.2,1.1,0,2.1.2h0s0,0,0,0c7.6,2.9,16,8.6,23.6,11.5,1.3.5,2.7,1.1,3.6,2.1,1.9,2.3.8,6-1.6,7.8Z"/><path class="cls-11" d="M95.6,117.5c2.2,2,6,4.1,9.3,5.5"/><path class="cls-11" d="M119.2,108.5c.3,2.2-3.6,1.9-7.2.9"/><path class="cls-11" d="M106.6,109.2c-.3-.2-.5-.4-.8-.6"/><path class="cls-1" d="M121.7,71.3c0,.5-.1.9-.2,1.3h0c-.1.8-.3,1.4-.7,1.8-.3.3-.7.5-1.2.5-.2,0-.4,0-.6,0-2.2,0-4.3-1-6.4-1.5-1.9-.5-3.9-.8-6.1-.9-.3,0-.5,0-.8,0-4.3-.1-8.7.7-12.2,2.6-1,.5-1.9,1.2-2.7,2h0c-2.7,2.6-4.6,5.5-5.7,8.7-1,3-1.2,6.2-.5,9.6l-.2.5c-1.1-.4-2.5,0-3.4.7-1.3,1.2-1.8,3.1-1.6,5,0,1,1.2,4.4,1.9,5.1-.4.1-.7.8-1.1,1.9h-.1c-3.2-3.2-4.7-6.9-5.2-10.6-1.1-8.5,3.2-17.4,5.8-22.2,2.2-4.1,5-7.2,8.6-9.4,1.4-.9,3-1.6,4.7-2.2,5.3-1.8,13.3-1.6,19.3-.6h0c.9.1,1.7.3,2.5.5,1.3.3,4,1.4,5.2,3.8h0c.5.9.8,2.1.6,3.4Z"/><path class="cls-3" d="M128.4,93.6c0,0-.1.2-.2.3-.2,0-.5,0-.6,0-1.1-4.3-1-7.3-.9-11-3.2-1.7-5.5-2.1-6-5.2-.1-.9-.1-2,0-3.4.4-.4.6-1,.7-1.8,1,3.5,2.5,3.2,4.5,6.3.5.8.9,1.5,1.2,2.3,1,2.2,1.6,4.4,1.7,6.7.1,1.9,0,3.8-.5,5.8Z"/><path class="cls-4" d="M112.2,92c0,.3-.2.6-.5.6-.2,0-2-.5-2.2-.6-1.6-.9-3.6,0-5.4-.6-.3,0-.6-.2-.8-.5-.2-.2,0-.9.2-1.1,2.4-2,7.5-1.2,8.6.5.2.2,0,1.4,0,1.7Z"/><path class="cls-4" d="M124.6,94.8c0,.3-.4,1.7-.7,1.8-.1,0-.3,0-.4,0-1.2-.3-2.4-.5-3.5-.8-.2,0-.3,0-.5-.2-.3-.3.3-2.9.7-3,.9-1.2,4.3-.1,4.5,2.2Z"/><path class="cls-12" d="M123,101.6c-.3,1.4-1.2,2.4-2,2.3-.8-.2-1.1-1.5-.8-2.9s1.2-2.4,1.9-2.3c.8.2,1.1,1.5.8,2.9Z"/><path class="cls-12" d="M108.3,98c-.3,1.4-1.2,2.3-2,2.2-.8-.2-1.2-1.4-.9-2.8.3-1.4,1.2-2.3,2-2.2.8.2,1.2,1.4.9,2.8Z"/><path class="cls-10" d="M116.9,113.9c-2.4,7.5-10.6,7.1-10.5-4.5l.2-.2c3.6,2.5,6.3,4.2,10.4,4.7Z"/><path class="cls-11" d="M120.5,118.8c-1.1,1.9-.9,3-.5,5.1.2,1.4,1.7,4.6.6,5.6"/><path class="cls-3" d="M120.7,77.8h0c-1.2,1.3-1.9,1.1-5.5.8-3-.2-3.5-1.3-5.4-3-.7,3.4-8.9,4.8-10.6,2.3-.1,3.7-7.4,6-9.3,5,1.5,3.4-1.8,14.2-3.9,13.9-.3-.5-.8-.8-1.3-.9l.2-.5c-.6-3.4-.4-6.6.5-9.6,1.1-3.2,3-6.1,5.7-8.7h0c.8-.8,1.7-1.4,2.7-2,3.5-2,7.9-2.8,12.2-2.6.2,0,.5,0,.8,0,2.1.1,4.2.4,6.1.9,2.1.6,4.2,1.5,6.4,1.5.2,0,.4,0,.6,0,.5,0,.9-.2,1.2-.5-.2,1.4-.2,2.5,0,3.4Z"/><path class="cls-11" d="M119.6,75c-1.4-1.4-4.1-3.5-5.1-5.2-1-1.8-1.6-3.9-1.1-5.9"/><path class="cls-11" d="M104.9,63.8c-.4,1.5-.7,3-.7,4.6,0,1.6.6,3.2,1.7,4.2"/><path class="cls-11" d="M93.5,75c-2.5-1.5-4.5-5.7-4.2-8.6"/><path class="cls-11" d="M90.9,77.1c-1.5,0-3,.2-4.5,0-1.5-.3-4.7-.2-5.7-1.3"/><path class="cls-11" d="M100.8,64.4c-2.4,3.9-5.6,5.1-6.5,9.6"/><path class="cls-11" d="M106.5,72.7c1-3.5,3.3-6.6,6.4-8.4"/><path class="cls-11" d="M74.9,97.9c2.7-2.3,8.6-9,10.3-12.1-2-2-3.9-7.3-4.5-10.1"/><path class="cls-11" d="M122.7,73.6c1.7-1.4,1.2-2.5,1.2-4.7"/><path class="cls-11" d="M127.3,81.1c1.1-4,1.5-7.1-.3-10.8"/><path class="cls-11" d="M133.2,83c-.9,1.3-2.7,4.9-4.2,4.9"/><path class="cls-11" d="M127.6,81.1c2.2-.3,3.6-1.6,5-3.3"/><path class="cls-11" d="M120.6,126.2c2,.4,4.1,2.6,6,1.6.3,2-3.4,6.6-5.9,7.8"/><path class="cls-11" d="M88.5,123.9c0,0,0-.1,0-.2"/><path class="cls-11" d="M79.9,155.2c0,0,0-.2-.1-.2"/><path class="cls-1" d="M85.3,135.5c-.2.3-.5.6-.7.8,1.2.9,1.1,2.7.5,4.3h0c0,.3-.2.5-.3.7-.8,1.6-1.3,3.4-.9,3.6.6.4,1,.9,1.2,1.3h0c.3.7.4,1.5.3,2.4,0,1.1-.3,2.9-1.2,3.3,1,1.5.5,1.8.3,3.2,0,0,0,.2,0,.2-.1.3-.2.7-.3,1.1-1.6-.8-3.2-1.4-4.4-1.5-1.2-2.5-1.9-2.7-.4-4.4,0,0-.1,0-.2,0s0,0-.1,0h0c-1-.3-1.6-1.7-1.5-2.8.1-1.3.7-2.5.4-3.8-.2-1-.9-1.9-1.3-2.9-.9-2.1-.2-3.8,1.5-5.1,0,0,.1,0,.2-.1-1.4-.6-1.7-2.6-1.3-4.1.4-1.5,1.3-2.9,1.5-4.4.2-1.7-1-3.8-1.2-5.5,0-.3,0-1,.1-1.8.2-2,.8-5.1,1.5-7.8.3-1.4.7-2.7,1.1-3.6.4-1.1.8-1.8,1.1-1.9,1.3,1.5,3.2,3,5.1,3,.5.8,1,3,1.4,5.6.3,2.1.5,4.6.6,7,0,.6,0,1.2,0,1.7,0,2,0,3.8-.2,5.4-.6,2.3-1.8,4.7-3,6.2Z"/><path class="cls-11" d="M78.8,127.3c1.8.3,8.3-3.9,9.7-5.1"/><path class="cls-11" d="M79.2,112.2c1.7,1.5,6.3,3.5,8.6,3.1"/><path class="cls-11" d="M78.2,135.9c1.7.5,5.3.3,6.8-.7"/><path class="cls-11" d="M78.2,143.9c2.1-1,5.5-1.5,6.8-3.4"/><path class="cls-11" d="M85.2,146.2c-.3,1.6-4.5,3.9-6.1,4"/><path class="cls-1" d="M123.7,155c-.6,3-.2,6.1-1.4,9.1-.4-1.5-.5-3.1-.5-4.8,0-1.5,0-3,.1-4.5.5,0,1,.2,1.6.2,0,0,.1,0,.2,0Z"/><path class="cls-11" d="M125.1,146.1c0,.2,0,.5,0,.8"/><path class="cls-11" d="M122.1,146.5c0-.2,0-.4,0-.6"/><path class="cls-11" d="M122.2,150.3c0,.2,0,.4,0,.6"/><path class="cls-11" d="M121.3,142.8c-.3-.7-.5-1-.5-1-.8-1-1.1-2-1.3-2.9"/><path class="cls-9" d="M125.9,148.2c0,.8-.2,1.7-.8,2.1-.2,0-.3.1-.5.2-.2,0-.4,0-.6,0-.6,0-1.2-.1-1.8-.2h0c-.1,0-.2,0-.3,0-.2,0-.5-.2-.7-.4-.6-.6-.6-2.5,0-3.1,0,0,0,0,.1,0,.2-.1.4-.2.7-.2.9,0,2.2.3,2.9.4h0c.2,0,.5,0,.7.2.2.3.2.7.2,1.1Z"/><path class="cls-9" d="M122.2,150.9c.8,0,1.8.3,2.3.4,0,0,0,0,0,0,.2,0,.5,0,.6.2.3.3.2.7.2,1.1,0,.8-.2,1.7-.8,2.1-.3.2-.6.2-.9.2,0,0-.1,0-.2,0-.5,0-1.1,0-1.6-.2h0c-.3,0-.8-.5-1.5-.8-.4-.8-.3-2.5.4-2.9.3-.2.6-.2,1.1-.2h.2Z"/><path class="cls-11" d="M120.5,154c.7.3,1.2.8,1.5.8h0c-.1,0-.2,0-.3,0-.3,0-.7-.2-1-.4,0,0-.2-.2-.2-.3Z"/><path class="cls-9" d="M126.2,143.8c0,.8-.1,1.7-.7,2.1-.1,0-.3.1-.4.2h0c-.2,0-.5,0-.7,0-.6,0-1.2,0-1.9-.2-.2,0-.4,0-.6-.1-.2,0-.3-.1-.5-.3-.5-.5-.6-1.9-.3-2.7.1-.2.2-.4.4-.5.3-.2.7-.2,1.2-.2.8,0,1.8.3,2.4.3.1,0,.2,0,.3,0,.1,0,.3,0,.4.2.3.3.3.7.2,1.1Z"/><path class="cls-2" d="M96.6,171.4c-1.9,5.1-4.8,8.4-7.7,8-2.8-.3-4.9-4-5.6-9.1.8,0,1.4-.2,1.9-.4,4.5.5,8.2,1.1,11.4,1.5Z"/><path class="cls-11" d="M98.7,160.4c0,.3,0,.6,0,.9"/><path class="cls-11" d="M84.3,156.5s0,0,0,0"/></svg>