<?xml version="1.0" encoding="UTF-8"?><svg id="africa" xmlns="http://www.w3.org/2000/svg" width="235" height="321.9" viewBox="0 0 235 321.9"><defs><style>.cls-1{fill:#281f15;}.cls-1,.cls-2,.cls-3,.cls-4,.cls-5,.cls-6,.cls-7,.cls-8,.cls-9,.cls-10,.cls-11,.cls-12{stroke:#000;stroke-linecap:round;stroke-linejoin:round;}.cls-2{fill:#4a92a2;}.cls-3{fill:#423426;}.cls-4{fill:#16100d;}.cls-5{fill:#926b4d;}.cls-6{fill:#805294;}.cls-7{fill:#9878b9;}.cls-8{fill:#d23581;}.cls-9{fill:#a687b5;}.cls-10{fill:#fff;}.cls-11{fill:none;}</style></defs><path class="cls-1" d="M75.3,145c-.1,0-.3,0-.4,0-.9.2-2.9.3-3.6,1.1-.2.2-.3.5-.3.9-1.4-2-2.6-3.3-1.5-5,0,0-.1,0-.2,0s0,0-.1,0h0c-1.1,0-1.8-1.4-1.9-2.6,0-1.3.3-2.6-.1-3.8h0c-.3-1-1.2-1.8-1.7-2.7-1.2-2-.8-3.7.8-5.3,0,0,0,0,.1-.1-1.5-.4-2-2.3-1.9-3.9,0-.9.4-1.8.6-2.6.2-.7.3-1.3.2-2,0-.2,0-.4,0-.6-.3-1.5-1.5-3.2-1.9-4.7-.3-1.2-.9-4.8-.7-7.1,0-.9.3-1.6.8-1.9,1.3,1.5,3.2,3.1,5.2,3,1,1.6,2.7,6.3,3.7,10.8.7,2.9,1,5.8.7,7.4-.1.5-.2.8-.5,1.1.6.3,1,.9,1.2,1.6.2.8.2,1.7,0,2.6,0,.3-.1.5-.2.8-.5,1.7-.8,3.5-.3,3.8.7.3,1.1.7,1.4,1.2.5.7.6,1.5.6,2.4,0,1.1.2,2.9-.8,3.5.9,1,.9,1.5.8,2.2Z"/><path class="cls-1" d="M113.8,97.7c0,3-2.3,6-3.9,7.2,0,0,0,0-.1.1-.4.3-.8.5-1,.5l-.9-.2c.7-4.3.6-8.1.9-9.1.6-2.3-.2-.8,1.9-4.3.2,0,.5.2.8.3,0,0,0,0,0,0,.1,0,.2.2.3.2,1,.8,2,2.5,2,5.1Z"/><path class="cls-1" d="M111.8,92.6c-.1,0-.2-.2-.3-.2,0,0,0,0,0,0-.2-.2-.4-.4-.7-.6.4-2,.6-3.9.5-5.8-.2-2.3-.7-4.5-1.8-6.7-.4-.8-.8-1.5-1.2-2.3-2-3.2-3.4-2.8-4.5-6.4h0c0-.4.1-.8.2-1.3.2-1.4,0-2.5-.6-3.5,2.6-.2,4.5,1,6,2.4.3.3.6.5.8.8,1.5,1.5,3.7,4.7,4.5,7.1.1.4.2.7.3,1,.2,1.2.4,2.6.5,4,.5,6.5-.3,13.6-3.7,11.5Z"/><path class="cls-1" d="M108.9,134.4c.9,1.9,1.3,3.3-.8,6.4,0,0,0,.2,0,.3,0,0-.2,0-.3,0-.9,0-2.8-.6-3.6-.1-.2.1-.3.3-.4.5-.3-.7-.5-1-.5-1-2.5-3.1-.9-6.9-.2-6.2-1.5-1.4-2.4-4.4-.1-6.5,1.1-1-.4-4.2-.7-5.6-.3-2.2-.6-3.3.5-5.2l-.2-.3c3.2-3,4.6-7.4,5.3-11.4l.9.2c.2,0,.6-.2,1-.5h.2c2.8,3.3,2.7,8.7-.3,11.8,1.3,3,1,6.7-.8,9.4,2.5,2.2,2.5,5.9,0,8.2Z"/><path class="cls-11" d="M77.8,115.8c1.7,1.6,4.4,3.2,7,4.5"/><path class="cls-11" d="M101.5,106.7c.3,2.2-3.6,2-7.2,1"/><path class="cls-11" d="M88.8,107.4c-.3-.2-.6-.4-.8-.6"/><path class="cls-11" d="M84.8,120.1s0,0,0,.1"/><path class="cls-10" d="M56.5,148.8c-.4-.4-.8-1-1.2-1.6-.8-1-1.6-2-2.7-2.6-1.2-.7-3.2.6-4.5,0-1.6-.7-2.1-3-3.4-3.5-1.1-.5-2.3-.5-3-.6h0c-.4,0-.7-.1-.8-.3-.3-.9-.2-2,.3-2.9,3.2-5.6,6-10.3,10.3-11.7,1-.3,2-.5,2.8-.5,2.1,0,3.5,1.2,4.6,3.9,1.8,4.6,1,16.1-2.3,19.8Z"/><path class="cls-5" d="M110,92.1c-1.1-4.3-1-7.3-.9-11.1-3.3-1.8-5.5-2.2-6-5.2h0c-1.2,1.3-1.9,1.1-5.5.8-3-.2-3.6-1.4-5.5-3.1-.7,3.4-9,4.8-10.7,2.3-.1,3.7-7.5,6.1-9.4,5.1,1.5,3.5-1.8,14.3-3.9,14-.4-.5-.8-.8-1.4-.9h0c-1.1-.4-2.5,0-3.4.7-1.3,1.2-1.8,3.2-1.6,5,0,1,1.2,4.4,1.9,5.2,1.3,1.5,3.2,3.1,5.2,3,1,1.6,2.7,6.3,3.7,10.8.7,2.9,1,5.8.7,7.4-.1.5-.2.8-.5,1.1.6.3,1,.9,1.2,1.6,2.3.6,9.6.8,11.3-.9,1.2-1.2.3-3,0-5.1h0c-.1-.8-.2-1.6,0-2.5,3.5,1.8,7,3,8.3,2.7,3.7-.6,9-5.8,9-5.8.2-.1.3-.3.5-.4,3.2-3,4.6-7.4,5.3-11.4.7-4.3.6-8.1.9-9.1.6-2.3-.2-.8,1.9-4.3-.3,0-.5,0-.6,0ZM85.5,89.1c-.2-.2,0-.9.2-1.1,2.4-2,7.6-1.2,8.7.5.1.2,0,1.4,0,1.7,0,.3-.2.6-.5.6-.2,0-2-.5-2.2-.6-1.6-.9-3.7,0-5.4-.6-.3,0-.6-.2-.8-.5ZM87.6,95.5c.3-1.4,1.2-2.3,2-2.2.8.2,1.2,1.4.9,2.8-.3,1.4-1.2,2.3-2,2.2-.8-.2-1.2-1.4-.9-2.8ZM88.6,107.6l.2-.2c3.6,2.6,6.3,4.3,10.4,4.7-2.4,7.6-10.7,7.2-10.6-4.5ZM105.3,99.8c-.3,1.4-1.2,2.4-2,2.3-.8-.2-1.1-1.5-.8-2.9.3-1.4,1.2-2.4,2-2.3.8.2,1.1,1.5.8,2.9ZM106.3,94.8c-.1,0-.3,0-.4,0-1.2-.3-2.4-.5-3.6-.8-.2,0-.3,0-.5-.2-.3-.2.3-2.9.7-3,.9-1.2,4.4-.1,4.5,2.2,0,.3-.4,1.7-.7,1.8Z"/><path class="cls-4" d="M94.5,90.1c0,.3-.2.6-.5.6-.2,0-2-.5-2.2-.6-1.6-.9-3.7,0-5.4-.6-.3,0-.6-.2-.8-.5-.2-.2,0-.9.2-1.1,2.4-2,7.6-1.2,8.7.5.1.2,0,1.4,0,1.7Z"/><path class="cls-4" d="M106.9,93c0,.3-.4,1.7-.7,1.8-.1,0-.3,0-.4,0-1.2-.3-2.4-.5-3.6-.8-.2,0-.3,0-.5-.2-.3-.2.3-2.9.7-3,.9-1.2,4.4-.1,4.5,2.2Z"/><path class="cls-12" d="M105.3,99.8c-.3,1.4-1.2,2.4-2,2.3-.8-.2-1.1-1.5-.8-2.9.3-1.4,1.2-2.4,2-2.3.8.2,1.1,1.5.8,2.9Z"/><path class="cls-12" d="M90.5,96.1c-.3,1.4-1.2,2.3-2,2.2-.8-.2-1.2-1.4-.9-2.8.3-1.4,1.2-2.3,2-2.2.8.2,1.2,1.4.9,2.8Z"/><path class="cls-10" d="M99.2,112.1c-2.4,7.6-10.7,7.2-10.6-4.5l.2-.2c3.6,2.6,6.3,4.3,10.4,4.7Z"/><path class="cls-10" d="M96,135.3c-.5-3.3-2-6.3-3.9-9.1,0-.1-.2-.2-.3-.3,0,0,0,0,0,0-.4-.4-.8-.7-1.2-1-1.8-1.1-3.9-1-5.6-2h-.2c.4,2.1,1.2,3.9,0,5.1-1.6,1.7-9,1.5-11.3.9.2.8.2,1.7,0,2.6,0,.3-.1.5-.2.8-.5,1.7-.8,3.5-.3,3.8.7.3,1.1.7,1.4,1.2.5.7.6,1.5.6,2.4,0,1.1.2,2.9-.8,3.5.9,1,.9,1.5.8,2.2.1,0,.2,0,.3,0,.3.2.5.6.5,1,.2.8.3,1.7-.1,2.3-.2.2-.4.3-.6.4,0,.2,0,.4,0,.6,0,0,.2,0,.2,0,.2,0,.5-.1.8,0,.3.2.5.6.6,1,.2.8.3,1.7-.2,2.3,0,0-.1.1-.2.2.1.2.2.4.3.6,0,0,.2,0,.3,0,.3.1.5.6.6,1,.2.8.4,1.7,0,2.3-.2.2-.4.4-.7.5-.3,3.2-1.1,6.5-.5,10-.8-2.1-1.1-6.9-1.9-9.2-.3,0-.6,0-.9,0-.9-.3-1.5-2.3-.9-3.1,0,0,0-.1.1-.2-.2-.4-.3-.8-.4-1.2h0c-.8-.5-1.3-2.4-.6-3.1.1-.2.4-.3.6-.4,0-.2-.2-.4-.3-.6-.2,0-.3,0-.5-.1-.6-.3-1.1-1.4-1-2.3-1.4-2-2.6-3.3-1.5-5,0,0-.1,0-.2,0s0,0-.1,0h0c-1.1,0-1.8-1.4-1.9-2.6,0-1.3.3-2.6-.1-3.8h0c-.3-1-1.2-1.8-1.7-2.7-1.2-2-.8-3.7.8-5.3,0,0,0,0,.1-.1-1.5-.4-2-2.3-1.9-3.9,0-.9.4-1.8.6-2.6h0c-3.7.9-7.3,2.2-10.8,3.8v.3c2.2,0,3.5,1.2,4.6,3.9,1.8,4.6,1,16.1-2.3,19.8-.4-.4-.8-1-1.2-1.6l-.6.6c1,6.6-1,19.7-2.1,30.3l-.3.2c.9,1.5,1.8,3,2.9,4.6h0c1.7-1.8,10.2.4,11.1,2.6,1,2.4-2.8,11-4.5,11.8-2,1-7.5-4.3-8.5-6.3-.8-.7-1.5-1.3-2.2-2h0c-.9,5.3-.9,4.3-2.6,9.3.3,0,.6.2,1,.3,15.8,4.7,27.5,7.2,44.2,5.5.5-13.5,2.4-27.3,3.2-41h0c.2-3.1.3-6.2.3-9.2,0-6.3-.2-12.5-1.1-18.6ZM91.8,161.4c-.5,8.5-3.8,15.2-7.4,14.9-3.5-.2-6-7.3-5.4-15.7.5-8.5,3.8-15.2,7.4-14.9,3.5.2,6,7.3,5.4,15.7Z"/><path class="cls-11" d="M91.8,125.8c-.3-.4-.7-.8-1.2-1"/><path class="cls-5" d="M62,197.3c-2,1-7.5-4.3-8.5-6.3-.8-.7-1.5-1.3-2.2-2-7.6-6.7-11.9-11.1-16.7-21-2.4-4.9,2.8-20.1,7.2-26.8v-.6h0c.7.1,1.9.2,3,.6,1.3.5,1.8,2.8,3.4,3.5,1.3.6,3.3-.8,4.5,0,1.1.6,1.9,1.6,2.7,2.6l-.6.6c-4.3,5.4-7.1,10.5-10.6,16.3,3.7,5.8,5.7,10,8.2,14.2.9,1.5,1.8,3,2.9,4.6h0c1.7-1.8,10.2.4,11.1,2.6,1,2.4-2.8,11-4.5,11.8Z"/><path class="cls-11" d="M55.6,183.4c-.1-.2-.2-.3-.3-.5"/><path class="cls-10" d="M103.2,147.8c-.8.5-1.3.9-1.8,1.2-1.9,1.3-1.7,1.7-4.2,4.8h0c0-6.3-.2-12.5-1.1-18.6-.5-3.3-2-6.3-3.9-9.1,0-.1-.2-.2-.3-.3,5.3,5.2,7.9,14,11.3,20.8,0,.4,0,.8,0,1.2Z"/><path class="cls-9" d="M108.3,146.9c0,.8-.2,1.7-.8,2.1-.1.1-.3.2-.5.2-.2,0-.4,0-.7,0-.6,0-1.2-.1-1.8-.2h0c-.4,0-.7-.2-1-.5s-.3-.4-.4-.7c0-.4-.1-.8,0-1.2,0-.6.3-1.1.7-1.3.2-.1.4-.2.7-.2.9,0,2.2.3,2.9.4,0,0,0,0,0,0,.2,0,.5,0,.7.2.3.3.2.7.2,1.1Z"/><path class="cls-5" d="M121.3,176.3c-2.7.6-.5-.2-2.8,1.5-2.2,1.6-3.7,4.2-3.2,6.8h-.1c-2.5-6.7-17.7-16.2-18.4-21.5h0c.2-3.1.3-6.2.3-9.2h0c2.5-3.2,2.4-3.5,4.2-4.8h0c.2,1.1.7,2.3,1.3,3.6,0,0,0,.1,0,.2.4.9.9,1.8,1.4,2.7h0c.5.8.9,1.6,1.4,2.4h0c4.6,7.2,11.5,15.6,15.5,18.4Z"/><path class="cls-11" d="M96.8,162.7c0,.1,0,.2,0,.4"/><path class="cls-5" d="M124.6,187.6c-2.5,1.9-4,2.6-6.6.9-1.2-.8-2.3-2.1-2.6-3.6,0,0,0-.2,0-.3-.5-2.6,1.1-5.3,3.2-6.8,2.2-1.6,0-.9,2.8-1.5,3-.9,6.5.8,7.8,3.6,1.3,2.9-1.9,5.8-4.4,7.7Z"/><path class="cls-5" d="M65.9,250.4c-1.2,6.4-3.3,7.3-7.9,16-4.8,9-13.2,18-19.3,26.2-.4.4-.8.9-1.2,1.3-.8.9-7.3,0-9-1.7,1.9-9.8,7.8-23.1,13-31.5,1.8-2.9,4.1-7.7,5.4-10.9,7.3,1,13.6,1.1,19.1.6Z"/><line class="cls-11" x1="46.8" y1="249.7" x2="46.8" y2="249.7"/><path class="cls-11" d="M112.9,291.4c-1-.5-2-.9-2.9-1.3"/><path class="cls-11" d="M90.8,243.5s0,0,0-.1"/><path class="cls-6" d="M111.5,240.6h-.1c-7.3-2.7-13.1-.2-20.6,2.9-6.4,2.7-14,5.9-24.8,6.9-5.5.5-11.7.4-19.1-.6-1.5-.2-3-.4-4.5-.7,1-16.5.8-31.4,7.1-50.2v-.2c15.9,4.7,27.6,7.2,44.2,5.5,8.6,8.5,13.2,19.3,17.9,30.4,0,2.1,0,4.1,0,6Z"/><path class="cls-5" d="M111.5,240.6c-.4,17.5-3.5,31-6,49.3-.9,1-1.3,2.3-1.7,3.5-.4,1.2-.9,2.6-2,3.4-1.8,1.4-6.1.2-7.2-1.7,0-.7,1.3-16.9-1.7-28.3-.8-3.2.2-13.7.7-17-1.9-4.7-1-1.7-2.9-6.2,7.5-3.2,13.3-5.6,20.6-2.9h.1Z"/><path class="cls-7" d="M50.5,318.7c-8.8-2-13.5-4.8-26.9-14.1-.9-.6-1.9-1.2-2.2-2.3-.2-.8.1-1.5.4-2.3,1.3-3.1,4.2-6,6.2-8.7,0,.3.2.5.4.8,1.7,1.8,8.2,2.6,9,1.7.4-.4.8-.9,1.2-1.3.5-.5,1.1-1,1.8-1.3,1.2-.5,1.9-.5,2.5.7,5.5,10.9,5.4,12.1,13.8,17,1.2.7,2.7,1.1,3,2.5,1.5,6.9-3.9,8.7-9.5,7.4Z"/><path class="cls-7" d="M134.3,311c-2.4,1.8-5.6,2.2-8.7,2.3-9.3.4-19.3-3.4-28.6-4.5-1.1-.1-2.3-.3-3-1.2-.5-.6-.5-1.5-.5-2.3,0-3.5.4-6.9,1.2-10.3,1.1,2,5.4,3.1,7.2,1.7,1.1-.8,1.6-2.1,2-3.4.4-1.2.8-2.6,1.7-3.5.9-1,1.3-.9,2.9-.4h.1s0,0,0,0c.5.2,1,.4,1.4.6,1,.4,2,.9,2.9,1.3,6.4,3.1,13.1,7.3,19.3,9.7,1.3.5,2.7,1.1,3.6,2.1,1.9,2.3.8,6-1.7,7.8Z"/><path class="cls-1" d="M103.9,69.2c0,.5-.1.9-.2,1.3h0c-.1.8-.3,1.4-.7,1.8-.3.3-.7.5-1.2.6h0c-.2,0-.3,0-.5,0-2.2,0-4.3-1-6.4-1.5-1.9-.5-4-.8-6.1-.9-.3,0-.5,0-.8,0-4.3-.1-8.8.6-12.3,2.6-1,.6-1.9,1.2-2.7,2h0c-2.7,2.6-4.7,5.5-5.7,8.8,0,0,0,0,0,0-1,3-1.2,6.2-.5,9.6l-.2.5c-1.1-.4-2.5,0-3.4.7-1.3,1.2-1.8,3.2-1.6,5,0,1,1.2,4.4,1.9,5.2-.4.2-.7.9-.8,1.9h-.5c-3.2-3.2-4.7-6.9-5.2-10.6-1.2-8.6,3.2-17.5,5.9-22.4,2.3-4.1,5-7.2,8.7-9.4,1.4-.9,3-1.6,4.7-2.2,5.3-1.8,13.3-1.6,19.5-.6h0c.9.2,1.7.3,2.5.5,1.3.3,4,1.5,5.2,3.8h0c.5.9.8,2.1.6,3.5Z"/><path class="cls-3" d="M110.8,91.7c0,0-.1.2-.2.3-.3,0-.5,0-.6,0-1.1-4.3-1-7.3-.9-11.1-3.3-1.8-5.5-2.2-6-5.2-.1-.9-.1-2,0-3.4.4-.4.6-1,.7-1.8,1.1,3.6,2.5,3.2,4.5,6.4.5.8.9,1.5,1.2,2.3,1,2.2,1.6,4.4,1.8,6.7.1,1.9,0,3.8-.5,5.8Z"/><path class="cls-11" d="M107.5,144.8c0,.3,0,.5,0,.8"/><path class="cls-1" d="M106.1,153.8c-.2,1.1-.2,2.4-.4,4.1-.5-.8-1-1.6-1.4-2.4h0c0-.7,0-1.4,0-2,.5.1,1.1.2,1.6.2,0,0,.1,0,.2,0Z"/><line class="cls-11" x1="105.7" y1="157.9" x2="105.7" y2="157.9"/><path class="cls-11" d="M107,150c0-.2,0-.5,0-.8"/><path class="cls-11" d="M104.6,149c0,.2,0,.4,0,.6"/><path class="cls-11" d="M104.3,155.7v-.2"/><path class="cls-11" d="M104.5,145.1c0-.2,0-.4,0-.7"/><path class="cls-3" d="M103,75.8h0c-1.2,1.3-1.9,1.1-5.5.8-3-.2-3.6-1.4-5.5-3.1-.7,3.4-9,4.8-10.7,2.3-.1,3.7-7.5,6.1-9.4,5.1,1.5,3.5-1.8,14.3-3.9,14-.4-.5-.8-.8-1.4-.9h0s.2-.5.2-.5c-.7-3.4-.4-6.6.5-9.6,0,0,0,0,0,0,1-3.2,3-6.2,5.7-8.8h0c.8-.8,1.7-1.4,2.7-2,3.5-2,8-2.8,12.3-2.6.2,0,.5,0,.8,0,2.1.1,4.2.4,6.1.9,2.1.6,4.2,1.5,6.4,1.5.2,0,.4,0,.5,0h0c.5,0,.9-.2,1.2-.6-.2,1.4-.2,2.5,0,3.4Z"/><path class="cls-11" d="M101.9,72.9h0"/><path class="cls-11" d="M95.6,61.7c0,.1,0,.3,0,.5-.3,1.9.3,3.8,1.2,5.5,1,1.8,3.6,3.8,5.1,5.3"/><path class="cls-11" d="M87.1,61.7c-.4,1.5-.8,3.1-.7,4.6,0,1.6.6,3.2,1.7,4.2"/><path class="cls-11" d="M75.6,73c-2.6-1.5-4.6-5.7-4.2-8.7"/><path class="cls-11" d="M73,75.1c-1.5,0-3,.2-4.5-.1-1.5-.3-4.7-.2-5.7-1.3"/><path class="cls-11" d="M83,62.3c-2.4,3.9-5.6,5.1-6.5,9.6"/><path class="cls-11" d="M88.7,70.6c1-3.5,3.4-6.6,6.5-8.5"/><path class="cls-11" d="M67.3,83.8c-2-2-3.9-7.3-4.5-10.1"/><path class="cls-11" d="M56.9,96.1c2.7-2.3,8.6-9.1,10.4-12.2"/><path class="cls-11" d="M105,71.6c1.7-1.4,1.2-2.5,1.3-4.7"/><path class="cls-11" d="M109.6,79.1c1.1-4.1,1.6-7.1-.3-10.9"/><path class="cls-11" d="M115.5,81c-.9,1.3-2.7,4.9-4.3,4.9"/><path class="cls-11" d="M109.9,79.1c2.2-.3,3.6-1.6,5.1-3.3"/><path class="cls-11" d="M65.5,118.4c1.9,1.3,4.6.9,6.8.2"/><path class="cls-11" d="M66.1,127.7c1.8.3,5.3-.5,6.7-1.7"/><path class="cls-11" d="M67.2,135.7c2-1.3,5.2-2.3,6.2-4.4"/><path class="cls-11" d="M69.2,141.8c1.6-.3,5.4-3.3,5.4-4.9"/><path class="cls-11" d="M110.1,116.7c-1.7,2.2-5.4,3.9-8.1,3.8"/><path class="cls-11" d="M102.9,124.6c2.1.4,4.2,2.6,6,1.6.3,2,.6,4.9-.6,6.5-1.2,1.6-4.1,3-6,3.3"/><path class="cls-11" d="M107.8,142c-2.6-1.2-4.4-2.1-5.9-4.5"/><path class="cls-9" d="M76.9,152.6c0,0-.1.1-.2.2-.2.2-.5.3-.8.4-.6.2-1.3.3-1.9.4-.4,0-.8.1-1.1,0,0,0,0,0,0,0h0c-.8-.5-1.3-2.4-.6-3.1.1-.2.4-.3.6-.4.8-.4,2-.5,2.8-.6,0,0,.2,0,.2,0,.2,0,.5-.1.8,0,.3.2.5.6.6,1,.2.8.3,1.7-.2,2.3Z"/><path class="cls-1" d="M76.7,167.3c-.8-2.1-1.1-6.9-1.9-9.2,0,0,.2,0,.2,0,.6-.2,1.3-.3,1.9-.6.1,0,.2,0,.3-.1-.3,3.2-1.1,6.5-.5,10Z"/><path class="cls-9" d="M77.9,156.7c-.2.2-.4.4-.7.5-.1,0-.2,0-.3.1-.6.2-1.2.4-1.9.6,0,0-.2,0-.2,0-.3,0-.6,0-.9,0-.9-.3-1.5-2.3-.9-3.1,0,0,0-.1.1-.2.8-.7,2.6-.9,3.4-1.2.1,0,.3-.1.4-.1,0,0,.2,0,.3,0,.3.1.5.6.6,1,.2.8.4,1.7,0,2.3Z"/><path class="cls-9" d="M107.9,151.4c0,.8-.2,1.7-.8,2.1-.3.2-.6.2-1,.2,0,0-.1,0-.2,0-.5,0-1.1,0-1.6-.2,0,0-.2,0-.2,0-.4,0-.7-.2-1-.5,0,0-.1-.2-.2-.3-.5-.8-.3-2.5.4-3,.3-.2.8-.2,1.3-.2.8,0,1.8.3,2.3.4,0,0,0,0,0,0,.2,0,.5,0,.6.2.3.3.2.7.2,1.1Z"/><path class="cls-9" d="M76.1,148.4c-.2.2-.4.3-.6.4-.2,0-.3.1-.5.2-.6.2-1.3.3-1.9.5-.2,0-.4,0-.7,0-.2,0-.3,0-.5-.1-.6-.3-1.1-1.4-1-2.3,0-.4.1-.7.3-.9.7-.8,2.7-.9,3.6-1.1.1,0,.3,0,.4,0,.1,0,.2,0,.3,0,.3.2.5.6.5,1,.2.8.3,1.7-.1,2.3Z"/><path class="cls-9" d="M108.7,142.4c0,.8-.1,1.7-.7,2.2-.1,0-.3.1-.4.2-.2,0-.5,0-.7,0-.6,0-1.2,0-1.9-.2-.2,0-.4,0-.6-.1-.2,0-.3-.1-.5-.3-.5-.5-.6-1.9-.3-2.7,0-.2.2-.4.4-.5.8-.5,2.7,0,3.6.1.1,0,.2,0,.3,0,.1,0,.3,0,.4.2.3.3.3.7.2,1.1Z"/><path class="cls-8" d="M91.8,161.4l-12.8-.8c.5-8.5,3.8-15.2,7.4-14.9,3.5.2,6,7.3,5.4,15.7Z"/><path class="cls-2" d="M91.8,161.4c-.5,8.5-3.8,15.2-7.4,14.9-3.5-.2-6-7.3-5.4-15.7l12.8.8Z"/></svg>