<?xml version="1.0" encoding="UTF-8"?><svg id="africa" xmlns="http://www.w3.org/2000/svg" width="235" height="321.9" viewBox="0 0 235 321.9"><defs><style>.cls-1{stroke-linecap:round;stroke-linejoin:round;}.cls-1,.cls-2{fill:none;stroke:#000;}.cls-3{fill:#302f2d;}.cls-3,.cls-4,.cls-5,.cls-6,.cls-7,.cls-8{stroke-width:0px;}.cls-4{fill:#000;}.cls-5{fill:#313f42;}.cls-6{fill:#3d5450;}.cls-2{stroke-miterlimit:10;}.cls-7{fill:#fff;}.cls-8{fill:#dcb28b;}</style></defs><path class="cls-3" d="M136.9,302.5c2,3.2-.2,7.7-3.5,9.5-3.3,1.8-7.3,1.7-11.1,1.3-11.5-1.2-18.3-3.8-29.4-7-1.3-.4-2.8-.9-3.5-2.1-.5-.9-.4-2-.2-2.9.4-2.9,3.2-8.7,4-11.5v-.2c1.4,2.4,6,4.3,8.3,3,1.5-.8,2.3-2.3,3.1-3.8.5-1,1-2,1.6-2.9.3-.4.7-.8,1.1-1.2,1.3-1,2.5-1.2,3.7,0,7.7,4.7,13.6,9.6,21.8,14.4,1.5.9,3.1,1.8,4.1,3.4Z"/><path class="cls-8" d="M128.2,151.4c1.4,3.2-4.1,10.8-6.8,12.9s-4.4,2.9-7.3,1c-1.4-1-2.7-5.1-3.1-6.7-.2-.7,0-1.6.2-2.4.9-2.7,3.5-5.8,5.4-7.2,2.5-1.8,0-1,3-1.7,3.3-1,7.2.9,8.6,4.1Z"/><path class="cls-6" d="M41.3,156.1c-4-2.2-8.7-4.3-11.4-6.1-5.5-3.6-13.8-13-12.4-20.1-.2-.6,5.5-15.4,9-28.1,1.6-5.9,4-10.7,7.4-14.6,4.9-5.6,18.9-6.3,22.9-6.1,4,7.4,11.3,12.2,14,12.2,2.9,0,9.1,0,10.7-7.2,2,.6,11,2.8,14,5.7,7.3,7.1,6.1,24.9,8.8,32.4,6.2,5.9,11.9,19.3,15.3,23-3,.7-.6-.2-3,1.7-1.9,1.4-4.6,4.5-5.4,7.2h-.4c-5.4-4.9-14.4-9.3-20-24.6,0,13.8-.4,25.9-3,43.6-18.3,1.9-31.3-.8-48.8-6.2l-1-.3c1.8-5.6,1.8-6.2,3.4-12.4ZM50,148.3c.2,5.2.3,7.3-3.3,11.3-.4,3.8,4.2,7.4,7,8.9,2,1.1,11,3.2,9.4-1.6,1.1-.4,3.2-2.7,1.3-4.1,1.3-.7,2.4-2.9.9-4.9,4.2-2.8,1.6-4.9-1.1-6.4-.5-6.3-8.6-2.9-12.7-2.9v.2c-.6,0-1.1-.2-1.6-.4ZM39.9,117.4c-2,5.2-3.7,9.7-5.2,11.7-1,2,0,.2-1,2h0c1.6,1.1,3,2.6,4.9,4.7,1.3,1.4,2.7,3.7,4.3,6,.5-11.7-1.9-17-3-24.4h0Z"/><path class="cls-5" d="M112.6,263.8c.3,4.7.5,8,.5,8.2-6.8,2.6-10.9,4.1-20.1,4.2-1.2,0-2.4,0-3.7,0,0-.3-.3-3.8-.5-8.8,7.9,1.1,16.1-.1,23.4-3.4h.4Z"/><path class="cls-5" d="M67.6,201.1c-2.6,11.9-5,26.1-8,37.3-.3,1.2-8.1,16.5-13.4,26.8h-.5c-7.3-.8-14.3-3.7-20.1-8.1l-.4-.2c5.1-10.7,12.7-26.1,12.7-27.1.6-17.8-5.4-41.3,1-60.8v-.2c17.5,5.3,30.5,8,48.8,6.2,6.9,10.1,19.8,37.1,21.9,49.2.2,1,2.1,26.2,3,39.6h-.4c-7.3,3.3-15.5,4.6-23.4,3.5-.6-12.6-1.6-34.2-1.8-35-3.9-12.2-15.9-26-19.4-31.2Z"/><path class="cls-8" d="M108.3,274.1c-.5,4.3-1.3,6.8-2,11.8-.7.9-1.1,1.9-1.6,2.9-.7,1.5-1.6,3-3.1,3.8-2.4,1.3-6.9-.6-8.3-3,0-.8,0-1.6,0-2.3.1-4,0-7-.3-10.9,5.2.2,10.3-.6,15.2-2.3Z"/><path class="cls-6" d="M70.3,39.8c-2.1.3-4.2.9-6.5,1.3-3.7.7-7.1,1.9-9.9,4.3-.4.3-.8.7-1.2,1.1h-.2c-1.1-3.7-.4-7.6,1.1-11.3l.8.3c17.2-6.4,35.4-5.6,50.5,4.7.5,4.4.1,9.6-2.4,12.7.3-1.1.5-2.4.7-3.9-1.9-2.7-5.8-4.9-7.8-5.6-6.4-2.2-13.1-3.4-19.8-4.1-1.9-.2-3.7,0-5.5.2Z"/><path class="cls-8" d="M60.2,60.6c-1.1.7-1.9.4-3.2-.2-1.2-.6-2.5-4.5-2.7-6.4,0-.1,0-.2,0-.3-.1-1.7.9-5.4,2.1-6.2,2.1-1.4,4.8-.7,6.1.4,1.4,1.1,1.2,2.8,1.3,4.1-1.2,3-1.5,6.4,1.6,4.4.3-.2,3.8-11.5,4.9-16.4,1.8-.3,3.5-.4,5.5-.2,6.7.7,13.4,2,19.8,4.1,2,.7,5.9,2.8,7.8,5.6-.2,1.5-.4,2.8-.7,3.9-1.6,6.3-3.9,6.4-3.9,9.1,0,2.2-2.2,7.4-6.4,14.5-3.9,5-6.2,6.8-10.8,9.4-3.5,1.9-7.8-1-10.4-2.9-5-3.7-7.7-7.2-9.5-12.1-.3-.9-.6-1.7-.8-2.5-.8-2.6-.8-4.5-.4-7.9v-.2ZM98.7,56.3c0-.8-3.2-3.8-4.4-3.7-1.1.2-2.2,2.2-.9,3,.5.3,3.2,1.6,3.7,1.8.7.3,1.4-.4,1.5-1.2ZM95.5,62.6c.3-1.6,0-3-.8-3.2-.8-.2-1.6.9-1.9,2.5s0,3,.8,3.2c.8.2,1.6-.9,2-2.5ZM78.4,71c-1.5,6.3,6.3,10.6,10,4.2-4.4-.5-6-1.1-10-4.2ZM84.4,51.2c.6.2,2.4-2.1-.3-2.9-2.8-.8-8-1.8-8.3,1.5,0,.3,6.7.9,8.6,1.4ZM80.7,58.6c.3-1.5,0-2.9-.9-3.1-.8-.2-1.7.9-2,2.4-.3,1.5,0,2.9.9,3.1.8.2,1.7-.9,2-2.4Z"/><path class="cls-6" d="M79.2,19.9c2.2,0,4.5.2,7,1,.5.2,1,.3,1.6.5,6,2.1,11.5,5.7,15,11,.8,1.2,1.8,4.4,2.2,8.1-15.2-10.4-33.3-11.2-50.5-4.7l-.8-.3c.8-1.8,1.8-3.5,2.9-5.1,3.4-4.7,8.7-7.8,14.3-9.1,3-.7,5.6-1.2,8.3-1.3Z"/><path class="cls-3" d="M94.4,52.6c1.2-.2,4.5,2.9,4.4,3.7,0,.8-.8,1.4-1.5,1.2-.5-.2-3.2-1.5-3.7-1.8-1.4-.8-.2-2.8.9-3Z"/><path class="cls-4" d="M94.7,59.5c.8.2,1.1,1.6.8,3.2-.3,1.6-1.2,2.7-2,2.5-.8-.2-1.1-1.6-.8-3.2s1.2-2.7,1.9-2.5Z"/><path class="cls-6" d="M87.8,21.4h0c-.5-.2-1-.3-1.6-.5-2.5-.8-4.8-1-7-1,1-1.9,1.8-2.2,3.9-1.9,2.2.3,4.2,1.2,4.6,3.4Z"/><path class="cls-7" d="M88.4,75.2c-3.7,6.4-11.6,2.1-10-4.2,4,3.2,5.6,3.7,10,4.2Z"/><path class="cls-3" d="M84.1,48.2c2.7.8.9,3.1.3,2.9-1.9-.5-8.6-1.1-8.6-1.4.3-3.3,5.6-2.4,8.3-1.5Z"/><path class="cls-4" d="M79.8,55.6c.8.2,1.2,1.6.9,3.1-.3,1.5-1.2,2.6-2,2.4-.8-.2-1.2-1.6-.9-3.1.3-1.5,1.2-2.6,2-2.4Z"/><path class="cls-8" d="M71.1,83.2c2.6,2,7,4.8,10.4,2.9-1.6,7.2-7.8,7.3-10.7,7.2-2.6,0-10-4.8-14-12.2,2.2-1.3,3.4-8.6,1.6-15,.7.9,1.5,1.7,2.3,2.5.2.7.5,1.6.8,2.5,1.8,4.9,4.6,8.4,9.5,12.1Z"/><path class="cls-8" d="M51.6,148.6v-.2c4.1,0,12.1-3.5,12.7,2.9,2.7,1.5,5.3,3.6,1.1,6.4,1.6,2,.4,4.2-.9,4.9,1.9,1.3-.2,3.7-1.3,4.1,1.6,4.8-7.4,2.7-9.4,1.6-2.8-1.5-7.4-5.1-7-8.9,3.6-3.9,3.4-6,3.3-11.3.5.2,1,.3,1.6.4Z"/><path class="cls-3" d="M59.6,310.7c1,3.6-2.2,7.3-5.9,8.2-3.7.8-6.5.9-10-.6-10.8-4.4-20.7-10.5-30.6-16.6-1.2-.7-2.5-1.6-2.8-3-.2-1,.2-2,.6-2.9,1.7-4,4.5-8.4,6.3-11.1,0,.7.7,1.3,1.6,1.7,2.9,1.5,8.9,2.1,9.7,1.2,1.1-1.2,2.2-2.5,3.7-3.2,1.5-.6,2.7-.5,3.5,1h.2c7.2,7.3,13.3,13.5,20.4,20.9,1.2,1.3,2.5,2.6,3,4.4Z"/><path class="cls-3" d="M70.3,39.8c-1.1,5-4.6,16.3-4.9,16.4-3,2-2.8-1.4-1.6-4.4-.2-1.4,0-3-1.3-4.1-1.3-1-4-1.8-6.1-.4-1.2.8-2.2,4.5-2.1,6.2,0,.1,0,.2,0,.3l-1.2.2h0c-.3-2.9-.1-5.8.7-8.6,2.7-2.4,6.2-3.7,9.9-4.3,2.3-.4,4.4-1,6.5-1.3Z"/><path class="cls-3" d="M60.2,60.6v.2c-.3,3.5-.3,5.3.5,7.9-.8-.8-1.6-1.6-2.3-2.5-2.8-3.4-4.6-7.7-5.2-12.1l1.2-.2c.2,1.9,1.5,5.8,2.7,6.4,1.2.6,2.1.9,3.2.2Z"/><path class="cls-5" d="M45.7,265.3h.5c-2.6,5.1-4.5,9-4.7,9.5-6.7,0-10.6-.9-18.9-6.4-.6-.4-1.3-.9-2-1.4,0-.5,2-4.7,4.6-10.1l.4.2c5.8,4.5,12.8,7.3,20.1,8.1Z"/><path class="cls-8" d="M37.6,274.7c-2.2,3.9-3.2,7.1-5.3,9.8-1.5.6-2.6,2-3.7,3.2-.8.9-6.8.4-9.7-1.2h0c1.1-5.4,2.1-11.3,3.7-17.8,4.3,3.3,9.6,5.4,15,6Z"/><path class="cls-1" d="M53.9,45.5h0c-.8,2.8-1.1,5.8-.7,8.6h0c.5,4.4,2.4,8.7,5.2,12.1.7.9,1.5,1.7,2.3,2.5h0"/><path class="cls-1" d="M103.3,49.3c-.2,1.5-.4,2.8-.7,3.9-1.6,6.3-3.9,6.4-3.9,9.1,0,2.2-2.2,7.4-6.4,14.5"/><path class="cls-1" d="M90.3,66.2c.7,4-2.1,5.8-5.1,4.5"/><path class="cls-1" d="M92.8,62c-.3,1.6,0,3,.8,3.2.8.2,1.6-.9,2-2.5.3-1.6,0-3-.8-3.2-.8-.2-1.6.9-1.9,2.5Z"/><path class="cls-1" d="M77.9,57.9c-.3,1.5,0,2.9.9,3.1.8.2,1.7-.9,2-2.4.3-1.5,0-2.9-.9-3.1-.8-.2-1.7.9-2,2.4Z"/><path class="cls-1" d="M88.4,75.2c-4.4-.5-6-1.1-10-4.2"/><path class="cls-1" d="M88.4,75.2c-3.7,6.4-11.6,2.1-10-4.2"/><path class="cls-1" d="M58.4,66.2c1.9,6.4.6,13.7-1.6,15"/><path class="cls-1" d="M56.8,81.2c4,7.4,11.3,12.2,14,12.2,2.9,0,9.1,0,10.7-7.2"/><path class="cls-1" d="M45.7,105c-2.3,3.9-4.1,8.3-5.8,12.4-2,5.2-3.7,9.7-5.2,11.7"/><path class="cls-1" d="M17.5,130c-.2-.6,5.5-15.4,9-28.1,1.6-5.9,4-10.7,7.4-14.6,4.9-5.6,18.9-6.3,22.9-6.1"/><path class="cls-1" d="M41.4,156s0,0,0,.1c-1.6,6.2-1.6,6.8-3.4,12.4l1,.3c17.5,5.3,30.4,8,48.8,6.2,2.6-17.6,3-29.7,3-43.6,0-6.8-.1-14.1-.1-22.6"/><path class="cls-1" d="M39.9,117.4c1.1,7.5,3.5,12.8,3,24.4"/><path class="cls-1" d="M81.5,86.2c2,.6,11,2.8,14,5.7,7.3,7.1,6.1,24.9,8.8,32.4"/><path class="cls-1" d="M90.6,131.2c0,0,0,.2.1.3,5.6,15.4,14.6,19.7,20,24.5"/><path class="cls-1" d="M104.3,124.2c6.2,5.9,11.9,19.3,15.3,23"/><path class="cls-1" d="M119.6,147.3c-3,.7-.6-.2-3,1.7-1.9,1.4-4.6,4.5-5.4,7.2-.3.9-.4,1.7-.2,2.4.4,1.6,1.7,5.8,3.1,6.7,2.9,2,4.5,1.2,7.3-1s8.3-9.7,6.8-12.9c-1.4-3.2-5.3-5.1-8.6-4.1"/><path class="cls-1" d="M38.9,169c-6.4,19.5-.4,43-1,60.8,0,1-7.6,16.5-12.7,27.1-2.6,5.4-4.5,9.6-4.6,10.1.7.5,1.4.9,2,1.4,8.3,5.5,12.1,6.4,18.9,6.4.2-.5,2.1-4.4,4.7-9.5,5.2-10.4,13-25.7,13.4-26.8,3-11.2,5.4-25.5,8-37.3,1.3-6.2,2.7-11.7,4.3-15.8"/><path class="cls-1" d="M67,200.3c.1.3.3.5.6.9,3.5,5.2,15.5,19,19.4,31.2.2.8,1.2,22.4,1.8,35,.3,5,.5,8.5.5,8.8,1.3,0,2.6,0,3.7,0,9.2,0,13.3-1.6,20.1-4.2,0-.2-.2-3.5-.5-8.2-.9-13.4-2.8-38.5-3-39.6-2.1-12.1-15.1-39.1-21.9-49.2"/><path class="cls-1" d="M93.3,289.8c-.8,2.8-3.7,8.6-4,11.5-.1,1-.2,2.1.2,2.9.6,1.2,2.1,1.7,3.5,2.1,11.1,3.1,17.9,5.7,29.4,7,3.8.4,7.8.6,11.1-1.3,3.3-1.8,5.4-6.3,3.5-9.5-.9-1.5-2.5-2.5-4.1-3.4-8.2-4.8-14.1-9.7-21.8-14.4"/><path class="cls-1" d="M17.3,284.8c-1.8,2.6-4.6,7.1-6.3,11.1-.4.9-.8,1.9-.6,2.9.3,1.4,1.6,2.2,2.8,3,9.9,6.1,19.8,12.2,30.6,16.6,3.5,1.4,6.3,1.4,10,.6,3.7-.8,6.9-4.5,5.9-8.2-.5-1.7-1.8-3.1-3-4.4-7.2-7.4-13.3-13.5-20.4-20.9"/><path class="cls-1" d="M63.8,51.9c-.2-1.4,0-3-1.3-4.1-1.3-1-4-1.8-6.1-.4-1.2.8-2.2,4.5-2.1,6.2,0,.1,0,.2,0,.3.2,1.9,1.5,5.8,2.7,6.4,1.2.6,2.1.9,3.2.2,0,0,.1,0,.2-.1"/><path class="cls-1" d="M70.4,39.2c0,.2,0,.4-.1.6-1.1,5-4.6,16.3-4.9,16.4"/><path class="cls-1" d="M34.8,129.1c-1,2,0,.2-1,2"/><path class="cls-1" d="M17.5,130c-1.4,7,6.8,16.4,12.4,20.1,2.7,1.8,7.4,3.9,11.4,6.1,2.1,1.1,4,2.3,5.4,3.4"/><path class="cls-1" d="M52.4,148.7c-.3,0-.6,0-.8,0-.5,0-1.1-.2-1.6-.4-2.8-1-5.1-3.7-7.1-6.4-1.6-2.2-3-4.5-4.3-6-1.9-2.1-3.3-3.6-4.9-4.7-1.9-1.3-4-2-7.2-2.6"/><path class="cls-1" d="M61.2,149.7c.6.4,1.8,1,3,1.7,2.7,1.5,5.3,3.6,1.1,6.4,1.6,2,.4,4.2-.9,4.9,1.9,1.3-.2,3.7-1.3,4.1,1.6,4.8-7.4,2.7-9.4,1.6-2.8-1.5-7.4-5.1-7-8.9"/><path class="cls-1" d="M51.6,148.5c4.1,0,12.1-3.5,12.7,2.9,0,0,0,0,0,0"/><path class="cls-1" d="M75.8,49.8c0,.3,6.7.9,8.6,1.4.6.2,2.4-2.1-.3-2.9-2.8-.8-8-1.8-8.3,1.5Z"/><path class="cls-1" d="M93.5,55.6c.5.3,3.2,1.6,3.7,1.8.7.3,1.4-.4,1.5-1.2,0-.8-3.2-3.8-4.4-3.7-1.1.2-2.2,2.2-.9,3Z"/><path class="cls-1" d="M50,148c0,0,0,.2,0,.2.2,5.2.3,7.3-3.3,11.3"/><path class="cls-2" d="M20.7,267c.6.6,1.3,1.1,1.9,1.7,4.3,3.3,9.6,5.4,15,6,1.3.1,2.6.2,3.9.1"/><path class="cls-2" d="M89.4,276.1c1.2.2,2.5.3,3.7.3,5.2.2,10.3-.6,15.2-2.3,1.7-.6,3.3-1.3,4.9-2.1"/><path class="cls-2" d="M25.6,257.2c5.8,4.5,12.8,7.3,20.1,8.1,0,0-.2,0-.3,0"/><path class="cls-2" d="M88.4,267.2h.5c7.9,1.1,16.1,0,23.4-3.4"/><path class="cls-1" d="M37.6,274.7c-2.2,3.9-3.2,7.1-5.3,9.8"/><path class="cls-1" d="M22.7,268.4c0,0,0,.2,0,.3-1.6,6.6-2.6,12.4-3.7,17.7"/><path class="cls-1" d="M93.3,289.8v-.2c0-.8,0-1.5,0-2.3"/><path class="cls-1" d="M93.1,276.2c0,0,0,.2,0,.2.3,3.8.4,6.8.3,10.9,0,.7,0,1.5,0,2.3"/><path class="cls-1" d="M108.3,274.1c-.5,4.3-1.3,6.8-2,11.8"/><path class="cls-1" d="M93.1,289.1c0,.2.1.3.2.5,1.4,2.4,6,4.3,8.3,3,1.5-.8,2.3-2.3,3.1-3.8.5-1,1-2,1.6-2.9.3-.4.7-.8,1.1-1.2,1.3-1,2.5-1.2,3.7,0"/><path class="cls-1" d="M17.3,284.8c0,.7.7,1.3,1.6,1.7,2.9,1.5,8.9,2.1,9.7,1.2,1.1-1.2,2.2-2.5,3.7-3.2,1.5-.6,2.7-.5,3.5,1"/><path class="cls-1" d="M60.4,60.7c-.4,3.5-.4,5.3.4,7.9.2.7.5,1.6.8,2.5,1.8,4.9,4.6,8.4,9.5,12.1,2.6,2,7,4.8,10.4,2.9,4.6-2.6,6.9-4.4,10.8-9.4"/><path class="cls-1" d="M65.4,56.3c-3,2-2.8-1.4-1.6-4.4"/><path class="cls-1" d="M52.8,46.6c.4-.4.8-.8,1.2-1.1,2.7-2.4,6.2-3.7,9.9-4.3,2.3-.4,4.4-1,6.5-1.3,1.8-.3,3.5-.4,5.5-.2,6.7.7,13.4,2,19.8,4.1,2,.7,5.9,2.8,7.8,5.6"/><path class="cls-1" d="M52.6,46.6c-1.1-3.7-.4-7.7,1.1-11.3.8-1.8,1.8-3.5,2.9-5.1,3.4-4.7,8.7-7.8,14.3-9.1,3-.7,5.6-1.2,8.3-1.3,2.2,0,4.5.2,7,1,.5.2,1,.3,1.6.5,6,2.1,11.5,5.7,15,11,.8,1.2,1.8,4.4,2.2,8.1.5,4.4.1,9.6-2.4,12.7,0,0,0,0,0,0"/><path class="cls-1" d="M54.5,35.7c17.2-6.4,35.4-5.6,50.5,4.7,0,0,.1,0,.2.1"/><path class="cls-1" d="M79.2,20s0,0,0-.1c1-1.9,1.8-2.2,3.9-1.9,2.2.3,4.2,1.2,4.6,3.4"/></svg>