<?xml version="1.0" encoding="UTF-8"?><svg id="africa" xmlns="http://www.w3.org/2000/svg" width="235" height="321.9" viewBox="0 0 235 321.9"><defs><style>.cls-1{fill:#281f15;}.cls-1,.cls-2,.cls-3,.cls-4,.cls-5,.cls-6,.cls-7,.cls-8,.cls-9,.cls-10,.cls-11,.cls-12{stroke:#000;stroke-linecap:round;stroke-linejoin:round;}.cls-2{fill:#4a92a2;}.cls-3{fill:#423426;}.cls-4{fill:#16100d;}.cls-5{fill:#926b4d;}.cls-6{fill:#805294;}.cls-7{fill:#9878b9;}.cls-8{fill:#d23581;}.cls-9{fill:#a687b5;}.cls-10{fill:#fff;}.cls-11{fill:none;}</style></defs><path class="cls-10" d="M100.6,126.2c-2.6-1.9-4-3.2-7.1-6.5-1.2-1.3-2.9-1.9-6-2.5,1.4,2.1,1.1,4.9-.9,6.8.9,1.8,1.2,3.2-.8,6.2,0,0,0,.2,0,.3.1,0,.3,0,.4.2.3.3.3.7.2,1.1,0,.3,0,.6,0,.9,0,.5-.2.9-.6,1.2-.1,0-.2.1-.4.2,0,.2,0,.5,0,.8.2,0,.5,0,.6.2.2.3.2.7.2,1.1,0,.8-.2,1.7-.7,2.1-.1,0-.3.2-.5.2,0,.3,0,.5,0,.8.2,0,.4,0,.6.2.2.3.2.7.2,1.1,0,.8-.2,1.7-.7,2.1-.3.2-.6.2-.9.2-.6,3-.2,5.9-1.3,8.9-.6-2.8-.5-6-.4-9.1,0,0-.2,0-.3,0-.3,0-.7-.2-1-.4-.6-.6-.6-2.7.2-3.1.3-.2.8-.2,1.2-.2,0-.2,0-.4,0-.6h0c-.3,0-.7-.2-1-.4-.6-.7-.6-2.7.2-3.1.2-.1.4-.2.7-.2,0-.2,0-.4,0-.6-.2,0-.3-.2-.4-.3-.5-.5-.6-1.8-.3-2.6h0c-.2-.7-.4-1-.4-1-.7-.9-1.1-1.9-1.2-2.8h0c-1.3,7.9-13.1,11.4-20.8,5.8-5.2-3.9-6.6-12.2-9-15.3-.5,1.7-.7,3.4-.3,3.6.7.3,1.1.7,1.4,1.1.5.6.6,1.4.6,2.3,0,1,.1,2.8-.7,3.3.9,1,.9,1.4.8,2.2.1,0,.2,0,.3,0,.3.2.4.6.5,1,.2.8.3,1.7-.1,2.2-.2.2-.4.3-.6.4,0,.2,0,.4,0,.6,0,0,.2,0,.2,0,.2,0,.5-.1.7,0,.3.2.4.6.5,1,.2.8.3,1.6-.1,2.2,0,0-.1.1-.2.2,0,.2.2.4.3.6,0,0,.2,0,.3,0,.3.1.5.5.6.9.2.7.4,1.6,0,2.2-.2.2-.4.4-.7.5-.2,3.1-1,6.2-.5,9.7-.8-2.1-1.1-6.7-1.9-9-.3,0-.6,0-.8,0-.9-.3-1.5-2.2-.9-3,0,0,0-.1.2-.2-.2-.4-.3-.7-.4-1.1-.4-.2-.7-.8-.8-1.4-.1-.6,0-1.2.2-1.6.1-.2.4-.3.6-.4,0-.2-.2-.4-.2-.6-.2,0-.3,0-.5-.1-.7-.3-1.2-1.8-.9-2.7-.6-1.2-.9-2,0-3.4-.1,0-.2,0-.3,0h0c-1-.1-1.7-1.4-1.8-2.5,0-1.2.3-2.5-.1-3.7-.3-1-1.1-1.7-1.6-2.6-.4-.7-.6-1.4-.6-2.2h0c-6.7,1.9-11.4,4.8-11.4,4.8-1.9,2-.9,3.5,1,5,2.8,2.2,1.1,8,3.3,9.6,4.2,3,5.1,6.5,6.5,7.8.2.2.4.3.7.4.4-.8.7-1.4.9-1.9.3,3.5,1.4,17.5,1.2,21.1,0,.5-.2,2.1-.4,4.2-.4,3.9-1.1,9.7-1.5,13.8-.2,2.1-.4,3.7-.4,4.4,19.1,8.4,41.6,3.1,45.6.2-.3-3-.6-5.7-1-8.1-.7-5-1.4-9.2-1.3-14.1,0-1.6.2-3.2.4-5,.5-3.6,1-7.4,1.5-11.1h.1c1.7-2.2,6.3-5.5,5.5-9.8-.8-4,3.5-3.1,3-6.6-.1-.9.5-1.9,1.3-2.8,1.2-1.4,2.9-2.6,2.5-3ZM69.7,170.9c-4.7,0-8.5-5-8.7-11.3,0-.2,0-.3,0-.5,0-6.5,3.9-11.8,8.7-11.8s8.7,5.3,8.7,11.8-3.9,11.8-8.7,11.8Z"/><path class="cls-5" d="M87.5,83.1c-1-4.2-1-7.1-.9-10.7-4.1-2.2-7.4-6.2-6.6-12.3-1.2,1.3-3.3,4.1-6.8,3.9-2.9-.2-3.4-1.3-5.3-3-.7,3.3-8.7,4.6-10.3,2.3-.1,3.6-5.4,7.3-7.3,6.3,1.5,3.4-1.7,13.8-3.8,13.5-.3-.4-.8-.7-1.3-.9-.3,0-.6-.1-1-.1-.8,0-1.7.3-2.3.9-1.3,1.1-1.8,3.1-1.6,4.8,0,1,1.2,4.3,1.8,5,.5.6,1.1,1.2,1.7,1.6,1,.7,2.1,1.2,3.2,1.3.5,2.8,1.5,5,2.5,6.8,2.1,3.6,4.6,5.3,5.8,6,10.6,6.4,15,6.4,20.4,2.7,1.5-1,3.1-2.4,4.9-4,0,0,.2-.2.3-.3,3.1-2.8,5-6.6,5.7-10.8.2-1.2.3-2.5.2-3.8-.2-7.1.8-9.2.8-9.2ZM55.1,76.1c.6-1.7,5.5-3.2,9.4-1.5,0,0,.3,1-.2,1.3-.5.3-1.3.4-1.9.4-1.5,0-3,.2-4.5.3-1.1,0-1.9,0-2.8-.5ZM60.8,80.4c1,0,1.8,1.5,1.8,3.4s-.8,3.4-1.8,3.4-1.8-1.5-1.8-3.4.8-3.4,1.8-3.4ZM71.2,104.3c-1.8.2-5.4-.1-7.1-1.2-1.7-1-2.4-1.4-4.5-4.2,1,.9,11.9,3.3,17,1.7h0c-1.2,2.2-2.6,3.3-5.5,3.7ZM80.4,86.7c-.8,0-1.5-1.3-1.5-3s.6-3,1.5-3,1.4,1.3,1.4,3-.6,3-1.4,3ZM82.4,76.4c-1.4,0-2.7-.2-4.1-.3-.6,0-1.2,0-1.8-.4-.5-.3-.8-.9-.3-1.2h0c3.6-1.4,8.1,0,8.7,1.4-.8.4-1.5.5-2.5.4Z"/><path class="cls-1" d="M91.2,88.5c0,2.9-2.2,5.8-3.7,7,0,0,0,0-.1.1-.4.3-.7.5-.9.5.2-1.2.3-2.5.2-3.8-.2-7.1.8-9.2.8-9.2.3-.2.9-.1,1.4.2,0,0,.2.1.3.2,1,.8,2,2.4,2,5Z"/><path class="cls-1" d="M89.2,83.5c0,0-.2-.1-.3-.2-.2-.2-.4-.4-.6-.6.4-1.9.6-3.8.4-5.6-.2-2.2-.7-4.4-1.7-6.5-.3-.8-.8-1.5-1.2-2.2-1.8-2.9-4.4-5.4-5.5-8.7.4-.2.8-.5,1.1-.8.8-.2,1.7-.1,2.5,0,1.1.2,2.2.6,3,1.1.3.2.6.4.8.7,1.4,1.4,3.5,4.6,4.3,6.9.1.4.2.7.3,1,.2,1.2.4,2.5.5,3.8.5,6.3-.3,13.3-3.6,11.1Z"/><path class="cls-1" d="M86.5,123.9c.9,1.8,1.2,3.2-.8,6.2,0,0,0,.2,0,.3,0,0-.2,0-.3,0-.6,0-1.5-.3-2.3-.3h0c-.5,0-.9,0-1.2.2-.2.1-.3.3-.4.5-.2-.7-.4-1-.4-1-.7-.9-1.1-1.9-1.2-2.8h0c0-.6,0-1.1,0-1.6.2-1.2.7-1.9,1-1.6-1.5-1.3-2.3-4.3-.1-6.2.3-.3.4-.7.4-1.3,0-.6-.2-1.2-.4-1.9h0c-.2-.9-.5-1.7-.6-2.3,0-.6-.2-1.2-.2-1.6-.1-1.2,0-2.1.8-3.3h0c0-.2.2-.2.3-.3,3.1-2.8,5-6.6,5.7-10.8.2,0,.5-.2.9-.5,0,0,0,0,.1-.1h0c2.7,3.3,2.6,8.6-.3,11.5,0,0,0,.1,0,.2,1.2,2.8.8,6.3-.9,8.8.4.4.7.7,1,1.2,1.4,2.1,1.1,4.9-.9,6.8Z"/><path class="cls-1" d="M51.8,130c-.1,0-.3,0-.4,0-.9.2-2.8.3-3.5,1.1,0,.1-.2.2-.2.4-.6-1.2-.9-2,0-3.4-.1,0-.2,0-.3,0h0c-1-.1-1.7-1.4-1.8-2.5,0-1.2.3-2.5-.1-3.7-.3-1-1.1-1.7-1.6-2.6-.4-.7-.6-1.4-.6-2.2-.1-1.5.4-3,1.4-4.1,0,0,0,0,.1-.1-1.4-.4-2-2.2-1.8-3.7.2-1.5.8-2.9.8-4.5,0-.2,0-.4,0-.6-.2-1.4-.9-2.8-1.3-4.2-.2-.9-.2-2.4,0-3.6.2-.9.7-1.7,1.3-2,1,.7,2.1,1.2,3.2,1.3.5,2.8,1.5,5,2.5,6.8.5.7.8,1.6,1,2.6.5,2.3.2,4.9-.9,6.9-.2.3-.3.6-.6.9,1.3.7,1.5,2.6,1.1,4.1,0,0-.2,0-.3,0-.2,0-.3,0-.4,0,0,0,.2.2.3.3,0,0,.2.2.2.3-.5,1.7-.7,3.4-.3,3.6.7.3,1.1.7,1.4,1.1.5.6.6,1.4.6,2.3,0,1,.1,2.8-.7,3.3.9,1,.9,1.4.8,2.2Z"/><path class="cls-11" d="M47,95.6c-.2-1.1-.4-2.4-.5-3.7"/><path class="cls-11" d="M87.4,117.2s0,0,0,0"/><path class="cls-11" d="M81.4,116.4c-.1,0-.2,0-.4,0"/><path class="cls-11" d="M47.1,137.4c-2.2,3.2-2,3.4-2.9,5.5-.2.5-.5,1.1-.9,1.9-.2,0-.4-.2-.7-.4"/><path class="cls-11" d="M86.3,164.4c0-1.6.2-3.2.4-4.9.5-3.6,1.1-7.4,1.5-11.1.6-5.2,1-10.4.8-15.5"/><path class="cls-11" d="M35.6,239.3c-.1,0-.3-.1-.4-.2"/><path class="cls-6" d="M95.3,240.8c-1.1.6-2.8,1.2-5.1,1.8-4.6,1.2-11.3,2.1-18.7,2.4h-.1c-4.6.2-9.4.1-14.1-.3-6-.5-11.9-1.6-17-3.4-1.7-.6-3.3-1.3-4.8-2,.2-2.5,3.2-33.6,4.6-41.6,0,0,2.7-11.2,2.7-11.3,19.1,8.4,41.6,3.1,45.6.2,0,.8.1,1.6.2,2.4,2,7.6,2.3,12.8,3.2,18.4,1,6.5,2.2,25.6,3.5,33.4Z"/><path class="cls-11" d="M35.6,239.3c0,.1,0,.2,0,.2"/><path class="cls-11" d="M92.1,290.7c0-.4-.1-1.2-.2-2.3"/><path class="cls-5" d="M91.9,288.4c-.2-.7-.5-1.3-1-1.8-1.8-1.8-7.1-1.2-8.9.6-1.1,1.1-1.7,2.5-1.9,4h-.3c-.7-15.2-2.9-21.3-6.9-35.2-.6-2-1.6-6-1.4-9.9v-1.1h0c7.4-.3,14.1-1.2,18.7-2.4.9,6.3,1.1,8.5.8,13.7-.2,3.4.3,24.5.9,32.1Z"/><path class="cls-11" d="M71.6,245.1c0,.3,0,.6,0,1"/><path class="cls-5" d="M57.4,244.8c-.6,8-1.4,19.2-3.2,27.1-.9,4.2-3,12.2-3.1,20-1.1-5-5.8-6.8-7.3-6.7-2,.2-3.8,1.3-4.4,3.1,1.5-15.5-2-29.9-1-38.2.4-3.4,1.4-5.8,2.1-8.7,5.1,1.8,11,2.9,17,3.4Z"/><path class="cls-11" d="M76.5,93.4c0,2.4-7.6,3.1-9.5,2"/><path class="cls-11" d="M77,100.5c-.1,0-.3.1-.4.1"/><path class="cls-7" d="M51.1,294.5c-1.1-.6-2.3-.8-4.1-1.1-2.4-.4-5.6-.7-8.8.5.6-.4,1.1-.8,1.4-1.4.4-.8-.6-3.4-.3-4.3.6-1.8,2.5-2.9,4.4-3.1,1.6-.2,6.3,1.7,7.3,6.7,0,.9,0,1.8,0,2.7Z"/><path class="cls-7" d="M53.1,307.3c-1.1,1.3-3,1.5-4.7,1.7-4.7.4-9.4.7-14.1,1-1.5,0-3.1.1-4.2-.9-.9-.9-1.3-5.6-1.1-6.9.4-2.6,4.4-5.6,6.7-7,.8-.5,1.7-.8,2.5-1.3,3.1-1.2,6.3-.9,8.8-.5,1.8.3,3.1.5,4.1,1.1,0,.4,0,.7,0,1.1,0-.3,0-.7,0-1,.6.4,1.2,1,1.8,1.9,1.2,1.7,1.3,9.3,0,10.8Z"/><path class="cls-7" d="M51.3,294.6c0,0-.1,0-.2-.1"/><path class="cls-7" d="M38.2,293.9c-.8.3-1.7.8-2.5,1.3"/><path class="cls-7" d="M51.3,294.6c0-1,0-1.9-.2-2.8"/><path class="cls-7" d="M92.2,292.6c0,.3,0,.6-.1.9,0,0,0,0,0,.1-.4.6-1.2.6-1.8.5-2.1-.2-6-.5-8.1,0-.6.1-1.2.3-1.6.6l-.4-.4c-.1-1-.1-2,0-3,.2-1.5.8-2.9,1.9-4,1.8-1.8,7.1-2.5,8.9-.6.5.5.8,1.1,1,1.8,0,0,0,0,0,0,.3,1.3.3,2.9.3,4.2Z"/><path class="cls-7" d="M100.6,309.3c-.4.1-2.9.6-3.3.6-4.3,0-18-.4-19.2-1.3-1.7-1.2-1-9.4,0-11.2.7-1.2,1.3-2.2,2.3-2.8.4-.3,1-.5,1.6-.6,2.1-.4,6,0,8.1,0,.7,0,1.5,0,1.8-.5,0,0,0,0,0-.1,3.3,1.2,7.7,3.2,8.9,6.2.5,1.3,1,9-.4,9.5Z"/><path class="cls-11" d="M47,95.6h.1"/><path class="cls-11" d="M86.5,96.1s0,0-.1,0"/><path class="cls-11" d="M88.6,186.6s0,0,0,0"/><path class="cls-11" d="M75.6,110.8c0,0,0,.2,0,.3"/><path class="cls-8" d="M78.4,159.1l-17.4.5c0-.2,0-.3,0-.5,0-6.5,3.9-11.8,8.7-11.8s8.7,5.3,8.7,11.8Z"/><path class="cls-2" d="M78.4,159.1c0,6.5-3.9,11.8-8.7,11.8s-8.5-5-8.7-11.3l17.4-.5Z"/><line class="cls-11" x1="61" y1="159.6" x2="61" y2="159.6"/><path class="cls-3" d="M80,60c-1.2,1.3-3.3,4.1-6.8,3.9-2.9-.2-3.4-1.3-5.3-3-.7,3.3-8.7,4.6-10.3,2.3-.1,3.6-5.4,7.3-7.3,6.3,1.5,3.4-1.7,13.8-3.8,13.5-.3-.4-.8-.7-1.3-.9-.3,0-.6-.1-1-.1l1.1-.3c-.6-3.3-.4-6.4.5-9.3,1-3.1,2.9-6,5.5-8.5h0c.8-.8,1.6-1.4,2.5-2,.3-.2.6-.4,1-.6,2.8-1.7,6-2.7,9.3-3,.2,0,.4,0,.6,0,2,0,4,.1,5.9.6,2.1.5,4.1,1.4,6.2,1.5.2,0,.4,0,.6,0,.8,0,1.7-.2,2.4-.5v.2Z"/><path class="cls-1" d="M82.1,57.4c0,.6-.3,1.1-.7,1.5-.4,0-.8.2-1.2.4,0,.1,0,.3.1.4-.1,0-.3.1-.4.2-.8.3-1.6.5-2.4.5-.2,0-.4,0-.6,0-2.1,0-4.2-1-6.2-1.5-1.9-.5-3.9-.7-5.9-.6-.2,0-.4,0-.6,0-3.3.2-6.5,1.2-9.3,3-.3.2-.7.4-1,.6-.9.6-1.7,1.3-2.5,2h0c-2.6,2.5-4.5,5.3-5.5,8.5-1,2.9-1.2,6-.5,9.3l-1.1.3c-.8,0-1.7.3-2.3.9-1.3,1.1-1.8,3.1-1.6,4.8,0,1,1.2,4.3,1.8,5,.5.6,1.1,1.2,1.7,1.6-.6.3-1.1,1.1-1.3,2-3.9-4.3-5.3-9.8-5.3-15.2h0c0-7.5,2.5-14.7,4.3-18.6,2-4.1,4.8-7.1,8.4-9.2h0c1.4-.8,2.9-1.5,4.6-2.1,1.5-.5,3.1-.9,4.8-1.3,1.3-.3,2.6-.5,4-.6,2.8-.3,5.6-.4,8.3,0,.8,0,1.6.2,2.4.4,1.8.4,8.9,3.1,8.3,7.6Z"/><path class="cls-3" d="M89,83.3c-.6-.3-1.1-.4-1.4-.2-1-4.2-1-7.1-.9-10.7-4.1-2.2-7.4-6.2-6.6-12.3v-.2c0,0,.2-.1.3-.2,1.1,3.3,3.7,5.8,5.5,8.7.5.7.9,1.5,1.2,2.2,1,2.1,1.5,4.2,1.7,6.5.1,1.8,0,3.7-.4,5.6.2.2.4.4.6.6Z"/><path class="cls-4" d="M64.3,75.9c-.5.3-1.3.4-1.9.4-1.5,0-3,.2-4.5.3-1.1,0-1.9,0-2.8-.5.6-1.7,5.5-3.2,9.4-1.5,0,0,.3,1-.2,1.3Z"/><path class="cls-12" d="M81.9,83.7c0,1.7-.6,3-1.4,3s-1.5-1.3-1.5-3,.6-3,1.5-3,1.4,1.3,1.4,3Z"/><path class="cls-12" d="M62.6,83.8c0,1.9-.8,3.4-1.8,3.4s-1.8-1.5-1.8-3.4.8-3.4,1.8-3.4,1.8,1.5,1.8,3.4Z"/><path class="cls-10" d="M76.7,100.7c-1.2,2.1-2.6,3.2-5.5,3.6-1.8.2-5.4-.1-7.1-1.2-1.7-1-2.4-1.4-4.5-4.2,1,.9,11.9,3.3,17,1.7h0Z"/><path class="cls-11" d="M77.5,60.4c-1.4-1.4-3.9-3.4-5-5.1-1-1.7-1.6-3.8-1.1-5.7"/><path class="cls-11" d="M63.2,49.5c-.4,1.5-.7,3-.7,4.5,0,1.5.6,3.1,1.7,4.1"/><path class="cls-11" d="M54,61.9c-2.5-1.5-4.4-5.5-4-8.4"/><path class="cls-11" d="M51.4,63.9c-1.4,0-2.9.1-4.3,0-1.4-.2-4.5-.2-5.5-1.2"/><path class="cls-11" d="M59.2,50.1c-2.3,3.8-3.6,6.4-4.5,10.8"/><path class="cls-11" d="M64.8,58.2c1-3.4,3.3-6.4,6.3-8.2"/><path class="cls-11" d="M36.9,81.4c2.6-2.2,7.3-6,9-9.1-2-2-3.8-7.1-4.4-9.8"/><path class="cls-11" d="M82.7,63.2c1.6-1.3,1.2-2.4,1.2-4.5"/><path class="cls-11" d="M87.2,70.5c1.1-3.9,1.5-6.9-.3-10.5"/><path class="cls-11" d="M92.9,72.4c-.9,1.3-2.6,4.7-4.1,4.7"/><path class="cls-11" d="M87.5,70.5c2.2-.3,3.5-1.5,4.9-3.2"/><path class="cls-5" d="M80.8,123.9c-.3-.3-.9.4-1,1.6,0,.5,0,1,0,1.6h0c-1.3,8-13.1,11.5-20.8,5.8-5.2-3.9-6.6-12.2-9-15.3,0,0,0,0,0,0,0-.2.1-.4.2-.6,2.6-.3,4.9-.6,4.7-.9.2-2.5.4-3.8.4-7.6,10.6,6.4,15,6.4,20.4,2.7-.1,1.5.2,2.9.4,4.3,2.7.7,2.8.7,4.9,1,0,.5,0,1-.4,1.3-2.2,2-1.4,4.9.1,6.2Z"/><path class="cls-11" d="M43.9,104.1c1.9,1.2,4.3,1.6,6.4.9"/><path class="cls-11" d="M44.5,113.1c1.7.3,3.5-.3,4.8-1.4"/><path class="cls-11" d="M45.6,121.9c1.9-1.3,3.4-3.1,4.4-5.2"/><path class="cls-11" d="M47.5,127.9c1.5-.3,3.6-4.1,3.6-5.6"/><path class="cls-4" d="M84.9,76c-.8.4-1.5.5-2.5.4-1.4,0-2.7-.2-4.1-.3-.6,0-1.2,0-1.8-.4-.5-.3-.8-.9-.3-1.2h0c3.6-1.4,8.1,0,8.7,1.4Z"/><path class="cls-11" d="M87.6,106.9c-1.6,2.1-5.2,3.8-7.9,3.7"/><path class="cls-11" d="M80,125.5c1.9-.3,4.7-1.7,5.8-3.2,1.1-1.5.9-4.4.6-6.3-1.8.9-3.8-1.2-5.8-1.6h0"/><path class="cls-11" d="M85.5,131.3c-.9-.4-1.7-.8-2.5-1.2h0c-1.3-.7-2.3-1.6-3.2-3.1"/><path class="cls-9" d="M53.4,137.4c0,0-.1.1-.2.2-.2.2-.5.3-.8.4-.6.2-1.2.3-1.8.4-.4,0-.7.1-1.1,0,0,0,0,0,0,0-.4-.2-.7-.8-.8-1.4-.1-.6,0-1.2.2-1.6.1-.2.4-.3.6-.4.8-.4,2-.5,2.7-.6,0,0,.2,0,.2,0,.2,0,.5-.1.7,0,.3.2.4.6.5,1,.2.8.3,1.6-.1,2.2Z"/><path class="cls-1" d="M53.1,151.6c-.8-2.1-1.1-6.7-1.9-9,0,0,.2,0,.2,0,.6-.2,1.2-.3,1.8-.6,0,0,.2,0,.3-.1-.2,3.1-1,6.2-.5,9.7Z"/><path class="cls-9" d="M54.3,141.4c-.2.2-.4.4-.7.5,0,0-.2,0-.3.1-.6.2-1.2.4-1.8.6,0,0-.2,0-.2,0-.3,0-.6,0-.8,0-.9-.3-1.5-2.2-.9-3,0,0,0-.1.2-.2.7-.7,2.5-.9,3.3-1.2.1,0,.3,0,.4-.1,0,0,.2,0,.3,0,.3.1.5.5.6.9.2.7.4,1.6,0,2.2Z"/><path class="cls-9" d="M85.9,136.1c0,.8-.2,1.7-.7,2.1-.1,0-.3.2-.5.2-.2,0-.4,0-.6,0-.6,0-1.2-.1-1.8-.2h0c-.3,0-.7-.2-1-.4-.6-.7-.6-2.7.2-3.1.2-.1.4-.2.7-.2.9,0,2.2.3,2.8.4h0c.2,0,.5,0,.6.2.2.3.2.7.2,1.1Z"/><path class="cls-1" d="M83.8,142.7c-.6,3-.2,5.9-1.3,8.9-.6-2.8-.5-6-.4-9.1.5,0,1,.2,1.5.2,0,0,.1,0,.2,0Z"/><path class="cls-9" d="M85.5,140.4c0,.8-.2,1.7-.7,2.1-.3.2-.6.2-.9.2,0,0-.1,0-.2,0-.5,0-1,0-1.5-.2,0,0-.2,0-.3,0-.3,0-.7-.2-1-.4-.6-.6-.6-2.7.2-3.1.3-.2.8-.2,1.2-.2.8,0,1.7.3,2.3.4,0,0,0,0,0,0,.2,0,.4,0,.6.2.2.3.2.7.2,1.1Z"/><path class="cls-9" d="M52.5,133.3c-.2.2-.4.3-.6.4-.1,0-.3.1-.4.2-.6.2-1.2.3-1.8.4-.2,0-.4,0-.6,0-.2,0-.3,0-.5-.1-.7-.3-1.2-1.8-.9-2.7,0-.1.1-.3.2-.4.7-.8,2.6-.8,3.5-1.1.1,0,.3,0,.4,0,.1,0,.2,0,.3,0,.3.2.4.6.5,1,.2.8.3,1.7-.1,2.2Z"/><path class="cls-9" d="M86.2,131.7c0,.3,0,.6,0,.9,0,.5-.2.9-.6,1.2-.1,0-.2.1-.4.2-.2,0-.5,0-.7,0-.6,0-1.2,0-1.8-.2-.2,0-.4,0-.5-.1-.2,0-.3-.2-.4-.3-.5-.5-.6-1.8-.3-2.6h0c0-.2.2-.4.4-.5.3-.2.7-.2,1.2-.2h0c.8,0,1.8.3,2.3.3.1,0,.2,0,.3,0,.1,0,.3,0,.4.2.3.3.3.7.2,1.1Z"/><path class="cls-5" d="M87.6,178.5c-.7-5-1.4-9.2-1.3-14.1,1.6-2.2,3.1-4.2,4.8-5.8h-.1c-.6.4-1.6-7-2.6-10.3,1.7-2.2,6.3-5.5,5.5-9.8-.8-4,3.5-3.1,3-6.6-.1-.9.5-1.9,1.3-2.8.7,4.3,2.2,25.4,2.9,28.9,1.8,9.1-7.5,16.1-13.4,20.4Z"/><path class="cls-11" d="M87.6,178.5c0,0-.1,0-.2.1"/><path class="cls-11" d="M91,158.4s0,0,0,0"/><path class="cls-11" d="M86.3,164.4c-.1.2-.2.3-.3.4"/><path class="cls-11" d="M95.7,155.8c-1.8.7-3.3,1.6-4.6,2.8"/><path class="cls-5" d="M44.9,168.2c-.4,3.9-1.1,9.7-1.5,13.8h-.1c-1.9-1.3-2.8-1.9-4.9-3.1-4.9-2.6-13.1-9.5-13.1-16.3,0-5.6,5.4-28.4,7.6-35.7,2.8,2.2,1.1,8,3.3,9.6,4.2,3,5.1,6.5,6.5,7.8-.3,2.6-1.2,5.3-1.9,8.2-.5,2-2,7.8-2.5,9.7h0c2.3,2,3.9,3.7,6.7,6h0Z"/><path class="cls-11" d="M38.2,162.2c-.6-.5-1.2-1-2-1.6"/></svg>