<?xml version="1.0" encoding="UTF-8"?><svg id="africa" xmlns="http://www.w3.org/2000/svg" width="235" height="321.9" viewBox="0 0 235 321.9"><defs><style>.cls-1{fill:none;stroke:#000;stroke-linecap:round;stroke-linejoin:round;}.cls-2,.cls-3,.cls-4,.cls-5,.cls-6,.cls-7,.cls-8,.cls-9{stroke-width:0px;}.cls-3{fill:#2648aa;}.cls-4{fill:#ddd;}.cls-5{fill:#ac3832;}.cls-6{fill:#9f6f56;}.cls-7{fill:#332723;}.cls-8{fill:#9fc1e4;}.cls-9{fill:#fff;}</style></defs><path class="cls-4" d="M213.7,212.7c2.5,1.1,3,4.6,1.6,7.1-1.4,2.5-4,4.1-6.6,5.5-7.8,4.2-16.3,7.1-24.6,9.9-1,.3-2.1.7-3,.2h-.4c-.3-5.2,3.5-15.4,6.9-20.8h0c7.7-.7,14.5-1.5,22.2-2.2,1.3-.1,2.7-.2,3.9.3Z"/><path class="cls-8" d="M88.7,176.5c1.4.2,2.8.5,4.2.8,3,.6,6.3,1.3,9.6,2,8,1.8,10.2,3.8,14.2,4.8.3,0,.6.1.9.2,4,1.2,9.3,2.9,12,4.1,1.3.6,60.4,23,60.1,23.3-.7.6-1.5,1.6-2.3,2.9h0c-3.3,5.4-7.2,15.6-6.9,20.7,0,.3-53.7-21.3-55.5-21.5-.4,0-.9-.1-1.4-.2-8.3-1.1-28-4.4-36.6-6.1-2.2-.6-3.9-1.1-5.1-1.5-4.6-2.3-10.7-8.6-11-20.1,0-1.2,0-2.5.1-3.9,1-6.7,7.9-7.1,17.4-5.6Z"/><path class="cls-4" d="M136.3,303.2c1.8,2.1.7,5.5-1.6,7.2-2.3,1.7-5.4,2-8.3,2.1-8.8.4-18.3-3.1-27.1-4.1-1-.1-2.2-.3-2.8-1.1-.5-.6-.5-1.4-.5-2.1,0-3.2.2-5.4.9-8.5,10.6,1.1,15.2.4,23.9-1.1,4.1,2.1,8,4.2,11.9,5.6,1.3.5,2.6,1,3.4,1.9Z"/><path class="cls-6" d="M133.1,88.7c.5,0-.9-3.5-1.3-3.8-1-.7-2.4-.6-3.6-.6-.4.9-.8,1.8-1.2,2.6,1.1,0,2.2.2,3.2.7.9.4,1.8,1.1,2.8,1.1ZM112.9,100.1l-.2.2c0,11.7,8.6,12.1,11.2,4.5-4.3-.5-7.2-2.2-11-4.7ZM90.6,93.1c-1.4-.7-2.4-2.2-3-3.8-.4-1.3-.6-2.8-.4-4.1,0-.4.1-.9.2-1.3.3-1.3,1-2.5,2-3.2,1.3-.9,3.3-.5,4,1-.6,2.7-.8,5-.6,6.5,3.1,1.4,6.1-15.4,12.9-21.1-2.2,2.7-2.4,5-3.9,9.8-1.2,4.1-2.4,13-2.3,17.3,1.7,1.1,4.1-15.2,6.8-21.3,1.9-4.4,9.5-8.5,19.2-1.4,9.2-2.3,10.9,5.5,10.3,14.3h0c-1.1,3.5-1.8,3.8-2.4,6-.3.9-.7,5-2.4,9.6,0,0,0,0,0,.1-2,5.7-5.9,12-13.6,14.1-1.4.2-4-.1-7.7-2,0,.8,0,1.6-.2,2.3-1.1,7.3-6.9,7.7-11.2,6.1-1.3-.5-2.4-1.1-3.2-1.7-2.7-2.1-2.3-5.9-1.9-8.9.2-1.3.3-2.5.3-3.4.1-2.9-2.1-10.3-2.9-15ZM130.4,92.5c.3-1.4,0-2.7-.9-2.9-.8-.2-1.7.9-2.1,2.3-.3,1.4,0,2.7.9,2.9.8.2,1.7-.9,2.1-2.3ZM119.1,83.4c.2-.5.4-1.4.4-1.9-.2,0-1.2-.9-1.3-.9-2.6-1.9-5.8-2-8.3,0-.4.4-.2,1.3.3,1.6s1.1.2,1.6.2c1.7,0,3.8.4,5.2,1.3.3.2.6.4,1,.4.5,0,.9-.4,1.1-.8ZM114.8,88.9c.3-1.4,0-2.6-.9-2.8-.8-.2-1.8.8-2.1,2.2-.3,1.4.1,2.6.9,2.8.8.2,1.8-.8,2.1-2.2Z"/><path class="cls-7" d="M139.4,85.4c.1,2.7,0,5.6,0,8.4-.8,1.7-3.8,13.4-5.8,18.4-1.3,3.2-5.5,10.2-7.4,5.7,1.9-3.4,3.6-12.3,5-16.4,0,0,0,0,0-.1,1.7-4.6,2.1-8.8,2.4-9.6.6-2.2,1.3-2.4,2.4-6-.5,6.1-2.1,12.8-3.3,16.9,2,1.9,5.3-8.6,6.7-17.3h0Z"/><path class="cls-7" d="M131.8,84.9c.5.3,1.8,3.8,1.3,3.8-1,0-1.9-.7-2.8-1.1-1-.5-2.1-.7-3.2-.7.4-.9.8-1.8,1.2-2.6,1.1,0,2.6-.2,3.6.6Z"/><path class="cls-3" d="M114.6,151.9c-1.3.4-2.5.6-3.5.9.3-2-.3-2.8,0-4.8-3.2-.6-9.1-1.9-12-3.2-.2,1.6-.4,3.3-.7,4.9l-4.5-.6h-.4c1-7.3,3.2-14.4,6.4-20.9h0c.5-.2,1-.3,1.4-.5,2.9-.6,6,0,8.5,1.6,1-4,1.4-8.1,1.2-12.2l.2-.3c4.3,2.2,12.9,6.3,14.3,9.7,4.1,10.3,6,28.5,5.5,29-.2.2-.8.1-1.7-.2-3.3-1-10.3-4.3-14.7-3.4h0Z"/><path class="cls-2" d="M129.5,89.6c.8.2,1.2,1.5.9,2.9-.3,1.4-1.3,2.4-2.1,2.3-.8-.2-1.2-1.5-.9-2.9.3-1.4,1.2-2.4,2.1-2.3Z"/><path class="cls-6" d="M93.2,151.4c1.7,1.2,2.9,2.5,2.9,3.5h0c.6,0,1.1,0,1.6-.2,6-1.1,6.6-.4,13.4-2,1-.2,2.1-.5,3.5-.9h0c4.4-.9,11.5,2.4,14.7,3.4v.3c-.3,1.6-.6,3.1-1.2,4.4-1,2-2.1,2.2-3,2.8-3.7,1.4-6.8,2.3-9.7,2.7-7.6,1.2-13.5-.5-24-1.7,0,0-.2,0-.2,0-.8.3-2.4.5-4.2.6-3.6.2-8.1-.3-8.7-2-.8-2.2,2.7-13,5.5-14.3,1-.5,2.8,0,4.8.7,1.6.6,3.2,1.5,4.6,2.5Z"/><path class="cls-8" d="M123.7,213.7c2.6,9.4,4.3,11.7,4.3,19,0,1.1-5.5,61.6-5.6,62.7-.5,0-1,.2-1.5.3-8.8,1.5-13.3,2.3-23.9,1.1-.4,0-.7,0-1.1-.1-.5-1.3,8.1-62.4,7.1-65.1-2.4-6.4-10.5-16.7-15.8-23.9,8.5,1.7,28.2,5,36.6,6.1Z"/><path class="cls-7" d="M119.5,81.5c0,.5-.2,1.4-.4,1.9-.2.5-.6.8-1.1.8-.4,0-.7-.2-1-.4-1.4-.9-3.5-1.3-5.2-1.3-.6,0-1.1,0-1.6-.2s-.7-1.2-.3-1.6c2.5-2,5.7-2,8.3,0,.2,0,1.2.9,1.3.9Z"/><path class="cls-5" d="M117.7,184.2c-.3,0-.6-.1-.9-.2h0c.3,0,.6,0,.9.2Z"/><path class="cls-5" d="M116.8,184h0c-4-.9-6.2-2.9-14.2-4.7-3.3-.7-6.6-1.4-9.6-2h0c-1.3-4.1-1.8-8.5-1.5-12.7v-.7c10.6,1.2,16.4,2.9,24,1.7-.8,3,1.2,13.6,1.3,18.5Z"/><path class="cls-2" d="M113.8,86.1c.8.2,1.3,1.4.9,2.8-.3,1.4-1.3,2.4-2.1,2.2-.8-.2-1.3-1.4-.9-2.8.3-1.4,1.3-2.3,2.1-2.2Z"/><path class="cls-9" d="M112.9,100.1c3.8,2.6,6.7,4.3,11,4.7-2.6,7.6-11.2,7.2-11.2-4.5l.2-.2Z"/><path class="cls-9" d="M98.4,149.7c.3-1.7.5-3.3.7-4.9,2.9,1.3,8.9,2.6,12,3.2-.3,2,.3,2.8,0,4.8-6.8,1.6-7.3.8-13.4,2h0c.2-1.7.4-3.3.7-5Z"/><path class="cls-3" d="M99.9,128.2h0c-3.2,6.6-5.4,13.6-6.4,20.9-.1.8-.2,1.6-.3,2.4-1.4-1-3-1.9-4.6-2.5,0-.6,0-1.2.1-1.8.6-6.9,2.5-13.7,5.7-19.9.4,1.1.5,2.4.3,3.6,0,.7-.2,1.4-.5,2.1,1.3-2.1,3.3-3.8,5.6-4.6Z"/><path class="cls-5" d="M96.1,154.9c0-1-1.3-2.3-2.9-3.5,0-.8.2-1.6.3-2.4h.4c0,0,4.5.7,4.5.7-.3,1.7-.5,3.3-.7,5h0c-.5.1-1,.2-1.6.3h0Z"/><path class="cls-3" d="M99.9,128.2c-2.3.9-4.3,2.5-5.6,4.6.2-.7.4-1.4.5-2.1h.4c1.6-2.5,2.7-5.5,3.2-8.5h0c4.3,1.5,10.1,1.1,11.2-6.2h.2c.4.2.9.5,1.4.8h0s-.2.3-.2.3c.2,4.1-.2,8.2-1.2,12.2-2.5-1.7-5.6-2.3-8.5-1.6-.5.1-1,.3-1.4.4Z"/><path class="cls-3" d="M94.5,127.1c-.2-.8-.6-1.5-1.1-2.2-1.7-2.2-5-3.1-7.4-1.7,0-4.4,1.9-8.8,5.3-11.6v-.3c.6,0,1.2,0,1.7.2h.3c-.4,3.1-.7,6.8,1.9,8.9.8.7,2,1.3,3.2,1.7h0c-.5,3.1-1.6,6-3.2,8.6h-.4c.1-1.2,0-2.5-.3-3.6Z"/><path class="cls-3" d="M72.5,136.8h-.4c-4.6,4.2-11.1,9.7-13.5,11.4-.4-.2-.8-.5-1.2-.7-3.9-2.7-6.7-7.7-7.6-10.2-.2-.6-.3-1.1-.3-1.3.1-1,13.5-15,14.2-15.7,4-3.7,7-6.6,12.3-7.7,1.6-.3,9.5-1.6,15.2-1.3v.3c-3.4,2.8-5.4,7.2-5.4,11.6,2.4-1.4,5.7-.5,7.4,1.7.5.7.9,1.4,1.1,2.2-3.2,6.2-5.2,13-5.7,19.9h-.6c-5.9-.8-11.6-3.4-15.9-7.5,0-.9.2-1.9.3-2.8Z"/><path class="cls-3" d="M92.9,177.2h0c-1.5-.3-2.9-.5-4.2-.7-1.2-3.8-1.7-7.8-1.6-11.8v-.3c1.8,0,3.4-.3,4.2-.6,0,0,.2,0,.2,0v.7c-.4,4.3.1,8.6,1.4,12.7Z"/><path class="cls-7" d="M90.6,93.1c-1.6,2.8-2.2,15.1-3.5,14.1-1.4-.9-2-9-1.7-12.4.3-2.7.7-2.6,1.5-5.5h.6c.6,1.6,1.5,3,3,3.8Z"/><path class="cls-7" d="M89.8,69.1c1.2-1.7,2.3-3.3,2.7-3.8-1.1,1.5-1.9,2.7-2.7,3.8ZM89.7,69.2c-2.4,3.4-5.5,7.5-5.4,6.1.9-8.8,5.3-14,10.8-20.1,4.2-3.4,5.8-4.1,16.1-5.4,3-.4,10.9,2.5,15.3,6.7,8.7-4.4,15.3,3.6,17.9,9,1.6,3.5,3.1,11.1,3.3,13.8,0,.9-.5,17.7-1.6,17.1-2.2.3-.6-11.4-3-14-.5,6-1.6,13.8-1.9,20-.2,4.9-.9,9.3-1.7,9.4-2.3.9-.9-8.3-.3-17.9.2-2.9.2-5.8,0-8.4h0c-1.4,8.7-4.7,19.2-6.7,17.3,1.2-4.1,2.8-10.7,3.3-16.9h0c.7-8.8-1.1-16.6-10.3-14.3-9.7-7.1-17.3-3-19.2,1.4-2.7,6-5.1,22.4-6.8,21.3,0-4.3,1.1-13.2,2.3-17.3,1.5-4.9,1.7-7.1,3.9-9.8-6.8,5.8-9.8,22.5-12.9,21.1-.2-1.6,0-3.8.6-6.5-.7-1.5-2.7-1.9-4-1-1,.7-1.7,1.9-2,3.2h-.3c-1.4,5.1-2,11.1-3.4,11.4-2.6-3.5-1.2-12.2.8-16.4,2.1-4.5,3.3-6.8,5.2-9.7Z"/><path class="cls-5" d="M88.6,148.9c-2-.8-3.8-1.2-4.8-.7-2.8,1.4-6.4,12.2-5.5,14.3.7,1.7,5.1,2.2,8.7,2v.3c-.1,4,.4,8,1.6,11.8-9.5-1.5-16.4-1-17.4,5.6-.1,1.4-.2,2.7-.1,3.9-2.7-10.9-.8-27.3,1.2-46.4,4.4,4,10,6.7,15.9,7.4h.6c0,.7,0,1.3-.1,1.9Z"/><path class="cls-6" d="M42.9,168.9h0c2.4.7,4.6,9.4,3.1,11.3-1.7,2-11.2,2.9-12.7,1.8-1.9-1.3.2-8.8,1.5-10.7,2.6-11.9,5.1-17.6,11.2-28.2,1.4-2.4,2.7-4.5,3.9-5.9.8,2.5,3.6,7.6,7.6,10.2-3.1,2.5-1.9,1.3-3.2,2.4-4.6,8.3-8,12.3-11.4,19.1Z"/><path class="cls-1" d="M72.1,136.7c-4.6,4.3-11.1,9.7-13.5,11.5-.4-.2-.8-.5-1.2-.7-3.9-2.7-6.7-7.7-7.6-10.2-.2-.6-.3-1.1-.3-1.3.1-1,13.5-15,14.2-15.7,4-3.7,7-6.6,12.3-7.7,1.6-.3,9.5-1.6,15.2-1.3.6,0,1.2,0,1.7.2"/><path class="cls-1" d="M49.9,137.2c-1.2,1.4-2.5,3.5-3.9,5.9-6.1,10.6-8.6,16.2-11.2,28.2"/><path class="cls-1" d="M57.4,147.5c-3.1,2.5-1.9,1.3-3.2,2.4-4.6,8.3-8,12.3-11.4,19.1,0,.2-.2.3-.3.5"/><path class="cls-1" d="M43,169c2.4.6,4.6,9.3,3.1,11.2-1.7,2-11.2,2.9-12.7,1.8-1.9-1.3.2-8.8,1.5-10.7"/><path class="cls-1" d="M114.6,151.9c4.4-.9,11.5,2.4,14.7,3.4.9.3,1.5.4,1.7.2.5-.5-1.4-18.7-5.5-29-1.4-3.4-10-7.5-14.3-9.7h0c-.6-.3-1-.5-1.4-.8"/><path class="cls-1" d="M113.2,142c0,4.8.7,7.2,1,10,.1,0,.3,0,.4,0"/><path class="cls-1" d="M125.1,162.8c-3.7,1.4-6.8,2.3-9.7,2.7-7.6,1.2-13.5-.5-24-1.7,0,0-.2,0-.2,0"/><path class="cls-1" d="M97.8,154.7c-.5,0-1,.2-1.6.3-.2,0-.4,0-.7.1"/><path class="cls-1" d="M111.1,152.8c-6.8,1.6-7.3.8-13.4,2"/><path class="cls-1" d="M114.6,151.9h0c-1.3.4-2.5.7-3.5.9"/><path class="cls-1" d="M96.1,154.9c0-1-1.3-2.3-2.9-3.5-1.4-1-3-1.9-4.6-2.5-2-.8-3.8-1.2-4.8-.7-2.8,1.4-6.4,12.2-5.5,14.3.7,1.7,5.1,2.2,8.7,2,1.8,0,3.4-.3,4.2-.6"/><path class="cls-1" d="M129.3,155.6c-.2,1.6-.5,3.1-1.1,4.4-1,2-2.1,2.2-3,2.8"/><path class="cls-1" d="M73.3,129c-.2,2.6-.5,5.2-.7,7.8,0,.9-.2,1.9-.3,2.8-1.9,19.2-3.9,35.5-1.2,46.4,0,.3.2.6.3,1"/><path class="cls-1" d="M115.5,165.5s0,0,0,0c-.8,3,1.2,13.6,1.3,18.5h0"/><path class="cls-1" d="M187.5,214.6c.8-1.3,1.6-2.3,2.3-2.9.3-.3-58.8-22.7-60.1-23.3-2.7-1.2-8-2.9-12-4.1-.3,0-.6-.2-.9-.3-1.4-.4-2.5-.8-3.3-1"/><path class="cls-1" d="M87.2,207.6c8.5,1.7,28.2,5,36.6,6.1.5,0,1,.1,1.4.2,1.9.2,55.5,21.8,55.5,21.5-.3-5.1,3.5-15.3,6.9-20.7"/><path class="cls-1" d="M82.1,206.1c1.1.5,2.9,1,5.1,1.5"/><path class="cls-1" d="M87.2,207.6c5.3,7.2,13.5,17.5,15.8,23.9,1,2.8-7.6,63.8-7.1,65.1.4,0,.7,0,1.1.1,10.6,1.1,15.2.4,23.9-1.1.5,0,1-.2,1.5-.3,0-1.1,5.6-61.6,5.6-62.7,0-7.3-1.6-9.6-4.3-19"/><path class="cls-1" d="M71.2,182.1c-.1,1.4-.2,2.7-.1,3.9.3,11.4,6.4,17.7,11,20.1"/><path class="cls-1" d="M181,235.5c.9.5,2,.1,3-.2,8.4-2.9,16.8-5.8,24.6-9.9,2.6-1.4,5.2-3,6.6-5.5,1.4-2.5,1-6.1-1.6-7.1-1.2-.5-2.6-.4-3.9-.3-7.7.7-14.5,1.5-22.2,2.2h0"/><path class="cls-1" d="M118.1,184.3c-.1,0-.3,0-.4,0-.3,0-.6-.1-.9-.2-4-1-6.2-3-14.2-4.8-3.3-.7-6.6-1.4-9.6-2-1.5-.3-2.9-.5-4.2-.8-9.5-1.5-16.4-1-17.4,5.6"/><path class="cls-1" d="M109.6,116c-1.1,7.3-6.9,7.7-11.2,6.1-1.3-.5-2.4-1.1-3.2-1.7-2.7-2.1-2.3-5.9-1.9-8.9.2-1.3.3-2.5.3-3.4"/><path class="cls-1" d="M109.8,113.7c0,.8,0,1.6-.2,2.3"/><path class="cls-1" d="M97,296.8c-.8,3.1-1,5.3-.9,8.5,0,.7,0,1.5.5,2.1.6.8,1.8,1,2.8,1.1,8.8,1,18.3,4.5,27.1,4.1,2.9-.1,5.9-.5,8.3-2.1,2.3-1.7,3.4-5.1,1.6-7.2-.9-1-2.2-1.5-3.4-1.9-4-1.5-7.8-3.5-11.9-5.6"/><path class="cls-1" d="M91.3,111.6c-3.4,2.8-5.4,7.2-5.3,11.6,2.4-1.4,5.7-.5,7.4,1.7.5.7.9,1.4,1.1,2.2.4,1.1.5,2.4.3,3.6,0,.7-.2,1.4-.5,2.1,1.3-2.1,3.3-3.8,5.6-4.6.5-.2,1-.3,1.4-.4,2.9-.6,6,0,8.5,1.6,1-4,1.4-8.1,1.2-12.2"/><path class="cls-1" d="M98.4,122.2c-.5,3-1.6,5.9-3.2,8.5"/><path class="cls-1" d="M94.5,127.1s0,0,0,0c-3.2,6.2-5.2,13-5.7,19.9,0,.6,0,1.2-.1,1.8h0"/><path class="cls-1" d="M87,164.7c-.1,4,.4,8,1.6,11.8v.2"/><path class="cls-1" d="M99.9,128.2c-3.2,6.6-5.4,13.6-6.4,20.9-.1.8-.2,1.6-.3,2.4,0,0,0,0,0,0"/><path class="cls-1" d="M91.4,164.5c-.3,4.3.2,8.6,1.5,12.7"/><path class="cls-1" d="M72.2,139.5s0,0,0,0c4.4,4,10,6.7,15.9,7.4"/><polyline class="cls-1" points="94 149.1 98.4 149.7 98.5 149.7"/><path class="cls-1" d="M111.1,152.8c.3-2-.3-2.8,0-4.8-3.2-.6-9.1-1.9-12-3.2-.2,1.6-.4,3.3-.7,4.9-.3,1.7-.5,3.3-.7,5"/><path class="cls-1" d="M117.5,115.7c-1.4.2-4-.1-7.7-2-2.8-1.4-6.1-3.6-9.9-7.1"/><path class="cls-1" d="M131.1,101.6c-2,5.7-5.9,12-13.6,14.1"/><path class="cls-1" d="M135.9,85.8c-1.1,3.5-1.8,3.8-2.4,6-.3.9-.7,5-2.4,9.6"/><path class="cls-1" d="M136.1,85.1c0,.3-.2.5-.2.8"/><path class="cls-1" d="M128.2,84.3c-.4.9-.8,1.8-1.2,2.6,1.1,0,2.2.2,3.2.7.9.4,1.8,1.1,2.8,1.1s-.9-3.5-1.3-3.8c-1-.7-2.4-.6-3.6-.6Z"/><path class="cls-1" d="M118.2,80.6c-2.6-1.9-5.8-2-8.3,0-.4.4-.2,1.3.3,1.6s1.1.2,1.6.2c1.7,0,3.8.4,5.2,1.3.3.2.6.4,1,.4.5,0,.9-.4,1.1-.8.2-.5.4-1.4.4-1.9-.2,0-1.2-.9-1.3-.9Z"/><path class="cls-1" d="M125.6,97.2c.5,6.3-6.4,3.1-7.6,1.7"/><path class="cls-1" d="M127.5,91.9c-.3,1.4,0,2.7.9,2.9.8.2,1.7-.9,2.1-2.3.3-1.4,0-2.7-.9-2.9-.8-.2-1.7.9-2.1,2.3Z"/><path class="cls-1" d="M111.7,88.2c-.3,1.4.1,2.6.9,2.8.8.2,1.8-.8,2.1-2.2.3-1.4,0-2.6-.9-2.8-.8-.2-1.8.8-2.1,2.2Z"/><path class="cls-1" d="M123.9,104.9c-4.3-.5-7.2-2.2-11-4.7-.3-.2-.6-.4-.9-.6"/><path class="cls-1" d="M123.9,104.9c-2.6,7.6-11.2,7.2-11.2-4.5"/><path class="cls-1" d="M90.6,93.1c.8,4.7,3,12.1,2.9,15"/><path class="cls-1" d="M93.6,81.8s0,0,0-.1c-.7-1.5-2.7-1.9-4-1-1,.7-1.7,1.9-2,3.2-.1.4-.2.9-.2,1.3-.1,1.4,0,2.8.4,4.1.6,1.6,1.5,3,3,3.8,1.1.6,2.7.6,3.3-.7"/><path class="cls-1" d="M105.8,67.1c-2.2,2.7-2.4,5-3.9,9.8-1.2,4.1-2.4,13-2.3,17.3,1.7,1.1,4.1-15.2,6.8-21.3,1.9-4.4,9.5-8.5,19.2-1.4"/><path class="cls-1" d="M121.2,63.8c-2.4-1-10.6-1.9-14.4,2.1-.4.4-.7.8-1,1.1"/><path class="cls-1" d="M126.1,62.4c-1.3-2.4-11.7-4-14.4-3.2-6.1,1.8-9.2,3.1-13.5,10.8-2.3,4.1-3.8,8.2-4.6,11.6-.6,2.7-.8,5-.6,6.5,3.1,1.4,6.1-15.4,12.9-21.1h0"/><path class="cls-1" d="M92.6,65.1c7.7-10.7,22.1-13.8,34.1-5.7"/><path class="cls-1" d="M89.8,69.1c.7-1.1,1.6-2.3,2.7-3.8"/><path class="cls-1" d="M91,76.4c-1.8,1.1-3,4.1-3.9,7.3-1.4,5.2-2,11.2-3.4,11.5-2.6-3.5-1.2-12.2.8-16.4,2.1-4.5,3.3-6.8,5.2-9.7"/><path class="cls-1" d="M143.2,82.4c2.4,2.7.8,14.3,3,14,1.1.6,1.7-16.2,1.6-17.1-.2-2.7-1.6-10.3-3.3-13.8-2.5-5.3-9.2-13.4-17.9-9"/><path class="cls-1" d="M129.2,61.9c6.4-2,12.9,4.5,14.1,12.6.3,1.6.1,4.4-.2,7.8-.5,6-1.6,13.8-1.9,20-.2,4.9-.9,9.3-1.7,9.4-2.3.9-.9-8.3-.3-17.9.2-2.9.2-5.8,0-8.4"/><path class="cls-1" d="M125.6,71.5c9.2-2.3,10.9,5.5,10.3,14.3h0c-.5,6.1-2.1,12.8-3.3,16.9,2,1.9,5.3-8.6,6.7-17.3.5-2.8.7-5.4.7-7.4,0-8.9-5.4-12.7-10-12.4"/><path class="cls-1" d="M131.1,101.4s0,0,0,.1c-1.4,4.1-3.2,13-5,16.4,1.9,4.5,6.1-2.5,7.4-5.7,2-4.9,5-16.7,5.8-18.4,0,0,0,0,0,0"/><path class="cls-1" d="M126.6,56.6c-4.3-4.2-12.3-7.1-15.3-6.7-10.3,1.3-11.9,2-16.1,5.4"/><path class="cls-1" d="M104.3,58.3c-5.8,3.5-6.2,4.4-8.6,8.1-1.4,2.2-3.3,6.2-4.7,10-.5,1.3-.9,2.5-1.2,3.6"/><path class="cls-1" d="M87.1,89.3c-.8,2.8-1.2,2.8-1.5,5.5-.4,3.4.2,11.4,1.7,12.4,1.2,1,1.9-11.3,3.5-14.1"/><path class="cls-1" d="M92.6,65.1s0,0-.1.2c-.4.5-1.4,2.1-2.7,3.8,0,0,0,0,0,.1-2.4,3.4-5.5,7.5-5.4,6.1.9-8.8,5.3-14,10.8-20.1"/></svg>