<?xml version="1.0" encoding="UTF-8"?><svg id="africa" xmlns="http://www.w3.org/2000/svg" width="235" height="321.9" viewBox="0 0 235 321.9"><defs><style>.cls-1{fill:none;stroke:#000;stroke-linecap:round;stroke-linejoin:round;}.cls-2,.cls-3,.cls-4,.cls-5,.cls-6,.cls-7,.cls-8,.cls-9,.cls-10{stroke-width:0px;}.cls-3{fill:#54a880;}.cls-4{fill:#dea339;}.cls-5{fill:#ac847b;}.cls-6{fill:#d5d5d4;}.cls-7{fill:#332921;}.cls-8{fill:#926b4d;}.cls-9{fill:#ffcc69;}.cls-10{fill:#e880a9;}</style></defs><path class="cls-8" d="M130.7,184.9c1.2,2.8-1.9,5.6-4.3,7.4s-3.9,2.5-6.4.8c-1.2-.8-2.2-2-2.6-3.4,0-.1,0-.2,0-.3-.5-2.5,1-5.1,3.1-6.6,2.2-1.6,0-.8,2.7-1.4,2.9-.9,6.3.7,7.5,3.5Z"/><path class="cls-10" d="M117.2,189.5c-2.4-6.5-17.3-15.8-17.8-20.9,0-.5,0-1,.1-1.6.2-2.4.3-4.8.3-7.3,2.4-3.1,2.3-3.4,4.1-4.7h0c1.6,6.8,13.4,22.4,19.2,26.3-2.6.6-.5-.1-2.7,1.4-2.1,1.5-3.6,4.1-3.1,6.6h-.1Z"/><path class="cls-3" d="M113.7,243.6c-.4,16.9-3.4,29.9-5.8,47.6-.9.9-1.2,2.2-1.6,3.4-.4,1.2-.9,2.5-1.9,3.2-1.8,1.3-5.9.2-7-1.7,0-.7,1.3-16.3-1.7-27.4-.8-3.1.2-13.3.7-16.4-1.9-4.5-.9-1.6-2.8-6,7.3-3.1,12.9-5.4,19.9-2.8h.1Z"/><path class="cls-5" d="M88.8,114.3l-.2.2c0,11.6,8.6,12,11.2,4.5-4.3-.5-7.2-2.2-11-4.7ZM70.1,107.5c-.4-.2-.7-.5-1-.8-1.2-1.3-1.5-3.1-1.3-4.8.1-1,.4-1.9,1-2.7.6-.8,1.6-1.4,2.6-1.3,1,0,2.1.7,2.3,1.6,5-9.2,6.9-16.2,15-18.4,4-1.1,11.7-1,13.7,2.4,3-2.2,7.7,1.5,9.1,4.9,1.4,3.3,1.2,6.2.4,8.8-1.9,4.1-1.4,3.7-2.1,6-.3,1-.2,4.6-.9,8.8-.7,4.2-2.3,8.9-6.2,12,0,0-5.6,5.2-9.4,5.8-.6,0-2.2-.4-4.2-1.2-.3-.1-.5-.2-.8-.3-4.5-1.9-10.8-5.3-14.4-8.5-1.1-1-2-2-2.4-2.9-.7-3.9-1.4-5.4-1.4-9.4ZM106.3,106.7c.3-1.4,0-2.7-.9-2.9s-1.7.9-2.1,2.3c-.3,1.4,0,2.7.9,2.9s1.7-.9,2.1-2.3ZM90.6,103c.3-1.4-.1-2.6-.9-2.8-.8-.2-1.8.8-2.1,2.2-.3,1.4.1,2.6.9,2.8.8.2,1.8-.8,2.1-2.2Z"/><path class="cls-7" d="M112,97.2c.8-2.7.9-5.5-.4-8.8-1.4-3.5-6.1-7.2-9.1-4.9-.3-7.6-4-11.9-13.3-16.2,21.6-.9,33.9,24.4,19.8,44.8.7-4.2.6-7.9.9-8.8.7-2.3.2-1.9,2.1-6Z"/><path class="cls-4" d="M104.6,150.5c.5,1.1,1,2.2,1.5,3.2-.9.6-1.6,1.1-2.1,1.4-1.8,1.3-1.7,1.6-4.1,4.7,0-1.7,0-3.4,0-5.2,1-1.9,2.7-3.4,4.7-4.1h0Z"/><path class="cls-2" d="M105.4,103.8c.8.2,1.2,1.5.9,2.9-.3,1.4-1.3,2.4-2.1,2.3s-1.2-1.5-.9-2.9c.3-1.4,1.2-2.4,2.1-2.3Z"/><path class="cls-6" d="M96.3,306.1c0-3.3.4-6.7,1.1-9.9,1.1,1.9,5.2,3,7,1.7,1-.8,1.5-2,1.9-3.2.4-1.2.7-2.5,1.6-3.4.9-.9,1.3-.8,2.8-.4h0s0,0,0,0h0c7.4,2.9,15.5,8.4,22.9,11.2,1.3.5,2.6,1,3.5,2.1,1.9,2.2.8,5.8-1.6,7.5-2.3,1.8-5.5,2.1-8.4,2.2-9,.4-18.7-3.3-27.6-4.4-1.1-.1-2.3-.3-2.9-1.2-.5-.6-.5-1.4-.5-2.2Z"/><path class="cls-4" d="M58.8,164.6c13.1,3.9,27.1,4.7,40.6,2.4h.1c0,.5,0,1-.1,1.6,0,1-.2,2.1-.3,3.1-6.5,2.5-16,2.7-22.9,1.7-6.9-1-11.5-1.3-18.1-3.4.2-1.9.4-3.7.5-5.4h0Z"/><path class="cls-2" d="M89.7,100.2c.8.2,1.3,1.4.9,2.8-.3,1.4-1.3,2.3-2.1,2.2-.8-.2-1.3-1.4-.9-2.8.3-1.4,1.3-2.3,2.1-2.2Z"/><path class="cls-10" d="M72.8,123.7c3.9,4.1,11.9,8.3,15.6,4.7h0c.3,0,.5.1.8.2v.3c-.7,3,.7,4.8-.8,6.4-1.5,1.6-4.1,2-6.2,1.4-.6-.2-11.3-3.8-11-8.7.4-1.6,1-3,1.5-4.4h.1Z"/><path class="cls-10" d="M89,130c.2,2.6,2.7,4.7,3.4,6.6,1.5,3.8,3.4,15.3,1.1,15.3-6.3,0-8.7.9-13.3.7-1.4,0-2.8-.1-3.9-.9-1.1-.8-1.6-2.1-1.9-3.4-.2-1.3-.1-2.6-.2-4-.2-3.3-1.9-12.4-7.1-15.3,1.5-.4,2.9-.7,4.1-1-.3,4.9,10.3,8.5,11,8.7,2.2.6,4.7.2,6.2-1.4,1.5-1.6.1-3.4.7-6.4,0,.4,0,.8,0,1.1Z"/><path class="cls-5" d="M88.3,128.3h0c-3.7,3.7-11.6-.5-15.6-4.6h-.1c.4-1.1.6-2.1.6-3l.6-.9c3.6,3.2,9.9,6.6,14.4,8.5Z"/><path class="cls-7" d="M89.1,67.2c9.3,4.4,13,8.6,13.3,16.2-2.1-3.4-9.8-3.5-13.7-2.4-8.1,2.3-10,9.3-15,18.4-.2-1-1.2-1.6-2.3-1.6-1,0-2,.6-2.6,1.3-.6.8-.9,1.8-1,2.7-.2,1.7.2,3.5,1.3,4.8.3.3.6.6,1,.8,0,3.9.7,5.5,1.4,9.4,0,.5-.3.5-1,.4-1.7-.4-5-2-7.7-2-3.8-5.3-8.7-19.1.7-36.1,3.4-6.2,15.3-15.9,25.6-12Z"/><path class="cls-3" d="M69.6,253c-1.2,6.2-3.2,7.1-7.6,15.4-4.6,8.7-12.7,17.4-18.7,25.3,0,0,0,0,0,0-.4.4-.8.8-1.2,1.3-.8.9-7.1,0-8.7-1.6h0c1.9-9.4,7.5-22.3,12.6-30.4,1.7-2.8,4-7.5,5.2-10.5,7.1,1,13.2,1.1,18.4.6Z"/><path class="cls-7" d="M67,129.1c-3.1.7-6.4,1.6-8.7,2.6-.3,0-1.5.3-3,1.1,1.6-4.2,4.3-10.6,7.2-14l.2-.3c1.1.8,6.6,2,7.4,1.8.9-.3,1.1-2.3.3-2.6v-.4c.8.2,1.1,0,1.1-.4.5.9,1.3,1.9,2.4,2.9l-.6.9c0,1-.3,2-.6,3-.5,1.4-1.1,2.8-1.5,4.4-1.2.3-2.6.6-4.1,1Z"/><path class="cls-9" d="M62.8,115.4c2.7,0,6.1,1.6,7.7,2v.4c.7.4.5,2.4-.4,2.6-.8.2-6.2-.9-7.4-1.8,0,0-.1,0-.2-.1-.6-.8-.7-2.5.1-3.1Z"/><path class="cls-4" d="M62.7,150.5c-.5,1.8-1.2,3.4-2.1,4.4-.3-.3-.9-.7-1.7-1.1-2.2-1.1-5.5-2.5-6.4-2.9-1.2-.5-4.7-2.6-6.2-3.6-.4-.3-.7-.5-.7-.6-.3-.9,0-1.9.3-2.8.2-.4.3-.7.5-1h0c5,3.5,10.5,6.1,16.4,7.7Z"/><path class="cls-8" d="M59.3,187.8c0,0,0,0,.1,0,1.7-1.6,9.8.5,10.7,2.6.9,2.3-2.7,10.6-4.3,11.4-1.9,1-7.3-4.2-8.3-6.1-.5-.4-1-.9-1.5-1.3-.3-2.6,1-5.2,3.2-6.6Z"/><path class="cls-9" d="M60.6,154.9c.9-1,1.6-2.6,2.1-4.4-5.8-1.6-11.4-4.2-16.4-7.6h0c2.7-5.5,6.5-8.6,9.1-10,1.5-.8,2.7-1.2,3-1.1,2.2-1.1,5.6-1.9,8.7-2.6,5.2,2.9,6.9,12,7.1,15.3,0,1.3,0,2.7.2,4,.2,1.3.8,2.6,1.9,3.4,1.1.8,2.6.9,3.9.9,4.6.1,7-.7,13.3-.7,2.3,0,.3-11.5-1.1-15.3-.7-1.9-3.2-4-3.4-6.6,1.9,1.1,3.7.5,5.3,2.1v-.2c5.4,4.3,7.5,11.9,10.3,18.5h0c-2,.7-3.8,2.2-4.7,4.1,0,1.8,0,3.5,0,5.2,0,2.5-.2,4.9-.3,7.3h-.1c-13.5,2.3-27.5,1.5-40.6-2.4h0c.3-4.2.4-8,0-10.7h0c.8.3,1.4.7,1.7,1Z"/><path class="cls-10" d="M59.3,187.8c-2.2,1.3-3.5,4-3.2,6.6-.2-.2-.5-.4-.7-.6-7.3-6.5-11.5-10.8-16.2-20.3-2.3-4.7,2.7-19.4,7-25.9v-.3c1.6,1.1,5.1,3.1,6.2,3.6.9.4,4.3,1.7,6.4,2.9h0c-4.2,5.3-6.9,10.2-10.2,15.9,3.6,5.6,5.4,9.6,7.8,13.7.8,1.5,1.8,2.9,2.9,4.5Z"/><path class="cls-9" d="M55.4,193.8c.2.2.5.4.7.6.5.4,1,.8,1.5,1.3,1,1.9,6.3,7.1,8.3,6.1,1.6-.8,5.2-9.1,4.3-11.4-.9-2.1-9-4.2-10.7-2.6,0,0,0,0-.1,0-1.1-1.6-2-3-2.9-4.5h.4c.4-4.3,1-8.9,1.5-13.3,6.5,2.1,11.2,2.4,18.1,3.4,6.9,1,16.4.8,22.9-1.7-.8,8.6-1.9,17.4-2.3,27.9,5.8,13.2,12.3,27.4,16.8,38.2,0,2,0,3.9,0,5.8h-.1c-7-2.6-12.7-.2-19.9,2.8-6.2,2.6-13.6,5.7-24,6.7-5.3.5-11.3.4-18.4-.6-1.4-.2-2.9-.4-4.4-.7,1-15.9-.2-30.8,6-49,1.6-4.9,1.7-3.9,2.5-8.9h0Z"/><path class="cls-6" d="M27,301.1c1.3-3,4.1-5.8,6-8.4,0,.3.2.5.4.7h0c1.7,1.7,8,2.5,8.7,1.6.4-.4.8-.9,1.2-1.3,0,0,0,0,0,0,.5-.5,1.1-1,1.8-1.3,1.2-.5,1.8-.5,2.4.6,5.3,10.6,5.2,11.7,13.4,16.4,1.1.7,2.6,1.1,2.9,2.4,1.5,6.6-3.8,8.4-9.2,7.2-8.6-1.9-13.1-4.7-26-13.6-.9-.6-1.9-1.2-2.1-2.2-.2-.7.1-1.5.4-2.2Z"/><path class="cls-1" d="M66.5,128.8c.2,0,.4.2.5.3,5.2,2.9,6.9,12,7.1,15.3,0,1.3,0,2.7.2,4,.2,1.3.8,2.6,1.9,3.4,1.1.8,2.6.9,3.9.9,4.6.1,7-.7,13.3-.7,2.3,0,.3-11.5-1.1-15.3-.7-1.9-3.2-4-3.4-6.6,0-.4,0-.7,0-1.1"/><path class="cls-1" d="M63.5,138.6c.5,3.5.2,8.3-.8,12-.5,1.8-1.2,3.4-2.1,4.4-.3-.3-.9-.7-1.7-1.1-2.2-1.1-5.5-2.5-6.4-2.9-1.2-.5-4.7-2.6-6.2-3.6-.4-.3-.7-.5-.7-.6-.3-.9,0-1.9.3-2.8.2-.4.3-.7.5-1,2.7-5.5,6.5-8.6,9.1-10,1.5-.8,2.7-1.2,3-1.1"/><path class="cls-1" d="M95,133c-.2-.3-.5-.6-.7-.8-1.6-1.6-3.4-1-5.3-2.1"/><path class="cls-1" d="M96.9,199.6c.4-10.5,1.6-19.2,2.3-27.9,0-1,.2-2.1.3-3.1,0-.5,0-1,.1-1.6.2-2.4.3-4.8.3-7.3,0-1.7,0-3.4,0-5.2-.1-4-.5-8.2-1.2-12.8"/><path class="cls-1" d="M55.3,193.8c-.8,5.1-.9,4-2.5,8.9"/><path class="cls-1" d="M58.8,153.9c.4,2.7.3,6.4,0,10.7-.1,1.7-.3,3.6-.5,5.4-.5,4.4-1,9-1.5,13.2"/><path class="cls-1" d="M46.2,147.6c-4.2,6.5-9.3,21.2-7,25.9,4.7,9.5,8.8,13.8,16.2,20.3.2.2.5.4.7.6.5.4,1,.8,1.5,1.3"/><path class="cls-1" d="M58.8,153.9c-4.2,5.2-6.9,10.1-10.2,15.7,3.6,5.6,5.4,9.6,7.8,13.7.8,1.5,1.8,2.9,2.9,4.5.1.2.2.3.3.5"/><path class="cls-1" d="M94.4,132s0,0,0,0c5.3,4.3,7.3,11.9,10.2,18.5.5,1.1,1,2.2,1.5,3.2-.9.6-1.6,1.1-2.1,1.4-1.8,1.3-1.7,1.6-4.1,4.7,0,0,0,0,0,0"/><path class="cls-1" d="M59.4,187.8s0,0,0,0c1.7-1.6,9.8.5,10.7,2.6.9,2.3-2.7,10.6-4.3,11.4-1.9,1-7.3-4.2-8.3-6.1"/><path class="cls-1" d="M99.5,168.3c0,0,0,.2,0,.3.4,5.1,15.3,14.3,17.8,20.9"/><path class="cls-1" d="M104,155.1c1.6,6.8,13.4,22.3,19.2,26.3"/><path class="cls-1" d="M123.1,181.4c-2.6.6-.5-.1-2.7,1.4-2.1,1.5-3.6,4.1-3.1,6.6,0,0,0,.2,0,.3.4,1.4,1.3,2.6,2.6,3.4,2.5,1.7,4,1,6.4-.8s5.5-4.7,4.3-7.4c-1.2-2.8-4.6-4.4-7.5-3.5"/><path class="cls-1" d="M52.8,202.8c-6.1,18.2-5,33-6,49,1.5.3,2.9.5,4.4.7,7.1,1,13.2,1.1,18.4.6,10.4-.9,17.8-4,24-6.7,7.3-3.1,12.9-5.4,19.9-2.8"/><path class="cls-1" d="M69.6,253h0c-1.2,6.2-3.2,7.1-7.6,15.4-4.6,8.7-12.7,17.4-18.7,25.3"/><path class="cls-1" d="M51.2,252.4h0c-1.2,3-3.5,7.7-5.2,10.5-5.1,8.2-10.7,21-12.6,30.4"/><path class="cls-1" d="M113.7,237.7c-4.6-10.8-11.1-25-16.8-38.2"/><path class="cls-1" d="M97.4,296.2h0"/><path class="cls-1" d="M93.6,246.3s0,0,0,.1c1.8,4.4.9,1.5,2.8,6-.5,3.1-1.5,13.3-.7,16.4,2.9,11,1.8,26.7,1.7,27.4"/><path class="cls-1" d="M113.7,237.7c0,2,0,3.9,0,5.8-.4,16.9-3.4,29.9-5.8,47.6"/><path class="cls-1" d="M43.3,293.7c.5-.5,1.1-1,1.8-1.3,1.2-.5,1.8-.5,2.4.6"/><path class="cls-1" d="M43.3,293.7s0,0,0,0"/><path class="cls-1" d="M33.4,293.4c1.7,1.7,8,2.5,8.7,1.6.4-.4.8-.9,1.2-1.3"/><line class="cls-1" x1="33.4" y1="293.4" x2="33.4" y2="293.4"/><path class="cls-1" d="M33.1,292.6c0,.3.2.5.4.7"/><path class="cls-1" d="M33.1,292.6c-2,2.6-4.7,5.4-6,8.4-.3.7-.6,1.5-.4,2.2.2,1,1.2,1.6,2.1,2.2,12.9,8.9,17.4,11.7,26,13.6,5.4,1.2,10.6-.5,9.2-7.2-.3-1.3-1.8-1.7-2.9-2.4-8.2-4.8-8.1-5.9-13.4-16.4"/><line class="cls-1" x1="110.7" y1="290.8" x2="110.8" y2="290.8"/><path class="cls-1" d="M97.4,296.2c1.1,1.9,5.2,3,7,1.7,1-.8,1.5-2,1.9-3.2.4-1.2.7-2.5,1.6-3.4.9-.9,1.3-.8,2.8-.4"/><path class="cls-1" d="M97.4,296.2c-.8,3.3-1.2,6.6-1.1,9.9,0,.8,0,1.6.5,2.2.6.8,1.8,1,2.9,1.2,8.9,1.1,18.6,4.8,27.6,4.4,2.9-.1,6.1-.5,8.4-2.2,2.3-1.7,3.5-5.3,1.6-7.5-.9-1-2.2-1.6-3.5-2.1-7.4-2.9-15.5-8.4-22.9-11.2h0"/><path class="cls-1" d="M73.3,120.7c0,1-.3,2-.6,3-.5,1.4-1.1,2.8-1.5,4.4-1.2.3-2.6.6-4.1,1-3.1.7-6.4,1.6-8.7,2.6"/><path class="cls-1" d="M46.3,142.9c5,3.5,10.5,6.1,16.4,7.6,0,0,0,0,0,0"/><path class="cls-1" d="M104.6,150.5c-2,.7-3.8,2.2-4.7,4.1,0,0,0,.1-.1.2"/><path class="cls-1" d="M58.8,164.6c13.1,3.9,27.1,4.7,40.6,2.4"/><path class="cls-1" d="M57.9,169.9c.1,0,.3,0,.4.1,6.5,2.1,11.2,2.4,18.1,3.4,6.9,1,16.4.8,22.9-1.7,0,0,.2,0,.3,0"/><path class="cls-1" d="M59.6,187.6c0,0-.2,0-.2.1,0,0,0,0-.1,0-2.2,1.3-3.5,4-3.2,6.6,0,0,0,0,0,.1"/><path class="cls-1" d="M89.1,67.2c21.6-.9,33.9,24.4,19.8,44.8,0,0-.1.2-.2.3"/><path class="cls-1" d="M112,97.2c.8-2.7.9-5.5-.4-8.8-1.4-3.5-6.1-7.2-9.1-4.9-2.1-3.4-9.8-3.5-13.7-2.4-8.1,2.3-10,9.3-15,18.4"/><path class="cls-1" d="M89.1,67.2c-10.3-3.9-22.2,5.8-25.6,12-9.5,17-4.6,30.8-.7,36.1,2.7,0,6.1,1.6,7.7,2,.7.2,1.1,0,1-.4-.7-3.9-1.4-5.4-1.4-9.4h0"/><path class="cls-1" d="M112,97.2c-1.9,4.1-1.4,3.7-2.1,6-.3,1-.2,4.6-.9,8.8-.7,4.2-2.3,8.9-6.2,12,0,0-5.6,5.2-9.4,5.8-.6,0-2.2-.4-4.2-1.2-.3-.1-.5-.2-.8-.3-4.5-1.9-10.8-5.3-14.4-8.5-1.1-1-2-2-2.4-2.9"/><path class="cls-1" d="M107.2,100.2c-.1-2.3-2.4-2.3-3.4-1.1"/><path class="cls-1" d="M91.7,95.2c-1.2-1.8-3.5-2.3-6-.3"/><path class="cls-1" d="M101.2,111.1c.3,2.2-2.5,2.8-4.7,3.4"/><path class="cls-1" d="M103.3,106c-.3,1.4,0,2.7.9,2.9s1.7-.9,2.1-2.3c.3-1.4,0-2.7-.9-2.9s-1.7.9-2.1,2.3Z"/><path class="cls-1" d="M87.6,102.4c-.3,1.4.1,2.6.9,2.8.8.2,1.8-.8,2.1-2.2.3-1.4-.1-2.6-.9-2.8-.8-.2-1.8.8-2.1,2.2Z"/><path class="cls-1" d="M99.8,119c-4.3-.5-7.2-2.2-11-4.7-.3-.2-.6-.4-.9-.6"/><path class="cls-1" d="M99.8,119c-2.6,7.6-11.3,7.2-11.2-4.5"/><path class="cls-1" d="M71.1,128.1c-.3,4.9,10.3,8.5,11,8.7,2.2.6,4.7.2,6.2-1.4,1.5-1.6.1-3.4.7-6.4"/><path class="cls-1" d="M62.8,115.4c-.9.6-.8,2.2-.1,3.1,0,0,0,0,.2.1,1.1.8,6.6,2,7.4,1.8.9-.3,1.1-2.3.3-2.6"/><path class="cls-1" d="M73.7,99.5c-.2-1-1.2-1.6-2.3-1.6-1,0-2,.6-2.6,1.3-.6.8-.9,1.8-1,2.7-.2,1.7.2,3.5,1.3,4.8.3.3.6.6,1,.8,1.2.7,2.7.9,3.9.3,0-.2,0-.3,0-.5"/><path class="cls-1" d="M89.1,67.2c9.3,4.4,13,8.6,13.3,16.2"/><path class="cls-1" d="M72.8,123.7c3.9,4.1,11.9,8.3,15.6,4.7"/><path class="cls-1" d="M62.6,118.9c-2.9,3.4-5.6,9.8-7.2,14v.2"/></svg>