<?xml version="1.0" encoding="UTF-8"?><svg id="africa" xmlns="http://www.w3.org/2000/svg" width="235" height="321.9" viewBox="0 0 235 321.9"><defs><style>.cls-1{stroke-linecap:round;stroke-linejoin:round;}.cls-1,.cls-2,.cls-3{fill:none;}.cls-1,.cls-3{stroke:#000;}.cls-2{stroke:#231f20;}.cls-2,.cls-3{stroke-miterlimit:10;}.cls-4,.cls-5,.cls-6,.cls-7,.cls-8,.cls-9,.cls-10{stroke-width:0px;}.cls-5{fill:#d5723a;}.cls-6{fill:#bc4343;}.cls-7{fill:#946a38;}.cls-8{fill:#fff;}.cls-9{fill:#efeeee;}.cls-10{fill:#efefee;}</style></defs><path class="cls-8" d="M34.6,303.2c-.2,1.2.1,5.5,1.1,6.3,1.1.9,2.8.9,4.4.8,4.9-.3,9.8-.7,14.7-1.1,1.8-.2,3.8-.4,4.9-1.6,1.4-1.4,1.4-8.4.2-9.9-.2-.2-.4-.5-.6-.7-1.6-1.6-3-1.8-5.8-2.2-3.1-.4-7.6-.7-11.7,1.8,0,0,0,0,0,0-2.4,1.3-6.6,4.1-7.1,6.4Z"/><path class="cls-6" d="M89.8,46.6c-.2,1.8-.5,3.5-.8,5.1,1.8,1,2.9,1.8,2.7,3.8-.2,2-1.7,7.4-3.7,8.1h0c-.6,1.9-1.4,4-2.6,6-3.8,6.3-7.3,12.1-11.8,13.9h0c-.2.7-.3,1.4-.3,2.3,4.3.4,7.7-.5,10.5-2.2,13.1-8.2,11.7-35.8,11.2-41.4-1.4-15.8-15.3-23.5-22.9-23.5-27.2,0-34.5,26.7-35.5,34.3-1.1,7.5-.6,29.6,19.5,32.5.8-3.8.8-8.9.6-11.9h0c-.9-1.2-1.8-2.5-2.8-3.9-.9-1.6-2-4.3-2.8-7.6-3.4,2.4-7.7-5.2-6.6-8.5.7-2.1,3.8-2.9,5-1.1h.2c0-1.6,0-3.3.1-4.9.7-7.7,3.8-15.4,12-19.5,10.7-5.4,25.6-2,28.5,11.9,0,1.8,0,4.3-.3,6.8Z"/><path class="cls-6" d="M44.8,278.5c1.1,3.2,2.2,6.3,3.5,9.8,4.6-1.6,7.8-.9,9.6,1.3v-18.5c-5.6,0-11,0-15.6-.3v.4c.9,2.6,1.8,5,2.6,7.4Z"/><path class="cls-7" d="M44.3,53.5c-1.1,3.4,3.3,11,6.6,8.5-.7-2.9-1.3-6.2-1.4-9.7h-.2c-1.3-1.8-4.4-.9-5,1.1Z"/><path class="cls-5" d="M45.8,113.1c1.5,12.4,3.3,10.9,3.2,15.7,10.7,4.6,22.3,5.2,33.4,1.7-.3-9.8,1.2-27.5-7.7-39.3-4.1,5.6-14.7,2.1-19.8-2.8-2.5-.2-2.2-.5-5.7-.3-2.5.3-7.3,3.4-8.4,4.4-11.2,10.6-15.6,38.9-16,43.4-.4,3.4,7,10.1,15,16.3,7.4,5.7,15.4,11,18.3,12.9.7-1.2,1.3-2.4,1.8-3.5,1.9-4.8,1.6-9.2.1-13.2-2-5.1-6-9.5-10.2-13-.5-.4-1-.8-1.5-1.2-.6-.5-1.3-1-1.9-1.4-2.3-5.8-1.8-14.1-.9-19.6h.1Z"/><path class="cls-8" d="M57.8,289.5c-1.8-2.2-5-2.9-9.6-1.3-1,.3-2.1.8-3.2,1.4-6,3.1-2.1,6.2-3.3,7.1,4.1-2.5,8.5-2.2,11.7-1.8,2.8.4,4.2.5,5.8,2.2.4-3.2,0-5.8-1.4-7.5Z"/><path class="cls-10" d="M49,128.8c0,1.3-.2,2.9-.5,5.4.5.4,1,.8,1.5,1.2,10.9,4.3,18.7,5.3,30,2.1.9-1.2,1.8-2.3,2.8-3.2-.2-1.1-.3-2.4-.3-3.8-11.1,3.5-22.7,3-33.4-1.7Z"/><path class="cls-7" d="M50.9,62c.8,3.3,1.9,6,2.8,7.6,1,1.4,1.9,2.7,2.8,3.9,7.3,9.7,12.6,11.9,17,10,4.4-1.8,8-7.6,11.8-13.9,1.2-2,2.1-4.1,2.6-6,1.7-5.8,1.1-10.7.9-10.8,0-.3.2-.7.2-1,.3-1.6.6-3.3.8-5.1-3.5-16.5-28-15.3-40.2.8h0c-.1,1.6-.2,3.3-.1,4.9.1,3.5.7,6.8,1.4,9.7ZM57.3,47.4c-.2-.2,3.7-2.5,5.2-2.9,1.1-.3,3.4-.6,4.7,0,1.8,1,2.3,2.2,1.1,2.1-1.1,0-2.7-1.6-6.1-1-1.9.3-4.8,1.8-4.9,1.7ZM61.7,54.3c0-1.7.7-3,1.6-3s1.6,1.3,1.6,3-.7,3-1.6,3-1.6-1.3-1.6-3ZM65.8,72.3c-1.3-1.4-1.4-.7-2.6-4,.7,1.2,8.9,5.1,13.7,3.8-1.6,2-3,3-5.6,2.9-1.6,0-4.1-1.3-5.4-2.7ZM78.4,46.7c-1,0-.4-1.1,1.2-2,1.2-.6,2.8-.3,3.6,0,1.1.4,3.7,2.8,3.5,2.9-.1,0-2-1.4-3.5-1.8-2.6-.6-4,.8-4.9.8ZM80.7,54.3c0-1.4.6-2.6,1.3-2.6s1.3,1.2,1.3,2.6-.6,2.6-1.3,2.6-1.3-1.2-1.3-2.6Z"/><path class="cls-10" d="M49.6,47.4h0c12.2-16.2,36.7-17.4,40.2-.8.3-2.5.4-4.9.3-6.8-2.9-13.9-17.8-17.3-28.5-11.9-8.2,4.1-11.4,11.8-12,19.5Z"/><path class="cls-7" d="M55.9,85.4c-.2,1.1-.5,2.1-.9,2.9,5.1,5,15.7,8.5,19.8,2.8-1.2-1.8-1.6-3.7-1.6-5.4,0-.9.1-1.7.3-2.3h0c-4.4,1.8-9.7-.3-17-10h0c.2,3,.1,8.1-.6,11.9Z"/><path class="cls-5" d="M74.7,148.3c0,0,.1,0,.2,0,.8-3.3,2.7-7.5,5.1-10.8-11.3,3.2-19,2.2-30-2.1,4.2,3.5,8.2,7.9,10.2,13h0c2.2.2,4.3.5,6.5.9,2.7-.2,5.4-.5,8-1Z"/><path class="cls-7" d="M60.2,148.3h0c1.5,4,1.8,8.4-.1,13.2.9,4.4,14.6,4.9,19.5.9-2.6-4.8-4.1-8.4-4.6-11.2h0c-2.7-.8-5.4-1.4-8.1-2-2.1-.4-4.3-.7-6.5-.9Z"/><path class="cls-4" d="M63.3,51.3c-.9,0-1.6,1.3-1.6,3s.7,3,1.6,3,1.6-1.3,1.6-3-.7-3-1.6-3Z"/><path class="cls-4" d="M62.2,45.7c3.5-.6,5,.9,6.1,1,1.2,0,.8-1.2-1.1-2.1-1.3-.7-3.6-.4-4.7,0-1.6.4-5.4,2.8-5.2,2.9.1,0,2.9-1.4,4.9-1.7Z"/><path class="cls-9" d="M63.2,68.2c1.3,3.3,1.3,2.7,2.6,4,1.3,1.4,3.8,2.6,5.4,2.7,2.7.1,4.1-.9,5.6-2.9-4.8,1.2-13-2.7-13.7-3.8Z"/><path class="cls-7" d="M66.7,149.3c2.7.5,5.5,1.2,8.1,2h0c-.2-1.1-.3-2.1-.2-2.9-2.7.4-5.3.8-8,1Z"/><path class="cls-8" d="M94,301c-1.5-2.4-2.2-3.3-5.8-4.4,0,0-5.3-.9-6-.9-2.3-.2-6.6-.5-8.8-.2-1.4.2-2.3.7-3,1.4-.4.4-.8,1-1.2,1.6-1.1,1.6-1.7,9.2.1,10.4,1.3.8,16.2,1.3,20.9,1.4.4,0,3.2-.3,3.6-.5,1.4-.5,1-7.7.3-8.8Z"/><path class="cls-8" d="M70.2,290.2c-1.6,2.1-.5,5.3-.3,6.6h.4c.7-.7,1.6-1.1,3-1.4,2.3-.3,6.5,0,8.8.2.7,0,6,.9,6,.9.2-.3-.8-7.3-7.6-8.1-6.2-.9-9,0-10.3,1.7Z"/><path class="cls-6" d="M70.2,270.8h0v19.4c1.2-1.6,4.1-2.6,10.3-1.7,2.2-6.2,3.2-11.3,5.4-17.5v-.8c-4.7.2-10.1.4-15.7.5Z"/><path class="cls-6" d="M88,132c3.1-14.6,3.9-25.4,1-35.9-1.1-4.1-2.9-8.2-5.2-12.5-2.8,1.8-6.2,2.6-10.5,2.2,0,1.6.4,3.5,1.6,5.4,8.9,11.8,7.3,29.4,7.7,39.3,0,1.5.1,2.8.3,3.8,1.7-1.6,3.5-2.5,5.2-2.3Z"/><path class="cls-5" d="M88,132c-1.7-.3-3.5.6-5.2,2.3-1,.9-1.9,2-2.8,3.2-2.4,3.3-4.4,7.5-5.1,10.8,0,0-.1,0-.2,0,0,.9,0,1.9.2,2.9.5,2.9,2.1,6.4,4.6,11.2.2.4.5.9.7,1.4,1.9-.6,3.9-2.1,6.1-4.4.7-.8,1.5-1.7,2.3-2.7,2.3-3,4.9-6.9,7.7-11.8h0c1-2,1.3-4.2.7-7-.7-3.1-4.3-38.1-8.1-41.8,2.9,10.6,2.1,21.3-1,35.9Z"/><ellipse class="cls-4" cx="82" cy="54.3" rx="1.3" ry="2.6"/><path class="cls-4" d="M78.4,46.7c.9,0,2.3-1.5,4.9-.8,1.4.4,3.3,1.9,3.5,1.8.2-.2-2.4-2.5-3.5-2.9-.8-.3-2.5-.7-3.6,0-1.6.9-2.1,2.1-1.2,2Z"/><path class="cls-5" d="M86.3,159.4c-2.2,2.4-4.2,3.8-6.1,4.4-.3-.5-.5-.9-.7-1.4-4.8,3.9-18.6,3.5-19.5-.9-.5,1.2-1,2.3-1.8,3.5-2.9-1.9-10.9-7.2-18.3-12.9-5.8,17-14.5,111.7-13,115.2.8,1.9,6.9,2.9,15.1,3.4,4.7.3,10.1.3,15.6.3,4.1,0,8.3,0,12.4-.2,5.6-.1,11-.3,15.6-.5,7.2-.3,12.6-.5,14.3-.5,5-13.2-2.4-75.3-11.5-113.1h0c-.8,1-1.5,1.9-2.3,2.7Z"/><path class="cls-7" d="M88,63.6h0c2-.6,3.5-6,3.7-8,.2-2-.9-2.8-2.7-3.8,0,.4-.1.7-.2,1,.2,0,.9,5-.9,10.8Z"/><path class="cls-3" d="M90.1,39.9c0,1.8,0,4.3-.3,6.8-.2,1.8-.5,3.5-.8,5.1,0,.4-.1.7-.2,1,.2,0,.9,5-.9,10.8-.6,1.9-1.4,4-2.6,6-3.8,6.3-7.3,12.1-11.8,13.9-4.4,1.8-9.7-.3-17-10-.9-1.2-1.8-2.5-2.8-3.9"/><ellipse class="cls-3" cx="82" cy="54.3" rx="1.3" ry="2.6"/><path class="cls-3" d="M61.7,54.3c0,1.7.7,3,1.6,3s1.6-1.3,1.6-3-.7-3-1.6-3-1.6,1.3-1.6,3Z"/><path class="cls-3" d="M77.8,62.3c.7,2.6-.8,3.3-1.1,3.4-2.7.7-5.6,0-7-.9"/><path class="cls-3" d="M76.9,72.1c-4.8,1.2-13-2.7-13.7-3.8,1.3,3.3,1.3,2.7,2.6,4,1.3,1.4,3.8,2.6,5.4,2.7,2.7.1,4.1-.9,5.6-2.9Z"/><line class="cls-3" x1="38.1" y1="148.4" x2="38" y2="148.5"/><path class="cls-3" d="M45.8,113.1c1.5,12.4,3.3,10.9,3.2,15.7,0,1.3-.2,2.9-.5,5.4"/><path class="cls-3" d="M89,96.1c3.7,3.8,7.4,38.8,8.1,41.8.6,2.8.3,5.1-.7,7"/><path class="cls-3" d="M88.6,132.2c-.2,0-.4-.1-.6-.2-1.7-.3-3.5.6-5.2,2.3-1,.9-1.9,2-2.8,3.2-2.4,3.3-4.4,7.5-5.1,10.8,0,0,0,.2,0,.3"/><path class="cls-3" d="M47.1,107.6c-.4.7-.9,2.7-1.4,5.5-.9,5.5-1.4,13.9.9,19.6"/><path class="cls-3" d="M49.3,88.1c-2.5.3-7.3,3.4-8.4,4.4-11.2,10.6-15.6,38.9-16,43.4"/><path class="cls-3" d="M79.5,162.4c-4.8,3.9-18.6,3.5-19.5-.9"/><path class="cls-3" d="M90.1,39.9c-2.9-13.9-17.8-17.3-28.5-11.9-8.2,4.1-11.4,11.8-12,19.5-.1,1.6-.2,3.3-.1,4.9.1,3.5.7,6.8,1.4,9.7.8,3.3,1.9,6,2.8,7.6"/><path class="cls-3" d="M88.6,156.7c9.1,37.8,16.5,99.8,11.5,113.1-1.7,0-7.1.2-14.3.5-4.7.2-10,.4-15.6.5-4.1.1-8.3.2-12.4.2-5.6,0-11,0-15.6-.3-8.3-.5-14.3-1.5-15.1-3.4-1.5-3.4,7.1-98.2,13-115.2"/><path class="cls-3" d="M40.3,128.5c1.8,1.1,4,2.5,6.4,4.2.6.5,1.3.9,1.9,1.4.5.4,1,.8,1.5,1.2,4.2,3.5,8.2,7.9,10.2,13,1.5,4,1.8,8.4-.1,13.2-.5,1.2-1,2.3-1.8,3.5-2.9-1.9-10.9-7.2-18.3-12.9-8-6.2-15.4-12.9-15-16.3"/><path class="cls-3" d="M96.8,144.1c-.2.3-.3.5-.5.8-2.9,4.8-5.4,8.8-7.7,11.8-.8,1-1.5,1.9-2.3,2.7-2.2,2.4-4.2,3.8-6.1,4.4-.3-.5-.5-.9-.7-1.4-2.6-4.8-4.1-8.4-4.6-11.2-.2-1.1-.3-2-.2-2.9,0-.3,0-.5,0-.8"/><path class="cls-2" d="M89.9,46.9c0-.1,0-.2,0-.3-3.5-16.5-28-15.3-40.2.8"/><path class="cls-3" d="M72.9,85.8c0,0,.2,0,.3,0,4.3.4,7.7-.5,10.5-2.2,13.1-8.2,11.7-35.8,11.2-41.4-1.4-15.8-15.3-23.5-22.9-23.5-27.2,0-34.5,26.7-35.5,34.3-1.1,7.5-.6,29.6,19.5,32.5,0,0,.2,0,.3,0"/><path class="cls-3" d="M56.5,73.5c.2,3,.1,8.1-.6,11.9-.2,1.1-.5,2.1-.9,2.9"/><path class="cls-3" d="M73.5,83.5c-.2.7-.3,1.4-.3,2.3,0,1.6.4,3.5,1.6,5.4"/><path class="cls-3" d="M55,88.3c5.1,5,15.7,8.5,19.8,2.8"/><path class="cls-3" d="M49.3,52.3c-1.3-1.8-4.4-.9-5,1.1-1.1,3.4,3.3,11,6.6,8.5,0,0,.1,0,.2-.2"/><path class="cls-3" d="M89.1,51.7c1.8,1,2.9,1.8,2.7,3.8-.2,2-1.7,7.4-3.7,8.1"/><path class="cls-3" d="M82.9,135c0-.2-.1-.5-.1-.8-.2-1.1-.3-2.4-.3-3.8-.3-9.8,1.2-27.5-7.7-39.3"/><path class="cls-3" d="M83.7,83.6c2.4,4.3,4.1,8.4,5.2,12.5,2.9,10.6,2.1,21.3-1,35.9,0,0,0,.1,0,.2"/><path class="cls-3" d="M82.6,130.4s0,0-.1,0c-11.1,3.5-22.7,3-33.4-1.7h-.1"/><path class="cls-3" d="M80,137.5c-11.3,3.2-19,2.2-30-2.1"/><path class="cls-3" d="M83.2,44.7c1.1.4,3.7,2.8,3.5,2.9-.1,0-2-1.4-3.5-1.8-2.6-.6-4,.8-4.9.8-1,0-.4-1.1,1.2-2,1.2-.6,2.8-.3,3.6,0Z"/><path class="cls-3" d="M62.6,44.5c-1.6.4-5.4,2.8-5.2,2.9.1,0,2.9-1.4,4.9-1.7,3.5-.6,5,.9,6.1,1,1.2,0,.8-1.2-1.1-2.1-1.3-.7-3.6-.4-4.7,0Z"/><path class="cls-3" d="M55,88.3c-2.5-.2-2.2-.5-5.7-.3"/><path class="cls-3" d="M85.9,271c-2.2,6.2-3.2,11.3-5.4,17.5"/><path class="cls-3" d="M70.2,270.9v19.3h0"/><path class="cls-3" d="M42.2,271c.9,2.6,1.8,5,2.6,7.4,1.1,3.2,2.2,6.3,3.5,9.8,0,.1,0,.2.1.4"/><path class="cls-3" d="M57.8,270.9h0v18.6h0"/><path class="cls-1" d="M45.1,289.6c-6,3.1-2.1,6.2-3.3,7.1,0,0,0,0,0,0-2.4,1.3-6.6,4.1-7.1,6.4-.2,1.2.1,5.5,1.1,6.3,1.1.9,2.8.9,4.4.8,4.9-.3,9.8-.7,14.7-1.1,1.8-.2,3.8-.4,4.9-1.6,1.4-1.4,1.4-8.4.2-9.9-.2-.2-.4-.5-.6-.7-1.6-1.6-3-1.8-5.8-2.2-3.1-.4-7.6-.7-11.7,1.8"/><path class="cls-1" d="M59.2,297c.4-3.2,0-5.8-1.4-7.5-1.8-2.2-5-2.9-9.6-1.3-1,.3-2.1.8-3.2,1.4"/><path class="cls-1" d="M80.5,288.5c6.8.8,7.8,7.8,7.6,8.1,0,0-5.3-.9-6-.9-2.3-.2-6.6-.5-8.8-.2-1.4.2-2.3.7-3,1.4-.4.4-.8,1-1.2,1.6-1.1,1.6-1.7,9.2.1,10.4,1.3.8,16.2,1.3,20.9,1.4.4,0,3.2-.3,3.6-.5,1.4-.5,1-7.7.3-8.8-1.5-2.4-2.2-3.3-5.8-4.4"/><path class="cls-1" d="M69.9,296.9c-.2-1.3-1.3-4.5.3-6.6,1.2-1.6,4.1-2.6,10.3-1.7"/><path class="cls-3" d="M60.2,148.3c2.2.2,4.3.5,6.5.9,2.7.5,5.5,1.2,8.1,2"/><path class="cls-3" d="M66.7,149.3c2.7-.2,5.4-.5,8-1,0,0,.1,0,.2,0,0,0,.2,0,.2,0"/></svg>