<?xml version="1.0" encoding="UTF-8"?><svg id="africa" xmlns="http://www.w3.org/2000/svg" width="235" height="321.9" viewBox="0 0 235 321.9"><defs><style>.cls-1{stroke-linecap:round;stroke-linejoin:round;}.cls-1,.cls-2{fill:none;stroke:#000;}.cls-2{stroke-miterlimit:10;}.cls-3,.cls-4,.cls-5,.cls-6,.cls-7,.cls-8,.cls-9{stroke-width:0px;}.cls-4{fill:#4f4f4f;}.cls-5{fill:gray;}.cls-6{fill:#1e160d;}.cls-7{fill:#d36749;}.cls-8{fill:#ae8a6b;}.cls-9{fill:#fff;}</style></defs><path class="cls-4" d="M182.8,226c.4-1.2.9-2.5,1.4-3.7,1.1-2.7,2.3-5.2,3.5-7.1,7.7-.7,14.5-1.5,22.2-2.2,1.3-.1,2.7-.2,3.9.3,2.5,1.1,3,4.6,1.6,7.1-1.4,2.5-4,4.1-6.6,5.5-7.8,4.2-16.3,7.1-24.6,9.9-1,.3-2.1.7-3,.2h-.4c-.1-2.6.7-6.3,2-10Z"/><path class="cls-5" d="M190,212.2c-.7.6-1.5,1.7-2.3,3-1.2,1.9-2.4,4.4-3.5,7.1-20.3-9.4-35.5-14.8-51.7-22.9-16.9-8.4-43.8-7.8-61.2-15.4,0-.5,0-.9,0-1.4,1.5-9.6,15-6.4,31.3-2.8,8.7,1.9,10.5,4.1,15.2,5,4,1.2,9.3,2.9,12,4.1,1.3.6,60.4,23,60.1,23.3Z"/><path class="cls-7" d="M71.3,186.5c0-.8,0-1.6,0-2.5,17.4,7.6,44.3,7,61.2,15.4,16.2,8.1,31.4,13.4,51.7,22.9-.5,1.2-1,2.5-1.4,3.7-19.7-9.1-34.6-14.4-50.5-22.3-16.8-8.4-43.5-7.8-60.9-15.3,0-.6,0-1.2-.1-1.9Z"/><path class="cls-5" d="M180.9,235.9c0,.3-53.7-21.3-55.5-21.5-.4,0-.9-.1-1.4-.2h0c-8.3-1.1-28-4.4-36.6-6.1-2.2-.6-3.9-1.1-5.1-1.5-4.3-2.2-10-7.9-10.9-18.2,17.4,7.4,44.1,6.9,60.9,15.3,15.9,7.9,30.8,13.2,50.5,22.3-1.3,3.7-2.1,7.4-2,9.9Z"/><path class="cls-4" d="M136.5,303.8c1.8,2.1.7,5.5-1.6,7.2-2.3,1.7-5.4,2-8.2,2.1-8.8.4-18.3-3.1-27.1-4.1-1-.1-2.2-.3-2.8-1.1-.5-.6-.5-1.4-.5-2.1,0-3.2.2-5.4.9-8.5,10.6,1.1,15.2.4,23.9-1.1,4.1,2.1,8,4.2,11.9,5.6,1.3.5,2.6,1,3.4,1.9Z"/><path class="cls-4" d="M131.3,154.1c0,1.1,0,1.8,0,1.9-.2.2-.8.1-1.7-.2-3.3-1-10.3-4.3-14.7-3.4-.2,0-.3,0-.5.1-.1-1-.3-1.9-.4-3h0c6.1-.7,12.3,1,17.3,4.6Z"/><path class="cls-8" d="M128.8,80.7c.4.2.7.4.9.6.3.6.4,1.2.5,1.9.3,1.9.6,3.8.3,5.7-.3,2.5-2.1,6.1-3.5,5.1h-.4c.5-2.8.8-5.9.8-9.6,0-1.5,0-2.7,0-3.8h.1c.3,0,.8,0,1.2.2Z"/><path class="cls-8" d="M96.4,155.6c8.6-1.8,7.5-.2,18.5-3.2,4.4-.9,11.5,2.4,14.7,3.4v.3c-.3,1.6-.6,3.1-1.2,4.4-1,2-2.1,2.2-3,2.8-3.7,1.4-6.8,2.3-9.7,2.7-7.7,1.2-13.6-.5-24.2-1.7-2.6.9-11.9,1.2-13-1.3-.8-2.2,2.7-13,5.5-14.3,2.6-1.3,12.2,3.8,12.3,6.8h0Z"/><path class="cls-6" d="M127.4,77.1c-2-11.1-9.8-14.2-18.4-14.7-6.1-.3-13.2,1.7-18.5,10.8-1.9,3.2-3.1,7.7-3.7,8.9-.6,1.2-2.7,1.1-2.7-.4h0c-.5-1.2-1.6-1.8-2.6-1.5h0c-.6-7.8.4-12.3,3.5-17.5,4.5-7.6,10-11.4,17.9-11.7,7-.3,19.6,1.3,23.5,10,2.9,6.6,2.3,14.8,2.3,19.6-.5-.2-1-.3-1.2-.2h-.1c0-1.2,0-2.2,0-3.4Z"/><path class="cls-5" d="M97.2,297.3c-.4,0-.7,0-1.1-.1-.5-1.3,8.1-62.4,7.1-65.1-2.4-6.4-10.5-16.7-15.8-23.9,8.5,1.7,28.2,5.1,36.6,6.1h0c2.6,9.4,4.3,11.7,4.3,19,0,1.1-5.5,61.6-5.6,62.7-.5,0-1,.2-1.5.3-8.8,1.5-13.3,2.3-23.9,1.1Z"/><path class="cls-8" d="M116.7,104.5c-3.7.9-10.3-1-13.9-2.6-.8-.3,2.6,4.4,7.5,5,2.9.4,4.9,0,6.4-2.3h0ZM85,94c-.7.2-1.5,0-2.2-.4-1.1-.7-1.8-2.1-2.4-3.5-.7-1.5-1.2-3.3-1.2-5.1,0-1.8.6-3.6,1.8-4.4.2-.1.4-.2.6-.3,1-.3,2.1.3,2.6,1.5h0c0,1.4,2,1.6,2.7.4.6-1.2,1.8-5.7,3.7-8.9,5.3-9,12.4-11.1,18.5-10.8,8.6.4,16.4,3.6,18.4,14.7,0,1.2,0,2.2,0,3.4,0,1.1,0,2.3,0,3.8,0,3.7-.3,6.8-.8,9.5-1.1,5.9-3.3,9.7-5.9,12.9-3.2,4-6.4,8.2-10.8,9.3-3.8,1-8.6-.3-15.2-6.1-.3-.3-.6-.6-1-.9-2.8-2.7-7.7-8.4-8.8-15h0ZM120.4,89.3c.7,0,1.2-1.2,1.2-2.7,0-1.5-.6-2.7-1.2-2.7-.7,0-1.2,1.2-1.2,2.7s.6,2.7,1.2,2.7ZM103.4,90.1c.8,0,1.5-1.4,1.4-3.1,0-1.7-.7-3.1-1.5-3.1-.8,0-1.5,1.4-1.4,3.1,0,1.7.7,3.1,1.5,3.1Z"/><path class="cls-7" d="M114,149.6c.1,1,.3,2,.4,3,.1,0,.3,0,.5-.1-11,3-9.9,1.4-18.5,3.2h0c-.1-3.1-9.7-8.1-12.3-6.9-2.8,1.4-6.4,12.2-5.5,14.3,1,2.6,10.4,2.3,13,1.3,10.6,1.2,16.5,2.9,24.2,1.7-.8,3,1.2,13.6,1.3,18.5.3.1.7.2,1,.3-4.7-.9-6.6-3.1-15.2-5-16.2-3.5-29.8-6.8-31.3,2.8,0,.5,0,.9,0,1.4,0,.9,0,1.7,0,2.5-2.9-11.5-.6-28.9,1.4-49.3h-.4c-3.3,3-7.6,6.7-10.6,9.2l-.2-.4c-2.1-1.7-4.2-3.4-5.9-5.5-1.7-2.1-3-4.5-3.4-7.2,3.9-4.4,11.3-12.2,11.9-12.7,4-3.7,7-6.6,12.3-7.7,1.6-.3,9.8-1.7,15.5-1.2h0c-1.5,3.5-.8,7.8,1.7,10.7s6.7,4.1,10.4,3,6.6-4.3,7.2-8.1v-.2c4.3,2.2,13.2,6.4,14.5,9.8,3.4,8.4,5.3,22.2,5.6,27.1-4.9-3.6-11.2-5.2-17.3-4.6h0Z"/><path class="cls-3" d="M121.5,86.6c0,1.5-.5,2.7-1.2,2.7-.7,0-1.2-1.2-1.2-2.7s.5-2.7,1.2-2.7c.7,0,1.2,1.2,1.2,2.7Z"/><path class="cls-9" d="M116.7,104.5h0c-1.5,2.4-3.5,2.8-6.4,2.4-4.9-.6-8.3-5.4-7.5-5,3.6,1.6,10.2,3.6,13.9,2.6Z"/><path class="cls-4" d="M111.3,117.2v.2c-.7,3.8-3.7,7-7.3,8.1s-7.9-.2-10.4-3-3.2-7.2-1.7-10.7h0c.5,0,.9,0,1.4.1h.3c-.4,3.1-.7,6.8,1.9,8.9,4,3.1,14.6,4.3,14.6-4.3.3.2.8.4,1.3.7Z"/><path class="cls-8" d="M110,116.2v.4c0,8.6-10.5,7.5-14.5,4.3-2.7-2.1-2.3-5.8-1.9-8.9.1-1.1.3-2.1.3-2.9.4.4.7.7,1,.9,6.5,5.8,11.3,7.1,15.2,6.1Z"/><path class="cls-3" d="M104.8,87c0,1.7-.6,3.1-1.4,3.1-.8,0-1.5-1.4-1.5-3.1,0-1.7.6-3.1,1.4-3.1.8,0,1.5,1.4,1.5,3.1Z"/><path class="cls-4" d="M61.5,146.1l.2.4c-1.2,1-2.2,1.8-2.9,2.3-.4-.2-.8-.5-1.2-.7-3.9-2.7-6.7-7.7-7.6-10.2h0c-.2-.6-.3-1.1-.3-1.3s1-1.4,2.3-3c.3,2.7,1.7,5.1,3.4,7.2,1.7,2.1,3.8,3.8,5.9,5.5Z"/><path class="cls-8" d="M43.1,169.5h0c2.4.7,4.6,9.4,3.1,11.3-1.7,2-11.2,2.9-12.7,1.8-1.9-1.3.2-8.8,1.5-10.7,2.6-11.9,5.1-17.6,11.2-28.2,1.4-2.4,2.7-4.5,3.9-5.9.8,2.5,3.6,7.6,7.6,10.2-3.1,2.5-1.9,1.3-3.2,2.4-4.6,8.3-8,12.3-11.4,19.1Z"/><path class="cls-1" d="M50.1,137.7c-.2-.6-.3-1.1-.3-1.3s1-1.4,2.3-3c3.9-4.4,11.3-12.2,11.9-12.7,4-3.7,7-6.6,12.3-7.7,1.6-.3,9.8-1.7,15.5-1.2.5,0,.9,0,1.4.2"/><path class="cls-1" d="M72.3,137.2c-3.3,3.1-7.6,6.8-10.6,9.2-1.2,1-2.2,1.8-2.9,2.3-.4-.2-.8-.5-1.2-.7-3.9-2.7-6.7-7.7-7.6-10.2"/><path class="cls-1" d="M50.1,137.7h0c-1.2,1.4-2.5,3.5-3.9,5.9-6.1,10.6-8.6,16.2-11.2,28.2"/><path class="cls-1" d="M57.7,148c-3.1,2.5-1.9,1.3-3.2,2.4-4.6,8.3-8,12.3-11.4,19.1,0,.2-.2.3-.3.5"/><path class="cls-1" d="M43.2,169.5c2.4.6,4.6,9.3,3.1,11.2-1.7,2-11.2,2.9-12.7,1.8-1.9-1.3.2-8.8,1.5-10.7"/><path class="cls-1" d="M113.4,142.5c0,3.1.3,5.2.6,7.1.1,1,.3,2,.4,3,.1,0,.3,0,.5-.1,4.4-.9,11.5,2.4,14.7,3.4.9.3,1.5.4,1.7.2,0,0,0-.8,0-1.9-.3-5-2.2-18.7-5.6-27.1-1.4-3.4-10.2-7.6-14.4-9.8-.5-.3-.9-.5-1.3-.7"/><path class="cls-1" d="M125.4,163.3c-3.7,1.4-6.8,2.3-9.7,2.7-7.7,1.2-13.6-.5-24.2-1.7"/><path class="cls-1" d="M114.9,152.4c-11,3-9.9,1.4-18.5,3.2-.2,0-.4,0-.7.1"/><path class="cls-1" d="M96.4,155.4c-.1-2.9-9.7-8-12.3-6.8-2.8,1.4-6.4,12.2-5.5,14.3,1,2.6,10.4,2.3,13,1.3"/><path class="cls-1" d="M129.5,156.1c-.2,1.6-.5,3.1-1.1,4.4-1,2-2.1,2.2-3,2.8"/><path class="cls-1" d="M73.5,129.5c-.2,2.6-.5,5.2-.7,7.8-2,20.4-4.3,37.8-1.4,49.3,0,.3.2.6.3,1"/><path class="cls-1" d="M115.7,166s0,0,0,0c-.8,3,1.2,13.6,1.3,18.5h0"/><path class="cls-1" d="M124,214.2c.5,0,1,.1,1.4.2,1.9.2,55.5,21.8,55.5,21.5-.1-2.5.7-6.2,2-9.9.4-1.2.9-2.5,1.4-3.7,1.1-2.7,2.3-5.2,3.5-7.1.8-1.3,1.6-2.3,2.3-3,.3-.3-58.8-22.7-60.1-23.3-2.7-1.2-7.9-2.9-12-4.1-.3-.1-.7-.2-1-.3-1.4-.4-2.5-.8-3.3-1"/><path class="cls-1" d="M87.4,208.1c8.5,1.7,28.2,5.1,36.6,6.1"/><path class="cls-1" d="M82.3,206.6c1.1.5,2.9,1,5.1,1.5"/><path class="cls-1" d="M87.4,208.1c5.3,7.2,13.5,17.6,15.8,23.9,1,2.8-7.6,63.8-7.1,65.1.4,0,.7,0,1.1.1,10.6,1.1,15.2.4,23.9-1.1.5,0,1-.2,1.5-.3,0-1.1,5.6-61.6,5.6-62.7,0-7.3-1.6-9.6-4.3-19h0"/><path class="cls-1" d="M71.4,182.6c0,.5,0,.9,0,1.4,0,.9,0,1.7,0,2.5,0,.6,0,1.3.1,1.9.9,10.2,6.6,16,10.9,18.2"/><path class="cls-1" d="M181.3,236c.9.5,2,.1,3-.2,8.4-2.9,16.8-5.8,24.6-9.9,2.6-1.4,5.2-3,6.6-5.5,1.4-2.5,1-6.1-1.6-7.1-1.2-.5-2.6-.4-3.9-.3-7.7.7-14.5,1.5-22.2,2.2"/><path class="cls-1" d="M118.3,184.9c-.1,0-.2,0-.4,0-4.7-.9-6.6-3.1-15.2-5-16.2-3.5-29.8-6.8-31.3,2.8"/><path class="cls-1" d="M93.8,109.1c0-.2,0-.3,0-.5"/><path class="cls-1" d="M93.5,112c.1-1.1.3-2.1.3-2.9"/><path class="cls-1" d="M110.1,116.5c0,8.6-10.6,7.5-14.6,4.3-2.7-2.1-2.3-5.8-1.9-8.9"/><path class="cls-1" d="M97.2,297.3h0c-.8,3.1-1,5.3-.9,8.5,0,.7,0,1.5.5,2.1.6.8,1.8,1,2.8,1.1,8.8,1,18.3,4.5,27.1,4.1,2.9-.1,5.9-.5,8.2-2.1,2.3-1.7,3.4-5.1,1.6-7.2-.9-1-2.2-1.5-3.4-1.9-4-1.5-7.8-3.5-11.9-5.6"/><path class="cls-2" d="M71,183.9h.3c17.4,7.7,44.3,7.1,61.2,15.5,16.2,8.1,31.4,13.4,51.7,22.9h0"/><path class="cls-2" d="M70.8,188.2c.2,0,.4.2.6.3,17.4,7.4,44.1,6.9,60.9,15.3,15.9,7.9,30.8,13.2,50.5,22.3.4.2.8.4,1.2.6"/><path class="cls-2" d="M91.9,111.9c-1.5,3.5-.8,7.8,1.7,10.7s6.7,4.1,10.4,3,6.6-4.3,7.2-8.1"/><path class="cls-2" d="M52.2,133.4s0,0,0,0c.3,2.7,1.7,5.1,3.4,7.2,1.7,2.1,3.8,3.8,5.9,5.5"/><path class="cls-2" d="M114,149.6c6.1-.6,12.3,1,17.3,4.6,0,0,.2.1.3.2"/><path class="cls-1" d="M127.5,73.7c0,1.3,0,2.4,0,3.4s0,2.2,0,3.4c0,1.1,0,2.3,0,3.8,0,3.7-.3,6.8-.8,9.5-1.1,5.9-3.3,9.7-5.9,12.9-3.2,4-6.4,8.2-10.8,9.3-3.8,1-8.6-.3-15.2-6.1-.3-.3-.6-.6-1-.9-2.8-2.7-7.7-8.4-8.8-15"/><path class="cls-1" d="M123.1,78.9c-.9-.8-4.5-.8-5.4-.4"/><path class="cls-1" d="M106.7,78.5c-1.7-.9-6.2-.2-6.5.5"/><path class="cls-1" d="M119.1,86.7c0,1.5.6,2.7,1.2,2.7.7,0,1.2-1.2,1.2-2.7,0-1.5-.6-2.7-1.2-2.7-.7,0-1.2,1.2-1.2,2.7Z"/><path class="cls-1" d="M101.9,87c0,1.7.7,3.1,1.5,3.1.8,0,1.5-1.4,1.4-3.1,0-1.7-.7-3.1-1.5-3.1-.8,0-1.5,1.4-1.4,3.1Z"/><path class="cls-1" d="M116.3,94.3c1,2.9-.3,5.1-3.8,4.9"/><path class="cls-1" d="M117.1,104.3c-.1,0-.3,0-.4.1-3.7.9-10.3-1-13.9-2.6-.8-.3,2.6,4.4,7.5,5,2.9.4,4.9,0,6.4-2.3"/><path class="cls-1" d="M128.8,80.7h0c0-4.8.6-13-2.3-19.6-3.9-8.8-16.5-10.3-23.5-10-7.9.3-13.4,4-17.9,11.7-3.1,5.3-4.2,9.7-3.5,17.5"/><path class="cls-1" d="M84.3,82c0,0,0-.2,0-.2-.5-1.2-1.6-1.8-2.6-1.5-.2,0-.4.1-.6.3-1.1.8-1.8,2.7-1.8,4.4,0,1.8.5,3.5,1.2,5.1.6,1.4,1.4,2.8,2.4,3.5.7.5,1.4.6,2.2.4.4-.1.8-.4,1.1-.8"/><path class="cls-1" d="M127.6,80.5c.3,0,.8,0,1.2.2.4.2.7.4.9.6.3.6.4,1.2.5,1.9.3,1.9.6,3.8.3,5.7-.3,2.5-2.1,6.1-3.5,5.1"/><path class="cls-1" d="M84.2,81.8c0,1.4,2,1.6,2.7.4.6-1.2,1.8-5.7,3.7-8.9,5.3-9,12.4-11.1,18.5-10.8,8.6.4,16.4,3.6,18.4,14.7,0,.2,0,.4.1.6"/></svg>