<?xml version="1.0" encoding="UTF-8"?><svg id="africa" xmlns="http://www.w3.org/2000/svg" width="235" height="321.9" viewBox="0 0 235 321.9"><defs><style>.cls-1{stroke-linecap:round;stroke-linejoin:round;}.cls-1,.cls-2{fill:none;stroke:#000;}.cls-2{stroke-miterlimit:10;}.cls-3,.cls-4,.cls-5,.cls-6,.cls-7,.cls-8,.cls-9{stroke-width:0px;}.cls-4{fill:#d5723a;}.cls-5{fill:#bc4343;}.cls-6{fill:#946a38;}.cls-7{fill:#fff;}.cls-8{fill:#f67e2e;}.cls-9{fill:#efefee;}</style></defs><path class="cls-7" d="M18.2,299.2c-.3.8-.6,1.6-.5,2.5.3,1.1,1.4,1.8,2.3,2.5,14.4,10.1,19.5,13.1,29,15.3,6,1.4,11.9-.6,10.2-8.1-.3-1.5-2-1.9-3.2-2.7-9.1-5.4-9-6.6-15-18.5-.7-1.3-1.4-1.3-2.7-.7s-1.4.9-2,1.5c-.5.5-.9.9-1.3,1.4-.9,1-7.9,0-9.8-1.8-.3-.3-.4-.5-.4-.8-2.2,3-5.3,6.1-6.7,9.5Z"/><path class="cls-4" d="M41.3,157.8c-5.7,16.5-17.3,106.5-15.9,109.8.4,1,2.7,1.7,6.2,2.1,4.7.6,11.7.8,19.6.7,13-.2,28.5-1,40.7-1.7,8.6-.5,15.7-1,19-1.1.8,0,1.3,0,1.7,0,1.6-36.5-15.4-85.1-28.5-116.4-1.5-3.6-2.9-6.9-4.3-10-9.6,2.7-19.6,2.6-29.2-.3,2.3,3.3,3.7,7.3,3.4,12,3.3-.2,10-3.3,11.1,1.8,2.3,1.1,4.7,2.8,1.6,5.2,1.5,1.6.8,3.4-.2,4,1.7,1,.2,3-.6,3.4,1.9,3.9-5.7,2.5-7.4,1.7-2.4-1.1-7-4.2-7-7.3h0c-.4.8-.8,1.5-1.2,2.3-1.9-1.2-5.2-3.5-8.8-6.3h0Z"/><path class="cls-5" d="M31.6,269.7c-2.6,6.2-5.1,15.4-6.2,20.8,1.9,1.9,8.9,2.8,9.8,1.8.4-.5.8-1,1.3-1.4,4.2-5.6,10.2-14.4,14.7-20.6-7.9,0-14.9,0-19.6-.7Z"/><path class="cls-4" d="M44.2,121.7h0c1.3,5.9,2.3,7.3,2.4,11.5,10.4,4.5,21.8,5.1,32.6,1.6-.3-9.5,1.2-26.7-7.4-38.1-3.9,5.5-12.3.7-16.6-5.2-2.5.4-9.3,1.2-12.4,2.4-13.1,7.6-17.5,40.2-17.8,45-.4,4.3,8.7,12.7,16.4,18.7,3.6,2.8,6.9,5.1,8.8,6.3.5-.8.9-1.6,1.2-2.3,1.5-3.2,2.3-6.1,2.6-8.8.4-4.7-1.1-8.7-3.4-12-1.2-1.7-2.5-3.1-4-4.5-.1-.1-.3-.2-.4-.4,0,0,0,0,0,0-1.7-4-2.1-9.5-1.9-14.4Z"/><path class="cls-9" d="M46.6,133.2c0,.9,0,2-.1,3.2,1.5,1.3,2.9,2.8,4,4.5,9.5,2.9,19.6,3,29.2.3-.5-2.8-.5-4.5-.5-5.4,0-.3,0-.6,0-.9-10.8,3.4-22.2,2.9-32.6-1.6Z"/><path class="cls-6" d="M65,154.7c-1.1-5.1-7.8-2.1-11.1-1.8-.2,2.7-1,5.6-2.6,8.8h0c0,3.1,4.6,6.2,7,7.3,1.7.8,9.3,2.2,7.4-1.7.9-.4,2.3-2.3.6-3.4,1-.6,1.6-2.4.2-4,3.1-2.4.8-4.1-1.6-5.2Z"/><path class="cls-9" d="M60.9,42.7h.7c5.7-3,18.2-3.8,23.7-1,5.5,2.8,5.9,4.8,9.1,10.3.6-4.6.6-9.5-2.4-12.9-2.4-2.7-5.2-4.4-8.8-5.1-10.3-1.8-17,2.2-22.4,8.7Z"/><path class="cls-9" d="M69.4,72.8c-1.7,8.3,8.3,13.8,12.1,5.5-2.9,0-6.1-2.1-12.1-5.5Z"/><path class="cls-3" d="M69.5,59.1c-.4,1.5,0,2.8.9,3,.8.2,1.8-.8,2.2-2.3.4-1.5,0-2.8-.9-3s-1.8.8-2.2,2.3Z"/><path class="cls-5" d="M70.2,92.1c4.2.4,7.6,0,10.6-.9,6.5-2,10.2-7,12.4-13.5,3-8.9,4.9-17,5-26.4,0-7.5,0-12.3-5.5-17.7-6.9-6.7-16.8-11.5-30.8-8.8-9.7,1.9-12.9,5.7-17.9,14.2s-8.9,16.5-9.1,26.4c-.1,6.4-.5,9.6,3.2,14.8,3.6,5.1,11.7,12.5,17.3,10,.4-2.6,1.1-7.1,1.1-11.9-3.6-4.7-5.3-10-5.2-15-.6-.3-1.1-.8-1.5-1.4-.8-1.3-1-2.9-1.1-4.4,0-1.3,0-2.8.9-3.8.6-.7,1.6-1.1,2.5-1,.7,0,1.3.4,1.8.9,2.2-4,4.5-7.8,7.1-10.9,5.3-6.5,12.1-10.5,22.4-8.7,3.6.6,6.4,2.4,8.8,5.1,3,3.4,3,8.3,2.4,12.9,0,.7-.2,1.4-.3,2.1l-.2.2c-.2,3.5-1.6,5.7-2.9,9.4,0,0-.5,7-3,11.9-2.2,4.2-9.6,13.4-16.7,13.5-.2,0-.4,0-.7,0v.2c-.2.8-.4,1.7-.3,2.8Z"/><path class="cls-6" d="M55.4,90.1c0,.6-.2,1-.3,1.4,4.3,5.9,12.7,10.7,16.6,5.2-1-1.5-1.4-3.2-1.5-4.6,0-1.1,0-2,.3-2.8v-.2c-3.1-.3-6.5-3-10.2-6.6-1.5-1.3-2.8-2.7-3.9-4.2,0,4.8-.6,9.3-1.1,11.9Z"/><path class="cls-5" d="M70.2,92.1c0,1.5.5,3.1,1.5,4.6,8.6,11.4,7.1,28.6,7.4,38.1,0,0,0,0,.1,0,0,0,0,.3-.1.9.2,4.6,1,7.2,3.9,5.8.9-3.8,1.6-7.4,2.2-10.7,2.4-14,2.2-24.4-2.5-35.5-.6-1.4-1.2-2.7-2-4.1-2.9.9-6.4,1.3-10.6.9Z"/><path class="cls-3" d="M66.7,50.8c0,.1,2.7-.5,4.4-.3,3,.3,4,2.1,4.9,2.5,1,.4.9-.9-.4-2.2-1-1-2.9-1.3-3.9-1.3-1.4,0-5.1,1.2-5,1.4Z"/><path class="cls-4" d="M86.2,131.7c-.3-.3-.6-.6-.9-.9h0c-.6,3.4-1.3,6.9-2.2,10.7-2.9,1.3-3.7-1.2-3.9-5.8,0,.9,0,2.7.5,5.4,1.4,3.1,2.8,6.4,4.3,10,3.7,5.6,9,11.2,15.5,13.7.4-1.3.9-2.5,1.5-3.8,2.1-5,4.5-9.8,4.5-12.5,0-.9-.3-1.6-.9-2-6.3-3.8-13.6-10.4-18.3-14.9Z"/><path class="cls-3" d="M85.4,63.4c-.4,1.5,0,2.9.8,3.1.8.2,1.8-.9,2.1-2.4.4-1.5,0-2.9-.8-3.1-.8-.2-1.8.9-2.1,2.4Z"/><path class="cls-8" d="M82.8,95.3c4.7,11,5,21.5,2.5,35.5h0c.3.3.6.6.9.9,2-9.3,2.5-19,1.3-28.4-.4-3.3-1.4-7.1-4.5-8.1h-.3Z"/><path class="cls-3" d="M90,55.8c-.5-.5-1.7-1.2-2.9-.9-1.6.4-2.5,1.3-1.7,1.5.7.2,2.4-.7,4.2.5,1,.7,2.1,1.7,2.3,1.7.2,0-1.1-2.1-1.9-2.7Z"/><path class="cls-6" d="M91,63.6c1.3-3.7,2.6-6,2.9-9.4l.2-.2c.1-.7.2-1.4.3-2.1-3.2-5.5-3.6-7.5-9.1-10.3-5.6-2.8-18.1-2.1-23.7,1h-.7c-2.6,3.1-4.9,6.9-7.1,10.9-.5-.5-1.1-.8-1.8-.9-.9-.1-1.9.3-2.5,1-.9,1-.9,2.4-.9,3.8,0,1.5.3,3.1,1.1,4.4.4.6.9,1.1,1.5,1.4,0,5.1,1.7,10.4,5.2,15,1.1,1.5,2.4,2.8,3.9,4.2,3.6,3.7,7.1,6.4,10.2,6.6.2,0,.4,0,.7,0,7.1-.2,14.5-9.3,16.7-13.5,2.6-5,3-11.9,3-11.9ZM91.8,58.5c-.1,0-1.3-1-2.3-1.7-1.8-1.2-3.5-.3-4.2-.5-.8-.2.1-1.1,1.7-1.5,1.2-.3,2.4.4,2.9.9.7.6,2.1,2.6,1.9,2.7ZM66.7,50.8c-.1-.2,3.6-1.4,5-1.4,1,0,2.9.3,3.9,1.3,1.3,1.4,1.4,2.6.4,2.2-.9-.3-1.9-2.1-4.9-2.5-1.7-.2-4.4.5-4.4.3ZM81.5,78.3c-3.8,8.4-13.8,2.8-12.1-5.5,6,3.4,9.2,5.5,12.1,5.5ZM70.4,62.2c-.9-.2-1.2-1.5-.9-3,.4-1.5,1.3-2.5,2.2-2.3s1.2,1.5.9,3c-.4,1.5-1.3,2.5-2.2,2.3ZM86.2,66.5c-.8-.2-1.2-1.6-.8-3.1.4-1.5,1.3-2.6,2.1-2.4.8.2,1.2,1.6.8,3.1-.4,1.5-1.3,2.6-2.1,2.4Z"/><path class="cls-5" d="M91.9,268.6c-.2,6.6.5,20.6.6,25.3,1.2,2.1,5.8,3.4,7.8,1.9,1.1-.9,1.7-2.3,2.1-3.6.4-1.3.8-2.8,1.8-3.8.3-.3.6-.6.9-.7h0c2.4-6.7,3.9-13.4,5.8-20.2h0c-3.3.1-10.3.6-19,1.1h0Z"/><path class="cls-7" d="M100.3,295.8c-2,1.5-6.6.2-7.8-1.9-.9,3.6-1.3,7.3-1.3,11,0,.9,0,1.8.6,2.4.7.9,2,1.2,3.2,1.3,9.9,1.2,20.7,5.3,30.7,4.9,3.3-.1,6.7-.5,9.3-2.5,2.6-1.9,3.9-5.9,1.8-8.4-1-1.2-2.5-1.7-3.9-2.3-8.2-3.2-17.3-9.3-25.5-12.5h-.1s0,0,0,0c-1.1-.3-1.7-.5-2.3-.2-.3.1-.5.3-.9.7-1,1-1.4,2.5-1.8,3.8-.4,1.3-1,2.7-2.1,3.6Z"/><path class="cls-6" d="M105.5,148.5c0,2.7-2.4,7.5-4.5,12.5,1.9,2.3,8.1,4.9,10.3,3.6,2-1.2,6.5-9,5-12-1.3-2.7-9-6.4-10.9-4.1Z"/><line class="cls-2" x1="25.2" y1="315.2" x2="25.1" y2="314.9"/><path class="cls-1" d="M90,55.8c.7.6,2.1,2.6,1.9,2.7-.1,0-1.3-1-2.3-1.7-1.8-1.2-3.5-.3-4.2-.5-.8-.2.1-1.1,1.7-1.5,1.2-.3,2.4.4,2.9.9Z"/><path class="cls-1" d="M71.7,49.4c-1.4,0-5.1,1.2-5,1.4,0,.1,2.7-.5,4.4-.3,3,.3,4,2.1,4.9,2.5,1,.4.9-.9-.4-2.2-1-1-2.9-1.3-3.9-1.3Z"/><path class="cls-1" d="M93.9,54.2c-.2,3.5-1.6,5.7-2.9,9.4,0,0-.5,7-3,11.9-2.2,4.2-9.6,13.4-16.7,13.5-.2,0-.4,0-.7,0-3.1-.3-6.6-3-10.2-6.6"/><path class="cls-1" d="M55.1,91.5c0-.4.2-.8.3-1.4.4-2.6,1.1-7.1,1.1-11.9"/><path class="cls-1" d="M55.1,91.5c-2.5.4-9.3,1.2-12.4,2.4"/><path class="cls-1" d="M82.8,68.5c1.9,2.8-.9,7.2-7.4,2.8"/><path class="cls-1" d="M85.4,63.4c-.4,1.5,0,2.9.8,3.1.8.2,1.8-.9,2.1-2.4.4-1.5,0-2.9-.8-3.1-.8-.2-1.8.9-2.1,2.4Z"/><path class="cls-1" d="M69.5,59.1c-.4,1.5,0,2.8.9,3,.8.2,1.8-.8,2.2-2.3.4-1.5,0-2.8-.9-3s-1.8.8-2.2,2.3Z"/><path class="cls-1" d="M81.5,78.3c-2.9,0-6.1-2.1-12.1-5.5"/><path class="cls-1" d="M81.5,78.3c-3.8,8.4-13.8,2.8-12.1-5.5"/><path class="cls-1" d="M51.2,63.1h0c0,5.2,1.7,10.5,5.2,15.1,1.1,1.5,2.4,2.8,3.9,4.2"/><path class="cls-1" d="M94.1,54c.1-.7.2-1.4.3-2.1.6-4.6.6-9.5-2.4-12.9-2.4-2.7-5.2-4.4-8.8-5.1-10.3-1.8-17,2.2-22.4,8.7-2.6,3.2-4.9,7-7.1,10.9,0,0-.1.2-.2.3"/><path class="cls-1" d="M70.2,92.1c4.2.4,7.6,0,10.6-.9,6.5-2,10.2-7,12.4-13.5,3-8.9,4.9-17,5-26.4,0-7.5,0-12.3-5.5-17.7-6.9-6.7-16.8-11.5-30.8-8.8-9.7,1.9-12.9,5.7-17.9,14.2s-8.9,16.5-9.1,26.4c-.1,6.4-.5,9.6,3.2,14.8,3.6,5.1,11.7,12.5,17.3,10,.1,0,.2,0,.3-.2"/><path class="cls-1" d="M54.2,54.2c-.1-.2-.3-.4-.4-.6-.5-.5-1.1-.8-1.8-.9-.9-.1-1.9.3-2.5,1-.9,1-.9,2.4-.9,3.8,0,1.5.3,3.1,1.1,4.4.4.6.9,1.1,1.5,1.4.7.4,1.6.6,2.4.3"/><path class="cls-1" d="M94.4,52s0,0,0,0c-3.2-5.5-3.6-7.5-9.1-10.3-5.6-2.8-18.1-2.1-23.7,1-.1,0-.2.1-.3.2"/><path class="cls-1" d="M79.3,134.8s0,.3-.1.9c0,.9,0,2.7.5,5.4"/><path class="cls-1" d="M44.2,121.7c1.3,5.9,2.3,7.3,2.4,11.5,0,.9,0,2-.1,3.2h0"/><path class="cls-1" d="M79.7,141.1c1.4,3.1,2.8,6.4,4.3,10,13.1,31.3,30.1,79.9,28.5,116.4-.3,0-.9,0-1.7,0-3.3.1-10.3.6-19,1.1-12.2.7-27.7,1.6-40.7,1.7-7.9,0-14.9,0-19.6-.7-3.5-.4-5.7-1.1-6.2-2.1-1.5-3.3,10.2-93.4,15.9-109.8"/><path class="cls-1" d="M70.5,89.2c-.2.8-.4,1.7-.3,2.8,0,1.5.5,3.1,1.5,4.6"/><path class="cls-1" d="M55.1,91.5c4.3,5.9,12.7,10.7,16.6,5.2"/><path class="cls-1" d="M80.8,91.1c.7,1.4,1.4,2.8,2,4.1,4.7,11,5,21.5,2.5,35.5-.6,3.4-1.3,6.9-2.2,10.7-2.9,1.3-3.7-1.2-3.9-5.8,0-.3,0-.6,0-.9-.3-9.5,1.2-26.7-7.4-38.1"/><path class="cls-1" d="M79.3,134.8s0,0-.1,0c-10.8,3.4-22.2,2.9-32.6-1.6,0,0,0,0-.1,0"/><path class="cls-1" d="M79.7,141.1c-9.6,2.7-19.6,2.6-29.2-.3"/><path class="cls-1" d="M45.8,111c-.5,1-1.4,5.5-1.6,10.7-.2,4.8.2,10.4,1.9,14.4"/><path class="cls-1" d="M42.7,93.9c-13.1,7.6-17.5,40.2-17.8,45"/><path class="cls-1" d="M62.4,153.4c.6.3,1.6.8,2.6,1.3,2.3,1.1,4.7,2.8,1.6,5.2,1.5,1.6.8,3.4-.2,4,1.7,1,.2,3-.6,3.4,1.9,3.9-5.7,2.5-7.4,1.7-2.4-1.1-7-4.2-7-7.3"/><path class="cls-1" d="M53.9,152.8c3.3-.2,10-3.3,11.1,1.8,0,0,0,0,0,0"/><path class="cls-1" d="M39.6,131.5c2.1,1.2,4.4,2.7,6.5,4.5,0,0,0,0,0,0,.1.1.3.2.4.4,1.5,1.3,2.9,2.8,4,4.5,2.3,3.3,3.7,7.3,3.4,12-.2,2.7-1,5.6-2.6,8.8-.4.8-.8,1.5-1.2,2.3-1.9-1.2-5.2-3.5-8.8-6.3-7.7-6-16.8-14.4-16.4-18.7"/><path class="cls-1" d="M85.3,130.8c.3.3.6.6.9.9,4.7,4.4,12,11,18.3,14.9.6.4.9,1.1.9,2,0,2.7-2.4,7.5-4.5,12.5-.5,1.3-1,2.5-1.5,3.8-6.5-2.5-11.9-8-15.5-13.7"/><path class="cls-1" d="M83,95.2c3.1,1,4.2,4.8,4.5,8.1,1.1,9.5.6,19.1-1.3,28.4,0,0,0,.1,0,.2"/><path class="cls-1" d="M51.2,270.4c-4.5,6.2-10.5,15-14.7,20.6"/><path class="cls-1" d="M31.6,269.7c-2.6,6.2-5.1,15.4-6.2,20.8"/><path class="cls-1" d="M25,289.7c0,.3.2.6.4.8,1.9,1.9,8.9,2.8,9.8,1.8.4-.5.8-1,1.3-1.4.6-.6,1.2-1.1,2-1.5,1.4-.6,2-.6,2.7.7"/><path class="cls-1" d="M25,289.7c-2.2,3-5.3,6.1-6.7,9.5-.3.8-.6,1.6-.5,2.5.3,1.1,1.4,1.8,2.3,2.5,14.4,10.1,19.5,13.1,29,15.3,6,1.4,11.9-.6,10.2-8.1-.3-1.5-2-1.9-3.2-2.7-9.1-5.4-9-6.6-15-18.5"/><path class="cls-1" d="M110.8,267.5c-1.9,6.8-3.4,13.5-5.8,20"/><path class="cls-1" d="M91.9,268.6c-.2,6.6.5,20.6.6,25.3"/><line class="cls-1" x1="107.3" y1="287.9" x2="107.4" y2="288"/><path class="cls-1" d="M92.5,293.9c1.2,2.1,5.8,3.4,7.8,1.9,1.1-.9,1.7-2.3,2.1-3.6.4-1.3.8-2.8,1.8-3.8.3-.3.6-.6.9-.7.6-.3,1.1-.1,2.3.2"/><path class="cls-1" d="M92.5,293.9c-.9,3.6-1.3,7.3-1.3,11,0,.9,0,1.8.6,2.4.7.9,2,1.2,3.2,1.3,9.9,1.2,20.7,5.3,30.7,4.9,3.3-.1,6.7-.5,9.3-2.5,2.6-1.9,3.9-5.9,1.8-8.4-1-1.2-2.5-1.7-3.9-2.3-8.2-3.2-17.3-9.3-25.5-12.5h0"/><path class="cls-1" d="M105.5,148.5c1.9-2.3,9.6,1.4,10.9,4.1,1.4,2.9-3,10.8-5,12-2.3,1.4-8.4-1.2-10.3-3.6-.1-.1-.2-.3-.3-.4"/></svg>