<?xml version="1.0" encoding="UTF-8"?><svg id="africa" xmlns="http://www.w3.org/2000/svg" width="235" height="321.9" viewBox="0 0 235 321.9"><defs><style>.cls-1{stroke-linecap:round;stroke-linejoin:round;}.cls-1,.cls-2{fill:none;stroke:#000;}.cls-2{stroke-miterlimit:10;}.cls-3,.cls-4,.cls-5,.cls-6,.cls-7,.cls-8,.cls-9,.cls-10,.cls-11,.cls-12{stroke-width:0px;}.cls-4{fill:#37aa8f;}.cls-5{fill:#1e160d;}.cls-6{fill:#318c85;}.cls-7{fill:#93623d;}.cls-8{fill:#8158a5;}.cls-9{fill:#ef5b5b;}.cls-10{fill:#fff;}.cls-11{fill:#ffcf69;}.cls-12{fill:#eaea8c;}</style></defs><path class="cls-6" d="M94.3,294.8h0c1.3,2,4.7,2.8,6.8,1.4,1.2-.8,1.8-2.2,2.3-3.4.5-1.3.9-2.6,1.9-3.6s2.1-1.3,3.4-.5h.1c8.8,3.1,13.9,8.3,22.7,11.4,1.5.5,3.1,1.1,4.2,2.2,2.2,2.3.9,6.1-1.9,8-2.8,1.8-6.5,2.2-10,2.4-10.8.4-17.7-3-28.3-4.1-1.3-.1-2.7-.3-3.5-1.2-.6-.7-.6-1.5-.6-2.3,0-3.5.4-7.1,1.4-10.5h1.4c0,.1,0,.2,0,.3Z"/><path class="cls-7" d="M117.1,172.8h0c3.2-1,6.9,4,8.2,6.6,1.3,2.7-2,5.4-4.7,7.2s-4.2,2.4-7,.8c-1.3-.8-2.4-2-2.8-3.3,0,0,0-.2,0-.3-.4-2.7,3.1-8.8,6.1-11.1,0,0,0,0,.1,0Z"/><path class="cls-9" d="M109.1,232.8c1.8,15.1,1.3,21.4,1.6,25.6-1,.2-1.9.5-2.8.7-.9.2-1.8.5-2.6.7h0c-1.4-10.5-1.6-17.6-4-27.8-2.7-11.6-10-20.9-16.5-30.3h0c1.8-.2,3.6-.3,5.5-.5,4.7,4.1,17.9,22.9,18.9,31.7Z"/><path class="cls-7" d="M97.8,261.6c2.4-.5,4.8-1.2,7.5-1.9.9-.2,1.7-.5,2.6-.7h0c-.8,7.6-1,20.6-2.4,30.1-1,1-1.5,2.3-1.9,3.6-.5,1.3-1.1,2.6-2.3,3.4-2.1,1.4-5.5.6-6.8-1.4h0c0,0,0-.2,0-.4-.3-3.8-1.5-21.5-4-31.3v-.3s0,0,0,0c2.5-.3,4.9-.7,7.4-1.3Z"/><path class="cls-7" d="M110.9,183.8h-.1c-2.3-5.4-12.6-17.6-15.8-24.2,2.5-1.5,5.3-4.6,8.7-7l.3.3c4.2,6.1,8.2,16.6,13,19.8-3,2.3-6.5,8.4-6.1,11.1Z"/><path class="cls-4" d="M105.2,259.7h0c-2.6.7-5.1,1.4-7.5,1.9-1.4-10.4-2.5-20.5-4.9-30.8-2.7-11.6-12.2-18.7-15.6-29.1v-.2c2.4,0,4.9,0,7.4,0h0c6.5,9.5,13.8,18.8,16.5,30.4,2.4,10.3,2.6,17.3,4,27.8Z"/><path class="cls-5" d="M111.6,68.1c.7,2.2.7,4.5-.3,9.4,0,.5-.2.9-.3,1.4h0c-.3-1-2.6-3.2-3.6-3.2-1,0-2,.2-3,.3-2.2.1-4.4-.9-6.2-2.2-1.9-1.3-3.5-2.8-5.5-3.9-2.2-1.2-4-1.7-6.3-1.6-2.1.1-3.9.5-5.8,1.6-1.9,1-3.1,3-4,5-1.6,3.4-2.5,7.1-4.6,10.3-.7,1.1-1.7,2.2-2.9,2.5-1.3.3-2.4-.8-2.9-2-.7-1.6-2.7-2-4.1-1.1-1.4.9-2,2.7-2.2,4.4,0,.6,0,1.1,0,1.7h-1.2c-.2-2-.2-4.1-.3-6.3-.4-8.7,1.4-25.6,13.1-28.6,19.5-5,38.1,5.2,40.3,12.3Z"/><path class="cls-7" d="M84.4,105.2l-.2.2c-1.5,7.5,8.6,11.8,11.2,4.4-4.3-.4-7.2-2.1-11-4.6ZM82.4,117.3v.2c.5.3,1,1,1.4,1.7.4.6.7,1.3.9,1.8,0,.2.2.4.2.7.4,1.4.7,3.4,0,4.4-.4.5-1.2,1.1-2.4,1.5-1.2.5-2.8.8-4.5.9-.8,0-1.5,0-2.3-.1-.9-.1-1.6-.3-2.4-.4-1.9-.5-3.6-1.1-5.3-2-.8-.4-1.7-.9-2.5-1.4-.7-.5-1.5-.9-2.2-1.4-2-1.4-3.8-3.1-4.6-5.4,0,0,0-.2,0-.2,1-.3,3.1-1.1,4.3-1.5.5-2.9.9-7.9.9-12.3,0-2.6-.1-4.9-.4-6.3v-.4c0,0-.2,0-.3-.1-2.1-1.1-3.3-3.5-3.4-6.1,0-.6,0-1.1,0-1.7.2-1.7.9-3.5,2.2-4.4,1.4-.9,3.4-.5,4.1,1.1.5,1.2,1.7,2.3,2.9,2,1.3-.3,2.2-1.4,2.9-2.5,2.1-3.1,3-6.9,4.6-10.3.9-2,2.1-3.9,4-5,1.9-1.1,3.7-1.4,5.8-1.6,2.3-.1,4.2.4,6.3,1.6,2,1.1,3.7,2.6,5.5,3.9,1.9,1.3,4,2.3,6.2,2.2,1,0,2-.3,3-.3,1,0,3.3,2.2,3.6,3.2h0c-.7,4-1.3,7.7-2.2,10.7-1.3,4.2-2,4.3-2.6,6.6-.6,1.9-.6,9.8-7.9,17.8,0,0-4.3,5.1-8.1,5.7-1.1.2-4.1-.5-7.8-2.2ZM103.8,94.9c.3-1.4,0-2.7-.9-2.8-.8-.2-1.7.8-2.1,2.2-.3,1.4,0,2.7.9,2.8.8.2,1.7-.8,2.1-2.2ZM88.2,91.3c.3-1.3-.1-2.6-.9-2.7-.8-.2-1.8.8-2.1,2.1-.3,1.4.1,2.6.9,2.7.8.2,1.8-.8,2.1-2.1Z"/><path class="cls-11" d="M94.3,151.8c.2-7.3,0-14.4-1-20.8-.5-3.1-2.1-6.7-4.1-9.3h0c9.3,6.8,12.5,24,16.1,29.9-.5.3-1.1.7-1.6,1-3.4,2.4-6.2,5.5-8.7,7-.6-1.2-.9-2.3-.9-3.1h0c0-1.6.2-3.2.2-4.8Z"/><path class="cls-8" d="M73.1,215c-.7,2.1-1.4,4.5-2.2,7.1-.6,2.1-1.3,4.3-2,6.6h-.1c.2-9.3,4.2-18.4,4.2-26.5v-.7c1.5,0,2.9.2,4.4.2v.2c3.4,10.4,12.9,17.4,15.6,29.1,2.4,10.3,3.5,20.4,4.9,30.8-2.5.6-4.9,1-7.4,1.3-1.4-10.5-1.6-20.4-5-30.4-2.1-6.3-7.1-13-12-17.4h-.3Z"/><path class="cls-3" d="M103,92.1c.8.2,1.2,1.4.9,2.8-.3,1.4-1.3,2.4-2.1,2.2-.8-.2-1.2-1.4-.9-2.8.3-1.4,1.2-2.4,2.1-2.2Z"/><path class="cls-12" d="M90.4,262.9s0,0-.1,0c-1.6.2-3.2.3-4.9.3-.9-6.8,1.7-27.1-14.4-41h-.2c.8-2.6,1.5-5,2.2-7.1h.3c4.9,4.5,9.9,11.2,12,17.5,3.4,10,3.5,20,5,30.4Z"/><path class="cls-11" d="M70.5,148.2c1.5,0,3.1,0,4.6,0,1.5,0,3,.2,4.5.3,1.6.2,3.3.4,4.9.7,1.3.2,2.6.5,3.9.8,2,.5,4,1.1,6,1.7,0,1.6-.1,3.2-.2,4.7-.9,15.3-3.3,31.3-3.9,44.6-1.9.2-3.7.3-5.5.4-2.6.1-5,.1-7.4,0-1.5,0-2.9,0-4.3-.2-2.5-.2-4.9-.4-7.4-.7-1.9-.3-3.7-.5-5.6-.9h0s.2-1,.2-1c.5.1,1,0,1.3,0,2-.9,6.4-9.5,5.2-11.9-1.1-2.2-11.2-4.4-13.1-2.7h0c-2.6-3.2-4.2-7.5-6-12h.3c.8-7.3,1.8-14.4,1.8-20.2h.2c1.2-.4,2.4-.8,3.7-1.1,1.3-.4,2.6-.7,3.9-1,1.5-.3,3.1-.6,4.6-.8,1.5-.2,2.9-.4,4.4-.5,1.4-.1,2.7-.2,4.1-.2Z"/><path class="cls-4" d="M93.3,131c1.1,6.4,1.3,13.5,1,20.8-2-.7-4-1.2-6-1.7h1.3c-.2-10.1-.4-19.1-4.5-28.4h-.2c0-.2-.2-.4-.2-.6-.2-.5-.5-1.2-.9-1.8h.6c1.8.4,3.4,1.3,4.8,2.3h0c2,2.7,3.6,6.3,4.1,9.4Z"/><path class="cls-8" d="M89.6,150h-1.3c-1.3-.2-2.6-.5-3.9-.7v-.3c.8-7.9.4-13.9-1.9-21.3,1.2-.4,2-1,2.4-1.5.6-1,.4-3,0-4.4h.2c4.2,9.2,4.3,18.3,4.5,28.3Z"/><path class="cls-10" d="M95.4,109.8c-2.6,7.4-12.6,3.1-11.2-4.4l.2-.2c3.8,2.5,6.6,4.2,11,4.6Z"/><path class="cls-3" d="M87.3,88.6c.8.2,1.3,1.4.9,2.7-.3,1.4-1.3,2.3-2.1,2.1-.8-.2-1.3-1.4-.9-2.7.3-1.3,1.3-2.3,2.1-2.1Z"/><path class="cls-12" d="M82.6,127.6c2.3,7.4,2.7,13.4,2,21.3v.3c-1.7-.3-3.3-.5-4.9-.7v-.2c.6-7.4-.5-13-1.5-19.8h0c1.7-.2,3.2-.5,4.5-1Z"/><path class="cls-4" d="M78.1,128.6c1,6.8,2.1,12.3,1.5,19.8v.2c-1.5-.2-3-.3-4.5-.3.5-6.3-.2-13.5-1.7-20.3.8.2,1.6.3,2.4.4.8.1,1.6.1,2.3.1h0Z"/><path class="cls-12" d="M73,201.4v.7c0,8.2-4.1,17.3-4.2,26.5h.1c-3.9,12.9-8.5,27.9-14.1,35.2-1.5-.2-2.9-.4-4.2-.7l.2-.5c11.5-17,10.9-41.8,14.7-61.2v-.7c2.6.3,5,.6,7.5.7Z"/><path class="cls-9" d="M73.4,127.9c1.5,6.8,2.2,14,1.7,20.3-1.5,0-3.1,0-4.6,0,0-7.5-.7-14.3-2.4-22.2h0c1.7.8,3.3,1.4,5.3,1.9Z"/><path class="cls-8" d="M68.1,126.1c1.7,7.9,2.5,14.7,2.4,22.2-1.4,0-2.7.1-4.1.2h0c0-8.5-1.1-17-3-25.3h0c.7.4,1.5.9,2.2,1.4.8.5,1.7,1,2.5,1.4h0Z"/><path class="cls-7" d="M53.6,184.2h0c2-1.8,12,.4,13.1,2.6,1.2,2.4-3.3,11.1-5.2,11.9-.4.2-.8.2-1.3,0-2.9-.6-7.7-4.8-8.8-6.5-2.3-1.7-4.3-3.5-6.2-5.5-6.7-7-10.8-15.2-15.7-23.7-1.6-2.8-1.3-6.6.6-11.6h0c2.8,1.5,7.4,3.4,11.8,4.9-.8,1.2.2,1-1,2.8,2.9,3.9,4.8,8.5,6.6,12.9,1.8,4.5,3.5,8.8,6,12.1Z"/><path class="cls-9" d="M50.3,263.1c-2.6-.6-4.7-1.4-6.6-2.3v-.2c11.6-17,9-41,12.5-61v-.5c1.4.3,2.6.5,3.8.7h0c1.9.3,3.7.6,5.6.9v.7c-3.9,19.4-3.4,44.3-14.8,61.2l-.2.5c-.1,0-.2,0-.3,0Z"/><path class="cls-12" d="M66.4,148.4h0c-1.5.2-2.9.3-4.4.6h0c.3-8.2-1.1-16.6-3-24.6,0-.4,0-.7-.2-1-1.4-3.2-3.4-4.5-7.2-3.6,1.8-.5,4.6-1.5,6.6-1.9l.5-.2c.8,2.3,2.6,4,4.6,5.4h0c2,8.3,3,16.8,3,25.3Z"/><path class="cls-6" d="M22.6,290.2h.5c.3,2.5,8.5,2.6,9.5,1.5,0,0,.1-.1.2-.2,1-1,2-2,3.3-2.5,1.3-.5,2.4-.4,3.2.5h-.3c6.3,11.3,4.1,11.2,13.8,16.3,1.4.7,2.9.2,3.3,1.6,1.8,7-1.9,10.9-8.4,9.6-10.2-2.1-15.8-4.8-31.3-14.3-1-.6-2.2-1.2-2.5-2.3-.2-.8.1-1.6.5-2.3,1.5-3.2,4.8-6.1,7.2-8.9l1,.2c0,.3-.1.5-.2.8Z"/><path class="cls-11" d="M60.2,198.8l-.2,1c-1.2-.2-2.4-.4-3.6-.7-2.3-.5-4.7-1-7.1-1.6-1.8-.4-3.6-.9-5.6-1.4l-1-.3c1.8-4.7,1.2-3.6,2.1-8.5l.5-.4c1.8,1.9,3.9,3.7,6.2,5.5,1,1.7,5.9,5.9,8.8,6.5Z"/><path class="cls-4" d="M62,148.9h0c-1.6.2-3.1.5-4.6.9.3-5.2-.7-10.9-1.4-15.7h-.2c1.9-4.1,3.2-7.7,3.2-9.7,1.9,8,3.3,16.4,3,24.6Z"/><path class="cls-5" d="M63.9,103.7h-.2c-3.7-3.4-4.8-8-5.2-12.9h1.2c.2,2.4,1.4,4.9,3.4,6,.1,0,.2.1.3.1v.4c.2,1.5.3,3.8.3,6.3Z"/><path class="cls-4" d="M56.3,199.1v.5c-3.6,20-1,44.1-12.5,61v.2c-2.5-1.2-4.7-2.6-7.1-4.2l.2-.3c11.5-17,7.6-39.1,12.2-58.6v-.3c2.5.6,4.9,1.1,7.2,1.6Z"/><path class="cls-11" d="M49.3,146.3c-2.9,4.9-5.6,9-6.9,10.2-.1,0-.3,0-.4-.1-4.4-1.5-9-3.4-11.8-4.9-1.5-.8-2.5-1.4-2.6-1.9-.3-.9,7.5-16.3,8.2-17.5,3.4-5.9,8-10,15.2-12.2.2,0,.4-.1.7-.2,0,0,0,0,0,0,3.8-.9,5.7.4,7.2,3.6.1.3.2.6.2,1,0,2-1.3,5.5-3.2,9.6-1,2.2-2.2,4.6-3.5,6.9-1,1.9-2.1,3.7-3.1,5.5Z"/><path class="cls-9" d="M56,134c.7,4.8,1.6,10.5,1.4,15.7-1.3.3-2.6.6-3.9,1-.2-3.3-.5-6.6-1.1-9.9,1.3-2.3,2.5-4.7,3.5-6.9h.2Z"/><path class="cls-8" d="M52.4,140.9c.6,3.3.9,6.6,1.1,9.9-1.2.3-2.5.7-3.7,1.1h-.2c0-2.1,0-3.9-.3-5.6,1-1.7,2.1-3.6,3.1-5.5Z"/><path class="cls-8" d="M49.2,197.5v.3c-4.6,19.5-.8,41.6-12.3,58.6l-.2.3c-.7-.5-1.5-1-2.3-1.5-1-.6-2-1.2-3.2-1.9,12.9-16.9,5.7-39.5,12.4-57.1h0c1.9.4,3.7.8,5.6,1.3Z"/><path class="cls-7" d="M43.7,260.8c1.9.9,4,1.7,6.6,2.3-4.5,7.7-12.1,22-17.6,28.4h0c0,.1-.1.2-.2.3-1,1-9.2.9-9.5-1.5h-.5c0-.3.1-.6.2-.9,2.1-9.4,6.3-26.7,11.6-34.3.8.5,1.6,1,2.3,1.5,2.5,1.6,4.6,3,7,4.2Z"/><path class="cls-1" d="M108.8,89.5c-1.3,4.2-2,4.3-2.6,6.6-.6,1.9-.6,9.8-7.9,17.8,0,0-4.3,5.1-8.1,5.7-1.1.2-4.1-.5-7.8-2.2-4.1-1.9-9.2-5.1-13.5-9.7"/><path class="cls-1" d="M106,88.9c-1.1-1.7-3.3-2.4-4.7-1.4"/><path class="cls-1" d="M83.2,83.3c3.6-1,7-.4,8.2,1.4"/><path class="cls-1" d="M98.7,103c-.2,4-8.6,1.6-9.8.2"/><path class="cls-1" d="M100.9,94.3c-.3,1.4,0,2.7.9,2.8.8.2,1.7-.8,2.1-2.2.3-1.4,0-2.7-.9-2.8-.8-.2-1.7.8-2.1,2.2Z"/><path class="cls-1" d="M85.2,90.7c-.3,1.4.1,2.6.9,2.7.8.2,1.8-.8,2.1-2.1.3-1.3-.1-2.6-.9-2.7-.8-.2-1.8.8-2.1,2.1Z"/><path class="cls-1" d="M95.4,109.8c-4.3-.4-7.2-2.1-11-4.6-.3-.2-.6-.4-.9-.6"/><path class="cls-1" d="M95.4,109.8c-2.6,7.4-12.6,3.1-11.2-4.4"/><path class="cls-1" d="M63.5,97.4c.3,1.5.4,3.8.4,6.3,0,4.3-.4,9.4-.9,12.3-.1.8-.3,1.4-.5,1.8"/><path class="cls-1" d="M63.3,115.9c0,0-.2,0-.3.1-1.2.4-3.3,1.2-4.3,1.5,0,0,0,.2,0,.2.8,2.3,2.6,4,4.6,5.4.7.5,1.5,1,2.2,1.4.8.5,1.7,1,2.5,1.4,1.7.9,3.3,1.5,5.3,2,.8.2,1.6.3,2.4.4.8.1,1.6.1,2.3.1,1.7,0,3.2-.4,4.5-.9,1.2-.4,2-1,2.4-1.5.6-1,.4-3,0-4.4,0-.2-.2-.5-.2-.7-.2-.5-.5-1.2-.9-1.8-.4-.7-.9-1.4-1.5-1.7-.2,0-.4-.1-.6-.1"/><path class="cls-1" d="M51.7,119.8c3.8-.9,5.7.4,7.2,3.6.1.3.2.6.2,1,0,2-1.3,5.5-3.2,9.6-1,2.2-2.2,4.6-3.5,6.9-1,1.9-2.1,3.7-3.1,5.5-2.9,4.9-5.6,9-6.9,10.2-.1,0-.3,0-.4-.1-4.4-1.5-9-3.4-11.8-4.9-1.5-.8-2.5-1.4-2.6-1.9-.3-.9,7.5-16.3,8.2-17.5,3.4-5.9,8-10,15.2-12.2.2,0,.5-.1.7-.2"/><path class="cls-1" d="M44.8,187.3c-.9,4.9-.3,3.8-2.1,8.5l1,.3c1.9.5,3.7,1,5.6,1.4,2.4.6,4.8,1.1,7.1,1.6,1.2.3,2.4.5,3.6.7h0c1.9.3,3.7.6,5.6.9,2.4.3,4.9.6,7.4.7,1.4,0,2.8.2,4.3.2,2.4,0,4.9,0,7.4,0,1.8,0,3.6-.2,5.5-.4.6-13.3,3-29.3,3.9-44.6,0-1.6.2-3.2.2-4.7.2-7.3,0-14.4-1-20.8-.5-3.1-2.1-6.7-4.1-9.3"/><path class="cls-1" d="M49.3,146.2c0,0,0,.1,0,.2.3,1.6.4,3.5.3,5.6,0,5.8-.9,12.9-1.8,20.1"/><path class="cls-1" d="M30.2,151.5c-2,5.1-2.3,8.8-.6,11.6,4.9,8.5,9,16.7,15.7,23.7,1.8,1.9,3.9,3.7,6.2,5.5"/><path class="cls-1" d="M42,156.4s0,0,0,0c-.8,1.2.2,1-1,2.8,2.9,3.9,4.8,8.5,6.6,12.9,1.8,4.5,3.5,8.8,6,12.1l.4.5"/><path class="cls-1" d="M84.4,119.2c1.8.5,3.4,1.3,4.8,2.4,9.3,6.9,12.5,24.1,16.1,30-.5.3-1.1.7-1.6,1-3.4,2.4-6.2,5.5-8.7,7-.3.2-.6.4-.9.5"/><path class="cls-1" d="M53.7,184.1c2-1.7,12,.4,13.1,2.7,1.2,2.4-3.3,11.1-5.2,11.9-.4.2-.8.2-1.3,0-2.9-.6-7.7-4.8-8.8-6.5"/><path class="cls-1" d="M94.1,156.6c0,.8.3,1.8.9,3.1,3.2,6.6,13.5,18.8,15.8,24.2"/><path class="cls-1" d="M104,152.9c4.2,6.1,8.2,16.6,13,19.8,0,0,0,0,.1,0,0,0,0,0,0,0"/><path class="cls-1" d="M117,172.7s0,0,0,0c-3,2.3-6.5,8.4-6.1,11.1,0,.1,0,.2,0,.3.4,1.4,1.5,2.5,2.8,3.3,2.7,1.6,4.3,1,7-.8s6-4.5,4.7-7.2c-1.3-2.7-5.1-7.6-8.2-6.8"/><path class="cls-1" d="M43.6,196.2c-6.7,17.6.5,40.2-12.4,57.1,1.1.6,2.2,1.3,3.2,1.9.8.5,1.6,1,2.3,1.5,2.5,1.6,4.6,3,7,4.2,1.9.9,4,1.7,6.6,2.3.1,0,.2,0,.3,0,1.3.3,2.6.5,4.2.7,5.6-7.3,10.2-22.3,14.1-35.2.7-2.3,1.3-4.5,2-6.6.8-2.6,1.5-5,2.2-7.1.7-2.1,1.3-3.9,2-5.3"/><path class="cls-1" d="M50.4,262.9c0,0,0,.2-.1.2-4.5,7.7-12.1,22-17.6,28.4"/><path class="cls-1" d="M34.4,255.1c-5.3,7.6-9.5,24.9-11.6,34.3,0,.3-.1.5-.2.8,0,0,0,.2,0,.2"/><path class="cls-1" d="M71,222.1c16.1,13.9,13.5,34.2,14.4,41,1.7,0,3.3,0,4.9-.3,0,0,0,0,.1,0,2.5-.3,4.9-.7,7.4-1.3,2.4-.5,4.8-1.2,7.5-1.9.9-.2,1.7-.5,2.6-.7.9-.2,1.9-.5,2.8-.7-.3-4.2.1-10.4-1.6-25.6-1-8.8-14.2-27.6-18.9-31.7"/><path class="cls-1" d="M90.3,263.2c2.4,9.8,3.7,27.5,4,31.3,0,.1,0,.3,0,.4,0,.3,0,.4,0,.3"/><path class="cls-1" d="M107.9,259.1c-.8,7.6-1,20.6-2.4,30.1"/><path class="cls-1" d="M51,120c.2,0,.4-.1.7-.2,0,0,0,0,0,0,1.8-.5,4.6-1.5,6.6-1.9"/><path class="cls-1" d="M94.4,294.8c1.3,2,4.7,2.9,6.8,1.4,1.2-.8,1.8-2.2,2.3-3.4.5-1.3.9-2.6,1.9-3.6s2.1-1.3,3.4-.5"/><path class="cls-1" d="M92.9,294.5c-.9,3.4-1.4,7-1.4,10.5,0,.8,0,1.7.6,2.3.8.9,2.2,1.1,3.5,1.2,10.7,1.1,17.6,4.5,28.3,4.1,3.5-.1,7.2-.5,10-2.4,2.8-1.8,4.1-5.6,1.9-8-1.1-1.1-2.7-1.7-4.2-2.2-8.9-3-13.9-8.3-22.7-11.3"/><path class="cls-1" d="M23.1,290.3c.3,2.4,8.5,2.5,9.5,1.5,0,0,.1-.1.2-.2,1-1,2-2,3.3-2.5,1.3-.5,2.4-.4,3.2.5,0,0,.1.2.2.3"/><path class="cls-1" d="M21.7,289.2c-2.4,2.8-5.7,5.7-7.2,8.9-.4.7-.7,1.5-.5,2.3.3,1.1,1.5,1.7,2.5,2.3,15.4,9.5,21,12.2,31.3,14.3,6.5,1.3,10.2-2.6,8.4-9.6-.3-1.4-1.9-.9-3.3-1.6-9.8-5-7.5-5-13.8-16.1"/><path class="cls-2" d="M108.8,89.5c.9-2.9,1.5-6.6,2.2-10.7,0-.4.2-.9.3-1.4.9-4.9,1-7.2.3-9.4-2.2-7.1-20.8-17.2-40.3-12.3-11.7,3-13.4,19.9-13.1,28.6,0,2.1.2,4.3.3,6.4.4,4.9,1.5,9.5,5.2,12.9"/><path class="cls-2" d="M66.6,96.2c-.5,1.1-1.9,1.2-3,.8-.1,0-.2,0-.3-.1-2.1-1.1-3.3-3.5-3.4-6.1,0-.6,0-1.1,0-1.7.2-1.7.9-3.5,2.2-4.4,1.4-.9,3.4-.5,4.1,1.1.5,1.2,1.7,2.3,2.9,2,1.3-.3,2.2-1.4,2.9-2.5,2.1-3.1,3-6.9,4.6-10.3.9-2,2.1-3.9,4-5,1.9-1.1,3.7-1.4,5.8-1.6,2.3-.1,4.2.4,6.3,1.6,2,1.1,3.7,2.6,5.5,3.9,1.9,1.3,4,2.3,6.2,2.2,1,0,2-.3,3-.3,1,0,3.3,2.2,3.6,3.2"/><path class="cls-1" d="M49.1,197.8c-4.5,19.5-.7,41.6-12.2,58.6"/><path class="cls-1" d="M56.2,199.6c-3.5,20-.9,44.1-12.3,61"/><path class="cls-1" d="M65.5,201.4c-3.8,19.4-3.3,44.3-14.7,61.2"/><path class="cls-1" d="M72.9,202.1c0,8.2-4,17.3-4.2,26.5"/><path class="cls-1" d="M73.4,215.1c4.9,4.4,9.9,11.1,12,17.4,3.4,10,3.5,20,5,30.4,0,0,0,0,0,0"/><path class="cls-1" d="M77.3,201.8c3.5,10.4,12.9,17.4,15.6,29.1,2.4,10.3,3.5,20.4,4.9,30.8,0,0,0,0,0,0"/><path class="cls-1" d="M84.7,201.6c6.5,9.4,13.8,18.7,16.5,30.3,2.4,10.3,2.6,17.3,4,27.8"/><path class="cls-1" d="M49.8,151.9c1.2-.4,2.4-.8,3.7-1.1,1.3-.4,2.6-.7,3.9-1,1.5-.3,3.1-.6,4.6-.8,1.5-.2,2.9-.4,4.4-.5,1.4-.1,2.7-.2,4.1-.2,1.5,0,3.1,0,4.6,0,1.5,0,3,.2,4.5.3,1.6.2,3.3.4,4.9.7,1.3.2,2.6.5,3.9.8,2,.5,4,1.1,6,1.7,0,0,0,0,0,0"/><path class="cls-1" d="M52.4,140.8h0c.6,3.4.9,6.7,1.1,10,0,.1,0,.2,0,.3"/><path class="cls-1" d="M56,134c.7,4.8,1.6,10.5,1.4,15.7h0"/><path class="cls-1" d="M58.9,123.7c0,.2.1.4.2.7,1.9,8,3.3,16.4,3,24.6"/><path class="cls-1" d="M63.3,123.2c2,8.2,3,16.7,3,25.2"/><path class="cls-1" d="M68.1,126.1c1.7,7.9,2.5,14.7,2.4,22.2,0,.1,0,.2,0,.3"/><path class="cls-1" d="M73.4,127.9s0,0,0,0c1.5,6.8,2.2,14,1.7,20.3,0,0,0,0,0,.1"/><path class="cls-1" d="M78.1,128.6c1,6.8,2.1,12.3,1.5,19.8"/><path class="cls-1" d="M82.5,127.5s0,0,0,.1c2.3,7.4,2.7,13.4,2,21.3"/><path class="cls-1" d="M85.1,121.7c4.2,9.3,4.3,18.3,4.5,28.3"/></svg>