<?xml version="1.0" encoding="UTF-8"?><svg id="africa" xmlns="http://www.w3.org/2000/svg" width="235" height="321.9" viewBox="0 0 235 321.9"><defs><style>.cls-1{stroke-linecap:round;stroke-linejoin:round;}.cls-1,.cls-2{fill:none;stroke:#000;}.cls-2{stroke-miterlimit:10;}.cls-3,.cls-4,.cls-5,.cls-6,.cls-7,.cls-8,.cls-9{stroke-width:0px;}.cls-4{fill:#5f4c4a;}.cls-5{fill:#26affa;}.cls-6{fill:#94df5d;}.cls-7{fill:#434343;}.cls-8{fill:#c2c8c3;}.cls-9{fill:#fff;}</style></defs><path class="cls-7" d="M92.6,294.6h0c1.4,2.1,5,3,7.3,1.5,1.3-.9,1.9-2.3,2.4-3.7.5-1.4,1-2.8,2.1-3.9s2.3-1.4,3.6-.5h.1c9.5,3.3,14.9,8.9,24.3,12.2,1.6.6,3.3,1.2,4.5,2.3,2.4,2.5,1,6.6-2,8.5-3,2-7,2.4-10.7,2.5-11.5.4-18.9-3.2-30.3-4.4-1.4-.1-2.9-.4-3.7-1.3-.6-.7-.6-1.6-.7-2.5,0-3.8.5-7.5,1.5-11.2h1.5c0,0,0,.2,0,.4Z"/><path class="cls-4" d="M129,177.7c1.4,2.9-2.2,5.8-5,7.7-2.8,1.9-4.5,2.6-7.5.9-1.4-.8-2.6-2.1-3-3.5,0-.1,0-.2,0-.3-.6-2.6,1.2-5.3,3.6-6.8,2.5-1.6,0-.8,3.1-1.5,3.4-.9,7.3.8,8.8,3.6Z"/><path class="cls-4" d="M120.2,174.1c-3,.6-.6-.1-3.1,1.5-2.4,1.5-4.2,4.2-3.6,6.8h-.1c-2.4-5.7-15.1-13.3-19.4-18.7,2.6-1.7,5.4-4.8,8.9-7.2,4.5,6.6,12,14.5,17.3,17.7Z"/><path class="cls-8" d="M46.4,268.1c-7.4-1.7-10.9-4.7-17-8.5-1-.6-2.2-1.3-3.4-2,13.7-18,6.1-42.2,13.3-61h0c17.8,4.6,31,7,49.8,5.3,5,4.4,19.2,24.5,20.2,33.8,1.9,16.2,1.4,22.8,1.7,27.3-1,.3-2,.5-3,.8-7.1,1.8-12.7,3.5-18.8,4.1-1.7.2-3.4.3-5.2.3-1-7.3,1.8-29-15.4-43.9h-.2c-4.5,14.9-10.1,35.4-17.2,44.6-1.8-.2-3.3-.5-4.8-.8Z"/><path class="cls-4" d="M107.9,263.8c-.8,8.2-1.9,14.6-3.4,24.8-1.1,1.1-1.6,2.5-2.1,3.9-.5,1.4-1.1,2.8-2.4,3.7-2.3,1.5-5.9.6-7.3-1.5h0c0-.1,0-.3,0-.5-.2-3.3-1-15.9-3.5-26v-.3c6.1-.6,11.7-2.3,18.8-4.1Z"/><path class="cls-4" d="M59.9,104c-5.5-5.2-7.2-12.1-7.6-19.7-.4-9.3,2.7-26.2,17.7-29.9,20.8-5.2,32.8,5.9,36.6,11.7,3.2,5,3.6,16.9,1.7,22.9-1.4,4.5-2.1,4.6-2.8,7.1-.6,2.1-.6,10.4-8.5,19,0,0-4.5,5.4-8.7,6-1.2.2-4.4-.6-8.3-2.4v.2c-.3,0-.6-.1-.8-.1-.7,3.2,1.7,5.4,0,7.1-1.8,1.7-4.9,2.1-7.4,1.5-2.6-.6-11.6-4.2-13-7.8,0,0,0-.2-.1-.3h.1c1-2.4,1.5-10,1.1-15.3ZM83.6,104.8l-.2.2c-.1,12.2,9.2,12.6,11.9,4.7-4.6-.5-7.7-2.3-11.7-4.9ZM103,94.7c.4-1.5,0-2.8-.9-3-.9-.2-1.8.9-2.2,2.4-.4,1.5,0,2.8.9,3,.9.2,1.8-.9,2.2-2.4ZM102.1,88.9c1,.2,2.3-.3,3.2-.6-.2-2.4-4-2.8-5-1.5,0,1,.8,1.9,1.8,2.1ZM88.6,85.2c.7,0,.9-.8,1.1-1.5-1.3-1.9-6.1-3.6-8.8-1.5,2,.9,3.6,1.9,5.7,2.6.7.2,1.3.4,2,.3ZM86.3,90.9c.3-1.4-.1-2.7-1-2.9-.9-.2-1.9.8-2.2,2.3-.3,1.4.1,2.8,1,2.9.9.2,1.9-.8,2.2-2.3Z"/><path class="cls-6" d="M104.6,155.3c-.6.3-1.1.7-1.7,1.1-3.5,2.4-6.3,5.5-8.9,7.2-.7-1-1.2-1.8-1.3-2.6.6-9.4.6-18.6-.9-27.7-.6-3.3-2.3-7.2-4.4-10h.1c9.9,7.2,13.4,25.7,17.2,32Z"/><path class="cls-3" d="M102.1,91.7c.9.2,1.3,1.5.9,3-.4,1.5-1.3,2.6-2.2,2.4-.9-.2-1.3-1.5-.9-3,.4-1.5,1.3-2.6,2.2-2.4Z"/><path class="cls-3" d="M105.3,88.3c-1,.3-2.2.7-3.2.6s-1.7-1.1-1.8-2.1c1.1-1.3,4.9-.9,5,1.5Z"/><path class="cls-5" d="M92.6,161c-.9,13.7-3.1,27.5-3.6,40.9-18.7,1.7-31.9-.7-49.8-5.5-.4,0-.7-.2-1.1-.3,1.9-5,1.9-4,2.9-9.2h0c.8.5,1.6,1.2,2.5,1.9,1.2,2,7.4,7.3,9.6,6.3,1.9-.9,6.1-9.4,5-11.8-1-2.2-10.6-4.4-12.5-2.6h0c-1.3-1.6-2.4-3.1-3.4-4.6h.4c1.2-10.6,2.9-19.8,1.9-26.4,5.5-9.4,11.6-21.6,10.2-24.5-1.5-3.4-3.6-4.8-7.7-3.9,1.9-.5,4.9-1.6,7-2l.6-.2c1.2,3.3,4.3,5.4,7.3,7.3,3.4,2.1,6.4,3.5,10.9,4.1,4.3.6,8.9-1,9.8-2.4.8-1.2.3-4.1-.3-5.4-.2-.5-.6-1.3-1-2h.7c1.9.5,3.6,1.3,5.2,2.5h-.1c2.1,2.9,3.8,6.8,4.4,10.1,1.5,9.1,1.5,18.4.9,27.7Z"/><path class="cls-9" d="M95.3,109.7c-2.7,7.9-12,7.5-11.9-4.7l.2-.2c4,2.7,7.1,4.5,11.7,4.9Z"/><path class="cls-3" d="M89.7,83.8c-.2.7-.4,1.4-1.1,1.5-.7,0-1.4-.1-2-.3-2.1-.7-3.6-1.7-5.7-2.6,2.7-2.1,7.5-.4,8.8,1.5Z"/><path class="cls-3" d="M85.3,87.9c.9.2,1.3,1.5,1,2.9-.3,1.4-1.3,2.5-2.2,2.3-.9-.2-1.4-1.5-1-2.9.3-1.4,1.3-2.5,2.2-2.3Z"/><path class="cls-6" d="M82.5,122.7c.6,1.3,1.1,4.2.3,5.4-1,1.4-5.5,3-9.8,2.4-4.4-.6-7.4-2-10.9-4.1-3-1.8-6.1-4-7.3-7.3,0,0,0-.2,0-.3,1.1-.4,2.2-.8,3.4-1.2.2.4.4,1,.6,1.5,0,.1,0,.2.1.3,1.4,3.6,10.4,7.2,13,7.8,2.6.6,5.6.2,7.4-1.5,1.8-1.7-.6-3.9,0-7.1.2,0,.4,0,.6.1.6.3,1.2,1,1.6,1.8.4.7.7,1.4,1,2Z"/><path class="cls-7" d="M19.5,290.8h.6c.3,2.6,9.1,2.8,10.2,1.7,0,0,.1-.1.2-.2,1-1,2.1-2.1,3.6-2.7,1.4-.5,2.6-.5,3.4.6h-.3c6.8,12.1,4.3,12,14.8,17.4,1.5.8,3.1.2,3.5,1.7,1.9,7.5-2.1,11.7-9,10.3-10.9-2.2-16.9-5.1-33.4-15.2-1.1-.7-2.4-1.3-2.7-2.5-.2-.8.2-1.7.5-2.5,1.6-3.4,5.2-6.5,7.7-9.5l1.1.2c0,.3-.1.6-.2.8Z"/><path class="cls-4" d="M45.7,180.7h0c1.9-1.8,11.5.4,12.5,2.6,1.1,2.4-3.1,10.9-5,11.8-2.3,1-8.4-4.3-9.6-6.3-.9-.7-1.7-1.3-2.5-2-8.6-6.7-13.4-11.1-18.8-20.9-1.6-2.8-1.3-6.5.6-11.5,2.3,1.4,7,3.5,11.8,5.2-.8,1.3-.3.6-1.5,2.3,4.2,5.8,6.3,9.9,9.1,14.1,1,1.5,2.1,3,3.4,4.6Z"/><path class="cls-6" d="M44.7,149.7c-3.1,5.3-6,9.6-7.3,10.9-.9-.3-1.7-.6-2.6-.9-4.8-1.7-9.5-3.8-11.8-5.2-.8-.5-1.3-.9-1.5-1.2-.4-.9,8-17.5,8.8-18.7,3.7-6.3,8.5-10.7,16.2-13,.2,0,.5-.1.7-.2,0,0,0,0,0,0,4-1,6.1.4,7.7,3.9,1.3,3-4.7,15.2-10.2,24.5Z"/><path class="cls-4" d="M46.4,268.1c-4.8,8.1-10.2,17.3-16.1,24.1h0c0,.1-.1.2-.2.3-1.1,1.1-9.9,1-10.2-1.6h-.6c0-.4.1-.7.2-1,2.1-9.6,4-22.3,9.7-30.4,6.1,3.8,9.7,6.8,17,8.5Z"/><path class="cls-1" d="M108.3,89c-1.4,4.5-2.1,4.6-2.8,7.1-.6,2.1-.6,10.4-8.5,19,0,0-4.5,5.4-8.7,6-1.2.2-4.4-.6-8.3-2.4-4.4-2-9.8-5.4-14.5-10.4"/><path class="cls-1" d="M105.3,88.3c-.2-2.4-4-2.8-5-1.5,0,1,.8,1.9,1.8,2.1s2.3-.3,3.2-.6Z"/><path class="cls-1" d="M81,82.3c2.7-2.1,7.5-.4,8.8,1.5-.2.7-.4,1.4-1.1,1.5-.7,0-1.4-.1-2-.3-2.1-.7-3.6-1.7-5.7-2.6Z"/><path class="cls-1" d="M97,102.6c.6,5.6-8.4,2.6-9.6,1.1"/><path class="cls-1" d="M99.9,94c-.4,1.5,0,2.8.9,3,.9.2,1.8-.9,2.2-2.4.4-1.5,0-2.8-.9-3-.9-.2-1.8.9-2.2,2.4Z"/><path class="cls-1" d="M83,90.2c-.3,1.4.1,2.8,1,2.9.9.2,1.9-.8,2.2-2.3.3-1.4-.1-2.7-1-2.9-.9-.2-1.9.8-2.2,2.3Z"/><path class="cls-1" d="M95.3,109.7c-4.6-.5-7.7-2.3-11.7-4.9-.3-.2-.6-.4-.9-.6"/><path class="cls-1" d="M95.3,109.7c-2.7,7.9-12,7.5-11.9-4.7"/><path class="cls-1" d="M59.6,100.9c.2.9.3,1.9.3,3,.4,5.3,0,12.9-1.1,15.2"/><path class="cls-1" d="M79.9,118.9c-.2,0-.4-.1-.6-.1-.7,3.2,1.7,5.4,0,7.1-1.8,1.7-4.9,2.1-7.4,1.5-2.6-.6-11.6-4.2-13-7.8,0,0,0-.2-.1-.3-.2-.5-.4-1.2-.6-1.5-1.1.4-2.2.8-3.4,1.2,0,0,0,.2,0,.3,1.2,3.3,4.3,5.4,7.3,7.3,3.4,2.1,6.4,3.5,10.9,4.1,4.3.6,8.9-1,9.8-2.4.8-1.2.3-4.1-.3-5.4-.2-.5-.6-1.3-1-2-.5-.8-1-1.5-1.6-1.8Z"/><path class="cls-1" d="M47.3,121.3c4-1,6.1.4,7.7,3.9,1.3,3-4.7,15.2-10.2,24.5-3.1,5.3-6,9.6-7.3,10.9-.9-.3-1.7-.6-2.6-.9-4.8-1.7-9.5-3.8-11.8-5.2-.8-.5-1.3-.9-1.5-1.2-.4-.9,8-17.5,8.8-18.7,3.7-6.3,8.5-10.7,16.2-13,.2,0,.5-.1.7-.2"/><path class="cls-1" d="M41.1,186.9c-1,5.2-1,4.2-2.9,9.2.4,0,.7.2,1.1.3,17.8,4.7,31,7.1,49.8,5.5.6-13.4,2.7-27.2,3.6-40.9.6-9.4.6-18.6-.9-27.7-.6-3.3-2.3-7.2-4.4-10"/><path class="cls-1" d="M44.7,149.5c0,0,0,.1,0,.2,1,6.6-.7,15.9-1.9,26.3"/><path class="cls-1" d="M23,154.5c-1.9,5-2.2,8.7-.6,11.5,5.5,9.8,10.3,14.2,18.8,20.9.8.6,1.6,1.3,2.5,2"/><path class="cls-1" d="M34.8,159.7c-.8,1.3-.3.6-1.5,2.3,4.2,5.8,6.3,9.9,9.1,14.1,1,1.5,2.1,3,3.4,4.6.1.2.2.3.4.5"/><path class="cls-1" d="M82.2,120.7c1.9.5,3.6,1.4,5.2,2.5,9.9,7.3,13.4,25.8,17.2,32.1-.6.3-1.1.7-1.7,1.1-3.5,2.4-6.3,5.5-8.9,7.2-.5.3-.9.6-1.4.8"/><path class="cls-1" d="M45.8,180.7c1.9-1.7,11.5.4,12.5,2.6,1.1,2.4-3.1,10.9-5,11.8-2.3,1-8.4-4.3-9.6-6.3"/><path class="cls-1" d="M92.6,160.6c0,.1,0,.3,0,.4.1.8.6,1.7,1.3,2.6,4.2,5.4,17,13.1,19.4,18.8"/><path class="cls-1" d="M102.9,156.4c4.5,6.6,12,14.5,17.3,17.7"/><path class="cls-1" d="M120.2,174.1c-3,.6-.6-.1-3.1,1.5-2.4,1.5-4.2,4.2-3.6,6.8,0,.1,0,.2,0,.3.4,1.5,1.6,2.7,3,3.5,2.9,1.7,4.6,1,7.5-.9,2.8-1.9,6.4-4.8,5-7.7-1.4-2.8-5.4-4.5-8.8-3.6"/><path class="cls-1" d="M39.2,196.5c-7.1,18.8.5,43-13.3,61,1.2.7,2.3,1.4,3.4,2,6.1,3.8,9.7,6.8,17,8.5,1.4.3,3,.6,4.8.8,7-9.2,12.7-29.8,17.2-44.7,1.6-5.4,3.1-10.1,4.5-13.3"/><path class="cls-1" d="M46.5,267.8c0,0-.1.2-.1.3-4.8,8.1-10.2,17.3-16.1,24.1"/><path class="cls-1" d="M29.3,259.5c-5.7,8.1-7.6,20.8-9.7,30.4,0,.3-.1.6-.2.8,0,0,0,.2,0,.2"/><path class="cls-1" d="M68.5,224.3c17.2,14.9,14.4,36.6,15.4,43.9,1.8,0,3.5,0,5.2-.3,6.1-.6,11.8-2.3,18.8-4.1,1-.3,2-.5,3-.8-.4-4.5.2-11.1-1.7-27.3-1.1-9.4-15.2-29.5-20.2-33.8"/><path class="cls-1" d="M89.1,268.1c2.5,10,3.3,22.6,3.5,26,0,.2,0,.3,0,.5,0,.3,0,.4,0,.4"/><path class="cls-1" d="M107.9,263.8c-.8,8.2-1.9,14.6-3.4,24.8"/><path class="cls-1" d="M46.5,121.5c.2,0,.5-.1.7-.2,0,0,0,0,0,0,1.9-.5,4.9-1.6,7-2"/><path class="cls-1" d="M92.7,294.6c1.4,2.1,5,3,7.3,1.5,1.3-.9,1.9-2.3,2.4-3.7.5-1.4,1-2.8,2.1-3.9s2.3-1.4,3.6-.5"/><path class="cls-1" d="M91.1,294.2c-1,3.7-1.5,7.4-1.5,11.2,0,.9,0,1.8.7,2.5.8,1,2.3,1.2,3.7,1.3,11.4,1.2,18.8,4.8,30.3,4.4,3.8-.1,7.7-.5,10.7-2.5,3-2,4.4-6,2-8.5-1.1-1.2-2.8-1.8-4.5-2.3-9.5-3.2-14.9-8.9-24.3-12.1"/><path class="cls-1" d="M20,290.9c.3,2.5,9.1,2.7,10.2,1.6,0,0,.1-.1.2-.2,1-1,2.1-2.1,3.6-2.7,1.4-.5,2.6-.5,3.4.6,0,0,.1.2.2.3"/><path class="cls-1" d="M18.5,289.8c-2.5,3-6.1,6.1-7.7,9.5-.4.8-.7,1.6-.5,2.5.3,1.2,1.6,1.8,2.7,2.5,16.5,10.1,22.5,13,33.4,15.2,6.9,1.4,10.9-2.8,9-10.3-.4-1.5-2-.9-3.5-1.7-10.5-5.4-8-5.3-14.8-17.2"/><path class="cls-2" d="M108.3,89c1.9-6,1.5-17.9-1.7-22.9-3.7-5.8-15.7-16.9-36.6-11.7-15,3.7-18.1,20.6-17.7,29.9.3,7.6,2.1,14.5,7.6,19.7l.2.2"/><path class="cls-2" d="M62.8,85.5c-.7-1.7-2.9-2.1-4.4-1.1-1.5,1-2.2,2.9-2.4,4.7-.4,3.3.9,6.9,3.6,8.3,1.2.6,2.9.6,3.6-.7"/></svg>