<?xml version="1.0" encoding="UTF-8"?><svg id="africa" xmlns="http://www.w3.org/2000/svg" width="235" height="321.9" viewBox="0 0 235 321.9"><defs><style>.cls-1{stroke-linecap:round;stroke-linejoin:round;}.cls-1,.cls-2{fill:none;stroke:#000;}.cls-2{stroke-miterlimit:10;}.cls-3,.cls-4,.cls-5,.cls-6,.cls-7,.cls-8,.cls-9{stroke-width:0px;}.cls-4{fill:#313f42;}.cls-5{fill:#3d5450;}.cls-6{fill:#404a61;}.cls-7{fill:#dcb28b;}.cls-8{fill:#302f2d;}.cls-9{fill:#fff;}</style></defs><path class="cls-7" d="M194.9,194.8c0,1.6.5,2.5,1.2,3.9.7,1.4-10,12.8-11,8.6,0,0,0,.2,0,.3h-.2c-5.2-2.1-9.3-3.2-12.7-3.9,2.2-4.6,3.6-9.5,4.4-14.6,0-.4.1-.8.2-1.2,5.4,2,11,4.2,18,6.7Z"/><path class="cls-8" d="M185.1,207.4c1.1,4.2,11.7-7.3,11-8.6-.7-1.4-1.2-2.4-1.2-3.9,9.7-.9,21.7-2.2,31.3-3.1,1.7-.1,3.4-.3,4.9.3,3.2,1.4,3.7,5.8,2,8.9-1.7,3.1-5,5.1-8.2,6.8-9.8,5.2-20.3,8.8-30.8,12.4-1.3.4-2.7.9-3.8.3-.8-.4-.9-.6-1.3-1.4-1.7-3.6-3.1-7.5-3.9-11.4,0,0,0-.2,0-.3Z"/><path class="cls-6" d="M177,186.3c0,.5,0,1.1-.2,1.8,0,0,0,0,0,0,0-.6.1-1.2.2-1.8Z"/><path class="cls-6" d="M176.8,188s0,0,0,0c0,.4-.1.7-.2,1.2,0-.4.1-.8.2-1.2Z"/><path class="cls-4" d="M56.9,163.5c0-1.4,0-2.9.1-4.5,1.7-10.8,17-7.2,35.3-3.2,6.4,1.4,9.5,2.9,12.4,4.1,1.2.5,2.4.9,3.7,1.3,0,0,0-.1,0-.2,5.3,1.4,13.9,3.7,19.3,5.4,2.3.7,27.5,10.6,41,16.1v.3c-1.2,8.9-4.8,17.4-10.4,24.4-12.6-5-33.2-13.4-35-13.8-2.6-.6-6.3-1.1-10.5-1.5-12.6-1.4-30.1-2.6-37.7-4.2-2.5-.6-4.5-1.2-5.7-1.7-5.2-2.6-12.1-9.7-12.4-22.6Z"/><path class="cls-4" d="M176.8,188c0,.4-.1.8-.2,1.2-.7,3.8-2.6,9.4-4.8,14.5-1.2,2.7-2.5,5.3-3.8,7.5,0,0-4.1-1.5-9.8-3.8,5.6-7,9.2-15.5,10.3-24.4v-.3c5.1,2,8.5,3.5,8.5,3.6,0,.6-.1,1.2-.2,1.8Z"/><path class="cls-5" d="M129,39.3c.5,4.4.1,9.6-2.4,12.7.3-1.1.5-2.4.7-3.9-1.9-2.7-5.8-4.9-7.8-5.6-6.4-2.2-13.1-3.4-19.8-4.1-2.3-.2-4.5,0-6.6.4h0c-1.7.3-3.5.8-5.3,1.1-3.7.7-7.1,1.9-9.9,4.3h0c-.4.4-.8.7-1.2,1.1h-.2c-1.1-3.7-.5-7.6,1.1-11.2l.8.3c17.2-6.4,35.4-5.6,50.5,4.7Z"/><path class="cls-5" d="M103.2,18.8c2.2,0,4.5.2,7,1,.5.2,1,.3,1.6.5,6,2.1,11.5,5.7,15,11,.8,1.2,1.8,4.4,2.2,8.1-15.2-10.4-33.3-11.2-50.5-4.7l-.8-.3c.8-1.8,1.8-3.6,3-5.2,3.4-4.7,8.7-7.8,14.3-9.1,3-.7,5.6-1.2,8.3-1.3Z"/><path class="cls-7" d="M84.2,59.4c-1.1.7-1.9.4-3.2-.2-1.2-.6-2.4-4.3-2.7-6.2,0-.2,0-.4,0-.5,0-1.7.9-5.4,2.1-6.2,2.1-1.4,4.8-.7,6.1.4,1.4,1.1,1.2,2.8,1.3,4.1-1.2,3-1.5,6.4,1.6,4.4.3-.2,2.9-11.6,3.8-16.2h0c2.1-.4,4.2-.7,6.6-.4,6.7.7,13.4,2,19.8,4.1,2,.7,5.9,2.8,7.8,5.6-.2,1.5-.5,2.8-.7,3.9-1.5,6.3-3.9,6.4-3.9,9.1s-2.2,7.4-6.4,14.5c-3.9,5-6.2,6.8-10.8,9.4-3.5,1.9-7.8-1-10.4-2.9-5-3.7-7.7-7.2-9.5-12.1-.3-.9-.6-1.7-.8-2.5-.8-2.6-.8-4.5-.4-8v-.2ZM122.7,55.2c0-.8-3.2-3.8-4.4-3.7-1.1.2-2.2,2.2-.9,3,.5.3,3.2,1.6,3.7,1.8.7.3,1.4-.4,1.5-1.1ZM119.5,61.5c.3-1.6,0-3-.8-3.2-.8-.2-1.6.9-2,2.5-.3,1.6,0,3,.8,3.2.8.2,1.6-.9,2-2.5ZM108.3,50c.6.2,2.4-2.1-.3-2.9-2.8-.8-8-1.8-8.3,1.5,0,.3,6.8.9,8.6,1.4ZM102.3,69.9c-1.5,6.3,6.3,10.6,10,4.2-4.4-.5-6-1.1-10-4.2ZM104.6,57.5c.3-1.5,0-2.9-.9-3.1-.8-.2-1.7.9-2,2.4-.3,1.5,0,2.9.9,3.1.8.2,1.7-.9,2-2.4Z"/><path class="cls-3" d="M118.3,51.5c1.2-.2,4.5,2.9,4.4,3.7,0,.8-.8,1.4-1.5,1.1-.5-.2-3.2-1.5-3.7-1.8-1.4-.8-.2-2.8.9-3Z"/><path class="cls-4" d="M112.8,192c2.8,10.2,9.2,24.5,9.2,33.3,0,1.2-3.5,20.7-5.7,33.4-8.4,1-17.1-.2-24.9-3.3,1.6-11.2,3.9-28,3.6-29-2.5-8.5-12.4-28-19.9-38.5,7.6,1.6,25.1,2.7,37.7,4.2Z"/><path class="cls-3" d="M118.6,58.3c.8.2,1.1,1.6.8,3.2-.3,1.6-1.2,2.7-2,2.5-.8-.2-1.1-1.6-.8-3.2.3-1.6,1.2-2.7,2-2.5Z"/><path class="cls-5" d="M111.7,20.3c-.5-.2-1-.4-1.6-.5-2.6-.8-4.8-1-7-1,1-1.9,1.8-2.2,3.9-1.9,2.2.3,4.2,1.2,4.6,3.4Z"/><path class="cls-6" d="M109.4,269.6c1.7,0,3.4-.1,5-.3-2,.3-3.7.6-5.1.7,0-.1,0-.2,0-.4Z"/><path class="cls-6" d="M99.7,268.5c3.2.7,6.5,1.1,9.8,1,0,.1,0,.2,0,.4-4,.3-6.4-.3-9.7-1.4Z"/><path class="cls-5" d="M108.4,161.1c0,0,0,.1,0,.2-1.3-.3-2.5-.8-3.7-1.3h0c.8.3,2.1.6,3.7,1.1Z"/><path class="cls-3" d="M108,47.1c2.6.8.9,3.1.3,2.9-1.9-.5-8.6-1.1-8.6-1.4.3-3.3,5.6-2.4,8.3-1.5Z"/><path class="cls-9" d="M112.3,74.1c-3.7,6.4-11.6,2.1-10-4.2,4,3.2,5.6,3.7,10,4.2Z"/><path class="cls-7" d="M99.7,268.5c3.3,1.1,5.7,1.7,9.7,1.4-1,3.9-2.1,7.8-3.5,11.6-.4,0-.8.3-1.2.6-1.3.9-2.1,2.4-2.9,3.8s-1.7,2.8-3.2,3.5c-2.2,1-6.1-.9-7.6-3.3-.2-5.8-.3-13.2,0-20.5,2.8,1.3,5.7,2.2,8.6,2.9Z"/><path class="cls-3" d="M103.8,54.4c.8.2,1.2,1.6.9,3.1-.3,1.5-1.2,2.6-2,2.4-.8-.2-1.2-1.6-.9-3.1.3-1.5,1.2-2.6,2-2.4Z"/><path class="cls-4" d="M114.5,269.3c-1.7.2-3.3.3-5,.3-3.3,0-6.6-.3-9.8-1-2.2-.8-4.9-1.8-8.6-3-.3-.1-.7-.2-1.1-.3,0-.1.5-4.2,1.3-9.8,7.8,3.2,16.5,4.4,24.9,3.3-1,5.7-1.7,10.1-1.8,10.5Z"/><path class="cls-8" d="M105.9,281.5c.9-.2,1.6,0,2.4.9h.1c8.2,5.9,16.4,11.7,24.7,17.5,1.4,1,2.9,2.1,3.7,3.6,1.7,3.3-.6,7.5-4,9s-7.2,1-10.8.2c-11-2.2-21.6-6.3-32.2-10.3-1.3-.5-2.7-1.1-3.2-2.3-.4-.9-.2-2,0-2.9.9-4.2,2.2-8.2,4-12.1,0,.3.3.6.5,1,1.5,2.3,5.4,4.2,7.6,3.3,1.5-.7,2.4-2.1,3.2-3.5s1.6-2.9,2.9-3.8c.4-.3.8-.5,1.2-.6Z"/><path class="cls-7" d="M82.3,65.1c.7.9,1.5,1.7,2.3,2.5.2.7.5,1.6.8,2.5,1.8,4.9,4.6,8.4,9.5,12.1,2.6,2,7,4.8,10.4,2.9,0,.4-.2.8-.3,1.2-1.9,6.2-6.3,7.1-10.4,6.1-2.5-.6-10-4.8-14-12.2,2.2-1.3,3.4-8.6,1.6-15Z"/><path class="cls-8" d="M84.6,67.6c-.8-.8-1.6-1.6-2.3-2.5h0c-2.8-3.4-4.6-7.6-5.1-11.9h1.2c.3,1.8,1.5,5.5,2.7,6.1,1.2.6,2.1.9,3.2.2v.2c-.3,3.5-.3,5.3.5,8Z"/><path class="cls-7" d="M83.9,129c-2.5,3.5-3,5.1-2.9,9.5-.4,0-.9,0-1.3,0-2.9,1.1-13.5,1.4-14.6-1.5-1-2.4,3.1-14.6,6.3-16.2,3-1.4,13.8,4.3,13.9,7.6v.3c-.2,0-.5,0-.7,0l-.5.3Z"/><path class="cls-8" d="M78.3,52.5c0,.2,0,.3,0,.5h-1.2c-.4-2.8-.2-5.8.7-8.7h0c2.8-2.4,6.2-3.6,9.9-4.3,1.9-.3,3.6-.8,5.3-1.1-.9,4.6-3.4,16-3.8,16.2-3,2-2.8-1.4-1.6-4.4-.2-1.4,0-3-1.3-4.1-1.3-1-4-1.8-6.1-.4-1.2.8-2.2,4.5-2.1,6.2Z"/><path class="cls-5" d="M105.4,141.2l1.7.7c.5,4.5,1.2,13.7,1.3,19.2-1.6-.4-2.9-.8-3.7-1.1h0c-2.9-1.2-6-2.7-12.4-4.1-18.4-4-33.7-7.6-35.3,3.2-.1,1.6-.2,3-.1,4.5-3.7-13.5-.8-14,1.6-40.7.3-5.9-.1-10.8-1.2-15.9h-.2c-5.2,4.9-6.5,4.8-9.5,8.3-2,1.8-5,5.2-6.6,6.5-5.3,9.7-9.2,14.6-13.2,22.7-.7.2-1.3.3-2,.5-3.1.6-6.2.5-9.5.4,3-13.5,8.4-27,16.4-38.3-.1-.8,8.3-7.9,12-14,3.2-5.3,10.8-12.3,16.8-13.5,2-.4,11.9-1.4,19.2.5v.2c4.1,7.4,11.5,11.5,14,12.2,4.1,1,8.6.1,10.4-6.1,5.5,1.9,13.6,8.6,14.7,10.9,1.5,3,2.8,7.7,2.3,12-2,16.9,1.2,27-1.6,28-6,3.1-10.7,4.1-15.1,4.1ZM81,138.4c-.1-4.3.4-6,2.9-9.5l.5-.3c.3,0,.5,0,.7,0v-.3c-.1-3.3-10.9-9-13.9-7.6-3.2,1.5-7.2,13.7-6.3,16.2,1.1,2.9,11.7,2.6,14.6,1.5.5,0,.9,0,1.3,0Z"/><path class="cls-7" d="M25.7,144.9c2.7.7,4.6,10,2.8,12.1-1.9,2.3-12.6,3.3-14.4,2-2.1-1.5.7-11.6,2.1-13.7,3.2,0,6.4.2,9.5-.4Z"/><path class="cls-1" d="M32.6,107c-.1-.8,8.3-7.9,12-14,3.2-5.3,10.8-12.3,16.8-13.5,2-.4,11.9-1.4,19.2.5"/><path class="cls-1" d="M57,107c-5.2,4.8-6.5,4.7-9.5,8.3"/><path class="cls-1" d="M32.6,107c-7.9,11.3-13.4,24.8-16.4,38.3"/><path class="cls-1" d="M47.5,115.2c-2,1.8-5,5.2-6.6,6.5-5.3,9.7-9.2,14.6-13.2,22.7"/><path class="cls-1" d="M25.7,144.9c2.7.7,4.6,10,2.8,12.1-1.9,2.3-12.6,3.3-14.4,2-2.1-1.5.7-11.6,2.1-13.7"/><path class="cls-1" d="M120.6,137.1c2.9-1-.4-11.1,1.6-28,.5-4.3-.8-9-2.3-12-1.1-2.2-9.2-9-14.7-10.9,0,0,0,0,0,0"/><path class="cls-1" d="M106,107.1c0,5.4.7,17.5,1,20.7,2.2-.6,4.1-.8,5.7-.6"/><path class="cls-1" d="M120.6,137.1c-6,3.1-10.7,4.1-15.1,4.1-7.2,0-13.8-2.5-24.5-2.7-.4,0-.9,0-1.3,0"/><path class="cls-1" d="M107,127.8c-12.6,1.7-11.4,1.1-21.9.9-.2,0-.5,0-.7,0"/><path class="cls-1" d="M85.2,128.4c-.1-3.3-10.9-9-13.9-7.6-3.2,1.5-7.2,13.7-6.3,16.2,1.1,2.9,11.7,2.6,14.6,1.5"/><path class="cls-1" d="M58.5,122.8c-2.3,26.7-5.2,27.3-1.6,40.7,0,.3.2.7.3,1"/><path class="cls-1" d="M107.1,141.9c.5,4.5,1.2,13.7,1.3,19.2,0,0,0,.1,0,.2"/><path class="cls-1" d="M55.3,99.6c.8,2.6,1.4,5,1.9,7.3,1.1,5.1,1.5,10,1.2,15.9"/><path class="cls-1" d="M75,187.9c7.6,1.6,25.1,2.7,37.7,4.2,4.2.5,7.9,1,10.5,1.5,1.8.4,22.4,8.7,35,13.8,5.7,2.3,9.7,3.9,9.8,3.8,1.3-2.1,2.6-4.7,3.8-7.5,2.2-5.1,4.1-10.7,4.8-14.5,0-.4.1-.8.2-1.2.1-.7.2-1.3.2-1.8s-3.4-1.6-8.3-3.6c-13.5-5.5-38.7-15.4-41-16.1-5.3-1.7-14-4-19.3-5.4-1.6-.4-2.9-.8-3.7-1.1"/><path class="cls-1" d="M69.3,186.1c1.3.5,3.3,1.1,5.7,1.7"/><path class="cls-1" d="M75,187.9c7.5,10.5,17.4,30,19.9,38.5.3,1-2.1,17.9-3.6,29-.8,5.5-1.4,9.7-1.3,9.8.4.1.7.2,1.1.3,3.7,1.2,6.4,2.3,8.6,3,3.3,1.1,5.7,1.7,9.7,1.4,1.5-.1,3.1-.3,5.1-.7,0-.5.8-4.8,1.8-10.5,2.2-12.6,5.7-32.2,5.7-33.4,0-8.9-6.3-23.1-9.2-33.3"/><path class="cls-1" d="M57,159.1c-.1,1.6-.2,3-.1,4.5.3,12.9,7.2,20,12.4,22.6"/><path class="cls-1" d="M110,161.6c-.5,0-1-.2-1.5-.3-1.3-.3-2.5-.8-3.7-1.3-2.9-1.2-6-2.7-12.4-4.1-18.4-4-33.7-7.6-35.3,3.2"/><path class="cls-1" d="M16.3,145.3c3.2,0,6.4.2,9.5-.4.7-.1,1.3-.3,2-.5"/><path class="cls-1" d="M83.9,129c-2.5,3.5-3,5.1-2.9,9.5"/><path class="cls-2" d="M90,265.2c.4.2.7.3,1.1.5,2.8,1.3,5.7,2.2,8.6,2.9,3.2.7,6.5,1.1,9.8,1,1.7,0,3.4-.1,5-.3-.1,0-.3-.1-.4-.2"/><path class="cls-2" d="M177,186.3c0,.6-.1,1.2-.2,1.8,0,.4-.1.8-.2,1.2-.7,5-2.2,10-4.4,14.6-1.2,2.6-2.6,5-4.2,7.4"/><path class="cls-2" d="M91.3,255.4s0,0,0,0c7.8,3.2,16.5,4.4,24.9,3.3,0,0,.1,0,.2,0"/><path class="cls-2" d="M168.5,183c-1,8.9-4.6,17.4-10.3,24.4"/><path class="cls-1" d="M109.6,269c0,.2,0,.4-.1.6,0,.1,0,.2,0,.4-1,3.9-2.1,7.8-3.5,11.6,0,.1,0,.2-.1.3"/><path class="cls-1" d="M91.1,264.3c0,.4,0,.8,0,1.2,0,0,0,.1,0,.2-.4,7.3-.2,14.7,0,20.5h0"/><path class="cls-1" d="M90.6,285.2c0,.3.3.6.5,1,1.5,2.3,5.4,4.2,7.6,3.3,1.5-.7,2.4-2.1,3.2-3.5s1.6-2.9,2.9-3.8c.4-.3.8-.5,1.2-.6.9-.2,1.6,0,2.4.9"/><path class="cls-1" d="M90.6,285.2c-1.8,3.8-3.2,7.9-4,12.1-.2,1-.4,2,0,2.9.5,1.2,1.9,1.9,3.2,2.3,10.5,4,21.1,8.1,32.2,10.3,3.6.7,7.5,1.2,10.8-.2s5.6-5.6,4-9c-.8-1.6-2.3-2.6-3.7-3.6-8.2-5.8-16.4-11.6-24.7-17.5"/><path class="cls-1" d="M171.3,203.6c.2,0,.4,0,.6,0,.1,0,.3,0,.4,0,3.4.6,7.5,1.8,12.7,3.9"/><path class="cls-1" d="M194.9,194.8c-7-2.6-12.6-4.7-18-6.7,0,0,0,0,0,0-.1,0-.3,0-.4-.1"/><path class="cls-1" d="M185.1,207.4c1.1,4.2,11.7-7.3,11-8.6-.7-1.4-1.2-2.4-1.2-3.9"/><path class="cls-1" d="M190.3,220.5c1.1.6,2.6.1,3.8-.3,10.5-3.6,21-7.2,30.8-12.4,3.2-1.7,6.5-3.7,8.2-6.8,1.7-3.1,1.2-7.6-2-8.9-1.5-.6-3.3-.5-4.9-.3-9.7.9-21.7,2.2-31.3,3.1"/><path class="cls-1" d="M185.1,207.4c0,0,0,.2,0,.3.8,3.9,2.1,7.8,3.9,11.4.4.8.4,1,1.3,1.4"/><path class="cls-1" d="M82.3,65.1c.7.9,1.5,1.7,2.3,2.5"/><path class="cls-1" d="M77.9,44.4c-.9,2.9-1.1,5.9-.7,8.8.6,4.4,2.4,8.5,5.1,11.9"/><path class="cls-1" d="M127.2,48.2c-.2,1.5-.5,2.8-.7,3.9-1.5,6.3-3.9,6.4-3.9,9.1s-2.2,7.4-6.4,14.5"/><path class="cls-1" d="M114.2,65.1c.7,4-2.1,5.8-5.1,4.5"/><path class="cls-1" d="M116.7,60.8c-.3,1.6,0,3,.8,3.2.8.2,1.6-.9,2-2.5.3-1.6,0-3-.8-3.2-.8-.2-1.6.9-2,2.5Z"/><path class="cls-1" d="M101.8,56.8c-.3,1.5,0,2.9.9,3.1.8.2,1.7-.9,2-2.4.3-1.5,0-2.9-.9-3.1-.8-.2-1.7.9-2,2.4Z"/><path class="cls-1" d="M112.3,74.1c-4.4-.5-6-1.1-10-4.2"/><path class="cls-1" d="M112.3,74.1c-3.7,6.4-11.6,2.1-10-4.2"/><path class="cls-1" d="M82.3,65.1h0c1.8,6.4.6,13.7-1.6,15"/><path class="cls-1" d="M80.7,80.1c4,7.4,11.4,11.5,14,12.2,4.1,1,8.6.1,10.4-6.1.1-.4.2-.8.3-1.2"/><path class="cls-1" d="M87.7,50.8c-.2-1.4,0-3-1.3-4.1-1.3-1-4-1.8-6.1-.4-1.2.8-2.2,4.5-2.1,6.2,0,.2,0,.3,0,.5.3,1.9,1.5,5.6,2.7,6.2,1.2.6,2.1.9,3.2.2,0,0,.1,0,.2-.1"/><path class="cls-1" d="M93.1,38.9c-.9,4.6-3.4,16-3.8,16.2"/><path class="cls-1" d="M99.7,48.6c0,.3,6.8.9,8.6,1.4.6.2,2.4-2.1-.3-2.9-2.8-.8-8-1.8-8.3,1.5Z"/><path class="cls-1" d="M117.4,54.5c.5.3,3.2,1.6,3.7,1.8.7.3,1.4-.4,1.5-1.1,0-.8-3.2-3.8-4.4-3.7-1.1.2-2.2,2.2-.9,3Z"/><path class="cls-1" d="M84.3,59.6c-.4,3.5-.4,5.3.4,8,.2.7.5,1.6.8,2.5,1.8,4.9,4.6,8.4,9.5,12.1,2.6,2,7,4.8,10.4,2.9,4.6-2.6,6.9-4.3,10.8-9.4"/><path class="cls-1" d="M89.3,55.1c-3,2-2.8-1.4-1.6-4.4"/><path class="cls-1" d="M76.7,45.5c.4-.4.8-.8,1.2-1.1h0c2.8-2.4,6.2-3.6,9.9-4.3,1.9-.3,3.6-.8,5.3-1.1h0c2.1-.4,4.2-.7,6.6-.4,6.7.7,13.4,2,19.8,4.1,2,.7,5.9,2.8,7.8,5.6"/><path class="cls-1" d="M76.5,45.5c-1.1-3.7-.5-7.6,1.1-11.2.8-1.8,1.8-3.6,3-5.2,3.4-4.7,8.7-7.8,14.3-9.1,3-.7,5.6-1.2,8.3-1.3,2.2,0,4.5.2,7,1,.5.2,1,.3,1.6.5,6,2.1,11.5,5.7,15,11,.8,1.2,1.8,4.4,2.2,8.1.5,4.4.1,9.6-2.4,12.7"/><path class="cls-1" d="M78.4,34.6c17.2-6.4,35.4-5.6,50.5,4.7,0,0,.1,0,.2.1"/><path class="cls-1" d="M103.1,18.9s0,0,0-.1c1-1.9,1.8-2.2,3.9-1.9,2.2.3,4.2,1.2,4.6,3.4"/></svg>