<?xml version="1.0" encoding="UTF-8"?><svg id="africa" xmlns="http://www.w3.org/2000/svg" width="235" height="321.9" viewBox="0 0 235 321.9"><defs><style>.cls-1{stroke-linecap:round;stroke-linejoin:round;}.cls-1,.cls-2{fill:none;stroke:#000;}.cls-2{stroke-miterlimit:10;}.cls-3,.cls-4,.cls-5,.cls-6,.cls-7,.cls-8,.cls-9{stroke-width:0px;}.cls-4{fill:#4f4f4f;}.cls-5{fill:gray;}.cls-6{fill:#1e160d;}.cls-7{fill:#d36749;}.cls-8{fill:#ae8a6b;}.cls-9{fill:#fff;}</style></defs><path class="cls-4" d="M136.6,304.1c1.8,2.1.7,5.5-1.6,7.2-2.3,1.7-5.4,2-8.3,2.1-8.8.4-18.3-3.1-27.1-4.1-1.1-.1-2.2-.3-2.8-1.1-.5-.6-.5-1.4-.5-2.1,0-1.6,0-3.2.3-4.8,6.8.8,15.5-2.1,20.3-7.1,5.4,2.7,11.1,5.9,16.3,7.8,1.3.5,2.6,1,3.4,1.9Z"/><path class="cls-8" d="M134.5,174.7c1.4,3.5-2.2,7.1-5,9.4-2.8,2.3-4.5,3.2-7.5,1.1-1.4-1-2.5-2.6-3-4.4,0-.1,0-.2,0-.4-.3-3.4,5.6-10,6.7-10.2,3.4-1.1,7.3.9,8.8,4.4Z"/><path class="cls-5" d="M75.9,217.7c-5.7,18.4-7.4,25.5-9.6,30.8-.7,1.8-12.9,43.2-14.5,44.1-.5.3-1.2.5-2,.7-2.3.5-5.6.8-9.2.8-.6,0-1.3,0-1.9,0,4.7-15.8,10.5-28.5,16.1-43.2,2.4-6.4,6.3-46.3,4.9-59.1,11.7,3,21.9,4.2,35.3,2.9,4.5,7.6,16,31.9,19.6,43.3.8,2.5,3.4,45,3.8,54.7-.4.6-.9,1.2-1.4,1.7-4.7,4.9-13.5,7.9-20.3,7.1-.7,0-1.4-.2-2.1-.4-.1-10.3-1.6-18.8-1.4-35.3,0-6.3.6-22.9-1.3-26.5-3.7-6.8-10.5-15.8-15.9-21.4h-.1Z"/><path class="cls-8" d="M125.8,170.3c-1.2.3-7,6.8-6.7,10.2h-.2c-2.9-8.4-21.2-20.8-21.1-27.2h0c0-.6,0-1.3,0-1.9h.5c3.6-.9,5.5-2.8,8.7-5.1l.6.2c4,5.9,11.5,18.7,18.1,23.7Z"/><path class="cls-4" d="M108.9,145.1c-.7.5-1.3.9-1.9,1.3-3.2,2.3-5.1,4.1-8.7,5.1h-.5c0-1.2,0-2.3,0-3.5h.1c2.9-2.5,6-4.7,9.4-6.4.6,1.3,1.1,2.5,1.6,3.4Z"/><path class="cls-8" d="M105.7,79.2c.2,1.9.4,3.8,0,5.7-.4,2.5-2.4,6-3.7,4.9h-.4c.7-2.8,1.1-5.9,1.4-9.6,0-1.5.2-2.7.2-3.8h.1c.3,0,.8,0,1.2.2.4.2.7.4.8.7.3.6.4,1.2.4,1.9Z"/><path class="cls-6" d="M103.3,73c-1.4-11.1-9-14.7-17.5-15.7-6.1-.7-13.3,1-19.1,9.7-2.1,3.1-3.5,7.5-4.2,8.7-.7,1.2-2.7.9-2.6-.5h0c-.4-1.2-1.5-1.9-2.5-1.7h0c-.2-7.8,1.1-12.2,4.5-17.3,4.9-7.4,10.7-10.8,18.5-10.7,7,0,19.5,2.4,22.9,11.3,2.6,6.8,1.5,14.9,1.2,19.7-.4-.2-.9-.3-1.2-.2h-.1c0-1.2.1-2.2.2-3.4t0,0Z"/><path class="cls-7" d="M97.8,148c0,1.2,0,2.3,0,3.4,0,.6,0,1.2,0,1.9h0c-.4,13.6-2.1,27.1-2.7,41.4,0,0-.1,0-.2,0-13.3,1.3-23.6,0-35.3-2.9-1.7-.4-3.5-.9-5.3-1.4-1.4-.4-2.9-.8-4.4-1.3-.3,0-.5-.2-.8-.2,1.7-5.1,1.5-5.8,2.4-11.1,1.4,1.1,2.9,2.2,4.5,3.4,1.3,2.1,8.1,7.8,10.5,6.8,2.1-.9,6.6-10,5.4-12.5-1.1-2.4-11.6-4.7-13.7-2.9h0c-1.8-2.2-3.2-4.2-4.6-6.3,1.1-10.8,2.7-19.1,1.7-25.9h-.1c-1.2,2.3-2.4,4.4-3.4,6.2h0c-4.5-3.9-9.6-7.1-15-9.4h-.2c3.8-6.8,14.6-22.7,20.2-24.6,5.1-.8,3.4-.6,6.9-1.3l.5-.2c0,.3.2.5.4.7.9,1.3,2.4,2,3.8,2.5,3.9,1.4,7.9,2.2,12,2.5,1.6.1,3.2.1,4.6-.5,1.4-.7,2.5-2.2,2.2-3.8v-.3c2.2.9,5.3,2.4,5.6,2.6,5.9,2.7,11,18.3,14.7,27-3.4,1.7-6.6,3.8-9.4,6.4h-.1Z"/><path class="cls-8" d="M59.9,87.4c-.7.2-1.5,0-2.1-.5-1-.8-1.7-2.2-2.2-3.7-.6-1.6-1-3.3-.9-5.1.1-1.8.8-3.6,2-4.3.2-.1.4-.2.6-.3,1-.2,2.1.4,2.5,1.6h0c0,1.4,1.9,1.7,2.6.5.7-1.2,2.2-5.6,4.2-8.7,5.8-8.7,13-10.4,19.1-9.7,8.5.9,16.2,4.5,17.5,15.7t0,0c0,1.2-.1,2.2-.2,3.4,0,1.1-.1,2.3-.2,3.8-.2,3.7-.7,6.8-1.4,9.5-1.5,5.8-3.8,9.5-6.6,12.6-2.9,3.3-5.9,6.7-9.5,8.1-4.3,1.7-9.4.7-16.6-6.4-.7-.7-1.7-1.7-2.7-3.1-2.5-3.2-5.6-8-6.1-13.4h0ZM91,99.6c-3.8.7-10.2-1.6-13.7-3.4-.7-.4,2.4,4.5,7.2,5.4,2.8.5,4.9.3,6.5-1.9h0ZM96.9,82.1c0-1.5-.4-2.7-1.1-2.7-.7,0-1.3,1.1-1.3,2.6,0,1.5.4,2.7,1.1,2.7.7,0,1.3-1.1,1.3-2.6ZM80.2,81.6c0-1.7-.5-3.1-1.3-3.1-.8,0-1.5,1.3-1.6,3,0,1.7.5,3.1,1.4,3.1.8,0,1.5-1.3,1.6-3Z"/><path class="cls-3" d="M95.8,79.4c.7,0,1.2,1.3,1.1,2.7,0,1.5-.7,2.7-1.3,2.6-.7,0-1.2-1.2-1.1-2.7,0-1.5.7-2.7,1.3-2.6Z"/><path class="cls-9" d="M91,99.6h0c-1.6,2.3-3.7,2.6-6.5,2-4.9-.9-8-5.8-7.2-5.4,3.5,1.8,9.9,4.1,13.7,3.4Z"/><path class="cls-4" d="M65.5,107.5c3.6,3.4,11.1,6.6,15.8,6.9,1,0,2,0,2.8-.4.7-.3,1.1-1.6,1.2-2.7h0c.1,0,.8.3,1.7.7v.3c.2,1.5-.9,3.1-2.3,3.8-1.4.7-3,.7-4.6.5-4.1-.3-8.2-1.1-12-2.5-1.5-.5-3-1.2-3.8-2.5-.1-.2-.3-.5-.4-.7-.5-1.2-.2-2.8.9-3.4v-.5c.3.1.4.3.5.4Z"/><path class="cls-8" d="M85.5,110.4c0,.2,0,.6,0,.9-.2,1.1-.6,2.4-1.2,2.7-.9.4-1.9.4-2.8.4-4.7-.3-12.2-3.5-15.8-6.9.2-2,.5-3.3.6-6.6,1.1,1.3,2,2.4,2.7,3.1,7.2,7.1,12.4,8.1,16.6,6.4Z"/><path class="cls-3" d="M78.8,78.4c.8,0,1.4,1.4,1.3,3.1,0,1.7-.8,3.1-1.6,3-.8,0-1.4-1.4-1.4-3.1,0-1.7.8-3,1.6-3Z"/><path class="cls-8" d="M58.1,172.6h0c2-1.9,12.5.4,13.7,2.8,1.2,2.6-3.3,11.6-5.4,12.5-2.5,1.1-9.2-4.7-10.5-6.8-1.6-1.2-3.1-2.3-4.5-3.4-8.3-6.5-13.3-11.2-19-21-1.9-3.3-.5-10.1,2.5-17.1h0c0,.2,0,.3,0,.3.4,1.2,7.6,4.7,12.2,8.6-1.4,2.1-1.3,1.8-2.8,4,4.1,5.6,6.5,9.7,9.1,13.7,1.4,2.1,2.8,4.1,4.6,6.3Z"/><path class="cls-4" d="M64.2,307.8c1.5,7-3.9,8.8-9.6,7.5-9-2-13.7-4.9-27.3-14.3-.9-.6-1.9-1.2-2.2-2.3-.2-.8.1-1.6.4-2.3.6-1.3,1.2-2.2,2.1-3.5,1.7.2,3.4.5,5.1.7,1.9.2,3.9.4,5.8.5s1.3,0,1.9,0c3.6,0,7-.3,9.2-.8,3.2,6.4,4.4,7.9,11.4,12,1.2.7,2.7,1.1,3,2.5Z"/><path class="cls-7" d="M59.6,191.8c1.4,12.8-2.5,52.8-4.9,59.1-5.6,14.6-11.4,27.3-16.1,43.2-1.9,0-3.9-.2-5.8-.5h0c4.7-16,10.8-28.1,16.3-42.7,2.5-6.4,6.8-48.2,5.2-60.6,1.8.5,3.5,1,5.3,1.4Z"/><path class="cls-5" d="M54.3,190.4c1.5,12.4-2.8,54.1-5.2,60.6-5.6,14.6-11.6,26.7-16.3,42.6h0c-1.7,0-3.4-.3-5.1-.5-.5,0-1-.1-1.5-.2,10.9-28.4,18.5-44.3,21-57.7,2.1-11.6,0-32.8,2.7-45.8v-.2c1.6.4,3,.9,4.5,1.3Z"/><path class="cls-4" d="M51.6,146.5h0c-1,1.8-1.9,3.1-2.6,3.8-.5-.6-1.2-1.2-1.9-1.8-4.6-3.9-11.8-7.4-12.2-8.6,0,0,0-.1,0-.3.2-.5.6-1.4,1.3-2.6h.2c5.5,2.4,10.5,5.6,15,9.5Z"/><path class="cls-1" d="M59.4,130.7c-1.2,3.2-2.7,6.5-4.3,9.6-1.2,2.3-2.4,4.5-3.4,6.3-1,1.7-1.9,3-2.6,3.8-.5-.6-1.2-1.2-1.9-1.8-4.6-3.9-11.8-7.4-12.2-8.6,0,0,0-.1,0-.3.2-.5.6-1.4,1.3-2.6,3.8-6.7,14.6-22.6,20.2-24.5"/><path class="cls-1" d="M97.7,153.3c0-.6,0-1.2,0-1.9,0-1.1,0-2.3,0-3.4,0-6.6-.3-13.2-1.4-20.1"/><path class="cls-1" d="M51.4,177.7c-.9,5.3-.6,6-2.4,11.1.3,0,.5.2.8.2,1.5.4,3,.9,4.4,1.3,1.8.5,3.5,1,5.3,1.4,11.7,3,21.9,4.2,35.3,2.9,0,0,.1,0,.2,0,.5-14.3,2.3-27.8,2.7-41.4"/><path class="cls-1" d="M55.2,140.4c1,6.8-.6,15.1-1.7,25.9"/><path class="cls-1" d="M35,139.6c-3,7-4.4,13.8-2.5,17.1,5.7,9.8,10.6,14.6,19,21,1.4,1.1,2.9,2.2,4.5,3.4"/><path class="cls-1" d="M47.2,148.5c-1.4,2.1-1.3,1.8-2.8,4,4.1,5.6,6.5,9.7,9.1,13.7,1.4,2.1,2.8,4.1,4.6,6.3.1.2.3.3.4.5"/><path class="cls-1" d="M85.5,111.4c.1,0,.8.3,1.7.7,2,.9,5.2,2.4,5.5,2.6,5.9,2.7,11,18.3,14.7,27,.6,1.3,1.1,2.5,1.6,3.4-.7.5-1.3.9-1.9,1.3-3.2,2.3-5.1,4.1-8.7,5.1"/><path class="cls-1" d="M58.2,172.5c2-1.8,12.5.5,13.7,2.9,1.2,2.6-3.3,11.6-5.4,12.5-2.5,1.1-9.2-4.7-10.5-6.8"/><path class="cls-1" d="M97.7,153.3h0c-.1,6.4,18.3,18.8,21.1,27.2"/><path class="cls-1" d="M107.6,146.6c4,5.9,11.5,18.7,18.1,23.7"/><path class="cls-1" d="M125.8,170.3c-1.2.3-7,6.8-6.7,10.2,0,.1,0,.2,0,.4.4,1.8,1.6,3.3,3,4.4,2.9,2.1,4.6,1.2,7.5-1.1,2.8-2.3,6.5-5.9,5-9.4s-5.4-5.6-8.8-4.4"/><path class="cls-1" d="M56.6,112.5c5.1-.8,3.4-.6,6.9-1.3"/><path class="cls-1" d="M49.8,189.3c-2.7,13-.6,34.2-2.7,45.8-2.4,13.4-10,29.3-21,57.7.5,0,1,.1,1.5.2,1.7.2,3.4.5,5.1.7,1.9.2,3.9.4,5.8.5s1.3,0,1.9,0c3.6,0,7-.3,9.2-.8.8-.2,1.5-.4,2-.7,1.7-.9,13.8-42.4,14.5-44.1,2.1-5.3,3.8-12.4,9.6-30.8,1.1-3.5,2.3-7.5,3.8-11.9"/><path class="cls-2" d="M76,217.8c5.4,5.6,12.1,14.6,15.9,21.4,2,3.6,1.4,20.2,1.3,26.5-.2,16.5,1.2,25.1,1.4,35.3.7.2,1.4.3,2.1.4,6.8.8,15.5-2.1,20.3-7.1.5-.5,1-1.1,1.4-1.7-.4-9.7-3.1-52.2-3.8-54.7-3.6-11.4-15.2-35.6-19.6-43.3,0,0,0,0,0,0"/><path class="cls-1" d="M85.5,110.4c0,.2,0,.6,0,.9-.2,1.1-.6,2.4-1.2,2.7-.9.4-1.9.4-2.8.4-4.7-.3-12.2-3.5-15.8-6.9-.1-.1-.3-.3-.4-.4"/><path class="cls-1" d="M27.6,293c-.9,1.2-1.5,2.2-2.1,3.5-.3.7-.6,1.5-.4,2.3.2,1.1,1.3,1.7,2.2,2.3,13.6,9.4,18.3,12.2,27.3,14.3,5.7,1.3,11.2-.6,9.6-7.5-.3-1.4-1.8-1.8-3-2.5-7-4.1-8.2-5.6-11.4-12"/><path class="cls-1" d="M96.6,301.4c-.2,1.6-.3,3.2-.3,4.8,0,.7,0,1.5.5,2.1.6.8,1.8,1,2.8,1.1,8.8,1,18.3,4.5,27.1,4.1,2.9-.1,5.9-.5,8.3-2.1,2.3-1.7,3.4-5.1,1.6-7.2-.9-1-2.2-1.5-3.4-1.9-5.2-1.9-10.9-5.2-16.3-7.8"/><path class="cls-2" d="M54.3,190.4c1.5,12.4-2.8,54.1-5.2,60.6-5.6,14.6-11.6,26.7-16.3,42.6"/><path class="cls-2" d="M59.6,191.4c0,.1,0,.3,0,.4,1.4,12.8-2.5,52.8-4.9,59.1-5.6,14.6-11.4,27.3-16.1,43.2"/><path class="cls-2" d="M36.6,137.1c5.5,2.3,10.5,5.5,15,9.4"/><path class="cls-2" d="M107.4,141.6s0,0,0,0c-3.4,1.7-6.6,3.8-9.4,6.4"/><path class="cls-2" d="M64.9,107.6c-1.1.7-1.4,2.2-.9,3.4,0,.3.2.5.4.7.9,1.3,2.4,2,3.8,2.5,3.9,1.4,7.9,2.2,12,2.5,1.6.1,3.2.1,4.6-.5,1.4-.7,2.5-2.2,2.2-3.8"/><path class="cls-1" d="M65.4,108.1c0-.2,0-.4,0-.6.2-2,.5-3.3.6-6.6"/><path class="cls-1" d="M103.3,73c0,1.2-.1,2.2-.2,3.4,0,1.1-.1,2.3-.2,3.8-.2,3.7-.7,6.8-1.4,9.5-1.5,5.8-3.8,9.5-6.6,12.6-2.9,3.3-5.9,6.7-9.5,8.1-4.3,1.7-9.4.7-16.6-6.4-.7-.7-1.7-1.7-2.7-3.1-2.5-3.2-5.6-8-6.1-13.4"/><path class="cls-1" d="M103.5,69.6c-.1,1.3-.2,2.4-.2,3.4"/><path class="cls-1" d="M98.8,74.5c-.9-.8-4.5-1.1-5.4-.7"/><path class="cls-1" d="M82.5,73.2c-1.7-1-6.1-.6-6.5.1"/><path class="cls-1" d="M94.4,82c0,1.5.4,2.7,1.1,2.7.7,0,1.3-1.1,1.3-2.6,0-1.5-.4-2.7-1.1-2.7-.7,0-1.3,1.1-1.3,2.6Z"/><path class="cls-1" d="M77.2,81.4c0,1.7.5,3.1,1.4,3.1.8,0,1.5-1.3,1.6-3,0-1.7-.5-3.1-1.3-3.1-.8,0-1.5,1.3-1.6,3Z"/><path class="cls-1" d="M91.2,89.5c.9,2.9-.6,5.1-4.1,4.7"/><path class="cls-1" d="M91.4,99.6c-.1,0-.3,0-.4,0-3.8.7-10.2-1.6-13.7-3.4-.7-.4,2.4,4.5,7.2,5.4,2.8.5,4.9.3,6.5-1.9"/><path class="cls-1" d="M104.4,76.6c.3-4.8,1.3-12.9-1.2-19.7-3.4-9-15.9-11.3-22.9-11.3-7.9-.1-13.6,3.3-18.5,10.7-3.4,5.1-4.7,9.5-4.5,17.2"/><path class="cls-1" d="M59.9,75.4c0,0,0-.2,0-.2-.4-1.2-1.5-1.9-2.5-1.6-.2,0-.4.1-.6.3-1.2.7-1.9,2.5-2,4.3-.1,1.8.3,3.5.9,5.1.5,1.4,1.2,2.9,2.2,3.7.6.5,1.4.7,2.1.5.4-.1.8-.3,1.2-.8"/><path class="cls-1" d="M103.2,76.4c.3,0,.8,0,1.2.2.4.2.7.4.8.7.3.6.4,1.2.4,1.9.2,1.9.4,3.8,0,5.7-.4,2.5-2.4,6-3.7,4.9"/><path class="cls-1" d="M59.8,75.2c0,1.4,1.9,1.7,2.6.5.7-1.2,2.2-5.6,4.2-8.7,5.8-8.7,13-10.4,19.1-9.7,8.5.9,16.2,4.5,17.5,15.7t0,0c0,.2,0,.4,0,.6"/></svg>