<?xml version="1.0" encoding="UTF-8"?><svg id="africa" xmlns="http://www.w3.org/2000/svg" width="235" height="321.9" viewBox="0 0 235 321.9"><defs><style>.cls-1{stroke-linecap:round;stroke-linejoin:round;}.cls-1,.cls-2{fill:none;stroke:#000;}.cls-2{stroke-miterlimit:10;}.cls-3,.cls-4,.cls-5,.cls-6,.cls-7{stroke-width:0px;}.cls-4{fill:#313f42;}.cls-5{fill:#3d5450;}.cls-6{fill:#dcb28b;}.cls-7{fill:#302f2d;}</style></defs><path class="cls-7" d="M51.3,293.2c-.3-.6-.7-1.2-1-1.6-1.4-1.8-2.9-2.1-5.5-2.9-2.7-.8-6.3-1.6-10-.2-.9.6-2,1-2.9,1.6-2.7,1.6-7.5,5.3-8.3,8.8-.4,1.7-.4,4.6.6,6,1.1,1.5,3,3.8,4.7,3.9,5.4.1,11.1,0,16.5,0,2,0,5.7.4,7.1-1.3,1.6-2,.3-11.4-.9-13.8,0-.1-.1-.3-.2-.4Z"/><path class="cls-4" d="M51.9,274.1c1.6,0,2.7-.5,2.9-1.2,1.2-1.3,2.5-3.6,2.4-4.9-.1-1.3-.2-1.8-1.4-1.9,0,.2-.1.3-.1.2-6.9,2.6-17.2-1.7-19.5-4.6,0,0,0,0,0-.2-.5,0-1,0-1.6,0-.8,1.8.8,6.8,2,8.4.3.4.8.8,1.5,1.2,3.2,1.8,9.9,3.3,13.7,3Z"/><path class="cls-7" d="M36.5,286.7c-.4.8-1.1,1.3-1.7,1.8,3.7-1.4,7.3-.6,10,.2,2.6.8,4.1,1.2,5.5,2.9h0c1.9-10.7-1.5-13.5-8.5-14.5-1.1,0-2.2.4-3.2,1-.9.6-1.7,1.6-2.1,2.8-.4,1.1.6,4.8,0,5.8Z"/><path class="cls-5" d="M89.3,40.1c.6.2,1.2.3,1.7.5.2,0,.3.1.5.2.8.3,1.6-.3,1.6-1.1,0-1.9-.1-4-.6-6.1h0c-6.7-4-32.4-3.6-52.8.6-1.3,4.5-1.5,8.3,0,8.8,0,0,.6-.2,1.1-.5.4-.2.9-.4,1-.5,1.5-.5,3.2-.6,4.7-.9,1.7-.3,3.5-.6,5.2-.9,1.3-.2,2.6-.4,3.9-.6,6.1-.9,12.2-1.5,18.3-1.3,5.5,0,10.4.5,15.5,1.9Z"/><path class="cls-7" d="M40.7,42.4c-.2,3.3.1,9.2.7,12.3h.4c0-1.2.4-2.1,1.4-2.5,2.2-1,4.2.3,4.2,3.5.4,2.5.6,3.6.7,6,3.8,2.3,1.8-8.5,1.7-9.8-.5-7.8-.3-11.5,1.7-11.7h0c-1.7.3-3.5.6-5.2.9-1.5.3-3.2.4-4.7.9-.1,0-.5.3-1,.5Z"/><path class="cls-6" d="M46.8,64.8l.2.2c3.7,6.9,5.9,11.6,9.7,14.7h0c.9.7,1.9,1.4,2.9,1.9,4.2,2.1,11.4,2.4,14.4,2.4.4,0,.9,0,1.3-.2.4-.1.8-.4,1.1-.6,3.5-3.1,8.3-7.4,10.8-17.8.4-1.6.7-3.4,1-5.3.2-1.5.4-3.1.5-4.8.9-4.3,1.2-10.7.5-15.1-5.1-1.4-9.9-1.8-15.5-1.9-6.1-.1-12.2.5-18.3,1.3-1.3.2-2.6.4-3.9.6h0c-2,.3-2.2,4-1.7,11.8,0,1.3,2,12-1.7,9.8-.2-2.4-.4-3.5-.7-6,0-3.1-2.1-4.4-4.2-3.5-1,.4-1.3,1.4-1.4,2.5,0,2.5,1.5,6,2.1,7.7.8,2.6,1.9,2.8,2.9,2.3ZM75.7,47.9c-1-1.9,2-3.1,5.3-3,3.4,0,3.6.7,4.2,2.4h-.1c-3.3-.8-6.7,0-9.5.6ZM54.7,47.5c-.5-2.6,1.2-2.1,2.1-2.7,2-1.4,6,0,7.8,1.3-.4,1.4-.1,2-1.1,1.6,0,0,0,0,0,0-2.9-.7-7.3-.6-8.8-.1ZM57.9,53.7c0-1.8.7-3.3,1.6-3.3s1.6,1.5,1.6,3.3-.7,3.4-1.6,3.4-1.6-1.5-1.6-3.4ZM79.8,53.4c0-1.6.6-2.9,1.3-2.9s1.3,1.3,1.3,2.9-.6,2.9-1.3,2.9-1.3-1.3-1.3-2.9Z"/><path class="cls-5" d="M48.7,19.8c-4.1,2.4-7.4,8.9-9.1,14.3,20.5-4.2,46.2-4.6,52.8-.6h0c-1-4.6-3.2-9.3-6.1-12.3-3.8-3.8-10.9-5.7-18.4-5.8-1.9,0-3.8,0-5.6.2-5.2.5-10.1,1.9-13.8,4.1Z"/><path class="cls-6" d="M51.3,293.2c-.2-5.2-.2-13.1.6-19.1-3.9.3-10.6-1.2-13.7-3h-.2c0,2.7,0,3-.3,6.6l1,.4c.9-.6,2-1,3.2-1,7,.9,10.4,3.8,8.5,14.4h0c.4.5.7,1,1,1.7Z"/><path class="cls-3" d="M63.5,47.7c1,.5.7-.2,1.1-1.6-1.8-1.3-5.8-2.7-7.8-1.3-.9.6-2.6.1-2.1,2.7,1.5-.5,5.8-.6,8.8.1,0,0,0,0,0,0Z"/><path class="cls-4" d="M55.7,266.3c0,0,0,0,.1-.2.8-2.5,5.2-22.6,6.2-37.6.5-7.4,1-15,1.5-21.6h.2c-.2,2.6.7,4.1,1.8,18.1,1.1,14.5,5.2,34,5,36.3,0,0,0,0,.1,0,10.4,2.9,12.1,1.6,18.8-.9-.5-9.3.5-59.5.5-69.1,0-8.3-1.1-9.2-.5-18-3,.1-8.6.5-11.8.9-4.8.6-9.1-.2-14-.5-4.2-.2-20.5-.7-22.1-3.9-1.7,9.9-2.7,35.9-3.5,53.6-.9,18.6-1.8,36.3-1.9,38.1,0,.1,0,.2,0,.2,2.4,2.9,12.6,7.2,19.5,4.6Z"/><path class="cls-5" d="M40.4,118.5c.9,2.2,2.3,5.1,2.5,7.1.3,3.8.7,7.6.4,11.5,0,1.6-.3,4.5-.4,8-.9-.9-2.4-2.3-3.1-3.1-1.9-1.9-3.3-3.3-4.8-4.2h0c1.1-3,3.1-11.3,5.4-19.4ZM90,161.1h0c6.8-5.4,9.6-8.9,15-15.6,1.8-2.7,2.9-6.3,2.6-10.5-.2-3.6-1.2-8-2.4-11.9-1.5-4.1-1.8-16.7-4.6-22.4-1.7-3.4-3.9-10-7.1-11.6-2-1-15.9-3.9-18-4.1v3h0c-1.3,3.8-4.6,6.5-9.9,5.5-4.5-.9-8.7-4.4-8.9-7.4h.1c.2-.5.1-1.7,0-3.1h0c-2.4.5-11.1,1.8-13.3,2-5,0-8.6,4.1-10,5.5-2.8,2.8-5.1,7.3-7.1,13.3-1.8,5.1-4.3,21.1-4.3,21.1-2.1,6.8-2.2,6.8-2.9,12.1-.7,5.5,6.1,12.6,11.4,16.5.8.6,10.8,8.7,11.4,9.1-.2,3.3-.3,5.9-.4,7.2,1.6,3.2,17.9,3.7,22.1,3.9,4.9.3,9.2,1.1,14,.5,3.2-.4,8.7-.7,11.8-.9.1-3.3.3-7.6.5-12.2ZM91.2,128.3c1.4,4,2.1,8.3,2.8,9.5h.3c-1.1,1.6-2.2,3.4-3.5,5.3h0c.2-5.6.4-10.8.4-14.8Z"/><path class="cls-6" d="M56.7,86.1h-.1c.2,3,4.4,6.5,8.9,7.4,5.3,1,8.6-1.7,9.9-5.5h0v-4.2c-.5.2-1,.2-1.4.2-3,0-10.2-.3-14.4-2.4-1.1-.6-2.1-1.2-2.9-1.9,0,1,0,2.2,0,3.3,0,1.4,0,2.6,0,3.1Z"/><path class="cls-3" d="M59.5,50.4c-.9,0-1.6,1.5-1.6,3.3s.7,3.4,1.6,3.4,1.6-1.5,1.6-3.4-.7-3.3-1.6-3.3Z"/><path class="cls-5" d="M62.5,15.7c1.9-.2,3.7-.3,5.6-.2v-.2c-.5-1.1-1.7-1.8-2.9-1.7-1.2,0-2.3.9-2.7,2v.2Z"/><path class="cls-4" d="M89.4,260.4c-6.7,2.6-8.4,3.8-18.8.9v.3c-1,0-.6,0-1.5,0-.8,2.9.7,5.4,2.2,7.2.6.7,1.4,1.1,2.5,1.4,4,1,10.6-.4,13.8-1.5,1-.4,1.7-.7,1.9-.8,1.4-2,2.3-5.4,1.5-7.7-.3.3-1,.6-1.4.4Z"/><path class="cls-7" d="M76,290.4c-.7.8-1.2,1.9-1.7,3.3-1,2.5-2.7,13.2-.6,14.8,1.4,1.1,19.1.3,24,0,.5,0,5.7-1.1,6.1-1.4,1.5-.8-.3-9.1-1-10.8-1.8-4.3-9.1-7.7-13-9-.4.8-1.3.9-2.1.9-2.4,0-6.9-.1-9.2.6-1.1.3-1.9.9-2.5,1.6Z"/><path class="cls-6" d="M73.7,270v.2c.5,4,.9,8.3,1.3,13,0-1.2.3-2.4,1-3.3,1.9-2.6,9.8-4.5,12-2.2-.1-1.2-.5-6.2-.5-9.3-3.2,1.1-9.8,2.6-13.8,1.5Z"/><path class="cls-7" d="M75,283.3c0,1,0,2.1.2,3.2,0-1.1-.2-2.1-.2-3.2Z"/><path class="cls-7" d="M75,283.3c0,1,.2,2.1.2,3.2h0c.2,1.4.5,2.7.7,4,.6-.7,1.4-1.3,2.5-1.6,2.3-.7,6.8-.7,9.2-.6.8,0,1.7,0,2.1-.9.2-.4.2-.9.2-1.4-.1-2.7-.2-6.3-1.9-8.1-2.2-2.3-10.1-.4-12,2.2-.7.9-.9,2-1,3.3Z"/><path class="cls-3" d="M81,44.9c-3.3,0-6.4,1.2-5.3,3,2.8-.6,6.1-1.4,9.5-.5h.1c-.6-1.8-.8-2.4-4.2-2.5Z"/><path class="cls-3" d="M81.1,50.5c-.7,0-1.3,1.3-1.3,2.9s.6,2.9,1.3,2.9,1.3-1.3,1.3-2.9-.6-2.9-1.3-2.9Z"/><path class="cls-6" d="M87.3,65.3h.4c.5.5,1.3.4,1.8,0,.5-.4.7-1.1.9-1.7,1-3.2,1.3-6.6,1-10-.3,0-.6,0-.9,0h-.4c-.3,1.9-.8,4.1-1.5,6.5h-.5c-.3,1.9-.6,3.6-1,5.3Z"/><path class="cls-7" d="M88.8,60c.7-2.4,1.2-4.6,1.5-6.6.9-5.3.8-9.4.8-12.8-.6-.2-1.2-.4-1.7-.5.7,4.4.4,10.8-.5,15.1-.1,1.7-.3,3.3-.5,4.8h.5Z"/><path class="cls-1" d="M89.3,40.1h0c.7,4.4.4,10.8-.5,15.1"/><path class="cls-1" d="M85.1,47.4c-3.3-.9-6.7,0-9.5.5,0,0-.2,0-.3,0"/><path class="cls-1" d="M63.5,47.7c-2.9-.7-7.3-.6-8.8-.1"/><path class="cls-1" d="M64,47.8c-.1,0-.3,0-.4-.1"/><path class="cls-1" d="M79.8,53.4c0,1.6.6,2.9,1.3,2.9s1.3-1.3,1.3-2.9-.6-2.9-1.3-2.9-1.3,1.3-1.3,2.9Z"/><path class="cls-1" d="M57.9,53.7c0,1.9.7,3.4,1.6,3.4s1.6-1.5,1.6-3.4-.7-3.3-1.6-3.3-1.6,1.5-1.6,3.3Z"/><path class="cls-1" d="M74.5,59c1.8,1.8,5,6.6-2.6,7.3"/><path class="cls-1" d="M47.4,55.7c0-3.1-2.1-4.4-4.2-3.5-1,.4-1.3,1.4-1.4,2.5,0,2.5,1.5,6,2.1,7.7.8,2.6,1.9,2.8,2.9,2.3,0,0,.2-.1.3-.2"/><path class="cls-2" d="M51.6,40.1c-2,.3-2.2,4-1.7,11.7,0,1.3,2,12-1.7,9.8"/><path class="cls-2" d="M90.2,53.4c.9-5.3.8-9.4.8-12.8"/><path class="cls-1" d="M88.8,60c.7-2.4,1.2-4.6,1.5-6.6"/><path class="cls-1" d="M41.4,54.8c-.6-3.1-.9-9-.7-12.3h0"/><path class="cls-1" d="M56.8,83c0,1.4,0,2.6,0,3.1"/><path class="cls-2" d="M56.7,79.7c0,1,0,2.2,0,3.3"/><path class="cls-1" d="M85.2,47.3c-.6-1.7-.8-2.3-4.2-2.4-3.3,0-6.4,1.2-5.3,3,0,0,0,0,0,0"/><path class="cls-1" d="M63.5,47.7s0,0,0,0c1,.5.7-.2,1.1-1.6-1.8-1.3-5.8-2.7-7.8-1.3-.9.6-2.6.1-2.1,2.7"/><path class="cls-1" d="M76.7,71.2c-4.4,1.1-8.6,1.6-11.2-.5"/><path class="cls-1" d="M75.5,84.9c2.1.3,16,3.2,18,4.1,3.3,1.6,5.5,8.1,7.1,11.6,2.8,5.8,3.1,18.3,4.6,22.4"/><path class="cls-1" d="M35,137.8c1.1-3,3.1-11.2,5.4-19.3.5-1.8,1-3.5,1.6-5.2"/><path class="cls-1" d="M43.4,85c-5,0-8.6,4.1-10,5.5-2.8,2.8-5.1,7.3-7.1,13.3-1.8,5.1-4.3,21.1-4.3,21.1"/><path class="cls-1" d="M93.4,104.9c.5,7.3-2.2,11.8-2.2,23.4s-.2,9.2-.4,14.8c-.2,5.9-.6,12.2-.8,18-.2,4.6-.4,8.8-.5,12.2-3,.1-8.6.5-11.8.9-4.8.6-9.1-.2-14-.5-4.2-.2-20.5-.7-22.1-3.9"/><path class="cls-1" d="M40.4,118.5c.9,2.2,2.3,5.1,2.5,7.1.3,3.8.7,7.6.4,11.5,0,1.6-.3,4.5-.4,8-.3,5.4-.6,12.2-.9,17.5-.2,3.3-.3,5.9-.4,7.2"/><path class="cls-1" d="M105.2,123.1c1.2,3.9,2.2,8.3,2.4,11.9.2,4.2-.8,7.8-2.6,10.5"/><path class="cls-1" d="M91.2,128.3c1.4,4,2.1,8.3,2.8,9.5"/><path class="cls-1" d="M100.2,132.8c-2.8,1.2-4.5,3-5.9,5.1-1.1,1.6-2.2,3.4-3.5,5.3"/><path class="cls-1" d="M22.1,124.9c-2.1,6.8-2.2,6.8-2.9,12.1-.7,5.5,6.1,12.6,11.4,16.5.8.6,10.8,8.7,11.4,9.1"/><path class="cls-1" d="M42.9,145.1c-.9-.9-2.4-2.3-3.1-3.1-1.9-1.9-3.3-3.3-4.8-4.2-1.8-1.2-3.8-1.8-6.8-2.3"/><path class="cls-1" d="M89.4,173.3c-.6,8.8.6,9.7.5,18,0,9.5-1,59.8-.5,69.1-6.7,2.6-8.4,3.8-18.8.9,0,0,0,0-.1,0,.2-2.3-3.9-21.8-5-36.3-1.1-14-2-15.5-1.8-18.1,0,0,0-.2,0-.3"/><path class="cls-1" d="M65.3,188.7c-.6,2.6-1.2,9.6-1.8,18.2-.5,6.6-1,14.2-1.5,21.6-1,15-5.4,35.1-6.2,37.6,0,.2-.1.3-.1.2-6.9,2.6-17.2-1.7-19.5-4.6,0,0,0,0,0-.2,0-1.9,1-19.6,1.9-38.1.8-17.8,1.9-43.7,3.5-53.6"/><path class="cls-1" d="M68.1,184.3c-1.4,1.7-1.7,3.1-2.8,4.3"/><path class="cls-1" d="M87.5,268.5h0c0,3.1.4,8.2.5,9.3"/><path class="cls-1" d="M75.3,286.5c0,.9.1,1.7.2,2.6"/><path class="cls-1" d="M73.7,270.3c.5,4,1,8.3,1.4,13,0,1,.2,2.1.2,3.2"/><path class="cls-1" d="M51.9,274s0,0,0,.2c-.8,5.9-.8,13.9-.6,19.1,0,.4,0,.8,0,1.2"/><path class="cls-1" d="M38,271.2c0,2.6,0,3-.3,6.5"/><path class="cls-1" d="M75.4,88c-1.3,3.8-4.6,6.5-9.9,5.5-4.5-.9-8.7-4.4-8.9-7.4,0-.2,0-.4,0-.5"/><path class="cls-1" d="M56.7,83c-2.4.5-11.1,1.8-13.3,2"/><path class="cls-1" d="M41.8,277.1c-1.1,0-2.2.4-3.2,1-.9.6-1.7,1.6-2.1,2.8-.4,1.1.6,4.8,0,5.8-.4.8-1.1,1.3-1.7,1.8-.9.6-2,1-2.9,1.6-2.7,1.6-7.5,5.3-8.3,8.8-.4,1.7-.4,4.6.6,6,1.1,1.5,3,3.8,4.7,3.9,5.4.1,11.1,0,16.5,0,2,0,5.7.4,7.1-1.3,1.6-2,.3-11.4-.9-13.8,0-.1-.1-.3-.2-.4-.3-.6-.7-1.2-1-1.6-1.4-1.8-2.9-2.1-5.5-2.9-2.7-.8-6.3-1.6-10-.2-1,.4-2,.9-2.9,1.6"/><path class="cls-1" d="M50.3,291.5c1.9-10.6-1.5-13.5-8.5-14.4"/><path class="cls-1" d="M76,290.4h0c-.2-1.2-.5-2.6-.7-4h0c-.2-1.1-.3-2.2-.2-3.2,0-1.2.3-2.4,1-3.3,1.9-2.6,9.8-4.5,12-2.2,1.7,1.8,1.8,5.4,1.9,8.1,0,.5,0,1-.2,1.4-.4.8-1.3.9-2.1.9-2.4,0-6.9-.1-9.2.6-1.1.3-1.9.9-2.5,1.6-.7.8-1.2,1.9-1.7,3.3-1,2.5-2.7,13.2-.6,14.8,1.4,1.1,19.1.3,24,0,.5,0,5.7-1.1,6.1-1.4,1.5-.8-.3-9.1-1-10.8-1.8-4.3-9.1-7.7-13-9"/><path class="cls-1" d="M36.2,261.5h0c-.5,0-1,0-1.6,0-.8,1.8.8,6.8,2,8.4.3.4.8.8,1.5,1.2,3.2,1.8,9.9,3.3,13.7,3,1.6,0,2.7-.5,2.9-1.2,1.2-1.3,2.5-3.6,2.4-4.9-.1-1.3-.2-1.8-1.4-1.9,0,0-.1,0-.2,0"/><path class="cls-1" d="M70.5,261.5c-.9,0-.5,0-1.5,0-.8,2.9.7,5.4,2.2,7.2.6.7,1.4,1.1,2.5,1.4,4,1,10.6-.4,13.8-1.5,1-.4,1.7-.7,1.9-.8,1.4-2,2.3-5.4,1.5-7.7-.3.3-1,.6-1.4.4"/><path class="cls-2" d="M90,161.1c6.8-5.4,9.6-8.9,15-15.6"/><path class="cls-2" d="M91,40.6c.2,0,.3.1.5.2.8.3,1.6-.3,1.6-1.1,0-1.9-.1-4-.6-6.1-1-4.6-3.2-9.3-6.1-12.2-3.8-3.8-10.9-5.7-18.4-5.8-1.9,0-3.8,0-5.6.2-5.2.5-10.1,1.9-13.8,4.1-4.1,2.4-7.4,8.9-9.1,14.3-1.3,4.5-1.5,8.3,0,8.8,0,0,.6-.2,1.1-.5.4-.2.9-.4,1-.5,1.5-.5,3.2-.6,4.7-.9,1.7-.3,3.5-.6,5.2-.9,1.3-.2,2.6-.4,3.9-.6,6.1-.9,12.2-1.5,18.3-1.3,5.5,0,10.4.5,15.5,1.9.6.2,1.2.3,1.7.5Z"/><path class="cls-1" d="M48.2,61.7c-.2-2.4-.4-3.5-.7-6"/><path class="cls-2" d="M90.6,53.5c.3,0,.6,0,.9,0,.3,3.3,0,6.7-1,10-.2.6-.4,1.3-.9,1.7-.5.4-1.3.6-1.8.2"/><path class="cls-1" d="M39.6,34.2c20.5-4.2,46.2-4.6,52.8-.6"/><path class="cls-1" d="M62.5,15.6c.4-1.1,1.5-1.9,2.7-2,1.2,0,2.4.7,2.9,1.7"/><path class="cls-2" d="M47,65c3.7,6.9,5.9,11.6,9.7,14.7h0c.9.7,1.9,1.4,2.9,1.9,4.2,2.1,11.4,2.4,14.4,2.4.4,0,.9,0,1.3-.2.4-.1.8-.4,1.1-.6,3.5-3.1,8.3-7.4,10.8-17.8.4-1.6.7-3.4,1-5.3.2-1.5.4-3.1.5-4.8"/><path class="cls-1" d="M75.5,84v4.1"/></svg>