<?xml version="1.0" encoding="UTF-8"?><svg id="africa" xmlns="http://www.w3.org/2000/svg" width="235" height="321.9" viewBox="0 0 235 321.9"><defs><style>.cls-1{stroke:#231f20;}.cls-1,.cls-2{stroke-linecap:round;stroke-linejoin:round;}.cls-1,.cls-2,.cls-3{fill:none;}.cls-2,.cls-3{stroke:#000;}.cls-3{stroke-miterlimit:10;}.cls-4{fill:#2648aa;}.cls-4,.cls-5,.cls-6,.cls-7,.cls-8,.cls-9,.cls-10,.cls-11,.cls-12{stroke-width:0px;}.cls-5{fill:#ddd;}.cls-6{fill:#ac3832;}.cls-7{fill:#9f6f56;}.cls-8{fill:#332723;}.cls-9{fill:#9fc1e4;}.cls-10{fill:#fff;}.cls-11{fill:#fffbfa;}.cls-12{fill:#020202;}</style></defs><path class="cls-5" d="M18.7,299c-.3,1.3-.3,7,.7,8,1.1,1.1,2.9,1.3,4.6,1.3,5.2,0,10.4.1,15.6,0,1.9,0,5.5.3,6.9-1,1.5-1.5,2.9-9,1.9-11.1-8.8-.1-19.4.8-23.7-3h0c-2.7,1.3-5.1,3-5.8,5.6Z"/><path class="cls-7" d="M27.4,147.7c.2,5.3-.4,8,.5,13.7,1.2,8.6,4.2,20.2,6.8,27.8l.4.3c.4-.5,1-1,1.5-1.5,1.9-1.7,4.2-3.2,6.6-4-1.2-3.6-2.1-8.6-2.7-13.5-.4-3.6-.7-7.1-.7-9.9,0-5-.4-7.1.6-11.9-3.3.4-9.1-.5-12.9-1.1Z"/><path class="cls-4" d="M40.4,148.9c.6,0,1.2-.2,1.6-.4,1.6-.7,1.8-12.5,1.8-18.1s0-3,0-3c0-13.4-1.2-20.5-6.2-19.7-.2,0-.4,0-.6.1-7.3,3.2-12.1,23.3-11.4,39.7.5,0,1.1.2,1.8.3,3.9.6,9.6,1.6,12.9,1.1Z"/><path class="cls-8" d="M38.2,74.7c-.2,2.9-1.1,6-.8,8.6.4,3.3.9,5.9,2.6,6.4,1.5.7-.8-8.4.1-11.4-.8-1.1-1.5-2.6-1.9-3.7Z"/><path class="cls-4" d="M37.6,107.7c5-.8,6.3,6.3,6.2,19.7,0,0,0,1.2,0,3,6.6,1.6,13.9.5,22,.5-.3-5.5-.7-10.7-1.1-15.2-1.8-1.6-3.6-2.6-6-4.2-3.1-2.1-7-3.5-10.8-3,0-1.7.6-3.5,1.4-5.2-2.2.4-9.1,3.8-11.7,4.5Z"/><path class="cls-6" d="M40.4,170.6c.6,4.9,1.5,9.9,2.7,13.5,1.3-.4,2.7-.6,4.1-.4,2.7.6,11.4,1.3,18.5,1.6,1.2-14.8,1.1-36.5.1-54.4-8.1,0-15.4,1.1-22-.5,0,5.6-.2,17.4-1.8,18.1-.3,4.7-1.3,18.1-1.6,22.1Z"/><path class="cls-8" d="M44.2,80.1c-.3,3.6-.6,6.4-.5,8.3.1,2.1,1.7,7.7,2.3,7.1,1-.9-.3-7.1,1.3-8.7h0c-1.3-2.2-2.2-4.7-2.2-7.4-.3.3-.6.6-1,.8Z"/><path class="cls-8" d="M53.7,59c0,1.3-.2,2.6-.2,4,1.2-.8,6.8-2,9.3-.2.5.3.9-.8.9-1.5,0-.8-.3-1.4-.8-1.8-.5-.4-1-.5-1.5-.6-2.4-.5-4.9-.3-7.3.2h-.5Z"/><path class="cls-7" d="M54.2,102.1c-.2,2.8,4.3,5.5,8,7.2,1.1.5,2.2.7,3.2.7,4-.2,6.6-4.5,6.8-8.7,0-.8,0-1,0-1.2h0c0-.3,0-.5,0-1.3-4,2.2-8.7,1.9-16.1-3.1-.5-.3-1-.7-1.7-1.2,0,1.5,0,2.7,0,3.8,0,1.4-.1,2.6-.2,3.9Z"/><path class="cls-12" d="M58.3,66.8c-.9,0-1.7,1.4-1.7,3.1s.7,3.1,1.7,3.1,1.7-1.4,1.7-3.1-.7-3.1-1.7-3.1Z"/><path class="cls-10" d="M57.7,84.3c2.4,4.2,2.3,3.2,4.3,4.7,2,1.6,5.4,2.5,7.5,2.2,3.4-.5,4.9-2.2,6.4-5.3-5.7,2.9-17-.2-18.2-1.6Z"/><path class="cls-4" d="M54.2,102.1c.1-1.3.2-2.5.2-3.9h-.3c-2,1.1-3.8,3-4.9,5.1-.9,1.6-1.4,3.4-1.4,5.2,3.8-.5,7.6.9,10.8,3,2.4,1.6,4.2,2.6,6,4.2.6.5,1.1,1.1,1.7,1.7,0-.1,0-.2.1-.3h-.2c0-2.5-.5-4.6-.9-7h0c-1,0-2.1-.3-3.2-.8-3.8-1.7-8.3-4.4-8-7.2Z"/><path class="cls-4" d="M72.3,101.2c-.2,4.2-2.8,8.5-6.8,8.7h0c.3,2.5.9,4.6.9,7.1h.2c.4-.9.8-1.6,1.3-2.3.8-1.2,1.8-2.2,2.9-3.7,1.8-2.4,4.6-4.4,7.6-4.6-.5-1-1.2-2-1.9-3-1.2-1.5-2.5-2.9-4.2-3.6h0c0,.5,0,.9,0,1.3Z"/><path class="cls-4" d="M66.4,117.4c-.6-.7-1.2-1.2-1.7-1.7.5,4.5.8,9.7,1.1,15.2,1,17.9,1.1,39.6-.1,54.4,1.5,0,3,0,4.3.1h0c1.2-14.7.5-36.4-.8-54.5-.4-5.9-.9-11.4-1.4-16.2-.5.7-.9,1.4-1.3,2.3,0,0,0,.2-.1.3Z"/><path class="cls-4" d="M70.9,130.8c-.6-2.7-.5-5.5-.3-7,0,0,10-.3,13.5-.5,0,1.3.2,4.2-.1,7.1,2.2-.2,3.4-1.2,3.7-1.5-.2-6.9-.7-13.8-2.1-19.7-.5-.8-8.3-5.8-8.8-6l-.4.3c.7,1,1.4,2,1.9,3-3.1.2-5.8,2.1-7.6,4.6-1.1,1.5-2.1,2.5-2.9,3.7.5,4.8.9,10.3,1.4,16.2.8,0,1.1,0,1.8,0Z"/><path class="cls-6" d="M87.7,149.4c0-2.3.1-4.3.1-6.2,0-4.5,0-9.4,0-14.4-.3.3-1.6,1.3-3.7,1.5-.4,3.8-1.9,7.6-6.1,7.7-4.2.1-6.2-3.5-7-7.3-.7,0-1.1,0-1.8,0,1.3,18.1,2,39.8.8,54.4h0c2.1.1,3.9,0,4.9,0,3-.3,8.4-.7,11.3-.8.3-8.7,1.3-24,1.6-35Z"/><path class="cls-11" d="M70.7,123.8c-.3,1.5-.3,4.3.3,7,.8,3.8,2.8,7.4,7,7.3,4.2-.1,5.7-3.9,6.1-7.7.3-2.9.1-5.9.1-7.1-3.5.3-13.5.5-13.5.5Z"/><path class="cls-8" d="M72.3,61.2c0,.8.6,2.2,1.2,1.9,1.4-.9,6.1-1.5,8.7-.4-.1-1.3-.3-2.5-.5-3.8h0c-.8-.3-1.7-.2-2.5-.2-1.3,0-2.7.1-4,.2-.6,0-1.2,0-1.7.4-.5.3-1,1-1.1,1.8Z"/><path class="cls-12" d="M78.9,67c-.7,0-1.4,1.2-1.4,2.7s.6,2.7,1.4,2.7,1.4-1.2,1.4-2.7-.6-2.7-1.4-2.7Z"/><path class="cls-5" d="M78,295.9c-1,2-1.4,10.8.6,12,1.4.8,18.7,1.4,23.5,1.1.5,0,3.3-.6,3.7-.8,1.4-.6.8-8.6,0-9.9-1.2-2.4-4.3-4-7.8-5.3-7.9.9-13.1,2.3-19.9,3Z"/><path class="cls-7" d="M87.2,67.9c-.5-2.8-1.1-5.7-1.8-8.3h0c.5,8.7-.5,19.4-2.9,18,.2-3.5.3-9.2-.2-14.9-2.7-1.1-7.4-.5-8.7.4-.5.3-1.2-1-1.2-1.9s.6-1.5,1.1-1.8c.5-.3,1.2-.4,1.7-.4,1.3,0,2.7-.1,4-.2.8,0,1.7,0,2.5.2h0c-1.4-9.4-5.1-17.4-13.7-13.3-11.4-4.8-12.9,4.6-13.9,9.2-.2,1.1-.4,2.5-.5,4.1h.5c2.4-.5,4.9-.7,7.3-.2.5,0,1.1.2,1.5.6.5.4.8,1.1.8,1.8,0,.7-.4,1.9-.9,1.5-2.6-1.8-8.1-.6-9.3.2-.2,6.8-.1,14.2-1.5,13.7-1-4.1-2.2-11.6-1.6-15.7.4-2.8.8-6.7,1.6-9.9h-.7c-5.6,6.8-4,22-7.4,21.3-.5-1.4-.9-3.7-.8-6.3-.8-1.3-2.8-1.3-4.1-.8-1.7.7-2,1.8-2,3.7,0,2,.6,4,1.3,5.7.4,1,1.1,2.5,1.9,3.7.4.6.8,1.1,1.2,1.4.8.6,1.9.8,2.8.4.3-.2.7-.4,1-.8,0,2.7.8,5.2,2.2,7.4,2,3.3,5,5.9,7.2,7.6.6.5,1.2.9,1.7,1.2,7.4,5,12.1,5.3,16.1,3.1,2.9-1.6,5.4-4.4,8.2-7.8.7-.8,1.3-1.8,1.9-3.1,2.5-5.1,4.4-13.4,4.6-19.8h.2ZM56.6,69.8c0-1.7.7-3.1,1.7-3.1s1.7,1.4,1.7,3.1-.7,3.1-1.7,3.1-1.7-1.4-1.7-3.1ZM62,89.1c-2-1.5-1.9-.6-4.3-4.7,1.2,1.4,12.5,4.4,18.2,1.6-1.5,3.1-3,4.8-6.4,5.3-2.1.3-5.4-.6-7.5-2.2ZM77.6,69.7c0-1.5.6-2.7,1.4-2.7s1.4,1.2,1.4,2.7-.6,2.7-1.4,2.7-1.4-1.2-1.4-2.7Z"/><path class="cls-9" d="M86.1,184.5c-2.9.1-8.3.4-11.3.8-1,.1-2.8.2-4.9.1-1.3,0-2.7,0-4.3-.1-7.1-.3-15.8-1-18.5-1.6-1.4-.2-2.7,0-4.1.4-2.4.8-4.6,2.3-6.6,4-.5.5-1,1-1.5,1.5-.5.6-.8,1.2-1,1.9-.3,1.2,0,2.4.2,3.6.4,2,.9,4.1,2.1,5.8-2.6,19.6-13.2,90.6-13.2,90.6.3.8.8,1.4,1.5,2,4.3,3.8,14.9,2.8,23.7,3,1.5,0,2.9,0,4.2.2l.4-.2c0,0,6.2-76.6,9.3-95.3h.2c0,4.9,9.1,86,9.8,95.2,2.1,0,4-.2,5.7-.3,6.8-.7,12.1-2,19.9-3-1.5-8.2-8.8-79.5-10.1-91.2,1.3-2.9,2.6-5.9,2.2-9.1-.2-1.7-.9-3.2-1.7-4.7-.7-1.2-1.4-2.3-2.2-3.3v-.2Z"/><path class="cls-7" d="M86.1,184.5v.2c.8,1.1,1.6,2.2,2.3,3.3,1.9-5.1,1.8-25.4,1.4-38.8-.7,0-1.4,0-2.1.2-.3,11-1.3,26.4-1.6,35Z"/><path class="cls-8" d="M87,67.9c-.2,6.5-2,14.7-4.6,19.8h0c-.6,4.2-.9,4.1-2,7.7,2.9,3.9,4.3-5.7,4.9-9.1,1-5.2,1.8-11.3,2.2-13h.5c-.3-1.8-.5-3.7-.9-5.5h-.2Z"/><path class="cls-4" d="M87.7,128.9c.1,5,0,9.9,0,14.4s0,3.9-.1,6.2c.7-.1,1.4-.1,2.1-.2.6,0,1.2-.1,1.7-.3,1.4-13.1-2.2-33.9-5.9-39.8,1.5,5.9,2,12.8,2.1,19.7Z"/><path class="cls-8" d="M85.3,59.6h0c.8,2.6,1.3,5.5,1.8,8.3.3,1.9.6,3.7.9,5.4,1,7,1.7,12.5,3.4,11.4.7-.2.5-4.5-.4-9.3-1.1-6-1.7-13.7-2.5-19.6,3,2.1,4,13.5,6.2,12.8,1.3.4-1.9-15.8-2.2-16.7-.8-2.5-3.9-9.5-6.4-12.5-3.7-4.6-12.4-12.1-20.1-6.1-5.3-3.1-9.1-2.6-12-1.7-10.1,3.4-11.6,4.4-15.1,8.6-4.3,7-4.9,10.5-8.6,18.5-.2.4,1,.3,1.8-.2s5.9-7.4,6.3-8.3c-2.8,6.2-3.5,8.2-5.1,14.9-1,4.4-4.7,11.7-1.3,14.5,2.2-1,3.2-14.5,7.4-18.3-.2,1.3-.3,2.6-.4,3.7,1.3-.5,3.3-.6,4.1.8,0,2.7.3,4.9.8,6.3,3.5.7,1.8-14.5,7.4-21.4h.7c-.9,3.3-1.2,7.2-1.6,10-.6,4.1.6,11.6,1.6,15.7,1.3.5,1.2-6.9,1.5-13.7,0-1.4.1-2.8.2-4,.1-1.6.3-3,.5-4.1,1-4.6,2.5-14,13.9-9.2,8.6-4.1,12.3,3.9,13.7,13.3.2,1.2.3,2.5.5,3.8.5,5.7.4,11.4.2,14.9,2.4,1.4,3.4-9.3,2.9-18Z"/><path class="cls-3" d="M72.2,100c0,.4,0,.8,0,1.2-.2,4.2-2.8,8.5-6.8,8.7-1,0-2.1-.2-3.2-.7-3.8-1.7-8.3-4.4-8-7.2.1-1.3.2-2.5.2-3.9,0-1.1,0-2.3,0-3.8"/><path class="cls-3" d="M42,148.5c-.3,4.7-1.3,18.1-1.6,22.1"/><path class="cls-2" d="M24.5,293.5c-2.7,1.2-5.1,2.9-5.8,5.6-.3,1.3-.3,7,.7,8,1.1,1.1,2.9,1.3,4.6,1.3,5.2,0,10.4.1,15.6,0,1.9,0,5.5.3,6.9-1,1.5-1.5,2.9-9,1.9-11.1,0,0,0-.1,0-.2"/><path class="cls-2" d="M78,295.9h0c-1,2-1.4,10.9.6,12,1.4.8,18.7,1.4,23.5,1.1.5,0,3.3-.6,3.7-.8,1.4-.6.8-8.6,0-9.9-1.2-2.4-4.3-4-7.8-5.3"/><path class="cls-3" d="M76.4,103.5c-1.2-1.5-2.5-2.9-4.2-3.6"/><path class="cls-2" d="M67.8,114.7c.8-1.2,1.8-2.2,2.9-3.7,1.8-2.4,4.6-4.4,7.6-4.6-.5-1-1.2-2-1.9-3"/><path class="cls-3" d="M54.2,98.1c-2,1.1-3.8,3-4.9,5.1-.9,1.6-1.4,3.4-1.4,5.2,3.8-.5,7.6.9,10.8,3,2.4,1.6,4.2,2.6,6,4.2.6.5,1.1,1.1,1.7,1.7,0-.1,0-.2.1-.3.4-.9.8-1.7,1.3-2.3"/><path class="cls-3" d="M84,130.4c2.2-.2,3.4-1.2,3.7-1.5,0,0,0,0,0,0"/><path class="cls-3" d="M69.1,130.9c.8,0,1.1,0,1.8,0"/><path class="cls-3" d="M43.8,130.4c6.6,1.6,13.9.5,22,.5"/><path class="cls-3" d="M70.9,130.8c-.6-2.7-.5-5.5-.3-7,0,0,10-.3,13.5-.5,0,1.3.2,4.2-.1,7.1-.4,3.8-1.9,7.6-6.1,7.7-4.2.1-6.2-3.5-7-7.3Z"/><path class="cls-3" d="M64.7,115.6c.5,4.5.8,9.7,1.1,15.2,1,17.9,1.1,39.6-.1,54.4,0,.2,0,.4,0,.6"/><path class="cls-2" d="M67.8,114.7c.5,4.8.9,10.3,1.4,16.2,1.3,18.1,2,39.8.8,54.4"/><path class="cls-2" d="M65.5,110c.3,2.4.9,4.5.9,6.9"/><path class="cls-2" d="M72.3,101.5c0-.1,0-.2,0-.3,0-.8,0-1,0-1.2h0c0-.3,0-.5,0-1.3h0"/><path class="cls-2" d="M75.9,85.9c-5.7,2.9-17-.2-18.2-1.6,2.4,4.2,2.3,3.2,4.3,4.7,2,1.6,5.4,2.5,7.5,2.2,3.4-.5,4.9-2.2,6.4-5.3Z"/><path class="cls-2" d="M87,67.9c-.2,6.5-2,14.7-4.6,19.8-.6,1.2-1.3,2.3-1.9,3.1-2.9,3.4-5.4,6.2-8.2,7.8-4,2.2-8.7,1.9-16.1-3.1-.5-.3-1-.7-1.7-1.2-2.2-1.6-5.2-4.3-7.2-7.6-1.3-2.2-2.2-4.7-2.2-7.4"/><path class="cls-2" d="M82.2,62.7c-2.7-1.1-7.4-.5-8.7.4-.5.3-1.2-1-1.2-1.9s.6-1.5,1.1-1.8c.5-.3,1.2-.4,1.7-.4,1.3,0,2.7-.1,4-.2.8,0,1.7,0,2.5.2"/><path class="cls-2" d="M54.1,59c2.4-.6,4.9-.7,7.3-.2.5,0,1.1.2,1.5.6.5.4.8,1.1.8,1.8,0,.7-.4,1.9-.9,1.5-2.6-1.8-8.1-.6-9.3.2"/><path class="cls-2" d="M77.6,69.7c0,1.5.6,2.7,1.4,2.7s1.4-1.2,1.4-2.7-.6-2.7-1.4-2.7-1.4,1.2-1.4,2.7Z"/><path class="cls-2" d="M56.6,69.8c0,1.7.7,3.1,1.7,3.1s1.7-1.4,1.7-3.1-.7-3.1-1.7-3.1-1.7,1.4-1.7,3.1Z"/><path class="cls-2" d="M74.8,80.6c-4.2,2.3-6.5,2.5-10.7.3"/><path class="cls-2" d="M43.3,66.5c0-.2-.1-.3-.2-.5-.8-1.3-2.8-1.3-4.1-.8-1.7.7-2,1.8-2,3.7,0,2,.6,4,1.3,5.7.4,1,1.1,2.5,1.9,3.7.4.6.8,1.1,1.2,1.4.8.6,1.9.8,2.8.4.3-.2.7-.4,1-.8"/><path class="cls-2" d="M62.2,41.5c-2.6-.5-6.8,1.7-9.1,6.7-.4.9-.7,1.9-1,2.9-.9,3.2-1.2,7.1-1.6,9.9-.6,4.1.6,11.6,1.6,15.7,1.3.5,1.2-6.9,1.5-13.7,0-1.4.1-2.8.2-4,.1-1.6.3-3,.5-4.1,1-4.6,2.5-14,13.9-9.2"/><path class="cls-2" d="M66.8,39.2c-1.8-2-7.6-2.2-10.1-.9-5.8,3.1-8.8,7.3-11.5,15.6-1.4,4.4-2.1,8.7-2.1,12.1,0,2.7.3,4.9.8,6.3,3.5.7,1.8-14.5,7.4-21.4"/><path class="cls-2" d="M39.4,61.5c-4.2,3.7-5.1,17.2-7.4,18.3-3.4-2.8.3-10.2,1.3-14.5,1.6-6.7,2.3-8.8,5.1-14.9,5.4-11.9,17.7-17.5,28.3-14.2"/><path class="cls-2" d="M88.6,55.9c3,2.1,4,13.5,6.2,12.8,1.3.4-1.9-15.8-2.2-16.7-.8-2.5-3.9-9.5-6.4-12.5-3.7-4.6-12.4-12.1-20.1-6.1"/><path class="cls-2" d="M69.9,38c6.1-3.2,14.1,2.9,17.2,10.3.6,1.5,1.1,4.2,1.5,7.5h0c.8,5.9,1.4,13.6,2.5,19.6.9,4.8,1.1,9.1.4,9.3-1.7,1.1-2.4-4.4-3.4-11.4-.3-1.8-.5-3.6-.9-5.4-.5-2.8-1.1-5.7-1.8-8.3"/><path class="cls-2" d="M68.1,45.7c8.6-4.1,12.3,3.9,13.7,13.3.2,1.2.3,2.5.5,3.8.5,5.7.4,11.4.2,14.9,2.4,1.4,3.4-9.3,2.9-18-.1-2.7-.4-5.3-.9-7.2-2-8.5-8.4-12.2-13-11"/><path class="cls-2" d="M44.2,80.1c-.3,3.6-.6,6.4-.5,8.3.1,2.1,1.7,7.7,2.3,7.1,1-.9-.3-7.1,1.3-8.7"/><path class="cls-2" d="M82.5,87.8c-.6,4.2-.9,4.1-2,7.7,2.9,3.9,4.3-5.7,4.9-9.1,1-5.2,1.8-11.3,2.2-13"/><path class="cls-2" d="M66.1,33.4c-5.3-3.1-9.1-2.6-12-1.7-10.1,3.4-11.6,4.4-15.1,8.6"/><path class="cls-2" d="M48.8,41.4c-5.1,4.5-5.3,5.5-6.9,9.6-.9,2.4-2,6.6-2.5,10.5-.2,1.3-.3,2.6-.4,3.7"/><path class="cls-2" d="M38.2,74.7c-.2,2.9-1.1,6-.8,8.6.4,3.3.9,5.9,2.6,6.4,1.5.7-.8-8.4.1-11.4h0"/><path class="cls-2" d="M38.5,50.3c-.4.9-5.4,7.8-6.3,8.3s-2,.6-1.8.2c3.6-8,4.3-11.5,8.6-18.5"/><path class="cls-1" d="M86.1,184.5c-2.9.1-8.3.4-11.3.8-1,.1-2.8.2-4.9.1-1.3,0-2.7,0-4.3-.1-7.1-.3-15.8-1-18.5-1.6"/><path class="cls-1" d="M85.6,109.2c1.5,5.9,2,12.8,2.1,19.7.1,5,0,9.9,0,14.4s0,3.9-.1,6.2c-.3,11-1.3,26.4-1.6,35"/><path class="cls-1" d="M72.3,296.9c0-.1,0-.4,0-.7-.7-9.2-9.8-90.3-9.8-95.1"/><path class="cls-1" d="M72.2,296.2s0,0,0,0c2.1,0,4-.2,5.7-.3,6.8-.7,12.1-2,19.9-3-1.5-8.2-8.8-79.5-10.1-91.2,0-.3,0-.6,0-.8"/><path class="cls-1" d="M52.5,296.6c-1.3-.1-2.8-.2-4.2-.2-8.8-.1-19.4.8-23.7-3-.6-.5-1.1-1.2-1.5-2,0,0,10.6-71,13.2-90.6.2-1.4.3-2.6.4-3.4"/><path class="cls-1" d="M63,197.6c-.2.7-.5,1.9-.7,3.5-3.1,18.7-9.2,95.3-9.3,95.3h0"/><path class="cls-1" d="M67.5,193.5c-2.8,2.1-4.5,2.7-4.6,3.5"/><path class="cls-1" d="M49.3,103.2h0c-2.2.4-9.1,3.8-11.7,4.5-.2,0-.4,0-.6.1"/><path class="cls-1" d="M37,107.8c.2,0,.4,0,.6-.1,5-.8,6.3,6.3,6.2,19.7"/><path class="cls-2" d="M37,107.8c-7.3,3.2-12.1,23.3-11.4,39.7.5,0,1.1.2,1.8.3,3.9.6,9.6,1.6,12.9,1.1.6,0,1.2-.2,1.6-.4,1.6-.7,1.8-12.5,1.8-18.1s0-3,0-3"/><path class="cls-2" d="M76.8,103.2c.5.2,8.3,5.1,8.8,6,3.7,5.9,7.4,26.7,5.9,39.8-.6.2-1.2.2-1.7.3-.7,0-1.4,0-2.1.2-.2,0-.5,0-.7.2"/><path class="cls-2" d="M89.8,149.2c.4,13.4.5,33.7-1.4,38.8"/><path class="cls-2" d="M47.1,183.7c-1.4-.2-2.7,0-4.1.4-2.4.8-4.6,2.3-6.6,4-.5.5-1,1-1.5,1.5-.5.6-.8,1.2-1,1.9-.3,1.2,0,2.4.2,3.6.4,2,.9,4.1,2.1,5.8.1.1.2.3.3.4"/><path class="cls-2" d="M27.4,147.7c.2,5.3-.4,8,.5,13.7,1.2,8.6,4.2,20.2,6.8,27.8"/><path class="cls-2" d="M40.5,148.5c0,.1,0,.3,0,.4-1.1,4.8-.7,6.8-.6,11.9,0,2.8.3,6.3.7,9.9.6,4.9,1.5,9.9,2.7,13.5"/><path class="cls-2" d="M86.2,184.6c.8,1.1,1.6,2.2,2.2,3.3.8,1.5,1.5,3,1.7,4.7.4,3.1-.9,6.2-2.2,9.1-.1.2-.2.5-.3.7"/></svg>