<?xml version="1.0" encoding="UTF-8"?><svg id="africa" xmlns="http://www.w3.org/2000/svg" width="235" height="321.9" viewBox="0 0 235 321.9"><defs><style>.cls-1{stroke-linecap:round;stroke-linejoin:round;}.cls-1,.cls-2{fill:none;stroke:#000;}.cls-2{stroke-miterlimit:10;}.cls-3,.cls-4,.cls-5,.cls-6,.cls-7,.cls-8,.cls-9,.cls-10,.cls-11,.cls-12,.cls-13{stroke-width:0px;}.cls-4{fill:#54a880;}.cls-5{fill:#ddbca1;}.cls-6{fill:#dea339;}.cls-7{fill:#ac847b;}.cls-8{fill:#d5d5d4;}.cls-9{fill:#332921;}.cls-10{fill:#926b4d;}.cls-11{fill:#fff;}.cls-12{fill:#ffcc69;}.cls-13{fill:#e880a9;}</style></defs><path class="cls-8" d="M168.7,229.1c.9,3.5,9.8-6.1,9.2-7.3-.6-1.2-1-2-1-3.3.3,0,.6,0,.9,0,0,0,0,0,.1,0,7.9-.7,17.5-1.8,25.3-2.5,1.4-.1,2.9-.2,4.1.3,2.7,1.1,3.1,4.9,1.7,7.5-1.5,2.6-4.2,4.3-6.9,5.8-8.2,4.4-17.1,7.4-25.8,10.4-1.1.4-2.3.7-3.2.2h-.3c-.3-.3-.6-.8-.8-1.2-1.5-3-2.6-6.3-3.3-9.6,0,0,0-.2,0-.2Z"/><path class="cls-4" d="M168.7,229.1c0,0,0,.2,0,.2h-.2c-18.1-7.5-20.5-.2-31.4-10.1-9.8-1.8-12.2.9-17.7.9,5-4.2,9.9-9.5,12-20.1,8.2,3.4,1-.4,11.2,5.8,13.5,5,20.7,7.8,34.2,12.8,0,1.3.4,2.1,1,3.3.6,1.2-8.3,10.8-9.2,7.3Z"/><path class="cls-7" d="M105.2,112.5l-.2.3c0,11.6,8.6,12,11.2,4.5-4.3-.5-7.2-2.2-11-4.7ZM86.5,105.8c-.4-.2-.7-.5-1-.8-1.2-1.3-1.5-3.1-1.3-4.8.1-1,.4-1.9,1-2.7.6-.8,1.6-1.4,2.6-1.3,1,0,2.1.7,2.3,1.7,5-9.2,6.9-16.2,15-18.4,4-1.1,11.7-1,13.7,2.4,3-2.2,7.7,1.5,9.1,4.9,1.4,3.3,1.2,6.2.4,8.8-1.9,4.1-1.4,3.7-2.1,6-.3,1-.2,4.6-.9,8.8-.7,4.2-2.3,9-6.2,12,0,0-5.6,5.1-9.4,5.8-.7.1-2.4-.4-4.7-1.4-.5-.2-1-.4-1.6-.7h0c-5.8-2.6-13.8-7.2-15.6-10.9-.7-3.9-1.4-5.4-1.4-9.4ZM122.7,104.9c.3-1.4,0-2.7-.9-2.9-.8-.2-1.7.9-2.1,2.3-.3,1.4,0,2.7.9,2.9.8.2,1.7-.8,2.1-2.3ZM107.1,101.2c.3-1.4-.1-2.6-.9-2.8-.8-.2-1.8.8-2.1,2.2-.3,1.4.1,2.6.9,2.8.8.2,1.8-.8,2.1-2.2Z"/><path class="cls-9" d="M128.4,95.5c.8-2.7.9-5.5-.4-8.8-1.4-3.5-6.1-7.2-9.1-4.9-.3-7.6-4-11.9-13.3-16.2,21.6-.9,33.1,22.3,19.8,44.8.7-4.2.6-7.8.9-8.8.7-2.3.2-1.9,2.1-6Z"/><path class="cls-13" d="M110.2,175.1c-6.9,1.1-12.2-.4-21.5-1.5v-.3c.1-2.9,1.1-5.7,2.9-7.9h.2c.2,0,.4,0,.6,0,7.2-1.5,10.5-1,18.1-2.7.5-.1,1-.2,1.6-.4-.1-.8-.4-1.5-.5-2.3,1.9-.3,4.2-.5,5.2-.6,1,0,4.3-.3,6-.5h0c.3,3.2.5,8-1,11-.9,1.9-2,2-2.8,2.6-3.4,1.3-6.3,2.1-8.9,2.5Z"/><path class="cls-3" d="M121.8,102c.8.2,1.2,1.5.9,2.9s-1.3,2.4-2.1,2.3c-.8-.2-1.2-1.5-.9-2.9.3-1.4,1.2-2.4,2.1-2.3Z"/><path class="cls-6" d="M111.6,160.1c-.3,0-.6,0-.9.1-.9.1-1.6.3-1.9.3-.2-1.9-.5-2.5-.6-4.3,5.3.2,10.2-.3,15.4-1.3.3,2.2.3,3.6.2,3.8,0,0-.4.2-1,.2-1.7.3-5,.5-6,.5-1,0-3.3.3-5.2.6Z"/><path class="cls-12" d="M75.8,170.9c0,.6,0,1.1,0,1.4.9,2.4,9.6,2.1,11.9,1.2.3,0,.5,0,.8,0,9.3,1.1,14.7,2.5,21.5,1.5-.7,2.8,1.1,12.7,1.2,17.1,0,0,.1,0,.2,0,5.7,2,15.8,5.5,19.9,7.7-2.1,10.6-7.1,15.9-12,20.1h0c-1.7,1.4-3.4,2.8-4.9,4.1-2.8,2.4-5.2,4.9-6.8,8.4-.7,1.7-4.2,8.8-7.2,13.3-1.6,2.4-3.1,4.1-4,3.9-8.6-14.2-31.5-25.1-27.6-56.4h0c1.1-9,.9-10.2,1-22.4h5.8Z"/><path class="cls-8" d="M110,289.7h0c7.4,2.9,15.5,8.4,22.9,11.2,1.3.5,2.6,1,3.5,2.1,1.9,2.2.8,5.8-1.6,7.5s-5.5,2.1-8.4,2.2c-9,.4-18.7-3.3-27.6-4.4-1.1-.1-2.3-.3-2.9-1.2-.5-.6-.5-1.4-.5-2.2,0-3.1.3-6.2,1-9.2,0-.3.1-.5.2-.8,1.1,1.9,5.2,3,7,1.7,1-.8,1.5-2,1.9-3.2.4-1.2.8-2.5,1.6-3.4.3-.3.5-.5.8-.6.5-.2,1-.1,2,.2h0Z"/><path class="cls-3" d="M106.1,98.4c.8.2,1.3,1.4.9,2.8-.3,1.4-1.3,2.3-2.1,2.2-.8-.2-1.3-1.4-.9-2.8.3-1.4,1.3-2.3,2.1-2.2Z"/><path class="cls-9" d="M79.9,77.5c3.4-6.2,15.3-15.9,25.6-12,9.3,4.4,13,8.6,13.3,16.2-2.1-3.4-9.8-3.5-13.7-2.4-8.1,2.3-10,9.3-15,18.4-.2-1-1.2-1.6-2.3-1.7-1,0-2,.6-2.6,1.3-.6.8-.9,1.8-1,2.7-.2,1.7.2,3.5,1.3,4.8.3.3.6.6,1,.8,0,3.9.7,5.5,1.4,9.4,0,.5-.3.5-1,.4-1.7-.4-5-2-7.7-1.9-3.8-5.3-8.7-19.1.7-36.1Z"/><path class="cls-13" d="M105.4,129.9c.3.4.7.6,1.4.8-1.7,1.9-1.9,15.6-3.3,16.4-5,2.6-19.2-.8-22.1-1.4-2.2-.5.2-19.3,1.9-19.5v-.2c1,0,1.9,0,2.6-.1-.3,4.9,8.3,6.8,9,6.9,5,.6,8.7-.9,10.2-2.5l.3-.2Z"/><path class="cls-13" d="M105.4,129.9l-.3.2c-1.5,1.6-5.3,3.2-10.2,2.5-.7,0-9.3-2-9-6.9.1-1.7.4-3.6.7-5.4,3.9,4.1,10.6,5.9,16.9,5.7h0c.5.2,1.1.5,1.6.7-.2,1.7-.2,2.6.3,3.2Z"/><path class="cls-11" d="M105.2,112.5c3.8,2.6,6.6,4.3,11,4.7-2.6,7.6-11.2,7.2-11.2-4.5l.2-.3Z"/><path class="cls-4" d="M96.5,295c0,.3-.1.5-.2.8h0c-.3-9.5-.6-27,2.4-35.9,1-3,2.1-6.5,2.6-9.7.5-3.2.8-1.5-.7-4.4,3-4.5,6.4-11.6,7.2-13.3,1.5-3.5,4-6,6.8-8.4.3.5,6.5,17.7,6.6,18.3.9,4.5-2.8,11.4-5,19.2-2.5,9.3-5.1,18.7-8.4,27.6h0c-.2.2-.5.4-.8.7-.9.9-1.2,2.2-1.6,3.4-.4,1.2-.9,2.5-1.9,3.2-1.8,1.3-5.9.2-7-1.7Z"/><path class="cls-10" d="M92.4,165.3h0c-.2.2-.4.2-.6.3h-.2c-1.8,2.1-2.8,4.9-2.9,7.8v.3c-.3,0-.5,0-.8,0-2.4.9-11,1.1-11.9-1.2-.1-.3-.1-.8,0-1.4,0-1.1.5-2.7,1-4.4,1-3.2,2.7-6.7,4.2-7.4,2.4-1.2,11.2,3.5,11.4,6.2Z"/><path class="cls-7" d="M87.9,115.1c1.8,3.6,9.7,8.2,15.6,10.9-6.3.2-13-1.6-16.9-5.7,0-.6.2-1.3.3-1.9.6-.5.7-1.9.2-2.4,0,0,0,0-.1-.1v-.4c.7.2,1.2.1,1.1-.4Z"/><path class="cls-12" d="M87,116c.6.5.4,1.9-.2,2.4,0-.8.2-1.6.2-2.4Z"/><path class="cls-9" d="M86.8,118.4c0,.6-.2,1.3-.3,1.9-.3,1.8-.6,3.7-.7,5.4-.6,0-1.5,0-2.6.1-3.6.1-8.7.3-9.3.4,1.6-4.2,2.1-5.7,5.1-9.1l.2-.3c1.2.8,6.6,2,7.4,1.8,0,0,.2,0,.3-.2Z"/><path class="cls-12" d="M79.2,113.6c2.7,0,6,1.5,7.7,1.9v.4s0,0,.1.1c0,.8,0,1.6-.2,2.4,0,0-.2.1-.3.2-.8.2-6.2-.9-7.4-1.8,0,0-.1-.1-.2-.1-.6-.8-.7-2.5.1-3.1Z"/><path class="cls-6" d="M76.7,166.5h0c-.5,1.7-.9,3.3-1,4.4h0c-1.9,0-3.8,0-5.7,0h0c0-1.4,0-2.9,0-4.6h.1c2.2-.1,4.4,0,6.5.2Z"/><path class="cls-12" d="M70,148.7c-3.2,3-3.3,2.9-4.4,3.6.3-.2.6-.5.9-.7v-.2c-3.8-4.4-5.8-10.1-5.9-15.8h-.5c1-1,2.1-2,2.4-2.3,3.7-3.4,6.5-6.1,11.4-7.1.6-.1,5.7-.2,9.3-.4v.2c-1.7.2-4.1,19.1-1.9,19.5,3,.6,17.2,4,22.1,1.4,1.4-.7,1.6-14.4,3.3-16.4,3,1.7,11.3,4.9,12.7,8.4,2.4,6,3.7,12.1,4.2,15.9-5.2,1.1-10.1,1.5-15.4,1.3.2,1.8.4,2.4.6,4.3.3,0,1-.2,1.9-.3,0,1,0,1.4-.2,2.5-7.6,1.7-10.9,1.2-18.1,2.7h0c-.1-2.8-8.9-7.5-11.4-6.3-1.5.7-3.2,4.2-4.2,7.4h0c-2.2-.3-4.4-.4-6.5-.2h-.1c0-1.7,0-3.6.1-5.7,0-4.7.2-8.1-.2-11.8Z"/><path class="cls-5" d="M65.4,152.5c-.3.2-.5.4-.8.6.3-.3.6-.4.8-.6Z"/><path class="cls-6" d="M60.6,135.6c0,5.7,2.1,11.4,5.8,15.8v.2c-.2.2-.5.5-.9.7,0,0-.1,0-.2.1-.2.2-.5.3-.8.6-1.1-.6-4.5-5.4-5-6.8-.4-1-1.3-4.8-1.7-6.7-.1-.6-.2-1-.2-1.1,0-.5,1.2-1.8,2.4-2.9h.5Z"/><path class="cls-10" d="M43.3,178.3c2.2.6,4.3,8.6,2.8,10.3-1.5,1.9-10.3,2.7-11.7,1.7-1.6-1.1,0-7.2,1.1-9.5,0,0,0,0,0,0,2.4-1.1,5-1.9,7.5-2.4h0s0-.1.1-.2h0Z"/><path class="cls-13" d="M43.1,178.4c-2.6.5-5.1,1.3-7.5,2.4,0-.2.2-.3.2-.4,2.4-11,3.9-16.7,10.3-26,2.9-4.2,8.7-11.8,11.7-14.8h.1c.4,1.9,1.3,5.7,1.7,6.7.6,1.4,3.9,6.2,5,6.8-3,2.1-7.3,4.8-10.8,7.5-4.2,7.7-7.4,11.3-10.5,17.6,0,0,0,.1-.1.2h0Z"/><path class="cls-1" d="M65.4,152.5c-.2.2-.5.3-.8.6-1.1-.6-4.5-5.4-5-6.8-.4-1-1.3-4.8-1.7-6.7-.1-.6-.2-1-.2-1.1,0-.5,1.2-1.8,2.4-2.9,1-1,2.1-2,2.4-2.3,3.7-3.4,6.5-6.1,11.4-7.1.6-.1,5.7-.2,9.3-.4,1,0,1.9,0,2.6-.1"/><path class="cls-1" d="M70.2,148.5l-.2.2c-3.2,3-3.3,2.9-4.4,3.6"/><path class="cls-1" d="M57.8,139.6c-2.9,3-8.7,10.6-11.7,14.8-6.5,9.2-7.9,15-10.3,26"/><path class="cls-1" d="M66.8,151.5c0,0-.2.1-.3.2-.3.2-.6.5-.9.7,0,0-.1,0-.2.1-.3.2-.5.4-.8.6-3,2.1-7.3,4.8-10.8,7.5-4.2,7.7-7.4,11.3-10.5,17.6,0,0,0,.1-.1.2,0,0,0,.2-.1.3"/><path class="cls-1" d="M35.5,180.8c0-.2.2-.3.2-.4"/><path class="cls-1" d="M43.3,178.3c2.2.6,4.3,8.6,2.8,10.3-1.5,1.9-10.3,2.7-11.7,1.7-1.6-1.1,0-7.2,1.1-9.5"/><path class="cls-1" d="M108.1,153.4c0,1.3,0,2.2.1,2.9.2,1.8.4,2.4.6,4.3.3,0,1-.2,1.9-.3.3,0,.6,0,.9-.1,1.9-.3,4.2-.5,5.2-.6,1,0,4.3-.3,6-.5.5,0,.9-.2,1-.2.2-.2.1-1.6-.2-3.8-.5-3.8-1.8-9.8-4.2-15.9-1.4-3.5-9.7-6.7-12.7-8.4"/><path class="cls-1" d="M119.1,172.6c-3.4,1.3-6.3,2.1-8.9,2.5-6.9,1.1-12.2-.4-21.5-1.5-.3,0-.5,0-.8,0"/><path class="cls-1" d="M113.8,161.9c-.6.2-1.2.3-1.8.5-.5.1-1.1.3-1.6.4-7.6,1.7-10.9,1.2-18.1,2.7-.2,0-.4,0-.6.1"/><path class="cls-1" d="M92.4,165.3c-.1-2.7-8.9-7.4-11.4-6.2-1.5.7-3.2,4.2-4.2,7.4-.5,1.7-.9,3.2-1,4.4,0,.6,0,1.1,0,1.4.9,2.4,9.6,2.1,11.9,1.2"/><path class="cls-1" d="M122.9,159.1c.3,3.1.5,7.9-1,10.8-.9,1.9-2,2-2.8,2.6"/><path class="cls-1" d="M70.2,160.6c0,2.1-.1,4-.1,5.7,0,1.7,0,3.2,0,4.6-.2,12.1,0,13.4-1,22.4"/><path class="cls-1" d="M110.2,175.1s0,0,0,0c-.7,2.8,1.1,12.7,1.2,17.1h0"/><path class="cls-1" d="M68.9,142.7c.5,2.2.8,4.2,1,6,.4,3.8.3,7.1.2,11.8"/><path class="cls-1" d="M131.5,199.9c-4.1-2.2-14.2-5.7-19.9-7.7,0,0-.1,0-.2,0-1.3-.4-2.3-.8-3-1"/><path class="cls-1" d="M114.5,224.1c.3.5,6.5,17.7,6.6,18.3.9,4.5-2.8,11.4-5,19.2-2.5,9.3-5.1,18.7-8.4,27.6"/><path class="cls-1" d="M100.6,245.8c1.5,2.9,1.2,1.2.7,4.4-.5,3.2-1.6,6.7-2.6,9.7-3,8.9-2.6,26.4-2.4,35.9"/><path class="cls-1" d="M69.4,190.4c-.2,1-.3,1.9-.4,2.9-3.9,31.3,18.9,42.2,27.6,56.4"/><path class="cls-1" d="M131.5,199.9c8.2,3.4,1-.4,11.2,5.8"/><path class="cls-1" d="M119.4,220c5.5,0,7.9-2.7,17.7-.9"/><path class="cls-1" d="M137.1,219.2c10.9,10,13.3,2.6,31.4,10.2"/><path class="cls-1" d="M176.9,218.5c-13.5-5-20.7-7.8-34.2-12.8"/><path class="cls-1" d="M176.8,217.9s0,0,0,0c0,.1.2.5.9.5"/><path class="cls-1" d="M168.7,229.1c.9,3.5,9.8-6.1,9.2-7.3-.6-1.2-1-2-1-3.3,0-.3,0-.5,0-.6"/><path class="cls-1" d="M173,240.1c.9.5,2.1.1,3.2-.2,8.8-3,17.6-6.1,25.8-10.4,2.7-1.4,5.5-3.1,6.9-5.8,1.5-2.6,1-6.3-1.7-7.5-1.3-.5-2.7-.4-4.1-.3-7.8.7-17.4,1.8-25.3,2.5,0,0,0,0-.1,0-.3,0-.6,0-.9,0"/><path class="cls-1" d="M168.7,229.1c0,0,0,.2,0,.2.7,3.3,1.8,6.5,3.3,9.6.2.4.5.9.8,1.3.2.2.4.4.7.6"/><path class="cls-1" d="M112.6,192.4c-.4,0-.7-.1-1.1-.2-3.8-.9-5.8-2.8-13.3-4.4-4-.9-7.7-1.7-11.2-2.3"/><path class="cls-2" d="M105.1,126.7c-.2,1.7-.2,2.6.3,3.2.3.4.7.6,1.4.8-1.7,1.9-1.9,15.6-3.3,16.4-5,2.6-19.2-.8-22.1-1.4-2.2-.5.2-19.3,1.9-19.5"/><path class="cls-2" d="M111.6,160.1c0,.7.4,1.5.5,2.3,0,0,0,.2,0,.2"/><path class="cls-1" d="M110.7,160.1s0,0,0,0c0,1,0,1.4-.2,2.5"/><path class="cls-1" d="M131.5,199.9c-2.1,10.6-7.1,15.9-12,20.1h0c-1.7,1.4-3.4,2.8-4.9,4.1-2.8,2.4-5.2,4.9-6.8,8.4-.7,1.7-4.2,8.8-7.2,13.3-1.6,2.4-3.1,4.1-4,3.9"/><line class="cls-1" x1="109.9" y1="289.6" x2="110" y2="289.7"/><path class="cls-1" d="M96.5,295c1.1,1.9,5.2,3,7,1.7,1-.8,1.5-2,1.9-3.2.4-1.2.8-2.5,1.6-3.4.3-.3.5-.5.8-.6.5-.2,1-.1,2,.2"/><path class="cls-1" d="M96.5,295c0,.3-.1.5-.2.8-.7,3-1,6.1-1,9.2,0,.8,0,1.6.5,2.2.6.8,1.8,1,2.9,1.2,8.9,1.1,18.6,4.8,27.6,4.4,2.9-.1,6.1-.5,8.4-2.2s3.5-5.3,1.6-7.5c-.9-1-2.2-1.6-3.5-2.1-7.4-2.9-15.5-8.4-22.9-11.2h0"/><path class="cls-1" d="M60.6,135.6c0,5.7,2.1,11.4,5.8,15.8"/><path class="cls-1" d="M108.2,156.3c5.3.2,10.2-.3,15.4-1.3"/><path class="cls-1" d="M91.6,165.5c-1.8,2.2-2.8,5-2.9,7.9"/><path class="cls-1" d="M70.2,166.3c2.2-.1,4.4,0,6.5.2"/><path class="cls-1" d="M70,170.9h5.7"/><path class="cls-1" d="M43.1,178.4c-2.6.5-5.1,1.3-7.5,2.4,0,0,0,0,0,0-.1,0-.2,0-.3.1"/><path class="cls-1" d="M105.5,65.4c21.6-.9,33.1,22.3,19.8,44.8,0,.1-.1.2-.2.3"/><path class="cls-1" d="M128.4,95.5c.8-2.7.9-5.5-.4-8.8-1.4-3.5-6.1-7.2-9.1-4.9-2.1-3.4-9.8-3.5-13.7-2.4-8.1,2.3-10,9.3-15,18.4"/><path class="cls-1" d="M105.5,65.4c-10.3-3.9-22.2,5.8-25.6,12-9.5,17-4.6,30.8-.7,36.1,2.7,0,6,1.5,7.7,1.9.7.2,1.1.1,1-.4-.7-3.9-1.4-5.4-1.4-9.4h0"/><path class="cls-1" d="M103.5,126c-5.8-2.6-13.8-7.2-15.6-10.9"/><path class="cls-1" d="M128.4,95.5c-1.9,4.1-1.4,3.7-2.1,6-.3,1-.2,4.6-.9,8.8-.7,4.2-2.3,9-6.2,12,0,0-5.6,5.1-9.4,5.8-.7.1-2.4-.4-4.7-1.4-.5-.2-1-.4-1.6-.7"/><path class="cls-1" d="M123.6,98.4c-.1-2.3-2.4-2.3-3.4-1.1"/><path class="cls-1" d="M108.1,93.4c-1.2-1.8-3.5-2.3-6-.3"/><path class="cls-1" d="M117.6,109.3c.3,2.2-2.5,2.8-4.7,3.4"/><path class="cls-1" d="M119.8,104.3c-.3,1.4,0,2.7.9,2.9.8.2,1.7-.8,2.1-2.3s0-2.7-.9-2.9c-.8-.2-1.7.9-2.1,2.3Z"/><path class="cls-1" d="M104,100.6c-.3,1.4.1,2.6.9,2.8.8.2,1.8-.8,2.1-2.2.3-1.4-.1-2.6-.9-2.8-.8-.2-1.8.8-2.1,2.2Z"/><path class="cls-1" d="M116.2,117.2c-4.3-.5-7.2-2.2-11-4.7-.3-.2-.6-.4-.9-.6"/><path class="cls-1" d="M116.2,117.2c-2.6,7.6-11.2,7.2-11.2-4.5"/><path class="cls-1" d="M87,116c0,.8,0,1.6-.2,2.4,0,.6-.2,1.3-.3,1.9-.3,1.8-.6,3.7-.7,5.4-.3,4.9,8.3,6.8,9,6.9,5,.6,8.7-.9,10.2-2.5"/><path class="cls-1" d="M79.2,113.6c-.9.6-.8,2.2-.1,3.1,0,0,0,0,.2.1,1.2.8,6.6,2,7.4,1.8,0,0,.2,0,.3-.2.6-.5.7-1.9.2-2.4,0,0,0,0-.1-.1"/><path class="cls-1" d="M90.1,97.7c-.2-1-1.2-1.6-2.3-1.7-1,0-2,.6-2.6,1.3-.6.8-.9,1.8-1,2.7-.2,1.7.2,3.5,1.3,4.8.3.3.6.6,1,.8,1.2.7,2.7.9,3.9.3,0-.2,0-.3,0-.5"/><path class="cls-1" d="M105.5,65.4c9.3,4.4,13,8.6,13.3,16.2"/><path class="cls-1" d="M86.6,120.3h0c3.9,4.1,10.6,5.9,16.9,5.7h0"/><path class="cls-1" d="M79,117.1c-3,3.4-3.4,5-5.1,9.1"/></svg>