<?xml version="1.0" encoding="UTF-8"?><svg id="latinAmerica" xmlns="http://www.w3.org/2000/svg" width="235" height="321.9" viewBox="0 0 235 321.9"><defs><style>.cls-1{fill:#292a4a;}.cls-1,.cls-2,.cls-3,.cls-4,.cls-5,.cls-6,.cls-7,.cls-8,.cls-9,.cls-10,.cls-11,.cls-12,.cls-13,.cls-14,.cls-15,.cls-16,.cls-17,.cls-18{stroke:#000;stroke-linecap:round;stroke-linejoin:round;}.cls-2{fill:#2d5890;}.cls-3{fill:#d5685b;}.cls-4{fill:#aed793;}.cls-5{fill:#e0d89f;}.cls-6{fill:#222535;}.cls-7{fill:#122666;}.cls-8{fill:#88d0ba;}.cls-9{fill:#332e2a;}.cls-10{fill:#324580;}.cls-11{fill:#a26256;}.cls-12{fill:#b65f90;}.cls-13{fill:#856149;}.cls-14{fill:#80a6d7;}.cls-15{fill:#fff;}.cls-16{fill:#f5e78c;}.cls-17{fill:none;}</style></defs><path class="cls-13" d="M123.6,75.7c0,.5,0,.9,0,1.4-.4-.8-1.1-2.2-1.8-3.7-.3.1-.7.1-1,.1-2.1,0-4.3,0-6.4,0-1,0-2.1,0-2.9-.6-.9-.5-1.7-2.1-.8-2.5,1.6-.7,8-.6,10.1.5-.5-1.1-1-2.1-1.3-2.7-1.4-2.5-1.3-2.9-2.3-4.7-1-1.8-3.9-3.9-6-4.2-.8,2.9-2.1,5.6-2.8,8.5,0-2.8-1.4-6-2.6-8.5h0c-5.4.2-11.6,1.1-14.2,2.7-.5.3-.8.6-1,1-4.7,7.5-2.5,16.8-2.9,25.2-.2,3.7-1.3,7.7-2.7,11.3h0c.8.6,1.3,1.1,1.8,1.6.8.7,1.4,1.2,2.4,1.8,7.2,4.1,11.6,5.9,15.1,5.7h0c.9,0,1.8-.3,2.6-.6,1.8-.8,3.5-2.2,5.5-4.2.3-.3.6-.7,1-1,4.4-4.7,9-10.5,10.2-23.3.2-2.1.2-3,0-3.7ZM92.6,70.6c.5-1.2,7.5-2.4,10.2-.9.3.1.6,2.9-.3,3-.9.1-8.5,0-10,0-.5,0-.2-1.6,0-2.1ZM100.3,79.6c0,1.8-.8,3.2-1.8,3.2s-1.8-1.5-1.8-3.2.8-3.2,1.8-3.2,1.8,1.4,1.8,3.2ZM104.4,100.2c-5.8-.7-9.7-5.7-8.8-5.4,4.2,1.7,11.9,3.9,16.4,3h0c-1.8,2.5-4.2,2.9-7.6,2.4ZM116.9,82.9c-.8,0-1.4-1.2-1.4-2.8s.6-2.8,1.4-2.8,1.4,1.2,1.4,2.8-.6,2.8-1.4,2.8Z"/><path class="cls-2" d="M86.4,171.9v.5c-10.6-2-19.1-3-23,.6-1.1,1-1.9,2.4-2.1,4.2-.1,1.1-.1,2.1-.1,3.1-.2-.3-.3-.6-.4-.9h0c-.7-9.7-.1-13.1,1.9-35.8h0c.3-5.3.4-9.2-.3-13.5h-.1c-5,4.4-12.6,9-15.2,10.8h-.4c-1.7,1.2-2.3,1.7-3.9,2.8-4,6.9-6.3,11.2-9,16.4-2-2.1-8.1-3.6-10.8-.3h0c2.2-8.6,4.5-14.5,10.8-23,1.4-1.9,2.4-3.6,4.5-6.1h.1c1.4-2.2,14.8-16.2,15.6-16.8,4.2-3.7,11.9-9.1,19-10.2h0c.9,1.5,1.8,3,2.8,4.4-.3.3-.5.7-.7,1.2-.8,1.8,0,4,1.5,5.1h0c-.3,3.5.3,5,1.5,7.9h0c0,.1,0,.2,0,.3-1.1,0-1.6,1.9-2.3,2.7-.6.8-2.1,2.4-1.8,3.5.2.6.9.9,1.5,1,1.6.4,3.2.5,4.9.3,0,0,.2,0,.3,0h.3c1.2,3.9,1.9,7.4.8,13.3h0c-2.7-1.1-5.4-1.8-6.7-1.2-3.1,1.4-7,12.6-6,14.9,1,2.5,10.8,2.2,14.3,1.4.8,4.4,1.9,9.4,3.1,13.7Z"/><path class="cls-2" d="M121.1,154.9c-4,2.7-7.8,4.3-11.6,5.1h0c-6,1.3-12.1.9-19.9.1v-.2c-.4-4.2.7-8.7,4-11.5v-.2c-1.5.2-3.1.4-5.1.8h0c0-1.8-3.1-4.1-6.4-5.6v-.2c.8-3.9,4.4-7.6,8.6-10.8,6.6-5,14.7-8.6,15.7-9.1,2.6-1.3,5-3.1,6.9-5.3.8-.9,1.5-1.9,1.8-3.1h0c.7.8,1.8,1.2,2.9,1.3.2,2.5-.8,4.5-.5,7,0,.2,0,.4.2.5h-.2c-.9,2-1.6,4.1-2.1,6.2,0,.4-.2.8.1,1.1.2.2.4.2.7.2,1.6.2,3.3-.1,4.8-.8.4-.2.8-.4,1-.8.2-.5,0-1.1-.2-1.6-.7-1.5-1.4-3-2.2-4.4,0,0,0,0,0,0,0-1.6.3-3,.4-4.5,1.5,3.2,2.4,7.2,2.7,9.8,2.1,17.1,1.2,25-1.6,26Z"/><path class="cls-17" d="M83.2,103.9h0"/><path class="cls-17" d="M38.2,130.5c0,.1-.1.2-.1.2"/><path class="cls-1" d="M33.7,160c-.7,1.4-1.5,2.9-2.3,4.5h-.1c-.3-.2-.6-.4-.9-.4h0c-3.1-.5-6.3.1-9,1.8.5-2.3,1-4.3,1.5-6.2h0c2.7-3.2,8.8-1.8,10.8.3Z"/><path class="cls-13" d="M33.7,175.2c-1.8,2.1-12.2,3-13.9,1.9-2.1-1.3.2-9.2,1.6-11.1,0,0,0,0,0,0,2.7-1.6,5.9-2.3,9-1.9h0c.3.2.6.4.9.7,2.2,2,3.9,8.8,2.4,10.5Z"/><path class="cls-17" d="M119.9,119s0,0,0,.1h0"/><path class="cls-17" d="M107.1,135.4c0,5,.6,8,.9,11"/><path class="cls-17" d="M111.2,145.8c-8.8,2.2-11.9,1.8-17.6,2.4"/><path class="cls-17" d="M60.9,182.9c-.1-1.3-.2-2.5-.3-3.6"/><path class="cls-1" d="M89.6,159.9v.2c-1.7-.2-3.5-.4-5.3-.6h-.1c-.1-.6-.2-1.1-.2-1.6,0-3.2,2.1-7.8,3.8-8.8h0s0,0,0,0c.2,0,.5,0,.7-.1,2-.4,3.6-.6,5.1-.8v.2c-3.3,2.8-4.4,7.3-4,11.5Z"/><path class="cls-2" d="M110.9,179.1c-1.7-.5-3-.9-3.6-1.1-2.8-1.1-5.8-2.5-12-3.8-3.2-.7-6.2-1.3-9.1-1.9v-.5c-1.2-4.3-2.2-9.3-3-13.7.2,0,.4-.1.6-.2h.1c0,.5,0,1,.2,1.5h.1c1.8.3,3.6.5,5.3.7,7.8.8,14,1.2,19.9-.1-.7,3.3,1.3,14.1,1.5,19Z"/><path class="cls-17" d="M110.9,179.1h0"/><path class="cls-17" d="M109.5,159.9c0,0,0,.1,0,.2"/><path class="cls-17" d="M62.6,143.5c0,0,0,.2,0,.3"/><path class="cls-17" d="M62.3,130c-.3-2-.8-4.1-1.6-6.5"/><path class="cls-7" d="M182.5,216.2c-54.3-14.4-115.3-31.3-119.1-43.2,3.9-3.5,12.4-2.6,22.9-.6,2.9.6,6,1.2,9.1,1.9,6.2,1.3,9.2,2.7,12,3.8,1.2.5,2.3.9,3.6,1.2.3,0,.6.1,1,.2h0c7.9,2.3,23,6.8,27.6,8.4,1.7.6,44.6,19.6,44.7,20,0,.1,0,.2,0,.4,0,1.7-.4,4.7-1.7,8Z"/><path class="cls-17" d="M111.9,179.3c-.3-.1-.7-.2-1-.3"/><path class="cls-7" d="M124,236.8c0,1-7.8,51.9-7.8,53,0,0,0,0,0,0-9.6,1.6-11.8,7.2-22.6,3.3-1.5-.6-3.2-1.3-5.1-2.3-.2-.5,7-52.7,6.3-54.7-2.8-7.5-9.2-23.6-16-32.6,8.6,1.7,29.9,7.1,41.8,9.8,2.9,9.8,3.6,16.2,3.5,23.4Z"/><path class="cls-7" d="M180,221.2c-1.4,2.3-3.2,4.6-5.5,6.4-.4.4-.9.7-1.3,1-.2.2-45.6-13.7-48.2-14.3-1.3-.3-2.8-.6-4.6-1-12-2.7-33.3-8.1-41.8-9.8-2.4-.6-4.3-1.1-5.5-1.6-5.2-2.5-12-9.3-12-21.8,6.3,11.9,65.5,26.7,118.6,40.8l.3.2Z"/><path class="cls-6" d="M215.1,215.5c-1.7,2.9-5,4.9-8.2,6.5-9.8,4.9-15.2,6.9-25.6,10.3-1.2.4-2.7.8-3.8.3h-.2c-.7-1.2-2-3.4-2.7-4.9,2.2-1.9,4-4.1,5.5-6.4,1-1.7,1.8-3.4,2.5-5,1.3-3.3,1.8-6.3,1.7-8,9.6-.8,14.4-.5,24-1.4,1.7-.1,3.4-.3,4.9.3,3.2,1.3,3.7,5.5,2,8.4Z"/><path class="cls-17" d="M184.3,208.1h0"/><path class="cls-17" d="M174.6,227.6c0-.1,0-.2-.1-.3"/><path class="cls-17" d="M112.4,179.4c-.2,0-.3,0-.5,0"/><path class="cls-17" d="M85.4,104.5c0,.1,0,.2,0,.4"/><path class="cls-17" d="M87.8,149.2s0,0,0,0"/><path class="cls-17" d="M83.3,158.1s0,0,0-.1"/><path class="cls-2" d="M78.6,114.8v.2c-.2,2.3-.4,4.7-.7,7-1.3-2.9-1.8-4.4-1.5-7.9h0c.2,0,.4.2.5.3.5.2,1,.4,1.6.4Z"/><path class="cls-17" d="M78,122.2c0,0,0-.1,0-.2"/><path class="cls-17" d="M105,113.3c0,.2-.2.3-.2.5"/><path class="cls-15" d="M104.7,113.8s0,0,0,0c-2.5,3.5-11,5.2-14.3,4.2-2.6-.8-6.5-3-5.6-10.4,0,0,0,0,0,0,0-.8.2-1.8.5-2.7h0c.4-.2.8-.5,1.2-.7,0,0,.2-.1.3-.2,0,0,0,0,0,0,.6,2.8,2.5,5.3,5.1,6.6,2.6,1.3,5.8,1.3,8.4,0,1-.5,1.9-1.1,3-1.2.2,0,.5,0,.7.1.7.2,1.3.8,1.3,1.4,0,0,0,0,0,0h0c.2,1,0,1.9-.6,2.7Z"/><path class="cls-13" d="M87.8,149.2s0,0,0,0h0c-1.7,1-3.7,5.6-3.8,8.8h-.1c-.2,0-.4.1-.6.2-3.5.8-13.3,1.1-14.3-1.4-.9-2.2,3-13.4,6-14.9,1.3-.6,4,.1,6.7,1.4.1,0,.2.1.4.2,3.3,1.5,6.3,3.8,6.4,5.5h0c-.2.2-.5.2-.7.3Z"/><path class="cls-15" d="M90.6,132.4h0c-4.2,3.2-7.8,7-8.5,10.8v.2c-.2,0-.3-.1-.4-.2h0c1.1-6,.4-9.5-.8-13.4h-.3c0,0,.2,0,.3,0,.6-.1,1.2-.4,1.4-1,.4-.9-.5-2.8-1.6-4.3.6-5.9,1.7-11.2,4.1-16.8-.9,7.4,3,9.6,5.6,10.4,3.2,1,11.7-.7,14.3-4.2-3.6,7.7-6.7,10.2-14.1,18.5Z"/><path class="cls-17" d="M21.4,165.9s0,0,0,0"/><path class="cls-17" d="M30.5,164s0,0-.1,0"/><path class="cls-6" d="M133.4,311.8c-3.4,1.7-7.4,1.6-11.2,1.2-11.6-1.2-15.6-2.1-26.8-5.1-1.3-.4-2.8-.8-3.5-2-.5-.8-.4-1.9-.2-2.8.3-2.1,1.2-7.6,1.9-10.1,10.8,3.9,13-1.7,22.6-3.3,8.4,4.6,7.9,4.9,16.7,9.8,1.5.9,3.2,1.8,4.1,3.2,2,3.1-.2,7.3-3.5,9.1Z"/><path class="cls-17" d="M116.1,289.8l-.5-.3"/><path class="cls-17" d="M93.6,292.7c0,.1,0,.2-.1.4"/><path class="cls-17" d="M85,107.4c0,0,0,.1,0,.2"/><path class="cls-17" d="M33.8,160s0,0,0,0"/><path class="cls-17" d="M105.4,111.1c0,.1,0,.2,0,.3"/><path class="cls-17" d="M85.4,104.9c0,0-.1,0-.2.1"/><path class="cls-17" d="M123.6,75.7c-.1-.9-.3-1.6-.2-4.1"/><path class="cls-9" d="M122.2,73.1c0,.1-.2.2-.3.2-.3.1-.7.1-1,.1-2.1,0-4.3,0-6.4,0-1,0-2.1,0-2.9-.6-.9-.5-1.7-2.1-.8-2.5,1.6-.7,8-.6,10.1.5,0,0,.2,0,.3.2.4.3.7.3,1.1.7.3.4.5,1,.1,1.3Z"/><path class="cls-17" d="M111.1,88.8c1.2,3-1.6,3.7-5.8,3.5"/><path class="cls-17" d="M112.4,97.6c-.2,0-.3,0-.5.1"/><path class="cls-2" d="M86.6,104.2c-.4.2-.8.5-1.2.7h0c-.2,1-.4,1.9-.5,2.7,0,0,0,0,0,0-2.4,5.6-3.6,10.9-4.1,16.8-.5-.7-1.1-1.3-1.7-1.7.2,0,.3.1.5.1.3-2.5.6-5.6.9-8.4h0c.9-.4,1.6-1,2-1.9,1.1-2.1.5-3.9-.8-5,.4-1.1,1-2.4,1.5-3.7.8.1,2.6,0,3.3.2h0Z"/><path class="cls-17" d="M81.6,107.6c0,0,0,0,0,.1"/><path class="cls-4" d="M92.7,39.4c-4,.5-8.1,1.5-12,3.2,2.5-2.7,4.9-5.1,8.3-7.3.7-.5,1.5-.9,2.3-1.4h0c.5,1.8.9,3.6,1.3,5.5Z"/><path class="cls-3" d="M87,63.8c-1.4,2.7-2.2,5.6-2.7,8.6h0c-5.5.9-14.6,6.3-17.1,10.1,0-2.9,0-5.2-.1-7.4h.1c4.1-5.6,12.5-9.1,19.7-11.6v.3Z"/><path class="cls-10" d="M84.1,93.5c-5.7.6-10.2.8-14.1,3.5-1.8-4.8-2.8-9.9-2.8-14.5,2.6-3.8,11.7-9.2,17.1-10.1h0c-.7,5-.4,10.4.1,15.5.2,1.9,0,3.8-.4,5.7Z"/><path class="cls-12" d="M84.1,93.5c-1,4.4-3.2,8.7-4.2,13.2-1.5-.4-3.1-.2-4.2,1.2-1-1.4-2-2.9-2.8-4.5-1.1-2-2.1-4.1-2.9-6.3,3.8-2.7,8.4-2.9,14.1-3.5Z"/><path class="cls-17" d="M75.8,108s0,0-.1-.1"/><path class="cls-4" d="M103.7,39.3v-.3c-2.7-3-6.6-4.8-10.5-6,.7,0,1.4.2,2.1.4,4.7,1.1,10.1,3.8,15.1,7.1-2.2-.5-4.4-.9-6.7-1.2Z"/><path class="cls-3" d="M107.9,44h0c-5.1-.7-10.3-.7-15.3,0-5.3.7-10.5,2.2-15.5,4.5-1.1.5-2.1,1-3.2,1.6.3-.3.6-.7.9-1,2.3-2.3,4.2-4.4,5.9-6.3,3.9-1.7,7.9-2.7,12-3.2,3.7-.5,7.4-.5,11,0,2.3.2,4.6.6,6.7,1.2h0c1.3.9,2.6,1.8,3.9,2.8,1,.8,2,1.7,2.9,2.6-3.1-.9-6.2-1.5-9.3-1.9Z"/><path class="cls-8" d="M125.1,60.4c-3-2.1-6.6-3.6-10.4-4.5,0-4.5-4.3-9-6.9-11.9h0c3.1.3,6.2.9,9.3,1.8h0c3.8,3.8,6.4,8.6,7.7,13.8,0,.2.1.5.2.7Z"/><path class="cls-11" d="M126.3,96.7c-.4,1.8-3.6,11.7-4.7,13.7,0,0,0,0,0,0-.6-.9-1.5-1.5-2.5-1.9-1.3-.5-2.8-.5-4,.6-.5.4-.8,1-1,1.6-.3-.2-.5-.4-.6-.8-.6-2.2-1.7-3.9-1.1-6.1.3-.3.6-.7,1-1,4.4-4.7,9-10.5,10.2-23.3.2-2.1.2-3,0-3.7h0c.1-4.1.4-9.1-1.3-12.5,2.1,1.4,3.4,3,4.2,4.3h.2c.6,3,1.1,6,1.1,8.3,0,8.2.2,12.3-1.6,20.9Z"/><path class="cls-17" d="M121.6,110.4s-.1,0-.2,0"/><path class="cls-12" d="M126.7,67.5h-.2c-.8-1.3-2.1-2.9-4.2-4.3h0c-2-1.3-4.7-2.6-8.2-3.5-.6-.2-1.7-.3-2.9-.4-1.5,0-3.5,0-5.5,0-5.4.2-11.6,1.1-14.2,2.8h0c-1.4.4-2.9.9-4.5,1.4-7.3,2.5-15.6,6-19.7,11.6h-.1c0-2.4,0-4.6.2-6.9h0c1.2-1.8,4-3.7,7.4-5.5,6.2-3.4,14.4-6.4,19.1-7.5.8-.2,1.4-.3,2-.4,5-.6,12.2-.6,19,1,3.8.9,7.4,2.3,10.4,4.5.5,2.2,1.1,4.7,1.6,7.1Z"/><path class="cls-17" d="M114.3,110.8c0,0-.1,0-.1-.1"/><path class="cls-9" d="M111.1,59.3h0c-.8,2.9-2.1,5.6-2.8,8.5,0-2.8-1.4-6-2.6-8.5h0c2,0,3.9,0,5.5,0Z"/><path class="cls-9" d="M123.6,75.7h0c0,.5,0,1,0,1.4-.4-.8-1.1-2.2-1.8-3.7.1,0,.2-.1.3-.2.4-.4.2-1-.1-1.3-.3-.4-.7-.4-1.1-.7,0,0-.2-.1-.3-.2-.5-1.1-1-2.1-1.3-2.7-1.4-2.5-1.3-2.9-2.3-4.7-1-1.8-3.9-3.9-6-4.2h0c1.3,0,2.3.2,2.9.3,3.6.9,6.2,2.1,8.2,3.5h0c1.7,3.4,1.4,8.4,1.3,12.5Z"/><path class="cls-17" d="M122.3,63.2h0"/><path class="cls-8" d="M93.7,55.3c-4.7,1.1-12.9,4.1-19.1,7.5h0c-1.2-4.6,1.3-13.9,2.5-14.3h0c5.1-2.3,10.3-3.8,15.5-4.5v.2c.9,3.3,1.2,7.7,1.2,11.1Z"/><path class="cls-15" d="M114.8,55.9c-6.8-1.7-14.1-1.6-19-1-.5,0-1.2.2-2,.4,0-3.4-.3-7.8-1.1-11.1v-.2c5-.7,10.1-.6,15.2,0h0s0,.1,0,.1c2.6,2.9,6.8,7.4,6.9,11.9Z"/><path class="cls-17" d="M125.2,60.5h0"/><path class="cls-17" d="M67.3,68.3s0,0,0,0"/><path class="cls-17" d="M84.2,93.5s0,0,0,0"/><path class="cls-17" d="M117.5,46c0,0-.2,0-.3,0"/><path class="cls-17" d="M73.9,49.9c0,0-.1,0-.2,0"/><path class="cls-5" d="M103.7,39.1v.3c-3.6-.4-7.3-.4-11,0-.4-1.8-.9-3.6-1.3-5.4h0c.6-.4,1.2-.7,1.9-1,3.9,1.2,7.8,3,10.5,6Z"/><path class="cls-17" d="M79.9,106.7c0,0,0,.1,0,.2"/><path class="cls-17" d="M92.7,39.7v-.2"/><path class="cls-17" d="M93.7,55.3h0"/><path class="cls-17" d="M114.8,56.1h0"/><path class="cls-5" d="M74.6,62.6h0c-3.4,2-6.2,3.9-7.4,5.6.2-2.7.7-5.5,1.7-9.2.9-3.4,2.6-6.5,4.9-9.1h0c1-.6,2.1-1.1,3.2-1.6h0c-1.2.5-3.6,9.8-2.5,14.3Z"/><path class="cls-16" d="M82.5,112.7c-.4.8-1.2,1.4-2,1.8-.6.2-1.2.4-1.8.4-.5,0-1.1-.1-1.6-.4-.2,0-.4-.2-.5-.3-1.5-1.1-2.2-3.3-1.5-5.1.2-.5.5-.9.7-1.2,1.1-1.3,2.8-1.6,4.2-1.2.6.2,1.2.5,1.7.9,1.3,1.1,1.9,3,.8,5Z"/><path class="cls-16" d="M122.3,112.8c0,1.2-1,2.3-2,2.9,0,0-.2,0-.2.1h0c-.7.3-1.4.4-2.1.3-1.1,0-2.1-.5-2.9-1.3,0,0-.2-.2-.3-.3-.8-1-1-2.4-.7-3.6,0-.1,0-.2.1-.3.2-.6.5-1.2,1-1.6,1.1-1,2.6-1.1,4-.6,1,.4,1.9,1,2.5,1.9.5.7.8,1.5.7,2.4Z"/><path class="cls-4" d="M80.5,114.5c-.3,2.7-.6,5.9-.9,8.4-.2,0-.3,0-.5-.1-.3-.2-.6-.4-.9-.4,0,0,0,0,0,0,0,0,0,0-.1,0,0,0,0,0,0,0h0c0,0,0-.2,0-.3h0c.2-2.3.4-4.7.6-7v-.2c.6,0,1.3-.1,1.9-.4h0Z"/><path class="cls-4" d="M120,119.2h0c-.2,1.5-.5,2.9-.4,4.5,0,0,0,0,0,0-.3-.1-.6,0-.9.1-.3.1-.8.2-1,0-.1-.1-.2-.3-.2-.5-.2-2.4.8-4.5.5-7,.7,0,1.5,0,2.1-.3h0c.2,1.2,0,2.3,0,3.3Z"/><path class="cls-3" d="M82.4,128.8c-.2.6-.8.9-1.4,1-.1,0-.2,0-.3,0-.1,0-.2,0-.3,0-1.6.2-3.3,0-4.9-.3-.6-.1-1.3-.4-1.5-1-.4-1.1,1.2-2.7,1.8-3.5.6-.8,1.1-2.7,2.3-2.7h0s0,0,0,0c0,0,0,0,.1,0s0,0,0,0c.3,0,.6.3.9.4.5.4,1.1,1,1.7,1.7,1.1,1.5,2,3.4,1.6,4.3Z"/><path class="cls-17" d="M79.1,122.8c-.3-.1-.6-.3-.9-.4.3,0,.6.2.9.4Z"/><path class="cls-3" d="M121.9,129.6c-.2.4-.6.7-1,.8-1.5.7-3.2.9-4.8.8-.2,0-.5,0-.7-.2-.3-.3-.2-.7-.1-1.1.5-2.1,1.2-4.2,2.1-6.2h.2c.2.2.7.2,1,0,.3-.1.7-.2.9-.1.8,1.4,1.5,2.9,2.2,4.4.2.5.5,1.1.2,1.6Z"/><path class="cls-17" d="M119.5,123.6c0-.1-.1-.2-.2-.3-.1,0-.2.2-.3.3"/><path class="cls-15" d="M95.3,33.3v.2c-.8-.2-1.5-.3-2.2-.4-.7.3-1.3.6-1.9,1-.8.5-1.6.9-2.3,1.4-1.3-.7-1.7-2.6-1-3.9.8-1.4,2.7-2,4.2-1.5,1.5.5,2.7,1.8,3.2,3.4Z"/><path class="cls-17" d="M89.3,35.5c-.1,0-.2-.1-.3-.2"/><path class="cls-17" d="M86.8,101.1v-.3"/><path class="cls-4" d="M91.4,62.1c-.5.3-.8.6-1,1-4.7,7.5-2.5,16.8-2.9,25.2-.2,3.7-1.3,7.7-2.7,11.3-.6,1.5-1.2,3-1.7,4.4-.6,1.4-1.1,2.6-1.5,3.7-.5-.4-1.1-.8-1.7-.9.9-4.5,3.2-8.7,4.2-13.2.4-1.9.6-3.7.4-5.7-.5-5.1-.9-10.4-.1-15.5.4-3,1.2-5.9,2.7-8.6v-.3c1.5-.5,3-1,4.4-1.5h0Z"/><path class="cls-15" d="M111.9,97.9c-1.8,2.4-4.2,2.7-7.6,2.3-5.8-.7-9.7-5.7-8.8-5.4,4.2,1.7,11.9,3.9,16.4,3h0Z"/><path class="cls-18" d="M118.3,80.1c0,1.6-.6,2.8-1.4,2.8s-1.4-1.2-1.4-2.8.6-2.8,1.4-2.8,1.4,1.2,1.4,2.8Z"/><path class="cls-18" d="M100.3,79.6c0,1.8-.8,3.2-1.8,3.2s-1.8-1.5-1.8-3.2.8-3.2,1.8-3.2,1.8,1.4,1.8,3.2Z"/><path class="cls-9" d="M102.4,72.7c-.9.1-8.5,0-10,0-.5,0-.2-1.6,0-2.1.5-1.2,7.5-2.4,10.2-.9.3.1.6,2.9-.3,3Z"/><path class="cls-2" d="M115,114.9h0c-.2,1.2-1,2.2-1.8,3.1-1.9,2.2-4.3,4-6.9,5.3-1,.5-9.1,4.1-15.7,9.1h0c7.5-8.4,10.5-10.9,14.1-18.5,0,0,0,0,0,0,.6-.8.8-1.7.6-2.7h0s0,0,0,0c0-.7-.6-1.2-1.3-1.4h0c0-.4,0-.7.1-1h0c.9,0,1.8-.3,2.6-.6h0c2.7,0,5.6,1.3,7,3h.2c-.3,1.3,0,2.6.7,3.6,0,.1.2.2.3.3Z"/><path class="cls-13" d="M104.2,108.6c0,.3,0,.6-.1.8h0c-.2,0-.5,0-.7,0-1.1,0-2,.7-3,1.2-2.6,1.2-5.8,1.2-8.4,0-2.6-1.3-4.6-3.8-5.1-6.6,0,0,0,0,0,0h0c0-1.1,0-2,0-2.9.8.7,1.4,1.2,2.4,1.8,7.2,4.1,11.6,5.9,15.1,5.7Z"/><path class="cls-17" d="M104.3,108.5c0,0,0,.1,0,.2"/><path class="cls-14" d="M182.5,216.2c-.6,1.6-1.5,3.3-2.5,5l-.3-.2c-53.1-14.1-112.3-28.9-118.6-40.8,0-1,0-2,.1-3.1.3-1.8,1-3.2,2.1-4.2,3.9,12,64.9,28.8,119.1,43.2Z"/><path class="cls-17" d="M182.9,216.3c-.1,0-.3,0-.4-.1"/><path class="cls-17" d="M63.4,172.9s0,0,0-.1"/></svg>