<?xml version="1.0" encoding="UTF-8"?><svg id="latinAmerica" xmlns="http://www.w3.org/2000/svg" width="235" height="321.9" viewBox="0 0 235 321.9"><defs><style>.cls-1{stroke-linecap:round;stroke-linejoin:round;}.cls-1,.cls-2{fill:none;stroke:#000;}.cls-2{stroke-miterlimit:10;}.cls-3,.cls-4,.cls-5,.cls-6,.cls-7,.cls-8,.cls-9{stroke-width:0px;}.cls-4{fill:#2e2e2e;}.cls-5{fill:#414141;}.cls-6{fill:#bdcae8;}.cls-7{fill:#8ea3d6;}.cls-8{fill:#7d574c;}.cls-9{fill:#fff;}</style></defs><path class="cls-5" d="M106.4,288.8c.1-.2.3-.4.5-.5,1.2-1,1.8-1.1,2.9,0h0c7.8,4.1,15.5,8.3,23.2,12.5,1.3.7,2.7,1.5,3.6,2.7,1.7,2.6-.1,6.2-3,7.6-2.9,1.5-6.4,1.3-9.7,1-10.1-1-19.8-3.6-29.6-6.1-1.2-.3-2.5-.7-3-1.7-.4-.7-.3-1.6-.2-2.4.5-3.5,1.5-6.9,2.9-10.2h.5c0,.5,0,.9,0,1.4,1.1,2.4,5.7,4,8,2.7,1.4-.8,2.2-2.2,2.9-3.6.6-1.2.3-2.4.9-3.3Z"/><path class="cls-8" d="M128.9,165.4c1.4,3-2.1,6.2-4.7,8.2-2.7,2-4.3,2.8-7,.9-1.3-.9-2.4-2.2-2.8-3.8,0-.1,0-.2,0-.3-.5-2.8,1.1-5.6,3.4-7.3,2.4-1.7,0-.9,2.9-1.6,3.2-1,6.9.8,8.3,3.9Z"/><path class="cls-8" d="M120.6,161.5c-2.9.6-.5-.2-2.9,1.6-2.3,1.7-4,4.5-3.4,7.3h-.1c-2.7-7.3-19.2-17.7-20.9-23.3l-.2-.2c2.3-1.9,6.8-3.9,9.7-6.6,4.5,7.9,13.1,17.9,18,21.3Z"/><path class="cls-8" d="M110.2,239.5c-.1,17.2-1.4,30.7-3.8,49.2-.6.9-.3,2.1-.9,3.3-.7,1.4-1.5,2.9-2.9,3.6-2.4,1.3-6.9-.3-8-2.7,0-.8,0-1.6,0-2.4.4-11.7-1-19.1-4.2-31-.3-1.2-2.1-9.4-1.6-13.2,7.8-.8,14.8-2.7,21.3-6.9h0Z"/><path class="cls-6" d="M88.9,246.4c-7.9.9-16.5.7-26,.8-1.9,0-4,0-6.2,0-6.4-.2-13.6-1.2-17.9-4.6-.5-.4-.9-.7-1.3-1.2,1-2.1,2.2-7.1,2.4-11.6.2-7.6-1.8-32.8,4.1-49.4h.2c3.8,1.8,7.7,3.3,11.7,4.5,1,.3,2.1.6,3.1.9,2.5.7,5.1,1.3,7.7,1.8,1.5.3,1.9.4,3.1-.5,1.2-.9,2.3-1.9,3.4-2.8.3-.2.6-.5.9-.4.1,0,.2,0,.3,0,.2,0,.3.2.5.4,1.1,1.1,2.2,2.5,3.5,3.5,1.2.9,2,.7,3.6.4,2.3-.4,4.7-1.3,6.2-3.2,9.2,9,20.9,32.3,22.2,45.7,0,3.1,0,6.1,0,9h0c-6.4,4.2-13.5,6-21.3,6.9Z"/><path class="cls-4" d="M108.1,48.6c.2,3.2-1.7,3.4-3.4,4.1,2.6,2.2.7,5.4-2.3,3.8.2.9-.3,1.5-.6,2.5h-.1c-.8-4.7-2.8-9.2-6-12.6-1.1-1.2-2.3-2.2-3.7-3.1l.2-.3c.7-.7,2.7-.6,3.7-.3,0-1.3,1.1-3,2.3-2.8,1.2.2,2.1,1.4,2.2,2.7.9-1.2,2.9-1.5,4-.5,1.2.9,1.4,2.9.4,4.2,1,.2,2.9-.2,3.3,2.5Z"/><path class="cls-7" d="M92.7,134.4c0,.7-8.5-1-8.8-.5-1.2,2.3,0,9.6.8,11.7.5,1.3,3.2,4,4.1,4.3,1.4.4,2.9-3.1,3.5-5,1-3.7.9-6.4.5-10.5ZM88.9,166c0,.7-7.6-1.4-7.9-.8-1.2,2.3-.6,10.7.3,12.8.5,1.3,2.3,3.3,3.2,3.5,1.4.4,2.9-3.1,3.5-5,.2-.7.3-1.3.5-2-.3,3.3-.4,6.7-.4,10.4-1.5,1.9-3.9,2.8-6.2,3.2-1.6.3-2.4.5-3.6-.4-1.3-.9-2.4-2.4-3.5-3.5-.1-.1-.3-.3-.5-.4,3.9-19.2,5.8-38.8,5.8-58.5l.3-.3c.6.5.9.7.9.3,0,0,0,0,0-.2,0-.2,0-.5.2-.9,0,0,0,0,0,0,0,0,0,0,0-.1,0-.2.1-.5.2-.8.2-.6.5-1.3,1-2,2.5-3.1,3.5-5.9,7.2-7.9-1.1-1.6-2.8-2.9-4.7-3.4,1.4-.7,2.9-1.3,4.3-2l.3.6c6.8,5.6,10.6,22,14.7,29.8-.4.6-1,1.2-1.6,1.8-2.9,2.6-7.3,4.7-9.7,6.6,0,0,0,0,0,0h-.2c-1.2,6.9-2.7,14-3.7,21.9,0-.8,0-1.7-.2-2.7Z"/><path class="cls-4" d="M102,62.3c.4,5.8-.7,11.7-2.5,17.3h-.4c.1-1.2.3-2.4.4-3.6.2-2.3.5-4.5.4-6.8-.5-9.8-6-21.2-13-21.6-.4,0-.8,0-1.1,0v-.2c-.2-2.9-2.3-5.4-5-6.6-.3-.1-.6-.2-.8-.3,4.1-.6,8.4.6,11.9,2.9,1.4.9,2.6,1.9,3.7,3.1,3.2,3.5,5.2,8,6,12.7.2,1.1.3,2.2.4,3.3Z"/><path class="cls-8" d="M63.5,96.7c-.7-.7-1.4-1.4-2.1-2.3-.9-1.3-1.6-2.5-2.3-3.7-1.6-2.9-2.6-5.7-3.3-9.4-2.8.8-4.9-4.5-4.1-7.3,2.3-8.5,5.4-2.6,8-5.3,2.6-2.7,3.4-9.4,6-12.2,7.5-8,12.6-9.4,20.1-9,.4,0,.8,0,1.1,0,6.9.5,12.4,11.8,13,21.6.1,2.3-.1,4.5-.4,6.8-.1,1.2-.3,2.4-.4,3.6-.2,1.6-.4,3.3-.5,4.9-.4,3.4-1.9,5.6-3.1,7.7h-.2c-2.3,4-3.4,4.7-4.8,6.3-2.6,2.6-5.2,5.3-8.4,6.4h0c-.7.2-1.3.4-2,.5-4.2.6-9.4-1.4-16.5-8.7ZM97.8,66.6c.4-.4.2-1-.2-1.4-.9-1-2.2-1.4-3.4-1.5-1.3-.1-2.6,0-3.9.2-1,.2-1.8.8-1.9,1.5s.7,1.5,1.8,1.6c.4,0,.8,0,1.2-.1,1.8-.4,3.9,0,5.7,0,.3,0,.6,0,.8-.2ZM94.3,75.6c.2-2-.5-3.8-1.6-3.9-1,0-2,1.5-2.2,3.5-.2,2.1.5,3.8,1.6,3.9,1.1,0,2-1.5,2.2-3.6ZM81.3,96.1c3.2-.2,4.8-1.5,6.4-3.9-5.6,1.9-16.1-1.5-17.1-2.8,2,3.6,2,2.9,3.7,4.3,1.8,1.5,4.9,2.5,6.9,2.4ZM78.2,65.2c1.2-2.9-5.2-3.3-7.2-3-1.3.2-2.6.6-3.5,1.4-.4.3-.7.6-1.1.9-.5.5,0,1.3.7,1.1,2.1-.7,5.1-.4,7.1.2.7.2,1.5.6,2.3.5.8,0,1.5-.5,1.8-1.2ZM74.5,74c.2-2.1-.6-4-1.7-4.1s-2.2,1.6-2.3,3.7c-.2,2.2.6,4,1.7,4.1,1.1,0,2.2-1.6,2.3-3.7Z"/><path class="cls-3" d="M97.6,65.2c.4.4.6,1.1.2,1.4-.2.2-.5.2-.8.2-1.8,0-3.9-.4-5.7,0-.4,0-.8.1-1.2.1-1.1-.1-1.9-.9-1.8-1.6s.9-1.3,1.9-1.5c1.3-.3,2.6-.3,3.9-.2,1.3,0,2.6.6,3.4,1.5Z"/><path class="cls-7" d="M92.7,134.4c.4,4.1.6,6.8-.5,10.5-.5,2-2.1,5.4-3.5,5-.9-.3-3.6-3-4.1-4.3-.8-2.1-1.9-9.5-.8-11.7.3-.6,8.7,1.2,8.8.5Z"/><path class="cls-3" d="M92.7,71.7c1.1,0,1.8,1.8,1.6,3.9-.2,2.1-1.2,3.6-2.2,3.6-1.1,0-1.8-1.8-1.6-3.9.2-2,1.2-3.6,2.2-3.5Z"/><path class="cls-7" d="M88.9,166c0,1,.1,1.8.2,2.7-.2,1.9-.5,3.9-.6,5.9-.1.6-.3,1.3-.5,2-.5,2-2.1,5.4-3.5,5-.9-.3-2.7-2.3-3.2-3.5-.8-2.1-1.4-10.5-.3-12.8.3-.6,7.9,1.6,7.9.8Z"/><path class="cls-6" d="M91,107.2c-.6.3-1.1.5-1.7.8-1.4.7-2.9,1.3-4.3,2,1.9.5,3.6,1.7,4.7,3.4-3.7,2.1-4.7,4.8-7.2,7.9-.5.7-.8,1.4-1,2,.2-.9.4-2,.8-3.4.4-1.5-.4-12.8-.6-14.3l-1.8-.2c.7-.1,1.4-.3,2-.5h0c3.1-.1,6.3.7,9,2.4Z"/><path class="cls-9" d="M87.7,92.2c-1.6,2.5-3.2,3.7-6.4,3.9-2,.1-5.1-1-6.9-2.4-1.8-1.4-1.8-.6-3.7-4.3,1,1.2,11.5,4.7,17.1,2.8Z"/><path class="cls-4" d="M80,40.3c.3,0,.6.2.8.3,2.6,1.2,4.8,3.7,5,6.6v.2c-7.5-.4-12.6,1-20.1,9-2.5,2.7-3.4,9.5-6,12.2-2.6,2.7-5.7-3.2-8,5.3-.8,2.8,1.3,8.1,4.1,7.3.7,3.8,1.7,6.6,3.3,9.4h-.2c-8.8-6.7-13-19-10.2-29.8.5-1.8,1.1-3.5,1.9-5.1,1.1,1.6,2.5.8,3.4-.4,0,0,0,.2,0,.3.4,1.5,1.3.8,2.8.8,3.6-3.4,3.7-5.6,5.4-7.3-.8-.7,0-2.3-.9-3,0,0,0,0,0,0,1.7-.7,3.2-1.7,2.8-3.8,2.6-1.3,5.4-2.2,8.3-2.6,2.6-.4,5.3-.4,7.7.5Z"/><path class="cls-8" d="M81.8,105.6c.2,1.6.9,12.8.6,14.3-.3,1.4-.6,2.5-.8,3.4,0,.3-.1.6-.2.8,0,0,0,0,0,.1s0,0,0,0c0,.4-.1.8-.2.9-.1.3-.4.2-1.4-.6-.2-.1-.3-.3-.6-.5-4.4-4.7-15.1-19.3-16.3-22.5h0c0-.4,0-.6.1-.9.2-1.3,0-1.4.3-4.1,7.1,7.3,12.3,9.3,16.5,8.7l1.8.2Z"/><path class="cls-7" d="M68.6,163.2c0,.7-13.4-1.6-14-1-1,1-1.3,3.3-1.2,5.6-1.4,0-2.6.1-3.1.6h0c-1.2-1.7-2.2-3.3-3.2-4.9h.4c1.1-11.2,2.7-23.2,1.7-30.3-2.8,5.2-5.6,10.1-6.5,11.2-.6-.2-1.3-.4-1.9-.7h0c-4.9-2-8.4-4.6-10.5-6.7-1.2-1.2-1.9-2.2-2.1-2.7-.4-1,8.4-15.4,9-16.2,5-7.8,6.4-10.5,13.7-12.9,6.1-1.5,1.7-1,7.5-1.9-1.6,1.4-2.8,3.3-3.5,5.3,2.8.2,5.6.5,8.5.7-1.5,1.4-2.6,3.1-3.2,5.1.3-.8,10.4,3.1,11.3,3.5,1.7.8,5.8,4.5,7.7,6.2.4.4.7.7,1,1l-.3.3c0,19.6-1.9,39.2-5.8,58.5,0,0-.2,0-.3,0-.3,0-.6.2-.9.4-1.1.9-2.2,1.9-3.4,2.8-1.2.9-1.6.8-3.1.5-2.6-.5-5.1-1.1-7.7-1.8-1-.3-2.1-.6-3.1-.9l.3-.9c.6.2,1.1.2,1.5,0,.9-.4,2.3-2.8,3.3-5.4h0c2.2.5,5-2.9,6-4.8,2-3.6,2-6.4,1.8-10.5ZM73.5,132.7c0,.7-13.4-1.6-14-1-2.1,2.2-1,9.6,0,11.8.7,1.3,4.7,4.2,6.1,4.5,2.2.5,5-2.9,6-4.8,2-3.6,2-6.4,1.8-10.5Z"/><path class="cls-3" d="M71,62.1c2-.3,8.4,0,7.2,3-.3.7-1,1.1-1.8,1.2-.8,0-1.5-.3-2.3-.5-2.1-.7-5-1-7.1-.2-.7.2-1.2-.6-.7-1.1.3-.3.7-.6,1.1-.9.9-.8,2.2-1.3,3.5-1.4Z"/><path class="cls-6" d="M58.5,103.3c1.3-1.2,2.9-2.1,4.6-2.6h.1c0,.2,0,.5-.1.8h0c1.2,3.2,11.8,17.8,16.3,22.5-1.9-1.7-6.1-5.4-7.7-6.2-.9-.4-11.1-4.3-11.3-3.5.6-1.9,1.7-3.7,3.2-5.1-2.8-.2-5.6-.5-8.5-.7.7-2,1.9-3.9,3.5-5.3Z"/><path class="cls-7" d="M73.5,132.7c.2,4.1.2,6.9-1.8,10.5-1.1,1.9-3.9,5.3-6,4.8-1.5-.3-5.4-3.2-6.1-4.5-1.1-2.1-2.1-9.6,0-11.8.5-.6,14,1.7,14,1Z"/><path class="cls-3" d="M72.9,70c1.1,0,1.8,1.9,1.7,4.1-.2,2.2-1.2,3.8-2.3,3.7-1.1,0-1.9-1.9-1.7-4.1.2-2.1,1.2-3.8,2.3-3.7Z"/><path class="cls-7" d="M68.6,163.2c.2,4.1.2,6.9-1.8,10.5-1.1,1.9-3.9,5.3-6,4.8h0c1.1-2.8,1.9-5.9,1.4-7.2-.7-1.7-5.4-3.3-8.7-3.5-.1-2.3.2-4.6,1.2-5.6.5-.6,14,1.7,14,1Z"/><path class="cls-5" d="M25.4,286.5c1.4,2.1,8.4,2.2,9.3,1.1,1.1-1.2.7-2.8,2.1-3.4.6-.2,1-.3,1.4-.3.5,0,.9.4,1.3,1.2,6,5.9,11.9,11.8,17.9,17.7,1.1,1,2.1,2.1,2.6,3.5.9,2.9-1.8,5.9-4.8,6.5-3.1.6-6.3-.4-9.2-1.6-9-3.6-17.4-8.6-25.7-13.5-1-.6-2.1-1.3-2.3-2.4-.2-.8.1-1.6.4-2.3,1.4-3.2,4.1-8.4,7.2-9.3h.6c-.2,1-.5,1.9-.7,2.8h0Z"/><path class="cls-8" d="M53.5,167.9c3.3.2,8,1.8,8.7,3.5.5,1.3-.3,4.4-1.4,7.2-1.1,2.6-2.5,5-3.3,5.4-.4.2-.9.2-1.5,0-2.6-.8-6.7-5-7.6-6.7-.8-.7-1.5-1.3-2.2-1.9-8.2-7.2-12.8-11.9-18-22.5-1.7-3.3-.5-8.5,2.2-15.6h0c2.1,2,5.6,4.7,10.5,6.6h0s0,0,0,0c-1.3,2-1,2.4-2.3,4.7,3.9,6.2,6,10.6,8.6,15.1.9,1.6,2,3.2,3.2,5h0c.5-.6,1.7-.8,3.1-.7Z"/><path class="cls-8" d="M56.6,247.2v.2c-5.1,9.5-12.4,27.9-18.4,36.5-.4,0-.8,0-1.4.3-1.5.6-1.1,2.2-2.1,3.4-1,1.1-8,1-9.3-1.1h0c.2-.8.4-1.7.7-2.7,2.8-11.4,7.5-33,12.6-41.3h0c4.3,3.4,11.5,4.4,17.9,4.6Z"/><path class="cls-4" d="M64,42.5c.4,2.1-1,3.1-2.8,3.8,0,0,0,0,0,0,0,0,0,0,0,0-.3.1-.7.2-1,.3l-4.9,6.3c0,.2,0,.5-.2.8-.6.5-1,1.1-1,1.7-1,1.3-2.4,2.1-3.4.4,2.8-5.7,7.6-10.5,13.3-13.3Z"/><path class="cls-4" d="M63.7,41.7c0,.3.2.5.2.8-5.7,2.9-10.5,7.6-13.3,13.3-.2-.3-.4-.7-.5-1.2-.9.6-2.5,1.7-3.5,1.2-1-.5-1.4-2.7-1.4-3.8-1.4.4-3.5-.3-3.6-1.7-.1-1.4.9-2.6,2.2-3.2-1.6-.6-2.4-2.6-1.7-4.1s2.7-2.3,4.3-1.7c-.1-1.1-1.1-3,1.7-4.2,3.3-1.2,4.1.8,5.3,2.5,1.5-3.4,5.6-2.3,4.7,1.4.9-.5,2-.9,3.1-.8,1.1,0,2.3.5,2.7,1.5Z"/><path class="cls-6" d="M61.3,46.3c.9.6.1,2.3.9,3-1.7,1.7-1.8,3.9-5.4,7.3-1.4,0-2.4.7-2.8-.8,0,0,0-.2,0-.3.4-.5.8-1.2,1-1.7.8-.7,1.9-1.4,2.3-2.2,1.1-1.7,3.1-4.8,3.8-5.2,0,0,0,0,0,0,0,0,0,0,0,0,0,0,0,0,0,0Z"/><path class="cls-6" d="M61.1,46.3s0,0,0,0c0,0,0,0,0,0Z"/><path class="cls-4" d="M60.1,46.6c.3-.1.7-.2,1-.3-.6.4-2.7,3.5-3.8,5.2-.5.8-1.5,1.5-2.3,2.2.1-.3.2-.6.2-.8l4.9-6.3Z"/><path class="cls-6" d="M55,53.7c-.2.5-.5,1.2-1,1.7,0-.6.4-1.2,1-1.7Z"/><path class="cls-1" d="M81.4,124.1c0-.2.1-.5.2-.8.2-.9.4-2,.8-3.4.4-1.5-.4-12.8-.6-14.3"/><path class="cls-1" d="M81.4,124.2s0,0,0-.1"/><path class="cls-1" d="M80.3,125.1c.6.5.9.7.9.3,0,0,0,0,0-.2,0-.2,0-.5.2-.9"/><path class="cls-1" d="M79.3,124.1c.4.4.7.7,1,1"/><path class="cls-1" d="M63,101.6s0,0,0,0c1.2,3.2,11.8,17.8,16.3,22.5"/><path class="cls-1" d="M55.5,122.1c-1.4,2.4-3.9,6.9-6.2,11.2-2.8,5.2-5.6,10.1-6.5,11.2-.6-.2-1.3-.4-1.9-.7h0c-4.9-2-8.4-4.6-10.5-6.7-1.2-1.2-1.9-2.2-2.1-2.7-.4-1,8.4-15.4,9-16.2,5-7.8,6.4-10.5,13.7-12.9"/><path class="cls-1" d="M44,180.4c3.8,1.7,7.7,3.2,11.7,4.4,1,.3,2.1.6,3.1.9,2.5.7,5.1,1.3,7.7,1.8,1.5.3,1.9.4,3.1-.5,1.2-.9,2.3-1.9,3.4-2.8.3-.2.6-.5.9-.4.1,0,.2,0,.3,0,.2,0,.3.2.5.4,1.1,1.1,2.2,2.5,3.5,3.5,1.2.9,2,.7,3.6.4,2.3-.4,4.7-1.3,6.2-3.2,0-3.7.2-7.1.4-10.4.2-2,.4-4,.6-5.9,1-7.9,2.5-14.9,3.7-21.9,1.2-7.1,2.1-14,1.7-21.7"/><path class="cls-1" d="M49.2,133c0,.1,0,.2,0,.3.9,7.1-.6,19.1-1.7,30.2"/><path class="cls-1" d="M30.3,137.2c-2.7,7.1-3.8,12.3-2.2,15.6,5.2,10.6,9.8,15.3,18,22.5.7.6,1.4,1.3,2.2,1.9"/><path class="cls-1" d="M40.8,143.9c-1.3,2-1,2.4-2.3,4.7,3.9,6.2,6,10.6,8.6,15.1.9,1.6,2,3.2,3.2,5,.1.2.2.3.4.5"/><path class="cls-1" d="M89.6,108.6c6.8,5.6,10.6,22,14.7,29.8-.4.6-1,1.2-1.6,1.8-2.9,2.6-7.3,4.7-9.7,6.6,0,0,0,0,0,0"/><path class="cls-1" d="M50.4,168.5c.5-.5,1.7-.7,3.1-.6,3.3.2,8,1.8,8.7,3.5.5,1.3-.3,4.4-1.4,7.2-1.1,2.6-2.5,5-3.3,5.4-.4.2-.9.2-1.5,0-2.6-.8-6.7-5-7.6-6.7"/><path class="cls-1" d="M93.2,147c1.7,5.7,18.2,16,20.9,23.4"/><path class="cls-1" d="M102.6,140.1s0,0,0,.1c4.5,7.9,13.1,17.9,18,21.3"/><path class="cls-1" d="M120.6,161.5c-2.9.6-.5-.2-2.9,1.6-2.3,1.7-4,4.5-3.4,7.3,0,.1,0,.2,0,.3.4,1.6,1.5,2.9,2.8,3.8,2.8,1.9,4.4,1.1,7-.9,2.7-2,6.1-5.1,4.7-8.2-1.4-3-5.1-4.8-8.3-3.9"/><path class="cls-1" d="M46,175.4c-.8,1.5-1.5,3.2-2.2,5-5.9,16.6-3.9,41.8-4.1,49.4-.1,4.5-1.3,9.5-2.4,11.6.4.4.8.8,1.3,1.2,4.3,3.4,11.5,4.4,17.9,4.6,2.2,0,4.3,0,6.2,0,9.5-.1,18.1,0,26-.8,7.8-.8,14.8-2.7,21.3-6.9"/><path class="cls-1" d="M56.6,247.4c-5.1,9.5-12.4,27.9-18.4,36.5,0,0,0,0,0,0"/><path class="cls-1" d="M38.7,242.5c-5.2,8.3-9.9,29.8-12.6,41.3-.2,1-.5,1.9-.7,2.7"/><path class="cls-1" d="M110.2,230.6c-1.3-13.4-13-36.6-22.2-45.7"/><path class="cls-1" d="M94.5,293c0-.4,0-.9,0-1.3,0-.4,0-.7,0-1.1"/><path class="cls-1" d="M88.9,246.4s0,0,0,0c-.5,3.8,1.3,12,1.6,13.2,3.2,11.9,4.6,19.3,4.2,31,0,.8,0,1.6,0,2.4"/><path class="cls-1" d="M110.2,230.6c0,3.1,0,6.1,0,9-.1,17.2-1.4,30.7-3.8,49.2,0,0,0,.2,0,.3"/><path class="cls-1" d="M51,105.3c6.1-1.5,1.7-1,7.5-1.9,0,0,0,0,0,0"/><path class="cls-1" d="M94.4,292.8c0,0,0,.1,0,.2,1.1,2.4,5.7,4,8,2.7,1.4-.8,2.2-2.2,2.9-3.6.6-1.2.3-2.4.9-3.3.1-.2.3-.4.5-.5,1.2-1,1.8-1.1,2.9,0h0"/><path class="cls-1" d="M94,291.6c-1.4,3.3-2.4,6.7-2.9,10.2-.1.8-.2,1.7.2,2.4.6,1,1.9,1.4,3,1.7,9.7,2.5,19.5,5.1,29.6,6.1,3.3.3,6.8.5,9.7-1,2.9-1.5,4.7-5,3-7.6-.8-1.2-2.2-2-3.6-2.7-7.8-4.2-15.5-8.3-23.2-12.5"/><path class="cls-1" d="M25.1,285.9c0,.2,0,.4.2.6,1.4,2.1,8.4,2.2,9.3,1.1,1.1-1.2.7-2.8,2.1-3.4.6-.2,1-.3,1.4-.3.5,0,.9.4,1.3,1.2,0,0,0,.1.1.2"/><path class="cls-1" d="M25.5,283.7c-3.1.8-5.8,6.1-7.2,9.3-.3.7-.6,1.5-.4,2.3.3,1.1,1.3,1.8,2.3,2.4,8.3,5,16.7,9.9,25.7,13.5,3,1.2,6.2,2.2,9.2,1.6,3.1-.6,5.7-3.6,4.8-6.5-.4-1.4-1.5-2.5-2.6-3.5-6-5.9-11.9-11.8-17.9-17.7,0,0-.2-.2-.3-.3"/><path class="cls-1" d="M79.9,124.6c.9.8,1.2.9,1.4.6,0-.2,0-.5.2-.9,0,0,0,0,0,0,0,0,0,0,0-.1,0-.2,0-.5.2-.8.2-.6.5-1.3,1-2,2.5-3.1,3.5-5.9,7.2-7.9-1.1-1.6-2.8-2.9-4.7-3.4,1.4-.7,2.9-1.3,4.3-2,.6-.3,1.1-.5,1.7-.8-2.7-1.6-5.8-2.5-9-2.4"/><path class="cls-1" d="M63.1,100.7c-1.7.5-3.3,1.4-4.6,2.6-1.6,1.4-2.8,3.3-3.5,5.3,2.8.2,5.6.5,8.5.7-1.5,1.4-2.6,3.1-3.2,5.1.3-.8,10.4,3.1,11.3,3.5,1.7.8,5.8,4.5,7.7,6.2.2.2.4.3.6.5"/><path class="cls-1" d="M95.3,92.2c-2.3,3.9-3.4,4.7-4.8,6.2-2.6,2.6-5.2,5.3-8.4,6.4h0c-.7.2-1.3.4-2,.5-4.2.6-9.4-1.4-16.5-8.7-.7-.7-1.4-1.4-2.1-2.3"/><path class="cls-1" d="M63.1,101.6c0-.3,0-.6.1-.8.2-1.3,0-1.4.3-4.1,0,0,0-.1,0-.2"/><path class="cls-1" d="M70.5,73.7c-.2,2.2.6,4,1.7,4.1,1.1,0,2.2-1.6,2.3-3.7.2-2.1-.6-4-1.7-4.1s-2.2,1.6-2.3,3.7Z"/><path class="cls-1" d="M87.9,83.7c-.5,4.7-4.7,3.6-9,3.1"/><path class="cls-1" d="M87.7,92.2c-5.6,1.9-16.1-1.5-17.1-2.8,2,3.6,2,2.9,3.7,4.3,1.8,1.5,4.9,2.5,6.9,2.4,3.2-.2,4.8-1.5,6.4-3.9Z"/><path class="cls-1" d="M95.5,92.2c1.3-2.1,2.7-4.3,3.1-7.7.2-1.6.4-3.3.5-4.9.1-1.2.3-2.4.4-3.6.2-2.3.5-4.5.4-6.8-.5-9.8-6-21.2-13-21.6-.4,0-.8,0-1.1,0-7.5-.4-12.6,1-20.1,9-2.5,2.7-3.4,9.5-6,12.2-2.6,2.7-5.7-3.2-8,5.3-.8,2.8,1.3,8.1,4.1,7.3.7,3.8,1.7,6.6,3.3,9.4.7,1.2,1.4,2.4,2.3,3.7.1.2.2.3.3.5"/><path class="cls-1" d="M78.2,65.2c-.3.7-1,1.1-1.8,1.2-.8,0-1.5-.3-2.3-.5-2.1-.7-5-1-7.1-.2-.7.2-1.2-.6-.7-1.1.3-.3.7-.6,1.1-.9.9-.8,2.2-1.3,3.5-1.4,2-.3,8.4,0,7.2,3Z"/><path class="cls-1" d="M91.3,66.8c-.4,0-.8.1-1.2.1-1.1-.1-1.9-.9-1.8-1.6s.9-1.3,1.9-1.5c1.3-.3,2.6-.3,3.9-.2,1.3,0,2.6.6,3.4,1.5.4.4.6,1.1.2,1.4-.2.2-.5.2-.8.2-1.8,0-3.9-.4-5.7,0Z"/><path class="cls-1" d="M90.5,75.3c-.2,2.1.5,3.8,1.6,3.9,1.1,0,2-1.5,2.2-3.6.2-2-.5-3.8-1.6-3.9-1,0-2,1.5-2.2,3.5Z"/><path class="cls-2" d="M80,125.4c0,19.6-1.9,39.2-5.8,58.5,0,.2,0,.4-.1.6"/><path class="cls-1" d="M73.5,132.7c.2,4.1.2,6.9-1.8,10.5-1.1,1.9-3.9,5.3-6,4.8-1.5-.3-5.4-3.2-6.1-4.5-1.1-2.1-2.1-9.6,0-11.8.5-.6,14,1.7,14,1Z"/><line class="cls-1" x1="73.5" y1="132.7" x2="73.5" y2="132.7"/><path class="cls-2" d="M101.8,58.9c.3-.9.8-1.5.6-2.5,3,1.6,5-1.6,2.3-3.8,1.7-.7,3.7-.9,3.4-4.1-.4-2.7-2.3-2.3-3.3-2.5.9-1.2.7-3.2-.4-4.2-1.2-.9-3.1-.7-4,.5-.2-1.2-1-2.5-2.2-2.7-1.2-.2-2.3,1.5-2.3,2.8-.9-.3-3-.4-3.7.3"/><path class="cls-2" d="M50.6,55.8c-.8,1.6-1.4,3.3-1.9,5.1-2.8,10.8,1.4,23.1,10.2,29.9"/><path class="cls-2" d="M85.8,47.3c-.2-2.9-2.3-5.4-5-6.6-.3-.1-.6-.2-.8-.3-2.4-.9-5.1-.9-7.7-.5-2.9.4-5.7,1.3-8.3,2.6"/><path class="cls-2" d="M79.8,40.3c0,0,.1,0,.2,0,4.1-.6,8.4.6,11.9,2.9,1.4.9,2.6,1.9,3.7,3.1,3.2,3.5,5.2,8,6,12.7.2,1.1.3,2.2.4,3.3.4,5.8-.7,11.7-2.5,17.3"/><path class="cls-2" d="M55,53.7c.1-.3.2-.6.2-.8"/><path class="cls-2" d="M61.2,46.3c1.7-.7,3.2-1.7,2.8-3.8,0-.2-.1-.5-.2-.8-.4-1-1.6-1.5-2.7-1.5-1.1,0-2.1.3-3.1.8.8-3.7-3.2-4.8-4.7-1.4-1.2-1.6-2-3.7-5.3-2.5-2.7,1.2-1.8,3.1-1.7,4.2-1.6-.6-3.6.2-4.3,1.7s.2,3.5,1.7,4.1c-1.3.6-2.3,1.8-2.2,3.2.1,1.3,2.2,2,3.6,1.7,0,1.1.4,3.3,1.4,3.8,1,.5,2.6-.6,3.5-1.2.2.5.4.9.5,1.2,1.1,1.6,2.5.8,3.4-.4"/><path class="cls-2" d="M60.1,46.6c.3-.1.7-.2,1-.3"/><path class="cls-2" d="M55,53.7c.8-.7,1.9-1.4,2.3-2.2,1.1-1.7,3.1-4.8,3.8-5.2,0,0,0,0,0,0,0,0,0,0,0,0,0,0,0,0,0,0,.9.6.1,2.3.9,3-1.7,1.7-1.8,3.9-5.4,7.3-1.4,0-2.4.7-2.8-.8,0,0,0-.2,0-.3,0-.6.4-1.2,1-1.7Z"/><path class="cls-1" d="M92.7,134.4c.4,4.1.6,6.8-.5,10.5-.5,2-2.1,5.4-3.5,5-.9-.3-3.6-3-4.1-4.3-.8-2.1-1.9-9.5-.8-11.7.3-.6,8.7,1.2,8.8.5Z"/><path class="cls-1" d="M92.7,134.4h0"/><path class="cls-1" d="M88.9,166h0c0,1,.1,1.8.2,2.7,0,2.1-.2,3.9-.6,5.9-.1.6-.3,1.3-.5,2-.5,2-2.1,5.4-3.5,5-.9-.3-2.7-2.3-3.2-3.5-.8-2.1-1.4-10.5-.3-12.8.3-.6,7.9,1.6,7.9.8"/><path class="cls-1" d="M68.6,163.2h0c.2,4.1.2,6.9-1.8,10.5-1.1,1.9-3.9,5.3-6,4.8"/><path class="cls-1" d="M53.5,168.2c0-.1,0-.2,0-.3-.1-2.3.2-4.6,1.2-5.6.5-.6,14,1.7,14,1"/></svg>