<?xml version="1.0" encoding="UTF-8"?><svg id="latinAmerica" xmlns="http://www.w3.org/2000/svg" width="235" height="321.9" viewBox="0 0 235 321.9"><defs><style>.cls-1{stroke-linecap:round;stroke-linejoin:round;}.cls-1,.cls-2{fill:none;stroke:#000;}.cls-2{stroke-miterlimit:10;}.cls-3,.cls-4,.cls-5,.cls-6,.cls-7,.cls-8,.cls-9,.cls-10,.cls-11{stroke-width:0px;}.cls-4{fill:#29a4db;}.cls-5{fill:#39ae4a;}.cls-6{fill:#3c4048;}.cls-7{fill:#dadada;}.cls-8{fill:#bd957d;}.cls-9{fill:#fff;}.cls-10{fill:#ec85b2;}.cls-11{fill:#e4b972;}</style></defs><path class="cls-7" d="M220.8,207.7c2.9,1.3,3.5,5.5,2,8.3-1.5,2.9-4.5,4.7-7.3,6.2-8.8,4.6-18.3,7.8-27.7,10.9-1.1.4-2.4.7-3.5.2l-.2-.4c-1.7-3.5-5.2-7.9-5.3-11.8h0c.2,0,.3.1.5.2h0c1,4.1,11.1-6.8,10.5-8.2-.3-.8-2.8-1.7-2.8-3.2,0-.5.1-1,.3-1.3.4-.6,1.1-.9,1.9-1h.6c8.7,1.7,17.8.3,26.5-.3,1.5-.1,3.1-.2,4.5.4Z"/><path class="cls-8" d="M189.8,213.1c.6,1.4-9.5,12.3-10.5,8.3h0c-.2-.1-.3-.2-.5-.3-14.9-6.1-19.3-3.5-26.8-6.5.4-2.4.8-4.8,1.5-6.8,1.3-3.3,4.2-7.5,7.4-9v-.2c8.7,3.3,15.3,5.9,26.3,10h0c-.2.4-.4.8-.3,1.3,0,1.5,2.5,2.4,2.8,3.2Z"/><path class="cls-11" d="M121.9,250.8c-4.8,1.4-11.1,2.7-13.8,4-3.7,1.8-8.3,4.2-9.8,8.2h0c.4-2.5.9-4.8,1.6-6.9,1.2-3.4,2.4-7.4,3-11,.5-3.7.2-6.5-1.5-9.8h0c-6.5-10.8-15-22.3-23.4-31.6-4.5-4.2-12.5-14.2-13-26.9,2.9-4.8,9.5-7.6,15-6.8,5.5.8,12.2,2.1,19.4,4,7.8,2.2,10,3.5,14.9,5.1h0c0,0,0,0,0,0,9.3,3.8,22.7,8.9,35.5,15.4,4.2,1.6,7.8,2.9,11.1,4.2h0s0,.2,0,.2c-3.2,1.6-6.1,5.7-7.4,9-.8,2-1.1,4.4-1.5,6.8-.3,1.6-.5,3.2-.9,4.6-3.1,11.2-14.5,23.7-24.4,29.7-1.1.6-2.8,1.2-4.8,1.8Z"/><path class="cls-7" d="M112.1,289.9h0c7.3,3.9,14.6,7.9,22,11.8,1.3.7,2.6,1.4,3.4,2.6,1.6,2.5-.1,5.8-2.8,7.2-2.7,1.4-6,1.3-9.2.9-9.5-1-18.7-3.4-27.9-5.8-1.1-.3-2.3-.7-2.9-1.6-.4-.7-.3-1.5-.2-2.3.5-3.3,1.4-6.5,2.7-9.6h.3c0,.1,0,.3,0,.4v.7c1,2.4,5.4,4,7.7,2.7,1.3-.7,2.1-2.1,2.8-3.4s.2-2.7,1.3-3.6c0,0,.1-.1.2-.2,1-.8,1.6-.8,2.5.2Z"/><path class="cls-6" d="M131.5,64.5c1.4,6-1.5,13.6-2,20.1l-.2.4c-1.2-.5-2.2-1-3.3-.3h0c.4-3.9.8-9,0-13.4.4.2.8.4,1.2.3,1.1-.2,1.4-1.5,1.8-2.5.7-1.6,1.2-5.8.4-8.1l.9-.3c.4,1.2.7,2.4,1,3.8Z"/><path class="cls-11" d="M130.1,85.2c.5.4.8,2.3.6,3.2-.3,1.3-.4,1.9-1.4,2.6-.7.4-1.5.7-2.3.6-.8,0-1.5-.4-2-1,.4-1.4.7-2.8.8-4,0-.6.1-1.2.2-1.9h0c1.1-.7,2.1-.2,3.3.3.2,0,.5.2.7.3h0Z"/><path class="cls-6" d="M130.5,60.7l-.9.3c-.2-.5-.4-.9-.7-1.2-.3.8-2,4.6-2.6,5.4-.5.6-1,1.2-1.4,1.9h0c-.3-.8-.5-1.2-.9-1.8-.4-.5-.5-.6-.9-1.1h0c.2-.2.5-.3.7-.5,1-.8.9-2.3,1-3.6.3-2.4.3-7.4-1.3-5.5-.8.9-2.9,4.2-3.7,6.3h0c-2.5-2-4.9-3.2-8.4-5,.5-3.2-.8-8.5-2.1-11.5h0c5.3.8,11.2,2.6,14.5,5.7,3.5,3.2,5.4,6.4,6.7,10.5Z"/><path class="cls-5" d="M126.1,71.3c0,0-.2,0-.2-.2-1.1-.8-1.5-2.3-1.1-3.5,0-.2.1-.3.2-.5.4-.7.9-1.3,1.4-1.9.6-.8,2.3-4.5,2.6-5.4.3.3.5.7.7,1.2.8,2.3.3,6.4-.4,8.1-.5,1-.7,2.4-1.8,2.5-.4,0-.9,0-1.2-.3Z"/><path class="cls-10" d="M112.5,145.1h0c-.3-3.1-.4-7.8-1-13.3,1,0,2.1,0,3.3-.2h0c4.1-1.9,6.1-9.9,8.5-21.6,5.7,3,4.3,38.9,4,40.1h0c-.2,1.3-.7,2.1-1.2,3.1-1.1,2.1-2.6,1.9-3.6,2.6h-.4c-3.6,1.3-6.6,2-9.4,2.3-7.3.9-13-.8-22.7-2.3-.8-1.4-.9-5.7,1.9-7.3h0c.3,0,.7,0,1-.1,9-2.1,13.7-2.3,19.5-3.4Z"/><path class="cls-6" d="M123.3,110.1c-2.4,11.7-4.5,19.6-8.5,21.5h0c-1.1.2-2.2.3-3.3.2-2.6-.1-4.9-.9-7.5-2.3-3.5-1.9-3.1-8.2.6-14.7,1.2-2.1,2.8-4.2,4.7-6.2v-.2c2.7-.8,5.3-2.6,8.3-5.3,3.8-3.3,6.1-7.6,7.6-12.6.4.6,1.2,1,2,1v.2c-1.5,6.8-2.7,13-3.8,18.4Z"/><path class="cls-8" d="M111.4,56c3.5,1.9,5.9,3,8.4,5h0c-.2.5-.3.9-.2,1.2.1.9.8,1.7,1.6,2.1.6.2,1.3.2,1.9,0h0c.4.5.5.6.9,1.1.4.6.6.9.9,1.7h0c0,.2-.2.4-.2.5-.4,1.2,0,2.7,1.1,3.5,0,0,.2.1.2.2.7,4.4.4,9.5,0,13.4,0,.7-.1,1.3-.2,1.9-.1,1.2-.4,2.6-.8,4-1.4,4.9-3.7,9.3-7.6,12.6-3,2.6-5.6,4.5-8.4,5.3-5.2,1.4-11-1.2-21.6-10.3-.5-1.9-1.2-5.1-1.5-8.1,0-.4,0-.8-.1-1.1,0-1.3.2-2.6.4-4,.8-6.1,2.7-13,6.8-17.7h0c.2,0,.5.1.8.2,1.5.2,3.1-.9,3.2-2.3,0-.4,0-.8-.2-1.2h0c2.4-1.7,3.3-2.3,4.9-3.3h0c.3.2.6.4,1,.5.7.2,1.6.1,2.1-.4s.6-1.3.4-2c0,0,0,0,0,0h0c2.2-1.2,3.7-1.7,5.9-2.6,0,0,0,0,0,0ZM115.7,97.2c-5.5,1.8-16.8-2.3-17.7-3.5,1.9,3.9,2.6,4.5,4.3,6,1.7,1.6,5.4,2.3,7.3,2.1,3.1-.3,4.6-1.7,6.1-4.4h0ZM123.3,75.4c2.5.9,2.2-1.7.4-2.4-1.7-.7-4.4-.5-6.1-.2-.5,0-.9.2-1.3.5s-.5.8-.3,1.2c.3.6,1.2.5,1.9.4,1.8-.3,3.7-.1,5.4.5ZM122.1,81.6c.1-1.6-.5-2.9-1.4-2.9s-1.7,1.1-1.8,2.7.5,2.9,1.4,2.9,1.7-1.1,1.8-2.7ZM105.3,72.8c2.8-2-2.8-2.5-3.8-2.5-1.5,0-3,.2-4.2,1-.4.2-.8.5-.9,1s0,1,.4,1.2c.3.1.7,0,1.1,0,1.8-.5,3.7-.7,5.5-.4.7.1,1.4.3,1.9-.1ZM103,80.1c.1-1.6-.5-2.9-1.4-3s-1.7,1.2-1.8,2.7.5,2.9,1.4,3,1.7-1.2,1.8-2.7Z"/><path class="cls-4" d="M123.5,54.8c1.6-1.9,1.6,3.1,1.3,5.5-.2,1.3,0,2.7-1,3.6-.2.2-.4.3-.7.4-.6.2-1.3.3-1.9,0-.8-.3-1.5-1.1-1.6-2.1,0-.3,0-.7.2-1.2.7-2,2.9-5.4,3.7-6.3Z"/><path class="cls-6" d="M123.7,72.9c1.8.7,2.1,3.4-.4,2.4-1.7-.6-3.6-.8-5.4-.5-.7.1-1.5.2-1.9-.4-.2-.4,0-.9.3-1.2s.8-.4,1.3-.5c1.7-.3,4.4-.5,6.1.2Z"/><path class="cls-3" d="M120.7,78.7c.9,0,1.5,1.4,1.4,2.9-.1,1.6-.9,2.8-1.8,2.7s-1.5-1.4-1.4-2.9.9-2.8,1.8-2.7Z"/><path class="cls-8" d="M121.9,250.8c-1,2.8-1.2,3.9-2.2,7.3-2.9,10.6-6.4,21.3-10.1,31.4v.2c0,0-.1.1-.2.2-1.2.9-.7,2.3-1.3,3.6s-1.4,2.7-2.8,3.4c-2.3,1.2-6.7-.3-7.7-2.7v-.7c0-.1,0-.3,0-.4-.2-8.6-.8-20.6.7-30.3h0c1.4-3.9,6.1-6.4,9.8-8.2,2.7-1.3,9-2.5,13.8-4Z"/><path class="cls-9" d="M115.7,97.2h0c-1.5,2.8-3,4.3-6.1,4.5-1.9.2-5.6-.6-7.3-2.1-1.7-1.5-2.4-2-4.3-6,.9,1.3,12.2,5.4,17.7,3.5Z"/><path class="cls-10" d="M90,155.9c9.8,1.5,15.5,3.2,22.7,2.3h0c-.8,3.1,1.4,15.8,1.6,20.8h0s0,0,0,0c-4.9-1.5-7.1-2.9-14.9-5.1-7.3-2-14-3.2-19.4-4-5.5-.8-12.1,2-15,6.8,0-1.3,0-2.6,0-3.9h0c1.1-12,.2-7.1,2.3-29.8h.1c.5-4.5,1.6-9.5,1.6-14.6,0-.4,0-.8,0-1.3h1.1c.3,7.4,3.9,12.5,16.4,5.7h0c3.3-1.4,3.9-12,3.4-21.1,1.6,1.7,3.9,3.5,5.5,4,2.9,1,6.2,1,9.2-.9-3.7,6.4-4.1,12.8-.6,14.7,2.6,1.4,5,2.2,7.5,2.3.5,5.5.6,10.2,1,13.1h0c-5.8,1.3-10.5,1.4-19.5,3.5-.3-2.9-10.7-7.8-13.2-6.7-2.8,1.2-4.8,10-3.9,12.1,1.1,2.5,10.3,2.6,12.8,1.8.5,0,.9.1,1.3.2Z"/><path class="cls-6" d="M109.3,44.5c1.4,2.9,2.7,8.3,2.1,11.5,0,0,0,0,0,0-2.2.9-3.7,1.4-5.9,2.6h0s0-.1,0-.2c-.3-.8-.8-1.4-1.4-1.9-1.6-1.5-5-3.8-7.3-5.7-.4,2.4,2.9,7.2,4.5,8.9.2.3.5.5.8.7h0c-1.6,1-2.5,1.7-4.9,3.3h0c-.2-.3-.4-.7-.6-1-.5-.6-4.8-5.6-5.2-8.8-1.1.3-.6,9-.2,10.4.3,1.2,1.2,2.2,2.3,2.7h0c-4.1,4.8-6,11.7-6.8,17.8h0c-1.4-.3-2.5-.5-3.9-.5-1.4,0-3.8-.2-4.8.8l-.2-.2c-3.2-9.8-2.5-20.3,1.7-28.1s16.2-13.5,25-13.1c1.6,0,3.4.3,5.3.6h0Z"/><path class="cls-8" d="M109.1,108.4v.2c-1.8,2-3.4,4.1-4.6,6.2-3,1.9-6.3,1.9-9.2.9-1.6-.6-3.9-2.3-5.5-4-.3-5.5-1.1-10.4-2-12.5-.1-.3-.3-.7-.4-1.2,10.6,9.2,16.4,11.8,21.6,10.3Z"/><path class="cls-4" d="M105.4,58.6c.2.7,0,1.5-.4,2s-1.4.6-2.1.4c-.4-.1-.7-.3-1-.5-.3-.2-.6-.5-.8-.7-1.6-1.7-4.9-6.6-4.5-8.9,2.3,1.9,5.7,4.2,7.3,5.7.6.5,1.2,1.1,1.4,1.9,0,0,0,.1,0,.2,0,0,0,0,0,0Z"/><path class="cls-6" d="M101.5,70.3c.9,0,6.6.5,3.8,2.5-.5.4-1.3.2-1.9.1-1.8-.3-3.7-.2-5.5.4-.3.1-.7.2-1.1,0-.4-.2-.5-.8-.4-1.2s.5-.7.9-1c1.2-.8,2.7-1,4.2-1Z"/><path class="cls-3" d="M101.6,77.1c.9,0,1.5,1.4,1.4,3s-.9,2.8-1.8,2.7-1.5-1.4-1.4-3,.9-2.8,1.8-2.7Z"/><path class="cls-5" d="M96.9,63.8c.1.4.2.8.2,1.2,0,1.5-1.7,2.6-3.2,2.3-.3,0-.5-.1-.8-.2-1.1-.5-1.9-1.5-2.3-2.7-.4-1.4-.9-10.1.2-10.4.4,3.2,4.7,8.1,5.2,8.8s.5.7.6,1.1Z"/><path class="cls-8" d="M91.9,148.6c-2.8,1.6-2.7,5.9-1.9,7.3-.4,0-.9-.1-1.3-.2-2.5.8-11.8.8-12.8-1.8-.9-2.1,1.2-10.9,3.9-12.1,2.5-1.1,13,3.8,13.2,6.7-.3,0-.7.2-1,.2h0Z"/><path class="cls-6" d="M87.5,98.1c.1.5.3.9.4,1.2.9,2.1,1.7,7.1,2,12.5.5,9.1-.1,19.8-3.4,21.2h0c-12.5,6.7-16.1,1.6-16.4-5.8-.3-7.3,2.7-16.9,3.4-19.5.4-1.3.7-2.5,1.1-3.5,1.4-4.4,2.6-7.2,3.9-15h0c0,0,.1,0,.2,0,1.6.5,5.7,1.3,7.3.8.3,2.9,1,6.1,1.5,8.1Z"/><path class="cls-11" d="M86.3,84.9h0c-.2,1.4-.3,2.7-.4,4,0,.4,0,.7.1,1.1-1.6.4-5.8-.3-7.3-.8h-.2c-1.4-.7-1.8-2.1-1.2-3.5,0-.1.1-.3.2-.4.9-1,3.4-.8,4.8-.8,1.4,0,2.6.2,3.9.5Z"/><path class="cls-10" d="M45.9,128.4h0c1-1.2,13.8-15.1,14.6-15.8,4.2-3.8,8.7-7.3,14.2-8.5-.3,1.1-.7,2.2-1.1,3.5-.7,2.6-3.7,12.2-3.4,19.5h-1.1c0,.5,0,.9,0,1.3-2,1.4-18.5,13.2-20.3,14.7-4.9,9-8.2,12.4-11.9,19.9h-.4c-2.1-1.4-5.7-.5-8,2,2.7-12.2,4.4-18.6,11.6-29,1.5-2.2,3.6-4.8,5.8-7.7Z"/><path class="cls-8" d="M36.9,163.2c2.5.7,4.8,9.8,3.2,11.8-1.7,2.1-11.7,3-13.4,1.9-2-1.4.2-9.3,1.5-11.3,0-.2,0-.4.1-.6,2.3-2.5,6-3.4,8-2h.4v.2Z"/><path class="cls-1" d="M45.8,128.4c1-1.2,13.8-15.1,14.6-15.8,4.2-3.8,8.7-7.3,14.2-8.5,0,0,.2,0,.3,0"/><path class="cls-1" d="M28.4,165.1c0,.2,0,.4-.1.6"/><path class="cls-1" d="M45.9,128.4s0,0,0,0c-2.3,2.9-4.3,5.5-5.8,7.7-7.2,10.3-9,16.8-11.6,29"/><path class="cls-1" d="M69.1,128.5s0,0,0,0c-2,1.4-18.5,13.2-20.3,14.7-4.9,9-8.2,12.4-11.9,19.9"/><path class="cls-1" d="M36.9,163.2c2.5.7,4.8,9.8,3.2,11.8-1.7,2.1-11.7,3-13.4,1.9-2-1.4.2-9.3,1.5-11.3"/><path class="cls-1" d="M127.2,150.2s0,0,0,0c.3-1.2,1.7-37.1-4-40.1,0,0,0,0-.1,0"/><path class="cls-1" d="M112.5,145c-.3-2.9-.4-7.6-1-13.1,0,0,0,0,0-.1"/><path class="cls-1" d="M122.1,155.9c-3.6,1.3-6.6,2-9.4,2.3-7.3.9-13-.8-22.7-2.3-.4,0-.9-.1-1.3-.2"/><path class="cls-1" d="M114.2,144.8c-.6.1-1.1.2-1.7.3-5.8,1.1-10.5,1.3-19.5,3.4-.3,0-.7.2-1,.2"/><path class="cls-1" d="M93,148.5s0,0,0,0c-.3-2.9-10.7-7.8-13.2-6.7-2.8,1.2-4.8,10-3.9,12.1,1.1,2.5,10.3,2.6,12.8,1.8"/><path class="cls-1" d="M127.3,150.2s0,0,0,0c-.2,1.3-.7,2.1-1.2,3.1-1.1,2.1-2.6,1.9-3.6,2.6"/><path class="cls-1" d="M67.4,142.3c0,.3,0,.5,0,.8-2.1,22.8-1.3,17.8-2.3,29.7"/><path class="cls-1" d="M112.7,158.2c-.8,3.1,1.4,15.8,1.6,20.8h0"/><path class="cls-1" d="M68.3,121.5c.5,1.9.7,3.8.8,5.7,0,.4,0,.9,0,1.3,0,5.1-1.1,10.1-1.6,14.6"/><path class="cls-1" d="M121.9,250.7s0,0,0,0c-1,2.8-1.2,3.9-2.2,7.3-2.9,10.6-6.4,21.3-10.1,31.4"/><path class="cls-1" d="M101.3,235.2c1.7,3.3,2,6.1,1.5,9.8-.5,3.6-1.8,7.6-3,11-.7,2-1.2,4.4-1.6,6.8-1.5,9.6-.9,21.7-.7,30.3,0,.1,0,.3,0,.4"/><path class="cls-1" d="M65,172.9c-.1,1.3-.1,2.6,0,3.9.5,12.7,8.4,22.7,13,26.9,0,0,0,0,0,0"/><path class="cls-1" d="M114.4,179c9.3,3.8,22.7,8.9,35.5,15.4"/><path class="cls-1" d="M151.7,214.5c0,0,.2,0,.3.1,7.5,3,11.9.4,26.8,6.5.2,0,.3.1.5.2"/><path class="cls-1" d="M187.3,208.6c-11.1-4.1-17.7-6.7-26.3-10h0c-3.3-1.3-6.9-2.6-11.1-4.2"/><path class="cls-1" d="M179.3,221.4c1,4,11.1-6.9,10.5-8.3-.3-.8-2.8-1.7-2.8-3.2,0-.5.1-1,.3-1.3.4-.6,1.1-.9,1.9-1,0,0,.2,0,.3,0"/><path class="cls-1" d="M184.2,233.3c1,.6,2.3.2,3.5-.2,9.4-3.1,18.9-6.3,27.7-10.9,2.9-1.5,5.8-3.3,7.3-6.2,1.5-2.9.9-7-2-8.3-1.4-.6-3-.5-4.5-.4-8.8.6-17.9,2.1-26.5.4"/><path class="cls-1" d="M178.8,221.1c0,3.9,3.6,8.3,5.3,11.8"/><path class="cls-1" d="M114.6,179.2c-.1,0-.2,0-.3,0-4.9-1.5-7.1-2.9-14.9-5.1-7.3-2-14-3.2-19.4-4-5.5-.8-12.1,2-15,6.8,0,0,0,0,0,0"/><path class="cls-2" d="M105.1,114.5c-.2.1-.4.3-.6.4-3,1.9-6.3,1.9-9.2.9-1.6-.6-3.9-2.3-5.5-4,0,0-.1-.1-.2-.2"/><path class="cls-1" d="M97.6,294.3c.9,2.4,5.4,4,7.7,2.7,1.3-.7,2.1-2.1,2.8-3.4s.2-2.7,1.3-3.6c0,0,.1-.1.2-.2,1-.8,1.6-.8,2.5.2h0"/><path class="cls-1" d="M97.2,293.1c-1.3,3.1-2.3,6.3-2.7,9.6-.1.8-.2,1.6.2,2.3.5.9,1.8,1.3,2.9,1.6,9.2,2.4,18.4,4.8,27.9,5.8,3.1.3,6.4.4,9.2-.9,2.7-1.4,4.5-4.8,2.8-7.2-.8-1.2-2.1-1.9-3.4-2.6-7.3-3.9-14.6-7.9-22-11.8"/><path class="cls-1" d="M160.9,198.8c-3.2,1.6-6.1,5.7-7.4,9-.8,2-1.1,4.4-1.5,6.8-.3,1.6-.5,3.2-.9,4.6-3.1,11.2-14.5,23.7-24.4,29.7-1.1.6-2.8,1.2-4.8,1.8-4.8,1.4-11.1,2.7-13.8,4-3.7,1.8-8.3,4.2-9.8,8.2"/><path class="cls-1" d="M77.9,203.7c8.5,9.3,17,20.8,23.4,31.5"/><path class="cls-1" d="M77.8,203.5s0,0,.1.1"/><path class="cls-1" d="M28.2,165.3c0,0,.1-.2.2-.2,2.3-2.5,6-3.4,8-2"/><path class="cls-1" d="M92.7,148.3c-.3,0-.6.2-.8.3-2.8,1.6-2.7,5.9-1.9,7.3,0,0,0,0,0,0"/><path class="cls-1" d="M125.9,86.6c-.1,1.2-.4,2.6-.8,4-1.4,4.9-3.7,9.3-7.6,12.6-3,2.6-5.6,4.5-8.4,5.3-5.2,1.4-11-1.2-21.6-10.3,0,0,0,0,0,0"/><path class="cls-1" d="M115.6,90.6c-1.3,3.1-6.4,3-9.6.7"/><path class="cls-1" d="M118.9,81.4c-.1,1.6.5,2.9,1.4,2.9s1.7-1.1,1.8-2.7c.1-1.6-.5-2.9-1.4-2.9s-1.7,1.1-1.8,2.7Z"/><path class="cls-1" d="M103,80.1c-.1,1.6-.9,2.8-1.8,2.7s-1.5-1.4-1.4-3,.9-2.8,1.8-2.7,1.5,1.4,1.4,3Z"/><path class="cls-1" d="M116.2,97c-.1,0-.3.1-.5.2-5.5,1.8-16.8-2.3-17.7-3.5,1.9,3.9,2.6,4.5,4.3,6,1.7,1.6,5.4,2.3,7.3,2.1,3.1-.3,4.6-1.7,6.1-4.4"/><path class="cls-1" d="M93.1,67.2c-4.1,4.7-6,11.7-6.8,17.7-.2,1.4-.3,2.7-.4,4"/><path class="cls-1" d="M101.9,60.5c-1.6,1-2.5,1.6-4.9,3.3"/><path class="cls-1" d="M119.8,61c-2.5-2-4.9-3.2-8.4-5,0,0,0,0,0,0-2.2.9-3.7,1.4-5.9,2.6"/><path class="cls-1" d="M124.9,67.1c-.3-.8-.5-1.1-.9-1.7-.4-.5-.5-.6-.9-1.1"/><path class="cls-1" d="M125.9,86.6c0-.6.1-1.2.2-1.9.4-3.9.8-9,0-13.4h0"/><path class="cls-1" d="M129.5,84.6c.5-6.5,3.3-14.1,2-20.1-.3-1.3-.6-2.6-1-3.8-1.3-4.1-3.3-7.2-6.7-10.5-3.3-3.1-9.2-4.9-14.5-5.7-1.9-.3-3.7-.5-5.3-.6-8.8-.4-20.8,5.3-25,13.1s-4.9,18.3-1.7,28.1"/><path class="cls-1" d="M86.3,84.9c-1.4-.3-2.5-.5-3.9-.5-1.4,0-3.8-.2-4.8.8,0,.1-.2.2-.2.4-.6,1.5-.2,2.8,1.2,3.4h.2c1.6.6,5.7,1.3,7.3.9h0"/><path class="cls-1" d="M125.1,90.6c.4.6,1.2,1,2,1,.8,0,1.7-.2,2.3-.6,1-.6,1.1-1.2,1.4-2.6.2-.9,0-2.8-.6-3.2,0,0,0,0,0,0"/><path class="cls-1" d="M130.1,85.2c-.3,0-.5-.2-.7-.3-1.2-.5-2.2-1-3.3-.3"/><path class="cls-1" d="M86.5,133c3.3-1.4,3.9-12,3.4-21.2-.3-5.5-1.1-10.4-2-12.5-.1-.3-.3-.7-.4-1.2-.5-1.9-1.2-5.1-1.5-8.1,0-.4,0-.8-.1-1.1"/><path class="cls-1" d="M78.5,89.1c-1.3,7.7-2.5,10.6-3.9,15-.3,1.1-.7,2.2-1.1,3.5-.7,2.6-3.7,12.2-3.4,19.5.3,7.4,3.9,12.5,16.4,5.8,0,0,.1,0,.2-.1"/><path class="cls-1" d="M114.8,131.6c4.1-1.9,6.1-9.8,8.5-21.5,1.1-5.4,2.3-11.6,3.8-18.4"/><path class="cls-1" d="M109.2,108.7c-1.9,2-3.5,4.1-4.7,6.2-3.7,6.4-4.1,12.8-.6,14.7,2.6,1.4,5,2.2,7.5,2.3,1,0,2.1,0,3.3-.2.1,0,.2,0,.3,0"/><path class="cls-1" d="M109.3,44.5c1.4,2.9,2.7,8.3,2.1,11.5h0"/><path class="cls-1" d="M105.3,72.8c-.5.4-1.3.2-1.9.1-1.8-.3-3.7-.2-5.5.4-.3.1-.7.2-1.1,0-.4-.2-.5-.8-.4-1.2s.5-.7.9-1c1.2-.8,2.7-1,4.2-1,.9,0,6.6.5,3.8,2.5Z"/><path class="cls-1" d="M117.6,72.7c-.5,0-.9.2-1.3.5s-.5.8-.3,1.2c.3.6,1.2.5,1.9.4,1.8-.3,3.7-.1,5.4.5,2.5.9,2.2-1.7.4-2.4-1.7-.7-4.4-.5-6.1-.2Z"/><path class="cls-1" d="M105.4,58.6s0,0,0,0c0,0,0-.1,0-.2-.3-.8-.8-1.4-1.4-1.9-1.6-1.5-5-3.8-7.3-5.7-.4,2.4,2.9,7.2,4.5,8.9.2.3.5.5.8.7.3.2.6.4,1,.5.7.2,1.6.1,2.1-.4s.6-1.3.4-2"/><path class="cls-1" d="M119.8,61c-.2.5-.3.9-.2,1.2.1.9.8,1.7,1.6,2.1.6.2,1.3.2,1.9,0,.2,0,.5-.2.7-.4,1-.8.9-2.3,1-3.6.3-2.4.3-7.4-1.3-5.5-.8.9-2.9,4.2-3.7,6.3Z"/><path class="cls-1" d="M93.2,67.1c-1.1-.5-1.9-1.5-2.3-2.7-.4-1.4-.9-10.1.2-10.4.4,3.2,4.7,8.1,5.2,8.8s.5.7.6,1.1c.1.4.2.8.2,1.2,0,1.5-1.7,2.6-3.2,2.3-.3,0-.5-.1-.8-.2Z"/><path class="cls-1" d="M129.6,61c-.2-.5-.4-.9-.7-1.2-.3.8-2,4.6-2.6,5.4-.5.6-1,1.2-1.4,1.9,0,.2-.2.3-.2.5-.4,1.2,0,2.7,1.1,3.5,0,0,.2.1.2.2.4.2.8.4,1.2.3,1.1-.2,1.4-1.5,1.8-2.5.7-1.6,1.2-5.8.4-8.1Z"/></svg>