<?xml version="1.0" encoding="UTF-8"?><svg id="latinAmerica" xmlns="http://www.w3.org/2000/svg" width="235" height="321.9" viewBox="0 0 235 321.9"><defs><style>.cls-1{stroke-linecap:round;stroke-linejoin:round;}.cls-1,.cls-2{fill:none;stroke:#000;}.cls-2{stroke-miterlimit:10;}.cls-3,.cls-4,.cls-5,.cls-6,.cls-7,.cls-8,.cls-9,.cls-10{stroke-width:0px;}.cls-4{fill:#634e3f;}.cls-5{fill:#948675;}.cls-6{fill:#352925;}.cls-7{fill:#dc6443;}.cls-8{fill:#8b7461;}.cls-9{fill:#fff;}.cls-10{fill:#e9d8c7;}</style></defs><path class="cls-4" d="M91.1,294h0c1.4,2.1,5.2,3,7.5,1.5,1.3-.9,2-2.2,2.5-3.6.5-1.3,1-2.7,2.1-3.8,1.1-1,2.3-1.3,3.7-.5h.1c9.7,3.2,15.2,8.7,24.9,11.9,1.7.5,3.4,1.1,4.6,2.3,2.5,2.4,1,6.4-2.1,8.3-3.1,1.9-7.1,2.3-11,2.5-11.7.4-19.3-3.1-31-4.3-1.4-.1-3-.4-3.8-1.3-.6-.7-.7-1.6-.7-2.4,0-3.7.5-7.4,1.5-10.9h1.5c0,.1,0,.3,0,.4Z"/><path class="cls-8" d="M116,166.7h.1c3.4-1,7.5,4.1,9,6.9,1.5,2.8-2.2,5.6-5.1,7.5-2.9,1.8-4.6,2.5-7.6.8-1.4-.8-2.6-2-3-3.5,0,0,0-.2,0-.3-.4-2.8,3.4-9.2,6.6-11.6,0,0,0,0,.1,0Z"/><path class="cls-5" d="M25.6,252.6c-1.1-.6-2.2-1.3-3.5-2,2.5-3.1,4.3-6.4,5.6-9.8h.1c4.9,4,10,5.4,16.4,6.1,4.3-6.2,7.2-13.3,8.5-20.6.7-3.9.9-7.9.7-11.9-6.7-.1-15.3-2.7-21.1-5.9h-.2c.5-6.1,1.3-12,3.5-17.4h0c6.4,1.5,12.2,2.8,17.8,3.8,10.5,1.8,20.6,2.4,33,1.4,5.1,4.3,19.6,23.9,20.7,33,1.9,15.8,1.4,22.3,1.8,26.7-1.1.3-2.1.5-3.1.8-7.2,1.8-13,3.4-19.3,4-1.7.2-3.5.3-5.3.3-1-7.1,1.8-28.3-15.7-42.8h-.2c-4.6,14.5-10.4,34.6-17.6,43.6-1.8-.2-3.4-.5-4.9-.8-7.5-1.6-11.2-4.6-17.4-8.3Z"/><path class="cls-8" d="M109.3,178.2h-.2c-2.5-5.6-13.8-18.3-17.2-25.3,2.7-1.6,5.8-4.8,9.5-7.3l.3.3c4.6,6.3,8.9,17.3,14.2,20.7-3.2,2.4-7.1,8.8-6.6,11.6Z"/><path class="cls-8" d="M106,256.7c-.8,8-1.1,21.5-2.7,31.4-1.1,1-1.6,2.4-2.1,3.8-.5,1.3-1.2,2.7-2.5,3.6-2.3,1.5-6.1.6-7.5-1.5h0c0,0,0-.2,0-.4-.3-3.9-1.7-22.4-4.3-32.6v-.3c6.2-.6,12-2.2,19.2-4Z"/><path class="cls-8" d="M80.2,96.1l-.2.2c1.2,5.9,10.7,8.7,12.2,4.6-4.7-.5-7.9-2.2-12-4.8ZM56.8,107.4c.9-2.2,1.3-9.1,1.1-14.5h-.1c-5.7-5.1-7.2-11.1-7.5-18.6-.4-9.1,6.5-24.9,19.3-28.1,21.3-5.2,36.1,6.9,38.5,14.3.8,2.3,1.9,6,1.2,10.4-.8,4.8-1,4.7-2.2,8.1-1.4,4.3-2.1,4.5-2.9,6.9-.6,2-1,12.6-9,21,0,0-4.1,4.3-8.3,4.9-.8.1-3-.2-5.8-1.1-.4-.1-.8-.3-1.2-.4-.7-.3-1.5-.5-2.3-.9h0c.5,1.6.7,3.3-.6,4.4-1.3,1.1-3.2,1.5-4.9,1.7-5.8.7-12.7-3-15.2-8.1,0,0,0,0,0-.1ZM105,76.9c.4-.2.5-.7.3-1.1s-.7-.9-1-1.2c-1.2-1.8-3.6-2.5-5.1-1.5-.5,0-1.3,1-1.1,1.4.2.5.7.8,1.3.9.5.1,1.1,0,1.6.1,1,0,1.9.4,2.7.9.4.3.9.6,1.4.4ZM101.8,84.7c.4-1.8.1-3.4-.7-3.5s-1.8,1.2-2.3,2.9c-.4,1.8-.1,3.4.7,3.5.8.2,1.8-1.2,2.3-2.9ZM90.1,71.3c0-.4-.5-1.2-1-1.1-1.3-1.8-5.1-2.5-9-1.4-.9.3-.6.2-1.4.6-.2,0-.4.2-.5.4-.1.4.5.6.9.7,1.1.2,2.2.4,3.3.6,1.8.3,3.6.6,5.4,1,.4,0,.9.2,1.3,0s.9-.4.9-.8ZM83.3,80.8c.4-1.7,0-3.1-1-3.3-.9-.2-2,1-2.4,2.7-.4,1.7,0,3.2,1,3.3.9.2,2-1,2.4-2.7Z"/><path class="cls-6" d="M105.3,75.9c.2.4.1.9-.3,1.1-.5.2-.9-.2-1.4-.4-.8-.5-1.7-.9-2.7-.9-.5,0-1.1,0-1.6-.1-.5-.1-1.1-.4-1.3-.9-.2-.5.6-1.4,1.1-1.4,1.5-1,3.9-.3,5.1,1.5.2.3.8.8,1,1.2Z"/><path class="cls-7" d="M87.1,115.7c-.5-.9-1.1-1.7-1.7-2.4h.1c10.2,7.1,13.7,25.1,17.6,31.2-.6.3-1.2.7-1.7,1-3.7,2.5-6.8,5.7-9.5,7.3-.7-1.3-1-2.4-1-3.2.6-9.4.5-18.6-.9-26.7-.4-2.3-1.5-5-2.8-7.3Z"/><path class="cls-3" d="M101,81.2c.8.2,1.1,1.7.7,3.5s-1.5,3.1-2.3,2.9c-.8-.2-1.1-1.7-.7-3.5.4-1.8,1.5-3.1,2.3-2.9Z"/><path class="cls-10" d="M90,123c1.4,8.1,1.5,17.3.9,26.7-1,15.9-3.7,32.7-4.3,46.5-12.4,1.1-22.5.4-33-1.4l.3-1.1c.6.1,1.1.1,1.4,0,2.2-.9,7-9.9,5.7-12.4-1.2-2.3-12.2-4.6-14.3-2.8h0c-2.8-3.4-4.6-7.9-6.6-12.5h.3c1.3-10.4,2.7-20.6,1.6-27.1h-.9c3.7-7.6,7.3-16.5,7.3-19.5,0-.7,0-1.5-.1-2.2h.3c1.9-1.5,3.9-2.8,6.1-3.8l.7-.3c1.3,1.2,2.9,2.2,4.5,3.1,3,1.7,5.7,3,9.2,3.7h0c1.6,3,3.9,5.7,6.6,7.9.8-2.4,1.7-5.7,2.2-8.2h0c1.5-.5,2.7-1.1,3.1-1.8.5-.7.7-2,.6-3.1,2.1.1,3.6.3,5.6.9,1.4,2.3,2.4,5,2.8,7.3Z"/><path class="cls-9" d="M92.2,100.9c-1.5,4.1-11,1.3-12.2-4.6l.2-.2c4.1,2.6,7.3,4.3,12,4.8Z"/><path class="cls-6" d="M89.2,70.2c.4-.1,1,.7,1,1.1,0,.4-.5.7-.9.8s-.9,0-1.3,0c-1.8-.3-3.6-.6-5.4-1-1.1-.2-2.2-.4-3.3-.6-.4,0-1-.3-.9-.7,0-.2.3-.3.5-.4.9-.4.5-.4,1.4-.6,3.9-1.1,7.7-.4,9,1.4Z"/><path class="cls-7" d="M80.9,110.9c1.7.5,3.2,1.3,4.6,2.3h-.1c.6.8,1.2,1.7,1.7,2.5-2-.6-3.6-.8-5.6-.9,0-.8-.2-1.6-.5-2.1-.7-1.2-.9-1.6-1.3-2l.2-.4c.4.2.8.3,1.2.4v.2Z"/><path class="cls-3" d="M82.4,77.5c.9.2,1.4,1.7,1,3.3-.4,1.7-1.5,2.9-2.4,2.7-.9-.2-1.4-1.7-1-3.3.4-1.7,1.5-2.9,2.4-2.7Z"/><path class="cls-7" d="M79.6,110.7c.4.5.6.8,1.3,2,.3.5.5,1.3.5,2.1,0,1.2-.1,2.4-.6,3.1-.4.6-1.6,1.3-3.1,1.7-1.9.6-4.5.9-6.9.6-.6,0-1.3-.2-1.9-.3-3.5-.7-6.2-2-9.2-3.7-1.6-.9-3.2-1.9-4.5-3.1-1.3-1.1-2.3-2.4-2.9-4,0,0,0-.2,0-.2,1-.3,3.3-1.1,4.6-1.6h0c2.5,5.2,9.4,8.9,15.2,8.2,1.8-.2,3.6-.6,4.9-1.7,1.3-1.2,1.1-2.8.6-4.4h0c.8.3,1.6.6,2.3.8l-.2.4Z"/><path class="cls-7" d="M77.8,119.7h0c-.5,2.5-1.4,5.7-2.2,8.2-2.7-2.2-4.9-4.9-6.6-7.9h0c.6.1,1.2.2,1.9.3,2.5.3,5,0,6.9-.6Z"/><path class="cls-8" d="M46.6,178.5h0c2.1-1.9,13.2.4,14.3,2.8,1.3,2.5-3.6,11.5-5.7,12.4-.4.2-.9.2-1.4,0-3.2-.6-8.4-5-9.6-6.7-2.5-1.8-4.7-3.7-6.7-5.7-7.3-7.3-11.8-15.8-17.2-24.7-1.8-3-1.4-6.8.7-12.1h0c3.1,1.5,8.1,3.5,12.9,5.1-.8,1.3.2,1.1-1.1,2.9,3.2,4.1,5.3,8.9,7.2,13.5,2,4.7,3.8,9.2,6.6,12.6Z"/><path class="cls-4" d="M12.7,289.2h.6c.3,2.6,9.3,2.7,10.4,1.6,0,0,.1-.1.2-.2,1.1-1,2.2-2.1,3.6-2.6,1.5-.5,2.6-.4,3.5.6h-.3c6.9,11.8,4.4,11.7,15.1,17,1.5.7,3.2.2,3.6,1.7,1.9,7.3-2.1,11.4-9.2,10-11.2-2.2-17.3-5-34.2-14.9-1.1-.7-2.4-1.3-2.7-2.4-.2-.8.2-1.7.5-2.4,1.7-3.4,5.3-6.4,7.9-9.3l1.1.2c0,.3-.1.6-.2.8Z"/><path class="cls-5" d="M53.5,214.3c.3,4,0,8-.7,11.9h-.2c-7.6,1.5-14.5,1-21-2.9h-.3c.4-5,.6-10,.9-14.9h.2c5.8,3.2,14.4,5.8,21.1,5.9Z"/><path class="cls-5" d="M52.6,226.2h.2c-1.3,7.4-4.2,14.5-8.5,20.7-6.4-.7-11.5-2.1-16.4-6.1h-.1c2.2-5.6,3-11.5,3.5-17.5h.3c6.5,4,13.4,4.4,21,2.9Z"/><path class="cls-10" d="M53.8,193.8l-.3,1.1c-5.7-1-11.5-2.3-17.8-3.9-.4,0-.7-.2-1.1-.3,1.9-4.9,1.3-3.8,2.3-8.9l.6-.4c2,2,4.2,3.9,6.7,5.7,1.2,1.8,6.4,6.1,9.6,6.7Z"/><path class="cls-7" d="M55.2,113.2l-.7.3c-2.2,1-4.2,2.2-6.1,3.7h-.3c-.4-3.2-1.9-6-4.4-5.7,1.8-.4,5.4-1.8,8-2.1l.6-.2c.6,1.6,1.7,2.9,2.9,4Z"/><path class="cls-7" d="M33.9,149.6c-4.8-1.6-9.8-3.6-12.9-5.1-1.6-.8-2.7-1.5-2.9-2-.4-.9,8.2-17,9-18.3,3.8-6.2,8.5-11.5,16.6-12.7,2.5-.4,4,2.4,4.4,5.7,0,.7.1,1.4.1,2.2,0,3-3.6,11.9-7.3,19.4-2.5,5.1-5,9.5-6.6,10.9-.2,0-.3,0-.5-.2Z"/><path class="cls-8" d="M43,260.9c-5,8-13.2,22.9-19.2,29.6h0c0,.1-.1.2-.2.3-1.1,1.1-10.1.9-10.4-1.5h-.6c0-.4.1-.6.2-.9,2.3-9.8,6.8-27.9,12.7-35.8,6.2,3.7,9.9,6.7,17.4,8.3Z"/><path class="cls-1" d="M107,79c-1.4,4.3-2.1,4.5-2.9,6.9-.6,2-1,12.6-9,21,0,0-4.1,4.3-8.3,4.9-.8.1-3-.2-5.8-1.1-.4-.1-.8-.3-1.2-.4-.7-.3-1.5-.5-2.3-.9-5.2-2.1-11.2-5.7-14.2-10.8"/><path class="cls-1" d="M104.3,74.7c-1.2-1.8-3.6-2.5-5.1-1.5-.5,0-1.3,1-1.1,1.4.2.5.7.8,1.3.9.5.1,1.1,0,1.6.1,1,0,1.9.4,2.7.9.4.3.9.6,1.4.4.4-.2.5-.7.3-1.1s-.7-.9-1-1.2Z"/><path class="cls-1" d="M80.2,68.8c3.9-1.1,7.7-.4,9,1.4.4-.1,1,.7,1,1.1,0,.4-.5.7-.9.8s-.9,0-1.3,0c-1.8-.3-3.6-.6-5.4-1-1.1-.2-2.2-.4-3.3-.6-.4,0-1-.3-.9-.7,0-.2.3-.3.5-.4.9-.4.5-.4,1.4-.6Z"/><path class="cls-1" d="M95.9,93.8c-.2,4.2-9.5,1.7-10.7.2"/><path class="cls-1" d="M98.8,84.2c-.4,1.8-.1,3.4.7,3.5.8.2,1.8-1.2,2.3-2.9s.1-3.4-.7-3.5-1.8,1.2-2.3,2.9Z"/><path class="cls-1" d="M80,80.2c-.4,1.7,0,3.2,1,3.3.9.2,2-1,2.4-2.7.4-1.7,0-3.1-1-3.3-.9-.2-2,1-2.4,2.7Z"/><path class="cls-1" d="M92.2,100.9c-4.7-.5-7.9-2.2-12-4.8-.3-.2-.6-.4-1-.6"/><path class="cls-1" d="M92.2,100.9c-1.5,4.1-11,1.3-12.2-4.6"/><path class="cls-1" d="M57.4,88c.2,1.2.4,3,.5,4.9.2,5.4-.2,12.3-1.1,14.5,0,0,0,0,0,.1,0,0,0,0,0,0"/><path class="cls-1" d="M57.2,107.3c-.1,0-.2,0-.3.1,0,0,0,0,0,0-1.3.4-3.5,1.2-4.6,1.6,0,0,0,.2,0,.2.6,1.6,1.7,2.9,2.9,4,1.3,1.2,2.9,2.2,4.5,3.1,3,1.7,5.7,3,9.2,3.7.6.1,1.2.2,1.9.3,2.5.3,5,0,6.9-.6,1.5-.5,2.7-1.1,3.1-1.7.5-.7.7-2,.6-3.1,0-.8-.2-1.6-.5-2.1-.7-1.2-.9-1.6-1.3-2,0,0-.1-.1-.2-.2"/><path class="cls-1" d="M40.9,138.8c-2.5,5.1-5,9.5-6.6,10.9-.2,0-.3,0-.5-.2-4.8-1.6-9.8-3.6-12.9-5.1-1.6-.8-2.7-1.5-2.9-2-.4-.9,8.2-17,9-18.3,3.8-6.2,8.5-11.5,16.6-12.7,2.5-.4,4,2.4,4.4,5.7,0,.7.1,1.4.1,2.2,0,3-3.6,11.9-7.3,19.4Z"/><path class="cls-1" d="M36.9,181.8c-1,5.1-.4,4-2.3,8.9.4,0,.7.2,1.1.3,6.4,1.6,12.2,2.9,17.8,3.9,10.5,1.8,20.6,2.4,33,1.4.6-13.8,3.3-30.6,4.3-46.5.6-9.4.5-18.6-.9-26.7-.4-2.3-1.5-5-2.8-7.3-.5-.9-1.1-1.7-1.7-2.4"/><path class="cls-1" d="M41.9,138.9c1.1,6.5-.3,16.7-1.6,27"/><path class="cls-1" d="M21,144.5c-2.1,5.3-2.5,9.2-.7,12.1,5.4,8.9,9.8,17.5,17.2,24.7,2,2,4.2,3.9,6.7,5.7"/><path class="cls-1" d="M34,149.5s0,0,0,0c-.8,1.3.2,1.1-1.1,2.9,3.2,4.1,5.3,8.9,7.2,13.5,2,4.7,3.8,9.2,6.6,12.6.1.2.3.3.4.5"/><path class="cls-1" d="M80.3,110.7c.2,0,.4.1.7.2,1.7.5,3.2,1.3,4.6,2.3,10.2,7.2,13.7,25.2,17.6,31.4-.6.3-1.2.7-1.7,1-3.7,2.5-6.8,5.7-9.5,7.3-.3.2-.7.4-1,.5"/><path class="cls-1" d="M46.7,178.5c2.1-1.8,13.2.5,14.3,2.8,1.3,2.5-3.6,11.5-5.7,12.4-.4.2-.9.2-1.4,0-3.2-.6-8.4-5-9.6-6.7"/><path class="cls-1" d="M90.9,149.7c0,.8.4,1.9,1,3.2,3.4,6.9,14.8,19.7,17.2,25.3"/><path class="cls-1" d="M101.7,145.9c4.6,6.3,8.9,17.3,14.2,20.7,0,0,0,0,.1,0,0,0,0,0,.1,0"/><path class="cls-1" d="M115.9,166.6h0c-3.2,2.4-7.1,8.8-6.6,11.6,0,.1,0,.2,0,.3.4,1.4,1.6,2.6,3,3.5,3,1.7,4.7,1,7.6-.8,2.9-1.8,6.6-4.7,5.1-7.5-1.5-2.8-5.5-7.9-9-7.1"/><path class="cls-1" d="M35.7,191c-2.2,5.4-3,11.3-3.5,17.4-.4,4.9-.5,9.9-.9,14.8-.5,6-1.4,11.9-3.5,17.5-1.3,3.4-3.1,6.7-5.6,9.8,1.3.7,2.4,1.3,3.5,2,6.2,3.7,9.9,6.7,17.4,8.3,1.5.3,3.1.6,4.9.8,7.2-9,13-29.1,17.6-43.6,1.7-5.3,3.2-9.9,4.6-12.9"/><path class="cls-1" d="M43.1,260.7c0,0-.1.2-.2.2-5,8-13.2,22.9-19.2,29.6"/><path class="cls-1" d="M25.6,252.6h0c-5.8,7.9-10.4,26-12.7,35.8,0,.3-.1.6-.2.8,0,0,0,.2,0,.2"/><path class="cls-1" d="M65.6,218.1c17.6,14.5,14.7,35.7,15.7,42.8,1.8,0,3.6,0,5.3-.3,6.3-.6,12-2.2,19.3-4,1-.2,2-.5,3.1-.8-.4-4.4.2-10.9-1.8-26.7-1.1-9.2-15.6-28.8-20.7-33"/><path class="cls-1" d="M86.7,261c2.7,10.2,4,28.7,4.3,32.6,0,.1,0,.3,0,.4,0,.3,0,.4,0,.3"/><path class="cls-1" d="M106,256.7h0c-.8,8-1.1,21.5-2.7,31.4"/><path class="cls-1" d="M43.7,111.5c1.8-.4,5.4-1.8,8-2.1"/><path class="cls-1" d="M91.2,294c1.4,2.1,5.2,3,7.5,1.5,1.3-.9,2-2.2,2.5-3.6.5-1.3,1-2.7,2.1-3.8,1.1-1,2.3-1.3,3.7-.5"/><path class="cls-1" d="M89.6,293.6c-1,3.6-1.5,7.3-1.5,10.9,0,.8,0,1.7.7,2.4.8.9,2.4,1.2,3.8,1.3,11.7,1.2,19.2,4.7,31,4.3,3.8-.1,7.9-.5,11-2.5,3.1-1.9,4.5-5.9,2.1-8.3-1.2-1.1-2.9-1.7-4.6-2.3-9.7-3.2-15.2-8.7-24.9-11.8"/><path class="cls-1" d="M13.3,289.3c.3,2.5,9.3,2.6,10.4,1.5,0,0,.1-.1.2-.2,1.1-1,2.2-2.1,3.6-2.6,1.5-.5,2.6-.4,3.5.6,0,0,.1.2.2.3"/><path class="cls-1" d="M11.8,288.2c-2.6,2.9-6.2,6-7.9,9.3-.4.8-.8,1.6-.5,2.4.3,1.1,1.6,1.8,2.7,2.4,16.9,9.9,23,12.7,34.2,14.9,7.1,1.4,11.1-2.7,9.2-10-.4-1.4-2.1-.9-3.6-1.7-10.7-5.3-8.2-5.2-15.1-16.8"/><path class="cls-2" d="M107,79c1.2-3.4,1.4-3.3,2.2-8.1.7-4.4-.4-8-1.2-10.4-2.4-7.4-17.2-19.5-38.5-14.3-12.8,3.1-19.7,19-19.3,28.1.3,7.5,1.8,13.5,7.5,18.6"/><path class="cls-2" d="M60.8,86.7c-.7,1.3-2.4,1.3-3.7.7-2.8-1.4-4.1-4.9-3.7-8.1.2-1.8,1-3.7,2.4-4.6,1.5-.9,3.8-.5,4.5,1.1"/><path class="cls-2" d="M32.4,208.5c5.8,3.1,14.4,5.7,21.1,5.9.3,4,0,8-.7,11.9-1.3,7.4-4.2,14.4-8.5,20.6-6.4-.7-11.5-2.1-16.4-6.1"/><path class="cls-2" d="M31.6,223.3c6.5,4,13.4,4.4,21,2.9"/><path class="cls-1" d="M48.5,117.2c1.9-1.5,3.9-2.7,6.1-3.7"/><path class="cls-1" d="M81.5,114.8c2.1.1,3.6.3,5.6.9,0,0,0,0,0,0"/><path class="cls-1" d="M56.6,107.1v.3c.1,0,.1,0,.2,0,2.5,5.1,9.4,8.8,15.2,8.1,1.8-.2,3.6-.6,4.9-1.7,1.3-1.2,1.1-2.8.6-4.4"/><path class="cls-2" d="M69,120c1.6,3,3.9,5.7,6.6,7.9.8-2.4,1.7-5.7,2.2-8.2"/></svg>