<?xml version="1.0" encoding="UTF-8"?><svg id="latinAmerica" xmlns="http://www.w3.org/2000/svg" width="235" height="321.9" viewBox="0 0 235 321.9"><defs><style>.cls-1{stroke-linecap:round;stroke-linejoin:round;}.cls-1,.cls-2{fill:none;stroke:#000;}.cls-2{stroke-miterlimit:10;}.cls-3,.cls-4,.cls-5,.cls-6,.cls-7,.cls-8,.cls-9,.cls-10{stroke-width:0px;}.cls-4{fill:#534741;}.cls-5{fill:#634e3f;}.cls-6{fill:#948675;}.cls-7{fill:#dc6443;}.cls-8{fill:#8b7461;}.cls-9{fill:#fff;}.cls-10{fill:#e9d8c7;}</style></defs><path class="cls-5" d="M9.9,298.7c-.4,1.4-.3,7.7.7,8.8,1.1,1.3,3.1,1.4,4.8,1.4,5.5.1,10.9.1,16.4,0,2,0,5.8.3,7.2-1.1,1.7-1.7.6-11.6-.6-13.6-.8-1.4-1.6-2.2-2.5-2.7-1.1-.6-2.4-.9-4.3-1.4-2.7-.7-6.4-1.3-10.2-.1-.9.5-2,.9-3,1.3-2.8,1.3-7.7,4.4-8.4,7.3Z"/><path class="cls-8" d="M43.8,173.3c.7-3.1-2.1-4.1-5-4.6h0c-1.6-.3-3.2-.5-4.3-.8-5.1-1.8-6.7-9.2-8.4-12.8-1-2.1-1.6-3.8-2.4-5.4.6-.6,2.2-2.4,3.5-3.6-2-.9-3.6-1.7-5.6-3.6-1.4-1.4-3.4-4.7-4.2-7.5-2.9,2.9-5.1,6.1-6.4,8.4-2.7,4.8,3.5,16.7,7.1,20.9,2.6,3.1,7.7,7,10.1,10.5-1.2,2.7,1.7,6.6,3.5,8.4.9.9,4,2.8,6,3,1.1,0,1.9-.3,1.8-1.7,1,0,3.2-1.2,2-2.7,1.2-.2,2.6-1.5,1.8-3.4,4-.9,2.4-3.2.6-5.1Z"/><path class="cls-7" d="M39.6,134.1c1.7-2.4,3.2-4.5,4-5.8,1-4.2-.5-7.5-2.2-11.5-.2-.4-.3-.7-.5-1-1.7-3.4-3.9-5-8.2-3.5-1.9,1.7-3.5,3.9-5.3,5.6-1.9,1.8-10.6,14-10.6,14,0,.8.1,1.9.5,2.9.9,2.9,2.8,6.1,4.2,7.5,1.9,1.8,3.5,2.7,5.6,3.6.8.3,1.7.7,2.7,1.1,2.2-2.4,6.5-8.3,9.8-13Z"/><path class="cls-5" d="M23,288.6c-.4.6-1.1,1.1-1.8,1.5,3.8-1.2,7.4-.5,10.2.1,1.9.5,3.2.8,4.3,1.4,2-8.9-5-11.1-7.3-11.1-.7,0-1.5.1-2.1.4-1.4.5-2.6,1.4-3.3,2.8-.4.9.6,4,0,4.9Z"/><path class="cls-8" d="M26.2,280.6v.4c.8-.2,1.5-.3,2.3-.4,2.3,0,9.3,2.2,7.3,11.1.9.5,1.7,1.3,2.5,2.7.8-14.4,3.1-17.5,4.4-22.4.5-1.9,2.6-8,3.3-10.6-6.3-1-13.8-2.9-18.2-4.4v.2c-.4,8.7-.3,15.9-1.6,23.4Z"/><path class="cls-6" d="M60.8,209.4c.5,6.2,7.7,50.4,7.8,53.3,2.5.9,4.8,1.5,7,1.8h0c7.9,1.3,13.6-.6,19.2-2.4.2,0,.5-.2.7-.2,0-2.1-.9-10.5-2.2-21.1h-.2c-1.5,1.3-3.1-.2-4.2-1.8-1.1-1.6-1.3-3.7-1.5-5.6-.3-3.3-.5-6.5-.8-9.8-.3-3.8-.6-7.5-.9-11.3,1.1-.2,2.3-.5,3.4-.7h.3c-1.6-12.1-3.1-22.4-3.7-25.4,0,.6-.1,1.1-.2,1.7-2.8,0-18.2,2-22.7,1.8-3.9-.2-21.5-3-23.6-5.3,0,1.4-.7,1.8-1.8,1.7-.5,2.8-2.4,12.5-4.6,23.9,1.2.6,2.6.4,3.9.3,1.4,0,3.1.1,3.9,1.3.6,1,.5,2.2.3,3.3-.4,2.4-.8,4.7-1.2,7.1-.6,3.6-1.3,7.2-2.1,10.8-.2,1.2-.6,2.5-1.7,3.1-.6.3-1.4.3-2.1.3-2,0-4.1-.2-6.1-.6-2.2,11.1-3.8,19.7-3.8,19.7.4.4,1.7.9,3.6,1.6,4.4,1.5,11.9,3.3,18.2,4.4,3.9.6,7.4.9,9.4.6,0,0,3-36.8,5.5-52.5Z"/><path class="cls-6" d="M31.1,220.1c-1,5.3-2.1,10.7-3,15.5,2,.4,4.1.5,6.1.6.7,0,1.4,0,2.1-.3,1.1-.6,1.4-1.9,1.7-3.1.7-3.6,1.4-7.2,2.1-10.8l-.9-.2c-2.8,0-5.5-.6-8-1.7Z"/><path class="cls-6" d="M33,210c-.6,3.3-1.3,6.7-2,10.1,2.5,1.1,5.3,1.7,8,1.7l.9.2c.4-2.4.8-4.7,1.2-7.1.2-1.1.3-2.4-.3-3.3-.8-1.2-2.4-1.4-3.9-1.3-1.3,0-2.8.3-3.9-.3Z"/><path class="cls-7" d="M35.3,110.7c-1,.4-1.8,1-2.6,1.7,4.4-1.6,6.6,0,8.2,3.5,2.5-.6,7.4-1.6,9.8-2.2-1.3-1.4-2.5-3.1-3.4-5-1.5,0-5.1.5-6.4.5s-4.1.9-5.7,1.6Z"/><path class="cls-8" d="M37.7,69.8c-.2,0-.5.1-.7.3-1.3.7-2,2.5-2,4.1,0,1.7.5,3.3,1.2,4.7.6,1.3,1.5,2.6,2.6,3.3.7.4,1.6.6,2.3.4h0c.6,3.5,3.8,9.2,4.7,10.7,2.4,2.8,4.7,5,6.9,6.8,6.5,5.1,12.2,5.8,17.3,4.4,3.5-1,6.8-3,9.8-5.4,5.8-4.6,7.1-10.3,6.8-15.8-.2-5.1,0-7.7,0-8.4,0,0,0-.2,0-.3.3-1.4.6-2.6.8-3.6.4-2.1.7-3.7.8-6.4,0-8.3-.6-14-4.8-19.1-4.8-5.9-12.5-8.2-20-8-8.5.2-18.6,3.7-23.6,10.8-3.4,4.9-4,14.7-2.3,21.4h0ZM51.2,62.3c-.2-.3.1-.6.4-.7,2.2-1.5,6.1-3.4,8.9-2.8,3.8.8,1.3,3.8-1.5,3.8-2.4,0-4.8,0-7.2,0-.2,0-.4,0-.5-.2ZM55.4,72c0-1.9.8-3.4,1.8-3.4s1.8,1.5,1.8,3.4-.8,3.4-1.8,3.4-1.8-1.5-1.8-3.4ZM63.4,93.3c-1.1-.7-4.9-5.5-4-5.3,4.2,1.2,15,1.2,18.7-.5-1.3,2.4-4.1,6.4-7.2,6.8-1.9.3-5.6.1-7.5-1.1ZM77,62.4c-3.1-.1-5.9-3.2-1.5-3.8,3.1-.4,7.4,1.6,9.9,3.2.3.2.6.5.4.7-.1.2-.4.2-.6.2-2.7,0-5.4-.2-8.1-.3ZM79.5,71.7c0-1.6.6-2.9,1.4-2.9s1.4,1.3,1.4,2.9-.6,2.9-1.4,2.9-1.4-1.3-1.4-2.9Z"/><path class="cls-10" d="M38.7,168.6h0c2.9.6,5.7,1.5,5,4.6,1.8,1.8,3.4,4.1-.6,5.1.8,1.9-.6,3.2-1.8,3.4,1.2,1.5-1,2.7-2,2.7,2.1,2.3,19.7,5.1,23.6,5.3,4.4.2,19.9-1.7,22.7-1.8,0-.6.2-1.1.2-1.7,0-.4-.1-.6-.2-.8,0,0,.2,0,.3,0,.7-6.6.6-13.4.3-19.7,0,0,0,0,0,0-.3-7-.9-13.4-.9-18.3s.4-5.2.8-7.8c.9-5.8,2.2-11.7,1.1-17-.8-4-2.1-7.3-4-10.1h0c-2.1,0-6.5-.7-8.8-.9-.3,1.7-1.5,4.5-4.7,6.1,0,3.6-.3,7.2-.9,10.7-2.7-3.7-5.9-7.1-9.6-9.9-3-.7-5.9-2.3-8.3-4.8-2.5.6-7.4,1.6-9.8,2.2.2.3.3.7.5,1,1.7,4,3.2,7.3,2.2,11.5-.9,1.2-2.3,3.3-4,5.8,0,3.3-.6,30.7-.9,34.5Z"/><path class="cls-7" d="M74.3,111.5c0-.2,0-.4,0-.6,0-1-.3-2.3-.8-3.4-.7-1.4-1.9-2.6-3.3-2.4.4,5.5-3.4,11.1-9.8,9.2-3.3-1-8.2-4.3-7.9-7.1,0-1.1.2-2.1.2-3.1h0c-2.3,0-5.1,1.9-5.3,4.3,0,0,0,.1,0,.2.9,2,2.1,3.7,3.4,5,2.4,2.5,5.3,4.1,8.3,4.8,1.3.3,2.6.5,4,.5,2.8,0,4.9-.5,6.5-1.3,3.2-1.6,4.4-4.3,4.7-6.1Z"/><path class="cls-4" d="M51.6,61.6c-.3.2-.5.5-.4.7.1.2.3.2.5.2,2.4,0,4.8,0,7.2,0,2.8,0,5.3-3,1.5-3.8-2.8-.6-6.7,1.3-8.9,2.8Z"/><path class="cls-8" d="M52.5,107.2c-.2,2.7,4.6,6.1,7.9,7.1,6.5,2,10.2-3.6,9.8-9.2l-.2-.6c-5.1,1.4-10.8.6-17.3-4.4h0c0,1.8,0,3,0,4.1,0,1.1-.1,2-.2,3.1Z"/><path class="cls-3" d="M57.1,68.6c-1,0-1.8,1.5-1.8,3.4s.8,3.4,1.8,3.4,1.8-1.5,1.8-3.4-.8-3.4-1.8-3.4Z"/><path class="cls-9" d="M59.3,88c-.9-.2,2.9,4.5,4,5.3,1.9,1.2,5.6,1.3,7.5,1.1,3.1-.4,5.9-4.4,7.2-6.8-3.8,1.7-14.5,1.6-18.7.5Z"/><path class="cls-7" d="M63.1,118.9c-1.3,0-2.6-.2-4-.5,3.6,2.8,6.9,6.1,9.6,9.9.6-3.5.9-7.1.9-10.7-1.6.8-3.7,1.3-6.5,1.3Z"/><path class="cls-7" d="M79.9,108.3c-2.2-.4-5-.9-6.4-.8.6,1.1.9,2.3.8,3.4,0,.2,0,.4,0,.6,2.3.2,6.8.8,8.8.9h0c-.9-1.5-2-2.8-3.3-4.1h0Z"/><path class="cls-4" d="M75.4,58.6c-4.3.6-1.6,3.7,1.5,3.8,2.7,0,5.4.2,8.1.3.2,0,.5,0,.6-.2.2-.2-.1-.6-.4-.7-2.4-1.6-6.7-3.7-9.9-3.2Z"/><path class="cls-3" d="M80.9,68.7c-.8,0-1.4,1.3-1.4,2.9s.6,2.9,1.4,2.9,1.4-1.3,1.4-2.9-.6-2.9-1.4-2.9Z"/><path class="cls-7" d="M92,146.7c6-1.9,7.6-3.2,9.6-8,.1-.3.3-.7.4-1.1-3.7-3.8-8.8-20.2-12.8-23.8-2.5-2.2-3.9-4.2-7.1-5-.6-.1-1.3-.3-2.2-.5h0c1.3,1.4,2.4,2.7,3.3,4.1,1.9,2.9,3.2,6.1,4,10.1,1.1,5.3-.2,11.2-1.1,17,1.1,1.2,3.2,4.3,4.9,7.5.3-.1.7-.2,1-.3Z"/><path class="cls-8" d="M94.8,262.1c-5.5,1.8-11.3,3.6-19.2,2.4,3.4,12.2,9,25,9.5,31.2.9-1.7,1.6-3,3.1-3.7h-1.1c-.6-2.9-.2-6,1.7-8.2,1.3-1.5,4.6-2.5,7.2-2.4-.8-3.6-1.3-16.1-1.3-19.3Z"/><path class="cls-5" d="M85.2,295.7c-1.1,2.1-1.6,11.4.4,12.7,1.5.9,16.4.6,21.4.6s6.6-.1,7-.3c1.5-.7.8-9.4,0-10.8-1.8-3.6-9.2-6.5-13.2-7.5-.4.7-1.3.7-2.1.7-2.4,0-7,0-9.4.5-.4.1-.8.3-1.2.4-1.5.7-2.2,2-3.1,3.7Z"/><path class="cls-10" d="M86,185.4c0,0-.2,0-.3,0,0,.1.1.4.2.8,0-.3,0-.6,0-.8Z"/><path class="cls-6" d="M85.8,212.3c.3,3.8.6,7.5.9,11.3,1.3,0,2.7,0,4-.1h.4c-.5-4.1-1.1-8.1-1.6-11.9h-.3c-1.1.3-2.3.5-3.4.8Z"/><path class="cls-10" d="M86.3,165.6s0,0,0,0c0,0,0,0,0,0Z"/><path class="cls-8" d="M95.1,151.6c-1.5,2.5-2.6,4.9-3.8,7.4-.8,1.7-4.8,6.1-5,6.6,0,0,0,0,0,0,.3,6.3.4,13.1-.3,19.7,1.4-.3,2-.4,2.9-2.9.7-2,1.1-3.8,1.8-5.9,1.5-4.7,5.8-6.5,9.4-10.3,4.8-5.2,11.9-13.5,6.5-19.6-.8-.9-2.9-4.7-4.6-7.9h-.4c-2,4.7-3.6,6-9.6,7.9,1.3,2.5,2.6,4.6,3.1,4.9Z"/><path class="cls-6" d="M86.7,223.6c.3,3.3.5,6.5.8,9.8.2,2,.3,4,1.5,5.6,1.1,1.6,2.7,3.1,4.2,1.8h.2c-.7-5.5-1.4-11.5-2.2-17.4h-.4c-1.3.1-2.7.1-4,.2Z"/><path class="cls-8" d="M86.7,74.8c0,.8-.3,3.3,0,8.4,1.6.9,3.1-2,3.5-4.4.3-1.8,0-3.6-.3-5.3-.1-.6-.3-1.3-.6-1.8-.4-.5-1-.9-1.6-.7h-.2c-.2,1-.5,2.2-.8,3.6,0,0,0,.2,0,.3Z"/><path class="cls-5" d="M96.1,281.4c-2.6-.1-5.9.9-7.2,2.4-1.9,2.2-2.3,5.4-1.7,8.2h1.1c.3-.1.7-.3,1.2-.4,2.4-.6,6.9-.5,9.4-.5.8,0,1.7,0,2.1-.7.2-.4.2-.8.2-1.2-.1-2.3-.2-5.3-2-6.8-.7-.6-1.8-.9-3-1Z"/><path class="cls-2" d="M70.3,105.1c.4,5.5-3.4,11.1-9.8,9.2-3.3-1-8.2-4.3-7.9-7.1,0-1.1.2-2.1.2-3.1,0-1.1,0-2.3,0-4.1"/><path class="cls-2" d="M73.4,107.5s0,0,0,0c1.4-.1,4.2.3,6.4.8.9.2,1.6.3,2.2.5,3.2.8,4.7,2.7,7.1,5,4,3.6,9.1,20.1,12.8,23.8-.2.4-.3.7-.4,1.1-2,4.8-3.6,6.1-9.6,8-.3.1-.7.2-1,.3-.1,0-.3,0-.4.1"/><path class="cls-2" d="M47.6,108.6h-.1c-1.5,0-5.1.5-6.4.5s-4.1.9-5.7,1.6c-1,.4-1.8,1-2.6,1.7-1.9,1.7-3.5,3.9-5.3,5.6-1.9,1.8-10.6,14-10.6,14,0,.8.1,1.9.5,2.9.9,2.9,2.8,6.1,4.2,7.5,1.9,1.8,3.5,2.7,5.6,3.6.8.3,1.7.7,2.7,1.1,2.2-2.4,6.5-8.3,9.8-13,1.7-2.4,3.2-4.5,4-5.8"/><path class="cls-2" d="M87.2,122.5c1.1,5.3-.2,11.2-1.1,17-.4,2.7-.8,5.3-.8,7.8,0,4.9.6,11.3.9,18.3,0,0,0,0,0,0,.3,6.3.4,13.1-.3,19.7,0,.3,0,.6,0,.8,0,.6-.1,1.1-.2,1.7-2.8,0-18.2,2-22.7,1.8-3.9-.2-21.5-3-23.6-5.3"/><path class="cls-2" d="M39.6,133.8c0,0,0,.1,0,.3,0,3.3-.6,30.7-.9,34.5"/><path class="cls-2" d="M102,138.7c1.7,3.3,3.7,7,4.6,7.9,5.4,6.1-1.7,14.4-6.5,19.6-3.6,3.8-7.9,5.6-9.4,10.3-.7,2.1-1.1,3.9-1.8,5.9-.9,2.5-1.5,2.6-2.9,2.9,0,0-.2,0-.3,0"/><path class="cls-2" d="M92,146.7s0,0,0,0c1.3,2.5,2.6,4.6,3.1,4.9"/><path class="cls-2" d="M86.1,139.5c1.1,1.2,3.2,4.3,4.9,7.5,0,0,0,0,0,.1"/><path class="cls-2" d="M98.4,147.1c-1.4,1.5-2.4,3-3.3,4.5-1.5,2.5-2.6,4.9-3.8,7.4-.8,1.7-4.8,6.1-5,6.6,0,0,0,0,0,0"/><path class="cls-2" d="M27.8,145.4c-.2.2-.5.4-.7.6-1.3,1.3-2.9,3-3.5,3.6h0"/><path class="cls-2" d="M17.3,134.9c-2.9,2.9-5.1,6.1-6.4,8.4-2.7,4.8,3.5,16.7,7.1,20.9,2.6,3.1,7.7,7,10.1,10.5"/><path class="cls-2" d="M34.4,167.8c-5.1-1.8-6.7-9.2-8.4-12.8-1-2.1-1.6-3.8-2.4-5.4-1-1.9-2.1-3.5-4.6-4.8"/><path class="cls-2" d="M41.8,171.2c.4.5,1.2,1.2,2,2,1.8,1.8,3.4,4.1-.6,5.1.8,1.9-.6,3.2-1.8,3.4,1.2,1.5-1,2.7-2,2.7,0,1.4-.7,1.8-1.8,1.7-2-.2-5.1-2.2-6-3-1.9-1.8-4.7-5.8-3.5-8.4"/><path class="cls-2" d="M34.4,167.8c1.1.4,2.7.5,4.3.8h0c2.9.6,5.7,1.5,5,4.6,0,0,0,0,0,0"/><path class="cls-2" d="M75.6,264.5c-2.2-.3-4.5-.9-7-1.8,0-2.9-7.3-47.1-7.8-53.3,0-.2,0-.4,0-.5"/><path class="cls-2" d="M85.7,185.4c0,.1.1.4.2.8.6,3,2.1,13.3,3.7,25.3h0c.5,3.8,1,7.8,1.6,11.9h0c.8,6,1.5,12,2.2,17.4,1.3,10.6,2.2,19,2.2,21.1-.2,0-.5.2-.7.2-5.5,1.8-11.3,3.6-19.2,2.4"/><path class="cls-2" d="M62.3,202.7c-.4.9-.9,3.3-1.5,6.6-2.5,15.7-5.5,52.5-5.5,52.5-2,.3-5.4,0-9.4-.6-6.3-1-13.8-2.9-18.2-4.4-1.9-.6-3.2-1.2-3.6-1.6,0,0,1.7-8.6,3.8-19.7.9-4.9,2-10.2,3-15.5.7-3.4,1.3-6.8,2-10.1,2.2-11.4,4.1-21.1,4.6-23.9h0v-.2"/><path class="cls-2" d="M65.8,197c-2,1.7-2.5,4.7-3.5,5.8"/><path class="cls-1" d="M88.3,64.6c-.1,2.6-.4,4.3-.8,6.4-.2,1-.5,2.2-.8,3.6,0,0,0,.2,0,.3,0,.8-.3,3.3,0,8.4.3,5.6-1,11.2-6.8,15.8-3,2.4-6.3,4.4-9.8,5.4-5.1,1.4-10.8.6-17.3-4.4-2.2-1.7-4.5-3.9-6.9-6.8"/><path class="cls-1" d="M79.5,71.7c0,1.6.6,2.9,1.4,2.9s1.4-1.3,1.4-2.9-.6-2.9-1.4-2.9-1.4,1.3-1.4,2.9Z"/><path class="cls-1" d="M55.4,72c0,1.9.8,3.4,1.8,3.4s1.8-1.5,1.8-3.4-.8-3.4-1.8-3.4-1.8,1.5-1.8,3.4Z"/><path class="cls-1" d="M76.4,80c-.5,3.1-7.2,3.1-11.7,1.9"/><path class="cls-1" d="M78.1,87.5c-3.8,1.7-14.5,1.6-18.7.5-.9-.2,2.9,4.5,4,5.3,1.9,1.2,5.6,1.3,7.5,1.1,3.1-.4,5.9-4.4,7.2-6.8Z"/><path class="cls-2" d="M41.2,82.7c.6,3.4,3.8,9.1,4.7,10.6"/><path class="cls-2" d="M88.3,64.6c0-8.3-.6-14-4.8-19.1-4.8-5.9-12.5-8.2-20-8-8.5.2-18.6,3.7-23.6,10.8-3.4,4.9-4,14.7-2.3,21.4"/><path class="cls-2" d="M40.6,71.4c-.4-1.3-1.7-1.9-2.9-1.6-.2,0-.5.1-.7.3-1.3.7-2,2.5-2,4.1,0,1.7.5,3.3,1.2,4.7.6,1.3,1.5,2.6,2.6,3.3.7.4,1.6.6,2.3.4.5-.1.9-.4,1.3-.7"/><path class="cls-2" d="M87.7,71c.6-.2,1.2.2,1.6.7.3.5.5,1.2.6,1.8.3,1.8.6,3.6.3,5.3-.4,2.4-1.9,5.3-3.5,4.4"/><path class="cls-2" d="M32.7,112.4c4.4-1.6,6.6,0,8.2,3.5.2.3.3.7.5,1,1.7,4,3.2,7.3,2.2,11.5"/><path class="cls-2" d="M87.2,122.5c-.8-4-2.1-7.3-4-10.1-.9-1.4-2-2.7-3.3-4"/><path class="cls-2" d="M52.7,104.1c-2.3,0-5.1,1.9-5.3,4.3,0,0,0,.1,0,.2.9,2,2.1,3.7,3.4,5,2.4,2.5,5.3,4.1,8.3,4.8,1.3.3,2.6.5,4,.5,2.8,0,4.9-.5,6.5-1.3,3.2-1.6,4.4-4.3,4.7-6.1,0-.2,0-.4,0-.6,0-1-.3-2.3-.8-3.4-.7-1.4-1.9-2.6-3.3-2.4"/><path class="cls-2" d="M58.8,118.2c.1,0,.2.2.3.3,3.6,2.8,6.9,6.1,9.6,9.9.6-3.5.9-7.1.9-10.7h0"/><path class="cls-2" d="M40.7,115.9c.1,0,.2,0,.3,0,2.5-.6,7.4-1.6,9.8-2.2.1,0,.2,0,.3,0"/><path class="cls-2" d="M73.9,111.5c.1,0,.3,0,.4,0,2.3.2,6.8.8,8.8.9"/><path class="cls-1" d="M75.6,264.5c3.4,12.2,9,25,9.5,31.2"/><line class="cls-2" x1="75.6" y1="264.5" x2="75.6" y2="264.5"/><path class="cls-1" d="M46,261.3c-.8,2.6-2.8,8.7-3.3,10.6-1.3,4.9-3.6,8-4.4,22.4"/><path class="cls-1" d="M27.7,257.2c-.3,8.7-.3,15.9-1.6,23.4"/><path class="cls-1" d="M94.8,262.1c0,3.2.4,15.7,1.3,19.3,0,.1,0,.2,0,.3"/><path class="cls-1" d="M28.4,280.6c-.7,0-1.5.1-2.1.4-1.4.5-2.6,1.4-3.3,2.8-.4.9.6,4,0,4.9-.4.6-1.1,1.1-1.8,1.5-.9.5-2,.9-3,1.3-2.8,1.3-7.7,4.4-8.4,7.3-.4,1.4-.3,7.7.7,8.8,1.1,1.3,3.1,1.4,4.8,1.4,5.5.1,10.9.1,16.4,0,2,0,5.8.3,7.2-1.1,1.7-1.7.6-11.6-.6-13.6-.8-1.4-1.6-2.2-2.5-2.7-1.1-.6-2.4-.9-4.3-1.4-2.7-.7-6.4-1.3-10.2-.1-1,.3-2,.7-3,1.3"/><path class="cls-1" d="M35.7,291.6c2-8.9-5-11.1-7.3-11.1"/><path class="cls-1" d="M87.2,291.9c-.6-2.8-.2-6,1.7-8.2,1.3-1.5,4.6-2.5,7.2-2.4,1.2,0,2.3.3,3,1,1.8,1.5,1.8,4.5,2,6.8,0,.4,0,.8-.2,1.2-.4.7-1.3.7-2.1.7-2.4,0-7,0-9.4.5-.4.1-.8.3-1.2.4-1.5.7-2.2,2-3.1,3.7-1.1,2.1-1.6,11.4.4,12.7,1.5.9,16.4.6,21.4.6s6.6-.1,7-.3c1.5-.7.8-9.4,0-10.8-1.8-3.6-9.2-6.5-13.2-7.5"/><path class="cls-2" d="M58.9,62.5c-2.4,0-4.8,0-7.2,0-.2,0-.4,0-.5-.2-.2-.3.1-.6.4-.7,2.2-1.5,6.1-3.4,8.9-2.8,3.8.8,1.3,3.8-1.5,3.8Z"/><path class="cls-2" d="M77,62.4c2.7,0,5.4.2,8.1.3.2,0,.5,0,.6-.2.2-.2-.1-.6-.4-.7-2.4-1.6-6.7-3.7-9.9-3.2-4.3.6-1.6,3.7,1.5,3.8Z"/><path class="cls-2" d="M32.8,209.9c0,0,.2,0,.3.1,1.2.6,2.6.4,3.9.3,1.4,0,3.1.1,3.9,1.3.6,1,.5,2.2.3,3.3-.4,2.4-.8,4.7-1.2,7.1-.6,3.6-1.3,7.2-2.1,10.8-.2,1.2-.6,2.5-1.7,3.1-.6.3-1.4.3-2.1.3-2,0-4.1-.2-6.1-.6-.2,0-.4,0-.6-.1"/><path class="cls-2" d="M89.2,211.6c-1.1.2-2.3.5-3.4.7.3,3.8.6,7.5.9,11.3.3,3.3.5,6.5.8,9.8.2,2,.3,4,1.5,5.6,1.1,1.6,2.7,3.1,4.2,1.8"/><path class="cls-2" d="M30.6,219.9c.2,0,.3.2.5.2,2.5,1.1,5.3,1.7,8,1.7"/><path class="cls-2" d="M86,223.6c.2,0,.5,0,.7,0,1.3,0,2.7,0,4-.1"/></svg>