<?xml version="1.0" encoding="UTF-8"?><svg id="latinAmerica" xmlns="http://www.w3.org/2000/svg" width="235" height="321.9" viewBox="0 0 235 321.9"><defs><style>.cls-1{stroke:#231f20;}.cls-1,.cls-2{stroke-linecap:round;stroke-linejoin:round;}.cls-1,.cls-2,.cls-3{fill:none;}.cls-2,.cls-3{stroke:#000;}.cls-3{stroke-miterlimit:10;}.cls-4,.cls-5,.cls-6,.cls-7,.cls-8,.cls-9,.cls-10,.cls-11{stroke-width:0px;}.cls-5{fill:#4b505f;}.cls-6{fill:#313131;}.cls-7{fill:#363d4c;}.cls-8{fill:#42495a;}.cls-9{fill:#acb4c3;}.cls-10{fill:#876554;}.cls-11{fill:#fff;}</style></defs><path class="cls-10" d="M22.6,126.9c.9-1.1,1.2-2.6,3.5-5.6-4.1-3.7-9.1-6.2-14.4-7.3-1.7,2.9-1.9,3.9-3.6,7.3-2.9,5.9,4.1,16.8,7.9,21.9,3,4.6,8.7,10.6,11.4,14.5-1.3,3.3,1.8,8.1,3.8,10.3,1.3,1.4,7,5.4,8.2,2.9,0-.4.1-.9.2-1.3h0c1.1,0,3.4-1.4,2.1-3.3,1.3-.2,2.8-1.8,1.9-4.1,4.3-1.2,2.6-3.9.6-6.2.7-3.7-2.1-4.9-5.2-5.6h0c-1.8-.4-3.6-.6-4.9-1.1-2.9-6.6-5.8-11.3-7.9-15.6-1.7-3.4-2.4-5.1-3.8-6.7Z"/><path class="cls-8" d="M9.8,113.6c.6,0,1.3.2,1.9.3,5.3,1.1,10.3,3.6,14.4,7.3.6.6,1.2,1.2,1.8,1.8,2.9-3.9,6.7-9.9,9.5-14.9.9-1.6,1.7-3.2,2.3-4.6.7-4.2.8-5.5,0-10-.6-3.7,4.6-7.3,4.7-10-4-1.5-7.3-2.8-7.4-4.2-3.2.7-4.1.9-7,3.9-2,2.2-20.2,30.4-20.2,30.4Z"/><path class="cls-7" d="M28.5,299.7c-.3,1.3-.3,7,.6,8,1,1.1,2.8,1.3,4.4,1.3,5,0,10,.1,15.1,0,1.8,0,5.3.3,6.6-1,1.5-1.5.6-10.5-.6-12.4-.8-1.2-1.5-2-2.3-2.5-1-.6-2.2-.9-3.9-1.3-2.5-.6-5.9-1.2-9.4-.1-.9.5-1.8.8-2.7,1.2-2.6,1.2-7,4-7.7,6.7Z"/><path class="cls-5" d="M66.5,191h.6c0,3.6,1.2,26.4,2.5,49.6.9.2,1.8.3,2.7.5,6.4,1,11.2,1,17.1-.7,1.6-.4,3.2-1,5-1.7-.5-19.4-1.2-37.7-1.7-43.7-.6-6.9-1.2-15.9-1.9-24.3-14.8,5.6-36.6,4.7-51.2-1.2h0c0,.6,0,1-.2,1.3-3.1,20.5-3.8,44.6-4.9,67,1.2.5,2.4,1,3.5,1.4,6.1,2.3,11.6,3.3,18.1,3.1,1.2,0,2.5-.1,3.8-.3,2.4-20.2,5-40.5,6.6-51Z"/><path class="cls-8" d="M55.9,80.8h.1c.3-.8.3-5.3.3-8-2.4-.1-5,.1-10,.6-3,.2-9.6,2.9-9.4,6,.1,1.5,3.4,2.8,7.4,4.2,4,1.5,8.6,3,11.6,5,8.7,5.9,12.9,8.3,14.2,9.4,5.1-6.7,6.1-8.9,11.1-11.6,1.1-.6,2.9-1,4.6-1.5,2-.6,3.8-1.5,3.9-3.1,0-5.6-12.5-6.8-12.8-6.8h0c-.5.5-1,.9-1.4,1.2,0,1.8,0,4.2,0,6.3-1.3,4-5.5,7-10.7,6-4.5-.9-8.6-4.6-8.8-7.7Z"/><path class="cls-9" d="M89.6,146.1c-.5-9.8.4-16,.5-21.5.1-3.6.3-6.5.5-9.2.6-6.3,1.2-10.5.9-15.9.8-4.2-3.8-11.9-5.7-14.6-1.6.5-3.5.9-4.6,1.5-5.1,2.6-6.1,4.9-11.1,11.6-1.3-1.1-5.5-3.4-14.2-9.4-2.9-2-7.6-3.6-11.6-5-.2,2.6-5.4,6.3-4.7,10,.8,4.4.7,5.8,0,10-.6,1.4-1.4,2.9-2.3,4.6h.1c.9,2.3,2,37.3,1.7,42.2h0c3.1.7,5.9,1.9,5.2,5.6,1.9,2.2,3.7,5-.6,6.2.8,2.3-.7,3.9-1.9,4.1,1.3,1.8-1.1,3.2-2.1,3.3,14.6,5.9,36.4,6.8,51.2,1.2.1,0,.2,0,.3-.1,0-2.5-.5-12.8-.8-15.7-.4-3.2-.6-6.1-.7-8.7Z"/><path class="cls-10" d="M38,239.2c-.8,19.1.9,30.7,2.6,46.8.6-1.2,1.7-2.1,3-2.5.6-.2,1.3-.3,2-.3,1.9,0,7,1.5,7,7.4h.2c0-9-.1-14.4,1.9-21.9,1.3-4.9,2.7-9.9,2.7-15,0-4.3-.5-7.2-1.4-11.4-6.5.2-12-.8-18.1-3.1Z"/><path class="cls-10" d="M39.6,169.5c0,.4-.1.9-.2,1.3.2-.3.2-.8.2-1.3Z"/><path class="cls-7" d="M40.6,290.5c-.4.6-1,1-1.7,1.3,3.5-1.1,6.9-.5,9.4.1,1.7.4,2.9.7,3.9,1.3.2-1,.3-1.9.3-2.7,0-5.9-5.2-7.4-7-7.4-.7,0-1.3.1-2,.3-1.3.4-2.4,1.3-3,2.5-.4.8.5,3.7,0,4.4Z"/><path class="cls-10" d="M88,45h0c0-.6,0-1.2.1-2.8-.8-5.5-1.2-5.9-2.6-9.7-1.6-4.2-10.5-4.1-15.2-4.4-6-.4-13.1-.4-15.6,4.1-1.7,3.1-5,12.2-5.6,13.3s-2.6,1-2.6-.4h0c-.5-1.4-2.1-1.9-3.1-1.2-1.1.7-1.8,2.5-1.8,4.2,0,1.7.5,3.4,1.1,4.8.6,1.5,2.1,5,3.2,5.8,1.1.8,2.5.8,3.4-.4-.1,6,4.2,10.8,7.5,13.7,1,.9,1.9,1.5,2.6,2,7.5,5.4,12,5.2,16,2.2.5-.4,1-.8,1.4-1.2h0c1.6-1.5,3.1-3.4,4.8-5.4,2.3-2.6,4-5.5,5.1-9.9.7-2.9,1.1-6.4,1.2-10.9,0-2.3,0-3,0-3.7ZM55.6,43.7c-1-.7-1.4-3.7,1.4-3.9,2.4-.1,5.1,0,7.2.3.6,0,1.2.1,1.8.4.5.2.9.7.9,1.1,0,.5-.6,2.2-1.2,2-3-1.1-9.6-.9-10.2,0ZM58.4,49c0-1.6.7-3,1.5-3s1.5,1.3,1.5,3-.7,3-1.5,3-1.5-1.3-1.5-3ZM71.8,69.2c-5.2,0-7.4-1.9-9.3-4.9.9,1,9.9,3.1,14.4,1.1-1.2,2.2-2.4,3.8-5.1,3.8ZM75.3,43.7c-.5.2-1.2-1.5-1.1-2.1,0-.6.5-1,1-1.2s1.1-.2,1.7-.3c.9,0,5.2.3,7.4,1.2,1.5.6.2,3.2.2,3.2-2.5-.7-7.9-1.4-9.2-.8ZM79,49c0-1.4.6-2.6,1.2-2.6s1.2,1.2,1.2,2.6-.6,2.6-1.2,2.6-1.2-1.2-1.2-2.6Z"/><path class="cls-6" d="M88.1,42.2c0,1.6,0,2.2-.1,2.8.5-.2,1.9.3,2.2.8,1-2.1,1-1.8,1.4-4.7.2-1.5-1.7-4.5,0-9.5.8-2.3.9-5.6,0-7.1-1.6-2.8-4.3-3.2-5.6-4.1-2.6-1.7-2-3.9-4.6-5.5-2.3-1.5-5.7.1-8.4,0-3.1,0-4.2-2.8-7.3-2.3-5.9.9-5.9,5.3-10.9,3.6-1.6-.5-6.1-1-7.1,3.8-.4,1.8-3.3,4.9-4,5.3-1.2.6-3.6,4.7-.7,8.7,2.9,4.1-2.1,5,.5,9.8,1.1-.7,2.6-.2,3.1,1.2h0c0,1.4,2,1.5,2.6.4s3.9-10.2,5.6-13.3c2.4-4.4,9.5-4.5,15.6-4.1,4.7.3,13.6.3,15.2,4.4,1.4,3.8,1.8,4.2,2.6,9.7Z"/><path class="cls-6" d="M57,39.8c-2.8.2-2.4,3.1-1.4,3.9.6-.9,7.1-1.1,10.2,0,.6.2,1.1-1.5,1.2-2,0-.5-.4-.9-.9-1.1-.5-.2-1.2-.3-1.8-.4-2.1-.2-4.8-.5-7.2-.3Z"/><path class="cls-10" d="M56,80.8h-.1c.2,3.1,4.4,6.8,8.8,7.7,5.2,1,9.4-2,10.7-6,0-2.1,0-4.5,0-6.3-4,3-8.5,3.2-16-2.2-.7-.5-1.6-1.1-2.6-2h-.6v.8c0,2.7,0,7.1-.3,8Z"/><path class="cls-4" d="M59.9,46.1c-.8,0-1.5,1.3-1.5,3s.7,3,1.5,3,1.5-1.3,1.5-3-.7-3-1.5-3Z"/><path class="cls-11" d="M62.5,64.3c1.9,2.9,4.1,4.9,9.3,4.9,2.7,0,3.9-1.6,5.1-3.8-4.5,2-13.4-.1-14.4-1.1Z"/><path class="cls-10" d="M72.2,241.1c-5.4,19.4,3.1,31.6,1.8,48.1.2-1.4.7-2.7,1.7-3.7,1.2-1.4,4.2-2.3,6.6-2.2,1.1,0,2.2.3,2.8.9.5.4.8.9,1,1.5,1.1-18.9,3.7-26.6,3.1-45.2-5.8,1.6-10.6,1.7-17.1.7Z"/><path class="cls-7" d="M72.4,296.3c-1,1.9-1.5,10.4.4,11.5,1.3.8,18,1.3,22.6,1.1.4,0,3.1-.6,3.5-.8,1.4-.6.7-8.5,0-9.9-1.7-3.3-8.5-5.9-12.1-6.8-.3.6-1.2.7-1.9.6-2.3,0-6.5,0-8.6.5-.5.1-1,.3-1.4.5-1.2.7-1.8,1.7-2.5,3.2Z"/><path class="cls-7" d="M74,290.4c0,.9,0,1.7.2,2.6l.7.2c.4-.2.8-.4,1.4-.5,2.2-.5,6.4-.5,8.6-.5.7,0,1.6,0,1.9-.6.2-.3.2-.7.1-1.1,0-1.5-.1-3.3-.8-4.7,0,0,0,0,0,0-.2-.6-.6-1.1-1-1.5-.7-.6-1.7-.8-2.8-.9-2.4-.1-5.4.8-6.6,2.2-.9,1-1.5,2.3-1.7,3.7,0,.4,0,.8-.1,1.1h0Z"/><path class="cls-7" d="M74,290.4c0-.4,0-.8.1-1.1,0,.4,0,.8-.1,1.1Z"/><path class="cls-6" d="M74.1,41.6c0,.6.6,2.3,1.1,2.1,1.3-.6,6.7.1,9.2.8,0,0,1.2-2.6-.2-3.2-2.2-.9-6.5-1.3-7.4-1.2-.6,0-1.1,0-1.7.3s-1,.7-1,1.2Z"/><path class="cls-4" d="M80.2,46.4c-.7,0-1.2,1.2-1.2,2.6s.6,2.6,1.2,2.6,1.2-1.2,1.2-2.6-.6-2.6-1.2-2.6Z"/><path class="cls-8" d="M89.7,81.8c0,1.7-1.8,2.5-3.9,3.1,1.9,2.7,6.5,10.5,5.7,14.6.4,5.4-.3,9.6-.9,15.9,1.3,1.7,3.7,6.7,5.6,10.5,5.2-2.3,9.5-3.1,14.5-5.1.5-.2.9-.4,1.4-.6-1.5-4.2-6.5-19.7-10.4-26.1-2.1-3.4-5.9-11.4-12-12.3Z"/><path class="cls-10" d="M88,48.7c0,4.5-.5,8-1.2,10.9,2.7-.3,4.4-10.2,4-12-.1-.6-.2-1.3-.5-1.8-.3-.5-1.7-.9-2.2-.8h0c0,.7,0,1.4,0,3.7Z"/><path class="cls-10" d="M98.6,130.7c-1,1.9-2.1,4-3.6,6.5-2.1,3.3-4.8,7.6-5.4,8.9.1,2.6.3,5.5.7,8.7.3,2.9.8,13.2.8,15.7,1.7-.5,1-.2,2-3.4.8-2.5,1.2-4.7,1.9-7.2.4-1.3.2-2.5.7-3.5,5.6-6.8,11.1-12.2,15.1-20.1,1.2-3.1,2.2-6.8,1.2-11.1-.4-1.6-.6-2.5-1.2-4.3h0c-5.1,2-9.3,2.7-14.5,5,1.1,2.3,2.1,4.2,2.4,4.7Z"/><path class="cls-2" d="M56.3,72.1v.7c0,2.7,0,7.1-.3,8"/><path class="cls-2" d="M89.7,81.8c6.2.9,9.9,8.9,12,12.3,3.9,6.3,8.9,21.8,10.4,26.1"/><path class="cls-2" d="M27.8,123.1c2.9-3.9,6.7-9.9,9.5-14.9.9-1.6,1.7-3.2,2.3-4.6"/><path class="cls-2" d="M22.6,126.9c.9-1.1,1.2-2.6,3.5-5.6"/><path class="cls-2" d="M36.9,79.4c-3.2.7-4.1.9-7,3.9-2,2.2-20.2,30.4-20.2,30.4"/><path class="cls-2" d="M91.5,99.6c.4,5.4-.3,9.6-.9,15.9-.2,2.6-.4,5.6-.5,9.2-.2,5.5-1,11.8-.5,21.5.1,2.6.3,5.5.7,8.7.3,2.9.8,13.2.8,15.7"/><path class="cls-2" d="M37.4,108.2c.9,2.3,2,37.2,1.7,42.1"/><path class="cls-2" d="M95.7,156.4c-.5,1.1-.4,2.2-.7,3.5-.7,2.5-1.1,4.7-1.9,7.2-1,3.3-.3,3-2,3.4"/><path class="cls-2" d="M110.8,120.9c.6,1.8.8,2.7,1.2,4.3,1,4.3,0,8-1.2,11.1"/><path class="cls-2" d="M96.2,125.9c1.1,2.3,2.1,4.2,2.4,4.7,0,0,0,0,0,0"/><path class="cls-2" d="M90.7,115.5c1.3,1.7,3.7,6.7,5.6,10.5"/><path class="cls-2" d="M102,125.9c-1.3,1.4-2.3,2.9-3.3,4.7-1,1.9-2.1,4-3.6,6.5-2.1,3.3-4.8,7.6-5.4,8.9-.1.3-.2.4-.1.4"/><path class="cls-2" d="M11.6,114c-1.7,2.9-1.9,3.9-3.6,7.3-2.9,5.9,4.1,16.8,7.9,21.9"/><path class="cls-2" d="M34.2,149.2c-2.9-6.6-5.8-11.3-7.9-15.6-1.7-3.4-2.4-5.1-3.8-6.7-.8-1-1.9-1.9-3.6-3.2"/><path class="cls-2" d="M39.6,169.5c0,.6,0,1-.2,1.3-1.2,2.5-6.9-1.5-8.2-2.9-2-2.2-5.1-7-3.8-10.3"/><path class="cls-2" d="M42.1,153.4c.4.6,1.3,1.5,2.2,2.5,1.9,2.2,3.7,5-.6,6.2.8,2.3-.7,3.9-1.9,4.1,1.3,1.8-1.1,3.2-2.1,3.3"/><path class="cls-2" d="M34.2,149.2c1.3.5,3.1.7,4.9,1.1h0c3.1.7,5.9,1.9,5.2,5.6,0,0,0,0,0,0"/><path class="cls-2" d="M75.4,82.5c-1.3,4-5.5,7-10.7,6-4.5-.9-8.6-4.6-8.8-7.7,0-.2,0-.4,0-.5"/><path class="cls-3" d="M27.4,157.6c-2.8-3.9-8.4-9.9-11.4-14.5"/><path class="cls-3" d="M95.7,156.4c5.6-6.8,11.1-12.2,15.1-20.1"/><path class="cls-2" d="M39.6,169.5h0c14.6,5.9,36.4,6.8,51.2,1.2.1,0,.2,0,.3-.1"/><path class="cls-2" d="M56.3,72.9c-2.4-.1-5,.1-10,.6-3,.2-9.6,2.9-9.4,6,.1,1.5,3.4,2.8,7.4,4.2,4,1.5,8.6,3,11.6,5,8.7,5.9,12.9,8.3,14.2,9.4"/><path class="cls-2" d="M76.9,75c.3,0,12.9,1.3,12.8,6.8,0,1.7-1.8,2.5-3.9,3.1-1.6.5-3.5.9-4.6,1.5-5.1,2.6-6.1,4.9-11.1,11.6"/><path class="cls-2" d="M75.4,82.5c0-2.1,0-4.5,0-6.3h0"/><path class="cls-2" d="M76.9,65.4c-4.5,2-13.4-.1-14.4-1.1,1.9,2.9,4.1,4.9,9.3,4.9,2.7,0,3.9-1.6,5.1-3.8Z"/><path class="cls-3" d="M9.8,113.6c.6,0,1.3.2,1.9.3,5.3,1.1,10.3,3.6,14.4,7.3.6.6,1.2,1.2,1.8,1.8"/><path class="cls-3" d="M96.2,125.9c5.2-2.3,9.5-3.1,14.5-5.1.5-.2.9-.4,1.4-.6"/><path class="cls-3" d="M44.3,83.7c-.2,2.6-5.4,6.3-4.7,10,.8,4.4.7,5.8,0,10"/><path class="cls-3" d="M91.5,99.6c.8-4.2-3.8-11.9-5.7-14.6-.1-.2-.2-.3-.3-.5"/><path class="cls-2" d="M81.7,69.5c-1.7,2.1-3.2,4-4.8,5.4h0c-.5.5-1,.9-1.4,1.2-4,3-8.5,3.2-16-2.2-.7-.5-1.6-1.1-2.6-2-3.3-2.8-7.6-7.7-7.5-13.7"/><path class="cls-2" d="M84.5,44.5c-2.5-.7-7.9-1.4-9.2-.8-.5.2-1.2-1.5-1.1-2.1,0-.6.5-1,1-1.2s1.1-.2,1.7-.3c.9,0,5.2.3,7.4,1.2,1.5.6.2,3.2.2,3.2Z"/><path class="cls-2" d="M55.6,43.7c-1-.7-1.4-3.7,1.4-3.9,2.4-.1,5.1,0,7.2.3.6,0,1.2.1,1.8.4.5.2.9.7.9,1.1,0,.5-.6,2.2-1.2,2-3-1.1-9.6-.9-10.2,0Z"/><path class="cls-2" d="M79,49c0,1.4.6,2.6,1.2,2.6s1.2-1.2,1.2-2.6-.6-2.6-1.2-2.6-1.2,1.2-1.2,2.6Z"/><path class="cls-2" d="M58.4,49c0,1.7.7,3,1.5,3s1.5-1.3,1.5-3-.7-3-1.5-3-1.5,1.3-1.5,3Z"/><path class="cls-2" d="M76.5,59.6c-3.8,2.2-8.2,2.5-12.1.4"/><path class="cls-2" d="M42.7,52.9c.6,1.5,2.1,5,3.2,5.8,1.1.8,2.5.8,3.4-.4"/><path class="cls-1" d="M69.5,240.7c-1.3-23.3-2.5-46-2.5-49.5"/><path class="cls-1" d="M90.7,169.5c0,.4,0,.8,0,1.2.7,8.4,1.3,17.4,1.9,24.3.5,6,1.1,24.3,1.7,43.7"/><path class="cls-1" d="M34.4,237.8c1.1-22.4,1.8-46.5,4.9-67,0-.4.1-.9.2-1.3"/><path class="cls-1" d="M67.5,185.3c-.3,1.2-.6,3.2-1,5.8-1.6,10.4-4.2,30.8-6.6,51"/><path class="cls-2" d="M34.4,237.8c1.2.5,2.4,1,3.5,1.4,6.1,2.3,11.6,3.3,18.1,3.1,1.2,0,2.5-.1,3.8-.3"/><path class="cls-2" d="M69.5,240.7c.9.2,1.8.3,2.7.5,6.4,1,11.2,1,17.1-.7,1.6-.4,3.2-1,5-1.7"/><path class="cls-2" d="M56,242.2s0,0,0,0c.9,4.2,1.5,7.1,1.4,11.4,0,5.1-1.4,10.1-2.7,15-2,7.5-1.9,12.8-1.9,21.9v.9"/><path class="cls-2" d="M38,239.2c-.8,19.1.9,30.7,2.6,46.8"/><path class="cls-2" d="M74,290.4c0,.3,0,.6-.1.9"/><path class="cls-2" d="M72.4,240.6c0,.2-.1.4-.2.6-5.4,19.4,3.1,31.6,1.8,48.1,0,.4,0,.8-.1,1.1"/><path class="cls-2" d="M89.3,240.3c0,0,0,.1,0,.2.7,18.6-2,26.3-3.1,45.2"/><path class="cls-2" d="M88,45c0,.7,0,1.4,0,3.7,0,4.5-.5,8-1.2,10.9-1.1,4.4-2.8,7.3-5.1,9.9"/><path class="cls-2" d="M88.1,41.7c0,.2,0,.3,0,.5,0,1.6,0,2.2-.1,2.8"/><path class="cls-2" d="M46.7,45.3c0,0,0-.1,0-.2-.5-1.4-2.1-1.9-3.1-1.2-1.1.7-1.8,2.5-1.8,4.2,0,1.7.5,3.4,1.1,4.8"/><path class="cls-2" d="M88,45h0c.5-.2,1.9.3,2.2.8.3.5.4,1.2.5,1.8.3,1.8-1.4,11.7-4,12h0"/><path class="cls-2" d="M46.6,45.1c0,1.4,2,1.5,2.6.4s3.9-10.2,5.6-13.3c2.4-4.4,9.5-4.5,15.6-4.1,4.7.3,13.6.3,15.2,4.4,1.4,3.8,1.8,4.2,2.6,9.7,0,0,0,0,0,.1"/><path class="cls-3" d="M43.5,43.9c-2.6-4.7,2.4-5.7-.5-9.8-2.8-4-.5-8.1.7-8.7.8-.4,3.6-3.5,4-5.3,1-4.8,5.5-4.3,7.1-3.8,5,1.7,5-2.7,10.9-3.6,3.1-.5,4.2,2.3,7.3,2.3,2.7,0,6.1-1.6,8.4,0,2.6,1.7,2,3.9,4.6,5.5,1.3.9,4,1.3,5.6,4.1.9,1.5.8,4.8,0,7.1-1.7,5,.2,8,0,9.5-.4,2.8-.3,2.6-1.4,4.7"/><path class="cls-3" d="M86.9,291.5c3.7,1,10.5,3.6,12.1,6.8.7,1.3,1.3,9.2,0,9.9-.4.2-3.1.8-3.5.8-4.6.2-21.3-.3-22.6-1.1-1.9-1.2-1.4-9.6-.4-11.5.7-1.5,1.4-2.5,2.5-3.2"/><path class="cls-3" d="M86.2,285.7c.6,1.4.7,3.2.8,4.7,0,.4,0,.8-.1,1.1-.3.6-1.2.7-1.9.6-2.3,0-6.5,0-8.6.5-.5.1-1,.3-1.4.5l-.7-.2c-.2-.8-.2-1.7-.2-2.6h0c0-.4,0-.8.1-1.2.2-1.4.7-2.7,1.7-3.7,1.2-1.4,4.2-2.3,6.6-2.2,1.1,0,2.2.3,2.8.9.5.4.8.9,1,1.5"/><path class="cls-2" d="M86.2,285.7s0,0,0,0"/><path class="cls-3" d="M38.9,291.8c.7-.3,1.2-.8,1.7-1.3.5-.8-.4-3.6,0-4.4.6-1.2,1.7-2.1,3-2.5.6-.2,1.3-.3,2-.3,1.9,0,7,1.5,7,7.4s0,1.7-.3,2.7"/><path class="cls-3" d="M52.3,293.2c.9.5,1.6,1.2,2.3,2.5,1.1,1.8,2.1,10.8.6,12.4-1.3,1.3-4.8,1-6.6,1-5,0-10,0-15.1,0-1.6,0-3.4-.1-4.4-1.3-.9-1-1-6.7-.6-8,.7-2.6,5.2-5.5,7.7-6.7.9-.4,1.9-.7,2.7-1.2,3.5-1.1,6.9-.5,9.4.1,1.7.4,2.9.7,3.9,1.3Z"/></svg>