<?xml version="1.0" encoding="UTF-8"?><svg id="latinAmerica" xmlns="http://www.w3.org/2000/svg" width="235" height="321.9" viewBox="0 0 235 321.9"><defs><style>.cls-1{fill:none;stroke:#000;stroke-linecap:round;stroke-linejoin:round;}.cls-2{fill:#7599bb;}.cls-2,.cls-3,.cls-4,.cls-5,.cls-6,.cls-7,.cls-8,.cls-9{stroke-width:0px;}.cls-3{fill:#231f1d;}.cls-4{fill:#dbdbdb;}.cls-5{fill:#a0796a;}.cls-6{fill:#a07a6a;}.cls-7{fill:#fff;}.cls-8{fill:#050200;}.cls-9{fill:#67b96a;}</style></defs><path class="cls-6" d="M21.7,129.8c.7-.7,14.8-21.2,14.8-21.2,2.1-5.9-.2-17.9-2.5-22.1-3.1,1.6-5.8,3.5-7.2,5.8-19.9,32.3-18.2,37.1-18.2,37.1,2.7,9,14.5,26.3,17.1,30.9-1.3,3.5,2.5,8.7,4.5,11.1,1,1.2,1.9,2,3.8,2.3.8,0,1.8,0,3.1,0,.4,0,.9-.2,1.3-.5.9-.6,1.6-1.7.8-3,1.3-.3,2.8-2,1.9-4.5,4.3-1.2,2.5-4.2.6-6.6.5-3.1-1.4-4.3-3.9-4.9-2.5-.6-5.6-.5-7.4-1.1v-.3c-2.2-5.5-4.7-13.1-6.5-17.7-.8-2.1-1.5-3.8-2.3-5.1Z"/><path class="cls-4" d="M15.9,299.8c-.6,6.4,3.7,8.8,5.4,8.9,5.5.1,24.5,1.1,25.9-.6,1.7-2.1,1.4-10.1.1-12.6h0c-7.5.5-18-2-19.8-4.8-2.8,1.7-11.3,5.5-11.6,9.2Z"/><path class="cls-2" d="M73.6,292.9c9,1.4,16,2.3,21.7-.7-1.6-9.6-6.1-93.8-7.2-103.7-.7-5.7-1-6.1-1.2-10.2-2,1.5-6.2,9-25.7,9s-24.8-8.4-27.1-11.4h-.3c-1.6,11.4-2.7,29-3.1,43.8-.7,23.4-3.2,70.9-3.2,70.9,1.8,2.8,12.2,5.3,19.8,4.7,1.3-.1,2.4-.3,3.5-.6,0-.8,1.7-55.4,4.3-72.1,2.7-17.5,4.7-29,6.2-33.8,0,2.9,0,6.2,1.9,21.2,2.4,19.4,6.2,79.8,6.2,82.2,1.5.2,2.9.5,4.3.7Z"/><path class="cls-7" d="M33.8,175.9h.3c2.3,3.1,16.5,11.5,27.1,11.5,19.4,0,23.6-7.4,25.7-9,0-1.9,0-3.9,0-5.9h0c-12.4,9.9-31.2,11.6-48.2.7-.5.3-1,.5-1.3.5-1.3.2-2.3.2-3.1,0-.1.7-.2,1.4-.3,2.2Z"/><path class="cls-5" d="M73.1,65.6h0c-1.3,3.8-3.6,4.9-6.9,5-5.7.2-10.3-6-9.4-5.7,4.4,1.5,12.1,2.9,16.2.7ZM53.1,73.4c8.8,9.1,14.4,8,19,4h0c2.6-2.2,4.8-5.3,7.1-8,2.7-3.2,4.9-6.6,6-12.3.6-2.8.9-6.1,1-10.1,0-2.5,0-3.3,0-4,0-.7,0-1.3.1-3.1-.9-6-1.2-6.5-2.8-10.7-1.7-4.6-11.3-4.6-16.3-4.9-6.5-.4-14.1-.4-16.7,4.5-1.8,3.5-5.3,13.4-6,14.7-.7,1.3-2.8,1.1-2.8-.4h0c-.4-1.2-1.4-1.8-2.4-1.7-.3,0-.7.1-1,.4-1.2.8-1.9,2.8-1.9,4.6,0,1.9.5,3.7,1.2,5.3.6,1.5,1.4,2.9,2.5,3.7.7.5,1.5.7,2.3.5h0c1.2,8,6.5,12.8,8.9,15.5.6.7,1.2,1.4,1.8,2ZM55,47.4c0-1.8.8-3.2,1.7-3.2s1.7,1.5,1.7,3.2-.8,3.2-1.7,3.2-1.7-1.5-1.7-3.2ZM76.4,47.2c0-1.6.6-2.8,1.4-2.8s1.4,1.3,1.4,2.8-.6,2.8-1.4,2.8-1.4-1.3-1.4-2.8Z"/><path class="cls-7" d="M37.1,85.2c-1,.4-2,.9-2.9,1.4,2.2,4.2,4.6,16.2,2.5,22.1.3,1,.8,4.3,1.3,8.2h.1c3.8-9.9,3.8-22.2-.9-31.6Z"/><path class="cls-9" d="M38,116.8h-.1c.7,5.9,1.4,12.9,1.5,14.2.2,2.5-1,17.8-1.4,23.1,2.5.6,4.5,1.8,3.9,4.9,1.9,2.4,3.6,5.4-.6,6.6.8,2.5-.7,4.2-1.9,4.5.8,1.3.1,2.4-.8,3,17,10.9,35.8,9.2,48.2-.7h0c0-1,0-2.1-.2-3.2-.3-5.6-1-11.6-1.3-18.1-.3-6.1-.5-12.7,0-19.9.3-3.8.4-8.5.3-13.4-.4-12.8-2.7-23.3-3.7-33.4-2.7-1.1-5.3-1.9-7.2-2.5.2,11.6-6.3,13.7-9.7,13.7-9.3.2-14.5-6.5-16-14.6v-.3c-3.3,1.1-7.9,2.5-12.1,4.3,4.7,9.5,4.7,21.7.9,31.6ZM58.8,124.9l-9.6-3.4,26.6-12.4-3.7,20.4-6.4-2.2h0c-1.4,1.5-2.1,2.2-4.2,4.2,0,0,0-5.6.2-5.5l9.6-11.1-12.4,10.1Z"/><path class="cls-3" d="M41.7,43.1h0c0,1.5,2.1,1.7,2.8.4.7-1.3,4.2-11.2,6-14.7,2.6-4.9,10.2-4.9,16.7-4.5,5,.3,14.6.3,16.3,4.9,1.5,4.1,1.9,4.6,2.8,10.7,0,1.8,0,2.4-.1,3.1.3,0,.9,0,1.4.2,0-5,0-9.7-2.2-19-2.3-9.9-13.6-13.8-21.1-13.6-8.4.2-17.5,2.4-22.4,10.4-3.4,5.5-4.2,12.3-3.6,20.5h1c.9,0,1.9.5,2.4,1.7Z"/><path class="cls-7" d="M49,80.9v.3c1.6,8.1,6.7,14.8,16.1,14.6,3.4,0,9.9-2.1,9.7-13.7-1.4-.4-2.4-.7-3-.9,0,5.4-1.6,10.8-7.5,10.8s-11.3-5.3-11.6-12.4c-.7.4-2,.8-3.7,1.4Z"/><polygon class="cls-7" points="49.1 121.4 58.8 124.9 71.2 114.7 61.7 125.8 64.7 126.9 65.6 127.2 65.6 127.2 72 129.4 75.7 109 49.1 121.4"/><path class="cls-6" d="M53.1,73.4c0,2.6-.4,4.8-.4,6,.4,7.1,4.3,12.4,11.6,12.4s7.5-5.3,7.5-10.8c.1-1.4,0-1.7.2-3.7-4.6,3.9-10.2,5-19-4Z"/><path class="cls-8" d="M56.7,44.2c-.9,0-1.7,1.5-1.7,3.2s.8,3.2,1.7,3.2,1.7-1.5,1.7-3.2-.8-3.2-1.7-3.2Z"/><path class="cls-7" d="M56.8,64.9c-.9-.3,3.7,5.9,9.4,5.7,3.3-.1,5.6-1.2,6.9-4.9h0c-4.1,2.1-11.9.7-16.2-.8Z"/><path class="cls-7" d="M61.7,125.8c-.2,0-.2,5.5-.2,5.5,2.2-2,2.8-2.7,4.2-4.2l-.9-.3-3-1.1Z"/><polygon class="cls-7" points="64.7 126.9 65.6 127.2 65.6 127.2 65.6 127.2 64.7 126.9"/><path class="cls-4" d="M73.6,292.9c-1.1,2.7-1.6,13.6.4,15.2,1.5,1.1,28.6.2,29.1,0,1.5-.9,2.6-8,1.9-9.8-.9-2.3-7-4.4-9.7-6-5.7,3-12.7,2.1-21.7.7Z"/><ellipse class="cls-8" cx="77.8" cy="47.2" rx="1.4" ry="2.8"/><path class="cls-7" d="M84.5,85.6c-.8-.4-1.6-.7-2.4-1,1,10,3.3,20.5,3.7,33.4,0-3.6-.2-7.3-.4-11,0,0,0-.1,0-.2,0,0,.5-15.7-.8-21.1Z"/><path class="cls-5" d="M87.6,43.2c-.5-.2-1.1-.3-1.4-.2,0,.8,0,1.6,0,4,0,4.1-.4,7.4-1,10.1h.3c1.5,1.1,3.7-2.7,4.1-5.3.3-2,0-4-.3-6-.1-.7-.2-1.4-.6-2-.2-.3-.6-.5-1-.7Z"/><path class="cls-6" d="M96.2,131.3c-1.2,2.4-1.1,3.9-2.6,7.7-1,2.4-6.7,11.2-7.4,12.2h-.8c.4,6.6,1,12.6,1.3,18.2h0c2.5-.9,5.1-5.2,5.4-8,.9-7.4,5.9-11.3,9.7-16.3,5.2-6.8,7.8-12.2,5.3-20.6-2.1-4-9.3-23.8-13.7-32.1-1.4-2.6-5.1-4.9-9-6.7,1.3,5.4.8,21.1.8,21.1,0,0,0,.1,0,.2h.2c.3.4,10.4,23.8,10.7,24.4Z"/><path class="cls-1" d="M86.9,178.4c.2,4.1.5,4.4,1.2,10.2,1.2,9.9,5.6,94.1,7.2,103.7-5.7,3-12.7,2.1-21.7.7-1.4-.2-2.8-.5-4.3-.7,0-2.4-3.7-62.8-6.2-82.2-1.9-15.1-1.9-18.3-1.9-21.2"/><path class="cls-1" d="M50.7,294.7h0c-1,.3-2.2.5-3.5.6-7.5.6-18-1.9-19.8-4.7,0,0,2.6-47.5,3.2-70.9.4-14.8,1.5-32.4,3.1-43.8.1-.8.2-1.5.3-2.2h0"/><path class="cls-1" d="M61.2,188.8c-1.5,4.8-3.5,16.3-6.2,33.8-2.6,16.7-4.3,71.3-4.3,72.1"/><path class="cls-1" d="M27.5,290.6c-2.8,1.7-11.3,5.5-11.6,9.2-.6,6.4,3.7,8.8,5.4,8.9,5.5.1,24.5,1.1,25.9-.6,1.7-2.1,1.4-10.1.1-12.6"/><path class="cls-1" d="M73.6,292.9s0,0,0,0c-1.1,2.7-1.6,13.6.4,15.2,1.5,1.1,28.6.2,29.1,0,1.5-.9,2.6-8,1.9-9.8-.9-2.3-7-4.4-9.7-6"/><path class="cls-1" d="M72.1,77.5c-4.6,3.9-10.2,5-19-4-.6-.6-1.2-1.3-1.8-2-2.3-2.7-7.7-7.4-8.9-15.4"/><path class="cls-1" d="M86.3,39.4c0,.2,0,.4,0,.5,0,1.8,0,2.4-.1,3.1,0,.8,0,1.6,0,4,0,4.1-.4,7.4-1,10.1-1.2,5.6-3.3,9-6,12.3-2.3,2.7-4.5,5.8-7.1,8"/><path class="cls-1" d="M82.3,40.1c-1.5-1.5-7.6-1.6-9-.8"/><path class="cls-1" d="M61.6,39.5c-2.6-1.3-9.3-.5-9.8.6"/><ellipse class="cls-1" cx="77.8" cy="47.2" rx="1.4" ry="2.8"/><path class="cls-1" d="M55,47.4c0,1.8.8,3.2,1.7,3.2s1.7-1.5,1.7-3.2-.8-3.2-1.7-3.2-1.7,1.5-1.7,3.2Z"/><path class="cls-1" d="M72.9,55.3c.8,5.2-5.1,5.4-9.2,5.2"/><path class="cls-1" d="M73.5,65.3c-.2.1-.3.2-.5.3-4.1,2.2-11.9.9-16.2-.7-.9-.3,3.7,5.9,9.4,5.7,3.3-.1,5.6-1.2,6.9-4.9"/><path class="cls-1" d="M87.6,43.3h0c0-5,0-9.8-2.2-19-2.3-9.9-13.6-13.8-21.1-13.6-8.4.2-17.5,2.4-22.4,10.4-3.4,5.5-4.2,12.3-3.6,20.5"/><path class="cls-1" d="M41.8,43.4c0,0,0-.2,0-.2-.4-1.1-1.4-1.7-2.4-1.7-.3,0-.7.1-1,.4-1.2.8-1.9,2.8-1.9,4.6,0,1.9.5,3.7,1.2,5.3.6,1.5,1.4,2.9,2.5,3.7.7.5,1.5.7,2.3.5.5-.1.9-.4,1.2-.9"/><path class="cls-1" d="M86.2,43.1s0,0,0,0c.3,0,.9,0,1.4.2.4.2.8.4,1,.7.3.6.5,1.3.6,2,.3,2,.6,4,.3,6-.4,2.7-2.5,6.4-4.1,5.3"/><path class="cls-1" d="M41.7,43.2c0,1.5,2.1,1.7,2.8.4.7-1.3,4.2-11.2,6-14.7,2.6-4.9,10.2-4.9,16.7-4.5,5,.3,14.6.3,16.3,4.9,1.5,4.1,1.9,4.6,2.8,10.7v.2"/><path class="cls-1" d="M71.9,81.2c.5.2,1.6.5,3,.9,2,.6,4.6,1.4,7.2,2.5.8.3,1.6.7,2.4,1,3.9,1.8,7.6,4,9,6.7,4.4,8.3,11.7,28.1,13.7,32.1"/><path class="cls-1" d="M21.7,129.8c.7-.7,14.8-21.2,14.8-21.2"/><path class="cls-1" d="M52.7,79.5c-.7.4-2,.8-3.7,1.4-3.2,1.1-7.8,2.5-12,4.3-1,.4-2,.9-2.9,1.4-3.1,1.6-5.8,3.5-7.2,5.8-19.9,32.3-18.2,37.1-18.2,37.1"/><path class="cls-1" d="M84.4,85.1c0,.1,0,.3.1.4,1.3,5.4.8,21.1.8,21.1,0,0,0,.1,0,.2.2,3.7.4,7.4.4,11,0,4.9,0,9.6-.3,13.4-.5,7.2-.4,13.8,0,19.9.4,6.5,1,12.6,1.3,18.1,0,1.1.1,2.1.2,3.2,0,2,.1,4,0,5.9-2,1.5-6.2,9-25.7,9s-24.8-8.4-27.1-11.4"/><path class="cls-1" d="M36.6,108.7c.3,1,.8,4.3,1.3,8.2.7,5.9,1.4,12.8,1.5,14.2.2,2.5-1,17.8-1.4,23.1"/><path class="cls-1" d="M107.2,124.4c2.5,8.3-.2,13.8-5.3,20.6-3.8,5-8.8,8.9-9.7,16.3-.3,2.8-2.9,7.2-5.4,8"/><path class="cls-1" d="M85.4,106.9c.3.5,10.4,23.8,10.7,24.4"/><path class="cls-1" d="M98.4,127.7c-1.1,1.5-1.7,2.6-2.2,3.6-1.2,2.4-1.1,3.9-2.6,7.7-1,2.4-6.7,11.2-7.4,12.2"/><path class="cls-1" d="M8.7,129.5c2.7,9,14.5,26.3,17.1,30.9"/><path class="cls-1" d="M30.6,152.7c-2.3-5.5-4.8-13.1-6.6-17.7-.8-2.1-1.5-3.8-2.3-5.1-1.4-2.6-3.1-4.1-6.2-6.2"/><path class="cls-1" d="M39.8,156.3c.4.7,1.3,1.6,2.1,2.7,1.9,2.4,3.6,5.4-.6,6.6.8,2.5-.7,4.2-1.9,4.5.8,1.3.1,2.4-.8,3-.5.3-1,.5-1.3.5-1.3.2-2.3.2-3.1,0-1.9-.2-2.8-1-3.8-2.3-2-2.4-5.8-7.6-4.5-11.1"/><path class="cls-1" d="M30.3,152.9c0,0,.1,0,.2,0,1.8.6,4.9.5,7.4,1.1,2.5.6,4.5,1.8,3.9,4.9,0,0,0,0,0,0"/><path class="cls-1" d="M71.9,81.2c0,5.4-1.6,10.8-7.5,10.8s-11.3-5.3-11.6-12.4"/><path class="cls-1" d="M53.1,73.4h0c0,2.6-.4,4.8-.4,6.1"/><path class="cls-1" d="M72.1,77.5h0c-.2,2-.1,2.3-.2,3.7"/><path class="cls-1" d="M34.1,86.6c2.2,4.2,4.6,16.2,2.5,22.1"/><path class="cls-1" d="M49.1,81.2c1.5,8.1,6.6,14.8,16,14.6,3.4,0,9.9-2.1,9.7-13.7"/><path class="cls-1" d="M37,85.2s0,0,0,0c4.7,9.5,4.7,21.7.9,31.6"/><path class="cls-1" d="M82.1,84.5c1,10,3.3,20.5,3.7,33.4"/><path class="cls-1" d="M38.3,173c0,0,.1,0,.2.1,17,10.9,35.8,9.2,48.2-.7"/><polyline class="cls-1" points="65.6 127.2 72 129.4 75.7 109 49.1 121.4 58.8 124.9 71.2 114.7 61.7 125.8"/><path class="cls-1" d="M61.7,125.8c-.2,0-.2,5.5-.2,5.5,2.2-2,2.8-2.7,4.2-4.2h0s-.9-.3-.9-.3"/></svg>