<?xml version="1.0" encoding="UTF-8"?><svg id="latinAmerica" xmlns="http://www.w3.org/2000/svg" width="235" height="321.9" viewBox="0 0 235 321.9"><defs><style>.cls-1{fill:#2e2c2d;}.cls-1,.cls-2,.cls-3,.cls-4,.cls-5,.cls-6,.cls-7{stroke:#000;stroke-linecap:round;stroke-linejoin:round;}.cls-2{fill:#87654b;}.cls-3{fill:#b0e2ee;}.cls-4{fill:#ffcf66;}.cls-5{fill:#fff;}.cls-6{fill:none;}</style></defs><path class="cls-4" d="M103.7,124.4h-.3c-1.7.7-3.3,1.8-4.5,3.1h0c-.3,4.7-1.1,8.8-1.9,13-1,5.1-2.2,10.3-2.9,16.7h-.3c-13.8,4.9-29.8,3.4-42.4-4,1-10.4,2-21.8,1.1-28.2h0s0,0,0-.1c-2.8-4.3-7.3-7.5-12.3-8.7.3-.5.5-1.1.8-1.6,3.8-8,5.9-13.3,12.2-16,.4-.2,12.1-4.2,13.2-4.6-.2.8-.4,1.3-.4,1.4,1.8,6.3,8,11.4,12.3,12,4.7.7,9.9.3,10.8-3.1.6-2.4-2.7-4.7-2.3-7.6,1.3.8,7,3.9,7.5,4.4,4.9,4,7.3,14.4,9.8,23.1Z"/><path class="cls-2" d="M88.6,104.6c-.8,3.5-6.1,3.8-10.8,3.1-4.3-.6-10.4-5.7-12.3-12,0-.1.2-.6.4-1.4.4-1.3.9-3.2.9-5.5.2.2.3.4.4.5h0c4.6,4.1,14.5,8.2,17.1,7.8.4,0,.8-.2,1.2-.3h.7c0,.1,0,.2,0,.3-.4,2.9,2.9,5.2,2.3,7.6Z"/><path class="cls-6" d="M66.8,88.8h0"/><path class="cls-6" d="M66,94.2s0,0,0,0"/><path class="cls-6" d="M33.1,130.6c0,0,0,.2,0,.2"/><path class="cls-6" d="M56.8,117.2c-1,1.7-2.7,4.6-4.6,7.8"/><path class="cls-5" d="M93.9,157.3c-.3,2.7-.6,5.6-.7,8.9h-.4c-8.6,3-18,3.6-26.9,1.8.2-1,.2-1.8,0-2.4-1-2.4-10.3-4.8-12.1-2.9h-.1c-1.2-1.8-2.3-3.4-3.2-4.9l.4-.2c.1-1.4.3-2.9.4-4.3,12.6,7.4,28.6,8.9,42.4,4h.3Z"/><path class="cls-6" d="M93.1,170.9c0,.3,0,.5,0,.8"/><path class="cls-6" d="M98.7,127.6c.2-2.9.2-5.9,0-9.4-.1-2.1-.5-4.2-.9-6.3"/><path class="cls-6" d="M52.3,125.1s0-.1,0-.1"/><path class="cls-6" d="M86.3,97c0,0,0,0-.1,0"/><path class="cls-2" d="M65.9,168c-.6,3.8-3.5,9.8-4.9,10.5-2.2,1.1-8.2-4.7-9.3-6.9-1-.9-1.9-1.7-2.8-2.5-8-7.1-12.6-12-17.8-22.5-1.7-3.4-.5-8.7,2.2-16h0c1.1-2.5,4.3-9.3,6.7-14.3,5,1.2,9.5,4.3,12.3,8.7-4.1,6.9-9.2,15.4-10.5,16.8l-.2.5c4.2,6.6,6.1,10.9,8.9,15.5.9,1.5,1.9,3.1,3.2,4.9h.1c1.8-1.9,11.1.5,12.1,2.9.2.5.2,1.4,0,2.4Z"/><path class="cls-6" d="M107,134c0,0,0-.1-.1-.2"/><path class="cls-2" d="M129.3,167.9c-2.7,2.1-4.4,2.9-7.2.9-1.4-.9-2.5-2.3-2.9-3.9,0-.1,0-.2,0-.3-.5-2.8,1.2-5.8,3.5-7.5,2.4-1.8,0-.9,3-1.6,3.3-1,7.1.8,8.5,4,1.4,3.1-2.1,6.3-4.9,8.4Z"/><path class="cls-6" d="M115.3,232.4c-.1,0-.3.2-.4.3"/><path class="cls-6" d="M48.9,169.1s0,0,0,.1"/><path class="cls-6" d="M59.9,243.5s0,0,0,0"/><path class="cls-6" d="M27.7,284.9c0,0,0,.1,0,.2"/><path class="cls-6" d="M93.1,170.9s0,0,0,0"/><path class="cls-6" d="M109.7,288.4c0,0,0,.1,0,.2"/><path class="cls-4" d="M114.9,232.7c-6.2,3.9-13.7,6.6-21.9,8.3-.6.1-1.2.2-1.7.3-8.7,1.7-18.2,2.3-27.7,2.4-1.2,0-2.4,0-3.7-.1-6-.5-12.7-2.4-17.5-5.9-1-.7-1.9-1.6-2.7-2.4,1.1-2.1,3.1-9.1,3.2-13.8.2-8.6-1.2-34,5.9-52.3.9.8,1.8,1.6,2.8,2.5,1.1,2.2,7.1,8,9.3,6.9,1.5-.7,4.3-6.7,4.9-10.5,8.9,1.8,18.4,1.2,26.9-1.8h.4c0,1.5,0,3.1,0,4.7,8.5,11.3,20.5,41.7,21.8,55.4,0,2.1,0,4.2,0,6.3Z"/><path class="cls-6" d="M24.2,299.7c-.3-.2-.5-.4-.8-.6"/><path class="cls-6" d="M28.3,284.5c-.2.1-.4.3-.6.5"/><path class="cls-2" d="M120.6,296.8c-.4,3.2-1.9,6.2-4.3,8.3,0,0-.5.4-.6.5v.7c-7.1-1.2-13.9-3.1-20.5-5.6.6-3.4,1.6-6.5,3-9.8h-.3c0-1,.3-26.6-4-38.4-.5-1.2-.5-9.4-.8-11.3h-1.8c.6-.1,1.2-.2,1.7-.4,8.2-1.7,15.7-4.3,21.9-8.3-.2,15.3-2,31.7-5.2,55.8h.8c3.5,2,6.4,3.5,9.2,5.1v.2c1,.5,1.1,1.9,1,3.1Z"/><path class="cls-2" d="M138.1,308.1l-1-.2c-4.8.1-9.5,0-14.2-.6v-.7c1.3-.7,2.5-1.3,3.6-2.3,1-1,1.9-2.2,2-3.6.1-1.2-.4-2.5-1.3-3.2,1.8,1,3.7,2,5.9,3.2,1.5.8,3,1.4,3.9,2.8,1.1,1.7,1.6,3.2,1.2,4.6Z"/><path class="cls-3" d="M138.1,308.1h0c-.3,1-1.1,1.9-2.5,2.6-3.2,1.6-7.2,1.5-10.8,1.1-11.2-1.1-15.2-2.5-26.1-5.4-1.3-.3-2.8-.8-3.4-1.9-.5-.8-.4-1.8-.2-2.7,0-.4.1-.8.2-1.1,6.6,2.5,13.4,4.4,20.4,5.6,2.4.4,4.9.8,7.3,1h0c4.7.5,9.5.7,14.2.6l1,.2Z"/><path class="cls-3" d="M128.5,300.7c-.1,1.4-1,2.6-2,3.6-1,.9-2.3,1.6-3.5,2.3v.7h0c-2.4-.2-4.9-.6-7.3-1v-.7c.2,0,.7-.4.8-.5,2.3-2.2,3.9-5.2,4.3-8.3.2-1.2,0-2.6-1.1-3.1v-.2c2.6,1.3,5,2.6,7.6,4,1,.7,1.5,2,1.3,3.2Z"/><path class="cls-6" d="M98.3,290.8c0,0,0,.1,0,.2"/><path class="cls-6" d="M39.8,285s0,0-.1-.1"/><path class="cls-2" d="M60.4,308.3h-.2c-.8,1.5-2.8,2.1-4.5,1.9-1.7-.2-5.4-1.1-7-1.8-1.4-.6-2.8-1.2-4.1-1.8l.3-.7c3.8-.7,7.4-2.8,9.8-5.9h0c.8.7,1.5,1.5,2.4,2.3,1.2,1.1,2.4,2.3,2.8,3.8.2.7.4,1.4.5,2Z"/><path class="cls-3" d="M57.4,312.4c-3.5.7-6.1.8-9.4-.5-9.8-3.7-15.7-7.7-24.6-12.9-1-1.1-1.2-2.5-1-4.1,0-.5.2-1.1.3-1.7,3.5,4,8.6,7.1,14.6,10.1,2.3,1.1,4.7,2.2,7.2,3.3,1.3.6,2.7,1.2,4.1,1.8,1.6.7,5.3,1.5,7,1.8,1.7.2,3.7-.4,4.5-1.9h.2c.3,2.1-.3,3.5-3,4.1Z"/><path class="cls-6" d="M23.4,299c-.3-.2-.6-.3-.9-.5"/><path class="cls-3" d="M54.6,300.1h0c-2.4,3.1-5.9,5.2-9.8,5.9l-.3.7c-2.5-1.1-4.9-2.2-7.2-3.3l.4-.7c2.6-.3,5.3-.6,7.6-1.9,2.2-1.2,4-3.5,4-6,1.7,1.7,3.3,3.5,5.2,5.4Z"/><path class="cls-6" d="M22.8,293.3c0,0-.1-.1-.2-.2"/><path class="cls-2" d="M49.4,294.7c0,2.5-1.8,4.8-4,6-2.3,1.3-5,1.6-7.6,1.9l-.4.7c-6-3-11.1-6.1-14.6-10.1.4-1.5,1.2-3,1.9-4.2,1.3-1.9,1.8-3.2,3-4.2,5.9-15,6.8-42.1,14.5-46.9l.3-.4c4.8,3.5,11.4,5.4,17.5,5.9-5.2,9.8-15.3,32.1-19.9,41.3h-.1c3.8,3.8,6.6,6.8,9.5,9.9Z"/><path class="cls-6" d="M49.4,294.7c0-.1,0-.2,0-.3"/><path class="cls-6" d="M95.3,300.7c0,0-.1,0-.2,0"/><path class="cls-6" d="M127.2,297.5c-.2-.1-.3-.2-.5-.3"/><path class="cls-6" d="M51.2,153.3s0,0-.1,0"/><path class="cls-6" d="M65.9,168c0,0-.1,0-.2,0"/><path class="cls-2" d="M125.6,155.6c-2.9.7-.6-.2-3,1.6-2.4,1.7-4.1,4.6-3.5,7.5h-.1c-2.8-7.5-19.7-18.1-21.4-23.9h-.7c.8-4.3,1.6-8.4,1.9-13.2h0c1.3-1.3,2.8-2.4,4.5-3h.3c1.1,3.6,2.1,7,3.4,9.4h0c4.7,8.1,13.7,18.2,18.6,21.7Z"/><path class="cls-6" d="M39.8,116.4s0,0,0,0"/><path class="cls-2" d="M95,41.9h-.6c-7.9-3.2-16.4,3.9-19.1,7.9-2.7,3.9-2.5,8.2-3,12.4.8.4,1.3,1.2,1.3,2.1,0,1.1-1.1,2-2.2,2,0,0,0,0,0,0,0,0,0,0,0,0,.1,0,.2,0,.3,0,0,0,0,0,0,0,0,0,.2,0,.3.1.2.1.4.3.5.4,0,0,.2.2.2.3,0,0,.1.2.1.3,0,0,0,.1,0,.2,0,0,0,0,0,.1,0,0,0,.1,0,.2,0,0,0,0,0,0,0,.1,0,.3,0,.4,0,.9-.5,1.6-1.5,1.9h0c0,1,0,.9,0,1.9,0,1-1.7.9-2-.1-.2-.8-.4-1.1-.6-1.8-1-.2-1.7-1.2-1.6-2.2,0-1.1.9-1.9,2.1-2-1.1-.2-1.8-1.2-1.8-2.3,0,0,0-.2.8-1.5h0c0-6.2.7-10.4,2.5-15.3-2.1,3.8-3.5,6-4.4,8.9-1.5,4.7-2,8.1-2,11.4.3.3.6.6.6,1.1v.4c.2.9-.3,1.8-1.2,2,.9,0,1.7.6,1.8,1.5v.4c.2.8-.2,1.5-.9,1.9,0,.7.1.7,0,1.4,0,1.6-2.3,2-2.8.4-.2-.4-.2-.7-.4-1.4-.7-.2-1.2-.7-1.3-1.4v-.4c0,0,0-.2,0-.3h-.1c-.1.7-.6,1.2-1.3,1.4.9,0,1.7.6,1.8,1.5v.5c.2.5,0,1.1-.3,1.5,0,0-.1.1-.2.2h.4c0,5.5,3.6,8.2,5.9,10.8.2.2.3.4.4.5h0c4.6,4.1,14.5,8.2,17.1,7.8.4,0,.8-.2,1.2-.3.1,0,.3-.1.4-.2h0c0,0,.1,0,.2,0,3.6-1.6,7.2-5.4,7.2-5.4,3.8-3.2,6.2-8.2,7.6-12.8,1.6-5.1,2.1-9.8,2.4-11,.4-1.5,1.1-3.3,2.2-6.9v-.4c-.8-12.4-5.2-15.4-10.8-18.1ZM77,64.1c.4-1.8,1.5-3,2.5-2.8,1,.2,1.5,1.8,1.1,3.6-.4,1.8-1.5,3-2.5,2.8-1-.2-1.5-1.8-1.1-3.6ZM75.5,79.5c4.9,3.3,10.5,4.8,15.8,5.4-3.1,5.9-14.8,1.7-15.8-5.4ZM99.4,68.9c-.4,1.8-1.5,3.1-2.5,2.9-1-.2-1.4-1.9-1-3.7.4-1.8,1.5-3.1,2.5-2.9,1,.2,1.5,1.9,1.1,3.7Z"/><path class="cls-6" d="M102.5,62.4c0-3.3-4.4-4.1-5.5-2.2"/><path class="cls-6" d="M83,56.6c-.8-2.2-4.3-3.7-6.6-.9"/><path class="cls-6" d="M91.9,78.1c-1.2,3.2-4.4,2.9-8.1,1.2"/><path class="cls-7" d="M99.4,68.9c-.4,1.8-1.5,3.1-2.5,2.9-1-.2-1.4-1.9-1-3.7.4-1.8,1.5-3.1,2.5-2.9,1,.2,1.5,1.9,1.1,3.7Z"/><path class="cls-7" d="M80.7,64.9c-.4,1.8-1.5,3-2.5,2.8-1-.2-1.5-1.8-1.1-3.6.4-1.8,1.5-3,2.5-2.8,1,.2,1.5,1.8,1.1,3.6Z"/><path class="cls-6" d="M75.5,79.5c-.2-.2-.5-.3-.7-.5"/><path class="cls-6" d="M91.4,84.8s0,0-.1,0"/><path class="cls-5" d="M91.3,84.8c-3.1,5.9-14.8,1.7-15.8-5.4,4.9,3.3,10.5,4.8,15.8,5.4Z"/><path class="cls-6" d="M91.5,84.4c0,.2-.1.3-.2.5"/><path class="cls-1" d="M94.4,41.9c-7.9-3.2-16.4,3.9-19.1,7.9-2.7,3.9-2.5,8.2-3,12.4-.2-.1-.5-.2-.8-.2h-1.2c0,0-.1,0-.1,0-.5,0-1,.2-1.4.5,0-6.2.7-10.4,2.5-15.2-2.1,3.8-3.5,6-4.4,8.9-1.5,4.7-2,8.1-2,11.4-.4-.3-.9-.5-1.4-.4l-1.9.3c-.3,0-.6.2-.9.4-.2-1.7-.3-2.8-.3-3.8,0-2.6.4-5.7,1-9-1.5,3.7-2.2,7.6-2,12-.4-.5-1-.7-1.6-.6l-2,.3c-.4,0-.7.2-.9.5-.3-2.5-.4-4.1-.5-6.2-.3-4.1.2-12.1,5.9-20.6,6-8.1,13.7-9.9,23.1-10.2.7,0,1.5,0,2.2,0v.3c6.4,1.8,10.5,6.9,9.1,11.5Z"/><path class="cls-1" d="M101.2,78.3h-.1c1.6-5.2,2.1-9.8,2.4-11,.4-1.5,1.1-3.3,2.2-6.9v-.4c-.8-12.4-5.2-15.4-10.8-18.1h-.6c1.5-4.6-2.7-9.8-9.1-11.5v-.3c12.3.8,20.2,10.6,22.7,19.5,3.5,12.7-2.5,21.4-6.8,28.7Z"/><path class="cls-1" d="M71.8,72.5c0,1-1.7.9-2-.1-.2-.8-.4-1.1-.6-1.8.1,0,.3,0,.4,0h1.6c0,0,.1,0,.2,0h.3s0,0,0,0c0,1,0,.9,0,1.9Z"/><path class="cls-6" d="M73.7,41.5c-1,2.1-1.8,3.9-2.5,5.7"/><path class="cls-6" d="M71.3,47.1s0,0,0,0"/><path class="cls-6" d="M64.8,67.5h0"/><path class="cls-1" d="M65.3,76.1c0,1.6-2.3,2-2.8.4-.2-.4-.2-.7-.4-1.4.2,0,.5,0,.7,0l1.9-.3c.2,0,.3,0,.5-.2,0,.7.1.7,0,1.4Z"/><path class="cls-6" d="M65.2,74.7s0,0,0,0"/><path class="cls-6" d="M62,75.1s0,0,0,0"/><path class="cls-6" d="M60.7,67.8s0,0,0-.1"/><path class="cls-6" d="M63.7,45.5c-1,3.1-1.8,6.3-2.4,9.4"/><path class="cls-6" d="M59.3,67h0"/><path class="cls-1" d="M59.4,80.5c-1.3.1-1.1-.3-1.9-1.7,0,0,0,0,0,0l2-.3c.2,0,.5-.1.6-.2h0c.1,1.7-.1,2.1-.8,2.3Z"/><path class="cls-6" d="M57.6,78.8s0,0,0,0"/><path class="cls-6" d="M54.7,67.2s0,0,0,0"/><path class="cls-3" d="M60.7,77.8c0,0-.1.1-.2.2,0,0-.1.1-.2.2-.2.1-.4.2-.6.2l-2,.3s0,0,0,0c-1,.1-1.8-.5-2-1.5v-.4c-.2-.9.3-1.8,1.2-2h0c0,0,.2,0,.3,0l2-.3c0,0,.1,0,.1,0h0c.9,0,1.7.6,1.8,1.5v.5c.2.5,0,1.1-.3,1.5Z"/><path class="cls-6" d="M59.1,74.4s0,0-.1,0l-2,.3c0,0-.2,0-.3,0,0,0,.2,0,.2,0l2-.3s.1,0,.2,0Z"/><path class="cls-5" d="M60.5,73c-.1.7-.6,1.2-1.3,1.4h0c0,0-.1,0-.2,0l-2,.3c0,0-.2,0-.2,0h0c-.9,0-1.6-.6-1.8-1.5v-.4c-.2-1,.4-1.9,1.4-2.1l2-.3c1-.2,1.9.5,2.1,1.5v.4c.1.2.1.4,0,.6Z"/><path class="cls-6" d="M59.1,74.4s0,0-.1,0l-2,.3c0,0-.2,0-.3,0,0,0,.2,0,.2,0l2-.3s.1,0,.2,0Z"/><path class="cls-3" d="M58.3,70.3l-2,.3c-1,.2-1.9-.5-2.1-1.5v-.4c-.2-.6,0-1.2.5-1.6.2-.2.6-.4.9-.5l2-.3c.6,0,1.2.1,1.6.6.2.2.4.6.4.9v.4c.2,1-.4,1.9-1.4,2.1Z"/><path class="cls-5" d="M66.1,72.8c.1.8-.3,1.5-1,1.9-.2,0-.3.1-.5.2l-1.9.3c-.2,0-.5,0-.7,0-.7-.2-1.2-.7-1.3-1.4v-.4c0,0,0-.2,0-.3s0-.2,0-.3c.1-.6.6-1.2,1.2-1.4h0c0,0,.2,0,.3,0l1.9-.3c0,0,.1,0,.2,0,0,0,0,0,0,0,.9,0,1.7.6,1.8,1.5v.4Z"/><path class="cls-6" d="M64.2,70.9c0,0-.1,0-.2,0l-1.9.3c0,0-.2,0-.3,0,0,0,.1,0,.2,0l1.9-.3c0,0,.1,0,.2,0Z"/><path class="cls-3" d="M64.3,70.9s0,0,0,0c0,0-.1,0-.2,0l-1.9.3c0,0-.2,0-.2,0h0c-.9,0-1.6-.6-1.8-1.5v-.4c-.2-.6,0-1.3.5-1.7.2-.2.5-.3.9-.4l1.9-.3c.5,0,1,0,1.4.4.3.3.6.6.6,1.1v.4c.2.9-.3,1.8-1.2,2Z"/><path class="cls-6" d="M64.2,70.9c0,0-.1,0-.2,0l-1.9.3c0,0-.2,0-.3,0,0,0,.1,0,.2,0l1.9-.3c0,0,.1,0,.2,0Z"/><path class="cls-5" d="M73.2,68.6c0,.9-.5,1.6-1.5,1.9h-.3c0,0-.1,0-.2,0h-1.6c-.1,0-.3,0-.4,0-1-.2-1.7-1.2-1.6-2.2,0-1.1.9-1.9,2.1-2h0c0,0,.2,0,.2,0h1.2s0,0,0,0h0s0,0,.1,0c0,0,0,0,0,0,.1,0,.2,0,.3,0,0,0,0,0,0,0,0,0,.2,0,.3.1.2.1.4.3.5.4,0,0,.2.2.2.3,0,0,.1.2.1.3,0,0,0,.1,0,.2,0,0,0,0,0,.1,0,0,0,.1,0,.2,0,0,0,0,0,0,0,.1,0,.3,0,.4Z"/><path class="cls-6" d="M71.1,66.3h-1.2c0,0-.2,0-.2,0h1.5Z"/><path class="cls-3" d="M73.5,64.3c0,1.1-1.1,2-2.2,2h0s0,0,0,0h-1.2c0,0-.2,0-.2,0h0c-1.1-.2-1.8-1.2-1.8-2.3,0,0,0-.2.8-1.5h0c.4-.3.9-.5,1.4-.5h1.4c.3,0,.5.2.8.3.8.4,1.3,1.2,1.3,2.1Z"/><path class="cls-6" d="M71.1,66.3h-1.2c0,0-.2,0-.2,0h1.5Z"/></svg>