<?xml version="1.0" encoding="UTF-8"?><svg id="latinAmerica" xmlns="http://www.w3.org/2000/svg" width="235" height="321.9" viewBox="0 0 235 321.9"><defs><style>.cls-1{stroke:#231f20;}.cls-1,.cls-2{fill:none;stroke-linecap:round;stroke-linejoin:round;}.cls-2,.cls-3,.cls-4{stroke:#000;}.cls-3,.cls-4{stroke-miterlimit:10;}.cls-3,.cls-5{fill:#bdcae8;}.cls-4,.cls-6{fill:#2e2e2e;}.cls-7,.cls-6,.cls-8,.cls-9,.cls-5,.cls-10,.cls-11,.cls-12{stroke-width:0px;}.cls-8{fill:#414141;}.cls-9{fill:#1e1e1e;}.cls-10{fill:#8ea3d6;}.cls-11{fill:#7d574c;}.cls-12{fill:#fff;}</style></defs><path class="cls-11" d="M41.1,165.7c-2.2-.8-5.1-1-7-1.5-1.3-1.2-5.7-5.7-7.5-9-1.8-3.3-2.1-6-3.3-8.5.8-.8,4.1-4.7,5.6-6.1-1.5-.7-2.9-1.7-4.4-3.1-1.3-1.2-2.8-3.7-3.9-6.2-3.1,3.2-9.2,8.6-10.6,11.1-2.9,5.3,2.6,11.5,6.5,16,2.8,3.3,7.9,9.5,10.5,13.2-1.3,2.9,1.8,7.2,3.8,9.2,1.3,1.3,7.3,4.9,8.3,2.5,0-.4.1-.8.2-1.1,1.1,0,3.4-1.3,2.2-2.9,1.3-.2,2.8-1.6,2-3.7,4.3-1,2.6-3.5.6-5.5.5-2.4-.9-3.7-2.9-4.4Z"/><path class="cls-8" d="M12.7,298.3c-.4,1.4-.3,7.5.7,8.6,1.1,1.2,3,1.4,4.7,1.4,5.4.1,10.7.1,16.1,0,1.9,0,5.7.3,7.1-1.1,1.6-1.6.6-11.4-.6-13.4-.8-1.3-1.6-2.1-2.5-2.7-1.1-.6-2.4-.9-4.2-1.4-2.7-.7-6.3-1.3-10-.1-.9.5-2,.8-2.9,1.3-2.7,1.3-7.5,4.4-8.3,7.2Z"/><path class="cls-10" d="M41.1,132.7c0,1.2.4,10,.5,11.6.3,3.5.7,7,.4,10.6-.3,5.1-.6,6.4-1,10.8,2,.7,3.4,1.9,2.9,4.4,1.9,2,3.7,4.5-.6,5.5.8,2.1-.7,3.5-2,3.7,1.3,1.6-1.1,2.9-2.2,2.9,0,.4,0,.8-.2,1.1-.2,1.4-.6,3.4-.7,4.2.5.3,1,.7,1.4,1,5.2,3.3,11.5,4.7,17.6,5.3,2.8.3,6.1.8,8.8,0,2.6-.8,6-6.4,6-6.4-.2.2.6-43.9-3.2-66.8-7.7-2.4-15.5-4.7-23.2-7.1.9-1.5,1.8-3,2.6-4.5-2.8,0-5.6-.6-8.1-2-.4.1-1.5.3-2.4.6-3.6,1.4-5.8,5.3-8.6,8-2.1,2-10.1,10.3-10.1,10.3,0,1.4.4,3.3,1.2,5.2,1.1,2.5,2.6,5.1,3.9,6.2,1.6,1.5,2.9,2.4,4.4,3.1,1.3.7,2.8,1.2,4.6,1.9,2.2-2.4,5-6.3,7.6-9.9,0-.2,0-.2,0,0ZM52.6,185.1c-9.7-1.6-4.9-16.2-4.9-16.2,4.7.8,10.7.7,14.1,1.1,0,0,1.4,16.8-9.1,15.1ZM54.4,147.9c-9.7-1.6-4.9-16.2-4.9-16.2,4.7.8,10.7.7,14.1,1.1,0,0,1.4,16.8-9.1,15.1Z"/><path class="cls-8" d="M25.6,288.3c-.4.6-1.1,1.1-1.7,1.5,3.7-1.1,7.3-.5,10,.1,1.8.5,3.1.7,4.2,1.4,1.9-8.7-4.9-10.9-7.2-10.9-.7,0-1.5.1-2.1.4-1.4.5-2.6,1.4-3.2,2.7-.4.9.6,4,0,4.8Z"/><path class="cls-11" d="M28.6,280.4v.4c.8-.2,1.5-.3,2.2-.4,2.3,0,9.1,2.1,7.2,10.9.9.5,1.7,1.3,2.5,2.7.8-14.2,3.1-22.1,4.3-26.9,1.8-6.8,6.1-20,7.5-28.9-9.3-1-15.8-2.8-19.5-4.3-3.8,15.4-1.8,32.7-4.3,46.5Z"/><path class="cls-5" d="M32.9,233.9c3.7,1.5,10.2,3.3,19.5,4.3,4.2.4,9,.7,14.4.7s4.9,0,6.9,0c11.1,0,14.2-.4,20.3-2.5,1.2-.4,2.5-.9,3.9-1.4,0-7.1-5.9-37.2-6.9-43.8-2.6,0-12.4,3.5-13.6,2.9-1.2-.6-4.6-6.6-5.2-6.6,0,0-3.4,5.6-6,6.4-2.7.8-6,.2-8.8,0-6.1-.6-12.3-2.1-17.6-5.3v.2c-1.6,8.3-10.2,43.4-10.2,43.4.5.5,1.6,1.1,3.3,1.8Z"/><path class="cls-11" d="M41.9,82.8c1,3.4,1.6,4.8,4.3,8.3,3,3,5.7,5.4,8.1,7.2,8.7,6.5,13.9,5.7,17.9,2.6.3-.2.6-.5.9-.7,2.6-2.3,4.6-5.4,6.9-7.9,3-3.3,4.7-7.1,5.7-10.7,1.6-6.1,1-11.4,1-11.4.3-1,.5-1.9.6-2.5,0-.3,0-.5.1-.7h0c0-.1,0-.3,0-.4,0-.2,0-.7,0-2.1,0-10.9-10.1-20.3-17.6-20.7-4.7-.6-30.2,7.4-29.3,24.3-1.5-.3-2.6-.2-3.4.2-2.5,1.2-1.8,5.1-1,7.7,1,3.4,2.8,6.1,5.6,6.8h.1ZM49.5,61.8c-.7,0-1-.4-.7-1,.4-1,1.8-2,4.1-2.6,1.8-.5,7.9-.6,7,2.3-.2.6-.8,1.2-1.6,1.3-.7.1-2.6-.4-3.3-.4-1.9,0-3.4.2-5.5.4ZM53.9,71.4c0-2.3.9-4.1,2.1-4.1s2,1.8,2,4.1-.9,4.1-2,4.1-2.1-1.8-2.1-4.1ZM61.6,92.4c-2-1.3-1.9-.5-4.3-4.2,1.2,1.2,12.4,4,18,1.4-1.5,2.8-3,4.3-6.3,4.8-2.1.3-5.4-.5-7.4-1.9ZM76.1,62.5c-.9,0-1.7-.9-1.7-1.8,0-.9.7-1.7,1.6-2.1,2.2-1,4.8.1,6.4,1.6.2.2.4.4.6.7.1.3.1.6-.1.9-.2.2-.6.3-.9.2s-5,.4-5.8.4ZM77.3,71.1c0-2,.8-3.7,1.7-3.7s1.7,1.6,1.7,3.7-.8,3.7-1.7,3.7-1.7-1.6-1.7-3.7Z"/><path class="cls-6" d="M40.9,42.1c-5.4,6.9-6.1,14.2-3.9,26v.2c.9-.4,2-.5,3.5-.2-.9-16.8,24.6-24.8,29.3-24.3,7.5.4,17.6,9.9,17.6,20.7,0,.7,0,1.4,0,2.1,0,.3,0,0,0,.4h0c0,.2,0,.5-.1.7l1.2.2c.1,0,.2-.1.4-.1,3.3-13.4-1.9-28.4-10-32.5-3.3-1.7-10-1.5-10-1.5-11.4-2.9-21.9.8-27.8,8.4Z"/><path class="cls-5" d="M48.5,109.1c-.9,1.5-1.8,3-2.6,4.5,7.7,2.4,15.5,4.7,23.2,7.1,0-.1,0-.3,0-.4,0,0-15.1-12.8-14.8-15.8.2-2.3,0-2.3,0-4.9h-.2c-6.1,3.2-8.9,3.6-13.7,7.5,2.5,1.3,5.3,2,8.1,2Z"/><path class="cls-10" d="M47.7,169s-4.8,14.6,4.9,16.2c10.5,1.8,9.1-15.1,9.1-15.1-3.4-.4-9.3-.3-14.1-1.1Z"/><path class="cls-9" d="M48.8,60.8c-.3.6,0,1.1.7,1,2.1-.2,3.6-.4,5.5-.4.7,0,2.6.5,3.3.4.7-.1,1.4-.6,1.6-1.3.9-2.9-5.2-2.8-7-2.3-2.3.6-3.7,1.7-4.1,2.6Z"/><path class="cls-10" d="M49.5,131.7s-4.8,14.6,4.9,16.2c10.5,1.8,9.1-15.1,9.1-15.1-3.4-.4-9.3-.3-14.1-1.1Z"/><path class="cls-11" d="M54.2,104.5c-.3,3,14.8,15.8,14.8,15.8,0,0,5.4-9.5,3.9-19l-.8-.4c-4,3.1-9.2,3.9-17.9-2.6,0,.5,0,1,0,1.4,0,2.5.1,2.6,0,4.9Z"/><path class="cls-7" d="M56,67.3c-1.1,0-2.1,1.8-2.1,4.1s.9,4.1,2.1,4.1,2-1.8,2-4.1-.9-4.1-2-4.1Z"/><path class="cls-12" d="M57.4,88.2c2.4,3.7,2.3,2.9,4.3,4.2,2,1.4,5.3,2.2,7.4,1.9,3.3-.5,4.9-2,6.3-4.8-5.6,2.6-16.9-.2-18-1.4Z"/><path class="cls-5" d="M87.3,108.3c.6,0,1.2-.1,1.7-.3-3.9-2.4-10.8-7-15.4-7.3l-.6-.6c-.3.3-.6.5-.9.7l.8.4c1.5,9.5-3.9,19-3.9,19,0,.1,0,.3,0,.4h.3c.3.2,9.2-5.7,14.3-8-1.5-1.2-3.2-3-4.7-4.2,2.4-.7,5.7,0,8.4-.1Z"/><path class="cls-10" d="M89.1,138.5c.3,1,1,1.8,1.3,2.7.6-.2,1.2-.4,1.7-.5,5.6-1.8,7.3-3.2,9.1-7.1.4-.8.7-1.7,1.1-2.7-4.3-6.8-7.9-15.6-11.9-19.8q-2-2.1-3.1-2.7c-2.7.2-6-.5-8.4.1,1.5,1.2,3.2,3,4.7,4.2-5.1,2.3-14,8.2-14.3,8.1h-.3c3.8,22.7,3,66.9,3.2,66.7.5,0,3.9,6,5.2,6.6,1.3.6,11.1-2.8,13.6-2.9-.2-2.3-.5-5.1-.7-8.3-.4-6.3-.8-13.8-1-20.7-.2-5.3-.3-10.3-.3-13.9s0-6.7,0-9.8ZM79.9,146.7c-6.3,0-4.9-15.1-4.9-15.1,3.1,0,6.9-1.1,9.1-1.2,0,0,2.7,16.4-4.2,16.4ZM83.7,185.3c-6.3,0-4.9-15.1-4.9-15.1,3.1,0,6.9-1.1,9.1-1.2,0,0,2.7,16.4-4.2,16.4Z"/><path class="cls-11" d="M73.7,238.9c-.3,8.6,12.1,44.6,13,56.4.9-1.7,1.6-2.9,3-3.6h-1.1c-.6-2.8-.2-5.9,1.7-8.1,1.3-1.5,4.5-2.5,7.1-2.3-.8-3.4-1.1-14.3-1.1-17.5,0-3,0-15.6-2.3-27.3-6,2.1-9.1,2.4-20.3,2.5h0Z"/><path class="cls-9" d="M74.4,60.7c0,.9.8,1.8,1.7,1.8.7,0,5.4-.5,5.8-.4s.7,0,.9-.2c.2-.2.2-.6.1-.9-.1-.3-.3-.5-.6-.7-1.6-1.5-4.2-2.6-6.4-1.6-.9.4-1.5,1.2-1.6,2.1Z"/><path class="cls-10" d="M75.1,131.5s-1.5,15.1,4.9,15.1c6.9,0,4.2-16.4,4.2-16.4-2.2.2-6,1.2-9.1,1.2Z"/><path class="cls-7" d="M79,67.5c-1,0-1.7,1.6-1.7,3.7s.8,3.7,1.7,3.7,1.7-1.6,1.7-3.7-.8-3.7-1.7-3.7Z"/><path class="cls-10" d="M78.8,170.2s-1.5,15.1,4.9,15.1c6.9,0,4.2-16.4,4.2-16.4-2.2.2-6,1.2-9.1,1.2Z"/><path class="cls-11" d="M88.7,67.8c-.1,0-.2,0-.4.1l-1.2-.2c-.1.7-.3,1.5-.6,2.5,0,0,.6,5.2-1,11.4l.5.2c.8,0,1.6-.4,2.2-1,.6-.6,1-1.4,1.3-2.2,1.1-2.6,1.5-5.5,1.2-8.3,0-.7-.2-1.4-.6-1.9-.3-.4-.9-.7-1.4-.6Z"/><path class="cls-8" d="M86.7,295.3c-1,2.1-1.6,11.3.4,12.5,1.4.9,19.2,1.5,24.2,1.2.5,0,3.3-.7,3.8-.9,1.5-.7.8-9.3,0-10.7-1.8-3.5-9-6.4-13-7.4-.4.6-1.3.7-2.1.7-2.4,0-6.9,0-9.2.5-.4.1-.8.2-1.2.4-1.5.7-2.2,1.9-3,3.6Z"/><path class="cls-8" d="M97.4,281.2c-2.6-.1-5.8.9-7.1,2.3-1.9,2.2-2.2,5.3-1.7,8h1.1c.3-.1.7-.3,1.2-.4,2.3-.6,6.8-.5,9.2-.5.8,0,1.7,0,2.1-.7.2-.3.2-.8.2-1.2-.1-2.3-.2-5.2-1.9-6.7-.7-.6-1.8-.9-3-.9Z"/><path class="cls-11" d="M90.1,162.2h-.7c.2,6.9.6,14.4,1,20.7h.7c1.7-.5,1.1.2,2.1-2.8.8-2.2,1.2-4.2,2-6.5,1.6-5.2,5.2-8.1,9.1-12.3,5.3-5.6,8.6-9.5,4.5-15.2-.8-1.1-5.6-9.1-7.5-12.6-1.8,4-3.4,5.3-9.1,7.1v.2c1.5,2.7,5.1,10.9,5.3,10.4h.5c-1.2,2-1.9,3.7-3.1,6.3-.9,1.9-4.8,4.4-4.8,4.6Z"/><path class="cls-2" d="M87.3,67c0,.2,0,.5-.1.7-.1.7-.3,1.5-.6,2.5,0,0,.6,5.2-1,11.4-.9,3.5-2.6,7.4-5.7,10.7-2.3,2.5-4.3,5.6-6.9,7.9-.3.3-.6.5-.9.7-4,3.1-9.2,3.9-17.9-2.6-2.4-1.8-5.1-4.2-8.1-7.2"/><path class="cls-2" d="M87.4,64.5c0,.7,0,1.4,0,2.1,0,.1,0,.3,0,.4"/><path class="cls-2" d="M77.3,71.1c0,2,.8,3.7,1.7,3.7s1.7-1.6,1.7-3.7-.8-3.7-1.7-3.7-1.7,1.6-1.7,3.7Z"/><path class="cls-2" d="M53.9,71.4c0,2.3.9,4.1,2.1,4.1s2-1.8,2-4.1-.9-4.1-2-4.1-2.1,1.8-2.1,4.1Z"/><path class="cls-2" d="M74.4,81c-.6,5.2-5.2,3.7-8.9,3.7"/><path class="cls-2" d="M75.4,89.6c-5.6,2.6-16.9-.2-18-1.4,2.4,3.7,2.3,2.9,4.3,4.2,2,1.4,5.3,2.2,7.4,1.9,3.3-.5,4.9-2,6.3-4.8Z"/><path class="cls-2" d="M41.1,80c.3,1,.5,1.9.8,2.7,1,3.4,1.6,4.8,4.3,8.3.1.2.2.3.4.5"/><path class="cls-2" d="M40.5,68.1c-1.5-.3-2.6-.2-3.4.2-2.5,1.2-1.8,5.1-1,7.7,1,3.4,2.8,6.1,5.6,6.8"/><path class="cls-2" d="M59.9,60.5c-.2.6-.8,1.2-1.6,1.3-.7.1-2.6-.4-3.3-.4-1.9,0-3.4.2-5.5.4-.7,0-1-.4-.7-1,.4-1,1.8-2,4.1-2.6,1.8-.5,7.9-.6,7,2.3Z"/><path class="cls-2" d="M76,58.6c-.9.4-1.5,1.2-1.6,2.1,0,.9.8,1.8,1.7,1.8.7,0,5.4-.5,5.8-.4s.7,0,.9-.2c.2-.2.2-.6.1-.9-.1-.3-.3-.5-.6-.7-1.6-1.5-4.2-2.6-6.4-1.6Z"/><path class="cls-2" d="M88.4,68c.1,0,.2-.1.4-.1.5-.1,1.1.2,1.4.6.4.5.5,1.3.6,1.9.3,2.8-.1,5.7-1.2,8.3-.3.8-.7,1.6-1.3,2.2-.6.6-1.4,1-2.2,1"/><path class="cls-2" d="M72.9,101.3c1.5,9.5-3.9,19-3.9,19,0,0-15.1-12.8-14.8-15.8"/><path class="cls-2" d="M87.3,108.3s0,0,0,0q1.1.5,3.1,2.7c4.1,4.2,7.7,13.1,11.9,19.8-.4,1-.8,1.9-1.1,2.7-1.8,4-3.4,5.3-9.1,7.1-.5.2-1.1.4-1.7.5"/><path class="cls-2" d="M40.4,107.1c-.4.1-1.5.3-2.4.6-3.6,1.4-5.8,5.3-8.6,8-2.1,2-10.1,10.3-10.1,10.3,0,1.4.4,3.3,1.2,5.2,1.1,2.5,2.6,5.1,3.9,6.2,1.6,1.5,2.9,2.4,4.4,3.1,1.3.7,2.8,1.2,4.6,1.9,2.2-2.4,5-6.3,7.6-9.9,0,0,0,0,0,0,1.7-2.4,3.2-4.6,4.3-6.2"/><path class="cls-2" d="M88.9,124.3c.1,5,.2,9.5.2,14.2,0,3.1,0,6.3,0,9.8s0,8.6.3,13.9c.2,6.9.6,14.4,1,20.7.2,3.1.4,6,.7,8.3-2.6,0-12.4,3.5-13.6,2.9-1.2-.6-4.6-6.6-5.2-6.6,0,0-3.4,5.6-6,6.4-2.7.8-6,.2-8.8,0-6.1-.6-12.3-2.1-17.6-5.3-.5-.3-1-.6-1.4-1"/><path class="cls-2" d="M41.1,132.7c0-.2,0-.2,0,0,0,1.2.4,10,.5,11.6.3,3.5.7,7,.4,10.6-.3,5.1-.6,6.4-1,10.8h0"/><path class="cls-2" d="M101.3,133.6c1.9,3.6,6.7,11.5,7.5,12.6,4.1,5.7.7,9.6-4.5,15.2-3.9,4.2-7.4,7.1-9.1,12.3-.7,2.3-1.2,4.2-2,6.5-1,2.9-.4,2.3-2.1,2.7"/><path class="cls-2" d="M92.3,140.9c1.4,2.7,5.1,10.9,5.3,10.4"/><path class="cls-2" d="M89.1,138.5s0,0,0,0c.3,1,1,1.8,1.3,2.7"/><path class="cls-2" d="M101.4,147c-1.6,1.8-2.6,3.2-3.4,4.5-1.2,1.9-1.9,3.6-3.1,6.3-.9,1.9-4.8,4.4-4.8,4.6s0,0,0,0"/><path class="cls-2" d="M28.9,140.7c-1.5,1.3-4.8,5.3-5.6,6.1"/><path class="cls-2" d="M20.5,131.3c-3.1,3.2-9.2,8.6-10.6,11.1-2.9,5.3,2.6,11.5,6.5,16,2.8,3.3,7.9,9.5,10.5,13.2"/><path class="cls-2" d="M34.5,164.6h0s-.2-.2-.4-.3c-1.3-1.2-5.7-5.7-7.5-9-1.8-3.3-2.1-6-3.3-8.5-.6-1.3-1.5-2.6-2.8-3.8"/><path class="cls-2" d="M41.8,167.9c.4.5,1.3,1.3,2.2,2.2,1.9,2,3.7,4.5-.6,5.5.8,2.1-.7,3.5-2,3.7,1.3,1.6-1.1,2.9-2.2,2.9,0,.4,0,.8-.2,1.1-1,2.5-7-1.2-8.3-2.5-2-2-5.1-6.3-3.8-9.2"/><path class="cls-2" d="M33.8,164.1c0,0,.2,0,.3,0,1.9.5,4.8.7,7,1.5,2,.7,3.4,1.9,2.9,4.4,0,0,0,0,0,0"/><path class="cls-2" d="M54.2,104.5c.2-2.3,0-2.3,0-4.9,0-.4,0-.8,0-1.4"/><path class="cls-2" d="M91.1,191.2c1,6.5,6.9,36.7,6.9,43.8"/><path class="cls-2" d="M97.9,235c-1.5.6-2.8,1-3.9,1.4-6,2.1-9.1,2.4-20.3,2.5-2,0-4.3,0-6.9,0-5.4,0-10.2-.3-14.4-.7-9.3-1-15.8-2.8-19.5-4.3-1.7-.7-2.8-1.3-3.3-1.8,0,0,8.6-35.1,10.1-43.4"/><path class="cls-2" d="M38.4,187.5c0-.8.4-2.8.7-4.2,0-.4.1-.8.2-1.1"/><path class="cls-2" d="M73.7,100.8c4.6.3,11.5,4.9,15.4,7.3-.5.2-1.1.2-1.7.3-2.7.2-6-.5-8.4.1,1.5,1.2,3.2,3,4.7,4.2-5.1,2.3-14,8.2-14.3,8.1h-.3c-7.7-2.5-15.5-4.8-23.2-7.2.9-1.5,1.8-3,2.6-4.5-2.8,0-5.6-.6-8.1-2,4.8-3.9,7.6-4.3,13.7-7.5"/><path class="cls-2" d="M69,120.3c0,.1,0,.3,0,.4,3.8,22.8,3,67,3.2,66.8"/><path class="cls-2" d="M87.9,168.9s2.7,16.4-4.2,16.4c-6.3,0-4.9-15.1-4.9-15.1,3.1,0,6.9-1.1,9.1-1.2Z"/><path class="cls-2" d="M61.7,170.1s1.4,16.8-9.1,15.1c-9.7-1.6-4.9-16.2-4.9-16.2,4.7.8,10.7.7,14.1,1.1Z"/><path class="cls-2" d="M63.5,132.8s1.4,16.8-9.1,15.1c-9.7-1.6-4.9-16.2-4.9-16.2,4.7.8,10.7.7,14.1,1.1Z"/><path class="cls-2" d="M84.1,130.3s2.7,16.4-4.2,16.4c-6.3,0-4.9-15.1-4.9-15.1,3.1,0,6.9-1.1,9.1-1.2Z"/><path class="cls-2" d="M87.4,64.5c0,1.3,0,1.9,0,2.1,0,.3,0,0,0,.4h0c0,.3-.2.8-.6,2.3"/><path class="cls-1" d="M37,68.1c-2.2-11.7-1.5-19.1,3.9-26,5.9-7.6,16.4-11.3,27.8-8.4,0,0,6.7-.2,10,1.5,8.1,4.2,13.3,19.2,10,32.5,0,.1,0,.3-.1.4"/><path class="cls-2" d="M87.4,64.5c0-10.9-10.1-20.3-17.6-20.7-4.7-.6-30.2,7.4-29.3,24.3"/><path class="cls-2" d="M94,236.4s0,0,0,0c2.3,11.8,2.3,24.4,2.3,27.3"/><path class="cls-2" d="M73.7,238.9c-.3,8.6,12.1,44.6,13,56.4"/><path class="cls-2" d="M52.5,237.4c0,.3,0,.5-.1.8-1.4,8.9-5.8,22.1-7.5,28.9-1.2,4.8-3.5,12.7-4.3,26.9"/><path class="cls-2" d="M32.9,233.7c0,0,0,.1,0,.2-3.8,15.4-1.8,32.7-4.3,46.5"/><path class="cls-2" d="M96.3,263.8c0,3.1.3,14,1.1,17.5,0,.1,0,.2,0,.3"/><path class="cls-2" d="M30.9,280.4c-.7,0-1.5.1-2.1.4-1.4.5-2.6,1.4-3.2,2.7-.4.9.6,4,0,4.8-.4.6-1.1,1.1-1.7,1.5-.9.5-2,.8-2.9,1.3-2.7,1.3-7.5,4.4-8.3,7.2-.4,1.4-.3,7.5.7,8.6,1.1,1.2,3,1.4,4.7,1.4,5.4.1,10.7.1,16.1,0,1.9,0,5.7.3,7.1-1.1,1.6-1.6.6-11.4-.6-13.4-.8-1.3-1.6-2.1-2.5-2.7-1.1-.6-2.4-.9-4.2-1.4-2.7-.7-6.3-1.3-10-.1-1,.3-2,.7-2.9,1.3"/><path class="cls-2" d="M38.1,291.3c1.9-8.7-4.9-10.9-7.2-10.9"/><path class="cls-2" d="M88.7,291.6c-.6-2.8-.2-5.9,1.7-8,1.3-1.5,4.5-2.5,7.1-2.3,1.2,0,2.3.3,3,.9,1.7,1.5,1.8,4.4,1.9,6.7,0,.4,0,.8-.2,1.2-.4.6-1.3.7-2.1.7-2.4,0-6.9,0-9.2.5-.4.1-.8.2-1.2.4-1.5.7-2.2,1.9-3,3.6-1,2.1-1.6,11.3.4,12.5,1.4.9,19.2,1.5,24.2,1.2.5,0,3.3-.7,3.8-.9,1.5-.7.8-9.3,0-10.7-1.8-3.5-9-6.4-13-7.4"/><path class="cls-4" d="M47.6,37.5c2.1-.6,4.3-1.6,3.2-4.4s-1.4-1.3-2.4-1.3c-1,0-1.9.3-2.8.8.8-3.3-2.9-4.3-4.2-1.2-1.1-1.4-1.8-3.3-4.8-2.2-2.4,1.1-1.6,2.8-1.5,3.8-1.4-.6-3.2.1-3.8,1.5s.2,3.1,1.6,3.7c-1.1.5-2.1,1.6-2,2.8s2,1.8,3.2,1.5c0,.9.4,2.9,1.2,3.4s2.3-.5,3.1-1c1.5,4.4,4.4,0,4.6-1.6"/><path class="cls-3" d="M43.1,40.1c1-1.7,2.8-2.9,4.8-3.3.4,0,.8-.1,1.2.1.8.6,0,2,.8,2.7-2.8,1.4-4.1,3.8-4.8,6.5-1.3,0-2.6-.1-3-1.5-.4-1.4.2-3.3,1-4.5Z"/><path class="cls-4" d="M87,43.4c.1,2,.6,4.1,3.5,3.8s1.6-.9,1.8-1.8c.3-.8.1-1.7-.1-2.6,3,1.4,4.7-1.5,2.1-3.4,1.6-.6,3.5-.8,3.2-3.6-.5-2.4-2.3-2-3.3-2.1.9-1.1.6-2.8-.6-3.7-1.2-.8-3-.6-3.8.5-.2-1.1-1.1-2.2-2.3-2.3-1.2-.2-2.2,1.3-2.1,2.5-.9-.3-2.9-.3-3.5.3s0,2.1.3,2.9c-4.5.3-1,3.8.5,4.3"/><path class="cls-3" d="M85.2,39.4c1.3,1.2,2.1,3,2,4.7,0,.3,0,.7-.4,1-.7.6-1.9-.4-2.6.1-.7-2.6-2.6-4.3-5-5.5.3-1.1.7-2.2,2-2.2s3,.9,4,1.8Z"/><path class="cls-2" d="M70.5,43.7c.7-3.4-.1-7.1-2.1-10"/></svg>