<?xml version="1.0" encoding="UTF-8"?><svg id="latinAmerica" xmlns="http://www.w3.org/2000/svg" width="235" height="321.9" viewBox="0 0 235 321.9"><defs><style>.cls-1{fill:#2e1617;}.cls-1,.cls-2,.cls-3,.cls-4,.cls-5,.cls-6,.cls-7,.cls-8,.cls-9,.cls-10,.cls-11{stroke-linecap:round;stroke-linejoin:round;}.cls-1,.cls-2,.cls-3,.cls-5,.cls-6,.cls-7,.cls-8,.cls-10,.cls-11{stroke:#000;}.cls-2,.cls-4{fill:#c95f80;}.cls-3{fill:#d2809b;}.cls-4,.cls-9{stroke:#231f20;}.cls-5{fill:#90a5c8;}.cls-6{fill:#8ab0d2;}.cls-7{fill:#875239;}.cls-8{fill:#fff;}.cls-9,.cls-10{fill:none;}</style></defs><path class="cls-4" d="M104.9,133.9c-3-9.2-7.3-17.9-11.6-26.6-1.9-3.9-4.2-8.2-8.3-9.7h0c-.6.3-1.1.5-1.7.6-1.8.4-3.6.2-5.3.3-1.5,0-2.9.3-4.3.7h0c-5,11.5-3.9,20.7-2.8,32.9-1.5-.4-2-1.7-2.3-3.2-1.9-9.1-2-17.7.5-27.8-2.4,1.3-4.5,3.1-6.2,5.3-.3-2.1-1.3-4.2-2.6-5.8-3,4.3-4.6,9.4-5.5,14.6-.8,5.2-.9,10.5-.9,15.7-3.5-10.6-1.7-22.9,4.7-32.1h0c-.9-.8-1.8-1.4-2.9-1.9-1.7-.8-3.9-1.6-3.9-3.5s0-.4,0-.6c-8.2,0-21.6,15-22.1,15.5-3.9,4.1-9.5,10.2-12.8,14.6-5.6,7.4-8.2,12.9-10.3,19.7,4-2.2,9.2-1.9,12.9.7,1.6-3.5,3.3-6.9,6.3-11.8.6-.9,1.3-1.8,2.3-2.4,5.4-3.8,12.1-10.2,15.4-12.7-.2,3.2.1,7.2,1.5,12.1.4,4.2.2,10.3,0,13.9-.1,1.8.6,16.3.3,18.3h0c0-.2,0-.4,0-.5,3.7-1.2,9.6-1,14.9-.3h0c.1,0,.3,0,.4,0,0,0,.2,0,.3,0,.2,0,.3,0,.5,0h0c2.4.3,4.6.7,6.4,1.1,2.2,0,4.5.2,6.8.3,2.2,0,4.5,0,6.6-.1,3-.3,6.2-.8,8.5-1.8-.9-3.5-1.3-3.6-1.7-6.2v-.3c-2.1.6-4.1,1.2-6.1,1.6-1.6.4-3.1.7-4.7,1-.7.1-2.2.7-2.8.3-.2-.2-.4-.6-.5-1.2h-.3c-.1.1-.2.2-.4.3-.1,0-.3.2-.5.2,0,0-.2,0-.3.1-.3.1-.6.3-.9.4-.2,0-.4.2-.7.3-.2,0-.5.2-.7.3-.2,0-.3.1-.5.2-.4.1-.7.2-1.1.3-2.4.7-5,1.2-6.9,1.1-.2,0-.3,0-.5,0-.1,0-.2,0-.3,0-.2,0-.3,0-.5,0-.1,0-.2,0-.3-.1,0,0-.1,0-.2,0,0,0-.1,0-.2-.1,0,0,0,0-.1,0,0,0-.2-.1-.2-.2-1.5-1.8-1.1-13.3,1.5-15.4,2.4-1.9,14,.3,15,3.1h0c2.3-1,4.2-1.8,6-2.5h0c-1.7,3.8-1.9,8.2-.3,11.9h0c9.1-3.5,21.4-9.9,23-14.3.7-1.8.4-4.1-.2-5.9ZM87.1,140.3c0-5.1.4-6.3,1.3-10.1.5-2.1,1.3-3.6,1.9-7.6,1.1,2.4,2.5,5.4,6.1,13.6-3.7,1.9-6.6,3.1-9.3,4.1Z"/><path class="cls-7" d="M94.5,77c-2.1-.4-3.6-.8-5.5-1.2-1.3-.3-2.5-2-2.3-3.7.1-1.2.3-2.3.4-3.5h-.2c-1.6-.3-1.6-.3-4.6-1.1h-.3c-.3,1.1-.7,2.2-1,3.4-.5,1.7-2.5,2.7-4.1,2.5-2.3-.3-4.2-.6-6.7-1.1-2.5-.5-4.1-2.9-3.8-5.5.2-1.3.3-2.4.5-3.5h0c-1.4,0-5-.9-8.1-.7-1,0-2,.2-2.8.6-.8.5-1.4,1.2-1.6,2.1-.7,2.6,2,7.1,4.5,6.6.5,4.4,1.5,7.3,3.4,11,.2.5.5.9.8,1.4,6,6.2,10.7,8.7,14.6,8.9,2.8.2,5.2-.8,7.5-2.5.7-.5,1.4-1.1,2-1.7,1.8-1.7,4.5-4.6,7.6-10.6.2-.4.4-.9.6-1.3-.3,0-.7,0-1,0ZM80.6,86.5c-1.6,0-4-1.1-5.3-2.4-1.3-1.4-1.3-.6-2.6-4,.7,1.1,8.7,4.7,13.3,3.2-1.4,2.1-2.8,3.2-5.3,3.2Z"/><path class="cls-8" d="M85.9,83.3c-1.4,2.1-2.8,3.2-5.3,3.2-1.6,0-4-1.1-5.3-2.4-1.3-1.4-1.3-.6-2.6-4,.7,1.1,8.7,4.7,13.3,3.2Z"/><path class="cls-9" d="M45.6,160.2s0,0,0,0"/><line class="cls-9" x1="87.1" y1="140.3" x2="87.1" y2="140.3"/><path class="cls-9" d="M45.4,160.7s0,0,0,.1"/><path class="cls-9" d="M46.2,104.6c-.5,2.8-2.3,6.3-2.7,11.9"/><path class="cls-5" d="M95.5,169.7c-7.3-3.4-14.5-6.2-20.7-7.7v-.6c2.3,0,4.5,0,6.6-.1,3-.3,6.2-.8,8.5-1.8,2.1,4,3.5,5.1,5.6,10.3Z"/><path class="cls-7" d="M17,163c-2,2.2-13.1,3.1-14.9,2-2.2-1.4.2-9.5,1.7-11.6,0,0,0-.2,0-.3h.2c2.5-2.1,6.2-3.3,9.4-2.7v.5c2.7.7,5.3,10.1,3.5,12.1Z"/><path class="cls-10" d="M51.9,92.8h0"/><path class="cls-3" d="M19.5,143.4c-1.1,2.4-2.3,4.8-3.8,7.8-.7-.4-1.4-.6-2.1-.8-3.2-.7-7,.5-9.4,2.7h-.2c.9-4,1.8-7.4,2.7-10.5,4-2.2,9.2-1.9,12.9.7Z"/><path class="cls-10" d="M75.2,144.8s0,0,0,.1"/><path class="cls-8" d="M106.5,143.1h0c-5.4,3.7-11,7.2-17.2,9.3l-1.1.4c-2,.6-4,1.2-6,1.6v-.3c9-3.6,21.3-9.9,22.9-14.3.7-1.8.4-4.1-.2-5.9-3-9.2-7.3-17.9-11.6-26.6-1.9-3.9-4.2-8.2-8.3-9.7h0c.8-.4,1.5-1,2-1.7h.1c4.1,1.6,6.4,5.9,8.3,9.8,4.3,8.7,8.6,17.4,11.6,26.6.6,1.8,1.6,4.5,1.6,6.4,0,1.9-.9,3-2.2,4.5Z"/><path class="cls-10" d="M99.6,134.5c-1.2.6-2.2,1.2-3.2,1.7"/><path class="cls-10" d="M87.1,140.3h0c-1.6.6-3.1,1.2-4.8,1.8"/><path class="cls-3" d="M82.1,154.1v.3c-1.5.4-3.1.7-4.6,1-.7.1-2.2.7-2.8.3-.2-.2-.4-.6-.5-1.2-.2-.9-.2-2.1-.2-2.5-.2-2.4.3-4.9,1.3-7.2l.5.2c.2-.1.4-.2.7-.3,2.3-1.1,4.2-1.9,6-2.6h0c-1.7,3.8-1.9,8.2-.3,11.9h0Z"/><path class="cls-7" d="M76.3,144.7c-.2.1-.4.2-.7.3l-.5-.2c-1,2.2-1.5,4.7-1.3,7.2,0,.5,0,1.6.2,2.5h-.3c-.1.1-.2.2-.4.3-.1,0-.3.2-.5.2,0,0-.2,0-.3.1-.3.1-.6.3-.9.4-.2,0-.4.2-.7.3-.2,0-.5.2-.7.3-.2,0-.3.1-.5.2-.4.1-.7.2-1.1.3-2.4.7-5,1.2-6.9,1.1-.2,0-.3,0-.5,0-.1,0-.2,0-.3,0-.6-.1-1.1-.3-1.4-.7-1.5-1.8-1.1-13.3,1.5-15.4,2.4-1.9,14,.3,15,3.1h0Z"/><path class="cls-2" d="M109.4,141.1c-1,.7-2,1.4-2.9,2h0c1.3-1.4,2.2-2.6,2.2-4.5,0-1.9-1-4.6-1.6-6.4-3-9.2-7.3-17.9-11.6-26.6-1.9-3.9-4.2-8.2-8.3-9.7h-.1c.2-.3.3-.6.4-.8,0-.2.1-.4.2-.7,2.5.7,5.5,2.6,7.6,5.1,2.2,2.6,6.4,14.9,8.9,20.4,2.8,6.4,8,17.8,5.4,21.2Z"/><path class="cls-10" d="M87.6,94.4c-.1,0-.2,0-.3,0"/><path class="cls-10" d="M90.2,122.7c-1-2.3-1.7-4.1-3.5-9.6"/><path class="cls-10" d="M45.7,159.5c0,.2,0,.5-.1.7"/><path class="cls-7" d="M179.3,211.6h0c-2.9,4.2-5.1,8.8-6.3,13.7-3-1-5.5-1.5-7.8-1.9-.9-.1-1.8-.3-2.7-.4h2.8c0-5.5,1.5-10.8,4.4-15.3,2.9,1.2,6.1,2.5,9.7,3.8Z"/><path class="cls-5" d="M169.6,207.8c-2.9,4.5-4.4,9.8-4.4,15.2h-2.8c-8.3-.8-13.2.1-23.2-8.9-5.6-4.1-12.2-4.2-19.3-6.5-2.2-.7-8.5-1.9-16.5-3.6-9.7-2.1-21.8-4.8-32-8.1,0,0,0,0-.1,0-8.7-3.5-16.2-5.8-21.7-12.9-4-5.2-5.3-13.9-4.2-22.1,0-.2,0-.4,0-.6,3.7-1.2,9.6-1,14.9-.3h0c.1,0,.3,0,.4,0,0,0,.2,0,.3,0,.2,0,.3,0,.5,0h0c.2,0,.3,0,.5,0,2.2.3,4.3.7,5.9,1,2.2,0,4.5.2,6.8.3v.6c6.1,1.4,13.3,4.3,20.6,7.7,18,8.4,36.3,20.1,39.8,22.2,7,4.4,3,2.8,10.4,6.3,10.2,3.7,16.4,6.5,23.8,9.5Z"/><path class="cls-6" d="M222.1,220c-1.7,3.1-5,5.1-8.1,6.7-9.7,5-20.1,8.3-30.5,11.6-1.2.4-2.7.8-3.8.2-.8-.5-1.3-1.3-1.7-2.2-1.7-3.7-3.1-6.5-3.9-10.5,6.7,1.8,9-9.1,9-10.6,0-.8.1-1.4.5-1.9.3-.5.9-.7,1.6-.8,9.6-.6,20.3-1.5,29.9-2,1.7-.1,3.4-.2,4.9.5,3.2,1.5,3.8,6,2,9.1Z"/><path class="cls-10" d="M103.5,203.9s0,0,0,0"/><path class="cls-5" d="M107.3,276.5c-4.9,1.1-10.1.9-15-.4-.6-8.5-2.1-17.2-4.2-24.5-.9-3.1-1-15.4-.5-18.6.4-2.7-.8-5.5-.8-5.5-2.1-4.9-12.7-27.5-15.3-31.6h0c10.2,3.2,22.4,6,32,8,2,4.4,6.2,14.1,6.1,19.4.2,16.9-.5,35.8-2.4,53.2Z"/><path class="cls-10" d="M92.5,290.5c0,.2,0,.4,0,.5h0"/><path class="cls-10" d="M92.6,289.1c0,.4,0,.8,0,1.2"/><path class="cls-7" d="M107.3,276.5c-.3,3-.7,5.9-1.1,8.7-4.2,1.5-8.9,1.7-13.2.4h-.3c0-3.1-.1-6.3-.4-9.6,4.9,1.3,10.1,1.5,15,.4Z"/><path class="cls-8" d="M106.2,285.2c0,.5-.1,1-.2,1.4-1.2.9-1.9,2.3-2.6,3.6-.7,1.3-1.5,2.7-2.9,3.3-2.4,1.2-6.9-.9-7.9-3.3h0c0-.4,0-.8,0-1.2,0,0,0-.2,0-.2,0-1.1,0-2.1,0-3.2h.3c4.3,1.2,9,1.1,13.2-.4Z"/><path class="cls-6" d="M133.4,311.4c-3.2,1.6-7,1.4-10.6,1.1-11-1.1-19.5-3.8-30.1-6.5-1.3-.3-2.7-.8-3.3-1.8-.5-.8-.4-1.7-.2-2.6.6-3.8,1.7-7.5,3.2-11.1h.2s0,0,0-.1c0,0,0,0,0,0h0c1,2.3,5.5,4.5,7.9,3.3,1.4-.7,2.2-2,2.9-3.3.7-1.3,1.4-2.7,2.6-3.6,1.2-.9,2.4-1.1,3.5,0h.1c8.5,4.6,14.7,9,23.2,13.5,1.5.8,3,1.6,3.9,2.9,1.9,2.8-.1,6.7-3.3,8.3Z"/><path class="cls-10" d="M63,84.3c-.1-.1-.2-.3-.4-.4"/><path class="cls-7" d="M98.1,60.3c.1.4.3.8.4,1.1,0,.2,0,.4,0,.5-.7-.3-1.4-.6-2.1-.9,0-.1-.2-.2-.3-.4-1.4-1.3-3.7-2.5-5.9-2.1-.9.1-1.6.6-1.7,1.3,0,.1,0,.3,0,.4h-.3c-.2,1.6-.4,2.9-.6,4.2h-.2s0,0,0,0c-1.3-.3-2.4-.5-4.3-.8h-.1c.3-1.2.7-2.6,1.1-4.1l-1.1-.5c-.6-.3-1.2-.6-1.9-.8.2,0,.3-.2.4-.4,1.4-2-5.7-2.7-7.9-2.7-1.5,0-2.9.2-4,.7-.4.2-.8.4-1.2.6-.1,0-.2.2-.2.2h-.7c0,0-.1,0-.1,0,0,0,0,0,0,0h-.1c-.6,0-1.7.2-2.9.4.2-.4.3-.6.7-1.1h0c0,0,.1,0,.2,0,.6,0,1.2,0,1.7-.2,1.6-.7,1.2-1.9,0-3.2h0c.4-.8.5-1,1-1.6.5.4,1.1.8,1.8.8,1.7,0,1.3-1.7.2-3.7,1.1-1.4,1.7-1.9,2.6-2.4.8.6,2.9,2.1,3.7.6.3-.5,0-1.2-.3-2h0c1.3-.5,1.8-.7,3-.9h0c.2.8.6,1.6,1.2,2.2.7.7,1.7.7,2.5,0,0,0,0-.1,0-.2.1-.8.2-1.6.2-2.4h0c.8,0,1.5,0,2.5.2.3,0,.3,0,.7.1-.1,1.2-.4,2.5.5,3.3.5.5,1.2.6,1.8.5.9-.2,1.2-.5,1.7-1.2,0-.4,0-.7,0-1h0c.8.5,1.2.8,1.9,1.5-.4,1.3-1,3.2,1.1,3.4.5,0,1-.2,1.5-.5h0c.9,1.1,1.4,1.8,2,3h0c-.1,1.2,0,2,.4,1.9.2,0,.3,0,.5,0,.6,1.3.8,2,1.2,3.2-.5.9-.8,1.9-.5,2.7Z"/><path class="cls-10" d="M98.6,60.4c0,.4,0,.7-.1,1"/><path class="cls-7" d="M77.7,93.2h0c-1.7,2.1-3,3.3-5.4,4.5-2.4,1.1-5.2,1.5-7.6.4-2.4-1.1-4-3.8-3.5-6.4h0c.2-.9.3-2.3.5-3.7.2-1.7.4-3.6.6-5.2.2.5.5.9.8,1.4,6,6.2,10.7,8.7,14.6,8.9Z"/><path class="cls-10" d="M62.3,82.8s0,0,0,0"/><path class="cls-10" d="M61.2,91.7c0,0,0,.2,0,.2"/><path class="cls-10" d="M87,76.6c.2,3.8-3.5,2-6.3,1.9"/><path class="cls-10" d="M63.1,84.4s0,0,0-.1"/><path class="cls-10" d="M60.4,63.5c-.5-.5-1.1-.7-1.7-.8"/><path class="cls-1" d="M81.5,57.9c0,.1-.2.3-.4.4-4.1-1.5-8.4-2.1-12.8-1.5h0c0,0,0-.2.2-.2.4-.2.8-.4,1.2-.6,1-.5,2.5-.7,4-.7,2.2,0,9.2.7,7.9,2.7Z"/><path class="cls-1" d="M96.4,61c-2.2-.8-4.5-1.1-6.9-1l-1.1.2c0-.1,0-.3,0-.4.1-.7.9-1.1,1.7-1.3,2.2-.4,4.5.8,5.9,2.1.1.1.2.2.3.4Z"/><path class="cls-1" d="M78.7,43.5h0c-1.2.2-1.7.4-3,.9h0c-.3-.6-.7-1.1-.9-1.5-1.1-2-3.1-4.7-5-6.3,1.3-.7,2-.8,3.4-1.2.2.4.6.8.9,1.1.9.8,2.7,2.6,3.3,3.6.6.8.8,1.9,1.1,2.9,0,.2,0,.3.1.5Z"/><path class="cls-1" d="M101.3,55.4c-.8-.2-2,.9-2.7,2.2-.4-1.2-.6-1.9-1.2-3.2,1.3-.3,2.5-1,3.3-2,.3,1.1.4,1.8.6,3Z"/><path class="cls-10" d="M98,46s0,0,0,0"/><path class="cls-10" d="M69.8,36.6c0,0-.2,0-.3.1"/><path class="cls-10" d="M59.5,44.3s0,0,0,0"/><path class="cls-10" d="M56.1,51.6s0,0,0,0"/><path class="cls-1" d="M89.9,45.2c0,.3,0,.6,0,1-.5.7-.8,1-1.7,1.2-.6.1-1.3,0-1.8-.5-.9-.9-.6-2.1-.5-3.3,0-.4,0-.7,0-1,0-1.3-.7-2.6-1.5-3.6-.8-1-1.8-1.8-2.6-2.9,0-.1-.1-.2-.2-.3-.3-.5-.6-1.2-.3-1.8.3-.6,1-.8,1.7-.8.2,0,.4,0,.6,0,2.3.3,4.4,2.1,5.4,4.4.7,1.5,1,3.1,1,4.7,0,.9,0,1,0,2.8Z"/><path class="cls-1" d="M69.5,51.9c-.7,0-1.2-.3-1.8-.8-.2-.1-.3-.3-.5-.4-1.9-1.7-4.3-3.2-6.3-4.9-.3-.3-1-1-1.5-1.6-.2-.2-.3-.5-.4-.6-.4-.8-.3-2.2.3-3,.1-.2.3-.3.5-.4,1.1-.6,3.3.4,4.4,1.2,0,0,.1,0,.2.1.7.5,3.6,3.9,5.2,6.7,1.1,2,1.5,3.7-.2,3.7Z"/><path class="cls-1" d="M82.6,43.2c0,.8-.1,1.6-.2,2.4,0,0,0,.1,0,.2-.7.7-1.8.7-2.5,0-.6-.6-.9-1.4-1.2-2.2,0-.2,0-.3-.1-.5-.3-1-.5-2.1-1.1-2.9-.7-1-2.5-2.8-3.3-3.6-.3-.3-.7-.7-.9-1.1-.4-.7-.5-1.4-.3-2.2.4-1.1,1.6-1.6,2.6-1.4,1,.2,2.6,2.2,3.2,3.1.2.3.3.5.5.8.4.7.7,1.4,1.1,2.1.7,1.2,1.5,2.3,2,3.6.2.6.3,1.1.3,1.7Z"/><path class="cls-1" d="M67.7,51.2c-.4.7-.5.9-1,1.6h0c-2.3-2.4-7.4-5.2-8.1-5.4-.3-.1-.6-.2-.8-.3.5-1,1-1.8,1.6-2.8.5.6,1.2,1.3,1.5,1.6,1.9,1.7,4.3,3.2,6.3,4.9.2.1.3.3.5.4Z"/><path class="cls-1" d="M66.8,56c-.5.2-1.1.2-1.7.2,0,0-.1,0-.2,0-2.3-.3-6.4-2.9-8.4-4.2-.2-.1-.4-.2-.5-.3-.2-.2-.4-.3-.6-.7-.4-.6-.5-.8-.3-1.5.2-.9.6-2.3,1.4-2.5.5,0,.9,0,1.4,0,.3,0,.6.2.8.3.7.2,5.8,3,8.1,5.5,1.2,1.3,1.6,2.5,0,3.2Z"/><path class="cls-1" d="M91.9,46.4c0,.1,0,.2,0,.3-.7-.6-1.1-1-1.9-1.5h0c0-1.8,0-1.9,0-2.8,0-1.6-.3-3.3-1-4.7,1,.5,1.4.7,2,1,0,.9.5,1.8.8,2.7.6,1.6.6,3.3.2,5Z"/><path class="cls-1" d="M95.8,45.3c0,1,0,2.1-.5,3.1-.2.4-.5.8-.9,1.1-.4.4-.9.6-1.5.5-2.1-.1-1.5-2-1.1-3.4,0-.1,0-.2,0-.3.4-1.7.4-3.4-.2-5-.3-.9-.7-1.7-.8-2.7,0-.9.5-.9,1.4-1.2.6-.2,1.2,0,1.6.5.4.4.7,1.1.9,1.7.4,1.1.6,1.9.8,2.8h0c.1.9.2,1.7.2,2.9Z"/><path class="cls-1" d="M98,45.9h0s0,0,0,0c0,.3-1.2,4.1-1.5,6.5h0c-.7-1.2-1.2-1.9-2-3h0c.4-.3.7-.7.9-1.1.5-1,.5-2,.5-3.1,0-1.1,0-2-.2-2.8.2.2.8.9,1,1.1.7.9.9,1.4,1.4,2.3Z"/><path class="cls-1" d="M101.5,51.1c-.2.5-.4.9-.8,1.3-.8,1-2,1.7-3.3,2-.2,0-.3,0-.5,0-.5,0-.6-.8-.4-1.9.3-2.4,1.4-6.2,1.5-6.5,0,0,0,0,0,0h0c0-.3.2-.5.4-.6.5-.4,1.3,0,1.8.5,1.4,1.4,1.9,3.5,1.3,5.3Z"/><path class="cls-1" d="M102.2,58.5c0,2.8-1.2,3.5-2.1,3.8-.8.3-1.2-.2-1.6-.9-.1-.3-.3-.7-.4-1.1-.2-.8,0-1.8.5-2.7.7-1.3,1.9-2.4,2.7-2.2.2,0,.4.2.5.4.4.6.4,2,.4,2.7Z"/><path class="cls-1" d="M63.4,57.5c-2.1.5-4.5,1.3-6.3,2.5-1,.1-2,.2-2.7-.3-1.1-.8-1.1-2.4-.5-3.7.4-.8.9-1.3,1.6-1.4.2,0,.4,0,.6,0,.9,0,5.4,1.7,7.4,3.1Z"/><path class="cls-1" d="M85.9,42.5c0,.3,0,.7,0,1-.3,0-.3,0-.7-.1-1-.2-1.7-.2-2.5-.2h0c0-.6,0-1.2-.3-1.7-.5-1.3-1.3-2.4-2-3.6-.4-.7-.7-1.4-1.1-2.1,1.2,0,1.2-.1,2.4,0h0c0,.1.1.2.2.3.8,1,1.8,1.9,2.6,2.9.8,1,1.5,2.2,1.5,3.6Z"/><path class="cls-1" d="M72.2,45.8c-.9.5-1.5,1.1-2.6,2.4-1.5-2.8-4.4-6.1-5.2-6.7,0,0-.1,0-.2-.1h0c.8-.9,1.2-1.3,2.1-2h0c.6.9,1.2,1.7,1.7,2.2,1.1,1.2,2.8,3.1,4,4.1Z"/><path class="cls-1" d="M75.9,46.4c-.8,1.5-3,0-3.7-.6-1.3-1.1-2.9-2.9-4-4.1-.5-.5-1.1-1.3-1.7-2.2-.5-.8-1-1.7-1.2-2.4-.2-.9.3-1.5,1.1-1.9.8-.4,1.6,0,2.3.5.3.2.7.5,1,.9,1.9,1.7,3.8,4.4,5,6.3.2.4.6.9.9,1.5.3.7.5,1.4.3,2Z"/><path class="cls-1" d="M83.6,32.9v.3c-.2,0-.4,0-.6,0-.6,0-1.4.2-1.7.8-.3.6,0,1.2.3,1.8h0c-1.2-.2-1.2,0-2.4,0-.1-.3-.3-.6-.5-.8-.6-.9-2.2-2.9-3.2-3.1-1-.2-2.2.3-2.6,1.4-.3.7,0,1.5.3,2.2-1.4.4-2.2.5-3.4,1.2-.3-.3-.7-.6-1-.9-.7-.5-1.6-.9-2.3-.5-.8.4-1.4,1-1.1,1.9.2.6.6,1.5,1.2,2.4h0c-.9.7-1.3,1.1-2.1,1.9h0c-1.1-.7-3.3-1.7-4.4-1.1-.2,0-.4.2-.5.4-1.4-4.1-.1-8.4,2.5-11.8,2.7-3.4,8.5-4.1,12.4-3.4,3.9.7,7.4,3.6,9.3,7.5Z"/><path class="cls-10" d="M59.4,40.9s0-.1,0-.2"/><path class="cls-10" d="M64.3,57.3c0,0,0,.2-.1.2"/><line class="cls-10" x1="84.9" y1="64" x2="84.7" y2="64"/><line class="cls-10" x1="84.5" y1="68.2" x2="84.1" y2="68.1"/><line class="cls-10" x1="87.6" y1="64.4" x2="87.6" y2="64.4"/><line class="cls-10" x1="81.9" y1="67.4" x2="81.9" y2="67.4"/><path class="cls-10" d="M99.8,65.2s0,0,0,0h0s0,0,0,0"/><path class="cls-3" d="M99.2,62.3c-.2-.1-.5-.3-.8-.4-.7-.3-1.4-.6-2.1-.9-2.2-.8-4.5-1.1-6.9-1l-1.1.2h-.3c-.2,1.6-.4,2.9-.6,4.2-.2,1.5-.3,2.8-.5,4.2-.1,1.1-.3,2.2-.4,3.5-.2,1.7,1,3.4,2.3,3.7,1.9.5,3.4.8,5.5,1.2.3,0,.7,0,1,0,1.7-.2,3.2-1.8,3.7-3.9,1.1-4.6,2-8,2.4-9.4l-2.4-1.4ZM98.1,72.8c-.3,1.2-1,2-1.9,2.3-.3,0-.6.1-1,0-2.1-.4-3.6-.7-5.5-1.2-.9-.2-1.5-1.3-1.4-2.5.3-2.9.5-5.2,1-8.9,1.6-.2,5.5.4,8.7,1.8.6.3,1.2.6,1.8.9-.2.7-1,4.8-1.8,7.6Z"/><path class="cls-8" d="M98,64.3c-3.2-1.4-7.1-2-8.7-1.8-.5,3.7-.7,6-1,8.9-.1,1.2.5,2.3,1.4,2.5,1.8.5,3.4.8,5.5,1.2.3,0,.6,0,1,0,.9-.3,1.7-1.1,1.9-2.3.7-2.9,1.6-6.9,1.8-7.6-.6-.3-1.2-.6-1.8-.9ZM94.5,69.4c-.2,1.3-.8,2.2-1.3,2.2-.3,0-.5-.6-.5-1.3,0-.3,0-.7.1-1.1.1-.7.4-1.3.6-1.7.2-.3.4-.5.6-.4.5,0,.6,1.2.4,2.5Z"/><path class="cls-10" d="M68.9,59.3s0,0,0,0h0s0,0,0,0"/><path class="cls-1" d="M64.9,56.1h0c-.3.6-.4.7-.7,1.1-.3,0-.6.1-.9.2-1.9-1.4-6.4-3.1-7.4-3.1-.2,0-.4,0-.6,0,.2-1.6.2-1.4.7-2.9.1.1.3.2.5.3,1.9,1.2,6.1,3.8,8.4,4.2Z"/><path class="cls-10" d="M54.2,65.1c0-.4-.1-.8,0-1.1"/><path class="cls-3" d="M83,59c-.6-.3-1.2-.6-1.9-.8-4.1-1.5-8.4-2.1-12.8-1.5h-.7c0,0-.1,0-.1,0,0,0,0,0,0,0h0v.4c0,.8-.2,3.1-.6,6.1-.1,1.1-.3,2.2-.5,3.5-.4,2.6,1.3,5.1,3.8,5.5,2.5.5,4.4.8,6.7,1.1,1.6.2,3.6-.9,4.1-2.5.3-1.2.7-2.4,1-3.5.4-1.2.7-2.5,1.1-3.9.3-1.2.7-2.6,1.1-4.1l-1.1-.5ZM79.4,69.7c-.3,1.2-1.5,1.9-2.6,1.8-2.2-.3-4.2-.6-6.6-1.1-1.5-.3-2.5-1.8-2.3-3.4.4-2.9,1-7.1,1.1-7.7,5.5-.7,10.6.7,13,1.8-.9,3.6-1.6,5.8-2.5,8.6Z"/><path class="cls-8" d="M68.9,59.3c-.1.7-.7,4.8-1.1,7.7-.2,1.6.8,3.1,2.3,3.4,2.5.5,4.4.8,6.6,1.1,1.2.2,2.3-.6,2.6-1.8.8-2.8,1.6-5,2.5-8.6-2.3-1.1-7.4-2.5-13-1.8ZM76.9,66.2c-.2,1.2-.9,2.1-1.6,2-.5,0-.8-.8-.8-1.7h0c0-.3,0-.5,0-.8.1-.7.4-1.2.7-1.6.3-.3.6-.5.9-.4.6.1.9,1.2.7,2.5Z"/><path class="cls-3" d="M87.6,64.4c-.2,1.5-.3,2.8-.5,4.2h-.2c-1.6-.3-1.6-.3-4.6-1.1h-.3c.4-1.3.7-2.6,1.1-3.9h.1c1.8.4,3,.6,4.3.8h.2Z"/><path class="cls-3" d="M67.4,56.8v.4c0,.8-.2,3.1-.6,6.1h0c-1.4,0-5-.9-8.1-.7-.9-.2-1.9,0-2.8.6-.4.2-.8.5-1.1.8h0s-.7,0-.7,0c0-1.7,1.3-3,2.9-4,1.8-1.2,4.2-2,6.3-2.5.3,0,.6-.2.9-.2,1.3-.3,2.3-.4,2.9-.4h.2Z"/><path class="cls-11" d="M94.5,69.4c-.2,1.3-.8,2.2-1.3,2.2-.3,0-.5-.6-.5-1.3,0-.3,0-.7.1-1.1.1-.7.4-1.3.6-1.7.2-.3.4-.5.6-.4.5,0,.6,1.2.4,2.5Z"/><path class="cls-11" d="M76.9,66.2c-.2,1.2-.9,2.1-1.6,2-.5,0-.8-.8-.8-1.7h0c0-.3,0-.5,0-.8.1-.7.4-1.2.7-1.6.3-.3.6-.5.9-.4.6.1.9,1.2.7,2.5Z"/><path class="cls-10" d="M107.4,276.5c0,0-.1,0-.2,0"/><path class="cls-10" d="M106.2,285.2s0,0,0,0"/><path class="cls-8" d="M183.6,213.2c-.4.5-.5,1.1-.5,1.9,0,1.6-2.3,12.4-9,10.6-.4-.1-.8-.3-1.2-.4,1.2-4.9,3.4-9.5,6.3-13.6h0c1.4.4,2.8.9,4.3,1.5h0Z"/><path class="cls-10" d="M172.9,225.3s0,0,0,0"/><path class="cls-10" d="M169.6,207.7s0,0,0,0"/><path class="cls-3" d="M87.6,94.4c0,.2,0,.5-.2.7-.1.3-.2.5-.4.8-.5.7-1.2,1.3-2,1.7-.6.3-1.1.5-1.7.6-1.8.4-3.6.2-5.3.3-1.5,0-2.9.3-4.3.7-1.6.5-3.1,1.1-4.6,1.9-2.4,1.3-4.5,3.1-6.2,5.3-.3-2.1-1.3-4.2-2.6-5.8-.5-.7-1.1-1.2-1.7-1.8-.9-.8-1.8-1.4-2.9-1.9-1.7-.8-3.9-1.6-3.9-3.5s0-.4,0-.6c.2-.9,1-1.6,1.7-2.1,2.3-1.6,5-2.6,7.8-2.8h.3c-.2,1.5-.3,2.8-.5,3.7h0c-.6,2.6,1.1,5.3,3.5,6.4,2.4,1.1,5.2.8,7.6-.4,2.3-1.1,3.6-2.4,5.4-4.3h0c2.8,0,5.2-1,7.5-2.7l.2.2c1.5.2,2.5,2,2.2,3.5Z"/><path class="cls-8" d="M60.2,100.6c-3,4.3-4.6,9.4-5.5,14.6-.8,5.2-.9,10.5-.9,15.7-3.5-10.6-1.7-22.9,4.7-32.1h0c.6.5,1.2,1.1,1.7,1.7Z"/><path class="cls-8" d="M73.6,99.2c-5,11.5-3.9,20.7-2.8,32.9-1.5-.4-2-1.7-2.3-3.2-1.9-9.1-2-17.7.5-27.8,1.4-.8,3-1.5,4.6-1.9h0Z"/><path class="cls-10" d="M69,101h0"/><path class="cls-10" d="M51.9,141.3c-1.7,3.2-2.5,10.4-1.8,14"/><path class="cls-10" d="M19.8,143.1c0,.2,0,.4.1.6-.1-.1-.2-.2-.4-.3"/><path class="cls-10" d="M6.6,142.7c-.1,0-.3.1-.4.2"/></svg>