<?xml version="1.0" encoding="UTF-8"?><svg id="latinAmerica" xmlns="http://www.w3.org/2000/svg" width="235" height="321.9" viewBox="0 0 235 321.9"><defs><style>.cls-1{fill:none;stroke:#000;stroke-linecap:round;stroke-linejoin:round;}.cls-2,.cls-3,.cls-4,.cls-5,.cls-6,.cls-7,.cls-8{stroke-width:0px;}.cls-3{fill:#313131;}.cls-4{fill:#363d4c;}.cls-5{fill:#42495a;}.cls-6{fill:#acb4c3;}.cls-7{fill:#876554;}.cls-8{fill:#fff;}</style></defs><path class="cls-4" d="M89.7,293.4h0c1.5,2.3,5.3,3.2,7.7,1.6,1.4-.9,2-2.4,2.6-3.9.5-1.4,1-3,2.2-4.1,1.2-1.1,2.4-1.4,3.8-.5h.1s0,0,0,0c10,3.4,15.7,9.4,25.6,12.8,1.7.6,3.5,1.2,4.7,2.5,2.5,2.6,1,6.9-2.1,9-3.2,2.1-7.4,2.5-11.3,2.7-12.1.5-19.9-3.4-32-4.6-1.4-.2-3.1-.4-3.9-1.4-.6-.7-.7-1.7-.7-2.6,0-4,.5-7.9,1.5-11.8h1.6s0,0,0,0c0,.1,0,.3,0,.4Z"/><path class="cls-7" d="M125.5,151.1c1.5,3.3-4.2,11.2-7.1,13.4-2.9,2.2-4.6,3.1-7.6,1-1.4-1-2.8-5.3-3.2-7-.2-.8-.1-1.6.2-2.5.9-2.8,3.7-6,5.6-7.5,2.6-1.9,0-1,3.2-1.7,3.4-1.1,7.5.9,8.9,4.2Z"/><path class="cls-7" d="M116.6,146.8c-3.1.7-.6-.2-3.2,1.7-2,1.4-4.7,4.6-5.6,7.5h-.4c-4.6-6.2-9.5-9.4-15.4-17.9h-.3c-1.5-2.5-4-4.6-5.2-8h-.6c0-.4,0-.7,0-1.1h0c2.7-4.1,7.2-6.9,12.1-7.7.1.7.2,1.3.3,1.9,6.5,6.1,14.6,19.7,18.1,23.5Z"/><path class="cls-5" d="M44.2,250.3c-7.9-1.7-10.9-4.8-18-9-.7-.4-1.5-.9-2.3-1.3,12.7-21.6,3.5-49.1,10.9-68.9,17,5,43.6,3.6,48.4.5h.4c4.8,6.2,22.1,34.3,23.3,44.2,2,17.1,2.2,24.5,2.6,29.2-1.1.3-2.2.5-3.2.8-7.5,1.9-13.4,3.7-19.9,4.3-1.8.2-3.6.3-5.5.3-1-7.7-2.5-36.5-15.9-52h0c-4,15.9-7.6,41.9-15.9,52.8-1.9-.2-3.6-.5-5-.8Z"/><path class="cls-7" d="M106.5,245.8c-.9,8.6-2.6,30.6-4.2,41.3-1.2,1.1-1.7,2.6-2.2,4.1-.5,1.4-1.2,2.9-2.6,3.9-2.4,1.6-6.3.6-7.7-1.6h0c0-.1,0-.2,0-.4,0-4.8-.3-31.4-3.1-42.7h0s0-.3,0-.3h0c6.5-.7,12.4-2.4,19.9-4.3Z"/><path class="cls-3" d="M54.7,63.2c.2,1.7.2,3.6,0,5.3h-.2c-3.3-2.4-6.7-10.6-7.9-15.2-.2-.6-.4-1.2-.7-1.8-.7-1.7-.8-7-.4-8,1.3-3.4.3-5.9,3.1-11.1,1-1.7,3.6-3.6,5.2-4.9,2.5-2.1,2.8-2.6,4.6-5.3,1.5-2.3,4.3-2.6,7-2.2,2.6.3,3-.2,5.7-.7,3.2-.6,4.7-1.6,8.3-1.9,2.7-.2,6.4,1.2,8.3,3,1.2,1.2,2.4,2.3,3.9,3.2,3.1,1.9,7.5,2.5,9.1,5.8.9,2-.4,4.5.6,6.5,1.2,2.5,2.1,6.8.9,9.4-.9,1.9-2.1,3.2-2.7,5.3-.7,2.5-1.2,4-3.2,6.1,0,0-.7,0-.8,0h-.3c.7-2.7,2.4-5.7,3.2-10.8v-.2c0-1.7-.3-3-.6-4-.4-1.3-2.2-3.6-3.4-4.3-2.4-1.4-4.3-1.9-6.8-3.2-2.9-1.5-4.4-1.9-7.7-2.1-5.6-.4-10.6,1.8-13.5,6.2-.6.9-5.7,9.8-6,9.8-1.6-.2-1.4-.4-2.6-3-.7-1.5-3.9-2.4-6-.9-1.2.9-2.2,4.2-2.1,5.9s.7,5.7,2,6.4c1.2.6,2.1.9,3.1.3-.3,2.5-.3,4.9-.1,6.2h0Z"/><path class="cls-7" d="M54.8,56.9c-1.1.6-1.9.3-3.1-.3-1.3-.7-1.9-4.7-2-6.4s.8-5.1,2.1-5.9c2.2-1.5,5.3-.6,6,.9,1.2,2.6,1,2.8,2.6,3,.3,0,5.4-8.9,6-9.8,2.9-4.4,7.9-6.7,13.5-6.2,3.3.2,4.8.6,7.7,2.1,2.5,1.3,4.4,1.8,6.8,3.2,1.2.7,3,2.9,3.4,4.3.3,1,.7,2.3.6,4v.2c-.7,5.1-2.5,8.1-3.2,10.8-.2.7-.3,1.4-.3,2.1,0,2.3-2.1,9-6.6,16.4,0,0-3.3,4.9-7.7,7.3-1.3.8-2.8,1.3-4.3,1.4-.8,0-1.5,0-2.3-.2-5.6-1.2-11.3-7.7-15-11.5-3.3-3.3-3-3.2-4.3-8.2,0-.2,0-.4-.1-.7-.1-1.3-.1-3.7.1-6.2ZM94.9,52.3c0-.9-4.1-4.4-5.6-4.2-1.4.2-2.9,2.5-1.1,3.4.6.3,4.1,1.8,4.8,2.1.9.3,1.8-.5,1.9-1.3ZM91.6,59c.3-1.6,0-3.1-.8-3.3-.8-.2-1.7,1-2,2.6-.3,1.6,0,3.1.8,3.3.8.2,1.7-1,2-2.6ZM81.1,47.9c.7.2,2.8-2.6-.3-3.7-3.2-1.1-9.3-2.2-9.7,1.9,0,.4,7.8,1.1,10,1.7ZM73.2,67c-1.6,6.5,8.4,13.7,11,5.1-4.6-.6-6.8-1.8-11-5.1ZM76.2,54.8c.3-1.6-.1-3-.9-3.2-.8-.2-1.7.9-2.1,2.5-.3,1.6,0,3,.9,3.2.8.2,1.7-.9,2.1-2.5Z"/><path class="cls-5" d="M89.3,89.6c4.8,6.1,7.2,23,8.7,31.7-4.9.7-9.4,3.6-12.1,7.7h0c.2-6.9.2-14.1.3-21.8h0c.7-7.3-.9-14.8-4.8-20.2.4-.3.8-.7,1-1.1.2-.3.3-.7.3-1h.4c2.1.7,3.7,1.3,6.4,4.7Z"/><path class="cls-3" d="M89.3,48.1c1.6-.2,5.7,3.3,5.6,4.2-.1.9-1.1,1.7-1.9,1.3-.7-.2-4.2-1.8-4.8-2.1-1.8-.9-.3-3.3,1.1-3.4Z"/><path class="cls-2" d="M90.7,55.7c.8.2,1.2,1.7.8,3.3-.3,1.6-1.2,2.8-2,2.6-.8-.2-1.2-1.7-.8-3.3.3-1.6,1.2-2.8,2-2.6Z"/><path class="cls-6" d="M41.9,103c1.3-2,1.4-3.4,1.5-5.3.1-1.9,0-3.8.2-5.6.3-1.9,1.2-3.8,2.9-4.6v-.2c9.6,2.6,14.7,6.2,21.9,12,2-4.6,5.7-8.5,10.2-10.8.9-.4,1.8-.9,2.6-1.4,4,5.3,5.5,12.8,4.8,20.2h0c0,7.7,0,14.8-.3,21.8,0,.4,0,.7,0,1-.3,13.4-.9,26.2-1.7,40.5,0,.3-.3.7-.8,1-4.9,3.1-31.4,4.6-48.4-.5-.2,0-.4-.1-.6-.2.7-8.3,0-6.5.9-15.5h0c2,1.3,4,2.7,5.7,4.1h0c-.4,3.9,4.4,7.7,7.3,9.3,2.1,1.1,11.5,3.3,9.8-1.7,1.2-.4,3.3-2.8,1.4-4.2,1.3-.8,2.5-3,.9-5.1,4.4-2.9,1.7-5.1-1.1-6.7-.6-6.5-8.7-3.1-13-3-3.6-1.3-6.7-4.1-9.3-6.8h0c.5-12.2-.1-19-1.3-26.8,1.9-3.8,4-7.9,6.1-11.5h0Z"/><path class="cls-5" d="M81.2,87.1c-.8.6-1.7,1-2.6,1.4-4.5,2.2-8.2,6.1-10.2,10.8-7.1-5.8-12.3-9.4-21.8-12,0,0-.1,0-.2,0-3.1-.8-6-3.7-5.7-6.9,0,0,0,0,0,0,.2-2.5,2.6-4.2,5-5.1,2.4-.9,5-1,7.5-2l.6.2c-.6,2.5-1.6,4.4-2.5,4.9,4.2,7.7,11.8,12.6,14.5,12.7,4.8.1,6.1-2.1,7.7-4.4.6-.9.4-2.2.4-2.2l.2-.8c.8.2,1.5.3,2.3.2,1.5-.1,2.9-.6,4.3-1.4v.2c1.3,0,2,1.2,1.9,2.4,0,.4-.1.7-.3,1-.3.5-.6.8-1,1.1Z"/><path class="cls-3" d="M80.7,44.2c3.1,1,1.1,3.9.3,3.7-2.1-.6-10-1.4-10-1.7.4-4.1,6.5-3,9.7-1.9Z"/><path class="cls-8" d="M84.2,72.1c-2.5,8.6-12.6,1.4-11-5.1,4.1,3.3,6.4,4.5,11,5.1Z"/><path class="cls-2" d="M75.3,51.6c.8.2,1.2,1.6.9,3.2-.3,1.6-1.2,2.7-2.1,2.5-.8-.2-1.2-1.6-.9-3.2.3-1.6,1.2-2.7,2.1-2.5Z"/><path class="cls-7" d="M74.1,83.5l-.2.8s.2,1.4-.4,2.2c-1.6,2.3-2.9,4.5-7.7,4.4-2.7,0-10.4-4.9-14.5-12.7,1-.6,1.9-2.5,2.5-4.9.4-1.5.7-3.1.8-4.8.2-1.8.2-3.6,0-5.3h0c0,.3,0,.5.1.7,1.2,5,1,4.9,4.3,8.2,3.8,3.7,9.4,10.2,15,11.5Z"/><path class="cls-7" d="M46.2,148.1c4.3-.2,12.4-3.5,13,3,2.8,1.6,5.5,3.8,1.1,6.7,1.6,2.1.4,4.3-.9,5.1,2,1.4-.2,3.8-1.4,4.2,1.7,5-7.7,2.8-9.8,1.7-2.9-1.5-7.7-5.3-7.3-9.2h0c-1.7-1.5-3.7-2.9-5.7-4.2-2.7-1.8-5.5-3.6-7.9-5.2-.2-.1-2.7-2.2-4.1-3.3h0c-5.7-4-13.8-10.9-12.5-17.8,0-.3.8-3.2,2.4-7.5h0c5.9-1.1,12.2,1.1,16.1,5.6-.2.4-.5.7-.7,1-1.1,2.1,0,.2-1,2.1l-.6.2c1.6,1.2,3,2.9,5,5.2,1.4,1.6,3,3.7,5,5.7,2.6,2.8,5.7,5.5,9.3,6.8Z"/><path class="cls-4" d="M12.5,289.5h.6c.3,2.8,9.6,2.9,10.7,1.7,0,0,.1-.1.2-.2h0c1.1-1.1,2.2-2.2,3.8-2.8,1.5-.6,2.7-.5,3.6.6h-.3c7.2,12.7,4.6,12.7,15.6,18.3,1.5.8,3.3.2,3.7,1.8,2,7.9-2.2,12.3-9.5,10.8-11.5-2.3-17.8-5.4-35.3-16.1-1.1-.7-2.5-1.4-2.8-2.6-.2-.9.2-1.8.6-2.6,1.7-3.6,5.5-6.9,8.1-10.1l1.2.2c0,.3-.1.6-.2.9Z"/><path class="cls-5" d="M46.6,87.3v.2c-1.7.9-2.6,2.8-2.9,4.6-.3,1.9-.1,3.8-.2,5.6-.1,1.9-.2,3.2-1.5,5.3h0c-2.1,3.6-4.2,7.6-6.1,11.5-2.6,5.2-4.9,9.9-6.5,12.5-3.9-4.5-10.3-6.7-16.1-5.6h0c4.5-12.6,14.2-36.6,18.7-38.4,3.8-1.6,6.4-1.8,9-2.6h0c-.2,3.2,2.7,6.1,5.7,6.9,0,0,.1,0,.2,0Z"/><path class="cls-7" d="M13.1,289.6h-.6c0-.4.1-.7.2-1,2.4-11.1,7.5-38.7,13.5-47.3,7.1,4.2,10,7.3,18,9-5.1,8.9-14.1,33.4-20.3,40.6h0s.1,0,.1,0c0,0-.1.1-.2.2-1.2,1.2-10.4,1-10.7-1.6Z"/><path class="cls-1" d="M54.6,68.5c-3.3-2.4-6.7-10.6-7.9-15.2-.2-.6-.4-1.2-.7-1.8-.7-1.7-.8-7-.4-8,1.3-3.4.3-5.9,3.1-11.1,1-1.7,3.6-3.6,5.2-4.9,2.5-2.1,2.8-2.6,4.6-5.3,1.5-2.3,4.3-2.6,7-2.2,2.6.3,3-.2,5.7-.7,3.2-.6,4.7-1.6,8.3-1.9,2.7-.2,6.4,1.2,8.3,3,1.2,1.2,2.4,2.3,3.9,3.2,3.1,1.9,7.5,2.5,9.1,5.8.9,2-.4,4.5.6,6.5,1.2,2.5,2.1,6.8.9,9.4-.9,1.9-2.1,3.2-2.7,5.3-.7,2.5-1.2,4-3.2,6.1,0,0-.7,0-.8,0"/><path class="cls-1" d="M98.4,45.8c-.7,5.1-2.5,8.1-3.2,10.8-.2.7-.3,1.4-.3,2.1,0,2.3-2.1,9-6.6,16.4,0,0-3.3,4.9-7.7,7.3-1.3.8-2.8,1.3-4.3,1.4-.8,0-1.5,0-2.3-.2-5.6-1.2-11.3-7.7-15-11.5-3.3-3.3-3-3.2-4.3-8.2,0-.2,0-.4-.1-.7-.1-1.3-.1-3.7.1-6.2h0"/><path class="cls-1" d="M85.9,65.8c-.2,2.8-5.9.8-9-.5"/><path class="cls-1" d="M88.7,58.3c-.3,1.6,0,3.1.8,3.3.8.2,1.7-1,2-2.6.3-1.6,0-3.1-.8-3.3-.8-.2-1.7,1-2,2.6Z"/><path class="cls-1" d="M73.2,54.1c-.3,1.6,0,3,.9,3.2.8.2,1.7-.9,2.1-2.5.3-1.6-.1-3-.9-3.2-.8-.2-1.7.9-2.1,2.5Z"/><path class="cls-1" d="M84.2,72.1c-4.6-.6-6.8-1.8-11-5.1"/><path class="cls-1" d="M84.2,72.1c-2.5,8.6-12.6,1.4-11-5.1"/><path class="cls-1" d="M54.6,62.3c0,.3,0,.6.1.9.2,1.7.2,3.6,0,5.3-.1,1.7-.4,3.3-.8,4.8-.6,2.5-1.6,4.4-2.5,4.9"/><path class="cls-1" d="M51.4,78.2c4.2,7.7,11.8,12.6,14.5,12.7,4.8.1,6.1-2.1,7.7-4.4.6-.9.4-2.2.4-2.2"/><path class="cls-1" d="M41.9,102.9c-2.1,3.6-4.2,7.7-6.1,11.5-2.6,5.2-4.9,9.9-6.5,12.5-.2.4-.5.7-.7,1"/><path class="cls-1" d="M40.6,80.3c-2.6.8-5.2,1-9,2.6-4.5,1.8-14.2,25.9-18.7,38.4-1.5,4.3-2.5,7.3-2.4,7.5"/><path class="cls-1" d="M35.1,155.4c-.9,9-.2,7.3-.9,15.5.2,0,.4.1.6.2,17,5,43.6,3.6,48.4.5.5-.3.8-.6.8-1,.8-14.3,1.4-27,1.7-40.5,0-.4,0-.7,0-1,.2-6.9.2-14.1.3-21.8"/><path class="cls-1" d="M35.7,114.5c1.1,7.8,1.7,14.6,1.3,26.7"/><path class="cls-1" d="M82.9,85c2.1.6,3.7,1.2,6.4,4.6,4.8,6.1,7.2,23,8.7,31.7.1.7.2,1.3.3,1.9"/><path class="cls-1" d="M91.9,138.1c5.9,8.5,10.9,11.7,15.4,17.8"/><path class="cls-1" d="M86.5,130.1c1.2,3.4,3.7,5.5,5.2,8"/><path class="cls-1" d="M98.4,123.3c6.5,6.1,14.6,19.7,18.1,23.5"/><path class="cls-1" d="M116.6,146.8c-3.1.7-.6-.2-3.2,1.7-2,1.4-4.7,4.6-5.6,7.5-.3.9-.4,1.8-.2,2.5.4,1.7,1.8,6,3.2,7,3,2.1,4.7,1.2,7.6-1,2.9-2.2,8.6-10.1,7.1-13.4-1.5-3.3-5.5-5.3-8.9-4.2"/><path class="cls-1" d="M98.4,45.6c0-1.7-.3-3-.6-4-.4-1.3-2.2-3.6-3.4-4.3-2.4-1.4-4.3-1.9-6.8-3.2-2.9-1.5-4.4-1.9-7.7-2.1-5.6-.4-10.6,1.8-13.5,6.2-.6.9-5.7,9.8-6,9.8-1.6-.2-1.4-.4-2.6-3-.7-1.5-3.9-2.4-6-.9-1.2.9-2.2,4.2-2.1,5.9s.7,5.7,2,6.4c1.2.6,2.1.9,3.1.3.1,0,.2-.1.3-.2"/><path class="cls-1" d="M28.5,128c-1.1,2.1,0,.2-1,2.1"/><path class="cls-1" d="M22.4,146.1c0,0,.4.3.8.7,1.3,1.1,3.9,3.2,4.1,3.3,2.4,1.6,5.2,3.3,7.9,5.2,2,1.4,4,2.8,5.7,4.2"/><path class="cls-1" d="M10.6,128.9c-1.4,6.9,6.8,13.8,12.5,17.9"/><path class="cls-1" d="M46.8,148.3c-.2,0-.5-.2-.7-.2-3.6-1.3-6.7-4.1-9.3-6.8-1.9-2.1-3.6-4.2-5-5.7-2.1-2.3-3.5-4-5-5.2-1.8-1.4-3.7-2.2-6.9-2.8"/><path class="cls-1" d="M56,149.3c.7.5,1.9,1,3.1,1.7,2.8,1.6,5.5,3.8,1.1,6.7,1.6,2.1.4,4.3-.9,5.1,2,1.4-.2,3.8-1.4,4.2,1.7,5-7.7,2.8-9.8,1.7-2.9-1.5-7.7-5.3-7.3-9.2"/><path class="cls-1" d="M46,148.1c0,0,.1,0,.2,0,4.3-.2,12.4-3.5,13,3,0,0,0,0,0,0"/><path class="cls-1" d="M71.1,46.1c0,.4,7.8,1.1,10,1.7.7.2,2.8-2.6-.3-3.7-3.2-1.1-9.3-2.2-9.7,1.9Z"/><path class="cls-1" d="M88.2,51.5c.6.3,4.1,1.8,4.8,2.1.9.3,1.8-.5,1.9-1.3,0-.9-4.1-4.4-5.6-4.2-1.4.2-2.9,2.5-1.1,3.4Z"/><line class="cls-1" x1="86.6" y1="250.1" x2="86.6" y2="250.4"/><line class="cls-1" x1="11.6" y1="288.4" x2="12.7" y2="288.6"/><line class="cls-1" x1="24" y1="290.9" x2="24.1" y2="291"/><path class="cls-1" d="M35,170.9c0,0,0,.1,0,.2-7.4,19.8,1.7,47.3-10.9,68.9.8.5,1.6.9,2.3,1.3,7.1,4.2,10,7.3,18,9,1.5.3,3.1.6,5,.8,8.3-10.9,11.9-36.9,15.9-52.8.9-3.6,1.8-6.7,2.8-8.9"/><path class="cls-1" d="M44.4,250c0,0-.1.2-.2.3-5.1,8.9-14.1,33.4-20.3,40.6"/><path class="cls-1" d="M26.3,241.3s0,0,0,0c-6,8.6-11.2,36.2-13.5,47.3,0,.3-.1.6-.2.9,0,0,0,.2,0,.3"/><path class="cls-1" d="M65.2,198.4c13.4,15.5,14.8,44.3,15.9,52,1.9,0,3.7,0,5.5-.3,6.5-.7,12.4-2.4,19.9-4.3,1-.3,2.1-.5,3.2-.8-.4-4.8-.6-12.1-2.6-29.2-1.2-9.9-18.5-38-23.3-44.1"/><path class="cls-1" d="M89.8,293.8h0"/><path class="cls-1" d="M86.6,250.4h0c2.8,11.3,3.1,37.8,3.1,42.7,0,.1,0,.3,0,.4,0,.2,0,.3,0,.4"/><path class="cls-1" d="M106.5,245.8c-.9,8.6-2.6,30.6-4.2,41.3"/><path class="cls-1" d="M89.8,293.4c1.5,2.3,5.3,3.2,7.7,1.6,1.4-.9,2-2.4,2.6-3.9.5-1.4,1-3,2.2-4.1,1.2-1.1,2.4-1.4,3.8-.5"/><path class="cls-1" d="M88.1,293.1c-1.1,3.9-1.6,7.9-1.5,11.8,0,.9,0,1.9.7,2.6.9,1,2.5,1.2,3.9,1.4,12,1.3,19.8,5.1,32,4.6,4-.2,8.2-.6,11.3-2.7,3.2-2.1,4.7-6.4,2.1-9-1.2-1.2-3-1.9-4.7-2.5-10-3.4-15.7-9.4-25.6-12.8h0"/><path class="cls-1" d="M13.1,289.6h0c.3,2.7,9.6,2.8,10.7,1.6,0,0,.1-.1.2-.2h0c1.1-1.1,2.2-2.2,3.8-2.8,1.5-.6,2.7-.5,3.6.6,0,0,.1.2.2.3"/><path class="cls-1" d="M11.6,288.4c-2.7,3.1-6.4,6.4-8.1,10.1-.4.8-.8,1.7-.6,2.6.3,1.2,1.7,1.9,2.8,2.6,17.4,10.7,23.7,13.8,35.3,16.1,7.3,1.5,11.5-2.9,9.5-10.8-.4-1.5-2.2-1-3.7-1.8-11-5.7-8.4-5.6-15.6-18.2"/><path class="cls-1" d="M13.1,121.4c5.9-1.1,12.2,1.1,16.1,5.6.1.1.2.2.3.3"/><path class="cls-1" d="M98.1,121.3s0,0,0,0c-4.9.7-9.4,3.6-12.1,7.7"/><path class="cls-1" d="M53.3,73.1c-2.6,1-5.2,1.1-7.5,2-2.4.9-4.8,2.6-5,5.1,0,0,0,0,0,0-.2,3.1,2.7,6.1,5.7,6.9,0,0,.1,0,.2,0,9.6,2.6,14.7,6.2,21.8,12,2-4.6,5.7-8.5,10.2-10.8.9-.4,1.8-.9,2.6-1.4.4-.3.8-.7,1-1.1.2-.3.3-.7.3-1,.1-1.2-.6-2.5-1.7-2.4"/><path class="cls-1" d="M46.6,87.5c-1.7.9-2.6,2.8-2.9,4.6-.3,1.9-.1,3.8-.2,5.6-.1,1.9-.2,3.2-1.5,5.3,0,0,0,0,0,0"/><path class="cls-1" d="M81.2,87.1s0,0,0,0c4,5.3,5.5,12.8,4.8,20.2,0,.1,0,.3,0,.4"/></svg>