<?xml version="1.0" encoding="UTF-8"?><svg id="latinAmerica" xmlns="http://www.w3.org/2000/svg" width="235" height="321.9" viewBox="0 0 235 321.9"><defs><style>.cls-1{stroke-linecap:round;stroke-linejoin:round;}.cls-1,.cls-2{fill:none;stroke:#000;}.cls-2{stroke-miterlimit:10;}.cls-3,.cls-4,.cls-5,.cls-6,.cls-7,.cls-8,.cls-9{stroke-width:0px;}.cls-4{fill:#313131;}.cls-5{fill:#363d4c;}.cls-6{fill:#42495a;}.cls-7{fill:#acb4c3;}.cls-8{fill:#876554;}.cls-9{fill:#fff;}</style></defs><path class="cls-5" d="M226.6,196.4c3.2,1.3,3.8,5.6,2,8.6-1.8,3-5.1,5-8.3,6.6-9.9,5-20.6,8.5-31.2,12-1.3.4-2.7.8-3.9.3h-.4c-.4-.4-.7-.9-.9-1.4-1.8-3.5-3.1-7.2-3.9-11h0c0,0,0-.2,0-.3,1.1,4,11.8-7,11.1-8.4s-1.2-2.3-1.2-3.8c.4,0,.8,0,1.2-.1h0c9.6-.8,21.1-2.1,30.5-2.9,1.7-.2,3.5-.3,5,.3Z"/><path class="cls-8" d="M191.1,202.8c.7,1.4-10.1,12.4-11.1,8.4,0,0,0,.2,0,.3h-.2s0,0,0,0c-17.6-7-31.2-3.6-39.5-7.8,1.4-5.9,4.8-12.9,7-17.7,12.7,4.5,28.4,8.1,42.5,13,0,1.5.5,2.5,1.2,3.8Z"/><path class="cls-6" d="M47.8,168c-.1-1.6,0-3.4,0-5.2-1.5-10.9,16.7-6.7,34.8-3,9,1.9,11.4,4,15.9,5.1h0c12.7,4.1,50.7,16.9,50,18.4-.3.8-.7,1.7-1.2,2.6-2.3,4.9-5.6,11.8-7,17.7h0c-.2.9-.4,1.7-.5,2.5-.1.8-15-2.6-31.6-6.5-17.2-4-36.3-8.6-42.7-9.9-2.4-.6-4.4-1.2-5.6-1.6-5-2.4-11.5-8.8-12.2-20.2Z"/><path class="cls-5" d="M130.5,298.4c17.7,7.8,1,16-7.3,15.1-11.6-1.3-25.3-2.6-37.8-4.9-1.4-.2-2.8-1.1-3.3-2.3-.4-.9-.2-1.9,0-2.9.9-4.1,1.5-10,3.4-13.8.2.5.5,1.1,1,1.6,1.8,2,5.3,3.5,7.4,2.6,1.5-.7,2.5-2.1,3.3-3.5.8-1.4,1.6-2.8,3-3.8,1.4-.9,2.6-.9,3.7.3h.1c8.4,4.6,16.1,6.8,26.7,11.5Z"/><path class="cls-4" d="M74.8,65.9c.2,1.7.2,3.4,0,5.2h-.2c-3.3-2.4-6.8-10.6-7.9-15.2-.2-.6-.4-1.2-.7-1.8-.7-1.7-.8-7-.4-8,1.3-3.4.3-5.9,3.1-11.1,1-1.7,3.7-3.7,5.2-4.9,2.5-2.1,2.7-2.6,4.5-5.3,1.5-2.3,4.3-2.2,7-2.2,3.4,0,3.5-.2,6.2-.7,3.2-.6,4.1-1.5,7.7-1.9,2.7-.2,6.4,1.2,8.3,3,1.2,1.2,2.4,2.3,3.9,3.2,3.1,1.9,7.5,2.5,9.1,5.8.9,2-.4,4.5.6,6.5,1.2,2.5,2.1,6.8.9,9.4-.9,1.9-2.1,3.2-2.7,5.3-.7,2.5-1.2,4-3.2,6.1,0,0-.7,0-.8,0h-.3c.7-2.7,2.4-5.7,3.2-10.8v-.2c0-1.7-.3-3-.6-4-.4-1.3-2.2-3.6-3.4-4.3-2.4-1.4-4.3-1.9-6.8-3.2-2.9-1.5-4.4-1.9-7.7-2.1-5.6-.4-10.6,1.8-13.5,6.2-.6.9-5.7,9.8-6,9.8-1.6-.2-1.4-.4-2.6-3-.7-1.5-3.9-2.4-6-.9-1.2.9-2.2,4.2-2.1,5.9,0,1.8.7,5.7,2,6.4,1.2.6,2.1,1,3.1.3-.3,2.6-.3,5.1,0,6.4h0Z"/><path class="cls-8" d="M74.9,59.5c-1.1.6-1.9.3-3.1-.3-1.3-.7-1.9-4.7-2-6.4-.1-1.7.8-5.1,2.1-5.9,2.2-1.5,5.3-.6,6,.9,1.3,2.6,1,2.8,2.6,3,.3,0,5.4-8.9,6-9.8,2.9-4.4,7.9-6.7,13.5-6.2,3.3.2,4.8.6,7.7,2.1,2.5,1.3,4.4,1.8,6.8,3.2,1.2.7,3,2.9,3.4,4.3.3,1,.7,2.3.6,4v.2c-.7,5.1-2.5,8.1-3.2,10.8-.2.7-.3,1.4-.3,2.1,0,2.3-2.1,9-6.6,16.4,0,0-2.7,3.9-6.4,6.5-1.7,1.2-3.6,2.1-5.6,2.2-1.1,0-2.3-.1-3.4-.5-5.2-1.8-10.4-7.7-13.9-11.2-3.3-3.3-3-3.2-4.3-8.2,0-.1,0-.3,0-.5-.2-1.3-.2-3.8,0-6.4ZM115,54.8c.1-.9-3.8-4.6-5.3-4.3-1.3.2-2.7,2.6-1,3.6.6.3,3.9,1.9,4.5,2.2.8.3,1.7-.5,1.8-1.4ZM111.7,61.6c.3-1.6,0-3.1-.9-3.3-.8-.2-1.7,1-2,2.6-.3,1.6,0,3.1.8,3.3.8.2,1.7-1,2-2.6ZM101.3,50.8c.8.2,2.8-2.8-.3-3.9-3.3-1.1-9.5-2.4-9.9,2,0,.4,8,1.2,10.2,1.9ZM93.3,69.6c-1.6,6.5,8.5,13.7,11,5.1-4.6-.6-6.8-1.8-11-5.1ZM96.3,57.4c.3-1.6-.1-3-.9-3.2-.8-.2-1.7.9-2.1,2.5-.3,1.6,0,3,.9,3.2.8.2,1.7-.9,2.1-2.5Z"/><path class="cls-6" d="M116,225.3c.6,9.8-3.2,17.2-3.5,22.2-1.3.2-2.5.4-3.6.6-7.7,1.2-11.4,1.4-21.1.4-.9,0-1.8-.2-2.8-.3,0-6.5,3.6-13.5,1.5-22.9-2.7-11.7-16-25.8-21-35.4,6.4,1.3,25.5,5.8,42.7,9.9l-.3,1c1.4,5,7.5,17.1,7.9,24.6Z"/><path class="cls-4" d="M109.7,50.5c1.5-.2,5.4,3.4,5.3,4.3,0,.9-1,1.7-1.8,1.4-.6-.3-3.9-1.8-4.5-2.2-1.7-.9-.3-3.4,1-3.6Z"/><path class="cls-6" d="M112.1,104.3c.9,7.9,1.3,14.1,1.2,18.7h-.2c-4.8-2.4-11.4-2.4-16.3-.2h-.6c-.4-4.3-.9-15.1-1-20.2.8-2.7,1-5.6.6-8.4h0c2.8-1.3,5.4-3.7,6.4-6.5h0c.7.1,6.2,3.1,6.6,4.4,1.1,3.3,2.7,8.2,3.2,12.2Z"/><path class="cls-8" d="M110.6,133.6h0c-5.1,2.7-9,4-12.6,4.6-4.6.8-8.6.5-13.5.4v-.2c-3.8,0-8.8-.7-14.7-1.2h-.2c-3,1.1-14,1.5-15.2-1.5-1-2.5,3.2-15.2,6.5-16.8,3.1-1.5,14.3,4.5,14.4,7.9v.3c9.3-.1,8.1.4,21-3.1,0-.3,0-.7-.1-1.1h.6c4.9-2.3,11.4-2.3,16.3,0h.2c-.1,6.4-1.1,9.8-2.8,10.6Z"/><path class="cls-3" d="M110.8,58.3c.8.2,1.2,1.7.9,3.3-.3,1.6-1.2,2.8-2,2.6-.8-.2-1.2-1.7-.8-3.3.3-1.6,1.2-2.8,2-2.6Z"/><path class="cls-8" d="M108.9,248.1v.3c-3,10.7-5.2,27.7-9.2,37.9h0s.3.3.3.3c-1.4.9-2.2,2.4-3,3.8-.8,1.4-1.8,2.8-3.3,3.5-2.1.9-5.6-.6-7.4-2.6-.3-10.9-2.1-32.5,1.5-42.7,9.7,1,13.4.8,21.1-.4Z"/><path class="cls-6" d="M71.9,80.4h0c-2.4,8.1,3.5,10.4,8,11.8,6.2,1.9,12.9-.9,13-6.4,1.1.4,2.3.6,3.4.5,2-.1,3.9-1,5.6-2.2h.5c.2,1.3,0,2.5-.3,3.7-1,2.8-3.5,5.2-6.4,6.4-.2,0-.3.1-.5.2-4.2,1.7-8.9,1.6-13.4,2.2-4.5.6-8.6,1-10.9,4.9,1.7-5.5-.4-10.5-4.3-14.7-1.2-1.3-2.6-2.5-3.7-3.9-.9-1.2-1.6-2.5-1.6-4,0-.6.1-1.2.4-1.7.7-1.7,2.3-3,4-3.7,2.3-.9,6-.1,8.5,0h.2c-.5,3.1-1.5,5.8-2.5,6.9Z"/><path class="cls-4" d="M101,46.9c3.1,1.1,1.1,4.1.3,3.9-2.2-.7-10.2-1.5-10.2-1.9.4-4.4,6.6-3.2,9.9-2Z"/><path class="cls-9" d="M104.3,74.7c-2.5,8.6-12.6,1.4-11-5.1,4.2,3.3,6.4,4.5,11,5.1Z"/><path class="cls-7" d="M95.3,102.7c0,5.2.6,15.9,1,20.3,0,.4,0,.8.1,1.1-12.9,3.5-11.7,3-21,3.1v-.3c-.1-3.4-11.4-9.4-14.4-7.9-3.3,1.6-7.5,14.2-6.5,16.8,1.2,3,12.2,2.7,15.2,1.6h.2c5.9.5,10.9,1.1,14.7,1.2v.2c5,0,8.9.4,13.5-.4v.4c-.7,4,1.2,20.5,1.3,26v.4c-.3,0-.5,0-.8-.1h0c-4.5-1-6.9-3.2-15.9-5.1-18.1-3.8-36.3-7.9-34.8,3-.2,1.8-.2,3.6,0,5.2-2.8-12.2-2.4-22-.2-47,.4-7.9-.5-10.7-.5-17.5,0-.9,0-1.8,0-2.8.3-8.8,7.2-18.5,15.9-17.8,1.1,1.4,2.5,2.6,3.7,3.9,3.9,4.2,6,9.2,4.3,14.7,2.3-3.9,6.4-4.3,10.9-4.9,4.5-.6,9.2-.5,13.4-2.2.2,0,.3-.1.5-.2h0c.4,2.8.2,5.7-.6,8.4Z"/><path class="cls-3" d="M95.4,54.2c.8.2,1.2,1.6.9,3.2-.3,1.6-1.2,2.7-2.1,2.5-.8-.2-1.2-1.6-.9-3.2.3-1.6,1.2-2.7,2.1-2.5Z"/><path class="cls-8" d="M93.1,85.8c0,5.5-6.8,8.3-13,6.4-4.6-1.4-10.5-3.7-8-11.7h0c1.1-1.2,2-3.9,2.5-6.9.1-.8.3-1.7.3-2.5.2-1.7.2-3.5,0-5.2h0c0,.2,0,.4,0,.5,1.2,5,1,4.9,4.3,8.2,3.5,3.5,8.7,9.4,13.9,11.2Z"/><path class="cls-6" d="M63,82.9c-8.7-.7-15.7,9-15.9,17.8,0,1,0,2,0,2.8h-.2c-1.4.9-10.4,7.7-15.3,11.4l-.2-.3c-5-2.2-8.5-7.7-8.2-13.1h0c4.5-5.1,13.6-14.7,14.2-15.3,4.7-4.3,8.2-7.7,14.5-9,2.1-.4,6.3,0,9.9,0-.2.5-.3,1.1-.4,1.7,0,1.5.7,2.8,1.6,4Z"/><path class="cls-8" d="M13.8,144c2.7.9,4.6,10.3,2.8,12.5-2,2.4-13.1,3.4-14.9,2.1-2.2-1.5.7-12,2.2-14.2,3.1-14,8.8-28,17-39.8,0-.3,1-1.5,2.4-3.1-.3,5.5,3.1,11,8.2,13.1l.2.3c-1.5,1.1-2.6,2-3,2.3-2.5,4.5-5.1,9.7-7.1,13h-.1c-2.5,3.9-5.3,9-7.5,13.6v.2Z"/><path class="cls-1" d="M23.2,101.5c4.5-5.1,13.6-14.7,14.2-15.3,4.7-4.3,8.2-7.7,14.5-9,2.1-.4,6.3,0,9.9,0h0"/><path class="cls-1" d="M20.8,104.6c0-.3,1-1.5,2.4-3.1"/><path class="cls-1" d="M20.8,104.6c-8.2,11.7-13.9,25.8-17,39.8"/><path class="cls-1" d="M21.3,130.1c-2.5,3.9-5.3,9.1-7.5,13.7"/><path class="cls-1" d="M46.9,103.5c-1.4.9-10.4,7.7-15.3,11.4-1.5,1.1-2.6,2-3,2.3-2.5,4.5-5.1,9.7-7.1,13,0,0,0,.1-.1.2"/><path class="cls-1" d="M13.6,143.9s0,0,.1,0c2.7.9,4.6,10.3,2.8,12.5-2,2.4-13.1,3.4-14.9,2.1-2.2-1.5.7-12,2.2-14.2"/><path class="cls-1" d="M110.4,133.7c0,0,.1,0,.2,0,1.6-.8,2.6-4.2,2.8-10.6,0-4.6-.3-10.8-1.2-18.7-.5-4-2.1-8.8-3.2-12.2-.4-1.3-5.9-4.3-6.6-4.4"/><path class="cls-1" d="M95.3,102.6h0c0,5.3.6,16,1,20.4,0,.4,0,.8.1,1.1,2.3-.6,4.2-.8,5.9-.6"/><path class="cls-1" d="M84.5,138.4h0c-3.8,0-8.8-.7-14.7-1.2"/><path class="cls-1" d="M110.8,133.6c0,0-.1,0-.2.1-5.1,2.6-9,3.9-12.6,4.5-4.6.8-8.6.5-13.5.4"/><path class="cls-1" d="M96.3,124c-12.9,3.5-11.7,3-21,3.1-.2,0-.5,0-.8,0"/><path class="cls-1" d="M75.3,126.8c-.1-3.4-11.3-9.4-14.4-7.9-3.3,1.6-7.5,14.2-6.5,16.8,1.2,3,12.2,2.7,15.2,1.6"/><path class="cls-1" d="M47.6,121c-2.2,25-2.6,34.8.2,47"/><path class="cls-1" d="M98.1,138.3c0,0,0,.2,0,.3-.8,4,1.1,20.5,1.3,26"/><path class="cls-1" d="M63.1,82.9h0c-8.7-.7-15.7,9-15.9,17.8,0,1,0,2,0,2.8,0,6.8.9,9.6.5,17.5"/><path class="cls-2" d="M93.1,85.7h0c0,5.6-6.8,8.4-13,6.5-4.6-1.4-10.5-3.7-8-11.7"/><line class="cls-1" x1="179.8" y1="211.5" x2="180" y2="211.5"/><path class="cls-1" d="M98.6,164.9c-1.8-.6-3.1-1-3.7-1.2"/><path class="cls-1" d="M140.4,203.7c1.4-5.9,4.8-12.9,7-17.7.4-1,.9-1.9,1.2-2.6.7-1.5-37.3-14.3-50-18.4"/><path class="cls-1" d="M65.6,189.9c6.4,1.3,25.5,5.8,42.7,9.9,16.6,3.9,31.5,7.2,31.6,6.5.1-.8.3-1.6.5-2.5"/><path class="cls-1" d="M60,188.3c1.2.5,3.2,1,5.6,1.6"/><path class="cls-1" d="M65.6,189.9c5,9.6,18.3,23.7,21,35.4,2.1,9.3-1.5,16.4-1.5,22.9,1,.1,1.9.2,2.8.3,9.7,1,13.4.8,21.1-.4,1.1-.2,2.3-.4,3.6-.6.3-5,4.1-12.4,3.5-22.2-.4-7.4-6.5-19.6-7.9-24.6"/><path class="cls-1" d="M109,248.4c-3,10.7-5.2,27.7-9.2,37.9"/><path class="cls-1" d="M87.8,248.5c-3.6,10.2-1.8,31.9-1.5,42.7"/><path class="cls-1" d="M85.3,289.6c.2.5.5,1.1,1,1.6,1.8,2,5.3,3.5,7.4,2.6,1.5-.7,2.5-2.1,3.3-3.5.8-1.4,1.6-2.8,3-3.8,1.4-.9,2.6-.9,3.7.3"/><path class="cls-1" d="M85.3,289.6c-1.9,3.8-2.5,9.6-3.4,13.8-.2,1-.4,2,0,2.9.6,1.2,1.9,2.1,3.3,2.3,12.5,2.3,26.2,3.6,37.8,4.9,8.4.9,25-7.3,7.3-15.1-10.6-4.7-18.3-6.9-26.7-11.4"/><path class="cls-1" d="M47.9,162.8c-.2,1.8-.2,3.6,0,5.2.7,11.5,7.2,17.8,12.2,20.2"/><path class="cls-1" d="M140.4,203.7h0c8.3,4.2,21.8.8,39.5,7.8"/><path class="cls-1" d="M189.9,199c-14.2-5-29.8-8.5-42.5-13"/><path class="cls-1" d="M189.8,198.4s0,0,0,0c0,.1.3.6,1.3.5"/><path class="cls-1" d="M180,211.2c1.1,4,11.8-7,11.1-8.4s-1.2-2.3-1.2-3.8c0-.4,0-.6,0-.6"/><path class="cls-1" d="M185.3,223.9c1.1.5,2.6.1,3.9-.3,10.6-3.5,21.2-7,31.2-12,3.2-1.6,6.6-3.6,8.3-6.6,1.8-3,1.2-7.3-2-8.6-1.5-.6-3.3-.5-5-.3-9.4.8-21,2-30.5,2.9h0c-.4,0-.8,0-1.2.1"/><path class="cls-1" d="M180,211.2c0,0,0,.2,0,.3h0c.8,3.8,2.2,7.5,3.9,11,.3.5.5,1,.9,1.5.2.3.5.5.8.6"/><path class="cls-1" d="M100,165.2c-.3,0-.5,0-.8-.1-.2,0-.5,0-.7-.1h0c-4.5-1-6.9-3.2-15.9-5.1-18.1-3.8-36.3-7.9-34.8,3"/><path class="cls-1" d="M23.2,101.5h0c-.3,5.5,3.1,11,8.2,13.2"/><path class="cls-1" d="M113.2,123c-4.8-2.4-11.4-2.4-16.3-.2"/><path class="cls-1" d="M74.3,73.6c-2.4-.1-6.2-.8-8.5,0-1.7.7-3.3,2-4,3.7-.2.5-.3,1.1-.4,1.7,0,1.5.7,2.8,1.6,4,1.1,1.4,2.5,2.6,3.7,3.9,3.9,4.2,6,9.2,4.3,14.7,2.3-3.9,6.4-4.3,10.9-4.9,4.5-.6,9.2-.5,13.4-2.2.2,0,.3-.1.5-.2,2.8-1.3,5.4-3.6,6.4-6.4.4-1.2.5-2.4.3-3.7"/><path class="cls-1" d="M95.9,94.3c.4,2.8.2,5.7-.6,8.4h0"/><path class="cls-1" d="M74.6,71.1c-3.3-2.3-6.8-10.6-7.9-15.2-.2-.6-.4-1.2-.7-1.8-.7-1.7-.8-7-.4-8,1.3-3.4.3-5.9,3.1-11.1,1-1.7,3.7-3.7,5.2-4.9,2.5-2.1,2.7-2.6,4.5-5.3,1.5-2.3,4.3-2.2,7-2.2,3.4,0,3.5-.2,6.2-.7,3.2-.6,4.1-1.5,7.7-1.9,2.7-.2,6.4,1.2,8.3,3,1.2,1.2,2.4,2.3,3.9,3.2,3.1,1.9,7.5,2.5,9.1,5.8.9,2-.4,4.5.6,6.5,1.2,2.5,2.1,6.8.9,9.4-.9,1.9-2.1,3.2-2.7,5.3-.7,2.5-1.2,4-3.2,6.1,0,0-.7,0-.8,0"/><path class="cls-1" d="M96.5,86.3c-1.1,0-2.3-.1-3.4-.5-5.2-1.8-10.4-7.7-13.9-11.2-3.3-3.3-3-3.2-4.3-8.2,0-.1,0-.3,0-.5-.2-1.3-.2-3.8,0-6.4h0"/><path class="cls-1" d="M118.4,48.4c-.7,5.1-2.5,8.1-3.2,10.8-.2.7-.3,1.4-.3,2.1,0,2.3-2.1,9-6.6,16.4,0,0-2.7,3.9-6.4,6.5-1.7,1.2-3.6,2.1-5.6,2.2"/><path class="cls-1" d="M105.9,68.4c-.2,2.8-5.9.8-9-.5"/><path class="cls-1" d="M108.8,60.9c-.3,1.6,0,3.1.8,3.3.8.2,1.7-1,2-2.6.3-1.6,0-3.1-.9-3.3-.8-.2-1.7,1-2,2.6Z"/><path class="cls-1" d="M93.3,56.7c-.3,1.6,0,3,.9,3.2.8.2,1.7-.9,2.1-2.5.3-1.6-.1-3-.9-3.2-.8-.2-1.7.9-2.1,2.5Z"/><path class="cls-1" d="M104.3,74.7c-4.6-.6-6.8-1.8-11-5.1"/><path class="cls-1" d="M104.3,74.7c-2.5,8.6-12.6,1.4-11-5.1"/><path class="cls-1" d="M74.6,64.9c0,.3.1.7.1,1,.2,1.7.2,3.4,0,5.2,0,.9-.2,1.7-.3,2.5-.5,3.1-1.5,5.7-2.5,6.8-.2.2-.3.3-.5.4"/><path class="cls-1" d="M118.4,48.2c0-1.7-.3-3-.6-4-.4-1.3-2.2-3.6-3.4-4.3-2.4-1.4-4.3-1.9-6.8-3.2-2.9-1.5-4.4-1.9-7.7-2.1-5.6-.4-10.6,1.8-13.5,6.2-.6.9-5.7,9.8-6,9.8-1.6-.2-1.4-.4-2.6-3-.7-1.5-3.9-2.4-6-.9-1.2.9-2.2,4.2-2.1,5.9,0,1.8.7,5.7,2,6.4,1.2.6,2.1,1,3.1.3.1,0,.2-.1.3-.2"/><path class="cls-1" d="M91.1,48.9c0,.4,8,1.2,10.2,1.9.8.2,2.8-2.8-.3-3.9-3.3-1.1-9.5-2.4-9.9,2Z"/><path class="cls-1" d="M108.6,54c.6.3,3.9,1.9,4.5,2.2.8.3,1.7-.5,1.8-1.4.1-.9-3.8-4.6-5.3-4.3-1.3.2-2.7,2.6-1,3.6Z"/></svg>