<?xml version="1.0" encoding="UTF-8"?><svg id="latinAmerica" xmlns="http://www.w3.org/2000/svg" width="235" height="321.9" viewBox="0 0 235 321.9"><defs><style>.cls-1{stroke-linecap:round;stroke-linejoin:round;}.cls-1,.cls-2{fill:none;stroke:#000;}.cls-2{stroke-miterlimit:10;}.cls-3,.cls-4,.cls-5,.cls-6,.cls-7,.cls-8,.cls-9,.cls-10{stroke-width:0px;}.cls-4{fill:#231c19;}.cls-5{fill:#a4b4ee;}.cls-6{fill:#8c624d;}.cls-7{fill:#736c45;}.cls-8{fill:#736b46;}.cls-9{fill:#fff;}.cls-10{fill:#fbfbfd;}</style></defs><path class="cls-6" d="M45.7,174.6c.6-2.6-1.3-3.7-3.7-4.4-2-.5-4.4-.7-6-1.2-.8-3.1-6.2-13.2-10-19h0c1-1.1,3-3.1,5.4-5.5-1.7-5.4-6-9.4-10.7-12.7h0c-2,2.6-3.5,4.5-3.5,4.5-3.1,3.6-4.4,5.5-5.7,7.8-2.8,4.9,3.1,15,7.5,20.3,4.3,5.3,7,7.4,10.4,11.6-1.2,2.7,1.7,6.7,3.6,8.5.9.9,4.1,2.9,6.2,3.1,1.1,0,1.9-.3,1.8-1.8,1,0,3.3-1.2,2-2.7,1.2-.2,2.7-1.5,1.9-3.4,4.1-1,2.5-3.3.6-5.1Z"/><path class="cls-10" d="M88,187.2c.2-5.1.4-11.8.5-18.5.2-7.8.3-15.5.3-20.3s.1-5.8.2-8.9c.7,1,2.4,3.9,4,6.9h.1c2.6-3.6,5.5-6.8,8.6-9.9h.3c-3.7-8-8.7-19.8-12-22.8-2.5-2.3-4.1-4.3-7.4-5-2.1-.5-5-.8-7-.6h-.3c.2.8.2,1.8.5,3.3-.2,3-1.3,5.8-8.7,8.5-5.2,0-10.4-1-15.5-6.9,0-1.7,0-3.4.1-4.8-1.4,0-2.2.4-4.3.8-1.9.3-5.6.9-7.3,1.6-3.4,1.5-5.5,4.9-8.2,7.4-1.3,1.2-7.2,8.6-11.1,13.6h0c4.6,3.3,8.9,7.3,10.7,12.7,3.5-3.5,7.9-7.9,11.2-11.3,0-.2,0-.2,0,0,.2,1.1.8,10,.9,11.5.3,3.2.6,6.5.4,9.8-.3,4.5-1.7,11.7-2.1,15.8,2.4.6,4.2,1.7,3.7,4.4,1.8,1.9,3.5,4.2-.6,5.1.8,1.9-.6,3.2-1.9,3.4,1.2,1.5-1,2.7-2,2.7,1.5,2.8,16.3,10.1,24.3,9.7,12.6-.6,18.9-1.1,22.4-4.7,0-1.1,0-2.3.1-3.7ZM55,145.4c-.2-4-1-8.5-.5-12.4.2-1.8,1.6-1.6,3.1-1.8,2.1-.2,4.2-.4,6.3-.6,4.3-.4,8.5-.8,12.8-1.2.9,0,2,0,2.6.6.4.5.4,1.1.4,1.7.3,13.6.7,27.4-2.8,40.5-6.4.5-12.9.5-19.4,0-.3,0-1.4-12.8-1.5-14.1-.4-4.3-.7-8.5-.9-12.8Z"/><path class="cls-7" d="M28.2,311.7c-.6,0-1.1,0-1.7,0-.7,0-1.4-.3-2.1-.6s-1.1-.8-1.5-1.4c-.6-1.1-.4-2.4.2-3.5h0c-2.1,2.1-1.8,5.3.8,6.9,1.9,1.2,6,1.3,8.2,1,3.9-.6,7.7-1.6,11.6-4.4,3.7-2.6,6.8-6.4,5.6-10.5,0,.6-.3,1.3-.6,1.8-.4.7-1,1.3-1.6,1.9-.4.3-.8.6-1.1,1-2,1.6-3.9,2.8-5.9,3.8-2.8,1.4-5.8,2.3-9.4,3.4-.8.2-1.7.5-2.5.6Z"/><path class="cls-6" d="M23.2,306.2c-.6,1.1-.8,2.4-.2,3.5.3.6.8,1.1,1.5,1.4h0c.4-1.1,1.1-1.9,1.8-2.7.7-.9,1.2-1.8,1.2-2.9,0-.9-.6-1.9-.5-2.7,0,0,0,0-.1,0-1.2.8-2.5,1.7-3.3,2.8-.1.2-.2.3-.3.5Z"/><path class="cls-7" d="M47.2,302.9c-4.4.8-8.8,1.3-13.2,1.8-.8,0-1.6.1-2.2-.2-.8-.4-1.1-1.4-1.1-2.3,0-.8.5-1.6.9-2.4-1.6.9-3.1,1.9-4.7,2.9,0,.9.5,1.8.5,2.7,0,1-.5,2-1.2,2.9-.6.8-1.4,1.7-1.8,2.6h0c.6.4,1.3.6,2.1.7.6,0,1.1,0,1.7,0,1-1.8,3-3.1,5.1-3.6,2.2-.6,4.5-.5,6.8-.5v.2c2.1-1,4-2.2,6-3.8.4-.3.8-.6,1.1-1h0Z"/><path class="cls-6" d="M33.3,308c-2.1.6-4.1,1.8-5.1,3.6.9-.1,1.7-.3,2.5-.6,3.6-1,6.6-2,9.4-3.4v-.2c-2.4,0-4.7,0-6.9.5Z"/><path class="cls-6" d="M49.4,299.2c0-.6,0-1.3-.4-1.9-.7-9,2-16.4,3.1-21.3,1.8-8,2.6-16.4,3.2-24.6.3-3.6.5-9.5.9-12.9,0-.5,0-.9.2-1.3-4.9.4-12.5-2.4-17.3-4.7,0,3.3.3,6.3-.1,8.4-.7,3.5-2.4,9-2.8,12.9-.9,8.5,4.4,26.3,2.8,42.2-2.6,1.3-5,2.6-7.3,4-.4.7-.8,1.5-.9,2.4,0,.9.3,1.8,1.1,2.3.7.4,1.5.3,2.2.2,4.4-.4,8.8-1,13.2-1.8h0c.6-.5,1.2-1.2,1.6-1.9.3-.6.5-1.2.6-1.8h0Z"/><path class="cls-8" d="M39,232.4c4.8,2.3,12.5,5.1,17.3,4.7.3,0,.6,0,.8-.1,0,0,3.6-19.6,6.5-30.9h.1c0,3.5,3.9,28.1,4,31.1.9.3,1.7.6,2.5.8,8,2.2,12.9.7,17.7-1.1,1.7-.6,3.3-1.3,5.1-1.8,0-6.5-1.4-15.1-2.4-21.2-.9-5.3-2.6-17.4-3-23-3.5,3.6-9.7,4.1-22.4,4.7-8,.4-22.8-6.9-24.3-9.7,0,1.4-.7,1.8-1.8,1.8-1.4,7.8-4.6,42.3-4.6,42.3.6.5,2.2,1.5,4.3,2.5Z"/><path class="cls-6" d="M81,91.8h0c-1.5,2.8-3.1,4.3-6.6,4.8-2.2.3-6.5-.1-8.6-1.5-1.3-.8-2.1-1.3-3.2-2.5-.7-.8,0-1.9,1-1.7,4.6,1.2,12.8,2.5,17.3.9ZM45.7,86.2v.3c.5,4.2,5.4,10.7,8,12.8.4.4.9.7,1.3,1,7.6,5.7,13.3,6.9,18.1,5.7h0c3.3-.8,6.2-2.7,9.2-5.1,4.1-3.3,6.3-9.2,7.6-14.5.2-.7.3-1.4.5-2.1,1.1-5.1.5-9.2.5-10,0,0,.5-1.8.9-4.1.4-2,.8-4.3.9-6.2,0-5.4-.9-10.2-3.1-14.2,0,3.6-4.1,4.9-12.3,5.3-4.1.2-13.6,0-24.7-5.4-3.9-2-9.3,18.4-8.5,22.7-.5-1.5-1.7-2.2-2.8-2-.3,0-.6.2-.9.4-1.3,1-1.9,3.1-1.9,5.2s.7,4,1.5,5.8c.7,1.6,1.6,3.2,2.8,4,.9.6,1.9.7,2.8.3ZM60.1,75.4c0-1.9.8-3.4,1.8-3.4s1.8,1.5,1.8,3.4-.8,3.4-1.8,3.4-1.8-1.5-1.8-3.4ZM82.8,74.7c0-1.6.7-3,1.5-3s1.5,1.3,1.5,3-.7,3-1.5,3-1.5-1.3-1.5-3Z"/><path class="cls-4" d="M45.8,49.5c-3.6,4.9-5,13.7-4.4,21h0c1.1-.2,2.3.6,2.8,2-.9-4.3,4.6-24.7,8.5-22.7,11,5.5,20.6,5.6,24.7,5.4,8.1-.4,12.3-1.8,12.3-5.3-1.3-2.3-3-4.3-5.3-6-6.3-4.7-8.7-6.5-16.6-6.3-8.9.2-16.8,4.7-22,11.9Z"/><path class="cls-10" d="M42.7,133.2h0c0-.2,0-.2,0,0Z"/><path class="cls-5" d="M51.8,108.3c-.2,1.4,0,3-.1,4.8,5.1,5.9,10.3,6.9,15.5,6.9,7.5-2.7,8.5-5.5,8.7-8.5-.3-1.5-.3-2.5-.5-3.3-.2-1-.7-1.6-2.2-2.2.2,5.5-4,11.7-10.2,8.9-3.8-1.7-8.4-4.4-8.2-7.1.1-1.4.2-2.5.2-3.9h-.3c-2.1,1.1-2.7,2.6-3,4.5Z"/><path class="cls-5" d="M54.5,133c-.5,4,.3,8.4.5,12.4.2,4.3.6,8.6.9,12.8.1,1.2,1.2,14.1,1.5,14.1,6.4.5,12.9.5,19.4,0,3.5-13.1,3.2-26.9,2.8-40.5,0-.6,0-1.2-.4-1.7-.6-.7-1.7-.7-2.6-.6-4.3.4-8.5.8-12.8,1.2-2.1.2-4.2.4-6.3.6-1.5.1-2.9,0-3.1,1.8Z"/><path class="cls-6" d="M54.7,107.8c-.3,2.8,4.4,5.5,8.2,7.1,6.3,2.8,10.4-3.4,10.2-8.9h0c-4.9,1.2-10.5,0-18.1-5.7,0,1.4,0,2.6,0,3.6,0,1.4-.1,2.6-.2,3.9Z"/><path class="cls-3" d="M61.9,72c-1,0-1.8,1.5-1.8,3.4s.8,3.4,1.8,3.4,1.8-1.5,1.8-3.4-.8-3.4-1.8-3.4Z"/><path class="cls-9" d="M63.7,90.9c-1-.3-1.7.9-1,1.7,1.1,1.2,1.9,1.6,3.2,2.5,2.1,1.4,6.4,1.8,8.6,1.5,3.5-.5,5.1-2,6.6-4.7h0c-4.4,1.5-12.7.2-17.3-1Z"/><path class="cls-6" d="M70.4,238c0,.3.2.5.3.8-1.3,7.8-.3,18.8.3,21,4,14,6.3,23.2,6.9,38.4h0c.2,1.8,1,3.5,2,4.9,3.3.9,6.8,1,10.3,1.2,1.4,0,3,0,3.8-1.1.6-.7.5-1.7.2-2.6-.4-.8-.9-2.1-1.5-2.8h0c-2.1-1.2-4.2-2.1-5.9-2.9-.6-3.7,2-30.9,2.3-34.8.3-5.4.6-13.5-1.3-22.1,0-.4.1-.7.2-1.2-4.9,1.8-9.7,3.3-17.7,1.1Z"/><path class="cls-7" d="M79.9,303.1c-1.1-1.4-1.8-3-2-4.8,0,.2,0,.3,0,.5-1.1,1.8-.6,4.2.7,5.9s3.6,3.9,5.5,4.9c4.4,2.2,8.9,2.8,13.8,3.2,2.1.2,4.4,0,6.1-1.2,1.7-1.2,2.3-3.9.7-5.2,0,1.8-1.9,2.5-3.8,2.9,0,0,0,0,0,0-.8.2-1.5.3-2.3.4-4,.4-8.3-.2-12-1.7-2.7-1.1-5.1-2.7-6.7-4.7Z"/><path class="cls-3" d="M84.3,71.7c-.8,0-1.5,1.3-1.5,3s.7,3,1.5,3,1.5-1.3,1.5-3-.7-3-1.5-3Z"/><path class="cls-7" d="M90.2,304.3c-3.5-.1-7-.2-10.3-1.2,1.6,2,4,3.6,6.7,4.7,3.7-1.2,8.7-.2,12,1.7.8,0,1.6-.2,2.3-.4v-.3c-1.1-1.8-2.2-3.7-3.3-5.5-.3-.5-.6-1-.6-1.5,0-.5.2-1.1.7-1.4v-.2c-1.6-.8-3.3-1.7-5-2.6h0c.6.8,1.2,2.1,1.5,2.9.4.8.4,1.9-.2,2.6-.8,1.1-2.4,1.1-3.8,1.1Z"/><path class="cls-6" d="M97,153.8c-.8,1.4-1.5,2.9-2.3,4.6-.9,1.8-6.2,9.8-6.2,10.3h0c-.2,6.7-.3,13.5-.5,18.5,1.6-.4,3.5-.6,4.5-3.3.7-2.1,1.2-3.9,1.8-6,.5-1.4,1.1-2.7,1.8-3.8,1.8-2.7,6.8-7.3,9.4-10,5-5.2,7.3-9.4,3-15.9-.7-1.1-2.1-3.6-3.9-6.9-.7-1.2-1.6-2.9-2.5-4.9h-.3c-3.1,3.2-6,6.4-8.6,9.9h-.1c1.6,3,3.2,6,4.1,7.5Z"/><path class="cls-6" d="M98.7,309.5c-3.3-1.9-8.3-2.8-12-1.7,3.7,1.5,8.1,2.1,12,1.7Z"/><path class="cls-6" d="M90.5,84.2c-.1.7-.3,1.4-.5,2.1,1.7,1.2,3.2-2,3.6-4.9.3-2.2,1-4.2,1-6.4,0-3-2.1-5-2.8-4.8-.5,2.2-.9,4-.9,4.1,0,.8.6,4.9-.5,10Z"/><path class="cls-6" d="M97.8,300.5c-.5.2-.8.8-.7,1.4,0,.5.3,1,.6,1.5l3.2,5.5v.3c0,0,0,0,.1,0,1.9-.4,3.9-1,3.8-2.9,0-1.5-1.4-3-2.7-3.7-1.2-.7-2.7-1.4-4.2-2.2v.2Z"/><path class="cls-2" d="M73.1,105.6c0,.1,0,.2,0,.3.2,5.5-4,11.7-10.2,8.9-3.8-1.7-8.4-4.4-8.2-7.1.1-1.4.2-2.5.2-3.9,0-1,0-2.1,0-3.6"/><path class="cls-2" d="M75.6,108.1c1.9-.2,4.9,0,7,.6,3.3.8,4.8,2.7,7.4,5,3.3,2.9,8.3,14.8,12,22.6.9,1.9,1.8,3.6,2.5,4.9"/><path class="cls-2" d="M26.1,150c1-1.1,3-3.1,5.4-5.5,3.5-3.5,7.9-7.9,11.2-11.3h0c2.1-2.2,3.8-4.1,4.5-5.1"/><path class="cls-2" d="M51.8,108.3c-1.4,0-2.2.4-4.3.8-1.9.3-5.6.9-7.3,1.6-3.4,1.5-5.5,4.9-8.2,7.4-1.3,1.2-7.2,8.6-11.1,13.6-2,2.6-3.5,4.5-3.5,4.5"/><path class="cls-2" d="M88,122.6c1.1,5.2,1.1,11.1,1,16.9,0,3-.2,6-.2,8.9,0,4.8-.1,12.5-.3,20.3-.2,6.7-.3,13.5-.5,18.5,0,1.4,0,2.6-.1,3.7-3.5,3.6-9.7,4.1-22.4,4.7-8,.4-22.8-6.9-24.3-9.7"/><path class="cls-2" d="M42.7,133.2c0-.2,0-.2,0,0,.2,1.1.8,10,.9,11.5.3,3.2.6,6.5.4,9.8-.3,4.5-1.7,11.7-2.1,15.8,0,.1,0,.2,0,.4"/><path class="cls-2" d="M96.1,174.1c-.7,1.1-1.4,2.4-1.8,3.8-.7,2.1-1.1,3.9-1.8,6-1,2.7-2.8,2.9-4.5,3.3,0,0,0,0,0,0"/><path class="cls-2" d="M104.5,141.3c1.8,3.3,3.2,5.8,3.9,6.9,4.3,6.6,2,10.7-3,15.9-2.6,2.7-7.6,7.3-9.4,10"/><path class="cls-2" d="M88.7,139.2c0,0,.1.2.2.3.7,1,2.4,3.9,4,6.9,1.6,2.9,3.2,5.9,4.1,7.5"/><path class="cls-2" d="M102.3,148.1c-2.5,1.6-4,3.6-5.3,5.7-.8,1.4-1.5,2.9-2.3,4.6-.9,1.8-6.2,9.8-6.2,10.3s0,0,0,0"/><path class="cls-2" d="M17.3,136.3c-3.1,3.6-4.4,5.5-5.7,7.8-2.8,4.9,3.1,15,7.5,20.3,4.3,5.3,7,7.4,10.4,11.6"/><path class="cls-2" d="M36,169.1c-.8-3.1-6.2-13.2-10-19-1-1.6-2-2.9-2.7-3.6"/><path class="cls-2" d="M43.6,172.5c.4.5,1.3,1.2,2.1,2.1,1.8,1.9,3.5,4.2-.6,5.1.8,1.9-.6,3.2-1.9,3.4,1.2,1.5-1,2.7-2,2.7,0,1.4-.7,1.8-1.8,1.8-2.1-.2-5.3-2.2-6.2-3.1-1.9-1.9-4.9-5.8-3.6-8.5"/><path class="cls-2" d="M36,169.1c1.5.5,3.9.6,6,1.2,2.4.6,4.2,1.7,3.7,4.4,0,0,0,0,0,0"/><path class="cls-2" d="M87.8,190.9c.4,5.6,2.2,17.7,3,23,1,6.1,2.4,14.6,2.4,21.2-1.8.6-3.5,1.2-5.1,1.8-4.9,1.8-9.7,3.3-17.7,1.1-.8-.2-1.7-.5-2.5-.8,0-3-4-27.6-4-31.1"/><path class="cls-2" d="M65.9,198.9c-.6,1.2-1.4,3.9-2.3,7.3-2.9,11.4-6.5,30.9-6.5,30.9-.3,0-.5,0-.8.1-4.9.4-12.5-2.4-17.3-4.7-2.2-1-3.8-2-4.3-2.5,0,0,3.2-34.5,4.6-42.3h0v-.2"/><path class="cls-1" d="M73.2,106c-4.9,1.2-10.5,0-18.1-5.7-.4-.3-.9-.7-1.3-1-2.6-2.1-7.4-8.5-7.9-12.8"/><path class="cls-1" d="M92.8,64c0,1.9-.5,4.2-.9,6.2-.5,2.2-.9,4-.9,4.1,0,.8.6,4.9-.5,10-.1.7-.3,1.4-.5,2.1-1.3,5.3-3.6,11.2-7.6,14.5-3,2.4-5.9,4.3-9.2,5.1"/><path class="cls-1" d="M88.8,68.6c-1.1-2.5-6.9-3-7.9-1.6"/><path class="cls-1" d="M65.5,67.7c-2.1-2.1-7.6-.7-8,.9"/><path class="cls-1" d="M82.8,74.7c0,1.6.7,3,1.5,3s1.5-1.3,1.5-3-.7-3-1.5-3-1.5,1.3-1.5,3Z"/><path class="cls-1" d="M60.1,75.4c0,1.9.8,3.4,1.8,3.4s1.8-1.5,1.8-3.4-.8-3.4-1.8-3.4-1.8,1.5-1.8,3.4Z"/><path class="cls-1" d="M80.4,85.4c-.5,3.1-7.2,3.3-11.9,2.1"/><path class="cls-1" d="M81.4,91.6c-.2,0-.3.1-.5.2h0c-4.4,1.6-12.7.3-17.3-.9-1-.3-1.7.9-1,1.7,1.1,1.2,1.9,1.6,3.2,2.5,2.1,1.4,6.4,1.8,8.6,1.5,3.5-.5,5.1-2,6.6-4.7"/><path class="cls-2" d="M92.8,64c0-5.4-.9-10.2-3.1-14.2-1.3-2.3-3-4.3-5.3-6-6.3-4.7-8.7-6.5-16.6-6.3-8.9.2-16.8,4.7-22,11.9-3.6,4.9-5,13.7-4.4,21"/><path class="cls-2" d="M44.3,72.5c-.5-1.5-1.7-2.2-2.8-2-.3,0-.6.2-.9.4-1.3,1-1.9,3.1-1.9,5.2s.7,4,1.5,5.8c.7,1.6,1.6,3.2,2.8,4,.9.6,1.9.7,2.8.3.3-.2.7-.5.9-.8"/><path class="cls-2" d="M91.9,70.2c.6-.2,2.8,1.8,2.8,4.8,0,2.2-.7,4.2-1,6.4-.4,2.9-2,6.1-3.6,4.9"/><path class="cls-2" d="M54.7,103.8c-2.1,1.1-2.7,2.6-3,4.5-.2,1.4,0,3-.1,4.8,5.1,5.9,10.3,6.9,15.5,6.9,7.5-2.7,8.5-5.5,8.7-8.5-.3-1.5-.3-2.5-.5-3.3-.2-1-.7-1.6-2.2-2.2h0"/><path class="cls-2" d="M20.9,131.8c4.6,3.3,8.9,7.3,10.7,12.7"/><path class="cls-2" d="M101.7,136.5c-3.1,3-6,6.3-8.6,9.8"/><path class="cls-2" d="M57.4,172.3c6.4.5,12.9.5,19.4,0,3.5-13.1,3.2-26.9,2.8-40.5,0-.6,0-1.2-.4-1.7-.6-.7-1.7-.7-2.6-.6-4.3.4-8.5.8-12.8,1.2-2.1.2-4.2.4-6.3.6-1.5.1-2.9,0-3.1,1.8-.5,4,.3,8.4.5,12.4.2,4.3.6,8.6.9,12.8.1,1.2,1.2,14.1,1.5,14.1Z"/><path class="cls-1" d="M88.2,236.1c0,.2,0,.5,0,.7,0,.4-.1.8-.2,1.2,1.8,8.6,1.6,16.7,1.3,22.1-.3,3.9-2.9,31.2-2.3,34.8"/><path class="cls-1" d="M77.9,298.3c0,.2,0,.3,0,.5"/><path class="cls-1" d="M70.2,237.5c0,.2,0,.3.1.5,0,.3.2.5.3.8-1.3,7.8-.3,18.8.3,21,4,14,6.3,23.2,6.9,38.4"/><path class="cls-1" d="M56.4,236.8c0,.1,0,.3,0,.4,0,.4-.1.8-.2,1.3-.3,3.5-.6,9.4-.9,12.9-.6,8.2-1.4,16.5-3.2,24.6-1.1,4.9-3.8,12.3-3.1,21.3"/><path class="cls-1" d="M39,231.8c0,.2,0,.4,0,.7,0,3.3.3,6.3-.1,8.4-.7,3.5-2.4,9-2.8,12.9-.9,8.5,4.4,26.3,2.8,42.2"/><path class="cls-1" d="M86.9,294.9c1.7.7,3.7,1.7,5.9,2.8,1.7.8,3.5,1.7,5.1,2.6,1.6.8,3,1.6,4.2,2.2,1.3.7,2.6,2.2,2.7,3.7,0,1.8-1.9,2.5-3.8,2.9,0,0,0,0,0,0-.8.2-1.5.3-2.3.4-4,.4-8.3-.2-12-1.7-2.7-1.1-5.1-2.7-6.7-4.7-1.1-1.4-1.8-3-2-4.8h0c0-.2,0-.5,0-.7"/><path class="cls-1" d="M49.4,299.2c0,.6-.3,1.3-.6,1.8-.4.7-1,1.3-1.6,1.9-.4.3-.8.6-1.1,1-2,1.6-3.9,2.8-5.9,3.8-2.8,1.4-5.8,2.3-9.4,3.4-.8.2-1.7.5-2.5.6-.6,0-1.1,0-1.7,0-.7,0-1.4-.3-2.1-.6s-1.1-.8-1.5-1.4c-.6-1.1-.4-2.4.2-3.5,0-.2.2-.3.3-.5.8-1.2,2.1-2,3.3-2.8,0,0,0,0,.1,0,1.6-1,3.1-2,4.7-2.9,2.4-1.4,4.8-2.7,7.3-4"/><path class="cls-1" d="M49,297.4c.3.6.5,1.2.4,1.9"/><path class="cls-1" d="M31.7,299.8s0,0,0,.1c-.4.7-.8,1.5-.9,2.4,0,.9.3,1.8,1.1,2.3.7.4,1.5.3,2.2.2,4.4-.4,8.8-1,13.2-1.8-.2,0-.5,0-.7.1"/><path class="cls-1" d="M27.1,302.3c0,.2,0,.3-.1.5,0,.9.5,1.8.5,2.7,0,1-.5,2-1.2,2.9-.6.8-1.4,1.7-1.8,2.6"/><path class="cls-1" d="M28.1,311.9c0,0,0-.2.1-.2,1-1.8,3-3.1,5.1-3.6,2.2-.6,4.5-.5,6.8-.5"/><path class="cls-1" d="M79.2,302.9c.2,0,.5.1.7.2,3.3.9,6.8,1,10.3,1.2,1.4,0,3,0,3.8-1.1.6-.7.5-1.7.2-2.6-.4-.8-.9-2.1-1.5-2.8"/><path class="cls-1" d="M86.2,308c.1,0,.3,0,.4-.1,3.7-1.2,8.7-.2,12,1.7"/><path class="cls-1" d="M97.8,300.5c-.5.2-.8.8-.7,1.4,0,.5.3,1,.6,1.5l3.2,5.5"/><path class="cls-1" d="M23.1,306.1c-2.1,2.1-1.8,5.3.8,6.9,1.9,1.2,6,1.3,8.2,1,3.9-.6,7.7-1.6,11.6-4.4,3.7-2.6,6.8-6.4,5.6-10.5h0c0-.2-.1-.4-.2-.6"/><path class="cls-1" d="M77.9,298.7c-1.1,1.8-.6,4.2.7,5.9s3.6,3.9,5.5,4.9c4.4,2.2,8.9,2.8,13.8,3.2,2.1.2,4.4,0,6.1-1.2,1.7-1.2,2.3-3.9.7-5.2"/></svg>