<?xml version="1.0" encoding="UTF-8"?><svg id="latinAmerica" xmlns="http://www.w3.org/2000/svg" width="235" height="321.9" viewBox="0 0 235 321.9"><defs><style>.cls-1{stroke-linecap:round;stroke-linejoin:round;}.cls-1,.cls-2{fill:none;stroke:#000;}.cls-2{stroke-miterlimit:10;}.cls-3,.cls-4,.cls-5,.cls-6,.cls-7,.cls-8,.cls-9,.cls-10,.cls-11,.cls-12,.cls-13{stroke-width:0px;}.cls-4{fill:#605a58;}.cls-5{fill:#6eadbc;}.cls-6{fill:#a44256;}.cls-7{fill:#d2a599;}.cls-8{fill:#beb8b9;}.cls-9{fill:#a77b5e;}.cls-10{fill:#332921;}.cls-11{fill:#fff;}.cls-12{fill:#ffd351;}.cls-13{fill:#eb80ac;}</style></defs><path class="cls-7" d="M90.1,292.6h0c1.3,2.3,4.8,3.3,7,1.7,1.3-.9,1.9-2.5,2.3-4,.5-1.5.9-3,2-4.2s2.2-1.5,3.5-.5h.1c9.1,3.6,19,10.3,28.1,13.8,1.6.6,3.2,1.3,4.3,2.5,2.3,2.7.9,7.1-2,9.2-2.9,2.1-6.7,2.6-10.3,2.7-11,.5-22.9-4.1-33.8-5.4-1.3-.2-2.8-.4-3.6-1.4-.6-.8-.6-1.8-.6-2.7,0-4.1.4-8.2,1.4-12.1h1.4c0,0,0,.3,0,.4Z"/><path class="cls-9" d="M124.9,165.9c1.4,3.1-2.1,6.3-4.8,8.3s-4.4,2.8-7.2.9c-1.3-.9-2.4-2.3-2.9-3.8,0-.1,0-.2,0-.3-.5-2.8,1.1-5.7,3.5-7.4,2.4-1.7,0-.9,3-1.6,3.2-1,7,.8,8.4,3.9Z"/><path class="cls-9" d="M116.5,162c-2.9.7-.6-.2-3,1.6-2.3,1.7-4,4.6-3.5,7.4h-.1c-2.8-7.4-20-17.9-19.9-23.6h-.1c.2-2.6.4-5.2.5-7.9,1.6-1.9,2.7-3,5.3-4.4h0c1.8,7.7,14.4,22.4,20.8,26.9Z"/><path class="cls-9" d="M105.9,225c.3,22.2-1.6,39.1-4.5,61.2-1.1,1.1-1.5,2.7-2,4.2-.5,1.5-1.1,3-2.3,4-2.2,1.6-5.7.6-7-1.7h0c0-.1,0-.3,0-.5-.2-4.1-1.2-21.3-4.2-32.5-.9-3.4-1.9-10.9-1.4-14.4.5-3-1.3-12.9-1.3-12.9l-.4-.6c7.5-4.6,13.5-7.8,23.2-6.8Z"/><path class="cls-8" d="M36.4,236c-1.9-.6-3.2-1.4-3.8-2.3l.2-.4c.5-2.6.8-5.2,1.1-7.9,10.4,3.2,21.6,5.8,32.1,2.6,6.1-1.9,11.5-5.6,17.6-7.6,6.5-2.1,12.2-2,19-1.9h.2c1.2,2.2,2.2,4.4,3.1,6.5-9.8-.9-15.8,2.3-23.2,6.8,0,0,0,0,0,0-4.8,3-15.3,5.9-21,6-1.2,0-2.4,0-3.6,0-9,0-17.1-.4-21.7-1.9Z"/><path class="cls-10" d="M105.5,68.4h0c.8-4.3-.4-8.3-2.4-10.2-2-1.9-3.6-2.3-7-1.8v-.2c.4-5.2-.2-8-3.5-12.1-3.2-3.9-7.3-5.7-12.2-6.3h0c20.9.6,30.5,13.7,28.3,31.9-1.5,6.2-3.1,10.3-6.7,15.5.8-4.6.6-8.6.9-9.6.7-2.5,1.6-3.8,2.6-7.3Z"/><path class="cls-5" d="M102.8,218.4h-.2c-6.8,0-12.5,0-19,2-6.1,1.9-11.5,5.7-17.6,7.6-10.4,3.2-21.6.6-32.1-2.6.3-2.6.5-5.3.8-8h0c37.1,8.7,41.2-10.8,64.6-5.7,1.2,2.3,2.4,4.5,3.5,6.6Z"/><path class="cls-9" d="M81,88.7h0c-.9,6.9,9.5,11.7,11.7,4-4.5-.5-7.6-1.3-11.6-4ZM78.7,101.9h0c0,1.3,0,2.3,0,3.4h0s0,0,0,0c1.8,3.8,3.2,7.8,4,11.9.4,2.1.5,4.8-1.4,5.9-1,.5-2.2.4-3.3.3-2.4-.3-4.7-.6-7.1-.8-1.8-.2-3.9-.5-5-2-1-1.2-1-2.9-1.2-4.4-.6-5.2-2.9-10.2-6.6-13.9.6-.2,1.2-.3,1.8-.4v-.2c.6-2,.8-5.8.7-9.9,0-4.8-.6-9.9-1.2-12.8h0c-.4-.2-.7-.6-1.1-.9-1.3-1.5-1.7-3.6-1.4-5.5.1-1.1.4-2.2,1.1-3.1.7-.9,1.7-1.6,2.8-1.6,1.1,0,2.2.8,2.5,1.9,3.3-7.2,8.8-15.1,15.1-17.2,3.3-1.1,6.1-1.8,9.2-1s6.6,2,8.3,5c0,0,.2,0,.3,0,3.5-.6,5-.1,7,1.8,2,1.8,3.2,5.8,2.4,10.2h0c-1,3.6-1.9,4.8-2.6,7.3-.3,1.1-.2,5.1-.9,9.6-.8,4.5-2.4,9.6-6.3,13,0,0-5.7,5.6-9.7,6.2-.9.1-3.9-.9-7.3-2.6ZM99.2,79.4c.3-1.5,0-2.9-.9-3.1-.8-.2-1.8.9-2.1,2.5-.3,1.5,0,2.9.9,3.1.8.2,1.8-.9,2.1-2.5ZM83.2,75.5c.3-1.5-.1-2.8-1-3s-1.8.9-2.1,2.3c-.3,1.5.1,2.8,1,3s1.8-.9,2.1-2.4Z"/><path class="cls-6" d="M96.1,205.6c1.1,2.1,2.2,4.2,3.3,6.2-23.4-5.1-27.5,14.4-64.6,5.7h0c.2-2.7.4-5.4.7-8.1h.5c10.8,1.7,24.6.8,36.8-1.8l.7-.2c6.7-2.3,19.7-3.8,22.8-1.7Z"/><path class="cls-4" d="M92.7,198.6c1.1,2.3,2.2,4.6,3.4,6.9-3-2.1-16.1-.6-22.8,1.7l-.7.2c-12.1,2.6-26,3.5-36.8,1.9h-.5c.2-2.9.5-5.8.8-8.8,14.4-1,24.1.9,35.2-1.6,8.1-1.9,18.5-3.7,21-.2h.3Z"/><path class="cls-3" d="M98.3,76.3c.8.2,1.2,1.6.9,3.1-.3,1.5-1.3,2.6-2.1,2.5-.8-.2-1.2-1.6-.9-3.1.3-1.5,1.3-2.6,2.1-2.5Z"/><path class="cls-11" d="M96.3,130.2c.6,1.3,1.1,2.5,1.7,3.6-1,.4-1.8.9-2.5,1.2-2.6,1.4-3.7,2.4-5.3,4.4,0-1.9,0-3.9,0-5.9h.2c1.6-1.8,3.3-2.3,5.5-3.2h.2Z"/><path class="cls-12" d="M96.3,130.2h-.2c-2.2,1.1-3.9,1.6-5.5,3.3h-.2c0-4.9-.4-10.1-1.3-15.8-.5-3.6-2.1-5.7-4.2-8.7-.5-.7-1-1.3-1.4-1.7h0c6,4.8,9.3,15.1,12.7,22.9Z"/><path class="cls-8" d="M92.7,198.6h-.3c-2.5-3.4-12.9-1.5-21,.3-11.1,2.6-20.8.7-35.2,1.6.3-2.8.7-5.7,1.2-8.6h.3c10.2-1.8,19.8,1.7,31-.8,8.5-1.9,14.6-1.7,20.6-.2h.2c.9,2.5,2,5,3.1,7.6Z"/><path class="cls-10" d="M79.4,37.8h1.1s0,.1,0,.1c4.9.7,9,2.5,12.2,6.3,3.3,4,3.9,6.9,3.4,12.1v.2c0,0-.2,0-.2,0-1.7-3-5.3-4.3-8.3-5s-5.9,0-9.2,1c-6.3,2.1-11.8,10-15.1,17.2-.2-1.1-1.3-1.9-2.5-1.9-1.1,0-2.2.7-2.8,1.6-.7.9-1,2-1.1,3.1-.2,1.9.2,4,1.4,5.5.3.4.7.7,1.1.9h0c.6,2.9,1.1,8,1.2,12.8h-.1c-1.1-1.1-2.3-2.4-3.5-3.9-6.1-7.5-12.1-19.7-1.7-37.5,4-6.9,14.4-13,24.2-12.6Z"/><path class="cls-5" d="M89.6,191h-.2c-6-1.4-12.1-1.6-20.6.3-11.2,2.5-20.8-1-31,.8h-.3c.4-2.4.9-4.7,1.4-7.1h.1c3.5-1.3,7-.9,11.6-.3.6.2,1.1.3,1.5.2,3,.3,6.6.7,10.8.6,6.8-.1,15.6-2.1,24.3-1h.3c.5,2.1,1.2,4.4,2,6.6Z"/><path class="cls-12" d="M90.4,139.5c0,2.7-.3,5.3-.5,7.9-.9,10.1-2.4,20.1-3,32.7h-.6c-10.1.4-20.4.9-30.9.4h-.1c1.4-3.1,2.5-6.9,1.9-8.4-1-2.4-10.2-4.7-12-2.9h0c-1.2-1.7-2.3-3.3-3.2-5h.4c1.2-11.4,3.4-21.9,2.5-29.1,0,0,0,0,0,0,.7-.8,1.6-2.2,2.6-3.9,3.7-6.6,8.1-18.3,6.5-22.3-1.2-3-2.7-4.6-5.3-4.5,1.3-.3,2.5-.5,3.6-.8,1.1-.3,2.2-.5,3.1-.7h0c3.6,4.1,5.8,9.1,6.3,14.4.3,2.9.4,6.4,2.9,7.8,1.3.7,2.8.4,4.2.6,4.5.5,8.7,1.4,12.9,1.2.8,0,1.6,0,2.2-.5.8-.6,1-1.6,1.2-2.5.9-6.1-1.6-13.8-5.2-18.3,1.6.3,2.6.7,3.7,1.8.4.4.9,1,1.4,1.7,2.1,3,3.6,5.1,4.2,8.7.9,5.7,1.2,10.9,1.3,15.8,0,2,0,4,0,5.9Z"/><path class="cls-6" d="M86.9,180.8c.2,1.2.4,2.3.7,3.5h-.3c-8.7-1-17.6,1-24.3,1.1-4.2,0-7.7-.3-10.8-.6,0,0,.1,0,.2,0,.8-.4,1.9-2.2,2.9-4.4h.1c10.4.5,20.8.1,30.9-.3h.6c0,.3,0,.5,0,.8Z"/><path class="cls-11" d="M92.6,92.8c-2.2,7.7-12.6,2.9-11.7-3.9h0c4,2.6,7.1,3.4,11.6,3.9Z"/><path class="cls-11" d="M79.9,105.5c3.6,4.5,6.1,12.2,5.2,18.3-.1.9-.4,2-1.2,2.5-.6.4-1.4.5-2.2.5-4.2.2-8.5-.7-12.9-1.2-1.4-.2-3,.1-4.2-.6-2.5-1.4-2.6-4.9-2.9-7.8-.5-5.3-2.8-10.3-6.3-14.3h0c1-.4,1.9-.6,2.7-.8,3.6,3.8,6,8.7,6.6,13.9.2,1.5.2,3.2,1.2,4.4,1.2,1.4,3.2,1.8,5,2,2.4.3,4.7.6,7.1.8,1.1.1,2.3.3,3.3-.3,1.9-1.1,1.8-3.8,1.4-5.9-.8-4.1-2.2-8.1-4-11.9.5,0,.9.2,1.2.2Z"/><path class="cls-3" d="M82.2,72.4c.9.2,1.3,1.5,1,3-.3,1.5-1.3,2.5-2.1,2.4s-1.3-1.5-1-3c.3-1.5,1.3-2.5,2.1-2.3Z"/><path class="cls-7" d="M56.6,310c1.8,8.1-4.4,11.4-11,9.9-10.5-2.4-16-5.7-31.8-16.7-1-.7-2.3-1.4-2.5-2.7-.2-.9.1-1.8.5-2.7,1.6-3.7,5-7.1,7.4-10.3h1.3c0,.5-.1.8-.2,1.1h.4c.3,2.8,8.7,3,9.7,1.8,0,0,.1-.1.2-.2,1-1.1,2-2.3,3.4-2.9,1.4-.6,2.5-.5,3.3.6l-.3.2c6.5,12.9,6.4,14.3,16.4,20.1,1.4.8,3,.2,3.4,1.8Z"/><path class="cls-9" d="M58.1,237.9v1.8c-2.8,9.3-5,10.2-10,19.6-5.2,9.7-11.2,22-17.8,30.8h0c0,.2-.1.2-.2.3-1.1,1.2-9.4,1-9.7-1.7h-.4c0-.4.1-.8.2-1.1,2-10.5,4.5-25.6,9.9-34.4,1.9-3.1,4.1-6.7,5.4-10.1,1.3-3.4,1.7-3.6.8-7,4.6,1.5,12.7,2,21.7,1.9Z"/><path class="cls-10" d="M58,102.2c-.8.2-1.7.4-2.7.7-1,.2-2,.5-3.1.7h0c1.3-5.4,2.5-12.5,4.5-15.6h.2c1.2,1.3,2.4,2.6,3.5,3.7h.1c0,4-.1,7.8-.7,9.9v.2c-.5.1-1.1.3-1.7.4Z"/><path class="cls-9" d="M45.1,169.2h0c1.8-1.9,11,.4,12,2.8.6,1.5-.5,5.3-1.9,8.4-1,2.2-2.1,4-2.9,4.4s-.1,0-.2,0c-.5,0-1-.1-1.5-.2-2.7-1-6.6-5-7.5-6.7-.6-.5-1.2-1.1-1.8-1.6-8.6-7.5-13.3-12.3-18.7-23.2-2.6-5.3,2.3-19.2,7-26.4,2.9,1.4,9,3.6,13,6.5-4.6,5.8-5.8,9.4-9.5,15.7,4,6.3,6.1,10.7,8.8,15.3,1,1.6,2,3.3,3.2,5Z"/><path class="cls-13" d="M52.2,184.8c-.4.1-.9,0-1.5-.2.5,0,1,.1,1.5.2Z"/><path class="cls-12" d="M53.9,108.9c1.6,4-2.8,15.7-6.5,22.3l-.5-.3c-5.9-4.5-11.2-7.7-17.9-8.7h0c.4-.9.9-1.7,1-2.2,2.7-7.2,8.4-12.6,15.8-15.1,1-.2,1.9-.4,2.8-.6h0c2.6,0,4.1,1.5,5.3,4.5Z"/><path class="cls-6" d="M50.7,184.7c-4.6-.5-8.2-.9-11.6.4h-.1c.7-2.9,1.5-5.8,2.4-8.7.6.5,1.2,1,1.8,1.6.9,1.7,4.8,5.7,7.5,6.7Z"/><path class="cls-11" d="M42.6,133.2c-4-2.9-10-5-13-6.5-.9-.5-1.6-.8-1.7-1.2-.2-.6.4-2,1-3.3h0c6.6,1.1,12,4.2,17.9,8.7l.5.3c-.9,1.7-1.8,3.1-2.6,3.9,0,0,0,0,0,0-.6-.7-1.3-1.3-2.2-1.9Z"/><path class="cls-1" d="M80.4,37.8c20.9.7,30.5,13.8,28.3,32,0,0,0,.1,0,.2"/><path class="cls-1" d="M63.2,69.7c3.3-7.2,8.8-15.1,15.1-17.2,3.3-1.1,6.1-1.8,9.2-1s6.6,2,8.3,5c0,0,.2,0,.3,0,3.5-.6,5-.1,7,1.8,2,1.8,3.2,5.8,2.4,10.2"/><path class="cls-1" d="M59.8,101.6c.6-2,.8-5.8.7-9.9,0-4.8-.6-9.9-1.2-12.8"/><path class="cls-1" d="M56.7,88c-1.9,3.1-3.1,10.2-4.5,15.5"/><path class="cls-1" d="M79.5,37.8h-.1c-9.9-.4-20.2,5.8-24.2,12.6-10.4,17.8-4.4,30,1.7,37.5,1.2,1.5,2.4,2.8,3.5,3.9"/><path class="cls-2" d="M102,85.3c-.8,4.5-2.4,9.6-6.3,13,0,0-5.7,5.6-9.7,6.2-.9.1-3.9-.9-7.3-2.6-5.9-2.9-13.3-7.6-15.1-11.3"/><path class="cls-1" d="M105.5,68.3s0,0,0,0c-1,3.6-1.9,4.8-2.6,7.3-.3,1.1-.2,5.1-.9,9.6"/><path class="cls-1" d="M101.7,72.9c-.2-2.5-4.1-3-5.1-1.7"/><path class="cls-1" d="M85.6,67.3c-1.2-1.9-4.9-2.9-7.5-.7"/><path class="cls-1" d="M94,86.3c.2,3-3.2,2.3-6.8,1"/><path class="cls-1" d="M96.2,78.8c-.3,1.5,0,2.9.9,3.1.8.2,1.8-.9,2.1-2.5.3-1.5,0-2.9-.9-3.1-.8-.2-1.8.9-2.1,2.5Z"/><path class="cls-1" d="M80.1,74.8c-.3,1.5.1,2.8,1,3s1.8-.9,2.1-2.4c.3-1.5-.1-2.8-1-3s-1.8.9-2.1,2.3Z"/><path class="cls-1" d="M92.6,92.8c-4.5-.5-7.6-1.3-11.6-4-.2-.2-.5-.3-.7-.5"/><path class="cls-1" d="M92.6,92.8c-2.2,7.7-12.6,2.9-11.7-3.9"/><path class="cls-1" d="M48.6,104.4c2.6,0,4.1,1.5,5.3,4.5,1.6,4-2.8,15.7-6.5,22.3-.9,1.7-1.8,3.1-2.6,3.9,0,0,0,0,0,0-.6-.7-1.3-1.3-2.2-1.9-4-2.9-10-5-13-6.5-.9-.5-1.6-.8-1.7-1.2-.2-.6.4-2,1-3.3.4-.9.9-1.7,1-2.1,2.7-7.2,8.4-12.6,15.8-15.1,1.1-.4,2-.5,2.8-.6"/><path class="cls-1" d="M86.8,181.2v-.4c0-.3,0-.5,0-.8.5-12.5,2.1-22.5,3-32.7.2-2.6.4-5.2.5-7.9,0-1.9,0-3.9,0-5.9,0-4.9-.4-10.1-1.3-15.8-.5-3.6-2.1-5.7-4.2-8.7-.5-.7-1-1.3-1.4-1.7-1.1-1.1-2.1-1.4-3.7-1.8-.4,0-.8-.1-1.2-.2h0"/><path class="cls-1" d="M44.7,134.7c0,.1,0,.2,0,.3.9,7.2-1.3,17.7-2.5,29"/><path class="cls-1" d="M29.7,126.7s0,0,0,0c-4.7,7.2-9.6,21.2-7,26.4,5.4,10.9,10.1,15.6,18.7,23.2.6.5,1.2,1,1.8,1.6"/><path class="cls-1" d="M42.7,133.2s0,0,0,0c-4.6,5.8-5.8,9.4-9.5,15.7,4,6.3,6.1,10.7,8.8,15.3,1,1.6,2,3.3,3.2,5,.1.2.2.3.4.5"/><path class="cls-1" d="M83.6,107.3c6,4.8,9.3,15.1,12.7,23,.6,1.3,1.1,2.5,1.7,3.6-1,.4-1.8.9-2.5,1.2-2.6,1.4-3.7,2.4-5.3,4.4,0,0-.1.1-.2.2"/><path class="cls-1" d="M45.2,169.1c1.8-1.9,11,.5,12,2.9.6,1.5-.5,5.3-1.9,8.4-1,2.2-2.1,4-2.9,4.4s-.1,0-.2,0c-.4.1-.9,0-1.5-.2-2.7-1-6.6-5-7.5-6.7"/><path class="cls-1" d="M90,147.4c-.1,5.7,17.1,16.2,19.9,23.6"/><path class="cls-1" d="M95.7,135.2c1.8,7.6,14.4,22.3,20.8,26.8"/><path class="cls-1" d="M116.5,162c-2.9.7-.6-.2-3,1.6-2.3,1.7-4,4.6-3.5,7.4,0,.1,0,.2,0,.3.4,1.6,1.5,2.9,2.9,3.8,2.8,1.9,4.4,1.1,7.2-.9s6.2-5.2,4.8-8.3-5.2-4.9-8.4-3.9"/><path class="cls-1" d="M41.4,176.2c0,0,0,.1,0,.2-1,2.9-1.8,5.8-2.4,8.7-.6,2.4-1,4.7-1.4,7.1-.5,2.9-.9,5.7-1.2,8.6-.3,2.9-.6,5.8-.8,8.7-.2,2.7-.4,5.5-.7,8.1-.2,2.7-.5,5.3-.8,8-.3,2.6-.7,5.3-1.1,7.9"/><path class="cls-1" d="M58.2,239.7c-2.9,9.3-5,10.2-10,19.6-5.2,9.7-11.2,22-17.8,30.8"/><path class="cls-1" d="M36.4,235.8c0,0,0,.2,0,.2.9,3.4.5,3.6-.8,7-1.3,3.4-3.5,7-5.4,10.1-5.5,8.8-7.9,23.9-9.9,34.4,0,.3-.1.7-.2,1"/><path class="cls-1" d="M32.6,233.7c.6,1,1.9,1.7,3.8,2.3,4.6,1.5,12.7,2,21.7,1.9,1.2,0,2.4,0,3.6,0,5.7-.1,16.2-3.1,21-6,0,0,0,0,0,0,7.5-4.6,13.5-7.8,23.2-6.8-.9-2.1-1.9-4.2-3.1-6.5-1.1-2.1-2.3-4.4-3.5-6.6-1.1-2-2.2-4.1-3.3-6.2-1.2-2.3-2.3-4.6-3.4-6.9-1.2-2.5-2.2-5.1-3.1-7.6-.8-2.2-1.5-4.4-2-6.6-.3-1.2-.5-2.4-.7-3.5,0,0,0,0,0,0"/><path class="cls-1" d="M83.1,232.4s1.8,9.9,1.3,12.9c-.5,3.5.5,10.9,1.4,14.4,2.9,11.1,4,28.4,4.2,32.5,0,.2,0,.3,0,.5,0,.3,0,.5,0,.4"/><path class="cls-1" d="M105.9,225c.3,22.2-1.6,39.1-4.5,61.2"/><path class="cls-1" d="M45.8,105c1-.2,1.9-.4,2.8-.6h0c1.3-.3,2.5-.5,3.6-.8,1.1-.3,2.2-.5,3.1-.7,1-.2,1.9-.5,2.7-.7.6-.2,1.2-.3,1.8-.4.3,0,.6-.1.9-.2"/><path class="cls-1" d="M90.1,292.6c1.3,2.3,4.8,3.3,7,1.7,1.3-.9,1.9-2.5,2.3-4,.5-1.5.9-3,2-4.2s2.2-1.5,3.5-.5"/><path class="cls-1" d="M88.6,292.2c-1,4-1.4,8.1-1.4,12.1,0,.9,0,1.9.6,2.7.8,1,2.2,1.3,3.6,1.4,10.9,1.3,22.8,5.9,33.8,5.4,3.6-.2,7.4-.6,10.3-2.7,2.9-2.1,4.2-6.6,2-9.2-1.1-1.3-2.7-1.9-4.3-2.5-9.1-3.5-19-10.2-28.1-13.7"/><path class="cls-1" d="M20.5,288.7c.3,2.7,8.7,2.9,9.7,1.7,0,0,.1-.1.2-.2,1-1.1,2-2.3,3.4-2.9,1.4-.6,2.5-.5,3.3.6,0,0,.1.2.2.3"/><path class="cls-1" d="M19,287.4c-2.4,3.2-5.8,6.6-7.4,10.3-.4.9-.7,1.8-.5,2.7.3,1.2,1.5,2,2.5,2.7,15.8,11,21.4,14.3,31.8,16.7,6.6,1.5,12.8-1.7,11-9.9-.4-1.6-2-1-3.4-1.8-10-5.8-9.9-7.2-16.4-20.1"/><path class="cls-2" d="M108.7,69.7s0,0,0,0c-1.5,6.2-3.1,10.3-6.7,15.5,0,0-.1.2-.2.2"/><path class="cls-1" d="M63.2,69.7c-.2-1.1-1.3-1.9-2.5-1.9-1.1,0-2.2.7-2.8,1.6-.7.9-1,2-1.1,3.1-.2,1.9.2,4,1.4,5.5.3.4.7.7,1.1.9h0c1.3.8,2.9,1.1,4.2.4,0-.2,0-.4,0-.6"/><path class="cls-2" d="M55.4,103c3.6,3.9,5.8,9,6.3,14.3.3,2.9.4,6.4,2.9,7.8,1.3.7,2.8.4,4.2.6,4.5.5,8.7,1.4,12.9,1.2.8,0,1.6,0,2.2-.5.8-.6,1-1.6,1.2-2.5.9-6.1-1.6-13.8-5.2-18.3,0,0,0,0-.1-.1"/><path class="cls-2" d="M29,122.2c6.6,1,12,4.2,17.9,8.7"/><path class="cls-2" d="M96.1,130.4c-2.2,1-3.9,1.5-5.5,3.2"/><path class="cls-1" d="M96,56.3c.5-5.2-.1-8-3.4-12.1-3.2-3.9-7.3-5.7-12.2-6.3-.2,0-.4,0-.6,0"/><path class="cls-2" d="M57.9,102.1s0,0,.1.1c3.6,3.8,6,8.7,6.6,13.9.2,1.5.2,3.2,1.2,4.4,1.2,1.4,3.2,1.8,5,2,2.4.3,4.7.6,7.1.8,1.1.1,2.3.3,3.3-.3,1.9-1.1,1.8-3.8,1.4-5.9-.8-4.1-2.2-8.1-4-11.9,0,0,0,0,0,0"/><path class="cls-2" d="M86.3,180c-10.1.5-20.4.9-30.9.4"/><path class="cls-1" d="M87.3,184.4c-8.7-1-17.6.9-24.3,1-4.2,0-7.7-.3-10.8-.6-.5,0-1-.1-1.5-.2-4.6-.5-8.2-.9-11.6.4"/><path class="cls-1" d="M89.3,191.1c-6-1.5-12.1-1.7-20.6.2-11.2,2.5-20.8-1-31,.8"/><path class="cls-1" d="M92.5,198.8c-2.5-3.5-12.9-1.7-21,.2-11.1,2.6-20.8.7-35.2,1.6-.1,0-.2,0-.3,0"/><path class="cls-1" d="M35.9,209.4c10.8,1.7,24.6.7,36.8-1.9"/><path class="cls-1" d="M96.2,205.6s0,0-.1,0c-3-2.1-16.1-.6-22.8,1.7"/><path class="cls-1" d="M99.7,211.9c-.1,0-.3,0-.4,0-23.4-5.1-27.5,14.4-64.6,5.7"/><path class="cls-1" d="M33.8,225.4c0,0,.1,0,.2,0,10.4,3.2,21.6,5.8,32.1,2.6,6.1-1.9,11.5-5.6,17.6-7.6,6.5-2.1,12.2-2,19-1.9"/><path class="cls-1" d="M78.6,101.9c0,1.2,0,2.3,0,3.3,0,.6,0,1.1,0,1.7"/></svg>