<?xml version="1.0" encoding="UTF-8"?><svg id="latinAmerica" xmlns="http://www.w3.org/2000/svg" width="235" height="321.9" viewBox="0 0 235 321.9"><defs><style>.cls-1{fill:#2e2c2d;}.cls-1,.cls-2,.cls-3,.cls-4,.cls-5,.cls-6,.cls-7{stroke:#000;stroke-linecap:round;stroke-linejoin:round;}.cls-2{fill:#87654b;}.cls-3{fill:#b0e2ee;}.cls-4{fill:#ffcf66;}.cls-5{fill:#fff;}.cls-6{fill:none;}</style></defs><path class="cls-2" d="M46.7,133.4c-5.1,9.3-8.9,13.6-12.7,21.2h.1c2.6.8,5.1,10.4,3.4,12.5-1.8,2.3-12.4,3.2-14.1,2-2.1-1.4.2-9.8,1.6-11.9,2.9-13.2,4.7-20.1,12.5-31.2,1.6-2.3,3.8-5.1,6.2-8.2h0c1-1.2,8.9-9.8,13-14.2-.9,6.5,2,13.4,7.2,17.4-5.9,4.2-15.7,11.3-17.1,12.4Z"/><path class="cls-6" d="M43.7,117.8h0"/><path class="cls-6" d="M34.1,154.7c0,.2-.2.4-.3.6"/><path class="cls-6" d="M68.2,117.9s0,0,0,0"/><path class="cls-2" d="M113.1,98.7h0c-8.1,2.3-10.8,11-19.1,7.1-4.1-1.9-5.8-6.4-4.8-11.6h0c.2-.9.5-1.8.6-2.6.4-1.7.7-3.1.9-5.2h0c1.1,1.4,2.4,2.5,3.4,3.7h0c4.6,4.1,14.5,8.2,17.1,7.8,0,0,.2,0,.3,0,.5.2,1,.5,1.6.8Z"/><path class="cls-6" d="M111.5,97.9s0,0,0,0"/><path class="cls-6" d="M129.8,140.9s0,0,0,0"/><path class="cls-4" d="M129.1,122.4h0c-5.4-1-11.3.6-15.5,4.4.2,3.6.4,6.9.6,8.7v.2c-10.5,2.7-11.8,1.7-20.9,3.6h0c-.1-3.4-10.7-9-13.7-7.6-3.2,1.5-7.1,13.5-6.2,15.9.7,1.7,4.5,2.2,8.1,2.2v.5c-7.2-.2-13.5.7-16.7,2.6.2-3.3.6-8.1,1.6-19.3h.1c.5-4.8,1.7-10.1,1.7-15.4-.6.4-2.2,1.6-4.4,3.1-5.2-4-8.1-10.9-7.2-17.4,1.3-1.4,2.2-2.4,2.4-2.5,4.5-4.1,7.8-7.3,13.7-8.5.6-.1,13.8-.6,16.9-.9h.2c-.2.8-.4,1.7-.6,2.6h0c-1,5.2.8,9.7,4.8,11.6,8.3,3.9,10.9-4.9,19.1-7.1h0c4.2,2,11.2,5.1,12.7,8.8,1.7,4.1,2.7,9.5,3.3,14.8Z"/><path class="cls-6" d="M113.7,111.5c-.9,1.8-.8,4.7-.6,6.7.3,2.6.4,5.6.6,8.5"/><path class="cls-2" d="M129.8,140.9h0c-.2,1.4-.6,2.7-1.1,3.8-1.1,2.3-2.3,2.4-3.4,3.1-4.1,1.6-7.5,2.6-10.7,3-8.5,1.3-15-.6-26.8-1.9-1.2.4-3.7.7-6.3.7-3.6,0-7.4-.6-8.1-2.2-.9-2.4,3-14.4,6.2-15.9,2.9-1.4,13.5,4.2,13.7,7.5h0c9.2-1.8,10.4-.7,21-3.5v-.2c-.3-1.8-.4-5.1-.6-8.7,4.1-3.7,10-5.4,15.5-4.3h0c1.1,9.1,1,17.7.7,18.5Z"/><path class="cls-6" d="M93.2,139.2c-.2,0-.5.1-.8.2"/><path class="cls-6" d="M116,135.2c-.6.2-1.2.3-1.7.5"/><path class="cls-6" d="M129.8,140.9h0"/><path class="cls-6" d="M66.5,132.5c0,.3,0,.6,0,.9"/><path class="cls-5" d="M115.9,168.6h0c-.4-2.7-7.1-4.9-9.7-5.8-13.5-5.1-35.1-5.9-41.9-1.8h0c.3-3.8.4-5.4.5-8.4,3.2-1.9,9.5-2.7,16.7-2.6h0c8.4.2,17.9,1.7,25.1,4.4,2.4.9,6.8,2.2,8.3,5,.3,3.1.8,6.4,1,9.1Z"/><path class="cls-6" d="M116.1,171.4h0"/><path class="cls-4" d="M114.9,159.5c-1.5-2.8-5.9-4.1-8.3-5-7.2-2.7-16.8-4.2-25.1-4.4h0v-.5c2.6,0,5.1-.3,6.3-.7,11.8,1.3,18.3,3.2,26.8,1.9-.4,1.6-.1,4.9.3,8.7Z"/><path class="cls-6" d="M114.6,150.8s0,0,0,0"/><path class="cls-6" d="M67.4,110.6c.6,2.4.8,4.9.8,7.3"/><path class="cls-2" d="M121.8,255c-3,11.2-7.1,23.2-11.1,33.9l.2.2c3.4,1.8,6.2,3.4,9,4.8v.2c.9.5,1.1,1.9,1,3-.4,3.1-1.9,6-4.2,8.1-.1,0-.5.4-.6.5v.7c-6.9-1.2-13.6-3-20-5.4.5-3,1.4-5.8,2.5-8.7h0c1.7-11.9-1.4-28.8,2.2-39.4.8-2.4,1.6-5,2.3-7.6h0c1.2-1.6,3.7-2,6.7-4,3.7-2.4,7.8-4.2,11.7-6.5,2.1-1.3,4.1-2.6,6-4.1h.1c1.9,6-2.8,13.6-5.7,24.3Z"/><path class="cls-6" d="M77.7,197.6c0,0,0,0-.1-.1"/><path class="cls-4" d="M152.4,186.9h0c-3.4,1.8-5,4.9-6.3,8.4-.8,2.1-1.2,4.8-1.7,7.4-.3,1.7-.6,3.3-1,4.7-2.6,9.5-8.4,17.3-16,23.3-1.9,1.5-3.9,2.9-6,4.1-3.8,2.3-7.9,4.1-11.7,6.5-3,2-5.5,2.4-6.7,4,.3-1.4.6-2.8.8-4.1.6-3.9.2-6.8-1.6-10.4h0c-6.9-11.4-15.9-23.6-24.8-33.4-5.3-4.9-14.9-17.2-13.6-32.5h0c.1-1.6.2-2.8.3-3.8h0c6.8-4.2,28.4-3.3,41.9,1.8,2.5.9,9.3,3.2,9.7,5.8h0c0,1,.2,2,.2,2.8h0c9.5,3.9,24.1,8.4,36.2,15.5Z"/><path class="cls-6" d="M185.6,215.1s0,0-.1,0"/><path class="cls-6" d="M144.3,202.7s0,0-.1-.1"/><path class="cls-6" d="M116.4,171.6c-5.4-1.7-6.2-3.3-16.1-5.5-7.8-1.7-14.8-3.4-20.6-4.3"/><path class="cls-6" d="M89.2,94.2s0,0,0,.1"/><path class="cls-6" d="M103,245.3c-.3.4-.5.8-.6,1.3"/><path class="cls-6" d="M77.5,197.4s0,0,0,0"/><path class="cls-2" d="M137.8,308.4l-.9-.4c-4.6.1-9.3,0-13.9-.6v-.7c1.3-.6,2.5-1.3,3.5-2.2,1-.9,1.8-2.2,1.9-3.5.1-1.2-.4-2.4-1.3-3.1,1.8,1,3.6,2,5.7,3.1,1.5.8,3,1.4,3.8,2.8,1.1,1.8,1.6,3.4,1,4.7Z"/><path class="cls-3" d="M137.8,308.4c-.4.9-1.1,1.6-2.3,2.3-3.2,1.6-7,1.5-10.6,1.1-11-1.1-14.9-2.4-25.5-5.2-1.3-.3-2.7-.8-3.3-1.9-.5-.8-.4-1.7-.2-2.6,0-.4.1-.7.2-1.1,6.4,2.4,13.1,4.3,19.9,5.4,2.4.4,4.7.8,7.1,1h0c4.6.5,9.2.7,13.9.6l.9.4Z"/><path class="cls-3" d="M128.5,301c-.1,1.4-.9,2.6-1.9,3.5-1,.9-2.2,1.6-3.4,2.2v.7h0c-2.4-.2-4.8-.6-7.1-1v-.7c.2,0,.6-.4.7-.5,2.3-2.1,3.8-5,4.2-8.1.1-1.1,0-2.6-1.1-3v-.2c2.5,1.3,4.9,2.6,7.4,3.9h0c.9.7,1.4,2,1.3,3.1Z"/><path class="cls-6" d="M99,291.3c-.2.4-.3.7-.4,1"/><path class="cls-6" d="M96.1,301c0,0-.1,0-.2,0"/><path class="cls-6" d="M127.2,297.9c-.1-.1-.3-.2-.5-.3"/><path class="cls-2" d="M208.2,215.7l.3.7c-6.5,3-13.3,5.3-20.3,7-1.2-2.7-2.1-5.3-2.8-8.2-21.7-9-28.1-.6-41.1-12.4.4-2.6.9-5.3,1.7-7.4,1.3-3.5,2.9-6.6,6.3-8.3h0c.5.2.9.4,1.4.7,16.2,6,24.3,10.6,40.5,16.6h0c3.9-.3,7.2-.7,10.3-1v.2c1.2-.2,2.2.9,2.7,2,1.5,2.9,1.9,6.3,1.2,9.4,0,.1-.2.7-.2.8Z"/><path class="cls-6" d="M194.2,204.3c0,0-.2,0-.2,0"/><path class="cls-2" d="M228.5,205.1l-1,.2c-3.9,2.8-8,5.4-12.3,7.7l-.3-.6c.6-1.3,1.3-2.6,1.6-3.9.3-1.4.3-2.9-.4-4.2-.6-1.1-1.8-1.9-3-1.9,2.1-.2,4.3-.5,6.8-.7,1.7-.2,3.4-.5,4.9.1,1.9.8,3.2,1.9,3.6,3.2,0,0,0,0,0,.1Z"/><path class="cls-3" d="M227.8,208.5c-1.8,3.2-5.2,5.4-8.5,7.2-10.1,5.5-14.2,6.6-25,10.5-1.3.5-2.8.9-3.9.3-.9-.4-1.3-1.3-1.7-2.1-.2-.3-.3-.7-.5-1.1,7-1.7,13.8-4,20.3-7,2.3-1,4.5-2.1,6.7-3.3,4.3-2.3,8.4-4.9,12.3-7.7l1-.2c.3,1,0,2.1-.6,3.4Z"/><path class="cls-3" d="M216.5,208.4c-.3,1.4-1,2.7-1.6,3.9l.3.6c-2.2,1.2-4.4,2.3-6.7,3.3l-.3-.7c0-.1.2-.7.2-.8.7-3.2.3-6.6-1.2-9.4-.5-1.1-1.5-2.2-2.7-2v-.2c2.8-.3,5.6-.6,8.6-.9,1.2,0,2.4.9,3,1.9.7,1.2.7,2.8.4,4.2Z"/><path class="cls-6" d="M185.4,215.1c-.1-.6-.3-1.2-.4-1.9"/><path class="cls-6" d="M188.2,223.3c0,0-.1,0-.2,0"/><path class="cls-6" d="M212.6,202.3c.2,0,.4,0,.6,0"/><path class="cls-6" d="M115.1,160.1c0-.2-.1-.4-.2-.5"/><path class="cls-6" d="M64.8,152.7s0,0-.1,0"/><path class="cls-6" d="M113.6,126.7c-.1,0-.2.2-.3.3"/><path class="cls-6" d="M64,121.1h-.1"/><path class="cls-6" d="M56.7,103.1c0,.2,0,.4,0,.6"/><path class="cls-2" d="M121.8,42.8h-.6c-7.9-3.2-16.4,3.9-19.1,7.9-2.7,4-2.5,8.2-3,12.4.8.4,1.3,1.2,1.3,2.1,0,1.2-1.1,2-2.2,2h-.1c1.2,0,2.1,1.1,2,2.3,0,.9-.5,1.6-1.5,1.9h0c0,1,0,.9,0,1.9,0,1-1.7.9-2-.1-.2-.8-.4-1.1-.6-1.8-1-.2-1.7-1.2-1.6-2.2,0-1.1.9-1.9,2.1-2-1.1-.2-1.8-1.2-1.7-2.3,0-.6.3-1.2.8-1.5,0-6.2.7-10.4,2.5-15.3-2.1,3.8-3.5,6.1-4.4,8.9-1.5,4.7-2,8.1-2,11.4.3.3.6.6.6,1.1v.4c.2.9-.3,1.8-1.2,2,.9,0,1.6.6,1.8,1.5v.4c.2.8-.2,1.6-.9,1.9,0,.7.1.7.1,1.4,0,1.6-2.3,2-2.9.4-.1-.4-.2-.7-.4-1.4-.7-.2-1.2-.7-1.3-1.4v-.4c0,0,0-.2,0-.3h-.1c-.1.7-.6,1.2-1.3,1.4.9,0,1.7.6,1.8,1.5v.4c.2.5,0,1.1-.3,1.5,0,0-.1.1-.2.2h.4c0,3.4,1.4,5.7,3,7.5,1.1,1.4,2.4,2.6,3.4,3.7h0c4.6,4.1,14.5,8.2,17.1,7.8,0,0,.2,0,.3,0,4.1-.9,8.8-6,8.8-6,3.8-3.3,6.2-8.2,7.6-12.8,1.6-5.1,2.1-9.8,2.5-11,.4-1.5,1.1-3.3,2.2-6.9v-.4c-.8-12.4-5.2-15.4-10.8-18.1ZM103.9,65c.4-1.8,1.5-3,2.5-2.8,1,.2,1.5,1.8,1.1,3.6-.4,1.8-1.5,3-2.5,2.8-1-.2-1.5-1.8-1.1-3.6ZM102.5,80.5c4.9,3.2,10.4,4.7,15.7,5.3-3.1,5.9-14.7,1.8-15.7-5.3ZM126.2,69.8c-.4,1.8-1.5,3.1-2.5,2.9-1-.2-1.4-1.9-1-3.7.4-1.8,1.5-3.1,2.5-2.9,1,.2,1.5,1.9,1,3.7Z"/><path class="cls-6" d="M129.4,63.3c0-3.3-4.4-4.1-5.5-2.2"/><path class="cls-6" d="M109.8,57.5c-.8-2.2-4.3-3.7-6.6-.9"/><path class="cls-6" d="M118.7,79c-1.2,3.2-4.4,2.9-8.1,1.2"/><path class="cls-7" d="M126.2,69.8c-.4,1.8-1.5,3.1-2.5,2.9-1-.2-1.4-1.9-1-3.7.4-1.8,1.5-3.1,2.5-2.9,1,.2,1.5,1.9,1,3.7Z"/><path class="cls-7" d="M107.5,65.8c-.4,1.8-1.5,3-2.5,2.8-1-.2-1.5-1.8-1.1-3.6.4-1.8,1.5-3,2.5-2.8,1,.2,1.5,1.8,1.1,3.6Z"/><path class="cls-6" d="M102.5,80.5c-.3-.2-.6-.4-.8-.6"/><path class="cls-6" d="M118.3,85.8s0,0-.1,0"/><path class="cls-5" d="M118.2,85.8c-3.1,5.9-14.7,1.8-15.7-5.3,4.9,3.2,10.4,4.7,15.7,5.3Z"/><path class="cls-6" d="M118.4,85.3c0,.2-.1.3-.2.5"/><path class="cls-1" d="M121.2,42.8c-7.9-3.2-16.4,3.9-19.1,7.9-2.7,4-2.5,8.2-3,12.4-.2-.1-.5-.2-.8-.2h-1.2c0,0-.1,0-.1,0-.5,0-1,.2-1.4.5,0-6.2.7-10.4,2.5-15.3-2.1,3.8-3.5,6.1-4.4,8.9-1.5,4.7-2,8.1-2,11.4-.4-.3-.9-.5-1.4-.4l-1.9.3c-.3,0-.6.2-.9.4-.2-1.7-.3-2.8-.3-3.8,0-2.6.4-5.7,1-9-1.5,3.7-2.2,7.6-2,12-.4-.5-1-.7-1.6-.6l-2,.3c-.4,0-.7.2-.9.5-.3-2.5-.4-4.1-.6-6.2-.3-4.1.2-12.1,5.9-20.7,6.1-8.1,13.7-9.9,23.1-10.2.7,0,1.5,0,2.2,0v.3c6.4,1.8,10.5,6.9,9.1,11.5Z"/><path class="cls-1" d="M128,79.2h-.1c1.6-5.2,2.1-9.8,2.5-11,.4-1.5,1.1-3.3,2.2-6.9v-.4c-.8-12.4-5.2-15.4-10.8-18.1h-.6c1.5-4.6-2.7-9.8-9.1-11.5v-.3c12.3.8,20.2,10.6,22.7,19.5,3.5,12.7-2.5,21.4-6.8,28.7Z"/><path class="cls-1" d="M98.6,73.4c0,1-1.7.9-2-.1-.2-.8-.4-1.1-.6-1.8.1,0,.3,0,.4,0h1.6s0,0,.2,0h.3s0,0,0,0c0,1,0,.9,0,1.9Z"/><path class="cls-6" d="M100.5,42.4c-1,2.1-1.8,3.9-2.5,5.7"/><path class="cls-6" d="M98.1,48h0"/><path class="cls-6" d="M91.7,68.3h0"/><path class="cls-1" d="M92.1,77c0,1.6-2.3,2-2.9.4-.1-.4-.2-.7-.4-1.4.2,0,.5,0,.7,0l1.9-.3c.2,0,.3,0,.5-.2,0,.7.1.7.1,1.4Z"/><path class="cls-6" d="M92,75.6h0"/><path class="cls-6" d="M88.9,76s0,0,0,0"/><path class="cls-6" d="M87.5,68.7s0,0,0-.1"/><path class="cls-6" d="M90.5,46.4c-1,3.1-1.8,6.3-2.4,9.4"/><path class="cls-6" d="M86.1,67.9h0"/><path class="cls-1" d="M86.3,81.4c-1.3.1-1.1-.3-1.9-1.7,0,0,0,0,0,0l2-.3c.2,0,.5-.1.6-.2h0c.1,1.7-.1,2.1-.8,2.3Z"/><path class="cls-6" d="M84.4,79.7s0,0,0,0"/><path class="cls-6" d="M81.6,68.1s0,0,0-.1"/><path class="cls-3" d="M87.6,78.7c0,0-.1.1-.2.2,0,0-.2.1-.2.2-.2.1-.4.2-.6.2l-2,.3s0,0,0,0c-1,.1-1.9-.5-2-1.5v-.4c-.2-.9.4-1.8,1.2-2,0,0,0,0,0,0,0,0,.1,0,.2,0l2-.3s0,0,.1,0c0,0,0,0,0,0h0c.9,0,1.7.6,1.8,1.5v.4c.2.5,0,1.1-.3,1.5Z"/><path class="cls-6" d="M86,75.3s0,0-.1,0l-2,.3c0,0-.1,0-.2,0,0,0,.1,0,.2,0l2-.3c0,0,.1,0,.2,0Z"/><path class="cls-5" d="M87.3,73.9c-.1.7-.6,1.2-1.3,1.4h0s0,0,0,0c0,0-.1,0-.2,0l-2,.3s-.1,0-.2,0c0,0,0,0,0,0-.9,0-1.7-.6-1.8-1.5v-.4c-.2-1,.4-1.9,1.4-2.1l2-.3c1-.2,1.9.5,2.1,1.5v.4c.1.2.1.4,0,.6Z"/><path class="cls-6" d="M86,75.3s0,0-.1,0l-2,.3c0,0-.1,0-.2,0,0,0,.1,0,.2,0l2-.3c0,0,.1,0,.2,0Z"/><path class="cls-3" d="M85.1,71.2l-2,.3c-1,.2-1.9-.5-2.1-1.5v-.4c-.2-.6,0-1.2.5-1.6.2-.2.6-.4.9-.5l2-.3c.6,0,1.2.1,1.6.6.2.2.4.6.4.9v.4c.2,1-.4,1.9-1.4,2.1Z"/><path class="cls-5" d="M93,73.7c.1.8-.3,1.6-1,1.9-.1,0-.3.1-.5.2l-1.9.3c-.2,0-.5,0-.7,0-.7-.2-1.2-.7-1.3-1.4v-.4c0,0,0-.2,0-.3s0-.2,0-.3c.1-.7.6-1.2,1.3-1.4h0c0,0,.1,0,.2,0l1.9-.3c0,0,.1,0,.2,0h0c.9,0,1.6.6,1.8,1.5v.4Z"/><path class="cls-6" d="M91.1,71.8c0,0-.1,0-.2,0l-1.9.3s-.1,0-.2,0c0,0,0,0,.1,0l1.9-.3c0,0,.2,0,.2,0Z"/><path class="cls-3" d="M91.1,71.8h0c0,0-.2,0-.2,0l-1.9.3s0,0-.1,0h0c-.9,0-1.7-.6-1.8-1.5v-.4c-.2-.6,0-1.3.5-1.7.2-.2.5-.3.9-.4l1.9-.3c.5,0,1,0,1.4.4.3.3.6.6.6,1.1v.4c.2.9-.3,1.8-1.2,2Z"/><path class="cls-6" d="M91.1,71.8c0,0-.1,0-.2,0l-1.9.3s-.1,0-.2,0c0,0,0,0,.1,0l1.9-.3c0,0,.2,0,.2,0Z"/><path class="cls-5" d="M100,69.5c0,.9-.5,1.6-1.5,1.9h-.3c0,0-.1,0-.2,0h-1.6c-.1,0-.3,0-.4,0-1-.2-1.7-1.2-1.6-2.2,0-1.1.9-1.9,2.1-2h0c0,0,.2,0,.3,0h1.2s0,0,0,0c1.2,0,2.1,1.1,2,2.3Z"/><path class="cls-6" d="M98,67.2h-1.2c-.1,0-.2,0-.3,0,0,0,0,0,.1,0h1.4Z"/><path class="cls-3" d="M100.3,65.2c0,1.2-1.1,2-2.2,2h-1.4c0,0-.1,0-.1,0,0,0,0,0-.1,0h0c-1.1-.2-1.8-1.2-1.7-2.3,0-.6.3-1.2.8-1.5.4-.3.9-.5,1.4-.5h1.4c.3,0,.5.2.8.3.8.4,1.3,1.2,1.3,2.1Z"/><path class="cls-6" d="M98,67.2h-1.2c-.1,0-.2,0-.3,0,0,0,0,0,.1,0h1.4Z"/></svg>