<?xml version="1.0" encoding="UTF-8"?><svg id="latinAmerica" xmlns="http://www.w3.org/2000/svg" width="235" height="321.9" viewBox="0 0 235 321.9"><defs><style>.cls-1{fill:#4d443e;}.cls-1,.cls-2,.cls-3,.cls-4,.cls-5,.cls-6,.cls-7,.cls-8{stroke:#000;stroke-linecap:round;stroke-linejoin:round;}.cls-2{fill:#444746;}.cls-3{fill:#cb4a80;}.cls-4{fill:#af856a;}.cls-5{fill:#e6ced6;}.cls-6{fill:#fff;}.cls-7{fill:none;}</style></defs><path class="cls-4" d="M93.6,63.5c-.9-.8-10.5,1.5-16.5,7.6-2.4,2.5-5.1,4.1-6.6,8.9h0c-2.2,7.3-3.8,14.6-4.2,22,2.3,2.5,4.5,4.5,6.5,6.2,8.3,7.1,13.4,7.5,17.6,5.3,1.8-1,3.5-2.5,5.2-4.1.6-.5,1.1-1,1.6-1.6.8-.8,1.7-2,3-4.1h0c1.2-2,2.8-4.7,3.2-7.2.5-2.6.7-5.2,1-7.9.3-2.1.6-4.2.5-6.3-.3-9.1-4.6-13.3-11.3-18.9ZM78.2,75.3c1.8-.2,7.8.3,6.6,3-.3.6-.9,1-1.7,1.1-.7,0-9.3-.8-9.4-1.2-.6-1.5,3.2-2.7,4.5-2.8ZM81.3,85.8c-.2,1.7-1,2.9-1.9,2.9-.8-.1-1.4-1.5-1.2-3.2.2-1.7,1-2.9,1.9-2.8.8,0,1.4,1.5,1.2,3.2ZM87.1,106.6c-1.8,0-4.6-.8-6.4-2-2-1.2-2.4-1.9-3.4-4,.9,1.2,10.6,4.6,15.8,2.9-1.5,2.2-3,3-6,3.1ZM99.6,87.9c-.2,1.7-1,2.9-1.9,2.8-.9,0-1.4-1.5-1.2-3.2.2-1.7,1-2.9,1.9-2.8.9.1,1.4,1.5,1.2,3.2ZM103,80.1c-.2.1-6.7.2-7.1.1-1-.1-1.7-.9-1.7-1.5,0-.6.9-1.1,1.8-1.3,1.2-.2,2.4-.2,3.6,0,1.2.1,2.4.6,3.2,1.5.3.4.5,1,.2,1.3Z"/><path class="cls-5" d="M66.7,131.4v.2c-.9,2.3-2.5,5.7-4.1,8.7l-.6-.3c-5.8-1.7-11.1-5.1-15.1-9.6h0c.9-1.6,1.6-2.9,1.8-3.2,4.1-6.3,5.4-9,10.2-11.1.3,1.1.6,2.2.9,3.2,1.2,3.9,3.5,9.3,6.8,12.2Z"/><path class="cls-3" d="M62.6,140.2s0,0,0,0c-.7,1.3-1.3,2.5-2,3.5-5.7-2.5-10.9-5.9-15.5-10.1.5-1.1,1.2-2.3,1.8-3.4h0c4,4.6,9.3,7.9,15.1,9.7l.6.3Z"/><path class="cls-5" d="M60.6,143.8c-.2.3-.3.5-.5.8-.4.7-.8,1.2-1.1,1.5-.8-.3-1.6-.6-2.4-.9-5.7-2.3-10.1-5.6-11.9-7.4-.4-.5-.7-.8-.8-1-.1-.3.4-1.6,1.1-3.1,4.6,4.2,9.8,7.6,15.5,10.1Z"/><path class="cls-7" d="M58.9,116h0s0,0,0,0"/><path class="cls-5" d="M102.2,144.8c0,1.3,0,2.6,0,3.8,0,1.8-.1,3.7-.2,5.6h0c-.7,11.6-2.1,23.2-2.9,34.6h-.4c-10.6,3.4-22.3,3-32.8-.8h0c.6,0,1.2.1,1.5,0,1.7-.8,5.4-9.3,4.4-11.7-.9-2.2-9.3-4.3-11-2.6h0c-1.1-1.6-2-3.1-2.8-4.5h.2c1.1-10.6,2.1-17.8,2.2-24.5l-.3-.2c.2-.2.3-.5.5-.8.6-1,1.3-2.2,2-3.5,0,0,0,0,0,0,1.6-3,3.1-6.4,3.9-8.7v-.2c.6.4,1.1.8,1.6,1,.6.3,1.4,0,1.5-.7.7-3.7-1-8.9-1.8-12.3-.5-1.9-.8-3.8-1.1-5.6h.1c.9-.2,1.5-.3,2.4-.4v.8c1.1,2.2,2.9,4,4.9,5.4,2.2,1.5,4.6,2.4,7.1,3.2,1.9.6,3.8,1.1,5.8,1.1,2,0,4-.8,5.3-2.3,1.2-1.5,1.5-4,.2-5.5v-.2c1.5.5,3,1.1,3.9,1.5h.1c-.7,5-1.8,10-1.9,14.5,0,1.4,1.9,1.9,2.5.7,1-1.9,1.9-4,2.8-6.2l1.1.4c.7,4.9,1.1,9.8,1.1,14.8,0,1.1,0,2.2,0,3.3Z"/><path class="cls-3" d="M99,188.9c-.1,2-.2,3.9-.3,5.9-11.3,4.2-23,4.8-43.7-5.1-.3-.1-.5-.2-.8-.4,1.2-3.5,1.5-4.1,1.9-6,3.1,2,6.3,3.6,9.8,4.8,10.5,3.8,22.2,4.2,32.8.7h.4Z"/><path class="cls-5" d="M65.9,188h0c-3.4-1.1-6.7-2.7-9.8-4.6.2-.8.3-1.8.6-3.4h0c.7.5,1.4,1.2,2.2,1.9.8,1.6,4.5,5.3,6.9,6.2Z"/><path class="cls-4" d="M67.4,188.1c-.4.2-.9.1-1.5,0-2.4-.9-6.1-4.6-6.9-6.2-.8-.7-1.5-1.3-2.2-1.9-7.5-6.6-11.7-11-16.5-20.7-2.4-4.8.2-14.7,4.5-21.4h0c1.7,1.8,6.1,5,11.9,7.4h0c-3.2,4.7-2.3,4.9-5.7,10.6,3.6,5.7,5,9.5,7.1,13.4.8,1.5,1.7,3,2.8,4.6h0c1.6-1.8,10.1.4,11,2.6,1,2.4-2.7,10.8-4.4,11.7Z"/><path class="cls-7" d="M61.1,174.3c-.1-.2-.2-.3-.3-.5"/><path class="cls-5" d="M109.9,142.2c-.7.9-1.4,1.7-2.1,2.4-1.8,1.6-3.8,2.6-5.7,4.2,0-1.3,0-2.6,0-3.8h.2c2.3-1.3,4.6-2.8,6.6-4.5h0c.3.6.6,1.3.9,1.9Z"/><path class="cls-3" d="M109,140.3h0c-2,1.7-4.2,3.3-6.6,4.5h-.2c0-1.1,0-2.2,0-3.3h.2c1.8-1.2,3.5-2.7,5-4.4h.3c.4,1,.9,2.1,1.3,3.1Z"/><path class="cls-5" d="M107.6,137.1h-.3c-1.5,1.8-3.1,3.2-5,4.5h-.2c0-5-.4-9.9-1.1-14.8l-1.1-.4c.5-1.1.9-2.2,1.3-3.4h.2c2.6,4.3,4.3,9.5,6.1,14.1Z"/><path class="cls-4" d="M126,167.3c-2.7.6-.5-.1-2.7,1.4-2.1,1.5-3.7,4.2-3.2,6.8h-.1c-2.5-6.6-17.4-15.9-18.1-21.2h0c.1-1.9.2-3.8.2-5.6,1.9-1.5,3.8-2.5,5.7-4.2h0c2.7,5.2,12.3,18.7,18.2,22.7Z"/><path class="cls-7" d="M101.8,153.9c0,.1,0,.2,0,.4"/><path class="cls-4" d="M129.3,178.4c-2.5,1.9-4,2.6-6.5.8-1.2-.8-2.2-2.1-2.6-3.5,0,0,0-.2,0-.3-.5-2.6,1.1-5.2,3.2-6.8,2.2-1.6,0-.8,2.7-1.4,3-.9,6.4.8,7.7,3.6,1.3,2.8-1.9,5.7-4.4,7.6Z"/><path class="cls-7" d="M84.2,206.1c-1.4,3.7-2.7,7.8-3.9,12"/><path class="cls-7" d="M55.1,189.5c0,0,0,.1,0,.2"/><path class="cls-7" d="M49.1,285.7s0,0,0,.1"/><path class="cls-4" d="M72,241.1h0c-2.6,8.6-4.5,11.5-9,20-4.7,8.8-7.9,16.6-13.9,24.6,3.7,3.5,6.4,6.5,9.3,9.5,0,2.4-1.7,4.7-3.9,5.8-2.2,1.2-4.9,1.6-7.4,1.9l-.3.7c-5.8-2.9-10.8-5.9-14.2-9.8.4-1.4,1.1-2.9,1.9-4,1.4-2.1,1.9-3.5,3.5-4.5,3.5-10.3,3.9-24,9.1-32.4,1.8-2.8,3.7-6.1,4.9-9.2,1.2-3.2,1.2-4.3.8-7.9,8.1,1.5,11.4,3.9,19.3,5.4Z"/><path class="cls-7" d="M37.8,285.2h0"/><path class="cls-2" d="M116.1,227.1c-8.2,2.3-14.5,8.3-20.6,12.8-.8.6-1.6,1.1-2.5,1.7-1.9-4.9-10.2-19.2-12.7-23.5-2.5,9-4.5,18.2-5.6,23.5-.9-.1-1.8-.3-2.7-.4-8-1.5-11.2-3.9-19.3-5.4-.7-.1-1.5-.3-2.3-.4,1.8-16.7-1.5-27.2,4.7-45.7,20.7,9.9,32.4,9.3,43.7,5.1,6.4,6.3,10.3,15.1,13.9,23.7,1.2,2.9,2.4,5.9,3.5,8.6Z"/><path class="cls-7" d="M80.3,218.1s0,0,0,0"/><path class="cls-7" d="M112.3,289.7c0,.3,0,.6-.1.9"/><path class="cls-4" d="M121.7,297.3c-.4,2.9-2.8,6.6-5,8.6,0,0-.5.4-.6.5h0c-6.2-1.3-12.2-3.2-17.9-5.4.6-3.2,1.5-6.1,2.8-9.2v-.8c0,0,0,0,0,0,0-.7-.6-18.1-3.6-29.4-.8-3.1-1.5-12.6-1-15.8.4-2.7-.8-5.6-.8-5.6l-.2-.3c6.2-4.5,12.4-10.5,20.6-12.8.3,20-1.2,42.6-3.8,62.5,3.2,1.7,5.9,3.2,8.4,4.5v.2c.9.4,1,1.8.9,2.9Z"/><path class="cls-7" d="M112.3,289.7s0,0,0,0"/><path class="cls-3" d="M128.9,300.9c-.1,1.3-1.9,3.4-2.9,4.2-1,.9-2.1,1.5-3.2,2.1v.3c-2.3-.3-4.5-.7-6.7-1.2h0c.1,0,.5-.4.6-.5,2.2-2,4.6-5.7,5-8.6.1-1.1,0-2.4-1-2.9v-.2c2.4,1.2,4.6,2.4,7,3.7.9.7,1.3,1.9,1.2,3Z"/><path class="cls-4" d="M137.4,308.6h0c0,0,0,.2-.2.2v-.2c-4.8.1-9.7-.2-14.5-1v-.3c1.2-.6,2.3-1.2,3.3-2.1,1-.9,2.7-2.9,2.9-4.2.1-1.1-.3-2.3-1.2-3,1.7.9,3.4,1.9,5.4,2.9,1.4.8,2.8,1.3,3.6,2.6,1.3,1.9,1.6,3.7.6,5.1Z"/><path class="cls-3" d="M137.2,308.6v.2c-.4.5-1,.9-1.7,1.3-3,1.5-6.6,1.4-10,1.1-10.4-1.1-14.1-2.3-24.2-5-1.2-.3-2.5-.7-3.1-1.8-.4-.8-.3-1.7-.2-2.5,0-.3.1-.7.2-1,5.8,2.2,11.8,4.1,17.9,5.4,2.2.5,4.4.9,6.6,1.2,4.8.7,9.7,1.1,14.5,1Z"/><path class="cls-7" d="M49.1,285.7s0,0-.1-.1"/><path class="cls-3" d="M63.5,300.4h0c-2.3,3-5.8,5.1-9.5,5.8l-.3.6h0c-2.4-1.1-4.8-2.1-7-3.2l.3-.7c2.5-.3,5.2-.6,7.4-1.9,2.2-1.2,3.9-3.4,3.9-5.8,1.6,1.7,3.3,3.4,5.1,5.2Z"/><path class="cls-4" d="M69,308.4h-.1c-.8,1.5-2.7,2.1-4.4,1.9-1.7-.2-5.3-1-6.8-1.7-1.3-.6-2.7-1.2-4-1.7l.3-.6c3.7-.7,7.2-2.8,9.5-5.7h0c.7.7,1.5,1.5,2.3,2.3,1.1,1.1,2.3,2.3,2.8,3.7.2.7.4,1.3.5,1.9Z"/><path class="cls-3" d="M66.1,312.4c-3.4.7-5.9.7-9.1-.5-9.9-3.8-14.2-6.8-23.2-12.1h0c-1.5-1-1.8-2.6-1.6-4.4,0-.5.2-1.1.3-1.6,3.4,3.9,8.4,6.9,14.2,9.8,2.2,1.1,4.5,2.2,7,3.2h0c1.3.6,2.6,1.2,4,1.7,1.6.7,5.2,1.5,6.8,1.7,1.7.2,3.6-.4,4.4-1.9h.1c.3,2-.3,3.4-2.9,4Z"/><path class="cls-7" d="M32.5,293.8c0,0-.1-.1-.2-.2"/><path class="cls-7" d="M58.4,295.2c0-.1,0-.2,0-.3"/><path class="cls-7" d="M137.4,308.6h-.1"/><path class="cls-7" d="M98.2,300.9c0,0-.1,0-.2,0"/><path class="cls-7" d="M127.7,297.9c-.1,0-.3-.2-.4-.3"/><path class="cls-7" d="M60.8,143.8c0,0,0,0-.1,0"/><path class="cls-7" d="M45.1,133.7s0,0,0,0"/><path class="cls-4" d="M90.1,119.4c-1.6,1.7-4.3,2.1-6.5,1.5-2.6-.7-5.2-2.1-7.4-3.6-2.3-1.6-3.2-2.8-3.6-4.5h0c-.2-1.2-.2-2.5,0-4.4l.2-.3c8.3,7.1,13.4,7.5,17.6,5.3h0c-.1.7-.1,1.2,0,1.7.1,1.9,1.1,2.9-.2,4.3Z"/><path class="cls-3" d="M92.3,121.6c-1.2,1.5-3.3,2.2-5.3,2.3-2,0-3.9-.5-5.8-1.1-2.5-.8-4.9-1.8-7.1-3.2-2-1.4-3.8-3.2-4.8-5.4v-.8c.6-.1,1.5-.2,2.8-.4h.4c.3,1.6,1.3,2.9,3.6,4.4,2.2,1.5,4.8,2.9,7.4,3.6,2.3.6,4.9.2,6.5-1.5,1.3-1.4.3-2.3.2-4.3h.2c.6.2,1.4.5,2.1.8v.2c1.2,1.5,1,3.9-.3,5.5Z"/><path class="cls-7" d="M69.5,114.2l-.2-.4"/><path class="cls-7" d="M56.1,183.3c-.2-.1-.4-.3-.6-.4"/><circle class="cls-3" cx="59.2" cy="200.1" r="2.2"/><circle class="cls-3" cx="62.2" cy="213.6" r="2.1"/><circle class="cls-3" cx="75.1" cy="207.3" r="2"/><circle class="cls-3" cx="68.1" cy="229.4" r="2"/><circle class="cls-3" cx="57.4" cy="223.8" r="2.2"/><circle class="cls-3" cx="96.6" cy="202.7" r="1.9"/><circle class="cls-3" cx="89.6" cy="213.4" r="1.7"/><circle class="cls-3" cx="102.2" cy="216.5" r="2.1"/><circle class="cls-3" cx="93.5" cy="228.2" r="1.7"/><circle class="cls-3" cx="103.7" cy="228.1" r="1.8"/><circle class="cls-3" cx="111" cy="219.1" r="1.7"/><circle class="cls-3" cx="76.4" cy="220.4" r="1.9"/><circle class="cls-3" cx="59.2" cy="235.3" r="1.8"/><circle class="cls-3" cx="85.6" cy="200.1" r="1.7"/><path class="cls-7" d="M66.3,102h0"/><path class="cls-7" d="M93.4,97.7c-3.3,2.1-3.4,1.7-7.4,1.1"/><path class="cls-1" d="M96.5,117.4h-.1c-.8-.4-2.3-1-3.8-1.5-.8-.3-1.5-.5-2.1-.8h-.2c0-.5,0-1,0-1.7h0c1.8-1,3.5-2.5,5.2-4.1.6-.5,1.1-1,1.6-1.6h0c.2,3.2-.2,6.4-.6,9.6Z"/><path class="cls-1" d="M72.7,112.8h0s-.4.1-.4.1c-1.3.2-2.2.3-2.9.4-1,.1-1.5.2-2.4.4h-.1c-.5-3.9-.7-7.9-.5-11.8,2.3,2.5,4.5,4.5,6.5,6.2l-.2.3c0,1.8-.1,3.2,0,4.4Z"/><path class="cls-1" d="M110,88.9c-.9,5.3-2.1,10.7-3.3,15.9-1.3,6-3.2,12.4-5.4,18.2-.4,1.2-.9,2.3-1.3,3.4-.9,2.2-1.9,4.3-2.8,6.2-.6,1.3-2.6.7-2.5-.7.2-4.5,1.2-9.4,1.9-14.5h0c.5-3.2.8-6.4.6-9.6h0c.8-.9,1.7-2,3-4.1h0c1.2-2,2.8-4.7,3.2-7.2.5-2.6.7-5.2,1-7.9.3-2.1.6-4.2.5-6.3-.3-9.1-4.6-13.3-11.3-18.9-.9-.8-10.5,1.5-16.5,7.6-2.4,2.5-5.1,4.1-6.6,8.9h0c-2.2,7.3-3.8,14.6-4.2,22-.2,3.9,0,7.8.5,11.8.2,1.9.6,3.7,1.1,5.6.8,3.5,2.5,8.6,1.8,12.3-.1.7-.9,1-1.5.7-.5-.3-1-.6-1.5-1-3.4-2.8-5.6-8.2-6.8-12.2-.3-1.1-.6-2.1-.9-3.2h0c-2.9-11.2-3.4-22.6-1.9-34,1.3-9.5,3.4-20.1,12.4-25.6,7.6-4.7,21.3-4.9,24.7-2.6h0c8.6,4.3,12,10,14.6,17.3,1.8,5.1,2.1,12.6,1.2,17.9Z"/><path class="cls-7" d="M94.2,53.8h0"/><path class="cls-1" d="M84.9,78.3c-.3.6-.9,1-1.7,1.1-.7,0-9.3-.8-9.4-1.2-.6-1.5,3.2-2.7,4.5-2.8,1.8-.2,7.8.3,6.6,3Z"/><path class="cls-1" d="M103,80.1c-.2.1-6.7.2-7.1.1-1-.1-1.7-.9-1.7-1.5,0-.6.9-1.1,1.8-1.3,1.2-.2,2.4-.2,3.6,0,1.2.1,2.4.6,3.2,1.5.3.4.5,1,.2,1.3Z"/><path class="cls-6" d="M93.1,103.5c-1.5,2.2-3,3-6,3.1-1.8,0-4.6-.8-6.4-2-2-1.2-2.4-1.9-3.4-4,.9,1.2,10.6,4.6,15.8,2.9Z"/><path class="cls-8" d="M81.3,85.8c-.2,1.7-1,2.9-1.9,2.9-.8-.1-1.4-1.5-1.2-3.2.2-1.7,1-2.9,1.9-2.8.8,0,1.4,1.5,1.2,3.2Z"/><path class="cls-8" d="M99.6,87.9c-.2,1.7-1,2.9-1.9,2.8-.9,0-1.4-1.5-1.2-3.2.2-1.7,1-2.9,1.9-2.8.9.1,1.4,1.5,1.2,3.2Z"/><path class="cls-7" d="M33.8,300s0,0-.1-.1"/></svg>