<?xml version="1.0" encoding="UTF-8"?><svg id="latinAmerica" xmlns="http://www.w3.org/2000/svg" width="235" height="321.9" viewBox="0 0 235 321.9"><defs><style>.cls-1{fill:#292a4a;}.cls-1,.cls-2,.cls-3,.cls-4,.cls-5,.cls-6,.cls-7,.cls-8,.cls-9,.cls-10,.cls-11,.cls-12,.cls-13,.cls-14,.cls-15,.cls-16,.cls-17,.cls-18{stroke:#000;stroke-linecap:round;stroke-linejoin:round;}.cls-2{fill:#2d5890;}.cls-3{fill:#d5685b;}.cls-4{fill:#aed793;}.cls-5{fill:#e0d89f;}.cls-6{fill:#222535;}.cls-7{fill:#122666;}.cls-8{fill:#88d0ba;}.cls-9{fill:#332e2a;}.cls-10{fill:#324580;}.cls-11{fill:#a26256;}.cls-12{fill:#b65f90;}.cls-13{fill:#856149;}.cls-14{fill:#80a6d7;}.cls-15{fill:#fff;}.cls-16{fill:#f5e78c;}.cls-17{fill:none;}</style></defs><path class="cls-15" d="M55.6,103c0,.3,0,.5.2.8"/><path class="cls-15" d="M88.7,107.7c0,0,.1,0,.2.2,0,0,0,0-.1,0v-.2Z"/><path class="cls-15" d="M91.4,120.6c.2.5.5,1.1.2,1.6,0,.1-.1.2-.2.3l-.5-3c.2.4.4.7.5,1.1Z"/><path class="cls-2" d="M71.4,183.8c-.5,4-1.6,8.1-3.9,11.5-8,.3-16.5-.8-23.2-4.7-1.3-.8-2.5-1.6-3.6-2.5-.9-.7-1.7-1.5-2.5-2.4.2-1.4.4-2.4.5-3,1.2.1,2-.3,1.9-1.8,1.1,0,3.4-1.2,2.1-2.9,1.3-.2,2.8-1.6,1.9-3.6,4.3-1,2.6-3.4.6-5.4.6-2.9-1.4-3.9-3.8-4.5.3-4.6,1.1-20.1.8-23.5-.1-1.8-.5-10.9-.6-11.7-4.9,5-13.2,12.3-16,15.3-.8-.3,4.5,7.3,7.8,13-2,3.4-7.1,9-10.4,11.2-5.8-6.4-15.7-18.6-13.6-26.1,1.3-1.6,20.1-26.3,21.9-27.8,2.6-2.3,4.4-5.7,7.4-7.4,0,0,0,0,0,0,.7-.4,1.3-.7,1.6-.7.2,0,2.3,1.3,5,3h0c-.1,1.7-.3,3.3-.4,5-1.1,0-1.6,1.9-2.3,2.7-.6.8-2.1,2.4-1.8,3.5.2.6.9.9,1.6,1,1.6.4,3.2.5,4.9.3.8,0,1.8-.3,2.1-1.1.7-1.7-2.6-6.5-4.4-6.5.6,0,1.1,0,1.6,0,.2-1.3.3-2.6.4-3.9,4.8,3.1,9.6,6.4,10.7,7.1h0c4.3,8.1,10.9,16.9,12.3,18.8l-.2.2c.5,11.6,1.1,23.2,1.6,34.7.2,4.1.4,8.2,0,12.2Z"/><path class="cls-17" d="M39.7,106.8c-.3.1-.6.3-.9.5"/><path class="cls-2" d="M91.6,189.5c-.7.6-1.9,1.2-3.6,1.9-4.5,1.8-12.2,3.6-20.5,3.9,2.3-3.4,3.4-7.4,3.9-11.5s.3-8.2,0-12.2c-.6-11.6-1.1-23.2-1.6-34.7l.2-.2c.2.2.3.4.3.4.8-.2,4.2-8.8,5.5-18.5.9-5.4,6-6.9,10.4-10.1.2,2.5.5,4.9.8,7.4,0,.2,0,.4.2.5h-.2c-.9,2-1.6,4.1-2.1,6.2,0,.4-.2.8.1,1.1.2.2.4.2.7.2,1.4.1,2.8,0,4.1-.5v17.8c0,4.4.1,11.7.3,19.6,0,2.8.2,5.7.3,8.5.2,4.8.4,9.5.6,13.5.2,2.7.3,5,.5,6.8Z"/><path class="cls-15" d="M75.9,118.5c-1.3,9.7-4.8,18.2-5.5,18.5,0,0,0-.1-.3-.4-1.4-1.9-8-10.7-12.3-18.8h0c-3.5-6.6-5.5-12.7-2-14.1,1.4,2.6,10.6,4.4,14.5,3.8,3.5-.5,4.6-3.5,4.7-5.3,1.6,4.9,1.6,10.7.9,16.2Z"/><path class="cls-15" d="M75,102.3c0,1.8-1.2,4.8-4.7,5.3-3.9.6-13.2-1.2-14.5-3.8,0,0,0,0,0,0-.1-1.6-.2-3-.3-4.5,0-1.3-.1-2.8-.1-4.5.3.2.6.5.9.7,9.1,7.2,13.6,8,18.3,5.6h0c.2.5.4.9.5,1.4Z"/><path class="cls-17" d="M49.9,89.6s0,0,0,0"/><path class="cls-9" d="M87,64.4c0,.1,0,.2-.2.3-.3.3-.9.4-1.4.4-2.1,0-4.3,0-6.4,0-1,0-2.1,0-2.9-.6-.8-.5-1.7-2.1-.8-2.5,1.7-.7,8.6-.6,10.3.7,0,0,.1,0,.2,0,0,0,0,0,0,0,.3.2.6.2.9.6.3.3.4.7.3,1.1Z"/><path class="cls-9" d="M67.7,64.8c-.9.1-7.7,0-9.2,0-.5,0-3.3-1.3-3-1.9.5-1.2,9.9-2.6,12.6-1.1.3.1.6,2.9-.3,3Z"/><path class="cls-18" d="M83.4,71.5c0,1.5-.6,2.8-1.4,2.8s-1.4-1.2-1.4-2.8.6-2.8,1.4-2.8,1.4,1.3,1.4,2.8Z"/><path class="cls-18" d="M63.7,71.6c0,1.8-.8,3.2-1.7,3.2s-1.8-1.5-1.8-3.2.8-3.2,1.8-3.2,1.7,1.4,1.7,3.2Z"/><path class="cls-15" d="M77.4,90.2c-1.8,2.4-4.2,2.7-7.6,2.3-5.8-.7-9.7-5.7-8.8-5.4,4.2,1.7,11.9,3.9,16.4,3h0Z"/><path class="cls-17" d="M77.8,90c-.1,0-.3,0-.5.1"/><path class="cls-17" d="M48.7,100c0,0,0,0,0,.1"/><path class="cls-4" d="M59.7,31.8c-4,.5-8.1,1.5-12,3.2,2.5-2.7,4.8-5.1,8.3-7.3.7-.5,1.5-.9,2.3-1.4h0s1.4,5.5,1.4,5.5Z"/><path class="cls-3" d="M49.4,55.4c-1.4,2.7-2.2,5.6-2.6,8.6h0c-5.5.9-9.9,7.1-12.4,10.9,0-2.9,0-5.2-.1-7.4h.1c4-5.5,9.1-9.5,15.1-12.2h0Z"/><path class="cls-10" d="M47.4,85.2h-.2c-5.7.6-6.2,1.5-10.1,4.2-1.8-4.8-2.8-9.9-2.8-14.5,2.5-3.8,7-10,12.4-10.9h0c-.7,5-.4,10.4.1,15.5.2,1.9.4,3.9.5,5.8Z"/><path class="cls-12" d="M46.9,99c-1.4-.4-3.1-.2-4.2,1.2-2.3-3.1-4.3-6.9-5.7-10.8,3.9-2.7,4.4-3.6,10.1-4.2h.2c.4,4.6.5,9.3-.4,13.8Z"/><path class="cls-17" d="M42.8,100.3c0,0,0,0-.1-.1"/><path class="cls-4" d="M77.4,32.8c-2.2-.5-4.4-.9-6.8-1.2,0,0-.2,0-.2,0-2.7-2.8-6.6-5.2-10.3-6.3.7,0,1.4.2,2.1.4,4.7,1.1,10.1,3.8,15.1,7.1Z"/><path class="cls-8" d="M81.2,47.5v-.2c-1-3.8-3.7-7.9-6.3-10.9h0c3.2.3,6.4,1,9.6,1.9h0c2.3,2.1,4.3,4.3,5.7,6.4,1.7,2.7,2.8,5,3.7,8.3-3.9-2.5-8.2-4.3-12.7-5.5Z"/><path class="cls-12" d="M95.2,60.9h-.3c-.5-.9-1.5-1.9-2.7-3-.8-.7-1.8-1.4-2.7-2.1-.6-.4-1.1-.8-1.7-1.1h0c-.7-.7-1.7-1.2-3-1.8-.8-.3-1.8-.6-2.9-.9-.7-.2-2.2-.4-4-.5h0c-.1,0-.2,0-.4,0,0,0,0,0,0,0-1.4,0-2.9-.1-4.6-.1-3.3,0-7,.1-10.3.4-1.2.1-2.3.2-3.4.4h0c-1.9.3-3.5.7-4.7,1.1-.3.1-.6.2-.8.4h0c-1.5.4-3,.9-4.4,1.6-6,2.7-11.1,6.7-15.1,12.2h-.1c0-2.4,0-4.5.2-6.7,2.3-2.5,4.9-4.7,7.7-6.6,5.7-3.9,12.1-6.6,18.9-7.7h0c0,0,0,0,0,0,.6,0,1.1-.2,1.7-.3,6.2-.8,12.6-.4,18.6,1.2,4.5,1.2,8.8,3,12.7,5.5.5,2.1,1,4.6,1.3,7.9Z"/><path class="cls-4" d="M94.8,88.4c-.3,1.8-2.9,13.9-4.7,14.2,0,0,0,0,0,0-.6-.8-1.5-1.5-2.4-1.9,5.5-13.5,7.1-27.2,4.6-42.8,1.2,1,2.2,2.1,2.7,3h.3c.2,2.1.5,4.6.7,7.5,0,14.3.8,8.2-1.1,20Z"/><path class="cls-17" d="M90,102.6c0,0-.1,0-.2,0"/><path class="cls-17" d="M82.7,103c0,0-.1,0-.1,0"/><path class="cls-17" d="M55.6,99.2h0"/><path class="cls-17" d="M48.5,99.8h-.2"/><path class="cls-2" d="M45.6,107.2v.2c0,.8-.1,1.5-.2,2.3-2.7-1.8-4.8-3.1-5-3-.2,0-.8.4-1.6.7,0,0,0,0,0,0-1.2.6-2.7,1.3-2.8,1-.2-.6,3.7-5.8,4.7-6.2.5-.2.7-.3,1.2-.5-.7,1.9.3,4.3,2.1,5.2.5.2,1,.4,1.6.4Z"/><path class="cls-17" d="M45.4,109.7s0,0,0,0"/><path class="cls-2" d="M47,110.7c.2-1.3.3-2.6.4-3.9h0c.8-.4,1.6-1,2-1.9,1.1-2.1.5-3.9-.8-5,0,0,0-.1,0-.2,2.3-.4,4.5-.6,6.7-.6,0,1.6.2,3,.3,4.5,0,0,0,0,0,0-3.5,1.4-1.5,7.5,2,14.1-1.2-.7-6-4-10.7-7.1Z"/><path class="cls-17" d="M47,110.7c0,0-.1,0-.2-.1"/><path class="cls-17" d="M57.8,117.8c.1,0,.2.1.2.1"/><path class="cls-9" d="M62.7,51.8c-.6,2.5-1.6,4.9-2.8,7.2-.2-2.2-.4-4.4-.6-6.6-1.7,2.8-3.3,5.7-5,8.5-.2-2.5,0-5,.4-7.4h0c1.2-.6,2.8-.9,4.7-1.2h0c1.1-.2,2.2-.3,3.4-.4Z"/><path class="cls-17" d="M62.8,51.6v.2"/><path class="cls-17" d="M89.5,55.8c0-.2-.1-.3-.2-.4"/><path class="cls-9" d="M77.6,51.5c-.8,2.9-1.5,5.8-2.2,8.7,0-2.8-1.1-6.3-2.3-8.8,1.7,0,3.2,0,4.6.1Z"/><path class="cls-17" d="M94.9,60.9c-.2,0-.4-.1-.6-.2"/><path class="cls-8" d="M60.9,46.5c-6.8,1.2-13.3,3.8-18.9,7.7l-.4-.5c-.6-4.4.2-9,2.4-12.9h0c5.1-2.3,10.3-3.8,15.5-4.5v.2c.9,3.3,1.3,6.6,1.3,10Z"/><path class="cls-15" d="M81.2,47.2v.2c-6.1-1.6-12.5-2.1-18.7-1.2-.6,0-1.1.2-1.7.3h0c0-3.4-.4-6.8-1.3-10v-.2c5-.7,10.1-.6,15.2,0h0c2.7,3.1,5.3,7.1,6.4,11Z"/><path class="cls-17" d="M94.2,53.2c-.1,0-.2-.1-.4-.2"/><path class="cls-17" d="M34.3,60.8c-.2.1-.3.3-.4.4"/><path class="cls-3" d="M84.5,38.3h0c-3.2-.9-6.4-1.6-9.6-2-5.1-.7-10.2-.7-15.3,0-5.3.7-10.5,2.2-15.5,4.5-1.1.5-2.2,1-3.3,1.6,2.8-2.7,5-5.2,7-7.4h0c3.9-1.7,7.9-2.7,12-3.2,3.6-.5,7.3-.5,10.8-.1,0,0,.1,0,.2,0,2.3.2,4.6.6,6.8,1.2,2.5,1.7,5,3.5,7.1,5.4Z"/><path class="cls-5" d="M70.4,31.6c-3.5-.4-7.1-.3-10.8.1l-1.4-5.4h0c.6-.4,1.2-.7,1.9-1,3.7,1.1,7.6,3.5,10.3,6.3Z"/><path class="cls-17" d="M46.9,99v.2"/><path class="cls-9" d="M90.6,69.4c0-.1-.2-.3-.3-.6h0c-.7-1.1-2-2.8-3.3-4.5.1-.4,0-.8-.3-1.1-.3-.3-.6-.4-.9-.6,0,0,0,0,0,0-1-1.5-1.9-2.8-2-3.5-.4-2-.4-2.3-1.4-4.1-.9-1.7-2.5-3.2-4.3-3.5,1.8,0,3.3.3,4,.5,1.1.3,2.1.6,2.9.9.8.4,1.8,1,3,1.7h0c.5.4,1.1.7,1.7,1.1,1.7,3.8,1.2,9.4,1.2,13.6Z"/><path class="cls-11" d="M87.6,100.7c-1.3-.5-2.8-.4-4,.6-.5.4-.8,1-1,1.6-.3-.2-.5-.4-.6-.8-.2-.8-.5-1.4-.7-1.9-.5-1.1-.9-2-.6-3.5,5.3-4,11.2-12.9,9.9-24.9-.2-1.4-.2-2.3-.3-2.9.2.2.3.4.3.6,0-4.2.5-9.8-1.2-13.6.9.7,1.9,1.4,2.7,2.1,2.5,15.6.9,29.3-4.6,42.8Z"/><path class="cls-17" d="M92.2,57.9c0-.2,0-.4,0-.7"/><path class="cls-17" d="M87.6,100.7c0,.1-.1.3-.2.4"/><path class="cls-17" d="M59.7,32c0,0,0-.1,0-.2"/><path class="cls-17" d="M60.9,45.9c0,.2,0,.4,0,.6"/><path class="cls-17" d="M70.8,32c-.1-.1-.2-.2-.3-.3"/><path class="cls-5" d="M41.6,53.7l.4.5c-2.8,1.9-5.4,4.1-7.7,6.6.2-2.7.7-5.5,1.7-9.2.9-3.6,2.1-6.7,4.7-9.2,1.1-.6,2.2-1.1,3.3-1.6h0c-2.2,3.9-3.1,8.5-2.4,13Z"/><path class="cls-4" d="M53.8,53.7c-.5.3-.9.6-1.1.9-4.7,7.5-2.5,16.8-2.9,25.1-.1,3.1,0,6.6,0,9.9,0,3.8-.2,7.5-1.1,10.2,0,0-.2,0-.3,0-.5-.4-1-.6-1.5-.8.9-4.5.8-9.1.4-13.8-.1-1.9-.3-3.9-.5-5.8-.5-5.1-.9-10.4-.1-15.5.4-3,1.2-5.9,2.6-8.6h0c1.4-.7,2.9-1.3,4.4-1.8h0Z"/><path class="cls-16" d="M49.5,105c-.4.8-1.2,1.4-2,1.8-.6.3-1.2.4-1.9.4-.5,0-1.1-.1-1.6-.4-1.8-.9-2.8-3.3-2.1-5.2,0,0,0-.2,0-.2.2-.5.5-.9.7-1.2,1.1-1.3,2.8-1.6,4.2-1.2.6.2,1.1.4,1.5.8,0,0,.1.1.2.2,1.3,1.1,1.9,3,.8,5Z"/><path class="cls-16" d="M90.7,105c0,1.2-.8,2.2-1.8,2.8,0,0,0,0-.1,0,0,0,0,0,0,0,0,0-.2,0-.3.1-.7.3-1.4.4-2.1.3-1.2,0-2.4-.6-3.2-1.6-.9-1.1-1.1-2.6-.6-3.9.2-.6.5-1.2,1-1.6,1.1-1,2.6-1.1,4-.6,1,.4,1.9,1.1,2.4,1.9.5.7.8,1.5.7,2.4Z"/><path class="cls-4" d="M47.5,106.8c-.2,1.3-.3,2.6-.4,3.9-.1,1.3-.3,2.6-.4,3.9-.5,0-1.1,0-1.6,0h0c.1-1.7.3-3.3.4-5h0c0-.8.1-1.5.2-2.3v-.2c.6,0,1.3-.1,1.9-.4h0Z"/><path class="cls-4" d="M89.3,116.3s0,0,0,0c-.3,0-.6,0-.9.2-.3.1-.8.2-1,0-.1-.1-.1-.3-.2-.5-.2-2.5-.5-4.9-.8-7.4.7,0,1.5,0,2.1-.3h0c.4,2.8.7,5.5.8,8.2Z"/><path class="cls-3" d="M49.4,121.1c-.3.8-1.2,1-2.1,1.1-1.6.2-3.3,0-4.9-.3-.6-.1-1.4-.4-1.6-1-.4-1.1,1.2-2.7,1.8-3.5.6-.8,1.1-2.7,2.3-2.7h0c1.8,0,5.1,4.8,4.4,6.5Z"/><path class="cls-3" d="M91.6,122.2c0,.1-.1.2-.2.3-.2.2-.5.4-.8.5-.2,0-.4.2-.7.3-1.3.5-2.7.6-4.1.5-.2,0-.5,0-.7-.2-.3-.3-.2-.7-.1-1.1.5-2.1,1.2-4.2,2.1-6.2h.2c.2.2.7.2,1,0,.2,0,.3-.1.5-.2h0c.1,0,.3,0,.4,0,.6,1.1,1.2,2.2,1.7,3.3t0,0c.2.4.4.7.5,1.1.2.5.5,1.1.2,1.6Z"/><path class="cls-15" d="M89.2,116.3c0-.1-.1-.2-.2-.3l-.3.3"/><path class="cls-15" d="M62.4,25.6v.2c-.8-.2-1.5-.3-2.2-.4-.7.3-1.3.6-1.9,1-.8.5-1.6.9-2.3,1.4-1.3-.7-1.7-2.6-1-3.9.8-1.4,2.7-2,4.2-1.5,1.5.5,2.7,1.9,3.1,3.4Z"/><path class="cls-17" d="M56.3,27.8c-.1,0-.2-.1-.3-.2"/><path class="cls-13" d="M90.6,71.8c-.2-1.4-.2-2.3-.3-2.9h0c-.7-1.1-2-2.8-3.3-4.5,0,.1,0,.2-.2.3-.3.3-.9.4-1.4.4-2.1,0-4.3,0-6.4,0-1,0-2.1,0-2.9-.6-.8-.5-1.7-2.1-.8-2.5,1.7-.7,8.6-.6,10.3.7,0,0,.1,0,.2,0-1-1.5-1.9-2.8-2-3.5-.4-2-.4-2.3-1.4-4.1-.9-1.7-2.5-3.2-4.3-3.5h0c-.1,0-.2,0-.4,0-.8,2.9-1.5,5.8-2.2,8.7,0-2.8-1.1-6.3-2.3-8.8-3.3,0-7,.1-10.3.4-.6,2.5-1.6,4.9-2.8,7.2-.2-2.2-.4-4.4-.6-6.6-1.7,2.8-3.3,5.7-5,8.5-.2-2.5,0-5,.4-7.4h0c-.3,0-.6.1-.8.3-.5.3-.9.6-1.1.9-4.7,7.5-2.5,16.8-2.9,25.1-.1,3.1,0,6.6,0,9.9,1.9,2.2,3.9,3.9,5.5,5,.3.2.6.5.9.7,9.1,7.2,13.6,8,18.3,5.6.6-.3,1.2-.7,1.8-1,1.4-.9,2.8-1.9,4.4-3.2,5.3-4,11.2-12.9,9.9-24.9ZM58.4,64.8c-.5,0-3.3-1.3-3-1.9.5-1.2,9.9-2.6,12.6-1.1.3.1.6,2.9-.3,3-.9.1-7.7,0-9.2,0ZM61.9,68.4c1,0,1.7,1.4,1.7,3.2s-.8,3.2-1.7,3.2-1.8-1.5-1.8-3.2.8-3.2,1.8-3.2ZM69.8,92.5c-5.8-.7-9.7-5.7-8.8-5.4,4.2,1.7,11.9,3.9,16.4,3h0c-1.8,2.5-4.2,2.8-7.6,2.4ZM82,74.3c-.8,0-1.4-1.2-1.4-2.8s.6-2.8,1.4-2.8,1.4,1.3,1.4,2.8-.6,2.8-1.4,2.8Z"/><path class="cls-2" d="M86.3,108.4c-4.4,3.2-9.5,4.7-10.4,10.1.7-5.5.7-11.4-.9-16.2,0-.9-.2-1.5-.5-1.4h0c.6-.3,1.2-.7,1.8-1.1,1.6-.1,3.3,0,4.9.4.3.6.5,1.2.7,1.9,0,.3.3.6.6.8-.5,1.3-.2,2.8.6,3.9.8,1,1.9,1.5,3.2,1.6Z"/><path class="cls-17" d="M81.4,100.2c0,0-.1,0-.2,0"/><path class="cls-17" d="M76.3,99.8c-.1,0-.2,0-.3,0"/><path class="cls-1" d="M99.9,170.4c-1.1,1.8-2.1,3.6-2.9,5.3-.1,0-.3-.2-.4-.3-2.1-1.6-4.9-4.1-6.1-6.3-.1-2.8-.2-5.7-.3-8.5h0c2,3.1,6.2,8.3,9.7,9.8Z"/><path class="cls-17" d="M45,125.5c-.6.9-1.8,2.2-3.2,3.6"/><path class="cls-1" d="M36,163.4c-2.1,3.5-5.1,8.3-7.3,9.3-.6.3-1.2.3-1.7-.1-.5-.5-2-1.9-3.9-4,3.3-2.1,8.4-7.8,10.4-11.2,1.6,2.9,2.8,5.2,2.4,5.9Z"/><line class="cls-17" x1="38.2" y1="185.6" x2="38.2" y2="185.6"/><path class="cls-17" d="M89.9,123.3v-.2"/><path class="cls-17" d="M41.5,164.4c0,0,0,.2,0,.2"/><path class="cls-17" d="M99.4,147.2s0,0,0-.1"/><path class="cls-2" d="M99.9,170.4c-3.4-1.4-7.6-6.7-9.7-9.8.3-.7,3.2-5.2,6.2-9.5,1-1.4,2-2.8,2.9-4-.9-1.6-2.8-3.7-4.6-5.5-2.1-2.1-4.1-3.9-4.7-4.6h-.2v-13.7c.2,0,.4-.2.7-.3.3-.1.6-.3.8-.5,0,0,.2-.2.2-.3.2-.5,0-1.1-.2-1.6-.2-.4-.3-.7-.5-1.1t0,0l-2.1-11.6s0,0,.1,0c.7.6,1.5,1.4,2.5,2.3,4.2,3.9,16.4,26.3,20.6,33,1.9,5.9-6.2,17.1-12.1,27.4Z"/><path class="cls-17" d="M101.5,144.4c-.7.7-1.4,1.6-2.2,2.7"/><path class="cls-13" d="M44.7,174.2c.8,2-.7,3.4-1.9,3.6,1.3,1.6-1.1,2.9-2.1,2.9,0,1.5-.8,1.9-1.9,1.8-2.2-.2-5.5-2.3-6.4-3.2-2-2-3.6-4.7-3.6-6.6,2.2-1.1,5.2-5.8,7.3-9.3,1.5.5,3.7.6,5.5,1,2.5.5,4.4,1.5,3.8,4.5,1.9,2,3.6,4.4-.6,5.4Z"/><path class="cls-17" d="M45.3,168.8c-.8-.9-1.7-1.6-2.1-2.2"/><path class="cls-17" d="M45.3,168.8s0,0,0,0"/><path class="cls-14" d="M102.5,293.2c-1.2.4-2.3.8-3.5,1.2-3.9-35.9-7.4-68.7-11-103,1.7-.7,2.9-1.3,3.6-1.9,1,6.4,10.9,96.8,10.9,103.7Z"/><path class="cls-17" d="M38.7,182.6v-.2"/><path class="cls-7" d="M99,294.4c-5.4,1.8-11.4,3.7-19,2.6-2.1-.3-4.4-.8-6.8-1.7,0-3.2-8.8-84.2-8.8-87.9-4.8,23.3-15.1,90.2-15.1,90.2-1.4.2-3.3.3-5.4.1-4.9-.3-11.2-1.5-15.8-2.7,6.5-35.9,13.2-69,16.3-104.6,6.7,3.9,15.2,5,23.2,4.7,8.3-.3,16-2.1,20.5-3.9,3.6,34.4,7.1,67.2,11,103Z"/><path class="cls-17" d="M64.3,207.4c.8-4.1,1.5-6.9,1.9-7.7"/><path class="cls-7" d="M40.7,188c-3.1,35.6-10.7,69.4-17.2,105.2l-.2.4h0c-.9-.4-1.6-.7-1.9-1,0,0,13.7-88.2,16.8-107.1.8.9,1.6,1.7,2.5,2.4Z"/><path class="cls-6" d="M43.5,308c-1.4,1.3-5.2,1-7.2,1-5.5,0-11,0-16.5,0-1.7,0-3.7-.2-4.8-1.4-1-1.1-1.1-7.1-.7-8.5.8-2.8,4.4-5.2,7.2-6.4.3.3.9.6,1.9,1h0c1.2.5,2.8,1,4.7,1.5,4.7,1.2,10.9,2.4,15.8,2.7.7,2.1,1.3,8.6-.3,10.2Z"/><line class="cls-17" x1="43.8" y1="297.8" x2="43.8" y2="297.8"/><path class="cls-6" d="M109.4,308.1c-.4.2-3.4.8-3.9.9-5.1.2-23.3-.3-24.8-1.2-2.1-1.2-1.6-8.6-.8-10.8,7.6,1.1,13.6-.8,19-2.6,1.2-.4,2.4-.8,3.5-1.2,3.8,1.4,5.7,1.9,7,4.4.7,1.4,1.4,9.8,0,10.5Z"/><path class="cls-17" d="M76.6,81.1c1.2,3-1.6,3.7-5.8,3.5"/><line class="cls-17" x1="23.2" y1="168.7" x2="23.1" y2="168.7"/><path class="cls-13" d="M96.5,175.5c-.3,1.6-.6,3.2-1.4,4.6-.9,1.5-2.4,2.7-4.1,2.6-.2-3.9-.4-8.6-.6-13.5,1.2,2.2,4,4.6,6.1,6.3Z"/><path class="cls-17" d="M91,182.7h0"/><path class="cls-17" d="M96.6,175.1c0,.1,0,.2,0,.4"/><path class="cls-14" d="M44.3,190.5c-3.1,35.6-9.8,68.7-16.3,104.6-1.9-.5-3.5-1-4.7-1.5l.2-.4c6.5-35.9,14.1-69.6,17.2-105.2,1.1,1,2.3,1.8,3.6,2.5Z"/><path class="cls-17" d="M67.5,195.2s0,0,0,0"/><path class="cls-17" d="M52.8,167.7c-1.7,3.2-2.4,8.7-2,12.3"/><path class="cls-17" d="M84.6,166.5c2.1,2.2,4.1,10.2,4.1,12.8"/></svg>