<?xml version="1.0" encoding="UTF-8"?><svg id="latinAmerica" xmlns="http://www.w3.org/2000/svg" width="235" height="321.9" viewBox="0 0 235 321.9"><defs><style>.cls-1,.cls-2,.cls-3{fill:none;stroke:#000;}.cls-1,.cls-3{stroke-linecap:round;stroke-linejoin:round;}.cls-2{stroke-miterlimit:10;}.cls-4{fill:#49506b;}.cls-4,.cls-5,.cls-6,.cls-7,.cls-8,.cls-9,.cls-10,.cls-11{stroke-width:0px;}.cls-5{fill:#402a1f;}.cls-6{fill:#434246;}.cls-7{fill:#1f2076;}.cls-8{fill:#b27f62;}.cls-9{fill:#fff;}.cls-10{fill:#e52e20;}.cls-11{fill:#020000;}.cls-3{stroke-width:3px;}</style></defs><path class="cls-4" d="M25.4,294.7c-4.6.6-8.9,2.1-11.5,4.1-1.1.9-2.3,6.8-1.3,7.9,1.1,1.2,3,1.8,4.7,1.8,5.4,0,10.8.1,16.2,0,2,0,5.7-.2,7.1-1.5,1.6-1.6.9-8.5-.4-10.4-3.8-2.2-9.5-2.7-14.7-2Z"/><path class="cls-8" d="M36.1,162.3c-4.9-2.3-7.1-10-8.8-13.5-1.4-3-2.1-5.4-3.5-7.4.8-.7,6.4-6.8,7.8-8.1-1.4-.7-2.8-1.6-4.3-3-1.2-1.1-2.7-3.6-3.8-6-3,3.1-8.9,8.3-10.2,10.7-2.8,5.1,2.3,17.3,6,21.7,2.7,3.2,7.6,9.1,10.1,12.7-1.2,2.8,1.7,6.9,3.7,8.9.9.9,4.2,3,6.3,3.2,1.1,0,1.9-.3,1.9-1.8,1,0,3.3-1.2,2.1-2.8,1.2-.2,2.7-1.6,1.9-3.6,4.2-1,2.5-3.4.6-5.3.6-2.7-1.3-3.9-3.7-4.5-2.1-.6-4.5-.7-6.1-1.2h0Z"/><path class="cls-7" d="M22.4,119.3c0,1.4.4,3.2,1.2,5,1,2.5,2.6,4.9,3.8,6,1.5,1.4,2.8,2.3,4.3,3,1.3.6,2.7,1.2,4.4,1.8.7-.8,1.6-1.8,2.4-2.9l-.2-.2c-3.2-1.6-6.5-3.3-9.1-5.8-2.6-2.5-4.5-5.9-4.3-9.5h0c-1.4,1.4-2.5,2.5-2.5,2.5Z"/><path class="cls-9" d="M24.9,116.7h0c-.2,3.6,1.7,7.1,4.3,9.6,2.6,2.5,5.9,4.2,9.1,5.8l.2.2c.8-1,1.6-2.1,2.5-3.3h-.6c-6.8-1.5-12.4-7.3-13.6-14.1h0c-.6.6-1.3,1.2-1.8,1.8Z"/><path class="cls-10" d="M90,132v-.8c.1-1.3.2-2.5.2-3.8,3.9-1.9,7-5.3,8.8-9.3-3.9-6.8-8.8-15.2-13.4-17.8h0c-1,0-2,.1-2.9.3-8.4,1.4-10.5,5.2-13.7,11.7-6.2-5.1-14.4-9.8-23.7-11.7-.5-.1-1.1-.2-1.6-.3-3.4,1.5-8.9,6.5-11.6,9.1-1,.9-3.2,3.3-5.4,5.4h0c1.1,6.9,6.8,12.8,13.6,14.2h.6c.5-.7,1.1-1.4,1.6-2.1l.8.4c0,0,.5,7.9.6,9.6.3,3.4.6,6.8.4,10.2-.3,4.7-1.7,12.1-2.1,16.3,2.4.6,4.3,1.8,3.7,4.5,1.9,1.9,3.5,4.3-.6,5.3.8,2-.6,3.4-1.9,3.6,1.2,1.6-1,2.8-2.1,2.8,0,1.5-.7,1.9-1.9,1.8-.1,1-.3,1.9-.4,2.8,16.5,11.4,49.3,4.1,52.2,4-.2-2.1-.4-4.8-.6-8-.3-5.8-.6-13-.7-19.9-.2-7.9-.3-15.3-.3-19.7s.2-5.9.4-8.7Z"/><path class="cls-8" d="M29.2,277.2c-1.1,7-2.4,10.9-3.8,17.5,5.3-.7,10.9-.1,14.7,2,.5-6.3,1.8-12.9,3.4-19.1-4.8.4-10.6.1-14.3-.5Z"/><path class="cls-6" d="M81.9,280.1c6.5.7,10.9-1.4,15.6-3.3,1.1-.4,2.1-.8,3.2-1.2,0-26.2-8.5-81.1-9.5-87.4-2.9,0-35.6,7.5-52.2-4-6.6,42.7-11.4,64.3-13.7,91.8.5.5,1.9.9,3.9,1.2,3.8.6,9.5.9,14.3.5,3.2-.3,6.1-.9,7.6-1.9,0,0,8.4-47.7,12.9-68.4.5,6.3,10.4,68,10.5,71.1,2.7.9,5.1,1.5,7.3,1.7Z"/><path class="cls-8" d="M78.2,84h0c-1.3,3.1-3.7,4-7,4.1-5.7.2-10.3-4.9-9.3-4.7,4.4,1.3,12.1,2.4,16.3.6ZM46.1,73.9h0c1.2,7.8,7.5,14.3,10.1,16.6,7.7,6.8,13.2,7.8,17.6,6,.7-.3,1.5-.7,2.1-1.1,2.9-1.9,5.4-4.9,7.9-7.8,2.8-3.2,5.1-7.1,6.4-13.2.6-2.8,1-6,1-9.8,0-1.6,0-2.8,0-4,0-1.2,0-2.3,0-3.5h0c-.6-3.3-1.9-7.8-4.7-9.8-1.8-1.4-3,.3-5,1.2-1.9.9-4,1.6-6.1,1.5-4.8-.2-8.7-3.9-13.4-4.6-4.6-.7-7.6,3.7-9.8,7.3-2,3.3-3.4,7.9-4.1,9.1-.7,1.2-2.8,1.1-2.8-.4h0c-.5-1.3-1.7-1.9-2.7-1.6-.2,0-.4.1-.6.3-1.2.8-1.9,2.7-1.9,4.5,0,1.8.5,3.6,1.2,5.2.6,1.5,1.4,2.9,2.5,3.7.7.5,1.5.7,2.3.5ZM61.5,67c0-1.7.8-3.2,1.7-3.2s1.7,1.4,1.7,3.2-.8,3.2-1.7,3.2-1.7-1.4-1.7-3.2ZM81.4,66.8c0-1.5.6-2.8,1.4-2.8s1.4,1.2,1.4,2.8-.6,2.8-1.4,2.8-1.4-1.2-1.4-2.8Z"/><path class="cls-5" d="M45.4,61.3h0c0,1.5,2.1,1.7,2.8.4.7-1.2,2-5.9,4.1-9.1,2.2-3.6,5.2-7.9,9.8-7.3,4.7.7,8.6,4.4,13.4,4.6,2.2.1,4.2-.6,6.1-1.5,2-.9,3.1-2.5,5-1.2,2.7,2,4.1,6.5,4.7,9.8h0c0,1.2,0,2.3,0,3.6.3,0,.9,0,1.4.2,0-4.9.8-13.3-2.2-20.2-4-9.1-15.9-10.9-23.2-10.7-8.3.2-18.7,4.3-23.6,12.1-3.3,5.4-1.6,9.6-1,17.6h0c1.1-.2,2.2.4,2.7,1.6Z"/><path class="cls-9" d="M42.2,100c.5,0,1,.1,1.5.2.5,0,1.1.2,1.6.3v-.2c2.7-2.9,6.8-4.5,10.7-4.3h0c0-.7,0-1.3,0-2.1-4.7.6-11.6,2.3-14,6.1Z"/><path class="cls-7" d="M45.3,100.4v.2c9.2,1.9,17.5,6.6,23.6,11.7,3.3-6.6,5.3-10.4,13.7-11.7v-.3c-2.4-2.2-5.7-3.4-8.9-3.5,0,5.6-5.4,10.9-5.4,10.9-4.3-.3-12.7-6.3-12.4-9.2,0-.9.1-1.7.2-2.5h0c-4-.2-8,1.4-10.7,4.3Z"/><path class="cls-8" d="M56.2,93.9c0,.8,0,1.4,0,2.1,0,.8,0,1.6-.2,2.5-.2,2.9,8.2,9,12.4,9.2,0,0,5.5-5.3,5.4-10.9,0,0,0-.2,0-.3-4.4,1.8-9.8.8-17.6-6,0,1.4,0,2.5,0,3.4Z"/><path class="cls-9" d="M61.9,83.4c-.9-.3,3.7,4.8,9.3,4.7,3.3,0,5.6-.9,7-3.9h0c-4.1,1.7-11.9.5-16.3-.7Z"/><path class="cls-11" d="M63.2,63.8c-.9,0-1.7,1.4-1.7,3.2s.8,3.2,1.7,3.2,1.7-1.4,1.7-3.2-.8-3.2-1.7-3.2Z"/><path class="cls-9" d="M73.8,96.5c0,0,0,.2,0,.3,3.2,0,6.5,1.3,8.9,3.5v.3c.9-.2,1.9-.3,2.9-.4.8,0,1.5-.1,2.4-.2-2.7-3-8.1-3.6-12-4.6-.7.4-1.4.8-2.1,1.1Z"/><path class="cls-11" d="M82.8,64.1c-.8,0-1.4,1.2-1.4,2.8s.6,2.8,1.4,2.8,1.4-1.2,1.4-2.8-.6-2.8-1.4-2.8Z"/><path class="cls-8" d="M81.9,280.1c1.8,5.9,2,8.2,4.1,16.4,3-.8,7.2-1,11.6-.8,0-6.2,0-8.5,0-18.9h0c-4.7,1.8-9.1,3.9-15.6,3.3Z"/><path class="cls-4" d="M97.5,295.7c-4.4-.2-8.6,0-11.6.8-1.1,1.8-1.3,10.5.7,11.6,1.4.8,16.8.9,21.7,1,2.6,0,5.9-.6,6.3-.7,1.5-.6,1.8-6.9.7-7.8-3.4-2.8-10.8-4.5-17.9-4.8Z"/><path class="cls-8" d="M100.1,144.7c-1.7,2.7-2.9,5.4-4.2,8.2-.9,1.9-5.5,7.1-5.5,7.4h-.4c.2,6.9.4,14.1.7,19.9h.6c1.7-.4,1.1.2,2.1-2.6.8-2.1,1.2-4,1.9-6.2,1.6-5,5-7.8,8.7-11.8,5.1-5.4,8.4-15.4,4.5-20.9-.8-1.1-5.4-8.7-7.2-12.2-1.7,3.8-3.3,5.1-8.7,6.9v.2c1.5,2.6,6.8,11.5,7,11.1h.5Z"/><path class="cls-7" d="M101.3,126.5c.3-.8.7-1.6,1.1-2.6-.5-.8-1-1.7-1.6-2.7-2.7,4.1-6.4,7.6-10.7,10v.8c0,.3.3.8.8,1.9.6-.2,1.1-.3,1.7-.5,5.4-1.8,7-3.1,8.7-6.9Z"/><path class="cls-9" d="M90.2,127.4c0,1.3,0,2.5-.2,3.8,4.3-2.4,8-5.9,10.7-10-.6-1-1.2-2-1.8-3.1-1.7,4-4.9,7.3-8.8,9.3Z"/><path class="cls-8" d="M90.2,74.5h.3c1.6,1.1,3.7-2.5,4.1-5.1.3-1.9,0-3.9-.3-5.9-.1-.7-.2-1.4-.6-1.9-.2-.3-.6-.5-1-.7-.5-.2-1.1-.3-1.4-.2,0,1.1,0,2.4,0,4,0,3.8-.4,7.1-1,9.8Z"/><path class="cls-2" d="M73.8,96.3c0,0,0,.1,0,.2,0,0,0,.2,0,.3,0,5.6-5.4,10.9-5.4,10.9-4.3-.3-12.7-6.3-12.4-9.2"/><path class="cls-2" d="M85.6,100.3c4.5,2.6,9.5,11.1,13.4,17.8.6,1.1,1.2,2.1,1.8,3.1.6,1,1.1,1.9,1.6,2.7-.4,1-.7,1.9-1.1,2.6-1.7,3.8-3.3,5.1-8.7,6.9-.5.2-1.1.3-1.7.5"/><path class="cls-2" d="M43.7,100.3c-3.4,1.5-8.9,6.5-11.6,9.1-1,.9-3.2,3.3-5.4,5.4-.6.7-1.3,1.3-1.8,1.9-1.4,1.5-2.5,2.6-2.5,2.6,0,1.4.4,3.2,1.2,5,1,2.5,2.6,4.9,3.8,6,1.5,1.4,2.8,2.3,4.3,3,1.3.6,2.7,1.2,4.4,1.8.7-.8,1.6-1.8,2.4-2.9.8-1,1.6-2.1,2.5-3.3.5-.7,1.1-1.4,1.6-2.2,1.9-2.7,3.8-5.4,5-7.2"/><path class="cls-2" d="M89.4,117.6c.7,3.5.9,6.7.8,9.8,0,1.3,0,2.5-.2,3.8v.8c-.2,2.7-.4,5.6-.4,8.7,0,4.4.1,11.8.3,19.7.2,6.9.4,14.1.7,19.9.2,3.2.4,5.9.6,8-2.9,0-35.6,7.5-52.2-4-.1,0-.3-.2-.4-.3"/><path class="cls-2" d="M43.3,127.4c0-.1,0-.2,0-.2,0,0,.5,7.9.6,9.6.3,3.4.6,6.8.4,10.2-.3,4.7-1.7,12.1-2.1,16.3,0,.1,0,.3,0,.4"/><path class="cls-2" d="M101.3,126.4s0,0,0,0c1.8,3.4,6.4,11.1,7.2,12.2,3.9,5.5.5,15.5-4.5,20.9-3.7,4-7.1,6.8-8.7,11.8-.7,2.2-1.1,4.1-1.9,6.2-1,2.8-.4,2.2-2.1,2.6"/><path class="cls-2" d="M92.6,133.6c1.4,2.6,6.8,11.5,7,11.1"/><path class="cls-2" d="M89.6,131.2c.8.9.2.2.4.8,0,.3.3.8.9,1.9"/><path class="cls-2" d="M103.3,140.4c-1.3,1.5-2.3,2.9-3.2,4.3-1.7,2.7-2.9,5.4-4.2,8.2-.9,1.9-5.5,7.1-5.5,7.4s0,0,0,0"/><path class="cls-2" d="M31.6,133.3c-1.4,1.3-7,7.3-7.8,8.1"/><path class="cls-2" d="M23.6,124.3c-3,3.1-8.9,8.3-10.2,10.7-2.8,5.1,2.3,17.3,6,21.7,2.7,3.2,7.6,9.1,10.1,12.7"/><path class="cls-2" d="M36.8,162.5c-.2,0-.5-.2-.7-.3-4.9-2.3-7.1-10-8.8-13.5-1.4-3-2.1-5.4-3.5-7.4-.9-1.3-2-2.4-3.8-3.3"/><path class="cls-2" d="M43.9,165.7c.4.5,1.3,1.3,2.1,2.1,1.9,1.9,3.5,4.3-.6,5.3.8,2-.6,3.4-1.9,3.6,1.2,1.6-1,2.8-2.1,2.8,0,1.5-.7,1.9-1.9,1.8-2.1-.2-5.4-2.3-6.3-3.2-1.9-1.9-4.9-6.1-3.7-8.9"/><path class="cls-2" d="M36.2,162.1c1.6.5,4,.7,6.1,1.2,2.4.6,4.3,1.8,3.7,4.5,0,0,0,0,0,0"/><path class="cls-2" d="M91.2,188.2c1,6.3,9.5,61.3,9.5,87.4-1.1.4-2.2.8-3.2,1.2-4.7,1.8-9.1,3.9-15.6,3.3-2.2-.2-4.6-.7-7.3-1.7,0-3.1-10-64.7-10.5-71.1,0-.2,0-.3,0-.4"/><path class="cls-2" d="M66.5,198.3c-.5,1-1.3,4.3-2.4,9.1-4.6,20.7-12.9,68.4-12.9,68.4-1.5,1-4.4,1.6-7.6,1.9-4.8.4-10.6.1-14.3-.5-2-.3-3.4-.7-3.9-1.2,2.3-27.5,7.1-49.1,13.7-91.8.1-.9.3-1.9.4-2.8h0v-.2"/><path class="cls-1" d="M40.1,296.7c-3.8-2.2-9.5-2.7-14.7-2-4.6.6-8.9,2.1-11.5,4.1-1.1.9-2.3,6.8-1.3,7.9,1.1,1.2,3,1.8,4.7,1.8,5.4,0,10.8.1,16.2,0,2,0,5.7-.2,7.1-1.5,1.6-1.6.9-8.5-.4-10.4"/><path class="cls-1" d="M85.9,296.5c-1.1,1.8-1.3,10.5.7,11.6,1.4.8,16.8.9,21.7,1,2.6,0,5.9-.6,6.3-.7,1.5-.6,1.8-6.9.7-7.8-3.4-2.8-10.8-4.5-17.9-4.8-4.4-.2-8.6,0-11.6.8"/><path class="cls-1" d="M56,98.5c0-.9.1-1.7.2-2.5,0-.7,0-1.3,0-2.1,0-1,0-2.1,0-3.4"/><path class="cls-1" d="M91.3,57.1c0,1.2,0,2.3,0,3.5,0,1.1,0,2.4,0,4,0,3.8-.4,7.1-1,9.8-1.3,6-3.6,9.9-6.4,13.2-2.5,2.9-4.9,5.9-7.9,7.8-.7.4-1.4.8-2.1,1.1-4.4,1.8-9.8.8-17.6-6-2.6-2.3-8.9-8.8-10.1-16.5"/><path class="cls-1" d="M91.4,53.7c0,1.3,0,2.4-.1,3.5"/><path class="cls-3" d="M86.1,59c-1-.8-5.2-.9-6.2-.5"/><path class="cls-3" d="M67.2,58.3c-2-1-7.1-.3-7.5.4"/><path class="cls-1" d="M81.4,66.8c0,1.5.6,2.8,1.4,2.8s1.4-1.2,1.4-2.8-.6-2.8-1.4-2.8-1.4,1.2-1.4,2.8Z"/><path class="cls-1" d="M61.5,67c0,1.7.8,3.2,1.7,3.2s1.7-1.4,1.7-3.2-.8-3.2-1.7-3.2-1.7,1.4-1.7,3.2Z"/><path class="cls-1" d="M78,74.7c1.2,3-3.4,5.3-7.5,5"/><path class="cls-1" d="M78.6,83.8c-.1,0-.3.2-.5.2-4.1,1.8-11.9.7-16.3-.6-.9-.3,3.7,4.8,9.3,4.7,3.3,0,5.6-.9,7-3.9"/><path class="cls-1" d="M92.7,60.9c0-4.9.8-13.3-2.2-20.2-4-9.1-15.9-10.9-23.2-10.7-8.3.2-18.7,4.3-23.6,12.1-3.3,5.4-1.6,9.6-1,17.6"/><path class="cls-1" d="M45.5,61.6c0,0,0-.2,0-.2-.5-1.3-1.7-1.8-2.7-1.6-.2,0-.4.1-.6.3-1.2.8-1.9,2.7-1.9,4.5,0,1.8.5,3.6,1.2,5.2.6,1.5,1.4,2.9,2.5,3.7.7.5,1.5.7,2.3.5.5-.1.9-.4,1.2-.8"/><path class="cls-1" d="M91.3,60.7c.3,0,.9,0,1.4.2.4.2.8.4,1,.7.3.6.5,1.3.6,1.9.3,1.9.6,3.9.3,5.9-.4,2.6-2.5,6.2-4.1,5.2"/><path class="cls-1" d="M45.4,61.3c0,1.5,2.1,1.7,2.8.4.7-1.2,2-5.9,4.1-9.1,2.2-3.6,5.2-7.9,9.8-7.3,4.7.7,8.6,4.4,13.4,4.6,2.2.1,4.2-.6,6.1-1.5,2-.9,3.1-2.5,5-1.2,2.7,2,4.1,6.5,4.7,9.8h0c0,.2,0,.5.1.7"/><path class="cls-2" d="M24.9,116.8c-.2,3.6,1.7,7,4.3,9.5,2.6,2.5,5.9,4.2,9.1,5.8"/><path class="cls-2" d="M89.9,131.2s0,0,.1,0c4.3-2.4,8-5.9,10.7-10,0-.1.2-.3.2-.4"/><path class="cls-2" d="M26.8,114.9c1.1,6.8,6.8,12.7,13.6,14.1"/><path class="cls-2" d="M90.1,127.4s0,0,0,0c3.9-1.9,7-5.3,8.8-9.3,0-.1,0-.2.1-.3"/><path class="cls-2" d="M56.4,93.9c0,0-.1,0-.2,0-4.7.6-11.6,2.3-14,6.1.5,0,1,.1,1.5.2.5,0,1.1.2,1.6.3,9.3,1.9,17.5,6.6,23.7,11.7,3.3-6.6,5.3-10.4,13.7-11.7.9-.2,1.8-.3,2.9-.4.8,0,1.5-.1,2.4-.2-2.7-3-8.1-3.6-12-4.6"/><path class="cls-2" d="M45.3,100.4c2.7-2.9,6.7-4.5,10.7-4.3"/><path class="cls-2" d="M73.7,96.8h.1c3.2,0,6.5,1.3,8.9,3.5"/><path class="cls-1" d="M43.8,276.8c0,.3-.1.6-.2.9-1.6,6.2-2.9,12.8-3.4,19.1"/><path class="cls-1" d="M29.3,276.8c0,.1,0,.3,0,.4-1.1,7-2.4,10.9-3.8,17.5,0,.1,0,.2,0,.3"/><path class="cls-1" d="M81.8,279.8c0,0,0,.2,0,.3,1.8,5.9,2,8.2,4.1,16.4"/><path class="cls-1" d="M97.5,276.8c0,10.4,0,12.6,0,18.9v.2"/></svg>