<?xml version="1.0" encoding="UTF-8"?><svg id="latinAmerica" xmlns="http://www.w3.org/2000/svg" width="235" height="321.9" viewBox="0 0 235 321.9"><defs><style>.cls-1{stroke-linecap:round;stroke-linejoin:round;}.cls-1,.cls-2{fill:none;stroke:#000;}.cls-2{stroke-miterlimit:10;}.cls-3{fill:#74a9cd;}.cls-3,.cls-4,.cls-5,.cls-6,.cls-7,.cls-8,.cls-9,.cls-10,.cls-11,.cls-12{stroke-width:0px;}.cls-4{fill:#4e7495;}.cls-5{fill:#2648aa;}.cls-6{fill:#241b1b;}.cls-7{fill:#bc8c75;}.cls-8{fill:#9f6f56;}.cls-9{fill:#64a9d2;}.cls-10{fill:#fff;}.cls-11{fill:#ecc95a;}.cls-12{fill:#020202;}</style></defs><path class="cls-11" d="M46.2,103.7c2.3,1.9,5.8,3.4,9.7,4,1.3.2,2.6.3,4,.3,1.9,0,3.7-.4,5.3-1,3.6-1.5,6-4.4,6.8-7.1.4-1.4.4-2.7,0-3.8-.6-1.3-1.8-2.2-3.7-2.5-.3,0-.6,0-.9,0,0,.2,0,.4,0,.6,1.9,5.4-4,10.8-10.6,9-4.7-1.3-8.6-4.5-8.3-7.4,0-.8.1-1.5.2-2.2h-.9s0,0,0,0c-2.4.9-3.7,2.1-4.3,3.4-.6,1.3-.4,2.7.4,4,.6.9,1.4,1.8,2.5,2.7Z"/><path class="cls-11" d="M82.9,159.6c3.1,1.6,4.9,4.1,6,7.3h0c1.7-4,4.8-6.7,8.1-10.2,5-5.4,8.4-15.4,4.5-20.9-.8-1.1-1-1.8-2.7-5.1-1.8,3.5-3.8,4.7-9.1,6.4h0c1.3,2.5,2.5,4.5,3.2,5.2-1.6,2.6-2.7,5.1-4,7.8-.9,1.9-6,7.8-6,8h-.2v1.5h0Z"/><path class="cls-3" d="M56.4,184.3c2.1-28.5,1.5-60.1-.5-76.6-3.9-.6-7.3-2.2-9.7-4,1.9,8.7,2.7,47.5-1.3,79.2,3.7.7,7.7,1.2,11.5,1.4Z"/><path class="cls-11" d="M38.6,170.4c.8,2-.6,3.4-1.9,3.6,1.2,1.6-1,2.8-2.1,2.8,0,1.5-.7,1.9-1.9,1.8.9,1.6,5.9,3.2,12.1,4.4,4-31.8,3.2-70.6,1.3-79.2-1.1-.8-1.9-1.8-2.5-2.7-4.4,3.7-4.8,8.8-4.8,15.5,0,.4,0,.8.1,1.2,1.4,16.9,2.1,28.9-.5,44.4.6.7.9,1.6.7,2.9,1.9,1.9,3.5,4.3-.6,5.3Z"/><path class="cls-10" d="M70.8,79.1c-5.9,3-17.6-.2-18.8-1.6,2.1,3.1,2.2,4.1,4.3,5.6,2.1,1.6,5.7,1.8,7.9,1.5,3.5-.6,5.1-2.3,6.6-5.5Z"/><path class="cls-4" d="M72.8,297.2c8.4,1.2,15.2-.4,20.9-2.2,0-.4,0-1.1,0-2.1-1-15.3-8.9-96.4-9.9-102.3-.9-5.5-.8-3.5-1.2-9.3-1,.8-3.4,1.5-6.6,2-2.5.4-5.5.7-8.7.9-2.2.1-4.6.2-7.1.2s-2.5,0-3.7-.1c-3.8-.2-7.9-.7-11.5-1.4-6.2-1.1-11.2-2.7-12.1-4.4h0c-1.5,8.2-15,114.9-15,114.9,1.7,1.6,14.5,4,22.8,4.1,1.7,0,3.2,0,4.3-.3,0,0,0,0,0,0,.2-.5,7.8-65.2,12.3-93.8,0,3.7,6.5,88.4,6.6,91.5,3.2,1.1,6.2,1.8,9.1,2.2Z"/><path class="cls-9" d="M37.9,117.8c-.3.6-.6,1.3-1.1,2.1,0,2.4.4,15.5.5,17.2,0,13.8-1.3,19.3-1.7,23.4,1.3.3,2.4.8,3.1,1.6,2.6-15.5,1.9-27.6.5-44.4h-1.2Z"/><path class="cls-12" d="M73.4,59.8c-.5.4-.8,1.4-.8,2.5s.6,2.8,1.4,2.8,1.4-1.2,1.4-2.8,0-1-.2-1.4c-.6-.3-1.2-.7-1.8-1.1Z"/><path class="cls-6" d="M81.8,85.6c7.6-8.4,10.9-20.4,8.7-31.5.5,7.5-1.3,8.9-1.6,14.1-1.2-1.1-4.5-2.9-6.8-4-.8,7.6-3.4,16.4-6.5,20-3,3.5-5.5,6.4-8.5,8,0,1.6.1.3.2,1.4.3,0,.6,0,.9,0h0c6.1-1.4,9.9-5.4,12.5-11.1.4,1,.7,2,1.1,3Z"/><path class="cls-7" d="M52,77.5c1.2,1.4,12.9,4.6,18.8,1.6-1.5,3.2-3.1,5-6.6,5.5-2.2.3-5.8.1-7.9-1.5-2.1-1.6-2.2-2.5-4.3-5.6ZM50.9,62.5c0-1.7.8-3.2,1.7-3.2s1.7,1.4,1.7,3.2-.8,3.2-1.7,3.2-1.7-1.4-1.7-3.2ZM49.1,54.8c-4.7,1.8-5.6-2.4-.7-3.5,2.5-.6,5-.7,7.5-.2.5.1,1.1.2,1.6.6.5.4.8,1.1.8,1.9,0,.8-.4,1.9-.9,1.6-2.1-1.4-6-1.2-8.2-.4ZM80.5,63.5c-1.7-.6-3.5-1.5-5.4-2.6.1.4.2.9.2,1.4,0,1.5-.6,2.8-1.4,2.8s-1.4-1.2-1.4-2.8.3-2.1.8-2.5c-9.8-6.3-20-17.9-20.4-27.3-11.7,15.3-14,17-15.2,33.2,0,1-.1,2-.1,2.9h0c.1,12,7.2,16.8,11.2,19.3.7.4,1.3.8,1.7,1.1,7.6,5.2,12.5,5.5,16.6,3.2,3-1.6,5.6-4.6,8.5-8,3.1-3.6,5.7-12.4,6.5-20-.6-.3-1.1-.5-1.6-.7Z"/><path class="cls-7" d="M22.9,165.2c-.1.3-.2.7-.2,1.1-.4,3.7,2.1,7.3,3.9,9.1.9.9,4.2,3,6.3,3.2,0,0,0,0,0,0,0,0,0,0,0,0,1.1,0,1.9-.4,1.9-1.8,1,0,3.3-1.2,2.1-2.8,1.2-.2,2.7-1.6,1.9-3.6,4.2-1,2.5-3.4.6-5.3.3-1.3,0-2.2-.7-2.9-.7-.8-1.8-1.2-3.1-1.6-2.1-.6-4.5-.7-6.1-1.2-.4-.1-.7-.3-1.1-.5h0c-2.6,1.3-4.6,3.6-5.5,6.3Z"/><path class="cls-6" d="M82.1,64.2c2.3,1.1,5.6,2.8,6.8,4,.3-5.2,2.1-6.6,1.6-14.1-.1-1.9-.4-4.1-.9-6.9-1.1-6.2-3.8-13.6-7.6-18.6s-13.3-9.6-19.6-8.7c-5.5-1-19.1,2-23.3,5.7-8.1,7-9.7,14.9-12.4,25.3-2.7,10.4.2,20.2,3.9,30.3,1.1,2.9,8.1,10.8,10.6,12.7-.1-1.3-.7-3.3-1.4-5.9-1.1-4.5-2.5-10.8-2.3-19.1h0c0-1,0-1.9.1-2.9,1.2-16.2,3.5-17.9,15.2-33.2.4,9.4,10.6,21,20.4,27.3.2-.2.4-.3.6-.3.5,0,1,.5,1.2,1.3,1.9,1.1,3.7,2,5.4,2.6.4.2.9.4,1.6.7Z"/><path class="cls-11" d="M28.4,158.8c-4.5-2.5-6.1-9.4-7.8-12.9-1.4-3-2.1-5.4-3.5-7.4.8-.7,1.7-1.5,3.2-2.7-1.5-.7-2.8-1.6-4.4-3.1-1.3-1.2-3-4-4-6.7-3,3.1-3.9,3.7-5.2,6.1-2.8,5.1,2.3,17.3,6,21.7,2.6,3.1,7.3,8.7,9.8,12.3,0-.3.2-.6.3-.9.9-2.7,3-5,5.5-6.3h0Z"/><path class="cls-6" d="M58.2,53.6c0-.8-.3-1.5-.8-1.9-.5-.4-1-.5-1.6-.6-2.5-.5-5-.3-7.5.2-4.9,1.1-4,5.4.7,3.5,2.2-.9,6.1-1.1,8.2.4.5.3.9-.8.9-1.6Z"/><path class="cls-10" d="M93.7,292.9c0,1,0,1.7,0,2.1-5.7,1.8-12.6,3.4-20.9,2.2-1.1,2-1.3,9.9.8,11.1,1.4.8,18.6.9,23.6.6.5,0,4-.1,4.5-.3,1.5-.7.8-8.9,0-10.2-1.3-2.4-4.4-4.1-8-5.5Z"/><path class="cls-5" d="M67.3,93.6c0,0-.2,0-.2,0,.1.2.2.4.3.6,0-.3,0-.5,0-.6Z"/><path class="cls-7" d="M82.9,159.6c0,6.7,0,13.4-.2,18.4,1.7-.4,2.9-.4,3.9-3.2.8-2.1,1.2-4,1.9-6.2.2-.5.4-1.1.6-1.5h0c-1.1-3.3-3-5.8-6-7.4h0Z"/><path class="cls-8" d="M32.8,178.5s0,0,0,0h0s0,0,0,0Z"/><path class="cls-3" d="M76,183.3c1.6-26.9-.1-73.4-3.5-83.2h-.5c-.8,2.6-3.2,5.4-6.8,6.9,3.1,22.5,2.5,52.9,2.1,77.2,3.3-.2,6.3-.5,8.7-.9Z"/><path class="cls-4" d="M22.9,165.2c-.1.3-.2.6-.3.9,0,0,0,0,0,.1,0-.4.1-.7.2-1.1Z"/><path class="cls-12" d="M54.4,62.5c0-1.7-.8-3.2-1.7-3.2s-1.7,1.4-1.7,3.2.8,3.2,1.7,3.2,1.7-1.4,1.7-3.2Z"/><path class="cls-9" d="M76.7,96.8c-2.1-.5-3-.7-4.8-.6.5,1.1.5,2.4,0,3.8h.5c3.5,2.3,7.6,5.5,9.6,11.3.7,6.2.8,12,.8,17.6h.2c1.1,1.3,3.9,5.3,5.7,8.7.4-.1.7-.2,1.1-.3,5.4-1.7,7.3-2.9,9.1-6.4.5-.9.9-1.9,1.4-3.1-3.9-4-12.5-21.4-16.2-25.6-2.1-2.3-4.1-4.4-7.5-5.2Z"/><path class="cls-11" d="M82.1,111.2c-2-5.8-6.1-9-9.6-11.1,3.4,9.8,5.1,56.3,3.5,83.2,3.3-.5,5.6-1.2,6.6-2,0-1,0-2.1.1-3.3.1-5,.2-11.7.2-18.4v-1.5c0-7.8,0-15.4,0-20.3s0-6,0-9c0-5.6-.2-11.5-.8-17.6Z"/><path class="cls-10" d="M40.4,307.9c1.6-1.6,1.4-8.5.2-10.4-8.3,0-21.1-2.5-22.8-4.1-2.7,1.3-5.3,3-6,5.7-.4,1.4-.3,7.2.7,8.3,1.1,1.2,3,1.3,4.7,1.3,5.4,0,10.8.1,16.1,0,2,0,5.7.3,7.1-1Z"/><path class="cls-6" d="M48.8,87.9c-4-2.5-11.1-7.3-11.2-19.3-.2,8.3,1.2,14.7,2.3,19.1.9,1.9,7.8,5.1,7.8,5.7h.9c.1-1.5.2-3.2.2-5.6Z"/><path class="cls-11" d="M55.9,107.7c2,16.5,2.6,48,.5,76.6,1.3,0,2.5.1,3.7.1,2.4,0,4.8,0,7.1-.2.5-24.3,1.1-54.7-2.1-77.2-1.5.6-3.3,1-5.3,1s-2.7-.1-4-.3Z"/><path class="cls-9" d="M39,116.5c0-6.7.4-11.7,4.8-15.5-.8-1.4-1-2.8-.4-4-1.4,0-2.3.2-3.7.2s-4.3,1-6,1.7c-3.4,1.5-5.5,5.1-8.3,7.7-2,1.9-14.4,15.2-14.4,15.2,0,1.2.3,2.7.9,4.3,1,2.7,2.7,5.4,4,6.7,1.5,1.5,2.9,2.3,4.4,3.1,1.3.6,2.6,1.1,4.3,1.8,3.2-3.2,9.2-12.5,12.1-17.7.5-.8.8-1.5,1.1-2.1h1.2c0-.5,0-.9-.1-1.4Z"/><path class="cls-12" d="M75.2,60.9c-.2-.8-.7-1.3-1.2-1.3s-.4,0-.6.3c.6.4,1.2.8,1.8,1.1Z"/><path class="cls-7" d="M48.4,95.8c-.2,2.9,3.6,6.1,8.3,7.4,6.6,1.8,12.5-3.6,10.6-9,0-.2-.2-.4-.3-.6,0,0,.2,0,.2,0,0-1.1-.2.2-.2-1.4-4.1,2.3-9,1.9-16.6-3.2-.5-.3-1-.7-1.7-1.1,0,2.4,0,4.1-.2,5.6,0,.7-.1,1.5-.2,2.2Z"/><path class="cls-2" d="M67.3,94.2c1.9,5.4-4,10.8-10.6,9-4.7-1.3-8.6-4.5-8.3-7.4,0-.8.1-1.5.2-2.2.1-1.6.2-3.3.2-5.6h0"/><path class="cls-1" d="M67.1,93.6c.1.2.2.4.3.6"/><path class="cls-2" d="M71.9,96.1c1.8,0,2.7.2,4.8.6,3.3.8,5.4,2.9,7.5,5.2,3.7,4.2,12.4,21.7,16.2,25.6-.5,1.2-.9,2.3-1.4,3.1-1.8,3.5-3.8,4.7-9.1,6.4-.3.1-.7.2-1.1.3-.1,0-.3,0-.4.1"/><path class="cls-2" d="M43.4,96.9s0,0,0,0c-1.4,0-2.3.2-3.7.2s-4.3,1-6,1.7c-3.4,1.5-5.5,5.1-8.3,7.7-2,1.9-14.4,15.2-14.4,15.2,0,1.2.3,2.7.9,4.3,1,2.7,2.7,5.4,4,6.7,1.5,1.5,2.9,2.3,4.4,3.1,1.3.6,2.6,1.1,4.3,1.8,3.2-3.2,9.2-12.5,12.1-17.7.5-.8.8-1.5,1.1-2.1"/><path class="cls-2" d="M82.1,111.2c.7,6.2.8,12,.8,17.6,0,3.1,0,6.1,0,9,0,4.9,0,12.5,0,20.3v1.5c0,6.7,0,13.4-.2,18.4,0,1.2,0,2.3-.1,3.3-1,.8-3.4,1.5-6.6,2-2.5.4-5.5.7-8.7.9-2.2.1-4.6.2-7.1.2s-2.5,0-3.7-.1c-3.8-.2-7.9-.7-11.5-1.4-6.2-1.1-11.2-2.7-12.1-4.4,0,0,0,0,0,0"/><path class="cls-2" d="M36.8,119.8v.2c0,2.4.4,15.5.5,17.2,0,13.8-1.3,19.3-1.7,23.4,0,.1,0,.3,0,.4"/><path class="cls-2" d="M98.9,130.5c0,0,0,.2.1.2,1.7,3.2,2,4,2.7,5.1,3.9,5.5.5,15.5-4.5,20.9-3.3,3.6-6.4,6.2-8.1,10.3-.2.5-.4,1-.6,1.5-.7,2.2-1.1,4.1-1.9,6.2-1,2.8-2.2,2.8-3.9,3.2"/><path class="cls-2" d="M89.9,137.2c1.3,2.5,2.5,4.5,3.2,5.2,0,0,0,0,0,0"/><path class="cls-2" d="M83.1,128.8c1.1,1.3,3.9,5.3,5.7,8.7,0,0,0,0,0,.1"/><path class="cls-2" d="M96.6,137.6c-1.4,1.6-2.5,3.2-3.5,4.7-1.6,2.6-2.7,5.1-4,7.8-.9,1.9-6,7.8-6,8s0,0,0,0"/><path class="cls-2" d="M20.3,135.8c-1.4,1.3-2.4,2-3.2,2.7"/><path class="cls-2" d="M11.9,126c-3,3.1-3.9,3.7-5.2,6.1-2.8,5.1,2.3,17.3,6,21.7,2.6,3.1,7.3,8.7,9.8,12.3,0,0,0,0,0,.1,0,0,.1.2.2.3"/><path class="cls-2" d="M29.5,159.3c-.4-.1-.7-.3-1.1-.5-4.5-2.5-6.1-9.4-7.8-12.9-1.4-3-2.1-5.4-3.5-7.4h0c-.9-1.3-2-2.4-3.8-3.3"/><path class="cls-2" d="M37.2,162.9c.4.5,1.3,1.3,2.1,2.1,1.9,1.9,3.5,4.3-.6,5.3.8,2-.6,3.4-1.9,3.6,1.2,1.6-1,2.8-2.1,2.8,0,1.5-.7,1.9-1.9,1.8h0c-2.1-.2-5.4-2.3-6.3-3.2-1.8-1.8-4.3-5.5-3.9-9.1,0-.4.1-.7.2-1.1"/><path class="cls-2" d="M29.5,159.3c1.6.5,4,.7,6.1,1.2,1.3.3,2.4.8,3.1,1.6.6.7.9,1.6.7,2.9,0,0,0,0,0,0"/><path class="cls-2" d="M82.6,181.3c.4,5.8.3,3.8,1.2,9.3.9,5.9,8.9,86.9,9.9,102.3,0,1,0,1.7,0,2.1-5.7,1.8-12.6,3.4-20.9,2.2-2.8-.4-5.9-1.1-9.1-2.2,0-3.1-6.6-87.9-6.6-91.5"/><path class="cls-2" d="M59.7,190.2c-.5,1.1-1.4,6-2.6,13.2h0c-4.4,28.7-12.1,93.3-12.3,93.8,0,0,0,0,0,0-1.2.2-2.7.3-4.3.3-8.3,0-21.1-2.5-22.8-4.1,0,0,13.5-106.7,15-114.9,0,0,0,0,0,0v-.2"/><path class="cls-1" d="M17.8,293.4c-2.7,1.3-5.3,3-6,5.7-.4,1.4-.3,7.2.7,8.3,1.1,1.2,3,1.3,4.7,1.3,5.4,0,10.8.1,16.1,0,2,0,5.7.3,7.1-1,1.6-1.6,1.4-8.5.2-10.4"/><path class="cls-1" d="M72.8,297.2c-1.1,2-1.3,9.9.8,11.1,1.4.8,18.6.9,23.6.6.5,0,4-.1,4.5-.3,1.5-.7.8-8.9,0-10.2-1.3-2.4-4.4-4.1-8-5.5,0,0,0,0,0,0"/><path class="cls-2" d="M47.7,93.6c-2.4.9-3.7,2.1-4.3,3.4-.6,1.3-.4,2.7.4,4,.6.9,1.4,1.8,2.5,2.7,2.3,1.9,5.8,3.4,9.7,4,1.3.2,2.6.3,4,.3,1.9,0,3.7-.4,5.3-1,3.6-1.5,6-4.4,6.8-7.1.4-1.4.4-2.7,0-3.8-.6-1.3-1.8-2.2-3.7-2.5-.3,0-.6,0-.9,0,0,0-.2,0-.2,0"/><path class="cls-1" d="M67.3,94.2h0c0-.3,0-.5,0-.7,0-1.1-.2.2-.2-1.4"/><path class="cls-1" d="M70.8,79.1c-5.9,3-17.6-.2-18.8-1.6,2.1,3.1,2.2,4.1,4.3,5.6,2.1,1.6,5.7,1.8,7.9,1.5,3.5-.6,5.1-2.3,6.6-5.5Z"/><path class="cls-1" d="M82.3,60.6c0,1.2-.1,2.4-.3,3.6-.8,7.6-3.4,16.4-6.5,20-3,3.5-5.5,6.4-8.5,8-4.1,2.3-9,1.9-16.6-3.2-.5-.3-1-.7-1.7-1.1-4-2.5-11.1-7.3-11.2-19.3"/><path class="cls-1" d="M48.3,51.3c2.5-.6,5-.7,7.5-.2.5.1,1.1.2,1.6.6.5.4.8,1.1.8,1.9,0,.8-.4,1.9-.9,1.6-2.1-1.4-6-1.2-8.2-.4-4.7,1.8-5.6-2.4-.7-3.5Z"/><path class="cls-1" d="M73.4,59.8c-.5.4-.8,1.4-.8,2.5s.6,2.8,1.4,2.8,1.4-1.2,1.4-2.8,0-1-.2-1.4c-.2-.8-.7-1.3-1.2-1.3s-.4,0-.6.3Z"/><path class="cls-1" d="M50.9,62.5c0,1.8.8,3.2,1.7,3.2s1.7-1.4,1.7-3.2-.8-3.2-1.7-3.2-1.7,1.4-1.7,3.2Z"/><path class="cls-1" d="M69.7,72.3c-1.9,1.7-4.4,3.8-8.8,1.6"/><path class="cls-2" d="M39.9,87.8c.7,2.6,1.3,4.6,1.4,5.9-2.5-1.9-9.5-9.7-10.6-12.7-3.7-10.1-6.6-19.9-3.9-30.3,2.7-10.4,4.2-18.3,12.4-25.3,4.3-3.7,17.8-6.7,23.3-5.7,6.3-.8,15.8,3.7,19.6,8.7s6.5,12.4,7.6,18.6c.5,2.8.8,5.1.9,6.9.5,7.5-1.3,8.9-1.6,14.1-1.2-1.1-4.5-2.9-6.8-4-.6-.3-1.1-.5-1.6-.7-1.7-.6-3.5-1.5-5.4-2.6-.6-.3-1.2-.7-1.8-1.1-9.8-6.3-20-17.9-20.4-27.3-11.7,15.3-14,17-15.2,33.2,0,1-.1,2-.1,2.9h0c-.2,8.4,1.2,14.7,2.3,19.2Z"/><path class="cls-1" d="M47.7,93.5s0,0,0,0"/><path class="cls-2" d="M39.9,87.8c.9,1.9,7.8,5.1,7.8,5.7"/><path class="cls-1" d="M90.2,53c0,.4.2.8.2,1.1,2.2,11.1-1.1,23.2-8.7,31.5-.4-1-.7-2-1.1-3-2.6,5.7-6.4,9.6-12.5,11"/><path class="cls-2" d="M28.4,158.9c-2.6,1.3-4.6,3.6-5.5,6.3-.1.3-.2.6-.3.9,0,.1,0,.2,0,.4"/><path class="cls-2" d="M82.9,159.6c3.1,1.6,4.9,4.1,6,7.3"/><path class="cls-2" d="M65.2,107c3.1,22.5,2.5,52.9,2.1,77.2"/><path class="cls-2" d="M55.9,107.7c2,16.5,2.6,48,.5,76.6"/><path class="cls-2" d="M72.4,100.1c3.4,9.8,5.1,56.3,3.5,83.2"/><path class="cls-2" d="M46.2,103.5s0,0,0,.1c1.9,8.7,2.7,47.5-1.3,79.2"/><path class="cls-2" d="M72.4,100.1c3.5,2.1,7.6,5.3,9.6,11.1"/><path class="cls-2" d="M39,116.5c0-6.7.4-11.7,4.8-15.5h0"/><path class="cls-2" d="M39,116.5c0,.4,0,.8.1,1.2,1.4,16.9,2.1,28.9-.5,44.4"/></svg>