<?xml version="1.0" encoding="UTF-8"?><svg id="latinAmerica" xmlns="http://www.w3.org/2000/svg" width="235" height="321.9" viewBox="0 0 235 321.9"><defs><style>.cls-1{stroke-linecap:round;stroke-linejoin:round;}.cls-1,.cls-2{fill:none;stroke:#000;}.cls-2{stroke-miterlimit:10;}.cls-3,.cls-4,.cls-5,.cls-6,.cls-7,.cls-8,.cls-9{stroke-width:0px;}.cls-4{fill:#2f4b57;}.cls-5{fill:#231c19;}.cls-6{fill:#a4b4ee;}.cls-7{fill:#8c624d;}.cls-8{fill:#736b46;}.cls-9{fill:#fbfbfd;}</style></defs><path class="cls-8" d="M201.7,213.9c4.4-2.2,8.7-4.6,12.6-7.5h.3c0,.7-.2,1.6-.7,2.5-1.7,3.1-4.9,5.1-8,6.7-9.6,5.2-13.5,6.2-23.7,9.8-1.2.4-2.6.9-3.7.3-.8-.4-1.3-1.2-1.6-2-.2-.3-.3-.7-.5-1,6.1-1.4,12.2-3.3,18.1-5.6,2.5-1,4.9-2.1,7.3-3.2Z"/><path class="cls-7" d="M214.6,206.4h-.3c-4,2.8-8.2,5.3-12.6,7.5.6-1.3,1.2-3.9,1.5-5.1.3-1.3.3-2.8-.3-3.9-.5-1-1.6-1.8-2.7-1.8,2-.2,4-.4,6.3-.6,1.6-.2,3.2-.5,4.7.1,2.2.9,3.5,2.2,3.5,4Z"/><path class="cls-8" d="M202.8,204.8c.6,1.2.7,2.6.3,3.9-.3,1.3-.9,3.9-1.5,5.1-2.4,1.2-4.8,2.2-7.3,3.2h0c0-.3,1.2-2.1,1.2-2.3.7-3,.3-6.2-1.1-8.9-.5-1-1.4-2.1-2.5-1.9v-.2c2.7-.3,5.3-.5,8.2-.8,1.1,0,2.2.8,2.7,1.8Z"/><path class="cls-7" d="M173.8,214.8h0c-18.9-7.8-21.4-.2-32.8-10.6-10.2-1.9-15.3,1.3-22.3,1h0c-1-8.8,2.7-18.1,9.6-23.7h0c8.6,3.6,7.9,2.2,18.6,8.7,14,5.2,21.4,9.3,35.4,14.4v.2c3.7-.4,6.7-.7,9.7-1v.2c1.1-.2,2.1.9,2.6,1.9,1.4,2.7,1.8,5.9,1.1,8.9,0,.1-1.1,2-1.2,2.1h0c-5.9,2.5-12,4.3-18.1,5.8-1.3-2.8-2-4.8-2.6-7.9Z"/><path class="cls-7" d="M136,303.6c1.3,2.1,1.5,4.1.3,5.5h0c-5.2-.2-10.5-.9-15.6-2h0c1.2-.7,4.3-2.4,5.3-3.2,1-.9,1.9-2,2.1-3.4.2-1.1-.2-2.2-.9-3,1.7,1,3.4,2,5.3,3.2,1.4.9,2.9,1.5,3.7,2.9Z"/><path class="cls-8" d="M136.2,309h0c-.4.6-1.1,1-1.9,1.4-3.2,1.4-7,1.1-10.5.6-10.7-1.6-14.5-3.1-24.8-6.4-1.2-.4-2.6-.9-3.2-2-.4-.8-.3-1.7,0-2.6,0-.4.1-.7.2-1.1,5.4,2.4,11.1,4.5,16.8,6.2,2.5.7,5.1,1.4,7.7,1.9,5.2,1.1,10.4,1.8,15.6,1.9Z"/><path class="cls-7" d="M84.3,85c-.5,0-1-.2-1.5-.4-1.6-.8-2.6-2.4-3.2-4.3-.3-1.2-.4-2.4-.3-3.6.2-1.8.9-3.6,2.3-4.5,1.4-.9,3.5-.5,4.2,1.1.5,1.2,1.1,1.3,2.4,1,1.3-.3,4.2-10.1,5.8-13.6.9-2,3.3-4.8,5.3-5.8,2-1.1,5.1-1.4,6.9-.2,2,1.3,5.6,3.9,7.6,5.5,1.4,1.1,7.2,4.2,12,3.8,4.4-.4,5.2-1,5.5,0h0c0,1.5,0,3.1-.3,4.7-.9,4.6-.7,5.2-1.7,8.5-1.3,4.2-2,4.4-2.7,6.7-.6,2-.6,9.9-8.1,18.1,0,0-4.3,5.1-8.2,5.8-.3,0-.7,0-1.3,0-.3,0-.7-.1-1.1-.2-.8-.2-1.6-.4-2.6-.8h0c-2.6.3-4.1.8-6.8.6-3.7-.4-5.4-.8-8.3-3.1-1.3-1-2.8-3-4-4.4-.3-.3-.6-.6-.8-.7.4-1.9.2-5-.2-8.2-.3-2-.6-4.1-.9-5.9h0ZM124.2,82.6c.3-1.4,0-2.7-.9-2.9-.8-.2-1.8.9-2.1,2.3-.3,1.4,0,2.7.9,2.9.8.2,1.8-.9,2.1-2.3ZM103.3,92.6c-1.5,6,8,10.5,12.2,5.2-4.7-.5-7.9-2.4-12.2-5.2ZM108.2,79c.3-1.4-.1-2.6-1-2.8-.9-.2-1.8.8-2.1,2.2-.3,1.4.1,2.6,1,2.8s1.8-.8,2.1-2.2Z"/><path class="cls-5" d="M131.3,63.9h0c-.3-1-1.1-.4-5.5,0-4.8.4-10.5-2.7-12-3.8-2-1.5-5.6-4.1-7.6-5.5-1.8-1.2-4.9-.9-6.9.2-1.9,1.1-4.4,3.8-5.3,5.8-1.6,3.5-4.5,13.3-5.8,13.6-1.3.3-1.9.3-2.4-1-.7-1.6-2.8-2-4.2-1.1-1.4.9-2.1,2.7-2.3,4.5-.1,1.2,0,2.5.3,3.6l-.8.2c-.7-2.7-1-5.5-1.1-8.5-.4-8.9,4.7-24.2,16.6-27.2,19.8-5.1,33.5,4.6,35.7,11.8.5,1.5,1.2,4.2,1.3,7.3Z"/><path class="cls-8" d="M65.1,177.5c0-1.3,0-2.6.1-4.1,1.5-9.9,15.5-6.6,32.2-2.9,8.3,1.8,10.5,3.9,14.7,4.9.3,0,.6.1,1,.2,4.1,1.3,9.6,3,12.4,4.3.2,0,1.2.5,2.9,1.2h0c0,.2-.2.3-.3.3-6.9,5.6-10.6,14.9-9.6,23.7,0,.2,0,.5,0,.7-6.7-.8-21.7-3.3-31.7-5.1-2-.4-3.8-.7-5.3-1-2.2-.6-4.1-1.1-5.2-1.6-4.7-2.4-11-8.9-11.3-20.6Z"/><path class="cls-8" d="M127.1,297.6c.8.7,1.1,1.9.9,3-.2,1.3-1,2.5-2.1,3.4-1,.9-4.1,2.5-5.3,3.1h0c-2.6-.4-5.1-1.1-7.7-1.8v-.2c.2,0,3-1.9,3.1-2,2.3-2,4.1-3.6,4.6-6.6.2-1.1.1-2.5-.9-3h0c2.4,1.4,4.8,2.7,7.3,4.2Z"/><path class="cls-9" d="M109.8,142.4c-10.2,2.8-10.2,1.7-16.8,2.8.6-1.4,4.7-14.3,4.7-14.3.4-1.3-.4-2.6-1.7-2.9-5.6-1.1-11-2.8-16.3-5-1.2-.5-2.5.3-2.8,1.6-2,8.8-3.7,17.6-4.9,26.5-.4,3.1-.7,6.3-1,9.4,0,1.1.6,2,1.5,2.3,4.6,1.5,9.5,1.9,14.2,1.2.9-.1,1.5-.8,1.7-1.7l1.8-7v-.2c8.2,1.1,13.6,2.2,20.4,1.2-.8,3.1,1.2,14,1.3,19h0c-4.1-.9-6.4-3-14.7-4.8-16.7-3.7-30.7-7-32.2,2.9-.1,1.4-.2,2.8-.1,4.1-3.4-12.8-1.7-24.6.4-49h0c0-.4,0-.9.2-1.4-4.7,4.3-11.1,9.7-13.4,11.4-.4-.2-.8-.5-1.2-.7-4-2.8-6.9-7.9-7.8-10.6-.2-.6-.3-1.1-.3-1.4.1-1,13.9-15.4,14.6-16.1,4.2-3.8,7.2-6.8,12.7-7.9,1.8-.4,8.4-1.4,13.6-1.6h.2c-.1.5-.2,1.1-.3,1.9l.2.2c-1.3,5.5,7.3,11.7,13.2,10.7,6.1-.4,10.9-1.3,10.8-5.6h0c.4,0,.8.1,1.1.2v.2c3.3,1.9,10.6,4.4,12.2,8.3,4.3,10.6,6.2,29.3,5.7,29.9-.2.2-.8.1-1.7-.2-3.4-1-10.6-4.5-15.2-3.5h0Z"/><path class="cls-8" d="M118.6,205.9c.3,0,.5,0,.8,0,0,0,0,.2,0,.3,2.6,10.3,5.1,22.1,5.9,29.2h0c-.3,0-.5-.1-.8-.2-7-1.8-13.8-2.6-20.6-.4-.4.1-.9.3-1.3.5,0-1.2,0-2.2-.2-2.9-2.4-7.6-11.1-24.5-15.5-31.3v-.4c10.1,1.8,25,4.3,31.8,5.1Z"/><path class="cls-7" d="M93.1,145.2c6.6-1.2,6.6,0,16.8-2.8h0c4.6-.9,11.8,2.5,15.2,3.5v.3c-.3,1.6-.6,3.2-1.3,4.5-1,2.1-2.2,2.3-3.1,2.9-3.8,1.5-7,2.4-10,2.8-6.7,1.1-12.1,0-20.3-1.2-1.4-.2-3-.4-4.6-.6-2.6,1-12.3,1.3-13.3-1.4-.2-.4-.2-1.1,0-2,.5-4,3.4-11.6,5.8-12.7,2.7-1.3,12.6,3.9,12.7,7h0c.8,0,1.5-.2,2.2-.3Z"/><path class="cls-7" d="M110.3,287.8c3.4,2.1,6.5,3.8,9.5,5.6h0c1,.5,1.1,1.9.9,3-.5,3-2.2,4.7-4.6,6.6-.1,0-3,1.9-3.1,2v.2c-5.8-1.7-11.5-3.8-16.9-6.2.7-3,1.6-5.6,2.9-8.4h0c.4-3.6,2.6-20.1,2.2-29.6h0c.2-6.4-.4-16.5,2.8-25.9v-.3c6.7-2.2,13.5-1.4,20.5.4h0c.7,4.3-4,17.8-6.1,25.1l-.2.2c-2.1,6.9-4.8,18.7-7.8,27.2Z"/><path class="cls-3" d="M123.3,79.7c.8.2,1.2,1.5.9,2.9-.3,1.4-1.3,2.4-2.1,2.3-.8-.2-1.2-1.5-.9-2.9.3-1.4,1.3-2.4,2.1-2.3Z"/><path class="cls-4" d="M113.1,175.7c-.3,0-.7-.1-1-.2h0c.3,0,.6.1,1,.2Z"/><path class="cls-9" d="M115.5,97.8c-4.2,5.3-13.7.8-12.2-5.2,4.3,2.9,7.5,4.7,12.2,5.2Z"/><path class="cls-3" d="M107.3,76.2c.9.2,1.3,1.4,1,2.8-.3,1.4-1.3,2.3-2.1,2.2s-1.3-1.4-1-2.8c.3-1.4,1.3-2.3,2.1-2.2Z"/><path class="cls-6" d="M107.8,107.5c.2,4.3-4.6,5.2-10.8,5.6-5.8,1-14.4-5.2-13.2-10.7l-.2-.2c0-.8.2-1.4.3-1.8.3-1.2.8-1.5,1.3-1.3.3.1.5.3.8.7,1.2,1.3,2.7,3.3,4,4.4,2.9,2.3,4.6,2.7,8.3,3.1,2.7.3,4.2-.3,6.8-.5h0c1,.3,1.8.6,2.6.8h0Z"/><path class="cls-6" d="M96.1,128.1c1.3.2,2,1.6,1.7,2.9,0,0-4.1,12.9-4.7,14.3-.7.1-1.4.2-2.2.4h0c-.1-3.1-10-8.4-12.7-7.1-2.4,1.1-5.2,8.7-5.8,12.7h-.3c1.2-9,2.9-17.8,4.9-26.6.3-1.3,1.6-2.1,2.8-1.6,5.3,2.2,10.7,3.9,16.3,5Z"/><path class="cls-6" d="M90.4,155.2v.2s-1.9,7-1.9,7c-.2.9-.9,1.6-1.7,1.7-4.7.7-9.6.2-14.2-1.2-1-.3-1.6-1.3-1.5-2.3.2-3.2.6-6.3,1-9.4h.3c-.1,1-.1,1.7,0,2.1,1,2.6,10.7,2.3,13.3,1.4,1.6.2,3.2.4,4.6.6Z"/><path class="cls-5" d="M85.2,90.9h-.3c-3.2-2.9-5-6.4-6-10.4l.8-.2c.5,1.8,1.6,3.5,3.2,4.3.4.2,1,.4,1.5.4h0c.3,1.8.7,3.9.9,5.9Z"/><path class="cls-7" d="M36,159.9h0c2.4.7,4.7,9.7,3.2,11.6-1.7,2.1-11.5,3-13.1,1.9-2-1.3.2-9.1,1.5-11.1,2.7-12.3,5.2-18.1,11.6-29,1.4-2.5,2.8-4.6,4-6.1.9,2.6,3.8,7.8,7.8,10.6-3.2,2.6-1.9,1.4-3.3,2.4-4.7,8.6-8.2,12.6-11.7,19.7Z"/><path class="cls-1" d="M66.1,126.7c-.2.1-.3.3-.5.4-4.7,4.3-11.1,9.7-13.4,11.4-.4-.2-.8-.5-1.2-.7-4-2.8-6.9-7.9-7.8-10.6-.2-.6-.3-1.1-.3-1.4.1-1,13.9-15.4,14.6-16.1,4.2-3.8,7.2-6.8,12.7-7.9,1.8-.4,8.4-1.4,13.6-1.6"/><path class="cls-1" d="M43.2,127.2c-1.3,1.5-2.6,3.6-4,6.1-6.3,10.9-8.9,16.7-11.6,29"/><path class="cls-1" d="M51,137.8c-3.2,2.6-1.9,1.4-3.3,2.4-4.7,8.6-8.2,12.6-11.7,19.7,0,.2-.2.4-.3.5"/><path class="cls-1" d="M36.1,160c2.4.7,4.7,9.6,3.2,11.6-1.7,2.1-11.5,3-13.1,1.9-2-1.3.2-9.1,1.5-11.1"/><path class="cls-1" d="M109.9,142.3c4.6-.9,11.8,2.5,15.2,3.5.9.3,1.5.4,1.7.2.5-.5-1.4-19.2-5.7-29.9-1.6-3.9-8.8-6.4-12.2-8.3"/><path class="cls-1" d="M108.4,132.1c0,5,.7,7.4,1,10.3.1,0,.3,0,.4,0"/><path class="cls-1" d="M120.7,153.5c-3.8,1.5-7,2.4-10,2.8-6.7,1.1-12.1,0-20.3-1.2-1.4-.2-3-.4-4.6-.6"/><path class="cls-1" d="M109.9,142.3h0c-10.2,2.8-10.2,1.7-16.8,2.8-.7.1-1.4.2-2.2.4-.2,0-.5,0-.7.1"/><path class="cls-1" d="M90.9,145.5c-.1-3-10-8.3-12.7-7-2.4,1.1-5.2,8.7-5.8,12.7-.1.9-.1,1.6,0,2,1,2.6,10.7,2.3,13.3,1.4"/><path class="cls-1" d="M125,146.2c-.2,1.6-.5,3.2-1.2,4.5-1,2.1-2.2,2.3-3.1,2.9"/><path class="cls-1" d="M65.5,128.5c-2.1,24.4-3.8,36.2-.4,49,0,.3.2.6.3,1"/><path class="cls-1" d="M110.8,156.3s0,0,0,0c-.8,3.1,1.2,14,1.3,19h0"/><path class="cls-1" d="M129.3,181.5c-.3-.1-.7-.3-1-.4-1.7-.7-2.8-1.1-2.9-1.2-2.8-1.3-8.2-3-12.4-4.3-.3-.1-.7-.2-1-.3-1.4-.4-2.6-.8-3.4-1.1"/><path class="cls-1" d="M81.6,199.7c1.5.3,3.3.6,5.3,1,10,1.8,25,4.3,31.7,5.1.3,0,.5,0,.8,0,0,0,0,0,0,0"/><path class="cls-1" d="M76.4,198.2c1.2.5,3,1,5.2,1.6"/><path class="cls-1" d="M65.2,173.5c-.1,1.4-.2,2.8-.1,4.1.3,11.8,6.6,18.2,11.3,20.6"/><path class="cls-1" d="M113.5,175.8c-.1,0-.3,0-.4,0-.3,0-.7-.1-1-.2-4.1-1-6.4-3.1-14.7-4.9-16.7-3.7-30.7-7-32.2,2.9"/><path class="cls-2" d="M65.5,129.2c0-.2,0-.4,0-.7,0-.4,0-.9.2-1.4.3-2.3,1.1-5.4,2-8.3"/><path class="cls-1" d="M107.8,107.5c.2,4.3-4.6,5.2-10.8,5.6-5.8,1-14.4-5.2-13.2-10.7"/><path class="cls-1" d="M119.5,206.2c0,0,0-.2,0-.3,0-.1,0-.3-.1-.4"/><path class="cls-1" d="M125.4,235.8c0-.1,0-.2,0-.4-.8-7.1-3.3-18.9-5.9-29.2"/><path class="cls-1" d="M86.8,201.1c4.3,6.7,13.1,23.6,15.5,31.3.2.7.3,1.7.2,2.9.4-.2.9-.3,1.3-.5,6.8-2.2,13.6-1.4,20.6.4.3,0,.5.1.8.2"/><path class="cls-1" d="M98.9,291.3h0s0,0,0,0"/><path class="cls-1" d="M99,290.6c0,.4,0,.6,0,.7"/><path class="cls-1" d="M101.1,261.1c.4,9.5-1.7,26-2.2,29.5"/><path class="cls-1" d="M118.1,260.6c-2.1,6.9-4.8,18.7-7.8,27.2,0,0,0,0,0,0"/><path class="cls-1" d="M103.9,235.2c-3.1,9.4-2.6,19.5-2.8,25.8"/><path class="cls-1" d="M124.4,235.3c.7,4.2-4,17.7-6.1,25.1"/><path class="cls-1" d="M128.3,181.2c0,0-.2.1-.3.2-6.9,5.6-10.6,14.9-9.6,23.7,0,.2,0,.5,0,.7,0,.1,0,.2,0,.3"/><path class="cls-1" d="M128.1,181.5c8.6,3.5,7.9,2.1,18.6,8.7"/><path class="cls-1" d="M118.6,205.1c7.1.3,12.1-2.9,22.3-1"/><path class="cls-1" d="M140.9,204.2c11.4,10.4,13.9,2.8,32.8,10.6"/><path class="cls-1" d="M182.2,204.6c-14-5.2-21.4-9.3-35.4-14.4"/><path class="cls-1" d="M93,145.3s0,0,0-.1c.6-1.4,4.7-14.3,4.7-14.3.4-1.3-.4-2.6-1.7-2.9-5.6-1.1-11-2.8-16.3-5-1.2-.5-2.5.3-2.8,1.6-2,8.8-3.7,17.6-4.9,26.5-.4,3.1-.7,6.3-1,9.4,0,1.1.6,2,1.5,2.3,4.6,1.5,9.5,1.9,14.2,1.2.9-.1,1.5-.8,1.7-1.7l1.8-7"/><path class="cls-1" d="M110.2,107.7c-.3,0-.7,0-1.3,0-.3,0-.7-.1-1.1-.2-.8-.2-1.6-.4-2.6-.8-4.6-1.7-11.2-5.2-16.7-11.1"/><path class="cls-1" d="M129.2,77.2c-1.3,4.2-2,4.4-2.7,6.7-.6,2-.6,9.9-8.1,18.1,0,0-4.3,5.1-8.2,5.8"/><path class="cls-1" d="M126.4,76.5c-1.1-1.8-3.4-2.4-4.8-1.5"/><path class="cls-1" d="M103.2,70.8c3.6-1,7.1-.4,8.4,1.4"/><path class="cls-1" d="M118,91.5c-.7,2-8.8.2-10-1.3"/><path class="cls-1" d="M121.2,82c-.3,1.4,0,2.7.9,2.9.8.2,1.8-.9,2.1-2.3.3-1.4,0-2.7-.9-2.9-.8-.2-1.8.9-2.1,2.3Z"/><path class="cls-1" d="M105.1,78.3c-.3,1.4.1,2.6,1,2.8s1.8-.8,2.1-2.2c.3-1.4-.1-2.6-1-2.8-.9-.2-1.8.8-2.1,2.2Z"/><path class="cls-1" d="M115.5,97.8c-4.7-.5-7.9-2.4-12.2-5.2"/><path class="cls-1" d="M115.5,97.8c-4.2,5.3-13.7.8-12.2-5.2"/><path class="cls-1" d="M84.3,85c.3,1.8.7,3.9.9,5.9.4,3.2.6,6.2.2,8.2"/><path class="cls-1" d="M129.2,77.2c1.1-3.3.8-3.9,1.7-8.5.3-1.6.4-3.2.3-4.7-.1-3.1-.8-5.8-1.3-7.3-2.2-7.2-15.9-16.9-35.7-11.8-11.9,3.1-17,18.4-16.6,27.2.1,3,.4,5.8,1.1,8.5,1,3.9,2.8,7.4,6,10.4"/><path class="cls-1" d="M86.2,83.9c-.4.8-1.2,1.1-2,1-.5,0-1-.2-1.5-.4-1.6-.8-2.6-2.4-3.2-4.3-.3-1.2-.4-2.4-.3-3.6.2-1.8.9-3.6,2.3-4.5,1.4-.9,3.5-.5,4.2,1.1.5,1.2,1.1,1.3,2.4,1,1.3-.3,4.2-10.1,5.8-13.6.9-2,3.3-4.8,5.3-5.8,2-1.1,5.1-1.4,6.9-.2,2,1.3,5.6,3.9,7.6,5.5,1.4,1.1,7.2,4.2,12,3.8,4.4-.4,5.2-1,5.5,0"/><path class="cls-1" d="M83.7,102.2c0-.8.2-1.4.3-1.8.3-1.2.8-1.5,1.3-1.3.3.1.5.3.8.7,1.2,1.3,2.7,3.3,4,4.4,2.9,2.3,4.6,2.7,8.3,3.1,2.7.3,4.2-.3,6.8-.5"/><path class="cls-1" d="M99.5,289.6c-.2.3-.3.7-.5,1h0c-1.3,2.8-2.2,5.5-2.9,8.4,0,.3-.2.7-.2,1.1-.2.9-.3,1.8,0,2.6.6,1.1,1.9,1.6,3.2,2,10.3,3.2,14.1,4.7,24.8,6.4,3.5.5,7.3.8,10.5-.6.8-.4,1.5-.8,1.9-1.3,1.2-1.4,1-3.4-.3-5.5-.8-1.4-2.3-2-3.7-2.9-1.9-1.1-3.6-2.2-5.3-3.2-2.5-1.5-4.9-2.8-7.3-4.2-3-1.7-6-3.5-9.5-5.6,0,0,0,0,0,0"/><path class="cls-1" d="M95.9,298.9c0,0,.1,0,.2,0,5.4,2.4,11.1,4.5,16.8,6.2,2.5.7,5.1,1.4,7.7,1.9,5.2,1.1,10.4,1.8,15.6,1.9"/><path class="cls-1" d="M119.7,293.4c1,.5,1.1,1.9.9,3-.5,3-2.2,4.7-4.6,6.6-.1,0-3,1.9-3.1,2"/><path class="cls-1" d="M126.4,297.1c.2.1.4.3.6.5.8.7,1.1,1.9.9,3-.2,1.3-1,2.5-2.1,3.4-1,.9-4.1,2.5-5.3,3.1"/><path class="cls-1" d="M173.6,214.2c0,.2,0,.4.1.6.6,3.1,1.3,5.2,2.6,7.9.2.3.3.6.5,1,.4.8.8,1.6,1.6,2,1.1.5,2.5.1,3.7-.3,10.2-3.6,14.1-4.6,23.7-9.8,3.1-1.7,6.3-3.7,8-6.7.5-.9.7-1.7.7-2.5,0-1.8-1.4-3.1-3.5-4-1.5-.6-3-.3-4.7-.1-2.3.2-4.4.4-6.3.6-2.9.3-5.5.6-8.2.8-3,.3-6,.6-9.7,1,0,0-.2,0-.3,0"/><path class="cls-1" d="M176.1,222.8c0,0,.1,0,.2,0,6.1-1.4,12.2-3.3,18.1-5.6,2.5-1,4.9-2.1,7.3-3.2,4.4-2.2,8.7-4.6,12.6-7.5"/><path class="cls-1" d="M191.9,204c1.1-.2,2,.9,2.5,1.9,1.4,2.7,1.8,5.9,1.1,8.9,0,.1-1.1,2-1.2,2.1"/><path class="cls-1" d="M199.5,203c.2,0,.4,0,.6,0,1.1,0,2.2.8,2.7,1.8.6,1.2.7,2.6.3,3.9-.3,1.3-.9,3.9-1.5,5.1,0,0,0,.1,0,.2"/></svg>