<?xml version="1.0" encoding="UTF-8"?><svg id="latinAmerica" xmlns="http://www.w3.org/2000/svg" width="235" height="321.9" viewBox="0 0 235 321.9"><defs><style>.cls-1{stroke-linecap:round;stroke-linejoin:round;}.cls-1,.cls-2{fill:none;stroke:#000;}.cls-2{stroke-miterlimit:10;}.cls-3,.cls-4,.cls-5,.cls-6,.cls-7,.cls-8,.cls-9{stroke-width:0px;}.cls-4{fill:#7599bb;}.cls-5{fill:#231f1d;}.cls-6{fill:#dbdbdb;}.cls-7{fill:#a0796a;}.cls-8{fill:#fff;}.cls-9{fill:#67b96a;}</style></defs><path class="cls-6" d="M136.1,302.4c2,2.3.8,6-1.7,7.8-2.5,1.8-5.9,2.2-9,2.3-9.7.4-20.1-3.4-29.6-4.4-1.2-.1-2.4-.3-3.1-1.2-.5-.6-.5-1.5-.5-2.3,0-1.7.4-5.1.6-6.8h0c7.4.6,16.8-1.4,21.8-6.2h0c6,2.9,12.1,6.5,17.8,8.6,1.4.5,2.8,1.1,3.8,2.1Z"/><path class="cls-7" d="M133.8,160.8c1.6,3.8-2.4,7.8-5.5,10.3s-5,3.5-8.2,1.2c-1.5-1.1-2.8-2.8-3.2-4.8,0-.1,0-.3,0-.4-.3-3.7,6.1-10.9,7.4-11.2,3.7-1.2,8,1,9.6,4.8Z"/><path class="cls-4" d="M16.8,290.2c-.5-.1-1.1-.2-1.6-.3,12-31.1,17.8-51.2,20.5-65.8,1.5-8.1,2.2-24.3,3.7-38.8,35.5,16,46.4,5.2,53.3.8l.6-.4c.4.9.8,1.8,1.2,3h-.1c4.2,9.1,13.7,28.8,17.6,41.3.8,2.7,3.8,49.2,4.2,59.8-.5.6-1,1.3-1.6,1.8-5,4.8-14.4,6.7-21.8,6-1.3-.1-2.6-.4-3.8-.7-.2-11.2-2.4-19.2-2.1-37.3,0-6.9-.8-22.5-2.9-26.4-4.1-7.5-8.1-19.3-14.1-25.4l-.5-.2c-6.4,21.3-6.8,27.6-9.2,33.5-.8,1.9-12.8,50.1-14.7,51.1-.6.3-1.7.7-2.9,1-2.8.6-6.8,1.1-10.4,1.1-4.7,0-10.3-3.1-15.1-4.2Z"/><path class="cls-7" d="M124.3,156c-1.3.3-7.7,7.5-7.4,11.2h-.2c-3.1-9.1-23.2-23.7-23.5-30.8.5-8.2.7-16.2.2-25-.4-5.7-.8-10.5-3.3-14.7h.1c9.5,8.5,10.7,26.4,14.2,33.1v.3c4.3,6.4,12.5,20.5,19.8,25.9Z"/><path class="cls-5" d="M107.7,37.9c.7,2.4,2,7.4,1,12.6,0,.1,0,.3,0,.4h-.1c-.4-1.6-2.8-8.1-4.3-8.9-4.3-2.4-11.8-3.9-13.9-4.5-5.3-1.5-10.2.5-14.8,7.4-2.2,3.3-4.9,6.6-7.1,10-.8,1.2-1.7,2.3-3.1,2.7-1.3.4-2.5-.8-3.1-2.1-.7-1.7-2.9-2.1-4.3-1.1-1.4,1-2.1,2.9-2.3,4.7-.1,1.2,0,2.4.2,3.5l-.8.2c-.7-2.7-1-5.6-1.1-8.7-.4-9.3,4.8-25.4,17.1-28.6,20.4-5.3,34.4,4.8,36.6,12.4Z"/><path class="cls-7" d="M81.3,76.2l-.2.3c-1.5,8.1,9,12.6,11.7,4.7-4.5-.5-7.5-2.3-11.5-4.9ZM60.7,67.7c-.5,0-1-.2-1.5-.4-1.7-.9-2.8-2.7-3.3-4.7-.3-1.2-.4-2.4-.2-3.5.2-1.9.9-3.8,2.3-4.7,1.4-1,3.6-.6,4.3,1.1.5,1.3,1.7,2.5,3.1,2.1,1.3-.3,2.3-1.5,3.1-2.7,2.2-3.4,4.9-6.6,7.1-10,4.6-6.9,9.5-8.9,14.8-7.4,2.1.6,9.7,2.1,13.9,4.5,1.5.8,3.9,7.4,4.3,8.9h.1c-.8,4.5-.7,5.2-1.7,8.6-1.4,4.5-2,4.6-2.8,7-.6,2.1-1,10.3-8.7,18.8,0,0-5.3,6.8-9.4,7.5l-.6-.2c-.5,0-1.1-.2-1.8-.4-.4-.1-.9-.3-1.3-.5h0c0,1.2-1.6,2.6-2.5,3.1-.9.4-3,.9-4,.8-5.2-.3-10.5-3.4-14.1-7.2l-1.6-.2c.4,0,.9-.1,1.3-.2h0c.8-2.1.6-8.7.1-14.2-.2-2.4-.5-4.7-.7-6.2h0ZM101.7,65.2c.3-1.5,0-2.8-.9-3-.8-.2-1.8.9-2.1,2.4-.3,1.5,0,2.8.9,3,.9.2,1.8-.9,2.2-2.4ZM85.3,61.4c.3-1.4-.1-2.7-1-2.9s-1.9.8-2.2,2.3c-.3,1.5.1,2.8,1,2.9.9.2,1.9-.8,2.2-2.3Z"/><path class="cls-3" d="M100.7,62.2c.9.2,1.3,1.5.9,3-.3,1.5-1.3,2.6-2.2,2.4-.8-.2-1.2-1.5-.9-3,.3-1.5,1.3-2.6,2.1-2.4Z"/><path class="cls-6" d="M93.3,185.7l-.6.4c-6.9,4.4-17.8,15.2-53.3-.8.4-3.3.7-6.5,1.2-9.5h.1c32.4,15.5,43,6.4,49.9,2h.4c0,.4,0,.6,0,.6.6,3,1.1,4.7,2.2,7.3Z"/><path class="cls-9" d="M93.2,136.4c-.3,4.5-.7,9-1.1,13.8-.5,6.6-1,13.1-1.1,19.7,0,2.6,0,6.5,0,7.9h-.4c-6.9,4.4-17.5,13.5-49.9-2h-.1c.7-4.5,1.5-8.4,2.5-11.5h0c1.5,1.1,3.1,2.3,4.8,3.6,1.4,2.3,8.9,8.6,11.5,7.4,2.2-1,7.2-10.9,5.9-13.7-1.2-2.6-12.7-5.2-14.9-3.2h-.1c-2.2-2.7-4-5.2-5.7-7.8h0c1-9.4,1.5-17.8,1.7-24.4h0c7.8-7.4,11.2-21.5,7.1-31.4-.6-1.4-1.7-3.1-3.2-3v-.2c3.2-1.1,5.7-2.2,7.8-2.8h0c18.2,18.7,25.9,7.1,26.2,4.3h0c2.2.7,4.2,2,5.8,3.5h-.1c2.5,4.3,2.9,9.2,3.3,14.9.6,8.8.3,16.8-.2,25ZM86.4,140.8l3.5-21.4-25.1,13.1,9.1,3.6,11.7-10.7-9,11.7c-.2,0-.2,5.8-.2,5.8,2-2.1,2.6-2.8,4-4.4l6,2.3Z"/><polygon class="cls-6" points="89.9 119.4 86.4 140.8 80.4 138.5 80.4 138.5 76.6 137 85.7 125.4 73.9 136 64.8 132.4 89.9 119.4"/><path class="cls-8" d="M92.8,81.2c-2.7,7.9-13.2,3.4-11.7-4.7l.2-.3c4,2.7,7,4.5,11.5,4.9Z"/><path class="cls-6" d="M83.5,92.6c.3,0,.6.2.9.3h0c-.3,2.9-8,14.5-26.2-4.1h0c.7-.3,1.3-.5,1.8-.6l1.6.2c3.6,3.8,9,6.9,14.1,7.2,1,0,3.1-.4,4-.8.9-.4,2.6-1.9,2.5-2.9h0c.5,0,.9.3,1.3.4v.3Z"/><path class="cls-3" d="M84.3,58.5c.9.2,1.3,1.5,1,2.9-.3,1.5-1.3,2.5-2.2,2.3-.9-.2-1.3-1.5-1-2.9.3-1.4,1.3-2.4,2.2-2.3Z"/><polygon class="cls-6" points="80.4 138.5 80.4 138.5 76.6 137 80.4 138.5"/><path class="cls-6" d="M76.6,137l3.7,1.4c-1.3,1.5-1.9,2.3-4,4.4,0,0,0-5.9.2-5.8Z"/><path class="cls-7" d="M50.3,158.5h.1c2.2-2.1,13.7.5,14.9,3.1,1.3,2.8-3.6,12.7-5.9,13.7-2.7,1.2-10.1-5.1-11.5-7.4-1.7-1.3-3.3-2.5-4.8-3.6-9.2-7.1-14.7-12.3-20.9-23.1-2.1-3.6-1.4-7.7,1.8-15.3l.5-.5c2.2-4.6,13.2-27.9,20.8-31.9,3.1.1,4.9.7,6.4,3.8,1.4,2.9,1,9.9,0,13-1.2,3.7-3.3,7.5-5.6,11-3.2,5-6.8,9.4-8.6,11.9v.2c-1.6,2.3-.6.8-2.3,3.3,4.2,5.7,6.7,9.9,9.4,14.1,1.7,2.6,3.4,5.1,5.7,7.9Z"/><path class="cls-6" d="M56.9,306.3c1.7,7.6-4.3,9.7-10.5,8.2-9.8-2.2-15-5.4-29.8-15.6-1-.7-2.1-1.3-2.4-2.5-.2-.8.1-1.7.5-2.5.6-1.4,1.2-2.4,2.2-3.7,4.9,1.2,10.4,4.2,15.1,4.2,3.7,0,7.7-.5,10.4-1.1h0c3.5,7.1,3.5,5.9,11.1,10.3,1.3.8,3,1.2,3.3,2.7Z"/><path class="cls-5" d="M61.4,73.9h-.1c-3.3-3.2-5.2-7-6.2-11.2l.8-.2c.5,2,1.6,3.9,3.3,4.7.5.2,1,.4,1.5.4h0c.3,1.5.5,3.8.7,6.2Z"/><path class="cls-6" d="M53.5,94.7c4.1,9.9.7,24.1-7.1,31.4h0c0-1.7,0-3.3,0-4.8l-.4-.3c2.2-3.5,4.3-7.3,5.6-11,1-3.1,1.4-10.1,0-13-1.5-3.2-3.3-3.7-6.4-3.8.4-.2.8-.4,1.1-.5,1.4-.4,2.7-.9,3.8-1.3v.2c1.7,0,2.7,1.5,3.3,3Z"/><path class="cls-1" d="M24.5,125.2c2.2-4.6,13.2-27.9,20.8-31.9.4-.2.8-.4,1.1-.5"/><path class="cls-1" d="M37.5,133c1.8-2.5,5.4-6.9,8.6-11.9,2.2-3.5,4.3-7.3,5.6-11,1-3.1,1.4-10.1,0-13-1.5-3.2-3.3-3.7-6.4-3.8h-.3"/><path class="cls-1" d="M94.5,188.7s0,0,0,0c-.5-1.1-.9-2.1-1.2-3-1.1-2.6-1.6-4.3-2.2-7.3,0,0,0-.2,0-.6,0-1.4,0-5.2,0-7.9,0-6.6.6-13.2,1.1-19.7.4-4.8.8-9.3,1.1-13.8.5-8.2.7-16.2.2-25-.4-5.7-.8-10.5-3.3-14.7"/><path class="cls-1" d="M39.3,185.3s0,0,.1,0c35.5,16,46.4,5.2,53.3.8"/><path class="cls-1" d="M40.7,175.8c32.4,15.5,43,6.4,49.9,2"/><path class="cls-1" d="M46.5,121.4c0,1.5,0,3.1,0,4.8-.2,6.7-.7,15-1.7,24.4"/><path class="cls-1" d="M24,125.7c-3.2,7.6-3.9,11.8-1.8,15.3,6.2,10.8,11.7,16,20.9,23.1,1.5,1.2,3.1,2.4,4.8,3.6"/><path class="cls-1" d="M37.4,133.3c-1.6,2.3-.5.8-2.2,3.3,4.2,5.7,6.7,9.9,9.4,14.1,1.7,2.6,3.4,5.1,5.7,7.9s.3.4.4.5"/><path class="cls-1" d="M83,92.5l.6.2c.3,0,.6.2.9.3,2.2.8,4.2,2.1,5.8,3.6,9.5,8.6,10.7,26.5,14.2,33.2"/><path class="cls-1" d="M50.4,158.4c2.2-2,13.7.6,14.9,3.2,1.3,2.8-3.6,12.7-5.9,13.7-2.7,1.2-10.1-5.1-11.5-7.4"/><path class="cls-1" d="M93.2,136.1c0,0,0,.2,0,.3.4,7.1,20.4,21.7,23.5,30.8"/><path class="cls-1" d="M104.4,130c4.3,6.4,12.5,20.5,19.8,25.9"/><path class="cls-1" d="M124.3,156c-1.3.3-7.7,7.5-7.4,11.2,0,.1,0,.3,0,.4.5,2,1.7,3.6,3.2,4.8,3.2,2.3,5.1,1.4,8.2-1.2s7.1-6.5,5.5-10.3c-1.6-3.8-5.9-6.1-9.6-4.8"/><path class="cls-1" d="M46.4,92.8c1.4-.4,2.7-.9,3.8-1.3,3.3-1.1,5.8-2.2,7.9-2.8.7-.2,1.3-.4,1.8-.5.4,0,.9-.1,1.3-.2"/><path class="cls-1" d="M43.1,164.3c-1,3.1-1.8,7.1-2.5,11.5-.5,3-.8,6.2-1.2,9.5-1.5,14.5-2.2,30.7-3.7,38.8-2.6,14.6-8.5,34.7-20.5,65.8.5,0,1,.2,1.6.3,4.9,1.2,10.4,4.2,15.1,4.2,3.7,0,7.7-.5,10.4-1.1,1.3-.3,2.3-.6,2.9-1,1.8-1,13.9-49.1,14.7-51.1,2.4-6,2.8-12.3,9.2-33.5,1-3.2,2.1-6.8,3.3-10.7"/><path class="cls-2" d="M69.8,207.9c5.9,6.1,10,18,14.1,25.4,2.1,3.9,3,19.5,2.9,26.4-.3,18,1.9,26,2.1,37.3,1.2.3,2.5.5,3.8.7,7.4.7,16.8-1.2,21.8-6,.6-.6,1.1-1.2,1.6-1.8-.4-10.6-3.3-57.1-4.2-59.8-3.9-12.5-13.4-32.2-17.6-41.2"/><path class="cls-1" d="M84.4,93c-.3,2.8-8,14.4-26.2-4.2"/><path class="cls-1" d="M16.9,290.1s0,0,0,0c-1,1.3-1.6,2.3-2.2,3.7-.3.8-.7,1.7-.5,2.5.3,1.2,1.4,1.8,2.4,2.5,14.8,10.3,20,13.4,29.8,15.6,6.2,1.4,12.2-.6,10.5-8.2-.3-1.5-2-2-3.3-2.7-7.6-4.4-7.6-3.2-11.1-10.2"/><path class="cls-1" d="M92.7,297.8c-.2,1.7-.6,5.1-.6,6.8,0,.8,0,1.6.5,2.3.7.9,2,1.1,3.1,1.2,9.6,1.1,20,4.9,29.6,4.4,3.2-.1,6.5-.5,9-2.3,2.5-1.8,3.7-5.6,1.7-7.8-.9-1.1-2.4-1.6-3.8-2.1-5.7-2.1-11.9-5.7-17.8-8.6"/><path class="cls-1" d="M82.2,91.9c0,1.1-1.6,2.5-2.5,2.9-.9.4-3,.9-4,.8-5.2-.3-10.5-3.4-14.1-7.2"/><path class="cls-1" d="M85.9,92.7c-.1,0-.3,0-.4,0-.5,0-1.1-.2-1.8-.4-.4-.1-.9-.3-1.3-.5-4.2-1.8-11-6.2-17.2-12.9"/><path class="cls-1" d="M106.9,59.5c-1.4,4.5-2,4.6-2.8,7-.6,2.1-1,10.3-8.7,18.8,0,0-5.3,6.8-9.4,7.5"/><path class="cls-1" d="M104.4,59.3c-1.2-1.8-3.9-3-5.4-2"/><path class="cls-1" d="M80.1,52.8c3.7-1.1,7.3-.4,8.6,1.5"/><path class="cls-1" d="M96.3,73.9c-.2,4.3-9,1.7-10.3.2"/><path class="cls-1" d="M98.6,64.6c-.3,1.5,0,2.8.9,3,.9.2,1.8-.9,2.2-2.4.3-1.5,0-2.8-.9-3-.8-.2-1.8.9-2.1,2.4Z"/><path class="cls-1" d="M82.1,60.7c-.3,1.5.1,2.8,1,2.9.9.2,1.9-.8,2.2-2.3.3-1.4-.1-2.7-1-2.9s-1.9.8-2.2,2.3Z"/><path class="cls-1" d="M92.8,81.2c-4.5-.5-7.5-2.3-11.5-4.9-.3-.2-.6-.4-.9-.6"/><path class="cls-1" d="M92.8,81.2c-2.7,7.9-13.2,3.4-11.7-4.7"/><path class="cls-1" d="M60.7,67.7c.3,1.5.5,3.7.7,6.2.5,5.5.7,12.1-.1,14.1"/><path class="cls-1" d="M106.9,59.5c1.1-3.4.9-4,1.7-8.5,0-.1,0-.3,0-.4,1-5.2-.3-10.2-1-12.6-2.3-7.6-16.3-17.7-36.6-12.4-12.2,3.2-17.4,19.3-17.1,28.6.1,3,.4,5.9,1.1,8.7,1,4.2,2.9,8,6.2,11.2"/><path class="cls-1" d="M62.7,66.6c-.4.8-1.2,1.1-2,1.1-.5,0-1-.2-1.5-.4-1.7-.9-2.8-2.7-3.3-4.7-.3-1.2-.4-2.4-.2-3.5.2-1.9.9-3.8,2.3-4.7,1.4-1,3.6-.6,4.3,1.1.5,1.3,1.7,2.5,3.1,2.1,1.3-.3,2.3-1.5,3.1-2.7,2.2-3.4,4.9-6.6,7.1-10,4.6-6.9,9.5-8.9,14.8-7.4,2.1.6,9.7,2.1,13.9,4.5,1.5.8,3.9,7.4,4.3,8.9"/><path class="cls-1" d="M50.3,91.7c1.6,0,2.6,1.5,3.2,3,4.1,9.9.7,24.1-7.1,31.4"/><polyline class="cls-1" points="80.4 138.5 86.4 140.8 89.9 119.4 64.8 132.4 73.9 136 85.7 125.4 76.6 137"/><path class="cls-1" d="M80.4,138.5h0s-3.7-1.4-3.7-1.4c-.2,0-.2,5.8-.2,5.8,2-2.1,2.6-2.8,4-4.4Z"/></svg>