<?xml version="1.0" encoding="UTF-8"?><svg id="latinAmerica" xmlns="http://www.w3.org/2000/svg" width="235" height="321.9" viewBox="0 0 235 321.9"><defs><style>.cls-1{fill:#292a4a;}.cls-1,.cls-2,.cls-3,.cls-4,.cls-5,.cls-6,.cls-7,.cls-8,.cls-9,.cls-10,.cls-11,.cls-12,.cls-13,.cls-14,.cls-15,.cls-16,.cls-17,.cls-18{stroke:#000;stroke-linecap:round;stroke-linejoin:round;}.cls-2{fill:#2d5890;}.cls-3{fill:#d5685b;}.cls-4{fill:#aed793;}.cls-5{fill:#e0d89f;}.cls-6{fill:#222535;}.cls-7{fill:#122666;}.cls-8{fill:#88d0ba;}.cls-9{fill:#332e2a;}.cls-10{fill:#324580;}.cls-11{fill:#a26256;}.cls-12{fill:#b65f90;}.cls-13{fill:#856149;}.cls-14{fill:#80a6d7;}.cls-15{fill:#fff;}.cls-16{fill:#f5e78c;}.cls-17{fill:none;}</style></defs><path class="cls-2" d="M50.6,119.4c-.6.8-2.1,2.4-1.8,3.5.2.6.9.9,1.5,1,.8.2,1.5.3,2.3.3v.9c-1.9,3.4-3.7,6.9-5.4,10.1-3.8,7-7.3,12.9-9,14.8l-.3.4c1.3,1,2.6,2.2,4.2,3.9,1.2,1.3,2.6,2.8,4.2,4.4,1.2,1.2,2.6,2.5,4,3.7-4.5,2.4-7,8.1-5.7,13v.2c-4.1-2.8-8.7-6-11.4-7.6-5.5-3.4-13.7-12.3-12.5-19h0c0-1.9,15.4-39.8,27.5-42.2h.1c1.2,1.4,3.5,3,4.6,3.7.2,0,.3.2.5.3h0c-.2,2-.4,4-.6,5.9-1.1,0-1.6,1.9-2.3,2.7Z"/><path class="cls-2" d="M119.8,161.3c-4.2,1.1-7.7,4.6-8.7,8.8l-.2.2c-5.4-5.4-12.9-12.2-17.8-22.9h0c.1-1.2.3-2.5.4-3.8.2-1.7,1-12.2.3-17l-1.9-1.1c.6,0,1.1,0,1.6-.1.8-.1,1.6-.4,2.3-.7.4-.2.8-.4,1-.8.2-.5,0-1.1-.2-1.6-.7-1.5-1.4-3-2.2-4.4,0,0,0,0,0,0,0-.6,0-1.2,0-1.7,5.8,8.7,9,23.3,12.5,29.7v.2c4.5,4.1,9,10.6,12.8,15Z"/><path class="cls-2" d="M76.2,197.8v.5c-5,.2-11.7-.7-21-3.5-1.6-.5-3.4-1.1-5.2-1.7-2-.7-4.1-1.5-6.3-2.3l-.8-.2c0-.2.1-.5.2-.7.8-3.4,1.4-9.8,1.7-13.2l.2-.6c1.9,1.3,3.5,2.6,4.8,3.5,0-.7.2-1.4.4-2.1,0,3.4,4.4,6.7,7.1,8,2,1,11.2,3.1,9.5-1.6,1.1-.4,3.2-2.6,1.3-3.9,1.3-.7,2.5-2.8.9-4.7,4.3-2.7,1.6-4.7-1.1-6.2-.5-5.8-8.1-3-12.3-2.7h0c-1.8-1.2-3.6-2.6-5.3-4-1.4-1.2-2.8-2.5-4-3.7l.3-.3c1.2-11.4,1.7-16,.6-23.2,1.8-3.2,3.6-6.7,5.4-10.1v-.9c.9,0,1.8,0,2.7,0,.8,0,1.8-.3,2.1-1.1.7-1.7-2.6-6.5-4.5-6.5.5,0,1.1,0,1.7,0,.2-1.7.4-3.3.6-5.1.8.4,1.7.7,2.5,1.1,6.3,3.1,12.8,7.6,16,15.5h.3c2.3,5.5,4.1,11.2,4.6,16.2h0c0,.5,0,.9,0,1.4h.3c-.2,22,2.3,37.7-2.6,51.9Z"/><path class="cls-2" d="M93.4,143.7c-.1,1.3-.3,2.6-.4,3.8-2.4,23.1.6,22.6-.3,45.8l-.3.2c-.1-.2-.2-.3-.3-.5h-.1c-4.3,2.3-8.4,5-15.8,5.3v-.5c4.9-14.2,2.4-29.9,2.6-51.9h-.3c0-.5,0-.9,0-1.4h0s.7,0,.7,0c-.1-1.4,0-3.1.4-4.9,1.8-9,8.6-21.7,9.6-28.3,1.1.8,2.5,1.6,3.5,2.8-.2,1.1-.4,2.3-.3,3.6,0,.2,0,.4.2.5h-.2c-.9,2-1.6,4.1-2.1,6.2,0,.4-.2.9.1,1.1.2.2.4.2.7.2.3,0,.6,0,.9,0l1.9,1.1c.6,4.8-.2,15.3-.3,17Z"/><path class="cls-15" d="M82.5,112.2c0,0-.1.1-.2.2"/><path class="cls-15" d="M61.4,105.9c-.1-.1-.2-.3-.3-.4"/><path class="cls-15" d="M79.6,139.5c-.4,1.8-.5,3.5-.4,4.9h-.7c-.4-4.9-2.2-10.7-4.6-16.3-3.7-8.8-8.7-17.2-11.9-21.5,3.8,4.5,8.8,6.8,11.1,7.5,2.5.7,7.1.6,9.1-1.7h0c.7-.5,1.1-1.2,1.3-2.1-.5,10.8-2.4,20.3-4.2,29.2h.1Z"/><path class="cls-15" d="M47.2,135.3s0,0,0,0"/><path class="cls-15" d="M94.6,116.4h0s0,0,0,0"/><path class="cls-1" d="M123.9,165.3c-3,.7-.6-.2-3.1,1.6-2.2,1.5-5.5,5.2-5.7,8.1h0c-1.1-1.4-2.5-2.9-4.2-4.5l.2-.2c1.1-4.2,4.5-7.7,8.7-8.8,1.5,1.8,2.9,3.2,4.1,4Z"/><path class="cls-13" d="M125.7,181.6c-2.8,2-4.5,2.8-7.4.9-1.4-.9-2.7-4.9-3.1-6.4-.1-.4-.1-.8,0-1.1.3-2.8,3.5-6.5,5.7-8.1,2.5-1.7,0-.9,3.1-1.6,3.3-1,7.3.8,8.7,3.9,1.4,3.1-4.1,10.4-6.9,12.4Z"/><path class="cls-7" d="M50,193l-.2.6c-5,40.5-1,35.9-24.3,92.6l-.2.4c-.2,0-.5-.2-.7-.3-.9-.5-1.9-1-3-1.7-.6-.4-1.2-.8-1.9-1.2,0-1.4,17-42.4,17.1-43.8.8-16,2.3-31.9,6.2-49.1l.8.2c2.2.9,4.3,1.6,6.3,2.3Z"/><path class="cls-15" d="M92.2,193c0,0,0-.2-.1-.2"/><path class="cls-7" d="M114.5,288.8c-7,5.9-11,10.1-21.4,7.7-1.1-.2-2.2-.6-3.5-1-.3-1.2-3.8-50.7-4.2-51.9-4.1-11.4-12.2-23.5-14.7-27.6-2.9,9.4-5.8,20.1-9,29.9-.6,1.7-15.3,39.5-15.8,41.1-.3,0-.6.1-.9.2-6.1,1.1-10,1.7-13.5,1.3v-.2c21.3-54.9,18.5-49.6,23.5-93.2v-.4c9.5,2.9,16.1,3.7,21.1,3.5,7.5-.3,11.5-3,15.8-5.2h.1c0,0,.2.2.3.4,4.4,7.8,17.4,28.3,19.7,38.8.3,1.4,2.3,51,2.4,56.2,0,.2,0,.4,0,.4Z"/><path class="cls-6" d="M133.4,312.1c-3.3,1.7-7.4,1.6-11.2,1.2-11.6-1.2-15.6-2.1-26.8-5.1-1.4-.4-2.9-.8-3.5-2-.5-.8-.4-1.9-.2-2.8.3-2.2.8-4.5,1.4-6.6v-.3c10.5,2.5,14.5-1.8,21.5-7.7,0,0,0-.2,0-.4,8.8,4.9,9.4,6.5,18.3,11.4,1.5.9,3.2,1.8,4.1,3.2,2,3.1-.1,7.3-3.5,9.1Z"/><path class="cls-15" d="M114.5,288.4c0,0-.1,0-.2,0"/><path class="cls-6" d="M58.1,314.1c-3.7.8-6.5.8-10.1-.5-10.9-4.2-19.5-8.2-29.5-14.1-1.2-.7-2.5-1.5-2.8-2.8-.2-.9.2-1.9.6-2.8,1.7-3.8,2.8-6,5.4-9.2,1.1.6,2,1.2,3,1.7.2.1.5.2.7.3,2.2,1.1,4.2,1.7,6.3,1.9,3.5.4,7.4-.2,13.5-1.3h0c7.2,7.1,8.6,7.9,15.8,15,1.2,1.2,2.6,2.5,3,4.2,1,3.5-2.2,7-5.9,7.8Z"/><path class="cls-15" d="M21.8,284.5c0,0-.1.1-.2.2"/><path class="cls-15" d="M20.8,148.8c0,0,0,.1,0,.2"/><path class="cls-15" d="M37.9,150.5c-2.2-1.6-4.4-2.3-8.1-3"/><path class="cls-15" d="M56,166.7c-.1,0-.2-.1-.4-.2"/><path class="cls-15" d="M50.3,177c0,.1,0,.3,0,.4"/><path class="cls-15" d="M68,169.2c-1.2-.6-2.4-1.2-3.1-1.6"/><path class="cls-15" d="M68,169.3s0,0,0,0"/><path class="cls-13" d="M69.1,175.4c1.6,1.9.4,4-.9,4.7,1.9,1.3-.2,3.5-1.3,3.9,1.6,4.6-7.5,2.6-9.5,1.6-2.7-1.4-7.1-4.6-7.1-8h0c.8-3.9,2.5-7.4,5-10.6v-.4c.1,0,.2,0,.4,0h0c4.2-.3,11.8-3.1,12.3,2.7,2.7,1.5,5.4,3.5,1.1,6.2Z"/><path class="cls-1" d="M55.2,166.5v.4c-2.5,3.1-4.2,6.7-5,10.5h0c-.2.7-.3,1.4-.4,2.1-1.2-1-2.9-2.2-4.8-3.5-.2-.1-.4-.3-.6-.4v-.2c-1.2-4.9,1.3-10.6,5.8-13,1.7,1.4,3.5,2.8,5.3,4-.1,0-.3,0-.4,0Z"/><path class="cls-15" d="M55.2,166.5h0"/><path class="cls-15" d="M78.9,145.9c0-.2,0-.4,0-.6"/><path class="cls-2" d="M73.9,128.1h-.3c-3.2-7.8-9.7-12.3-16-15.4-.8-.4-1.7-.7-2.5-1.1,0-.9.2-1.8.3-2.7h0c.9-.4,1.6-1,2-1.9,1.1-2.1.5-3.9-.8-5,.5-1.2,1.1-2.6,1.7-4h0c2.1-.2,4.2-.3,6.1-.2v.7c-2.2,1.5-3.6,4.2-3.5,6.9h0c.1.2.3.3.4.5,0,0,0,0,0,0,.1.2.3.4.5.6,0,0,0,0,0,0,3.2,4.2,8.3,12.7,11.9,21.5Z"/><path class="cls-4" d="M55.4,108.9c0,.9-.2,1.8-.3,2.7-.2,1.7-.4,3.4-.6,5.1-.6,0-1.1,0-1.7,0h0c.2-2,.4-4,.6-5.9,0-.5,0-1.1.1-1.6.6,0,1.3-.1,1.8-.4h0Z"/><path class="cls-2" d="M53.6,109.2c0,.5,0,1.1-.1,1.6h0c-.1,0-.3-.2-.5-.3-1.1-.7-3.4-2.3-4.6-3.8-.4-.5-.7-.9-.8-1.3-.5-1.8.5-3.1,2.4-4.2h0c.2.3.5.7.7,1-.3.3-.5.7-.7,1.2-.8,2,.1,4.5,2,5.4.5.2,1,.4,1.6.4Z"/><path class="cls-2" d="M89.2,109.8c0,.4,0,.9,0,1.4-.9,6.6-7.8,19.3-9.6,28.3h-.1c1.8-8.9,3.7-18.4,4.2-29.2.3-1.2.2-2.8.2-5s-.3-3.4-1.5-2.9h0c.5-.4,1-.6,1.4-1h0c2.7.5,4.4,2.7,5.1,5.8h0c0,.2,0,.3,0,.5t0,0c.1.7.2,1.5.2,2.2Z"/><path class="cls-15" d="M83.8,101.3c0,0-.1,0-.2,0"/><path class="cls-15" d="M79.4,139.4c-.2.8-.3,1.6-.5,2.3"/><path class="cls-15" d="M83.6,109.6v.7"/><path class="cls-15" d="M50.4,162.4s0,0,0,0"/><path class="cls-15" d="M119.9,161.3s0,0,0,0"/><path class="cls-15" d="M83.9,105.3c0,2.2,0,3.8-.2,5-.2.9-.6,1.6-1.3,2.2h0c-2.1,2.3-6.7,2.3-9.1,1.7-2.4-.6-7.3-3-11.1-7.5,0,0,0,0,0,0-.2-.2-.3-.4-.5-.6,0,0,0,0,0,0-.2-.2-.3-.3-.4-.5h0c0-2.7,1.3-5.4,3.5-6.9,1.6,2,3.2,4,5.2,5.5,2,1.5,5.7,2.2,8.1,1.9.7,0,4-3.3,4.5-3.5,1.1-.4,1.5,1.5,1.5,2.9Z"/><path class="cls-15" d="M61,105.6c0,0,0-.1,0-.2"/><path class="cls-13" d="M82.4,102.3c-.6.2-3.8,3.5-4.5,3.5-2.5.3-6.1-.4-8.1-1.9-2-1.5-3.6-3.5-5.2-5.5v-.7c0,0,0-.2,0-.2,9.3,5.2,13.7,6.5,17.8,4.6h0Z"/><path class="cls-15" d="M98.6,70.1c-.1-1-.3-1.6-.2-4.1"/><path class="cls-9" d="M97.2,67.5c-.1,0-.2.2-.4.2-.3.1-.7.1-1,.1-2.1,0-4.3,0-6.4,0-1,0-2.1,0-2.9-.5-.8-.5-1.7-2.1-.8-2.5,1.6-.7,8-.6,10.1.5.1,0,.2.1.3.2.4.3.7.3,1.1.7.3.4.5,1,.1,1.4Z"/><path class="cls-9" d="M77.4,67.1c-.9.1-8.5,0-10,0-.5,0-.1-1.6.1-2.2.5-1.2,7.5-2.4,10.2-.9.3.1.6,2.9-.3,3Z"/><path class="cls-18" d="M93.3,74.5c0,1.6-.6,2.8-1.4,2.8s-1.4-1.2-1.4-2.8.6-2.8,1.4-2.8,1.4,1.3,1.4,2.8Z"/><path class="cls-18" d="M75.3,74c0,1.8-.8,3.2-1.8,3.2s-1.8-1.5-1.8-3.2.8-3.2,1.8-3.2,1.8,1.4,1.8,3.2Z"/><path class="cls-15" d="M86.9,92.3c-1.8,2.3-4.2,2.7-7.6,2.3-5.8-.7-9.7-5.7-8.8-5.4,4.2,1.7,11.9,3.9,16.4,3h0Z"/><path class="cls-15" d="M87.4,92c-.2,0-.3,0-.5.1"/><path class="cls-15" d="M56.6,102c0,0,0,0,0,.1"/><path class="cls-4" d="M67.6,33.8c-4,.5-8.1,1.5-12,3.2,2.5-2.7,4.8-5.1,8.3-7.3.7-.5,1.5-.9,2.3-1.4h0c.5,1.8.9,3.6,1.3,5.5Z"/><path class="cls-3" d="M62,58.2c-1.4,2.7-2.2,5.6-2.6,8.6h0c-5.5.9-14.6,6.4-17.2,10.1,0-2.9,0-5.2-.1-7.4h.1c4.1-5.6,12.5-9.1,19.7-11.6v.3Z"/><path class="cls-10" d="M59.1,87.9c-5.7.6-10.2.8-14.1,3.5-1.8-4.8-2.8-9.9-2.8-14.5,2.6-3.8,11.7-9.2,17.2-10.1h0c-.7,5-.4,10.4.1,15.5.2,1.9,0,3.8-.4,5.6Z"/><path class="cls-12" d="M59.1,87.9c-1,4.4-3.2,8.7-4.2,13.2-1.5-.4-3.1-.2-4.2,1.1-.2-.3-.5-.7-.7-1-2-2.9-3.7-6.3-4.9-9.8h0c3.8-2.7,8.4-3,14.1-3.5Z"/><path class="cls-15" d="M50.8,102.4c0,0,0,0-.1-.1"/><path class="cls-3" d="M82.8,38.4h0c-5.1-.7-10.3-.7-15.3,0-5.3.7-10.5,2.2-15.6,4.5-1.1.5-2.1,1-3.2,1.6.3-.3.6-.7.9-1,2.3-2.3,4.1-4.4,5.9-6.3,3.9-1.7,7.9-2.7,12-3.2,3.7-.5,7.4-.5,11,0,.1,0,.2,0,.3,0,2.2.2,4.4.6,6.4,1.1h0c1.3.9,2.6,1.8,3.9,2.8,1,.8,2,1.7,2.9,2.6-3.1-.9-6.2-1.5-9.3-1.9Z"/><path class="cls-8" d="M100.1,54.8c-3-2.1-6.6-3.6-10.4-4.5,0-4.5-4.3-9-6.9-11.9h0c3.1.3,6.2.9,9.3,1.8h0c3.8,3.8,6.4,8.6,7.7,13.8,0,.2.1.5.2.7Z"/><path class="cls-11" d="M101.3,91.1c-.4,1.8-3.6,11.7-4.7,13.6,0,0,0,0,0,0-.6-.9-1.5-1.5-2.5-1.9-1.3-.5-2.9-.5-4,.6-.5.4-.8,1-1,1.6-.3-.2-.5-.5-.6-.8-.6-2.2-1.7-3.9-1.1-6.1h0c.3-.3.7-.7,1-1,4.4-4.7,9-10.5,10.2-23.3.2-2.1.2-3,0-3.7,0,0,0,0,0,0,.1-4.1.4-9.1-1.3-12.5,2.1,1.4,3.4,2.9,4.2,4.3h.2c.6,3,1.1,6,1.1,8.3.1,8.2.2,12.3-1.6,20.9Z"/><path class="cls-15" d="M96.6,104.8c0,0-.1,0-.2,0"/><path class="cls-4" d="M78.9,33.8h0c-2.7-3-6.9-5.2-10.8-6.4.7.1,1.4.2,2.1.4,4.7,1.1,10.1,3.8,15.1,7.1-2.1-.5-4.2-.9-6.4-1.1Z"/><path class="cls-15" d="M89.2,105.2c0,0-.1,0-.2-.1"/><path class="cls-9" d="M98.6,70.1s0,0,0,0c0,.5,0,.9,0,1.3-.4-.8-1.1-2.2-1.8-3.7.1,0,.2-.1.4-.2.3-.4.2-1-.1-1.4-.4-.4-.7-.4-1.1-.7,0,0-.2-.1-.3-.2-.5-1.1-1-2.1-1.3-2.7-1.4-2.5-1.4-2.9-2.3-4.7-.9-1.6-3.7-3.5-5.8-4.2,1.2,0,2.1.2,2.7.3,3.6.9,6.3,2.2,8.2,3.5,1.7,3.4,1.4,8.4,1.3,12.5Z"/><path class="cls-15" d="M97.3,57.6c0,0,0,0,0-.1"/><path class="cls-9" d="M85.5,53.7c-.7,2.9-1.5,5.7-2.2,8.6,0-2.8-1-6-2.3-8.5,1.6,0,3.2,0,4.5,0Z"/><line class="cls-15" x1="81" y1="53.7" x2="81" y2="53.7"/><path class="cls-12" d="M101.7,61.9h-.2c-.8-1.3-2.1-2.9-4.2-4.3-2-1.3-4.7-2.6-8.2-3.5-.6-.2-1.6-.3-2.7-.3-.3,0-.5-.1-.8-.2,0,0,0,0,0,.1-1.3,0-2.9,0-4.5,0-5.4.2-11.9,1-14.6,2.8h0c-1.4.4-2.9.9-4.5,1.4-7.3,2.5-15.6,6-19.7,11.6h-.1c0-2.4,0-4.6.2-6.9h0c1.2-1.8,4-3.7,7.4-5.5,6.2-3.4,14.4-6.4,19.1-7.5.8-.2,1.4-.3,2-.4,5-.6,12.2-.6,19,1,3.8.9,7.4,2.3,10.4,4.5.5,2.2,1.1,4.7,1.6,7.1Z"/><path class="cls-8" d="M68.7,49.7c-4.7,1.1-12.9,4.1-19.1,7.5h0c-1.2-4.6,1.3-13.9,2.5-14.3h0c5.1-2.4,10.3-3.8,15.6-4.5v.2c.9,3.3,1.1,7.7,1.2,11.1Z"/><path class="cls-15" d="M89.7,50.3c-6.8-1.7-14.1-1.6-19-1-.6,0-1.2.2-2,.4,0-3.4-.3-7.8-1.1-11.1v-.2c5-.7,10.1-.6,15.2,0h0s0,.1,0,.1c2.6,2.9,6.8,7.4,6.9,11.9Z"/><path class="cls-15" d="M100.2,54.9h0"/><path class="cls-15" d="M42.2,62.7s0,0,0,0"/><path class="cls-15" d="M59.1,87.9s0,0,0,0"/><line class="cls-15" x1="45" y1="91.5" x2="45" y2="91.5"/><path class="cls-15" d="M92.4,40.4c0,0-.2,0-.3,0"/><path class="cls-15" d="M48.8,44.3c0,0-.1,0-.2,0"/><path class="cls-15" d="M55.7,37s0,0,0,0"/><path class="cls-15" d="M54.9,101.1c0,0,0,.1,0,.2"/><path class="cls-15" d="M67.7,34.1v-.2"/><path class="cls-15" d="M68.7,49.7h0"/><path class="cls-15" d="M89.7,50.5h0"/><path class="cls-5" d="M49.6,57h0c-3.4,2-6.2,3.9-7.4,5.7.2-2.7.7-5.5,1.7-9.2.9-3.4,2.5-6.5,4.9-9.1h0c1-.6,2.1-1.1,3.2-1.6h0c-1.2.5-3.6,9.8-2.5,14.3Z"/><path class="cls-13" d="M98.6,70.2c0,.5,0,.9,0,1.3-.4-.8-1.1-2.2-1.8-3.7-.3.1-.7.1-1,.1-2.1,0-4.3,0-6.4,0-1,0-2.1,0-2.9-.5-.8-.5-1.7-2.1-.8-2.5,1.6-.7,8-.6,10.1.5-.5-1.1-1-2.1-1.3-2.7-1.4-2.5-1.4-2.9-2.3-4.7-.9-1.6-3.7-3.5-5.8-4.2-.3,0-.5,0-.8,0-.7,2.9-1.5,5.7-2.2,8.6,0-2.8-1-6-2.3-8.5-5.4.2-11.9,1-14.6,2.8-.5.3-.8.6-1,1-4.7,7.5-2.5,16.8-2.9,25.1-.2,3.7-1.3,7.7-2.7,11.4h0c1.9,1.6,2.5,2.5,4.2,3.4.1,0,.3.1.4.2,9.3,5.2,13.7,6.5,17.8,4.6.5-.2,1-.5,1.4-.9h0c1.2-.8,2.3-1.8,3.6-3.1.3-.3.7-.7,1-1,4.4-4.7,9-10.5,10.2-23.3.2-2.1.2-3,0-3.7ZM67.5,65c.5-1.2,7.5-2.4,10.2-.9.3.1.6,2.9-.3,3-.9.1-8.5,0-10,0-.5,0-.1-1.6.1-2.2ZM75.3,74c0,1.8-.8,3.2-1.8,3.2s-1.8-1.5-1.8-3.2.8-3.2,1.8-3.2,1.8,1.4,1.8,3.2ZM79.3,94.6c-5.8-.7-9.7-5.7-8.8-5.4,4.2,1.7,11.9,3.9,16.4,3h0c-1.8,2.5-4.2,2.8-7.6,2.4ZM91.9,77.3c-.8,0-1.4-1.2-1.4-2.8s.6-2.8,1.4-2.8,1.4,1.3,1.4,2.8-.6,2.8-1.4,2.8Z"/><path class="cls-4" d="M66.4,56.5c-.5.3-.8.6-1,1-4.7,7.5-2.5,16.8-2.9,25.1-.2,3.7-1.3,7.7-2.7,11.4-.5,1.4-1.1,2.8-1.6,4-.6,1.5-1.2,2.9-1.7,4-.5-.4-1.1-.8-1.7-.9,1-4.5,3.2-8.7,4.2-13.2.4-1.8.6-3.7.4-5.6-.5-5.1-.9-10.4-.1-15.5.4-3,1.2-5.9,2.6-8.6v-.3c1.5-.5,3-1,4.4-1.5h0Z"/><path class="cls-16" d="M57.4,107.1c-.4.8-1.2,1.4-2,1.8-.6.2-1.2.4-1.8.4-.6,0-1.1-.1-1.6-.4-1.9-.9-2.9-3.5-2-5.4.2-.5.4-.9.7-1.2,1.1-1.3,2.8-1.6,4.2-1.1.6.2,1.2.5,1.7.9,1.3,1.1,1.9,3,.8,5Z"/><path class="cls-16" d="M97.3,107.2c0,1.2-1,2.3-2,2.9,0,0-.2,0-.2.1h0c-.7.3-1.4.4-2.1.4-1.2,0-2.4-.6-3.2-1.6-.3-.4-.6-.9-.7-1.4t0,0c0-.1,0-.3,0-.4h0c0-.7,0-1.4.2-2.1.2-.6.5-1.2,1-1.6,1.1-1,2.6-1.1,4-.6,1,.4,1.9,1.1,2.5,1.9.5.7.8,1.5.7,2.4Z"/><path class="cls-4" d="M94.6,116.4h0c0,.6,0,1.1,0,1.7,0,0,0,0,0,0h0c-.3-.1-.6,0-.9.1-.3.1-.8.2-1,0-.1-.1-.1-.3-.2-.5-.1-1.2,0-2.4.3-3.6,0,0,0-.1,0-.2.2-1,.3-2.1.2-3.2.7,0,1.5,0,2.1-.4h0c.3,2.2-.2,4.1-.4,6.1Z"/><path class="cls-3" d="M57.3,123.2c-.3.8-1.2,1-2.1,1.1-.9,0-1.7,0-2.6,0-.8,0-1.5-.2-2.3-.3-.6-.2-1.3-.4-1.5-1-.4-1.1,1.2-2.7,1.8-3.5.6-.8,1.1-2.7,2.3-2.7h0c1.8,0,5.1,4.8,4.5,6.5Z"/><path class="cls-15" d="M92.6,113.8c0,0,0,.1,0,.2-1-1.2-2.4-2-3.5-2.8,0-.5,0-1,0-1.4,0-.8,0-1.5-.2-2.2.1.5.4,1,.7,1.4.8,1,1.9,1.5,3.2,1.6.1,1.1,0,2.2-.2,3.2Z"/><path class="cls-3" d="M96.9,124c-.2.4-.6.7-1,.8-.7.3-1.5.6-2.3.7-.5,0-1.1.1-1.6.1s-.6,0-.9,0c-.2,0-.5,0-.7-.2-.3-.3-.2-.7-.1-1.1.5-2.1,1.2-4.2,2.1-6.2h.2c.2.2.7.2,1,0,.3-.1.6-.2.9-.1h0c.8,1.4,1.5,2.9,2.2,4.4.2.5.5,1.1.2,1.6Z"/><path class="cls-15" d="M94.4,118c0-.1,0-.2-.2-.3,0,0-.2.2-.3.3"/><path class="cls-5" d="M78.9,33.8h0c-.1,0-.2,0-.3,0-3.6-.4-7.3-.4-11,0-.4-1.8-.9-3.6-1.3-5.4h0c.6-.4,1.2-.7,1.9-1,3.9,1.2,8.1,3.4,10.8,6.4Z"/><path class="cls-15" d="M70.3,27.7h0c-.7,0-1.4-.2-2.1-.3-.6.3-1.3.6-1.9,1-.8.5-1.6.9-2.3,1.4-1.3-.7-1.7-2.6-1-3.9.8-1.4,2.6-2,4.2-1.5,1.5.5,2.7,1.9,3.1,3.4Z"/><path class="cls-15" d="M64.3,29.9c-.1,0-.2,0-.3-.2"/><path class="cls-14" d="M55.2,194.7v.4c-5.1,43.7-2.3,38.3-23.6,93.2v.2c-2.2-.2-4.1-.8-6.3-1.9l.2-.4c23.3-56.7,19.4-52.2,24.3-92.6l.2-.6c1.8.6,3.5,1.2,5.2,1.7Z"/><path class="cls-17" d="M75.6,201.7c-1.6,4.1-3.2,9-4.9,14.3"/><path class="cls-17" d="M86.1,83.2c1.2,3-1.6,3.7-5.8,3.5"/></svg>