<?xml version="1.0" encoding="UTF-8"?><svg id="latinAmerica" xmlns="http://www.w3.org/2000/svg" width="235" height="321.9" viewBox="0 0 235 321.9"><defs><style>.cls-1,.cls-2{fill:#2e2c2d;}.cls-1,.cls-2,.cls-3,.cls-4,.cls-5,.cls-6,.cls-7,.cls-8{stroke-linecap:round;stroke-linejoin:round;}.cls-1,.cls-3,.cls-4,.cls-5,.cls-6,.cls-7,.cls-8{stroke:#000;}.cls-2{stroke:#231f20;}.cls-3{fill:#87654b;}.cls-4{fill:#b0e2ee;}.cls-5{fill:#ffcf66;}.cls-6{fill:#fff;}.cls-7{fill:none;}</style></defs><path class="cls-2" d="M75.9,33.2h-1.3c-1.1.1-2.8.4-4.8,1-.8.6-1.6,1-2.2,1.4-1.5.8-4.7,5-5.2,6.6-1.2,3.6-2,6.6-2.7,9.8-.2,1.1-.4,2.1-.5,3.2-.2-.1-.5-.2-.8-.2h-1.3c0,0-.1,0-.1,0-.5,0-1.1.2-1.5.5,0-6.5.7-10.9,2.7-16-2.2,4-3.6,6.3-4.6,9.3-1.6,4.9-2.1,8.5-2.1,11.9-.4-.3-.9-.5-1.5-.4l-2,.3c-.3,0-.7.2-.9.4-.2-1.8-.3-2.9-.3-4,0-2.7.4-5.9,1-9.4-1.6,3.9-2.2,7.9-2.1,12.5-.4-.5-1.1-.7-1.7-.6l-2.1.4c-.4,0-.7.2-1,.5-.3-2.6-.4-4.3-.6-6.5-.3-4.3.2-12.7,6.2-21.7,6.1-8.2,13.6-10.4,27.4-9.7,2,3.2,2.8,7.1,2.1,10.8Z"/><path class="cls-2" d="M94.7,59.9h0c-.3-.6-.7-.4-1.2-.1h-.3c.7-2.9.2.2.4-3.9,0-11.8-10.5-22-18.2-22.5-.2,0-.3,0-.5,0h1.3c.7-3.8,0-7.7-2.1-10.9,0,0,.2,0,.3,0,0,0,6.2.3,11.1,3.2,10.1,5.9,14.3,22.4,9.4,34.2Z"/><path class="cls-7" d="M73.8,22.5s0,0,0,0"/><path class="cls-5" d="M100.9,114.5h0c-3.5,2-6.6,4.8-8.8,8.2-.5-.9-.9-1.6-1.1-2h0c.2,6.9-1.4,14.3-2.4,21.5-.6,4.5-.5,8.9-.2,13.4h-.1c-10.3,4.4-28.2,3.4-44.7-1h0c0-1.7.1-3.1.2-4.3.2-3.9-1.8-27.4-2.1-31.4-.6.8-1.3,1.7-2,2.7h-.3c-1.1-4.9-4.4-9.2-8.8-11.5.7-1,1.4-1.8,1.9-2.4,6.2-7,9.5-9.9,21.3-11.3,1.5,8.7,6.2,12.4,15.5,12.5,7.8,0,11.6-8.6,10.3-12.5,8.2,1.7,14.4,5.1,18.3,12.5.5,1,1.7,3,3.1,5.6Z"/><path class="cls-3" d="M93.4,55.9c0-11.8-10.5-22-18.2-22.5-.2,0-.3,0-.5,0-1.1,0-2.8.3-4.8.9-.8.6-1.6,1-2.2,1.4-1.5.8-4.7,5-5.2,6.6-1.2,3.6-2,6.6-2.7,9.8-.2,1.1-.4,2.1-.5,3.2.8.4,1.4,1.2,1.3,2.2,0,1.2-1.1,2.1-2.3,2.1h-.1c1,0,1.8.7,2,1.6.2-1.9,1-3.3,2-3.3s2,1.8,2,3.9-.9,3.9-2,3.9-1.8-1.4-2-3.2c-.4.9-.7,1.3-1.5,1.5h0c0,1.1,0,.9,0,2,0,1.1-1.8.9-2.1-.1-.2-.8-.5-1.1-.6-1.9-1-.2-1.8-1.2-1.7-2.3,0-1.1.9-2,2.2-2.1-1.1-.2-1.9-1.2-1.8-2.4,0-.6.4-1.2.8-1.6h0c0-6.5.7-10.9,2.7-16-2.2,4-3.6,6.3-4.6,9.3-1.6,4.9-2.1,8.5-2.1,11.9.3.3.6.7.7,1.1v.5c.2.9-.3,1.8-1.2,2.1.9,0,1.7.6,1.8,1.6v.5c.2.8-.2,1.6-1,2,0,.7.1.7.1,1.4,0,1.7-2.4,2.1-3,.4-.2-.5-.2-.7-.4-1.4-.7-.2-1.2-.8-1.4-1.5v-.5c0-.1,0-.2,0-.3s0-.2,0-.3h-.1c0,0,0,.2,0,.3-.1.7-.6,1.3-1.3,1.5.9,0,1.7.7,1.9,1.6v.5c.2.8-.2,1.5-.8,1.9h0c0,.6,0,1.1,0,1.4h.2c1.9,10,8.9,12.8,10.9,14,9.9,6.2,13.9,7.9,18,6.1h0c2.3-1,4.6-3.1,8-6.2,4.6-4.1,6.7-10.6,7.3-16.9.7-7.6,1.6-9.5,1.6-9.5.1-.5.2-1,.3-1.3.7-2.9.2.3.4-3.9ZM75.3,84.4c-2,.3-6-.1-8-1.3-1.9-1.2-2.7-1.6-5-4.8,1.1,1,13.4,3.8,19.1,1.9h0c-1.4,2.5-2.9,3.8-6.2,4.2ZM85.2,64.1c-.9,0-1.6-1.5-1.6-3.4s.7-3.4,1.6-3.4,1.6,1.5,1.6,3.4-.7,3.4-1.6,3.4Z"/><path class="cls-7" d="M89.1,53.1c-2-2.3-7.7-1.2-9.7,0"/><path class="cls-7" d="M66.4,53.2c-1.9-1.4-4.9-1.6-7.2-1.1"/><path class="cls-7" d="M75.8,96.4v-.7"/><path class="cls-3" d="M69.2,108.9c-9.2,0-14-3.8-15.5-12.5,1.2-.1,2.4-.3,3.8-.4.2-2.7.3-4.4.3-8.6,9.9,6.2,13.9,7.9,18,6.1,0,.8,0,1.5,0,2.2h0c1.2.2,2.5.4,3.6.6,1.3,3.9-2.5,12.6-10.3,12.5Z"/><path class="cls-7" d="M90.9,120.7c0-2.2-.3-4.4-.8-6.6"/><path class="cls-7" d="M43.3,158s0,0,0,0"/><path class="cls-7" d="M41.6,119h0"/><path class="cls-5" d="M98.8,230c-1.5.8-4,1.7-7.3,2.4-5,1.1-11.6,1.9-18.8,2.2-5,.2-10.2,0-15.4-.4-6.3-.6-12.5-1.7-17.9-3.5-2.2-.8-4.3-1.6-6.2-2.6.3-2.5,3.6-29.9,5.1-38.7,0,0,2.8-14.2,2.8-14.3,2.8,1.3,7.3,2.6,6.8-.7,1.1-.1,3.2-1.6,1.8-3.1,1.2-.4,2.6-1.9,1.5-3.8,1.2-.5,1.9-1,2.2-1.5,13.3,2.8,28.8,2.4,35.9-1.3.4,3.4.9,6.9,1.2,10.5.1,1.4.3,2.9.4,4.4.5,6.6,2.5,14.1,3.4,20.4,1.1,7.2,3.1,21.3,4.5,29.8Z"/><path class="cls-7" d="M33.2,228.1c0,.1,0,.2,0,.2"/><path class="cls-7" d="M94.6,292.3c0-.2,0-.4,0-.6"/><path class="cls-7" d="M91.5,232.4h0"/><path class="cls-3" d="M99,299.4c-.9,1.2-2.7,1.3-4.2,1.2-3.8-.1-7.7-.3-11.3-1.4-1.1-1.5-1.9-3.2-2.2-5.1,0-.5-.1-.9-.1-1.4-.7-16.8-3.1-23.5-7.5-38.8-.7-2.4-2.4-11-1.1-19.3,7.2-.3,13.9-1.1,18.8-2.2,2,9.3,2.3,16.1,1.9,21.8-.3,4.1.5,31.6,1.1,37.4,1.1.5,2.1,1,3.2,1.5l-.3.6c.7.8,1.4,1.6,1.8,2.6.4,1,.4,2.2-.2,3Z"/><path class="cls-7" d="M72.7,234.4c0,0,0,.1,0,.2"/><path class="cls-3" d="M111.1,302.3c0,.3,0,.5,0,.8-.4,1.7-2.5,2.8-4.3,3.2,0,0,0,0,0,0v-.3c-1.3-2.1-2.4-4.3-3.6-6.4-.3-.5-.6-1.1-.7-1.7,0-.6.2-1.3.8-1.6v-.2c1.7.8,3.2,1.7,4.8,2.6,1.5.8,3.1,2,3.2,3.7Z"/><path class="cls-3" d="M57.3,234.2c-.3,3.8-.1,5.6-.4,9.4-.7,8.8-1.5,19.1-3.4,27.8-1.2,5.3-3,14.9-2.2,24.6h0c.2.5.2,1,.2,1.5h0c0,.7-.3,1.5-.6,2.1-.4.8-1.1,1.6-1.8,2.2h0c-4.8.8-9.6,1.5-14.4,2-.8,0-1.7.2-2.4-.3-.9-.5-1.3-1.6-1.2-2.6,0-1,.6-2,1-2.9v-.2c1.6-1.2,3.3-2.4,5.8-3.7,1.7-17.1-2.6-40.8-1.6-49.9.5-4.2,1.6-10.3,3.3-13.6,5.4,1.9,11.6,3,17.9,3.5Z"/><path class="cls-4" d="M48.9,301.9c-.4.4-.8.8-1.2,1.1-2.2,1.9-4.3,3.3-6.5,4.4v-.2c-2.6,0-5.2-.1-7.6.6-2.3.6-4.5,2.1-5.6,4.2h0c-.6,0-1.2.1-1.9,0-.8,0-1.6-.3-2.2-.7h0c.4-1.2,1.2-2.2,1.9-3.2.7-1,1.4-2.1,1.3-3.4,0-1.1-.7-2.2-.6-3.2,2-1.4,3.5-2.6,5.1-3.7v.2c-.3.9-.8,1.9-.9,2.9,0,1,.3,2.1,1.2,2.6.7.4,1.6.4,2.4.3,4.8-.5,9.7-1.2,14.4-2.1h0Z"/><path class="cls-3" d="M41.2,307.4c-3.1,1.6-6.4,2.7-10.4,4-.9.3-1.8.5-2.8.7,1-2.2,3.2-3.6,5.6-4.2,2.4-.7,5-.6,7.5-.6v.2Z"/><path class="cls-3" d="M27.2,304.8c0,1.2-.6,2.4-1.3,3.4-.7,1-1.5,1.9-1.9,3.1h0c-.7-.3-1.3-.9-1.6-1.6-.6-1.3-.4-2.8.2-4.1,0-.2.2-.4.3-.6.9-1.4,2.3-2.4,3.6-3.3,0,0,0,0,.1,0,0,1,.5,2.1.6,3.2Z"/><path class="cls-8" d="M86.9,60.7c0,1.9-.7,3.4-1.6,3.4s-1.6-1.5-1.6-3.4.7-3.4,1.6-3.4,1.6,1.5,1.6,3.4Z"/><path class="cls-8" d="M64.2,61.7c0,2.2-.9,3.9-2,3.9s-1.8-1.4-2-3.2c0-.2,0-.4,0-.6,0-.3,0-.5,0-.8h0c.2-1.9,1-3.4,2-3.4s2,1.8,2,3.9Z"/><path class="cls-7" d="M60.3,62c0,.2,0,.4,0,.6,0-.2,0-.5,0-.8s0-.4,0-.6c0,.2.1.5,0,.8Z"/><path class="cls-7" d="M79.4,72.2c0,2.8-6.5,2.3-8.5,2.1"/><path class="cls-6" d="M81.5,80.2c-1.4,2.4-2.9,3.7-6.2,4.2-2,.3-6-.1-8-1.3-1.9-1.2-2.7-1.6-5-4.8,1.1,1,13.4,3.8,19.1,1.9h0Z"/><path class="cls-7" d="M81.4,80.1h0c.2,0,.3-.1.5-.2"/><path class="cls-7" d="M79.5,96.4s0,0,0,0"/><path class="cls-7" d="M53.7,96.4c0-.1,0-.3,0-.4"/><path class="cls-3" d="M95,64.2c0,4.4-2.8,6.4-3.9,6.4.7-7.6,1.6-9.5,1.6-9.5.1-.5.2-1,.3-1.3h.3c.5-.3,1-.4,1.2.2.3.6.4,1.8.4,4.2Z"/><path class="cls-3" d="M105.7,153.2c-4,4.2-7.6,7.1-9.3,12.3-.7,2.2-1.2,4.2-2,6.4-1.1,2.9-2,3.1-3.7,3.5h-.1c-.3-3.7-.8-7.2-1.2-10.5-.4-3.1-.8-6-1-8.9,0-.2,4.2-3.4,5.1-4.5,1.4-1.7,2.6-3.1,3.6-5.1,1.3-2.7,2.3-5.9,3.9-8.6h0c-.4,0-6.3-10.2-9-15,2.2-3.4,5.3-6.2,8.8-8.2h0c4,7.1,10.2,18,10.8,18.8,4.7,7.1-.6,14.2-6,19.8Z"/><path class="cls-7" d="M101,137.7s0,0,0,0"/><path class="cls-7" d="M88.4,155.9h0"/><path class="cls-7" d="M105.1,133.3c-1.8,1.1-3,2.7-4,4.4"/><path class="cls-7" d="M43.7,116.2c-.3.3-1,1.3-2.1,2.8"/><path class="cls-3" d="M53.4,166.2c-.3.5-1,1-2.2,1.5,1.1,1.9-.2,3.4-1.5,3.8,1.5,1.4-.7,2.9-1.8,3.1.6,3.3-4,2-6.8.7-.8-.4-1.4-.7-1.8-1-2.2-1.7-5.8-5.4-4.8-8.4-.4-.4-.9-.9-1.4-1.4-3.3-3.3-8.8-7.7-11.5-10.2-4.3-3.9-9.7-13.3-7.4-18.7.8-2,10.9-18.1,16.3-25.3,4.4,2.3,7.6,6.6,8.8,11.4h.3c-5,6.9-12.7,17.5-13.2,18.1,1.1,1.2,2.1,2.5,3.4,4.6,2.3,3.5,4.9,12.2,10.7,13.5.8.1,1.8.2,2.8.2,3.7.1,8.2.2,7.9,4.3,1.5,1.2,2.9,2.6,2.2,3.9Z"/><path class="cls-7" d="M21,135.6c2.6,1.5,4.1,2.6,5.4,4"/><path class="cls-7" d="M51.2,162.3c-.9-.8-1.9-1.4-2.4-1.9"/><path class="cls-7" d="M51.2,162.3s0,0,0,0"/><path class="cls-7" d="M30.5,110.1s0,0,0,0"/><path class="cls-7" d="M92,122.7s0,0,0,0"/><path class="cls-6" d="M89.3,164.9c-7.1,3.7-22.7,4.1-35.9,1.3.7-1.3-.7-2.7-2.2-3.9.3-4.1-4.2-4.2-7.9-4.3,0-1.2.1-2.3.2-3.3h0c16.4,4.4,34.3,5.4,44.7,1h.1c0,0,0,.2,0,.3.2,2.9.6,5.9,1,8.9Z"/><path class="cls-7" d="M89.5,164.8c0,0-.1,0-.2,0"/><path class="cls-1" d="M58.8,66c0,1.1-1.8.9-2.1-.1-.2-.8-.5-1.1-.6-1.9.1,0,.3,0,.4,0h1.7s0,0,.2,0h.3s0,0,0,0c0,1,0,.9,0,2Z"/><path class="cls-7" d="M60.8,33.5c-1,2.2-1.9,4.1-2.6,6,0,0,0,0,0,0"/><path class="cls-7" d="M58.2,39.4s0,0,0,0c0,0,0,0,0,0"/><path class="cls-7" d="M51.5,60.8h0"/><path class="cls-1" d="M52,69.8c0,1.7-2.4,2.1-3,.4-.2-.5-.2-.7-.4-1.4.2,0,.5,0,.8,0l2-.3c.2,0,.4,0,.5-.2,0,.7.1.7.1,1.4Z"/><path class="cls-7" d="M51.8,68.3s0,0,0,0"/><path class="cls-7" d="M48.5,68.8s0,0,0,0"/><path class="cls-7" d="M47.1,61.1s0,0,0-.1"/><path class="cls-7" d="M50.3,37.7c-1,3.3-1.9,6.7-2.5,9.9"/><path class="cls-7" d="M47.8,47.6s0,0,0,0"/><path class="cls-7" d="M45.7,60.3h0"/><path class="cls-1" d="M46.7,73.4c-.1.6-.4.9-.9,1-1.4.2-1.2-.3-2-1.8,0,0,0,0,0,0l2.1-.3c.2,0,.5-.1.7-.3h0c0,.6,0,1.1,0,1.4Z"/><path class="cls-7" d="M43.9,72.6s0,0,0,0"/><path class="cls-7" d="M40.9,60.5s0,0,0-.1"/><path class="cls-4" d="M46.7,72c-.2.1-.4.2-.7.3l-2.1.3s0,0,0,0c-1,.1-1.9-.6-2.1-1.6v-.5c-.2-.9.3-1.8,1.2-2.1h0c0,0,.2,0,.3,0l2.1-.3c0,0,.2,0,.2,0h0c.9,0,1.7.7,1.9,1.6v.5c.2.8-.2,1.5-.8,1.9Z"/><path class="cls-7" d="M45.6,68c0,0-.2,0-.2,0l-2.1.3c0,0-.2,0-.3,0,0,0,.2,0,.3,0l2.1-.3c0,0,.2,0,.3,0Z"/><path class="cls-6" d="M47,66.2c0,.1,0,.2,0,.3-.1.7-.6,1.3-1.3,1.5h0c0,0-.2,0-.3,0l-2.1.3c0,0-.2,0-.3,0h0c-.9,0-1.7-.7-1.9-1.6v-.5c-.2-1,.5-2,1.5-2.2l2.1-.3c1-.2,2,.5,2.2,1.6v.5c0,0,.1.2.1.3Z"/><path class="cls-7" d="M45.6,68c0,0-.2,0-.2,0l-2.1.3c0,0-.2,0-.3,0,0,0,.2,0,.3,0l2.1-.3c0,0,.2,0,.3,0Z"/><path class="cls-4" d="M44.6,63.7l-2.1.4c-1,.2-2-.5-2.2-1.6v-.5c-.2-.7,0-1.3.5-1.7.3-.2.6-.4,1-.5l2.1-.4c.7-.1,1.3.2,1.7.6.2.3.4.6.4.9v.5c.2,1-.4,2-1.5,2.2Z"/><path class="cls-6" d="M52.9,66.4c.1.8-.3,1.6-1,2-.2,0-.3.1-.5.2l-2,.3c-.3,0-.5,0-.8,0-.7-.2-1.2-.8-1.4-1.5v-.5c0-.1,0-.2,0-.3s0-.2,0-.3c.1-.7.6-1.3,1.3-1.5,0,0,.2,0,.3,0l2-.3c0,0,.2,0,.2,0h0c.9,0,1.7.6,1.8,1.6v.5Z"/><path class="cls-7" d="M50.9,64.3c0,0-.2,0-.2,0l-2,.3c0,0-.2,0-.3,0,0,0,.2,0,.2,0l2-.3c0,0,.2,0,.3,0Z"/><path class="cls-4" d="M51,64.3h0c0,0-.2,0-.3,0l-2,.3c0,0-.2,0-.2,0-.9,0-1.7-.6-1.8-1.6v-.5c-.2-.7,0-1.3.6-1.7.2-.2.6-.4.9-.4l2-.3c.5,0,1.1,0,1.5.4.3.3.6.7.7,1.1v.5c.2.9-.3,1.8-1.2,2.1Z"/><path class="cls-7" d="M50.9,64.3c0,0-.2,0-.2,0l-2,.3c0,0-.2,0-.3,0,0,0,.2,0,.2,0l2-.3c0,0,.2,0,.3,0Z"/><path class="cls-6" d="M60.2,62.5c-.4.9-.7,1.3-1.5,1.5h-.3c0,0-.1,0-.2,0h-1.7c-.1,0-.3,0-.4,0-1-.2-1.8-1.2-1.7-2.3,0-1.1.9-2,2.2-2.1h0s0,0,0,0c0,0,.1,0,.2,0h1.3c1,.1,1.8.8,2,1.7h0c0,.2,0,.4,0,.6s0,.5,0,.8Z"/><path class="cls-7" d="M56.7,59.5s0,0,0,0t0,0s0,0,0,0c0,0,0,0,0,0Z"/><path class="cls-7" d="M58.1,59.5h-1.3c0,0-.1,0-.2,0,0,0,0,0,0,0t0,0s0,0,0,0h1.5Z"/><path class="cls-7" d="M60.3,62c0,.2,0,.4,0,.6,0-.2,0-.5,0-.8s0-.4,0-.6c0,.2.1.5,0,.8Z"/><path class="cls-4" d="M60.6,57.4c0,1.2-1.1,2.1-2.3,2.1h-1.4c0,0-.2,0-.2,0,0,0,0,0,0,0,0,0,0,0,0,0t0,0h0c-1.1-.2-1.9-1.2-1.8-2.4,0-.6.4-1.2.8-1.6h0c.4-.3.9-.5,1.5-.5h1.5c.3.1.6.2.8.3.8.4,1.4,1.2,1.3,2.2Z"/><path class="cls-7" d="M58.1,59.5h-1.3c0,0-.1,0-.2,0,0,0,0,0,0,0t0,0s0,0,0,0h1.5Z"/><path class="cls-7" d="M48.9,301.9c-.2,0-.5.1-.8.2"/><path class="cls-7" d="M28,312c0,0,0,.2-.1.3"/><path class="cls-7" d="M83.5,299.3c-.3,0-.5-.1-.8-.2"/><path class="cls-3" d="M103.7,306.8c-4.3.4-8.9-.3-12.8-2,3.8-1.3,8.5-.5,12.1,1.4,0,0,0,0,0,0,.2.2.5.3.6.4v.2Z"/><path class="cls-7" d="M90.9,304.8c-.1,0-.3,0-.4.2"/><path class="cls-4" d="M44,308.9c-3.4,2.4-9,4.1-12.7,4.9-2.9.6-4.7.9-7.3,0-3.2-1.1-3.8-5.8-1.5-8.2h0c-.7,1.3-.9,2.8-.2,4.1.3.7.9,1.3,1.6,1.7.7.4,1.5.6,2.2.7.6,0,1.2,0,1.9,0h0c.9-.1,1.9-.4,2.8-.7,4-1.2,7.2-2.3,10.4-4,2.2-1.1,4.3-2.5,6.5-4.4.4-.4.8-.7,1.2-1.1.7-.7,1.3-1.4,1.8-2.2.3-.7.6-1.4.6-2.1,1.1,4.7-3.1,8.4-7.3,11.3Z"/><path class="cls-4" d="M106.6,306.3c-1,.2-2,.4-3,.5v-.2c-.2-.1-.4-.2-.7-.4,0,0,0,0,0,0-3.6-1.9-8.3-2.7-12.1-1.4h0c-3-1.3-5.6-3.1-7.3-5.5,3.6,1.1,7.5,1.2,11.3,1.4,1.5,0,3.3,0,4.2-1.2.6-.8.6-2,.2-3-.4-1-1.1-1.8-1.8-2.6l.3-.6c1.8.9,3.7,1.9,5.5,2.8v.2c-.7.3-.9,1-.9,1.6,0,.6.4,1.2.7,1.7,1.2,2.1,2.4,4.3,3.5,6.4v.3Z"/><path class="cls-4" d="M110.1,309c-1.8,1.4-4.4,1.6-6.7,1.4-5.4-.4-10.1-1-14.9-3.5-2.2-1.1-4.9-3.9-6.3-5.9-1.4-2-2-4.8-.8-6.9h0c.3,1.9,1.1,3.6,2.2,5.1,1.7,2.4,4.3,4.3,7.3,5.5h0c3.9,1.7,8.5,2.4,12.8,2,1-.1,2-.3,3-.5,0,0,0,0,0,0,1.8-.4,3.9-1.5,4.3-3.2,1.5,1.6.8,4.6-.9,5.9Z"/></svg>