<?xml version="1.0" encoding="UTF-8"?><svg id="latinAmerica" xmlns="http://www.w3.org/2000/svg" width="235" height="321.9" viewBox="0 0 235 321.9"><defs><style>.cls-1{stroke-linecap:round;stroke-linejoin:round;}.cls-1,.cls-2{fill:none;stroke:#000;}.cls-2{stroke-miterlimit:10;}.cls-3,.cls-4,.cls-5,.cls-6,.cls-7,.cls-8,.cls-9,.cls-10,.cls-11{stroke-width:0px;}.cls-4{fill:#634e3f;}.cls-5{fill:#948675;}.cls-6{fill:#302b28;}.cls-7{fill:#dc6443;}.cls-8{fill:#8b7461;}.cls-9{fill:#fff;}.cls-10{fill:#e9d8c7;}.cls-11{fill:#ffcf69;}</style></defs><path class="cls-4" d="M217.9,207.4c3,1.2,3.5,5.1,1.9,7.9-1.6,2.8-4.7,4.6-7.7,6.1-9.2,4.6-19.1,7.8-29,11-1.2.4-2.5.8-3.6.3h-.3c-.4-.3-.6-.8-.9-1.3-1.6-3.2-2.9-6.6-3.7-10.1,0,0,0-.2,0-.2,1,3.7,11-6.4,10.4-7.7-.7-1.2-1.1-2.1-1.1-3.5.4,0,.7,0,1.1,0h0c8.9-.8,19.7-1.9,28.4-2.6,1.6-.1,3.2-.3,4.6.3Z"/><path class="cls-8" d="M184.9,213.4c.7,1.2-9.4,11.4-10.4,7.7,0,0,0,.2,0,.2h-.2c-16.4-6.4-25.1-3.1-32.8-6.9,1.3-5.4,4.4-11.8,6.5-16.3,11.8,4.1,22.5,7.3,35.6,11.8,0,1.4.5,2.3,1.1,3.5Z"/><path class="cls-5" d="M58.9,183.2c0-1.2,0-2.5.1-3.8,1.5-9.3,15.6-6.2,32.4-2.7,8.3,1.7,10.6,3.7,14.7,4.6.3,0,.5.1.8.2,11.9,3.5,43,12.8,42.4,14.1-.3.7-.7,1.5-1.1,2.4-2.1,4.5-5.2,10.9-6.5,16.3-.2.8-.3,1.5-.4,2.3,0,.7-14.2-1.9-29.6-5-14.6-2.9-30.4-6.2-36.1-7.3-2.3-.5-4.1-1.1-5.2-1.5-4.7-2.3-11.1-8.4-11.4-19.5ZM100.3,205.1c5.3.6,10.6,1.1,16,1.5,1.6.1,3.3.2,4.6-.7,1-.7,1.3-1.8,1.6-2.9.8-3.3,1.7-6.6,2.5-9.8.2-.7.3-1.4,0-2-.4-.7-1.3-1.2-2.2-1.5-4.5-1.8-11.9-4.6-18.8-5.5h0c-7.1-1-13.6,0-15.8,5.9-.9,2.4-1.1,5-1.1,7.5,0,1.5,0,3,.9,4.3,1.4,1.8,4.3,2.3,6.8,2.6,1.8.2,3.7.5,5.6.7Z"/><path class="cls-8" d="M101.4,112.7s0,0,0,.1c-2.2,4.1-7.2,6.4-11.7,5.6-4.6-.9-8.4-4.9-8.9-9.5.2-.4.3-1.1.5-1.8v-.3c.5-2.8.6-7.2.4-11h-.2c-5.6-5.1-7-11.1-7.3-18.7-.4-9.1,6.1-24.3,18.5-27.5,20.7-5.2,35.4,7,37.7,14.4.7,2.4,1.9,6,1.2,10.4-.8,4.8-1,4.7-2.2,8.1-1.4,4.4-2.1,4.5-2.8,6.9-.6,2-.9,12-8.7,20.4,0,0-4,4.3-8.1,5-1,.1-3.7-.4-6.9-1.6-.5-.2-.9-.4-1.3-.6ZM103.2,99.1l-.2.2c1.1,5.9,10.4,8.8,11.9,4.6-4.6-.5-7.7-2.2-11.7-4.9ZM127.4,80.5c.4-.2.5-.7.3-1.1s-.7-.9-1-1.2c-1.2-1.8-3.5-2.5-5-1.5-.5,0-1.3,1-1.1,1.4.2.5.7.8,1.2.9.5.1,1,0,1.6.1.9,0,1.8.4,2.6.9.4.3.9.6,1.3.4ZM124.2,88.3c.4-1.8.1-3.4-.7-3.5s-1.8,1.2-2.2,3c-.4,1.8-.1,3.4.7,3.5s1.8-1.2,2.2-3ZM112.9,74.9c0-.4-.5-1.2-.9-1.1-1.3-1.8-4.9-2.5-8.7-1.4-.9.3-.6.2-1.4.6-.2,0-.4.2-.5.4-.1.4.4.7.9.7,1.1.2,2.2.4,3.2.6,1.7.3,3.5.6,5.2,1,.4,0,.9.2,1.3,0s.8-.4.9-.8ZM106.3,84.4c.4-1.7,0-3.2-.9-3.3-.9-.2-2,1-2.4,2.7-.4,1.7,0,3.2.9,3.4.9.2,2-1,2.4-2.7Z"/><path class="cls-4" d="M130.6,298.7c16.4,7.2,1,14.7-6.8,13.9-10.7-1.2-23.5-2.4-35.2-4.5-1.3-.2-2.6-1-3.1-2.1-.4-.8-.2-1.8,0-2.6.8-3.8,1.4-9.2,3.1-12.6.2.5.5,1,.9,1.5,1.7,1.8,4.9,3.2,6.9,2.4,1.4-.6,2.3-1.9,3.1-3.2.8-1.3,1.5-2.6,2.8-3.4,1.3-.8,2.4-.9,3.4.3h.1c7.8,4.2,15,6.2,24.8,10.5Z"/><path class="cls-6" d="M127.6,79.4c.2.4,0,.9-.3,1.1-.4.2-.9-.2-1.3-.4-.8-.5-1.7-.9-2.6-.9-.5,0-1.1,0-1.6-.1-.5-.1-1-.4-1.2-.9-.2-.5.5-1.4,1.1-1.4,1.5-1,3.8-.3,5,1.5.2.3.8.8,1,1.2Z"/><path class="cls-5" d="M125,191.2c.3.6.2,1.3,0,2-.8,3.3-1.7,6.6-2.5,9.8-.3,1.1-.6,2.2-1.6,2.9-1.2.8-3,.8-4.6.7-5.3-.4-10.7-.9-16-1.5-.9-6.7.9-13.9,3.5-20.1v-.8c7,.9,14.4,3.7,18.9,5.5.9.3,1.8.8,2.2,1.5Z"/><path class="cls-3" d="M123.5,84.8c.8.2,1.1,1.7.7,3.5-.4,1.8-1.4,3.1-2.2,3s-1.1-1.7-.7-3.5c.4-1.8,1.4-3.1,2.2-3Z"/><path class="cls-7" d="M115.6,121.5c4.3,10,5.9,27.4,5.4,27.9-.2.2-.7.1-1.5-.1-2.6-.8-7.9-3.4-12.6-3.1h0c-1.1,0-2.1.3-3,.6-.3-2.7-.9-5.6-1-10.2-.1-5.5-1.1-9.9.5-14.6h.1c.3-.7.8-1.5,1.4-2.2,1.6-1.8,3.9-3.1,5.1-3,2.6,1.4,4.8,3,5.5,4.7Z"/><path class="cls-8" d="M105.1,159.5c-7.9,1.2-14-.5-25-1.7-2.7.9-12.4,1.2-13.4-1.3-.9-2.1,2.8-12.6,5.7-13.9,2.7-1.2,12.6,3.7,12.7,6.6h0c9-1.6,10.3-.1,21.6-3h0c4.7-.2,10,2.3,12.6,3.1,0,2.1-.4,3.2-1.2,4.8-1,2-2.2,2.1-3.1,2.7-3.8,1.4-7,2.2-10,2.7Z"/><path class="cls-5" d="M118,233.5c.5,9-3,15.8-3.2,20.4-1.2.2-2.3.4-3.3.5-7.2,1.1-10.6,1.2-19.6.3-.8,0-1.7-.2-2.6-.3,0-6,3.4-12.4,1.4-21-2.5-10.8-10.6-20.4-15.2-29.2,5.7,1.1,21.5,4.4,36.1,7.3h0c1.3,4.6,6,15.1,6.4,21.9Z"/><path class="cls-6" d="M111.9,73.8c.4-.1,1,.7.9,1.1,0,.4-.5.7-.9.8s-.9,0-1.3,0c-1.7-.3-3.5-.6-5.2-1-1.1-.2-2.2-.4-3.2-.6-.4,0-1-.3-.9-.7,0-.2.3-.3.5-.4.8-.4.5-.4,1.4-.6,3.8-1.1,7.5-.4,8.7,1.4Z"/><path class="cls-9" d="M114.9,103.9c-1.5,4.2-10.7,1.3-11.9-4.6l.2-.2c4,2.6,7.1,4.4,11.7,4.9Z"/><path class="cls-8" d="M111.4,254.4v.3c-2.8,9.8-5.7,23.6-9.4,33l.3.2c-1.3.8-2,2.2-2.8,3.4-.8,1.3-1.7,2.6-3.1,3.2-1.9.8-5.2-.5-6.9-2.4-.3-10-1.1-28,2.3-37.4,9,.9,12.4.8,19.6-.3Z"/><path class="cls-7" d="M110,116.8c-1.2-.2-3.5,1.2-5.1,3h-.3c-.7-.7-1.6-1.1-2.5-1.3.8-1.4,1.2-2.9,1.4-4.7h0c1.9.7,4.3,1.8,6.5,3Z"/><path class="cls-3" d="M105.3,81.1c.9.2,1.3,1.7.9,3.3-.4,1.7-1.5,2.9-2.4,2.7-.9-.2-1.3-1.7-.9-3.4.4-1.7,1.5-2.9,2.4-2.7Z"/><path class="cls-11" d="M106.1,181.3c.2,0,.5.2.8.2-.3,0-.5-.1-.8-.2h0Z"/><path class="cls-10" d="M106.1,181.3h0c-4.1-.9-6.4-2.9-14.7-4.6-16.8-3.5-30.8-6.6-32.4,2.7-.1,1.3-.2,2.6-.1,3.8-2.9-10.7-.4-21.1,1.7-39.1.3-2.5.6-5.1.8-7.9,1.3-14.1,3.7-22.1,9-26.1,2.8,0,5.7.2,8.4.8h0c-.6,2-.7,4.2,0,6.3.6,1.7,1.6,3.1,2.9,4.1l-.2.2c-.5,3.2,0,6.6,1.6,9.5,1.7-2.3,3.7-4.4,5.8-6.3v-.6c3.2.4,6.5.2,9.1-1.5,1.8-1.1,3.1-2.5,4-4.2.9.2,1.8.6,2.5,1.2h.3c-.6.8-1.1,1.5-1.4,2.3h-.1c-1.7,4.7-.7,9-.5,14.6,0,4.7.7,7.5,1,10.2,1-.4,2-.6,3-.6-11.4,2.9-12.6,1.4-21.6,3.1h0c-.1-3-10-7.9-12.7-6.7-2.9,1.3-6.6,11.8-5.7,13.9,1,2.5,10.7,2.2,13.4,1.3,11,1.1,17.1,2.8,25,1.7-.8,2.9.8,17.1,1,21.8Z"/><path class="cls-5" d="M104,184.2h0s-.1.8-.1.8c-2.6,6.3-4.5,13.4-3.5,20.1-1.9-.2-3.7-.4-5.6-.7-2.6-.3-5.4-.9-6.8-2.6-1-1.2-.9-2.8-.9-4.3,0-2.5.2-5.1,1.1-7.5,2.2-5.9,8.7-6.9,15.8-5.9Z"/><path class="cls-7" d="M102.1,118.5c-.9,1.7-2.2,3.1-4,4.2-2.6,1.7-5.9,1.9-9,1.5-.7,0-1.4-.2-2.1-.4-2-.4-3.8-1.2-5.2-2.5-1.3-1.1-2.3-2.4-2.9-4.1-.7-2-.6-4.3,0-6.3.5-1.5,1.3-2.9,2.2-4h0c-.1.8-.3,1.4-.5,1.8.5,4.6,4.3,8.7,8.9,9.5,4.6.9,9.6-1.5,11.7-5.6.5.2.9.3,1.3.5.3.1.6.3.9.4h0c-.2,1.9-.6,3.4-1.4,4.8Z"/><path class="cls-7" d="M101.4,112.7c.4.2.8.4,1.3.6-.4-.2-.9-.3-1.3-.5,0,0,0,0,0-.1Z"/><path class="cls-7" d="M89.1,124.2v.6c-2.3,1.9-4.2,4-5.9,6.3-1.6-2.9-2.2-6.3-1.6-9.5l.2-.2c1.4,1.2,3.3,2,5.2,2.5.7.2,1.4.3,2.1.4Z"/><path class="cls-7" d="M81,106.7h.2c0,.1,0,.2,0,.3h0c-1,1.1-1.8,2.5-2.2,4h0c-2.8-.6-5.6-.9-8.4-.9,2.3-1.8,5.2-2.8,8.8-3.2v-.4c.6,0,1.2,0,1.8.2Z"/><path class="cls-7" d="M60,131.6c-4.7,4.1-10.3,9.1-12.8,10.8-.5-.3-1.1-.6-1.6-1-3.5-2.9-5.6-8.6-6.2-11.6-.2-.9-.3-1.6-.2-1.8.1-1,11.7-11.9,12.4-12.5,4.2-3.6,7.2-6.4,12.8-7.5,1.7-.3,9-1.7,14.7-1.4v.4c-3.6.4-6.5,1.5-8.8,3.2-5.3,4-7.7,12-9,26.1-.3,2.8-.5,5.4-.8,7.9h-.3c0-5,.2-8.6-.3-12.6Z"/><path class="cls-8" d="M28.5,166.6h0c2.4.7,4.8,9.1,3.2,11-1.7,2-11.5,2.8-13.2,1.8-2-1.3.2-8.6,1.5-10.4,2.7-11.6,5.9-21.5,13.1-31.2,3.3-4.4,3.9-5.4,6.2-7.9.6,3,2.6,8.7,6.2,11.6-2.1,1.4-1.8,1.3-3.9,2.8-4.7,8.1-9.7,15.6-13.3,22.4Z"/><path class="cls-1" d="M60.2,131.4c0,0-.1.1-.2.2-4.7,4.1-10.3,9.1-12.8,10.8-.5-.3-1.1-.6-1.6-1-3.5-2.9-5.6-8.6-6.2-11.6-.2-.9-.3-1.6-.2-1.8.1-1,11.7-11.9,12.4-12.5,4.2-3.6,7.2-6.4,12.8-7.5,1.7-.3,9-1.7,14.7-1.4.6,0,1.2,0,1.8.2"/><path class="cls-1" d="M39.5,129.8c-2.3,2.5-3,3.5-6.2,7.9-7.3,9.8-10.4,19.6-13.1,31.2"/><path class="cls-1" d="M45.7,141.4c-2.1,1.4-1.8,1.3-3.9,2.8-4.7,8.1-9.7,15.6-13.3,22.4,0,.2-.2.3-.3.5"/><path class="cls-1" d="M28.6,166.7c2.4.6,4.8,9.1,3.2,10.9-1.7,2-11.5,2.8-13.2,1.8-2-1.3.2-8.6,1.5-10.4"/><path class="cls-1" d="M106.9,146.2c4.7-.2,10,2.3,12.6,3.1.8.2,1.3.3,1.5.1.5-.5-1.2-17.9-5.4-27.9-.7-1.7-3-3.3-5.5-4.7-2.2-1.2-4.6-2.3-6.5-3.1-.3-.2-.6-.3-.9-.4-.5-.2-.9-.4-1.3-.6h0"/><path class="cls-1" d="M102.8,136.6c0,4.7.7,7.5,1,10.2,1-.4,2-.6,3-.6"/><path class="cls-1" d="M115.1,156.8c-3.8,1.4-7,2.2-10,2.7-7.9,1.2-14-.5-25-1.7"/><path class="cls-1" d="M106.9,146.2h0c-11.4,2.9-12.6,1.4-21.6,3.1-.2,0-.5,0-.7.1"/><path class="cls-1" d="M85.2,149.2c-.1-2.9-10-7.8-12.7-6.6-2.9,1.3-6.6,11.8-5.7,13.9,1,2.5,10.7,2.2,13.4,1.3"/><path class="cls-1" d="M119.5,149.3c0,2.1-.4,3.2-1.2,4.8-1,2-2.2,2.1-3.1,2.7"/><path class="cls-1" d="M79.2,106.9c-3.6.4-6.5,1.5-8.8,3.2-5.3,4-7.7,12-9,26.1-.3,2.8-.5,5.4-.8,7.9-2.1,18-4.7,28.4-1.7,39.1,0,.3.2.6.3.9"/><path class="cls-1" d="M105.1,159.4s0,0,0,0c-.8,2.9.8,17.1,1,21.8h0"/><path class="cls-1" d="M58.9,125.3c.6,2.3.9,4.3,1.1,6.2.5,4,.4,7.6.3,12.6"/><path class="cls-1" d="M75.5,204.3c5.7,1.1,21.5,4.4,36.1,7.3,15.4,3.1,29.5,5.7,29.6,5,.1-.7.2-1.5.4-2.3,1.3-5.4,4.4-11.8,6.5-16.3.4-.9.8-1.7,1.1-2.4.6-1.4-30.5-10.6-42.4-14.1-.3,0-.5-.2-.8-.2-1.7-.5-2.8-.8-3.4-1"/><path class="cls-1" d="M70.3,202.8c1.2.4,3,.9,5.2,1.5"/><path class="cls-1" d="M75.5,204.3c4.6,8.8,12.7,18.5,15.2,29.2,2,8.6-1.4,15-1.4,21,.9,0,1.8.2,2.6.3,9,.9,12.4.8,19.6-.3,1-.2,2.1-.3,3.3-.5.2-4.6,3.8-11.3,3.2-20.4-.4-6.8-5.1-17.4-6.4-21.9"/><path class="cls-1" d="M111.4,254.7c-2.8,9.8-5.7,23.6-9.4,33"/><path class="cls-1" d="M91.8,254.7c-3.4,9.4-2.5,27.4-2.3,37.4"/><path class="cls-1" d="M88.6,290.7c.2.5.5,1,.9,1.5,1.7,1.8,4.9,3.2,6.9,2.4,1.4-.6,2.3-1.9,3.1-3.2.8-1.3,1.5-2.6,2.8-3.4,1.3-.8,2.4-.9,3.4.3"/><path class="cls-1" d="M88.6,290.7c-1.8,3.5-2.3,8.8-3.1,12.6-.2.9-.4,1.8,0,2.6.5,1.1,1.8,1.9,3.1,2.1,11.7,2.1,24.4,3.3,35.2,4.5,7.8.9,23.2-6.7,6.8-13.9-9.8-4.3-17-6.3-24.8-10.5"/><path class="cls-1" d="M59,179.4c-.1,1.3-.2,2.6-.1,3.8.3,11.1,6.6,17.3,11.4,19.5"/><path class="cls-1" d="M141.6,214.3c7.7,3.8,16.4.6,32.8,7"/><path class="cls-1" d="M183.8,209.9c-13.2-4.6-23.8-7.7-35.6-11.8"/><path class="cls-1" d="M183.7,209.3s0,0,0,0c0,0,.3.6,1.1.5"/><path class="cls-1" d="M174.5,221c1,3.7,11-6.4,10.4-7.7-.7-1.2-1.1-2.1-1.1-3.5,0-.4,0-.5,0-.6"/><path class="cls-1" d="M179.5,232.7c1.1.5,2.4.1,3.6-.3,9.8-3.2,19.7-6.4,29-11,3-1.5,6.1-3.3,7.7-6.1,1.6-2.8,1.1-6.7-1.9-7.9-1.4-.6-3.1-.4-4.6-.3-8.7.7-19.5,1.9-28.4,2.6h0c-.4,0-.7,0-1.1,0"/><path class="cls-1" d="M174.5,221c0,0,0,.2,0,.2.8,3.5,2,6.9,3.7,10.1.2.5.5,1,.9,1.4.2.2.5.4.8.6"/><path class="cls-1" d="M107.5,181.6c-.2,0-.4,0-.6-.1-.3,0-.5-.1-.8-.2-4.1-.9-6.4-2.9-14.7-4.6-16.8-3.5-30.8-6.6-32.4,2.7"/><path class="cls-2" d="M103.4,122c-1.7,4.7-.7,9.1-.5,14.6"/><path class="cls-2" d="M110.3,116.9c0,0-.2,0-.2,0-1.2-.2-3.5,1.2-5.1,3-.6.7-1.1,1.4-1.4,2.2"/><path class="cls-1" d="M81.1,107c-1,1.1-1.8,2.5-2.2,4-.6,2-.7,4.2,0,6.3.6,1.7,1.6,3.1,2.9,4.1,1.4,1.2,3.3,2,5.2,2.5.7.2,1.4.3,2.1.4,3.1.4,6.4.2,9-1.5,1.8-1.1,3.1-2.5,4-4.2.8-1.4,1.2-2.9,1.4-4.7"/><path class="cls-2" d="M104,184.2c-7.1-1-13.6,0-15.8,5.9-.9,2.4-1.1,5-1.1,7.5,0,1.5,0,3,.9,4.3,1.4,1.8,4.3,2.3,6.8,2.6,1.8.2,3.7.5,5.6.7,5.3.6,10.6,1.1,16,1.5,1.6.1,3.3.2,4.6-.7,1-.7,1.3-1.8,1.6-2.9.8-3.3,1.7-6.6,2.5-9.8.2-.7.3-1.4,0-2-.4-.7-1.3-1.2-2.2-1.5-4.5-1.8-11.9-4.6-18.8-5.5h0Z"/><path class="cls-2" d="M103.9,185c-2.6,6.3-4.5,13.4-3.5,20.1,0,.2,0,.3,0,.5"/><path class="cls-1" d="M70,110.2c.1,0,.3,0,.4,0,2.8,0,5.7.2,8.4.8"/><path class="cls-1" d="M101.7,118.5c.1,0,.3,0,.4,0,.9.2,1.8.6,2.5,1.2"/><path class="cls-1" d="M80.7,108.8s0,0,0,0c.5,4.6,4.3,8.7,8.9,9.5,4.6.9,9.6-1.5,11.7-5.6,0,0,0,0,0-.1,0,0,0,0,0,0"/><path class="cls-2" d="M81.5,121.6c-.5,3.2,0,6.6,1.6,9.5,1.7-2.3,3.7-4.4,5.8-6.3"/><path class="cls-1" d="M129.3,82.6c-1.4,4.4-2.1,4.5-2.8,6.9-.6,2-.9,12-8.7,20.4,0,0-4,4.3-8.1,5-1,.1-3.7-.4-6.9-1.6-.4-.2-.9-.3-1.3-.5-5.2-2.1-11.5-5.8-14.6-11.2"/><path class="cls-1" d="M126.7,78.2c-1.2-1.8-3.5-2.5-5-1.5-.5,0-1.3,1-1.1,1.4.2.5.7.8,1.2.9.5.1,1,0,1.6.1.9,0,1.8.4,2.6.9.4.3.9.6,1.3.4.4-.2.5-.7.3-1.1s-.7-.9-1-1.2Z"/><path class="cls-1" d="M103.2,72.3c3.8-1.1,7.5-.4,8.7,1.4.4-.1,1,.7.9,1.1,0,.4-.5.7-.9.8s-.9,0-1.3,0c-1.7-.3-3.5-.6-5.2-1-1.1-.2-2.2-.4-3.2-.6-.4,0-1-.3-.9-.7,0-.2.3-.3.5-.4.8-.4.5-.4,1.4-.6Z"/><path class="cls-1" d="M118.5,96.7c-.2,4.2-9.2,1.7-10.4.2"/><path class="cls-1" d="M121.3,87.8c-.4,1.8-.1,3.4.7,3.5s1.8-1.2,2.2-3c.4-1.8.1-3.4-.7-3.5s-1.8,1.2-2.2,3Z"/><path class="cls-1" d="M103,83.7c-.4,1.7,0,3.2.9,3.4.9.2,2-1,2.4-2.7.4-1.7,0-3.2-.9-3.3-.9-.2-2,1-2.4,2.7Z"/><path class="cls-1" d="M114.9,103.9c-4.6-.5-7.7-2.2-11.7-4.9-.3-.2-.6-.4-.9-.6"/><path class="cls-1" d="M114.9,103.9c-1.5,4.2-10.7,1.3-11.9-4.6"/><path class="cls-1" d="M81,90.9c.2,1.3.4,3,.5,4.9.2,3.8.1,8.2-.3,11v.3c-.2.8-.3,1.4-.5,1.8,0,0,0,0,0,0"/><path class="cls-1" d="M129.3,82.6c1.1-3.4,1.4-3.3,2.2-8.1.7-4.4-.4-8.1-1.2-10.4-2.3-7.4-17-19.6-37.7-14.4-12.5,3.1-18.9,18.3-18.5,27.5.3,7.5,1.8,13.5,7.3,18.7"/><path class="cls-1" d="M84.3,89.6c-.6,1.3-2.4,1.3-3.6.7-2.7-1.4-4-4.9-3.6-8.1.2-1.8.9-3.7,2.4-4.6s3.7-.5,4.4,1.1"/></svg>