<?xml version="1.0" encoding="UTF-8"?><svg id="latinAmerica" xmlns="http://www.w3.org/2000/svg" width="235" height="321.9" viewBox="0 0 235 321.9"><defs><style>.cls-1{fill:#4d443e;}.cls-1,.cls-2,.cls-3,.cls-4,.cls-5,.cls-6,.cls-7,.cls-8{stroke:#000;stroke-linecap:round;stroke-linejoin:round;}.cls-2{fill:#444746;}.cls-3{fill:#cb4a80;}.cls-4{fill:#af856a;}.cls-5{fill:#e6ced6;}.cls-6{fill:#fff;}.cls-7{fill:none;}</style></defs><path class="cls-5" d="M130.3,139.2h0c-5.4-2.3-11.7-2.4-17.2-.3,0,1.2.2,2.3.3,3.2.2,1.3.4,2.4.5,3.7l.2.9c-7.4,1.5-11.1,1.1-18.6,2.6h0c-.1-3.2-10-8.4-12.7-7.1-2.9,1.4-6.6,12.5-5.7,14.7,1,2.6,10.7,2.3,13.3,1.4,11,1.2,17,3,24.9,1.8-.8,3.1,1.2,14,1.3,19h0c-4.1-.9-6.4-3-14.7-4.8-16.7-3.6-30.7-7-32.2,2.9-.1,1.4-.2,2.8-.1,4.1-3.3-12-1.1-15.5,1-38.2h0c0-4.8.2-8.4-.3-12.4-4.5,4.2-6.9,5.8-9.3,7.6-.1,0-.3-.2-.4-.2.8-.5,1.5-1,2.2-1.5,1-.7,1.9-1.3,2.7-1.9h0c-4.4-3.5-6.6-9.2-6.7-17.9,1.6-1.6,3-3,3.2-3.3,4.2-3.8,7.2-6.8,12.7-7.9.8-.2,2.9-.5,5.6-.8.6,3.6,1.4,7.2,2.5,10.8,1.4,4.5,4.2,10.9,8.3,13.2.6.3,1.3,0,1.5-.7.3-1.6.1-3.4-.2-5.2,2.4,1.9,5.2,2.7,8.2,2.6,2.4,0,4.7-.8,6.9-1.7,2.2-.9,4.5-2.8,5.7-4.9,1.1-2,1.3-4.5.4-6.5l.9-.3c1.5.7,3.2,1.4,4.9,2.4-.7,4.8-1.7,9.5-1.8,13.8,0,1.4,1.9,1.9,2.5.7,1.5-3,3.1-6.6,4.5-10.4.6.6.8.8,1,1.4,2.5,6.3,4,14.1,4.7,19.4Z"/><path class="cls-3" d="M91.7,104.8c-.3,2-1,4.8-1.6,6.4h-.2c-.3-2-.5-3.9-.6-5.9h0c.2-.4,1.4-.2,2.2-.5h.1Z"/><path class="cls-4" d="M116.6,59.7c-1-.8-10.5,1.5-16.5,7.6-2.4,2.5-5.1,4.1-6.6,8.9h0c-2.2,7.3-3.8,14.6-4.2,21.9.9,1,1.9,1.9,2.8,2.8,9.1,8.9,14.8,10.8,19.2,9.5,0,0,.1,0,.2,0,2.6-.8,4.8-2.7,7-4.9.6-.5,1.1-1,1.6-1.6.8-.8,1.7-2,3-4.1h0c1.2-2,2.8-4.7,3.2-7.2.5-2.6.7-5.2,1-7.9.3-2.1.6-4.2.5-6.3-.3-9.1-4.6-13.3-11.3-18.9ZM101.2,71.5c1.8-.2,7.8.3,6.6,3-.3.6-.9,1-1.7,1.1-.7,0-9.3-.8-9.4-1.2-.6-1.5,3.2-2.7,4.5-2.8ZM104.3,82c-.2,1.7-1,2.9-1.9,2.9-.9-.1-1.4-1.5-1.2-3.2.2-1.7,1-2.9,1.9-2.8.9,0,1.4,1.5,1.2,3.2ZM110.1,102.8c-1.8,0-4.6-.8-6.4-2-2-1.2-2.4-1.9-3.4-4,.9,1.2,10.6,4.6,15.8,2.9-1.5,2.2-3,3-6,3.1ZM122.5,84c-.2,1.7-1,2.9-1.9,2.8-.9,0-1.4-1.5-1.2-3.2.2-1.7,1-2.9,1.9-2.8.9,0,1.4,1.5,1.2,3.2ZM125.9,76.2c-.2.1-6.7.2-7.1.1-1-.1-1.7-.8-1.6-1.5,0-.6.9-1.1,1.8-1.3,1.2-.2,2.4-.2,3.6,0,1.2.1,2.4.6,3.2,1.5.3.4.5,1,.2,1.3Z"/><path class="cls-7" d="M80.5,104.6c0,0-.1,0-.2,0"/><path class="cls-7" d="M70.6,130.3c0,0-.2.2-.3.2"/><path class="cls-4" d="M52.2,143.8c-4.7,8.6-8.2,12.6-11.7,19.7h0c2.4.7,4.7,9.6,3.2,11.6-1.7,2.1-11.5,3-13.1,1.9-2-1.3.2-9.1,1.5-11.1,2.7-12.3,4.3-18.7,11.5-29,3.3-4.7,6.6-9.4,9.8-12.8.4,3.2,2.6,11,7.1,13.8-2.7,1.8-5.7,3.8-8.4,5.9Z"/><path class="cls-7" d="M53.5,124.1h0"/><path class="cls-7" d="M40.4,163.5l-.3.5"/><path class="cls-7" d="M66.7,133.6c-.4.3-.8.6-1.2.9"/><path class="cls-7" d="M111.5,110.4s0,0,0,0"/><path class="cls-7" d="M119.5,114.3s0,0,0,0"/><path class="cls-3" d="M130.6,142.6h-.2c-5.4-2.3-11.6-2.5-17.1-.5-.1-.9-.2-2-.3-3.2,5.5-2.1,11.8-1.9,17.2.3h0c.2,1.3.3,2.5.3,3.4Z"/><path class="cls-5" d="M130.5,145.1c-.2,0-.7-.2-1.2-.3-3.2-.7-10.7-1.7-15.5.9-.1-1.3-.3-2.4-.5-3.7,5.5-2,11.8-1.8,17.1.5h.2c.1,1.6,0,2.6-.1,2.5Z"/><path class="cls-7" d="M124.6,118.3s0,0,0,0"/><path class="cls-7" d="M113,138.8c0-.9-.1-1.9-.1-3.1"/><path class="cls-4" d="M128.3,154.2c-1,2.1-2.2,2.3-3.1,2.9-3.8,1.5-7,2.4-10,2.8-7.9,1.2-14-.5-24.9-1.8-2.7,1-12.3,1.3-13.3-1.4-.9-2.2,2.8-13.3,5.7-14.7,2.7-1.3,12.6,3.9,12.7,7h0c7.5-1.4,11.2-1,18.6-2.5l-.2-.9c4.8-2.6,12.3-1.6,15.5-.9.3,3.4.7,6.2-1,9.5Z"/><path class="cls-7" d="M94.6,149.3c.2,0,.5,0,.7-.1h0"/><path class="cls-7" d="M119.3,145.3c-2,.5-3.7,1-5.3,1.3"/><path class="cls-7" d="M129.3,144.8s0,0,0,0"/><path class="cls-7" d="M69.8,182.1c0-.3-.2-.6-.3-.9h0"/><path class="cls-6" d="M116.1,99.7c-1.5,2.2-3,3-6,3.1-1.8,0-4.6-.8-6.4-2-2-1.2-2.4-1.9-3.4-4,.9,1.2,10.6,4.6,15.8,2.9Z"/><path class="cls-3" d="M113.7,112.1c1,2,.7,4.6-.4,6.5-1.2,2.1-3.5,4-5.7,4.9-2.2.9-4.5,1.6-6.9,1.7-3.1,0-5.8-.7-8.2-2.6h0c-.4-2.5-1.2-5.1-1.6-7.1-.4-1.5-.7-2.9-.9-4.4h.2c.7,5.4,4.6,9.4,8.6,10.2,4.1.9,10.2-1.5,12.8-5.9-.3-2.9-.5-2.5-.3-5,0,0,.1,0,.2,0,.6.3,1.3.7,2.1,1,0,0,.2,0,.3.1h0c.2,0,.4.2.6.3l-.9.3Z"/><path class="cls-3" d="M65.5,134.5c-.8.6-1.7,1.2-2.7,1.9l-.2-.3c-4.6-3.9-6.5-10.1-7-16.2,1-1,2.1-2.2,3.1-3.3,0,8.7,2.3,14.4,6.7,17.8h0Z"/><path class="cls-5" d="M62.8,136.4c-.7.5-1.4,1-2.2,1.5-4.5-2.8-6.7-10.5-7.1-13.8,0-.6-.1-1,0-1.3,0-.3,1-1.5,2.3-2.9.5,6.1,2.3,12.4,7,16.2l.2.3Z"/><path class="cls-7" d="M115.2,159.9s0,0,0,0"/><path class="cls-7" d="M70.6,143c0,.3,0,.5,0,.8"/><path class="cls-7" d="M70.3,130.5c-.2-2-.6-4.2-1.2-6.7"/><path class="cls-2" d="M131.6,184.9c-3.5,3.2-8.5,16.9-6.1,24.1.1.3.2.6.4.9.1.2-.7.3-2.3.1h0c-7-.7-28-4.8-37.5-6.7-2.2-.6-4.1-1.1-5.2-1.6-4.7-2.4-11-8.9-11.3-20.6h0c0-1.3,0-2.7.1-4.1,1.5-9.9,15.5-6.5,32.2-2.9,8.3,1.8,10.5,3.9,14.7,4.9.3,0,.6.1.9.2,0,0,0,0,0,0,6.1,1.9,15.2,4.7,14.2,5.7Z"/><path class="cls-7" d="M113.1,177.9c.8.3,2,.6,3.4,1.1.3,0,.6.2.9.3"/><path class="cls-2" d="M128,232.6c-.4,0-.9.1-1.3.2h-.1c-8.4,1.4-13.4,1.7-22.7.8-1.1-.1-2.3-.2-3.6-.4-1.5-4.5-6.3-19.3-14.2-29.9,9.5,1.9,30.5,6,37.5,6.7v.2c3.1,11.2,3.8,14.3,4.4,22.4Z"/><path class="cls-7" d="M111.7,290c0,0,0,.1,0,.2"/><path class="cls-7" d="M126.8,233.6c0-.1-.1-.3-.2-.4"/><path class="cls-4" d="M121.9,256.7c-2.8,10.3-6.5,23.4-10.2,33.3,3.1,1.7,5.7,3.1,8.2,4.4v.2c.9.4,1,1.8.9,2.9-.4,2.9-1.8,5.7-3.9,7.7,0,0-.5.4-.6.5v.6c-6.5-1.1-12.8-2.8-19-5.1.5-3.2,1.4-6,2.7-9,1.4-12.6-1.1-27.6,2.2-37.4,1.1-3.4,2.4-7.3,2.9-10.8.5-3.6.2-6.4-1.4-9.6v-.6c9.4.9,14.4.6,22.8-.8h.1s.1.8.1.8c2.6,4.9-2.4,13.3-5,23Z"/><path class="cls-7" d="M100.1,292.1c0,.2,0,.5,0,.7"/><path class="cls-7" d="M183.5,220.4s0,0,0,0"/><path class="cls-7" d="M117.9,179.3c-.2,0-.3,0-.5,0"/><path class="cls-7" d="M90.1,111.2c0-.2,0-.3,0-.5"/><path class="cls-7" d="M112.5,126.6c0,2.8.3,5.8.4,9.1"/><path class="cls-7" d="M92.1,100.6c0,.1,0,.2,0,.4"/><path class="cls-7" d="M111.7,290c0,0-.2-.1-.3-.2"/><path class="cls-3" d="M128.1,301.1c-.1,1.3-.9,2.4-1.8,3.3-.8.8-1.8,1.3-2.8,1.9v.9c-.2,0-.4,0-.5,0-2.3-.2-4.5-.5-6.8-.9v-.6c.2,0,.6-.4.7-.5,2.2-2,3.6-4.8,3.9-7.7.1-1.1,0-2.4-1-2.9v-.2c2.4,1.2,4.6,2.4,7,3.7,0,0,0,0,0,0,.9.7,1.3,1.8,1.2,3Z"/><path class="cls-3" d="M137,307.9c-.3.9-1,1.7-2.3,2.4-3,1.5-6.6,1.4-10,1.1-10.4-1.1-14.1-2.3-24.2-4.9-1.2-.3-2.5-.7-3.1-1.8-.4-.8-.3-1.7-.2-2.5,0-.4.1-.7.2-1,6.1,2.3,12.4,4,18.8,5.1,2.2.4,4.5.7,6.8.9.1,0,.3,0,.4,0,4.2.4,8.5.6,12.8.5l.9.2Z"/><path class="cls-4" d="M137,307.9l-.9-.2c-4.3.1-8.5,0-12.8-.5v-.9c1.1-.5,2.1-1.1,2.9-1.9,1-.9,1.7-2,1.8-3.3.1-1.1-.3-2.3-1.2-3,1.7.9,3.4,1.8,5.4,2.9,1.4.8,2.8,1.3,3.7,2.6,1,1.6,1.5,3,1.1,4.3Z"/><path class="cls-7" d="M100.1,291.9c0,0,0,.1,0,.2"/><path class="cls-7" d="M97.3,301.1c0,0-.1,0-.2,0"/><path class="cls-7" d="M123.4,306.3c-.1,0-.3.1-.4.2"/><path class="cls-7" d="M126.9,298.1c-.1-.1-.3-.2-.5-.3"/><path class="cls-7" d="M55.7,119.9s0,0,0,0"/><path class="cls-7" d="M58.8,116.6h0"/><path class="cls-7" d="M113.3,142s0,0-.1,0"/><path class="cls-7" d="M113,138.8h0"/><path class="cls-4" d="M111.5,115.5c-2.7,4.3-8.8,6.8-12.8,5.9-4-.9-7.9-4.8-8.6-10.2.6-1.5,1.3-4.4,1.6-6.4.2-1.4.3-2.7.3-3.8,9.1,8.9,14.8,10.8,19.2,9.5-.3,2.5,0,2.1.3,5Z"/><path class="cls-7" d="M113.7,112.1c0-.1-.1-.2-.2-.4"/><line class="cls-7" x1="92.5" y1="122.7" x2="92.4" y2="122.7"/><circle class="cls-3" cx="107.3" cy="202.3" r="1.9"/><circle class="cls-3" cx="100.3" cy="213" r="1.7"/><circle class="cls-3" cx="112.9" cy="216.1" r="2.1"/><circle class="cls-3" cx="104.2" cy="227.8" r="1.7"/><circle class="cls-3" cx="114.4" cy="227.7" r="1.8"/><circle class="cls-3" cx="121.8" cy="218.8" r="1.7"/><circle class="cls-3" cx="96.3" cy="199.7" r="1.7"/><circle class="cls-3" cx="77.1" cy="177.2" r="2"/><circle class="cls-3" cx="89.9" cy="180.3" r="1.8"/><circle class="cls-3" cx="82.1" cy="188.6" r="2"/><circle class="cls-3" cx="103.8" cy="188.7" r="1.9"/><circle class="cls-3" cx="102.5" cy="179.5" r="1.8"/><circle class="cls-3" cx="118.9" cy="186.3" r="1.8"/><circle class="cls-3" cx="116.5" cy="197.6" r="2"/><circle class="cls-3" cx="83.4" cy="197.9" r="1.7"/><circle class="cls-3" cx="121.2" cy="205.7" r="1.8"/><line class="cls-7" x1="89.3" y1="98.2" x2="89.3" y2="98.2"/><path class="cls-8" d="M104.3,82c-.2,1.7-1,2.9-1.9,2.9-.9-.1-1.4-1.5-1.2-3.2.2-1.7,1-2.9,1.9-2.8.9,0,1.4,1.5,1.2,3.2Z"/><path class="cls-7" d="M116.4,93.9c-3.3,2.1-3.4,1.7-7.4,1.1"/><path class="cls-1" d="M119.4,114.3c-1.7-1-3.4-1.7-4.9-2.4-.2-.1-.4-.2-.6-.3h0c0,0-.2,0-.3-.1-.8-.4-1.5-.7-2.1-1,2.6-.8,4.8-2.7,7-4.9.6-.5,1.1-1,1.6-1.6h0c.2,3.4-.2,6.8-.7,10.2Z"/><path class="cls-1" d="M92,101c0,1.1-.1,2.4-.3,3.8h-.1c-.8.3-2,0-2.2.5h0c-.1-2.4-.1-4.7,0-7.1.9,1,1.9,1.9,2.8,2.8Z"/><path class="cls-1" d="M132.9,85.1c-.9,5.3-2.1,10.7-3.3,15.9-1.2,5.7-3,11.8-5.1,17.4-1.4,3.8-2.9,7.4-4.5,10.4-.7,1.3-2.6.7-2.5-.7.2-4.3,1.1-9,1.8-13.8.5-3.4.9-6.9.7-10.2h0c.8-.9,1.7-2,3-4.1h0c1.2-2,2.8-4.7,3.2-7.2.5-2.6.7-5.2,1-7.9.3-2.1.6-4.2.5-6.3-.3-9.1-4.6-13.3-11.3-18.9-1-.8-10.5,1.5-16.5,7.6-2.4,2.5-5.1,4.1-6.6,8.9h0c-2.2,7.3-3.8,14.6-4.2,21.9-.1,2.4-.1,4.7,0,7.1.1,2,.3,4,.6,5.9.2,1.5.5,2.9.9,4.4.5,2,1.2,4.5,1.6,7.1h0c.3,1.9.4,3.7.2,5.3-.1.7-.9,1-1.5.7-4.2-2.3-7-8.7-8.3-13.2-1.1-3.6-1.9-7.1-2.5-10.8-1.5-8.8-1.5-17.6-.3-26.5,1.3-9.5,3.4-20.1,12.5-25.6,7.6-4.6,21.3-4.9,24.7-2.6h0c8.7,4.3,12,10,14.6,17.3,1.8,5.1,2.1,12.6,1.2,17.9Z"/><path class="cls-7" d="M117.2,50h0"/><path class="cls-1" d="M107.8,74.5c-.3.6-.9,1-1.7,1.1-.7,0-9.3-.8-9.4-1.2-.6-1.5,3.2-2.7,4.5-2.8,1.8-.2,7.8.3,6.6,3Z"/><path class="cls-1" d="M125.9,76.2c-.2.1-6.7.2-7.1.1-1-.1-1.7-.8-1.6-1.5,0-.6.9-1.1,1.8-1.3,1.2-.2,2.4-.2,3.6,0,1.2.1,2.4.6,3.2,1.5.3.4.5,1,.2,1.3Z"/><path class="cls-8" d="M122.5,84c-.2,1.7-1,2.9-1.9,2.8-.9,0-1.4-1.5-1.2-3.2.2-1.7,1-2.9,1.9-2.8.9,0,1.4,1.5,1.2,3.2Z"/><path class="cls-4" d="M205,220.8l.3.6c-6.1,2.9-12.6,5.2-19.1,6.8-1.2-2.6-2.1-5.1-2.7-7.9-20.2-8.4-26,0-38.2-11.1-10.9-2-12.2.2-19.8-.2-2.5-7.2,2.6-20.9,6.1-24.1,9.2,3.8,8.5,2.3,19.9,9.3,15,5.5,25,10.4,40,16h0c3.8-.4,6.9-.7,9.9-1.1v.2c1.1-.2,2.1.9,2.6,1.9,1.4,2.7,1.9,5.9,1.2,8.9,0,.1-.2.6-.2.7Z"/><path class="cls-7" d="M191.5,210.2h0"/><path class="cls-3" d="M212.8,213.8c-.3,1.3-.9,2.5-1.5,3.7l.3.6c-2.1,1.1-4.2,2.2-6.3,3.2l-.3-.6c0-.1.2-.6.2-.7.7-3,.2-6.2-1.2-8.9-.5-1-1.5-2.1-2.6-1.9v-.2c2.7-.3,5.2-.6,8.1-1h0s0,0,0,0c1.1,0,2.2.8,2.8,1.8.7,1.2.7,2.6.4,3.9Z"/><path class="cls-4" d="M224.1,210.6h0s-.9.2-.9.2c-3.7,2.7-7.6,5.2-11.6,7.4l-.3-.6c.6-1.2,1.2-2.4,1.5-3.7.3-1.3.2-2.8-.4-3.9-.6-1-1.6-1.8-2.8-1.8,2-.2,4-.5,6.3-.7,1.6-.2,3.2-.5,4.7,0,1.8.7,3.1,1.7,3.5,3,0,0,0,0,0,.1Z"/><path class="cls-3" d="M223.5,213.8c-1.6,3.1-4.8,5.1-7.9,6.9-9.5,5.3-13.4,6.4-23.5,10.2-1.2.4-2.6.9-3.7.4-.8-.4-1.3-1.2-1.7-2-.2-.3-.3-.7-.5-1,6.6-1.7,13-4,19.1-6.8,2.1-1,4.2-2.1,6.3-3.2,4-2.2,7.9-4.7,11.6-7.4l.9-.2c.2.9,0,2-.6,3.2Z"/><path class="cls-7" d="M183.5,220.3c-.1-.5-.2-1.1-.4-1.6"/><path class="cls-7" d="M186.2,228.2c0,0-.1,0-.2,0"/><path class="cls-7" d="M209,208.1c.2,0,.4,0,.5,0"/></svg>