<?xml version="1.0" encoding="UTF-8"?><svg id="latinAmerica" xmlns="http://www.w3.org/2000/svg" width="235" height="321.9" viewBox="0 0 235 321.9"><defs><style>.cls-1{fill:#423b38;}.cls-1,.cls-2,.cls-3,.cls-4,.cls-5,.cls-6,.cls-7,.cls-8,.cls-9,.cls-10,.cls-11{stroke-linecap:round;stroke-linejoin:round;}.cls-1,.cls-2,.cls-4,.cls-5,.cls-6,.cls-8,.cls-10,.cls-11{stroke:#000;}.cls-2,.cls-3{fill:#6f80a3;}.cls-3,.cls-7,.cls-9{stroke:#231f20;}.cls-4{fill:#a37c66;}.cls-5{fill:#92a4c9;}.cls-6{fill:#7396ce;}.cls-7{fill:#d16a71;}.cls-8{fill:#fff;}.cls-9,.cls-10{fill:none;}</style></defs><path class="cls-10" d="M89.4,85.9s0,0,0-.1"/><path class="cls-7" d="M102.4,92.4h0c-2.6,1.6-3.6,4.9-4.2,7.8-.6,3-.6,4.4-.7,7.4,0,2.6,0,4.8.4,7.4.4,2.6,1.1,4.8,3,6.5h.2c-.5,2.5-.9,2.8-1.5,6.4-.7,4.1-1.6,6.7-1.5,12.2h0c-3.3,1.4-6.4,2.5-10.7,4.8h0c-1-3.1-12.5-5.5-14.9-3.4-2.5,2.3-3,14.6-1.4,16.6.3.4.8.6,1.5.8,0,0,.2,0,.3,0,3.5.4,10.2-1.9,12.1-3.3,5.5-1,9.9-1.9,13.9-3.1.5,2.6,1.2,4.5,2,7.9h0c0,.1,0,.2,0,.4-2.9.1-5.4,1.6-8.4,2-2.7.3-5.7.2-8.6,0-.4,0-.8,0-1.1,0-1.2,0-2.4-.1-3.6-.2-1.8-.4-4.2-.9-6.8-1.2h0c0,0-.2,0-.3,0-5.6-.8-12-1.2-15.7.2h-.1c.8-7.3,2-18.9,2-20.3.2-3.8-.5-10-.9-14.6-.8-3.6-1.3-7.4-1.5-11.2h.2c.3-8.1,1.9-18,4-25.8h0c1.4-.4,3.3-.7,5-1-1.2,10,1,22,6.6,30.6h0c-1,.6-2.1,1.1-3.1,1.6.8,1.1,1.6,2.2,2.3,3.4,1.2-.4,2.6-.7,3.8-1.2,0,0,0,0,.1,0,6-2.3,12.1-9.7,15.2-15.2,3.1-5.6,4-11.6,5-17.9l.5-.5c.4,0,.8.1,1.1.1,1.9.5,4,1.6,5.9,3Z"/><path class="cls-9" d="M98.9,152.4c0-.1,0-.2,0-.4"/><path class="cls-3" d="M89.9,180.5c-1.3,6.2-1.5,12.5,1.7,17.9h0c-1.1-.1-2.2-.2-3.3-.4h0c-1.2-.3-2.4-.5-3.6-.8-8-1.7-15.8-3.5-21.7-9.1-5.3-5-6.9-11.6-7.3-21,0-.5.3-2.7.7-5.7h.1c3.8-1.3,10.2-1,15.7-.2,0,0,.2,0,.3,0h.4c.2,0,.4.1.5.1.1,0,.2,0,.4,0,.3,0,.6.1,1,.2.2,0,.5,0,.8.1.2,0,.4,0,.6.1.8.2,1.6.3,2.3.5.3,0,.6.1.8.2,1.2,0,2.4.1,3.6.2.4,0,.7,0,1.1,0,4.8.4,10.4,1.5,16.3,3.1-5.1,3.7-9.1,8.6-10.4,14.7Z"/><path class="cls-9" d="M100.2,103.3h0"/><path class="cls-2" d="M159.6,189.8c-.5,3.8-4.8,11-8.3,15.9-.9,1.2-1.7,2.3-2.4,3.2-8.4-3.5-9.8-3-13.6-4.5-2.1-.9-3-1.1-8.3-1.9-1.4-.2-3.6-.4-6.3-.7-.1,0-.3,0-.4,0h.4c-1.6-5.7-1.6-10.2-.1-15.8.5-1.9,2.3-5.1,3.6-6.7,1.2-1.5,3.5-3.2,5.4-3.2v-.3c10.2,3.9,18.1,7.4,20.3,8.1,4,1.3,5.6,2.3,8.9,3.5.8.3,1,1.1.8,2.4Z"/><path class="cls-5" d="M129.6,175.8v.3c-2.1,0-4.3,1.7-5.6,3.2-1.2,1.5-3.1,4.8-3.6,6.7-1.5,5.6-1.4,10.1.1,15.7h-.4c-1.5,0-3.2-.2-5.1-.4-5.1-.5-11.5-1.2-18.8-2.1-1.5-.2-3.1-.4-4.7-.6h0c-3.3-5.4-3-11.7-1.7-17.9,1.2-6.1,5.3-11.1,10.4-14.7h0c1.2.3,2.5.7,3.8,1.1,8.7,2.6,17.8,5.9,25.5,8.9Z"/><path class="cls-10" d="M88.3,198c0,0-.2,0-.3,0"/><path class="cls-10" d="M117.4,246.2c0-.1,0-.2,0-.3"/><path class="cls-10" d="M100.9,160.3h0s0,0,0,0"/><path class="cls-2" d="M117.4,245.8h-.1c-.6.2-1.3.4-2,.6-5.3,1.3-12.2,1.2-16-.3-1.9-.8-3.1-1.8-2.9-3.3.9-8.9,1.7-15.8.9-17.7-.1-.3-.2-.5-.4-.8h.2c6.2-2.6,13.2-3.2,19.6-1.6.3,9,.5,18.3.7,23.1Z"/><path class="cls-3" d="M96.3,199h0c-3.1,1-6.1,2.4-8.9,4.1h0c-1.2-2.7-2.2-4.9-2.7-5.9h0c1.2.1,2.4.4,3.6.7h0c1.1.2,2.2.4,3.3.5,1.6.2,3.2.4,4.7.6Z"/><path class="cls-5" d="M116.7,222.8c-6.5-1.6-13.5-1.1-19.6,1.5h-.2c-2.2-5-6.5-14.6-9.4-21h0c2.7-1.8,5.7-3.1,8.9-4h0c7.3.8,13.7,1.5,18.8,2v.3c.8,4.3,1.3,12.7,1.6,21.3Z"/><path class="cls-4" d="M55.9,112.1h-.2c-3.3,2.7-10.6,11.8-16,15.8-.9.7-1.7,1.6-2.3,2.6-4.9,8.8-8.7,13.3-12.4,20.9h.1c2.7.8,5.3,10.9,3.5,13.1-1.9,2.4-12.9,3.4-14.8,2.1-2.2-1.5.2-10.3,1.7-12.5,3-14,4.9-21.2,13-32.9,3.3-4.7,9.4-12.8,13.3-17.2.5-.5,11.1-11.8,15.6-14.1h0c-.8,3-2,12.1-1.7,22.1Z"/><path class="cls-10" d="M25,151.4c-.1.2-.2.4-.3.6"/><path class="cls-4" d="M120.3,140.9c-8.1,6.2-14,9.4-21.4,11.5-4,1.2-8.4,2.1-13.9,3.1-1.9,1.4-8.7,3.8-12.1,3.3,0,0-.2,0-.3,0-.7-.1-1.2-.4-1.5-.8-1.5-2-1.1-14.4,1.4-16.6,2.4-2.1,13.9.3,14.9,3.3h0c4.3-2.1,7.4-3.3,10.7-4.6,2.7-1.1,5.5-2.3,9.2-4.4-2.8-6.9-4.5-11.9-5.7-16-2.1-7.4-1.9-11.3-1.6-16.4h0c.1-3.4,1.7-7.2,4-9.5.8.7,1.5,1.4,2,2.2,2.2,2.8,6,17.9,8.5,23.2,3.3,6.6,8.2,18.1,5.6,21.8Z"/><path class="cls-10" d="M85,155.5c0,0-.2,0-.3,0"/><path class="cls-10" d="M87.4,144.8c-.2.1-.4.2-.7.4"/><path class="cls-10" d="M110.6,133.8c-1.1.7-2.2,1.3-3.2,1.9"/><path class="cls-4" d="M90.4,99.4c-.6,2.6-2.9,7.2-5.2,10.2-3.5,4.5-5,5.5-9.6,8.4-5.7-6.4-9.6-17.4-7-29.9v-.2c1.2-.2,2.1-.4,2.2-.4h0c.5-3.5.6-5.8.3-9.2,0-.2,0-.5,0-.7h0c.9,1.2,2,2.5,3.3,3.7h0c3.6,4,6.8,6.6,9.7,6.5,1.7,0,3.5-.8,5.2-1.9.2,2.2,0,2.1-.2,2.3.7,0,1.7.2,2.9.4h0c.3.7-1,8-1.7,10.8Z"/><path class="cls-6" d="M95.5,89.3l-.5.5c-1,6.4-1.8,12.3-5,17.9-3.1,5.6-9.2,12.9-15.2,15.2,0,0,0,0-.1,0-1.2.6-2.6.9-3.8,1.2-.7-1.2-1.5-2.3-2.3-3.4,1-.5,2.1-1,3.1-1.6h0c-5.6-8.7-7.9-20.7-6.6-30.7,1.2-.2,2.4-.4,3.4-.6v.2c-2.5,12.5,1.3,23.5,7,29.9,4.7-2.9,6.1-3.9,9.6-8.4,2.3-3,4.6-7.6,5.2-10.2.6-2.8,2-10.1,1.7-10.7h0c1,0,2,.3,2.9.5.1,0,.3,0,.4,0Z"/><path class="cls-10" d="M99.4,291c0,.6,0,1.3,0,1.9,0,0,0,.1,0,.1"/><path class="cls-4" d="M134.6,308.4l-.9-.2c-4.3.1-8.5,0-12.7-.5v-.6c1.2-.6,2.3-1.2,3.2-2,.9-.8,1.7-2,1.8-3.2,0-1.1-.3-2.2-1.2-2.9,1.6.9,3.3,1.8,5.2,2.8,1.3.7,2.7,1.3,3.5,2.5,1,1.5,1.4,2.9,1,4.1Z"/><path class="cls-2" d="M134.6,308.4h0c-.3.9-1,1.7-2.2,2.3-2.9,1.5-6.4,1.3-9.7,1-10.1-1-13.6-2.2-23.4-4.8-1.2-.3-2.5-.7-3-1.7-.4-.7-.3-1.6-.2-2.4,0-.3.1-.7.2-1,5.9,2.2,12,3.9,18.2,5,2.2.4,4.3.7,6.5.9h0c4.2.5,8.5.6,12.7.5l.9.2Z"/><path class="cls-2" d="M126,301.8c-.1,1.2-.9,2.4-1.8,3.2-.9.9-2,1.5-3.1,2v.6h0c-2.2-.2-4.4-.5-6.5-.9v-.6c.2,0,.6-.4.7-.4,2.1-1.9,3.5-4.6,3.8-7.4.1-1.1,0-2.4-1-2.8v-.2c2.3,1.2,4.5,2.3,6.8,3.6h0c.9.6,1.3,1.8,1.2,2.9Z"/><path class="cls-10" d="M96.3,301.9c0,0-.1,0-.2,0"/><path class="cls-4" d="M119,298.3c-.3,2.8-1.7,5.5-3.8,7.4,0,0-.5.4-.6.4v.6c-6.3-1.1-12.4-2.7-18.3-5,.5-3.1,1.4-5.9,2.7-8.9h.3c0-.6,0-1.3,0-1.9.3-6.6,0-11.9-1.2-17.8-1.8-9.2-1.9-17.8.9-26.8v-.3c4,1.5,10.9,1.6,16.2.3h0c-.6,6.5-4.2,36.1-5.4,44.3h0c3.1,1.8,5.7,3.2,8.2,4.6v.2c.9.4,1,1.7.9,2.8Z"/><path class="cls-10" d="M124.8,298.9c-.1,0-.3-.2-.4-.2"/><path class="cls-10" d="M151.3,205.7c-.2,0-.3-.1-.4-.2"/><path class="cls-4" d="M218.1,216.4c0,.1-.5,1.9-.6,2.2-5.3,2.7-10.9,4.9-16.4,6.8-1.3-2.3-2.3-4.5-3.1-7-7.8-3-9.9-3.8-16.4-4.8-10.4-1.7-20.5-3.9-30.3-8,3.5-4.9,7.8-12.1,8.3-15.9h.6c5.8,2.8,34.5,14.9,41.9,18.8l.2.3c4.1-.8,7.9-1.6,11.7-2.4v.2c1-.1,1.8.7,2.4,1.6,1.5,2.4,2.2,5.4,1.8,8.2Z"/><path class="cls-4" d="M235,207.2h0s-.2,0-.2,0c-3.6,3.2-7.6,6-11.8,8.4.5-1.2,1.4-4.3,1.6-5.6.2-1.2,0-2.6-.7-3.6-.6-.9-1.7-1.5-2.8-1.5,1.9-.4,3.8-.8,5.8-1.2,1.5-.3,2.9-.7,4.3-.3,2.2.7,3.6,1.9,3.7,3.7Z"/><path class="cls-2" d="M235,207.2c0,.6-.1,1.3-.5,2-1.3,3-4.1,5.1-6.8,7-8.4,5.6-11.9,7-21,11.2-1.1.5-2.4,1-3.4.6-.8-.3-1.3-1-1.7-1.7-.2-.3-.4-.6-.5-.9,5.5-1.9,11.1-4.1,16.4-6.8,1.9-.9,3.7-1.9,5.5-3h0c4.2-2.5,8.2-5.3,11.8-8.4h.2Z"/><path class="cls-2" d="M224.6,210.1c-.2,1.2-1.1,4.4-1.6,5.6h0c-1.8,1.1-3.6,2.1-5.5,3,0-.3.6-2.1.6-2.2.4-2.8-.3-5.8-1.8-8.2-.5-.8-1.4-1.7-2.3-1.6v-.2c2.4-.5,4.8-1,7.2-1.5h0c1.1,0,2.1.5,2.8,1.5.7,1,.9,2.4.7,3.6Z"/><path class="cls-10" d="M197.9,218.4c-.2-.5-.3-1-.5-1.6"/><path class="cls-10" d="M201,225.4c0,0-.1,0-.2,0"/><path class="cls-10" d="M217.5,218.6s0,0,0,0"/><path class="cls-10" d="M213.9,206.7c0,0-.1,0-.2,0"/><path class="cls-10" d="M221.2,205c-.2,0-.3,0-.5,0"/><path class="cls-10" d="M72,119.4c0,0-.1-.2-.2-.3"/><path class="cls-10" d="M65.2,88.4s0,0,0,.1"/><path class="cls-6" d="M101.7,119.7h-.2c0,.8-.2,1.4-.3,1.9h-.2c-2-1.7-2.7-4-3-6.5-.3-2.6-.5-4.8-.4-7.4,0-3,0-4.4.7-7.4.6-3,1.6-6.2,4.2-7.7h0c.6.4,1.2.8,1.7,1.3-2.3,2.2-3.8,6.1-4,9.5h0c-.3,5.1-.5,9,1.6,16.4Z"/><path class="cls-6" d="M60.2,89.5c-2.1,7.8-3.8,17.7-4,25.8h-.2c0-1.1-.1-2.1-.1-3.2-.3-10,.9-19.2,1.7-22h0c0-.1,0-.1,0-.1,0,0,1.2-.2,2.6-.5h0Z"/><path class="cls-2" d="M104.1,166.8h0c-1.3-.3-2.5-.7-3.8-1h0c-5.9-1.6-11.5-2.7-16.3-3.1,2.9.2,5.9.3,8.6,0,3-.4,5.5-1.9,8.4-2,0-.1,0-.2,0-.3,1.6,3.4,2,3.2,3.2,6.5Z"/><path class="cls-10" d="M100.4,165.7s0,0,0,0"/><path class="cls-10" d="M117.1,222.9c-.1,0-.2,0-.3,0"/><path class="cls-1" d="M88.7,52.8c-.8-.3-1.7-2.1-4.5-2.4-1.5-.2-4,.5-4,.3,0-.2,3.3-1.4,4.6-1.4.9,0,2.7.3,3.5,1.3,1.2,1.3,1.3,2.6.4,2.2Z"/><path class="cls-1" d="M103.1,58.2c-.1,0-1.2-1-2.1-1.6-1.7-1.2-3.2-.3-3.9-.5-.7-.2.1-1.1,1.6-1.4,1.1-.3,2.2.4,2.7.9.7.6,1.9,2.6,1.7,2.7Z"/><path class="cls-4" d="M94.7,44.7c-4.9-7.4-14.2-5.3-19.3,1h0c-1.1,1.6-1.5,3.1-2.2,5.1-.3.8-1.1,2.9-1.8,3.4-.6.5-1.7.7-2.3-.4h0c-.4-.9-1.2-1.5-2-1.6-.8-.1-1.7.3-2.3,1-.8,1-.9,2.4-.8,3.7,0,1.5.2,3.1,1,4.3.5.8,1.2,1.4,2,1.7v.4c-.2,5.1,1,9.8,4.2,14.2.9,1.3,2,2.5,3.3,3.7h0c3.6,4,6.8,6.6,9.7,6.5,1.7,0,3.5-.8,5.2-1.9,4.8-3.2,9.1-9.4,10.6-12.5.1-.2.2-.5.3-.8,2-4.8,2.4-11,2.4-11,1.2-3.6,2.4-5.9,2.6-9.3-.4-9.9-7.4-2.6-10.7-7.6ZM84.7,49.3c.9,0,2.7.3,3.5,1.3,1.2,1.3,1.3,2.6.4,2.2-.8-.3-1.7-2.1-4.5-2.4-1.5-.2-4,.5-4,.3,0-.2,3.3-1.4,4.6-1.4ZM85.5,59.6c-.3,1.5-1.2,2.4-2,2.2-.8-.2-1.1-1.5-.8-3,.3-1.4,1.2-2.4,2-2.2.8.2,1.1,1.5.8,3ZM80.3,71.7l.4-.2c5.4,3.2,9.7,5.1,12.4,5.1-3.9,5.8-11.1,2.7-12.7-4.8ZM99.9,63.7c-.3,1.5-1.2,2.5-2,2.3-.7-.2-1.1-1.6-.7-3.1.3-1.5,1.2-2.5,1.9-2.3.8.2,1.1,1.6.8,3ZM103.1,58.2c-.1,0-1.2-1-2.1-1.6-1.7-1.2-3.2-.3-3.9-.5-.7-.2.1-1.1,1.6-1.4,1.1-.3,2.2.4,2.7.9.7.6,1.9,2.6,1.7,2.7Z"/><path class="cls-10" d="M93.8,69.4c-.2,2.3-.6,5.2-7.3.7"/><path class="cls-11" d="M99.9,63.7c-.3,1.5-1.2,2.5-2,2.3-.7-.2-1.1-1.6-.7-3.1.3-1.5,1.2-2.5,1.9-2.3.8.2,1.1,1.6.8,3Z"/><path class="cls-11" d="M85.5,59.6c-.3,1.5-1.2,2.4-2,2.2-.8-.2-1.1-1.5-.8-3,.3-1.4,1.2-2.4,2-2.2.8.2,1.1,1.5.8,3Z"/><path class="cls-8" d="M93,76.6c-3.9,5.8-11.1,2.7-12.7-4.8l.4-.2c5.4,3.2,9.7,5.1,12.4,5.1Z"/><path class="cls-10" d="M66.9,62.9c.5.2,1.1.2,1.6,0"/><path class="cls-1" d="M107.4,53.5h-.1c-1.6,9.5-4.5,16.2-6.9,19.1h0c2-4.8,2.4-11,2.4-11,1.2-3.6,2.4-5.9,2.6-9.3-.4-9.9-7.4-2.6-10.7-7.6-4.9-7.4-14.2-5.3-19.3,1h0c-1.1,1.6-1.5,3.1-2.2,5.1-.3.8-1.1,2.9-1.8,3.4-.6.5-1.7.7-2.3-.4h0c-.4-.9-1.2-1.5-2-1.6-.8-.1-1.7.3-2.3,1-.8,1-.9,2.4-.8,3.7,0,1.5.2,3.1,1,4.3.5.8,1.2,1.4,2,1.7v.4c-.2,5.1,1,9.8,4.2,14.2h0c0,.3,0,.5,0,.7h-.2c-1.7-.4-8.7-8.3-9.9-14-1.1-5.8-1.8-9.6-.5-15.3,1.6-6.8,2.8-9.9,7.2-13.2.7-.5,1.6-1.1,2.5-1.7,5.1-3.2,12.9-4,19.8-2.5,3.9.8,7.6,2.4,10.2,4.6,4.2,4.1,5.7,6.9,6.4,11.5.2,1.4.5,4.6.5,5.9Z"/><path class="cls-10" d="M70.8,87.5c0,.2,0,.3,0,.5"/><path class="cls-1" d="M90.3,31.3v.2c-7-1.5-14.8-.6-19.9,2.5-.9.6-1.8,1.1-2.5,1.7-2.2-.3-3.5-1.9-3.7-3.9-.3-2,.8-4,2.2-5.4,4.1-4.3,11.7-5.5,18.1-3.2,1.6.6,3.2,1.4,4.4,2.7,1.2,1.2,1.8,4,1.5,5.4Z"/><path class="cls-10" d="M68.1,35.7c0,0-.1,0-.2,0"/></svg>