<?xml version="1.0" encoding="UTF-8"?><svg id="latinAmerica" xmlns="http://www.w3.org/2000/svg" width="235" height="321.9" viewBox="0 0 235 321.9"><defs><style>.cls-1{stroke-linecap:round;stroke-linejoin:round;}.cls-1,.cls-2{fill:none;stroke:#000;}.cls-2{stroke-miterlimit:10;}.cls-3,.cls-4,.cls-5,.cls-6,.cls-7,.cls-8,.cls-9,.cls-10,.cls-11{stroke-width:0px;}.cls-4{fill:#748f9d;}.cls-5{fill:#88d3ba;}.cls-6{fill:#302c23;}.cls-7{fill:#55b695;}.cls-8{fill:#1d6352;}.cls-9{fill:#ad7153;}.cls-10{fill:#a66d4d;}.cls-11{fill:#fff;}</style></defs><path class="cls-8" d="M17.5,298.4c-.4.8-.7,1.7-.5,2.6.3,1.2,1.5,2,2.6,2.6,9.3,5.4,14.9,7.2,25,11,3.3,1.3,6.9,2.4,10.4,1.6,3.5-.7,6.5-4,5.5-7.2-.5-1.5-1.7-2.7-2.8-3.8-6.8-6.5-9.7-9.4-16.5-16h0c-.6-1.2-1.5-1.4-2.6-1.2-.2,0-.5.1-.7.2-1.4.6-2.5,1.7-3.5,2.8-1,1.1-9.1.9-9.4-1.6l-.6-1.1-.6.2c-2.5,3-4.6,6.4-6.2,9.9Z"/><path class="cls-10" d="M24.4,288.3l.6,1.1c.3,2.5,8.3,2.7,9.4,1.6,1-1.1,2.1-2.3,3.5-2.8.3-.1.5-.2.7-.2h-1.5c1.6-2.6,3.1-5.5,4.5-8.7h-.1c-4.8.5-9.8-1.2-13.4-4.4h-.1c-1,4.6-2.1,9.2-3.6,13.4Z"/><path class="cls-4" d="M27.9,274.9h.1c3.6,3.2,8.6,5,13.4,4.4h.1c4.2-9.4,7.8-20.8,11.5-29.2,4.8-10.8,6.8-11.9,9.5-22.7.7-2.8,1.2-4.8,2-7.9-7.6-.3-15.6-1.5-22.9-2.7.4,4.5.7,10.4-.6,14.4-1.3,3.9-3.3,8.1-5.1,11.7-3.9,7.6-5.6,20.1-8.1,32Z"/><path class="cls-9" d="M70.5,153.5c-.7-5.7-7.7-3-11.4-3.1h0c-3.9-.6-6.9-4.8-9.3-8.4h0c-1-1.4-1.8-2.7-2.6-3.6-2.6-3-3.7-3.9-5.5-5.2.6-1.3,2-8.6,3.3-13.5h-.3c-3,0-6-.5-8.9-1.4-1.2-.4-2.9-1.5-3.9-2.3h0c-2.2,7.6-3.3,14-3.7,16.3-1,6.3,9,14.6,14.1,18.1,1.6,1.1,3.4,2.4,5.4,3.8,2.7,2,5.5,4.1,7.7,5.9-.2,3.4,4.1,6.9,6.6,8.3,1.8,1,9.9,3.3,8.3-1.1,1-.3,2.8-2.3,1-3.6,1.1-.6,2-2.5.6-4.4,3.7-2.4,1.2-4.4-1.2-5.9Z"/><path class="cls-5" d="M46.2,115.9c.1,0,.2,0,.4-.1h0c0,0,0-.2-.1-.2h-.3c0-.3.1-.3.3,0h.1c11.6-12.3,4.3-27-3.7-24.2,0,0,0,0,0,0-.6.3-1,.5-1.2.6l-.3.2c-4.5,4.1-8.2,8.7-10.2,14.4-.5,1.3-.8,2.7-.3,3.9.3.8,1,1.3,1.7,1.8.3.2.7.4,1,.6,2,1.1,4,2.3,6.2,2.9,2.1.6,4.4.7,6.4,0Z"/><path class="cls-7" d="M32.5,112.5c-.9,0-1.2,3.1-.7,3.5,1,.8,2.7,1.9,3.9,2.3,2.9.9,5.9,1.4,8.9,1.4h.3c.4-1.6.9-3,1.2-3.8-2,.8-4.3.7-6.4,0-2.2-.6-4.2-1.8-6.2-2.9-.3-.2-.7-.4-1-.6h0Z"/><path class="cls-5" d="M41.8,216.9c7.3,1.1,15.2,2.3,22.9,2.7,3.7.2,7.4.1,10.8-.2,2.3-.2,4.6-.6,6.9-1.1,9-1.9,17.2-5.9,23.3-12.9h.1c-3.3-11-10-27.1-16.1-35.6v-.3c-1.9-8.2-2.9-15.8-3.3-22.5-.6-9.5,0-16.9,1.3-21,.3-.9.7-1.9,1.1-3.3.3-1,.6-2.2.9-3.6.1-.7.3-1.5.4-2.4h-.1c-4.8-4.1-25-4.3-41.9,1.7h-.1c.7,1.8,1.3,3.7,1.3,4.6.4,4.6,1.1,10.8.9,14.7-.1,2,0,2.7-.3,4.3h0c2.4,3.6,5.5,7.8,9.3,8.5h0c3.6,0,10.6-2.8,11.4,3,2.5,1.5,4.9,3.5,1.2,5.9,1.5,1.9.5,3.8-.6,4.4,1.7,1.3,0,3.3-1,3.6,1.6,4.4-6.5,2.1-8.3,1.1-2.5-1.5-6.8-4.9-6.6-8.3-2.1-1.8-4.9-3.9-7.7-5.9h0c-3.3,7.4-6.5,20-6.7,28.1-.2,8.2-1.9,22.5-1.8,33.9v.2c.9.1,1.9.3,2.8.4Z"/><path class="cls-6" d="M94,53.9c-.3,3-1,3.8-2.1,7.3,0,0-.4,7-2.8,11.9-1.8,3.8-6.9,10.9-12.7,12.5,0,.5-.1.9-.1,1.2.7.3,1.4.6,2.1.9,3.7,1.6,6.9,3.4,9.4,5.8.7.6,1.3,1.3,1.8,2.1.4.5.7.9.9,1.3h0c1.9-15.3,5.3-30.3,5.9-45.7,0-1.3,0-2.6,0-4-.2-4.7-1.5-9.5-7.3-13.6-6-5-15.9-6.6-23.9-4.5-2.1.5-4,1.3-5.7,2.4-7,4.4-8.5,11.4-11,18.7-1.3,3.8-1.2,8.2-1.4,12.3,0,.6,0,1.2-.1,1.8-.5,5.1-1,10.2-1.7,15.4-.5,3.7-1,7.3-1.6,11h1.1c4.1-1.5,11.1-3.9,14.1-4.4h0c0,0,0-.1,0-.2h0c.9-3.3,1.2-6.8.7-10.2h.2c-3.3-4.8-4.8-10-4.8-15-.6-.3-1.1-.8-1.4-1.4-.8-1.3-1-2.9-1-4.4,0-1.3,0-2.8.8-3.8.6-.7,1.5-1.1,2.3-1,.9.1,1.7.7,2.1,1.5h.4c6-4.2,12.4-7.9,19.1-11.1,1.2-.6,2.3-1.1,3.6-1.2,2.8-.3,7.3,1.7,9.2,3.8,1.2,1.3,1.8,3.7,2.4,5.4.6,1.7,1.2,3.5,1.6,5.3Z"/><path class="cls-7" d="M44.8,90.6c-.7.3-1.3.5-1.8.8,8-2.8,15.2,11.8,3.7,24.1h-.1c0,0,0,.1.1.2.3.5.8,1.6,1.2,2.7h.1c16.9-6.1,37.1-5.9,41.9-1.8h.1c.4-2.9.5-6.7.3-11.8-.2-3.2-.8-8.9-2.6-11.4-2.4-2.3-5.7-4.2-9.4-5.8,2.1,6.2,0,17.9-3.7,19.9-2.2-1.3-5.5-4-9.6-8.1-3.4-3.4-5.5-8.6-6.1-13.3h0c-3,.6-10,2.9-14.1,4.5Z"/><path class="cls-5" d="M47.9,44c-.6,1.7-10.5,16.8-1.1,18.4h.3c.2-4.1.1-8.6,1.4-12.3,2.4-7.3,3.9-14.3,11-18.7,1.7-1,3.6-1.8,5.7-2.4h0c-1.9-2-5.1-2.4-7.6-1.4-2.5,1-4.4,3.3-5.4,5.8-.7,1.8-1,3.8-1.8,5.6-.7,1.7-1.7,3.2-2.3,4.9Z"/><path class="cls-9" d="M55,60.8c0,5,1.5,10.3,4.8,14.9,1.1,1.5,2.3,2.9,3.7,4.3,3.6,4,7.7,6.1,10.7,6,.7,0,1.5-.1,2.2-.3,5.8-1.6,10.9-8.8,12.7-12.5,2.4-5,2.8-11.9,2.8-11.9,1.1-3.5,1.8-4.3,2.1-7.3-.5-1.8-1-3.6-1.6-5.3-.6-1.6-1.2-4.1-2.4-5.4-1.9-2-6.4-4.1-9.2-3.8-1.3.1-2.5.7-3.6,1.2-6.7,3.2-13.1,6.9-19.1,11.1h-.4c-.4-.9-1.2-1.4-2.1-1.6-.9-.1-1.8.3-2.3,1-.8,1-.9,2.4-.8,3.8,0,1.5.3,3.1,1,4.4.3.6.8,1.1,1.4,1.4ZM68.9,50c-.1-.2,3.4-1.4,4.7-1.4.9,0,2.7.3,3.6,1.3,1.2,1.4,1.3,2.6.4,2.2-.8-.3-1.7-2.1-4.5-2.5-1.6-.2-4.1.5-4.1.3ZM81.9,76.4c-4,7.4-13.4-1.3-12.1-4.9,5.5,3.2,9.4,4.9,12.1,4.9ZM72.3,61.3c-.8-.2-1.2-1.6-.8-3,.3-1.5,1.2-2.5,2-2.3.8.2,1.1,1.6.8,3-.3,1.5-1.2,2.5-2,2.3ZM86.2,55.5c-.7-.2.1-1.1,1.6-1.5,1.1-.3,2.2.4,2.7.9.7.6,1.9,2.6,1.7,2.7-.1,0-1.2-1-2.1-1.7-1.7-1.2-3.3-.3-3.9-.5ZM87,65.7c-.8-.2-1.1-1.6-.8-3.1.3-1.5,1.2-2.6,2-2.4.8.2,1.1,1.6.8,3.1-.3,1.5-1.2,2.6-2,2.4Z"/><path class="cls-9" d="M76.2,86.8c0-.3,0-.7.1-1.2-.7.2-1.4.3-2.2.3-3,0-7.1-2.1-10.7-6-1.4-1.4-2.6-2.8-3.7-4.3h-.2c.5,3.5.2,7-.7,10.3h0c0,0,0,.1,0,.2.6,4.7,2.7,10,6.1,13.3,4.1,4.1,7.5,6.8,9.6,8.1,3.7-2,5.9-13.6,3.7-19.9-.7-.3-1.4-.6-2.1-.9Z"/><path class="cls-3" d="M73.5,48.6c-1.3,0-4.8,1.2-4.7,1.4,0,.1,2.5-.5,4.1-.3,2.8.3,3.7,2.2,4.5,2.5.9.4.8-.9-.4-2.2-.9-1-2.7-1.3-3.6-1.3Z"/><path class="cls-11" d="M69.9,71.4c-1.3,3.7,8,12.4,12.1,4.9-2.7,0-6.6-1.7-12.1-4.9Z"/><path class="cls-3" d="M71.5,58.3c-.3,1.5,0,2.8.8,3,.8.2,1.7-.8,2-2.3.3-1.5,0-2.8-.8-3-.8-.2-1.7.8-2,2.3Z"/><path class="cls-4" d="M82.3,218.3h0c2.3,3.9,3.8,6.4,4.5,8.7,0,0,1.2,3.6.8,7-.5,4.1.5,12.7,1.3,16.6,2.4,10.8,4.1,19.1,4.6,28.7h0c4.4,1.9,8.7,2,12.7-.7h.5c1.9-21.9,1.3-40.2,1.1-63.3,0-2-.8-5.6-2.1-10h-.1c-6.1,7-14.4,11-23.3,12.9Z"/><path class="cls-3" d="M87.8,54c-1.5.4-2.3,1.3-1.6,1.5.7.2,2.2-.7,3.9.5.9.7,2,1.7,2.1,1.7.2,0-1-2.1-1.7-2.7-.5-.5-1.6-1.2-2.7-.9Z"/><path class="cls-3" d="M86.2,62.6c-.3,1.5,0,2.9.8,3.1.8.2,1.6-.9,2-2.4.3-1.5,0-2.9-.8-3.1-.8-.2-1.6.9-2,2.4Z"/><path class="cls-9" d="M87.6,125.9c-1.2,4.1-1.8,11.5-1.3,21h.4c2.4,1.5,4.9,2.8,6.7,3.6,4.1,1.9,10.4,4.9,14.5,7.3h.3c0-.7-.1-1.3,0-1.9.3-3.5,1.3-6,4.2-7.6-5.8.7-12.5-7.7-16.1-10.5-2.9-2.2-4-2.7-6.3-4.2.8-3.9,1.1-7.3,1.6-11-1.1.3-1.8.3-2.9,0h0c-.4,1.3-.8,2.3-1.1,3.3Z"/><path class="cls-7" d="M88.7,122.7h0c1.1.4,1.8.4,2.9,0,.2-1.2.4-2.4.6-3.6-.9.2-1.7.2-2.6-.1h0c-.3,1.4-.6,2.6-.9,3.6Z"/><path class="cls-5" d="M89.5,95.5c-.6-.7-1.2-1.4-1.8-2.1,1.9,2.6,2.4,8.2,2.6,11.4.3,5.1,0,8.9-.3,11.8-.1.9-.2,1.6-.4,2.4h0c.9.3,1.7.4,2.6.1,0,0,0-.2,0-.2.2-.9,1-2.6,1.2-3.7.9-4.6,1.2-9.7-.7-13.8-1.2-2.5-1.2-3.1-2.3-4.7-.2-.4-.5-.8-.9-1.3Z"/><path class="cls-8" d="M89.5,301.9c-.1.9-.2,1.8.2,2.6.6,1.1,2,1.5,3.3,1.8,10.5,2.8,18.8,5.5,29.7,6.6,3.6.4,7.4.5,10.5-1.1,3.1-1.6,5.1-5.5,3.3-8.3-.9-1.3-2.4-2.2-3.8-3-8.4-4.5-14.4-9-22.8-13.5h-.1c-.9-.9-1.8-1-2.8-.5-.2.1-.5.3-.7.4-1.2.9-1.9,2.3-2.6,3.6-.7,1.3-1.5,2.7-2.9,3.4-2.4,1.2-5.7-.2-6.6-2.5l-.5-.3c0,0,0-.1,0-.2h-.9c-1.5,3.5-2.6,7.3-3.2,11.1Z"/><path class="cls-10" d="M93.6,279.3h0c.2,3.6.2,7.3,0,11.5,0,0,0,.1,0,.2l.5.3c1,2.3,4.3,3.8,6.6,2.5,1.4-.7,2.2-2.1,2.9-3.4.7-1.3,1.4-2.7,2.6-3.6.2-.2.5-.3.7-.4h-.8c.3-2.7.5-5.3.7-7.8h-.5c-4,2.6-8.3,2.5-12.7.6Z"/><path class="cls-9" d="M108.2,156c0,.6,0,1.2,0,1.9.7,4.5,4.9,8.6,9.3,7.6,4.3-1,6.5-6,6.6-10.4,0-2-.3-4.1-1.4-5.8s-3.2-2.9-5.2-2.5c-2.2.4-4,1-5.3,1.7h0c-2.9,1.6-3.9,4.1-4.2,7.6Z"/><path class="cls-1" d="M76.2,86.8c0,1.1.2,1.3.4,2.3"/><path class="cls-2" d="M76.4,85.3c0,.1,0,.2,0,.3,0,.5-.1.9-.1,1.2"/><polyline class="cls-2" points="46.6 115.5 46.5 115.5 46.2 115.6"/><line class="cls-2" x1="90.1" y1="89.8" x2="90" y2="89.9"/><path class="cls-2" d="M90.3,104.9c.3,5.1,0,8.9-.3,11.8-.1.9-.2,1.6-.4,2.4-.3,1.5-.6,2.6-.9,3.6-.4,1.3-.8,2.3-1.1,3.3-1.2,4.1-1.8,11.5-1.3,21,.4,6.6,1.4,14.2,3.3,22.5"/><path class="cls-2" d="M46.2,115.6c0-.4.1-.4.3,0,0,0,0,.1.1.2.3.5.8,1.6,1.2,2.7.7,1.7,1.3,3.6,1.3,4.5.4,4.6,1.1,10.8.9,14.7-.1,2,0,2.7-.3,4.3"/><path class="cls-1" d="M87.7,93.4c0-.1-.2-.2-.3-.3"/><path class="cls-2" d="M90.3,104.9c-.2-3.2-.8-8.9-2.6-11.4"/><path class="cls-2" d="M42.9,91.4c-.2,0-.5.2-.7.3"/><path class="cls-2" d="M46.6,115.5c11.6-12.3,4.3-27-3.7-24.1"/><path class="cls-2" d="M58.9,86.1c.6,4.7,2.7,10,6.1,13.3,4.1,4.1,7.5,6.8,9.6,8.1,3.7-2,5.9-13.6,3.7-19.9,0-.2-.1-.3-.2-.5"/><path class="cls-1" d="M58.9,85.9c0,0,0,.1,0,.2"/><path class="cls-2" d="M58.8,85.8s0,0,0,.1"/><path class="cls-2" d="M59.2,87.5c0-.3-.3-1.1-.3-1.5"/><path class="cls-2" d="M58.8,86.1c-3,.6-10,2.9-14.1,4.5-.7.3-1.3.5-1.8.8,0,0,0,0,0,0-.6.3-1,.5-1.2.6"/><line class="cls-1" x1="72.5" y1="160.8" x2="72.4" y2="160.8"/><line class="cls-1" x1="59.1" y1="150.4" x2="59.1" y2="150.6"/><path class="cls-1" d="M41.6,133.3s0,0,0,0"/><path class="cls-1" d="M46.2,115.8s0,0,0,.1c-.4.8-.8,2.2-1.2,3.9-1.3,4.9-2.7,12.2-3.3,13.5"/><path class="cls-1" d="M41.4,92.2c-4.5,4.1-8.2,8.7-10.2,14.4-.5,1.3-.8,2.7-.3,3.9.3.8,1,1.3,1.7,1.8.3.2.7.4,1,.6,2,1.1,4,2.3,6.2,2.9,2.1.6,4.4.7,6.4,0,.1,0,.2,0,.4-.1"/><path class="cls-1" d="M55.2,160.2c-2.1-1.8-4.9-3.9-7.7-5.9-1.9-1.4-3.8-2.8-5.4-3.8-5.1-3.5-15.1-11.8-14.1-18.1.4-2.3,1.5-8.7,3.7-16.3"/><path class="cls-1" d="M49.7,142c-1-1.4-1.8-2.7-2.6-3.6-2.6-3-3.7-3.9-5.5-5.2h0c-.9-.7-2-1.4-3.5-2.6"/><line class="cls-2" x1="49.7" y1="142.1" x2="49.7" y2="142"/><path class="cls-1" d="M59.8,150.7c-.3,0-.5,0-.8,0-3.9-.7-6.9-5-9.3-8.5"/><path class="cls-1" d="M67.7,151.9c.6.4,1.7,1,2.7,1.6,2.5,1.5,4.9,3.5,1.2,5.9,1.5,1.9.5,3.8-.6,4.4,1.7,1.3,0,3.3-1,3.6,1.6,4.4-6.5,2.1-8.3,1.1-2.5-1.5-6.8-4.9-6.6-8.3"/><path class="cls-1" d="M59.1,150.4c3.6,0,10.6-2.7,11.4,3.1,0,0,0,0,0,0"/><path class="cls-1" d="M86.8,146.9c2.4,1.5,4.9,2.8,6.7,3.6,4.1,1.9,10.4,4.9,14.5,7.3"/><path class="cls-1" d="M112.4,148.4c-5.8.7-12.5-7.7-16.1-10.5-2.9-2.2-4-2.7-6.3-4.2"/><path class="cls-1" d="M76.2,86.8c.7.3,1.4.6,2.1.9,3.7,1.6,6.9,3.4,9.4,5.8.7.6,1.3,1.3,1.8,2.1.4.5.7.9.9,1.3,1.1,1.6,1.2,2.2,2.3,4.7,1.9,4.1,1.6,9.2.7,13.8-.2,1.1-1,2.8-1.2,3.7,0,0,0,.2,0,.2-.2,1.2-.4,2.4-.6,3.6-.5,3.7-.8,7.1-1.6,11"/><path class="cls-1" d="M117.7,146.7c-2.2.4-4,1-5.3,1.7h0c-2.9,1.6-3.9,4.1-4.2,7.6,0,.6,0,1.2,0,1.9.7,4.5,4.9,8.6,9.3,7.6,4.3-1,6.5-6,6.6-10.4,0-2-.3-4.1-1.4-5.8s-3.2-2.9-5.2-2.5"/><path class="cls-1" d="M90.5,54.9c.7.6,1.9,2.6,1.7,2.7-.1,0-1.2-1-2.1-1.7-1.7-1.2-3.3-.3-3.9-.5-.7-.2.1-1.1,1.6-1.5,1.1-.3,2.2.4,2.7.9Z"/><path class="cls-1" d="M73.5,48.6c-1.3,0-4.8,1.2-4.7,1.4,0,.1,2.5-.5,4.1-.3,2.8.3,3.7,2.2,4.5,2.5.9.4.8-.9-.4-2.2-.9-1-2.7-1.3-3.6-1.3Z"/><path class="cls-1" d="M94,53.3c0,.2,0,.4,0,.5-.3,3-1,3.8-2.1,7.3,0,0-.4,7-2.8,11.9-1.8,3.8-6.9,10.9-12.7,12.5-.7.2-1.4.3-2.2.3-3,0-7.1-2.1-10.7-6"/><path class="cls-1" d="M83.1,67.1c.7.8-.2,7.1-5.5,3.2"/><path class="cls-1" d="M86.2,62.6c-.3,1.5,0,2.9.8,3.1.8.2,1.6-.9,2-2.4.3-1.5,0-2.9-.8-3.1-.8-.2-1.6.9-2,2.4Z"/><path class="cls-1" d="M71.5,58.3c-.3,1.5,0,2.8.8,3,.8.2,1.7-.8,2-2.3.3-1.5,0-2.8-.8-3-.8-.2-1.7.8-2,2.3Z"/><path class="cls-1" d="M81.9,76.4c-2.7,0-6.6-1.7-12.1-4.9"/><path class="cls-1" d="M81.9,76.4c-4,7.4-13.4-1.3-12.1-4.9"/><path class="cls-1" d="M55,60.7h0c0,5.1,1.5,10.3,4.8,15,1.1,1.5,2.3,2.9,3.7,4.3"/><path class="cls-1" d="M57.7,51.8c-.4-.8-1.2-1.4-2.1-1.5-.9-.1-1.8.3-2.3,1-.8,1-.9,2.4-.8,3.8,0,1.5.3,3.1,1,4.4.3.6.8,1.1,1.4,1.4.7.4,1.5.6,2.2.3"/><path class="cls-1" d="M94.2,54.7c0-.3-.1-.5-.2-.8-.5-1.8-1-3.6-1.6-5.3-.6-1.6-1.2-4.1-2.4-5.4-1.9-2-6.4-4.1-9.2-3.8-1.3.1-2.5.7-3.6,1.2-6.7,3.2-13.1,6.9-19.1,11.1"/><path class="cls-1" d="M88.9,33.5c-6-5-15.9-6.6-23.9-4.5-2.1.5-4,1.3-5.7,2.4-7,4.4-8.5,11.4-11,18.7-1.3,3.8-1.2,8.2-1.4,12.3,0,.6,0,1.2-.1,1.8-.5,5.1-1,10.2-1.7,15.4-.5,3.7-1,7.3-1.6,11"/><path class="cls-1" d="M88.9,33.5c5.8,4.1,7.1,8.9,7.3,13.6,0,1.4.1,2.7,0,4-.6,15.3-4,30.4-5.9,45.6"/><path class="cls-1" d="M62.6,227.5c.7-2.8,1.2-4.8,2-7.9,0,0,0,0,0-.1"/><path class="cls-1" d="M47.5,154.4c-3.3,7.3-6.5,19.9-6.7,27.9-.2,8.2-1.9,22.5-1.8,33.9"/><path class="cls-1" d="M62.6,227.5c-2.7,10.8-4.8,11.9-9.5,22.7-3.7,8.4-7.3,19.8-11.5,29.2-1.4,3.2-2.9,6.1-4.5,8.6"/><path class="cls-1" d="M41.8,216.8s0,0,0,.1c.4,4.5.7,10.4-.6,14.4-1.3,3.9-3.3,8.1-5.1,11.7-3.9,7.6-5.6,20.1-8.1,32-1,4.7-2.1,9.2-3.6,13.4"/><path class="cls-1" d="M107.9,215.3c0-2-.8-5.6-2.1-10-3.3-11-10-27-16.1-35.6"/><path class="cls-1" d="M82.3,218.3c2.3,3.9,3.8,6.4,4.5,8.7"/><path class="cls-1" d="M86.9,226.9s1.2,3.6.8,7c-.5,4.1.5,12.7,1.3,16.6,2.4,10.8,4.1,19.1,4.6,28.7.2,3.6.2,7.3,0,11.5,0,0,0,.1,0,.2"/><path class="cls-1" d="M107.9,215.3c.3,23.1.8,41.4-1.1,63.3-.2,2.5-.5,5.1-.7,7.7"/><path class="cls-1" d="M105.7,205.4c-6.1,7-14.4,11-23.3,12.9-2.3.5-4.5.8-6.9,1.1-3.5.3-7.1.4-10.8.2-7.6-.3-15.6-1.5-22.9-2.7-1-.2-1.9-.3-2.8-.4h-.1"/><path class="cls-1" d="M32.5,112.5c-.9,0-1.2,3.1-.7,3.5,1,.8,2.7,1.9,3.9,2.3,2.9.9,5.9,1.4,8.9,1.4"/><path class="cls-1" d="M89.7,119c.9.3,1.7.3,2.6.1,0,0,0,0,.1,0"/><path class="cls-1" d="M88.7,122.7c1.1.4,1.8.3,2.9,0,0,0,.2,0,.2,0"/><path class="cls-1" d="M59.6,75.8c.5,3.4.2,6.9-.7,10.1h0s0,0,0,.1"/><path class="cls-1" d="M48,118.4c16.9-6,37.1-5.8,41.9-1.8"/><path class="cls-1" d="M94.2,291.3c1,2.3,4.3,3.8,6.6,2.5,1.4-.7,2.2-2.1,2.9-3.4.7-1.3,1.4-2.7,2.6-3.6.2-.2.5-.3.7-.4,1-.5,1.9-.4,2.8.4"/><path class="cls-1" d="M92.7,290.8c-1.5,3.6-2.6,7.3-3.2,11.1-.1.9-.2,1.8.2,2.6.6,1.1,2,1.5,3.3,1.8,10.5,2.8,18.8,5.5,29.7,6.6,3.6.4,7.4.5,10.5-1.1,3.1-1.6,5.1-5.5,3.3-8.3-.9-1.3-2.4-2.2-3.8-3-8.4-4.5-14.4-9-22.8-13.5"/><path class="cls-1" d="M25,289.4c.3,2.5,8.3,2.7,9.4,1.6,1-1.1,2.1-2.3,3.5-2.8.3-.1.5-.2.7-.2,1.1-.2,2,0,2.6,1.1"/><path class="cls-1" d="M23.8,288.5c-2.5,3-4.6,6.4-6.2,9.9-.4.8-.7,1.7-.5,2.6.3,1.2,1.5,2,2.6,2.6,9.3,5.4,14.9,7.2,25,11,3.3,1.3,6.9,2.4,10.4,1.6,3.5-.7,6.5-4,5.5-7.2-.5-1.5-1.7-2.7-2.8-3.8-6.8-6.5-9.7-9.4-16.5-16"/><path class="cls-1" d="M28.1,275c3.6,3.2,8.6,4.9,13.4,4.3"/><path class="cls-1" d="M93.6,279.3c4.4,1.9,8.7,2,12.7-.7"/><path class="cls-2" d="M65,28.9c-1.9-1.9-5.1-2.3-7.6-1.3-2.5,1-4.4,3.3-5.4,5.8-.7,1.8-1,3.8-1.8,5.6-.7,1.7-1.7,3.2-2.3,4.9-.6,1.7-10.5,16.8-1.1,18.4"/></svg>