<?xml version="1.0" encoding="UTF-8"?><svg id="latinAmerica" xmlns="http://www.w3.org/2000/svg" width="235" height="321.9" viewBox="0 0 235 321.9"><defs><style>.cls-1{stroke-linecap:round;stroke-linejoin:round;}.cls-1,.cls-2{fill:none;stroke:#000;}.cls-2{stroke-miterlimit:10;}.cls-3,.cls-4,.cls-5,.cls-6,.cls-7,.cls-8,.cls-9,.cls-10,.cls-11,.cls-12,.cls-13,.cls-14{stroke-width:0px;}.cls-4{fill:#605a58;}.cls-5{fill:#6eadbc;}.cls-6{fill:#a44256;}.cls-7{fill:#3a6793;}.cls-8{fill:#d2a599;}.cls-9{fill:#e0bfa4;}.cls-10{fill:#beb8b9;}.cls-11{fill:#a77b5e;}.cls-12{fill:#332921;}.cls-13{fill:#fff;}.cls-14{fill:#ffd351;}</style></defs><path class="cls-8" d="M218.2,198.7c3.2,1.3,3.7,5.8,2,8.8s-5,5.1-8.2,6.8c-9.7,5.2-20.2,8.8-30.5,12.3-1.3.4-2.7.8-3.8.3h-.4c-.4-.4-.7-.9-.9-1.4-1.7-3.6-3-7.4-3.9-11.3,0,0,0-.2,0-.3,1,4.1,11.6-7.2,10.9-8.6-.7-1.4-1.2-2.3-1.2-3.9.4,0,.8,0,1.2-.1h0c9.4-.9,20.7-2.1,29.9-3,1.7-.1,3.4-.3,4.9.3Z"/><path class="cls-11" d="M183.5,205.3c.7,1.4-9.9,12.7-10.9,8.6,0,0,0,.2,0,.3h-.2c-21.4-8.9-24.2-.2-37.1-12-11.5-2.2-12.9.2-20.8-.2.3-4.9-.9-9.9.8-14.6,1.3-3.7,2.5-8.2,5.5-10.9,9.7,4,9,2.4,21.1,9.8,15.9,5.9,24.5,9.2,40.4,15.1,0,1.6.5,2.5,1.2,3.9Z"/><path class="cls-8" d="M130.7,297.4c17.3,8.1,1,16.5-7.2,15.5-11.3-1.3-24.8-2.7-37.1-5-1.4-.3-2.7-1.1-3.3-2.4-.4-.9-.2-2,0-3,.9-4.3,1.4-10.3,3.3-14.2.2.6.5,1.1,1,1.7,1.7,2,5.2,3.6,7.2,2.6,1.5-.7,2.4-2.1,3.3-3.5.8-1.4,1.6-2.9,2.9-3.9,1.3-.9,2.5-1,3.6.3h.1c8.2,4.7,15.8,7,26.2,11.8Z"/><path class="cls-12" d="M122.3,62h0c.8-4.3-.4-8.3-2.4-10.2-2-1.9-3.6-2.3-7-1.8v-.2c.4-5.2-.2-8-3.5-12.1-3.2-3.9-7.3-5.7-12.2-6.3h0c20.8.6,30.5,13.7,28.3,31.8-1.5,6.2-3.1,10.3-6.7,15.6.8-4.6.6-8.5.9-9.6.7-2.5,1.6-3.8,2.6-7.3Z"/><path class="cls-11" d="M97.8,82.4h0c-.9,6.9,9.5,11.7,11.7,4-4.5-.5-7.6-1.3-11.6-4ZM99.6,97.4l-.3.7c.2.1.4.2.6.3h0c-3.4,4.2-6.3,11.3-7.5,16.7-.2,1.2-1.1,2.2-2.1,2.8-1.3.8-2.9.6-4.4.4-4.2-.6-8.3-1.2-12.5-1.8-1.4-.2-3-.5-3.9-1.7-.8-1-.8-2.5-.7-3.8.4-5.2,3.9-15,7.1-19.5.4,0,.7,0,1,0h.3c.1-1.8.2-3.9.1-6.1-.1-4.8-.6-9.9-1.2-12.8-.4-.3-.7-.6-1-.9-1.3-1.5-1.6-3.6-1.4-5.5.1-1.1.4-2.2,1.1-3.1.7-.9,1.7-1.6,2.8-1.6,1.1,0,2.3.8,2.5,1.9,3.3-7.2,8.8-15.1,15.1-17.2,3.3-1.1,6.1-1.8,9.2-1,3,.8,6.6,2,8.3,5,0,0,.2,0,.3,0,3.5-.6,5-.1,7,1.8,2,1.8,3.2,5.8,2.4,10.2h0c-1,3.6-1.9,4.8-2.6,7.3-.3,1.1-.2,5-.9,9.6h0c-.8,4.6-2.4,9.7-6.3,13,0,0-5.7,5.6-9.7,6.2-.5,0-1.6-.2-3.2-.8ZM116,73.1c.3-1.5,0-2.9-.9-3.1s-1.8.9-2.1,2.5c-.3,1.5,0,2.9.9,3.1s1.8-.9,2.1-2.5ZM100,69.1c.3-1.5-.1-2.8-1-3-.9-.2-1.8.9-2.2,2.3-.3,1.5.1,2.9,1,3,.9.2,1.8-.9,2.1-2.4Z"/><path class="cls-10" d="M114.5,202c0,.2,0,.5,0,.7-.4,4.1-1.5,8.1-3.8,11.5-.2.3-.4.6-.7,1-2.7,3.7-6.7,6.2-10.3,9.1-3,2.4-5.8,5.2-7.2,8.7-.2.5-.4,1.1-.6,1.7h-.3c-.4-1.2-1.8-3.8-3.8-7l.3-.2c-.4-4.2,2.1-8,5-11,2.9-3,6.4-5.5,8.7-8.9,3.5-5.2,4-11.8,5.1-18,1.1-6.1,3.4-12.7,8.8-15.8,3.3,1.2,5.7,2.3,5.1,2.8-3,2.7-4.2,7.3-5.5,10.9-1.6,4.6-.4,9.7-.8,14.6Z"/><path class="cls-13" d="M105.4,132.2c-.4,0-.9.1-1.3.2-.8.1-1.5.3-2.2.5-.2-1.7-.4-2.5-.6-3.7h.2c5.9-1.3,11.9-2,18-2.2.3,2.2.3,3.6,0,3.8-.2.2-.6.3-1.1.4-2.5.4-8.2.4-13.1,1Z"/><path class="cls-11" d="M105.7,135.1c-.1-.9-.3-2-.4-2.8,4.8-.7,10.6-.6,13.1-1h0c.3,3.7.6,9.3-1.1,12.8-1.1,2.2-2.3,2.4-3.3,3.1-4,1.6-7.4,2.5-10.5,3-8.4,1.3-14.8-.6-26.4-1.8-2.8,1-13,1.3-14.1-1.5-.9-2.3,2.9-14.1,6-15.6,2.9-1.4,13.3,4.2,13.4,7.4h0c8.5-1.6,12.4-1,21.4-3s1.2-.3,1.9-.4Z"/><path class="cls-11" d="M116.4,229.7c1.1,5.3-3.4,13.5-5.9,22.7-3,11-6,22.1-9.9,32.6l.3.3c-1.3.9-2.1,2.4-2.9,3.9-.8,1.4-1.8,2.9-3.3,3.5-2,.9-5.5-.6-7.2-2.6-.3-11.2-1.2-29.3,2.4-39.8,1.2-3.5,2.5-7.7,3.1-11.4.6-3.8.6-3.1,0-5.8h-.4c1.4-3.6,4.3-6.4,7.2-8.8,3.6-2.9,7.6-5.4,10.3-9.1.2-.3.5-.6.7-1l.4.2c.4.6,5.1,14.5,5.3,15.2Z"/><path class="cls-3" d="M115.1,69.9c.8.2,1.2,1.6.9,3.1-.3,1.5-1.3,2.6-2.1,2.5s-1.2-1.6-.9-3.1c.3-1.5,1.3-2.6,2.1-2.5Z"/><path class="cls-14" d="M56,119.2h-.1c-4.3,4-3.9,3.3-5.4,4.3.6-.4,1.2-.9,1.7-1.3l-.2-.3c-4.8-5.1-7.4-12.1-7.1-19,1.1-1,2.1-2,2.4-2.3,4.4-4,7.6-7.2,13.4-8.4.5,0,4.7-.3,8.8-.4,1.1,0,2.2,0,3.2-.1-4.9,6.3-7.4,14.5-6.8,22.5,0,1.2-.2,2.4.6,3.3.9.9,2.7,1.7,3.9,1.9,6.4.7,12.5,2.3,18.9,2.9,1,.1,2.1-.4,3-.8,1-.4,2-2.7,2.4-3.6,2.9-7.1,3.7-12.9,7.8-18v-.2c4.5,2,10.6,4.7,11.9,7.9,3,7.5,4.5,15.1,5,19.5-6,.2-12.1.9-18,2.2h-.2c.2,1.3.4,2.1.6,3.7.7-.2,1.4-.4,2.2-.5,0,1.3-.1,1.8-.2,3.1-9,2.1-12.9,1.4-21.4,3.2h0c-.1-3.3-10.5-8.9-13.4-7.5-3.1,1.5-7,13.2-6,15.6,1.1,2.8,11.3,2.5,14.1,1.5,11.6,1.3,18,3.2,26.4,1.8-.8,3.2,1.3,14.9,1.4,20.1h0c-1.9-.4-3.4-1-5.2-1.8-2-.9-4.5-1.8-8.2-2.8-.7-.2-1.3-.3-2.1-.5-2.3-.5-4.6-1-6.8-1.5-1.1-.2-2.1-.4-3.1-.6-2.1-.4-4.2-.8-6.3-1-3.1-.3-6.1-.4-9.1-.1-3.8.4-7.4,1.5-10.9,3.6,0-.7,0-1.4.1-2.1h0c.2-9.5.6-5.1,2.9-31.2h0c0-5,.2-8.8-.3-12.9Z"/><path class="cls-12" d="M109.4,37.9c3.3,4,3.9,6.9,3.4,12.1v.2c0,0-.2,0-.2,0-1.7-3-5.2-4.3-8.3-5-3-.7-5.9,0-9.2,1-6.3,2.1-11.8,10-15.1,17.2-.2-1.1-1.4-1.9-2.5-1.9-1.1,0-2.2.6-2.8,1.6-.7.9-1,2-1.1,3.1-.2,1.9.2,4,1.4,5.5.3.4.7.7,1,.9.6,2.9,1.1,8,1.2,12.8h-.1c-1.1-1.1-2.3-2.4-3.5-3.9-6.1-7.5-12.1-19.7-1.7-37.5,4-6.9,14.5-13.1,24.4-12.6h.3c.2,0,.4,0,.6.1,4.9.7,9,2.5,12.2,6.3Z"/><path class="cls-5" d="M115.7,173.7c-5.4,3-7.6,9.6-8.8,15.8-1.1,6.2-1.6,12.8-5.1,18-2.3,3.5-5.8,6-8.7,8.9-2.9,3-5.4,6.8-5,11l-.3.2c-1.6-2.6-3.5-5.7-5.7-9.1,0-3.5,2.6-6.5,4.8-9.4,6.1-8.2,10.1-18.9,11.1-24.4,1-5.3,4.8-10.8,9.6-13.7,2.7.8,5.6,1.8,8,2.6Z"/><path class="cls-6" d="M105.9,170.5c.6.2,1.2.4,1.8.6-4.9,2.8-8.6,8.3-9.6,13.7-1,5.6-5,16.2-11.1,24.4-2.2,2.9-4.9,5.9-4.8,9.4-1.8-2.7-3.6-5.6-5.6-8.5l.6-.4c6.5-6.6,5.9-15,9.2-23,2.9-7.1,6.3-14.9,13.2-18.2h0c1.8.6,3.3,1.3,5.2,1.8.3,0,.7.2,1,.2Z"/><path class="cls-7" d="M104.9,170.2c.3.1.7.2,1,.3-.4,0-.7-.1-1-.2h0Z"/><path class="cls-13" d="M109.4,86.4c-2.2,7.7-12.6,2.9-11.7-3.9h0c4,2.6,7.1,3.4,11.6,3.9Z"/><path class="cls-13" d="M102.6,99.7v.2c-4.2,5.1-5,10.9-7.9,18-.4,1-1.4,3.2-2.4,3.6-.9.4-2,.9-3,.8-6.4-.6-12.5-2.3-18.9-2.9-1.2-.1-3.1-1-3.9-1.9-.8-.8-.5-2.1-.6-3.3-.6-8,1.9-16.2,6.8-22.5,1.2,0,2.2-.1,3.1-.2-3.2,4.5-6.6,14.3-7.1,19.5-.1,1.3,0,2.7.7,3.8.9,1.1,2.5,1.4,3.9,1.7,4.2.6,8.3,1.2,12.5,1.8,1.5.2,3.2.4,4.4-.4,1-.6,1.8-1.7,2.1-2.8,1.2-5.4,4.1-12.6,7.5-16.6h0c.8.3,1.7.7,2.7,1.2Z"/><path class="cls-3" d="M99,66.1c.9.2,1.3,1.5,1,3-.3,1.5-1.3,2.5-2.1,2.4-.9-.2-1.3-1.5-1-3,.3-1.5,1.3-2.5,2.2-2.3Z"/><path class="cls-4" d="M99.7,168.4h0c-7,3.4-10.3,11.2-13.2,18.3-3.3,8-2.7,16.4-9.2,23l-.6.4c-2-3-4-6-6-8.8,3.7-7.1,3.3-10,6.5-18,2.8-6.8,7.8-14.1,14.3-17.6,3.7.9,6.2,1.9,8.2,2.8Z"/><path class="cls-10" d="M89.4,165.1c.7.2,1.4.3,2.1.5-6.5,3.5-11.5,10.8-14.3,17.6-3.3,8-2.8,10.9-6.5,18-2.5-3.6-4.8-6.8-6.6-9.4l.3-.2c.9-5.3,1.1-3.8,4.4-11.9,2.8-6.8,7.3-12.7,13.8-16.1,2.2.5,4.5,1,6.8,1.5Z"/><path class="cls-5" d="M79.5,163c1,.2,2.1.4,3.1.6-6.5,3.4-11,9.3-13.8,16.1-3.3,8-3.4,6.6-4.4,11.9l-.3.2c-.1-.1-.2-.3-.3-.4l-.4-.4c-1.6-1.9-3.5-4.1-5.3-6.8h.1c2-8.9,8.1-15.7,14.9-21.6v-.6c2.2.2,4.3.6,6.4,1Z"/><path class="cls-12" d="M75.8,91.6c-.8,0-1.9.1-3.1.2-1,0-2.1,0-3.2.1h0c1.3-5.4,2.1-7.1,4-10.3h.2c1.2,1.3,2.4,2.6,3.5,3.7h.1c0,2.2,0,4.3-.1,6.2h-.3c-.3,0-.6,0-1,0Z"/><path class="cls-6" d="M73.1,161.9v.6c-6.9,5.9-13,12.8-15,21.5h-.1c-1.9-2.9-3.6-6.5-4.4-11.2h.1c2.2-4.6,5.8-8.4,10.3-10.7v-.3c2.9-.3,6-.2,9.1.1Z"/><path class="cls-4" d="M64,161.8v.3c-4.4,2.3-8.1,6.1-10.3,10.7h-.1c-.4-2.2-.6-4.6-.5-7.4,3.4-2.1,7.1-3.2,10.9-3.6Z"/><path class="cls-13" d="M51.9,122l.2.3c-.5.4-1.1.8-1.7,1.3,0,0,0,0,0,0-.2.1-.5.3-.8.5-5.1-2.7-7.6-12.2-8-15.9,0-.6-.1-1.1,0-1.3,0-.6,1.8-2.4,3.3-3.9-.3,6.9,2.3,13.9,7.1,19Z"/><path class="cls-9" d="M50.4,123.5c-.2.2-.5.4-.8.5.3-.2.6-.4.8-.5Z"/><path class="cls-11" d="M24.4,153.8h0c2.6.7,5,10.2,3.3,12.3-1.8,2.2-12.2,3.2-13.9,2-2.1-1.4.2-9.6,1.6-11.7,2.9-13,4.6-19.8,12.2-30.7,3.5-4.9,10.3-13.9,13.8-17.5.5,3.7,2.9,13.2,8,15.9-3.6,2.5-8.6,5.6-12.8,8.9-5,9.1-8.7,13.4-12.4,20.8Z"/><path class="cls-1" d="M50.4,123.5c-.2.1-.5.3-.8.5-5.1-2.7-7.6-12.2-8-15.9,0-.6-.1-1.1,0-1.3,0-.6,1.8-2.4,3.3-3.9,1.1-1,2.1-2,2.4-2.3,4.4-4,7.6-7.2,13.4-8.4.5,0,4.7-.3,8.8-.4,1.1,0,2.2,0,3.2-.1,1.2,0,2.2-.1,3.1-.2.4,0,.7,0,1,0"/><path class="cls-1" d="M55.9,119.2c-4.3,4-3.9,3.3-5.4,4.3"/><path class="cls-1" d="M41.6,108.2c-3.5,3.5-10.3,12.6-13.8,17.5-7.6,10.9-9.4,17.7-12.2,30.7"/><path class="cls-1" d="M52.2,122.2s0,0,0,0c-.5.4-1.1.8-1.7,1.3,0,0,0,0,0,0-.2.2-.5.4-.8.5-3.6,2.5-8.6,5.6-12.8,8.9-5,9.1-8.7,13.4-12.4,20.8,0,.2-.2.4-.3.6"/><path class="cls-1" d="M24.5,153.9c2.6.7,5,10.2,3.3,12.2-1.8,2.2-12.2,3.2-13.9,2-2.1-1.4.2-9.6,1.6-11.7"/><path class="cls-1" d="M101,124.4c0,2.4.1,3.7.3,4.8.2,1.2.4,2.1.6,3.7.7-.2,1.4-.4,2.2-.5.4,0,.8-.1,1.3-.2,4.8-.7,10.6-.6,13.1-1,.6-.1,1-.2,1.1-.4.2-.2.2-1.6,0-3.8-.5-4.4-2-12-5-19.5-1.3-3.2-7.4-5.9-11.8-7.9-1-.5-2-.9-2.7-1.3-.2-.1-.4-.2-.6-.3"/><path class="cls-1" d="M114,147.1c-4,1.6-7.4,2.5-10.5,3-8.4,1.3-14.8-.6-26.4-1.8"/><path class="cls-1" d="M107.8,134.5c-.7.2-1.4.4-2.1.5-.6.2-1.3.3-1.9.4-9,2.1-12.9,1.4-21.4,3.2-.2,0-.5.1-.7.2"/><path class="cls-1" d="M82.4,138.5c-.1-3.2-10.5-8.7-13.4-7.4-3.1,1.5-7,13.2-6,15.6,1.1,2.8,11.3,2.5,14.1,1.5"/><path class="cls-1" d="M118.5,131.2c.3,3.6.6,9.3-1.1,12.8-1.1,2.2-2.3,2.4-3.3,3.1"/><path class="cls-1" d="M56.2,132.1c-2.3,26.1-2.7,21.7-2.9,31.2,0,.1,0,.3,0,.4"/><path class="cls-1" d="M103.5,150s0,0,0,0c-.8,3.2,1.3,14.9,1.4,20.1h0"/><path class="cls-1" d="M54.8,111.8c.6,2.7,1,5.1,1.3,7.3.4,4.1.4,7.9.3,12.9,0,.3,0,.5,0,.8"/><path class="cls-1" d="M91.8,235.2c0-.2,0-.4.1-.6.1-.6.3-1.1.6-1.7,1.4-3.5,4.3-6.3,7.2-8.7,3.6-2.9,7.6-5.4,10.3-9.1.2-.3.5-.6.7-1,2.2-3.4,3.3-7.4,3.8-11.5,0-.2,0-.5,0-.7.3-4.9-.9-9.9.8-14.6,1.3-3.7,2.5-8.2,5.5-10.9.6-.5-1.8-1.6-5.1-2.8-2.4-.9-5.4-1.8-8-2.6-.6-.2-1.2-.4-1.8-.6-.3-.1-.7-.2-1-.3-1.5-.5-2.7-.8-3.6-1.1"/><path class="cls-1" d="M63.8,191.4c.1.1.2.3.3.4,1.8,2.5,4.1,5.8,6.6,9.4,1.9,2.8,4,5.8,6,8.8,1.9,2.9,3.8,5.8,5.6,8.5,2.1,3.3,4.1,6.4,5.7,9.1,2,3.3,3.4,5.8,3.8,7"/><path class="cls-1" d="M111.1,214.4c.4.6,5.1,14.5,5.3,15.2,1.1,5.3-3.4,13.5-5.9,22.7-3,11-6,22.1-9.9,32.6"/><path class="cls-1" d="M92.9,233.1c.6,2.7.6,2,0,5.8-.5,3.7-1.9,7.9-3.1,11.4-3.5,10.5-2.7,28.6-2.4,39.8"/><path class="cls-1" d="M86.5,288.4c.2.6.5,1.1,1,1.7,1.7,2,5.2,3.6,7.2,2.6,1.5-.7,2.4-2.1,3.3-3.5.8-1.4,1.6-2.9,2.9-3.9,1.3-.9,2.5-1,3.6.3"/><path class="cls-1" d="M86.5,288.4c-1.9,3.9-2.4,9.9-3.3,14.2-.2,1-.4,2,0,3,.6,1.3,1.9,2.1,3.3,2.4,12.3,2.3,25.7,3.7,37.1,5,8.2,1,24.5-7.5,7.2-15.5-10.4-4.8-17.9-7.1-26.2-11.7"/><path class="cls-1" d="M53.3,163.3c0,.7-.1,1.4-.1,2.1-.1,2.7,0,5.2.5,7.4.8,4.7,2.5,8.3,4.4,11.3,1.8,2.7,3.7,4.9,5.3,6.8"/><path class="cls-1" d="M120.8,176.5c9.7,4,9,2.4,21.1,9.8"/><path class="cls-1" d="M114.4,202s0,0,.1,0c7.9.3,9.3-2,20.8.2"/><path class="cls-1" d="M135.3,202.2c12.9,11.8,15.7,3.1,37.1,12"/><path class="cls-1" d="M182.3,201.4c-15.9-5.9-24.5-9.2-40.4-15.1"/><path class="cls-1" d="M182.2,200.7s0,0,0,0c0,.1.3.7,1.2.5"/><path class="cls-1" d="M172.6,213.9c1,4.1,11.6-7.2,10.9-8.6-.7-1.4-1.2-2.3-1.2-3.9,0-.4,0-.6,0-.7"/><path class="cls-1" d="M177.7,226.9c1.1.6,2.5.1,3.8-.3,10.4-3.6,20.8-7.2,30.5-12.3,3.2-1.7,6.4-3.7,8.2-6.8s1.2-7.5-2-8.8c-1.5-.6-3.2-.5-4.9-.3-9.2.8-20.5,2.1-29.9,3h0c-.4,0-.8,0-1.2.1"/><path class="cls-1" d="M172.6,213.9c0,0,0,.2,0,.3.8,3.9,2.1,7.7,3.9,11.3.3.5.5,1.1.9,1.5.2.3.5.5.8.7"/><path class="cls-1" d="M106.4,170.6c-.2,0-.3,0-.5,0-.4,0-.7-.1-1-.2-1.9-.5-3.4-1.1-5.2-1.9-2-.9-4.5-1.8-8.2-2.8-.7-.2-1.3-.3-2.1-.5-2.3-.5-4.6-1-6.8-1.5-1.1-.2-2.1-.4-3.1-.6-2.1-.4-4.2-.8-6.3-1-3.1-.3-6.1-.4-9.1-.1-3.8.4-7.4,1.5-10.9,3.6,0,0,0,0,0,0"/><path class="cls-2" d="M76.1,91.2c0,.1-.2.2-.3.4-3.2,4.5-6.6,14.3-7.1,19.5-.1,1.3,0,2.7.7,3.8.9,1.1,2.5,1.4,3.9,1.7,4.2.6,8.3,1.2,12.5,1.8,1.5.2,3.2.4,4.4-.4,1-.6,1.8-1.7,2.1-2.8,1.2-5.4,4.1-12.6,7.5-16.6"/><path class="cls-2" d="M100.7,117.5c.1,2.2.3,4.5.4,7"/><path class="cls-2" d="M105.3,132c0,0,0,.1,0,.2.1.9.3,2,.4,2.8,0,0,0,.2,0,.3"/><path class="cls-1" d="M104.1,132.4c0,1.3-.1,1.8-.2,3.1"/><path class="cls-1" d="M44.8,102.8c0,0,0,.1,0,.2-.3,6.9,2.3,13.9,7.1,19"/><path class="cls-1" d="M101.5,129.2c5.9-1.2,11.9-2,18-2.2.1,0,.3,0,.4,0"/><path class="cls-2" d="M116,173.6c0,0-.1,0-.2.1-5.4,3-7.6,9.6-8.8,15.8-1.1,6.2-1.6,12.8-5.1,18-2.3,3.5-5.8,6-8.7,8.9-2.9,3-5.4,6.8-5,11"/><path class="cls-2" d="M108.4,170.7c-.2.1-.5.2-.7.4-4.9,2.8-8.6,8.3-9.6,13.7-1,5.6-5,16.2-11.1,24.4-2.2,2.9-4.9,5.9-4.8,9.4,0,.2,0,.3,0,.5"/><path class="cls-2" d="M99.6,168.5c-7,3.3-10.3,11-13.2,18.2-3.3,8-2.7,16.4-9.2,23"/><path class="cls-2" d="M92.4,165.1c-.3.2-.7.3-1,.5-6.5,3.5-11.5,10.8-14.3,17.6-3.3,8-2.8,10.9-6.5,18,0,0,0,0,0,0"/><path class="cls-2" d="M83.4,163.2c-.3.1-.5.3-.8.4-6.5,3.4-11,9.3-13.8,16.1-3.3,8-3.4,6.6-4.4,11.9"/><path class="cls-2" d="M73.1,162.5c-6.8,5.9-12.9,12.8-14.9,21.5"/><path class="cls-2" d="M64.1,162.1c-4.5,2.3-8.1,6.1-10.3,10.7"/><path class="cls-2" d="M73,91.3c-.1.1-.2.3-.3.4-4.9,6.3-7.4,14.5-6.8,22.5,0,1.2-.2,2.4.6,3.3.9.9,2.7,1.7,3.9,1.9,6.4.7,12.5,2.3,18.9,2.9,1,.1,2.1-.4,3-.8,1-.4,2-2.7,2.4-3.6,2.9-7.1,3.7-12.9,7.8-18"/><path class="cls-1" d="M97.2,31.4c20.8.7,30.5,13.8,28.3,32,0,0,0,.1,0,.2"/><path class="cls-1" d="M80,63.4c3.3-7.2,8.8-15.1,15.1-17.2,3.3-1.1,6.1-1.8,9.2-1,3,.8,6.6,2,8.3,5,0,0,.2,0,.3,0,3.5-.6,5-.1,7,1.8,2,1.8,3.2,5.8,2.4,10.2"/><path class="cls-1" d="M76.5,95.3c.3-.9.5-2.2.6-3.7.1-1.8.2-4,.1-6.2-.1-4.8-.6-9.9-1.2-12.8h0"/><path class="cls-1" d="M73.5,81.7c-1.9,3.1-2.7,4.8-4,10.1"/><path class="cls-1" d="M96.3,31.4c-9.9-.4-20.4,5.7-24.4,12.6-10.4,17.8-4.4,30,1.7,37.5,1.2,1.5,2.4,2.8,3.5,3.9"/><path class="cls-1" d="M118.8,79c-.8,4.5-2.4,9.7-6.3,13,0,0-5.7,5.6-9.7,6.2-.5,0-1.6-.2-3.2-.8-5.8-2.2-17-8.5-19.3-13.2"/><path class="cls-1" d="M122.3,62s0,0,0,0c-1,3.5-1.9,4.8-2.6,7.3-.3,1.1-.2,5-.9,9.6"/><path class="cls-1" d="M118.5,66.6c-.2-2.5-4-3.1-5.1-1.7"/><path class="cls-1" d="M102.4,61c-1.2-1.9-4.9-2.9-7.5-.7"/><path class="cls-1" d="M110.8,79.9c.2,3-3.2,2.3-6.8,1"/><path class="cls-1" d="M113,72.4c-.3,1.5,0,2.9.9,3.1s1.8-.9,2.1-2.5c.3-1.5,0-2.9-.9-3.1s-1.8.9-2.1,2.5Z"/><path class="cls-1" d="M96.9,68.4c-.3,1.5.1,2.9,1,3,.9.2,1.8-.9,2.1-2.4.3-1.5-.1-2.8-1-3-.9-.2-1.8.9-2.2,2.3Z"/><path class="cls-1" d="M109.4,86.4c-4.5-.5-7.6-1.3-11.6-4-.2-.1-.5-.3-.7-.5"/><path class="cls-1" d="M109.4,86.4c-2.2,7.7-12.6,2.9-11.7-3.9"/><path class="cls-1" d="M125.5,63.4c-1.5,6.2-3.1,10.3-6.7,15.6h0c0,0-.1.2-.2.3"/><path class="cls-1" d="M80,63.4c-.2-1.1-1.4-1.9-2.5-1.9-1.1,0-2.2.6-2.8,1.6-.7.9-1,2-1.1,3.1-.2,1.9.2,4,1.4,5.5.3.4.7.7,1,.9,1.3.8,2.9,1,4.2.4,0-.2,0-.4,0-.6"/><path class="cls-1" d="M112.8,49.9c.5-5.2-.1-8-3.4-12.1-3.2-3.9-7.3-5.7-12.2-6.3-.2,0-.4,0-.6,0"/></svg>