<?xml version="1.0" encoding="UTF-8"?><svg id="latinAmerica" xmlns="http://www.w3.org/2000/svg" width="235" height="321.9" viewBox="0 0 235 321.9"><defs><style>.cls-1{fill:none;stroke:#000;stroke-linecap:round;stroke-linejoin:round;}.cls-2,.cls-3,.cls-4,.cls-5,.cls-6,.cls-7,.cls-8,.cls-9{stroke-width:0px;}.cls-3{fill:#49506b;}.cls-4{fill:#402a1f;}.cls-5{fill:#434246;}.cls-6{fill:#1f2076;}.cls-7{fill:#b27f62;}.cls-8{fill:#fff;}.cls-9{fill:#e52e20;}</style></defs><path class="cls-3" d="M136.9,303.1c2.4,2.5,1,6.5-2,8.4-3,2-7,2.3-10.7,2.5-11.5.4-18.9-3.1-30.3-4.4-1.4-.1-2.9-.4-3.7-1.3-.6-.7-.6-1.6-.7-2.5,0-3.7.5-7.5,1.5-11.1l.4-.3c.3.4.6.8,1.1,1.1,2,1.5,5.6,2.3,7.4,1.1,1.3-.9,1.9-2.3,2.4-3.6.5-1.4,1-2.8,2.1-3.8s2.3-1.3,3.6-.5h.1c9.4,3.2,14.8,8.8,24.3,12,1.6.6,3.3,1.2,4.5,2.3Z"/><path class="cls-7" d="M116.9,166.2h.1c3.4-1,7.3,4.2,8.8,7,1.4,2.8-2.2,5.7-5,7.6s-4.5,2.6-7.4.8c-1.4-.8-2.5-2.1-3-3.5,0,0,0-.2,0-.3-.4-2.8,3.3-9.3,6.5-11.7,0,0,0,0,.1,0Z"/><path class="cls-5" d="M67.5,218.3h0c-3.8,12.6-8.5,29.2-14.1,39.5-1,1.8-12.4,23.7-13.4,25.1-2.5-.3-4.6-.6-6.4-.9-5.8-1-9.2-2.3-14.2-4.9-1.4-.7-2.8-1.5-4.5-2.5.9-1.1,12.2-25.3,12.9-26.5,10.4-17.4,4-39.7,10.7-57.1h0c6.2,1.5,11.9,2.8,17.4,3.8,10.3,1.9,20.1,2.5,32.2,1.4,5,4.3,19.1,24.2,20.2,33.5,1.4,11.8,1.5,18.5,1.6,23,0,1.6,1.5,27.1,1.6,28.3-2.4.6-4.5,1-6.5,1.4-5.1.8-9,.9-13.7.9-1.5,0-3.1,0-4.9,0-.2-1.8-3.6-25.9-3.8-29.2-.4-9.8-2.1-24.6-15-35.7h-.2Z"/><path class="cls-7" d="M110.2,177.8h-.2c-2.4-5.7-13.4-18.6-16.8-25.6,2.8-1.4,6.3-4.1,9.5-7.1h0c4.5,6.4,8.7,17.6,13.9,21-3.2,2.4-6.9,8.9-6.5,11.7Z"/><path class="cls-7" d="M92.6,295.6c0,0-.5-5.1-1.3-12.3h0c4.7,0,8.6-.2,13.7-1v.2c-.2,2.8-.2,4.3-.5,6.9-1.1,1-1.6,2.5-2.1,3.8-.5,1.3-1.1,2.8-2.4,3.6-1.8,1.2-5.4.4-7.4-1.1h0Z"/><path class="cls-6" d="M104.2,143.7c-.5.5-.9.9-1.4,1.4-3.3,3.1-6.7,5.7-9.5,7.1-.6-1.3-1-2.5-1-3.3,0-.3,0-.5,0-.8h0c3.8-1.5,6.7-4.3,10.1-8.2.6,1.5,1.2,2.8,1.8,3.8Z"/><path class="cls-8" d="M101,136.1c.5,1.4,1,2.7,1.5,3.8-3.4,3.9-6.3,6.7-10.1,8.2h0c.1-1.9.2-3.7.2-5.5h.4c3.2-1.4,6-3.6,8.1-6.5Z"/><path class="cls-9" d="M92.6,142.6c0,1.8-.1,3.7-.2,5.5,0,.3,0,.5,0,.8-.9,16.2-3.6,33.1-4.2,47.2-12.1,1.1-22,.4-32.2-1.4l.2-1.1c.6.1,1,.1,1.4,0,2.1-.9,6.8-10.1,5.6-12.6-1.1-2.4-11.9-4.7-14-2.8h0c-2.7-3.4-4.5-8-6.4-12.7h.3c1.2-10.5,1.9-21,1-27.8h-.2c-.7,1.4-1.4,2.9-2.1,4.2h-.1c-6.3-1.3-11.6-4-17-7.8,2.3-4.8,5.1-10.1,5.5-10.8,3.7-6.3,9.6-12.5,17.6-13.7h0c-.1.2-.2.4-.3.6,1,.3,1.9.5,2.9.9,9,2.8,18.5,7.3,25.7,13,1.3-5,5.9-9.5,10.1-12.7l.2.2c7.6,5,11.6,16.4,14.6,24.7-2.1,2.9-4.9,5.2-8.1,6.5h-.4Z"/><path class="cls-4" d="M98.3,52.6c2.3,6.6,1.8,9.7.6,17.6h-.4c0,0,0,0,0-.1-.1-3.5-.9-8.6-3.4-11.1-1.6-1.6-2.8,0-4.8.7-1.9.8-3.9,1.3-5.9,1-4.5-.7-6.4-4.7-10.8-5.9-4.3-1.1-7.4,3.2-9.9,6.7-2.2,3.1-4.8,7.3-5.6,8.5-.8,1.2-4,.6-3.8-.9h-.2c-.2-1.8-1.9-2.8-3.2-2.2-1.4.6-2.4,2.4-2.8,4.3s-.1,3.7.3,5.5c.4,1.6.9,3.2,1.9,4.1.5.5,1,.8,1.7.8v.2c.2,3.2,1,6.4,2.1,9.2-14-13.9-8.4-35.4-4.3-40.5,6.1-7.5,16.4-12,25.4-11.3,8,.6,19.7,3.8,23.1,13.5Z"/><path class="cls-7" d="M54,90.9c-1.1-2.8-1.9-5.9-2.1-9.2v-.2c-.6,0-1.2-.4-1.6-.8-1-1-1.5-2.5-1.9-4.1-.4-1.7-.6-3.6-.3-5.5s1.4-3.6,2.8-4.3c1.4-.6,3,.3,3.2,2.2h.2c-.2,1.5,3,2.1,3.8.9.8-1.2,3.4-5.3,5.6-8.5,2.5-3.5,5.6-7.8,9.9-6.7,4.4,1.1,6.3,5.2,10.8,5.9,2,.3,4-.2,5.9-1,1.9-.8,3.2-2.3,4.8-.7,2.5,2.5,3.3,7.6,3.4,11.1h0c-1.5,12.4-6.2,25.4-10.8,29.8-2.5,2.4-5,4.9-7.8,6.6-.3.2-.6.3-.9.5-4.9,2.6-10.7,2.3-18.5-5.7-.4-.4-.8-.8-1.2-1.3-1.5-1.6-3.6-4.9-5.2-9.1ZM83.4,96.2c-4.4,1.4-12.2-.6-16.6-2.3-.9-.4,3.2,5.3,9.1,5.7,3.4.2,5.9-.4,7.5-3.3h0ZM94,71.4c.3-.5.4-1.6,0-2.1-.4-.5-.9-.8-1.5-1-.9-.4-1.9-.6-2.9-.7-.8,0-1.7,0-2.3.5-.6.5-.4,2,.4,2.3,1.1-.4,5.3.1,6.3,1.1ZM91.3,79.2c.2-1.5-.4-2.9-1.1-3s-1.6,1.1-1.7,2.7c-.2,1.6.4,2.9,1.1,3,.8,0,1.6-1.1,1.7-2.7ZM74.8,68.8c.5,0,.9-1,.8-1.5,0-.5-.5-.9-1-1.1s-1-.2-1.5-.3c-2.1-.1-3.8-.2-5.5,1-.2.1-.4.3-.5.5-.2.3,0,.5.2.6.7.3,7.1.8,7.5.8ZM73,77.5c.2-1.8-.5-3.3-1.4-3.4-1-.1-1.9,1.3-2.1,3.1-.2,1.8.5,3.3,1.4,3.4,1,0,1.9-1.3,2.1-3.1Z"/><path class="cls-2" d="M94,69.3c.4.5.3,1.6,0,2.1-1-1-5.2-1.4-6.3-1.1-.8-.2-1-1.7-.4-2.3.6-.5,1.5-.6,2.3-.5,1,.1,2,.3,2.9.7.6.2,1.1.5,1.5,1Z"/><path class="cls-2" d="M90.2,76.3c.8,0,1.3,1.4,1.1,3-.2,1.6-.9,2.8-1.7,2.7-.8,0-1.3-1.4-1.1-3,.2-1.6.9-2.7,1.7-2.7Z"/><path class="cls-6" d="M58.9,106c2.4,5.3,10.1,11.7,15.8,11,1.7-.2,2.5-1.5,3.9-4.4.7-1.6,1-4.1.5-5.7h0c.3-.2.6-.4.9-.6h0c1.6.5,6,2.8,6.9,3.9l.2.2c-.3.2-.6.5-1,.7-4.2,3.1-8.8,7.7-10.1,12.7-7.3-5.6-16.8-10.2-25.7-13v-.3c2-3.2,5.4-4.5,9.1-5.4h.1c0,.2-.1.5-.2.7h-.3Z"/><path class="cls-8" d="M83.4,96.2h0c-1.7,3-4.1,3.7-7.5,3.4-5.8-.4-10-6.1-9.1-5.7,4.3,1.7,12.1,3.7,16.6,2.3Z"/><path class="cls-7" d="M79.1,107c.5,1.6.2,4.1-.5,5.7-1.3,2.9-2.2,4.2-3.9,4.4-5.7.7-13.5-5.7-15.8-11h.3c0-.4.2-.6.2-.8.4-1.3.7-1.9.9-3.2,0-.2,0-.4,0-.7h.1c7.9,7.9,13.6,8.1,18.5,5.6h0Z"/><path class="cls-2" d="M75.6,67.3c0,.5-.3,1.5-.8,1.5-.5,0-6.8-.5-7.5-.8-.3,0-.4-.3-.2-.6.1-.2.3-.4.5-.5,1.8-1.2,3.5-1.1,5.5-1,.5,0,1,0,1.5.3s.9.6,1,1.1Z"/><path class="cls-2" d="M71.6,74.1c1,0,1.6,1.6,1.4,3.4-.2,1.8-1.1,3.2-2.1,3.1-1,0-1.6-1.6-1.4-3.4.2-1.8,1.1-3.2,2.1-3.1Z"/><path class="cls-7" d="M49,178.2h0c2.1-1.9,12.8.4,14,2.8,1.2,2.6-3.5,11.7-5.6,12.6-.4.2-.9.2-1.4,0-3.1-.6-8.2-5-9.4-6.8-2.5-1.8-4.6-3.7-6.6-5.8-7.1-7.4-11.5-16.1-16.7-25.1-1.8-3-1.4-6.4.7-11.8h0c3,2.1,7.9,4.6,12.5,4.8-.7,1.2.2,1-1,2.8,3.1,4.2,5.1,9,7,13.7,1.9,4.7,3.7,9.3,6.4,12.8Z"/><path class="cls-3" d="M16,290.4c2.1,1.9,9.8,2.5,10.7,1.5,0,0,.1-.1.2-.2,1-1,2.1-2.1,3.5-2.7,1.5-.6,2.3-.6,3.2.6h0c6.8,11.9,4.3,11.8,14.8,17.1,1.5.7,3.1.2,3.5,1.7,1.9,7.4-2.1,11.5-9,10.2-10.9-2.2-16.9-5.1-33.4-15.1-1.1-.7-2.4-1.3-2.7-2.4-.2-.8.2-1.7.5-2.5,1.6-3.4,5.2-6.5,7.7-9.4l.4.3c0,.3.2.6.5.8Z"/><path class="cls-8" d="M59.9,101.9h.5c-.2,1.3-.4,1.9-.9,3.2h-.1c-3.6,1-7,2.2-8.9,5.4v.3c-1.1-.3-2.1-.6-3.1-.9,0-.2.2-.4.3-.6,2.3-4.8,7.3-6.8,12.2-7.5Z"/><path class="cls-9" d="M56.1,193.6l-.2,1.1c-5.5-1-11.2-2.4-17.4-4-.4,0-.7-.2-1.1-.3,1.9-5,1.3-3.8,2.2-9l.5-.4c2,2,4.1,4,6.6,5.8,1.1,1.8,6.3,6.2,9.4,6.8Z"/><path class="cls-8" d="M41.5,141.7h.1c-.6,1.3-1.3,2.5-1.9,3.5h-.2c-6-1-11.7-3.3-16.7-6.8h-.3c.6-1.3,1.3-2.8,2-4.4,5.3,3.8,10.6,6.5,17,7.8Z"/><path class="cls-6" d="M36.6,148.9c-4.6-.2-9.5-2.7-12.5-4.8-1.6-1.1-2.6-2.1-2.8-2.5,0-.2.4-1.6,1.2-3.4h.3c5,3.6,10.8,5.9,16.7,6.9h.2c-1,1.8-1.9,3.1-2.6,3.8-.2,0-.4,0-.5,0Z"/><path class="cls-7" d="M33.5,281.9v.2c-2.6,4.1-4.5,7.1-6.7,9.7h0c0,.1-.1.2-.2.3-1,1-8.7.3-10.7-1.5.8-3.7,1.7-7.9,3.2-13.3v-.2c5.1,2.6,8.5,3.9,14.3,4.9Z"/><path class="cls-1" d="M48.5,126.3c-1.3,3.5-3,7.5-4.7,11.2-.7,1.5-1.4,2.9-2.1,4.3-.6,1.3-1.3,2.4-1.9,3.5-1,1.7-1.9,3.1-2.6,3.7-.2,0-.4,0-.5,0-4.6-.2-9.5-2.7-12.5-4.8-1.6-1.1-2.6-2.1-2.8-2.5,0-.2.4-1.6,1.2-3.4.6-1.3,1.3-2.8,2-4.3,2.3-4.8,5.1-10.1,5.5-10.8,3.7-6.3,9.6-12.5,17.6-13.7"/><path class="cls-1" d="M39.6,181.4c-1,5.2-.4,4-2.2,9,.4,0,.7.2,1.1.3,6.2,1.6,11.9,3,17.4,4,10.3,1.9,20.1,2.5,32.2,1.4.6-14,3.2-31,4.2-47.2,0-.3,0-.5,0-.8.1-1.9.2-3.7.2-5.5.2-6.4,0-12.7-.8-18.4"/><path class="cls-1" d="M43.9,137.6c.9,6.8.3,17.3-1,27.7"/><path class="cls-1" d="M24.1,144.2c-2.1,5.4-2.4,8.8-.7,11.8,5.3,9,9.6,17.7,16.7,25.1,2,2,4.1,4,6.6,5.8"/><path class="cls-1" d="M36.7,148.8c0,0,0,.1-.1.2-.7,1.2.2,1-1,2.8,3.1,4.2,5.1,9,7,13.7,1.9,4.7,3.7,9.3,6.4,12.8l.4.5"/><path class="cls-1" d="M86.3,111.4c7.6,5,11.6,16.4,14.6,24.7.5,1.4,1,2.7,1.5,3.8.6,1.5,1.2,2.8,1.8,3.8-.5.5-.9.9-1.4,1.4-3.3,3.1-6.7,5.7-9.5,7.1-.3.2-.7.3-1,.5"/><path class="cls-1" d="M80,106.5c1.6.4,6,2.7,6.9,3.8"/><path class="cls-1" d="M49.1,178.1c2.1-1.8,12.8.5,14,2.8,1.2,2.6-3.5,11.7-5.6,12.6-.4.2-.9.2-1.4,0-3.1-.6-8.2-5-9.4-6.8"/><path class="cls-1" d="M92.3,149c0,.8.3,1.9,1,3.3,3.4,7,14.4,19.9,16.8,25.6"/><path class="cls-1" d="M102.8,145.1c4.5,6.4,8.7,17.6,13.9,21,0,0,0,0,.1,0,0,0,0,0,.1,0"/><path class="cls-1" d="M116.8,166.1h0c-3.2,2.5-6.9,8.9-6.5,11.8,0,.1,0,.2,0,.3.4,1.4,1.6,2.7,3,3.5,2.9,1.7,4.6,1,7.4-.8s6.4-4.8,5-7.6c-1.4-2.8-5.4-8.1-8.8-7.1"/><path class="cls-1" d="M38.4,190.9c-6.7,17.4-.3,39.7-10.7,57.1-.7,1.2-12,25.4-12.9,26.5,1.7.9,3.1,1.7,4.5,2.5,5,2.6,8.3,3.9,14.2,4.9,1.8.3,3.9.6,6.4.9,1-1.4,12.5-23.3,13.4-25.1,5.6-10.3,10.3-26.9,14.1-39.5h0c1.6-5.4,3.1-10,4.5-13.1"/><path class="cls-1" d="M33.4,282c-2.5,4.1-4.5,7.1-6.6,9.7"/><path class="cls-1" d="M19.2,277.1c-1.5,5.4-2.4,9.6-3.2,13.3,0,0,0,.1,0,.2"/><path class="cls-1" d="M67.6,218.3c12.9,11.1,14.5,25.9,15,35.7.1,3.3,3.5,27.4,3.8,29.2,1.8,0,3.4,0,4.9,0,4.7,0,8.6,0,13.7-.9,2-.3,4.1-.8,6.5-1.4,0-1.2-1.5-26.7-1.6-28.3,0-4.5-.2-11.2-1.6-23-1.1-9.3-15.2-29.2-20.2-33.5"/><path class="cls-1" d="M91.3,283.3c.7,7.2,1.2,12.3,1.3,12.3h0"/><path class="cls-1" d="M105,282.4c-.2,2.8-.2,4.3-.6,6.9"/><path class="cls-1" d="M91.4,294.6c.3.4.6.8,1.1,1.1,2,1.5,5.6,2.3,7.4,1.1,1.3-.9,1.9-2.3,2.4-3.6.5-1.4,1-2.8,2.1-3.8s2.3-1.3,3.6-.5"/><path class="cls-1" d="M91,294.8c-1,3.6-1.5,7.4-1.5,11.1,0,.9,0,1.8.7,2.5.8.9,2.3,1.2,3.7,1.3,11.4,1.2,18.8,4.8,30.3,4.4,3.8-.1,7.7-.5,10.7-2.5,3-2,4.4-6,2-8.4-1.1-1.2-2.8-1.8-4.5-2.3-9.4-3.2-14.8-8.8-24.3-12"/><path class="cls-1" d="M15.5,289.6c0,.3.2.6.5.8,2.1,1.9,9.8,2.5,10.7,1.5,0,0,.1-.1.2-.2,1-1,2.1-2.1,3.5-2.7,1.5-.6,2.3-.6,3.2.6"/><path class="cls-1" d="M15.1,289.3c-2.5,3-6.1,6-7.7,9.4-.4.8-.7,1.6-.5,2.5.3,1.1,1.6,1.8,2.7,2.4,16.5,10,22.5,12.9,33.4,15.1,6.9,1.4,10.8-2.7,9-10.2-.4-1.5-2-.9-3.5-1.7-10.4-5.3-8-5.2-14.8-17.1"/><path class="cls-1" d="M58.9,105.8c0,0,0,.1,0,.2,2.4,5.3,10.1,11.7,15.8,11,1.7-.2,2.5-1.5,3.9-4.4.7-1.6,1-4.1.5-5.7"/><path class="cls-1" d="M59.9,101.9c-4.9.6-9.9,2.7-12.2,7.5-.1.2-.2.4-.3.6,1,.3,1.9.5,2.9.9,9,2.8,18.5,7.3,25.7,13,1.3-5,5.9-9.5,10.1-12.7.3-.2.7-.5,1-.7,0,0,0,0,.1,0"/><path class="cls-1" d="M50.4,110.6c1.9-3.2,5.3-4.5,8.9-5.4"/><path class="cls-1" d="M22.8,138.4c5,3.5,10.8,5.8,16.7,6.8"/><path class="cls-1" d="M24.5,133.9s0,0,0,0c5.3,3.8,10.6,6.5,17,7.8"/><path class="cls-1" d="M102.5,139.8s0,0,0,.1c-3.4,3.9-6.3,6.7-10.1,8.2"/><path class="cls-1" d="M101.1,135.9c0,0,0,.1-.2.2-2.1,2.9-4.9,5.2-8.1,6.5"/><path class="cls-1" d="M59.2,105.9c0-.3.2-.5.2-.7.4-1.3.7-1.9.9-3.2,0-.2,0-.4,0-.7"/><path class="cls-1" d="M98.6,70c-1.5,12.4-6.2,25.4-10.8,29.8-2.5,2.4-5,4.9-7.8,6.6-.3.2-.6.3-.9.5-4.9,2.6-10.7,2.3-18.5-5.7-.4-.4-.8-.8-1.2-1.3-1.5-1.6-3.6-4.9-5.2-9.1-1.1-2.8-1.9-5.9-2.1-9.2"/><path class="cls-1" d="M94,71.4c-1-1-5.2-1.4-6.3-1.1-.8-.2-1-1.7-.4-2.3.6-.5,1.5-.6,2.3-.5,1,.1,2,.3,2.9.7.6.2,1.1.5,1.5,1,.4.5.3,1.6,0,2.1Z"/><path class="cls-1" d="M67.3,68c.7.3,7.1.8,7.5.8.5,0,.9-1,.8-1.5,0-.5-.5-.9-1-1.1s-1-.2-1.5-.3c-2.1-.1-3.8-.2-5.5,1-.2.1-.4.3-.5.5-.2.3,0,.5.2.6Z"/><path class="cls-1" d="M88.5,79c-.2,1.6.4,2.9,1.1,3,.8,0,1.6-1.1,1.7-2.7.2-1.5-.4-2.9-1.1-3s-1.6,1.1-1.7,2.7Z"/><path class="cls-1" d="M69.5,77.2c-.2,1.8.5,3.3,1.4,3.4,1,0,1.9-1.3,2.1-3.1.2-1.8-.5-3.3-1.4-3.4-1-.1-1.9,1.3-2.1,3.1Z"/><path class="cls-1" d="M84.2,86.6c.9,3.1-4.1,5-8.2,4.4"/><path class="cls-1" d="M83.9,96c-.2,0-.3.1-.5.2-4.4,1.4-12.2-.6-16.6-2.3-.9-.4,3.2,5.3,9.1,5.7,3.4.2,5.9-.4,7.5-3.3"/><path class="cls-1" d="M98.6,72.7c.1-.9.3-1.8.4-2.6,1.1-7.8,1.7-10.9-.6-17.6-3.4-9.7-15.1-12.9-23.1-13.5-9-.7-19.4,3.9-25.4,11.3-4.2,5.1-9.8,26.6,4.3,40.5,0,0,0,0,.1.1"/><path class="cls-1" d="M54.1,69c-.2-1.8-1.9-2.8-3.2-2.2-1.4.6-2.4,2.4-2.8,4.3s-.1,3.7.3,5.5c.4,1.6.9,3.2,1.9,4.1.5.5,1,.8,1.7.8.7,0,1.4,0,2-.6"/><path class="cls-1" d="M54.4,69c-.2,1.5,3,2.1,3.8.9.8-1.2,3.4-5.3,5.6-8.5,2.5-3.5,5.6-7.8,9.9-6.7,4.4,1.1,6.3,5.2,10.8,5.9,2,.3,4-.2,5.9-1,1.9-.8,3.2-2.3,4.8-.7,2.5,2.5,3.3,7.6,3.4,11.1,0,0,0,0,0,0"/></svg>