<?xml version="1.0" encoding="UTF-8"?><svg id="asia" xmlns="http://www.w3.org/2000/svg" width="235" height="321.9" viewBox="0 0 235 321.9"><defs><style>.cls-1{stroke:#231f20;}.cls-1,.cls-2{fill:none;stroke-linecap:round;stroke-linejoin:round;}.cls-2{stroke:#000;}.cls-3,.cls-4,.cls-5,.cls-6,.cls-7,.cls-8,.cls-9,.cls-10,.cls-11{stroke-width:0px;}.cls-4{fill:#f9f9f9;}.cls-5{fill:#383838;}.cls-6{fill:#2e2e2e;}.cls-7{fill:#1e1e1e;}.cls-8{fill:#d42d55;}.cls-9{fill:#ccada2;}.cls-10{fill:#dbbfb3;}.cls-11{fill:#fff;}</style></defs><path class="cls-9" d="M36.1,175.8c-1.2-1.1-5.3-5.2-6.9-8.2-2.3-4.3-2-7.7-5-10.7h0c-.2-.2-.4-.4-.6-.6-1.2-1.2-2.7-4.1-3.6-7-2.9,3-4.8,4.2-6.1,6.4-2.7,4.9,2.4,10.6,6,14.8s7.3,8.7,9.7,12.2c-1.2,2.7,1.7,6.6,3.5,8.5,1.3,1.3,8,5.3,7.8,1.3.6,0,1.8-.5,2.2-1.3.2-.4.2-.9-.2-1.4,1.2-.2,2.6-1.5,1.8-3.4,4-1,2.4-3.2.6-5.1,0-.3,0-.6,0-.9,0-1.7-1.2-2.6-2.7-3.2h0c-2-.7-4.7-.9-6.5-1.4Z"/><path class="cls-5" d="M16.3,299.1c-.3,1.3-.3,6.9.6,7.9,1,1.1,2.8,1.3,4.3,1.3,4.9,0,9.9.1,14.8,0,1.8,0,5.2.3,6.5-1,1.5-1.5.5-10.5-.6-12.3-1.7-2.7-3.1-3-6.2-3.7-1.9-.5-4.2-.9-6.7-.6-1.7.2-3.5.7-5.2,1.7-2.5,1.2-6.9,4-7.6,6.7Z"/><path class="cls-4" d="M42,146.4l.5.3s.4,9.2.5,10.8c.3,3.2.6,6.5.4,9.8-.3,4.7-.6,5.9-.9,9.9h0c1.6.6,2.7,1.5,2.7,3.2,13.2,2.9,28.3,2.8,42.1,0-.2-2.2-.3-4.3-.4-6.3-.2-3.9-.2-7.9-.2-12.8s0-3.5,0-5.2c.4,1,2.7,4.3,3.6,5.9.7-.2,1.3-.4,1.9-.6,2-.7,3.7-1.4,5.2-2.2,2-1.1,3.5-2.4,4.7-4.2.7-1.1,1.4-2.3,2-3.8-3.9-6.2-12.4-20.5-16.1-24.4-1.8-1.9-11.3-6.4-12.8-7.1,2.4,4,3.7,12,4.7,12.8-2.9-2.3-7.7-3.7-10.9-4.5v.3c1.7,13.4,3.9,19.8,7.1,33.3-4,5.5-4,4.6-7,8.6-3.9-2.8-6.5-5.3-9.6-7.7,2.4-11.7,2-21.8,2.6-34.3h0c-3,1.2-7.3,3.3-10.2,4.8.6-1.1-1.5-8.6,0-13.4h0c-.4,0-11.4,3.9-12.2,4.2-3.3,1.3-5.3,4.9-7.9,7.4-1.9,1.8-12.7,13.3-12.7,13.3,0,1.2.3,2.9.9,4.7.9,2.8,2.4,5.8,3.6,7,.2.2.4.4.6.6h0c2.2,2.1,2.8,2.5,5,3.4,2.3-2.5,8.4-8.9,12.8-13.8Z"/><path class="cls-4" d="M29.2,290.5v.3c2.5-.2,4.8.2,6.7.6,3.1.8,4.5,1,6.2,3.7.7-13,5.1-28.4,6.3-32.8-9.3-1.6-14.4-4.1-15.6-5.3,0,8.2-1.3,20.7-3.6,33.4Z"/><path class="cls-6" d="M47.2,108.5c-3-4-3.2-5-4.6-10.2-2.6-.6-3.2-1-4.1-4.2-.3-.9-.4-1.8-.5-2.6h-1.7c.3,6-1.5,11.7-1.6,17.7,0,1.5,0,3.2,1,4.4,1,1.2,6.3,2.5,7.9,2.6,4.4.3,6.3-.8,10.7-1.5h0c-2.1-1.7-4.5-3.7-7.1-6.4Z"/><path class="cls-6" d="M41.3,64.8c-5,6.4-7.6,12.8-5.5,23.6.2,1.1.3,2.2.4,3.3h1.7c-.1-2.3.8-3.9,4.1-2.4,1.8-1.1,5-4.1,8.5-7.8,0,0-.2,0-.3,0-.6,0-.9-.3-.7-.9.4-.9,1.7-1.9,3.8-2.4.1,0,.2,0,.4,0,6.3-6.8,12.5-14,12.5-14,.6-3.1.8-4.3-1-7-10.5-2.7-18.5.8-23.9,7.8Z"/><path class="cls-8" d="M88.8,192.9c-.5-3.1-.8-5.3-.9-6.3-.1.2-29.8,6.8-43.4-.4.8,1.9-.6,3.2-1.8,3.4.4.5.4,1,.2,1.4-1.2,5-10.2,63-10.3,66,1.2,1.2,6.3,3.7,15.6,5.3,4.8.8,10.8,1.4,18,1.4s7.4-.1,10.2-.3c7.7-.6,11.7-1.9,16.6-3.8,1.3-.5,2.8-1.1,4.4-1.7,0-5.5-6.1-48.2-8.6-65Z"/><path class="cls-9" d="M85,86.3c0-.1,0-.2,0-.3,0-.2,0-.7,0-1.9,0-10-15.8-17-18.8-19.9,0,0-6.2,7.2-12.5,14,2-.4,6.9-.3,6.1,2.2-.2.6-.8,1.1-1.4,1.2s-2.4-.3-3.1-.3c-1.7,0-3,.2-4.8.4-3.5,3.6-6.7,6.7-8.5,7.8-3.3-1.4-4.2.1-4.1,2.3,0,.8.2,1.7.5,2.6,1,3.1,1.5,3.5,4.1,4.2,1.4,5.2,1.6,6.2,4.6,10.2,2.6,2.6,5,4.7,7.1,6.4.1,0,.2.2.4.3,8,6,12.8,5.2,16.5,2.4.3-.2.5-.4.8-.7.8-.7,1.5-1.5,2.2-2.3h0c1.4-1.7,2.8-3.5,4.2-5,2.8-3,4.4-6.5,5.2-9.8,1.5-5.6.9-10.5.9-10.5.2-.8.4-1.5.5-2.1,0-.4.1-.7.2-1ZM54.3,90.4c0-2.1.9-3.8,1.9-3.8s1.9,1.7,1.9,3.8-.8,3.8-1.9,3.8-1.9-1.7-1.9-3.8ZM61.4,109.7c-1.8-1.2-1.7-.5-3.9-3.9,1.1,1.1,11.4,3.6,16.6,1.3-1.3,2.5-2.8,3.9-5.8,4.4-1.9.3-4.9-.5-6.8-1.8ZM74.7,82.2c-.9,0-1.6-.8-1.6-1.7s.7-1.6,1.4-1.9c2-.9,4.4.1,5.9,1.5.2.2.4.4.5.7.1.3,0,.6-.1.8-.2.2-.6.3-.9.2-.3,0-4.6.4-5.3.4ZM75.8,90.1c0-1.9.7-3.4,1.6-3.4s1.6,1.5,1.6,3.4-.7,3.4-1.6,3.4-1.6-1.5-1.6-3.4Z"/><path class="cls-5" d="M45.2,180.3c0,.3,0,.6,0,.9,1.8,1.8,3.4,4.1-.6,5.1,13.6,7.1,43.2.5,43.4.4-.2-2.3-.4-4.4-.6-6.4-13.8,2.9-28.9,3-42.1,0Z"/><path class="cls-7" d="M49.6,80.6c-.3.6,0,1,.7.9,0,0,.2,0,.3,0,1.1-1.1,2.1-2.2,3.2-3.4-.1,0-.2,0-.4,0-2.1.6-3.4,1.5-3.8,2.4Z"/><path class="cls-4" d="M51.9,119.6c-1.6,4.8.6,12.4,0,13.4,2.9-1.5,7.2-3.6,10.2-4.9,1.5-.7,2.7-1.1,3.1-1.1v-.4c-.2,0-.2,0-.2,0,0,0-10.6-3.1-10.4-5.9.2-2.1,0-2.2,0-4.5h-.2c-1.3.7-2.1,1.9-2.6,3.3h0Z"/><path class="cls-7" d="M53.7,78.1c-1.1,1.2-2.2,2.3-3.2,3.4,1.8-.2,3.1-.4,4.8-.4.7,0,2.4.4,3.1.3s1.3-.6,1.4-1.2c.7-2.5-4.1-2.6-6.1-2.2Z"/><path class="cls-9" d="M54.5,120.8c-.2,2.8,10.4,5.9,10.4,5.9,0,0,0,0,.2,0,1.3,0,7.9-.9,6.7-8.8l-.7-.4c-3.7,2.8-8.5,3.6-16.5-2.4,0,.5,0,.9,0,1.3,0,2.3,0,2.4,0,4.5Z"/><path class="cls-3" d="M56.2,86.6c-1,0-1.9,1.7-1.9,3.8s.9,3.8,1.9,3.8,1.9-1.7,1.9-3.8-.8-3.8-1.9-3.8Z"/><path class="cls-11" d="M57.5,105.8c2.2,3.4,2.1,2.6,3.9,3.9,1.9,1.3,4.9,2.1,6.8,1.8,3.1-.4,4.5-1.8,5.8-4.4-5.2,2.4-15.5-.1-16.6-1.3Z"/><path class="cls-8" d="M62,128.3c-.7,12.5-.2,22.5-2.6,34.3,3.1,2.4,5.7,4.9,9.6,7.7,2.9-4,2.9-3.2,7-8.6-3.2-13.5-5.4-20-7.2-33.3v-.3c-2-.5-3.5-.7-3.6-.8,0,0,0,0-.1,0-.4,0-1.6.4-3.1,1.1h0Z"/><path class="cls-4" d="M75.2,119.7c-.8-1.3-1.7-2.2-2.7-2.3l-.6-.6c-.3.2-.5.5-.8.7l.7.4c1.2,7.9-5.4,8.7-6.7,8.8v.4c0,0,.1,0,.2,0,0,0,1.5.3,3.6.8,3.3.8,8,2.2,10.9,4.5-1-.8-2.3-8.8-4.7-12.8Z"/><path class="cls-6" d="M65.2,57.1c1.8,2.7,1.6,3.9,1,7,3,2.9,18.8,10,18.8,19.9,0,.7,0,1.3,0,1.9,0,.2,0,0,0,.3,0,.3,0,.6-.2,1h1.1c.5-.4,1.3-.1,1.6.4,1.9-14,.8-22.7-7.8-28.6-3.8-2.6-14.5-2.1-14.6-2Z"/><path class="cls-7" d="M73.2,80.5c0,.8.7,1.7,1.6,1.7.7,0,5-.5,5.3-.4.3,0,.6,0,.9-.2.2-.2.2-.5.1-.8-.1-.3-.3-.5-.5-.7-1.5-1.4-3.8-2.4-5.9-1.5-.8.3-1.4,1.1-1.4,1.9Z"/><path class="cls-3" d="M77.4,86.7c-.9,0-1.6,1.5-1.6,3.4s.7,3.4,1.6,3.4,1.6-1.5,1.6-3.4-.7-3.4-1.6-3.4Z"/><path class="cls-6" d="M78.2,109.6c-1.4,1.5-2.7,3.3-4.2,5,2.5.5,7.3,1,9.9.5,2.5-.5,4.3-1,4.7-3.5.1-1-.3-4.9-.4-5.9-.4-3.4-1-7.8-.3-11.1-.2.9-.4,1.7-.8,2.5-.3.7-.6,1.4-1.2,2-.5.6-1.3.9-2,.9h-.5c-.9,3.1-2.4,6.6-5.2,9.7Z"/><path class="cls-4" d="M76.4,263.4c1,6.9,7.2,22.2,8.1,33,1-1.9,1.7-3.2,3.9-3.7,2.1-.5,6.3-.5,8.5-.5-.8-2.7-3.5-29-3.5-32l-.2-.6c-5,1.9-8.9,3.3-16.6,3.8Z"/><path class="cls-10" d="M83.4,99.8h.5c.8.2,1.5-.2,2-.7.5-.6.9-1.3,1.2-2,.3-.8.6-1.7.8-2.5.4-1.7.5-3.4.3-5.1,0-.6-.2-1.3-.6-1.8-.4-.5-1.1-.8-1.6-.4h-1.1c-.1.6-.3,1.3-.5,2.1,0,0,.6,4.8-.9,10.5Z"/><path class="cls-5" d="M84.5,296.4c-1,1.9-1.5,10.4.4,11.5,1.3.8,17.7,1.3,22.2,1.1.4,0,3.1-.6,3.5-.8,1.3-.6.7-8.5,0-9.8-1.6-3.3-8.3-5.9-11.9-6.8-.3.6-1.2.7-1.9.6-2.2,0-6.4,0-8.5.5-2.1.5-2.9,1.8-3.9,3.7Z"/><path class="cls-9" d="M87.6,174h-.7c0,2.1.2,4.1.4,6.3.2,2,.3,4.1.6,6.4.1.9.5,3.2.9,6.3,1.1-.2.7,0,1.6-2.4.7-2.1,1.1-3.9,1.8-5.9,1.5-4.8,4.8-7.5,8.3-11.3,4.8-5.2,7-8.3,4.2-14-.7-1.4-1.5-2.4-2.6-4.2h0c-1.2,1.7-2.7,3-4.7,4.1l.6.8c-1.5,1.6-2.4,2.9-3.2,4.1-1.1,1.7-1.7,3.3-2.9,5.8-.9,1.8-4.4,4.1-4.4,4.2Z"/><path class="cls-10" d="M92.2,161.3c.5.6,1.5,1.9,2.2,2.7h.5c.7-1.1,1.7-2.4,3.2-4.1l-.6-.8c-1.5.8-3.2,1.5-5.2,2.2Z"/><path class="cls-2" d="M71.9,116.8c-.3.2-.5.5-.8.7-3.7,2.8-8.5,3.6-16.5-2.4-.1,0-.2-.2-.4-.3-2.1-1.6-4.5-3.7-7.1-6.4"/><path class="cls-1" d="M74,114.6c-.7.8-1.4,1.6-2.2,2.3"/><path class="cls-2" d="M85.1,84c0,.7,0,1.3,0,1.9,0,.1,0,.2,0,.3,0,.3,0,.6-.2,1-.1.6-.3,1.2-.5,2.1,0,0,.6,4.8-.9,10.5-.9,3.3-2.4,6.8-5.2,9.8-1.4,1.5-2.7,3.3-4.2,5"/><path class="cls-2" d="M75.8,90.1c0,1.9.7,3.4,1.6,3.4s1.6-1.5,1.6-3.4-.7-3.4-1.6-3.4-1.6,1.5-1.6,3.4Z"/><path class="cls-2" d="M54.3,90.4c0,2.1.9,3.8,1.9,3.8s1.9-1.7,1.9-3.8-.8-3.8-1.9-3.8-1.9,1.7-1.9,3.8Z"/><path class="cls-2" d="M73.2,99.2c-.6,4.8-4.8,3.4-8.2,3.4"/><path class="cls-2" d="M74,107.1c-5.2,2.4-15.5-.1-16.6-1.3,2.2,3.4,2.1,2.6,3.9,3.9,1.9,1.3,4.9,2.1,6.8,1.8,3.1-.4,4.5-1.8,5.8-4.4Z"/><path class="cls-2" d="M42.5,98.3c1.4,5.2,1.6,6.2,4.6,10.2.1.1.2.3.3.5"/><path class="cls-2" d="M42,89.3c-3.3-1.4-4.2.1-4.1,2.3,0,.8.2,1.7.5,2.6,1,3.1,1.5,3.5,4.1,4.2"/><path class="cls-2" d="M53.7,78.1c2-.4,6.9-.3,6.1,2.2-.2.6-.8,1.1-1.4,1.2s-2.4-.3-3.1-.3c-1.7,0-3,.2-4.8.4,0,0-.2,0-.3,0-.6,0-.9-.3-.7-.9.4-.9,1.7-1.9,3.8-2.4.1,0,.2,0,.4,0Z"/><path class="cls-2" d="M74.6,78.6c-.8.3-1.4,1.1-1.4,1.9s.7,1.7,1.6,1.7c.7,0,5-.5,5.3-.4.3,0,.6,0,.9-.2.2-.2.2-.5.1-.8-.1-.3-.3-.5-.5-.7-1.5-1.4-3.8-2.4-5.9-1.5Z"/><path class="cls-2" d="M86,87.2c.5-.3,1.3,0,1.6.4.4.5.5,1.2.6,1.8.2,1.7,0,3.4-.3,5.1-.2.9-.4,1.7-.8,2.5-.3.7-.6,1.4-1.2,2-.5.6-1.3.9-2,.9"/><path class="cls-2" d="M71.8,117.9c1.2,7.9-5.4,8.7-6.7,8.8-.1,0-.2,0-.2,0,0,0-10.6-3.1-10.4-5.9"/><path class="cls-2" d="M75.1,119.6s0,0,.1,0c1.4.7,10.9,5.2,12.8,7.1,3.7,3.9,12.2,18.1,16.1,24.4-.6,1.5-1.2,2.7-2,3.8-1.2,1.8-2.7,3.1-4.7,4.2-1.5.8-3.2,1.5-5.2,2.2-.6.2-1.2.4-1.9.6"/><path class="cls-2" d="M24.2,156.8c2.2,2,2.8,2.4,5,3.4,2.3-2.5,8.4-8.9,12.8-13.8,2-2.2,3.7-4.2,4.5-5.3"/><path class="cls-2" d="M51.8,119.6c-.4.1-11.4,3.9-12.2,4.2-3.3,1.3-5.3,4.9-7.9,7.4-1.9,1.8-12.7,13.3-12.7,13.3,0,1.2.3,2.9.9,4.7.9,2.8,2.4,5.8,3.6,7,.2.2.4.4.6.6"/><path class="cls-2" d="M86.7,156c0,1.7,0,3.4,0,5.2,0,4.9,0,8.9.2,12.8,0,2.1.2,4.1.4,6.3.2,2,.3,4.1.6,6.4-.1.2-29.8,6.8-43.4-.4"/><path class="cls-2" d="M86.5,139c.1,5.9.2,11.1.2,16.9"/><path class="cls-2" d="M42.5,146.8c0-.1,0-.2,0-.2,0,0,.4,9.2.5,10.8.3,3.2.6,6.5.4,9.8-.3,4.7-.6,5.9-.9,9.9"/><path class="cls-2" d="M102.1,155c1.1,1.9,1.9,2.8,2.6,4.2,2.9,5.8.7,8.8-4.2,14-3.6,3.8-6.8,6.5-8.3,11.3-.7,2.1-1.1,3.9-1.8,5.9-.9,2.5-.5,2.2-1.6,2.4-.1,0-.2,0-.4,0"/><path class="cls-2" d="M92,161.1c0,0,.1.1.2.2.5.6,1.5,1.9,2.2,2.7"/><path class="cls-2" d="M86.7,155.9s0,0,0,0h0c.4,1.1,2.7,4.3,3.6,6"/><path class="cls-2" d="M98,159.9c-1.5,1.6-2.4,2.9-3.2,4.1-1.1,1.7-1.7,3.3-2.9,5.8-.9,1.8-4.4,4.1-4.4,4.2s0,0,0,0"/><path class="cls-2" d="M19.9,149.2c-2.9,3-4.8,4.2-6.1,6.4-2.7,4.9,2.4,10.6,6,14.8s7.3,8.7,9.7,12.2"/><path class="cls-2" d="M36.4,176.1h0s-.1-.1-.3-.3c-1.2-1.1-5.3-5.2-6.9-8.2-2.3-4.3-2-7.7-5-10.7h0c-.2-.2-.4-.4-.6-.6"/><path class="cls-2" d="M43.1,179.1c.4.5,1.2,1.2,2,2,1.8,1.8,3.4,4.1-.6,5.1.8,1.9-.6,3.2-1.8,3.4.4.5.4,1,.2,1.4-.4.8-1.6,1.3-2.2,1.3.2,4-6.5,0-7.8-1.3-1.9-1.9-4.7-5.8-3.5-8.5"/><path class="cls-2" d="M35.8,175.7c0,0,.2,0,.3,0,1.8.5,4.4.7,6.5,1.4h0c1.6.6,2.7,1.5,2.7,3.2,0,.3,0,.6,0,.9,0,0,0,0,0,0"/><path class="cls-2" d="M54.5,120.8c.2-2.1,0-2.2,0-4.5,0-.4,0-.8,0-1.3"/><path class="cls-2" d="M87.9,186.6c.1.9.5,3.2.9,6.3,2.5,16.8,8.6,59.5,8.6,65"/><path class="cls-2" d="M97.4,257.9c-1.6.6-3,1.2-4.4,1.7-5,1.9-8.9,3.3-16.6,3.8-2.8.2-6.1.3-10.2.3-7.2,0-13.1-.6-18-1.4-9.3-1.6-14.4-4.1-15.6-5.3,0-3,9-61,10.3-66"/><path class="cls-2" d="M72.5,117.4c1,0,1.9,1,2.7,2.3,2.4,4,3.7,12,4.7,12.8-2.9-2.3-7.7-3.7-10.9-4.5-2.1-.5-3.6-.7-3.6-.8,0,0,0,0-.1,0-.4,0-1.6.4-3.1,1.1-3,1.3-7.3,3.4-10.2,4.9.6-1.1-1.5-8.6,0-13.4h0c.5-1.4,1.3-2.6,2.6-3.3"/><path class="cls-2" d="M85.1,84c0,1.3,0,1.7,0,1.9,0,.2,0,0,0,.3,0,.2-.2.8-.5,2.1"/><path class="cls-1" d="M87.6,87.7c1.9-14,.8-22.7-7.8-28.6-3.8-2.6-14.5-2.1-14.6-2-10.5-2.7-18.5.8-23.9,7.8-5,6.4-7.6,12.8-5.5,23.6.2,1.1.3,2.2.4,3.3.3,5.9-1.5,11.6-1.6,17.6,0,1.5,0,3.2,1,4.4,1,1.2,6.3,2.5,7.9,2.6,4.4.3,6.3-.8,10.7-1.5"/><path class="cls-2" d="M85.1,84c0-10-15.8-17-18.8-19.9,0,0-6.2,7.2-12.5,14-1.1,1.2-2.2,2.3-3.2,3.4-3.5,3.6-6.7,6.7-8.5,7.8"/><path class="cls-2" d="M76.4,263.4h0c1,6.9,7.2,22.2,8.1,33"/><path class="cls-2" d="M48.3,262.3c-1.1,4.4-5.5,19.8-6.3,32.8"/><path class="cls-2" d="M32.7,257.1c0,8.2-1.3,20.7-3.6,33.4"/><path class="cls-2" d="M93.3,260.2c0,3,2.7,29.3,3.5,32"/><path class="cls-2" d="M23.9,292.5c-2.5,1.2-6.9,4-7.6,6.7-.3,1.3-.3,6.9.6,7.9,1,1.1,2.8,1.3,4.3,1.3,4.9,0,9.9.1,14.8,0,1.8,0,5.2.3,6.5-1,1.5-1.5.5-10.5-.6-12.3-1.7-2.7-3.1-3-6.2-3.7-1.9-.5-4.2-.9-6.7-.6-1.7.2-3.5.7-5.2,1.7"/><path class="cls-2" d="M98.7,291.5c-.3.6-1.2.7-1.9.6-2.2,0-6.4,0-8.5.5-2.1.5-2.9,1.8-3.9,3.7s-1.5,10.4.4,11.5c1.3.8,17.7,1.3,22.2,1.1.4,0,3.1-.6,3.5-.8,1.3-.6.7-8.5,0-9.8-1.6-3.3-8.3-5.9-11.9-6.8"/><path class="cls-2" d="M66.2,64.1c.6-3.1.8-4.3-1-7"/><path class="cls-2" d="M62,128.3c-.7,12.5-.2,22.5-2.6,34.3,3.1,2.4,5.7,4.9,9.6,7.7,2.9-4,2.9-3.2,7-8.6-3.2-13.5-5.4-20-7.2-33.3"/><path class="cls-2" d="M44.9,180.3c.1,0,.2,0,.3,0,13.2,2.9,28.3,2.8,42.1,0"/><path class="cls-1" d="M74,114.6h0c2.5.5,7.3,1,9.9.5,2.5-.5,4.3-1,4.7-3.5.1-1-.3-4.9-.4-5.9-.4-3.4-1-7.8-.3-11.1"/></svg>