<?xml version="1.0" encoding="UTF-8"?><svg id="asia" xmlns="http://www.w3.org/2000/svg" width="235" height="321.9" viewBox="0 0 235 321.9"><defs><style>.cls-1{stroke:#000;stroke-linecap:round;stroke-linejoin:round;}.cls-1,.cls-2{fill:none;}.cls-2{stroke:#231f20;stroke-miterlimit:10;}.cls-3,.cls-4,.cls-5,.cls-6,.cls-7,.cls-8,.cls-9,.cls-10{stroke-width:0px;}.cls-4{fill:#4c483f;}.cls-5{fill:#4a483f;}.cls-6{fill:#d38e6c;}.cls-7{fill:#b1cee1;}.cls-8{fill:#c1b2a3;}.cls-9{fill:#fff;}.cls-10{fill:#f6a367;}</style></defs><path class="cls-5" d="M230.3,196c3.4,1.4,3.9,5.8,2.1,8.9s-5.3,5.1-8.7,6.9c-10.3,5.2-21.4,8.8-32.4,12.4-1.3.4-2.8.9-4,.3h-.2c-.7-1.3-2.2-3.6-2.9-5.2,7.6-6.3,10.4-16.7,10.2-20.6,10.2-.9,20.5-2.1,30.6-3,1.8-.1,3.6-.3,5.2.3Z"/><path class="cls-8" d="M194.5,198.7c.2,4-2.7,14.3-10.2,20.6-.5.4-.9.8-1.4,1.1-.3.2-55.1-15.2-57.9-15.7-1.4-.3-3-.6-4.8-1-12.7-2.9-35.2-8.6-44.3-10.4-2.5-.6-4.6-1.2-5.8-1.7-5.1-2.4-11.8-8.9-12.6-20.6-.1-1.8-.1-3.7,0-5.7,1.4-8.7,12.3-7.8,26.5-5.1,3.1.6,6.3,1.3,9.7,2,3.8.8,6.4,1.6,8.6,2.4,3.1,1.1,5.1,2.2,7.9,2.8.3,0,.7.1,1,.2,8.4,2.5,24.4,7.2,29.3,8.9,1.8.6,54.1,21.3,54.1,21.8,0,.1,0,.3,0,.4Z"/><path class="cls-5" d="M136.7,304c1.7,3.2-.6,7.2-4,8.7-3.3,1.4-7.2.9-10.9.3-11.1-2.1-21.8-6.1-32.4-10-1.3-.5-2.7-1.1-3.2-2.3-.4-.9-.2-1.9,0-2.8.9-4,.6-4,2.5-7.7,12.7,5.5,15.2-.3,24.8-2.4,8,5.4,11.4,7.1,19.5,12.6,1.4,1,2.9,2,3.7,3.5Z"/><path class="cls-4" d="M121.4,26.5c8,.2,14.2,7,14.2,15,0,8.4-1.5,16.9-4.4,19.6h-.4c.8-2,1.4-4.1,1.4-6.1.5-3.1-1-7.1-1.6-7.6-1.3-1-4.9,2.4-8.6.5-8.3-3.1-14.1-10.3-21.3-8.4-2.8,3.1-3.3,6.7-4.2,10.9-.9,4.2-2.3,9-2.6,14,0,.8-.8,1.6-1.5,1.4-.3,0-.6-.4-.8-.7-1.6-2-3.9-5.2-5.1-7.6-.7-1.3-2.5-1.9-3.9-1.4-1.4.6-2.3,4.2-2.2,5.7,0,1.6.5,4,1.8,4.6.5.2,1,.6,1.5.8v.2c-.4,2.7-.3,5.6,0,6.5,0,.2.1.5.2.7.5,1.9.7,3.9.6,6-10.9-6-11.9-43-4.4-48.5,6-4.4,3-7.5,12.8-8.9,6.9-1.7,18.2,2.8,28.5,3.1Z"/><path class="cls-6" d="M112.7,94.8c-1.6,1.2-3.2,2.1-4.4,2.3-.7.1-2.2-.5-4-1.4-4.8-2.5-12-7.5-14.6-10.6-2.4-2.9-4.4-6.2-5.7-10.3,0-.2-.1-.5-.2-.7-.2-.9-.4-3.9,0-6.5v-.2c-.3-.3-.8-.6-1.4-.8-1.4-.6-1.7-3-1.8-4.6-.1-1.6.8-5.1,2.2-5.7,1.4-.6,3.1,0,3.9,1.4,1.3,2.3,3.5,5.5,5.1,7.6.2.3.5.6.8.7.7.2,1.5-.6,1.5-1.4.3-4.9,1.7-9.8,2.6-14,.9-4.2,1.4-7.8,4.2-10.9,7.2-2,12.9,5.2,21.3,8.4,3.7,1.9,7.3-1.6,8.6-.5.6.5,2.1,4.4,1.6,7.6,0,2.1-.6,4.1-1.4,6-1.4,3.5-3.5,6.4-4,7.9-.6,2-1.4,13.9-8.1,20.5,0,0-3,3.2-6.1,5.5ZM104.3,78.5l-.2.2c-1.9,4.5,8.9,12.5,11.5,4.8-4.5-.5-7.3-2.3-11.3-5ZM127.8,61.8c0-.8-3.3-4-4.6-3.8-1.1.2-2.1,4.3-.9,3.1.6-.6,3.5.6,3.9,1.9.2.7,1.5-.4,1.6-1.2ZM123.6,70.3c.3-1.4,0-2.7-.9-2.9-.8-.2-1.7.9-2,2.3s0,2.7.8,2.9c.8.2,1.7-.9,2-2.3ZM112.4,57.5c.3.6,2.5-2.4-.3-3.3-2.9-.9-8.4-2-8.7,1.7,0,.3,7.1-1.8,9,1.6ZM108.1,66.6c.3-1.4-.1-2.6-.9-2.8-.8-.2-1.8.8-2.1,2.2-.3,1.4,0,2.7.9,2.8.8.2,1.8-.8,2.1-2.2Z"/><path class="cls-4" d="M123.2,58c1.3-.2,4.7,3,4.6,3.8,0,.8-1.4,1.9-1.6,1.2-.4-1.3-3.3-2.5-3.9-1.9-1.2,1.1-.2-3,.9-3.1Z"/><path class="cls-8" d="M113.5,287.9c-9.6,2.1-12,7.9-24.8,2.4-1-.4-2.1-.9-3.2-1.5-.2-.5,8.1-58.9,7.3-61-3-7.9-9.8-25-16.9-34.5,9.1,1.8,31.6,7.5,44.3,10.4,3.1,10.4,3.9,17.1,3.7,24.8,0,1.1-8.8,58.1-8.9,59.2-.5,0-1,.2-1.4.3Z"/><path class="cls-3" d="M122.7,67.3c.8.2,1.2,1.5.9,2.9-.3,1.4-1.2,2.5-2,2.3-.8-.2-1.2-1.5-.8-2.9s1.2-2.5,2-2.3Z"/><path class="cls-7" d="M108.5,147.1c-3.5.8-7.1,1-11,.9-4.6-.1-9.7-.7-15.7-1.4h-.1c0-.3,0-.4,0-.5-.6-3.3,1.4-9.2,3.4-10.3l.4-.2c.3,0,.5-.1.8-.2,4-.8,6.8-1,9.4-1.2v-.3c-1.2-6.2-1.1-12.7.3-18.8h.3c.4-1.9,1.9-3.4,3.6-4.4,1.7-1,3.6-1.6,5.3-2.5,2.8-1.3,5.3-3.2,7.3-5.6.8-1,1.6-2,1.9-3.3,0-.3,0-.7,0-1.1h.5c3.8,1.4,7.1,11,7.7,16,2.2,18.1,1.2,26.5-1.7,27.5-4.3,2.8-8.2,4.5-12.3,5.4Z"/><path class="cls-7" d="M104.2,96.4c0-.2,0-.4,0-.7,1.9,1,3.4,1.5,4,1.4,1.3-.2,2.9-1.1,4.4-2.3.7.6,1.4,2.2,1.6,3.4,0,.4,0,.8,0,1.1-.3,1.2-1,2.3-1.9,3.3-2,2.3-4.5,4.2-7.3,5.6-1.8.8-3.7,1.5-5.3,2.5-1.7,1-3.2,2.5-3.6,4.5h-.3c.7-3.1,1.7-6.1,3-8.9l-.2-.2c2.6-2.4,4.4-5.6,5.3-9,0-.2.1-.5.2-.7Z"/><path class="cls-4" d="M112.1,54.2c2.8.9.6,3.9.3,3.3-1.9-3.4-9-1.2-9-1.6.3-3.7,5.8-2.7,8.7-1.7Z"/><path class="cls-9" d="M115.6,83.6c-2.5,7.7-13.4-.3-11.5-4.8l.2-.2c4,2.7,6.8,4.6,11.3,5Z"/><path class="cls-7" d="M110,167.3c.3,0,.7.2,1,.3-.4,0-.7-.1-1-.2h0Z"/><path class="cls-7" d="M110,167.3h0c-2.8-.5-4.8-1.6-7.9-2.7-1.8-5.7-2.4-11-4.7-16.5,3.9.1,7.5,0,11-.9-.8,3.5,1.4,14.9,1.5,20.1Z"/><path class="cls-3" d="M107.1,63.8c.8.2,1.2,1.4.9,2.8-.3,1.4-1.2,2.4-2.1,2.2-.8-.2-1.3-1.4-.9-2.8.3-1.4,1.2-2.4,2.1-2.2Z"/><path class="cls-6" d="M84.5,80.8c0-2,0-4.1-.6-6,1.3,4.1,3.2,7.4,5.7,10.3,2.6,3.1,9.8,8.1,14.6,10.6,0,.2,0,.5,0,.7,0,.2,0,.5-.2.7-1.1,3.3-7.1,5.4-11.7,5.8h0c-1.6.1-3,0-4-.2-.7-.2-1.5-.6-2.2-1.1-1.1-.7-2.1-1.8-2.9-3.2-.9-1.8-1.4-4.1-.8-7.1.3-.9.7-2.1,1-3.5.4-1.7.8-3.6.9-5.6,0-.5,0-.9,0-1.4Z"/><path class="cls-10" d="M104,97c-.8,3.4-2.7,6.6-5.3,9-.4.4-.9.8-1.4,1.2-.2.2-.6.4-.8.3-.4-.1-.4-.7-.4-1.1,0-1.8-2-3.2-3.9-3.6,4.6-.4,10.7-2.5,11.7-5.8Z"/><path class="cls-10" d="M97.5,148c2.3,5.5,2.9,10.9,4.7,16.5-2.1-.8-4.8-1.6-8.6-2.4-3.3-.7-6.6-1.4-9.7-2v-.5c-1.1-4.2-2.2-9.1-3-13.5h.6s0,.2,0,.3h.1c6,.8,11.1,1.4,15.7,1.5Z"/><path class="cls-10" d="M98.8,106.1l.2.2c-1.3,2.8-2.3,5.8-3,8.9-1.4,6.2-1.6,12.6-.3,18.8v.3c-2.6.2-5.4.4-9.4,1.2h0c0-1.8-2.9-4-6-5.6l.2-.4c-.1-9.5,1.8-19.1,5.6-27.8h0c.7.4,1.5.7,2.2.9,1,.3,2.4.4,4,.2h0c1.8.4,3.8,1.8,3.9,3.6,0,.4,0,.9.4,1.1.3.1.6,0,.8-.3.5-.4.9-.8,1.4-1.2Z"/><path class="cls-6" d="M80.7,145.1h-.2c-3,1-13.8,1.4-15-1.5-1-2.4,3.1-14.2,6.4-15.7,1.5-.7,5,.4,8.2,2,3.2,1.6,6,3.8,6,5.5h0c-.3.2-.5.2-.8.3l-.4.2c-2,1.1-4,6.9-3.4,10.3h-.6c0-.3-.1-.7-.2-1Z"/><path class="cls-10" d="M86.1,101.6h0c-3.9,8.8-5.8,18.4-5.6,27.9l-.2.4c-3.2-1.6-6.7-2.7-8.2-2-3.3,1.5-7.4,13.4-6.4,15.7,1.2,2.8,12,2.5,15,1.5h.2c0,.3.1.7.2,1.1.8,4.4,1.9,9.3,3.1,13.5v.5c-14.4-2.7-25.2-3.6-26.6,5.1-.2,2-.2,3.9,0,5.7h-.3c-.7-9.1-.8-12.7,0-22.8h.3c2.7-14.8,7.5-29.2,14.2-42.7,2.1-4.3,4.4-8.5,6.9-12.5-.7,1.5-1.1,3.2-1.2,5.1,1.8-.9,4.2-.7,5.8.6h.2c.7,1.3,1.8,2.3,2.9,3Z"/><path class="cls-7" d="M84.4,82.2c-.2,2-.5,3.9-.9,5.6-2.4,1.1-4.1,2.8-5.1,5-2.5,4.1-4.8,8.3-6.9,12.5h-.2c2.1-5.1-2.6-10.8-1.1-16.1.2-.8.6-1.5,1.1-2.2,1.2-1.8,3.2-3,5.2-3.7,2.8-1,5-1.2,8-1.2Z"/><path class="cls-10" d="M78.4,92.9c1-2.2,2.7-4,5.1-5-.3,1.3-.7,2.5-1,3.5-.6,3-.1,5.4.8,7.1h-.2c-1.6-1.2-4-1.4-5.8-.5,0-1.8.5-3.6,1.2-5.1Z"/><path class="cls-7" d="M58.8,129.6c.3-5.6.4-9.7-.3-14.3h0c-5.3,4.7-13.4,9.5-16.1,11.5h-.4c-1.8,1.3-2.4,1.8-4.1,3-5.4,9.4-7.8,13.6-11.8,21.5h-1.1s0,0-.1,0c-3.3-.5-6.7.3-9.5,2,3-13.1,4.9-19.9,13-30.9,1.4-2,2.6-3.8,4.7-6.5h0c1.1-1.9,15.7-17.2,16.6-17.9,4.7-4,13.9-10.1,21.7-10.9h0c-.5.7-.8,1.4-1.1,2.2-1.5,5.2,3.2,11,1.1,16h.2c-6.7,13.6-11.5,28-14.2,42.8h-.3c.4-4.5.9-10.3,1.7-18.5h0Z"/><path class="cls-6" d="M24.7,151.4c2.7.7,5.3,9.6,3.5,11.7-1.9,2.2-12.9,3.2-14.7,2-2.2-1.4.2-9.7,1.7-11.8,0,0,0,0,0,0,2.8-1.7,6.2-2.4,9.5-2h0Z"/><path class="cls-1" d="M32.9,116.1s0,0,0-.1c1.1-1.9,15.7-17.2,16.6-18,4.7-4,13.9-10.1,21.7-10.9"/><path class="cls-1" d="M58.4,115.3c-5.3,4.7-13.4,9.5-16.1,11.4"/><path class="cls-1" d="M32.9,115.8s0,0,0,0c-2.1,2.6-3.2,4.5-4.7,6.5-8.1,11-10,17.8-13,30.9,0,0,0,0,0,0"/><path class="cls-1" d="M41.8,126.9c-1.8,1.2-2.4,1.6-4.1,2.9-5.4,9.4-7.8,13.6-11.8,21.5"/><path class="cls-1" d="M24.7,151.4c2.7.7,5.3,9.6,3.5,11.7-1.9,2.2-12.9,3.2-14.7,2-2.2-1.4.2-9.7,1.7-11.8"/><path class="cls-1" d="M120.8,141.7c2.9-1,3.9-9.4,1.7-27.5-.6-5-3.9-14.6-7.7-16.1"/><path class="cls-1" d="M105.9,121.1c0,5.3.6,8.5,1,11.6"/><path class="cls-1" d="M120.8,141.7c-4.3,2.8-8.2,4.5-12.3,5.4-3.5.8-7.1,1-11,.9-4.6-.1-9.7-.7-15.7-1.4"/><path class="cls-1" d="M110.3,132.1c-7.1,1.8-10.7,1.9-14.6,2.2-2.6.2-5.4.4-9.4,1.2-.3,0-.5.1-.8.2"/><path class="cls-1" d="M86.2,135.3c0-1.6-2.9-3.8-6-5.5-3.2-1.6-6.7-2.7-8.2-2-3.3,1.5-7.4,13.4-6.4,15.7,1.2,2.8,12,2.5,15,1.5"/><path class="cls-1" d="M58.8,129.6c-.7,8.2-1.3,14-1.7,18.5-.9,10.1-.8,13.7,0,22.9,0,.1,0,.2,0,.3"/><path class="cls-1" d="M108.5,146.9c0,0,0,.1,0,.2-.8,3.5,1.4,14.9,1.5,20.1h0"/><path class="cls-1" d="M56.8,108.4c.8,2.5,1.3,4.8,1.7,6.9.8,4.6.6,8.7.3,14.3,0,0,0,.2,0,.3"/><path class="cls-1" d="M75.8,193.3c9.1,1.8,31.6,7.5,44.3,10.4,1.8.4,3.5.8,4.8,1,2.8.6,57.6,15.9,57.9,15.7.5-.4,1-.7,1.4-1.1,7.6-6.3,10.4-16.7,10.2-20.6,0-.1,0-.3,0-.4,0-.4-52.3-21.2-54.1-21.8-4.9-1.7-20.8-6.4-29.3-8.9-.4-.1-.7-.2-1-.3-1.8-.5-3.1-.9-3.8-1.1"/><path class="cls-1" d="M70,191.6c1.3.5,3.3,1.1,5.8,1.7"/><path class="cls-1" d="M75.8,193.3c7.1,9.5,14,26.6,16.9,34.5.8,2.1-7.4,60.5-7.3,61,1.2.6,2.2,1.1,3.2,1.5,12.7,5.5,15.2-.3,24.8-2.4.4-.1.9-.2,1.4-.3,0-1.1,8.9-58.1,8.9-59.2.2-7.6-.6-14.3-3.7-24.8"/><path class="cls-1" d="M88.7,290.2h0c-1.8,3.7-1.6,3.7-2.5,7.7-.2.9-.4,1.9,0,2.8.5,1.2,1.9,1.8,3.2,2.3,10.6,3.9,21.3,7.8,32.4,10,3.6.7,7.5,1.2,10.9-.3,3.3-1.4,5.7-5.5,4-8.7-.8-1.5-2.3-2.5-3.7-3.5-8.1-5.5-11.5-7.2-19.5-12.6-.1,0-.3-.2-.4-.3"/><path class="cls-1" d="M57.4,165.2c-.2,2-.2,3.9,0,5.7.8,11.7,7.6,18.2,12.6,20.6"/><path class="cls-1" d="M187.3,224.5c1.2.6,2.7.1,4-.3,11-3.6,22.1-7.2,32.4-12.4,3.4-1.7,6.8-3.7,8.7-6.9s1.3-7.6-2.1-8.9c-1.6-.6-3.4-.5-5.2-.3-10.2.9-20.5,2.1-30.6,3h0"/><path class="cls-1" d="M184.1,219c0,.1,0,.2.1.4.7,1.6,2.2,3.9,2.9,5.2"/><path class="cls-1" d="M111.6,167.7c-.2,0-.4,0-.5,0-.4,0-.7-.1-1-.2-2.8-.6-4.8-1.7-7.9-2.8-2.1-.8-4.8-1.6-8.6-2.4-3.3-.7-6.6-1.4-9.7-2-14.3-2.7-25.1-3.6-26.5,5.1"/><path class="cls-2" d="M86.1,101.6c-1.1-.7-2.1-1.8-2.9-3.2-.9-1.8-1.4-4.1-.8-7.1,0,0,0,0,0,0"/><path class="cls-2" d="M92.3,102.9c-1.6.1-3,0-4-.2-.7-.2-1.5-.6-2.2-1.1"/><path class="cls-2" d="M104.1,95.3c0,.1,0,.3,0,.4,0,.2,0,.5,0,.7,0,.2,0,.5-.2.7-1.1,3.3-7.1,5.4-11.7,5.8"/><path class="cls-1" d="M85,135.8c-2,1.1-4,6.9-3.4,10.3,0,.1,0,.3,0,.4"/><path class="cls-2" d="M83,98.5c-1.6-1.3-4-1.6-5.8-.6,0-1.8.5-3.6,1.2-5.1,1-2.2,2.7-4,5.1-5,.1,0,.2-.1.3-.2"/><path class="cls-2" d="M91.6,102.8c.2,0,.5,0,.7,0h0c1.8.4,3.8,1.8,3.9,3.6,0,.4,0,.9.4,1.1.3.1.6,0,.8-.3.5-.4.9-.8,1.4-1.2,2.6-2.4,4.4-5.6,5.3-9,0-.2.1-.5.2-.7,0,0,0-.2,0-.3"/><path class="cls-2" d="M86,101.7c-3.9,8.7-5.8,18.3-5.6,27.8"/><path class="cls-2" d="M80.7,145s0,0,0,0c0,.4.1.8.2,1.1.8,4.4,1.9,9.3,3.1,13.5"/><path class="cls-2" d="M79.4,91.3c-.3.5-.6,1-1,1.5-2.5,4.1-4.8,8.3-6.9,12.5-6.7,13.5-11.5,27.9-14.2,42.7"/><path class="cls-2" d="M99,106.2c-1.3,2.8-2.3,5.8-3,8.9-1.4,6.2-1.6,12.6-.3,18.8"/><path class="cls-2" d="M97.5,148h0c2.3,5.5,2.9,10.9,4.7,16.5,0,0,0,0,0,0"/><path class="cls-2" d="M84.5,82.2h0c-3,0-5.2.2-8,1.2-2.1.7-4,2-5.2,3.7-.5.7-.8,1.4-1.1,2.2-1.5,5.2,3.2,11,1.1,16"/><path class="cls-2" d="M112.6,94.7s0,0,0,0c.7.6,1.4,2.2,1.6,3.4,0,.4,0,.8,0,1.1-.3,1.2-1,2.3-1.9,3.3-2,2.3-4.5,4.2-7.3,5.6-1.8.8-3.7,1.5-5.3,2.5-1.7,1-3.2,2.5-3.6,4.5"/><path class="cls-1" d="M24.8,151.3s0,0-.1,0c-3.3-.5-6.7.3-9.5,2,0,0,0,0,0,0"/><path class="cls-1" d="M92.9,23.4c-9.8,1.4-6.9,4.5-12.8,8.9-7.5,5.6-6.5,42.6,4.4,48.5,0,0,0,0,0,0"/><path class="cls-1" d="M83.7,74.2c-.2-.9-.4-3.9,0-6.5"/><path class="cls-1" d="M132.3,54.9c0,2.1-.6,4.1-1.4,6-1.4,3.5-3.5,6.4-4,7.9-.6,2-1.4,13.9-8.1,20.5,0,0-3,3.2-6.1,5.5-1.6,1.2-3.2,2.1-4.4,2.3-.7.1-2.2-.5-4-1.4-4.8-2.5-12-7.5-14.6-10.6-2.4-2.9-4.4-6.2-5.7-10.3"/><path class="cls-1" d="M117.1,72.5c2.8,1.6,3,5.7-1,6.2"/><path class="cls-1" d="M120.7,69.6c-.3,1.4,0,2.7.8,2.9.8.2,1.7-.9,2-2.3.3-1.4,0-2.7-.9-2.9-.8-.2-1.7.9-2,2.3Z"/><path class="cls-1" d="M105.1,65.9c-.3,1.4,0,2.7.9,2.8.8.2,1.8-.8,2.1-2.2.3-1.4-.1-2.6-.9-2.8-.8-.2-1.8.8-2.1,2.2Z"/><path class="cls-1" d="M115.6,83.6c-4.5-.5-7.3-2.3-11.3-5-.1-.1-.3-.2-.5-.3"/><path class="cls-1" d="M115.6,83.6c-2.5,7.7-13.4-.3-11.5-4.8"/><path class="cls-1" d="M83.7,74.2c0,.2.1.5.2.7.5,1.9.7,3.9.6,6,0,.5,0,.9,0,1.4-.2,2-.5,3.9-.9,5.6-.3,1.3-.7,2.5-1,3.5,0,.1,0,.2-.1.3"/><path class="cls-1" d="M100.8,39.5c7.2-2,12.9,5.2,21.3,8.4,3.7,1.9,7.3-1.6,8.6-.5.6.5,2.1,4.4,1.6,7.6"/><path class="cls-1" d="M100.8,39.5c-2.8,3.1-3.3,6.7-4.2,10.9-.9,4.2-2.3,9-2.6,14,0,.8-.8,1.6-1.5,1.4-.3,0-.6-.4-.8-.7-1.6-2-3.9-5.2-5.1-7.6-.7-1.3-2.5-1.9-3.9-1.4-1.4.6-2.3,4.2-2.2,5.7,0,1.6.5,4,1.8,4.6.5.2,1,.6,1.5.8.7.4,1.4.7,2.2.2"/><path class="cls-1" d="M131.3,61c2.9-2.7,4.3-11.2,4.4-19.6,0-8-6.2-14.7-14.2-15-10.3-.3-21.5-4.8-28.5-3.1"/><path class="cls-1" d="M103.4,56c0,.3,7.1-1.8,9,1.6.3.6,2.5-2.4-.3-3.3-2.9-.9-8.4-2-8.7,1.7Z"/><path class="cls-1" d="M122.3,61.1c.6-.6,3.5.6,3.9,1.9.2.7,1.5-.4,1.6-1.2,0-.8-3.3-4-4.6-3.8-1.1.2-2.1,4.3-.9,3.1Z"/></svg>