<?xml version="1.0" encoding="UTF-8"?><svg id="asia" xmlns="http://www.w3.org/2000/svg" width="235" height="321.9" viewBox="0 0 235 321.9"><defs><style>.cls-1{stroke-linecap:round;stroke-linejoin:round;}.cls-1,.cls-2{stroke-width:.8px;}.cls-1,.cls-2,.cls-3{fill:none;stroke:#000;}.cls-2,.cls-3{stroke-miterlimit:10;}.cls-4,.cls-5,.cls-6,.cls-7,.cls-8,.cls-9,.cls-10,.cls-11,.cls-12,.cls-13{stroke-width:0px;}.cls-5{fill:#4b392d;}.cls-6{fill:#38596c;}.cls-7{fill:#c4998a;}.cls-8{fill:#cbb0a1;}.cls-9{fill:#c19785;}.cls-10{fill:#8cb3c4;}.cls-11{fill:#7ca5bb;}.cls-12{fill:#919eb2;}.cls-13{fill:#fff;}</style></defs><path class="cls-7" d="M74.6,84.9c-4.7,3.3-10.8,4.6-18.5-1.6.8,3.7-.6,6.1-2.2,8.4.3,3.6,3,6.9,4.6,8.2,1.6,1.4,6.1,2.3,8.2,2.2,2.3-.2,4.3-1.7,5.8-3.4s2.1-2.3,3-5.2c-.1-.4-.2-.7-.3-1-.6-2.3-.6-3.7-.6-7.5h0Z"/><path class="cls-10" d="M75.2,92.4c0,.3.2.7.3,1-.9,2.9-1.5,3.5-3,5.2s-3.5,3.2-5.8,3.4c0,.1,0,.3,0,.5,3.1,2.4,6,5.2,8.7,8.2,2.2-2.5,3.4-5.7,3.4-9,0-3.3-1.2-6.5-3.4-9h0c0-.1-.2-.2-.3-.3Z"/><path class="cls-11" d="M41.7,169.6c-.2,1.4-1.3,2.3-2.3,2.5,1.3,1.8-1.1,3.2-2.3,3.2.1,2.4-1.7,2.4-3.8,1.6-.8,4.6-4.1,24.8-4.9,35.8.3.6,2.5,1.9,5.8,3.5,6,2.9,15.7,6.5,24.4,7.3,1.7.2,3.3.2,4.9.1.5,0,.9,0,1.4,0,.8,0,1.5,0,2.2-.1,1.6-17.7.2-101.8-.5-121-.1,0-.2-.2-.3-.3-3.3,1.9-6,4.8-7.8,8.2-3.4-1.6-6-4.7-7.2-8.2-.4-1-.6-2.1-.8-3.2,0,4.4,1.1,5.8,0,10.8-1,4.6-4.5,8.2-7.4,10.2,0-6.4,0-14.7-5.4-18.3-2.1-1.4-2.2-4.7-1.9-7.1,0-.8.3-1.6.6-2.4-13.1,10.2-28.7,32-30.7,35.8-2.8,5.2.5,14.7,4.2,20.2,4.8-1.8,7.5-5.3,12.3-10.2-.5-.9-1-1.7-1.6-2.6,1.7-1.8,8.1-8.6,9.4-10,1.3-1.3,4-4.7,6.3-7.4.6,4.6,1.3,14.7,1.1,18.2-.5,8-.3,9.4-1.3,20.5,3.4.5,6.9,1.1,6,5.3.8.9,1.6,1.9,2,2.8.5,1.4,0,2.6-2.6,3.3.2.6.3,1.1.2,1.6Z"/><path class="cls-10" d="M9.9,148.1c.4.6.8,1.2,1.2,1.6,3,3.7,1.5,2.1,4.3,6.2.3-.3.6-.6.9-.9,2.7-2.8,5.4-5.6,8.1-8.4.5-.5,1-1.1,1.6-1.6-1.1-2.5-2.4-4.8-3.7-7.1-4.8,4.9-7.5,8.4-12.3,10.2Z"/><path class="cls-9" d="M42.2,161.9c.8-4.2-2.6-4.8-6-5.3-1.3-.2-2.6-.3-3.6-.7-3-2.8-5.8-5.8-8.1-9.2l-.2-.2c-2.7,2.8-5.4,5.6-8.1,8.4h0c3.1,4,5.8,8.1,8.1,12.5.3,3,1.9,4,4,6.2.8.8,3,2.4,5.1,3.2h0c2.1.8,3.9.8,3.8-1.6,1.1,0,3.6-1.4,2.3-3.2,1-.2,2.1-1.1,2.3-2.5,0-.5,0-1-.2-1.6,2.7-.7,3.1-1.9,2.6-3.3-.3-.9-1.1-1.9-2-2.8Z"/><path class="cls-8" d="M21.1,301c-.4,1.4-.3,5,.8,6.1,1.2,1.2,3.4,1.7,5.3,1.7,6,0,10.1,0,16,0,2.2,0,6.4.3,7.9-1.1,1.8-1.6.6-8.9-.7-10.8-4.1-3.2-12.8-5.2-18.7-4.1,0,.1,0,.1,0,0,0,0,0,0,0,0t0,0c-1.1.3-2.1.7-3.2,1.3-3,1.3-6.5,4.1-7.4,7Z"/><path class="cls-5" d="M53.9,91.6c1.6-2.2,3-4.7,2.2-8.4-1.8-1.5-3.7-3.3-5.6-5.7-3-4.4-4.6-7.3-5.3-18-.8-11.6,5.8-19.7,8.7-21.6,2.3-1.6,19.2,7.1,23.7,8.2,8.7,2.1,10.1,9.3,8.2,21.4-1.3,6-4.1,10.3-5.8,12.3-1.5,1.7-3.3,3.6-5.4,5h0c0,3.8,0,5.2.6,7.5,0,0,.2.1.3.2,3.8,2.4,9.5,3.8,14,5.8l.3-.7c3.6-2.5,6.5-9,4-12.7-1.3-2-2.7-3.8-2.9-6.1-.3-3.2,1.1-8.6,2.9-11.2,3.2-4.8,2.5-10.6-1.6-15.9-5.1-6.5-2.4-10.3-6.4-18.2-1.8-3.5-6.4-8-16.6-8-7.6,0-9.7,2.5-16.8,5.2,0,0-4.8-1.3-10.7,3.3-2.7,2.1-3.1,7.7-5,10.5-2.5,3.7-5.3,5.4-5.8,9.9-.3,3.2-.3,6.2,1.8,8.6s4.2,5.5,3.3,8.5c-.8,2.5-1.8,4.6-2,7.2-.3,3.6,2.6,5.5,3.2,9.1.2,1.4-.3,2.8-.7,4.2-.2.8-.5,1.6-.6,2.4-.3,2.5-.2,5.7,1.9,7.1,5.4,3.6,5.3,11.8,5.4,18.3,2.8-1.9,6.4-5.6,7.4-10.2,1.1-5,0-6.3,0-10.8h0c0-.2,0-.4,0-.6,0-2.6,1.8-4.6,3.4-6.8Z"/><path class="cls-12" d="M31.7,292.7s0,0,0,0c5.9-1.1,14.6.9,18.7,4.1-2-2.9-3.7-3.2-7.5-4-3-.7-7.1-1.3-11.2-.1Z"/><path class="cls-6" d="M34.3,216.2c-1.1,37.2-2.3,74.4-2.6,76.5,4.2-1.2,8.2-.5,11.2.1,3.8.8,5.5,1.1,7.5,4,.6-13.3,6-50.8,8.3-73.4-8.7-.8-18.4-4.4-24.4-7.3Z"/><path class="cls-7" d="M53.9,38c-2.8,1.9-9.4,10-8.7,21.6.7,10.7,2.3,13.6,5.3,18,2,2.3,3.8,4.2,5.6,5.7,7.7,6.2,13.8,4.9,18.5,1.6,2.1-1.5,3.9-3.3,5.4-5,1.7-2,4.6-6.2,5.8-12.3,1.9-12.1.5-19.3-8.2-21.4-4.5-1.1-21.4-9.8-23.7-8.2ZM55.9,58.1c0-1.9.8-3.4,1.9-3.4s1.9,1.5,1.9,3.4-.8,3.4-1.9,3.4-1.9-1.5-1.9-3.4ZM62.3,77.1c-1.8-1.1-1.7-.4-3.9-3.5,1,1,11.2,3.3,16.4,1.2-1.3,2.3-2.7,3.6-5.8,4-1.9.2-4.9-.5-6.7-1.6ZM77.3,58.1c0-1.6.7-3,1.5-3s1.5,1.3,1.5,3-.7,3-1.5,3-1.5-1.3-1.5-3Z"/><path class="cls-10" d="M50.5,98.4c0,.2,0,.4,0,.6h0c.2,1.1.4,2.1.8,3.2,1.2,3.5,3.9,6.6,7.2,8.2,1.8-3.4,4.5-6.3,7.8-8.2.1,0,.2.2.3.3,0-.2,0-.3,0-.5-2.2.2-6.6-.7-8.2-2.2-1.5-1.4-4.3-4.6-4.6-8.2-1.6,2.2-3.4,4.2-3.4,6.8Z"/><path class="cls-4" d="M57.8,54.7c-1,0-1.9,1.5-1.9,3.4s.8,3.4,1.9,3.4,1.9-1.5,1.9-3.4-.8-3.4-1.9-3.4Z"/><path class="cls-13" d="M58.5,73.6c2.2,3.1,2.1,2.4,3.9,3.5,1.8,1.2,4.8,1.9,6.7,1.6,3-.4,4.4-1.7,5.8-4-5.1,2.2-15.3-.1-16.4-1.2Z"/><path class="cls-6" d="M65,223.6h0c.2,9.3,7.7,76.1,8.7,74.8,1.2-2.1,2.1-3.4,4.7-4,0,0,0,0,0,0,4.1-2.1,8.2-1,11.7-1.1,0,0,.1,0,.2,0,0,0,.2,0,.2,0,0,0,.2,0,.3,0,0,0,.2,0,.2,0h0c.2-11.9.5-27.9-.6-55.3-.6-16.1-.5-11.4-1-18.6l-.2-.4c-4.6,1.9-12.4,3.8-22,4.6-.7,0-1.5.1-2.2.1Z"/><path class="cls-11" d="M99.6,138.1c-1.2,2-2.1,4.3-3.2,6.6,4.4,1.9,6.3,4.9,10.7,6.7,1.9-3.1,3.8-6.1,5.6-9.9.9-2.8.8-5.8-1.3-9.2-1.8-3-13.4-26.2-18.2-31.7h0c-1.1-.9-2.4-1.7-3.9-2.3-4.5-2-10.2-3.4-14-5.8h0c2.2,2.5,3.4,5.8,3.4,9.1,0,3.3-1.2,6.5-3.4,9-2.6-3-5.5-5.8-8.7-8.2.7,19.2,2.1,103.3.5,121,9.6-.8,17.4-2.7,22-4.6,3.2-1.3,4.8-2.6,4.5-3.5-.8-7.1-2.1-22.9-3.2-39.2-.5-6.8-.9-13.7-1.3-20.1-.7-11.8-1.2-21.8-1.3-25.9,0-1.6,0-3.6,0-6.1,2.7,3.3,10.9,12.4,11.6,14Z"/><path class="cls-8" d="M73.7,298.5c-1.2,2.1-1.8,8.7.5,9.9,1.6.9,18.8.7,24.3.4.5,0,4,0,4.5-.3,1.6-.7.8-6.7,0-8.1-2-3.5-7.7-6.2-12.1-7.2h0c0,0-.1,0-.2,0,0,0-.2,0-.3,0,0,0-.1,0-.2,0,0,0-.1,0-.2,0-2.5.2-9.6.7-11.7,1.1,0,0,0,0,0,0-1.6.8-3.1,2.1-4.7,4Z"/><path class="cls-13" d="M78.3,294.4c-2.6.6-3.5,1.9-4.7,4,1.5-2,3.1-3.2,4.7-4Z"/><path class="cls-4" d="M78.8,55.1c-.8,0-1.5,1.3-1.5,3s.7,3,1.5,3,1.5-1.3,1.5-3-.7-3-1.5-3Z"/><path class="cls-9" d="M89.6,156.1h-.4c.4,6.4.8,13.3,1.3,20.1h1c1.9-2.5,1.1-1,2.2-3.1.9-1.8,2.9-11.9,6.6-14.4h0c-2.9-1.7-5.5-3.8-7.8-6.1l-.2.2c-1.8,2.3-.7,1.1-2.6,3.4Z"/><path class="cls-13" d="M90.2,293.3c0,0,.1,0,.2,0,0,0-.1,0-.2,0Z"/><path class="cls-13" d="M90.7,293.2c0,0,.1,0,.2,0,0,0-.1,0-.2,0Z"/><path class="cls-10" d="M91.4,151.4c.3.4.7.7,1,1.1,2.3,2.4,4.9,4.4,7.8,6.1.7.4,1.4.8,2.2,1.2,1.5-3.2,3.1-5.8,4.7-8.4-4.4-1.9-6.3-4.9-10.7-6.7-1,2.2-3.6,4.9-5.1,6.7Z"/><path class="cls-2" d="M85.8,67.6c-1.3,6-4.1,10.3-5.8,12.3-1.5,1.7-3.3,3.6-5.4,5-4.7,3.3-10.8,4.6-18.5-1.6-1.8-1.5-3.7-3.3-5.6-5.7"/><path class="cls-2" d="M81.3,51.8c-1-2.2-2.8-1.9-3.8-.8"/><path class="cls-2" d="M59,51.3c-1.8-1.8-4.2-.9-4.6.5"/><path class="cls-2" d="M77.3,58.1c0,1.7.7,3,1.5,3s1.5-1.3,1.5-3-.7-3-1.5-3-1.5,1.3-1.5,3Z"/><path class="cls-2" d="M55.9,58.1c0,1.9.8,3.4,1.9,3.4s1.9-1.5,1.9-3.4-.8-3.4-1.9-3.4-1.9,1.5-1.9,3.4Z"/><path class="cls-2" d="M72.8,63.2c1.2,6-.1,6.4-6.1,5.4"/><path class="cls-2" d="M74.8,74.8c-5.1,2.2-15.3-.1-16.4-1.2,2.2,3.1,2.1,2.4,3.9,3.5,1.8,1.2,4.8,1.9,6.7,1.6,3-.4,4.4-1.7,5.8-4Z"/><path class="cls-2" d="M88,114.2c0,3.9,0,7.2,0,9.9,0,2.5,0,4.5,0,6.1,0,4.1.5,14.1,1.3,25.9.4,6.4.8,13.2,1.3,20.1,1.1,16.3,2.4,32.2,3.2,39.2.3.9-1.3,2.2-4.5,3.5-4.6,1.9-12.4,3.8-22,4.6-.7,0-1.5.1-2.2.1-.5,0-.9,0-1.4,0-1.6,0-3.2,0-4.9-.1-8.7-.8-18.4-4.4-24.4-7.3-3.3-1.6-5.5-2.9-5.8-3.5"/><path class="cls-2" d="M36.1,116.4c0,.4.1.9.2,1.5.6,4.6,1.3,14.7,1.1,18.2-.5,8-.3,9.4-1.3,20.5v.2"/><path class="cls-2" d="M100.2,158.7c-3.6,2.4-5.7,12.6-6.6,14.4-1.1,2.2-.3.7-2.2,3.1"/><path class="cls-2" d="M93.3,100.7c4.8,5.5,16.4,28.7,18.2,31.7,2,3.4,2.2,6.4,1.3,9.2"/><path class="cls-2" d="M87.6,123.7c.1.1.2.3.4.4,2.7,3.3,10.9,12.4,11.6,14"/><path class="cls-2" d="M104.7,132.3c-2.4,1.7-3.9,3.6-5.1,5.8-1.2,2-2.1,4.3-3.2,6.6-1,2.2-3.6,4.9-5.1,6.7"/><path class="cls-2" d="M39.9,114.2c-.8.6-2.1,2-3.5,3.7-2.4,2.7-5.1,6.1-6.3,7.4-1.4,1.4-7.7,8.2-9.4,10,0,0-.1.2-.2.2"/><path class="cls-2" d="M36.4,92.1c-13.1,10.2-28.7,32-30.7,35.8-2.8,5.2.5,14.7,4.2,20.2.4.6.8,1.2,1.2,1.6,3,3.7,1.5,2.1,4.3,6.2"/><path class="cls-2" d="M25.8,145c-1.1-2.5-2.4-4.8-3.7-7.1-.5-.9-1-1.7-1.6-2.6-1.3-2-2.6-4-4-5.9"/><path class="cls-2" d="M33.4,176.9c-2-.8-4.3-2.4-5.1-3.2-2.1-2.2-3.6-3.2-4-6.2"/><path class="cls-2" d="M39.9,159.4c.4.6,1.4,1.5,2.3,2.5.8.9,1.6,1.9,2,2.8.5,1.4,0,2.6-2.6,3.3.2.6.3,1.1.2,1.6-.2,1.4-1.3,2.3-2.3,2.5,1.3,1.8-1.1,3.2-2.3,3.2.1,2.4-1.7,2.4-3.8,1.6"/><path class="cls-2" d="M32.6,155.9c1,.3,2.3.5,3.6.7,3.4.5,6.9,1.1,6,5.3,0,0,0,0,0,0"/><path class="cls-2" d="M28.5,212.7c.8-10.9,4.1-31.1,4.9-35.8h0"/><path class="cls-2" d="M102.4,159.8c1.5-3.2,3.1-5.8,4.7-8.4,1.9-3.1,3.8-6.1,5.6-9.9"/><path class="cls-2" d="M66.7,102c0,.1,0,.3,0,.5.7,19.2,2.1,103.3.5,121"/><path class="cls-2" d="M31.7,292.8c5.9-1.1,14.6.9,18.7,4.1.6-13.3,6-50.8,8.3-73.4"/><path class="cls-2" d="M31.7,292.8c0,.1,0,.1,0,0,0,0,0,0,0,0Z"/><path class="cls-2" d="M34.3,214.8c0,.5,0,.9,0,1.4-1.1,37.2-2.3,74.4-2.6,76.5t0,0"/><path class="cls-2" d="M91,293.2c.2-11.9.5-27.9-.6-55.3-.6-16.1-.5-11.4-1-18.6"/><path class="cls-2" d="M90.7,293.2c0,0,.1,0,.2,0"/><path class="cls-2" d="M90.2,293.3c0,0,.1,0,.2,0"/><path class="cls-2" d="M78.4,294.4c4.1-2.1,8.2-1,11.7-1.1"/><path class="cls-2" d="M65,223.6c.2,9.3,7.7,76.1,8.7,74.8,1.5-2,3.1-3.2,4.7-4"/><path class="cls-2" d="M25.8,145c-.5.5-1,1.1-1.6,1.6-2.7,2.8-5.4,5.6-8.1,8.4-.3.3-.6.6-.9.9"/><path class="cls-2" d="M91.4,151.4c.3.4.7.7,1,1.1,2.3,2.4,4.9,4.4,7.8,6.1.7.4,1.4.8,2.2,1.2"/><path class="cls-2" d="M45.2,59.6c.7,10.7,2.3,13.6,5.3,18"/><path class="cls-1" d="M28.5,294c-3,1.3-6.5,4.1-7.4,7-.4,1.4-.3,5,.8,6.1,1.2,1.2,3.4,1.7,5.3,1.7,6,0,10.1,0,16,0,2.2,0,6.4.3,7.9-1.1,1.8-1.6.6-8.9-.7-10.8-2-2.9-3.7-3.2-7.5-4-3-.7-7.1-1.3-11.2-.1-1.1.3-2.1.7-3.2,1.3"/><path class="cls-1" d="M73.7,298.5c-1.2,2.1-1.8,8.7.5,9.9,1.6.9,18.8.7,24.3.4.5,0,4,0,4.5-.3,1.6-.7.8-6.7,0-8.1-2-3.5-7.7-6.2-12.1-7.2h0s-.1,0-.2,0c0,0-.2,0-.3,0,0,0-.1,0-.2,0,0,0-.1,0-.2,0-2.5.2-9.6.7-11.7,1.1,0,0,0,0,0,0-2.6.6-3.5,1.9-4.7,4"/><path class="cls-2" d="M92.2,152.7c-1.8,2.3-.7,1.1-2.6,3.4"/><path class="cls-2" d="M32.6,155.9c-3-2.8-5.8-5.8-8.1-9.2"/><path class="cls-2" d="M16.2,155c3.1,3.9,5.8,8.1,8.1,12.5,0,0,0,.2.1.3"/><path class="cls-1" d="M45.2,59.6c-.8-11.6,5.8-19.7,8.7-21.6,2.3-1.6,19.2,7.1,23.7,8.2,8.7,2.1,10.1,9.3,8.2,21.4"/><path class="cls-3" d="M50.5,99c0,4.4,1.1,5.8,0,10.8-1,4.6-4.5,8.2-7.4,10.2,0-6.4,0-14.7-5.4-18.3-2.1-1.4-2.2-4.7-1.9-7.1,0-.8.3-1.6.6-2.4.4-1.4.9-2.8.7-4.2-.5-3.6-3.4-5.5-3.2-9.1.2-2.6,1.2-4.7,2-7.2,1-3-1.2-6.1-3.3-8.5s-2.1-5.4-1.8-8.6c.5-4.4,3.3-6.2,5.8-9.9,1.9-2.9,2.3-8.4,5-10.5,5.8-4.6,10.7-3.3,10.7-3.3,7.1-2.8,9.2-5.2,16.8-5.2,10.2,0,14.9,4.5,16.6,8,4,7.8,1.3,11.6,6.4,18.2,4.1,5.3,4.8,11.1,1.6,15.9-1.8,2.7-3.2,8-2.9,11.2.2,2.4,1.6,4.2,2.9,6.1,2.5,3.6-.5,10.2-4,12.7"/><path class="cls-3" d="M56.1,83.2c.8,3.7-.6,6.1-2.2,8.4-1.6,2.2-3.4,4.2-3.4,6.8s0,.4,0,.6"/><path class="cls-3" d="M74.6,84.9c0,3.7,0,5.1.6,7.5,0,.3.2.7.3,1"/><path class="cls-3" d="M53.9,91c0,.2,0,.4,0,.6.3,3.6,3,6.9,4.6,8.2,1.6,1.4,6.1,2.3,8.2,2.2,2.3-.2,4.3-1.7,5.8-3.4s2.1-2.3,3-5.2"/><path class="cls-3" d="M74.8,92.1c.1,0,.2.2.3.2,0,0,.2.1.3.2,3.8,2.4,9.5,3.8,14,5.8,1.5.7,2.8,1.4,3.9,2.2"/><path class="cls-3" d="M9.9,148.1c4.8-1.8,7.5-5.3,12.3-10.2"/><path class="cls-3" d="M96.4,144.7c4.4,1.9,6.3,4.9,10.7,6.7"/><path class="cls-3" d="M50.5,99h0c0-.2,0-.3,0-.5"/><path class="cls-2" d="M75.4,92.6c2.2,2.5,3.4,5.7,3.4,9,0,3.3-1.2,6.5-3.4,9-2.6-3-5.5-5.8-8.7-8.2-.1,0-.2-.2-.3-.3-3.3,1.9-6,4.8-7.8,8.2-3.4-1.6-6-4.7-7.2-8.2-.4-1-.6-2.1-.8-3.2"/></svg>