<?xml version="1.0" encoding="UTF-8"?><svg id="asia" xmlns="http://www.w3.org/2000/svg" width="235" height="321.9" viewBox="0 0 235 321.9"><defs><style>.cls-1{stroke-linecap:round;stroke-linejoin:round;}.cls-1,.cls-2{fill:none;stroke:#000;}.cls-2{stroke-miterlimit:10;}.cls-3,.cls-4,.cls-5,.cls-6,.cls-7,.cls-8,.cls-9,.cls-10,.cls-11,.cls-12{stroke-width:0px;}.cls-4{fill:#faac8e;}.cls-5{fill:#fd0243;}.cls-6{fill:#3a3f45;}.cls-7{fill:#1a2636;}.cls-8{fill:#07bab5;}.cls-9{fill:#cbaa99;}.cls-10{fill:#fff;}.cls-11{fill:#e3c357;}.cls-12{fill:#052936;}</style></defs><path class="cls-9" d="M48.5,176.7c.6-2.8-1.4-3.9-3.9-4.6-2.1-.6-4.7-.7-6.3-1.2-2.8-2.6-7.6-13.4-11-19.8-.9-1.8-1.7-3.2-2.4-4-2.3-2.8-12.3-4.1-13.8.6-1.1,3-.1,5,2.8,9.8,1.5,2.5,14.5,17.8,17.5,20.7-1.3,2.8,1.8,7,3.8,9,.9.9,4.3,3,6.5,3.2,1.2.1,2-.4,1.9-1.8,1.1,0,3.4-1.2,2.2-2.8,1.3-.2,2.8-1.6,2-3.6,4.3-1,2.6-3.4.6-5.4Z"/><path class="cls-8" d="M12.6,144.6c-.7,1.2-1.2,2.1-1.5,3,1.5-4.7,11.5-3.4,13.8-.6.6.8,1.4,2.2,2.4,4l.5-.3c.4-.5,1.1-1.1,1.8-1.9h0c-2-5.4-9.7-6.9-15.5-6.9-.6.9-1,1.7-1.5,2.6Z"/><path class="cls-5" d="M18.7,136.4c-2.1,2.1-3.4,3.9-4.5,5.7,5.7,0,13.5,1.4,15.5,6.8h0c1.8-1.7,4.2-4.2,6.9-6.8-3.9-1.2-11.4-4.5-15.3-8.9-1.5,1.9-2.5,3.2-2.5,3.2Z"/><path class="cls-6" d="M18.1,299.1c-.4,1.4-.3,7.3.7,8.4,1.2,1.2,3.1,1.3,4.9,1.4,5.6,0,11.2.1,16.8,0,2,0,5.9.3,7.4-1,1.7-1.6-.4-12.7-.6-13h0c-5.2-.7-10.9-2.8-13.9-4.4-2.5,0-3.9.1-6.6,1.6-2.8,1.3-7.8,4.3-8.6,7Z"/><path class="cls-11" d="M26.8,126.2c-2,2.5-4,5.1-5.5,7,3.9,4.4,11.5,7.7,15.3,8.9,2.4-2.4,4.9-4.9,7.2-7.2-6.1-1.7-13.2-4.3-17-8.7Z"/><path class="cls-4" d="M31.4,120.4c-1.3,1.6-3,3.7-4.7,5.8,3.8,4.3,10.8,7,17,8.7.6-.6,1.1-1.2,1.6-1.7,0-.2,0-.2,0,0,2.1-2.2,3.8-4,4.6-5.1l.4-1.8c-6.3-1.3-12.7-3.2-18.9-5.8Z"/><path class="cls-12" d="M83.6,295.8c8,1.2,11.4-2.7,16.7-5.1.8-.4,1.6-.7,2.5-1,0-6.9-5.8-65.3-6.9-71.7-.9-5.5-2.7-22.1-3.1-28-3.6,1.6-10.4,5.1-21.3,5.1-17.7,0-26.3-3.6-27.8-6.6,0,1.5-.8,1.9-1.9,1.8-1.5,8.2-10.2,99-10.2,99,.3.3.9.7,1.7,1.1,3,1.6,8.7,3.7,13.9,4.4,2,.3,3.9.3,5.6,0,0,0,6.4-39,6.4-39,.2-.3,5-30.6,8.3-45.8.4,6,11.1,81.3,11.2,84.4,1.8.6,3.4,1,4.9,1.2Z"/><path class="cls-8" d="M93.4,124.7c3.5-1.5,5.5-3.4,5.5-5.4l.4-.2c-1.5-2.9-3-5.2-4.2-6.3-.9-.8-1.6-1.5-2.3-2.2v.2c-3.3,1.5-6.6,2.7-10,3.6.4,2.5.7,4.9.9,6.3.2,2.5-9.6-3.8-11.1-3.8-1.7.2-11.9,9.5-17.3,3.3,0-1.2,0-2.9,0-4.9h-.2c-5,0-9.9-1.2-14.2-3.7l-.2-.6c-2.4,1.8-4.2,4.5-6.4,6.5-.4.4-1.4,1.5-2.6,3,6.2,2.7,12.7,4.6,18.9,5.8,17.9,3.6,34.7,2.1,43-1.6Z"/><path class="cls-7" d="M40.3,66.8c-1.2,8.7-.4,11.7,5.7,18,.5.5,1.1,1,1.8.9.9-.2,1.2-1.3,1.3-2.2.7-6,.2-6.7,1.2-12.6s3.9-13.1,7.3-18c3.4-4.9,4.6-7.8,10.5-8.8l.4-.2c-1.2-2.8-1.8-5.3-2.5-7.1-6.5-.7-12.4.7-17,5.3-6.2,6.3-7.6,15.9-8.8,24.6Z"/><path class="cls-5" d="M40.5,110.9l.2.6c4.3,2.5,9.3,3.8,14.2,3.7h.2c0-2.6,0-5.6.3-8.1h-.7c-1.4,0-2.3.3-4.5.7-2,.3-5.9,1-7.7,1.7-.8.3-1.5.8-2.2,1.3Z"/><path class="cls-8" d="M45.1,168.5c-.2,1.4-.4,2.6-.4,3.7,2.5.7,4.5,1.8,3.9,4.6,1.9,2,3.7,4.4-.6,5.4,14.6,2.3,32.2,3.7,44.8-.7h.6c.1-3.4.2-7.1.3-10.9,0-.6,0-1.3,0-1.9-15.8,4.1-32.4,2.8-48.4,0Z"/><path class="cls-4" d="M45.4,133.1h0c0-.2,0-.2,0,0Z"/><path class="cls-5" d="M46.8,155.6c-.2,3.6-1.1,8.7-1.7,12.9,16,2.9,32.7,4.2,48.4,0,.1-4.8.2-9.6.2-13.7h-.2c-7.5,3.8-30.9,1.7-46.8.7Z"/><path class="cls-4" d="M50,128c-.8,1.1-2.5,2.9-4.6,5.1,0,.7.4,4.3.6,7.4h.3c15.5,1.8,32.4,2.6,47.7-.7,0-2.2,0-4.5,0-6.7,0-2.9-.2-5.7-.6-8.4-8.3,3.6-25.1,5.2-43,1.6l-.4,1.8Z"/><path class="cls-11" d="M93.9,141.9c0-.7,0-1.4,0-2.1-15.3,3.3-32.2,2.6-47.7.7h-.3c.2,2.1.3,4.1.3,4.7.3,3.4.7,6.9.4,10.4,15.9,1,39.3,3,46.8-.7h.2c0-2.1,0-4,0-5.7s0-4.7.1-7.2h0Z"/><path class="cls-5" d="M45.9,185.7c1.3,1.6-1.1,2.8-2.2,2.8,1.6,2.9,10.1,6.6,27.8,6.6s17.7-3.6,21.3-5.1c0-2.4.2-5.4.3-8.6h-.6c-12.6,4.4-30.1,3-44.8.7.8,2-.7,3.4-2,3.6Z"/><path class="cls-9" d="M85,89.8h0c-1.6,3-3.3,4.5-7,5-2.3.3-6.8-.2-9-1.6-1.4-.9-2.2-1.4-3.3-2.6-.7-.8,0-2,1.1-1.8,4.8,1.3,13.5,2.6,18.2.9ZM77.4,104.5c3.2-.9,6.2-2.9,9.1-5.3,4.2-3.4,5.1-6.5,6.1-11.1.3-3.9.8-8.7.7-10.8-.1-5.3-2.4-9.5-7-14.2-2.7-2.7-6.2-5.7-10.5-9.2-3.8-3.1-6-6.8-7.3-10.1l-.4.2c-5.9,1-7.1,3.8-10.5,8.8-3.4,4.9-6.3,12.1-7.3,18s-.6,6.7-1.2,12.6c.5,4.5,4.6,12,7.3,14.1.5.4.9.7,1.4,1.1,8.3,6.2,14.4,7.4,19.6,5.9ZM63.1,72.5c0-2,.9-3.6,1.9-3.6s1.9,1.6,1.9,3.6-.9,3.6-1.9,3.6-1.9-1.6-1.9-3.6ZM85.8,73c0-1.7.7-3.1,1.6-3.1s1.6,1.4,1.6,3.1-.7,3.1-1.6,3.1-1.6-1.4-1.6-3.1Z"/><path class="cls-5" d="M55.5,107.1c-.4,2.5-.4,5.5-.3,8.1,0,1.9.1,3.7,0,4.9,5.3,6.2,15.5-3.1,17.3-3.3l-.4-1.5c0,0-.1,0-.2,0-2,0-14.1-7.9-13.8-10.8,0-1,0-1.6,0-2.1h0c-1.3.7-2.1,2.6-2.4,4.9Z"/><path class="cls-9" d="M57.7,98.6c0,2.1.2,2.9.3,3.6.1.6.2,1.1,0,2.1-.3,2.9,11.8,10.8,13.8,10.8s.1,0,.2,0c1.9-.3,5.5-5.1,5.2-10.6h0c-5.2,1.5-11.3.3-19.6-5.9Z"/><path class="cls-3" d="M65,68.9c-1.1,0-1.9,1.6-1.9,3.6s.9,3.6,1.9,3.6,1.9-1.6,1.9-3.6-.9-3.6-1.9-3.6Z"/><path class="cls-10" d="M66.8,88.8c-1-.3-1.8,1-1.1,1.8,1.1,1.2,2,1.7,3.3,2.6,2.2,1.4,6.7,1.9,9,1.6,3.7-.5,5.4-2.1,7-4.9h0c-4.7,1.5-13.3.2-18.2-1.1Z"/><path class="cls-7" d="M86.3,63.2c4.7,4.7,6.9,8.8,7,14.2,0,2.2-.5,6.9-.7,10.8-.1,2-.2,3.8-.1,4.9,5-2.2,7.5-11.1,8.9-15.2,3.5-10.3,2.9-27-4.3-35.1-4.2-4.8-12.1-9.5-19.6-10.2-6.9-.6-11.9,3.1-11.5,4.2.7,1.7,1.3,4.3,2.5,7.1,1.4,3.3,3.5,7,7.3,10.1,4.3,3.5,7.9,6.5,10.5,9.2Z"/><path class="cls-5" d="M80.2,106.8c-.7-1.2-1.7-2-2.9-2.3.3,5.6-3.3,10.3-5.2,10.6l.4,1.5c1.5,0,11.3,6.3,11.1,3.8-.3-1.3-.5-3.7-.9-6.3-.5-2.7-1.2-5.5-2.4-7.5Z"/><path class="cls-5" d="M87.3,107.5c-2.1-.5-5-.8-7.1-.6,1.3,1.9,2,4.8,2.4,7.5,3.4-.8,6.7-2,9.9-3.6v-.2c-1.4-1.4-2.9-2.6-5.3-3.1Z"/><path class="cls-6" d="M83.6,295.8c-1,2.3-1.6,10.9.5,12,1.5.9,20,1.4,25.2,1.2.5,0,3.5-.7,3.9-.9,1.5-.7.8-9,0-10.4-1.8-3.3-8.9-6-13-7.1-5.2,2.5-8.7,6.4-16.7,5.1Z"/><path class="cls-3" d="M87.3,69.9c-.9,0-1.6,1.4-1.6,3.1s.7,3.1,1.6,3.1,1.6-1.4,1.6-3.1-.7-3.1-1.6-3.1Z"/><path class="cls-9" d="M93.5,170.5h0c0,3.8-.2,7.5-.3,10.9,0,3.2-.2,6.2-.3,8.6,1.7-.4,3.7-.6,4.7-3.4.8-2.2,1.2-4.1,1.9-6.3.5-1.5,1.1-2.8,1.9-4,1.8-2.8,5.2-6.3,7.9-9.2,5.2-5.5,9.6-11.2,5-18.1-.1-.2-.3-.5-.5-.9h0c-2-.9-6,.8-6.9,1.5-2.7,2.3-4.1,4.6-5.5,7.2-.5.9-1,1.9-1.5,2.9-.9,1.9-6.5,10.3-6.5,10.8Z"/><path class="cls-11" d="M94,139.8c0,.7,0,1.4,0,2.1h0c.3.4.7,1.1,1.2,2,4.6-1.4,9.7-3.1,13.1-6.4-1.3-2.6-2.8-5.8-4.3-9.1l-.4.2c-2.7,2.2-5.8,3.7-9.2,4.4h-.3c0,2.2,0,4.5,0,6.7Z"/><path class="cls-4" d="M93.4,124.7c.4,2.7.6,5.5.6,8.4h.3c3.4-.7,6.5-2.2,9.2-4.4l.4-.2c-1.5-3.3-3.1-6.7-4.6-9.5l-.4.2c0,2-2,3.9-5.5,5.4Z"/><path class="cls-5" d="M95.1,143.9c1.2,2.3,2.9,5.9,4.4,8.8,4.7-2.1,13.1-7,13.1-7.1-.6-1.1-1.4-2.5-2.2-4-.6-1.1-1.4-2.5-2.2-4.1-3.5,3.3-8.5,5-13.1,6.4Z"/><path class="cls-8" d="M99.5,152.7c.8,1.6,1.5,3.1,2,4,1.3-2.6,2.8-4.8,5.5-7.2.9-.8,4.9-2.4,6.9-1.5-.4-.6-.8-1.4-1.4-2.4,0,0-8.4,5-13.1,7.1Z"/><path class="cls-2" d="M77.3,104.2c0,.1,0,.2,0,.3h0c.3,5.6-3.3,10.4-5.2,10.7,0,0-.1,0-.2,0-2,0-14.1-7.9-13.8-10.8,0-1,0-1.6,0-2.1-.1-.7-.3-1.5-.3-3.6"/><path class="cls-2" d="M80,106.8c0,0,.2,0,.3,0,2-.2,5,.2,7.1.6,2.4.6,3.9,1.7,5.4,3.1.7.7,1.5,1.4,2.3,2.2,1.2,1.1,2.7,3.4,4.2,6.3,1.5,2.8,3.1,6.1,4.6,9.5,1.5,3.2,3,6.4,4.3,9.1.8,1.6,1.5,3,2.2,4.1"/><path class="cls-2" d="M43.7,134.8c.6-.6,1.1-1.2,1.6-1.7h0c2.1-2.2,3.8-4.1,4.6-5.1,0,0,0-.1.1-.2"/><path class="cls-2" d="M36.6,142.1c2.4-2.4,4.9-4.9,7.2-7.2"/><path class="cls-2" d="M27.9,150.8c.4-.5,1.1-1.1,1.8-1.9,1.8-1.8,4.2-4.2,6.9-6.9"/><path class="cls-2" d="M54.9,107c-1.4,0-2.3.5-4.5.8-2,.3-5.9,1-7.7,1.7-.8.3-1.5.8-2.2,1.3-2.4,1.8-4.2,4.5-6.4,6.5-.4.4-1.4,1.5-2.6,3-1.3,1.6-3,3.7-4.7,5.8-2,2.5-4,5.1-5.5,7-1.5,1.9-2.5,3.2-2.5,3.2"/><path class="cls-2" d="M93.9,141.9c0,2.5-.1,4.9-.1,7.2s0,3.6,0,5.7c0,4.1-.1,8.9-.2,13.7,0,.6,0,1.3,0,1.9,0,3.8-.2,7.5-.3,10.9,0,3.2-.2,6.2-.3,8.6-3.6,1.6-10.4,5.1-21.3,5.1-17.7,0-26.3-3.6-27.8-6.6"/><path class="cls-2" d="M92.9,122.1c.2.9.3,1.7.5,2.6.4,2.7.6,5.5.6,8.4,0,2.2,0,4.5,0,6.7,0,.7,0,1.4,0,2.1"/><path class="cls-2" d="M45.4,133.1c0-.2,0-.2,0,0,0,.7.4,4.3.6,7.4.2,2.1.3,4,.3,4.7.3,3.4.7,6.9.4,10.4-.2,3.6-1.1,8.7-1.7,12.9-.2,1.4-.4,2.6-.4,3.7,0,.1,0,.3,0,.4"/><path class="cls-2" d="M101.5,176.2c-.8,1.2-1.4,2.5-1.9,4-.7,2.2-1.2,4.1-1.9,6.3-1,2.9-3,3-4.7,3.4"/><path class="cls-2" d="M113.9,148.1c.2.3.4.6.5.9,4.5,6.9.2,12.6-5,18.1-2.7,2.9-6.1,6.3-7.9,9.2"/><path class="cls-2" d="M110.4,141.7c.8,1.5,1.5,2.9,2.2,4,.5,1,1,1.8,1.4,2.4"/><path class="cls-2" d="M93.7,141.7c0,0,.1.1.2.2h0c.3.4.7,1.1,1.2,2,1.2,2.3,2.9,5.9,4.4,8.8.8,1.6,1.5,3.1,2,4"/><path class="cls-2" d="M113.9,148.1h0c-2-.9-6,.8-6.9,1.5-2.7,2.3-4.1,4.6-5.5,7.2-.5.9-1,1.9-1.5,2.9-.9,1.9-6.5,10.3-6.5,10.8s0,0,0,0"/><path class="cls-2" d="M18.7,136.4c-2.1,2.1-3.4,3.9-4.5,5.7-.6.9-1,1.7-1.5,2.6-.7,1.2-1.2,2.1-1.5,3-1.1,3-.1,5,2.8,9.8,1.5,2.5,14.5,17.8,17.5,20.7"/><path class="cls-2" d="M38.3,170.9c-2.8-2.6-7.6-13.4-11-19.8-.9-1.8-1.7-3.2-2.4-4"/><path class="cls-2" d="M46.3,174.5c.4.5,1.3,1.3,2.2,2.2,1.9,2,3.7,4.4-.6,5.4.8,2-.7,3.4-2,3.6,1.3,1.6-1.1,2.8-2.2,2.8,0,1.5-.8,1.9-1.9,1.8-2.2-.2-5.6-2.3-6.5-3.2-2-1.9-5.1-6.1-3.8-9"/><path class="cls-2" d="M38.3,170.9c1.6.5,4.2.7,6.3,1.2,2.5.7,4.5,1.8,3.9,4.6h0"/><path class="cls-2" d="M92.9,190c.4,5.9,2.2,22.4,3.1,28,1,6.4,6.9,64.8,6.9,71.7-.9.3-1.7.6-2.5,1-5.2,2.5-8.7,6.4-16.7,5.1-1.5-.2-3.1-.6-4.9-1.2,0-3.1-10.9-78.4-11.2-84.4,0-.1,0-.2,0-.2"/><path class="cls-2" d="M69.7,202.2c-.6,1.1-1.3,4-2.2,7.9-3.3,15.1-8.2,45.4-8.3,45.8,0,0-6.4,39-6.4,39-1.7.3-3.6.2-5.6,0-5.2-.7-10.9-2.8-13.9-4.4-.8-.4-1.4-.8-1.7-1.1,0,0,8.7-90.8,10.2-99h0v-.2"/><path class="cls-1" d="M33.3,290.5c-2.5,0-3.9.1-6.6,1.6"/><path class="cls-1" d="M26.7,292.1c-2.8,1.3-7.8,4.3-8.6,7-.4,1.4-.3,7.3.7,8.4,1.2,1.2,3.1,1.3,4.9,1.4,5.6,0,11.2.1,16.8,0,2,0,5.9.3,7.4-1,1.7-1.6-.4-12.7-.6-13"/><path class="cls-1" d="M83.7,295.6s0,0,0,.1c-1,2.3-1.6,10.9.5,12,1.5.9,20,1.4,25.2,1.2.5,0,3.5-.7,3.9-.9,1.5-.7.8-9,0-10.4-1.8-3.3-8.9-6-13-7.1-.2,0-.3,0-.5-.1"/><path class="cls-1" d="M93.2,85.7c-.2.9-.4,1.7-.5,2.5-1,4.6-2,7.8-6.1,11.1-3,2.4-5.9,4.3-9.1,5.3-5.2,1.5-11.3.3-19.6-5.9-.5-.3-.9-.7-1.4-1.1-2.7-2.2-6.8-9.7-7.3-14.1"/><path class="cls-1" d="M92.1,66.6c-.9-2-3.8-3.5-5.7-3.5-.6,0-1.1.2-1.4.5"/><path class="cls-1" d="M68.7,64.5c-2.2-2.2-7.9-.8-8.4.9"/><path class="cls-1" d="M85.8,73c0,1.7.7,3.1,1.6,3.1s1.6-1.4,1.6-3.1-.7-3.1-1.6-3.1-1.6,1.4-1.6,3.1Z"/><path class="cls-1" d="M63.1,72.5c0,2,.9,3.6,1.9,3.6s1.9-1.6,1.9-3.6-.9-3.6-1.9-3.6-1.9,1.6-1.9,3.6Z"/><path class="cls-1" d="M83.8,83c-1.8,2.6-5.5,3.2-8.3,2.6"/><path class="cls-1" d="M85.5,89.6c-.2,0-.3.1-.5.2-4.7,1.7-13.3.4-18.2-.9-1-.3-1.8,1-1.1,1.8,1.1,1.2,2,1.7,3.3,2.6,2.2,1.4,6.7,1.9,9,1.6,3.7-.5,5.4-2.1,7-4.9"/><path class="cls-2" d="M58,102.3c-1.3.7-2.1,2.6-2.4,4.8-.4,2.5-.4,5.5-.3,8.1,0,1.9.1,3.7,0,4.9,5.3,6.2,15.5-3.1,17.3-3.3,1.5,0,11.3,6.3,11.1,3.8-.3-1.3-.5-3.7-.9-6.3-.5-2.7-1.2-5.5-2.4-7.5-.7-1.2-1.7-2-2.9-2.3"/><path class="cls-2" d="M25,147c-2.3-2.8-12.3-4.1-13.8.6"/><path class="cls-2" d="M40.8,111.5c4.3,2.5,9.3,3.8,14.2,3.7"/><path class="cls-2" d="M82.5,114.3h.2c3.4-.9,6.7-2.1,9.9-3.6"/><path class="cls-2" d="M31.4,120.4c6.2,2.7,12.7,4.6,18.9,5.8,17.9,3.6,34.7,2.1,43-1.6,3.5-1.5,5.5-3.4,5.5-5.4"/><path class="cls-2" d="M46.2,140.5c15.5,1.8,32.4,2.6,47.7-.7.2,0,.5-.1.7-.2"/><path class="cls-2" d="M46.8,155.6c15.9,1,39.3,3,46.8-.7"/><path class="cls-2" d="M44.6,168.4c.2,0,.3,0,.5,0,16,2.9,32.7,4.2,48.4,0"/><path class="cls-2" d="M47.8,182.1c14.6,2.3,32.2,3.7,44.8-.7"/><path class="cls-2" d="M26.8,126.2c3.8,4.3,10.8,7,17,8.7"/><path class="cls-2" d="M21.1,133c0,0,0,.1.1.2,3.9,4.4,11.5,7.7,15.3,8.9"/><path class="cls-2" d="M14.2,142.1c5.7,0,13.5,1.4,15.5,6.8"/><path class="cls-2" d="M103.5,128.7c-2.7,2.2-5.8,3.7-9.2,4.4"/><path class="cls-2" d="M108.9,136.8c-.2.3-.5.5-.7.7-3.5,3.3-8.5,5-13.1,6.4"/><path class="cls-2" d="M112.5,145.6c0,0-8.4,5-13.1,7.1,0,0,0,0-.1,0"/><path class="cls-2" d="M68.5,43.9c1.4,3.3,3.5,7,7.3,10.1,4.3,3.5,7.9,6.5,10.5,9.2,4.7,4.7,6.9,8.8,7,14.2,0,2.2-.5,6.9-.7,10.8-.1,2-.2,3.8-.1,4.9,5-2.2,7.5-11.1,8.9-15.2,3.5-10.3,2.9-27-4.3-35.1-4.2-4.8-12.1-9.5-19.6-10.2-6.9-.6-11.9,3.1-11.5,4.2.7,1.7,1.3,4.3,2.5,7.1Z"/><path class="cls-2" d="M66,36.8c-6.5-.7-12.4.7-17,5.3-6.2,6.3-7.6,15.9-8.8,24.6-1.2,8.7-.4,11.7,5.7,18,.5.5,1.1,1,1.8.9.9-.2,1.2-1.3,1.3-2.2.7-6,.2-6.7,1.2-12.6s3.9-13.1,7.3-18c3.4-4.9,4.6-7.8,10.5-8.8"/></svg>