<?xml version="1.0" encoding="UTF-8"?><svg id="asia" xmlns="http://www.w3.org/2000/svg" width="235" height="321.9" viewBox="0 0 235 321.9"><defs><style>.cls-1,.cls-2,.cls-3,.cls-4{fill:none;stroke:#000;}.cls-1,.cls-3{stroke-linecap:round;stroke-linejoin:round;}.cls-2{stroke-width:.8px;}.cls-2,.cls-4{stroke-miterlimit:10;}.cls-3{stroke-width:.5px;}.cls-5,.cls-6,.cls-7,.cls-8,.cls-9,.cls-10,.cls-11,.cls-12{stroke-width:0px;}.cls-6{fill:#f9f9f9;}.cls-7{fill:#3e3e47;}.cls-8{fill:#c5a479;}.cls-9{fill:#deb796;}.cls-10{fill:#b3cfd2;}.cls-11{fill:#65483a;}.cls-12{fill:#fff;}</style></defs><path class="cls-11" d="M30.3,147.2c1.8-1.8,2.9-3.4,2.5-4.2-.5-.9-3-5.7-4.1-5.8-.6,0-1.3,0-2,.2h0c-3.9,1.1-9.1,5.5-12.2,8.8h0c-.9.9-1.6,1.7-2,2.3,1.9,3,4.2,4.6,6.8,6.9.2,0,1.2-.5,2.7-1.5,2.4-1.6,6-4.3,8.4-6.7Z"/><path class="cls-6" d="M21,292.4c-2.9,1.6-6.4,4.1-7.1,6.4-.4,1.4-.3,7.6.7,8.7,1.2,1.2,3.2,1.4,5,1.4,5.8,0,11.5.1,17.3,0,2.1,0,6.1.3,7.6-1.1,1.3-1.2,1-6.7.3-10.4-2.2,0-21.7-5-23.9-5,0,0,0-.1,0-.2Z"/><path class="cls-9" d="M26.8,158.3h0c-1.3,2.9,2.2,7.7,4.3,9.7.7.7,2.9,2.1,4.9,2.9,2.1.8,4,.8,3.9-1.5,1.1,0,3.5-1.3,2.2-2.9,1.3-.2,2.9-1.7,2-3.8,4.5-1,2.7-3.6.7-5.6.9-4-3.5-4.8-7.3-5.4-1.2-.2-2.3-.4-3.2-.6-2.1-.7-2.8-1.7-3.9-3.9-2.4,2.4-6,5.1-8.4,6.7,1.9,1.5,3.8,3,4.9,4.4h0Z"/><path class="cls-11" d="M56,155.8c.3-5.1.5-11.4.6-20.1h0c-4.1-10.6-7.8-22.5-10.2-29.7l-1.7.4c-1.3,1.8-4,5.4-7.4,9.4h0c3.2,14.2,2.9,23.8,0,35.8v.2c3.7.6,8.1,1.4,7.2,5.4,2,2,3.8,4.5-.7,5.6.9,2.1-.7,3.5-2,3.8,1.3,1.6-1.1,2.9-2.2,2.9.1,2.3-1.8,2.2-3.9,1.5h-1c-.8,9.9-4.5,18-5.4,27.9,1.1,0,2.3.2,3.4.3,5,.4,9.9.7,14.9,1.1,5-24.6,7.3-29.6,8.3-44.3Z"/><path class="cls-8" d="M85.3,143.7c1.5-3.6,2.8-7.6,4-11.7,1.3-4.6,2.4-9.3,3.3-13.8h0c2.1-10.6,3.1-19.6,3.2-21.7,0-.5,0-.9,0-1.3,0-10.3-7.8-6-2.7-27.7.8-3.3,1.3-7.9,1.5-12.7-.6,1.8-2.2,3.1-4.2,3.5h0c-.3,4.6-1.6,10.3-5.3,15.1-5.4,6.9-10.2,14.8-25.8,2.6-5.2-4.5-6-16.4-6.6-23.6,0-.6,0-1.3.1-1.9h0c-.3-3.6-.6-6.2-.7-7.1v-.5s.8-.2.8-.2c1.2-.3,2.4-.6,3.6-.9,3.9-5.5,10.1-9.8,14-13,4.5-3.6,12.7,4.5,16.8,12.4,0,0,0,0,0,0,.3,0,.6.2.8.4,0,0,0,0,0,0,1.3.2,2.6.4,3.8.7l2.2.6c-.3-2.6-.7-5-1.2-6.9-2.3-7.9-5.9-14.3-13.4-18.4-9.3-5-27.2-.8-33,7.8-18.3,27.7-15.2,57.4-11.4,64,1.3,2.2,6.4,3.6,9.4,11.5.4,1.2,1,2.8,1.7,4.9,2.4,7.2,6.1,19.1,10.2,29.7h0c4.2,10.8,8.7,20.2,12.7,22.3h0c1.7,0,3.3,0,4.7,0,0,0,.2,0,.2,0,4.4-1.7,8.1-7.1,11.1-14.1h0Z"/><path class="cls-11" d="M22.7,129.9c5.1-3.5,10.4-9.2,14.7-14.2,3.4-4,6.1-7.6,7.4-9.4l1.7-.4c-.7-2-1.2-3.7-1.7-4.9-3-7.9-8.1-9.3-9.4-11.5-2.4,1.2-2.6,3.4-5.6,6.1-2.1,2-21.2,28.6-21.2,28.6-3,5.3,2.9,16.3,5.8,21.9,3.2-3.3,8.3-7.7,12.2-8.8h0c-.3-.8-.6-1.6-.8-2.2-1.1-2.3-2-3.9-3.2-5.2h0s0,0,0,0c0,0,0,0,0,0Z"/><path class="cls-5" d="M53.1,42.7l-.8.2v.5c.1.9.4,3.5.7,7.1.2-1.7.7-3.3,1.4-4.8h0c0-.2,0-.4,0-.4h.3c.4-1,1-1.8,1.5-2.7h0c.1-.2.3-.5.5-.7-1.2.2-2.4.5-3.6.9Z"/><path class="cls-5" d="M54.8,53.4c-.2-2.7-.4-6.4-.4-7.7-.7,1.5-1.2,3.2-1.4,4.8h0c0,.9.1,1.9.2,3,.2,2.8,2.6,5,5.5,4.9,3,0,5.2,0,7.8-.2,1.9,0,3.9-1.6,4.1-3.4.1-1.3.3-2.5.4-3.6h-.9c0,0-.4-.1-.4-.1h-.8c-.1.8-.2,1.8-.3,2.8-.1,1.3-1.3,2.3-2.6,2.3-2.6.1-4.9.2-7.8.2-1.8,0-3.2-1.3-3.4-3Z"/><path class="cls-12" d="M54.6,45.1h-.3c0,.2,0,.3,0,.5,0-.2.2-.3.2-.5Z"/><path class="cls-12" d="M54.4,45.7h0c0,1.4.2,5,.4,7.7.1,1.7,1.6,3,3.4,3,2.9,0,5.2,0,7.8-.2,1.4,0,2.5-1.1,2.6-2.3.1-1,.2-1.9.3-2.9.2-1.3.3-2.6.4-4.2,0-.7.1-1.5.2-2.3-2.8-.7-8.8-1.1-14.9.6,0,.2-.2.3-.2.5ZM62.1,49.8c0-1.3.6-2.4,1.3-2.4s1.3,1.1,1.3,2.4-.6,2.4-1.3,2.4-1.3-1.1-1.3-2.4Z"/><path class="cls-9" d="M56.6,41.9c-.2.2-.3.4-.5.7.5-.4,1.5-.7,2.7-1-.7,0-1.5.2-2.2.3Z"/><path class="cls-5" d="M56.6,135.6c0,8.7-.3,15-.6,20.1,5.2,1.4,9.6,2,13.3,2.2-4-2.1-8.5-11.6-12.7-22.3Z"/><path class="cls-9" d="M58.8,41.5c3.8-.4,7.7-.2,11.4.7l1.4.3c-.1,1.6-.2,3-.3,4.4h.2c2.2,0,3.5,0,5.1,0h.2c-.1-1.3-.2-2.8-.3-4.4l1.8-.5h0c.8-1,6.4-1.6,9.2-.7-4.2-7.9-12.3-16-16.8-12.4-4,3.1-10.1,7.5-14,13,.7-.1,1.5-.2,2.2-.3Z"/><path class="cls-5" d="M63.4,47.4c-.7,0-1.3,1.1-1.3,2.4s.6,2.4,1.3,2.4,1.3-1.1,1.3-2.4-.6-2.4-1.3-2.4Z"/><path class="cls-12" d="M62.9,66.2c2.3,3.5,2.2,2.7,4.2,4,2,1.3,5.2,2.1,7.2,1.8,3.3-.5,4.8-1.9,6.2-4.5-5.5,2.5-16.4-.2-17.6-1.3Z"/><path class="cls-5" d="M70,51.1h.9s0,0,0-.1c.1-1.3.3-2.6.4-4h-1.1c0,0-.2,0-.2,0h-.7c-.1,1.5-.3,2.8-.4,4.1h.8c0,0,.4.1.4.1Z"/><path class="cls-5" d="M71.3,47c0,0,0-.1,0-.2.1-1.3.2-2.7.3-4.4l-1.4-.3c-3.8-.9-7.6-1.1-11.4-.7-1.2.3-2.2.6-2.7,1h0c-.6.9-1.1,1.7-1.5,2.6,6-1.7,12-1.3,14.9-.6,0,.8-.1,1.6-.2,2.3h.7c0,0,.2,0,.2,0h1.1c0,0,0,0,0,0Z"/><path class="cls-7" d="M74,157.9c-1.4.1-3,.1-4.7,0,.4.2.9.4,1.3.4,1.2.1,2.3,0,3.4-.4,0,0,0,0,0,0Z"/><path class="cls-9" d="M89.5,58.4c-3,0-5.2,0-7.8-.2-1.9,0-3.9-1.6-4.1-3.4-.1-1.3-.3-2.4-.4-3.6h-.4c-1.8,0-1.9,0-5.5-.2h-.4s0,0,0,.1c-.1,1.2-.2,2.4-.4,3.6-.2,1.8-2.2,3.3-4.1,3.4-2.7.1-4.9.2-7.8.2-2.9,0-5.3-2.2-5.5-4.9,0-1.1-.1-2.1-.2-3,0,.6-.1,1.3-.1,1.9.6,7.2,1.4,19.1,6.6,23.6,15.6,12.1,20.4,4.3,25.8-2.6,3.7-4.7,5-10.4,5.3-15-.3,0-.7,0-1,0ZM67.1,70.3c-1.9-1.3-1.8-.5-4.2-4,1.1,1.2,12.1,3.8,17.6,1.3-1.4,2.6-2.9,4.1-6.2,4.5-2,.3-5.2-.5-7.2-1.8Z"/><path class="cls-5" d="M71.3,46.9c0,0,0,.1,0,.2h0c-.1,1.4-.2,2.7-.4,4h.4c3.6.2,3.7.2,5.5.2h.4c-.1-1.5-.3-2.9-.4-4.4h-.2c-1.6,0-2.9,0-5.1,0h-.2Z"/><path class="cls-7" d="M74,157.9s0,0,0,0c0,0,.1,0,.2,0,0,0-.2,0-.2,0Z"/><path class="cls-12" d="M78.6,44.6c.3,3.9.6,6.3.9,9.3.1,1.3,1.3,2.3,2.6,2.3,2.6.1,4.9.2,7.8.2,1.8,0,3.2-1.3,3.4-3,.2-3.1.4-7.4.4-8.2-1.5-.4-3.2-.7-4.9-.9-4.2-.4-8.4-.3-10.2.2ZM84.5,50.3c0-1.4.5-2.5,1.2-2.5s1.2,1.1,1.2,2.5-.5,2.5-1.2,2.5-1.2-1.1-1.2-2.5Z"/><path class="cls-9" d="M87.5,41.3c-2.8-.9-8.4-.3-9.2.7,3.1-.6,6.3-.7,9.4-.4,0-.1-.1-.2-.2-.3,0,0,0,0,0,0Z"/><path class="cls-5" d="M85.6,47.9c-.7,0-1.2,1.1-1.2,2.5s.5,2.5,1.2,2.5,1.2-1.1,1.2-2.5-.5-2.5-1.2-2.5Z"/><path class="cls-5" d="M74.3,157.9c5.6-.4,9.1-1.8,10.9-2,0-3.6,0-7.6.2-12.2-3,7-6.6,12.5-11.1,14.1Z"/><path class="cls-11" d="M85.1,155.9c0,14.9.9,23,2.9,42.4,2.7.2,5.5-.2,8-1.2,1.2-.5,2.3-1.1,3.4-1.9-3.4-14.4-5-20.3-6.2-25.2-1.1-4.6-1.8-8.2-3.3-17.3,0-.2,0-.5,0-.7,0-1.5,0-2.7,0-3.8-.1-6-.1-7.2-.1-16.2h-.4c-1.2,4-2.5,8-4,11.6h0c-.1,4.6-.2,8.6-.2,12.2Z"/><path class="cls-8" d="M87.5,41.3c0,0,.1.2.2.3t0,0c.2,0,.4,0,.7,0-.2-.2-.5-.3-.8-.4Z"/><path class="cls-9" d="M89.9,152.8c1.5,9.1,2.2,12.7,3.3,17.3,1.8-.4,1.1.2,2.2-2.8.8-2.3,1.3-4.2,2-6.5.6-1.8,1.4-3.3,2.3-4.7-3.1-1.4-6.3-4.8-7.8-6.4-.6.9-1.3,1.8-2,2.4,0,.2,0,.5,0,.7Z"/><path class="cls-5" d="M94.6,45c0-.7-.1-1.4-.2-2l-2.2-.6c-1.3-.3-2.6-.6-3.8-.7,0,0,0,0,0,0-.2,0-.4,0-.7,0,.5.9.9,1.7,1.2,2.6v.2c1.7.2,3.4.5,4.9.9,0,0,0-.1,0-.1h.8Z"/><path class="cls-5" d="M93.3,53.4c-.1,1.7-1.6,3-3.4,3-2.9,0-5.2,0-7.8-.2-1.4,0-2.5-1.1-2.6-2.3-.3-3-.7-5.5-.9-9.3,1.8-.5,6-.6,10.2-.2v-.2c-.3-.9-.7-1.7-1.2-2.6t0,0c-3.1-.3-6.3-.2-9.4.4h0l-1.8.5c0,1.6.2,3,.3,4.4.1,1.6.3,3,.4,4.4.1,1.2.2,2.3.4,3.6.2,1.8,2.2,3.3,4.1,3.4,2.7.1,4.9.2,7.8.2.4,0,.7,0,1,0h0c1.9-.3,3.5-1.7,4.2-3.5h0c.1-3.3.1-6.7-.1-9.8h-.8c0,0,0,0,0,.2,0,.7-.2,5.1-.4,8.2Z"/><path class="cls-5" d="M95,53.5c.3-4.9.7-8.6.9-10.1l-1.5-.4c0,.7.1,1.3.2,2,.2,3.2.2,6.5.1,9.8.2-.4.2-.9.3-1.4Z"/><path class="cls-11" d="M103.5,108.8c-1.9-3.5-4.6-9-7.5-13.6h-.1c0,.4,0,.8,0,1.3-.1,2.1-1.1,11.1-3.2,21.7h0c2.1,4.4,7.1,13.3,8.8,15.4-1.5,2.6-2.6,5.5-3.8,7.9-.2.4-.4.8-.6,1.1,0,0,0,0,0,0,2.6.8,7.2,4.5,8.9,6.6.3-.3.6-.6.9-.9,5.4-5.7,12-12.5,7.3-19.7-1.8-2.7-8.6-16.5-10.6-19.9Z"/><path class="cls-11" d="M96.7,142.6c-3-.6-5.6,3.8-5.6,5.7s0,.5.2.7c.2.2.4.4.7.7,1.5,1.7,4.7,5,7.8,6.4.7.3,1.3.5,2,.6,2.4-1.3,6-5.1,4.4-7.2,0,0-.2-.2-.2-.3-1.7-2.1-6.4-5.8-8.9-6.6,0,0,0,0,0,0-.1,0-.2,0-.3,0Z"/><path class="cls-10" d="M21,292.4c0,0,0,.1,0,.2,2.2,0,21.7,5,23.9,5,4.2-22.6,8.6-41.2,9.9-57.8,1.1-13.7,6.3-30.7,9.2-46.5,4.3,17.5,7.1,27,8.2,45.6.8,14,3.6,37.3,6.7,60.3.2.1.5.1.9.1,4.6,0,20.1-6.3,22.9-6.8,0-.4,0-.8,0-1.1-.6-16.2.3-38.9-3.2-52.3-2.7-10.2-2-31-3.5-42-2.5,1-5.3,1.5-8,1.2-2-19.4-2.9-27.5-2.9-42.4-1.8.2-5.3,1.6-10.9,2,0,0-.1,0-.2,0-1.1.4-2.2.5-3.4.4-.4,0-.9-.2-1.3-.4h0c-3.7-.1-8.1-.7-13.3-2.2-1,14.7-3.3,19.8-8.3,44.3-5-.4-9.9-.7-14.9-1.1-2,11-.4,31-4.3,40.5-5.7,13.7-6.8,37.5-7.6,52.9Z"/><path class="cls-6" d="M111.3,297.2c-1.2-2.3-5-4.4-8.6-5.8,0,.4,0,.8,0,1.1-2.8.4-18.3,6.8-22.9,6.8-.3,3.5.3,8.1,1.7,8.9,1.5.9,20.4.9,25.7.7.5,0,3.6-.7,4.1-.9,1.6-.7.8-9.4,0-10.8Z"/><path class="cls-4" d="M96,95.2c2.9,4.5,5.6,10.1,7.5,13.6"/><path class="cls-4" d="M22.7,129.9c5.1-3.5,10.4-9.2,14.7-14.2,3.4-4,6.1-7.6,7.4-9.4"/><path class="cls-4" d="M20.9,129.4c.7.2,1.3.4,1.8.5,0,0,0,0,0,0"/><path class="cls-4" d="M35.4,89.6c-2.4,1.2-2.6,3.4-5.6,6.1-2.1,2-21.2,28.6-21.2,28.6"/><path class="cls-4" d="M69.3,158c-3.7-.1-8.1-.7-13.3-2.2-.4-.1-.9-.2-1.3-.4"/><path class="cls-4" d="M85.3,155.9c0,0-.1,0-.2,0-1.8.2-5.3,1.6-10.9,2,0,0-.2,0-.2,0-1.4.1-3,.1-4.7,0"/><path class="cls-4" d="M89.7,132.1c0,9,0,10.2.1,16.2,0,1.1,0,2.3,0,3.8,0,.2,0,.5,0,.7"/><path class="cls-4" d="M99.9,155.9c0,0-.1.2-.2.3-1,1.4-1.7,2.9-2.3,4.7-.8,2.3-1.2,4.3-2,6.5-1.1,3-.4,2.3-2.2,2.8"/><path class="cls-4" d="M103.5,108.8c2,3.4,8.8,17.2,10.6,19.9,4.7,7.1-1.9,14-7.3,19.7-.3.3-.6.6-.9.9-.1.1-.3.3-.4.4"/><path class="cls-4" d="M101.4,133.6c.1.1.2.3.3.3"/><path class="cls-4" d="M92.6,118.2c2.1,4.4,7.1,13.3,8.8,15.4"/><path class="cls-4" d="M92.2,117.4c.1.3.3.6.4.9"/><path class="cls-4" d="M92.2,149.3c0,.1-.2.3-.3.4-.6.9-1.3,1.8-2,2.4,0,0-.1.1-.2.2"/><path class="cls-4" d="M97,142.7c0,.1-.1.2-.2.3"/><path class="cls-4" d="M106.1,128.3c-2,1.3-3.5,3.2-4.7,5.4h0c-1.5,2.6-2.6,5.5-3.8,7.9-.2.4-.4.8-.6,1.1"/><path class="cls-4" d="M35.4,118c-2,1.4-4.2,4.4-6.2,6.3s-5.1,4.4-6.4,5.7c0,0,0,0,0,0"/><path class="cls-4" d="M21.7,153.7c0,0,.2.1.2.2,1.9,1.5,3.8,3,4.9,4.4h0c.1.1.2.3.3.4"/><path class="cls-4" d="M14.4,146.2s0,0,0,0"/><path class="cls-4" d="M8.6,124.3c-3,5.3,2.9,16.3,5.8,21.9"/><path class="cls-4" d="M26.6,137.4c-.3-.8-.6-1.6-.8-2.2-1.1-2.3-2-3.9-3.2-5.2"/><path class="cls-4" d="M26.8,137.7c0-.1,0-.2-.1-.3"/><path class="cls-4" d="M34.2,151.1c-2.1-.7-2.8-1.7-3.9-3.9,0-.1-.1-.2-.2-.4"/><path class="cls-4" d="M42.4,154.9c.4.5,1.4,1.4,2.2,2.2,2,2,3.8,4.5-.7,5.6.9,2.1-.7,3.5-2,3.8,1.3,1.6-1.1,2.9-2.2,2.9.1,2.3-1.8,2.2-3.9,1.5-2-.7-4.2-2.2-4.9-2.9-2.1-2-5.6-6.8-4.3-9.7"/><path class="cls-4" d="M34.2,151.1c.9.3,2,.4,3.2.6,3.8.6,8.1,1.4,7.3,5.4,0,0,0,0,0,0"/><path class="cls-4" d="M71,182.1c-2.2,1.9-5,5.6-6.2,6.7"/><path class="cls-1" d="M22.8,291.5c-.5.2-1.1.5-1.8.9-2.9,1.6-6.4,4.1-7.1,6.4-.4,1.4-.3,7.6.7,8.7,1.2,1.2,3.2,1.4,5,1.4,5.8,0,11.5.1,17.3,0,2.1,0,6.1.3,7.6-1.1,1.3-1.2,1-6.7.3-10.4-.1-.8-.3-1.4-.5-2"/><path class="cls-1" d="M79.9,298.2c0,.4,0,.7-.1,1.1-.3,3.5.3,8.1,1.7,8.9,1.5.9,20.4.9,25.7.7.5,0,3.6-.7,4.1-.9,1.6-.7.8-9.4,0-10.8-1.2-2.3-5-4.4-8.6-5.8-.2,0-.4-.2-.6-.2"/><path class="cls-1" d="M90.5,58.4c-.3,4.6-1.6,10.3-5.3,15-5.4,6.9-10.2,14.8-25.8,2.6"/><path class="cls-1" d="M90.6,57.5c0,.3,0,.6,0,.9"/><path class="cls-1" d="M87.5,41.3c-2.8-.9-8.4-.3-9.2.7"/><path class="cls-1" d="M88.3,41.7c-.2-.2-.5-.3-.8-.4"/><path class="cls-1" d="M89,42.3c-.1-.3-.3-.5-.6-.6"/><path class="cls-1" d="M56.1,42.5c-.2.1-.3.3-.4.4"/><path class="cls-1" d="M68.1,41.6c-1.3-1.2-6.1-.9-9.3-.1-1.2.3-2.2.6-2.7,1"/><path class="cls-1" d="M79.7,60.3c-1.7,3.1-3.7,3.1-9.1,2.2"/><path class="cls-4" d="M32.9,199c-2,11-.4,31-4.3,40.5-5.7,13.7-6.8,37.5-7.6,52.9,0,0,0,.1,0,.2"/><path class="cls-4" d="M21,292.5c2.2,0,21.7,5,23.9,5,4.2-22.6,8.6-41.2,9.9-57.8,1.1-13.7,6.3-30.7,9.2-46.5.3-1.5.5-3,.8-4.5"/><path class="cls-4" d="M95.8,196.1c0,.3,0,.6.1.9,1.4,11,.7,31.8,3.5,42,3.6,13.4,2.7,36.1,3.2,52.3,0,.4,0,.8,0,1.1"/><path class="cls-4" d="M102.7,292.5c-2.8.4-18.3,6.8-22.9,6.8-.4,0-.7,0-.9-.1-3.1-23-5.9-46.3-6.7-60.3-1.1-18.6-3.9-28.1-8.2-45.6,0-.2-.1-.5-.2-.8"/><path class="cls-4" d="M37.4,115.8c3.2,14.2,2.9,23.7,0,35.8"/><path class="cls-4" d="M34.9,170.9c-.8,9.9-4.5,18-5.4,27.9,1.1,0,2.3.2,3.4.3,5,.4,9.9.7,14.9,1.1,5-24.6,7.3-29.6,8.3-44.3.3-5.1.5-11.4.6-20.1"/><path class="cls-4" d="M85.3,143.7c-.1,4.6-.2,8.6-.2,12.2,0,14.9.9,23,2.9,42.4,2.7.2,5.5-.2,8-1.2,1.2-.5,2.3-1.1,3.4-1.9-3.4-14.4-5-20.3-6.2-25.2-1.1-4.6-1.8-8.2-3.3-17.3"/><path class="cls-4" d="M85.3,143c0,.3,0,.5,0,.7"/><path class="cls-4" d="M26.6,137.4c.7-.2,1.4-.3,2-.2,1.1.1,3.6,4.9,4.1,5.8.5.8-.7,2.4-2.5,4.2-2.4,2.4-6,5.1-8.4,6.7-1.5,1-2.5,1.6-2.7,1.5-2.6-2.3-5-3.9-6.8-6.9.5-.6,1.2-1.4,2-2.3h0c3.2-3.3,8.3-7.7,12.2-8.8h0Z"/><path class="cls-4" d="M91.1,148.3c0,.3,0,.5.2.7.2.2.4.4.7.7,1.5,1.7,4.7,5,7.8,6.4.7.3,1.3.5,2,.6,2.4-1.3,6-5.1,4.4-7.2,0,0-.2-.2-.2-.3-1.7-2.1-6.4-5.8-8.9-6.6,0,0,0,0,0,0-.1,0-.2,0-.3,0-3-.6-5.6,3.8-5.6,5.7Z"/><path class="cls-1" d="M52.8,52.4c.6,7.2,1.4,19.1,6.6,23.6"/><path class="cls-1" d="M53,50.5c0,.6-.1,1.3-.1,1.9"/><path class="cls-1" d="M54.4,45.7c-.7,1.5-1.2,3.2-1.4,4.8"/><path class="cls-1" d="M87.6,41.6c0-.1-.1-.2-.2-.3,0,0,0,0,0,0-4.2-7.9-12.3-16-16.8-12.4-4,3.1-10.1,7.5-14,13-.2.2-.3.4-.5.7h0c-.6.9-1.1,1.7-1.5,2.6,0,.2-.2.3-.2.5"/><path class="cls-1" d="M88.9,44.2c-.3-.9-.7-1.7-1.2-2.6"/><path class="cls-1" d="M56.6,135.6c4.2,10.8,8.7,20.2,12.7,22.3h0c.4.2.9.4,1.3.4,1.2.1,2.3,0,3.4-.4,0,0,.1,0,.2,0,4.4-1.7,8.1-7.1,11.1-14.1"/><path class="cls-4" d="M56.6,135.6h0"/><path class="cls-1" d="M94.6,45c0-.7-.1-1.4-.2-2-.3-2.6-.7-5-1.2-6.9-2.3-7.9-5.9-14.3-13.4-18.4-9.3-5-27.2-.8-33,7.8-18.3,27.7-15.2,57.4-11.4,64,1.3,2.2,6.4,3.6,9.4,11.5.4,1.2,1,2.8,1.7,4.9,2.4,7.2,6.1,19.1,10.2,29.7"/><path class="cls-3" d="M94.7,54.9c.1-3.3.1-6.7-.1-9.8"/><path class="cls-1" d="M89.3,132c1.3-4.6,2.4-9.3,3.3-13.8h0c2.1-10.6,3.1-19.6,3.2-21.7,0-.5,0-.9,0-1.3,0-10.3-7.8-6-2.7-27.7.8-3.3,1.3-7.9,1.5-12.7"/><path class="cls-4" d="M85.3,143.7h0c1.5-3.6,2.8-7.6,4-11.7"/><path class="cls-2" d="M80.5,67.6c-5.5,2.5-16.4-.2-17.6-1.3,2.3,3.5,2.2,2.7,4.2,4,2,1.3,5.2,2.1,7.2,1.8,3.3-.5,4.8-1.9,6.2-4.5Z"/><path class="cls-4" d="M74,157.8s0,0,0,.1c0,0,0,0,0,0,1.1,6,.9,12.3-.5,18.2"/><path class="cls-4" d="M69.1,161.4c1.1,2.7,1.1,5.8.2,8.6"/><path class="cls-4" d="M48.5,87.8c4.9,1.3,8.5,5.3,11.9,9.1,3.4,3.8,7.2,7.7,12.2,8.6s11.1-3,10.3-8"/><path class="cls-4" d="M64.1,121.8c.5,5.8,7.9,9.7,12.9,6.8-.9.5-1.7,1.1-2.6,1.6"/><path class="cls-3" d="M84.5,50.3c0,1.4.5,2.5,1.2,2.5s1.2-1.1,1.2-2.5-.5-2.5-1.2-2.5-1.2,1.1-1.2,2.5Z"/><line class="cls-3" x1="70" y1="51.1" x2="69.7" y2="51.1"/><line class="cls-3" x1="70.2" y1="46.9" x2="70" y2="46.9"/><line class="cls-3" x1="75.5" y1="46.9" x2="75.3" y2="46.9"/><line class="cls-3" x1="75.9" y1="51.3" x2="75.5" y2="51.4"/><path class="cls-3" d="M93.8,45.2c0,.7-.2,5.1-.4,8.2-.1,1.7-1.6,3-3.4,3-2.9,0-5.2,0-7.8-.2-1.4,0-2.5-1.1-2.6-2.3-.3-3-.7-5.5-.9-9.3,1.8-.5,6-.6,10.2-.2,1.7.2,3.4.5,4.9.9"/><path class="cls-3" d="M93.8,45.2c0,0,0-.1,0-.1"/><path class="cls-3" d="M77.2,51.3c-.1-1.4-.3-2.8-.4-4.4-.1-1.3-.2-2.7-.3-4.4"/><path class="cls-1" d="M90.5,58.4h0c-.3,0-.7,0-1,0-3,0-5.2,0-7.8-.2-1.9,0-3.9-1.6-4.1-3.4-.1-1.3-.3-2.4-.4-3.6"/><path class="cls-3" d="M95.9,43.4c-.2,1.5-.6,5.2-.9,10.1,0,.5-.1.9-.3,1.4h0c-.6,1.8-2.2,3.1-4.2,3.5"/><path class="cls-3" d="M76.5,46.9h-5.1"/><path class="cls-3" d="M76.8,51.3c-1.8,0-1.9,0-5.5-.2"/><line class="cls-3" x1="78.2" y1="42" x2="76.5" y2="42.5"/><line class="cls-1" x1="78.3" y1="42" x2="78.2" y2="42"/><path class="cls-3" d="M88.3,41.7c-.2,0-.4,0-.7,0t0,0c-3.1-.3-6.3-.2-9.4.4"/><path class="cls-1" d="M88.3,41.7s0,0,0,0"/><path class="cls-3" d="M95.9,43.4l-1.5-.4-2.2-.6c-1.3-.3-2.6-.6-3.8-.7"/><path class="cls-3" d="M64.8,49.8c0,1.3-.6,2.4-1.3,2.4s-1.3-1.1-1.3-2.4.6-2.4,1.3-2.4,1.3,1.1,1.3,2.4Z"/><path class="cls-3" d="M68.9,51c.2-1.3.3-2.6.4-4.2,0-.7.1-1.5.2-2.3-2.8-.7-8.8-1.1-14.9.6h-.3"/><path class="cls-1" d="M54.4,45.7h0c0,1.4.2,5,.4,7.7.1,1.7,1.6,3,3.4,3,2.9,0,5.2,0,7.8-.2,1.4,0,2.5-1.1,2.6-2.3.1-1,.2-1.9.3-2.9"/><path class="cls-3" d="M54.3,45.1s0,0,0,.1c0,0,0,.2,0,.4"/><path class="cls-3" d="M70.9,51.2c0,0,0-.1,0-.2.1-1.3.3-2.6.4-4h0c0,0,0-.1,0-.2.1-1.3.2-2.7.3-4.4"/><path class="cls-1" d="M53,50.5h0c0,.9.1,1.9.2,3,.2,2.8,2.6,5,5.5,4.9,3,0,5.2,0,7.8-.2,1.9,0,3.9-1.6,4.1-3.4.1-1.3.3-2.5.4-3.6"/><path class="cls-3" d="M52.2,43.4c.1.9.4,3.5.7,7.1"/><path class="cls-3" d="M52.3,42.9l.8-.2c1.2-.3,2.4-.6,3.6-.9.7-.1,1.5-.2,2.2-.3,3.8-.4,7.7-.2,11.4.7l1.4.3"/></svg>