<?xml version="1.0" encoding="UTF-8"?><svg id="asia" xmlns="http://www.w3.org/2000/svg" width="235" height="321.9" viewBox="0 0 235 321.9"><defs><style>.cls-1{fill:#28231e;}.cls-1,.cls-2,.cls-3,.cls-4,.cls-5,.cls-6,.cls-7,.cls-8,.cls-9,.cls-10,.cls-11,.cls-12{stroke:#000;stroke-linecap:round;stroke-linejoin:round;}.cls-2{fill:#2c2e2b;}.cls-3{fill:#3c414a;}.cls-4{fill:#51667b;}.cls-5{fill:#518bac;}.cls-6{fill:#d6b59d;}.cls-7{fill:#1e475c;}.cls-8{fill:#dedede;}.cls-9{fill:#ae5350;}.cls-10{fill:#fff;}.cls-11{fill:none;}</style></defs><path class="cls-9" d="M68.6,124.3c-1.3,1.8-2.6,4.7-3.5,7.5h-.1c-1.2-.3-1.5-.4-2.8-.7h0c.2-2.6.5-5.8,1-9h.2c1.8.9,3.4,1.5,5.2,2.1Z"/><path class="cls-3" d="M121.7,110.9c-1.2,9.8-.6,17.3-.4,22.1h-.2c-2.2-2.4-5.3-4-8.6-4.2l-1.5.3c-1.3,0-2.8.2-4.5.7-5.5.7-8.4,1-10.8,1.1.1-1,.2-2,.3-3,.9-8.6,1.5-17.1,1.3-17.7-.6-1.4-25.7-5.4-30-4.2-.2,0-.3,0-.4.1-1.4.8-2.8,8.5-3.8,16-.4,3.2-.7,6.4-1,9-.3,3.4-.4,5.8-.2,6,.1.2.5.3,1.7.5h.1c0,.6,0,1.1.1,1.4,1.2,2.9,11.9,2.6,14.8,1.5,11.6,0,18.5,2.8,26.1,2.8l1.7.7c.5,4.5,1.2,13.9,1.4,19.4v.2c-4.6-1.1-7.1-3.4-16.3-5.5-18.6-4-34.1-7.7-35.8,3.2-.1,1.6-.2,3.1-.1,4.5-3.7-13.6-.8-14.2,1.6-41.2.3-6-.1-10.9-1.2-16.1h-.2c-5.2,4.9-6.6,4.8-9.6,8.4-1.1,1-2.5,2.5-3.9,3.8l-.2-.2c-5.5-1.2-10.1-5.8-11.4-11.3.1-.2.3-.4.4-.6-.1-.8,8.4-8,12.1-14.2,3.2-5.3,10.9-12.4,17-13.7,2-.4,12.1-1.4,19.5.5h.1c0,.1,0,.2,0,.2h0c4,7.5,6.6,10.1,9.1,10.8,4.3,1.1,13.5,1.7,15.3-4.7h.2c5.6,2,13.8,8.8,14.9,11.1,1.6,3,2.8,7.8,2.3,12.1Z"/><path class="cls-6" d="M112.3,66.4c-.2,0-.3-.1-.4-.2,0-.4.2-.9.2-1.3h0c.3-1.6.6-2.9.9-4.5h-.4c-1.4-.5-2.7-1.2-4-1.6-.9,2.1-1.7,3.8-2.8,5.9-3.6-1-9.3-2.8-13.6-4.4-.2,0,.3-2.3.8-4.6h-.2c-1.3-.7-4.2-2.3-5.8-3.5h-.5c-.1-1.3,0-2.8-1.3-3.8-1.3-1-4-1.8-6.1-.4,0,0,0,0,0,0-1.1.9-1.6,4.4-1.5,6.1.1,1.7.9,6.3,2.3,7,1.2.6,2.1,1,3.2.2v.2c-.3,3.5-.3,5.4.5,8h0c.2.8.5,1.6.9,2.5,1.8,4.9,8,13.9,20.2,14.9h0c0,.1,0,.2,0,.3h0c5.2-1.1,8.9-4.4,12.9-9.5,2-3.2,1.5-6,2.6-8.4v-.4c-2.6-.9-5.4-1.9-7.6-2.8ZM99.7,71.2v-.2c4.1,3.1,7.2,4.8,11.6,5.3-3.8,6.4-12.7-1.7-11.6-5.1Z"/><path class="cls-10" d="M111.3,76.4c-3.8,6.4-12.7-1.7-11.6-5.1v-.2c4.1,3.1,7.2,4.8,11.6,5.3Z"/><path class="cls-6" d="M42.3,121c-1.1,1.1-2.1,2.1-2.8,2.7-5.4,9.8-10.9,15.2-14.8,23.4h-.5c2.7.8,4.6,10.1,2.8,12.3-1.9,2.3-12.8,3.3-14.6,2.1-2.2-1.5.7-11.7,2.1-13.9,2.9-13.4,8.3-26.8,16.1-38.1,1.2,5.5,5.9,10.2,11.4,11.3l.2.2Z"/><path class="cls-11" d="M112.1,129.2c-.4,0-.8,0-1.2,0"/><path class="cls-11" d="M105.4,108.9c0,5.5.7,17.7,1,20.9"/><path class="cls-7" d="M65.1,131.8c-.7,2.2-1.2,4.4-1.3,5.9h-.1c-1.2-.3-1.6-.3-1.7-.5-.2-.3,0-2.7.2-6h0c1.2.3,1.5.4,2.8.7h.1Z"/><path class="cls-6" d="M120.1,139.2c-6.1,3.2-10.8,4.1-15.3,4.1-7.5,0-14.5-2.8-26.1-2.8-2.9,1.1-13.7,1.4-14.8-1.5-.1-.3-.2-.8-.1-1.4,0-1.5.6-3.6,1.3-5.9.9-2.8,2.2-5.8,3.5-7.5.6-.7,1.1-1.3,1.6-1.5,2.2-1.1,8.9,1.9,12.2,4.8h0c1.1,1,1.8,2,1.9,2.9v.3c6,0,8.2.3,11.4.2,2.4,0,5.3-.4,10.8-1.1,1.7-.5,3.2-.7,4.5-.7l1.5-.3c3.3.2,6.4,1.7,8.6,4.2h.2c.1,3.6,0,5.7-1.2,6.2Z"/><path class="cls-11" d="M84.3,130.8c-.2,0-.5,0-.8,0"/><path class="cls-11" d="M56,167.1c0-.4-.2-.7-.3-1.1"/><path class="cls-11" d="M56,108.7c-.5-2.4-1.2-4.8-1.9-7.4"/><path class="cls-4" d="M192.7,193.1c0,.4,0,.8,0,1.2-.6,5.5-4.8,17.1-9,24,0,0-.4,0-1.2-.3-8.1-2.8-57.2-21.1-59.6-21.6-2.6-.6-6.4-1.1-10.6-1.6-12.8-1.4-30.4-2.6-38.2-4.2-2.5-.6-4.5-1.2-5.8-1.8-5.2-2.6-12.2-9.8-12.6-22.9,0-1.4,0-2.9.1-4.5,1.7-10.9,17.2-7.3,35.8-3.2,9.2,2,11.7,4.3,16.3,5.5v-.2c5.3,1.5,14.1,3.7,19.5,5.5,3.1,1,65.3,23.5,65.3,24.1Z"/><path class="cls-11" d="M107.8,163.5c-1.6-.5-3-.8-3.8-1.1"/><path class="cls-4" d="M121.5,228.6c0,1.7-6,53.1-6.7,60,0,.4,0,.7,0,.7-11,1.9-14.6,3.2-25.8-.2-.5-.1-1-.3-1.5-.4-.1-.4,7.2-57.6,6.7-59.2-2.5-8.6-12.5-28.3-20.1-38.9,7.7,1.6,25.4,2.8,38.2,4.2,2.9,10.3,9.4,24.8,9.3,33.7Z"/><path class="cls-11" d="M109.4,164c-.5,0-1-.2-1.5-.3"/><path class="cls-1" d="M132.4,313.8c-3.4,1.5-7.3,1-10.9.2-11.2-2.2-21.9-6.4-32.5-10.4-1.3-.5-2.7-1.1-3.2-2.4-.4-.9-.2-2,0-2.9.9-4.2,1.4-5.4,3.3-9.2,11.2,3.4,14.7,2.1,25.8.2,0,0,0-.3,0-.7h.4c8.3,5.9,9.2,6.6,17.5,12.5,1.4,1,2.9,2.1,3.7,3.7,1.7,3.4-.6,7.6-4,9.1Z"/><path class="cls-11" d="M88.9,289.1s0,0,0,0"/><path class="cls-1" d="M227.6,200.9c-1.8,3.2-5.1,5.2-8.3,6.9-9.9,5.3-20.6,8.9-31.2,12.6-1.3.4-2.7.9-3.8.3-.9-.4-.9-.6-1.3-1.5-.2-.4-.4-.8-.6-1.2.7.2,1.1.4,1.2.3,4.2-6.9,8.4-18.5,9-24,9.5-.9,18.5-1.9,28.1-2.8,1.7-.2,3.5-.3,5,.3,3.2,1.4,3.8,5.9,2,9Z"/><path class="cls-11" d="M192.6,194.3c-.2,0-.4,0-.6,0"/><path class="cls-11" d="M182.4,218c0,0,0-.2-.1-.3"/><path class="cls-11" d="M30.7,109.4c0-.4-.1-.7-.2-1.1"/><path class="cls-11" d="M95.6,131v.3"/><path class="cls-11" d="M68.7,124.3c0,0,0,0-.1,0"/><path class="cls-5" d="M96,127.9h0c-9.9-5.9-19.4-14.8-28.7-21.9,4.3-1.2,29.4,2.8,30,4.2.2.6-.4,9.1-1.3,17.7Z"/><path class="cls-9" d="M96,127.9c0,1-.2,2-.3,3-3.1.1-5.3-.1-11.4-.2v-.3c0-.8-.8-1.8-1.9-2.9,4.5.6,9,.7,13.5.3h0Z"/><path class="cls-8" d="M95.9,127.9c-4.5.3-9.1.2-13.5-.3h0c-3.3-3-9.9-5.9-12.2-4.9-.5.2-1.1.8-1.6,1.5-1.9-.6-3.4-1.2-5.2-2.1h-.2c1-7.6,2.4-15.3,3.8-16.1,0,0,.2,0,.4-.1,9.2,7.1,18.8,16,28.7,21.9Z"/><path class="cls-11" d="M82.4,127.6h0"/><path class="cls-11" d="M67.3,106s0,0,0,0"/><line class="cls-11" x1="83.3" y1="69.7" x2="83.3" y2="69.7"/><path class="cls-11" d="M123,60.2c-.1.2-.2.3-.3.4"/><path class="cls-11" d="M126.4,50.1c-.2,1.5-.5,2.8-.7,3.9"/><path class="cls-11" d="M112.3,66.4c.4,5.4-3.2,5.9-5.9,4.7"/><path class="cls-11" d="M112.1,64.9s0,0,0,0c0,0,0-.2,0-.2"/><path class="cls-11" d="M99.8,71.1c0,0-.2-.1-.2-.2"/><path class="cls-11" d="M79.8,81.5s0,0,0,0"/><path class="cls-11" d="M81,67.4c0,0,0-.1,0-.2"/><path class="cls-11" d="M83,61.4c0,0-.1,0-.2.1"/><path class="cls-11" d="M86.5,52.7c0-.1,0-.2,0-.3h0"/><path class="cls-2" d="M107.3,52c-1.9-.5-8.7-1.1-8.7-1.4.3-3.3,5.6-2.4,8.4-1.5,2.7.8.9,3.1.3,3Z"/><path class="cls-2" d="M122.9,57c0,.8-.9,1.5-1.5,1.2-.5-.2-3.3-1.6-3.8-1.8-1.4-.8-.2-2.9.9-3,1.2-.2,4.5,2.9,4.4,3.7Z"/><path class="cls-11" d="M104.9,87.1c-.2,0-.3,0-.5,0"/><path class="cls-6" d="M104.4,87.1h0c0,.1,0,.2,0,.3,0,.1,0,.2,0,.3-1.8,6.3-11.1,5.8-15.3,4.7-2.6-.7-5.1-3.3-9.1-10.8h0s0,0,0,0c1.7-1.9,3-7.8,1.2-14.1.7.8,1.5,1.6,2.3,2.3h0c.2.8.5,1.6.9,2.5,1.8,4.9,8,13.9,20.2,14.9Z"/><path class="cls-2" d="M125.7,54c0,0,0,.1,0,.2h0c0-.6.9-4.8.9-5.3-1.3.9-3.5,1.7-4.5.5-.7-.8-1.3-2.2-1.6-3.3-.3-1.1-1.6-1.1-2.3-.1,0,0,0,0,0,0-.5.7-1.2,1.2-2,1.7-1.2.7-2.6-.4-3.6-1.3-1-1-1.3-3.2-2.2-4.2s-2.4-1.7-3.7-1.2c-1.8.8-2.2,3.8-4.2,3.9-1.2,0-2-1-2.6-2-.7-1.2-1.3-2.7-2.9-2.8-.8,0-1.7.3-2.3.8-2.2,1.9-2.8,5.7-3.9,8.4v.2c-3.8-2-8.5-4.4-10.6-5.1-1.1.9-1.2,2-1.2,3.8h0c-1.1,1-1.6,4.4-1.5,6.1.1,1.7.9,6.3,2.3,7,1.2.6,2.1,1,3.2.2v.2c-.3,3.5-.3,5.4.5,8-.8-.7-1.6-1.5-2.3-2.3-5-5.4-8-12.4-6.8-22.4h0c.5-5.5,1.6-9.5,5-14.1,3.5-4.7,8.8-7.9,14.5-9.2,5.7-1.3,9.8-2,15.5-.3,6.6,2,13,5.8,16.8,11.6,1.8,2.7,4.4,15.2-.3,21.1Z"/><path class="cls-11" d="M74.2,45s0,0,0,.1"/><line class="cls-11" x1="126.3" y1="61.4" x2="126" y2="62.4"/><line class="cls-11" x1="126.1" y1="64.2" x2="125.4" y2="64"/><line class="cls-11" x1="111.6" y1="60" x2="111.5" y2="60"/><path class="cls-11" d="M126,62.4s0,0,0,0"/><path class="cls-12" d="M126.3,61.4h0c-.8-.3-2-.7-3.3-1.2-3.3-1.2-7.3-2.7-9.2-3.5-.2.6-.3,1.2-.5,1.8-.2.7-.3,1.3-.4,2-.3,1.5-.6,2.9-.9,4.4h0s0,0,0,0c0,.4-.1.8-.2,1.3.1,0,.3.1.4.2,2.1.8,4.9,1.8,7.7,2.8,1.3.4,2.5.8,3.7,1.2.2,0,.8-1.3,1.5-2.9.5-1.1,1-2.4,1.4-3.4.5-1.1.8-1.9.9-2.2-.2,0-.6-.2-1.1-.4ZM123,68.8c-3.2-.9-7.3-2.4-9.9-3.4.4-2.5.8-4.2,1.5-7.1,2.5,1,10.1,3.8,11.4,4.2-.3.7-2.7,6.4-3,6.3Z"/><path class="cls-10" d="M114.6,58.3c-.7,2.9-1.1,4.6-1.5,7.1,2.6,1,6.7,2.5,9.9,3.4.3,0,2.7-5.6,3-6.3-1.2-.4-8.9-3.2-11.4-4.2ZM120.5,64c-.3.8-.8,1.4-1.1,1.3-.3-.1-.4-.9,0-1.7.3-.8.8-1.4,1.1-1.3.3.1.4.9.1,1.7Z"/><path class="cls-12" d="M120.5,64c-.3.8-.8,1.4-1.1,1.3-.3-.1-.4-.9,0-1.7.3-.8.8-1.4,1.1-1.3.3.1.4.9.1,1.7Z"/><line class="cls-11" x1="127.5" y1="61.8" x2="127.5" y2="61.8"/><path class="cls-11" d="M127.5,61.7s0,0,0,0c0,0,0,0,0,0h0"/><path class="cls-11" d="M95.1,52.4s0,0,0,0"/><path class="cls-11" d="M94.1,50.8c0,0,0,0-.1,0"/><path class="cls-12" d="M128.2,64.9c-.7,1.8-1,3.8-3,2.4.5-1.1,1-2.4,1.4-3.4.5.3,1.3.8,1.6.9Z"/><path class="cls-11" d="M125.1,67.4c-.2-.1-.4-.3-.6-.5"/><path class="cls-11" d="M126.6,64c-.1,0-.3-.1-.4-.2"/><path class="cls-6" d="M126.5,48.9c-1.3.9-3.5,1.7-4.5.5-.7-.8-1.3-2.2-1.6-3.3-.3-1.1-1.6-1.1-2.3-.1,0,0,0,0,0,0-.5.7-1.2,1.2-2,1.7-1.2.7-2.6-.4-3.6-1.3-1-1-1.3-3.2-2.2-4.2s-2.4-1.7-3.7-1.2c-1.8.8-2.2,3.8-4.2,3.9-1.2,0-2-1-2.6-2-.7-1.2-1.3-2.7-2.9-2.8-.8,0-1.7.3-2.3.8-2.2,1.9-2.8,5.7-3.9,8.4v.2c1.2.7,2.3,1.3,3.1,1.9h.2c0-.2.1-.4.1-.5,0,0,0,0,0,0h0s0,0,0,0h0c2,.6,12.2,3.7,15.8,4.6v.2c-.1.5-.3.9-.5,1.3,1.1.5,2.8,1.2,4,1.6.1-.6.3-1.2.5-1.8,1.8.8,5.9,2.3,9.2,3.5.8-1.2,1.8-2.8,2.6-6h0c0-.6.9-4.8.9-5.3ZM107.3,52c-1.9-.5-8.7-1.1-8.7-1.4.3-3.3,5.6-2.4,8.4-1.5,2.7.8.9,3.1.3,3ZM121.4,58.2c-.5-.2-3.3-1.6-3.8-1.8-1.4-.8-.2-2.9.9-3,1.2-.2,4.5,2.9,4.4,3.7s-.9,1.5-1.5,1.2Z"/><path class="cls-12" d="M109.9,55.4c-3.5-.9-13.8-4-15.8-4.6h0s0,0,0,0h0s0,0,0,0c0,.1,0,.3-.1.6-.2.9-.7,2.6-1,4.3-.5,2.3-1,4.5-.8,4.6,4.3,1.6,10,3.4,13.6,4.4,1.1-2.1,1.9-3.8,2.8-5.9.3-.6.6-1.3.9-2,.2-.4.4-.9.6-1.3v-.2ZM105,63.2c-3-.9-7.8-2.4-11.3-3.7-.3-.1,1.2-6.4,1.4-7.1,1.4.5,10.2,3.2,13.2,3.9-1.2,2.8-2,4.5-3.2,6.8Z"/><path class="cls-10" d="M95.1,52.4c-.2.7-1.7,7-1.4,7.1,3.6,1.3,8.3,2.8,11.3,3.7,1.3-2.3,2-4,3.2-6.8-3-.8-11.8-3.5-13.2-3.9ZM103.1,58.7c-.3.9-.8,1.5-1.2,1.4-.4-.1-.4-.9-.1-1.8.3-.9.8-1.5,1.2-1.4.4.1.4,1,.1,1.8Z"/><path class="cls-12" d="M103.1,58.7c-.3.9-.8,1.5-1.2,1.4-.4-.1-.4-.9-.1-1.8.3-.9.8-1.5,1.2-1.4.4.1.4,1,.1,1.8Z"/><path class="cls-12" d="M113.4,58.5c-.2.7-.3,1.3-.4,2h-.4c-1.4-.5-2.7-1.2-4-1.6.3-.6.6-1.3.9-2,1.1.5,2.8,1.2,4,1.6Z"/><path class="cls-12" d="M94,51.5c-.2.9-.7,2.6-1,4.3h-.2c-1.3-.7-4.2-2.3-5.8-3.5h-.5c-.1-1.3,0-2.8-1.3-3.8-1.3-1-4-1.8-6.1-.4,0,0,0,0,0,0h0c0-1.9.1-2.9,1.2-3.8,2.1.7,6.8,3.1,10.5,5.1,1.2.7,2.3,1.3,3.2,1.9h.2Z"/><line class="cls-11" x1="109.4" y1="56.9" x2="109.4" y2="56.9"/><line class="cls-11" x1="113.4" y1="58.5" x2="113.4" y2="58.5"/><path class="cls-11" d="M108.6,58.9c0,0-.1,0-.2,0"/></svg>