<?xml version="1.0" encoding="UTF-8"?><svg id="asia" xmlns="http://www.w3.org/2000/svg" width="235" height="321.9" viewBox="0 0 235 321.9"><defs><style>.cls-1{fill:#28231e;}.cls-1,.cls-2,.cls-3,.cls-4,.cls-5,.cls-6,.cls-7,.cls-8,.cls-9,.cls-10,.cls-11,.cls-12{stroke:#000;stroke-linecap:round;stroke-linejoin:round;}.cls-2{fill:#2c2e2b;}.cls-3{fill:#3c414a;}.cls-4{fill:#51667b;}.cls-5{fill:#518bac;}.cls-6{fill:#d6b59d;}.cls-7{fill:#1e475c;}.cls-8{fill:#dedede;}.cls-9{fill:#ae5350;}.cls-10{fill:#fff;}.cls-11{fill:none;}</style></defs><path class="cls-3" d="M103.5,122.5c-2.5-7.8-1.4-25.4-8.7-32.4-3-2.9-12.2-5.1-14.2-5.7-1.7,7.3-7.9,7.3-10.9,7.3-2.7,0-10.1-4.8-14.1-12.3-4.1-.2-18.2.5-23.2,6.2-3.4,3.9-6.3,9.5-8.7,15.3-4.8,11.6-7.1,16.1-6.9,16.7.3.9.8,1.7,1.3,2.5,3.1,4.3,9.5,5.6,15.2,5.6.3,0,.6,0,.9,0v-.2c1.4-1.9,2.6-5.3,4.3-9.4h0c1.1,7.6,0,7.8-.5,19.6h0c3,4,6.7,11.3,12.3,12v-.2c4.1,0,12.3-3.5,12.8,2.9,2.7,1.5,5.4,3.7,1.1,6.5,1.6,2,.4,4.2-.9,5,1.9,1.4-.2,3.7-1.3,4.1,1.7,4.9-7.5,2.7-9.5,1.7-2.8-1.5-7.5-5.2-7.1-9-1.8-1.5-4.5-3-7.3-4.4h0c-1.7,6.5-1,8-1.2,14.2.2,0,.4.1.6.2,18,5.5,33.2,7.4,51.9,5.5,4.3-7.9,3.3-26.2,2-44.7,0-.1,0-.2,0-.4,4.9-.7,7.9-3,11.6-6.3l.6-.2ZM87.6,128.4c0,2.4,0,4.7,0,6.9,0,2.5,0,4.8,0,6.6-8.9.5-31.9,0-32.7-1-.2-.3-.4-2.7-.4-6.1,0-2.6,0-5.8,0-8.9.2-7.4.9-15,2.2-15.9,0,0,0,0,0,0,2.9-1.8,29.8-.7,30.5.7.3.5.4,9.1.3,17.6,0,0,0,0,.1,0,0,0,0,0-.1,0Z"/><path class="cls-4" d="M114.9,290.6c-7.6,2.9-11.9,4.5-23.4,4.2-.2,0-.4,0-.7,0-.3-1-7-61.7-7.4-62.8-4-12.4-14.4-22.9-17.7-27.7-2.3,11.2-4.6,24-7.4,34.2-.5,1.7-17.8,47-20.4,51h0c0,.1-.1.2-.2.3-6.7,0-14.5,1.7-23.3-3-.9-.5-1.8-1-2.7-1.6,0-1.5,20.5-56.5,20.6-58,.6-17.9-1.4-38.8,5-58.5,18,5.5,33.2,7.4,51.9,5.5,7,10.3,17.6,37.8,19.8,50,.2,1.3,5.1,56.5,5.8,65.3,0,.7,0,1.1,0,1.2Z"/><path class="cls-6" d="M88.5,63.3c-.2,0-.4-.2-.6-.2.4-2.1.7-3.8,1.2-5.7h-.3c-1.4-.6-2.6-1.2-4-1.6-.9,2.1-1.7,3.8-2.8,5.9-3.6-1-9.4-2.8-13.6-4.4-.2,0,.3-2.3.8-4.6h-.2c-1.3-.7-4.2-2.3-5.8-3.5-.4-.3-.5-.9-.6-1.4,0,0,0-.1,0-.2,0-.4-.2-.8-.4-1.2t0,0c-.2-.3-.4-.7-.8-1-1.3-1-4-1.8-6.1-.4,0,0,0,0,0,0-1.1.9-1.6,4.4-1.5,6.1.1,1.7.9,6.3,2.3,7,1.2.6,2.1,1,3.2.2v.2c-.3,3.5-.3,5.4.5,8.1.2.8.5,1.6.9,2.5,1.9,5,4.6,8.5,9.6,12.2,2.7,2,6.6,3.8,10.6,3,5.2-1.1,8.9-4.4,12.9-9.5,2-3.2,1.5-6,2.6-8.4v-.3c-2.6-.9-5.4-1.9-7.5-2.7ZM75.9,68.2v-.2c4.1,3.1,7.2,4.8,11.6,5.3-3.8,6.4-12.7-1.7-11.6-5.1Z"/><path class="cls-11" d="M99.2,57.1c-.1.1-.2.3-.3.4"/><path class="cls-11" d="M102.6,47c-.2,1.5-.5,2.8-.7,3.9"/><path class="cls-11" d="M88.3,61.5c1.4,7-2.7,7.8-5.7,6.5"/><path class="cls-11" d="M76,68c0,0-.2-.1-.2-.2"/><path class="cls-6" d="M80.6,84.3c-1.7,7.3-7.9,7.3-10.9,7.3-2.7,0-10.1-4.8-14.1-12.3,2.2-1.3,3.4-8.5,1.7-15,.7.8,1.5,1.6,2.3,2.3.2.8.5,1.6.9,2.5,1.9,5,4.6,8.5,9.6,12.2,2.7,2,6.6,3.8,10.6,3Z"/><path class="cls-11" d="M57.2,64.4c0,0,0-.1,0-.2"/><path class="cls-11" d="M44.3,103.4c-2.5,4.3-4.3,8.7-5.8,12.5"/><path class="cls-11" d="M91.2,129c-.6-7.4-1.1-14.9-1.5-21.7"/><path class="cls-6" d="M119.1,146.2c-3,.7-.6-.2-3.1,1.7-1.9,1.4-4.6,4.5-5.5,7.3h-.4c-5.1-7.9-13.2-10.6-18.9-25.8,0-.1,0-.2,0-.4,4.9-.7,7.9-3,11.6-6.3l.6-.2c0,.1,0,.3.1.4,5.5,7.2,10.2,18.8,15.5,23.3Z"/><path class="cls-11" d="M91.3,129.3c0-.2-.2-.5-.3-.7"/><path class="cls-6" d="M120.9,163.4c-2.8,2.1-4.5,3-7.4,1-1.4-1-2.7-5.1-3.1-6.8-.2-.7,0-1.6.2-2.5.9-2.8,3.6-5.9,5.5-7.3,2.5-1.8,0-1,3.1-1.7,3.3-1.1,7.3.9,8.7,4.1s-4.1,11-6.9,13.1Z"/><path class="cls-11" d="M70.8,184.7c-1.8,4.9-3.5,11.9-5.1,19.6"/><path class="cls-11" d="M37.5,168.2c0,.1,0,.2-.1.4"/><path class="cls-11" d="M65.7,204.2c-.2-.3-.3-.5-.5-.8"/><path class="cls-1" d="M133.1,312.8c-3.3,1.8-7.4,1.7-11.2,1.3-11.6-1.3-18.5-3.9-29.8-7-1.3-.4-2.8-.9-3.5-2.1-.5-.9-.4-2-.2-3,.4-2.8,2.2-4.6,3.1-7.2,11.5.3,15.8-1.3,23.4-4.2,0,0,0-.5,0-1.2,7.5,4.6,9.5,5.7,17.7,10.5,1.5.9,3.2,1.9,4.1,3.4,2,3.3-.1,7.8-3.5,9.6Z"/><path class="cls-11" d="M91.6,294.4c0,.1,0,.2-.1.3"/><path class="cls-11" d="M114.8,289.4c-.1,0-.2-.1-.3-.2"/><path class="cls-1" d="M52.5,319.8c-3.7.8-6.5.9-10.1-.6-10.9-4.4-21-10.6-31-16.8-1.2-.7-2.5-1.6-2.8-3-.2-1,.2-2,.6-2.9,1.8-4.1,3.4-6.9,5.2-9.6v-.2c8.8,4.7,16.7,3,23.4,3,0,0,.1-.1.2-.2h.1c7.2,7.6,10,10.2,17.2,17.7,1.3,1.3,2.6,2.7,3,4.4,1.1,3.7-2.2,7.4-5.9,8.3Z"/><path class="cls-11" d="M59.2,58.3c0,0-.1,0-.2.1"/><path class="cls-11" d="M62.7,49.6c0-.6,0-1.2-.2-1.8"/><path class="cls-6" d="M64.2,156.8c1.6,2,.4,4.2-.9,5,1.9,1.4-.2,3.7-1.3,4.1,1.7,4.9-7.5,2.7-9.5,1.7-2.8-1.5-7.5-5.2-7.1-9-1.8-1.5-4.5-3-7.3-4.4-3.6-1.8-7.4-3.6-9.7-5.1-4.9-3.2-11.9-10.9-12.6-17.5-.1-.9,2-10,2.4-11.6,3.1,4.3,9.5,5.6,15.2,5.6h0c-1,2.1-.4,2-1.4,3.9v.2c1.6,1.1,3.2,2.6,5.3,5,.2.3.5.6.8.9,3,3.9,6.7,11.2,12.3,12v-.2c4.1,0,12.3-3.5,12.8,2.9,2.7,1.5,5.4,3.7,1.1,6.5Z"/><path class="cls-11" d="M18.1,119.7s0,.1,0,.2"/><path class="cls-11" d="M31.7,129.6c-1.8-1.1-3.8-1.8-6.9-2.3"/><path class="cls-11" d="M51.1,147.6c-.3,0-.6,0-.9,0"/><path class="cls-11" d="M63.1,150.3c-1.2-.7-2.4-1.2-3.1-1.7"/><path class="cls-11" d="M63.1,150.4s0,0,0,0"/><path class="cls-2" d="M83.4,48.9c-1.9-.5-8.7-1.1-8.7-1.4.3-3.3,5.6-2.4,8.4-1.6,2.7.8.9,3.1.3,3Z"/><path class="cls-2" d="M99.1,54c0,.8-.9,1.5-1.5,1.2-.5-.2-3.3-1.6-3.8-1.8-1.4-.8-.2-2.9.9-3,1.2-.2,4.5,2.9,4.4,3.7Z"/><path class="cls-10" d="M87.5,73.3c-3.8,6.4-12.7-1.7-11.6-5.1v-.2c4.1,3.1,7.2,4.8,11.6,5.3Z"/><path class="cls-2" d="M101.9,50.9c0,0,0,.1,0,.2h0c0-.6.9-4.8.9-5.3-1.3.9-3.5,1.7-4.5.5-.7-.8-1.3-2.2-1.6-3.3-.3-1.2-1.6-1.1-2.3-.1t0,0c-.5.7-1.2,1.2-2,1.7-1.2.7-2.6-.4-3.6-1.3-1-1-1.3-3.2-2.2-4.2s-2.4-1.7-3.7-1.2c-1.8.8-2.2,3.8-4.2,3.9-1.2,0-2-1-2.6-2-.7-1.2-1.3-2.6-2.9-2.8-.8,0-1.7.3-2.3.8-2.2,1.9-2.8,5.7-3.9,8.4v.2c-3.8-2.1-8.5-4.5-10.6-5.2-1.1.9-1.2,2-1.2,3.8h0c-1.1,1-1.6,4.4-1.5,6.1.1,1.7.9,6.3,2.3,7,1.2.6,2.1,1,3.2.2v.2c-.3,3.5-.3,5.4.5,8.1-.8-.7-1.6-1.5-2.3-2.3-5-5.4-8-12.4-6.8-22.5h0c.5-5.4,1.6-9.4,5-14.1,3.5-4.7,8.8-7.9,14.5-9.2,5.7-1.3,9.8-2,15.5-.3,6.6,2,13,5.8,16.8,11.6,1.8,2.7,4.4,15.2-.3,21Z"/><path class="cls-11" d="M50.4,41.9s0,0,0,.1"/><path class="cls-11" d="M91.2,129s0,0,0,0"/><path class="cls-5" d="M87.6,128.3c-10.4-4.8-20.9-12-30.8-18.2h0c0,0,0,0,0,0,2.9-1.8,29.8-.7,30.5.7.3.5.4,9.1.3,17.6Z"/><path class="cls-8" d="M87.6,128.3s0,0,0,0c-11,1.9-22.2,1.1-32.9-2.4h-.2c.2-7.4.9-15,2.2-15.9h0c9.9,6.2,20.4,13.4,30.8,18.3Z"/><path class="cls-9" d="M87.6,128.4c0,2.4,0,4.7,0,6.9h-.4c.4,0-21.3,1.3-32.7-.4,0-2.6,0-5.8,0-8.9h.2c10.6,3.5,21.9,4.4,32.9,2.4Z"/><path class="cls-7" d="M87.5,135.3c0,2.5,0,4.8,0,6.6-8.9.5-31.9,0-32.7-1-.2-.3-.4-2.7-.4-6.1,11.4,1.8,33.1.5,32.7.4h.4Z"/><path class="cls-11" d="M54.4,134.9h-.4"/><line class="cls-11" x1="102.5" y1="58.4" x2="102.2" y2="59.3"/><line class="cls-11" x1="100.3" y1="64.1" x2="99.9" y2="63.9"/><line class="cls-11" x1="102.3" y1="61.1" x2="101.6" y2="61"/><line class="cls-11" x1="88.3" y1="54.9" x2="88.1" y2="54.8"/><line class="cls-11" x1="87.8" y1="57" x2="87.7" y2="57"/><path class="cls-11" d="M102.2,59.3s0,0,0,0"/><path class="cls-12" d="M102.5,58.4h0c-.8-.3-2-.7-3.3-1.2-3.3-1.2-7.3-2.7-9.1-3.5-.4,1.4-.7,2.7-.9,3.8-.5,1.9-.8,3.6-1.2,5.7.2,0,.4.2.6.2,2.1.8,4.9,1.8,7.6,2.7,1.3.4,2.5.8,3.7,1.2.2,0,.8-1.3,1.5-2.9.5-1.1,1-2.4,1.4-3.4.5-1.1.8-1.9.9-2.2-.2,0-.6-.2-1.1-.4ZM100.2,64c-.5,1-.8,1.7-1,1.7-3.2-.9-7.3-2.4-9.9-3.4.4-2.5.8-4.2,1.5-7.1,2.5,1,10.1,3.8,11.4,4.2-.2.4-1.2,2.9-2,4.6Z"/><path class="cls-10" d="M90.8,55.2c-.7,2.9-1.1,4.6-1.5,7.1,2.6,1,6.7,2.5,9.9,3.4.1,0,.5-.7,1-1.7.8-1.7,1.8-4.2,2-4.6-1.2-.4-8.9-3.2-11.4-4.2ZM96.7,60.9c-.3.8-.8,1.4-1.1,1.3-.3-.1-.4-.9,0-1.7.3-.8.8-1.4,1.1-1.3.3.1.4.9.1,1.7Z"/><path class="cls-12" d="M96.7,60.9c-.3.8-.8,1.4-1.1,1.3-.3-.1-.4-.9,0-1.7.3-.8.8-1.4,1.1-1.3.3.1.4.9.1,1.7Z"/><path class="cls-11" d="M103.7,58.7s0,0,0,0c0,0,0,0,0,0"/><path class="cls-11" d="M71.3,49.3s0,0,0,0"/><path class="cls-11" d="M70.3,47.7s0,0-.1,0"/><path class="cls-6" d="M102.6,45.8c-1.3.9-3.5,1.7-4.5.5-.7-.8-1.3-2.2-1.6-3.3-.3-1.2-1.6-1.1-2.3-.1t0,0c-.5.7-1.2,1.2-2,1.7-1.2.7-2.6-.4-3.6-1.3-1-1-1.3-3.2-2.2-4.2s-2.4-1.7-3.7-1.2c-1.8.8-2.2,3.8-4.2,3.9-1.2,0-2-1-2.6-2-.7-1.2-1.3-2.6-2.9-2.8-.8,0-1.7.3-2.3.8-2.2,1.9-2.8,5.7-3.9,8.4v.2c1.2.7,2.3,1.3,3.1,1.9h.2c0-.2.1-.4.1-.5,0,0,0,0,0,0h0s0,0,0,0h0c2,.6,12.2,3.8,15.8,4.6v.2c-.1.5-.3.9-.5,1.3-.3.7-.6,1.3-.9,2,1.4.4,2.7,1,4,1.5h.3c.3-1,.6-2.2.9-3.7,1.8.8,5.9,2.3,9.1,3.5.8-1.2,1.8-2.8,2.6-6h0c0-.6.9-4.8.9-5.3ZM83.4,48.9c-1.9-.5-8.7-1.1-8.7-1.4.3-3.3,5.6-2.4,8.4-1.6,2.7.8.9,3.1.3,3ZM97.6,55.1c-.5-.2-3.3-1.6-3.8-1.8-1.4-.8-.2-2.9.9-3,1.2-.2,4.5,2.9,4.4,3.7s-.9,1.5-1.5,1.2Z"/><path class="cls-11" d="M62.1,46.4c0,0-.2-.2-.3-.2"/><path class="cls-12" d="M86.1,52.3c-3.5-.9-13.8-4-15.8-4.6h0s0,0,0,0h0s0,0,0,0c0,.1,0,.3-.1.6-.2.9-.7,2.6-1,4.3-.5,2.3-1,4.5-.8,4.6,4.3,1.6,10,3.3,13.6,4.4,1.1-2.1,1.9-3.9,2.8-5.9.3-.6.6-1.3.9-2,.2-.4.4-.9.6-1.3v-.2ZM81.2,60.2c-3-.9-7.8-2.4-11.3-3.7-.3-.1,1.2-6.4,1.4-7.1,1.4.5,10.2,3.2,13.2,3.9-1.2,2.8-2,4.5-3.2,6.8Z"/><path class="cls-10" d="M71.2,49.4c-.2.7-1.7,7-1.4,7.1,3.6,1.3,8.3,2.8,11.3,3.7,1.3-2.3,2-4,3.2-6.8-3-.8-11.8-3.5-13.2-3.9ZM79.3,55.6c-.3.9-.8,1.5-1.2,1.4-.4-.1-.4-1-.1-1.8.3-.9.8-1.5,1.2-1.4.4.1.4.9.1,1.8Z"/><path class="cls-12" d="M79.3,55.6c-.3.9-.8,1.5-1.2,1.4-.4-.1-.4-1-.1-1.8.3-.9.8-1.5,1.2-1.4.4.1.4.9.1,1.8Z"/><path class="cls-12" d="M70.2,48.4c-.2.9-.7,2.6-1,4.3h-.2c-1.3-.7-4.2-2.3-5.8-3.5-.4-.3-.5-.9-.6-1.4,0,0,0-.1,0-.2,0-.5-.1-.9-.4-1.2t0,0c-.2-.3-.4-.7-.8-1-1.3-1-4-1.8-6.1-.4,0,0,0,0,0,0h0c0-1.8.1-2.9,1.2-3.8,2.1.7,6.8,3.1,10.5,5.2,1.2.7,2.3,1.3,3.2,1.9h.2Z"/><path class="cls-12" d="M104.3,61.8c-.7,1.8-1,3.8-3,2.5.5-1.1,1-2.4,1.4-3.4.5.3,1.3.8,1.6.9Z"/><path class="cls-11" d="M101.3,64.3c-.2-.1-.4-.3-.6-.5"/><path class="cls-11" d="M102.8,60.9c-.1,0-.3-.1-.4-.2"/><path class="cls-11" d="M89.1,55.1c-1.2-.4-2.4-.8-3.5-1.3"/><path class="cls-11" d="M84.8,55.8c0,0-.1,0-.2,0"/></svg>