<?xml version="1.0" encoding="UTF-8"?><svg id="asia" xmlns="http://www.w3.org/2000/svg" width="235" height="321.9" viewBox="0 0 235 321.9"><defs><style>.cls-1{stroke-linecap:round;stroke-linejoin:round;}.cls-1,.cls-2{fill:none;stroke:#000;}.cls-2{stroke-miterlimit:10;}.cls-3,.cls-4,.cls-5,.cls-6,.cls-7,.cls-8{stroke-width:0px;}.cls-4{fill:#f9daf0;}.cls-5{fill:#878586;}.cls-6{fill:#e0bfa4;}.cls-7{fill:#332628;}.cls-8{fill:#fff;}</style></defs><path class="cls-5" d="M99.6,294.9c1,2.2,5.1,3.6,7.2,2.4,1.3-.7,2-2,2.6-3.2.5-1,.3-2.1.8-3,.1-.2.3-.3.4-.5,1.1-.9,1.6-1,2.6,0h0c6.9,3.7,13.9,7.4,20.8,11.2,1.2.6,2.5,1.3,3.2,2.4,1.5,2.3-.1,5.5-2.7,6.8-2.6,1.3-5.7,1.2-8.7.9-9-.9-17.8-3.2-26.5-5.5-1-.3-2.2-.6-2.7-1.5-.4-.6-.3-1.4-.2-2.1.5-3.1,1.3-6.2,2.6-9.1h.5c0,.4,0,.8,0,1.2Z"/><path class="cls-6" d="M130.4,180.7c1.2,2.7-1.9,5.5-4.2,7.3s-3.8,2.5-6.3.8c-1.2-.8-2.2-2-2.5-3.4,0,0,0-.2,0-.3-.5-2.5,1-5,3.1-6.5,2.1-1.5,0-.8,2.6-1.4,2.9-.9,6.2.7,7.4,3.5Z"/><path class="cls-6" d="M123,177.2c-2.6.6-.5-.1-2.6,1.4-2.1,1.5-3.5,4-3.1,6.5h-.1c-2.4-6.4-16.9-15.4-17.5-20.5.2-2.9.3-5.9.3-8.8h0c1.7-1.4,2.9-2.2,4.2-3.6h.2c1.6,6.9,12.9,21,18.6,24.9Z"/><path class="cls-6" d="M113.7,232.7c.2,16.3-.6,32.7-2.3,48.9h0c-3.8,1.3-8,1.4-11.8,0h0c-.5-6-1.7-11.7-3.5-18.4-.8-3-1.7-9.6-1.2-12.7.4-2.6-.7-5.4-.7-5.4l-.2-.3c6-4.3,12-10.1,19.9-12.3Z"/><path class="cls-4" d="M111.3,281.7h0c-.3,3.1-.7,6.3-1.1,9.4-.5.8-.3,1.9-.8,3-.6,1.3-1.4,2.6-2.6,3.2-2.1,1.1-6.2-.3-7.2-2.4.2-4.8.2-9-.2-13.1h0c3.8,1.3,8,1.2,11.8-.1Z"/><path class="cls-7" d="M80.4,90.5v.3c-2.8,13.7-1.6,15.9,2.3,24.6-1.7.3-4,.5-6.6.7-1.2,0-2.5.2-3.7.2-5.4.3-11.4.4-15.6.6-.7,0-1.3,0-1.9.1,3-3.2,5.2-9.6,4.9-13.7-1.2-15.6-.4-20.9,4.8-29.9,3.5-6.1,9.7-12.8,26.2-11.6h.2c21.9,4.9,29,14.3,26.3,31.2l-.2.3c-2.2,8.6-8.8,23.5-2.8,32.2-7.5,1.3-10.9,2.3-18.4,1.1v-.2s0,0,.1,0c3.5-.6,8.5-5.5,8.5-5.5,6.9-5.8,5.8-18,6.4-19.9.6-2.2,4.3-9.1,3.4-13.8h0c-1.5,3.4-3.4,5-8.3,6.7.4-2.1,3.7-5.4,2.4-7.1-4.6,3.9-14.3,5-20.2,3.9.7-1.2,2.5-2.5,3.2-3.7-3.1,1.1-7.2,2.7-10.9,3.4Z"/><path class="cls-6" d="M101.9,116.1c-3.9-.4-6.5-2.1-9.9-4.5l-.2.2c.4,8.9,7.8,9.7,10,4.3ZM114.4,87.3c.9,4.7-2.7,11.6-3.4,13.8-.5,1.9.5,14.1-6.4,19.9,0,0-5.1,4.9-8.5,5.5,0,0-.1,0-.2,0-1.3,0-4.4-.9-7.6-2.3-2.9-1.3-5.9-3-7.7-4.6-.9-.8-3.1-2.4-4.5-3.4h0c2.6-.2,4.9-.4,6.6-.8-3.9-8.6-5.1-10.8-2.2-24.6v-.3c3.7-.8,7.8-2.4,10.9-3.4-.7,1.2-2.5,2.6-3.2,3.7,6,1.1,15.6,0,20.2-3.9,1.3,1.7-2,5.1-2.4,7.1,4.9-1.7,6.8-3.4,8.3-6.8h0ZM108.3,104c.3-1.4,0-2.6-.8-2.8-.7-.2-1.6.8-1.9,2.2-.3,1.4,0,2.6.8,2.7.7.2,1.6-.8,1.9-2.2ZM92.8,100.4c.3-1.3,0-2.5-.8-2.7-.8-.2-1.6.8-1.9,2.1-.3,1.3,0,2.5.9,2.7.8.2,1.6-.8,1.9-2.1Z"/><path class="cls-5" d="M79.2,224c-2.4,8.7-4.3,17.6-5.4,22.7-.9-.1-1.8-.3-2.6-.4-7.7-1.4-10.8-3.8-18.7-5.2-.7-.1-1.5-.2-2.3-.4,1.7-16.1-1.8-24.1,4.3-42h0c15.1,4.4,26.2,6.7,42.1,5.1,8.2,8.1,12.6,18.4,17.1,29-7.9,2.2-14,8-19.9,12.3-.8.6-1.6,1.1-2.3,1.6-1.9-4.8-9.8-18.6-12.3-22.7Z"/><path class="cls-3" d="M107.5,101.2c.7.2,1.1,1.4.8,2.8s-1.1,2.3-1.9,2.2c-.7-.2-1.1-1.4-.8-2.7.3-1.4,1.1-2.3,1.9-2.2Z"/><path class="cls-4" d="M100,155.9c0,2.9-.1,5.9-.3,8.8-.7,13.1-2.6,26.3-3.1,39.1-15.8,1.6-27-.7-42.1-5.2-.3,0-.6-.2-.9-.3,1.6-4.8,1.6-3.8,2.5-8.8h0c.7.5,1.4,1.1,2.1,1.8,1,1.9,6.2,7,8.1,6,1.6-.8,5.2-9,4.2-11.3-.9-2.1-9-4.2-10.6-2.5h0c-1.1-1.5-2-2.9-2.8-4.4h.4c1-10.2,2.7-22.1,1.8-28.5,0,0,0-.1.1-.2-5.9-2.2-10.7-5-12.4-6.6-.4-.3-.6-.6-.7-.8-.3-.9,1.4-3.7,1.9-4.5,4.5-6.9,5.8-9.4,12.3-11.6,5.5-1.3,5.1-1.3,10.4-2.1v.2c1.2,3.5,8.8,6.9,11,7.5s4.7.2,6.3-1.4c1-1.1.4-2.4,0-4.1h.3c1.7.4,5.2,1.7,6.5,2.8,6.1,5,7.2,13,10.9,20-.7,1-1.3,1.8-1.9,2.4-1.3,1.4-2.5,2.2-4.2,3.6h0Z"/><path class="cls-8" d="M101.9,116.1c-2.2,5.5-9.7,4.7-10-4.3l.2-.2c3.4,2.4,6,4,9.9,4.5Z"/><path class="cls-3" d="M91.9,97.8c.8.2,1.1,1.4.8,2.7-.3,1.3-1.1,2.2-1.9,2.1-.8-.2-1.1-1.4-.9-2.7.3-1.3,1.1-2.2,1.9-2.1Z"/><path class="cls-6" d="M88.4,127c.3,1.7.9,3,0,4.1-1.5,1.7-4.1,2-6.3,1.4s-9.8-4.1-11-7.5v-.2s0,0,0,0c.4-1,.7-2.1.9-3.2.3-1.8.4-3.7.4-5.3,1.3,0,2.5-.1,3.7-.2h0c1.4,1,3.6,2.6,4.5,3.4,1.8,1.6,4.8,3.3,7.7,4.6h0c-.2,1,0,2,0,2.8Z"/><path class="cls-6" d="M71.2,246.2h0c-2.5,8.3-4,8.6-8.5,16.8-3,5.5-5.3,10.6-8.1,15.6l-.4-.2c-2.4.2-4.8-.6-6.9-1.8s-4-2.7-5.8-4.2h-.2c1.4-5.6,3.2-10.9,5.7-14.9,1.7-2.7,3.6-5.9,4.8-8.9,1.2-3.1,1.2-4.2.8-7.6,7.8,1.4,11,3.8,18.7,5.2Z"/><path class="cls-5" d="M49.3,286.8c.5,0,.8.4,1.2,1,5.3,5.3,10.7,10.5,16,15.8.9.9,1.9,1.9,2.3,3.1.8,2.6-1.6,5.2-4.3,5.8s-5.6-.4-8.3-1.4c-8.1-3.2-15.6-7.7-23-12.1-.9-.5-1.9-1.2-2.1-2.1-.2-.7.1-1.4.4-2.1,1.3-2.9,3.7-7.5,6.5-8.3h.4c-.2.9-.3,1.7-.5,2.5h0c1.2,1.9,7.5,2,8.4,1,.9-1,.6-2.5,1.9-3,.5-.2.9-.3,1.3-.3Z"/><path class="cls-6" d="M60,183.5h0c1.6-1.7,9.7.4,10.6,2.5.9,2.3-2.6,10.5-4.2,11.3-1.9,1-7.1-4.1-8.1-6-.7-.6-1.5-1.3-2.1-1.9-7.2-6.4-11.3-10.6-15.9-20-2.3-4.6,2.7-19.2,6.9-25.6h0c1.7,1.6,6.5,4.4,12.4,6.6,0,0,0,.1-.1.2-4,5-6.6,9.5-9.9,15,3.5,5.5,5.4,9.5,7.7,13.5.8,1.4,1.8,2.9,2.8,4.4Z"/><path class="cls-7" d="M72.4,116.3c0,1.6,0,3.5-.4,5.3h-.1c-4.5-.6-10.5-3.6-15-4.6,4.2-.2,10.2-.4,15.6-.6Z"/><path class="cls-4" d="M54.2,278.4l.4.2c-1.6,2.7-3.3,5.4-5.3,8.2-.3,0-.7,0-1.3.3-1.3.5-1,2-1.9,3-.9,1-7.1.9-8.4-1h0c.2-.8.3-1.6.5-2.4.8-4.3,1.8-9.4,3.1-14.3h.2c1.8,1.6,3.7,3.1,5.8,4.3s4.5,1.9,6.9,1.8Z"/><path class="cls-1" d="M71.8,121.6c-4.5-.6-10.5-3.6-15-4.6-.1,0-.3,0-.4,0"/><path class="cls-1" d="M115.3,84.4c-.4,1.1-.7,2-1.1,2.9-1.5,3.4-3.4,5.1-8.3,6.8.4-2.1,3.7-5.4,2.4-7.1-4.6,3.9-14.3,5-20.2,3.9.7-1.2,2.5-2.5,3.2-3.7-3.1,1.1-7.2,2.7-10.9,3.4-1.6.3-3.2.5-4.6.4-.8,0-1.8-.2-2.3-.8,3.1-.5,5.6-2.5,7.4-5.1"/><path class="cls-1" d="M91.1,62c21.9,4.8,29,14.2,26.3,31.1"/><path class="cls-1" d="M95.9,126.7c7.5,1.2,10.9.2,18.4-1.1-6-8.7.6-23.7,2.8-32.2"/><path class="cls-1" d="M90.9,61.9c-16.6-1.2-22.7,5.6-26.2,11.6-5.3,9-6,14.3-4.8,29.9.3,4.1-1.9,10.5-4.9,13.7.6,0,1.2,0,1.9-.1,4.2-.2,10.2-.4,15.6-.6,1.3,0,2.5-.1,3.7-.2,2.6-.2,4.9-.4,6.6-.7-3.9-8.6-5.1-10.8-2.2-24.6"/><path class="cls-1" d="M114.4,87.3c.9,4.7-2.7,11.6-3.4,13.8-.5,1.9.5,14.1-6.4,19.9,0,0-5.1,4.9-8.5,5.5,0,0-.1,0-.2,0-1.3,0-4.4-.9-7.6-2.3-2.9-1.3-5.9-3-7.7-4.6-.9-.8-3.1-2.4-4.5-3.4"/><path class="cls-1" d="M110.7,98.9c-.1-2.2-4.3-3-5.2-1.8"/><path class="cls-1" d="M96.4,94.2c-1.1-1.7-4.9-3.1-7.2-1.2"/><path class="cls-1" d="M101.8,106.5c2.6,3.5,1.1,5.3-.9,5.9"/><path class="cls-1" d="M105.7,103.4c-.3,1.4,0,2.6.8,2.7.7.2,1.6-.8,1.9-2.2s0-2.6-.8-2.8c-.7-.2-1.6.8-1.9,2.2Z"/><path class="cls-1" d="M90,99.8c-.3,1.3,0,2.5.9,2.7.8.2,1.6-.8,1.9-2.1.3-1.3,0-2.5-.8-2.7-.8-.2-1.6.8-1.9,2.1Z"/><path class="cls-1" d="M101.9,116.1s0,0,0,0c-3.9-.4-6.5-2.1-9.9-4.5-.3-.2-.5-.4-.8-.6"/><path class="cls-1" d="M102,115.7c0,.1,0,.2-.1.4-2.2,5.5-9.7,4.7-10-4.3"/><path class="cls-1" d="M72.4,116.3h0c0,1.6,0,3.5-.4,5.3-.2,1.1-.5,2.2-.9,3.2"/><path class="cls-1" d="M71.1,125c1.2,3.5,8.8,6.9,11,7.5s4.7.2,6.3-1.4c1-1.1.4-2.4,0-4.1-.2-.9-.3-1.8,0-2.8"/><path class="cls-1" d="M66.4,141.1c-1.5,4.2-3.5,8.3-5.1,10-.6-.2-1.2-.4-1.8-.6-5.9-2.2-10.7-5-12.4-6.6-.4-.3-.6-.6-.7-.8-.3-.9,1.4-3.7,1.9-4.5,4.5-6.9,5.8-9.4,12.3-11.6"/><path class="cls-1" d="M56.1,189.5c-.8,5-.9,4-2.5,8.8.3,0,.6.2.9.3,15.1,4.5,26.2,6.8,42.1,5.2.5-12.8,2.3-26,3.1-39.1.2-2.9.3-5.9.3-8.8,0-6-.2-11.9-1.1-17.7"/><path class="cls-1" d="M59.4,150.6s0,0,0,0c.9,6.3-.8,18.3-1.8,28.3"/><path class="cls-1" d="M47.1,143.8c-4.2,6.4-9.2,20.9-6.9,25.6,4.6,9.4,8.7,13.6,15.9,20,.7.6,1.4,1.2,2.1,1.9"/><path class="cls-1" d="M59.5,150.5c0,0,0,.1-.1.2-4,5-6.6,9.5-9.9,15,3.5,5.5,5.4,9.5,7.7,13.5.8,1.4,1.8,2.9,2.8,4.4.1.1.2.3.3.4"/><path class="cls-1" d="M88.7,126.9c1.7.5,5.2,1.8,6.5,2.9,6.1,5,7.2,13,10.9,20-.7,1-1.3,1.8-1.9,2.4-1.3,1.4-2.5,2.2-4.2,3.6"/><path class="cls-1" d="M60.1,183.5c1.6-1.6,9.7.4,10.6,2.5.9,2.3-2.6,10.5-4.2,11.3-1.9,1-7.1-4.1-8.1-6"/><path class="cls-1" d="M99.6,164.3c0,.1,0,.3,0,.4.6,5.1,15.1,14.1,17.5,20.5"/><path class="cls-1" d="M104.4,152.4c1.6,6.7,12.9,20.9,18.6,24.8"/><path class="cls-1" d="M123,177.2c-2.6.6-.5-.1-2.6,1.4-2.1,1.5-3.5,4-3.1,6.5,0,0,0,.2,0,.3.4,1.4,1.3,2.6,2.5,3.4,2.5,1.7,3.9,1,6.3-.8s5.4-4.6,4.2-7.3c-1.2-2.7-4.6-4.3-7.4-3.5"/><path class="cls-1" d="M54.5,198.6c-6,17.9-2.6,25.9-4.3,42,.8.1,1.5.2,2.3.4,7.8,1.4,11,3.8,18.7,5.2.8.2,1.6.3,2.6.4,1.1-5.1,3-14,5.4-22.7,1.1-4,2.4-8,3.7-11.5"/><path class="cls-1" d="M71.1,246.4c-2.5,8.2-4,8.4-8.5,16.6-3,5.5-5.3,10.6-8.1,15.6-1.6,2.7-3.3,5.4-5.3,8.2,0,0,0,0,0,0"/><path class="cls-1" d="M52.5,241c.4,3.4.4,4.5-.8,7.6-1.2,3-3.1,6.2-4.8,8.9-2.4,3.9-4.2,9.3-5.7,14.8-1.3,4.9-2.2,10-3.1,14.3-.2.8-.3,1.6-.5,2.4"/><path class="cls-1" d="M79.1,223.9h0c2.4,4.1,10.4,17.9,12.3,22.7.8-.5,1.6-1,2.3-1.6,6-4.3,12-10.1,19.9-12.3-4.5-10.6-8.9-20.9-17.1-29"/><path class="cls-1" d="M94,245.3s1.1,2.7.7,5.4c-.5,3.1.4,9.6,1.2,12.7,1.8,6.7,3,12.4,3.5,18.4.4,4.1.4,8.3.2,13.1v-1.2c0-.3,0-.6,0-.9"/><path class="cls-1" d="M113.7,232.7c.2,16.3-.6,32.7-2.3,48.9-.3,3.1-.7,6.3-1.1,9.4,0,0,0,.2,0,.2"/><path class="cls-1" d="M60.7,126.9c5.5-1.3,5.1-1.3,10.4-2.1,0,0,0,0,0,0"/><path class="cls-1" d="M99.5,294.7c0,0,0,.1,0,.2,1,2.2,5.1,3.6,7.2,2.4,1.3-.7,2-2,2.6-3.2.5-1,.3-2.1.8-3,.1-.2.3-.3.4-.5,1.1-.9,1.6-1,2.6,0h0"/><path class="cls-1" d="M99.2,293.7c-1.3,2.9-2.1,6-2.6,9.1-.1.7-.2,1.5.2,2.1.5.9,1.7,1.2,2.7,1.5,8.7,2.3,17.5,4.6,26.5,5.5,2.9.3,6.1.4,8.7-.9,2.6-1.3,4.2-4.5,2.7-6.8-.7-1.1-2-1.8-3.2-2.4-6.9-3.7-13.9-7.5-20.8-11.2"/><path class="cls-1" d="M37.5,288.5c0,.2,0,.4.2.6,1.2,1.9,7.5,2,8.4,1,.9-1,.6-2.5,1.9-3,.5-.2.9-.3,1.3-.3.5,0,.8.4,1.2,1,0,0,0,0,0,.1"/><path class="cls-1" d="M37.9,286.6c-2.8.7-5.2,5.4-6.5,8.3-.3.7-.6,1.4-.4,2.1.2,1,1.2,1.6,2.1,2.1,7.4,4.4,14.9,8.9,23,12.1,2.6,1,5.5,2,8.3,1.4s5.1-3.2,4.3-5.8c-.4-1.2-1.4-2.2-2.3-3.1-5.3-5.3-10.7-10.5-16-15.8,0,0-.2-.2-.3-.3"/><path class="cls-2" d="M41.5,272.4c1.8,1.5,3.7,3.1,5.8,4.2s4.5,1.9,6.9,1.8"/><path class="cls-2" d="M99.5,281.8c3.8,1.3,8,1.2,11.8,0"/></svg>