<?xml version="1.0" encoding="UTF-8"?><svg id="asia" xmlns="http://www.w3.org/2000/svg" width="235" height="321.9" viewBox="0 0 235 321.9"><defs><style>.cls-1{fill:none;stroke:#000;stroke-linecap:round;stroke-linejoin:round;}.cls-2,.cls-3,.cls-4,.cls-5,.cls-6,.cls-7,.cls-8,.cls-9,.cls-10{stroke-width:0px;}.cls-3{fill:#868a8b;}.cls-4{fill:#322a1c;}.cls-5{fill:#586163;}.cls-6{fill:#423b38;}.cls-7{fill:#deae9b;}.cls-8{fill:#be735c;}.cls-9{fill:#fff;}.cls-10{fill:#e8f1f3;}</style></defs><path class="cls-7" d="M106.8,135.2c1.3,2.2,2.3,4.7,2.1,7.1-.8.9-1.6,1.8-2.4,2.7-4.1,4.5-7.8,7.7-9.6,13.3-.8,2.4-1.2,4.6-2.1,7-1.1,3.2-3.2,3.4-5,3.8h-.3c-.4-2.1-.7-3.7-1-4.7h-2.8c2.4-.8,4.7-1.7,4.8-1.2-1.1-5.9-1.3-10.7-1.2-15.3,1.6-1.8,5.6-8.4,6.6-10.5,1.6-3.3,1.7-3.9,2.9-5.8.2-.4.5-.9.9-1.5,2.9.7,5.5,2.6,7,5.2Z"/><path class="cls-3" d="M100.8,300.3c.7,1.3,1.2,7.3-.2,7.9-.4.2-3.2.8-3.7.8-4.9.2-22.3-.3-23.8-1.1-2-1.1-1.3-7.7-.3-9.6v-.6c7.8.8,17.7.3,24.7-.6h0c1.5,1,2.7,2,3.2,3.1Z"/><path class="cls-8" d="M108.9,142.3c.2-2.4-.8-4.9-2.1-7.1-1.5-2.6-4.1-4.5-7-5.2-.4.6-.7,1.1-.9,1.5l-.3-.2c-.8-2.1-6.2-10.1-8-14.7-.5,4.8-.8,9.4-.6,14.7.2,6-.3,11.1-.4,16.5,0,4.6,0,9.4,1.2,15.3,0-.5-2.4.5-4.8,1.2-2.8.8-5.7,1.2-5.7-1.2,0-4.9-.4-12.3-1-20.7-.4-4.7-.8-9.6-1.3-14.6,2.2-14.1,8.3-26.1,2.9-31.8-.7-.7-.8-1.3-.6-1.8,1-2.3,9.7-2.9,8.4-5.6-.7-1.6-.8-3-2.2-4.3,10.1,2.4,25.6,40.5,27.5,43.5,3.9,6.1-1.2,11.2-5.4,16.1.2-.5.3-1,.3-1.6Z"/><path class="cls-7" d="M84.1,43.5c.2-.1-2.3-2.5-3.4-2.9-.8-.3-2.4-.6-3.5,0-1.5.9-2.1,2-1.2,2,.8,0,2.3-1.4,4.8-.8,1.4.4,3.3,1.8,3.4,1.7ZM87.2,41.9q-.2,2-1,5.7c.3,0,.8,8.3-3.4,16.4-3.2,6.2-7.1,11.2-12,12.8-4.4,1.5-9.6.2-15.7-5.4-1.6-1.5-3.4-3.3-5.1-5.5-2.1-3.5-2.9-14.4-2-23.6h0c6.2-4.3,10.7-6.4,14.9-9.6,7.1-5.6,13.5-7.6,15.4-6.4,3,2,9,9.1,9,15.5ZM80.8,49.1c0-1.4-.6-2.5-1.3-2.5s-1.3,1.1-1.3,2.5.6,2.5,1.3,2.5,1.3-1.1,1.3-2.5ZM69.4,68.9c2.6,0,3.8-1.5,5-3.7-4.4,1.9-12.9-.5-13.8-1.5,1.7,3,3.5,5.2,8.8,5.2ZM64.7,41.8c1.2,0,.8-1.1-1.1-2.1-1.3-.7-3.5-.4-4.6,0-1.5.4-5.3,2.7-5.1,2.8.1.1,2.9-1.3,4.8-1.6,3.4-.6,4.9.9,6,1ZM62.8,49.1c0-1.6-.7-2.9-1.6-2.9s-1.6,1.3-1.6,2.9.7,2.9,1.6,2.9,1.6-1.3,1.6-2.9Z"/><path class="cls-8" d="M80.1,94.2c1.5-3,3.4-5.8,6.3-9.8,1.3,1.3,1.4,2.8,2.2,4.3,1.3,2.7-7.4,3.2-8.4,5.6h0Z"/><path class="cls-2" d="M79.5,46.6c.7,0,1.3,1.1,1.3,2.5s-.6,2.5-1.3,2.5-1.3-1.1-1.3-2.5.6-2.5,1.3-2.5Z"/><path class="cls-8" d="M80.8,96c5.3,5.6-.7,17.6-2.9,31.8-.6-6.8-1.4-13.7-2.1-19.9,1.5-6.4,2.6-10.2,4.4-13.7h0c-.2.5,0,1.1.6,1.8Z"/><path class="cls-10" d="M77.8,127.8c.5,5,.9,10,1.3,14.6-4.7,3.1-19.1,3-23.5,1.2.4-4.7.9-9.7,1.3-14.7h0c1-12.1-.8-31.8-2.2-42.2h.1c2,5.5,16.1,5,17.3,1.1-.5,2.5-1,4.9-1.3,7.4-.8,5.7,0,12.2,4.2,16,.3-1.2.5-2.3.8-3.4.7,6.3,1.5,13.1,2.1,19.9Z"/><path class="cls-6" d="M80.7,40.6c1.1.4,3.6,2.7,3.4,2.9,0,0-2-1.4-3.4-1.7-2.5-.6-3.9.8-4.8.8-.9,0-.4-1.1,1.2-2,1.1-.6,2.7-.3,3.5,0Z"/><path class="cls-4" d="M72.6,85h0c0-3.6-.3-5.3,0-8.1h-1.7c4.9-1.8,8.8-6.8,12-13,4.2-8.1,3.7-16.3,3.4-16.4q.8-3.7,1-5.7c0-6.3-6-13.5-9-15.5-1.9-1.3-8.4.8-15.4,6.4-4.1,3.2-8.6,5.3-14.9,9.6h0c-1,9.2-.1,20.1,2,23.6,1.8,2.2,3.5,4,5.1,5.5h0c.2,3.1-.4,4.4-.9,7.1h-.4c-2,.7-3.8,1.5-5.5,2.3,0,0,0,0,0,0-1.5.4-4.1.9-6.5,1.4-6-7.9-7-31.5-5.8-40.4,1.9-14,10.3-23.9,23.8-25.4,9.9-1.1,14.9,3.2,18.6,4.8,9.6,4.1,12.2,11.3,12.9,23.6.4,8.1,2,30.1-4.7,39.5-2.9,4.1-4.8,6.8-6.3,9.8-1.7,3.5-2.9,7.2-4.4,13.7-.2,1-.5,2.2-.8,3.4-4.3-3.8-5-10.3-4.2-16,.3-2.5.9-4.9,1.3-7.4,0,0,0,0,0,0,.2-.9.3-1.9.5-2.8Z"/><path class="cls-9" d="M74.4,65.3c-1.2,2.2-2.4,3.7-5,3.7-5.3,0-7-2.2-8.8-5.2.9,1,9.4,3.4,13.8,1.5Z"/><ellipse class="cls-2" cx="61.2" cy="49.1" rx="1.6" ry="2.9"/><path class="cls-6" d="M54,42.5c-.2-.2,3.6-2.5,5.1-2.8,1.1-.3,3.3-.6,4.6,0,1.8.9,2.3,2.1,1.1,2.1-1.1,0-2.6-1.5-6-1-1.9.3-4.6,1.8-4.8,1.6Z"/><path class="cls-7" d="M54,78.5c.5-2.7,1.1-4,.9-7h0c6.1,5.5,11.3,6.8,15.7,5.3h1.7c-.3,2.9,0,4.7,0,8.2h0c-.1.9-.3,1.9-.5,2.8,0,0,0,0,0,0-1.3,3.9-15.3,4.4-17.3-1.1h-.1c-.4-2.5-.7-4.6-1-5.7.1-1,.2-1.8.4-2.5Z"/><path class="cls-8" d="M54.6,86.7c1.4,10.4,3.2,30.1,2.2,42.2,0-1.1-5.2-18.1-6.8-22-1.2-2.8,1.3-6.5,0-8.9-2.3-4.6-12.5-5.2-12.5-5.5-.1-4.8,4-8.4,10.5-11.6,0,0,0,0,0,0,1.7-.8,3.5-1.6,5.5-2.4h.4c-.1.8-.3,1.6-.4,2.5.3,1.2.6,3.2,1,5.8Z"/><path class="cls-8" d="M41.7,82.3c2.4-.5,5-1,6.5-1.4-6.5,3.2-10.6,6.9-10.5,11.6,0,.4,10.2.9,12.5,5.5,1.2,2.4-1.3,6.1,0,8.9,1.6,3.8,6.8,20.9,6.8,22h0c-.4,5-.8,10-1.3,14.7-.9,10.2-1.8,18.5-2,19.9-.5,3.3-6.6,4.2-13.2,2.7.3-.5.4-1.2-.1-1.8,1-.2,2.2-1.1,2.3-2.4,0-.5,0-1-.2-1.6,4.6-1.1,2.7-3.8.7-6,.5-2.3-.6-3.6-2.3-4.4-1.5-.7-3.4-1-5.2-1.3.3-3.9,1-33.1,0-35.1-5.7,6-12.5,12.5-14.3,14.3-.2.2-.3.3-.4.4-3.1-.5-4.8-.3-7.3,1.5-1.9,1.4-3.2,4.2-3.9,6.8-.2.8-.4,1.5-.5,2.2-2.6-4.7-5.8-12.5-2.9-17.6,2.6-4.7,29.2-36.8,32.7-38.3.8-.2,1.8-.3,2.7-.5Z"/><path class="cls-7" d="M40.6,149.9c1.7.8,2.8,2.1,2.3,4.4,2,2.2,3.9,4.8-.7,6,.2.6.3,1.1.2,1.6-.2,1.4-1.3,2.3-2.3,2.4.5.7.5,1.3.1,1.8-.5.8-1.7,1.3-2.4,1.3,0,1.7-.8,2.2-2,2-2.3-.2-5.9-2.5-6.9-3.5-2.1-2.2-5.4-6.8-4-10-2.7-4.1-7.2-9.7-10.2-13.3-1.6-1.9-3.4-3.3-5.2-6.2.7-2.6,2-5.4,3.9-6.8,2.5-1.8,4.2-2,7.3-1.5,0,0,.2-.2.4-.4.8,1.2,1.5,2.6,2.7,5,2,4.2,2.5,13,8.4,15.1.9.3,2,.5,3.2.7,1.8.3,3.7.6,5.2,1.3Z"/><path class="cls-5" d="M52.8,297.6c-6.8,1.1-15.7,1.6-21.9-1.3-1-.4-1.9-1-2.7-1.6,0,0,6.2-111.5,7.7-125.1,1.2.1,2.1-.4,2-2,.7,0,1.9-.5,2.4-1.3,6.7,1.5,12.7.6,13.2-2.7.2-1.4,1.1-9.7,2-19.9,4.4,1.8,18.8,1.9,23.5-1.2.6,8.4,1,15.8,1,20.7s2.9,2,5.7,1.2h2.8c.3,1.1.6,2.7,1,4.8,4.2,23.8,12.3,109.7,13.4,127.1-1.4.3-3.3.6-5.4.9-7,.9-16.9,1.4-24.6.6-2.8-.3-5.2-.8-7.2-1.5-.8-8.1-1.6-116.3-1.6-116.2-1.6,9.7-3.3,107.7-4.4,116.2-1.8.4-4.2.9-6.9,1.3Z"/><path class="cls-3" d="M52.8,297.6c.2.3,2.1,8.9.5,10.4-1.3,1.2-5,1-6.9,1-5.3,0-10.5,0-15.8,0-1.7,0-3.5-.1-4.6-1.3-1-1-.9-4.7-.6-6,.5-1.9,3.1-3.9,5.5-5.3,6.1,2.9,15.1,2.3,21.9,1.3h0Z"/><line class="cls-1" x1="42.6" y1="162" x2="42.5" y2="162"/><line class="cls-1" x1="40.9" y1="149.4" x2="40.6" y2="149.9"/><path class="cls-1" d="M91.6,108.6c-.4,2.8-.8,5.4-1.1,8-.5,4.8-.8,9.4-.6,14.7.2,6-.3,11.1-.4,16.5,0,4.6,0,9.4,1.2,15.3"/><path class="cls-1" d="M35.4,113.5c1,2,.3,31.1,0,35.1"/><path class="cls-1" d="M109.6,141.5c-.2.3-.5.6-.8.9-.8.9-1.6,1.8-2.4,2.7-4.1,4.5-7.8,7.7-9.6,13.3-.8,2.4-1.2,4.6-2.1,7-1.1,3.2-3.2,3.4-5,3.8"/><path class="cls-1" d="M86.4,84.3c10.1,2.4,25.6,40.5,27.5,43.5,3.9,6.1-1.2,11.2-5.4,16.1"/><path class="cls-1" d="M90.5,116.6c1.8,4.7,7.3,12.7,8,14.7"/><path class="cls-1" d="M101.1,127.9c-.6.9-1,1.6-1.4,2.2-.4.6-.7,1.1-.9,1.5-1.1,1.9-1.3,2.5-2.9,5.8-1,2.2-5,8.7-6.6,10.5h0"/><path class="cls-1" d="M9.1,138.8c0-.7.3-1.4.5-2.2.7-2.6,2-5.4,3.9-6.8,2.5-1.8,4.2-2,7.3-1.5,0,0,.2-.2.4-.4,1.8-1.8,8.6-8.3,14.3-14.3,3.2-3.4,6.1-6.6,7.6-8.8"/><path class="cls-1" d="M9.1,135.8c.2.3.3.5.5.8,1.8,2.8,3.6,4.3,5.2,6.2,3,3.6,7.5,9.3,10.2,13.3"/><path class="cls-1" d="M38.9,82.8c-3.5,1.5-30.1,33.7-32.7,38.3-2.9,5.1.3,13,2.9,17.6"/><path class="cls-1" d="M32.2,147.9c-5.9-2.1-6.5-10.9-8.4-15.1-1.1-2.4-1.9-3.8-2.7-5-1-1.5-2-2.7-4-5.3"/><path class="cls-1" d="M40.7,152c.5.6,1.4,1.4,2.3,2.4,2,2.2,3.9,4.8-.7,6,.2.6.3,1.1.2,1.6-.2,1.4-1.3,2.3-2.3,2.4.5.7.5,1.3.1,1.8-.5.8-1.7,1.3-2.4,1.3,0,1.7-.8,2.2-2,2-2.3-.2-5.9-2.5-6.9-3.5-2.1-2.2-5.4-6.8-4-10"/><path class="cls-1" d="M32.2,147.9c.9.3,2,.5,3.2.7,1.8.3,3.7.6,5.2,1.3,1.7.8,2.8,2.1,2.3,4.4,0,0,0,0,0,0"/><path class="cls-1" d="M28.2,294.7s6.2-111.5,7.7-125.1"/><path class="cls-1" d="M80.1,141.5c-.3.3-.6.7-1,.9-4.7,3.1-19.1,3-23.5,1.2-.1,0-.3-.1-.4-.2"/><path class="cls-1" d="M48.1,80.9c-1.5.4-4.1.9-6.5,1.4-1,.2-1.9.4-2.7.5"/><path class="cls-1" d="M88.6,164.4c.3,1,.6,2.7,1,4.8,4.2,23.8,12.3,109.7,13.4,127.1-1.4.3-3.3.6-5.4.9-7,.9-16.9,1.4-24.6.6-2.8-.3-5.2-.8-7.2-1.5-.8-8.1-1.6-116.3-1.6-116.2-1.6,9.7-3.3,107.7-4.4,116.2-1.8.4-4.2.9-6.9,1.3-6.8,1.1-15.7,1.6-21.9-1.3-1-.4-1.9-1-2.7-1.6"/><path class="cls-1" d="M54.7,86.7c2,5.5,16.1,5,17.3,1.1"/><path class="cls-1" d="M86.4,84.3c1.3,1.3,1.4,2.8,2.2,4.3,1.3,2.7-7.4,3.2-8.4,5.6-.2.5,0,1.1.6,1.8,5.3,5.6-.7,17.6-2.9,31.8,0,0,0,0,0,0"/><path class="cls-1" d="M53.6,78.4c-2,.8-3.8,1.6-5.5,2.4,0,0,0,0,0,0-6.5,3.2-10.6,6.9-10.5,11.6,0,.4,10.2.9,12.5,5.5,1.2,2.4-1.3,6.1,0,8.9,1.6,3.8,6.8,20.9,6.8,22"/><path class="cls-1" d="M87.2,41.9q-.2,2-1,5.7c.3,0,.8,8.3-3.4,16.4-3.2,6.2-7.1,11.2-12,12.8-4.4,1.5-9.6.2-15.7-5.4-1.6-1.5-3.4-3.3-5.1-5.5"/><path class="cls-1" d="M78.2,49.1c0,1.4.6,2.5,1.3,2.5s1.3-1.1,1.3-2.5-.6-2.5-1.3-2.5-1.3,1.1-1.3,2.5Z"/><ellipse class="cls-1" cx="61.2" cy="49.1" rx="1.6" ry="2.9"/><path class="cls-1" d="M74.8,60.3c-1.9,1.1-5.3,1.5-8.3,0"/><path class="cls-1" d="M74.4,65.3c-4.4,1.9-12.9-.5-13.8-1.5,1.7,3,3.5,5.2,8.8,5.2,2.6,0,3.8-1.5,5-3.7Z"/><path class="cls-1" d="M48.1,40.8c0,.5-.1,1-.2,1.6-1,9.2-.1,20.1,2,23.6"/><path class="cls-1" d="M86.4,84.3c6.7-9.3,5.1-31.4,4.7-39.5-.7-12.3-3.3-19.5-12.9-23.6-3.7-1.6-8.6-5.9-18.6-4.8-13.5,1.5-21.9,11.3-23.8,25.4-1.2,8.9-.2,32.5,5.8,40.4"/><path class="cls-1" d="M72.9,78.2c.2,2.3,0,4.6-.3,6.8-.1.9-.3,1.9-.5,2.8,0,0,0,0,0,0-.5,2.5-1,4.9-1.3,7.4-.8,5.7,0,12.2,4.2,16,.3-1.2.5-2.3.8-3.4,1.5-6.4,2.6-10.2,4.4-13.7,1.5-3,3.4-5.8,6.3-9.8"/><path class="cls-1" d="M87.2,41.9c0-6.3-6-13.5-9-15.5-1.9-1.3-8.4.8-15.4,6.4-4.1,3.2-8.6,5.3-14.9,9.6"/><path class="cls-1" d="M54.9,71.5c.2,3-.4,4.3-.9,7-.1.7-.3,1.5-.4,2.5"/><path class="cls-1" d="M72.5,76.9c-.3,2.8,0,4.6,0,8.1"/><path class="cls-1" d="M80.7,40.6c1.1.4,3.6,2.7,3.4,2.9,0,0-2-1.4-3.4-1.7-2.5-.6-3.9.8-4.8.8-.9,0-.4-1.1,1.2-2,1.1-.6,2.7-.3,3.5,0Z"/><path class="cls-1" d="M59.1,39.7c-1.5.4-5.3,2.7-5.1,2.8.1.1,2.9-1.3,4.8-1.6,3.4-.6,4.9.9,6,1,1.2,0,.8-1.1-1.1-2.1-1.3-.7-3.5-.4-4.6,0Z"/><path class="cls-1" d="M53.6,81c.3,1.2.6,3.2,1,5.8,1.4,10.4,3.2,30.1,2.2,42.2h0c-.4,5-.8,10-1.3,14.7-.9,10.2-1.8,18.5-2,19.9-.5,3.3-6.6,4.2-13.2,2.7h0"/><path class="cls-1" d="M75.8,107.9c.7,6.3,1.5,13.1,2.1,19.9.5,5,.9,10,1.3,14.6.6,8.4,1,15.8,1,20.7s2.9,2,5.7,1.2c2.4-.7,4.7-1.6,4.8-1.2"/><path class="cls-1" d="M99.4,130c.1,0,.2,0,.3,0,2.9.7,5.5,2.6,7,5.2,1.3,2.2,2.3,4.7,2.1,7.1,0,.5-.1,1-.3,1.6"/><path class="cls-1" d="M31.2,296.1c0,0-.2.1-.3.2-2.4,1.4-5,3.4-5.5,5.3-.4,1.3-.4,5,.6,6,1.1,1.1,3,1.3,4.6,1.3,5.3,0,10.5.1,15.8,0,1.9,0,5.6.3,6.9-1,1.6-1.5-.2-10.1-.5-10.4"/><path class="cls-1" d="M72.9,298.3c-1,1.9-1.7,8.4.3,9.6,1.4.8,18.9,1.3,23.8,1.1.5,0,3.3-.6,3.7-.8,1.4-.6.9-6.6.2-7.9-.6-1.1-1.8-2.1-3.2-3"/></svg>