<?xml version="1.0" encoding="UTF-8"?><svg id="asia" xmlns="http://www.w3.org/2000/svg" width="235" height="321.9" viewBox="0 0 235 321.9"><defs><style>.cls-1{stroke-linecap:round;stroke-linejoin:round;}.cls-1,.cls-2{fill:none;stroke:#000;}.cls-2{stroke-miterlimit:10;}.cls-3,.cls-4,.cls-5,.cls-6,.cls-7,.cls-8,.cls-9{stroke-width:0px;}.cls-4{fill:#272728;}.cls-5{fill:#23233f;}.cls-6{fill:#f1f6fc;}.cls-7{fill:#fff;}.cls-8{fill:#edd2c0;}.cls-9{fill:#00cdff;}</style></defs><path class="cls-5" d="M9.8,146.8c-2.6,4.5-.4,7.9,2.8,13h0c1.1-1.3,2.3-2.6,3.6-3.6,1.3-1.1,2.9-1.9,4.6-2.1,1.6-.2,3.3,0,4.9.5h.5c1.9-2,4.8-5.6,7.9-9.2h-.7c-6.2-.8-12-4.4-15.5-9.6-1.3,1.7-2.2,2.8-2.2,2.8-3.1,3.1-4.7,5.8-6,8.2Z"/><path class="cls-5" d="M12.7,159.7h0c.4.7.8,1.4,1.3,2.1.3.3,1,1.1,2,2.3,2-3.8,3.8-3.8,9.9-5.3.4-.1.8-.2,1.3-.3-.6-1.7-.7-2.5-1.2-3.6.1-.1.2-.2.4-.4h-.5c-1.6-.5-3.3-.8-4.9-.5-1.7.2-3.2,1.1-4.6,2.1-1.3,1.1-2.5,2.3-3.6,3.6Z"/><path class="cls-6" d="M15.3,301.2c-.4,1.4-.4,5.3.6,6.4,1.2,1.2,3.1,1.3,4.9,1.4,5.6,0,11.2.1,16.8,0,2,0,5.9.3,7.3-1,1.7-1.6-.3-10.7-.5-11v-.3c-.7,0-1.5,0-2.2-.1-3.2-.6-6.4-1.7-8.9-2.7-.8-.3-1.5-.8-2.1-1.4h-.8c-2.5,0-3.9.1-6.6,1.6-2.8,1.3-7.8,4.3-8.6,7Z"/><path class="cls-9" d="M90.8,146.4h.1c4.6-1,10.8-4.3,13.5-8.4-3.1-6.5-6.9-15.4-10.1-20.3h-.1c.8,14.5-58.3,11.9-63.9,2.7-2.5,2.9-9,11-12.4,15.4h0c3.5,5.2,9.3,8.8,15.5,9.5h.7c2.1-2.3,4.3-4.7,6.3-6.6l.3.8c0,2.6-.1,5.8-.3,9.2,14.7,10.7,33.9,5.6,50.3,2.5,0-1.9,0-3.5,0-4.9Z"/><path class="cls-8" d="M38.9,192.5c1.2,0,2-.4,1.9-1.8,1.1,0,3.4-1.2,2.2-2.8,1.3-.2,2.8-1.6,2-3.6,4.3-1,2.6-3.4.6-5.4.9-4.1-3.9-4.7-7.6-5.3,0,0,0,0,0,0-.9-.2-1.8-.3-2.5-.5-1.9-.7-8.4-11.5-9.6-13.6v-.6c-6.3,1.5-8,1.5-10.1,5.3,3.9,4.8,12.1,15.2,12.7,16.2-1.3,2.8,1.8,7,3.8,9,.9.9,4.3,3,6.5,3.2Z"/><path class="cls-5" d="M64.4,211.9h.2c0,3.1,6.5,49.1,10.4,77.9.5,3.5,2.8,6.4,5.9,7.6,1.2.5,2.6.7,4,.6,3.9-.3,6.6-2,9.4-3.7.9-.5,1.7-1.2,2.4-1.9,1.9-2.1,3-4.9,2.7-7.8-1.4-17.6-5.6-59.2-6.5-64.5-.9-5.5-2.7-18.2-3.2-24.1-6.7,2.7-7.7,5.1-19.5,5.1s-28-7.4-29.6-10.4c0,1.5-.8,1.9-1.9,1.8-1.3,7.1-8,76.3-9.8,94.5-.2,2.1.6,4.1,2,5.5.6.6,1.3,1,2.1,1.4,2.5,1,5.7,2.1,8.9,2.7.7.1,1.5.2,2.2.1,3.3-.3,6.1-2.8,6.7-6.2,1.8-11.1,4.2-39.5,4.2-39.5.2-.3,5.6-25.7,9.3-39.1Z"/><path class="cls-6" d="M31.2,119.5c-.2.2-.5.5-.8.9,5.6,9.2,64.7,11.8,63.9-2.6h.1c-.8-1.3-1.6-2.3-2.3-2.9-2.7-2.4-4.3-4.5-7.8-5.3-2.2-.5-7.5-1.4-9.9-1.9.1,4.2-1.1,5.9-6.5,6.1-4.2.2-13.2-2.4-12.9-5.3,0-.4,0-.8,0-1.2h-.1c-1.4,0-13.6,3.6-15.3,4.4-3.6,1.5-5.8,5.2-8.6,7.8Z"/><path class="cls-4" d="M52.3,55.4c7,8.6,17.4,14.4,28.3,15.8-.2-1.3-.7-2.6-1.5-3.7,1.2,1,2.7,3,4.5,5.1.3-.4.6-.7,1-.7.8,0,1.5,1.4,1.5,3s0,.5,0,.7c1.6,1.9,3.2,3.7,4.7,4.9.9.7,1.8,1.1,2.7,1.2,5.8-4.8,5.6-34.4-5.8-42-6.6-4.4-14.2-7.4-22.2-7.2-9,.2-19.7,5-24.9,12.3-3.6,5-6.9,17.1-6.3,24.6.8,8.2,4.4,16.1,10.1,22.1,0-1.6.2-3.2.3-4.7.1-2.1.3-4.3.4-6.4.6.7,1.3,1.3,1.9,2,1.9-9,3.7-18.1,5.6-27.1Z"/><path class="cls-5" d="M92.3,191.5c1.7-5.7,1.1-14.5.3-22.7-.7-6.9-1.6-13.4-1.6-17.5-16.4,3.1-35.6,8.2-50.3-2.5-.6,11.1-2,24.4-2.5,24.8,3.7.6,8.5,1.2,7.6,5.3,1.9,2,3.7,4.4-.6,5.4.8,2-.7,3.4-2,3.6,1.3,1.6-1.1,2.8-2.2,2.8,1.6,2.9,17,10.4,29.6,10.4s12.8-2.4,19.5-5.1c1.1-1.1,1.8-2.6,2.4-4.5Z"/><path class="cls-8" d="M74.5,107.2c1.4-.7,2.8-1.8,4.4-3.1,4.2-3.4,8.8-11.5,10.6-17.3.2-.7.4-1.4.6-2.1.3-1.3.4-2.7.5-4.1-1.5-1.1-3.2-2.9-4.7-4.9-.2,1.3-.8,2.3-1.5,2.3s-1.5-1.3-1.5-3,.2-1.8.5-2.3c-1.7-2.2-3.3-4.2-4.5-5.1.8,1,1.4,2.3,1.5,3.7-11-1.5-21.3-7.3-28.3-15.8-1.9,9-3.7,18.1-5.6,27.1-.6-.7-1.3-1.3-1.9-2-.1,2.1-.3,4.3-.4,6.4h.9c.5,4.4,5.4,10.9,8,13,.7.6,1.4,1.1,2.1,1.6,9.6,7.3,14.1,8.4,19.1,5.7ZM78.9,93.5h0c-1.4,2.2-2.9,3.4-6.1,3.7-2,.2-6-.1-7.9-1.2-1.2-.7-2-1-2.9-1.9-.6-.6,0-1.5.9-1.3,4.3,1,11.9,1.9,16,.7ZM59.9,75.7c0-1.9.8-3.5,1.9-3.5s1.8,1.6,1.8,3.5-.8,3.5-1.8,3.5-1.9-1.6-1.9-3.5Z"/><path class="cls-8" d="M74.6,107.8c0-.2,0-.4,0-.5-5,2.7-9.6,1.6-19.1-5.7,0,2.5,0,4.1-.2,5.8,0,.4,0,.8,0,1.2-.3,2.9,8.8,5.5,12.9,5.3,5.3-.2,6.6-1.9,6.5-6.1Z"/><path class="cls-3" d="M61.7,72.3c-1,0-1.9,1.6-1.9,3.5s.8,3.5,1.9,3.5,1.8-1.6,1.8-3.5-.8-3.5-1.8-3.5Z"/><path class="cls-7" d="M62.9,92.8c-.9-.2-1.6.7-.9,1.3,1,.9,1.7,1.3,2.9,1.9,1.9,1.1,5.9,1.4,7.9,1.2,3.2-.4,4.7-1.5,6.1-3.6h0c-4.1,1.1-11.7.2-16-.8Z"/><path class="cls-6" d="M80.7,297.9c-1,2.3-1.6,8.8.4,9.9,1.5.9,20,1.4,25.2,1.2.5,0,3.5-.7,3.9-.9,1.5-.7.9-7,.2-8.4-1.8-3.5-9.4-6.2-13.5-7.2l-.2-.2c-.7.7-1.5,1.4-2.4,1.9-2.9,1.7-5.6,3.4-9.4,3.7-1.4.1-2.8-.1-4-.6l-.2.5Z"/><path class="cls-3" d="M83.5,72.7c-.3.6-.5,1.4-.5,2.3,0,1.7.7,3,1.5,3s1.3-1,1.5-2.3c-.8-1-1.6-2-2.4-3Z"/><path class="cls-3" d="M84.5,72c-.4,0-.7.3-1,.7.8,1,1.6,2,2.4,3,0-.2,0-.5,0-.7,0-1.7-.7-3-1.5-3Z"/><path class="cls-8" d="M89.6,86.8h0c1.7,1.2,3.2-2.1,3.7-5-.8,0-1.7-.5-2.7-1.2,0,1.4-.3,2.8-.5,4.1-.1.7-.3,1.4-.6,2.1Z"/><path class="cls-8" d="M92.3,191.5c1-.4,1.9-1.2,2.5-2.8.8-2.2,1.2-4.1,1.9-6.3.5-1.5,1.1-2.8,1.9-4,2.4-3.6,7.3-8.3,9.7-11.9-.7,0-1.2-.7-1.6-1.4-2.1-3.2-5.6-5.5-9.3-6.1-1.8,3.7-3.1,6.1-4.8,9.7h0c.9,8.2,1.4,17-.3,22.7Z"/><path class="cls-5" d="M100.3,154.7c2.4,0,4.8.7,6.9,1.9,2.1,1.3,3.7,3.5,4.1,5.9h0c2.6-3.1,3.6-6.1.2-11.5-.7-1.2-2.2-3.8-4.1-7.3-.9-1.4-1.9-3.4-3-5.8-2.8,4.1-8.9,7.3-13.5,8.4,1.2,1.3,4.2,9.6,6.1,13.1,0-.2.2-.3.2-.5,1-1.9,1.8-3.2,3-4.3Z"/><path class="cls-5" d="M97.3,159h0c3.8.6,7.3,2.9,9.3,6.1.4.6.9,1.3,1.6,1.4.9,0,2.3-3.2,3-3.8,0,0,0,0,0,0h0c-.3-2.5-2-4.7-4.1-6-2-1.3-4.5-1.8-6.9-1.9-1.1,1.1-2,2.4-3,4.3Z"/><path class="cls-2" d="M74.5,106.4c0,.3,0,.6,0,.9,0,.2,0,.4,0,.5.1,4.2-1.1,5.9-6.5,6.1-4.2.2-13.2-2.4-12.9-5.3,0-.4,0-.8,0-1.2.1-1.7.2-3.3.2-5.8,0-.3,0-.5,0-.8"/><path class="cls-2" d="M74.5,107.7s0,0,0,0c2.4.5,7.7,1.4,9.9,1.9,3.5.8,5.1,2.9,7.8,5.3.7.6,1.5,1.6,2.3,2.9,3.1,4.9,7,13.8,10.1,20.3,1.1,2.3,2.1,4.3,3,5.8"/><path class="cls-2" d="M25.9,154.9c.1-.1.2-.2.4-.4,1.9-2,4.8-5.6,7.9-9.2,2.1-2.4,4.3-4.7,6.3-6.6,1.2-1.1,2.4-2.1,3.5-2.8"/><path class="cls-2" d="M18,135.8c-1.3,1.7-2.2,2.8-2.2,2.8"/><path class="cls-2" d="M55.1,107.4c-1.4,0-13.6,3.6-15.3,4.4-3.6,1.5-5.8,5.2-8.6,7.8-.2.2-.5.5-.8.9-2.5,2.9-9,11-12.4,15.4"/><path class="cls-2" d="M90,133.3c.3,5.4.7,8.1.8,13.1,0,1.4,0,3,0,4.9,0,4.1.9,10.6,1.6,17.5.9,8.2,1.4,17-.3,22.7-.5,1.8-1.3,3.4-2.4,4.5-6.7,2.7-7.7,5.1-19.5,5.1s-28-7.4-29.6-10.4"/><path class="cls-2" d="M40.9,139.6c0,2.6-.1,5.8-.3,9.2-.6,11.1-2,24.4-2.5,24.8,0,0,0,0,0,0"/><path class="cls-2" d="M98.6,178.3c-.8,1.2-1.4,2.5-1.9,4-.7,2.2-1.2,4.1-1.9,6.3-.6,1.6-1.5,2.4-2.5,2.8-.7.3-1.5.5-2.3.6"/><path class="cls-2" d="M107.5,143.8c1.9,3.5,3.3,6.1,4.1,7.3,3.3,5.3,2.3,8.4-.2,11.5,0,0,0,0,0,0"/><path class="cls-2" d="M91,146.4c1.2,1.3,4.2,9.6,6.1,13.1"/><path class="cls-2" d="M105.1,151c-2.2,1.4-3.7,2.4-4.9,3.7-1.1,1.1-2,2.4-3,4.3,0,.2-.2.3-.2.5"/><path class="cls-2" d="M13.9,161.8c.3.3,1,1.1,2,2.3,3.9,4.8,12.1,15.2,12.7,16.2"/><path class="cls-2" d="M15.9,138.5c-3.1,3.1-4.7,5.8-6,8.2-2.6,4.5-.4,7.9,2.8,13,.4.7.8,1.3,1.3,2"/><path class="cls-2" d="M27.1,158.5c-.6-1.7-.7-2.5-1.2-3.6"/><path class="cls-2" d="M35.5,173c-1.9-.7-8.4-11.5-9.6-13.6"/><path class="cls-2" d="M43.5,176.7c.4.5,1.3,1.3,2.2,2.2,1.9,2,3.7,4.4-.6,5.4.8,2-.7,3.4-2,3.6,1.3,1.6-1.1,2.8-2.2,2.8,0,1.5-.8,1.9-1.9,1.8-2.2-.2-5.6-2.3-6.5-3.2-2-1.9-5.1-6.1-3.8-9"/><path class="cls-2" d="M35.5,173c.7.2,1.6.4,2.5.5,0,0,0,0,0,0,3.7.6,8.5,1.2,7.6,5.3,0,0,0,0,0,0"/><path class="cls-2" d="M89.9,195.9c.4,5.9,2.3,18.6,3.2,24.1.9,5.3,5.1,47,6.5,64.5.2,2.9-.8,5.7-2.7,7.8-.7.7-1.5,1.4-2.4,1.9-2.9,1.7-5.6,3.4-9.4,3.7-1.4.1-2.8-.1-4-.6-3.1-1.2-5.4-4.1-5.9-7.6-3.9-28.8-10.4-74.8-10.4-77.8"/><path class="cls-2" d="M66.9,204.3c-.6,1.2-1.5,3.9-2.5,7.6-3.7,13.4-9.1,38.8-9.3,39.1,0,0-2.3,28.4-4.2,39.5-.6,3.4-3.4,5.9-6.7,6.2-.7,0-1.4,0-2.2-.1-3.2-.6-6.4-1.7-8.9-2.7-.8-.3-1.5-.8-2.1-1.4-1.5-1.4-2.2-3.4-2-5.5,1.8-18.3,8.5-87.4,9.8-94.5h0v-.2"/><path class="cls-2" d="M30.4,292.6c-2.5,0-3.9.1-6.6,1.6"/><path class="cls-1" d="M23.9,294.1c-2.8,1.3-7.8,4.3-8.6,7-.4,1.4-.4,5.3.6,6.4,1.2,1.2,3.1,1.3,4.9,1.4,5.6,0,11.2.1,16.8,0,2,0,5.9.3,7.3-1,1.7-1.6-.3-10.7-.5-11"/><path class="cls-1" d="M80.9,297.7c0,0,0,.1-.1.2-1,2.3-1.6,8.8.4,9.9,1.5.9,20,1.4,25.2,1.2.5,0,3.5-.7,3.9-.9,1.5-.7.9-7,.2-8.4-1.8-3.5-9.4-6.2-13.5-7.2"/><path class="cls-1" d="M90.5,72.3c0,.6.4,4.3.1,8.3,0,1.4-.3,2.8-.5,4.1-.1.7-.3,1.4-.6,2.1-1.9,5.9-6.5,14-10.6,17.3-1.6,1.3-3,2.3-4.4,3.1-5,2.7-9.6,1.6-19.1-5.7-.7-.5-1.3-1-2.1-1.6-2.6-2.1-7.6-8.7-8-13"/><path class="cls-1" d="M65.3,68c-2.1-2.1-7.7-.7-8.1.9"/><path class="cls-1" d="M83.5,72.7c-.3.6-.5,1.4-.5,2.3,0,1.7.7,3,1.5,3s1.3-1,1.5-2.3c0-.2,0-.5,0-.7,0-1.7-.7-3-1.5-3s-.7.3-1,.7Z"/><path class="cls-1" d="M59.9,75.7c0,1.9.8,3.5,1.9,3.5s1.8-1.6,1.8-3.5-.8-3.5-1.8-3.5-1.9,1.6-1.9,3.5Z"/><path class="cls-1" d="M78.3,85.9c-.5,3.2-3.1,2.7-7.8,1.4"/><path class="cls-1" d="M79.3,93.4c-.1,0-.3,0-.4.1-4.1,1.2-11.7.3-16-.7-.9-.2-1.6.7-.9,1.3,1,.9,1.7,1.3,2.9,1.9,1.9,1.1,5.9,1.4,7.9,1.2,3.2-.4,4.7-1.5,6.1-3.6"/><path class="cls-2" d="M93.3,81.8c5.8-4.8,5.6-34.4-5.8-42-6.6-4.4-14.2-7.4-22.2-7.2-9,.2-19.7,5-24.9,12.3-3.6,5-6.9,17.1-6.3,24.6"/><path class="cls-2" d="M91.6,70.5c.6-.2,2.9,1.8,2.8,4.9,0,2.2-.7,4.3-1,6.5-.4,2.9-2,6.2-3.7,5"/><path class="cls-2" d="M27.1,158.5c-.5.1-.9.2-1.3.3-6.2,1.5-7.9,1.5-9.9,5.3"/><path class="cls-2" d="M30.3,120.3s0,0,0,.1c5.6,9.2,64.7,11.8,63.9-2.6"/><path class="cls-2" d="M18,135.8c3.5,5.2,9.3,8.7,15.5,9.5"/><line class="cls-2" x1="18" y1="135.8" x2="18" y2="135.8"/><path class="cls-2" d="M91,146.4c4.6-1,10.8-4.3,13.5-8.4.2-.3.4-.7.6-1"/><path class="cls-2" d="M40.4,148.6c0,0,.1,0,.2.1,14.7,10.7,33.9,5.6,50.3,2.5"/><path class="cls-2" d="M97.4,159c3.8.6,7.3,2.8,9.3,6.1.4.6.9,1.3,1.6,1.4.9,0,2.3-3.2,3-3.8"/><path class="cls-2" d="M97.4,159c-1.8,3.7-3.1,6.1-4.8,9.7"/><path class="cls-2" d="M108.3,166.5c-2.4,3.6-7.3,8.3-9.7,11.9"/><path class="cls-2" d="M25.8,154.5c-1.6-.5-3.3-.8-4.9-.5-1.7.2-3.2,1.1-4.6,2.1-1.3,1.1-2.5,2.3-3.6,3.6"/><path class="cls-2" d="M100.1,154.6c0,0,.1,0,.2,0,2.4,0,4.8.7,6.9,1.9,2.1,1.3,3.7,3.5,4.1,5.9"/><path class="cls-2" d="M51.2,54.1c.3.5.7.9,1,1.3,7,8.6,17.4,14.4,28.3,15.8-.2-1.3-.7-2.6-1.5-3.7,1.2,1,2.7,3,4.5,5.1.8,1,1.6,2,2.4,3,1.6,1.9,3.2,3.7,4.7,4.9.9.7,1.8,1.1,2.7,1.2"/><path class="cls-2" d="M52.3,55.4c-1.9,9-3.7,18.1-5.6,27.1-.6-.7-1.3-1.3-1.9-2-.1,2.1-.3,4.3-.4,6.4,0,1.6-.2,3.2-.3,4.7-5.7-6-9.3-13.9-10.1-22.1"/></svg>