<?xml version="1.0" encoding="UTF-8"?><svg id="asia" xmlns="http://www.w3.org/2000/svg" width="235" height="321.9" viewBox="0 0 235 321.9"><defs><style>.cls-1{stroke-linecap:round;stroke-linejoin:round;}.cls-1,.cls-2{fill:none;stroke:#000;}.cls-2{stroke-miterlimit:10;}.cls-3,.cls-4,.cls-5,.cls-6,.cls-7,.cls-8{stroke-width:0px;}.cls-4{fill:#f9daf0;}.cls-5{fill:#878586;}.cls-6{fill:#e0bfa9;}.cls-7{fill:#332628;}.cls-8{fill:#fff;}</style></defs><path class="cls-6" d="M42.7,182.6c.5-2.4-.9-3.5-2.9-4.1-.7-.2-1.5-.4-2.2-.5-1.2-.2-2.5-.4-3.5-.7-4.3-5.3-5.7-9.3-7.3-12.7-1-2.1-1.7-3.5-2.7-4.7h0c1.1-1.2,5.6-5.6,6.7-6.8.6-.6,1.9-2.1,3.4-3.8-2-4.3-6.1-8.6-10.1-11.1l-.3-.5c-4.5,5.8-10,14.1-11.7,17.1-2.6,4.8,1.6,13.8,5,17.9,2.5,3,8.3,7.9,10.6,11.3-1.1,2.6,1.6,6.5,3.3,8.3,1.3,1.3,7.6,5.2,7.4,1.3.4,0,1.1-.2,1.6-.6.1-.8.2-1.5.3-2,1.1-.2,2.5-1.5,1.7-3.4,3.8-.9,2.3-3.2.6-5Z"/><path class="cls-5" d="M23.7,300.6c-.3,1.2-.2,6.3.6,7.2.9,1,2.5,1.1,3.9,1.2,4.5,0,9,.1,13.5,0,1.6,0,4.8.2,5.9-.9,1.4-1.4.5-9.5-.5-11.1-.2-.3-.3-.5-.5-.7-1.3-1.7-2.6-2-5.1-2.6-1.8-.4-4-.8-6.4-.5-1.5.2-3,.6-4.5,1.5-2.3,1.1-6.3,3.6-6.9,6Z"/><path class="cls-4" d="M81.3,145h.3c.2.3.5.8.9,1.4h.2c3.6-1.9,6.8-4.6,9.5-7.7-1.4-3-5.2-10.6-6.1-12-2.1-3-13.3-6-16.5-6.9v.4c-.7,3.9-2.2,8.5-8.3,8.9-4.9.3-8.4-1.9-10.9-7.7.1-.2.2-.6.4-1h-.3c-3.8-.7-11.5,1-14.6,3.3-3.9,2.8-8.3,9.6-8.3,9.6-1,1.1-2.3,2.6-3.7,4.3l.3.5c4,2.5,8.1,6.8,10.1,11.1,1.3-1.5,2.7-3.2,4-4.6l.3.3c.5,3,1.8,9.5,1.7,13.3,0,3.9-.2,16.2-.5,20.1,1.9.6,3.4,1.7,2.9,4.1,1.7,1.8,3.2,4.1-.6,5,.7,1.9-.6,3.2-1.7,3.4.5.7.3,1.4-.1,1.8,9.8,3.4,34.4,3.3,42.9-1.8.9-.4-.6-7.1-2-14-1.3-6.4-2.6-13-2-15,.4-1.4,1.7-10.2,2.2-16.9Z"/><path class="cls-4" d="M35.1,293.1h0c2.4-.2,4.6.2,6.4.6,2.5.6,3.8.9,5.1,2.6h0c-.1-3.6.5-11,1.3-16.1h0c-4.2,0-8.3-.4-12.5-1.2h-.3c0,4.6.1,9.5,0,14Z"/><path class="cls-6" d="M35.2,257.2c-.5,4.6-.2,12.9,0,21.9h.3c4.1.7,8.3,1.1,12.5,1.1h0c.2-1.6.5-3,.7-3.9,1.5-6.6,3.9-16.1,4.4-22.7.2-2.9-.4-5.6-.4-8.5,0-1.3,2-4.6,2.9-7.3-3.8.8-6.8,1.2-11.2,0-1.2-.3-3.7-1.2-6-2.3h0c-.5,3.7.4,8.4-.2,11.6-.5,2.8-2.5,7-2.9,10.1Z"/><path class="cls-7" d="M47.5,109.2c-1.8-2-5.1-4.7-6.2-9.6,0-4.4.5-10.2,2.3-15.2,4-2.1,7.6-4.9,10.6-8.4-.6,1.7-1.2,3.4-1.8,5.1,5-.9,9.8-3.1,13.7-6.5-.3,1.6-.6,3.2-.9,4.8,5.6-.8,10.9-4.1,14-9,2.5,5.7,2.3,22.5,2.2,25.2,0,1.2-.2,2.4-.4,3.8-1,4.7-2.3,7.4-5.7,10.5-2.5,2.3-4.6,4.3-6.9,5.6,0,.3,0,1.3.2,2.3,7.6.3,15.2-1.5,22.1-4.6-10.6-2.5.6-20.3-5.3-37.8-1.8-5.4-3.2-11.2-7.5-14.7-4.3-3.5-13.9-4-19.4-3.9-7.9.2-18.7,6.8-20.7,14.7-6.7,26.1,4.5,38.2-9.1,41,6.2,4.3,15.3,5.7,22.7,4.9.3-1.6.4-3.4.4-4.6-1.3-1-2.8-2.1-4.3-3.5Z"/><path class="cls-5" d="M55.5,237.7c.2,0,.4,0,.6-.1,1-.2,2.1-.4,3.3-.7h0c0-.3.6-11.1,1.6-19.2h.1c.5,6.1,2.1,12.2,3.3,18.1,2.3.9,4.4,1.4,6.4,1.8,6.6,1.2,11.8-.1,16.2-2.3.7-.4,1.4-.8,2.1-1.2-.9-7.6-4.2-31.4-5.5-40.1-.2-1.5-.4-2.6-.5-3-8.5,5.1-33.1,5.2-42.9,1.8,0,0-.1.1-.2.2-1.7,10.2-6.2,39.8-6.2,39.8.8.8,2.5,1.8,4.4,2.7,2.3,1.1,4.8,2,6,2.3,4.5,1.1,7.5.7,11.2,0Z"/><path class="cls-6" d="M51.8,112.7c7.6,5.6,12.2,5.5,16.5,2.9,2.2-1.4,4.4-3.4,6.9-5.6,3.4-3.1,4.7-5.9,5.7-10.5.3-1.3.4-2.6.4-3.8.1-2.7.3-19.5-2.2-25.2-3.1,4.9-8.4,8.3-14,9,.3-1.6.6-3.2.9-4.8-3.9,3.3-8.7,5.6-13.7,6.5.6-1.7,1.2-3.4,1.8-5.1-3,3.4-6.6,6.3-10.6,8.4-1.8,5-2.3,10.7-2.3,15.2,1.1,4.9,4.4,7.6,6.2,9.6,1.6,1.4,3,2.5,4.3,3.5ZM52.8,88c0-1.5.7-2.7,1.4-2.7s1.4,1.2,1.4,2.7-.6,2.7-1.4,2.7-1.4-1.2-1.4-2.7ZM58.4,107.4c-1.6-1.3-2.3-1.7-4.2-5.2.9,1.2,11.9,4.3,16.5,1.9l-.4.3c-1.2,2.6-2.4,4-5.2,4.5-1.7.3-5.1-.1-6.7-1.4ZM72.5,88.3c0-1.4.6-2.6,1.4-2.6s1.4,1.2,1.4,2.6-.6,2.6-1.4,2.6-1.4-1.2-1.4-2.6Z"/><path class="cls-6" d="M51.4,117.4c-.2,1.2-.4,2.3-.7,3.1-.1.4-.2.7-.4,1,2.5,5.8,6,8,10.9,7.7,6-.4,7.6-4.9,8.2-8.9v-.4c-.4-.1-.8-.2-.8-.3,0-.2,0-.9-.2-1.7,0-1-.2-2-.2-2.3-4.3,2.6-8.8,2.7-16.5-2.9,0,1.2-.2,3-.4,4.6Z"/><path class="cls-3" d="M54.3,85.4c-.8,0-1.4,1.2-1.4,2.7s.7,2.7,1.4,2.7,1.4-1.2,1.4-2.7-.6-2.7-1.4-2.7Z"/><path class="cls-8" d="M54.2,102.2c1.9,3.5,2.6,3.9,4.2,5.2,1.7,1.3,5,1.7,6.7,1.4,2.7-.5,4-1.9,5.2-4.5l.4-.3c-4.6,2.4-15.6-.7-16.5-1.9Z"/><path class="cls-6" d="M70.9,237.6c.7,1.6.4,3.7,1.1,5.7-2.5,6.9,1.2,15.5,2.5,20.8,1.3,4.9,2.6,10,3.8,14.8h0c4.1,1,8.5.6,12.5-1-.7-9-1.4-19.2-1.3-21,.3-4.4-.2-9.2-2.3-14.2,0-2.3-.2-5.1-.1-7.5-4.4,2.2-9.6,3.5-16.2,2.3Z"/><path class="cls-3" d="M73.9,85.7c-.8,0-1.4,1.2-1.4,2.6s.6,2.6,1.4,2.6,1.4-1.2,1.4-2.6-.6-2.6-1.4-2.6Z"/><path class="cls-4" d="M78.3,279h0c1.5,6.1,2.6,11.7,2.6,15.8h0c.6-.7,1.3-1.3,2.5-1.6,1.6-.4,6.8-.5,8.7-.8v-.3c-.3-1.3-.8-7.4-1.4-14.1-3.9,1.6-8.4,1.9-12.5,1Z"/><path class="cls-5" d="M79.9,296.6c-.9,1.7-.7,10.4,1,11.4,1.2.7,14.5.6,18.6.4.4,0,3.1-.4,4.2-1.1,1.1-.8.7-7.7,0-8.9-1.5-2.9-7.6-5.3-10.9-6.1,0,0-.3.2-.8.2-2,.3-7.1.4-8.7.8-1.2.3-1.9.8-2.5,1.6-.4.5-.7,1.1-1,1.8Z"/><path class="cls-6" d="M81.4,176.9h-.3c1.4,7,2.9,13.6,2,14.1,0,.5.3,1.5.5,3h.1c2.6-2.1,3-6.1,3.6-8.1.4-1.4.2-1.2.9-2.3,1.6-2.6,4.6-6.1,7-8.8,4.6-5.1,9.7-11.1,5.7-17.5-1.5-2.4-7.2-15.4-8.9-18.4,0,0,0,0,0-.1-2.6,3.1-5.9,5.8-9.5,7.7h-.2c2.6,4.4,8.2,15.8,8.7,15.5h0l.2.2h0c-1.4,2-2.2,4.2-3.4,6.6-.9,1.8-1.9,3.1-3.1,4.7-.8,1-3.5,3.5-3.5,3.7Z"/><path class="cls-2" d="M81.3,95.7c0,1.2-.2,2.4-.4,3.8-1,4.7-2.3,7.4-5.7,10.5-2.5,2.3-4.6,4.3-6.9,5.6-4.3,2.6-8.8,2.7-16.5-2.9-1.3-1-2.8-2.1-4.3-3.5-.1,0-.2-.2-.4-.3"/><path class="cls-2" d="M41.2,99.6c1.1,4.9,4.4,7.6,6.2,9.6,0,0,.1.2.2.2"/><path class="cls-2" d="M68.6,119.6c0-.2,0-.9-.2-1.7,0-1-.2-2-.2-2.3"/><line class="cls-2" x1="24.2" y1="159.9" x2="24.1" y2="159.9"/><line class="cls-2" x1="33.8" y1="177.2" x2="33.7" y2="177.3"/><line class="cls-2" x1="37.7" y1="177.6" x2="37.6" y2="178"/><line class="cls-2" x1="81.6" y1="145" x2="81.6" y2="145"/><line class="cls-2" x1="89.7" y1="136.7" x2="89.7" y2="136.7"/><line class="cls-2" x1="91.4" y1="162" x2="91.2" y2="161.8"/><path class="cls-2" d="M69.4,120.3c-.6,3.9-2.1,8.5-8.2,8.9-4.9.3-8.4-1.9-10.9-7.7"/><path class="cls-2" d="M86.1,126.7c.8,1.4,4.7,8.9,6.1,12,0,0,0,0,0,.1"/><path class="cls-2" d="M68.6,119.6s.4.1.9.3c3.3.9,14.4,3.9,16.5,6.9"/><path class="cls-2" d="M50.4,120.4c-3.8-.6-11.5,1.1-14.6,3.4-3.9,2.8-8.3,9.6-8.3,9.6"/><path class="cls-2" d="M81.4,140.6c0,1.3,0,2.8-.2,4.4-.5,6.7-1.7,15.5-2.2,16.9-.6,1.9.7,8.5,2,15,1.4,6.9,2.9,13.6,2,14"/><path class="cls-2" d="M38.6,145c.5,3,1.8,9.5,1.7,13.3,0,3.9-.2,16.2-.5,20.1"/><path class="cls-2" d="M88.3,183.6c-.7,1.1-.5.9-.9,2.3-.6,2-1,6-3.6,8.1"/><path class="cls-2" d="M92.2,138.8c1.7,3,7.4,16,8.9,18.4,4,6.4-1.1,12.4-5.7,17.5-2.4,2.7-5.4,6.2-7,8.8"/><path class="cls-2" d="M81.6,145c.2.3.5.7.9,1.4,2.6,4.3,8.2,15.8,8.7,15.4h0s0,0,0,0"/><path class="cls-2" d="M95,158.4c-1.5,1.1-2.7,2.3-3.6,3.6-1.4,2-2.2,4.2-3.4,6.6-.9,1.8-1.9,3.1-3.1,4.7-.8,1-3.5,3.5-3.5,3.7s0,0,0,0"/><path class="cls-2" d="M41.2,141.5c-.6.6-1.7,1.8-3,3.2-1.3,1.4-2.7,3.1-4,4.6-1.5,1.7-2.7,3.2-3.4,3.8-1.2,1.2-5.6,5.6-6.7,6.8"/><path class="cls-2" d="M27.5,133.4c-1,1.1-2.3,2.6-3.7,4.3-4.5,5.8-10,14.1-11.7,17.1-2.6,4.8,1.6,13.8,5,17.9,2.5,3,8.3,7.9,10.6,11.3"/><path class="cls-2" d="M34.4,177.6c0,0-.2-.2-.2-.3-4.3-5.3-5.7-9.3-7.3-12.7-1-2.1-1.7-3.5-2.7-4.7-1.2-1.4-2.6-2.5-4.9-3.8"/><path class="cls-2" d="M40.8,180.6c.4.5,1.2,1.2,1.9,2,1.7,1.8,3.2,4.1-.6,5,.7,1.9-.6,3.2-1.7,3.4.5.7.3,1.4-.1,1.8,0,0-.1.1-.2.2-.5.4-1.1.6-1.6.6.2,4-6.1,0-7.4-1.3-1.8-1.8-4.5-5.7-3.3-8.3"/><path class="cls-2" d="M33.8,177.2c.1,0,.2,0,.3.1,1,.3,2.2.4,3.5.7.8.1,1.5.3,2.2.5,1.9.6,3.4,1.7,2.9,4.1,0,0,0,0,0,0"/><path class="cls-2" d="M69.4,97.4c-1.4,3.6-5.4,3.5-8.3,1.6"/><path class="cls-2" d="M72.5,88.3c0,1.4.6,2.6,1.4,2.6s1.4-1.2,1.4-2.6-.6-2.6-1.4-2.6-1.4,1.2-1.4,2.6Z"/><path class="cls-2" d="M55.7,88c0,1.5-.6,2.7-1.4,2.7s-1.4-1.2-1.4-2.7.7-2.7,1.4-2.7,1.4,1.2,1.4,2.7Z"/><path class="cls-2" d="M70.7,104.1c-4.6,2.4-15.6-.7-16.5-1.9,1.9,3.5,2.6,3.9,4.2,5.2,1.7,1.3,5,1.7,6.7,1.4,2.7-.5,4-1.9,5.2-4.5"/><line class="cls-2" x1="70.3" y1="104.4" x2="70.7" y2="104.1"/><path class="cls-2" d="M40.3,192.8c9.8,3.4,34.4,3.3,42.9-1.8"/><path class="cls-2" d="M43.9,83.5c-.1.3-.2.6-.4,1-1.8,5-2.3,10.7-2.3,15.2"/><path class="cls-2" d="M81.3,95.7c.1-2.7.3-19.5-2.2-25.2"/><path class="cls-2" d="M90.6,113.2c-10.6-2.5.6-20.3-5.3-37.8-1.8-5.4-3.2-11.2-7.5-14.7-4.3-3.5-13.9-4-19.4-3.9-7.9.2-18.7,6.8-20.7,14.7-6.7,26.1,4.5,38.2-9.1,41"/><path class="cls-2" d="M51.8,112.5c0,0,0,.2,0,.3,0,1.2-.2,3-.4,4.6-.2,1.2-.4,2.3-.7,3.1-.1.4-.2.7-.4,1"/><line class="cls-2" x1="56.2" y1="238" x2="56.1" y2="237.6"/><path class="cls-2" d="M61.1,217.7c.5,6.1,2.1,12.2,3.3,18.1,2.3.9,4.4,1.4,6.4,1.8,6.6,1.2,11.8-.1,16.2-2.3.7-.4,1.4-.8,2.1-1.2-.9-7.6-4.2-31.4-5.5-40.1-.2-1.5-.4-2.6-.5-3"/><path class="cls-2" d="M59.4,237h0c-1.2.2-2.3.4-3.3.6-.2,0-.4,0-.6.1-3.8.8-6.8,1.2-11.2,0-1.2-.3-3.7-1.2-6-2.3-1.9-.9-3.7-1.9-4.4-2.7,0,0,4.6-29.6,6.2-39.8.1-.8.2-1.5.3-2"/><path class="cls-2" d="M62,211.3c-.3,1.7-.7,3.9-1,6.4-.9,8.2-1.6,19-1.6,19.3"/><path class="cls-2" d="M65.3,208.2c-1.8,1.7-2.4,2.1-3.3,3.1"/><path class="cls-2" d="M24.2,138.2c4,2.5,8.1,6.8,10.1,11.1"/><path class="cls-2" d="M92.3,138.5l-.2.2c-2.6,3.1-5.9,5.8-9.5,7.7"/><path class="cls-2" d="M28.6,112.5c6.2,4.3,15.3,5.7,22.7,4.9h.2"/><path class="cls-2" d="M68.4,117.9c7.6.3,15.2-1.5,22.1-4.6"/><path class="cls-2" d="M79.1,70.5c-3.1,4.9-8.4,8.3-14,9,.3-1.6.6-3.2.9-4.8-3.9,3.3-8.7,5.6-13.7,6.5.6-1.7,1.2-3.4,1.8-5.1-3,3.4-6.6,6.3-10.6,8.4-1.4.7-2.8,1.3-4.2,1.9.4-.2.7-.3,1.1-.5"/><path class="cls-2" d="M69.8,81.9c2-.8,7.2-.5,9.3,0"/><path class="cls-2" d="M57,82.3c-2-.2-4.7-1.1-8.6.8"/><path class="cls-1" d="M87.1,235.1c0,0,0,.1,0,.2,0,2.4.2,5.2.1,7.5,2.1,5,2.6,9.9,2.3,14.2-.1,1.8.6,12,1.3,21,.6,6.8,1.1,12.9,1.3,14.1"/><path class="cls-1" d="M70.8,237.6s0,0,0,0c.7,1.6.4,3.7,1.1,5.7-2.5,6.9,1.2,15.5,2.5,20.8,1.3,4.9,2.6,10,3.8,14.8,1.5,6.1,2.6,11.7,2.6,15.8"/><path class="cls-1" d="M55.6,237.5c0,0,0,.1,0,.2-.9,2.7-2.9,6-2.9,7.3,0,2.8.6,5.6.4,8.5-.5,6.7-2.9,16.2-4.4,22.7-.2,1-.4,2.3-.7,4-.7,5.1-1.4,12.5-1.3,16"/><path class="cls-1" d="M38.2,235.5c-.5,3.7.4,8.4-.2,11.6-.5,2.8-2.5,7-2.9,10.1-.5,4.6-.2,12.9,0,21.9,0,4.6.1,9.5,0,14"/><path class="cls-1" d="M30.6,294.6c-2.3,1.1-6.3,3.6-6.9,6-.3,1.2-.2,6.3.6,7.2.9,1,2.5,1.1,3.9,1.2,4.5,0,9,.1,13.5,0,1.6,0,4.8.2,5.9-.9,1.4-1.4.5-9.5-.5-11.1-.2-.3-.3-.5-.5-.7-1.3-1.7-2.6-2-5.1-2.6-1.8-.4-4-.8-6.4-.5-1.5.2-3,.6-4.5,1.5"/><path class="cls-1" d="M92.9,292.2c0,0-.3.2-.8.2-2,.3-7.1.4-8.7.8-1.2.3-1.9.8-2.5,1.6-.4.5-.7,1.1-1,1.8-.9,1.7-.7,10.4,1,11.4,1.2.7,14.5.6,18.6.4.4,0,3.1-.4,4.2-1.1,1.1-.8.7-7.7,0-8.9-1.5-2.9-7.6-5.3-10.9-6.1"/><path class="cls-1" d="M35.4,279.1c4.1.7,8.3,1.1,12.5,1.1"/><path class="cls-1" d="M78.3,279c4.1,1,8.5.6,12.5-1,.1,0,.2,0,.3-.1"/></svg>