<?xml version="1.0" encoding="UTF-8"?><svg id="asia" xmlns="http://www.w3.org/2000/svg" width="235" height="321.9" viewBox="0 0 235 321.9"><defs><style>.cls-1{stroke-linecap:round;stroke-linejoin:round;}.cls-1,.cls-2{fill:none;stroke:#000;}.cls-2{stroke-miterlimit:10;}.cls-3,.cls-4,.cls-5,.cls-6,.cls-7,.cls-8,.cls-9,.cls-10{stroke-width:0px;}.cls-4{fill:#f9f9f9;}.cls-5{fill:#1e1e1e;}.cls-6{fill:#c5a479;}.cls-7{fill:#deb796;}.cls-8{fill:#b3cfd2;}.cls-9{fill:#65483a;}.cls-10{fill:#fff;}</style></defs><path class="cls-4" d="M220,197.2c3.2,1.3,3.7,5.8,2,8.9s-5,5.1-8.2,6.8c-9.7,5.2-20.2,8.8-30.6,12.3-1.2.4-2.7.9-3.8.3h0c-.5-.3-.9-.9-1.2-1.4-.6-1.3-.6-1.3-1-2.6,5.4-5.4,8.1-13.2,6.9-20.8v-.7c9.5-.9,21.5-2.2,31.1-3.1,1.7-.1,3.4-.3,4.9.3Z"/><path class="cls-8" d="M96.3,165c4.5,1.4,6.7,2.9,9.8,3.7,0,0,0,0,0,0,1.1.4,2.2.8,3.5,1.3,4.9,1.8,10.4,4.1,12.9,5,9.7,4,9,2.4,21.1,9.8,15.9,5.9,24.5,9.3,40.4,15.1v.7c1.3,7.6-1.4,15.4-6.8,20.8-.3.3-.7.7-1.1,1-21.5-8.9-26.2-10-39.1-21.8-11.4-2.1-14.9-1.2-22.5-1.5h-.4c-1.3-.1-2.6-.2-3.9-.3-12-.9-22-1-35.9-4.4-1-.3-1.9-.5-2.8-.8-1.1-.3-2.1-.6-2.8-.9-5.1-2.6-12-9.7-12-22.7,0-1.1,0-2.3.1-3.5.9-6,6.2-7.4,13.9-6.8,5.7.5,12.7,2,20.2,3.7,2.1.5,3.8.9,5.3,1.4Z"/><path class="cls-4" d="M137.3,302.5c2.1,3.2-.2,7.7-3.7,9.5-3.6,1.8-7.9,1.7-12,1.3-12.4-1.2-21.9-4.3-33.9-7.5-1.4-.4-3-.9-3.7-2.1-.5-.9-.4-2-.3-3,.6-4.2.6-4.2,1.6-7.2,8.1-.3,17.3-3.5,23.2-8.7h0c9.6,5.2,14.8,9,24.3,14.2,1.7.9,3.4,1.9,4.4,3.4Z"/><path class="cls-6" d="M94.5,115.4s0,0,0,0c-2,4.2-4.2,10.4-5.5,18.9v.4c-.4.1-.7.2-.8.2-1.7.4-2.2.5-2.3,1.8-.7.1-1.2.2-1.9.3h0c-.1-3.3-10.6-8.9-13.4-7.5-3.1,1.5-7,13.3-6,15.6,1.1,2.8,11.3,2.5,14.1,1.5,2.7.3,4.7.6,6.9.9h0c0,.9,0,1.7,0,2.6,0,0,0,0,0,0h0c-1.8,2-2.1,2.8-5.5,6.1-1.3,1.3-5.5,1.9-9.3,1.5-1.6-.1-3.2-.5-4.4-1-9-2.2-8.7-18.1-7.4-33.5,1.1-13.4,3-26.4.3-29.8-.7-.8-1.6-.8-2.3-1.6-.7-.7-.1-4-.1-5,.2-14.7,2-25.2,7.7-38.8,1.8-4.4,4.2-8.5,7.1-12.3,9.4-12.1,28.4-21.2,43-11.6,5.9,3.8,8,4.5,11.4,10.6,2.5,4.6,3.9,18.2,1.2,32.6-2.2,11.2-6.7,17.3-12.3,27.2-.9,1.6-2.9,3-5.3,4.6-3.8,2.5-8.6,5.2-11.3,9.3-.3.4-2,2.6-4,6.8ZM86.2,56.4c-1.9,10.2-3.3,23.8,1.1,27.4h.2c4.8,4.1,13,7,15.7,6.6,4.3-.7,10.7-6.5,10.7-6.5,3.5-2.9,5.2-6.7,6.2-10.8h0c2-.1,3.8-1.9,4.4-4.4,1.2-5,2.2-8.6,2.6-10.1l-2.6-1.6c-.3-.2-.5-.3-.8-.4.6-1.5.9-3,1.1-5.1h0c-6-3.2-9.7-12.9-12.9-12.2-3.9.9-22.5,4.4-23.4,7.8-.3,1.1-.7,2.5-1,4.1-.4,1.6-.8,3.4-1.1,5.3Z"/><path class="cls-3" d="M111.5,70c-.4-.7-.7-1.6-.6-2.5.1-1.3.3-2.5.4-3.7.2-1.5.3-2.9.5-4.5.2-1.4.4-2.8.6-4.5l1.4-.3c3.4-.2,6.7.5,9.7,2,.3.1.5.3.8.4l2.6,1.6c-.4,1.5-1.5,5.2-2.6,10.1-.6,2.5-2.5,4.3-4.4,4.3-.2,0-.5,0-.7,0-2.3-.5-3.9-.8-5.9-1.3-.7-.2-1.4-.8-1.9-1.5ZM125.1,60s0,0,0,0h0ZM125,60.1c-3.7-2.2-9.3-3.2-11.4-2.9-.6,4-.8,6.5-1.1,9.6-.1,1.3.5,2.5,1.5,2.8,2,.5,3.7.9,5.9,1.3,1.3.2,2.7-.9,3.1-2.6.8-3.1,1.7-7.4,1.9-8.2Z"/><path class="cls-3" d="M125.1,60s0,0,0,0h0Z"/><path class="cls-7" d="M124.6,51.5h0c-.2,2.1-.5,3.6-1.1,5.1-3-1.5-6.3-2.2-9.7-2l-1.4.3c-.2,1.7-.4,3.1-.6,4.5h-.2c-1.4-.3-2.6-.5-4.6-.9h-.1c.3-1.4.7-2.8,1.1-4.4l-1.2-.6c-5-2.3-10.4-3.2-15.9-2.5h-.8c0,.1,0,.1-.1.1-1.7,0-1.3,0-2.8,0,.4-1.6.7-3,1-4.1.9-3.3,19.6-6.9,23.4-7.8,3.2-.7,6.9,9.1,12.9,12.2Z"/><path class="cls-10" d="M125,60.1c-.2.8-1.1,5.1-1.9,8.2-.4,1.7-1.8,2.8-3.1,2.6-2.2-.4-3.9-.8-5.9-1.3-1-.3-1.7-1.4-1.5-2.8.3-3.1.5-5.6,1.1-9.6,2.1-.3,7.7.7,11.4,2.9ZM119.8,64.1c.3-1.4,0-2.6-.4-2.7s-1.1.9-1.4,2.3,0,2.6.4,2.7c.5,0,1.1-.9,1.4-2.3Z"/><path class="cls-7" d="M111.5,70c.5.8,1.2,1.3,1.9,1.5,2,.5,3.6.9,5.9,1.3.2,0,.5,0,.7,0h0c-.9,4.2-2.6,8.1-6.2,10.9,0,0-6.3,5.8-10.7,6.5-2.7.4-10.8-2.5-15.7-6.6h-.2c-4.5-3.6-3-17.3-1.1-27.4,2.1,0,1.4,0,3.5,0-.2,1.6-.4,3.5-.7,5.5-.4,2.8,1.4,5.5,4.1,6,2.7.5,4.8.8,7.2,1.2,1.7.2,3.9-.9,4.4-2.7s.7-2.6,1.1-3.8h.3c3.3.9,3.3.9,5,1.3h.2c-.1,1.2-.3,2.4-.4,3.7-.1.9.1,1.8.6,2.5ZM96.7,73.6c1.3,10.2,9.8,10.6,13.4,4.3-5.3-.6-8.6-1-13.4-4.3Z"/><path class="cls-3" d="M119.4,61.5c.5,0,.7,1.3.4,2.7s-.9,2.4-1.4,2.3c-.5,0-.7-1.3-.4-2.7s.9-2.4,1.4-2.3Z"/><path class="cls-9" d="M93.4,133.3c0,.3-1.2.7-2.4,1h0c.2-6.4,1.4-12.8,3.5-18.9,0,0,0,0,0,0,2-4.2,3.8-6.3,4-6.8,2.7-4.1,7.5-6.9,11.3-9.3,3.4,2,5.7,5.2,7.2,9.4,2.1,5.7,1.9,13.2,2.5,18.7.4,3.6,1.1,11.6-.6,15.1-1.1,2.2-2.3,2.4-3.3,3.1-3.6,1.4-6.7,2.3-9.4,2.8-4.4.8-8.1.7-12.3.3h0c0-4.4,0-8.8-.3-13.2,0-.7,0-1.5-.1-2.2Z"/><path class="cls-8" d="M85.3,293.5c-.8,0-1.6,0-2.3,0-.3-11.2,4.9-34.1,8.4-44.6,1.2-3.6,2.5-7.7,3.1-11.5.6-3.8.2-6.7-1.5-10.2-1.4-4-11.9-13.4-18.4-26-1.2-2.4-2.3-4.9-3.1-7.5.8.2,1.7.5,2.8.8,13.9,3.4,23.9,3.5,35.9,4.4v.2c3.3,11.8,7.7,16.9,7.2,25.9-1.4,11.3-6.9,49.9-8.5,59.6-.1.1-.2.2-.4.3-5.8,5.2-15.1,8.4-23.2,8.7Z"/><path class="cls-3" d="M111.7,59.3h.2c-.2,1.6-.4,3.1-.5,4.5h-.2c-1.7-.3-1.7-.4-5-1.2h-.3c.4-1.4.8-2.8,1.2-4.3h.1c2,.4,3.2.6,4.6.9Z"/><path class="cls-3" d="M91.6,53.8c-.1.8-.8,5.2-1.2,8.4-.2,1.7.9,3.3,2.5,3.6,2.7.5,4.8.9,7.2,1.2,1.3.2,2.5-.6,2.8-1.9.9-3,1.7-5.4,2.7-9.3-2.5-1.2-8-2.7-14-2ZM89.6,56.4c.3-2.4.4-4.2.4-4.9v-.5h.9c5.5-.8,10.9,0,15.9,2.4l1.2.6c-.4,1.6-.8,3.1-1.1,4.4-.4,1.5-.8,2.8-1.2,4.2-.3,1.2-.7,2.5-1.1,3.8s-2.7,3-4.4,2.7c-2.5-.3-4.5-.6-7.2-1.2-2.7-.5-4.5-3.1-4.1-6,.3-2.1.5-3.9.7-5.5Z"/><path class="cls-9" d="M106.1,168.7c-3.1-.8-5.3-2.2-9.8-3.7-2.6-4.2-4.3-9-5-13.9v-.4c.8,0,1.7.1,2.5.2,0-.7,0-1.5,0-2.2h0c4.2.5,8,.5,12.3-.3h0c0,4.4,2,16,3.4,21.6-1.2-.5-2.4-.9-3.5-1.3,0,0,0,0,0,0Z"/><path class="cls-10" d="M105.6,55.7c-1,3.9-1.8,6.3-2.7,9.3-.4,1.3-1.6,2.1-2.8,1.9-2.4-.3-4.5-.7-7.2-1.2-1.6-.3-2.7-1.9-2.5-3.6.4-3.2,1.1-7.6,1.2-8.4,6-.8,11.5.7,14,2ZM100.3,60.2c.3-1.3,0-2.5-.8-2.7-.7-.1-1.4.8-1.7,2.2s0,2.5.8,2.7c.7.1,1.4-.8,1.7-2.2Z"/><path class="cls-10" d="M110.1,77.9c-3.6,6.3-12.1,5.9-13.4-4.3,4.8,3.3,8.1,3.7,13.4,4.3Z"/><path class="cls-3" d="M99.5,57.6c.7.1,1,1.3.8,2.7s-1,2.3-1.7,2.2c-.7-.1-1-1.3-.8-2.7s1-2.3,1.7-2.2Z"/><path class="cls-9" d="M93.6,135.5c.2,4.4.3,8.8.3,13.2,0,.7,0,1.5,0,2.2-.8,0-1.6-.1-2.4-.2-1.9-.2-3.8-.3-5.7-.5,0,0,0,0,0,0,0-.9,0-1.7,0-2.6,0-3.4,0-6.8.2-10.2,0-.2,0-.5,0-.6.2-1.4.7-1.5,2.3-1.8.1,0,.4,0,.9-.2.5-.1,1.2-.3,1.9-.5,1.2-.3,2.4-.7,2.4-1,0,.7.1,1.5.1,2.2Z"/><path class="cls-5" d="M91.3,151.1c.6,4.9,2.4,9.7,5,13.9-1.5-.5-3.2-.9-5.3-1.4-7.5-1.6-14.5-3.2-20.2-3.7l.2-2c3.8.4,8-.2,9.3-1.5,3.4-3.3,3.7-4.1,5.5-6h0c1.9,0,3.8.2,5.7.3v.4Z"/><path class="cls-5" d="M94.5,115.5c-2.1,6.1-3.3,12.4-3.5,18.8h0c-.7.2-1.4.4-1.9.5v-.4c1.2-8.5,3.4-14.7,5.4-18.9Z"/><path class="cls-3" d="M90.1,51.1v.5c0,.7-.2,2.5-.5,4.9-2,0-1.4,0-3.5,0,.4-1.9.7-3.7,1.1-5.3,1.5,0,1.1-.1,2.8,0Z"/><path class="cls-7" d="M84,137.2c.7-.1,1.1-.2,1.9-.3,0,.2,0,.4,0,.6-.2,3.4-.2,6.8-.2,10.2h0c-2.2-.3-4.2-.6-6.9-.9-2.8,1-13,1.3-14.1-1.5-.9-2.4,2.9-14.1,6-15.6,2.9-1.4,13.3,4.2,13.4,7.4h0Z"/><path class="cls-9" d="M74.6,201.3c-3.7,2.2-21.4-3.4-25.7-3.7,1.1-13.9,3-31.4,6.5-45.7-.7,6.5-.6,11.6,1.3,18.3,0,13,6.9,20.1,12,22.7.7.3,1.6.6,2.8.9.8,2.6,1.9,5.1,3.1,7.5Z"/><path class="cls-5" d="M70.9,157.9l-.2,2c-7.7-.6-13,.7-13.9,6.8-.1,1.2-.1,2.3-.1,3.5-1.9-6.7-2-11.9-1.3-18.3.6-5.3,1.7-11.6,2.7-20.4.3-2.5.6-5.1.8-8h.1c-1.3,15.4-1.6,31.3,7.4,33.5,1.3.5,2.8.9,4.4,1Z"/><path class="cls-9" d="M58.9,123.5c-.3,2.9-.5,5.6-.8,8h-.3c0-5.1.3-8.7.1-12.7h-1.5c-.3.3-.6.6-1,.8-4,2.9-12.2,8-17.1,11.9-2.6,4.6-4.4,7.4-6.5,10.6h0c-.2,0-.5-.2-.8-.3-3.3-1.4-6.9-1.5-10.4-1,1.8-5.5,4.3-10.4,8.7-16.7,3.5-4.9,10.3-14,13.8-17.5,2.4-3,7.7-10.8,14-14.6.7.8,1.7.8,2.3,1.6,2.7,3.4.8,16.4-.3,29.8h-.1Z"/><path class="cls-9" d="M57.8,131.4h.3c-1,8.8-2.1,15.1-2.7,20.4-3.5,14.3-5.4,31.8-6.5,45.7-2.8-23.4-.9-55.5,6.5-77.9h0c.4-.3.7-.5,1-.8h1.5c.2,3.8,0,7.5-.1,12.5Z"/><path class="cls-9" d="M20.6,140.9c3.5-.5,7.1-.4,10.4,1,.3.1.5.2.8.4.4.2.7.5.9.8.5.8.5,1.9.3,2.8-.2,1.3-.4,2.8-1.5,3.5-.7.5-1.6.6-2.5.6-.7,0-1.3,0-2,0-2.8,0-5.5-.3-8.2-.9-.2,0-.4,0-.7-.1-.6-.1-1.2-.3-1.5-.8-.3-.4-.3-1-.2-1.6.3-2.9.9-5.4,3.9-5.8,0,0,.1,0,.2,0Z"/><path class="cls-7" d="M25.9,152.4h.1c2.6.7,5,10.2,3.3,12.3-1.8,2.2-12.2,3.2-13.9,2-2.1-1.4.2-9.6,1.6-11.7.5-2.4,1.4-3.7,1.9-5.8h0c2.7.6,5.5.9,8.2.9-.5.9-.8,1.4-1.2,2.3Z"/><path class="cls-1" d="M18.9,149.2c-.5,2-1.3,3.4-1.9,5.8"/><path class="cls-1" d="M43.1,106.7c-3.5,3.6-10.3,12.6-13.8,17.5-4.4,6.3-6.8,11.2-8.7,16.7,0,0,0,0,0,0"/><path class="cls-1" d="M27.1,150.1c-.5.9-.8,1.4-1.2,2.3,0,.2-.2.4-.3.6"/><path class="cls-1" d="M56.4,118.9c-.3.2-.6.5-1,.7-4,2.9-12.2,8-17.1,11.9-2.6,4.6-4.4,7.4-6.5,10.6"/><path class="cls-1" d="M26,152.4c2.6.7,5,10.2,3.3,12.2-1.8,2.2-12.2,3.2-13.9,2-2.1-1.4.2-9.6,1.6-11.7"/><path class="cls-1" d="M119.6,127.4c-.6-5.5-.4-13-2.5-18.7-1.5-4.1-3.8-7.4-7.2-9.4,0,0-.1,0-.2-.1"/><path class="cls-1" d="M85.6,147.6c-2.2-.3-4.2-.6-6.9-.9"/><path class="cls-1" d="M115.6,145.6c-3.6,1.4-6.7,2.3-9.4,2.8-4.4.8-8.1.7-12.3.3"/><path class="cls-1" d="M85.9,136.9c-.7.1-1.2.2-1.9.3-.2,0-.5,0-.7.1"/><path class="cls-1" d="M109.4,133c-.7.2-1.4.4-2.1.5-6.1,1.5-9.8,1.6-13.8,2"/><path class="cls-1" d="M84,137.1c-.1-3.2-10.6-8.7-13.4-7.4-3.1,1.5-7,13.3-6,15.6,1.1,2.8,11.3,2.5,14.1,1.5"/><path class="cls-1" d="M119.6,127.4c.4,3.6,1.1,11.6-.6,15.1-1.1,2.2-2.3,2.4-3.3,3.1"/><path class="cls-1" d="M59,122.6c0,.3,0,.6,0,.9-.3,2.9-.5,5.6-.8,8-1,8.8-2.1,15-2.7,20.4-.7,6.5-.6,11.6,1.3,18.3"/><path class="cls-1" d="M106.2,148.5c0,4.4,2,16,3.4,21.6"/><path class="cls-1" d="M56.7,110.5c.7,3.1,1.1,5.8,1.2,8.3.2,3.9,0,7.6-.1,12.6"/><path class="cls-1" d="M106.1,168.7c-1.2-.5-2.3-.8-3.2-1.1"/><path class="cls-1" d="M122.4,175.1c-2.4-1-8-3.2-12.9-5-1.2-.5-2.4-.9-3.5-1.3"/><path class="cls-1" d="M74.2,194.5c13.9,3.4,23.9,3.5,35.9,4.4,1.3.1,2.6.2,3.9.3"/><path class="cls-1" d="M68.7,192.8c.7.3,1.6.6,2.8.9.8.2,1.7.5,2.8.8"/><path class="cls-1" d="M117.4,225c.5-9.1-3.9-14.1-7.2-25.9"/><path class="cls-1" d="M71.5,193.8c.8,2.6,1.9,5.1,3.1,7.5,6.5,12.6,17,22,18.4,26"/><path class="cls-1" d="M117.4,225c-1.4,11.3-6.9,49.9-8.5,59.6"/><path class="cls-1" d="M93,227.3c1.7,3.5,2.1,6.4,1.5,10.2-.5,3.7-1.9,7.9-3.1,11.5-3.6,10.5-8.7,33.4-8.4,44.6.8,0,1.5,0,2.3,0,8.1-.3,17.3-3.5,23.2-8.7.1-.1.2-.2.4-.3"/><path class="cls-1" d="M56.8,166.7c-.1,1.2-.1,2.3-.1,3.5,0,13,6.9,20.1,12,22.7"/><path class="cls-1" d="M122.4,175.1c9.7,4,9,2.4,21.1,9.8"/><path class="cls-1" d="M114.4,199.3c7.7.3,11.2-.7,22.5,1.5"/><path class="cls-1" d="M114,199.3h.4"/><path class="cls-1" d="M137,200.8c12.9,11.8,17.6,12.9,39.1,21.8.4-.3.7-.7,1.1-1,5.4-5.4,8.1-13.2,6.9-20.8"/><path class="cls-1" d="M184,200c-15.9-5.9-24.5-9.3-40.4-15.1"/><path class="cls-1" d="M179.4,225.5c1.1.6,2.5.1,3.8-.3,10.4-3.6,20.8-7.2,30.6-12.3,3.2-1.7,6.5-3.7,8.2-6.8s1.2-7.5-2-8.9c-1.5-.6-3.2-.5-4.9-.3-9.6.9-21.5,2.2-31.1,3.1"/><path class="cls-1" d="M177.1,221.5s0,0,0,0c.5,1.3.4,1.3,1,2.6.3.6.7,1.1,1.2,1.5.2.2.5.3.7.5"/><path class="cls-1" d="M108,169.1c-.7-.1-1.3-.2-1.9-.4,0,0,0,0,0,0-3.1-.8-5.3-2.2-9.8-3.7-1.5-.5-3.2-.9-5.3-1.4-7.5-1.6-14.5-3.2-20.2-3.7-7.7-.6-13,.7-13.9,6.8"/><path class="cls-2" d="M105,115.4c.1.9,2,15.7,2.3,18.1,0,.1,0,.2,0,.3"/><path class="cls-1" d="M120,73.1c-.9,4.1-2.6,8-6.2,10.8,0,0-6.3,5.8-10.7,6.5-2.7.4-10.8-2.5-15.7-6.6"/><path class="cls-1" d="M124.8,49.3c0,.8,0,1.5-.2,2.2-.2,2.1-.5,3.6-1.1,5.1,0,0,0,0,0,0"/><path class="cls-1" d="M94.5,115.4c2-4.2,3.8-6.3,4-6.8,2.7-4.1,7.5-6.9,11.3-9.3,2.4-1.6,4.4-3,5.3-4.6,5.6-9.9,10.2-16,12.3-27.2,2.8-14.4,1.3-28-1.2-32.6-3.4-6.1-5.6-6.8-11.4-10.6-14.6-9.5-33.7-.4-43,11.6-2.9,3.7-5.3,7.9-7.1,12.3-5.7,13.6-7.5,24.1-7.7,38.8,0,1-.6,4.2.1,5,.7.8,1.7.8,2.3,1.6,2.7,3.4.8,16.4-.3,29.8-1.3,15.4-1.6,31.3,7.4,33.5,1.3.5,2.8.9,4.4,1,3.8.4,8-.2,9.3-1.5,3.4-3.3,3.7-4.1,5.5-6"/><path class="cls-1" d="M89,134.4c1.2-8.5,3.5-14.7,5.5-18.9"/><path class="cls-1" d="M57.1,92.1c-6.4,3.8-11.6,11.6-14,14.6"/><path class="cls-1" d="M86.2,56.4c-1.9,10.2-3.3,23.8,1.1,27.4"/><path class="cls-1" d="M124.6,51.5c-6-3.2-9.7-12.9-12.9-12.2-3.9.9-22.5,4.4-23.4,7.8-.3,1.1-.7,2.5-1,4.1-.4,1.6-.8,3.4-1.1,5.3"/><path class="cls-1" d="M93.4,133.3c0,.3-1.2.7-2.4,1-.7.2-1.4.4-1.9.5-.4.1-.7.2-.9.2-1.7.4-2.2.5-2.3,1.8,0,.2,0,.4,0,.6-.2,3.4-.2,6.8-.2,10.2,0,.9,0,1.7,0,2.6,0,0,0,0,0,0,1.9.2,3.8.3,5.7.5.8,0,1.6.1,2.4.2,0-.7,0-1.5,0-2.2,0-4.4,0-8.8-.3-13.2,0-.7,0-1.5-.1-2.2h0"/><path class="cls-1" d="M20.6,140.9c0,0-.1,0-.2,0-3,.5-3.7,2.9-3.9,5.8,0,.5,0,1.1.2,1.6.3.5.9.6,1.5.8.2,0,.4.1.7.1,2.7.6,5.5.9,8.2.9.7,0,1.3,0,2,0,.9,0,1.8-.1,2.5-.6,1.1-.8,1.3-2.2,1.5-3.5.1-1,.2-2-.3-2.8-.2-.3-.6-.6-.9-.8-.2-.1-.5-.3-.8-.4-3.3-1.4-6.9-1.5-10.4-1Z"/><path class="cls-1" d="M55.4,119.7c-7.4,22.4-9.3,54.5-6.5,77.9,4.3.3,22,5.9,25.7,3.7"/><path class="cls-1" d="M94.6,115c0,.1-.1.3-.1.4,0,0,0,0,0,0-2.1,6.1-3.3,12.4-3.5,18.8"/><path class="cls-1" d="M91.3,151.1c.6,4.9,2.4,9.7,5,13.9,0,0,.1.2.2.3"/><path class="cls-1" d="M85.5,293.2c0,.1,0,.2-.1.4-1.1,3-1,3-1.6,7.2-.1,1-.2,2.1.3,3,.7,1.2,2.3,1.7,3.7,2.1,12,3.1,21.5,6.2,33.9,7.5,4.1.4,8.4.6,12-1.3,3.6-1.8,5.9-6.3,3.7-9.5-1-1.5-2.7-2.5-4.4-3.4-9.6-5.2-14.8-9-24.3-14.2"/><path class="cls-1" d="M55.4,151.8c-3.5,14.3-5.4,31.8-6.5,45.7"/><path class="cls-1" d="M111.4,69.6c0,.1,0,.3,0,.5.3,2.4.2,5.6-8,1.8"/><path class="cls-1" d="M110.1,77.9c-5.3-.6-8.6-1-13.4-4.3"/><path class="cls-1" d="M110.1,77.9c-3.6,6.3-12.1,5.9-13.4-4.3"/><path class="cls-1" d="M118,63.8c-.3,1.4,0,2.6.4,2.7.5,0,1.1-.9,1.4-2.3s0-2.6-.4-2.7-1.1.9-1.4,2.3Z"/><line class="cls-1" x1="110.7" y1="59.2" x2="110.5" y2="59.2"/><line class="cls-1" x1="110.2" y1="63.7" x2="109.9" y2="63.7"/><path class="cls-1" d="M125,60.1c-.2.8-1.1,5.1-1.9,8.2-.4,1.7-1.8,2.8-3.1,2.6-2.2-.4-3.9-.8-5.9-1.3-1-.3-1.7-1.4-1.5-2.8.3-3.1.5-5.6,1.1-9.6,2.1-.3,7.7.7,11.4,2.9Z"/><path class="cls-1" d="M125.1,60s0,0,0,0h0Z"/><path class="cls-1" d="M125.1,60s0,0,0,0h0s0,0,0,0"/><path class="cls-1" d="M127,58.6c-.4,1.5-1.5,5.2-2.6,10.1-.6,2.5-2.5,4.3-4.4,4.3-.2,0-.5,0-.7,0-2.3-.5-3.9-.8-5.9-1.3-.7-.2-1.4-.8-1.9-1.5-.4-.7-.7-1.6-.6-2.5.1-1.3.3-2.5.4-3.7.2-1.5.3-2.9.5-4.5.2-1.4.4-2.8.6-4.5"/><path class="cls-1" d="M111.7,59.3c-1.4-.3-2.6-.5-4.6-.9"/><path class="cls-1" d="M111.1,63.8c-1.7-.3-1.7-.3-5-1.2"/><path class="cls-1" d="M127,58.6l-2.6-1.6c-.3-.2-.5-.3-.8-.4-3-1.5-6.3-2.2-9.7-2l-1.4.3"/><path class="cls-1" d="M100.3,60.2c-.3,1.3-1,2.3-1.7,2.2-.7-.1-1-1.3-.8-2.7s1-2.3,1.7-2.2c.7.1,1,1.3.8,2.7Z"/><path class="cls-1" d="M91.6,53.8c-.1.8-.8,5.2-1.2,8.4-.2,1.7.9,3.3,2.5,3.6,2.7.5,4.8.9,7.2,1.2,1.3.2,2.5-.6,2.8-1.9.9-3,1.7-5.4,2.7-9.3-2.5-1.2-8-2.7-14-2Z"/><path class="cls-1" d="M91.6,53.8s0,0,0,0h0s0,0,0,0"/><path class="cls-1" d="M90.1,51.6c0,.7-.2,2.5-.4,4.9-.2,1.6-.4,3.5-.7,5.5-.4,2.8,1.4,5.5,4.1,6,2.7.5,4.8.8,7.2,1.2,1.7.2,3.9-.9,4.4-2.7s.7-2.6,1.1-3.8c.4-1.3.8-2.7,1.2-4.2.3-1.3.7-2.7,1.1-4.4"/><path class="cls-1" d="M86.9,51.1c.1,0,.3,0,.4,0,1.5,0,1.1-.1,2.8,0h.9c5.5-.8,10.9,0,15.9,2.4l1.2.6"/><path class="cls-1" d="M86.1,56.4h.1c2.1,0,1.4,0,3.5,0,0,0,.1,0,.2,0"/><path class="cls-1" d="M102.9,97.7c-3.4,1.2-6.1,2.6-8.7,4.4-5.6,4.1-12.9,5.2-19.4,2.9-2.5-.9-5-2.1-7.1-3.7"/><path class="cls-1" d="M66.8,122.3c3.3,3,7.9,4.6,12.4,4.1"/></svg>