<?xml version="1.0" encoding="UTF-8"?><svg id="asia" xmlns="http://www.w3.org/2000/svg" width="235" height="321.9" viewBox="0 0 235 321.9"><defs><style>.cls-1{stroke-linecap:round;stroke-linejoin:round;}.cls-1,.cls-2{fill:none;stroke:#000;}.cls-2{stroke-miterlimit:10;}.cls-3,.cls-4,.cls-5,.cls-6,.cls-7,.cls-8,.cls-9,.cls-10{stroke-width:0px;}.cls-4{fill:#4b392d;}.cls-5{fill:#38596c;}.cls-6{fill:#c4998a;}.cls-7{fill:#cbb0a1;}.cls-8{fill:#8cb3c4;}.cls-9{fill:#7ca5bb;}.cls-10{fill:#fff;}</style></defs><path class="cls-10" d="M83,77.5c-.3,7.3,11.2,10.6,13.9,4.2-4.6-.5-9.4-1.8-13.7-4.6l-.2.3Z"/><path class="cls-6" d="M17.4,161.5l.3-.7c1.4-2.9,1.9-6.1,2.8-8.6h0c-4.2-1.1-8.2-1.6-12.5-.7h-.2c-.9,3.5-1.8,7.3-2.8,11.8-1.6,2.5-4.4,12.3-1.9,14,2.1,1.4,14.4.3,16.5-2.4,2-2.4.6-12.3-2.3-13.5Z"/><path class="cls-8" d="M7.8,151.5h.2c4.3-.9,8.3-.3,12.5.7.7.2,1.4.3,2.2.5,1.1-2.9,2-5.8,3.4-9h0c-4.3-3-10-3.7-15-2-1.3,3.1-2.3,6.3-3.2,9.8Z"/><path class="cls-9" d="M50.9,135.5c.4,5.1,1.1,12.2.9,16.3-.1,2.2-1.5,24.1-1.8,25.9.5,10.5,1.1,12.6,7.1,18.2,7.7,7.2,20.9,26.3,30.6,37.1h0c.3-2.2,1.2-4.2,2.5-6,1.8-2.3,4.2-4.3,6.7-5.9,4.6-2.9,9.9-5.1,13.4-9.3,0,0,0,0,.1-.2.6-.7,1.1-1.4,1.5-2.2,2.4-3.9,3.6-8.6,5.4-13,2.1-5,5-9.6,10.3-10.3-6.3-2.7-14.3-6-22.9-8.6-8-2.5-16.4-4.4-24.5-4.8h0c-3.5-.3-6.9-2.1-9.7-4.3-1.7,0-3-.2-3.5-.9-1.5-1.9-1.3-12.4.5-16.9h-.2c-1.2-10.3,1.4-35.3,5.1-47.2v-.5c-.2-.1-.6-.2-.9-.1-2.2.2-4.3,3.2-6.5,3.1h0c-1.2,2-2.8,3.9-4.1,5.9-1.9,3.1-3.1,7.3-1,10.2l-.5.5c-3.9-2.2-6.3-7-5.8-11.5.3-2.1,1.1-4,1.5-6.1,1.1-4.8-2.3-8.4-1.5-12.9v-.2c-3.9.9-6.1,1.8-9.3,4.7-3.7,3.3-6.7,7-9.9,10.7-4.4,5-11.2,14-14.9,19.3-3.9,5.7-6.6,10.4-8.5,15.2,4.9-1.7,10.7-1,15,2h0c.9-2,2-4.2,3.4-6.8.6-1.1,1.5-2.1,2.5-2.9,6-4.5,12.6-13.2,16.3-16.2h.6c0,4.9.6,10.6,1.9,17.7h0Z"/><path class="cls-4" d="M67.7,96.3c.2-.5.4-1,.6-1.5,1-1.7,2.7-2.9,4.1-4.3,1.2-1.2,2.8-3.1,2.7-4.8,0-.2,0-.4-.1-.7h0c-4.2-5.4-6.7-15.5-2.5-29.7,2.2-7.4,10.7-10.7,17.8-14,8.8,3.6,17,9.3,19.3,18.3v.4c-1,3.2-1.6,4.8-2,6.1-.6,2-1.2,15.5-8.5,21.6,0,0-4.4,3.8-8,4.7h0s0,0,0,0c.5.2,1.1.3,1.6.5,1,.3,2,.7,3.1,1.1,4.1,1.5,8.4,3.5,11.7,5.4,0,0,.1.2.2.3l.6-.4c0-.5.1-.9.3-1.4.7-1.9,2.5-3.2,3.4-5,1.5-3-1-8.5-.6-11.6.4-3.2,3.5-6.3,3.8-9.4.3-3.8-1-6.1-1.7-9.8-1.1-6.1.9-8.5-.2-14.5-1.1-5.8-4.8-11.4-10.2-13.8-4.8-2.1-11.3-4.5-16.5-3.9-1.2.1-2.3,0-3.4-.4-2.7-.8-6.7-1-8.8-.3-2.5.9-8.7,4.5-9.9,6.9-1.6,3.1-1.6,5.6-3.3,8-1.4,2-3.4,3.5-4.7,5.5-3,4.5-2.5,6.5-2,11,.3,2.7,1.9,5.8,1.3,8.5-.7,2.8-1.9,4.4-1.4,7.6.4,2.4,1.2,4.8,1.1,7.2-.1,2.6-1.2,5-1.7,7.5v.2c-.8,4.6,2.6,8.1,1.5,12.9-.5,2-1.3,4-1.5,6.1-.6,4.5,1.8,9.2,5.8,11.5l.5-.5c-2.1-3-.9-7.2,1-10.2,1.3-2,2.9-3.9,4.1-5.9.7-1.1,1.2-2.2,1.5-3.4.5-2,.5-4.2,1.1-6.2Z"/><path class="cls-8" d="M65.1,106h0c2.2.1,4.3-2.8,6.5-3.1.4,0,.8,0,1.1.1,0,0,0,0,0,0v-.2c-1.2-.5-2.4-1.2-3.4-2.2-1.4-1.4-1.8-2.6-1.7-4.3-.6,2-.5,4.2-1.1,6.2-.3,1.2-.9,2.4-1.5,3.4Z"/><path class="cls-6" d="M70.6,168.6c4.4-.1,11.3-2.5,13.2-3.9l.3.3c4.4-1.6,8-2.7,11.2-4.1h.2c-.8-4.2-1.4-8.5-.3-12.5h0c-2.9,1.1-5.8,2.3-9.8,4.4-1.1-3.4-14-6.1-16.7-3.7-.4.4-.8.9-1.1,1.7-1.9,4.5-2,15-.5,16.9.6.7,1.9,1,3.5.9Z"/><path class="cls-9" d="M107.7,142.6c-1.5.8-2.8,1.5-4.1,2.1l.2.5c-2,4.5-1.1,10.1,2.1,13.9l.2.4c4.9-2.8,9.6-6.1,16.1-11,3-4.1-2.6-16.9-6.3-24.4-2.8-5.6-5.7-20.4-8.2-24.2,0-.1-.1-.2-.2-.3-3.4-1.9-7.7-3.9-11.7-5.4l-.2.5c-1.4,6.1-5.2,11.7-10.4,15.1-2,1.3-4.8,2.4-6.9,1-1.5-1-2.1-3-2.8-4.6-.6-1.3-1.5-2.7-2.8-3.1,0,0,0,0,0,0v.5c-3.9,11.9-6.5,36.9-5.3,47.1h.2c.3-.7.7-1.2,1.1-1.6,2.6-2.4,15.6.3,16.7,3.7,4-2.1,6.9-3.3,9.8-4.4.8-.3,1.5-.6,2.3-.9,0-6,.9-9,1.7-13.5.8-4.7,1-3.6,1.6-7.8.9,1.7,1.6,3.3,6.9,16.5Z"/><path class="cls-6" d="M67.7,96.3c-.1,1.7.4,2.9,1.7,4.3,1,1,2.2,1.7,3.5,2.2,2,.8,4.4,1,6.6,1,2.9,0,5.9-.7,8.5-2.2,2.5-1.5,4.5-5.4,4.8-8.3v-.2c-.5-.2-1-.4-1.5-.5h0c-.1,0-.3,0-.4,0-2.3.4-11-3.3-15.1-6.9h-.5c0,1.8-1.5,3.6-2.7,4.8-1.4,1.4-3.1,2.6-4.1,4.3-.3.5-.5,1-.6,1.5Z"/><path class="cls-6" d="M75.1,85h0c0,.2,0,.5.1.7h.5c4.1,3.6,12.9,7.2,15.1,6.9.1,0,.3,0,.4,0h0c3.6-.8,8-4.7,8-4.7,7.2-6.1,7.9-19.6,8.5-21.6.4-1.3,1-2.9,2-6.1v-.4c-2.3-9.1-10.5-14.7-19.3-18.3-7,3.3-15.5,6.6-17.8,14-4.2,14.2-1.7,24.3,2.5,29.6ZM83.2,77.2c4.3,2.8,9.1,4,13.7,4.6-2.7,6.3-14.2,3.1-13.9-4.2l.2-.3ZM83.9,65.7c-.9-.2-1.4-1.6-1-3.2.3-1.5,1.3-2.6,2.2-2.4.9.2,1.3,1.6,1,3.2-.3,1.6-1.3,2.7-2.2,2.5ZM102.3,70c-.9-.2-1.3-1.6-.9-3.3.4-1.6,1.3-2.8,2.2-2.6.9.2,1.3,1.6.9,3.3-.4,1.6-1.3,2.8-2.2,2.6Z"/><path class="cls-8" d="M72.9,102.8v.2c1.2.5,2.1,1.8,2.7,3.1.7,1.7,1.3,3.6,2.8,4.6,2.1,1.3,4.8.3,6.9-1,5.2-3.5,9.1-9,10.4-15.1l.2-.5c-1-.4-2.1-.8-3.1-1.1v.2c-.4,2.9-2.4,6.8-4.9,8.3-2.5,1.5-5.5,2.1-8.5,2.2-2.2,0-4.5-.2-6.6-1Z"/><path class="cls-9" d="M96.2,164.4c-.2-1.2-.5-2.4-.7-3.6h-.2c-3.2,1.4-6.8,2.6-11.2,4.1l-.3-.3c-2,1.4-8.8,3.7-13.2,3.9,2.8,2.1,6.2,3.9,9.7,4.3h0c8,.4,16.5,2.3,24.5,4.7-1.7-4.5-4.6-10.7-6.3-14.3-.8.3-1.6.7-2.4,1Z"/><path class="cls-3" d="M82.9,62.5c-.3,1.6.1,3,1,3.2.9.2,1.9-.9,2.2-2.5.3-1.5-.1-3-1-3.2-.9-.2-1.9.9-2.2,2.4Z"/><path class="cls-5" d="M90.2,227.1h0c3.5,9.7,5.8,18.1,5.7,23-.2,4-3.5,36.3-3.6,40,.4.8,1.7,1.7,3.4,2.4,2.7,1.2,6.3,1.9,7.6,1.1,1.2-.8,1.9-2.1,2.4-3.4.5-1.3,1-2.7,2.1-3.6,1-1,1.5-.8,3.1-.2h0s0,0,0,0h0c.3.2.6.3.9.5l.2-.5c1.6-16.8,1.9-10.6,4.6-26.1.6-4.8,1.6-9.4,1.6-24.5,0-6.4-5.1-19.4-7.8-24,0,0,0,.1-.1.2-3.5,4.2-8.8,6.4-13.4,9.3-2.5,1.6-5,3.6-6.7,5.9Z"/><path class="cls-7" d="M93.6,301.8c0,.8,0,1.7.4,2.5.6,1,1.9,1.3,3.1,1.5,9.7,2,20,6.9,29.9,7.3,3.2.1,6.7,0,9.4-1.7,2.7-1.7,4.3-5.5,2.4-8.1-.9-1.2-2.3-1.9-3.7-2.6-7.5-3.6-15.6-10-23.2-13.9-.3-.2-.6-.3-.9-.5h0c0,0,0,0,0,0-1.6-.6-2.1-.7-3.1.2-1,.9-1.5,2.3-2.1,3.6-.5,1.3-1.2,2.6-2.4,3.4-1.3.8-4.9.1-7.6-1.1h0c-1.1,3.5-1.8,5.7-2,9.4Z"/><path class="cls-8" d="M97.4,147.4c-.8.3-1.5.6-2.3.9h0c-1.1,4.1-.5,8.3.3,12.5.2,1.2.5,2.4.7,3.6.8-.4,1.6-.7,2.4-1,2.7-1.2,5.2-2.4,7.6-3.8l-.2-.4c-3.2-3.8-4-9.4-2.1-13.9l-.2-.5c-2.3,1.1-4.3,1.9-6.2,2.7Z"/><path class="cls-3" d="M101.4,66.7c-.4,1.6,0,3.1.9,3.3.9.2,1.9-1,2.2-2.6.4-1.6,0-3.1-.9-3.3-.9-.2-1.8,1-2.2,2.6Z"/><path class="cls-5" d="M161.9,203.3h0c-9.4-4.7-13.9-9.2-22.4-12-2-.7-6.2-2.6-11.8-5-5.3.7-8.2,5.3-10.3,10.3-1.8,4.3-3,9-5.4,13h.2c4.7.5,15.7,1.4,21.1,4.2,16.2,8.2,22.9,9,37.4,13.5h1.6c.4-.2.9-.5,1.4-.9,3.7-3,9.9-10.7,9.4-11.7-.7-1.4-1.1-2.3-1.2-3.8-7.5-2.8-14.3-5.2-20.1-7.3Z"/><path class="cls-7" d="M173.8,226.2h0c.8,4,.8,4.4,2.5,8,.4.8.4,1,1.2,1.4,1.1.6,2.5.1,3.7-.3,10.1-3.5,20.3-7,29.8-12,3.1-1.6,6.3-3.6,8-6.6s1.1-7.3-1.9-8.6c-1.5-.6-3.1-.5-4.8-.3-9.4.8-21,2.2-30.4,3,0,1.5.5,2.5,1.2,3.8.5,1.1-5.6,8.7-9.4,11.7Z"/><path class="cls-2" d="M100.9,125.7c0,.2,0,.3,0,.4-.6,4.2-.8,3.1-1.6,7.8-.8,4.6-1.8,7.5-1.7,13.5h0"/><path class="cls-2" d="M50.8,134.7c0,.3,0,.5,0,.8.4,5.1,1.1,12.2.9,16.3-.1,2.2-1.5,24.1-1.8,25.9"/><path class="cls-2" d="M50.8,135.5c-1.3-7.1-1.8-12.8-1.9-17.7,0-5.1.5-9.3,1.3-13.1"/><path class="cls-2" d="M161.9,203.2c-9.4-4.6-13.9-9.1-22.4-11.9-2-.7-6.2-2.6-11.8-5-6.3-2.7-14.3-6-22.9-8.6-8-2.5-16.4-4.4-24.5-4.8"/><path class="cls-2" d="M112.2,209.6c4.7.4,15.7,1.3,21.1,4,16.2,8.2,22.9,9,37.4,13.5"/><path class="cls-2" d="M98.6,163.3c1.7,3.6,4.6,9.8,6.3,14.3.1.3.3.7.4,1"/><path class="cls-1" d="M54,91.8c0,0-.1,0-.2,0-3.9.9-6.1,1.8-9.4,4.7-3.7,3.3-6.7,7-9.9,10.7-4.4,5-11.2,14-14.9,19.3-3.9,5.7-6.6,10.4-8.5,15.2-1.3,3.1-2.3,6.3-3.2,9.8-.9,3.5-1.8,7.4-2.8,11.8"/><path class="cls-1" d="M107.7,99.7s0,0-.1,0c-3.4-1.9-7.7-3.9-11.7-5.4-1-.4-2.1-.8-3.1-1.1-.5-.2-1.1-.4-1.6-.5"/><path class="cls-1" d="M20.5,152.3c-.9,2.4-1.4,5.6-2.8,8.6"/><path class="cls-1" d="M48.3,117.9c-3.7,3-10.3,11.6-16.3,16.2-1,.8-1.9,1.8-2.5,2.9-1.4,2.5-2.5,4.7-3.4,6.8-1.4,3.3-2.4,6.1-3.4,9,0,.1,0,.2-.1.3"/><path class="cls-1" d="M17.2,161.5c0,0,.1,0,.2,0,2.9,1.2,4.3,11,2.3,13.5-2.2,2.7-14.5,3.8-16.5,2.4-2.4-1.7.3-11.5,1.9-14"/><path class="cls-1" d="M95.3,160.8c-3.2,1.3-6.8,2.5-11.2,4.1"/><path class="cls-1" d="M122.2,148.5c-6.4,4.9-11.2,8.3-16.1,11-2.4,1.4-4.9,2.6-7.6,3.8-.8.3-1.6.7-2.4,1,0,0-.1,0-.2,0"/><path class="cls-1" d="M111.3,140.5c-1.3.8-2.5,1.5-3.6,2.1-1.5.8-2.8,1.5-4.1,2.1-2.3,1.1-4.3,1.9-6.2,2.7-.8.3-1.5.6-2.3.9-2.9,1.1-5.8,2.3-9.8,4.4"/><path class="cls-1" d="M85.4,152.7c-1.1-3.4-14-6.1-16.7-3.7-.4.4-.8.9-1.1,1.7-1.9,4.5-2,15-.5,16.9.6.7,1.9,1,3.5.9,4.4-.1,11.3-2.5,13.2-3.9"/><path class="cls-1" d="M107.6,99.6h0c0,.1.1.2.2.3,2.4,3.7,5.4,18.5,8.2,24.2,3.7,7.4,9.2,20.3,6.3,24.4"/><path class="cls-1" d="M97.5,119c2,4.8,2.7,6,3.3,7.2.9,1.7,1.6,3.3,6.9,16.5"/><path class="cls-2" d="M50,177.7c.5,10.5,1.1,12.6,7.1,18.2,7.7,7.2,20.9,26.3,30.6,37.1"/><path class="cls-1" d="M72.6,103.5c-3.7,11.9-6.4,36.9-5.1,47.1"/><path class="cls-1" d="M8,151.6c4.3-.9,8.3-.3,12.5.7.7.2,1.4.3,2.2.5h0"/><path class="cls-1" d="M95.2,148.3c-1.1,4-.5,8.3.3,12.5.2,1.2.5,2.4.7,3.6"/><path class="cls-1" d="M182,210.6c-7.5-2.8-14.3-5.2-20.1-7.3,0,0,0,0,0,0"/><path class="cls-1" d="M171.3,227.4c.2,0,.6,0,1-.2.4-.2.9-.6,1.4-1,3.7-3,9.9-10.7,9.4-11.7-.7-1.4-1.1-2.3-1.2-3.8"/><path class="cls-1" d="M177.6,235.6c1.1.6,2.5.1,3.7-.3,10.1-3.5,20.3-7,29.8-12,3.1-1.6,6.3-3.6,8-6.6s1.1-7.3-1.9-8.6c-1.5-.6-3.1-.5-4.8-.3-9.4.8-21,2.2-30.4,3"/><path class="cls-1" d="M173.8,226.3c.8,3.9.8,4.3,2.5,7.9.4.8.4,1,1.2,1.4"/><path class="cls-1" d="M90.2,227.1c3.5,9.6,5.8,18.1,5.7,22.9-.2,4-3.5,36.3-3.6,40"/><path class="cls-1" d="M110.4,211.5c0,0,0,.1.1.2,2.7,4.7,7.8,17.6,7.8,24,0,15.1-1,19.7-1.6,24.5"/><path class="cls-1" d="M116.7,260.2c-2.7,15.5-3,9.3-4.6,26.1"/><line class="cls-1" x1="110.9" y1="286.3" x2="110.9" y2="286.3"/><path class="cls-1" d="M92.3,290c.4.8,1.7,1.7,3.4,2.4,2.7,1.2,6.3,1.9,7.6,1.1,1.2-.8,1.9-2.1,2.4-3.4.5-1.3,1-2.7,2.1-3.6,1-1,1.5-.8,3.1-.2"/><path class="cls-1" d="M95.6,292.4c-1.1,3.5-1.8,5.7-2,9.3,0,.8,0,1.7.4,2.5.6,1,1.9,1.3,3.1,1.5,9.7,2,20,6.9,29.9,7.3,3.2.1,6.7,0,9.4-1.7,2.7-1.7,4.3-5.5,2.4-8.1-.9-1.2-2.3-1.9-3.7-2.6-7.5-3.6-15.6-10-23.2-13.9-.3-.2-.6-.3-.9-.5h0"/><path class="cls-2" d="M70.5,168.5s0,0,.1,0c2.8,2.1,6.2,3.9,9.7,4.3.2,0,.4,0,.6,0"/><path class="cls-1" d="M128.2,186.2c-.2,0-.3,0-.5,0-5.3.7-8.2,5.3-10.3,10.3-1.8,4.3-3,9-5.4,13-.5.8-1,1.5-1.5,2.2,0,0,0,.1-.1.2-3.5,4.2-8.8,6.4-13.4,9.3-2.5,1.6-5,3.6-6.7,5.9-1.3,1.8-2.3,3.8-2.5,6,0,.3,0,.5,0,.8"/><path class="cls-1" d="M67.8,95.6c0,.3,0,.5,0,.8-.1,1.7.4,2.9,1.7,4.3,1,1,2.2,1.7,3.5,2.2,2,.8,4.4,1,6.6,1,2.9,0,5.9-.7,8.5-2.2,2.5-1.5,4.5-5.4,4.8-8.3"/><path class="cls-1" d="M65.1,106c2.2.1,4.3-2.9,6.5-3.1.4,0,.8,0,1.1.1,0,0,0,0,0,0,1.3.5,2.2,1.8,2.8,3.1.7,1.7,1.3,3.6,2.8,4.6,2.1,1.3,4.8.3,6.9-1,5.2-3.5,9.1-9,10.4-15.1"/><path class="cls-1" d="M103.9,145.2c-2,4.5-1.1,10.1,2.1,13.9"/><path class="cls-1" d="M10,142.2c.4-.2.7-.3,1.1-.4,4.9-1.7,10.7-1,15,2"/><path class="cls-1" d="M75.2,85.2c0,0-.1-.1-.2-.2-4.2-5.3-6.7-15.5-2.5-29.6,2.2-7.4,10.7-10.7,17.8-14,8.8,3.6,17,9.3,19.3,18.3"/><path class="cls-1" d="M109.6,60.1c-1,3.2-1.6,4.8-2,6.1-.6,2-1.2,15.5-8.5,21.6,0,0-4.4,3.8-8,4.7h0c-.1,0-.3,0-.4,0-2.3.4-11-3.3-15.1-6.9"/><path class="cls-1" d="M107.3,61.7c0-3-3.9-3.6-4.9-2"/><path class="cls-1" d="M88.2,55.9c-.7-1.9-3.8-3.2-5.8-.8"/><path class="cls-1" d="M96.6,73.5c.5,5.5-3.6,3.6-5.7,3"/><path class="cls-1" d="M101.4,66.7c-.4,1.6,0,3.1.9,3.3.9.2,1.9-1,2.2-2.6.4-1.6,0-3.1-.9-3.3-.9-.2-1.8,1-2.2,2.6Z"/><path class="cls-1" d="M82.9,62.5c-.3,1.6.1,3,1,3.2.9.2,1.9-.9,2.2-2.5.3-1.5-.1-3-1-3.2-.9-.2-1.9.9-2.2,2.4Z"/><path class="cls-1" d="M97,81.8s0,0,0,0c-4.6-.5-9.4-1.8-13.7-4.6-.3-.2-.6-.4-.9-.6"/><path class="cls-1" d="M97.1,81.3c0,.1-.1.3-.2.4-2.7,6.3-14.2,3.1-13.9-4.2"/><path class="cls-1" d="M59.5,122.5c-3.9-2.2-6.3-7-5.8-11.5.3-2.1,1.1-4,1.5-6.1,1.1-4.8-2.3-8.4-1.5-12.9v-.2c.5-2.5,1.6-5,1.7-7.5.1-2.4-.7-4.8-1.1-7.2-.5-3.2.7-4.8,1.4-7.6.6-2.7-1-5.9-1.3-8.5-.5-4.5-1-6.5,2-11,1.3-2,3.3-3.5,4.7-5.5,1.7-2.4,1.7-4.9,3.3-8,1.2-2.4,7.4-6,9.9-6.9,2-.7,6.1-.5,8.8.3,1.1.3,2.3.5,3.4.4,5.2-.6,11.7,1.8,16.5,3.9,5.4,2.4,9.1,8,10.2,13.8,1.1,6.1-.9,8.5.2,14.5.7,3.8,2,6,1.7,9.8-.3,3.2-3.3,6.3-3.8,9.4-.4,3,2.1,8.6.6,11.6-.9,1.8-2.7,3.1-3.4,5-.2.5-.3.9-.3,1.4"/><path class="cls-1" d="M75,85.1c0,.2,0,.4.1.7,0,1.7-1.5,3.6-2.7,4.8-1.4,1.4-3.1,2.6-4.1,4.3-.3.5-.5,1-.6,1.5-.6,2-.5,4.2-1.1,6.2-.3,1.2-.9,2.4-1.5,3.4-1.2,2-2.8,3.9-4.1,5.9-1.9,3.1-3.1,7.3-1,10.2"/></svg>