<?xml version="1.0" encoding="UTF-8"?><svg id="asia" xmlns="http://www.w3.org/2000/svg" width="235" height="321.9" viewBox="0 0 235 321.9"><defs><style>.cls-1{stroke-linecap:round;stroke-linejoin:round;}.cls-1,.cls-2{fill:none;stroke:#000;}.cls-2{stroke-miterlimit:10;}.cls-3,.cls-4,.cls-5,.cls-6,.cls-7,.cls-8,.cls-9,.cls-10{stroke-width:0px;}.cls-4{fill:#868a8b;}.cls-5{fill:#322a1c;}.cls-6{fill:#586163;}.cls-7{fill:#deae9b;}.cls-8{fill:#be735c;}.cls-9{fill:#fff;}.cls-10{fill:#e8f1f3;}</style></defs><path class="cls-5" d="M78.1,104.2h.2c.4,1.3.9,3.4,1.3,6.1h.2c7.5-9.2,10.1-41.7,10.3-50.2.3-12.8-1.7-20.4-11.1-25.5-3.6-1.9-8.3-6.8-18.4-6.4-13.7.5-23,10-26.1,24.4-2,9.1-5.6,34.9-.3,43.7,1.4-.6,3-1.1,4.7-1.5l.2.2c2.3-1.5,4.9-2.8,7.4-3.7h0c0,.4.2.8.3,1.2h.1c2.5-2.5,3-5.5,2-10.6-.7-.9-1.5-2-2.2-3.1-1.8-3.8-1.8-15.1,0-24.6h0c8.5-1.8,12.1-3.5,17-5.7,8.3-3.8,13-9.9,14.9-8.4,2.9,2.3,7.1,9.1,6.6,15.6-.3,2,.9,3.1-.3,6.9.3.1-.9,9.2-5.8,17.2-3.4,5.6-7.1,10-11.4,11.7h0c0,.4-.1.7-.1,1h0c.3.8.6,1.8.9,3,0-.7,0-1.3-.1-2l.2-.4c4.4,2.3,7.9,6.4,9.4,11.1Z"/><path class="cls-10" d="M68.7,95.6c-.2,2.9-1.7,5.8-3.9,7.3-2.8,1.9-6.4,1.9-9.3.3-2.9-1.6-6.8-6-7.7-9.5h-.5c2.6,10.7,4.2,23.7,4.7,36.3.5,9.9.3,19.7-.4,28.1,2.8-.2,5.5.2,6.3,3h.7c6.6.6,9.8.2,15.9-2.5l.7-.2c-1.2-3.9-1.9-7.7-1.7-11.4.2-5.8,0-12.8-.4-19.9-.8-12.2-2.4-24.6-4.2-31.5Z"/><path class="cls-8" d="M39,94.9c-1.7.4-3.2.9-4.7,1.5-4.7,2-7.9,4.8-8.3,5.7-3.9,8.3-13.2,33-14,37.8-1,6.5,8.3,15.6,13.8,19.2h0c1.2.8,2.3.7,3.3,0,2.5-1.6,4.2-7,5.8-9.9h.4c2.8,3.1,6.3,6.9,10.7,9.3,1.6,0,3.6-.4,5.6-.6.7-8.4.9-18.2.4-28.1h-.6c-1.1-4.1-3.2-8-6.2-11.2-1.1-1.2-2.3-2.2-3.2-3.5-.9-1.3-1.4-3-1-4.5.3-1,.9-1.8,1.1-2.8.4-1.9-1.3-3.8-3.2-4.4-1.9-.6-3.9-.2-5.9.1.3-3.7,2.9-6.5,6.1-8.6l-.2-.2ZM26.7,140.9c.6-1.2,4.2-10.7,6.7-16.8,0,1.5.2,5,.3,6.4.4,4.8.3,14.9,0,16.6l-.2.2c-.3-.3-.6-.7-.9-1-3.4-3.7-3.6-3.8-5.9-5.4Z"/><path class="cls-7" d="M58.9,52.3c1.1-.2,3.4-.3,4.6.5,1.7,1.1,2.1,2.4.9,2.2-1.1-.1-2.5-1.8-6-1.5-1.9.2-4.8,1.5-4.9,1.3-.2-.2,3.8-2.3,5.4-2.5ZM80.7,55c1.1.5,3.4,3.1,3.2,3.2-.1,0-1.9-1.6-3.3-2-2.5-.9-4,.5-4.9.4-1,0-.3-1.2,1.3-2,1.2-.6,2.8,0,3.6.3ZM85,62.6c1.2-3.8,0-4.9.3-6.9.5-6.6-3.7-13.4-6.6-15.6-1.9-1.5-6.6,4.6-14.9,8.4-4.9,2.2-8.5,4-17,5.7h0c-1.7,9.5-1.7,20.8,0,24.6.7,1.1,1.5,2.1,2.2,3.1,7.3,9.6,13.4,11.7,18.7,9.7,4.3-1.7,8-6.1,11.4-11.7,4.9-8.1,6.2-17.1,5.8-17.2ZM61.5,65.4c-.9,0-1.5-1.5-1.3-3.2.1-1.7.9-3,1.8-2.9s1.5,1.5,1.3,3.1c-.1,1.7-.9,3-1.8,2.9ZM67,83.5c-5.3-.4-6.9-2.8-8.5-6.1.8,1.1,9.2,4.3,13.8,2.7-1.4,2.2-2.7,3.6-5.3,3.4ZM78.1,66.8c-.7,0-1.2-1.3-1.1-2.7s.8-2.6,1.5-2.5c.7,0,1.2,1.3,1.1,2.7s-.8,2.6-1.5,2.5Z"/><path class="cls-8" d="M73.3,127.1c-.2-2.5,1.5-7.1,2.5-9.2.4-.8.7-1.7,1-2.6.4-1.5.4-2.9-.3-4.3-.7-1.3-2-2.3-2.3-3.7-.2-1,.2-2.2,1.1-2.8.8-.6,2-.7,3-.2-1.5-4.7-4.9-8.8-9.4-11.1l-.2.4c.1.7.2,1.3.1,2,1.8,6.9,3.5,19.3,4.2,31.5h.4Z"/><path class="cls-4" d="M2.7,297.7c-.4.8-.7,1.7-.5,2.6.3,1.2,1.5,1.9,2.6,2.6,16.2,10.7,21.8,14,32.5,16.3,6.8,1.5,13.3-.7,11.5-8.6-.4-1.6-2.2-2-3.6-2.8-6.3-3.5-7.9-4-10.3-7.7-9.7.5-20.3-2.5-28.4-8.1-1.7,2-2.8,3.5-3.8,5.7Z"/><path class="cls-6" d="M114.8,292.9c.2-7.6-8.7-56.1-8.7-61.2-4.8-26.4-17.8-38-26.1-60.2,0-.4-.2-.8-.2-1.2h-.3c-1.6-4.1-3.2-8.1-4.4-12l-.7.2c-6.1,2.7-9.2,3.2-15.9,2.7h-.7c0,0,.1.3.1.6,2.7,1.5,5.3,3.6,1.3,6.1.4.5.7,1,.8,1.5.3,1.4-.5,2.6-1.4,3.1,1.9,1.3,0,3.4-1.1,3.8,1.8,4.6-7,2.2-9,1.1-.6-.3-1.3-.8-2-1.3-5.3,2-11.4,1.6-16.3-1-.6,8.4,0,16.3.4,22.4.7,9.3,2.3,17.2,2.8,25,.3,4.4-21.4,49.4-28.3,68.5.4.3.9.7,1.4,1,8,5.6,18.6,8.6,28.4,8.1,0,0,0,0,0-.1l.3-.3c6.2-10.7,21.6-63.6,22.9-71.7.9-5.9,1.1-11.4,2.4-20.4.3-1.9.4-5.1.5-8.7h.3c7,12.1,9.2,12.3,17.3,24.4,2,2.9,5.4,19.2,5.7,30.3,0,3.9,1.7,42.9,2.5,47.2,1.3.3,2.6.5,4,.6,8.5.6,17.8-2.5,24.2-7.9,0-.1,0-.3,0-.5Z"/><path class="cls-7" d="M57.9,161.8c0-.3,0-.5-.1-.7-.8-2.8-3.4-3.2-6.3-3-2,.1-4,.5-5.6.6-4.4-2.3-7.9-6.1-10.7-9.3h-.4c-1.7,2.9-3.3,8.3-5.8,9.9h.1c.5.5,1.6,1.3,2.9,2.4,3.3,2.5,8.1,6.3,9.2,7.1-.2,2.7,2.6,5.5,5.1,7.3.7.5,1.4.9,2,1.3,2,1.1,10.8,3.5,9-1.1,1.1-.3,3-2.4,1.1-3.8.9-.5,1.7-1.7,1.4-3.1-.1-.5-.3-1-.8-1.5,4-2.4,1.3-4.5-1.3-6.1Z"/><path class="cls-8" d="M32.1,161.6c-1.1,4.5-1.7,9-2,13.4,5,2.6,11.1,3,16.3,1-2.5-1.8-5.3-4.6-5.1-7.3-1.1-.8-5.9-4.6-9.2-7.1Z"/><path class="cls-8" d="M33,103.7c1.9-.4,4-.7,5.9-.1,1.9.6,3.5,2.4,3.2,4.4-.2,1-.8,1.8-1.1,2.8-.5,1.5,0,3.2,1,4.5.9,1.3,2.1,2.4,3.2,3.5,3,3.1,5.1,7,6.2,11.2h.6c-.6-12.7-2.2-25.6-4.7-36.2,0-.4-.2-.8-.3-1.2,0-.4-.2-.7-.3-1.1h0c-2.4.9-5.1,2.1-7.4,3.7-3.2,2.2-5.8,5-6.1,8.6Z"/><path class="cls-7" d="M67.6,92.5c0-.3,0-.6.1-.9h0c-5.3,2-11.4-.1-18.7-9.7,1,5.1.5,8.1-2,10.6h-.1c.1.4.2.8.3,1.2h.5c.9,3.4,4.8,7.7,7.7,9.4,2.9,1.6,6.5,1.6,9.3-.3,2.2-1.5,3.8-4.4,3.9-7.3-.3-1.2-.6-2.2-.9-3h0Z"/><path class="cls-5" d="M58.9,52.3c-1.6.3-5.5,2.4-5.4,2.5.1.1,3-1.2,4.9-1.3,3.5-.3,4.9,1.3,6,1.5,1.2.2.8-1.1-.9-2.2-1.3-.8-3.5-.7-4.6-.5Z"/><path class="cls-3" d="M60.2,62.3c-.1,1.7.5,3.1,1.3,3.2s1.7-1.2,1.8-2.9c.1-1.7-.5-3.1-1.3-3.1s-1.7,1.2-1.8,2.9Z"/><path class="cls-9" d="M58.5,77.4c1.5,3.3,3.1,5.7,8.5,6.1,2.6.2,4-1.2,5.3-3.4-4.6,1.7-13-1.5-13.8-2.7Z"/><path class="cls-8" d="M73.3,127.1h-.4c.5,7.1.6,14.2.4,20-.2,3.7.6,7.5,1.7,11.4,1.2,3.9,2.8,7.9,4.4,12.1h.3c-1.1-5.7-1.9-10.4-2.5-14.5-1.2-8.4-1.5-14.4-.8-20.6.4-4,1.5-11,.2-20h0c-.2.9-.6,1.8-1,2.6-1,2.1-2.6,6.7-2.5,9.2Z"/><path class="cls-8" d="M88.6,159.3c.6-2.6,1.7-5.1,3.2-7.4.4-.7.9-1.3,1.4-1.9h0c-4.8-3.1-11.7-7.2-14.1-8.7,1.1-12,.5-9.9.9-23.9,0-2.7-.1-5-.4-7-.4-2.8-.9-4.8-1.3-6.2h-.2c-.9-.4-2.1-.4-3,.3-.8.6-1.3,1.8-1.1,2.8.3,1.4,1.7,2.4,2.3,3.7.7,1.3.6,2.8.3,4.3h0c1.3,9,.2,16.1-.2,20-.7,6.2-.4,12.2.8,20.6h.3c2.7,1.5,5.9,3.7,10.3,6.1h.2c.1-1,.3-1.8.5-2.7Z"/><path class="cls-5" d="M77.1,54.8c-1.6.8-2.3,1.9-1.3,2,.8,0,2.4-1.3,4.9-.4,1.4.5,3.2,2.1,3.3,2,.2-.1-2.2-2.7-3.2-3.2-.8-.4-2.4-.9-3.6-.3Z"/><path class="cls-3" d="M77,64.1c-.1,1.5.4,2.7,1.1,2.7.7,0,1.4-1.1,1.5-2.5s-.4-2.7-1.1-2.7c-.7,0-1.4,1.1-1.5,2.5Z"/><path class="cls-7" d="M91.9,151.9c-1.5,2.3-2.6,4.8-3.2,7.4,2,1.5,6.2,3.7,8.2,5.2,1.1.8,2.1,2,2.7,3.2,1.4,2.6,7.4,6.1,10.1,4.8,2.3-1.1,7-9.7,5.7-12.8-1.2-2.9-8.9-5-11.2-2.8-3.2-1.4-8.9-3.5-12.1-4.9h-.2Z"/><path class="cls-4" d="M114.8,293.4c-6.4,5.4-15.7,8.5-24.2,7.9-.2,1.7-.3,1.9-.3,3.7,0,.8,0,1.7.6,2.3.7.9,2,1.1,3.2,1.2,10,1.1,20.8,5.1,30.8,4.7,3.3-.1,6.8-.5,9.4-2.4s3.9-5.7,1.8-8c-1-1.1-2.5-1.7-3.9-2.2-5.7-2.1-11.1-4.7-17-7.5-.1.1-.2.2-.4.3Z"/><path class="cls-9" d="M114.8,292.9c0,.2,0,.3,0,.5.1-.1.2-.2.4-.3-.1,0-.2-.1-.3-.2Z"/><path class="cls-2" d="M76.7,115.3c1.3,9,.2,16.1-.2,20-.7,6.2-.4,12.2.8,20.6.6,4.2,1.4,8.9,2.5,14.5,0,.4.1.8.2,1.2"/><path class="cls-2" d="M33.3,123.7c0-.6,0-.3,0,.4,0,1.5.2,5,.3,6.4.4,4.8.3,14.9,0,16.6"/><line class="cls-1" x1="60.1" y1="169.4" x2="60" y2="169.4"/><line class="cls-1" x1="45.6" y1="158.6" x2="45.6" y2="158.8"/><path class="cls-1" d="M35.7,118.9c-.4.6-1.3,2.6-2.3,5.1-2.5,6.2-6.1,15.6-6.7,16.8"/><path class="cls-1" d="M39,94.9c-1.7.4-3.2.9-4.7,1.5-4.7,2-7.9,4.8-8.3,5.7-3.9,8.3-13.2,33-14,37.8-1,6.5,8.3,15.6,13.8,19.2"/><path class="cls-1" d="M46.4,158.9l-.5-.2c-4.4-2.3-7.9-6.1-10.7-9.3-.6-.7-1.2-1.4-1.8-2-.3-.3-.6-.7-.9-1-3.4-3.7-3.6-3.8-5.9-5.4-.6-.4-1.4-1-2.4-1.7"/><path class="cls-1" d="M29.2,159.4c.5.3,1.6,1.2,2.9,2.2,3.3,2.5,8.1,6.3,9.2,7.1-.2,2.7,2.6,5.5,5.1,7.3.7.5,1.4.9,2,1.3,2,1.1,10.8,3.5,9-1.1,1.1-.3,3-2.4,1.1-3.8.9-.5,1.7-1.7,1.4-3.1-.1-.5-.3-1-.8-1.5,4-2.4,1.3-4.5-1.3-6.1-1.2-.7-2.4-1.2-3-1.7"/><path class="cls-1" d="M45.6,158.6h.3c1.6,0,3.6-.4,5.6-.6,2.8-.2,5.5.2,6.3,3,0,.2.1.5.1.7,0,0,0,0,0,0"/><path class="cls-1" d="M77.6,155.8c2.7,1.6,5.9,3.7,10.3,6.2"/><path class="cls-1" d="M93.2,149.9c-4.8-3-11.7-7.1-14.1-8.6"/><path class="cls-1" d="M78.2,103.7c0,.1,0,.3.1.5.4,1.3.9,3.4,1.3,6.2.3,2,.4,4.4.4,7-.4,14,.2,11.9-.9,23.9"/><path class="cls-2" d="M35.1,299.6c6.2-10.7,21.6-63.6,22.9-71.7.9-5.9,1.1-11.4,2.4-20.4.3-1.9.4-5.1.5-8.7.1-4.6.2-9.7.3-13.8"/><path class="cls-2" d="M35.1,300.1c0,0-.2,0-.2,0-9.7.5-20.3-2.5-28.4-8.1-.5-.3-.9-.7-1.4-1,6.9-19.1,28.6-64.1,28.3-68.5-.6-7.8-2.2-15.8-2.8-25"/><path class="cls-2" d="M32.2,161.4c0,0,0,.1,0,.2-1.1,4.5-1.7,9-2,13.4-.6,8.4,0,16.3.4,22.4"/><path class="cls-2" d="M80,171.5c8.3,22.1,21.2,33.7,26.1,60.2"/><path class="cls-2" d="M61.1,198.9c7,12.1,9.2,12.3,17.3,24.4,2,2.9,5.4,19.2,5.7,30.3,0,3.9,1.7,42.9,2.5,47.2,1.3.3,2.6.5,4,.6,8.5.6,17.8-2.5,24.2-7.9.1-.1.2-.2.4-.3.1,0,.2-.2.3-.3"/><path class="cls-2" d="M34.9,149.4c-1.7,2.8-3.3,8.2-5.8,9.9-1,.6-2,.7-3.3,0,0,0-.2-.1-.3-.2"/><path class="cls-2" d="M106.1,231.7c0,5.1,8.9,53.6,8.7,61.2,0,.2,0,.3,0,.5,0,0,0,0,0,.1"/><path class="cls-1" d="M6.5,291.9c-1.7,2-2.8,3.5-3.8,5.7-.4.8-.7,1.7-.5,2.6.3,1.2,1.5,1.9,2.6,2.6,16.2,10.7,21.8,14,32.5,16.3,6.8,1.5,13.3-.7,11.5-8.6-.4-1.6-2.2-2-3.6-2.8-6.3-3.5-7.9-4-10.3-7.7,0,0,0,0,0-.1"/><path class="cls-1" d="M90.6,301.1s0,0,0,.1c-.2,1.7-.3,1.9-.3,3.7,0,.8,0,1.7.6,2.3.7.9,2,1.1,3.2,1.2,10,1.1,20.8,5.1,30.8,4.7,3.3-.1,6.8-.5,9.4-2.4s3.9-5.7,1.8-8c-1-1.1-2.5-1.7-3.9-2.2-5.7-2.1-11.1-4.7-17-7.5-.1,0-.2-.1-.3-.2,0,0-.2,0-.3-.1"/><path class="cls-1" d="M88.6,159.3s0,0,0,0c2,1.5,6.2,3.7,8.2,5.2,1.1.8,2.1,2,2.7,3.2,1.4,2.6,7.4,6.1,10.1,4.8,2.3-1.1,7-9.7,5.7-12.8-1.2-2.9-8.9-5-11.2-2.8-3.2-1.4-8.9-3.5-12.1-4.9"/><path class="cls-1" d="M93.2,150c-.5.6-.9,1.3-1.4,1.9-1.5,2.3-2.6,4.8-3.2,7.4-.2.8-.4,1.7-.5,2.6"/><path class="cls-2" d="M74.4,158.6c-6.1,2.7-9.2,3.2-15.9,2.7"/><path class="cls-2" d="M46.6,91.5c0,.4.2.7.3,1.1.1.4.2.8.3,1.2,2.6,10.6,4.2,23.6,4.7,36.2.5,9.9.3,19.7-.4,28.1,0,.2,0,.3,0,.5"/><path class="cls-2" d="M46.8,175.9c0,0-.2,0-.3.1-5.3,2-11.4,1.6-16.3-1,0,0,0,0,0,0"/><path class="cls-2" d="M67.7,92.5c.3.8.6,1.8.9,3,1.8,6.9,3.5,19.3,4.2,31.5.5,7.1.6,14.1.4,19.9-.2,3.7.6,7.5,1.7,11.4,1.2,3.9,2.8,7.9,4.4,12.1"/><path class="cls-1" d="M46.8,91.3c0,0-.2,0-.2,0-2.4,1-5.1,2.2-7.4,3.7-3.2,2.2-5.8,5-6.1,8.6,1.9-.4,4-.7,5.9-.1,1.9.6,3.5,2.4,3.2,4.4-.2,1-.8,1.8-1.1,2.8-.5,1.5,0,3.2,1,4.5.9,1.3,2.1,2.4,3.2,3.5,3,3.1,5.1,7,6.2,11.2"/><path class="cls-1" d="M68.5,93c.1,0,.2,0,.3.2,4.4,2.3,7.9,6.4,9.4,11.1-.9-.5-2.1-.4-3,.2-.8.6-1.3,1.8-1.1,2.8.3,1.4,1.7,2.4,2.3,3.7.7,1.3.6,2.8.3,4.3-.2.9-.6,1.8-1,2.6-1,2.1-2.6,6.7-2.5,9.2,0,.1,0,.2,0,.3"/><path class="cls-2" d="M47.7,93.6c.9,3.5,4.8,7.9,7.7,9.5,2.9,1.6,6.5,1.6,9.3-.3,2.2-1.5,3.8-4.4,3.9-7.3,0-.7,0-1.3-.1-2"/><path class="cls-1" d="M85.2,55.7c-.3,2,.9,3.1-.3,6.9.3.1-.9,9.2-5.8,17.2-3.4,5.6-7.1,10-11.4,11.7-5.3,2.1-11.4-.1-18.7-9.7-.7-.9-1.5-2-2.2-3.1"/><path class="cls-1" d="M77,64.1c-.1,1.5.4,2.7,1.1,2.7.7,0,1.4-1.1,1.5-2.5s-.4-2.7-1.1-2.7c-.7,0-1.4,1.1-1.5,2.5Z"/><path class="cls-1" d="M60.2,62.3c-.1,1.7.5,3.1,1.3,3.2s1.7-1.2,1.8-2.9c.1-1.7-.5-3.1-1.3-3.1s-1.7,1.2-1.8,2.9Z"/><path class="cls-1" d="M73.1,75c-2,1-5.5,1.2-8.3-.8"/><path class="cls-1" d="M72.3,80.1c-4.6,1.7-13-1.5-13.8-2.7,1.5,3.3,3.1,5.7,8.5,6.1,2.6.2,4-1.2,5.3-3.4Z"/><path class="cls-1" d="M47.1,52.6c-.1.5-.2,1.1-.3,1.6-1.7,9.5-1.7,20.8,0,24.6"/><path class="cls-1" d="M79.8,110.4c7.5-9.2,10.1-41.7,10.3-50.2.3-12.8-1.7-20.4-11.1-25.5-3.6-1.9-8.3-6.8-18.4-6.4-13.7.5-23,10-26.1,24.4-2,9.1-5.6,34.9-.3,43.7,0,0,0,0,0,0"/><path class="cls-1" d="M85.2,55.7c.5-6.6-3.7-13.4-6.6-15.6-1.9-1.5-6.6,4.6-14.9,8.4-4.9,2.2-8.5,4-17,5.7"/><path class="cls-1" d="M49,81.7c0,0,0,.1,0,.2,1,5.1.5,8.1-2,10.6"/><path class="cls-1" d="M67.8,91.6c0,.4-.1.7-.1.9-.1,1.7.7,1,.5,4.3"/><path class="cls-1" d="M80.7,55c1.1.5,3.4,3.1,3.2,3.2-.1,0-1.9-1.6-3.3-2-2.5-.9-4,.5-4.9.4-1,0-.3-1.2,1.3-2,1.2-.6,2.8,0,3.6.3Z"/><path class="cls-1" d="M58.9,52.3c-1.6.3-5.5,2.4-5.4,2.5.1.1,3-1.2,4.9-1.3,3.5-.3,4.9,1.3,6,1.5,1.2.2.8-1.1-.9-2.2-1.3-.8-3.5-.7-4.6-.5Z"/></svg>