<?xml version="1.0" encoding="UTF-8"?><svg id="asia" xmlns="http://www.w3.org/2000/svg" width="235" height="321.9" viewBox="0 0 235 321.9"><defs><style>.cls-1{stroke-linecap:round;stroke-linejoin:round;}.cls-1,.cls-2{fill:none;stroke:#000;}.cls-2{stroke-miterlimit:10;}.cls-3,.cls-4,.cls-5,.cls-6,.cls-7,.cls-8{stroke-width:0px;}.cls-4{fill:#f9f9f9;}.cls-5{fill:#886553;}.cls-6{fill:#372d25;}.cls-7{fill:#cca285;}.cls-8{fill:#fff;}</style></defs><path class="cls-7" d="M133.8,303.9c1.7,2.5,2.1,4.9.6,6.7h0c-6.1.1-12.3-.4-18.4-1.4v-.2c1.5-.8,4.6-3.1,5.8-4.2,1.2-1.1,2.1-2.5,2.3-4.1.1-1.4-.4-2.9-1.5-3.7,2.1,1.1,4.3,2.3,6.7,3.6,1.7.9,3.5,1.7,4.5,3.2Z"/><path class="cls-5" d="M134.3,310.6h0c-.5.6-1.2,1.1-2.1,1.6-3.7,1.9-8.2,1.7-12.5,1.3-12.9-1.3-17.5-2.9-30-6.2-1.5-.4-3.2-.9-3.9-2.2-.5-.9-.4-2-.3-3.1,0-.4.1-.9.2-1.3,5.2,2,10.6,3.8,16.1,5.3,4.6,1.3,9.3,2.3,14,3.1,6.1,1,12.3,1.5,18.4,1.4Z"/><path class="cls-5" d="M122.5,297.1c1.1.8,1.6,2.3,1.5,3.7-.2,1.6-1.1,3-2.3,4.1-1.2,1.1-4.4,3.4-5.8,4.2v.2c-4.7-.8-9.4-1.8-14-3.1v-.3c.2,0,3.6-2.1,3.7-2.2,2.7-2.5,4.5-5.9,4.9-9.6.2-1.3,0-2.8-1.1-3.5l.2-.4c4.5,2.4,8.4,4.5,12.8,6.9Z"/><path class="cls-7" d="M123.9,148.1c1.5,3.3-4.2,11.2-7.1,13.3-2.9,2.2-4.6,3-7.5,1-1.4-1-2.7-5.2-3.2-6.9-.2-.8-.1-1.6.2-2.5.9-2.8,3.6-6,5.6-7.4,2.6-1.9,0-1,3.1-1.7,3.4-1.1,7.4.9,8.9,4.2Z"/><path class="cls-7" d="M109.5,290.5c1.1.6,1.2,2.2,1.1,3.5-.4,3.6-2.2,7.1-4.9,9.6-.1.1-3.5,2.1-3.6,2.2v.3c-5.6-1.5-11-3.3-16.2-5.3.3-1.8.7-3.5,1.2-5.2,9.7,3.7,13.8-.3,20-6.8.9.5,1.8,1,2.6,1.4l-.2.4Z"/><path class="cls-5" d="M107.1,288.8c-6.2,6.4-10.3,10.5-20,6.8-.9-.3-1.8-.7-2.8-1.2-.3-1-2.6-61.6-3-62.7-4.3-13.4-18-28.6-20.6-33.1h-.3c.7-3.3,1.5-6.3,2.5-9,13-.5,23.8-3.3,23.5-9.9,7.2,12.8,16.5,33.4,18.3,43.7.3,1.5,4,62.7,4,63.7-.6.6-1.1,1.2-1.6,1.7Z"/><path class="cls-7" d="M115,143.9c-3.1.7-.6-.2-3.1,1.7-1.9,1.4-4.7,4.6-5.6,7.4h-.4c-4.5-6.1-9.4-9.4-15.3-17.9,2.5-4.2,6.3-7.7,10.7-9.9,5.4,6.7,11,15.6,13.7,18.6Z"/><path class="cls-6" d="M98,42.1c0,.2,0,.3,0,.5.3-3.5-6.6-6.9-9.5-8.5-2.9-1.4-19.5-4.8-24,0h-.1c0-.2,0-.2,0-.2,3.5-3.8,8.1-6.7,13.1-8.2-.4,1.2-.9,2.3-1.3,3.5,4.6-1,9.3-1.3,14-.8-1,.6-1.9,1.4-2.4,2.4,3.7.1,7.4,1.1,10.7,2.9-.9.2-1.8.5-2.7.7,1.3.9,2.6,1.9,3.8,3,1.5,1.4,2.8,3,4,4.6-1.7,0-3.3,0-5,.1h-.4Z"/><path class="cls-4" d="M25.8,127.4c.9.7,1.8,1.6,2.8,2.7h0c-3.8,5.3-5.5,8.4-7.4,12.9-.3.6-.5,1.2-.8,1.9h0c-5.6-4-12-12-10.6-18.9-.4-1.1,15-43.1,20.9-45.7,6.1-2.7,13.2-3.7,19.7-5.1l.2.2c0,0-.2.1-.2.2,4.1,7.7,11.7,12.5,14.4,12.6.4,0,.8,0,1.2,0,3.8-.3,5-2.2,6.4-4.3.6-.8.4-2.2.4-2.2l.2-.8c.8.2,1.5.3,2.3.2.9,0,1.8-.3,2.6-.6h0c2.1.7,7.5,3.1,10.2,6.5,5.2,6.5,7.6,25.7,9,33.5,1.4,1.3,2.8,3,4.3,4.8-4.4,2.2-8.1,5.7-10.7,9.9-.3.5-.6.9-.8,1.4h0c-1.4-2.4-3.4-6-4.6-9.3h-.2c.1,13.2.1,25.7-.7,39.9-.2,3.7,2,8.9,2.3,12.6.3,6.5-10.5,9.4-23.5,9.9-11.8.4-25.4-1.2-34.3-3.9-.1,0-.3,0-.4-.1-2.9-7.7,4.1-26.6,5.8-33.2h0c2,1.3,4,2.7,5.7,4.1h0c-.4,3.9,4.4,7.7,7.3,9.2,2.1,1.1,11.4,3.3,9.7-1.7,1.2-.4,3.3-2.8,1.4-4.2,1.3-.8,2.5-3,.9-5.1,4.4-2.9,1.6-5.1-1.1-6.6-.6-6.5-8.7-3.1-12.9-3-3.6-1.3-6.7-4-9.2-6.8h0c.5-12.1-.1-18.9-1.2-26.6-2.9,5.9-5.5,11.2-7.2,13.4-1,2.1,0,.2-1,2.1l-.6.2Z"/><path class="cls-4" d="M98.4,21.7c1.3,4,1.7,7.8,1.5,12h-1.6c-3.3-1.8-7-2.8-10.7-3,.6-1,1.4-1.9,2.4-2.4-4.7-.5-9.4-.2-14,.8.4-1.2.9-2.3,1.3-3.5-5,1.5-9.5,4.4-13.1,8.2l-.2-.2c-6.2.3-12.3,2.5-17.3,6.2h-.2c0-.2,0-.4,0-.6.2-5.4,1.6-13.9,3-19.1v-.2c12.3-8.6,42.5-5.9,48.7,1.6Z"/><path class="cls-7" d="M50.5,54.1c-1.3-.7-2.7-5.2-2.8-7,0-1.8.9-5.6,2.1-6.4,2.1-1.5,6,.5,6.7,2,1.2,2.6,1,2.8,2.6,3,.4,0,2.1-5.8,4.5-10.4h0c.2-.5.4-.9.7-1.2,4.6-4.9,21.1-1.5,24,0,2.9,1.6,9.8,5.1,9.5,8.5-1.1,6-4.4,10.4-4.4,13.6,0,2.3-2.1,9-6.5,16.3,0,0-4.1,6.1-9.3,8.1-.9.3-1.7.6-2.6.6-.8,0-1.5,0-2.3-.2-5.6-1.2-11.2-7.7-15-11.4-3.1-3.1-4.9-5.3-6.2-9.7,0,0,0,0,0-.1,0-.3-.1-.5-.2-.8h0c-.3-1-1.3-1.8-1-4.8ZM93.5,49.9c0-.8-3.3-4-4.5-3.8-1.1.2-2.3,2.3-.9,3.1.5.3,3.3,1.7,3.8,1.9.7.3,1.5-.4,1.6-1.2ZM90.2,56.5c.3-1.6,0-3.1-.9-3.3-.8-.2-1.7,1-2,2.6-.3,1.6,0,3.1.8,3.3.8.2,1.7-1,2-2.6ZM71.9,64.4c-1.6,6.5,8.4,13.7,10.9,5.1-4.6-.6-6.8-1.8-10.9-5.1ZM78.7,44.6c.7.2,2.5-2.2-.3-3-2.8-.9-8.3-1.8-8.6,1.6,0,.3,7,.9,8.9,1.4ZM74.9,52.3c.3-1.6-.1-3-.9-3.2-.8-.2-1.7.9-2,2.5-.3,1.6,0,3,.9,3.2.8.2,1.7-.9,2-2.5Z"/><path class="cls-6" d="M89,46.2c1.3-.2,4.6,3,4.5,3.8,0,.8-.9,1.5-1.6,1.2-.5-.2-3.3-1.6-3.8-1.9-1.4-.8-.2-2.9.9-3.1Z"/><path class="cls-3" d="M89.3,53.2c.8.2,1.2,1.7.9,3.3-.3,1.6-1.2,2.8-2,2.6-.8-.2-1.2-1.7-.8-3.3.3-1.6,1.2-2.8,2-2.6Z"/><path class="cls-8" d="M82.8,69.5c-2.5,8.6-12.5,1.4-10.9-5.1,4.1,3.3,6.4,4.5,10.9,5.1Z"/><path class="cls-6" d="M78.4,41.6c2.7.8.9,3.2.3,3-1.9-.5-8.9-1.1-8.9-1.4.3-3.4,5.8-2.4,8.6-1.6Z"/><path class="cls-3" d="M74,49.2c.8.2,1.2,1.6.9,3.2-.3,1.6-1.2,2.7-2,2.5-.8-.2-1.2-1.6-.9-3.2.3-1.6,1.2-2.6,2-2.5Z"/><path class="cls-7" d="M65.8,88.2c-.4,0-.8,0-1.2,0-2.7,0-10.3-4.9-14.4-12.6,0,0,.2-.1.2-.2,2-1.7,2.8-9.4,1.3-15.7,1.2,4.4,3.1,6.6,6.2,9.7,3.8,3.7,9.4,10.2,15,11.4l-.2.8s.2,1.4-.4,2.2c-1.4,2.1-2.6,4.1-6.4,4.3Z"/><path class="cls-5" d="M27.2,287.4c-7.4,5-13.3,6.5-22.1.9-.4-.2-.7-.5-1.1-.7,0-1.5,26.6-56.9,26.6-58.5.4-13-2.6-28.1-2.1-43.4,8.9,2.7,22.5,4.3,34.3,3.9-1,2.7-1.8,5.7-2.5,9-2.5,11.5-3.7,25.8-7.4,39.5-.5,1.8-23.8,46.7-24.3,48.4-.5.4-1,.7-1.5,1.1Z"/><path class="cls-6" d="M64.2,34h.1c-.3.4-.5.8-.7,1.2h0c-2.4,4.7-4.1,10.6-4.5,10.5-1.6-.2-1.4-.4-2.6-3-.7-1.5-4.6-3.5-6.7-2-1.2.8-2.2,4.7-2.1,6.4,0,1.7,1.5,6.3,2.8,7-.3,3,.7,3.8,1,4.8-3.7-7.3-4.9-13.4-4.8-18.9h.2c5-3.7,11.1-5.9,17.3-6.2l.2.2s0,0,0,0Z"/><path class="cls-7" d="M45,145.1c4.3-.2,12.4-3.5,12.9,3,2.8,1.6,5.5,3.8,1.1,6.6,1.6,2.1.4,4.3-.9,5.1,1.9,1.4-.2,3.8-1.4,4.2,1.7,5-7.7,2.8-9.7,1.7-2.9-1.5-7.7-5.3-7.3-9.2h0c-1.7-1.5-3.7-2.9-5.7-4.2-2.7-1.8-5.5-3.6-7.9-5.2-.3-.2-4.6-3.8-4.9-4h-.2c1.9-4.6,3.6-7.7,7.4-13h0c.7.7,1.4,1.5,2.2,2.4,1.4,1.5,3,3.6,4.9,5.7,2.6,2.8,5.6,5.5,9.2,6.8Z"/><path class="cls-5" d="M46.1,309.5c.4,2.3-.3,3.9-3.3,4.5-3.8.8-6.7.8-10.4-.6-11.2-4.3-17.8-8.8-28.2-14.8-1.2-.7-2.6-1.6-2.9-2.9-.2-1,.2-1.9.6-2.8.2-.4.4-.8.7-1.3h0c4.9,4.4,9.8,7.8,15.1,10.7,3.1,1.7,6.4,3.3,9.9,4.9,1.7.8,3.5,1.6,5.4,2.4,1.8.8,5.9,1.7,7.8,1.9,1.9.2,4.1-.4,5-2.1h.2Z"/><path class="cls-7" d="M46.1,309.5h-.2c-.9,1.7-3.1,2.4-5,2.1-1.9-.2-6-1.2-7.8-1.9-1.9-.8-3.7-1.6-5.4-2.4h0c4.2-.8,9.4-3.4,12-6.8h0c.8.8,1.7,1.7,2.6,2.6,1.3,1.3,2.6,2.6,3.2,4.2.2.8.4,1.5.5,2.2Z"/><path class="cls-6" d="M51.5,58.9c0,.3.1.5.2.8,0-.2-.1-.5-.2-.8Z"/><path class="cls-5" d="M39.8,300.4h0c-2.6,3.4-7.8,6.1-12,6.8h0c-3.5-1.6-6.8-3.2-9.9-4.9v-.2c3-.3,6.6-2.5,9.2-3.9,2.6-1.4,3.8-4.4,3.6-7.3,3,3.1,5.8,6.1,9.2,9.5Z"/><path class="cls-7" d="M30.6,290.9c.2,2.9-1,6-3.6,7.3-2.6,1.4-6.2,3.6-9.1,3.9v.2c-5.4-2.9-10.3-6.3-15.2-10.6h0c.7-1.2,1.6-2.3,2.5-3.4,8.8,5.6,14.6,4.1,22.1-.9,1.2,1.2,2.3,2.3,3.4,3.5Z"/><path class="cls-1" d="M46.6,39.4c0,.2,0,.4,0,.6,0,5.6,1.1,11.6,4.8,18.9"/><path class="cls-1" d="M49.7,20.3c-1.4,5.2-2.9,13.7-3,19.1"/><path class="cls-1" d="M51.5,58.9c-.3-1-1.3-1.8-1-4.8"/><path class="cls-1" d="M51.7,59.7c0-.2-.1-.5-.2-.8"/><path class="cls-1" d="M98,41.9v.2c0,.2,0,.3-.1.5-1.1,6-4.4,10.4-4.4,13.6,0,2.3-2.1,9-6.5,16.3,0,0-4.1,6.1-9.3,8.1-.9.3-1.7.6-2.6.6-.8,0-1.5,0-2.3-.2-5.6-1.2-11.2-7.7-15-11.4-3.1-3.1-4.9-5.3-6.2-9.7"/><path class="cls-1" d="M85,62.6c-.2,2.8-2.8,2.6-5.8,1.2"/><path class="cls-1" d="M87.3,55.8c-.3,1.6,0,3.1.8,3.3.8.2,1.7-1,2-2.6.3-1.6,0-3.1-.9-3.3-.8-.2-1.7,1-2,2.6Z"/><path class="cls-1" d="M71.9,51.6c-.3,1.6,0,3,.9,3.2.8.2,1.7-.9,2-2.5.3-1.6-.1-3-.9-3.2-.8-.2-1.7.9-2,2.5Z"/><path class="cls-1" d="M82.8,69.5c-4.6-.6-6.8-1.8-10.9-5.1"/><path class="cls-1" d="M82.8,69.5c-2.5,8.6-12.5,1.4-10.9-5.1"/><path class="cls-1" d="M51.5,58.9h0c0,.3.1.5.2.8,0,0,0,0,0,.1,1.5,6.2.7,13.9-1.3,15.7,0,0-.2.1-.2.2"/><path class="cls-1" d="M50.2,75.7c4.1,7.7,11.7,12.5,14.4,12.6.4,0,.8,0,1.2,0,3.8-.3,5-2.2,6.4-4.3.6-.8.4-2.2.4-2.2"/><path class="cls-1" d="M34.6,111.7c-2.9,5.9-5.5,11.2-7.2,13.4"/><path class="cls-1" d="M40.7,100.2c-2.1,3.6-4.2,7.7-6.1,11.5"/><path class="cls-1" d="M50.3,75.2c-6.5,1.4-13.6,2.3-19.7,5.1-5.9,2.7-21.3,44.6-20.9,45.7"/><path class="cls-1" d="M34,152.4c-1.7,6.6-8.7,25.5-5.8,33.2.1,0,.3,0,.4.1,8.9,2.7,22.5,4.3,34.3,3.9,13-.5,23.8-3.3,23.5-9.9-.3-3.7-2.5-8.8-2.3-12.6.8-14.2.8-26.7.7-39.9,0-7.2-.1-14.6-.1-22.7"/><path class="cls-1" d="M34.6,111.7h0c1.1,7.7,1.7,14.5,1.2,26.5"/><path class="cls-1" d="M77.8,80.6c2.1.6,7.5,3,10.2,6.4,5.2,6.5,7.6,25.7,9,33.5"/><path class="cls-1" d="M90.6,135.1s0,0,0,0c5.9,8.4,10.8,11.8,15.3,17.8"/><path class="cls-1" d="M85.1,127.2c1.2,3.3,3.2,6.9,4.6,9.3,0,0,0,0,0,.2"/><path class="cls-1" d="M97,120.4c1.4,1.3,2.8,3,4.3,4.8,5.4,6.7,11,15.6,13.7,18.6"/><path class="cls-1" d="M115,143.9c-3.1.7-.6-.2-3.1,1.7-1.9,1.4-4.7,4.6-5.6,7.4-.3.9-.4,1.8-.2,2.5.4,1.7,1.7,5.9,3.2,6.9,3,2,4.7,1.2,7.5-1,2.9-2.2,8.5-10,7.1-13.3-1.4-3.3-5.5-5.3-8.9-4.2"/><path class="cls-1" d="M28.6,185.5v.2c-.6,15.3,2.5,30.4,2.1,43.4,0,1.6-26.5,57-26.6,58.5.4.3.7.5,1.1.7,8.8,5.6,14.6,4.1,22.1-.9.5-.3,1-.7,1.5-1.1.5-1.6,23.8-46.6,24.3-48.4,3.7-13.7,4.9-28,7.4-39.5.7-3.2,1.5-6.2,2.5-9,0,0,0,0,0-.1"/><path class="cls-1" d="M60.8,198.6c2.6,4.5,16.3,19.7,20.6,33.1.4,1.1,2.7,61.7,3,62.7,1,.5,1.9.9,2.8,1.2,9.7,3.7,13.8-.3,20-6.8.5-.6,1.1-1.1,1.6-1.7,0-1-3.7-62.3-4-63.7-1.8-10.2-11.1-30.8-18.3-43.7"/><path class="cls-2" d="M63.6,35.2c.2-.4.4-.7.7-1.1,4.6-4.9,21.1-1.5,24,0,2.9,1.6,9.8,5.1,9.5,8.5,0,0,0,.1,0,.2"/><path class="cls-1" d="M63.6,35.3c-2.4,4.6-4.1,10.4-4.5,10.4-1.6-.2-1.4-.4-2.6-3-.7-1.5-4.6-3.5-6.7-2-1.2.8-2.2,4.7-2.1,6.4,0,1.7,1.5,6.3,2.8,7,1.3.7,2.2,1,3.5,0"/><path class="cls-1" d="M99.7,37c0-1.1.2-2.2.2-3.2.2-4.2-.2-8-1.5-12-6.2-7.5-36.4-10.2-48.8-1.6,0,0-.2.1-.3.2"/><path class="cls-1" d="M27.5,125.1c-1,2.1,0,.2-1,2.1"/><path class="cls-1" d="M21.3,143.1c.3.2,4.6,3.8,4.9,4,2.4,1.6,5.2,3.3,7.9,5.2,2,1.4,4,2.8,5.7,4.2"/><path class="cls-1" d="M9.7,126.1c-1.4,6.9,5,14.9,10.6,19,0,0,0,0,0,0"/><path class="cls-1" d="M45.7,145.4c-.2,0-.5-.2-.7-.2-3.6-1.3-6.7-4-9.2-6.8-1.9-2.1-3.6-4.1-4.9-5.7-.8-.9-1.6-1.8-2.2-2.5-1-1.1-1.9-2-2.8-2.7-1.8-1.4-3.7-2.2-6.9-2.8"/><path class="cls-1" d="M54.8,146.3c.6.5,1.9,1,3.1,1.7,2.8,1.6,5.5,3.8,1.1,6.6,1.6,2.1.4,4.3-.9,5.1,1.9,1.4-.2,3.8-1.4,4.2,1.7,5-7.7,2.8-9.7,1.7-2.9-1.5-7.7-5.3-7.3-9.2"/><path class="cls-1" d="M44.8,145.1c0,0,.1,0,.2,0,4.3-.2,12.4-3.5,12.9,3,0,0,0,0,0,0"/><path class="cls-1" d="M69.8,43.2c0,.3,7,.9,8.9,1.4.7.2,2.5-2.2-.3-3-2.8-.9-8.3-1.8-8.6,1.6Z"/><path class="cls-1" d="M88.1,49.2c.5.3,3.3,1.7,3.8,1.9.7.3,1.5-.4,1.6-1.2,0-.8-3.3-4-4.5-3.8-1.1.2-2.3,2.3-.9,3.1Z"/><path class="cls-1" d="M28.5,130.2c-3.8,5.2-5.5,8.3-7.4,12.8-.3.6-.5,1.2-.8,1.9"/><path class="cls-1" d="M101.4,125.1c0,0-.1,0-.2,0-4.4,2.2-8.1,5.7-10.7,9.9-.3.5-.6.9-.8,1.4"/><path class="cls-2" d="M65.8,88.1s0,0,0,0c1.3,5.8,1.4,17.1,1.1,20.8"/><path class="cls-1" d="M87.1,295.4c0,0,0,.1,0,.2-.5,1.7-.9,3.4-1.2,5.2,0,.4-.1.9-.2,1.3-.2,1-.3,2.2.3,3.1.7,1.3,2.4,1.8,3.9,2.2,12.5,3.3,17.1,4.9,30,6.2,4.2.4,8.7.6,12.5-1.3.9-.5,1.6-1,2.1-1.6,1.5-1.8,1.1-4.1-.6-6.7-1-1.6-2.8-2.3-4.5-3.2-2.4-1.3-4.6-2.5-6.7-3.6-4.4-2.4-8.3-4.5-12.8-6.9-.8-.5-1.7-.9-2.6-1.4,0,0-.2,0-.2-.1"/><path class="cls-1" d="M5.3,288.2s0,0,0,0c-1,1.1-1.8,2.2-2.5,3.4-.2.4-.5.8-.7,1.3-.4.9-.8,1.9-.6,2.8.3,1.3,1.7,2.2,2.9,2.9,10.3,6,16.9,10.5,28.2,14.8,3.7,1.4,6.6,1.4,10.4.6,3-.6,3.6-2.2,3.3-4.5,0-.7-.3-1.4-.5-2.2-.5-1.7-1.9-3-3.2-4.2-.9-.9-1.8-1.7-2.6-2.6-3.4-3.4-6.2-6.4-9.2-9.5-1.1-1.1-2.2-2.3-3.4-3.5,0,0,0,0,0,0"/><path class="cls-1" d="M2.8,291.7c4.9,4.4,9.8,7.7,15.1,10.6,3.1,1.7,6.4,3.3,9.9,4.9,1.7.8,3.5,1.6,5.4,2.4,1.8.8,5.9,1.7,7.8,1.9,1.9.2,4.1-.4,5-2.1"/><path class="cls-1" d="M30.6,290.9c.2,2.9-1,6-3.6,7.3-2.6,1.4-6.2,3.6-9.1,3.9"/><path class="cls-1" d="M39.8,300.4c-2.6,3.4-7.8,6.1-12,6.8"/><path class="cls-1" d="M85.6,300.7c0,0,.2,0,.2,0,5.2,2,10.6,3.8,16.1,5.3,4.6,1.3,9.3,2.3,14,3.1,6.1,1,12.3,1.5,18.4,1.4"/><path class="cls-1" d="M109.3,290.4c0,0,.1,0,.2,0,1.1.6,1.2,2.2,1.1,3.5-.4,3.6-2.2,7.1-4.9,9.6-.1.1-3.5,2.1-3.6,2.2"/><path class="cls-1" d="M122,296.7c.2,0,.4.2.6.3,1.1.8,1.6,2.3,1.5,3.7-.2,1.6-1.1,3-2.3,4.1-1.2,1.1-4.4,3.4-5.8,4.2"/><path class="cls-2" d="M64.2,34s0,0,0,0c3.5-3.8,8.1-6.7,13.1-8.2-.4,1.2-.9,2.3-1.3,3.5,4.6-1,9.3-1.3,14-.8-1,.6-1.9,1.4-2.4,2.4,3.7.1,7.4,1.1,10.7,2.9-.9.2-1.8.5-2.7.7,1.3.9,2.6,1.9,3.8,3,1.5,1.4,2.8,3,4,4.6-1.7,0-3.3,0-5,.1"/><path class="cls-2" d="M64.1,33.8c-6.2.3-12.3,2.5-17.3,6.2"/></svg>