<?xml version="1.0" encoding="UTF-8"?><svg id="asia" xmlns="http://www.w3.org/2000/svg" width="235" height="321.9" viewBox="0 0 235 321.9"><defs><style>.cls-1{stroke-linecap:round;stroke-linejoin:round;}.cls-1,.cls-2{fill:none;stroke:#000;}.cls-2{stroke-miterlimit:10;}.cls-3,.cls-4,.cls-5,.cls-6,.cls-7,.cls-8,.cls-9,.cls-10,.cls-11{stroke-width:0px;}.cls-4{fill:#5e7792;}.cls-5{fill:#2f4b57;}.cls-6{fill:#38424d;}.cls-7{fill:#5a4842;}.cls-8{fill:#402d2a;}.cls-9{fill:#94535f;}.cls-10{fill:#b89b8b;}.cls-11{fill:#fff;}</style></defs><path class="cls-6" d="M213.8,213.7c2.5,1.1,3,4.6,1.6,7.1-1.4,2.5-4,4.1-6.6,5.5-7.8,4.2-16.3,7.1-24.6,9.9-1,.3-2.1.7-3,.2h-.4c-.3-5.2,3.5-15.4,6.9-20.8,7.7-.7,14.5-1.5,22.2-2.2,1.3-.1,2.7-.2,3.9.3Z"/><path class="cls-4" d="M71.3,187.1c0-1.3,0-2.6.1-3.9,1.5-9.6,15-6.4,31.3-2.8.3,0,.5.1.7.2,7.4,1.7,9.6,3.7,13.5,4.6.3,0,.7.1,1,.2,4,1.2,9.3,2.9,11.9,4.1,1.3.6,60.4,23,60.1,23.3-.7.6-1.5,1.7-2.3,3-3.3,5.4-7.2,15.6-6.9,20.7,0,.3-53.6-21.3-55.5-21.5-.4,0-.9-.1-1.4-.2h0c-8.3-1.1-28-4.4-36.5-6.1-2.2-.6-3.9-1.1-5.1-1.5-4.6-2.3-10.7-8.6-11-20Z"/><path class="cls-7" d="M104.1,69.7c0-.4-.3-.8-.6-1.3-1-1.8-2.6-3.3-4.6-4.2-1.2-.6-2.6-.9-3.8-1.6-.7-.4-1-1-1-1.7,0-.5.1-1,.3-1.6,1.1-2.9,6.5-2.3,8.2-2.8,2.6-.7,5.2-2.3,7.8-2.7,4.3-.7,7.5,4.2,11.9,3.7,2.2-.3,3.3.5,5.3,1.4,2,.9,2.4,2.1,3.5,4.1,1.5,2.7,4.1,3.7,5.1,6.6,1.2,3.4-.4,5.2.5,8.7.6,2.3,2.3,3.3,2.1,5.7,0,1.3-.2,3.3-.6,4.5-1,2.5-1.8,6.4-2.4,9.1-.9,3.4-3.7,5.9-7.1,6.9.3-.9.6-1.9.8-2.9.9-3.5,1.5-7.5,1-9.8,0,0,0,0,0,0-.2-.8-.3-1.6-.5-2.3-1.1-4.5-2.2-6.8-5.5-8.5-2-1-3.6-3.6-5.1-5.6-1.1-1.5-2.1-3.4-3.9-3.9-1.3-.4-2.7,0-4,.6-1.3.5-2.6,1.2-3.9,1.2-1.3,0-3.2-1.2-3.8-2.3.1-.3.1-.6,0-1Z"/><path class="cls-6" d="M136.4,304.2c1.8,2.1.7,5.5-1.6,7.2-2.3,1.7-5.4,2-8.2,2.1-8.8.4-18.3-3.1-27.1-4.1-1-.1-2.2-.3-2.8-1.1-.5-.6-.5-1.4-.5-2.1,0-3.2.2-5.4.9-8.5,10.6,1.1,15.2.4,23.9-1.1h0c4.1,2.1,8,4.2,11.9,5.6,1.3.5,2.6,1,3.4,1.9Z"/><path class="cls-10" d="M109,105.7l-.2.2c-1.5,7.4,8.5,11.7,11,4.3-4.3-.4-7.1-2.1-10.9-4.6ZM114.8,119.8s0,0,0,0c-.3,0-.6,0-1.1,0-.6,0-1.4-.3-2.3-.5h0c-2.2.8-4.6,4.6-7.6,6.5-.6.5-1.4.9-2.1,1.1h0c0,.1,0,.2.1.3h-.1c-.2.7-.4,1.4-.6,2h0c-3.3.6-8.9-.6-10.9-7.5l-.2-.2c.2-.1.3-.2.5-.4-.3-1-.4-2.8-.4-4.6h0c.5-1.1.6-3.7.5-6.6,0-2-.2-4.2-.4-6.3-.2-2.3-.5-4.4-.7-5.8h0c-.5,0-1-.2-1.4-.4-2.5-1.3-3.7-4.7-3.4-7.7.2-1.7.9-3.5,2.2-4.4,3.9-2.6,3.7,2.9,4.8,4.6.5.8,1.7,1.4,2.5.9.8-.4,1.1-1.5,1.1-2.4,0-.9-.2-1.9.1-2.7.7-1.9,3.2-2.3,4.5-3.9.9-1.1,1-2.6,1-4,0-1.4,0-2.8.5-4.1.8-1.8,2.2-2.1,2.6-3,.5,1.1,2.5,2.3,3.8,2.3,1.4,0,2.7-.6,3.9-1.2,1.3-.5,2.7-1,4-.6,1.8.5,2.8,2.4,3.9,3.9,1.5,2.1,3.1,4.6,5.1,5.6,3.3,1.7,4.4,4,5.5,8.5-1.1-1.6-3.2-2.2-4.5-1.2-.2.4-.2,1.1.2,1.4.4.3.9.3,1.3.5,1.3.3,2.5.9,3.5,1.7,0,0,0,0,0,0,.5,2.3-.2,6.4-1,9.8h-.2c-.8,3.4-2.6,8-6.9,12.7,0,0-4.2,4.9-7.9,5.6ZM128.3,95.5c.3-1.4,0-2.6-.9-2.8-.8-.2-1.7.8-2,2.2-.3,1.4,0,2.6.9,2.8.8.2,1.7-.8,2-2.2ZM115.5,86.8c.5-.1.8-1,.5-1.4-1.2-1.7-4.6-2.4-8.1-1.4-.5.1-.7.8-.5,1.3.2.4.7.7,1.2.8.5,0,1,0,1.5,0,1.5,0,3.1.1,4.6.6.2,0,.5.2.8.1ZM112.8,91.9c.3-1.3,0-2.5-.9-2.7-.8-.2-1.8.8-2.1,2.1-.3,1.3,0,2.5.9,2.7.8.2,1.8-.8,2.1-2.1Z"/><path class="cls-9" d="M114.3,153h0c-9.7,2.6-9.6,1.5-16.2,2.7-.5-8.9.5-17.9,2.9-26.5.2-.6.4-1.3.6-1.9h.1c.8,1.6,1.6,3.3,2.5,5,5.3-2.4,9.2-6.6,9.4-12.4.5,0,.8,0,1.1,0,0,0,0,0,0,0,3.3,1.8,9.5,3.9,10.8,7.7,4.6,13.1,5.4,33.3,4.9,33.8-.2.2-.8-.2-1.7-1.1-3.1-2.9-9.5-10.2-14.6-7.3Z"/><path class="cls-8" d="M130.3,89.4c.2.7.3,1.5.5,2.3-1-.8-2.2-1.4-3.5-1.7-.5-.1-.9-.2-1.3-.5-.4-.3-.4-.9-.2-1.4,1.3-.9,3.4-.3,4.5,1.2Z"/><path class="cls-10" d="M98.1,155.7c6.6-1.2,6.5-.1,16.2-2.7h0c5.1-2.9,11.5,4.4,14.6,7.2l-.6.7c-1,2-2.1,2.2-3,2.8-3.7,1.4-6.8,2.3-9.7,2.7-5.6.9-10.3.2-16.6-.7-2.3-.3-4.7-.7-7.6-1-2.6.9-12,1.2-13-1.3-.8-2.2,2.7-13,5.5-14.3,2.6-1.3,12.2,3.8,12.3,6.8h0c.7,0,1.3-.1,1.8-.2Z"/><path class="cls-3" d="M127.4,92.7c.8.2,1.2,1.4.9,2.8-.3,1.4-1.2,2.4-2,2.2-.8-.2-1.2-1.4-.9-2.8.3-1.4,1.2-2.4,2-2.2Z"/><path class="cls-4" d="M97.1,297.8c-.4,0-.7,0-1.1-.1-.5-1.3,8.1-62.4,7.1-65.1-2.4-6.4-10.5-16.7-15.8-23.9,8.5,1.7,28.2,5.1,36.5,6.1h0c2.6,9.4,4.3,11.7,4.3,19,0,1.1-5.5,61.6-5.6,62.7-.5,0-1,.2-1.5.3-8.8,1.5-13.3,2.3-23.9,1.1Z"/><path class="cls-5" d="M117.9,185.3c-.3,0-.7-.1-1-.2,0,0,0,0,0,0,.3,0,.7.2,1,.3Z"/><path class="cls-9" d="M116.9,185s0,0,0,0c-3.9-.9-6.1-2.9-13.5-4.6v-.3c-2.6-4.2-4.2-9-4.5-14v-.4c6.4.9,11.1,1.6,16.7.7-.8,3,1.2,13.6,1.3,18.4Z"/><path class="cls-8" d="M116,85.4c.3.4,0,1.3-.5,1.4-.3,0-.5,0-.8-.1-1.5-.5-3-.7-4.6-.6-.5,0-1,0-1.5,0-.5,0-1-.3-1.2-.8-.2-.4,0-1.1.5-1.3,3.5-1,6.9-.4,8.1,1.4Z"/><path class="cls-11" d="M119.9,110.2c-2.5,7.3-12.5,3.1-11-4.3l.2-.2c3.7,2.5,6.6,4.1,10.9,4.6Z"/><path class="cls-3" d="M111.9,89.2c.8.2,1.2,1.4.9,2.7-.3,1.3-1.2,2.3-2.1,2.1-.8-.2-1.2-1.4-.9-2.7.3-1.3,1.2-2.3,2.1-2.1Z"/><path class="cls-9" d="M111.4,119.3c.9.3,1.7.4,2.3.5-.2,5.8-4.1,10.1-9.4,12.4-.8-1.7-1.6-3.4-2.5-5,0,0,0-.2-.1-.3h0c.8-.2,1.5-.6,2.1-1.1,3.1-1.9,5.4-5.8,7.6-6.5h0Z"/><path class="cls-7" d="M104.1,69.7c-.2.3-.2.7,0,1-.4.9-1.8,1.3-2.6,3-.6,1.3-.5,2.7-.5,4.1,0,1.4-.1,2.9-1,4-1.2,1.6-3.8,2-4.5,3.9-.3.9-.1,1.8-.1,2.7,0,.9-.2,2-1.1,2.4-.9.5-2,0-2.5-.9-1.1-1.7-.9-7.2-4.8-4.6-1.3.9-2,2.6-2.2,4.4-.3,3,.9,6.4,3.4,7.7.4.2.9.4,1.4.4h0c.3,1.5.5,3.6.7,5.8h-.2c-1.9-1.7-3.6-3.4-5-5.6s-2.1-5.5-2.6-8.5c-.5-2.9-1-5.9-.3-8.7.6-2.4,1.9-4.6,2.7-6.9.9-2.7,1-5.7,2.2-8.4,1.1-2.6,4.5-4.3,7.2-4.6,0,.7.3,1.3,1,1.7,1.2.7,2.5,1,3.8,1.6,1.9.9,3.5,2.4,4.6,4.2.3.5.5.9.6,1.3Z"/><path class="cls-11" d="M103.5,180.2v.3c-.3,0-.5-.1-.8-.2-16.2-3.5-29.8-6.8-31.3,2.8-.1,1.4-.2,2.7-.1,3.9-.9-3.4-1.4-6.7-1.7-10.2h0c2.3-19.7,8.7-37.8,19.3-54.5h0c.3-.3.7-.6,1-.8l.2.2c2,6.9,7.6,8.1,10.9,7.5h0c-2.4,8.6-3.4,17.6-2.9,26.5-.6,0-1.2.2-1.8.4h0c-.1-3.1-9.7-8.1-12.3-6.9-2.8,1.4-6.4,12.1-5.5,14.3,1,2.6,10.4,2.3,13,1.3,2.8.3,5.3.7,7.6,1v.4c.2,4.9,1.8,9.8,4.5,14Z"/><path class="cls-9" d="M90.1,116.5c0,1.8,0,3.6.4,4.6-.2.1-.3.2-.5.4-.3.2-.7.5-1,.8-1.7,1.3-3.3,2.6-4.8,4.1-1.4-2.9-1.5-6.4-.4-9.5.6-1.7,1.7-3.3,3-4.6,1-1,2.2-1.8,3.5-2.4h.4c0,3,0,5.5-.5,6.6h0Z"/><path class="cls-9" d="M71.7,139.5c0-.4,0-.8.1-1.3h0c-4.6,4.2-10.6,9.3-13,11-.4-.2-.8-.5-1.2-.7-3.9-2.7-6.7-7.7-7.6-10.2h0c-.2-.6-.3-1.1-.3-1.3.1-1,13.5-15,14.2-15.7,4-3.7,7.9-7.3,13.3-8.1,3.1-.5,4.6-1,9.5-.9-1.3,1.3-2.3,2.8-3,4.6-1.1,3-1,6.5.4,9.5,1.5-1.4,3.1-2.8,4.8-4.1h0c-10.6,16.8-17,34.9-19.3,54.6h0c-.7-9.4.6-20.1,2.1-37.3h0Z"/><path class="cls-10" d="M43,170h0c2.4.7,4.6,9.4,3.1,11.3-1.7,2-11.1,2.9-12.7,1.8-1.9-1.3.2-8.8,1.5-10.7,2.6-11.9,5.1-17.6,11.2-28.2,1.4-2.4,2.7-4.5,3.9-5.9.8,2.5,3.6,7.5,7.6,10.2-3.1,2.5-1.9,1.3-3.2,2.4-4.6,8.3-8,12.3-11.4,19.1Z"/><path class="cls-1" d="M50,138.3c-.2-.6-.3-1.1-.3-1.3.1-1,13.5-15,14.2-15.7,4-3.7,7.9-7.3,13.3-8.1,3.1-.5,4.6-1,9.5-.9h0"/><path class="cls-1" d="M71.8,138.3c-4.6,4.3-10.6,9.3-13,11-.4-.2-.8-.5-1.2-.7-3.9-2.7-6.7-7.7-7.6-10.2"/><path class="cls-1" d="M50,138.3h0c-1.2,1.4-2.5,3.5-3.9,5.9-6.1,10.6-8.6,16.2-11.2,28.2"/><path class="cls-1" d="M57.6,148.5c-3.1,2.5-1.9,1.3-3.2,2.4-4.6,8.3-8,12.3-11.4,19.1,0,.2-.2.3-.3.5"/><path class="cls-1" d="M43.1,170c2.4.6,4.6,9.3,3.1,11.2-1.7,2-11.1,2.9-12.7,1.8-1.9-1.3.2-8.8,1.5-10.7"/><path class="cls-1" d="M113.4,143c0,4.8.7,7.2,1,10,5.1-2.9,11.5,4.4,14.6,7.3.9.8,1.5,1.3,1.7,1.1.5-.5-.3-20.7-4.9-33.8-1.4-3.8-7.6-5.9-10.8-7.7,0,0-.1,0-.2,0"/><path class="cls-1" d="M125.3,163.8c-3.7,1.4-6.8,2.3-9.7,2.7-5.6.9-10.3.2-16.6-.7-2.3-.3-4.7-.7-7.6-1"/><path class="cls-1" d="M114.8,152.9c-.1,0-.3,0-.4.1-9.7,2.6-9.6,1.5-16.2,2.7-.6,0-1.2.2-1.8.4-.2,0-.4,0-.7.1"/><path class="cls-1" d="M96.3,156c-.1-2.9-9.7-8-12.3-6.8-2.8,1.4-6.4,12.1-5.5,14.3,1,2.6,10.4,2.3,13,1.3"/><path class="cls-1" d="M128.3,161c-1,2-2.1,2.2-3,2.8"/><path class="cls-1" d="M71.6,139.5c-1.5,17.2-2.8,28-2.1,37.3.3,3.5.8,6.8,1.7,10.2l.3.9"/><path class="cls-1" d="M115.6,166.5s0,0,0,0c-.8,3,1.2,13.6,1.3,18.4,0,0,0,0,0,0"/><path class="cls-1" d="M123.9,214.7c.5,0,1,.1,1.4.2,1.9.2,55.5,21.8,55.5,21.5-.3-5.1,3.5-15.3,6.9-20.7.8-1.3,1.6-2.3,2.3-3,.3-.3-58.8-22.7-60.1-23.3-2.7-1.2-7.9-2.9-11.9-4.1-.3-.1-.7-.2-1-.3-1.4-.4-2.5-.8-3.3-1"/><path class="cls-1" d="M87.3,208.6c8.5,1.7,28.2,5.1,36.5,6.1"/><path class="cls-1" d="M82.3,207.1c1.1.5,2.9,1,5.1,1.5"/><path class="cls-1" d="M87.3,208.6c5.3,7.2,13.5,17.5,15.8,23.9,1,2.8-7.6,63.8-7.1,65.1.4,0,.7,0,1.1.1,10.6,1.1,15.2.4,23.9-1.1.5,0,1-.2,1.5-.3,0-1.1,5.6-61.5,5.6-62.7,0-7.3-1.6-9.6-4.3-19h0"/><path class="cls-1" d="M71.4,183.1c-.1,1.4-.2,2.7-.1,3.9.3,11.4,6.4,17.7,11,20"/><path class="cls-1" d="M181.1,236.5c.9.5,2,.1,3-.2,8.4-2.9,16.8-5.8,24.6-9.9,2.6-1.4,5.2-3,6.6-5.5,1.4-2.5,1-6-1.6-7.1-1.2-.5-2.6-.4-3.9-.3-7.7.7-14.5,1.5-22.2,2.2"/><path class="cls-1" d="M118.3,185.4c-.1,0-.2,0-.4,0-.3,0-.7-.1-1-.2-3.9-.9-6.1-2.9-13.5-4.6-.2,0-.5-.1-.7-.2-16.2-3.5-29.8-6.8-31.3,2.8"/><path class="cls-2" d="M71.6,140.2c0-.2,0-.4,0-.7,0-.4,0-.8.1-1.3.3-2.2,1.1-5.2,2-8.2"/><path class="cls-1" d="M97.1,297.8h0c-.8,3.1-1,5.3-.9,8.5,0,.7,0,1.5.5,2.1.6.8,1.8,1,2.8,1.1,8.8,1,18.3,4.5,27.1,4.1,2.9-.1,5.9-.5,8.2-2.1,2.3-1.7,3.4-5.1,1.6-7.2-.9-1-2.2-1.5-3.4-1.9-4-1.5-7.8-3.5-11.9-5.6"/><path class="cls-1" d="M90.7,121.8c0-.2-.2-.4-.2-.6-.3-1-.4-2.8-.4-4.6s.1-4.9,0-6.1"/><path class="cls-1" d="M101.1,129.2c-3.3.7-8.9-.6-10.9-7.5"/><path class="cls-1" d="M111.4,119.3c-2.2.7-4.6,4.6-7.6,6.5-.6.5-1.4.9-2.1,1.1,0,0-.2,0-.3,0"/><path class="cls-1" d="M86.8,112.3c1-1,2.2-1.8,3.5-2.4"/><path class="cls-2" d="M90.5,121.1s0,0,0,0c-.2.1-.3.2-.5.4-.3.2-.7.5-1,.8-1.7,1.3-3.3,2.6-4.8,4.1-1.4-2.9-1.5-6.4-.4-9.5.6-1.7,1.7-3.3,3-4.6"/><path class="cls-2" d="M101.6,126.9c0,0,0,.2.1.3.8,1.7,1.6,3.4,2.5,5,5.3-2.4,9.2-6.6,9.4-12.4,0,0,0-.1,0-.2"/><path class="cls-2" d="M89,122.3c-10.6,16.7-17,34.9-19.3,54.5"/><path class="cls-2" d="M101.6,127.3c-.2.6-.4,1.3-.6,1.9-2.4,8.6-3.4,17.6-2.9,26.5,0,.1,0,.3,0,.4"/><path class="cls-2" d="M98.9,166.2c.3,4.9,1.9,9.8,4.6,14"/><path class="cls-1" d="M114.8,119.8c-.3,0-.6,0-1.1,0-.6,0-1.4-.3-2.3-.5-4.4-1.3-11.7-4.9-17.7-11.2"/><path class="cls-1" d="M130.6,96.7c-.2.8-.4,2.5-.9,4.8-.8,3.4-2.6,8-6.9,12.7,0,0-4.2,4.9-7.9,5.6,0,0,0,0,0,0"/><path class="cls-1" d="M130.4,89.6c0,0,0-.1-.1-.2-1.1-1.6-3.2-2.2-4.5-1.2-.2.4-.2,1.1.2,1.4.4.3.9.3,1.3.5,1.3.3,2.5.9,3.5,1.7,0,0,0,0,.1.1"/><path class="cls-1" d="M107.9,84c3.5-1,6.9-.4,8.1,1.4.3.4,0,1.3-.5,1.4-.3,0-.5,0-.8-.1-1.5-.5-3-.7-4.6-.6-.5,0-1,0-1.5,0-.5,0-1-.3-1.2-.8-.2-.4,0-1.1.5-1.3Z"/><path class="cls-1" d="M122.4,99.9c0,7-2.4,6.3-5.2,4.9"/><path class="cls-1" d="M125.4,94.9c-.3,1.4,0,2.6.9,2.8.8.2,1.7-.8,2-2.2.3-1.4,0-2.6-.9-2.8-.8-.2-1.7.8-2,2.2Z"/><path class="cls-1" d="M109.8,91.3c-.3,1.3,0,2.5.9,2.7.8.2,1.8-.8,2.1-2.1.3-1.3,0-2.5-.9-2.7-.8-.2-1.8.8-2.1,2.1Z"/><path class="cls-1" d="M119.9,110.2c-4.3-.4-7.1-2.1-10.9-4.6-.3-.2-.6-.4-.8-.6"/><path class="cls-1" d="M119.9,110.2c-2.5,7.3-12.5,3.1-11-4.3"/><path class="cls-1" d="M89.6,97.8c.3,1.4.5,3.5.7,5.8.2,2.1.3,4.3.4,6.3,0,3,0,5.6-.5,6.6"/><path class="cls-1" d="M94.3,60.9s0,0,0,0c-2.7.3-6.1,2-7.2,4.6-1.2,2.6-1.3,5.6-2.2,8.4-.8,2.4-2.1,4.5-2.7,6.9-.7,2.9-.2,5.8.3,8.7.5,2.9,1,6,2.6,8.5s3.2,3.8,5,5.6"/><path class="cls-1" d="M91.5,96.7c-.4.7-1.1,1-1.9,1-.5,0-1-.1-1.4-.4-2.5-1.3-3.7-4.7-3.4-7.7.2-1.7.9-3.5,2.2-4.4,3.9-2.6,3.7,2.9,4.8,4.6.5.8,1.7,1.4,2.5.9.8-.4,1.1-1.5,1.1-2.4,0-.9-.2-1.9.1-2.7.7-1.9,3.2-2.3,4.5-3.9.9-1.1,1-2.6,1-4,0-1.4,0-2.8.5-4.1.8-1.8,2.2-2.1,2.6-3,.1-.3.1-.6,0-1,0-.4-.3-.8-.6-1.3-1-1.8-2.6-3.3-4.6-4.2-1.2-.6-2.6-.9-3.8-1.6-.7-.4-1-1-1-1.7,0-.5.1-1,.3-1.6,1.1-2.9,6.5-2.3,8.2-2.8,2.6-.7,5.2-2.3,7.8-2.7,4.3-.7,7.5,4.2,11.9,3.7,2.2-.3,3.3.5,5.3,1.4,2,.9,2.4,2.1,3.5,4.1,1.5,2.7,4.1,3.7,5.1,6.6,1.2,3.4-.4,5.2.5,8.7.6,2.3,2.3,3.3,2.1,5.7,0,1.3-.2,3.3-.6,4.5-1,2.5-1.8,6.4-2.4,9.1-.9,3.4-3.7,5.9-7.1,6.9.3-.9.6-1.9.8-2.9.9-3.5,1.5-7.5,1-9.8,0,0,0,0,0,0-.2-.8-.3-1.6-.5-2.3-1.1-4.5-2.2-6.8-5.5-8.5-2-1-3.6-3.6-5.1-5.6-1.1-1.5-2.1-3.4-3.9-3.9-1.3-.4-2.7,0-4,.6-1.3.5-2.6,1.2-3.9,1.2-1.3,0-3.2-1.2-3.8-2.3-.2-.4-.2-.7,0-1,0,0,.1-.1.2-.2"/></svg>