<?xml version="1.0" encoding="UTF-8"?><svg id="asia" xmlns="http://www.w3.org/2000/svg" width="235" height="321.9" viewBox="0 0 235 321.9"><defs><style>.cls-1{stroke-linecap:round;stroke-linejoin:round;}.cls-1,.cls-2{fill:none;stroke:#000;}.cls-2{stroke-miterlimit:10;}.cls-3,.cls-4,.cls-5,.cls-6,.cls-7,.cls-8,.cls-9,.cls-10{stroke-width:0px;}.cls-4{fill:#613937;}.cls-5{fill:#503937;}.cls-6{fill:#d18c74;}.cls-7{fill:#d60148;}.cls-8{fill:#ce8cb3;}.cls-9{fill:#f1579d;}.cls-10{fill:#fff;}</style></defs><path class="cls-5" d="M97.8,294c1,2.2,5.2,3.7,7.4,2.5,1.3-.7,2.1-2,2.7-3.3.5-1.1.3-2.2.8-3,.1-.2.3-.4.5-.5,1.1-.9,1.7-1,2.7,0h0c7.1,3.8,14.3,7.7,21.4,11.5,1.2.7,2.5,1.4,3.3,2.5,1.6,2.4-.1,5.7-2.8,7-2.7,1.3-5.9,1.2-8.9.9-9.2-.9-18.2-3.3-27.2-5.6-1.1-.3-2.3-.6-2.8-1.6-.4-.7-.3-1.5-.2-2.2.5-3.2,1.4-6.4,2.7-9.4h.5c0,.4,0,.8,0,1.2Z"/><path class="cls-6" d="M130.6,173.2c1.2,2.8-1.9,5.7-4.3,7.5-2.5,1.8-3.9,2.6-6.5.8-1.2-.8-2.2-2.1-2.6-3.5,0-.1,0-.2,0-.3-.5-2.5,1-5.2,3.2-6.7,2.2-1.6,0-.8,2.7-1.4,2.9-.9,6.4.8,7.6,3.6Z"/><path class="cls-8" d="M106.2,150.2c4.2,7.2,12.3,16.4,16.7,19.4-2.6.6-.5-.2-2.7,1.4-2.1,1.5-3.6,4.2-3.2,6.7h-.1c-2.5-6.7-17.7-16.2-19.2-21.4h-.4c1.1-6.6,1.9-13.1,1.6-20.2-.3-5-1.9-9.7-3.6-14.4,5.6,5.8,7.4,21.6,11,28.5h0Z"/><path class="cls-9" d="M55.8,183.4c.2.2.5.4.7.6,1,1.9,6.4,7.2,8.4,6.2,1.6-.8,5.3-9.2,4.4-11.6-.9-2.2-9.2-4.3-10.9-2.6h-.1c-1.1-1.6-2-3-2.9-4.4l.4-.2c.9-8.6,1.9-18.6,1.7-25.4h.5c2-.8,3.4-3.4,4.2-5.4.8-2,1.3-5.3,1.4-7.5.3-7.4-4.1-12.2-6.7-13.9v-.2c-.1,0-.1,0-.1,0,.3-.2.6-.3,1-.5.4-.2,3.9-1.6,4.3-1.7h0c.2.3.4.7.6,1.1,1.3,2.2,4.2,4.8,6.1,9.6,2,5.3.7,27.2,1.7,32.8.2,1,.3,2,.9,2.9.6.8,1.7,1.3,2.6.9.8-.4,1.6-5,1.7-5.9.3-3.3,1.2-14.9,1.3-18.2,0-5.9-.1-13.8-.6-15.8-.3-1.5-.8-2.8-1.3-4.1,2.5,2.1,4.6,3.3,5.8,3.6,2.1.6,5.4,1.5,6.4-1h.2c4.6,8.8,1.7,32.1,1.9,41.9,0,.7.1,1.6.8,1.9.5.2,1.1-.1,1.4-.6.3-.5.2-1,.4-1.6,1.7-4.9,3.5-19.2,3.7-23.5.1-3.8-.3-10-.8-13.8-.3-2.5-1.5-5.2-2.9-7.7h.1c1,.5,1.9,1.1,2.4,1.5.3.2.5.5.8.7,1.7,4.7,3.3,9.4,3.6,14.4.4,7.1-.4,13.6-1.6,20.2-1.8,10.4-4.4,21-4.4,34.9,8.4,8.3,19.3,29.7,20.4,42,0,4.8,0,9.5-.2,14.1-5.4,3.5-11.8,5.5-18.8,6.7-8.4,1.4-17.6,1.6-27,1.8-1.7,0-3.6,0-5.7,0-5.9-.2-12.5-1.1-16.5-4.3-.4-.3-.8-.7-1.2-1.1,1-1.9,5.4-10.9,5.5-15,.2-7.7-1.8-37,4.5-53.5.6.5,1.2,1.1,1.8,1.6Z"/><path class="cls-7" d="M113.8,68.1c1.4.8,2.7,1.8,3.8,3.2.7.8-.9,10.4-2.6,11.4-.4-.2-.7-.3-1.1-.4-7.6-3.1-15.7-5.2-24-6.1-5.5-.6-11.1-.7-16.6-.2-2.8-.2-6.1.2-8.9,1.1-.2,0-.3,0-.5,0-.8,0-1.5-.7-1.3-1.6l1.3-10.9c1.3-.5,2.6-1,4-1.4,12.8-3.9,27.2-2.5,39.7,2.3,2.2.8,4.2,1.6,6.1,2.7Z"/><path class="cls-8" d="M113.1,247.2c-.6,14.4-2.4,27.8-4.4,42.9-.5.9-.3,2-.8,3-.6,1.3-1.4,2.6-2.7,3.3-2.2,1.2-6.4-.3-7.4-2.5.6-12.1.5-22.5-2.6-34.2-.3-1.1-.6-4.1-.9-5.8h0c7-1.2,13.4-3.3,18.8-6.7Z"/><path class="cls-6" d="M90.1,116.2c-.9-.3-1.8-.7-2.7-1.1h0c-.6,3.1.5,4.9,0,7.1,0,.2-.1.4-.2.5-1,2.5-4.3,1.6-6.4,1-1.3-.3-3.3-1.5-5.8-3.6-1.2-2.8-2.8-5.2-4.5-7.6h.1c.4-1.8.4-3.4.4-5.3,0,0,.1.1.2.2,4.2-11.3,10.2-25.2,18.9-31.2,8.3.9,16.4,2.9,24,6.1l-.3.8c-.9,3.5-2.6,6.9-3,8.4-.5,1.9.5,14.5-6.5,20.4,0,0-5.2,5.1-8.8,5.7-.9.1-2.9-.4-5.2-1.3ZM91.1,102.2l-.2.2c.4,9.2,8,10,10.3,4.4-4-.5-6.6-2.1-10.1-4.6ZM107.9,94.4c.3-1.4,0-2.7-.8-2.8-.8-.2-1.6.8-1.9,2.2-.3,1.4,0,2.7.8,2.8.7.2,1.6-.8,1.9-2.2ZM92,90.7c.3-1.3,0-2.6-.9-2.7-.8-.2-1.6.8-1.9,2.1-.3,1.4,0,2.6.9,2.8.8.2,1.6-.8,1.9-2.1Z"/><path class="cls-7" d="M113.8,68.1c-1.9-1.1-3.9-1.8-6.1-2.7-12.5-4.8-26.9-6.2-39.7-2.3,2.4-3.9,6.9-6.1,11.4-6.8,4.6-.7,9.2-.1,13.8.5,4.1.5,8.4,1.1,12.2,2.9,3.7,1.8,7.6,4.4,8.4,8.4Z"/><path class="cls-3" d="M107.1,91.6c.7.2,1.1,1.4.8,2.8-.3,1.4-1.2,2.4-1.9,2.2-.8-.2-1.1-1.4-.8-2.8.3-1.4,1.2-2.4,1.9-2.2Z"/><path class="cls-10" d="M101.3,106.8c-2.3,5.6-10,4.8-10.3-4.4l.2-.2c3.5,2.5,6.1,4.2,10.1,4.6Z"/><path class="cls-4" d="M95.6,140.9c-.1,4.3-1.9,18.6-3.7,23.5-.2.5-.1,1.1-.4,1.6-.3.5-.9.8-1.4.6-.7-.3-.8-1.1-.8-1.9-.2-9.8,2.8-33.1-1.9-41.8h-.2c0-.2.1-.4.2-.6.5-2.2-.6-4,0-7.1h0c.9.4,1.8.8,2.7,1.1.6,1,1.2,2.1,1.9,3.2,1.4,2.5,2.6,5.1,2.9,7.7.5,3.8.9,10,.8,13.8Z"/><path class="cls-3" d="M91.1,88c.8.2,1.2,1.4.9,2.7-.3,1.4-1.2,2.3-1.9,2.1-.8-.2-1.2-1.4-.9-2.8.3-1.3,1.2-2.3,1.9-2.1Z"/><path class="cls-4" d="M71,107.2c-2.5-1.7-4.7-4-6.2-6.6-1.1-2-1.9-4.2-2.2-6.5-.6-5.4.5-11.7,1.4-17.1h0c.2,0,.3,0,.5,0,2.8-.9,6.2-1.2,8.9-1.1,5.5-.4,11.1-.4,16.6.2-8.6,6-14.6,19.9-18.9,31.2,0,0-.1,0-.2-.2Z"/><path class="cls-4" d="M70.5,112.5c1.7,2.4,3.4,4.9,4.5,7.6.6,1.3,1,2.7,1.3,4.1.4,2,.7,9.9.6,15.8,0,3.3-.9,14.9-1.3,18.2,0,.9-.9,5.4-1.7,5.9-.9.5-2.1,0-2.6-.9-.6-.8-.8-1.9-.9-2.9-1-5.6.3-27.5-1.7-32.8-1.8-4.8-4.8-7.4-6.1-9.6-.2-.4-.4-.7-.6-1.1-.9-1.6-1.3-2.7-1.5-4.8-.3-4.6,1.9-7.6,4.3-11.5,1.5,2.6,3.7,4.9,6.2,6.6,0,1.9,0,3.4-.4,5.2h-.1Z"/><path class="cls-5" d="M47.3,286.7c5.5,5.4,11,10.8,16.4,16.2,1,1,2,2,2.4,3.2.8,2.7-1.6,5.4-4.4,6-2.8.6-5.8-.4-8.5-1.5-8.3-3.3-16-7.9-23.6-12.4-.9-.5-1.9-1.2-2.2-2.2-.2-.7.1-1.5.4-2.1,1.3-2.9,3.8-7.7,6.6-8.5h.5c-.2,1-.4,1.8-.6,2.5h0c1.3,1.9,7.7,2,8.6,1.1,1-1.1.6-2.6,2-3.1.5-.2,1-.3,1.3-.3.5,0,.8.4,1.2,1.1Z"/><path class="cls-6" d="M58.4,176.2h0c1.6-1.8,10,.3,10.9,2.5,1,2.3-2.7,10.7-4.4,11.6-2,1-7.3-4.2-8.4-6.2-.2-.2-.5-.4-.7-.6-.2-1.3-.5-2.3,0-3.5.2-.6.8-2.5,1.2-2.9.4-.4.9-.7,1.4-.8Z"/><path class="cls-8" d="M61.6,255.6v.2c-4.7,8.8-10.1,21.9-15.6,29.8-.3,0-.8,0-1.3.3-1.3.6-1,2-2,3.1-.9,1-7.3.9-8.6-1h0c.2-.8.4-1.6.6-2.5,2.4-10,5.6-26.6,10.3-34.2h0c4,3.2,10.6,4,16.5,4.3Z"/><path class="cls-8" d="M57.1,142.1c-3.7,6.2-8.3,13.9-9.4,15.2l-.2.4c3.8,5.9,5.5,9.8,8,14,.8,1.4,1.8,2.8,2.9,4.4h.1s0,.1,0,.1c-.5,0-1,.4-1.4.8-.4.5-1,2.3-1.2,2.9-.4,1.3-.1,2.3,0,3.5-.6-.6-1.2-1.1-1.8-1.6-7.2-6.4-11.3-10.8-16-20.2-1.5-3.1-.5-7.8,2-14.4h0c1-2.5,4.5-9.8,6.7-14.3,3.2-6.7,5-11.3,10-13.9v.2c2.8,1.7,7.1,6.5,6.9,13.9,0,2.1-.6,5.5-1.4,7.5-.8,2-2.2,4.5-4.2,5.3h-.5c0-1.4-.1-2.7-.3-3.9h0Z"/><path class="cls-1" d="M113.7,83c-.9,3.5-2.6,6.9-3,8.4-.5,1.9.5,14.5-6.5,20.4,0,0-5.2,5.1-8.8,5.7-.9.1-2.9-.4-5.2-1.3-.9-.3-1.8-.7-2.7-1.1-3-1.4-6.1-3.1-8-4.7-.9-.9-3.1-2.4-4.6-3.5"/><path class="cls-1" d="M110.4,89.2c-.1-2.3-4.4-3.1-5.3-1.9"/><path class="cls-1" d="M95.6,84.3c-1.1-1.7-5.1-3.2-7.4-1.2"/><path class="cls-1" d="M101.3,96.9c2.7,3.6,1.1,5.5-.9,6.1"/><path class="cls-1" d="M105.2,93.8c-.3,1.4,0,2.7.8,2.8.7.2,1.6-.8,1.9-2.2.3-1.4,0-2.7-.8-2.8-.8-.2-1.6.8-1.9,2.2Z"/><path class="cls-1" d="M89.1,90.1c-.3,1.4,0,2.6.9,2.8.8.2,1.6-.8,1.9-2.1.3-1.3,0-2.6-.9-2.7-.8-.2-1.6.8-1.9,2.1Z"/><path class="cls-1" d="M101.3,106.8s0,0,0,0c-4-.5-6.6-2.1-10.1-4.6-.3-.2-.5-.4-.8-.6"/><path class="cls-1" d="M101.4,106.5c0,.1,0,.3-.1.4-2.3,5.6-10,4.8-10.3-4.4"/><path class="cls-1" d="M71,107.1s0,0,0,0c0,1.9,0,3.4-.4,5.2"/><path class="cls-1" d="M87.2,122.7c0-.2.1-.3.2-.5.5-2.2-.6-4,0-7.1"/><path class="cls-2" d="M75,120.1s0,0,0,0c2.5,2.1,4.6,3.3,5.8,3.6,2.1.6,5.4,1.5,6.4-1"/><path class="cls-1" d="M39.8,147.4c0,0,0-.1,0-.2,1-2.5,4.5-9.8,6.7-14.2,3.2-6.7,5-11.3,10-13.9h0c.3-.2.6-.3,1-.5.4-.2,3.9-1.6,4.3-1.7"/><path class="cls-1" d="M61.2,135.1c-.9,1.5-2.4,4.1-4.1,7-3.7,6.2-8.3,13.9-9.4,15.2"/><path class="cls-1" d="M95.3,121.7s0,0,0,0c1.7,4.7,3.3,9.4,3.6,14.4.4,7.1-.4,13.6-1.6,20.2-1.8,10.4-4.4,21-4.4,34.9"/><path class="cls-1" d="M57.1,142.1c.2,1.1.3,2.4.3,3.9.2,6.9-.8,16.9-1.7,25.4"/><path class="cls-1" d="M40,147.2c-2.5,6.6-3.5,11.3-2,14.4,4.7,9.5,8.8,13.8,16,20.2.6.5,1.2,1.1,1.8,1.6.2.2.5.4.7.6"/><path class="cls-1" d="M47.5,157.7c3.8,5.9,5.5,9.8,8,14,.8,1.4,1.8,2.8,2.9,4.4"/><path class="cls-1" d="M92.1,119.4c1,.6,1.9,1.1,2.4,1.6.3.2.5.5.8.7,5.6,5.8,7.4,21.6,11,28.5"/><path class="cls-1" d="M58.4,176.1c1.6-1.7,10,.4,10.9,2.6,1,2.3-2.7,10.7-4.4,11.6-2,1-7.3-4.2-8.4-6.2"/><path class="cls-1" d="M97.8,156.3c1.5,5.2,16.7,14.7,19.2,21.5"/><path class="cls-1" d="M106.1,150c0,0,0,.1.1.2,4.2,7.2,12.3,16.4,16.7,19.4"/><path class="cls-1" d="M123,169.6c-2.6.6-.5-.2-2.7,1.4-2.1,1.5-3.6,4.2-3.2,6.7,0,.1,0,.2,0,.3.4,1.4,1.4,2.7,2.6,3.5,2.5,1.7,4,1,6.5-.8,2.5-1.8,5.6-4.7,4.3-7.5-1.2-2.8-4.7-4.5-7.6-3.6"/><path class="cls-1" d="M54,181.7s0,0,0,0c-6.3,16.5-4.3,45.8-4.5,53.5-.1,4.2-4.5,13.1-5.5,15,.4.4.7.7,1.2,1.1,4,3.2,10.6,4.1,16.5,4.3s4,0,5.7,0c9.5-.1,18.7-.3,27-1.8,7-1.2,13.4-3.2,18.8-6.7,0,0,0,0,0,0"/><path class="cls-1" d="M61.6,255.9c-4.7,8.8-10.1,21.9-15.6,29.8,0,0,0,0,0,0"/><path class="cls-1" d="M45.2,251.4c-4.7,7.6-7.9,24.2-10.3,34.2-.2.9-.4,1.7-.6,2.4"/><path class="cls-1" d="M113.4,233.1c-1.2-12.3-12-33.7-20.4-42"/><path class="cls-1" d="M97.8,294c0-.4,0-.8,0-1.2v-1"/><path class="cls-1" d="M94.4,254c.3,1.8.6,4.7.9,5.8,3.1,11.7,3.2,22.1,2.6,34.2"/><path class="cls-1" d="M113.4,233.1c0,4.8,0,9.5-.2,14.1-.6,14.4-2.4,27.8-4.4,42.9,0,0,0,.2,0,.2"/><path class="cls-1" d="M97.8,293.8c0,0,0,.1,0,.2,1,2.2,5.2,3.7,7.4,2.5,1.3-.7,2.1-2,2.7-3.3.5-1.1.3-2.2.8-3,.1-.2.3-.4.5-.5,1.1-.9,1.7-1,2.7,0h0"/><path class="cls-1" d="M97.4,292.7c-1.3,3-2.2,6.2-2.7,9.4-.1.7-.2,1.5.2,2.2.5.9,1.7,1.3,2.8,1.6,9,2.3,18,4.7,27.2,5.6,3,.3,6.3.4,8.9-.9,2.7-1.3,4.3-4.6,2.8-7-.7-1.1-2-1.8-3.3-2.5-7.1-3.8-14.3-7.7-21.4-11.5"/><path class="cls-1" d="M34,287.4c0,.2,0,.4.2.6,1.3,1.9,7.7,2,8.6,1,1-1.1.6-2.6,2-3.1.5-.2,1-.3,1.3-.3.5,0,.8.4,1.2,1.1,0,0,0,.1.1.2"/><path class="cls-1" d="M34.4,285.4c-2.9.8-5.3,5.6-6.6,8.5-.3.7-.6,1.4-.4,2.1.2,1,1.2,1.7,2.2,2.2,7.7,4.6,15.4,9.1,23.6,12.4,2.7,1.1,5.7,2,8.5,1.5,2.8-.6,5.3-3.3,4.4-6-.4-1.3-1.4-2.3-2.4-3.2-5.5-5.4-11-10.8-16.4-16.2,0,0-.2-.2-.3-.2"/><path class="cls-2" d="M56.7,119.3c2.7,1.7,7,6.5,6.7,13.9,0,2.1-.6,5.5-1.4,7.5-.8,2-2.2,4.5-4.2,5.3"/><path class="cls-1" d="M58.7,176.1c0,0-.2,0-.2,0-.5,0-1,.4-1.4.8-.4.5-1,2.3-1.2,2.9-.4,1.3-.1,2.3,0,3.5,0,0,0,.1,0,.2"/><path class="cls-2" d="M113.8,68.1c1.4.8,2.7,1.8,3.8,3.2.7.8-.9,10.4-2.6,11.4-.4-.2-.7-.3-1.1-.4-7.6-3.1-15.7-5.2-24-6.1-5.5-.6-11.1-.7-16.6-.2-2.8-.2-6.1.2-8.9,1.1-.2,0-.3,0-.5,0-.8,0-1.5-.7-1.3-1.6l1.3-10.9c1.3-.5,2.6-1,4-1.4,12.8-3.9,27.2-2.5,39.7,2.3,2.2.8,4.2,1.6,6.1,2.7Z"/><path class="cls-2" d="M64,77c-.9,5.4-2.1,11.7-1.4,17.1.3,2.3,1,4.5,2.2,6.5,1.5,2.6,3.7,4.9,6.2,6.6,0,0,.1.1.2.2,4.2-11.3,10.2-25.2,18.9-31.2,0,0,.1,0,.2-.1"/><path class="cls-2" d="M67.9,63.3h0c2.4-4,6.9-6.2,11.4-7,4.6-.7,9.2-.1,13.8.5,4.1.5,8.4,1.1,12.2,2.9,3.7,1.8,7.6,4.4,8.4,8.4,0,0,0,.1,0,.2"/><path class="cls-2" d="M64.8,100.5s0,0,0,0c-2.4,3.9-4.6,6.9-4.3,11.5.1,2.1.6,3.2,1.5,4.8.2.3.4.7.6,1.1,1.3,2.2,4.2,4.8,6.1,9.6,2,5.3.7,27.2,1.7,32.8.2,1,.3,2,.9,2.9.6.8,1.7,1.3,2.6.9.8-.4,1.6-5,1.7-5.9.3-3.3,1.2-14.9,1.3-18.2,0-5.9-.1-13.8-.6-15.8-.3-1.5-.8-2.8-1.3-4.1-1.2-2.8-2.8-5.2-4.5-7.6-.6-.8-1.2-1.6-1.8-2.5"/><path class="cls-2" d="M87.4,122.8c4.6,8.7,1.7,32,1.9,41.8,0,.7.1,1.6.8,1.9.5.2,1.1-.1,1.4-.6.3-.5.2-1,.4-1.6,1.7-4.9,3.5-19.2,3.7-23.5.1-3.8-.3-10-.8-13.8-.3-2.5-1.5-5.2-2.9-7.7-.6-1.1-1.3-2.2-1.9-3.2,0,0,0-.2-.2-.3"/></svg>