<?xml version="1.0" encoding="UTF-8"?><svg id="asia" xmlns="http://www.w3.org/2000/svg" width="235" height="321.9" viewBox="0 0 235 321.9"><defs><style>.cls-1{stroke-linecap:round;stroke-linejoin:round;}.cls-1,.cls-2{fill:none;stroke:#000;}.cls-2{stroke-miterlimit:10;}.cls-3,.cls-4,.cls-5,.cls-6,.cls-7,.cls-8,.cls-9{stroke-width:0px;}.cls-4{fill:#4f413b;}.cls-5{fill:#0c6e2c;}.cls-6{fill:#87654b;}.cls-7{fill:#f2cab3;}.cls-8{fill:#fff;}.cls-9{fill:#fbc414;}</style></defs><path class="cls-8" d="M39.5,292.7c-.3,0-.6,0-.9,0-1.5.2-3.1.6-4.6,1.5-2.4,1.1-6.6,3.6-7.2,5.9-.3,1.1-.2,6.2.6,7.1,1,1,2.6,1.1,4.1,1.1,4.7,0,9.4.1,14.1,0,1.7,0,5,.2,6.2-.9,1.4-1.3.5-9.4-.5-11-.1-.2-.3-.4-.4-.5-1.4-1.9-2.8-2.2-5.5-2.8-1.6-.4-3.6-.7-5.8-.6Z"/><path class="cls-5" d="M38.2,271.4c.7,8.2,1.1,13.8.3,21.4.3,0,.6,0,.9,0,2.2-.1,4.2.2,5.8.6,2.7.6,4.1.9,5.5,2.8h0c-.7-8.7.9-17.1,1.9-22-5.1-.3-10.1-1.2-14.5-2.7Z"/><path class="cls-5" d="M78,293.1c0,1.5,0,2,.7,3.3.7-1,1.4-1.7,2.9-2.1,1.3-.3,5.4-.7,7.9-.9.2,0,.5,0,.7,0h0c-.4-2.5-.9-14.4-1.1-23.8-3.4,1.1-8.2,2.3-13.7,3.2,1.6,6.5,2.2,10.7,2.6,20.2Z"/><path class="cls-8" d="M78.7,296.5c-.3.4-.5.8-.7,1.3-.9,1.7-1.4,9.3.4,10.3,1.3.7,16.8,1.2,21.1,1,.4,0,2.9-.6,3.3-.7,1.3-.6.7-7.6,0-8.8-1.5-2.9-7.9-5.2-11.3-6.1,0,0-.6,0-1.3,0-.2,0-.4,0-.7,0-2.5.2-6.5.5-7.9.9-1.5.3-2.3,1-2.9,2.1Z"/><path class="cls-8" d="M52.4,67.6c.4-.4.8-1,1.3-1.6h0c0-2.4-5.4-8.3-7.7-8.3-.5,0-.8.2-.9.5-.9,1.6,2.5,7,3.3,8.1.5.7,1,1.3,1.7,1.8.5.3,1.2.5,1.8.4.2-.3.4-.5.6-.8Z"/><path class="cls-4" d="M56,49.1h0s0,0,0,0c-4.5.3-7.9,1.3-10.9,5.8-.5.8-1,1.5-1.4,2.3l1.5.9c.1-.3.5-.5.9-.5,2.3,0,7.7,5.9,7.7,8.2h0c2.8-3.4,7.5-9.1,8.5-8.9.6-3.4-3.3-6.1-6.2-7.8Z"/><path class="cls-4" d="M55.6,115.6c-.4-1.2-.8-2.4-.7-3.6,0-1.1.7-2.1,1.7-2.5.2-1.1.2,1.2.2-2.1-1.8-1.1-5.8-3.2-7.7-11.7h.1c-1.3-7.9-.2-7.7-.2-14s.1-9.1,2.8-13.1c-.6,0-1.3,0-1.8-.4-.7-.4-1.3-1.1-1.7-1.8-.8-1.1-4.1-6.5-3.3-8.1l-1.5-.9h0c-8.1,13.7-8.7,27.7-7.8,37.2.9,9.9,2,15.4,4.7,24.5,2.9-2,6.7-3,14.4-3.7.2.2.3.4.5.6l.3-.3Z"/><path class="cls-7" d="M85.5,168.3c.4,5.3,1,11.6,1.6,18.4,1.3-.3,2-.7,2.8-3.1.7-2,1.1-3.8,1.8-5.8,1.5-4.7,4.8-7.3,8.4-11.1,2.8-3,5-4.7,6-8.3-2.5-4.9-8.6-8.2-10.2-5.7h0c-.3.6-.6,1.1-.9,1.7h0c-1,2-1.7,4.1-2.6,6-.9,1.8-2,3.1-3.3,4.7-.5.7-2.4,2.2-3.6,3.1Z"/><path class="cls-7" d="M43.7,171.1c-1,0-1.8,0-2.6-.2-5.2-1.1-7.6-9-9.7-12.2-1.2-1.9-2.1-3.1-3.1-4.2,0,0,0,0,0,0-.3-.3-.6-.6-.9-.9-1.6.4-4.7,6.6-6.1,10.9.9,1.2,1.8,2.3,2.7,3.1,2.5,2.2,7.4,6.2,10.4,9.2.5.5.9.9,1.3,1.3-.8,2.7,2.4,6.1,4.4,7.6.3.2.9.6,1.6.9,2.5,1.2,6.6,2.4,6.1-.6,1-.1,2.9-1.5,1.6-2.8,1.1-.3,2.3-1.7,1.4-3.4,3.7-1.4,1.9-3.3,0-4.9.3-3.7-3.8-3.8-7.1-3.9Z"/><path class="cls-9" d="M21.3,164.6c1.4-4.3,4.5-10.5,6.1-10.9.4-.1.7.1.9.9.6-.7,9.8-12.3,13.9-17.3.5,6,2,23.7,1.8,26.9-.1,1.7-.2,4.1-.4,6.9,3.4.1,7.5.2,7.1,3.9,1.9,1.5,3.8,3.5,0,4.9,1,1.7-.2,3.1-1.4,3.4,1.3,1.3-.7,2.7-1.6,2.8.5,3-3.6,1.8-6.1.6,0,.4-2.6,12.8-2.6,12.9-1.4,8.3-5.6,69.8-5.6,69.8,1.5.8,3,1.5,4.7,2.1,4.4,1.6,9.4,2.4,14.5,2.7,7.7.5,15.7-.1,22.6-1.2,5.5-.9,10.3-2,13.7-3.2,1.7-.6,3-1.1,3.9-1.6.8-4.1-3.1-48.6-5.9-81.4-.6-6.8-1.1-13.1-1.6-18.4-.4-4.7-.7-8.6-.9-11.5-.4-5.8.5-11.5,1-17.1h.7c1.3,2.5,8.4,15,8.7,14.8h0c.3-.6.6-1.2.9-1.7h0c1.7-2.6,7.8.8,10.2,5.7.5,1,.8,2,1,3.1.7-2.6,2.4-8-1.6-12.7-.8-1-10.8-18.9-12.6-22.2-1.4-2.7-3-4.7-4.8-6.3,0,0,0,0,0,0-3.3-2.8-7.6-4.1-13.4-4.9-2.3,3-6.2,4.9-10,4.9-3.6,0-7.1-1.7-9.4-4.4-.2-.2-.3-.4-.5-.6-7.7.7-11.4,1.7-14.4,3.7-2.2,1.5-4,3.7-6.6,6.7-4,4.6-16.1,24.3-17.1,26.3-2.8,5.5.5,12.3,4,15.4,0-.7.3-1.7.7-2.7Z"/><path class="cls-3" d="M83.1,83c0-1.7-.7-3.1-1.5-3.1s-1.5,1.4-1.5,3.1.7,3.1,1.5,3.1,1.5-1.4,1.5-3.1Z"/><path class="cls-7" d="M80.1,83c0-1.7.7-3.1,1.5-3.1s1.5,1.4,1.5,3.1-.7,3.1-1.5,3.1-1.5-1.4-1.5-3.1ZM60.9,98.9c1,.9,12.2,3.5,17.3,1.7h0c-1.3,2.3-2.6,3.5-5.6,3.9-1.8.2-5.4-.1-7.2-1.2-1.7-1.1-2.5-1.4-4.5-4.4ZM49.2,95.5h-.1c1.8,8.5,5.9,10.7,7.7,11.8,9,5.6,12.6,7.2,16.3,5.5.5-.2,1-.5,1.6-.9,1.6-1,3.4-2.6,5.7-4.7,4.2-3.7,6-9.6,6.6-15.3.7-6.9,1.4-8.6,1.4-8.6,1-4.6.4-.4.6-4.7,0-10.7-19.8-21.3-26.8-21.7-1-.1-5.7,5.5-8.5,9,0,.9-.5,1.9-1.3,2.3-.2,0-.4.1-.6.2-2.7,4-2.8,8.1-2.8,13.1s-1,6.1.2,14ZM60.7,80.4c1,0,1.8,1.6,1.8,3.6s-.8,3.6-1.8,3.6-1.8-1.6-1.8-3.6.8-3.6,1.8-3.6Z"/><path class="cls-8" d="M78.2,100.7c-5.1,1.7-16.3-.8-17.3-1.7,2.1,2.9,2.8,3.3,4.5,4.4,1.8,1.1,5.4,1.4,7.2,1.2,2.9-.4,4.3-1.6,5.6-3.8h0Z"/><path class="cls-7" d="M66,115.4c4.5,0,6-.1,7.1-2.6-3.7,1.7-7.3,0-16.3-5.5,0,3.3,0,1-.2,2.1,0,.1,0,.4,0,.6.7,4.5,4.2,5.3,9.5,5.3Z"/><path class="cls-9" d="M88.1,120.4s0,0,0,0c0,0,0,0,0,0Z"/><path class="cls-3" d="M62.6,84c0-2-.8-3.6-1.8-3.6s-1.8,1.6-1.8,3.6.8,3.6,1.8,3.6,1.8-1.6,1.8-3.6Z"/><path class="cls-9" d="M66,115.4c-5.2,0-8.8-.9-9.5-5.3,0-.3,0-.5,0-.6-1,.4-1.6,1.5-1.7,2.5-.1,1.2.3,2.5.7,3.6l-.3.3c2.3,2.7,5.8,4.4,9.4,4.4,3.8,0,7.6-1.8,10-4.9v-3.5c-.5.3-1,.6-1.6.9-1.2,2.5-2.7,2.6-7.1,2.6Z"/><path class="cls-6" d="M28.3,154.5c-.2-.7-.5-1-.9-.9.3.3.6.6.9.9Z"/><path class="cls-4" d="M88.2,120c6.8-10.3,8-39.3,6.8-47.5-.8-5.3-2.5-10.7-6-14.8-4.1-4.8-4.6-6.7-10.4-9.2-5.6-2.5-15.2-2.7-22.6.6h0c2.9,1.7,6.8,4.5,6.2,7.8,7,.4,26.8,11.1,26.8,21.7-.2,4.2.4.1-.6,4.7,0,0-.8,1.7-1.4,8.6-.6,5.7-2.4,11.5-6.6,15.3-2.3,2.1-4.1,3.7-5.7,4.7v3.5c5.8.8,10.1,2.1,13.4,4.9,0,0,0,0,0-.1,0,0,0-.1.1-.2Z"/><path class="cls-2" d="M89,78.7c-.2,4.2.4.1-.6,4.7,0,0-.8,1.7-1.4,8.6-.6,5.7-2.4,11.5-6.6,15.3-2.3,2.1-4.1,3.7-5.7,4.7-.5.3-1,.6-1.6.9-3.7,1.7-7.3,0-16.3-5.5-1.8-1.1-5.8-3.2-7.7-11.7,0-.2,0-.4-.1-.7"/><path class="cls-2" d="M85.1,76.2c-1.8-2.1-7-1.1-8.7,0"/><path class="cls-2" d="M64.6,76.2c-1.7-1.3-4.4-1.4-6.5-1"/><path class="cls-2" d="M56.5,110c0-.3,0-.5,0-.6.2-1.1.2,1.2.2-2.1"/><path class="cls-2" d="M74.7,111.9v3.5"/><path class="cls-2" d="M74.7,115.4c5.8.8,10.1,2.1,13.4,4.9,0,0,0,0,0,0,1.8,1.6,3.4,3.6,4.8,6.3"/><path class="cls-2" d="M86,131.5c.1,2.8,0,5.5-.4,8.3-.6,5.6-1.5,11.3-1,17.1.2,2.9.5,6.8.9,11.5.4,5.3,1,11.6,1.6,18.4,2.8,32.8,6.7,77.2,5.9,81.4"/><path class="cls-2" d="M42.1,135.8c0,.3,0,.8.1,1.5.5,6,2,23.7,1.8,26.9-.1,1.7-.2,4.1-.4,6.9,0,0,0,0,0,0"/><path class="cls-2" d="M92.9,268.1c-.9.5-2.2,1.1-3.9,1.6-3.4,1.1-8.2,2.3-13.7,3.2-6.9,1.1-14.9,1.7-22.6,1.2-5.1-.3-10.1-1.2-14.5-2.7-1.7-.6-3.2-1.3-4.7-2.1"/><path class="cls-2" d="M33.5,269.4s4.1-61.5,5.6-69.8c0,0,2.5-12.5,2.6-12.9h0"/><path class="cls-2" d="M89.1,269.7c.2,9.4.7,21.3,1.1,23.7"/><path class="cls-2" d="M78.7,296.5c-.6-1.3-.6-1.8-.7-3.3-.4-9.5-1-13.7-2.6-20.2"/><path class="cls-2" d="M52.8,274.2c-1.1,4.9-2.6,13.3-1.9,21.9"/><path class="cls-2" d="M38.6,292.8c.8-7.6.3-13.2-.3-21.4,0,0,0-.1,0-.2"/><path class="cls-2" d="M80.1,83c0,1.7.7,3.1,1.5,3.1s1.5-1.4,1.5-3.1-.7-3.1-1.5-3.1-1.5,1.4-1.5,3.1Z"/><path class="cls-2" d="M58.9,84c0,2,.8,3.6,1.8,3.6s1.8-1.6,1.8-3.6-.8-3.6-1.8-3.6-1.8,1.6-1.8,3.6Z"/><path class="cls-2" d="M76.4,93.4c0,2.5-5.9,2.1-7.7,1.9"/><path class="cls-2" d="M78.6,100.5c-.1,0-.3.1-.4.1-5.1,1.7-16.3-.8-17.3-1.7,2.1,2.9,2.8,3.3,4.5,4.4,1.8,1.1,5.4,1.4,7.2,1.2,2.9-.4,4.3-1.6,5.6-3.8"/><path class="cls-2" d="M56.5,110c.7,4.5,4.2,5.3,9.5,5.3,4.5,0,6-.1,7.1-2.6"/><path class="cls-2" d="M49.2,95.5c-1.3-7.9-.2-7.6-.2-14s.1-9.1,2.8-13.1c.2-.3.4-.5.6-.8.4-.4.8-1,1.3-1.6,2.8-3.5,7.5-9.1,8.5-9,7,.4,26.8,11.1,26.8,21.7"/><path class="cls-1" d="M106.2,158.4c-1,3.6-3.2,5.4-6,8.3-3.6,3.8-6.9,6.4-8.4,11.1-.7,2-1.1,3.8-1.8,5.8-.8,2.3-1.6,2.7-2.8,3.1-.2,0-.3,0-.5.1"/><path class="cls-1" d="M92.9,126.7c1.7,3.2,11.7,21.2,12.6,22.2,4,4.6,2.4,10.1,1.6,12.7"/><path class="cls-1" d="M86.3,139.8c1.3,2.4,8.4,14.9,8.7,14.7"/><path class="cls-2" d="M85.5,168.3c-.7.6-1.2,1-1,.9"/><path class="cls-1" d="M99.6,148.8c-1.6,1-2.7,2.4-3.6,4-.3.6-.6,1.1-.9,1.7h0c-1,2-1.7,4.1-2.6,6-.9,1.8-2,3.1-3.3,4.7-.5.7-2.4,2.2-3.6,3.1"/><path class="cls-2" d="M42.2,137.3c-4.1,5-13.4,16.6-13.9,17.3"/><path class="cls-1" d="M44,135.1c-.2.2-.9,1-1.8,2.2"/><path class="cls-2" d="M20.6,163.6c.2.3.5.7.7,1,.9,1.2,1.8,2.3,2.7,3.1,2.5,2.2,7.4,6.2,10.4,9.2.5.5.9.9,1.3,1.3"/><path class="cls-2" d="M54.8,115.2c-7.7.7-11.4,1.7-14.4,3.7-2.2,1.5-4,3.7-6.6,6.7-4,4.6-16.1,24.3-17.1,26.3-2.8,5.5.5,12.3,4,15.4"/><path class="cls-1" d="M28.3,154.5c-.3-.3-.6-.6-.9-.9-1-.9-2.2-1.7-4-2.8"/><path class="cls-1" d="M41.1,170.9c-5.2-1.1-7.6-9-9.7-12.2-1.2-1.9-2.1-3.1-3.1-4.2"/><path class="cls-2" d="M41.7,186.7c-.7-.3-1.3-.7-1.6-.9-2-1.5-5.2-4.9-4.4-7.6"/><path class="cls-1" d="M48.6,173.3c.4.4,1.3,1,2.2,1.7,1.9,1.5,3.8,3.5,0,4.9,1,1.7-.2,3.1-1.4,3.4,1.3,1.3-.7,2.7-1.6,2.8.5,3-3.6,1.8-6.1.6"/><path class="cls-1" d="M41.1,170.9c.7.1,1.6.2,2.6.2,3.4.1,7.5.2,7.1,3.9,0,0,0,0,0,0"/><path class="cls-2" d="M62.2,56.9c.6-3.4-3.3-6.1-6.2-7.8"/><path class="cls-2" d="M20.6,167.3c0-.7.3-1.7.7-2.7,1.4-4.3,4.5-10.5,6.1-10.9.4-.1.7.1.9.9,0,0,0,0,0,0"/><path class="cls-2" d="M107.1,161.5c-.1-1.1-.5-2.1-1-3.1-2.5-4.9-8.6-8.2-10.2-5.7"/><path class="cls-2" d="M54.8,115.2c.2.2.3.4.5.6,2.3,2.7,5.8,4.4,9.4,4.4,3.8,0,7.6-1.8,10-4.9"/><path class="cls-2" d="M57.1,109.2c-.2,0-.4,0-.5.2-1,.4-1.6,1.5-1.7,2.5-.1,1.2.3,2.5.7,3.6"/><path class="cls-2" d="M40.5,119.3c0-.1,0-.2,0-.3-2.7-9-3.8-14.6-4.7-24.5-.9-9.5-.2-23.5,7.8-37.2h0c.5-.8.9-1.5,1.4-2.3,3-4.5,6.4-5.5,10.9-5.8,0,0,0,0,0,0,7.4-3.3,17-3,22.6-.6,5.8,2.6,6.3,4.4,10.4,9.2,3.5,4.1,5.2,9.4,6,14.8,1.2,8.2,0,37.1-6.8,47.5,0,0,0,.1-.1.2,0,0,0,.1,0,.1,0,0,0,0,0,0,0,0,0-.2,0-.4,0-.3,0-.5,0-.2"/><path class="cls-2" d="M45,58.1c.1-.3.5-.5.9-.5,2.3,0,7.7,5.9,7.7,8.2h0c0,1-.5,1.9-1.3,2.3-.2,0-.4.1-.6.2-.6,0-1.3,0-1.8-.4-.7-.4-1.3-1.1-1.7-1.8-.8-1.1-4.1-6.5-3.3-8.1Z"/><path class="cls-1" d="M50.8,296.1c.1.2.3.3.4.5,1.1,1.6,2,9.6.5,11-1.2,1.1-4.5.9-6.2.9-4.7,0-9.4,0-14.1,0-1.5,0-3.1-.1-4.1-1.1-.9-.9-.9-5.9-.6-7.1.6-2.3,4.8-4.9,7.2-5.9,1.5-.8,3.1-1.3,4.6-1.5.3,0,.6,0,.9,0,2.2-.1,4.2.2,5.8.6,2.7.6,4.1.9,5.5,2.8Z"/><path class="cls-1" d="M90.1,293.5c.7,0,1.2,0,1.3,0,3.4.9,9.8,3.2,11.3,6.1.6,1.2,1.2,8.2,0,8.8-.4.2-2.9.7-3.3.7-4.3.2-19.9-.3-21.1-1-1.8-1-1.3-8.5-.4-10.3.2-.5.5-.9.7-1.3.7-1,1.4-1.7,2.9-2.1,1.3-.3,5.4-.7,7.9-.9.2,0,.5,0,.7,0Z"/></svg>