<?xml version="1.0" encoding="UTF-8"?><svg id="asia" xmlns="http://www.w3.org/2000/svg" width="235" height="321.9" viewBox="0 0 235 321.9"><defs><style>.cls-1{fill:none;stroke:#000;stroke-linecap:round;stroke-linejoin:round;}.cls-2,.cls-3,.cls-4,.cls-5,.cls-6,.cls-7,.cls-8{stroke-width:0px;}.cls-3{fill:#4c483f;}.cls-4{fill:#4a483f;}.cls-5{fill:#d38e6c;}.cls-6{fill:#b1cee1;}.cls-7{fill:#c1b2a3;}.cls-8{fill:#f6a367;}</style></defs><path class="cls-7" d="M68.1,208.5h.4c0,5.6,13.4,78.7,13.4,83.4,1.8.8,3.4,1.4,4.9,1.8,9.7,2.6,14.7-2.7,20.7-7.7.7-.6,1.4-1.1,2.2-1.7-1.7-9.3-14.1-79-14.5-87.9-4,3-6,2.8-7.9-7.3-.2-1-.4-2.1-.6-3.3-3.3,1.9-8.3,3-13.4,3.1-6.6.2-13.5-1.1-17.5-4.1-.6,3.1-1.3,6.1-2.1,9.2-.9,3.5-1,4.5-3.6,7-2.4,2.2-9.9,1.6-11,1.3-4.6,22.5-21.2,85.2-21.2,85.2.4.5,1,1,1.7,1.6,4.2,3,13.5,6.7,16,7.6,7.2,2.5,4.7,1.8,10.8,0,.4-.1.8-.2,1.3-.4,0,1.5,14.4-65,20.2-88Z"/><path class="cls-4" d="M7.5,298.7c-.5,1.8-.5,7,.8,8.4,1.5,1.6,4.1,1.7,6.4,1.8,7.3.1,14.5.2,21.8.1,2.6,0,7.7.4,9.6-1.3,1.6-1.5,1.4-6.9.6-10.8-6.1,1.8-3.6,2.4-10.8,0-2.5-.8-11.7-4.5-16-7.6h-.6c-.2.1-.3.2-.5.2-3.7,1.7-10.2,5.5-11.2,9.2Z"/><path class="cls-6" d="M42.3,128.9c0,2.8-.3,16.4-.4,18.3-.4,8.7.4,26.5,0,31,3.4.5,7,1.2,6.2,5,2,2.1,3.8,4.6-.7,5.7.9,2.1-.7,3.6-2.1,3.8,1.3,1.7-1.1,3-2.3,3,0,1.9-1.2,2.2-2.9,1.8-.2,1.3-.5,3-.9,5.1,1.1.3,8.6.9,11-1.3,2.6-2.5,2.7-3.5,3.6-7,.7-3,1.4-6.1,2.1-9.2,1.4-7,2.4-14.1,2.7-21.2.2-5.2,0-10.5-.1-15.7-.2-6.7-.4-15.3-.5-24.2-2.6-11.2-21.2-15-22.4-18-2.6,1.8-6.3,6.8-9.6,13.2-5.6,10.8-11,20.6-11.7,24.3-1.7,7.9,12.1,41.6,14.3,43.7.5.4,1.1.4,1.8.1h0c2.3-1.1,5.5-6.1,7.7-9.8,1.3-2.1-9.3-29.4-8.1-28.9,2.2-4.9,8.1-14.1,12.2-19.8Z"/><path class="cls-5" d="M40.2,197.4c1.7.4,3,.1,2.9-1.8,1.1,0,3.6-1.3,2.3-3,1.4-.2,2.9-1.7,2.1-3.8,4.5-1.1,2.7-3.6.7-5.7.8-3.9-2.7-4.5-6.2-5-1.4-.2-2.7-.4-3.8-.7-2.2,3.7-5.4,8.7-7.7,9.8h0c0,2,1.7,4.8,3.9,6.9.9.8,3.7,2.7,6,3.2Z"/><path class="cls-6" d="M57.8,115.6c0-4.8-.2-9.6-.3-13.9,0-2.3-.1-4.6-.2-6.6-5.1.2-11.3,2.5-16.7,4.7-1.1.4-6.5,2.5-5.1,6.2,1.1,3,19.8,6.8,22.4,18,0-2.8,0-5.6-.1-8.3Z"/><path class="cls-3" d="M71.1,23.4c-4.6-.5-44.7,6.3-30.4,36.6,2.4-1.1,4.7.4,4.7,4.1s1.8.7,3.1.4c-1.3-4.8.6-26,8.5-25.5,4,.3,17.3,7.1,27.8.8,9,0,8.5,16.5,6.7,28.5,5.1-5.5,7.6-36.6-.6-41-4.8-2.6-14.4-3.3-19.7-3.9Z"/><path class="cls-5" d="M80,54.6h-.7c-1.1-1.7,2.7-2.6,4.9-2.6,2.8,0,3.9,1.4,3.6,3.2-1.1-2.5-5.9-1.6-7.7-.6ZM45.1,74.6c.3,5,3.8,12,5.8,13.2,2.5,1.8,4.7,3.3,6.7,4.6,9.7,6.2,14.2,6.6,20.2,2.3,1.5-1.1,3.2-2.5,5-4.2,4.2-3.9,6.6-7.6,7.9-13.2.9-3.9.7-6.7.6-9,1.8-12,2.3-28.5-6.7-28.5-10.4,6.2-23.8-.6-27.8-.8-7.8-.5-9.8,20.7-8.5,25.5-1.2.3-3.1.6-3.1-.4,0-3.7-2.3-5.2-4.7-4.1-3.4,1.6-.1,9.2.8,12.2,1,3.4,2.4,3.4,3.6,2.5h.1ZM55.1,54.9c-1,.8-.8-2,1-2.9,1.9-1,6.4-.4,8.1.5-.3.8-.2,1.8-.9,2-2.2-2.2-7.8-1.2-8.2.5ZM58.2,63.5c0-1.8.8-3.3,1.8-3.3s1.8,1.5,1.8,3.3-.8,3.3-1.8,3.3-1.8-1.5-1.8-3.3ZM81.5,63.5c0-1.8.7-3.2,1.6-3.2s1.6,1.4,1.6,3.2-.7,3.2-1.6,3.2-1.6-1.4-1.6-3.2Z"/><path class="cls-3" d="M55.1,54.9c.4-1.7,6-2.7,8.2-.5.6-.2.5-1.1.9-2-1.7-.9-6.3-1.4-8.1-.5-1.8,1-1.9,3.8-1,2.9Z"/><path class="cls-8" d="M57.9,123.9c.2,8.9.3,17.5.5,24.2.2,5.2.3,10.5.1,15.7-.3,7.1-1.3,14.2-2.7,21.2,4.1,3,10.9,4.3,17.5,4.1v-1.1c2.1-22.9,2.3-47.6-1.8-70.3,0,0,0,0,0,0,0,0,0,0-.2-.1,0,0-.1,0-.2,0,0,0-.3-.2-.7-.6-2.5-.9-6.3.4-8.3,2.1-.5.5-1.2,1-1.8.8-.4-.1-.6-.5-.7-.9-.6-1.2-1.2-2.4-1.8-3.6,0,2.8,0,5.5.1,8.3Z"/><path class="cls-8" d="M57.5,101.7c0,4.3.2,9.1.3,13.9.6,1.2,1.2,2.4,1.8,3.6.2.3.4.7.7.9.6.3,1.3-.3,1.8-.8,1.9-1.7,5.8-3,8.3-2.1-2.5-2.1-10.6-9.3-12.9-15.5Z"/><path class="cls-2" d="M60,60.2c-1,0-1.8,1.5-1.8,3.3s.8,3.3,1.8,3.3,1.8-1.5,1.8-3.3-.8-3.3-1.8-3.3Z"/><path class="cls-8" d="M73.4,188v1.1c5.1-.2,10.1-1.2,13.4-3.1-.8-5-1.6-10.8-1.8-15.3-.6-14.8-1.1-30.7-2.6-46.2,0,0,0,0,0,0-.3-2.7-.6-5.4-.9-8.1-1.3-1-3.2-1.4-4.9-1-2.5.5-3.1.8-5,2.5,4.1,22.7,4,47.4,1.8,70.3Z"/><path class="cls-5" d="M71.5,117.6c1.9-1.4,7.3-9.1,6.4-18.5,0-.2,0-.3,0-.5h-.3c0-.7,0-1.4.2-2.1,0-.4.2-.9.3-1.4l-.3-.4c-6,4.3-10.5,4-20.2-2.3l-.4.6c0,.7,0,1.4,0,2.1,0,2.1.1,4.3.2,6.6,2.3,6.2,10.4,13.4,12.9,15.5.3.1.7.3.9.5,0,0,.1,0,.2-.1Z"/><path class="cls-6" d="M81.5,116.3c.3,2.7.6,5.4.9,8.1.9-5.6,6.7-13.8,11.4-17.1.2-.1,1.8-1.1,2.7-2.5.8-1.1,1.1-2.5.1-4-1.6-2.4-15.7-3.2-18.4-4.4h-.4c-.1.7-.2,1.3-.2,2.1h.3c0,.2,0,.3,0,.5h.6c1.2,5.5,2.2,11.4,2.9,17.3Z"/><path class="cls-8" d="M81.5,116.3c-.7-5.9-1.7-11.7-2.9-17.4h-.6c.9,9.5-4.5,17.1-6.4,18.6,0,0,0,.1,0,.2,1.9-1.6,2.5-1.9,5-2.5,1.7-.4,3.6,0,4.9,1Z"/><path class="cls-3" d="M84.2,52c-2.2,0-6,.9-4.9,2.6h.7c1.8-1,6.7-1.9,7.7.6.3-1.8-.7-3.2-3.6-3.2Z"/><path class="cls-2" d="M83.1,60.3c-.9,0-1.6,1.4-1.6,3.2s.7,3.2,1.6,3.2,1.6-1.4,1.6-3.2-.7-3.2-1.6-3.2Z"/><path class="cls-4" d="M86.9,293.8c-1.3,3.1-1.9,12.5,1,13.6,3.9,1.6,20.5,1.4,32.4,1.1,2.6,0,4.6-1.2,5.1-1.4,2-.9,1.2-9.2.3-11-2.4-4.5-12.2-8.1-17.6-9.4l-.4-.6c-6,4.9-11.1,10.2-20.7,7.7Z"/><path class="cls-5" d="M94.6,171.9c.5,7.4,1,14.4,1.5,19.5,1.9-1.2,4.3-4.9,5-6.2.9-1.5,1.2-3.1,1.5-4.8-2.1-1.7-6-5.9-8-8.5Z"/><path class="cls-6" d="M103,180.8c6.1-11.9,16.1-22.5,13.7-29.7-4.5-6.9-12.9-39.7-17.4-43.7-2.2-1.9-2.7-2.4-2.8-2.5-1,1.4-2.5,2.3-2.7,2.5-4.7,3.3-10.5,11.5-11.4,17.1,0,0,0,0,0,0,1.5,15.5,2,31.4,2.6,46.2.2,4.5,1,10.4,1.8,15.3.2,1.2.4,2.3.6,3.3,2,10.1,3.9,10.3,7.9,7.3.4-.3.8-.6,1.2-1-.1-1.2-.3-2.6-.4-4.2-.4-5.1-1-12.2-1.5-19.5-.4-.5-.6-.9-.8-1.3,0-.2.3-.6.7-1.3-.7-11.2-1.3-22.5-1.3-28.1v-4.3h.2c1.2,1.4,7.9,14.7,9.9,18.4-3.3,4.5-7.3,11.2-8.8,14,0,.9.1,1.7.2,2.5,1.9,2.6,5.9,6.8,8,8.5.1.1.3.2.4.3Z"/><path class="cls-1" d="M91.3,68.2c.1,2.2.3,5-.6,9-1.3,5.6-3.7,9.3-7.9,13.2-1.8,1.7-3.5,3.1-5,4.2-6,4.3-10.5,4-20.2-2.3-2-1.3-4.2-2.8-6.7-4.6"/><path class="cls-1" d="M87.8,55.2c-1.1-2.5-5.9-1.6-7.7-.6-.1,0-.3.2-.4.2"/><path class="cls-1" d="M63.3,54.4c-2.2-2.2-7.8-1.2-8.2.5"/><path class="cls-1" d="M81.5,63.5c0,1.8.7,3.2,1.6,3.2s1.6-1.4,1.6-3.2-.7-3.2-1.6-3.2-1.6,1.4-1.6,3.2Z"/><path class="cls-1" d="M58.2,63.5c0,1.8.8,3.3,1.8,3.3s1.8-1.5,1.8-3.3-.8-3.3-1.8-3.3-1.8,1.5-1.8,3.3Z"/><path class="cls-1" d="M73.8,70.2c1.1,1.4,3.1,1.3,4.1,3.5,0,2.8-1.2,3.5-2.9,4.2"/><path class="cls-1" d="M48.5,64.5c-1.2.3-3.1.6-3.1-.4,0-3.7-2.3-5.2-4.7-4.1-3.4,1.6-.1,9.2.8,12.2,1,3.4,2.4,3.4,3.6,2.5"/><path class="cls-1" d="M45.1,73.2c0,.4,0,.9,0,1.4.3,5,3.8,12,5.8,13.2"/><path class="cls-1" d="M95.3,196.6c.5,8.9,12.8,78.6,14.5,87.9-.7.6-1.5,1.1-2.2,1.7-6,4.9-11.1,10.2-20.7,7.7-1.5-.4-3.2-1-4.9-1.8,0-4.8-13.4-77.8-13.4-83.3"/><path class="cls-1" d="M70,201.5c-.4,1.2-1,3.6-1.9,7-5.8,23.1-20.2,89.5-20.2,88-.5.1-.9.2-1.3.4-6.1,1.8-3.6,2.4-10.8,0-2.5-.8-11.7-4.5-16-7.6-.8-.6-1.4-1.1-1.7-1.6,0,0,16.6-62.7,21.2-85.2.4-2.1.7-3.8.9-5.1,0-.3,0-.6.1-.9"/><path class="cls-1" d="M87.8,55.2c.3-1.8-.7-3.2-3.6-3.2-2.2,0-6,.9-4.9,2.6"/><path class="cls-1" d="M63.3,54.4c.6-.2.5-1.1.9-2-1.7-.9-6.3-1.4-8.1-.5-1.8,1-1.9,3.8-1,2.9"/><path class="cls-1" d="M77.6,85.1c-4.6.3-9.9.5-14.5-1.2"/><path class="cls-1" d="M40.6,59.9c-14.3-30.3,25.8-37.1,30.4-36.6,5.3.6,14.8,1.3,19.7,3.9,8.2,4.4,5.7,35.5.6,41,1.8-12,2.3-28.5-6.7-28.5-10.4,6.2-23.8-.6-27.8-.8-7.8-.5-9.8,20.7-8.5,25.5"/><path class="cls-1" d="M55.8,185c4.1,3,10.9,4.3,17.5,4.1,5.1-.2,10-1.2,13.4-3.1h0"/><path class="cls-1" d="M77.6,100.3c0-.6,0-1.2,0-1.7,0-.7,0-1.4.2-2.1,0-.4.2-.9.3-1.4"/><path class="cls-1" d="M96.5,104.8h0c.1.1.6.6,2.8,2.5,4.5,4.1,13,36.8,17.4,43.7,2.4,7.2-7.6,17.7-13.7,29.7"/><path class="cls-1" d="M30.4,187.3c2.3-1.1,5.5-6.1,7.7-9.8,1.3-2.1-9.3-29.4-8.1-28.9,2.2-4.9,8.1-14.1,12.2-19.8,1.3-1.7,2.3-3.1,3.1-4"/><path class="cls-1" d="M35.6,105.9c-2.6,1.8-6.3,6.8-9.6,13.2-5.6,10.8-11,20.6-11.7,24.3-1.7,7.9,12.1,41.6,14.3,43.7.5.4,1.1.4,1.8.1"/><path class="cls-1" d="M93.2,122.5v18.8c0,5.6.6,17,1.3,28.1,0,.9.1,1.7.2,2.5.5,7.4,1,14.4,1.5,19.5.1,1.6.3,3,.4,4.2"/><path class="cls-1" d="M42.3,128.9c0,2.8-.3,16.4-.4,18.3-.4,8.7.4,26.5,0,31"/><path class="cls-1" d="M93.4,137c1.2,1.4,7.9,14.7,9.9,18.4,0,0,0,0,0,0"/><path class="cls-1" d="M105.6,152.5c-.7.8-1.5,1.7-2.3,2.9-3.3,4.5-7.3,11.2-8.8,14-.4.6-.6,1.1-.7,1.3"/><path class="cls-1" d="M45.8,180.9c.4.6,1.4,1.4,2.3,2.3,2,2.1,3.8,4.6-.7,5.7.9,2.1-.7,3.6-2.1,3.8,1.3,1.7-1.1,3-2.3,3,0,1.9-1.2,2.2-2.9,1.8-2.2-.6-5.1-2.4-6-3.2-2.1-2.1-3.8-4.9-3.9-6.9h0"/><path class="cls-1" d="M38.1,177.5c1.1.3,2.4.5,3.8.7,3.4.5,7,1.2,6.2,5,0,0,0,0,0,0"/><path class="cls-1" d="M56.9,98.6c0,1,.2,2,.6,3.1,2.3,6.2,10.4,13.4,12.9,15.5.5.4.7.6.7.6,0,0,.1,0,.2,0,0,0,.1,0,.2-.1,1.9-1.4,7.3-9.1,6.4-18.5,0-.2,0-.3,0-.5"/><path class="cls-1" d="M103,180.8c-.1,0-.3-.2-.4-.3-2.1-1.7-6-5.9-8-8.5-.4-.5-.6-.9-.8-1.3"/><path class="cls-1" d="M102.6,180.1c0,.1,0,.3,0,.4-.3,1.7-.6,3.3-1.5,4.8-.8,1.3-3.2,5-5,6.2-.4.3-.8.4-1.1.4"/><path class="cls-1" d="M58.2,125.6c0-.6-.1-1.2-.3-1.7-2.6-11.2-21.2-15-22.4-18-1.4-3.7,4-5.8,5.1-6.2,5.4-2.1,11.6-4.4,16.7-4.7.3,0,.6,0,.9,0"/><path class="cls-1" d="M78.2,96.5c2.7,1.2,16.8,1.9,18.4,4.4,1,1.5.6,2.9-.1,4-1,1.4-2.5,2.3-2.7,2.5-4.7,3.3-10.5,11.5-11.4,17.1"/><path class="cls-1" d="M57.3,93c0,.7,0,1.4,0,2.1,0,2.1.1,4.3.2,6.6,0,4.3.2,9.1.3,13.9,0,2.8,0,5.5.1,8.3.2,8.9.3,17.5.5,24.2.2,5.2.3,10.5.1,15.7-.3,7.1-1.3,14.2-2.7,21.2-.6,3.1-1.3,6.1-2.1,9.2-.9,3.5-1,4.5-3.6,7-2.4,2.2-9.9,1.6-11,1.3-.1,0-.2,0-.1,0"/><path class="cls-1" d="M78.6,99c1.2,5.6,2.2,11.4,2.9,17.4.3,2.7.6,5.4.9,8.1,0,0,0,0,0,0,1.5,15.5,2,31.4,2.6,46.2.2,4.5,1,10.4,1.8,15.3.2,1.2.4,2.3.6,3.3,2,10.1,3.9,10.3,7.9,7.3.4-.3.8-.6,1.2-1"/><path class="cls-1" d="M82.8,118.3c-.2-.8-.7-1.5-1.4-2-1.3-1-3.2-1.4-4.9-1-2.5.5-3.1.8-5,2.5,0,0,0,0,0,0,0,0,0,0-.2-.1-.3-.2-.6-.4-.9-.5-2.5-.9-6.3.4-8.3,2.1-.5.5-1.2,1-1.8.8-.4-.1-.6-.5-.7-.9-.6-1.2-1.2-2.4-1.8-3.6-.2-.3-.3-.7-.5-1"/><path class="cls-1" d="M71.4,116.9c0,.2,0,.4.1.7,0,0,0,.1,0,.2,4.1,22.7,4,47.4,1.8,70.3"/><path class="cls-1" d="M19.2,289.3c-.2,0-.3.1-.5.2-3.7,1.7-10.2,5.5-11.2,9.2-.5,1.8-.5,7,.8,8.4,1.5,1.6,4.1,1.7,6.4,1.8,7.3.1,14.5.2,21.8.1,2.6,0,7.7.4,9.6-1.3,1.6-1.5,1.4-6.9.6-10.8"/><path class="cls-1" d="M87.1,293.4c0,.1-.1.3-.2.4-1.3,3.1-1.9,12.5,1,13.6,3.9,1.6,20.5,1.4,32.4,1.1,2.6,0,4.6-1.2,5.1-1.4,2-.9,1.2-9.2.3-11-2.4-4.5-12.2-8.1-17.6-9.4"/></svg>