<?xml version="1.0" encoding="UTF-8"?><svg id="asia" xmlns="http://www.w3.org/2000/svg" width="235" height="321.9" viewBox="0 0 235 321.9"><defs><style>.cls-1{stroke-linecap:round;stroke-linejoin:round;}.cls-1,.cls-2{fill:none;stroke:#000;}.cls-2{stroke-miterlimit:10;}.cls-3,.cls-4,.cls-5,.cls-6,.cls-7,.cls-8,.cls-9,.cls-10,.cls-11,.cls-12,.cls-13,.cls-14,.cls-15{stroke-width:0px;}.cls-4{fill:#f6f8f9;}.cls-5{fill:#f9f9f9;}.cls-6{fill:#2b2b2b;}.cls-7{fill:#6fa1cd;}.cls-8{fill:#886553;}.cls-9{fill:#886452;}.cls-10{fill:#372d25;}.cls-11{fill:#1d4389;}.cls-12{fill:#dfb390;}.cls-13{fill:#cca285;}.cls-14{fill:#906648;}.cls-15{fill:#fff;}</style></defs><path class="cls-9" d="M114,299.7c0-2.1-6.1-5.7-10.8-8.9-4.2-.4-7.1-.3-10.3,0-2,.3-4.2.6-6.9,1.2-.6.1-2.8,1.7-3.6,2.7-.1.7-.2,1.3-.2,1.8-.1,2.3-.1,2.9.5,4,2.1,3.6,3.4,6,7.6,7.2l.2-2c-.6,0-1.1-.2-1.6-.4-1.9-.8-3.6-4.4-1.9-5.3,2.8-1.6,14.4-1.7,17-1.7,3.3,0,9.8-.5,9.9,3.2h0s0,0,0,0c0-.6,0-1.2,0-1.9Z"/><path class="cls-12" d="M87.1,300.1c-1.7,1,0,4.6,1.9,5.3.5.2,1,.3,1.6.4,1.5.2,3.2,0,4.7-.1,4.3-.1,7.9-.2,12.2-.5,5.9-.4,6.5-2.7,6.5-3.6h0c0-3.8-6.6-3.3-9.9-3.3-2.6,0-14.3.2-17,1.7Z"/><path class="cls-9" d="M90.4,307.8c3,.9,7.6,1.2,15,.8,9.6-.5,8.9-2.9,8.6-7h0c0,.9-.6,3.1-6.5,3.6-4.3.3-7.9.4-12.2.5-1.5,0-3.2.3-4.7.1l-.2,2Z"/><path class="cls-5" d="M30.5,114.5c.2.4.4.8.7,1.2l-.7-1.2ZM97.1,153.2c-.4-6-.8-12.3-1-18.5-.2-6.7-.3-13.2.2-18.8.3-3.9.5-6.8.6-9.2,1.2,2.4,6.1,12.9,7.1,14.8-.2.6-.4,1.2-.7,1.9,4.3-2.6,8.9.5,12.2,3.4.6.5,1.1,1,1.6,1.4,1.1-3.1,4.3-6.1,3.3-9.6-2.2-4.2-14.5-37.5-18.3-43.1-1.5-2.1-17.9-8.7-20.6-9.5-.3,1.7.9,3.6,0,5.1-2,3.3-6.6,5.5-7.5,5.5h0c-.9,0-6.7-2.4-9.9-6.3-1.5-1.8-1.1-4.1-1.7-6.2,0,0,0,0,0,0-3.6,1.9-23.8,9.6-26.3,13.1-16.3,23-20.5,37.3-21.8,40.7-.6,1.5.5,4.8,3,8.5.5-1.1,1.2-2.1,1.9-3,3.6-4.6,9.1-6.9,12.8-6.3-.2-.4-.4-.8-.5-1.1l.6,1.1c.9-1.1,8.5-11.6,13.9-19.2.9,2.5,0,17,.2,19.2.2,2.4-.4,15.9-.8,21.1,3.3.4,6.4,1.4,5.8,5.2,1.9,2.4,3.7,5.4-.7,6.6.8,2.5-.7,4.2-1.9,4.4,1.3,2-1.1,3.5-2.1,3.5,0,.2,0,.4,0,.5,0,.2,0,.4,0,.6-.8,5.1-1.5,10.6-2.2,16.2,2.4,3.1,21.2,4.6,31.9,4.6,19.6,0,19.5-1.9,22.3-3,.2-5.5-.5-14-1.1-23.5Z"/><path class="cls-12" d="M52.1,291.4c.7.2,4.2,2.3,4.9,3.3,0-2.1,0-4.3-.4-5.2-4.8.6-10.9-.9-14.8-3.1-1.2,1.1-3.1,2.7-5.1,4.4,7-.8,8.5-1,15.5.6Z"/><path class="cls-8" d="M98.9,287.3c.9-.8,1.8-1.8,2.8-2.9,0-17.9-2.5-94.9-3.5-107.7-2.8,1.1-2.7,3-22.3,3s-29.6-1.5-31.9-4.6c-5.4,47.3-5.7,108.1-5.7,108.1.5,1.1,1.8,2.2,3.6,3.2,3.9,2.2,10,3.6,14.8,3.1,1.1-.1,2.2-.4,3.1-.8,1.3-17.4,10.5-94.5,13.2-106.7,0,7.4,5.3,98.5,5.3,104.9,2.1.7,4,1.4,5.6,1.9,3.9,1.2,6.7,1.8,9.1,1.5,2.1-.3,3.9-1.3,5.9-3.1Z"/><path class="cls-9" d="M36.6,290.8c-4.6,3.8-10,8.4-10,10.6,0,.8,0,1.5,0,2.1h0c0-4.2,5.4-5.1,8.6-5,2.4,0,13.1-.7,15.8,1.1,1.6,1.1,1.5,4.9-.3,5.8-.5.3-1.2.5-2,.6l.3,1.8c4.2-1.2,5.4-3.5,7.5-6.8.7-1.1.6-1.8.5-4.5,0-.6,0-1.1,0-1.7-.7-1-4.2-3.1-4.9-3.3-7-1.6-8.4-1.4-15.5-.6Z"/><path class="cls-13" d="M103.1,123.4c-.9,2.3-5.9,9.6-7.1,11.2.2,6.2.6,12.6,1,18.5,2.4-.9,4-3,4.7-5.6,1.6-6.2,5.1-9.7,9-14.7,3-3.9,3.2-3.1,4.6-6.1-3.2-2.9-7.9-6-12.2-3.4Z"/><path class="cls-12" d="M86.1,292.1c2.8-.5,4.9-.9,6.9-1.2v-.5c-2.4.3-5.2-.3-9.1-1.5-.5,1.4-1.1,3.9-1.4,5.9.8-1,2.9-2.6,3.6-2.7Z"/><path class="cls-13" d="M81.2,71.1c.9-1.5-.3-3.4,0-5.1.3-1.7.1-4.1.3-6.1-1.9,1.5-3.9,2.5-5.6,2.5-2.6,0-4.8.8-13.3-5.5h0c0,2.4-.4,5.7-.4,7.1.6,2.2.2,4.5,1.7,6.2,3.2,3.8,9,6.2,9.9,6.3h0c.9,0,5.5-2.1,7.5-5.5Z"/><path class="cls-13" d="M31.7,117c-3.8-.6-9.3,1.7-12.8,6.3,4.6,8.4,13.2,18.5,15.1,21.8-1.3,3.5,1.8,8.6,3.8,11,1.3,1.6,7.5,6.1,8.3,2.8,0-.2,0-.4,0-.6,0-.2,0-.3,0-.5,1.1,0,3.4-1.5,2.1-3.5,1.3-.3,2.8-2,1.9-4.4,4.3-1.2,2.6-4.2.7-6.6.6-3.8-2.5-4.8-5.8-5.2-2.1-.3-4.2-.4-5.7-.8v-.3c-2.2-5.4-4.4-13.1-6.6-17.6-.5-1-.8-1.8-1.2-2.4Z"/><path class="cls-10" d="M69.8,12.9c.5-.8.1-2.6,0-3.4-2.3,1.1-8.8,3.8-12.7,5.2-4.3,1.2-3.6,4.7-5.3,10.3,0,.6-.2,1.1-.2,1.5-.3,2.2-.3,3.7-.2,6.2.5.2,1.1.5,1.6,1h.4c-.1-3.5.4-7,1.4-10.3h.3c.2-2.2,2.9-5.2,4.8-6.2,1.9-1.1,11.6-2.8,16-2.5.7,0,1.5.1,2.2.3v-1.5s2-2.9,2-2.9c-2.8.7-7.4,1.8-10.3,2.5-.2,0-.3-.1-.2-.3Z"/><path class="cls-4" d="M69.8,9.3c0,0,0,.1,0,.2,1-.5,1.2-.6,0-.2Z"/><path class="cls-6" d="M80.4,29.7c2.3-.5,7.5-.4,10.3.4-.5-1.4-3.1-3.3-5.8-3.3-2.7,0-5.6.2-4.4,3Z"/><path class="cls-3" d="M64,35.4c0,1.5.5,2.6,1.2,2.6s1.1-1.2,1.1-2.6c0-1.5-.5-2.6-1.2-2.6-.6,0-1.1,1.2-1.1,2.6Z"/><path class="cls-9" d="M26.7,303.6c-.1,4.3-.5,5.5,8.6,5.5s11-.4,13.9-1.2l-.3-1.8c-2,.4-4.5.6-5.9.5-4.1-.2-5.9.4-10,0-5.7-.5-6.2-2.1-6.2-3h0Z"/><ellipse class="cls-3" cx="84.4" cy="35.4" rx="1" ry="2.6"/><path class="cls-6" d="M56.8,29.3c.4,1.2,6-.4,10.9.7.7-.2.3-1,.7-1.9-1.7-1-5.2-1.5-7.3-1-.9.2-4,.9-4.2,2.2Z"/><path class="cls-10" d="M78.3,15c4.2.7,9.4,2.6,12.4,4.9-1.3-1.9-2.9-3.6-4.5-4.4,1.4-.3.2-2.4,1.5-2.8-4-.7-5.4.8-9.5.8v1.5Z"/><path class="cls-11" d="M31.2,115.8c.2.3.3.7.5,1.1,0,0,0,0,0,0l-.6-1.1Z"/><path class="cls-7" d="M30.5,114.5l.7,1.2c-.2-.5-.4-.9-.7-1.2Z"/><path class="cls-12" d="M103.3,290.8c-1.9-1.3-3.6-2.5-4.4-3.5-2,1.9-3.8,2.8-5.9,3.1v.5c3.2-.4,6.1-.4,10.3,0Z"/><path class="cls-14" d="M46.2,158.3c0,.2,0,.4,0,.6,0-.2,0-.4,0-.6Z"/><path class="cls-5" d="M69.8,9.5c0,.7.4,2.5,0,3.4,0,.2,0,.4.2.3,2.9-.8,7.6-1.8,10.3-2.5l-2,2.9c4,0,5.5-1.5,9.5-.8-1.4.3-.2,2.4-1.5,2.8,1.6.8,3.1,2.5,4.5,4.4,1,1.4,1.8,2.9,2.5,4.2-.1-1.1-.2-2.2-.3-3.2-.3-5.3-1.7-11.5-2-16.8-14.9-1.9-25.6-2.8-39.8,1.7.4,3.4.2,17.3.6,20.7,0-.5.1-1,.2-1.5,1.6-5.6.9-9.1,5.3-10.3,3.9-1.5,10.4-4.2,12.7-5.2,0,0,0-.2,0-.2,1.2-.4,1-.2,0,.2Z"/><path class="cls-12" d="M26.7,303.6c0,.9.5,2.5,6.2,3,4.1.4,5.9-.2,10,0,1.4,0,4-.1,5.9-.5.8-.2,1.5-.4,2-.6,1.7-.9,1.9-4.7.3-5.8-2.6-1.8-13.3-1-15.8-1.1-3.1,0-8.5.8-8.6,5Z"/><path class="cls-15" d="M68,50c4.8,6,10.1,5.4,12.8.7-1.1.3-8.3.5-12.8-.7Z"/><path class="cls-13" d="M67.7,30c-4.8-1.1-10.4.5-10.9-.7.2-1.3,3.3-2,4.2-2.2,2.1-.5,5.6,0,7.3,1-.3.9,0,1.7-.7,1.9ZM90.7,30.1c-2.8-.8-8-.9-10.3-.4-1.1-2.8,1.8-3,4.4-3,2.8,0,5.3,1.9,5.8,3.3ZM84.4,37.9c-.6,0-1-1.2-1-2.6s.5-2.6,1-2.6,1,1.1,1,2.6-.5,2.6-1,2.6ZM80.8,50.7c-2.7,4.8-8,5.4-12.8-.7,4.5,1.1,11.7,1,12.8.7ZM65.1,38c-.6,0-1.2-1.2-1.2-2.6,0-1.5.5-2.6,1.1-2.6.6,0,1.2,1.2,1.2,2.6,0,1.5-.5,2.6-1.1,2.6ZM93.2,24.1c-.6-1.3-1.5-2.8-2.5-4.2-3-2.2-8.2-4.2-12.4-4.9-.8-.1-1.6-.2-2.2-.3-4.5-.3-14.1,1.5-16,2.5-1.8,1-4.5,4.1-4.8,6.3h-.3c-1.1,3.3-1.6,6.8-1.4,10.2h-.4c-.6-.5-1.1-.9-1.6-1-2.3-.7-4,2.3-2,8.2,1.3,3.9,4.2,4.6,5.7,4.6,1.5,4.4,3.5,7.8,4.8,9.4.9.7,1.7,1.4,2.5,1.9,8.5,6.3,10.7,5.5,13.3,5.5s3.7-1,5.6-2.5c2.4-1.8,4.7-4.4,6-6.8.9-1.7,1.5-3.2,2.5-5.9,4.7,0,7.3-8.5,6.5-11.9-.1-.5-.3-1-.6-1.3s-1.9-.1-2.3,0h0c0-.7.1-1.5.2-2.2h0c0-2.5-.2-5.2-.4-7.7Z"/><path class="cls-1" d="M91.7,42.1c-.7,2.1-1.3,3.8-1.8,5.1-.9,2.6-1.5,4.2-2.5,5.9-1.3,2.4-3.6,5-6,6.8-1.9,1.5-3.9,2.5-5.6,2.5-2.6,0-4.8.8-13.3-5.5-.8-.6-1.6-1.2-2.5-1.9"/><path class="cls-1" d="M90.7,30.1c-2.8-.8-8-.9-10.3-.4"/><path class="cls-1" d="M67.7,30c-4.8-1.1-10.4.5-10.9-.7"/><path class="cls-1" d="M79.6,44.8c-1.1,2.8-5.4,2.4-7.1,1.7"/><path class="cls-1" d="M53.2,33.8c-.6-.5-1.1-.9-1.6-1-2.3-.7-4,2.3-2,8.2,1.3,3.9,4.2,4.6,5.7,4.6"/><path class="cls-1" d="M54.3,42.1c.3,1.2.6,2.4,1,3.5,1.5,4.4,3.5,7.8,4.8,9.4"/><path class="cls-1" d="M81.2,66c2.7.8,19.2,7.3,20.6,9.5,3.8,5.6,16.1,39,18.3,43.1"/><path class="cls-1" d="M62.1,64c-3.6,1.9-23.8,9.6-26.3,13.1-16.3,23-20.5,37.3-21.8,40.7-.6,1.5.5,4.8,3,8.5"/><path class="cls-1" d="M96.8,91.8c0,6.5.2,9.3,0,14.9-.1,2.4-.3,5.3-.6,9.2-.4,5.6-.4,12.1-.2,18.8.2,6.2.6,12.6,1,18.5.6,9.5,1.3,18.1,1.1,23.5-2.8,1.1-2.7,3-22.3,3s-29.6-1.5-31.9-4.6h0"/><path class="cls-1" d="M45.7,97.8c.9,2.5,0,17,.2,19.2.2,2.4-.4,15.9-.8,21.1"/><path class="cls-1" d="M115.3,126.8c-1.3,3-1.5,2.2-4.6,6.1-3.9,5-7.4,8.5-9,14.7-.7,2.6-2.4,4.7-4.7,5.6,0,0-.2,0-.3.1"/><path class="cls-1" d="M120.2,118.6c1.1,3.5-2.2,6.5-3.3,9.6"/><path class="cls-1" d="M108,112.2c-3.2,4.4-2.9,5.6-4.1,9.3-.2.6-.4,1.2-.7,1.9-.9,2.3-5.9,9.6-7.1,11.2,0,0-.1.2-.2.2"/><path class="cls-1" d="M18.9,123.3c4.6,8.4,13.2,18.5,15.1,21.8"/><path class="cls-1" d="M30.5,114.5c-.8-1.3-1.6-1.9-4.1-3.8"/><path class="cls-1" d="M31.2,115.8c-.2-.5-.4-.9-.7-1.2"/><path class="cls-1" d="M39.6,137c-2.3-5.4-4.5-13.1-6.7-17.6-.5-1-.8-1.8-1.2-2.4-.2-.4-.4-.8-.5-1.1"/><path class="cls-1" d="M48.8,140.6c.4.6,1.3,1.6,2.2,2.7,1.9,2.4,3.7,5.4-.7,6.6.8,2.5-.7,4.2-1.9,4.4,1.3,2-1.1,3.5-2.1,3.5,0,.2,0,.4,0,.5,0,.2,0,.4,0,.6-.9,3.3-7-1.2-8.3-2.8-2-2.4-5.1-7.5-3.8-11"/><path class="cls-1" d="M39.3,137.2c0,0,.2,0,.2,0,1.4.4,3.6.5,5.7.8,3.3.4,6.4,1.4,5.8,5.2,0,0,0,0,0,0"/><path class="cls-1" d="M98.2,176.7c1,12.8,3.5,89.8,3.5,107.7-1,1.1-1.9,2.1-2.8,2.9-2,1.9-3.8,2.8-5.9,3.1-2.4.3-5.2-.3-9.1-1.5-1.6-.5-3.5-1.1-5.6-1.9,0-6.4-5.3-97.6-5.3-104.9"/><path class="cls-1" d="M72.9,182.1c-2.7,12.1-11.9,89.3-13.2,106.7-.9.4-2,.6-3.1.8-4.8.6-10.9-.9-14.8-3.1-1.7-1-3-2.1-3.6-3.2,0,0,.3-60.8,5.7-108.1.6-5.6,1.4-11.1,2.2-16.2,0-.2,0-.4,0-.6"/><path class="cls-1" d="M81.2,66c-.3,1.7.9,3.6,0,5.1-2,3.3-6.6,5.5-7.5,5.5h0c-.9,0-6.7-2.4-9.9-6.3-1.5-1.8-1.1-4.1-1.7-6.2,0,0,0,0,0,0"/><path class="cls-1" d="M62.6,56.9c0,2.3-.4,5.7-.4,7.1,0,.1,0,.2,0,.3"/><path class="cls-1" d="M81.4,59.9c-.2,2,0,4.3-.3,6.1"/><path class="cls-1" d="M90.7,30.1c-.5-1.4-3.1-3.3-5.8-3.3-2.7,0-5.6.2-4.4,3"/><path class="cls-1" d="M67.7,30c.7-.2.3-1,.7-1.9-1.7-1-5.2-1.5-7.3-1-.9.2-4,.9-4.2,2.2"/><path class="cls-1" d="M80.8,50.7c-2.7,4.8-8,5.4-12.8-.7,4.5,1.1,11.7,1,12.8.7Z"/><ellipse class="cls-1" cx="84.4" cy="35.4" rx="1" ry="2.6"/><path class="cls-1" d="M64,35.4c0,1.5.5,2.6,1.2,2.6s1.1-1.2,1.1-2.6c0-1.5-.5-2.6-1.2-2.6-.6,0-1.1,1.2-1.1,2.6Z"/><path class="cls-1" d="M51.9,25c0,.6-.2,1.1-.2,1.5-.3,2.2-.3,3.7-.2,6.2h0"/><path class="cls-1" d="M93.6,31.8c0-2.5-.2-5.2-.4-7.7-.1-1.1-.2-2.2-.3-3.2"/><path class="cls-1" d="M93.1,36c.1-.6.3-1.3.3-1.9,0-.7.1-1.5.2-2.2"/><path class="cls-1" d="M93.5,34c.4-.2,2-.4,2.3,0s.5.8.6,1.3c.8,3.4-1.8,11.9-6.5,11.9"/><path class="cls-1" d="M31.8,117c.9-1.1,8.5-11.6,13.9-19.2h0c1.1-1.5,2.1-2.9,2.9-4.1"/><path class="cls-1" d="M17,126.3c.5-1.1,1.2-2.1,1.9-3,3.6-4.6,9.1-6.9,12.8-6.3,0,0,0,0,0,0l-.6-1.1h0c0,0-.7-1.3-.7-1.3h0"/><path class="cls-1" d="M103.1,123.4c4.3-2.6,8.9.5,12.2,3.4.6.5,1.1,1,1.6,1.4"/><path class="cls-1" d="M96.5,106.2c0,0,.1.2.2.5,1.2,2.4,6.1,12.9,7.1,14.8"/><path class="cls-1" d="M92.9,20.9c-.3-5.3-1.7-11.5-2-16.8-14.9-1.9-25.6-2.8-39.8,1.7"/><path class="cls-1" d="M51,5.9c.4,3.4.2,17.3.6,20.7"/><path class="cls-1" d="M53.6,33.9h0c-.1-3.6.4-7.1,1.4-10.4"/><path class="cls-1" d="M90.4,20.6c1.9,2.2,2.8,8,3.2,11.2h0"/><path class="cls-1" d="M69.8,9.5c0,.7.4,2.5,0,3.4,0,.2,0,.4.2.3,2.9-.8,7.6-1.8,10.3-2.5l-2,2.9c4,0,5.5-1.5,9.5-.8-1.4.3-.2,2.4-1.5,2.8,1.6.8,3.1,2.5,4.5,4.4,1,1.4,1.8,2.9,2.5,4.2.2.3.3.6.4.9"/><path class="cls-1" d="M69.8,9.5c1-.5,1.2-.6,0-.2,0,0,0,.1,0,.2Z"/><path class="cls-1" d="M51.9,25c1.6-5.6.9-9.1,5.3-10.3,3.9-1.5,10.4-4.2,12.7-5.2"/><path class="cls-2" d="M55.3,23.9c0-.1,0-.2,0-.3.2-2.2,2.9-5.3,4.8-6.3,1.9-1.1,11.6-2.8,16-2.5.7,0,1.5.1,2.2.3,4.2.7,9.4,2.6,12.4,4.9,0,0,.2.1.3.2"/><path class="cls-1" d="M73.6,76.4s0,0,0,.1c1.4,5.6,1.1,12.8.8,18.6"/><path class="cls-1" d="M43,284.9c0,.3-.5.8-1.2,1.5-1.2,1.1-3.1,2.7-5.1,4.4-4.6,3.8-10,8.4-10,10.6,0,.8,0,1.5,0,2.1-.1,4.3-.5,5.5,8.6,5.5s11-.4,13.9-1.2c4.2-1.2,5.4-3.5,7.5-6.8.7-1.1.6-1.8.5-4.5,0-.6,0-1.1,0-1.7,0-2.1,0-4.3-.4-5.2,0,0,0,0,0-.1"/><path class="cls-1" d="M26.7,303.6c0,.9.5,2.5,6.2,3,4.1.4,5.9-.2,10,0,1.4,0,4-.1,5.9-.5.8-.2,1.5-.4,2-.6,1.7-.9,1.9-4.7.3-5.8-2.6-1.8-13.3-1-15.8-1.1-3.1,0-8.5.8-8.6,5Z"/><path class="cls-1" d="M36.5,290.9s0,0,0,0c7-.8,8.5-1,15.5.6.7.2,4.2,2.3,4.9,3.3.1.1.1.3.1.3"/><path class="cls-1" d="M104.2,290.9c-.3,0-.6,0-.9,0-4.2-.4-7.1-.3-10.3,0-2,.3-4.2.6-6.9,1.2-.6.1-2.8,1.7-3.6,2.7-.2.3-.4.5-.3.6"/><path class="cls-1" d="M98.3,286.2c0,.3.2.7.5,1.1.8,1,2.5,2.2,4.4,3.5,4.6,3.2,10.8,6.8,10.8,8.9,0,.7,0,1.3,0,1.9.2,4.1,1,6.5-8.6,7-7.4.3-12,0-15-.8-4.2-1.3-5.5-3.7-7.6-7.2-.6-1-.6-1.6-.5-4,0-.5.1-1.1.2-1.8.3-2,.9-4.4,1.4-5.9.2-.5.3-.8.4-1"/><path class="cls-1" d="M90.6,305.8c-.6,0-1.1-.2-1.6-.4-1.9-.8-3.6-4.4-1.9-5.3,2.8-1.6,14.4-1.7,17-1.7,3.3,0,9.8-.5,9.9,3.2h0c0,.9-.6,3.2-6.5,3.6-4.3.3-7.9.4-12.2.5-1.5,0-3.2.3-4.7.1Z"/></svg>