<?xml version="1.0" encoding="UTF-8"?><svg id="asia" xmlns="http://www.w3.org/2000/svg" width="235" height="321.87" viewBox="0 0 235 321.87"><defs><style>.cls-1{stroke-linecap:round;stroke-linejoin:round;}.cls-1,.cls-2{fill:none;stroke:#000;}.cls-3{fill:#272728;}.cls-3,.cls-4,.cls-5,.cls-6,.cls-7,.cls-8,.cls-9,.cls-10,.cls-11{stroke-width:0px;}.cls-4{fill:#00cdff;}.cls-5{fill:#23233f;}.cls-6{fill:#000;}.cls-7{fill:#edd2c0;}.cls-2{stroke-miterlimit:10;}.cls-8{fill:#f1f6fc;}.cls-9{fill:#2f4b57;}.cls-10{fill:#cbaa99;}.cls-11{fill:#fff;}</style></defs><path class="cls-8" d="M214.77,207.84c2.79,1.18,3.27,5.08,1.75,7.82s-4.41,4.52-7.22,6c-8.59,4.56-17.85,7.65-27,10.89-3.33,1.18-7.08-1.83-8.25-3.13.05-.03.07-.05.07-.05-.37-6.78,6.43-15.73,10.37-19.44l.16.18c8.47-.76,17.31-1.81,25.79-2.57,1.47-.14,3.01-.26,4.32.3Z"/><path class="cls-5" d="M64.18,181.46c-.04-1.38,0-2.82.13-4.33,1.62-10.49,16.49-6.96,34.3-3.08,8.81,1.93,11.21,4.16,15.6,5.23.34.08.68.16,1.04.22,4.4,1.36,10.2,3.17,13.15,4.52,1.18.53,36.42,13.45,50.45,20.36,4.8,2.36,6.04,5.21,5.98,5.27-.1.09-.21.19-.32.3-3.94,3.7-10.74,12.66-10.37,19.44,0,0-.03.03-.07.05-.57.35-4.39,2.17-9.52-.37-12.3-6.06-39.52-16.92-41.16-17.1-.46-.05-.97-.11-1.54-.18-9.13-1.15-30.73-4.79-40.06-6.69-2.39-.62-4.33-1.2-5.55-1.69-5.02-2.54-11.71-9.43-12.05-21.93Z"/><path class="cls-3" d="M137.06,54.35c3.46,11.24,1.4,15.64-2.52,26.73-.39,1.08-4.39,9.44-5.35,8.81-1.23-.82-.52-6.04-.55-7.5,0-.33-.03-.67-.07-1-.43-4.13-2.89-8.03-6.48-10.14-.04.72-.07,1.45-.11,2.16-4.1-2.12-7.69-5.22-10.4-8.96-.09.5-.18.99-.26,1.49-5.16-1.55-9.45-5.71-11.18-10.81-5.46,3.98-9.28,19.87-9.95,26.59-.39-1.23-2.36-3.19-3.14-6.29-2.89,6.21-1.58,12.12.08,18.63.18.7.37,1.41.55,2.13-1.14-.49-2.36-1.43-3.56-2.63-3.22-3.18-6.33-8.18-7.77-11.21-3.33-7.01-3.08-14.41-2.22-22.12.85-7.71,4.32-15.52,10.82-19.76,6.69-4.38,15.18-5.19,23.18-4.98,5.31.14,12.19,3.45,17.21,5.23,5.01,1.78,10.16,8.56,11.73,13.64Z"/><path class="cls-8" d="M136.56,303.27c2.01,2.27.78,6.02-1.74,7.84-2.54,1.82-5.88,2.2-9.05,2.34-9.67.45-20.09-3.37-29.69-4.45-1.16-.13-2.43-.33-3.12-1.2-.49-.64-.54-1.49-.54-2.28-.02-3.39.16-5.83.98-9.11,12.74,1.44,14.58.55,24.93-2.14,4.47,2.31,10.39,5.37,14.47,6.88,1.38.51,2.81,1.06,3.76,2.13Z"/><path class="cls-7" d="M104.75,91.22l-.17.26c-1.6,8.15,9.31,12.79,12.09,4.75-4.71-.49-7.82-2.31-11.92-5.02ZM108.49,106.48c-4.58-1.11-13.41-5.11-20.53-12.64l-.83.21c-1.66-6.5-2.97-12.42-.08-18.63.78,3.1,2.75,5.06,3.14,6.29.66-6.72,4.48-22.61,9.95-26.59,1.73,5.1,6.02,9.26,11.18,10.81.09-.49.18-.99.26-1.49,2.71,3.75,6.3,6.84,10.4,8.96.04-.72.07-1.44.11-2.16,3.58,2.12,6.04,6.01,6.48,10.14l-.18.02c-.63,2.08-.63,10.59-8.57,19.25,0,0-4.6,5.47-8.78,6.12-.45.07-1.15,0-2.07-.19-.16-.03-.32-.07-.49-.1ZM125.86,80.06c.36-1.51-.07-2.88-.94-3.06-.88-.18-1.87.9-2.23,2.41-.35,1.51.06,2.88.93,3.06s1.88-.9,2.24-2.41ZM108.93,76.19c.34-1.45-.11-2.79-1.02-2.97s-1.92.85-2.26,2.3c-.35,1.47.11,2.79,1.02,2.98.9.18,1.91-.85,2.26-2.31Z"/><path class="cls-5" d="M111.81,144.04h0c-.13.03-.26.05-.4.09-.09-.78-.2-1.54-.32-2.31l.27-.04c.82-1.05,2.33-1.2,3.66-1.21,4.34-.04,8.69.51,12.88,1.63.13,3.07.06,5.11-.1,5.29l.15.6c-.19,1.74-.56,3.41-1.24,4.77-1.11,2.24-2.33,2.41-3.32,3.08-1.69.66-3.27,1.2-4.77,1.65l-.26-.88c.82-5.54-.78-13.92-6.55-12.68Z"/><path class="cls-5" d="M118.34,294.27c-10.35,2.7-12.18,3.58-24.93,2.14-.14-.01-.28-.03-.43-.05-4.61-6.5,6.92-57.03,4.59-63.56-2.51-7.01-9.98-19.84-15.8-27.73,9.33,1.9,30.94,5.54,40.06,6.69,2.87,10.3,4.7,12.8,4.66,20.81,0,1-3.79,41.21-5.84,56.66-.48,3.62-2.3,4.8-2.31,5.03,0,0-.01,0-.02,0Z"/><path class="cls-6" d="M124.92,77c.87.18,1.3,1.55.94,3.06-.36,1.51-1.37,2.59-2.24,2.41s-1.28-1.55-.93-3.06c.36-1.51,1.35-2.6,2.23-2.41Z"/><path class="cls-4" d="M111.08,141.82c.11.77.22,1.53.32,2.31.14-.04.27-.07.4-.09-11.93,3.21-10.75,1.5-20.15,3.44l-.03-.14c-.11-3.21-10.6-8.78-13.49-7.4-.91.43-1.88,1.74-2.78,3.43-3.93-.76-7.67-2.52-10.76-5.06l-.8-.07c.25-2.79.52-5.76.8-8.92h.03c.04-.51.11-1.08.21-1.7l-.39-.07c-2.16,2.01-5.4,4.54-8.59,6.93l-.13-.17c-2.86-1.76-5.08-4.52-6.19-7.69-1.11-3.17-1.08-6.72.07-9.87l-.03-.03c3.39-3.85,6.31-7.11,6.63-7.4,4.4-4.01,7.63-7.21,13.43-8.4.22,7.63,5.28,14.68,12.03,18.3,6.79,3.64,15.02,4.05,22.51,2.22,6.35-1.55,12.49-4.62,19.01-4.34l.37-.14c2.92,7.71,4.06,18.75,4.34,25.23-4.19-1.12-8.54-1.67-12.88-1.63-1.33.01-2.84.16-3.66,1.21l-.27.04Z"/><path class="cls-11" d="M123.3,116.32c.09.22.17.43.25.65l-.37.14c-6.52-.28-12.66,2.79-19.01,4.34-7.49,1.83-15.71,1.41-22.51-2.22-6.75-3.62-11.81-10.67-12.03-18.3.03,0,.06-.01.09-.02,1.95-.39,8.44-2.25,14.6-1.32h.11c.03,1.57-.05,2.79-.38,3.56l.08.2c.5,9.3,5.29,11.86,14.93,8.09,3.13-2.04,6.18-3.98,9.72-4.79,3.96,2.06,12.92,5.7,14.52,9.69Z"/><path class="cls-10" d="M75.36,143.37c.9-1.7,1.87-3,2.78-3.43,2.89-1.38,13.37,4.19,13.49,7.4l.03.14c9.4-1.94,8.21-.23,20.15-3.44h0c5.77-1.24,7.37,7.14,6.55,12.68l.26.88c-2.08.63-4,1.07-5.82,1.35-8.42,1.31-14.87-.58-26.53-1.86-2.81,1.01-13.1,1.34-14.2-1.47-.66-1.67,1.1-8.11,3.29-12.24Z"/><path class="cls-9" d="M115.25,179.49c-.36-.07-.7-.14-1.04-.22v-.1c.34.11.68.21,1.04.32Z"/><path class="cls-5" d="M114.21,179.17v.1c-4.39-1.07-6.79-3.3-15.6-5.23-17.81-3.88-32.67-7.4-34.3,3.08-.13,1.51-.17,2.95-.13,4.33-3.18-12-2.21-23.12-.38-43.22l.8.07c3.1,2.54,6.83,4.29,10.76,5.06-2.19,4.13-3.95,10.57-3.29,12.24,1.1,2.81,11.39,2.49,14.2,1.47,11.66,1.28,18.11,3.17,26.53,1.86-.84,3.26,1.26,14.94,1.41,20.22Z"/><path class="cls-11" d="M116.67,96.24c-2.78,8.04-13.69,3.4-12.09-4.75l.17-.26c4.1,2.71,7.21,4.53,11.92,5.02Z"/><path class="cls-6" d="M107.9,73.23c.91.18,1.37,1.51,1.02,2.97-.35,1.47-1.37,2.49-2.26,2.31-.91-.19-1.37-1.51-1.02-2.98.34-1.45,1.36-2.48,2.26-2.3Z"/><path class="cls-7" d="M108.49,106.48c.09.04.19.09.29.15-3.54.82-6.59,2.75-9.72,4.79-9.64,3.77-14.43,1.21-14.93-8.09l-.08-.2c.32-.77.41-1.99.38-3.56-.03-1.66-.19-3.7-.32-6.02h.01c1.2,1.18,2.41,2.12,3.56,2.62-.18-.72-.37-1.43-.55-2.13l.83-.21c7.13,7.53,15.95,11.53,20.53,12.64Z"/><path class="cls-5" d="M55.72,134.31l.13.17c-4.22,3.14-8.37,6.03-9.86,7.12l-.27.16c-.7,1.26-1.37,2.44-2.02,3.54l-.2-.12c-3.47-4.08-6.15-6.58-9.38-7.28,1.2-2.35,2.5-4.73,3.93-7.19l.42-.63c.09-.66,6.1-7.66,11.1-13.36l.03.03c-1.15,3.15-1.18,6.7-.07,9.87,1.1,3.16,3.33,5.93,6.19,7.69Z"/><path class="cls-10" d="M33.23,162.72l.1.05c2.59.7,5.05,10.22,3.35,12.29-1.83,2.24-12.22,3.17-13.96,1.99-2.08-1.41.23-9.67,1.62-11.76,2.26-10.32,5.3-18.64,9.78-27.38,3.23.7,5.91,3.2,9.38,7.28l.2.12c-4.05,6.86-7.27,10.95-10.47,17.42Z"/><path class="cls-1" d="M38.46,130.08c.09-.66,6.1-7.66,11.1-13.36,3.39-3.85,6.31-7.11,6.63-7.4,4.4-4.01,7.63-7.21,13.43-8.4.03,0,.06-.01.09-.02,1.95-.39,8.44-2.25,14.6-1.32"/><path class="cls-1" d="M43.49,145.18c-3.47-4.08-6.15-6.58-9.38-7.28-.09-.03-.18-.05-.26-.06"/><path class="cls-1" d="M64.44,127.55c-2.16,2.01-5.4,4.54-8.59,6.93-4.22,3.14-8.37,6.03-9.86,7.12"/><path class="cls-1" d="M38.05,130.71c-1.43,2.46-2.73,4.84-3.93,7.19-4.48,8.74-7.52,17.06-9.78,27.38"/><path class="cls-1" d="M45.72,141.76c-.7,1.26-1.37,2.44-2.02,3.54-4.05,6.86-7.27,10.95-10.47,17.42-.09.19-.18.38-.28.57"/><path class="cls-1" d="M33.33,162.77c2.59.7,5.05,10.22,3.35,12.29-1.83,2.24-12.22,3.17-13.96,1.99-2.08-1.41.23-9.67,1.62-11.76"/><path class="cls-1" d="M127.79,147.49c.16-.18.23-2.22.1-5.29-.28-6.48-1.42-17.52-4.34-25.23-.08-.22-.16-.43-.25-.65-1.6-3.99-10.56-7.63-14.52-9.69-.1-.05-.2-.11-.29-.15-.1-.06-.2-.11-.3-.17"/><path class="cls-1" d="M111.81,144.04c5.77-1.24,7.37,7.14,6.55,12.68"/><path class="cls-1" d="M110.32,133.15c.06,3.93.43,6.39.76,8.67.11.77.22,1.53.32,2.31.14-.04.27-.07.4-.09"/><path class="cls-1" d="M123.38,155.94c-1.69.66-3.27,1.2-4.77,1.65-2.08.63-4,1.07-5.82,1.35-8.42,1.31-14.87-.58-26.53-1.86"/><path class="cls-1" d="M111.9,144.01s-.06.02-.09.03h0c-11.93,3.21-10.75,1.5-20.15,3.44-.24.05-.49.1-.74.16"/><path class="cls-1" d="M91.62,147.34c-.11-3.21-10.6-8.78-13.49-7.4-.91.43-1.88,1.74-2.78,3.43-2.19,4.13-3.95,10.57-3.29,12.24,1.1,2.81,11.39,2.49,14.2,1.47"/><path class="cls-1" d="M127.94,148.09c-.19,1.74-.56,3.41-1.24,4.77-1.11,2.24-2.33,2.41-3.32,3.08"/><path class="cls-1" d="M64.6,129.31c-.28,3.16-.55,6.13-.8,8.92-1.83,20.11-2.81,31.22.38,43.22l.28,1.01"/><path class="cls-1" d="M112.8,158.91s0,.02,0,.03c-.84,3.26,1.26,14.94,1.41,20.22v.1"/><path class="cls-1" d="M81.77,205.08c9.33,1.9,30.94,5.54,40.06,6.69.57.07,1.08.13,1.54.18,1.64.18,28.86,11.04,41.16,17.1,5.13,2.54,8.94.72,9.52.37.05-.03.07-.05.07-.05-.37-6.78,6.43-15.73,10.37-19.44.11-.11.22-.2.32-.3.06-.05-1.18-2.91-5.98-5.27-14.03-6.9-49.27-19.82-50.45-20.36-2.95-1.35-8.75-3.16-13.15-4.52-.36-.11-.7-.22-1.04-.32-1.49-.46-2.75-.85-3.6-1.13"/><path class="cls-1" d="M76.22,203.39c1.22.49,3.16,1.07,5.55,1.69"/><path class="cls-1" d="M81.77,205.08c5.82,7.89,13.29,20.72,15.8,27.73,2.33,6.52-9.2,57.05-4.59,63.56.14.01.28.03.43.05,12.74,1.44,14.58.55,24.93-2.14,0,0,.01,0,.02,0,0-.23,1.83-1.41,2.31-5.03,2.05-15.44,5.84-55.65,5.84-56.66.03-8-1.8-10.51-4.66-20.81"/><path class="cls-1" d="M64.3,177.12c-.13,1.51-.17,2.95-.13,4.33.34,12.5,7.02,19.4,12.05,21.93"/><path class="cls-1" d="M173.92,229.26s.08.1.14.16c1.17,1.3,4.92,4.31,8.25,3.13,9.15-3.24,18.4-6.33,27-10.89,2.81-1.49,5.7-3.27,7.22-6s1.04-6.63-1.75-7.82c-1.31-.56-2.85-.44-4.32-.3-8.47.76-17.31,1.81-25.79,2.57"/><path class="cls-1" d="M115.69,179.57c-.15-.03-.3-.05-.44-.07-.36-.07-.7-.14-1.04-.22-4.39-1.07-6.79-3.3-15.6-5.23-17.81-3.88-32.67-7.4-34.3,3.08"/><path class="cls-2" d="M64.59,130.05c0-.23.01-.47.03-.74.04-.51.11-1.08.21-1.7.39-2.42,1.22-5.58,2.14-8.65"/><path class="cls-1" d="M93.46,296.21c-.02.07-.03.14-.05.2-.82,3.28-1,5.72-.98,9.11,0,.79.05,1.64.54,2.28.68.87,1.96,1.07,3.12,1.2,9.59,1.08,20.01,4.89,29.69,4.45,3.16-.14,6.51-.52,9.05-2.34,2.53-1.83,3.75-5.57,1.74-7.84-.95-1.07-2.38-1.62-3.76-2.13-4.08-1.51-10-4.57-14.47-6.88-.28-.15-.55-.29-.82-.43"/><path class="cls-1" d="M109.12,106.56s-.09.02-.13.03c-.07.01-.14.03-.2.05-3.54.82-6.59,2.75-9.72,4.79-9.64,3.77-14.43,1.21-14.93-8.09"/><path class="cls-1" d="M69.63,100.73c0,.06,0,.13,0,.19.22,7.63,5.28,14.68,12.03,18.3,6.79,3.64,15.02,4.05,22.51,2.22,6.35-1.55,12.49-4.62,19.01-4.34"/><path class="cls-1" d="M64.6,138.31c3.1,2.54,6.83,4.29,10.76,5.06.28.05.56.1.85.15"/><path class="cls-1" d="M49.6,116.75c-1.15,3.15-1.18,6.7-.07,9.87,1.1,3.16,3.33,5.93,6.19,7.69"/><path class="cls-1" d="M128.18,142.27c-.09-.03-.19-.05-.29-.07-4.19-1.12-8.54-1.67-12.88-1.63-1.33.01-2.84.16-3.66,1.21"/><path class="cls-1" d="M111.06,106.77c-.45.07-1.15,0-2.07-.19-.16-.03-.32-.07-.49-.1-4.58-1.11-13.41-5.11-20.53-12.64"/><path class="cls-1" d="M128.4,81.41c-.63,2.08-.63,10.59-8.57,19.25,0,0-4.6,5.47-8.78,6.12"/><path class="cls-1" d="M103.54,67.51c3.87-1.1,7.6-.39,8.9,1.49"/><path class="cls-1" d="M120.29,88.82c-.2,4.33-9.36,1.71-10.62.2"/><path class="cls-1" d="M122.69,79.42c-.35,1.51.06,2.88.93,3.06s1.88-.9,2.24-2.41c.36-1.51-.07-2.88-.94-3.06-.88-.18-1.87.9-2.23,2.41Z"/><path class="cls-1" d="M105.64,75.52c-.35,1.47.11,2.79,1.02,2.98.9.18,1.91-.85,2.26-2.31.34-1.45-.11-2.79-1.02-2.97s-1.92.85-2.26,2.3Z"/><path class="cls-1" d="M116.67,96.24c-4.71-.49-7.82-2.31-11.92-5.02-.3-.2-.61-.4-.92-.61"/><path class="cls-1" d="M116.67,96.24c-2.78,8.04-13.69,3.4-12.09-4.75"/><path class="cls-1" d="M84.11,93.56c.14,2.32.3,4.37.32,6.02.03,1.57-.05,2.79-.38,3.56"/><path class="cls-1" d="M84.12,93.55c-3.22-3.18-6.33-8.18-7.77-11.21-3.33-7.01-3.08-14.41-2.22-22.12.85-7.71,4.32-15.52,10.82-19.76,6.69-4.38,15.18-5.19,23.18-4.98,5.31.14,12.19,3.45,17.21,5.23,5.01,1.78,10.16,8.56,11.73,13.64,3.46,11.24,1.4,15.64-2.52,26.73-.39,1.08-4.39,9.44-5.35,8.81-1.23-.82-.52-6.04-.55-7.5,0-.33-.03-.67-.07-1-.43-4.13-2.89-8.03-6.48-10.14-.04.72-.07,1.45-.11,2.16-4.1-2.12-7.69-5.22-10.4-8.96-.09.5-.18.99-.26,1.49-5.16-1.55-9.45-5.71-11.18-10.81-5.46,3.98-9.28,19.87-9.95,26.59-.39-1.23-2.36-3.19-3.14-6.29-2.89,6.21-1.58,12.12.08,18.63.18.7.37,1.41.55,2.13-1.14-.49-2.36-1.43-3.56-2.63Z"/><rect class="cls-11" x="189.37" y="83.91" width="20.33" height="32.84"/></svg>