<?xml version="1.0" encoding="UTF-8"?><svg id="asia" xmlns="http://www.w3.org/2000/svg" width="235" height="321.9" viewBox="0 0 235 321.9"><defs><style>.cls-1{stroke:#000;stroke-linecap:round;stroke-linejoin:round;}.cls-1,.cls-2{fill:none;}.cls-2{stroke:#231f20;stroke-miterlimit:10;}.cls-3,.cls-4,.cls-5,.cls-6,.cls-7,.cls-8,.cls-9{stroke-width:0px;}.cls-4{fill:#f9f9f9;}.cls-5{fill:#383838;}.cls-6{fill:#2e2e2e;}.cls-7{fill:#d42d55;}.cls-8{fill:#ccada2;}.cls-9{fill:#fff;}</style></defs><path class="cls-5" d="M217.6,210.4c2.8,1.3,3.4,5.3,1.9,8.1-1.5,2.8-4.3,4.5-7.1,6-8.5,4.5-17.7,7.6-26.9,10.6-1.1.4-2.3.7-3.3.2l-.2-.4c-1.6-3.4-5-7.7-5.1-11.4h0c.2,0,.3.1.5.2h0c1,3.9,10.7-6.6,10.2-7.9-.3-.7-2.7-1.6-2.8-3.1,0-.5.1-.9.3-1.3.4-.5,1-.9,1.8-1h.6c8.4,1.7,17.2.3,25.7-.3,1.5-.1,3-.2,4.3.4Z"/><path class="cls-4" d="M187.5,215.7c.6,1.3-9.2,11.9-10.2,8h0c-.2-.1-.3-.2-.5-.3-19.6-8-24.8-1.3-36.7-12.1.4-2.4.8-4.8,1.5-6.8,1.2-3.1,3.1-6,6-7.6.4.2.8.4,1.1.7,14.8,5.5,21.4,8.2,36.2,13.7h0c-.2.4-.4.8-.3,1.3,0,1.5,2.4,2.4,2.8,3.1Z"/><path class="cls-7" d="M114.3,182.7h0c0-.1,0-.1,0-.1,8.8,3.6,22.2,7.8,33.3,14.3-2.9,1.6-4.8,4.5-6,7.6-.7,2-1.1,4.4-1.5,6.8-.3,1.5-.5,3-.9,4.3-2.4,8.7-7.7,15.9-14.7,21.4-1.7,1.4-3.6,2.6-5.5,3.8-3.5,2.1-7.3,3.7-10.7,5.9-2.7,1.7-4.8,2.2-6.2,4.1.4-1.4.7-2.8.9-4.1.5-3.6.2-6.3-1.4-9.5h0c-6.3-10.5-14.5-21.6-22.7-30.6-4.6-4.3-13-14.8-12.7-28.1h0c0-.8-.1-1.4-.2-2.1h.2c4.2-5.8,16.9-2.1,33.4,1.5,8.9,1.9,9.7,3.4,14.5,4.9Z"/><path class="cls-5" d="M112.2,290.1h0c7.1,3.8,14.2,7.6,21.3,11.4,1.2.7,2.5,1.4,3.3,2.5,1.6,2.4-.1,5.7-2.8,7-2.6,1.3-5.9,1.2-8.9.9-9.2-.9-18.2-3.3-27.1-5.6-1.1-.3-2.3-.6-2.8-1.5-.4-.7-.3-1.4-.2-2.2.5-3.2,1.4-6.3,2.7-9.3h.3c0,.1,0,.2,0,.4v.7c.9,2.3,5.2,3.8,7.5,2.6,1.3-.7,2.1-2,2.7-3.3s.2-2.6,1.3-3.5c0,0,.1-.1.2-.2,1-.7,1.5-.8,2.5.2Z"/><path class="cls-4" d="M126.8,155.4c-2-1.5-6.3-6.3-12.6-6h0c-11.2,3-12,1.9-20.8,3.7h0c0-1-.8-2-2-2.9l.2-.2c2-8.3,3.9-17,8.1-24.4.3.3.6.6.9.9,1.3,1.5,2.4,3.2,3.4,4.9,2.4-1.6,4.1-4.2,4.9-7,.8-2.8.9-5.8.8-8.7h-.7c0-.3,0-.6.1-.9h.1c3.3,1.9,12.4,5.4,14,9.3,4.2,10.5,5.1,31.1,4.6,31.6-.2.2-.5,0-1-.4Z"/><path class="cls-6" d="M127.1,71.1c3.1,8.2,1.5,19.5-2.3,27.4-1,2.1-.3,4.8-.4,7.1-.1,2.3-.6,4.7-2.2,6.4-1.5,1.6-3.7,2.4-5.9,2.5-2.2.1-4.4-.3-6.5-.8,1.8-1.2,3.5-2.9,5.1-4.5,1.4-1.4,2.4-2.1,4.4-5.7h.2c1.1-2,2.5-4,2.9-7.1l.8-7.8c.2-2.1.5-4.2.4-6.2-.5-9-7.1-15.3-15.2-18-1.3-.4-2.6-.7-3.7-.7v-.3c-.4-2.9-2-5.7-4.2-7.6l.2-.2c2.9-1.7,10.2-1.7,14.8.2,7.8,3.2,9,8.2,11.7,15.3Z"/><path class="cls-8" d="M89.6,162.2c-.4,0-.8,0-1.2-.1-2.2.8-9.5,1.1-12.2-.4-.5-.3-.8-.6-.9-1-.8-2,2.2-11.5,4.9-14,.2-.2.5-.4.7-.5,1.9-.9,7.5,1.5,10.5,4.1,1.2,1,1.9,2,2,2.8h0c8.8-1.7,9.6-.6,20.8-3.6h0c6.3-.4,10.6,4.4,12.6,6-.2,1-.5,1.9-.9,2.7-1,2.1-2.2,2.2-3.1,2.9-3.8,1.5-6.9,2.3-9.8,2.8-7.5,1.2-13.3-.4-23.4-1.6Z"/><path class="cls-4" d="M124.7,237.1c1.7,5.4-2.5,12.3-5.2,22.2-2.8,10.2-6.2,20.7-9.8,30.5v.2c0,0-.1.1-.2.2-1.1.9-.7,2.2-1.3,3.5s-1.4,2.6-2.7,3.3c-2.2,1.2-6.5-.3-7.4-2.6v-.7c0-.1,0-.3,0-.4-.3-10.4-1.1-26.3,2.2-35.9.7-2,1.4-4.3,2-6.5,1.5-1.9,3.6-2.3,6.2-4.1,3.4-2.2,7.2-3.8,10.7-5.9,1.9-1.2,3.7-2.4,5.5-3.8h0Z"/><path class="cls-8" d="M109.8,113.8c-.2.2-.5.3-.7.5-4.5,2.7-10.1,2.5-18.9-6.5-.6-.7-1.3-1.4-2-2.1-2.7-4.1-4.2-7.1-5.1-12-2.6.7-4.5-4.1-3.8-6.7,2.1-7.8,5-2.4,7.3-4.9,2.3-2.4,3.8-6.5,5.7-9.3,3.5-5.2,6.8-9.1,12.2-8.9,1.1,0,2.4.3,3.7.7,8.1,2.7,14.7,8.9,15.2,18,.1,2.1-.1,4.2-.4,6.2l-.8,7.8c-.3,3.1-1.7,5.2-2.9,7.1h-.2c-2.1,3.6-3.1,4.3-4.4,5.7-1.6,1.7-3.3,3.3-5.1,4.5ZM121.6,80.1c.4-.3.1-.9-.2-1.3-.8-.9-2-1.3-3.2-1.4-1.2,0-2.4,0-3.5.2-.9.2-1.7.7-1.8,1.3,0,.6.7,1.3,1.6,1.4.4,0,.7,0,1.1,0,1.6-.4,3.5,0,5.2,0,.2,0,.5,0,.7-.2ZM119.2,88.5c.1-1.6-.4-3-1.3-3.1-.8,0-1.6,1.2-1.8,2.8-.1,1.6.4,3,1.3,3.1.8,0,1.6-1.2,1.8-2.8ZM106.5,107.1c3-.2,4.4-1.3,5.9-3.6-5.1,1.8-14.7-1.4-15.6-2.5,1.8,3.3,1.8,2.6,3.4,3.9,1.7,1.3,4.5,2.3,6.3,2.2ZM103.7,78.4c1.1-2.7-4.8-3-6.6-2.8-1.2.2-2.4.5-3.2,1.3-.3.3-.7.6-1,.9-.5.5,0,1.2.6,1,1.9-.7,4.6-.4,6.5.2.7.2,1.4.5,2.1.5s1.4-.5,1.6-1.1ZM100.5,86.5c.1-1.6-.4-3-1.3-3.1-.8,0-1.6,1.2-1.8,2.8-.1,1.6.4,3,1.3,3.1.8,0,1.6-1.2,1.8-2.8Z"/><path class="cls-3" d="M121.4,78.9c.3.4.6,1,.2,1.3-.2.2-.5.2-.7.2-1.7,0-3.6-.3-5.2,0-.4,0-.7.1-1.1,0-1,0-1.7-.8-1.6-1.4,0-.6.8-1.1,1.8-1.3,1.1-.2,2.4-.3,3.5-.2,1.2,0,2.4.5,3.2,1.4Z"/><path class="cls-3" d="M117.9,85.4c.8,0,1.4,1.5,1.3,3.1-.1,1.6-.9,2.9-1.8,2.8-.8,0-1.4-1.5-1.3-3.1.1-1.6.9-2.9,1.8-2.8Z"/><path class="cls-5" d="M114.3,182.6h0s0,.1,0,.1c-4.7-1.5-5.6-3-14.5-4.9-16.5-3.6-29.2-7.3-33.4-1.5h-.2c-.2-2.6-.1-4.5.1-6.7h.3c16.6-1.1,33.3,1.5,47.1,10.9h.5c0,.8.1,1.6.1,2.2Z"/><path class="cls-4" d="M56.3,143.8c-4.1-2.7-7.3-7.6-8.4-10.2-.3-.6-.4-1.1-.3-1.4.1-1,12.1-13.7,12.8-14.4,4.1-3.7,7.1-6.7,12.5-7.8.9-.2,3.1-.4,5.9-.6,2.9-.2,6.4-.4,9.3-.4-1.7,1.4-3,3.3-3.8,5.4-1.1,2.8-1.3,5.9-1.4,8.9,2.1-.2,4.3-.6,6.4-.8.9,0,1.8-.2,2.7-.1v.2c-4.7,7.5-8.6,15.8-12,24h0c-2.7,2.7-5.7,12.1-4.9,14.1.1.4.5.7.9,1l-.3.7c1.6,1.8,3.6,3.3,5.8,4.5,2.9-1,5.7-2.6,8-4.6,10.1,1.2,15.9,2.8,23.4,1.6-.7,2.6.7,11.2,1.2,16.6h-.5c-13.8-9.3-30.5-11.9-47.1-10.8h-.3c.4-4.4,1.4-9.7,2.6-22.6h0c0-4.8.2-8.3-.3-12.2-4.6,4.2-8.8,8-11.2,9.7-.4-.2-.7-.4-1.1-.6Z"/><path class="cls-9" d="M112.4,103.5c-1.5,2.3-2.9,3.4-5.9,3.6-1.8.1-4.7-.9-6.3-2.2-1.6-1.3-1.6-.6-3.4-3.9.9,1.1,10.5,4.3,15.6,2.5Z"/><path class="cls-4" d="M99.6,125.6c-1-.9-2-1.7-3.2-2.3v-.2c.2,0,.3,0,.4.1,2.3.8,9.2-1.7,11.9-5.9,0-.2.1.1.4-1.5h.7c.2,3,0,6-.8,8.7-.8,2.8-2.5,5.4-4.9,7-1.1-1.7-2.1-3.4-3.4-4.9-.3-.3-.6-.6-.9-.9Z"/><path class="cls-8" d="M109.1,114.3h0c0,.3,0,.4,0,.6,0,.3,0,.6-.1.8-.2,1.7-.3,1.4-.4,1.5-2.6,4.3-9.6,6.8-11.9,5.9,0,0-.2,0-.2-.1-2.2-1-7.6-6.3-6.9-10.9h.2c.3-2,.1-1.3.4-4.3,0,0,0,0,0,0h0c8.8,9,14.4,9.2,18.9,6.5Z"/><path class="cls-6" d="M88.3,105.6c.7.8,1.3,1.5,2,2.1h0s0,0,0,0h0c-.7.3-1.4.7-2,1.2-2.9,0-6.4.2-9.3.4-2.4-1.3-4.7-3.2-5.1-5.8-.7-4.5,5.1-8.9,3.7-13.2-3.5-10.4,1.2-27,10.5-32.8,3.2-2,8.3-4.8,11.4-2.5.4.3.7.5,1,.8,2.2,2,3.8,4.7,4.2,7.6v.3c-5.4-.2-8.7,3.7-12.2,8.9-1.9,2.8-3.3,6.9-5.7,9.3-2.4,2.4-5.2-2.9-7.3,4.9-.7,2.6,1.2,7.4,3.8,6.7.9,4.9,2.4,8,5.1,12Z"/><path class="cls-3" d="M97,75.7c1.8-.2,7.7,0,6.6,2.8-.2.6-.9,1-1.6,1.1s-1.4-.3-2.1-.5c-1.9-.6-4.6-.9-6.5-.2-.6.2-1.1-.5-.6-1,.3-.3.6-.6,1-.9.8-.8,2-1.1,3.2-1.3Z"/><path class="cls-3" d="M99.3,83.4c.8,0,1.4,1.5,1.3,3.1-.1,1.6-.9,2.9-1.8,2.8-.8,0-1.4-1.5-1.3-3.1.1-1.6.9-2.9,1.8-2.8Z"/><path class="cls-7" d="M96.4,123.3c1.2.6,2.3,1.4,3.2,2.3-4.2,7.4-6.1,16.1-8.1,24.4l-.2.2c-3-2.5-8.6-5-10.5-4.1-.2.1-.5.3-.7.5h0c3.4-8.3,7.3-16.6,12-24.1v-.2c1.2,0,2.5.2,3.6.7.2,0,.5.2.7.3Z"/><path class="cls-4" d="M89.6,112.1c-.6,4.6,4.7,9.9,6.9,10.9v.2c-.3-.1-.6-.2-.8-.3-1.2-.4-2.4-.6-3.6-.7-.9,0-1.8,0-2.7.1-2.1.2-4.2.7-6.4.8.1-3,.4-6.1,1.4-8.9.8-2.1,2.1-4.1,3.8-5.4.6-.5,1.3-.9,2-1.2h0c-.3,3,0,2.3-.4,4.4h-.2Z"/><path class="cls-7" d="M88.4,162c.4,0,.8,0,1.2.1-2.3,2-5.1,3.6-8,4.6-2.2-1.1-4.1-2.7-5.8-4.5l.3-.7c2.7,1.5,10,1.2,12.2.4Z"/><path class="cls-8" d="M39.2,167.3h0c2.4.7,4.7,9.5,3.1,11.5-1.7,2.1-11.3,2.9-13,1.8-1.9-1.3.2-9,1.5-10.9,2.7-12.1,4.3-18.4,11.4-28.6,1.5-2.1,3.4-4.6,5.6-7.4,1,2.6,4.3,7.6,8.4,10.2-1.9,1.3-3.8,2.6-5.6,4-4.7,8.5-8.1,12.5-11.6,19.4Z"/><path class="cls-1" d="M68.9,134.5l-.3.2c-4.6,4.2-8.8,8-11.2,9.7-.4-.2-.7-.4-1.1-.6-4.1-2.7-7.3-7.6-8.4-10.2-.3-.6-.4-1.1-.3-1.4.1-1,12.1-13.7,12.8-14.4,4.1-3.7,7.1-6.7,12.5-7.8.9-.2,3.1-.4,5.9-.6,2.9-.2,6.4-.4,9.3-.4h.2"/><path class="cls-1" d="M48,133.5s0,0,0,0c-2.2,2.8-4.2,5.3-5.6,7.4-7.1,10.2-8.7,16.5-11.4,28.6"/><path class="cls-1" d="M56.4,143.8s0,0,0,0c-1.9,1.3-3.8,2.6-5.6,4-4.7,8.5-8.1,12.5-11.6,19.4,0,.2-.2.4-.3.5"/><path class="cls-1" d="M39.3,167.3c2.4.6,4.7,9.5,3.1,11.4-1.7,2.1-11.3,2.9-13,1.8-1.9-1.3.2-9,1.5-10.9"/><path class="cls-1" d="M110.7,139.8c0,4.9.7,7.1,1,10,.9-.2,1.7-.4,2.5-.4,6.3-.4,10.6,4.5,12.6,6,.5.4.9.6,1,.4.5-.5-.4-21.2-4.6-31.6-1.6-3.9-10.7-7.4-14-9.3"/><path class="cls-1" d="M122.8,161c-3.8,1.5-6.9,2.3-9.8,2.8-7.5,1.2-13.3-.4-23.4-1.6-.4,0-.8,0-1.2-.1"/><path class="cls-1" d="M114.2,149.4c-11.2,3-12,1.9-20.8,3.7-.2,0-.5,0-.7.1"/><path class="cls-1" d="M93.3,153c0-.8-.8-1.8-2-2.8-3-2.5-8.6-5-10.5-4.1-.2.1-.5.3-.7.5-2.7,2.6-5.7,12-4.9,14,.1.4.5.7.9,1,2.7,1.5,10,1.2,12.2.4"/><path class="cls-1" d="M126.9,154.6c0,.3,0,.5-.1.7-.2,1-.5,1.9-.9,2.7-1,2.1-2.2,2.2-3.1,2.9"/><path class="cls-1" d="M66.3,178.4c0,.9.2,1.8.3,2.9"/><path class="cls-1" d="M68.9,147c-1.2,12.9-2.2,18.2-2.6,22.6-.2,2.2-.3,4.2-.1,6.8,0,.7,0,1.3.2,2.1"/><path class="cls-1" d="M113,163.7s0,0,0,0c-.7,2.6.7,11.2,1.2,16.6,0,.8.1,1.6.1,2.3h0"/><path class="cls-1" d="M67.5,128.1c.6,2.5.9,4.6,1.1,6.6.4,3.9.4,7.5.3,12.2,0,.3,0,.5,0,.8"/><path class="cls-1" d="M124.7,237.1c1.7,5.4-2.5,12.3-5.2,22.2-2.8,10.2-6.2,20.7-9.8,30.5"/><path class="cls-1" d="M101.7,237.1c1.6,3.2,1.9,5.9,1.4,9.5-.2,1.3-.5,2.7-.9,4.1-.6,2.2-1.3,4.5-2,6.5-3.3,9.7-2.5,25.5-2.2,35.9,0,.1,0,.3,0,.4"/><path class="cls-1" d="M66.4,176.7c0,.6,0,1.2,0,1.7h0c-.4,13.3,8.1,23.8,12.7,28.1,0,0,0,0,0,0"/><path class="cls-1" d="M114.4,182.6c8.8,3.6,22.2,7.8,33.3,14.3.4.2.8.4,1.1.7"/><path class="cls-1" d="M140.1,211.2s0,0,.1,0c11.9,10.8,17.1,4.1,36.7,12.1.2,0,.3.1.5.2"/><path class="cls-1" d="M185,211.3c-14.8-5.5-21.4-8.2-36.2-13.7"/><path class="cls-1" d="M177.3,223.7c1,3.9,10.7-6.7,10.2-8-.3-.7-2.7-1.6-2.8-3.1,0-.5.1-.9.3-1.3.4-.5,1-.9,1.8-1,0,0,.2,0,.3,0"/><path class="cls-1" d="M182.1,235.2c1,.5,2.3.2,3.3-.2,9.2-3,18.4-6.1,26.9-10.6,2.8-1.5,5.7-3.2,7.1-6,1.5-2.8.9-6.8-1.9-8.1-1.3-.6-2.9-.5-4.3-.4-8.5.6-17.3,2-25.7.4"/><path class="cls-1" d="M176.8,223.4c0,3.7,3.5,8,5.1,11.4"/><path class="cls-1" d="M114.6,182.8h-.3c-4.7-1.6-5.6-3.1-14.5-5-16.5-3.6-29.2-7.3-33.4-1.5"/><path class="cls-2" d="M109.2,114.4c0,.2,0,.3,0,.4,0,.3,0,.6-.1.8-.2,1.7-.3,1.4-.4,1.5-2.6,4.3-9.6,6.8-11.9,5.9,0,0-.2,0-.2-.1-2.2-1-7.6-6.3-6.9-10.9,0-.1,0-.2,0-.3"/><path class="cls-2" d="M110.3,130.9c0,2.8.3,5.7.4,9"/><path class="cls-1" d="M98.1,294.3c.9,2.3,5.2,3.8,7.4,2.6,1.3-.7,2.1-2,2.7-3.3s.2-2.6,1.3-3.5c0,0,.1-.1.2-.2,1-.7,1.5-.8,2.5.2h0"/><path class="cls-1" d="M97.8,293.3c-1.3,3-2.2,6.1-2.7,9.3-.1.7-.2,1.5.2,2.2.5.9,1.7,1.3,2.8,1.5,8.9,2.3,17.9,4.7,27.1,5.6,3,.3,6.2.4,8.9-.9,2.6-1.3,4.3-4.6,2.8-7-.7-1.1-2-1.8-3.3-2.5-7.1-3.8-14.2-7.6-21.3-11.5"/><path class="cls-1" d="M90.2,107.8c-.7.3-1.4.7-2,1.2-1.7,1.4-3,3.3-3.8,5.4-1.1,2.8-1.3,5.9-1.4,8.9,2.1-.2,4.3-.6,6.4-.8.9,0,1.8-.2,2.7-.1,1.2,0,2.5.2,3.6.7.2,0,.5.2.7.3,1.2.6,2.3,1.4,3.2,2.3.3.3.6.6.9.9,1.3,1.5,2.4,3.2,3.4,4.9,2.4-1.6,4.1-4.2,4.9-7,.8-2.8.9-5.8.8-8.7"/><path class="cls-1" d="M92.1,122.6c-4.7,7.5-8.6,15.8-12,24"/><path class="cls-1" d="M99.7,125.5s0,0,0,.1c-4.2,7.4-6.1,16.1-8.1,24.4"/><path class="cls-1" d="M75.8,162.3c1.6,1.8,3.6,3.3,5.8,4.5,2.9-1,5.7-2.6,8-4.6,0,0,0,0,0,0"/><path class="cls-1" d="M148.1,196.7c-.1,0-.3.1-.4.2-2.9,1.6-4.8,4.5-6,7.6-.7,2-1.1,4.4-1.5,6.8-.3,1.5-.5,3-.9,4.3-2.4,8.7-7.7,15.9-14.7,21.4-1.7,1.4-3.6,2.6-5.5,3.8-3.5,2.1-7.3,3.7-10.7,5.9-2.7,1.7-4.8,2.2-6.2,4.1-.4.5-.8,1.2-1.1,2.1"/><path class="cls-1" d="M79,206.5c8.2,9,16.4,20.1,22.7,30.6"/><path class="cls-1" d="M78.9,206.4s0,0,.1.1"/><path class="cls-1" d="M66.6,169.6c16.6-1.1,33.3,1.5,47.1,10.8"/><path class="cls-1" d="M119.3,103.6c-2.1,3.6-3.1,4.3-4.4,5.7-1.6,1.7-3.3,3.3-5.1,4.5-.2.2-.5.3-.7.5-4.5,2.7-10.1,2.5-18.9-6.5-.6-.7-1.3-1.4-2-2.1"/><path class="cls-1" d="M89.8,112.2c.3-2,.1-1.4.4-4.4,0,0,0,0,0,0"/><path class="cls-1" d="M97.5,86.3c-.1,1.6.4,3,1.3,3.1.8,0,1.6-1.2,1.8-2.8.1-1.6-.4-3-1.3-3.1-.8,0-1.6,1.2-1.8,2.8Z"/><path class="cls-1" d="M112.5,95.8c-.5,4.3-4.3,3.3-8.3,2.8"/><path class="cls-1" d="M112.4,103.5c-5.1,1.8-14.7-1.4-15.6-2.5,1.8,3.3,1.8,2.6,3.4,3.9,1.7,1.3,4.5,2.3,6.3,2.2,3-.2,4.4-1.3,5.9-3.6Z"/><path class="cls-1" d="M119.5,103.5c1.1-1.9,2.5-4,2.9-7.1l.8-7.8c.2-2.1.5-4.2.4-6.2-.5-9-7.1-15.3-15.2-18-1.3-.4-2.6-.7-3.7-.7-5.4-.2-8.7,3.7-12.2,8.9-1.9,2.8-3.3,6.9-5.7,9.3-2.4,2.4-5.2-2.9-7.3,4.9-.7,2.6,1.2,7.4,3.8,6.7.9,4.9,2.4,8,5.1,12,0,.1.2.3.3.5"/><path class="cls-1" d="M100.7,55.6c2.9-1.7,10.2-1.7,14.8.2,7.8,3.2,9,8.2,11.7,15.3,3.1,8.2,1.5,19.5-2.3,27.4-1,2.1-.3,4.8-.4,7.1-.1,2.3-.6,4.7-2.2,6.4-1.5,1.6-3.7,2.4-5.9,2.5-2.2.1-4.4-.3-6.5-.8,0,0,0,0,0,0"/><path class="cls-1" d="M104.6,63.4c-.4-2.9-2-5.7-4.2-7.6-.3-.3-.7-.6-1-.8-3.2-2.3-8.3.5-11.4,2.5-9.3,5.8-14.1,22.4-10.5,32.8,1.5,4.3-4.4,8.7-3.7,13.2.4,2.7,2.7,4.5,5.1,5.8.1,0,.3.1.4.2"/><path class="cls-1" d="M103.7,78.4c-.2.6-.9,1-1.6,1.1s-1.4-.3-2.1-.5c-1.9-.6-4.6-.9-6.5-.2-.6.2-1.1-.5-.6-1,.3-.3.6-.6,1-.9.8-.8,2-1.1,3.2-1.3,1.8-.2,7.7,0,6.6,2.8Z"/><path class="cls-1" d="M115.6,80.3c-.4,0-.7.1-1.1,0-1,0-1.7-.8-1.6-1.4,0-.6.8-1.1,1.8-1.3,1.1-.2,2.4-.3,3.5-.2,1.2,0,2.4.5,3.2,1.4.3.4.6,1,.2,1.3-.2.2-.5.2-.7.2-1.7,0-3.6-.3-5.2,0Z"/><path class="cls-1" d="M116.1,88.2c-.1,1.6.4,3,1.3,3.1.8,0,1.6-1.2,1.8-2.8.1-1.6-.4-3-1.3-3.1-.8,0-1.6,1.2-1.8,2.8Z"/></svg>