<?xml version="1.0" encoding="UTF-8"?><svg id="asia" xmlns="http://www.w3.org/2000/svg" width="235" height="321.9" viewBox="0 0 235 321.9"><defs><style>.cls-1{stroke-linecap:round;stroke-linejoin:round;}.cls-1,.cls-2{fill:none;stroke:#000;}.cls-2{stroke-miterlimit:10;}.cls-3,.cls-4,.cls-5,.cls-6,.cls-7,.cls-8,.cls-9,.cls-10,.cls-11,.cls-12,.cls-13{stroke-width:0px;}.cls-4{fill:#faac8e;}.cls-5{fill:#fd0243;}.cls-6{fill:#2f4b57;}.cls-7{fill:#3a3f45;}.cls-8{fill:#1a2636;}.cls-9{fill:#07bab5;}.cls-10{fill:#cbaa99;}.cls-11{fill:#fff;}.cls-12{fill:#e3c357;}.cls-13{fill:#052936;}</style></defs><path class="cls-7" d="M219.2,207.5c2.7,1.1,3.1,4.9,1.7,7.5-1.5,2.6-4.3,4.3-7,5.8-8.3,4.4-17.2,7.5-26,10.5-1.1.4-2.3.7-3.2.2h-.4c-.3-5.5,3.7-16.3,7.3-22,8.2-.7,15.3-1.6,23.5-2.3,1.4-.1,2.9-.2,4.2.3Z"/><path class="cls-13" d="M68.5,179.4c0-1.3,0-2.7.1-4.2,1.6-10.1,15.9-6.7,33.1-3,1.4.3,2.6.6,3.7.9,5.6,1.6,7.8,3.2,11.3,4.1.3,0,.7.1,1,.2,4.2,1.3,9.8,3.1,12.7,4.4,1.4.6,63.9,24.3,63.5,24.6-.7.7-1.5,1.7-2.4,3.1-3.5,5.7-7.6,16.5-7.3,21.9,0,.3-56.7-22.5-58.7-22.7-.4,0-.9-.1-1.5-.2-8.8-1.1-29.6-4.6-38.6-6.5-2.3-.6-4.2-1.1-5.4-1.6-4.8-2.4-11.3-9.1-11.6-21.2Z"/><path class="cls-8" d="M130.6,84.7c-.1-4.7-2-9.4-4.6-13.3-3.5-5.3-12-11-16.3-15.7-.5-.6-1-1.2-1.5-1.8-2.5-3.3-3.6-6.9-4.5-11.5,0-.3,0-.5,0-.7-.2-5.1,9.5-3.1,13.6-2.5,11.7,1.9,19.5,9,22.8,20.3,3.3,11.4.4,24.1-6.7,33.6-.3.4-.7.9-1.2,1.1-1,.3-2.1-.6-2.3-1.7s.1-2.1.4-3.2c.4-1.5.5-3.1.4-4.6Z"/><path class="cls-7" d="M137.4,303.2c1.9,2.2.8,5.8-1.7,7.6-2.4,1.8-5.7,2.1-8.7,2.3-9.3.4-19.4-3.2-28.6-4.3-1.1-.1-2.3-.3-3-1.2-.5-.6-.5-1.4-.5-2.2,0-3.3.2-5.7,1-9,11.2,1.2,16,.4,25.3-1.2,4.4,2.3,8.5,4.4,12.6,6,1.3.5,2.7,1,3.6,2.1Z"/><path class="cls-12" d="M130.3,141.1c.1,3.4,0,5.8,0,5.9l-.2.2c0,.7-.2,1.5-.4,2.2h-.3c-3.3-4.9-9.6-7.4-15.4-6.3,0-.3,0-.6-.1-1,0-.7-.2-1.3-.3-2h0c5.4-1,11-.6,16.2,1h.4Z"/><path class="cls-4" d="M130.3,141.1h-.4c-5.2-1.6-10.8-1.9-16.2-1h0c-.3-1.9-.5-4.1-.6-7.3,2.3.1,4.6.1,6.8-.3,3.4-.6,6.7-2.1,9-4.7h.2c.8,4.8,1.2,9.7,1.4,13.3Z"/><path class="cls-10" d="M111.5,106.6v.2c.1.1.4.2.6.3-2.4.9-6.4,4.4-9.6,6.3-4.5,1.8-7.9,1.7-10.3,0-2.5-1.7-3.8-5-4-9.6v-.4c.3-.6.4-1.8.5-3.2.1-2.7,0-6.6-.3-10,0,0,.1-.1.2-.2,5.9-5.7,7.6-26,9-29.1.9-2.1,2.2-4.1,4.2-5.2,2-1.1,3.9-1.5,6.1-1.6l.3-.2c.4.6.9,1.2,1.5,1.8,4.3,4.6,12.8,10.4,16.3,15.7,2.6,4,4.5,8.6,4.6,13.3-.6,3.5-1.9,9.9-7.9,16.4,0,0-4.4,5.3-8.5,5.9-.6,0-1.5,0-2.8-.4ZM107.5,91.7c.3,6.9,11.2,10.4,12.3,5.2-4.9-.5-7.7-2.2-12.1-5.2h-.1ZM128.6,81.2c.3-1.5,0-2.8-.9-2.9s-1.8.9-2.1,2.3c-.3,1.5,0,2.8.9,2.9.8.2,1.8-.9,2.2-2.3ZM112.2,77.5c.3-1.4-.1-2.7-1-2.9-.9-.2-1.9.8-2.2,2.2-.3,1.4.1,2.7,1,2.9.9.2,1.8-.8,2.2-2.2Z"/><path class="cls-5" d="M129.4,149.3h.3c-.2.9-.5,1.8-.8,2.5-1.1,2.2-2.2,2.3-3.2,3h0s-.1-.3-.1-.3c.2-4.7-5.2-12.3-10.9-11.2h0c-.2,0-.3,0-.5.1,0-.1,0-.2,0-.3,5.7-1.1,12,1.5,15.4,6.3Z"/><path class="cls-9" d="M128.9,127.7h-.2c-2.2,2.7-5.6,4.2-9,4.8-2.2.4-4.5.4-6.8.3-1.2,0-2.3-.2-3.5-.3-6.2-.7-12.4-2-18.3-3.7-5.9-1.7-11.9-4-16.3-8.2-.8-.7-1.5-1.5-2.1-2.4-3.1-4.1-4.7-9.5-3.2-14.3l-.3-.6c1.4-.7,2.9-1.2,4.6-1.6.5-.1,1.4-.3,2.6-.6v.2c.9,3,2.8,5.7,5.2,7.6l.6.2c-.4,1.4-.6,2.8-.7,4.2,0,1,0,2,.7,2.7,1.1,1.1,3.1.4,4.3-.6,1.2-1,2.5-2.3,4.1-2.1.5,0,1,.2,1.3.5,1.2.8,1.8,2.5,2.1,4,.4,2,.8,4.4,2.7,5.3,2.1,1,4.5-.6,6.1-2.3.8-.8,1.5-1.6,2.2-2.4l.3.2c3.3.4,6.6.8,9.9.4,3.3-.4,6.6-1.7,8.8-4.2l.6-.4c.6.6,1,1.2,1.3,1.9,1.3,3.3,2.3,7.3,2.9,11.3Z"/><path class="cls-3" d="M127.7,78.3c.8.2,1.3,1.5.9,2.9-.3,1.5-1.3,2.5-2.2,2.3-.8-.2-1.2-1.5-.9-2.9.3-1.5,1.3-2.5,2.1-2.3Z"/><path class="cls-13" d="M124.1,208.6c2.8,9.9,4.5,12.4,4.5,20.1,0,1.2-5.8,65.1-5.9,66.3-.5,0-1.1.2-1.6.3-9.3,1.6-14.1,2.4-25.3,1.2-.4,0-.7,0-1.1-.1-.5-1.4,7.1-64.5,6-67.4-2.5-6.7-9.6-19.1-15.2-26.7,9,1.8,29.8,5.3,38.6,6.5Z"/><path class="cls-10" d="M95,146.6c9.1-1.9,7.9-.2,19.5-3.3h0c5.7-1.1,11,6.5,10.9,11.2v.3c-3.7,1.5-7,2.4-10,2.9-8.1,1.3-14.3-.6-25.6-1.8-2.7,1-12.6,1.3-13.7-1.4-.3-.8,0-2.6.5-4.8,1.1-4.1,3.4-9.4,5.4-10.4.1,0,.3-.1.4-.1h0c2.1-.4,6.7,1.5,9.7,3.7,1.6,1.2,2.8,2.5,2.8,3.5h0Z"/><path class="cls-5" d="M124.7,114.6l-.6.4c-2.2,2.5-5.5,3.8-8.8,4.2-3.3.4-6.6,0-9.9-.4l-.3-.2c2.9-3.4,5.3-7.1,7.1-11.1h0c3.3,1.5,9.5,4.2,12.4,7.2Z"/><path class="cls-6" d="M117.7,177.5c-.3,0-.7-.1-1-.2h0c.3,0,.7.1,1,.2Z"/><path class="cls-5" d="M116.7,177.2h0c-3.5-.8-5.7-2.4-11.3-4v-.4c3.6.4,7.2-.2,10.5-1.6h.3c.3,2.3.5,4.4.5,6Z"/><path class="cls-11" d="M119.7,96.8c-1,5.2-11.9,1.7-12.3-5.2h.1c4.4,2.9,7.2,4.7,12.1,5.2Z"/><path class="cls-9" d="M116.2,171.1h-.3c-3.2,1.4-6.8,2-10.3,1.6v.4c-1.2-.3-2.5-.6-3.9-.9-17.2-3.7-31.5-7.1-33.1,3-.1,1.5-.2,2.8-.1,4.2-1.7-6.4-2.2-12.6-1.9-20.1,15.1,7.1,32.9,8.3,48.7,3.1.2,2.6.6,5.8.9,8.8Z"/><path class="cls-5" d="M115.4,157.7c-.2,1-.2,2.6,0,4.7-15.9,5.1-33.7,4-48.7-3.1.1-4.5.5-9.6,1-15.4,2.3,3,5.1,5,8.8,5.8h.2c-.6,2.2-.8,4-.5,4.8,1.1,2.7,11,2.4,13.7,1.4,11.2,1.2,17.5,3.1,25.6,1.8Z"/><path class="cls-12" d="M114,143c0,.1,0,.2,0,.3.2,0,.3,0,.5-.1-11.6,3.1-10.4,1.5-19.5,3.3h0c0-1.2-1.2-2.5-2.8-3.7l.5-.2c2.8,1.2,17.7,1,21.2-.6h0c0,.3,0,.6.1,1Z"/><path class="cls-4" d="M68.9,129.1c0-.5,0-1,.2-1.6,0-.5.2-1.1.3-1.7.4-2,1.1-4.4,1.7-6.7l1.5-.9c.6.8,1.3,1.6,2.1,2.4,4.5,4.2,10.4,6.5,16.3,8.2,6,1.7,12.1,3,18.3,3.7,1.2.1,2.3.3,3.5.3,0,3.2.3,5.4.6,7.3,0,.7.2,1.3.3,2h0c-3.4,1.6-18.4,1.8-21.2.6l-.5.2c-3-2.2-7.6-4.2-9.7-3.7h0c-5.2-1.6-10-4.5-13.6-8.5,0-.5,0-1.1.1-1.6h0Z"/><path class="cls-5" d="M112.3,107.2h0c-1.8,4.2-4.3,7.9-7.1,11.3-.7.8-1.4,1.6-2.2,2.4-1.6,1.6-4,3.3-6.1,2.3-1.8-.9-2.3-3.3-2.7-5.3-.3-1.5-.9-3.2-2.1-4l.2-.3c2.3,1.6,5.7,1.7,10.3,0,3.1-1.9,7.2-5.4,9.6-6.3,0,0,.2,0,.2.1Z"/><path class="cls-3" d="M111.3,74.6c.9.2,1.3,1.5,1,2.9-.3,1.4-1.3,2.4-2.2,2.2-.9-.2-1.3-1.5-1-2.9.3-1.4,1.3-2.4,2.2-2.2Z"/><path class="cls-8" d="M88.4,90.3c-.6.6,0,0-1.2-.1h-.3c-8.2-3-8.1-11.7-8.5-19.2-.4-9.1,4.8-24.8,17-27.9,2.8-.7,5.5-1.2,8.1-1.3,0,.2,0,.5,0,.7.9,4.6,2,8.2,4.5,11.5l-.3.2c-2.2.1-4.1.5-6.1,1.6-2,1.1-3.2,3.1-4.2,5.2-1.4,3-3.1,23.4-9,29.1,0,0-.2.2-.2.2Z"/><path class="cls-5" d="M92.2,113.5l-.2.3c-.4-.3-.8-.5-1.3-.5-1.6-.1-2.9,1.1-4.1,2.1-1.2,1-3.2,1.7-4.3.6-.7-.7-.7-1.7-.7-2.7,0-1.4.3-2.8.7-4.2.9-3.4,2.7-6.5,5.2-9,.3,0,.6,0,.9.1h.3c0,1.4-.2,2.6-.5,3.2v.4c.2,4.6,1.5,7.9,4,9.6Z"/><path class="cls-5" d="M76.4,101.1c2.8-.6,7.1-1.3,11.1-.9-2.5,2.5-4.3,5.6-5.2,9l-.6-.2c-2.5-1.9-4.3-4.6-5.2-7.6v-.2Z"/><path class="cls-12" d="M82.4,139.2h0c-.2,0-.3,0-.4.1-2,.9-4.3,6.2-5.4,10.4h-.2c-3.7-.8-6.5-2.9-8.8-5.9.3-3.9.7-8.3,1.2-13.1,3.6,4,8.4,6.9,13.6,8.3h0Z"/><path class="cls-4" d="M72.7,118.2l-1.5.9c-.7,2.3-1.3,4.6-1.7,6.7h-.4c-4.2-4.3-7.3-9.7-8.7-15.5.2-.3.4-.4.5-.5,3-2.7,5.4-5,8.4-6.6l.3.6c-1.5,4.9,0,10.2,3.2,14.3Z"/><path class="cls-12" d="M69,125.7h.4c-.1.7-.2,1.2-.3,1.8h-.4c-1.5,1.3-3.6,3-5.8,4.7v-.7c-4.6-3.4-7.8-8.3-9-13.8,2.8-3.3,5.3-6.2,6.4-7.4,1.4,5.8,4.5,11.2,8.7,15.4Z"/><path class="cls-5" d="M62.9,131.4v.7c-2.5,2-5.4,4.1-7.7,5.7l-.2-.9c-4.3-2.5-7-7.5-6.8-12.5,1.7-2.1,3.8-4.6,5.8-6.9,1.2,5.4,4.5,10.4,8.9,13.8Z"/><path class="cls-9" d="M55,137l.2.9c-1.9,1.4-3.5,2.5-4.3,3.1h-.1c-5.1-2.9-6.8-8-7-10.1,0-.2,0-.4,0-.6,0-.4,1.9-2.7,4.3-5.7-.1,5,2.6,9.9,6.8,12.5Z"/><path class="cls-10" d="M38.6,161.3h0c2.5.7,4.9,9.9,3.2,11.9-1.8,2.2-11.8,3.1-13.5,1.9-2-1.4.2-9.3,1.6-11.3,2.8-12.6,7.1-21.8,13.6-33h.2c.1,2.1,1.8,7.2,7,10v.2c-5,8.8-8.6,13-12.2,20.2Z"/><path class="cls-1" d="M68.7,127.4c-1.5,1.4-3.6,3.1-5.8,4.8-2.6,2-5.5,4.1-7.8,5.7-1.9,1.4-3.5,2.5-4.3,3.1h-.1c-5.1-2.9-6.8-8-7-10.1,0-.2,0-.4,0-.6,0-.4,1.9-2.7,4.3-5.7,1.7-2.1,3.8-4.6,5.8-6.9,2.8-3.3,5.3-6.2,6.4-7.4.2-.3.4-.4.5-.5,3-2.7,5.4-5,8.4-6.6,1.4-.7,2.9-1.2,4.6-1.6.5-.1,1.4-.3,2.6-.6,2.8-.6,7.1-1.3,11.1-.9.3,0,.6,0,.9.1"/><path class="cls-1" d="M43.7,130.8c-6.5,11.2-10.8,20.3-13.6,33"/><path class="cls-1" d="M50.7,141.1c-4.9,8.8-8.5,13-12,20.2,0,.2-.2.4-.3.6"/><path class="cls-1" d="M38.7,161.3c2.5.7,4.9,9.9,3.2,11.9-1.8,2.2-11.8,3.1-13.5,1.9-2-1.4.2-9.3,1.6-11.3"/><path class="cls-1" d="M130.2,147c.2-.2.2-2.5,0-5.9-.2-3.6-.6-8.5-1.4-13.3-.7-4-1.6-8-2.9-11.3-.3-.6-.7-1.3-1.3-1.9-2.9-3-9.1-5.7-12.4-7.3,0,0-.2,0-.2-.1-.2-.1-.4-.2-.6-.3"/><path class="cls-1" d="M114.5,143.3c5.7-1.1,11,6.5,10.9,11.2"/><path class="cls-1" d="M113,132.8c0,3.2.3,5.4.6,7.3,0,.7.2,1.3.3,2,0,.3,0,.6.1,1,0,.1,0,.2,0,.3.2,0,.3,0,.5-.1"/><path class="cls-1" d="M125.6,154.8h0c-3.9,1.5-7.1,2.4-10.1,2.9-8.1,1.3-14.3-.6-25.6-1.8"/><path class="cls-1" d="M114.5,143.3h0c-11.6,3.1-10.4,1.5-19.5,3.3-.2,0-.5,0-.7.1"/><path class="cls-1" d="M94.9,146.5c0-1-1.2-2.3-2.8-3.5-3-2.2-7.6-4.2-9.7-3.7h0c-.2,0-.3,0-.4.1-2,.9-4.3,6.2-5.4,10.4-.6,2.1-.8,4-.5,4.8,1.1,2.7,11,2.4,13.7,1.4"/><path class="cls-1" d="M130,147.2c0,.7-.2,1.5-.4,2.2-.2.9-.5,1.7-.8,2.4-1.1,2.2-2.2,2.3-3.2,3"/><path class="cls-1" d="M68.9,129.1c0,.6,0,1.1-.1,1.6-.4,4.8-.8,9.1-1.2,13.1-.5,5.9-.9,10.9-1,15.4-.2,7.5.2,13.7,1.9,20.1,0,.3.2.7.3,1"/><path class="cls-1" d="M115.4,157.6s0,0,0,0c-.2,1-.2,2.6,0,4.7.2,2.6.6,5.8.9,8.8.3,2.3.5,4.5.5,6h0"/><path class="cls-1" d="M85.4,202.2c9,1.8,29.8,5.3,38.6,6.5.5,0,1,.1,1.5.2,1.9.2,58.7,23.1,58.7,22.7-.3-5.4,3.7-16.2,7.3-21.9.8-1.4,1.7-2.5,2.4-3.1.3-.3-62.1-24-63.5-24.6-2.8-1.3-8.4-3-12.7-4.4-.3-.1-.7-.2-1-.3-1.4-.4-2.7-.8-3.5-1.1"/><path class="cls-1" d="M80.1,200.5c1.2.5,3.1,1,5.4,1.6"/><path class="cls-1" d="M85.4,202.2c5.6,7.6,12.7,20,15.2,26.7,1.1,2.9-6.5,66-6,67.4.4,0,.8,0,1.1.1,11.2,1.2,16,.4,25.3-1.2.5,0,1-.2,1.6-.3,0-1.2,5.9-65.1,5.9-66.3,0-7.7-1.7-10.1-4.5-20.1"/><path class="cls-1" d="M68.6,175.2c-.1,1.5-.2,2.8-.1,4.2.3,12.1,6.8,18.7,11.6,21.2"/><path class="cls-1" d="M184.7,231.6c1,.5,2.2.1,3.2-.2,8.8-3,17.7-6.1,26-10.5,2.7-1.4,5.5-3.2,7-5.8,1.5-2.6,1-6.4-1.7-7.5-1.3-.5-2.8-.4-4.2-.3-8.2.7-15.3,1.6-23.5,2.3"/><path class="cls-1" d="M118.1,177.6c-.1,0-.3,0-.4,0-.3,0-.7-.1-1-.2-3.5-.9-5.7-2.5-11.3-4.1-1.1-.3-2.3-.6-3.7-.9-17.2-3.7-31.5-7.1-33.1,3"/><path class="cls-2" d="M68.9,129.8c0-.2,0-.5,0-.7,0-.5,0-1,.2-1.6,0-.5.2-1.1.3-1.7.4-2,1.1-4.4,1.7-6.7"/><path class="cls-1" d="M95.8,296.4c-.8,3.3-1,5.6-1,9,0,.8,0,1.6.5,2.2.7.8,1.9,1,3,1.2,9.3,1,19.3,4.7,28.6,4.3,3.1-.1,6.3-.5,8.7-2.3,2.4-1.8,3.6-5.4,1.7-7.6-.9-1-2.3-1.6-3.6-2.1-4.2-1.6-8.2-3.7-12.6-6"/><path class="cls-1" d="M112.3,107c0,0-.2,0-.3,0-2.4.9-6.4,4.4-9.6,6.3-4.5,1.8-7.9,1.7-10.3,0-2.5-1.7-3.8-5-4-9.6"/><path class="cls-1" d="M68.5,130.5c0,0,.1.1.2.2,3.6,4,8.4,6.9,13.6,8.3"/><path class="cls-1" d="M92.7,142.7c2.8,1.2,17.7,1,21.2-.6"/><path class="cls-1" d="M67.5,143.8s0,0,0,0c2.3,3,5.1,5,8.8,5.8"/><path class="cls-1" d="M87.7,100l-.2.2c-2.5,2.5-4.3,5.6-5.2,9-.4,1.4-.6,2.8-.7,4.2,0,1,0,2,.7,2.7,1.1,1.1,3.1.4,4.3-.6,1.2-1,2.5-2.3,4.1-2.1.5,0,1,.2,1.3.5,1.2.8,1.8,2.5,2.1,4,.4,2,.8,4.4,2.7,5.3,2.1,1,4.5-.6,6.1-2.3.8-.8,1.5-1.6,2.2-2.4,2.9-3.4,5.3-7.1,7.1-11.1"/><path class="cls-1" d="M76.5,101.3c.9,3,2.7,5.7,5.2,7.6"/><path class="cls-1" d="M105.3,118.7c3.3.4,6.6.8,9.9.4,3.3-.4,6.6-1.7,8.8-4.2"/><path class="cls-1" d="M69.5,103.8c-1.5,4.9,0,10.2,3.2,14.3.6.8,1.3,1.6,2.1,2.4,4.5,4.2,10.4,6.5,16.3,8.2,6,1.7,12.1,3,18.3,3.7,1.2.1,2.3.3,3.5.3,2.3.1,4.6.1,6.8-.3,3.4-.6,6.7-2.1,9-4.7"/><path class="cls-1" d="M66.3,159.1h.2c15.1,7.2,32.9,8.4,48.7,3.2,0,0,0,0,0,0"/><path class="cls-1" d="M115.9,171.2c-3.2,1.4-6.8,1.9-10.3,1.6"/><path class="cls-1" d="M60.2,109.8c0,.2,0,.3.1.5,1.4,5.8,4.5,11.2,8.7,15.4"/><path class="cls-1" d="M113.7,140.1c5.4-.9,11-.6,16.2,1"/><path class="cls-1" d="M113.9,143.1s0,0,.1,0c5.7-1.1,12,1.5,15.4,6.3"/><path class="cls-1" d="M53.8,116.9c0,.3.1.5.2.8,1.2,5.4,4.5,10.4,8.9,13.8"/><path class="cls-1" d="M48.2,123.7c0,.3,0,.5,0,.8-.1,5,2.6,9.9,6.8,12.5"/><path class="cls-1" d="M114.3,107c-.6,0-1.5,0-2.8-.4-4.5-1.2-12.8-5-19.5-12.1"/><path class="cls-1" d="M131,82.5c-.1.4-.2,1.2-.4,2.2-.6,3.5-1.9,9.9-7.9,16.4,0,0-4.4,5.3-8.5,5.9"/><path class="cls-1" d="M107,69.1c3.7-1.1,7.3-.4,8.6,1.4"/><path class="cls-1" d="M121.6,91.2c-3.3,2.3-7.4.1-8.6-1.3"/><path class="cls-1" d="M125.5,80.6c-.3,1.5,0,2.8.9,2.9.8.2,1.8-.9,2.2-2.3.3-1.5,0-2.8-.9-2.9s-1.8.9-2.1,2.3Z"/><path class="cls-1" d="M109.1,76.8c-.3,1.4.1,2.7,1,2.9.9.2,1.8-.8,2.2-2.2.3-1.4-.1-2.7-1-2.9-.9-.2-1.9.8-2.2,2.2Z"/><path class="cls-1" d="M119.7,96.8c-4.9-.5-7.7-2.2-12.1-5.2"/><path class="cls-1" d="M119.7,96.8c-1,5.2-11.9,1.7-12.3-5.2,0,0,0-.1,0-.2"/><path class="cls-1" d="M88.4,89.8c0,.1,0,.3,0,.5.3,3.5.5,7.3.3,10,0,1.4-.2,2.5-.5,3.2"/><path class="cls-1" d="M103.7,41.7s0,0,0,0c-2.6.2-5.3.6-8.1,1.3-12.2,3.1-17.4,18.8-17,27.9.3,7.5.3,16.2,8.5,19.2"/><path class="cls-1" d="M88.7,90c5.9-5.7,7.6-26,9-29.1.9-2.1,2.2-4.1,4.2-5.2,2-1.1,3.9-1.5,6.1-1.6"/><path class="cls-1" d="M87.3,90.2c1.2,0,.5.7,1.2.1,0,0,.1-.1.2-.2"/><path class="cls-1" d="M108.2,53.9c.4.6.9,1.2,1.5,1.8,4.3,4.6,12.8,10.4,16.3,15.7,2.6,4,4.5,8.6,4.6,13.3,0,1.5,0,3.1-.4,4.6-.2,1-.6,2.1-.4,3.2s1.3,2,2.3,1.7c.5-.2.9-.6,1.2-1.1,7-9.5,10-22.2,6.7-33.6-3.3-11.4-11.1-18.4-22.8-20.3-4.1-.7-13.8-2.6-13.6,2.5,0,.2,0,.5,0,.7.9,4.6,2,8.2,4.5,11.5Z"/></svg>