<?xml version="1.0" encoding="UTF-8"?><svg id="asia" xmlns="http://www.w3.org/2000/svg" width="235" height="321.9" viewBox="0 0 235 321.9"><defs><style>.cls-1{stroke:#231f20;}.cls-1,.cls-2{stroke-linecap:round;stroke-linejoin:round;}.cls-1,.cls-2,.cls-3{fill:none;}.cls-2,.cls-3{stroke:#000;}.cls-3{stroke-miterlimit:10;}.cls-4,.cls-5,.cls-6,.cls-7,.cls-8,.cls-9,.cls-10,.cls-11{stroke-width:0px;}.cls-5{fill:#605d96;}.cls-6{fill:#4a424a;}.cls-7{fill:#232323;}.cls-8{fill:#ad3720;}.cls-9{fill:#ce8d76;}.cls-10{fill:#fff;}.cls-11{fill:#f19200;}</style></defs><path class="cls-9" d="M86.4,196.5h0c0,1.1.2,2.1.3,3.1h.2c1.7-.4,3.6-.6,4.6-3.3.6-1.8,1-3.4,1.6-5.1-.7-1.3-1.4-2.8-2.1-4-1.1-1.9-2.3-3.7-3.4-5.6-.2,6.2-.5,11.9-1.2,15Z"/><path class="cls-5" d="M81.1,297.6c8.2,1.7,11.3-2.3,16.2-4.9.9-.5,1.9-.9,2.9-1.2,0-6.6-10.4-73.6-11.4-79.7-.7-4.3-1.5-7.9-2-12.2-.1-1-.2-2-.3-3.1h0c0,.3-.1.6-.2.8-3.5,2.2-11.4,2.5-21.3,2.2-7.6-.2-20.8-1.7-23.2-4.1,1.2,1.5-1,2.7-2.1,2.7,0,1.4-.7,1.9-1.9,1.8-1.5,7.9-14.6,91-14.6,91,.6.5,2.2,1.3,4.3,2.1,4.3,1.6,10.7,3.3,15.5,3.3,1,0,1.9,0,2.7-.2.2-.5,10.7-52,16.1-74.7.8,6.6,15.7,72.1,15.8,75.1,1.2.4,2.4.7,3.5,1Z"/><path class="cls-9" d="M80,103h0c-1.5,2.8-3.2,4.3-6.7,4.8-2.2.3-6.5-.2-8.7-1.5-1.3-.8-2.1-1.3-3.2-2.5-.7-.8,0-2,1-1.7,4.7,1.3,13,2.5,17.5.9ZM37,86.1c-.4.5-.6,1.1-.6,1.7,0,1.7.5,3.4,1.3,4.9.7,1.4,1.5,2.7,2.7,3.4.7.5,1.6.6,2.5.4h0c.7,3.6,2,7,2.9,8.6,2.8,3.2,5.4,5.8,7.9,7.8,7.2,5.7,13.2,6.5,18.3,5.1,4.8-1.4,9-4.8,12.8-7.8,4.7-3.8,4.4-5.9,5.6-11.7,0-.4.2-.8.2-1.2.8-4.6.8-8.3.8-9,0,0,0-.2,0-.3.5-2,.7-2.9.9-3.7.2-.8.2-1.4.4-2.9-.6-8.7-8.4-13.4-23.4-13.4-25.2,0-26.1,18.3-26,19.3,0,0,0,0,0,0,0,0,0,0,0,0-1.7-4.1-4.8-2.9-6.2-1ZM58.3,87.8c0-1.9.8-3.4,1.8-3.4s1.8,1.5,1.8,3.4-.8,3.5-1.8,3.5-1.8-1.5-1.8-3.5ZM81.2,87.8c0-1.7.7-3,1.5-3s1.5,1.3,1.5,3-.7,3-1.5,3-1.5-1.3-1.5-3Z"/><path class="cls-7" d="M81.1,297.6c-1,2.2-1,9.8,1,10.9,1.4.8,18.7.2,23.6,0,.5,0,3.4-.6,3.8-.8,1.5-.6.9-6.8.2-8.2-1.7-3.2-8.4-5.7-12.4-6.8-4.9,2.6-8,6.6-16.2,4.9Z"/><path class="cls-11" d="M24.2,162.2c2.9-3.1,12.6-11.5,17.3-16.4,0,.7.1,2.2.2,3.9,1.7-.7,2.9-2.4,3.4-4.1.6-1.8.6-3.8.6-5.7,0-3.9-.4-7.7-1-11.6-.4-2.6-1.2-5.6-3.7-6.5l-.2-.5c-.8.3-1.5.6-2.2.9-3.4,1.5-5.6,5-8.3,7.5-2,1.8-11.4,14.1-11.4,14.1-3.2,4-7,10-8.3,12.3-2.8,4.9.9,15.5,4.2,20.1,2.8,3.9,5.9,7.6,8.4,10.6,2.1-4.2,4.5-5.8,9.1-9.1h.2c-2.2-4.2-4.5-8.6-5.9-11.4-.9-1.8-1.6-3.1-2.4-4.2Z"/><path class="cls-7" d="M15.8,301.4c-.4,1.3-.4,5.2.6,6.2,1.1,1.2,3,1.3,4.7,1.3,5.4,0,10.8.1,16.1,0,2,0,5.7.3,7.1-1,1.6-1.5.7-8.9-.5-10.7-.2-.3-.4-.6-.7-.9-4.8,0-11.2-1.7-15.5-3.3-1,.7-2.4,1-3.5,1.5-2.7,1.2-7.5,4.1-8.3,6.8Z"/><path class="cls-8" d="M27.6,189.3c2.1-3,4.1-6.3,7.3-8-.1,0-.3,0-.4-.1-.6-1.1-1.3-2.3-1.9-3.5h-.2c-4.5,3.5-6.9,5-9.1,9.2,1.2,1.5,2.3,2.9,3.2,4,.4-.5.8-1.1,1.2-1.7Z"/><path class="cls-9" d="M44.3,186.8c.6-2.7-1.3-3.8-3.7-4.4-1.9-.5-4.1-.7-5.7-1.1-3.2,1.7-5.2,4.9-7.3,8-.2,2.6,2.3,5.9,4,7.6.9.9,4.2,2.9,6.3,3.1,1.1,0,1.9-.3,1.9-1.8,1,0,3.3-1.2,2.1-2.7,1.2-.2,2.7-1.5,1.9-3.5,4.2-1,2.5-3.3.6-5.2Z"/><path class="cls-6" d="M36.2,70.4c-1.8,5.3-.5,10.2.8,15.7,1.3-1.9,4.5-3.1,6.2,1,0-1,.9-19.3,26-19.3s22.8,4.7,23.4,13.4c-.1,1.6-.2,2.1-.4,2.9h.1c.6-.1,1.3.2,1.7.8,1.3-4.1,2.1-6.3,2.3-10.5,0-1.5-.1-3.9-1.3-6.6-2.3-5-8.1-10.8-22.2-11.6-16.7-1-33.6,5.5-36.6,14.3Z"/><path class="cls-6" d="M43.2,50.7c-9.2,5.3-8.1,14.7-7,19.7,2.9-8.8,19.8-15.3,36.6-14.3,14.2.9,20,6.6,22.2,11.6h.1c-1.1-2.6-3-25.5-28.7-28.6-5-.6-13.2,5.7-23.2,11.5Z"/><path class="cls-7" d="M87.6,180.8c.2-7.4.1-15.4.2-20.6,0-2.9,0-7.4,0-12.4-.3-10.3-1.4-22.6-4.3-27-.5-.3-1.1-.5-1.8-.6-1.4-.3-4.4-.8-6.8-.9h0c.4,2.3.4,5.2.2,8.3-.5,5.7-2,12.1-3.7,15.8-.9,2.1-1.9,3.4-2.9,3.4-.8,0-2.1-.9-3.6-2.4h0c-4-3.9-9.6-11.7-12.6-17.7-1.6-3.1-2.3-5.7-1.7-7h0c-2.2.3-5,.9-5.8.9s-2.5.4-3.8.8l.2.5c2.5.9,3.3,3.9,3.7,6.5.6,3.8.9,7.7,1,11.6,0,1.9,0,3.9-.6,5.7-.6,1.7-1.7,3.4-3.4,4.1h0c.2,2.7.3,5.8.4,6.8.3,3.3.6,6.6.4,10-.3,4.6-1.7,11.8-2.1,15.9,2.4.6,4.3,1.7,3.7,4.4,1.9,1.9,3.5,4.2-.6,5.2.8,1.9-.6,3.3-1.9,3.5,2.3,2.4,15.6,3.9,23.2,4.1,9.9.2,17.8,0,21.3-2.2,0-.3.1-.5.2-.8.7-3.1,1-8.8,1.2-15,0-.2,0-.5,0-.7Z"/><path class="cls-9" d="M43.2,87.2s0,0,0,0c0,0,0,0,0,0Z"/><path class="cls-8" d="M50.5,119.7c-.6,1.2.2,3.9,1.7,7,2.9,2.6,7.9,4.1,11.6,4.8.4,3.9.5,8.9.9,12.8h0c1.5,1.5,2.8,2.4,3.6,2.4.9,0,1.9-1.3,2.9-3.4-.7-3.6-1.6-12.7-1.3-12.9,1.6-1,3.3-2,4.9-3,.3-3.1.3-6-.2-8.3h0c-1.1,0-2.2-.1-2.8,0-.3,5.2-4.3,9.9-10.3,7.2-3.9-1.7-8.5-4.4-8.3-7.2-.5,0-1.6.2-2.9.4h0Z"/><path class="cls-9" d="M72,119.2c0-.4,0-.9,0-1.3-5.1,1.5-11.1.7-18.3-5.1,0,3.5,0,4.1-.3,6.4-.3,2.8,4.4,5.5,8.3,7.2,6,2.6,10-2.1,10.3-7.2Z"/><path class="cls-11" d="M63.9,131.5c-3.8-.7-8.7-2.3-11.6-4.8,2.9,5.9,8.6,13.8,12.6,17.7-.4-3.9-.5-8.9-.9-12.8Z"/><path class="cls-4" d="M60.1,84.4c-1,0-1.8,1.5-1.8,3.4s.8,3.5,1.8,3.5,1.8-1.5,1.8-3.5-.8-3.4-1.8-3.4Z"/><path class="cls-10" d="M62.5,102.1c-1-.3-1.7.9-1,1.7,1.1,1.2,1.9,1.7,3.2,2.5,2.1,1.4,6.5,1.8,8.7,1.5,3.5-.5,5.2-2,6.7-4.7h0c-4.5,1.5-12.8.2-17.5-1Z"/><path class="cls-11" d="M70.1,130.5c-.3.2.6,9.3,1.3,12.9,1.7-3.8,3.2-10.1,3.7-15.8-1.6,1-3.3,2-4.9,3Z"/><path class="cls-4" d="M82.7,84.8c-.8,0-1.5,1.3-1.5,3s.7,3,1.5,3,1.5-1.3,1.5-3-.7-3-1.5-3Z"/><path class="cls-11" d="M97.1,165.3c-1.1,2.3-2,4.7-3,6.9-.6,1.2-2.6,3.9-4.3,6h0c3.5,2.9,5.8,6.4,7.4,10.5,1.5-2.7,2.8-4.8,5.5-8.5,4.3-5.9,11.1-12.8,6.7-19.4-.7-1.1-2.3-4.6-4.1-7.9-2.3-5.4-12.1-23.8-16.2-27.6-2.1-1.8-3.5-3.5-5.7-4.5,3,4.4,4,16.7,4.3,27h.1c1.4,2.5,8.9,17.8,9.2,17.5Z"/><path class="cls-8" d="M93.1,191.1c.4.8.9,1.5,1.5,2.1,1.1-1.8,1.9-3.2,2.6-4.5-1.6-4.1-3.8-7.5-7.4-10.4h0c-1,1.2-1.9,2.3-2.2,2.5,0,.2,0,.5,0,.7,1.1,1.9,2.3,3.7,3.4,5.6.7,1.2,1.4,2.7,2.1,4Z"/><path class="cls-9" d="M90.6,97c1.7,1,4-2.4,4.4-4.8s0-3.7-.3-5.5c-.1-.6-.3-1.3-.6-1.8-.4-.5-1-.9-1.7-.8h-.1c-.2.7-.4,1.6-.9,3.6,0,0,0,.2,0,.3,0,.7,0,4.4-.8,9Z"/><path class="cls-3" d="M72,117.8c0,.4,0,.9,0,1.3-.3,5.2-4.3,9.9-10.3,7.2-3.9-1.7-8.5-4.4-8.3-7.2.2-2.3.3-2.9.3-6.4"/><path class="cls-3" d="M72,119.2h0c.6,0,1.7,0,2.8,0,2.4.2,5.4.6,6.8.9.7.2,1.3.4,1.8.6,2.2,1,3.6,2.6,5.7,4.5,4.2,3.7,13.9,22.1,16.2,27.6"/><path class="cls-3" d="M24.2,162.2c2.9-3.1,12.6-11.5,17.3-16.4.9-1,1.7-1.8,2.2-2.5"/><path class="cls-3" d="M53.4,119.2c-.5,0-1.6.2-2.9.4-2.2.4-5,.9-5.8.9s-2.5.4-3.8.8c-.8.3-1.5.6-2.2.9-3.4,1.5-5.6,5-8.3,7.5-2,1.8-11.4,14.1-11.4,14.1"/><path class="cls-3" d="M83.4,120.8c3,4.4,4,16.7,4.3,27,.2,5,.1,9.5,0,12.4-.1,5.1,0,13.2-.2,20.6,0,.2,0,.5,0,.7-.2,6.2-.5,11.9-1.2,15,0,.3-.1.6-.2.8-3.5,2.2-11.4,2.5-21.3,2.2-7.6-.2-20.8-1.7-23.2-4.1"/><path class="cls-3" d="M41.5,145.5c0,0,0,.2,0,.3,0,.7.1,2.2.2,3.9h0c.2,2.7.3,5.8.4,6.8.3,3.3.6,6.6.4,10-.3,4.6-1.7,11.8-2.1,15.9,0,.1,0,.2,0,.4"/><path class="cls-3" d="M93.4,190.2c-.1.3-.2.6-.3.9-.5,1.7-.9,3.3-1.6,5.1-1,2.7-2.9,2.9-4.6,3.3"/><path class="cls-3" d="M87.2,180.9c.1.2.3.4.4.6,1.1,1.9,2.3,3.7,3.4,5.6.7,1.2,1.4,2.7,2.1,4,.4.8.9,1.5,1.5,2.1,1.1-1.8,1.9-3.2,2.6-4.5,1.5-2.7,2.8-4.8,5.5-8.5,4.3-5.9,11.1-12.8,6.7-19.4-.7-1.1-2.3-4.6-4.1-7.9"/><path class="cls-3" d="M87.9,147.8c1.4,2.5,8.9,17.8,9.2,17.6"/><path class="cls-3" d="M101.6,160c-2,1.3-3.4,3.2-4.4,5.3h0c-1.1,2.3-2,4.7-3,6.9-.6,1.2-2.6,3.9-4.3,6-1,1.3-1.9,2.3-2.2,2.6h0"/><path class="cls-3" d="M34.9,181.3s0,0,0,0c-3.2,1.7-5.2,4.9-7.3,8-.4.6-.8,1.1-1.2,1.7-.8-1.2-1.9-2.5-3.2-4-2.5-3-5.6-6.7-8.4-10.6-3.3-4.6-7-15.2-4.2-20.1,1.3-2.3,5.2-8.4,8.3-12.3"/><path class="cls-3" d="M34.5,181.2c-.6-1.1-1.3-2.3-1.9-3.5-2.2-4.1-4.5-8.4-5.9-11.2-.9-1.8-1.6-3.1-2.4-4.2-1.4-1.9-3-3.1-5.9-4.6"/><path class="cls-3" d="M42.2,184.7c.4.5,1.3,1.3,2.1,2.1,1.9,1.9,3.5,4.2-.6,5.2.8,1.9-.6,3.3-1.9,3.5,1.2,1.5-1,2.7-2.1,2.7,0,1.4-.7,1.9-1.9,1.8-2.1-.2-5.4-2.2-6.3-3.1-1.7-1.7-4.2-5-4-7.6,0-.4.1-.7.3-1.1"/><path class="cls-3" d="M34.5,181.2c.1,0,.2,0,.4.1,1.6.4,3.8.6,5.7,1.1,2.4.6,4.3,1.7,3.7,4.4,0,0,0,0,0,0"/><path class="cls-3" d="M86.5,196.5c0,1.1.2,2.1.3,3.1.5,4.2,1.3,7.8,2,12.2,1,6.1,11.4,73.1,11.4,79.7-1.1.3-2,.8-2.9,1.2-4.9,2.6-8,6.6-16.2,4.9-1.1-.2-2.2-.5-3.5-1,0-3-15-68.5-15.8-75.1,0-.2,0-.3,0-.4"/><path class="cls-3" d="M45.8,296.2h0c-.8.1-1.7.2-2.7.2-4.8,0-11.2-1.7-15.5-3.3-2.1-.8-3.8-1.6-4.3-2.1,0,0,13.1-83.1,14.6-91h0v-.2"/><path class="cls-3" d="M64.7,211.3c-.5,1-1.5,4.8-2.8,10.2-5.4,22.7-15.9,74.2-16.1,74.7"/><path class="cls-3" d="M72,204.3c-2,1.8-6.2,6-7.3,7.1"/><path class="cls-2" d="M28.7,292c-.3.4-.7.8-1.2,1-1,.7-2.4,1-3.5,1.5-2.7,1.2-7.5,4.1-8.3,6.8-.4,1.3-.4,5.2.6,6.2,1.1,1.2,3,1.3,4.7,1.3,5.4,0,10.8.1,16.1,0,2,0,5.7.3,7.1-1,1.6-1.5.7-8.9-.5-10.7-.2-.3-.4-.6-.7-.9-.1-.2-.3-.3-.4-.5"/><path class="cls-2" d="M81.2,297.5s0,0,0,.1c-1,2.2-1,9.8,1,10.9,1.4.8,18.7.2,23.6,0,.5,0,3.4-.6,3.8-.8,1.5-.6.9-6.8.2-8.2-1.7-3.2-8.4-5.7-12.4-6.8-.2,0-.4,0-.6-.1"/><path class="cls-2" d="M92.6,81.2c-.1,1.6-.2,2.1-.4,2.9-.2.7-.4,1.6-.9,3.7,0,0,0,.2,0,.3,0,.7,0,4.4-.8,9,0,.4-.2.8-.2,1.2-1.3,5.9-.9,8-5.6,11.7-3.8,3.1-7.9,6.4-12.8,7.8-5.1,1.5-11.1.7-18.3-5.1-2.5-2-5.1-4.5-7.9-7.8"/><path class="cls-2" d="M88.2,82.4c-1.1-1.9-6.9-2.3-8-1.2"/><path class="cls-2" d="M62.3,80.5c-2.1-1-7.6-.4-8.1.4"/><path class="cls-2" d="M81.2,87.8c0,1.7.7,3,1.5,3s1.5-1.3,1.5-3-.7-3-1.5-3-1.5,1.3-1.5,3Z"/><path class="cls-2" d="M58.3,87.8c0,1.9.8,3.5,1.8,3.5s1.8-1.5,1.8-3.5-.8-3.4-1.8-3.4-1.8,1.5-1.8,3.4Z"/><path class="cls-2" d="M77.8,97.7c-.5,3.2-5.2,3.4-9.9,2.1"/><path class="cls-2" d="M80.5,102.8c-.2,0-.3.1-.5.2h0c-4.5,1.6-12.8.3-17.5-.9-1-.3-1.7.9-1,1.7,1.1,1.2,1.9,1.7,3.2,2.5,2.1,1.4,6.5,1.8,8.7,1.5,3.5-.5,5.2-2,6.7-4.7"/><path class="cls-3" d="M42.8,96.5c.7,3.5,2,6.9,2.9,8.5"/><path class="cls-3" d="M43.2,87.2s0,0,0,0c-1.7-4.1-4.8-2.9-6.2-1-.4.5-.6,1.1-.6,1.7,0,1.7.5,3.4,1.3,4.9.7,1.4,1.5,2.7,2.7,3.4.7.5,1.6.6,2.5.4.5-.1.9-.4,1.3-.8"/><path class="cls-3" d="M92.4,84.2c.6-.2,1.3.2,1.7.8.4.5.5,1.2.6,1.8.4,1.8.6,3.7.3,5.5s-2.7,5.8-4.4,4.8"/><path class="cls-3" d="M64.8,144.3c1.5,1.5,2.8,2.4,3.6,2.4.9,0,1.9-1.3,2.9-3.4,1.7-3.8,3.2-10.1,3.7-15.8.3-3.1.3-6-.2-8.3"/><path class="cls-3" d="M50.5,119.7c-.6,1.2.2,3.9,1.7,7,2.9,5.9,8.6,13.8,12.6,17.7"/><path class="cls-3" d="M51.7,126.2c.2.2.3.3.5.5,2.9,2.6,7.9,4.1,11.6,4.8.4,3.9.5,8.9.9,12.8h0"/><path class="cls-3" d="M75.3,127.3c-.1,0-.2.1-.4.2-1.6,1-3.3,2-4.9,3-.3.2.6,9.3,1.3,12.9"/><path class="cls-3" d="M41,121.8c2.5.9,3.3,3.9,3.7,6.5.6,3.8.9,7.7,1,11.6,0,1.9,0,3.9-.6,5.7-.6,1.7-1.7,3.4-3.4,4.1,0,0-.1,0-.2,0,0,0,.1,0,.2,0,.2,0,.4-.1.6-.2"/><path class="cls-3" d="M23.2,187.1c0,0,0-.1,0-.2,2.1-4.2,4.5-5.8,9.1-9.1"/><path class="cls-3" d="M89.8,178.3c3.5,2.9,5.8,6.4,7.4,10.4,0,0,0,.1,0,.2"/><path class="cls-1" d="M92.6,81.2c-.6-8.7-8.4-13.4-23.4-13.4-25.2,0-26.1,18.3-26,19.3,0,0,0,0,0,0"/><path class="cls-2" d="M94,84.9c1.3-4.1,2.1-6.3,2.3-10.5,0-1.5-.1-3.9-1.3-6.6-2.3-5-8.1-10.8-22.2-11.6-16.7-1-33.6,5.5-36.6,14.3-1.8,5.3-.5,10.2.8,15.7h0"/><path class="cls-2" d="M36.2,70.4c-1.2-5-2.2-14.4,7-19.7,10.1-5.8,18.2-12.1,23.2-11.5,25.7,3.1,27.6,26,28.7,28.5,0,0,0,0,0,.1"/></svg>