<?xml version="1.0" encoding="UTF-8"?><svg id="asia" xmlns="http://www.w3.org/2000/svg" width="235" height="321.9" viewBox="0 0 235 321.9"><defs><style>.cls-1{stroke-linecap:round;stroke-linejoin:round;}.cls-1,.cls-2,.cls-3{fill:none;}.cls-1,.cls-3{stroke:#000;}.cls-2{stroke:#231f20;}.cls-2,.cls-3{stroke-miterlimit:10;}.cls-4,.cls-5,.cls-6,.cls-7,.cls-8,.cls-9,.cls-10{stroke-width:0px;}.cls-5{fill:#f9f9f9;}.cls-6{fill:#4f413b;}.cls-7{fill:#0c6e2c;}.cls-8{fill:#f2cab3;}.cls-9{fill:#fff;}.cls-10{fill:#fbc414;}</style></defs><path class="cls-5" d="M216.8,211.4c2.8,1.3,3.4,5.3,1.9,8-1.5,2.8-4.3,4.5-7.1,6-8.5,4.5-17.7,7.5-26.8,10.6-1.1.4-2.3.7-3.3.2l-.2-.4c-1.7-3.4-5-7.7-5.1-11.4h0c.1,0,.3.1.4.2h0c1,3.9,10.7-6.6,10.2-7.9-.3-.7-2.7-1.6-2.8-3.1,0-.5.1-.9.3-1.3.4-.5,1-.9,1.8-1h.6c8.4,1.7,17.2.3,25.7-.3,1.5-.1,3-.2,4.3.4Z"/><path class="cls-7" d="M186.8,216.7c.6,1.3-9.2,11.9-10.2,8h0c-.2-.1-.3-.2-.4-.3-14.4-5.9-18.7-3.4-25.9-6.3.4-2.3.8-4.7,1.5-6.6,1.2-3.2,4.1-7.2,7.1-8.7v-.2c8.4,3.2,14.8,5.7,25.5,9.6h0c-.2.4-.4.8-.3,1.3,0,1.5,2.4,2.4,2.8,3.1Z"/><path class="cls-10" d="M78.5,207.5c-4.8-4.5-13.6-15.7-12.4-29.7h0c1-11.6.2-6.8,2.3-28.8h.1c.5-4.4,1.5-9.2,1.5-14.1-1.9,1.3-17.9,12.8-19.7,14.2-.9,1.6-1.7,3-2.5,4.3l-.3-.2c.1-.6-.3-1.1-.8-1.5-2.2-2-5.1-3.3-8.1-3.6l-.4-.2c1-1.8,2.2-3.6,3.6-5.6,1.5-2.1,3.5-4.6,5.6-7.5h0c1-1.2,13.3-14.6,14.1-15.3,3.3-3,5.9-5.5,9.5-6.9.9-.4,1.9-.6,3-.9,1.8-.4,7.3-2.3,13-1.5h.3c-.2.8-.2,1.6-.2,2.3.4,4.6,4.9,9,8.2,10.1,3.8,1.3,10,.1,12.6-4.1,0-.2.1.2.5-2.4h.1c3.3,1.9,12.4,5.4,14,9.3.3.8.6,1.6.9,2.5,3.2,10.6,3.2,26.9,2.8,28h0c-.2,1.3-.7,2-1.2,3-1,2.1-2.5,1.9-3.4,2.5h-.4c-.9.4-1.8.6-2.7.9.3-2.1-.2-4.3-1.2-6.2-1.2-2.1-3.1-3.7-5.3-4.5v-.5c-9.6,2.4-10.8,1.6-18.9,3.2-.2-2.8-10.4-7.6-12.8-6.5-2.7,1.2-4.7,9.6-3.8,11.7,1,2.5,10,2.5,12.4,1.7,10.3,1.5,16,3.3,23.3,2.4l.2,1.3c-.8,3,1.2,14,1.3,18.8h0c9,3.7,21.9,8.7,34.3,14.9,4.1,1.5,7.6,2.8,10.8,4h0s0,.2,0,.2c-3.1,1.5-5.9,5.5-7.1,8.7-.7,1.9-1.1,4.3-1.5,6.6-.3,1.6-.5,3.1-.9,4.5-3,10.8-14,22.9-23.6,28.7-1,.6-2.7,1.2-4.6,1.8-4.6,1.4-10.7,2.6-13.3,3.8-3.6,1.7-8.1,4.1-9.5,7.9h0c.4-2.4.9-4.7,1.5-6.6,1.1-3.3,2.3-7.2,2.9-10.6.5-3.6.2-6.3-1.4-9.5h0c-6.3-10.5-14.5-21.6-22.7-30.6Z"/><path class="cls-5" d="M111.6,291h0c7.1,3.8,14.2,7.6,21.2,11.4,1.2.7,2.5,1.4,3.2,2.5,1.6,2.4-.1,5.6-2.7,7-2.6,1.3-5.9,1.2-8.9.9-9.2-.9-18.1-3.3-27-5.6-1.1-.3-2.2-.6-2.8-1.5-.4-.7-.3-1.4-.2-2.2.5-3.2,1.4-6.3,2.6-9.3h.3c0,.1,0,.2,0,.4v.7c.9,2.3,5.2,3.8,7.4,2.6,1.3-.7,2-2,2.7-3.3s.2-2.6,1.3-3.5c0,0,.1-.1.2-.2,1-.7,1.5-.8,2.5.2Z"/><path class="cls-6" d="M128.5,85.1c-3.5-9-9.7-15.8-18.1-20.5,0,0,0,0,0,0l-.3-.7c-.5-5.9-4.4-11.4-9.9-13.6,1.8,0,3.7,0,5.8,0h.2c22.4,5,29.6,14.6,26.8,31.8l-.2.3c-1.6,6.3-4.7,31.9-9.2,45.4h0c-.3-.9-.6-1.7-.9-2.5-1.6-3.9-10.7-7.4-14-9.3h-.1c0-.1,0-.3,0-.4.7.1,1.2.2,1.5.1,3.5-.6,8.2-4.6,8.2-4.6,7-5.9,7.7-19,8.2-20.9.3-1,1.2-2.9,2-5.2Z"/><path class="cls-8" d="M116.1,105.3c-4.4-.5-7.4-2.4-11.3-5.1l-.2.3c-.3,7.1,8.9,11,11.5,4.9ZM108.6,115.7c-1-.2-2.4-.6-3.9-1.2h0c-1.9,1-2.6,1.2-4.7,1.7-2.3.6-5.2-.2-6.8-1.9-1.6-1.7-2.6-2.9-3.6-5h0c-.1-.4-.3-.5-.6-.5h0c2.3-3.7,2.7-14.8,5.6-28.8,1.5-7.3,8.8-12.2,15.6-15.4,0,0,0,0,0,0,8.4,4.7,14.6,11.5,18.1,20.5-.8,2.3-1.7,4.2-2,5.2-.5,1.9-1.2,15-8.2,20.9,0,0-4.6,4-8.2,4.6-.4,0-.9,0-1.5-.1ZM123.5,91.5c.3-1.6,0-3-.9-3.1-.8-.2-1.8.9-2.1,2.5-.3,1.6,0,3,.9,3.1s1.8-.9,2.1-2.5ZM105.7,87.4c.3-1.5-.1-2.9-1-3.1-.9-.2-1.8.9-2.2,2.4-.3,1.5.1,2.9,1,3.1.9.2,1.8-.9,2.2-2.4Z"/><path class="cls-4" d="M122.6,88.3c.8.2,1.2,1.6.9,3.1-.3,1.6-1.3,2.7-2.1,2.5s-1.2-1.6-.9-3.1c.3-1.6,1.3-2.7,2.1-2.5Z"/><path class="cls-7" d="M121.1,253.2c-1,2.7-1.2,3.8-2.1,7.1-2.8,10.2-6.2,20.6-9.8,30.4v.2c0,0-.1.1-.2.2-1.1.9-.7,2.2-1.3,3.5s-1.4,2.6-2.7,3.3c-2.2,1.2-6.5-.3-7.4-2.6v-.7c0-.1,0-.3,0-.4-.2-8.3-.8-20,.6-29.3h0c1.4-3.8,5.9-6.2,9.5-7.9,2.6-1.2,8.7-2.5,13.3-3.8Z"/><path class="cls-8" d="M112.1,151.5c2.2.8,4.1,2.5,5.3,4.5,1,1.9,1.5,4,1.2,6.2-2.3.7-4.4,1.1-6.3,1.4-7.4.9-13-.9-23.3-2.4-2.4.8-11.4.7-12.4-1.7-.9-2.1,1.1-10.5,3.8-11.7,2.5-1.1,12.6,3.7,12.8,6.5,8.1-1.6,9.3-.8,18.8-3.2v.5Z"/><path class="cls-9" d="M116.1,105.3c-2.6,6.1-11.8,2.2-11.5-4.9l.2-.3c3.9,2.8,6.8,4.6,11.3,5.1Z"/><path class="cls-6" d="M88.6,61.6c.5,2.5,1,2.8,1.9,4.1,1,1.4,2.4,2.4,3.8,3.4,1.2.8,2.5,1.5,3.9,1.6,1.4,0,3-.6,3.4-2,.5-1.6-.7-3.1-1.9-4.3-3.3-3.1-7.5-5.4-11.9-6.4.3,1,.7,2,.8,3.6h0ZM87.4,110.3h-.3c-5.7-.9-11.2,1.1-13,1.4-1.1.2-2.1.5-3,.9h0c1-5.4,1.5-12.3,1.4-18.8-.3-15.9,1.3-22.4,6.6-31.5,3.2-5.4,8.3-11.4,21-12,5.4,2.3,9.4,7.8,9.9,13.6l.3.7c-6.8,3.2-14.1,8.1-15.6,15.4-2.9,14-3.3,25.2-5.6,28.8h0c-.7.2-1.8,2-1.9,3.7,0-.7,0-1.5.2-2.2Z"/><path class="cls-10" d="M89.7,109.3c.9,2.1,1.9,3.3,3.6,5,1.6,1.7,4.5,2.5,6.8,1.9,2.1-.5,2.7-.8,4.7-1.7h0c1.5.6,2.8,1,3.9,1.2,0,.1,0,.3,0,.4-.3,2.6-.4,2.2-.5,2.4-2.6,4.3-8.8,5.5-12.6,4.1-3.3-1.2-7.8-5.6-8.2-10.1,0-1.7,1.1-3.5,1.9-3.7.2,0,.4,0,.6.4h0Z"/><path class="cls-4" d="M104.7,84.4c.9.2,1.3,1.6,1,3.1-.3,1.5-1.3,2.6-2.2,2.4-.9-.2-1.3-1.6-1-3.1.3-1.5,1.3-2.6,2.2-2.4Z"/><path class="cls-9" d="M99.7,64.4c1.2,1.1,2.4,2.7,1.9,4.3-.4,1.3-2,2.1-3.4,2-1.4,0-2.7-.8-3.9-1.6-1.4-.9-2.8-2-3.8-3.4-1-1.4-1.5-1.7-1.9-4.1h0c0-1.6-.5-2.6-.8-3.6,4.4,1,8.6,3.3,11.9,6.4Z"/><path class="cls-8" d="M38.8,168.4h0c2.4.7,4.7,9.5,3.1,11.4-1.7,2.1-11.3,2.9-12.9,1.8-1.9-1.3.2-9,1.5-10.9,2.1-9.7,3.6-15.7,7.8-23l.4.2c3,.3,5.9,1.6,8.1,3.6.4.4.9.9.8,1.5l.3.2c-3.5,5.7-6.3,9.4-9.1,15.1Z"/><path class="cls-1" d="M47.5,134.7c1-1.1,13.3-14.6,14.1-15.3,3.3-3,5.9-5.5,9.5-6.9.9-.4,1.9-.6,3-.9,1.8-.4,7.3-2.3,13-1.5"/><path class="cls-1" d="M47.6,134.7s0,0,0,0c-2.2,2.8-4.2,5.4-5.6,7.5-1.4,2-2.6,3.8-3.6,5.6-4.2,7.3-5.6,13.2-7.8,23"/><path class="cls-1" d="M70,134.8c-1.9,1.3-17.9,12.8-19.7,14.2-.9,1.6-1.7,3-2.5,4.3-3.5,5.7-6.3,9.4-9.1,15.1,0,.2-.2.4-.3.5"/><path class="cls-1" d="M70,134.8s0,0,0,0"/><path class="cls-1" d="M38.9,168.5c2.4.6,4.7,9.5,3.1,11.4-1.7,2.1-11.3,2.9-12.9,1.8-1.9-1.3.2-9,1.5-10.9"/><path class="cls-1" d="M126.3,155.9s0,0,0,0c.4-1,.5-17.4-2.8-28-.3-.9-.6-1.7-.9-2.5-1.6-3.9-10.7-7.4-14-9.3"/><path class="cls-1" d="M112,150.8c-.3-2.9-.5-10.3-1.1-15.7"/><path class="cls-1" d="M121.3,161.4c-.9.3-1.8.6-2.7.9-2.3.7-4.4,1.1-6.3,1.4-7.4.9-13-.9-23.3-2.4"/><path class="cls-1" d="M113.6,150.6c-.6.2-1.1.3-1.7.4-9.5,2.4-10.7,1.6-18.8,3.2-.3,0-.6.1-1,.2"/><path class="cls-1" d="M93.2,154.3c-.2-2.8-10.4-7.6-12.8-6.5-2.7,1.2-4.7,9.6-3.8,11.7,1,2.5,10,2.5,12.4,1.7"/><path class="cls-1" d="M126.3,155.8s0,0,0,0c-.2,1.3-.7,2-1.2,3-1,2.1-2.5,1.9-3.4,2.5"/><path class="cls-1" d="M68.4,148.2c0,.3,0,.5,0,.8-2.1,22-1.2,17.2-2.3,28.7"/><path class="cls-1" d="M112.4,164.9c-.8,3,1.2,14,1.3,18.8h0"/><path class="cls-1" d="M69.2,128.1c.6,2.2.8,4.5.8,6.7h0c0,4.9-1.1,9.7-1.5,14.1"/><path class="cls-1" d="M121.1,253.1s0,0,0,0c-1,2.7-1.2,3.8-2.1,7.1-2.8,10.2-6.2,20.6-9.8,30.4"/><path class="cls-1" d="M101.2,238.1c1.6,3.2,1.9,5.9,1.4,9.5-.5,3.5-1.7,7.3-2.9,10.6-.7,2-1.2,4.2-1.5,6.6-1.4,9.3-.9,21-.6,29.3,0,.1,0,.3,0,.4"/><path class="cls-1" d="M66.1,177.8c-1.2,14,7.6,25.3,12.4,29.7,0,0,0,0,.1.1"/><path class="cls-1" d="M113.8,183.7c9,3.7,21.9,8.7,34.3,14.9"/><path class="cls-1" d="M150,218.1c0,0,.2,0,.3.1,7.2,2.9,11.5.4,25.9,6.3.1,0,.3.1.4.2"/><path class="cls-1" d="M184.3,212.3c-10.7-3.9-17.1-6.5-25.4-9.6h0c-3.2-1.2-6.7-2.5-10.8-4"/><path class="cls-1" d="M176.7,224.7c1,3.9,10.7-6.7,10.2-8-.3-.7-2.7-1.6-2.8-3.1,0-.5.1-.9.3-1.3.4-.5,1-.9,1.8-1,0,0,.2,0,.3,0"/><path class="cls-1" d="M181.4,236.3c1,.5,2.2.2,3.3-.2,9.1-3,18.3-6.1,26.8-10.6,2.8-1.5,5.6-3.2,7.1-6,1.5-2.8.9-6.8-1.9-8-1.3-.6-2.9-.5-4.3-.4-8.5.6-17.3,2-25.7.4"/><path class="cls-1" d="M176.2,224.5c0,3.7,3.4,8,5.1,11.4"/><path class="cls-1" d="M114,183.9c-5-1.5-7-2.9-14.7-5-7-1.9-13.5-3.1-18.8-3.9"/><path class="cls-2" d="M108.6,115.6s0,0,0,0c0,.1,0,.3,0,.4-.3,2.6-.4,2.2-.5,2.4-2.6,4.3-8.8,5.5-12.6,4.1-3.3-1.2-7.8-5.6-8.2-10.1,0-.7,0-1.5.2-2.2,0,0,0-.1,0-.2"/><path class="cls-1" d="M97.6,295.2c.9,2.3,5.2,3.8,7.4,2.6,1.3-.7,2-2,2.7-3.3s.2-2.6,1.3-3.5c0,0,.1-.1.2-.2,1-.7,1.5-.8,2.5.2h0"/><path class="cls-1" d="M97.2,294.2c-1.3,3-2.2,6.1-2.6,9.3-.1.7-.2,1.5.2,2.2.5.9,1.7,1.3,2.8,1.5,8.9,2.3,17.8,4.7,27,5.6,3,.3,6.2.4,8.9-.9,2.6-1.3,4.3-4.6,2.7-7-.7-1.1-2-1.8-3.2-2.5-7.1-3.8-14.2-7.6-21.2-11.4"/><path class="cls-1" d="M89.7,109.2c-.1-.4-.3-.5-.6-.4-.7.1-1.8,1.9-1.9,3.7,0,.5,0,.9.2,1.4"/><path class="cls-1" d="M158.9,202.9c-3.1,1.5-5.9,5.5-7.1,8.7-.7,1.9-1.1,4.3-1.5,6.6-.3,1.6-.5,3.1-.9,4.5-3,10.8-14,22.9-23.6,28.7-1,.6-2.7,1.2-4.6,1.8-4.6,1.4-10.7,2.6-13.3,3.8-3.6,1.7-8.1,4.1-9.5,7.9"/><path class="cls-1" d="M78.5,207.5c8.2,9,16.4,20.1,22.7,30.6"/><path class="cls-1" d="M78.4,207.5s0,0,0,0"/><path class="cls-1" d="M38.7,148.1c3,.3,5.9,1.6,8.1,3.6.4.4.9.9.8,1.5"/><path class="cls-1" d="M111.6,151.4c.2,0,.3.1.5.2,2.2.8,4.1,2.5,5.3,4.5,1,1.9,1.5,4,1.2,6.2,0,.4-.1.8-.2,1.2"/><path class="cls-3" d="M89.6,109.2s0,0,0,0c.9,2.1,1.9,3.3,3.6,5,1.6,1.7,4.5,2.5,6.8,1.9,2.1-.5,2.7-.8,4.7-1.7"/><path class="cls-1" d="M106.2,50.4c22.4,4.9,29.6,14.5,26.8,31.7"/><path class="cls-1" d="M123.6,127.9c4.5-13.5,7.6-39.1,9.2-45.4"/><path class="cls-1" d="M89.1,108.7c2.3-3.6,2.7-14.7,5.6-28.8,1.5-7.3,8.8-12.2,15.6-15.4,0,0,0,0,0,0,8.4,4.7,14.6,11.5,18.1,20.5,0,0,0,0,0,0"/><path class="cls-1" d="M106,50.3c-2.1-.2-4-.2-5.8,0-12.6.6-17.8,6.5-21,12-5.4,9.2-6.9,15.6-6.6,31.5.1,6.5-.4,13.4-1.4,18.7"/><path class="cls-1" d="M130,76.2c.5,2.7-.4,6-1.4,8.9-.8,2.3-1.7,4.2-2,5.2-.5,1.9-1.2,15-8.2,20.9,0,0-4.6,4-8.2,4.6-.4,0-.9,0-1.5-.1-1-.2-2.4-.6-3.9-1.2-3.2-1.3-7-3.3-9.2-5.3"/><path class="cls-1" d="M126.2,85.7c-.2-2.6-4.9-3.4-5.9-2.1"/><path class="cls-1" d="M109.8,80.3c-1.2-1.9-5.7-3.5-8.3-1.3"/><path class="cls-1" d="M116.4,97.3c0,4-2.8,3.3-4.2,3.7"/><path class="cls-1" d="M120.5,90.8c-.3,1.6,0,3,.9,3.1s1.8-.9,2.1-2.5c.3-1.6,0-3-.9-3.1-.8-.2-1.8.9-2.1,2.5Z"/><path class="cls-1" d="M102.6,86.7c-.3,1.5.1,2.9,1,3.1.9.2,1.8-.9,2.2-2.4.3-1.5-.1-2.9-1-3.1-.9-.2-1.8.9-2.2,2.4Z"/><path class="cls-1" d="M116.2,105.4s0,0,0,0c-4.4-.5-7.4-2.4-11.3-5.1-.3-.2-.6-.4-.9-.6"/><path class="cls-1" d="M116.3,104.9c0,.1-.1.3-.2.4-2.6,6.1-11.8,2.2-11.5-4.9"/><path class="cls-1" d="M110,63.9c-.5-5.9-4.4-11.4-9.9-13.6-.1,0-.2,0-.3-.1"/><path class="cls-1" d="M88.6,61.4c0,0,0,.1,0,.2.5,2.5,1,2.8,1.9,4.1,1,1.4,2.4,2.4,3.8,3.4,1.2.8,2.5,1.5,3.9,1.6,1.4,0,3-.6,3.4-2,.5-1.6-.7-3.1-1.9-4.3-3.3-3.1-7.5-5.4-11.9-6.4.3,1,.7,2,.8,3.6"/></svg>