<?xml version="1.0" encoding="UTF-8"?><svg id="asia" xmlns="http://www.w3.org/2000/svg" width="235" height="321.9" viewBox="0 0 235 321.9"><defs><style>.cls-1{stroke-linecap:round;stroke-linejoin:round;}.cls-1,.cls-2{fill:none;stroke:#000;}.cls-2{stroke-miterlimit:10;}.cls-3,.cls-4,.cls-5,.cls-6,.cls-7,.cls-8,.cls-9,.cls-10,.cls-11{stroke-width:0px;}.cls-4{fill:#f9f9f9;}.cls-5{fill:#3a3a3a;}.cls-6{fill:#1e1e1e;}.cls-7{fill:#c5a479;}.cls-8{fill:#deb796;}.cls-9{fill:#b3cfd2;}.cls-10{fill:#65483a;}.cls-11{fill:#fff;}</style></defs><path class="cls-4" d="M137.3,302.7c2.1,3.2-.2,7.7-3.7,9.5-3.6,1.8-7.9,1.7-12,1.3-12.4-1.2-21.9-4.3-33.9-7.5-1.4-.4-3-.9-3.7-2.1-.5-.9-.4-2-.3-3,.3-2.1.9-3.6,1.5-5.6,8.6-.3,18.4-3.5,24.7-9v-.2c8.4,4.4,13.4,8,23,13.2,1.7.9,3.4,1.8,4.4,3.4Z"/><path class="cls-8" d="M129.5,155.6c1.7,3.9-2.7,8-6.1,10.6-3.4,2.6-5.5,3.6-9,1.2-1.7-1.2-3.1-2.9-3.6-4.9-.2-.7-.1-1.6.1-2.5.9-3.5,4.4-7.9,7.3-9.1.2,0,.5-.2.7-.2,4.1-1.3,8.9,1,10.6,5Z"/><path class="cls-8" d="M118.1,150.5l.2.3c-2.9,1.2-6.4,5.6-7.3,9.1h-.4c-.7-2-2.1-2.6-3.4-4.3,2.2-3,4.5-6,7-8.8,1.7,1.8,2.7,2.6,4,3.6Z"/><path class="cls-9" d="M5.3,290.1c-.4,0-.7-.2-1.1-.3,2.3-11,11.3-35.6,17.6-45.2,2.1-3.2,4.5-7,5.9-10.6,1.5-3.6,1.5-4.9,1-9-.6-11.5-2.3-17.9-2-26.8,5.2,1.2,10.3,2.3,15.5,3.5.7.2,1.6.3,2.2,0,.5-.3.8-.8,1.1-1.3,5.1-9.4,9.1-18.8,12-28.6,7.4,1.2,6.1,0,24.6,1.7v.3c.3,2.4,1.1,4.6,1.7,7,0,0,0,0,0,0,1.3,1.2,2.6,2.6,3.9,4.2,8.9,11,17.2,29.3,17.2,34.7.3,23.2,5.7,47,4.7,66.3h.3c0,0,.2.1.3.2v.2c-6.5,5.4-16.3,8.7-24.9,9-.7,0-1.3,0-1.9,0,.7-14,0-21.7-1.6-37.8-.4-3.7-.8-17.4-.2-21.1.5-3.1-.9-6.3-.9-6.3-2.4-5.7-15.6-20.6-18.5-25.4h-.6c-3.6,9.5-6.5,18.5-8.9,25.9-3.2,9.7-5.7,16.6-9.4,26.6-4.5,12.3-7.4,23.3-10.6,32.2l-.4.3c0,0,.2.2.3.3l-.2.2c-8.1,2-18.8,2.3-27-.2Z"/><path class="cls-10" d="M116.8,143.8c-1,1-1.9,2-2.8,3.1-2.5,2.8-4.8,5.7-7,8.8-.5.7-1.1,1.5-1.6,2.2-1.4-1-2.8-2-4.2-3.1-.6-.5-1.3-1-1.6-1.7-.4-1.1.3-2.3,1-3.3.2-.3.4-.5.6-.7,2.1-2.7,4.5-5.2,7.1-7.5,1.6-1.4,1.6-2.1,3.4-1.4,1.7.6,3.5,2.5,5,3.6Z"/><path class="cls-7" d="M62.5,146c-.4-1.8-.7-3.3-1-4.3-1.3-4.8-4.6-25.8-6.1-30.6-1.6-4.7-2.9-9.6-5.4-13.9-2-3.5-5.2-3.2-9.2-4-1.1-.2-2.2-.3-3-1-.7-.7-.7-1.9-.7-2.9.2-14.7,1.8-25.2,7.4-38.8,1.8-4.4,4.2-8.5,7.1-12.3,9.4-12.1,28.7-21.2,43.3-11.7,5.9,3.8,8,4.5,11.4,10.6,2.5,4.6,3.9,18.2,1.2,32.6-2.2,11.2-4,14-9.6,24-1.7,3-3.6,12.5-5,20.5v.8c-.6,2.3-.9,4.5-1.2,6.3-.3,1.6-.5,3-.6,3.9-.6,3.5-2.3,19.8-6.3,30.6-2.2,5.9-5.1,10.1-8.8,9.7-8.7-.9-11.9-12.5-13.5-19.7ZM104.3,56c-8.1-7.7-9.8-15-12.6-14.7-3.9.5-21.3,3.3-23.1,9.7-.2.7-.4,1.5-.6,2.5-.3,1.6-.7,3.4-1,5.5-1.5,9.7-2.3,23.4,1.6,28.1,5.3,3.2,12.4,5.9,14.6,5.6,4.3-.7,10.7-6.5,10.7-6.5,3.4-2.7,5.2-6.7,6.2-10.7,2.1.2,4.1-1.6,4.7-4.3,1.2-5,2.2-8.6,2.6-10.1l-2.6-1.6c-.4-.2-.8-.4-1.2-.6.3-.9.6-1.8.8-2.9Z"/><path class="cls-3" d="M105.4,62.5s0,0,0,.1c-3.7-2.2-9.3-3.2-11.4-2.9-.6,4-.8,6.5-1.1,9.6-.1,1.3.5,2.5,1.5,2.8,2,.5,3.7.9,5.9,1.3,1.3.2,2.7-.9,3.1-2.6.8-3.1,1.7-7.4,1.9-8.2,0,0,0,0,0-.1ZM91.9,72.6c-.4-.7-.7-1.6-.6-2.5.1-1.3.3-2.5.4-3.7.2-1.5.3-2.9.5-4.5.2-1.3.4-2.8.6-4.5l1.4-.3c3.2-.2,6.4.4,9.3,1.8.4.2.8.4,1.2.6l2.6,1.6c-.4,1.5-1.5,5.2-2.6,10.1-.6,2.6-2.6,4.4-4.7,4.3-.1,0-.3,0-.4,0-2.3-.4-3.9-.8-5.9-1.3-.7-.2-1.4-.8-1.9-1.5Z"/><path class="cls-5" d="M105.4,62.5s0,0,0,.1c0,0,0,0,0-.1Z"/><path class="cls-10" d="M108.4,141.6c-2.6,2.2-5,4.7-7.1,7.5l-.3-.2c-4.4-3.6-6.6-4.8-8.5-7.4.2-7.1,0-13.8-.8-20.1.3-1.8.7-4,1.1-6.3,3.4,9.7,9.5,19.3,15.6,26.5Z"/><path class="cls-11" d="M105.4,62.6c-.2.8-1.1,5.1-1.9,8.2-.4,1.7-1.8,2.8-3.1,2.6-2.2-.4-3.9-.8-5.9-1.3-1-.3-1.7-1.4-1.5-2.8.3-3.1.5-5.6,1.1-9.6,2.1-.3,7.7.7,11.4,2.9ZM99.8,66.7c.3-1.4,0-2.6-.4-2.7-.5,0-1.1.9-1.4,2.3-.3,1.4,0,2.6.4,2.7.5,0,1.1-.9,1.4-2.3Z"/><path class="cls-8" d="M104.3,56c-.2,1.1-.5,2-.8,2.9-2.9-1.4-6-2-9.3-1.8l-1.4.3c-.2,1.7-.4,3.1-.6,4.5h-.2c-1.4-.3-2.6-.5-4.6-.9h-.2c.4-1.4.7-2.8,1.1-4.4l-1.2-.6c-5-2.3-10.4-3.2-15.9-2.5h-.8c0,0,0,0,0,0-1.8,0-.4,0-2.3-.1h0c.2-1,.4-1.8.6-2.5,1.8-6.3,19.1-9.2,23.1-9.7,2.8-.4,4.5,6.9,12.6,14.7Z"/><path class="cls-8" d="M91.9,72.6c.5.8,1.1,1.3,1.9,1.5,2,.5,3.7.9,5.9,1.3.1,0,.2,0,.4,0-1,3.9-2.7,7.9-6.2,10.7,0,0-6.3,5.8-10.7,6.5-2.1.3-9.3-2.4-14.6-5.6-3.8-4.7-3-18.4-1.6-28.1,1.8,0,1,0,2.9,0-.2,1.6-.4,3.5-.7,5.5-.4,2.8,1.4,5.5,4.1,6,2.7.5,4.8.8,7.2,1.2,1.7.2,3.9-.9,4.4-2.7.4-1.3.7-2.6,1.1-3.8h.3c3.3.9,3.3.9,5,1.3h.3c-.1,1.2-.3,2.4-.4,3.7,0,.9.2,1.8.6,2.5ZM77.1,76.1c1.3,10.2,9.8,10.6,13.4,4.3-5.3-.6-8.6-1-13.4-4.3Z"/><path class="cls-3" d="M99.3,64c.5,0,.7,1.3.4,2.7s-.9,2.4-1.4,2.3c-.5,0-.7-1.3-.4-2.7.3-1.4.9-2.4,1.4-2.3Z"/><path class="cls-10" d="M92.5,141.5c-.4,14.2-2.4,29.5-4.6,43.4h-.1c-1.3-1.5-2.6-2.9-3.9-4.1,0,0,0,0,0,0-.6-2.4-1.5-4.5-1.7-7v-.3c.2,0,.3,0,.5,0,1.8-5,1.6-10.2,2.1-17.6,4-10.8,5.8-27.1,6.3-30.6.1-.9.4-2.3.6-3.9.8,6.2,1,13,.8,20.1Z"/><path class="cls-3" d="M92,61.8h.2c-.2,1.6-.4,3.1-.5,4.5h-.3c-1.7-.3-1.7-.4-5-1.2h-.3c.4-1.4.8-2.8,1.2-4.3h.2c2,.4,3.2.6,4.6.9Z"/><path class="cls-6" d="M84.7,156c-.5,7.3-.3,12.5-2.1,17.6-.2,0-.3,0-.5,0-18.4-1.7-17.2-.4-24.6-1.7,2.4-8.3,4-16.8,4.9-25.8,1.6,7.2,4.7,18.8,13.5,19.7,3.7.4,6.6-3.9,8.8-9.7Z"/><path class="cls-3" d="M70,59c.3-2.4.4-4.2.5-4.9v-.5c0,0,0,0,.1,0h.8c5.5-.8,10.9,0,15.9,2.4l1.2.6c-.4,1.6-.8,3.1-1.1,4.4-.4,1.5-.8,2.8-1.2,4.2-.4,1.2-.7,2.5-1.1,3.8-.5,1.8-2.7,3-4.4,2.7-2.5-.3-4.5-.7-7.2-1.2-2.7-.5-4.5-3.1-4.1-6,.3-2.1.5-3.9.7-5.5ZM72,56.3c-.1.8-.8,5.2-1.2,8.4-.2,1.7.9,3.3,2.5,3.6,2.7.5,4.8.9,7.2,1.2,1.3.2,2.5-.6,2.8-1.9.9-3,1.7-5.4,2.7-9.3-2.5-1.2-8-2.7-14-1.9Z"/><path class="cls-11" d="M90.5,80.4c-3.6,6.3-12.1,5.9-13.4-4.3,4.8,3.3,8.1,3.7,13.4,4.3Z"/><path class="cls-11" d="M86,58.2c-1,3.9-1.8,6.3-2.7,9.3-.4,1.3-1.6,2.1-2.8,1.9-2.4-.3-4.5-.7-7.2-1.2-1.6-.3-2.7-1.9-2.5-3.6.4-3.2,1.1-7.6,1.2-8.4,6-.8,11.5.7,14,1.9ZM80.7,62.7c.3-1.3,0-2.5-.8-2.7-.7-.1-1.4.8-1.7,2.2-.3,1.3,0,2.5.8,2.7.7.1,1.4-.8,1.7-2.2Z"/><path class="cls-3" d="M79.9,60.1c.7.1,1,1.3.8,2.7-.3,1.3-1,2.3-1.7,2.2-.7-.1-1-1.3-.8-2.7.3-1.3,1-2.3,1.7-2.2Z"/><path class="cls-3" d="M70.5,53.6v.5c0,.7-.2,2.5-.5,4.9-1.9,0-1.1,0-2.9,0,.3-2,.7-3.9,1-5.5h0c1.9,0,.5,0,2.3.1Z"/><path class="cls-10" d="M25.9,137h0c1.2,1.1,2.3,2.5,3.7,4.6.4.5.7,1.2,1.1,2-3.5,1.5-7.8,6.4-10.4,10-3.6-4.9-10.6-14.6-8.5-20,0,0,14.5-27.8,16.2-30,2.4-3,4.6-8,12.8-10.2,4,.7,7.1.4,9.2,4,2.5,4.3,3.8,9.2,5.4,13.9,1.6,4.7,4.8,25.8,6.1,30.6.3,1,.6,2.5,1,4.3-.9,9-2.5,17.5-4.9,25.8-2.9,9.8-6.8,19.2-12,28.6-.3.5-.6,1-1.1,1.3-.7.4-1.5.2-2.2,0-5.2-1.2-10.3-2.3-15.5-3.5-1.7-.4-3.5-.8-5.2-1.2,3.9-11.1,7.7-22.2,11.6-33.3h.3c-.3,2.9,3.3,6.6,5.5,8.1,1.6,1.2,9.3,4.3,8.5.2,1-.2,3.2-1.7,1.7-3.1,1.2-.4,2.5-2,1.4-3.8,4.1-1.6,2.1-3.7-.1-5.4.3-5.2-7.2-3.7-10.7-4.3-2.1-.4-2.9-1.2-4.2-3.2,1.5-1.9,2.3-3.6,1.8-4.3-.3-.4-1.1-1.5-2-2.6h.2c.6-7.3,2.3-12.4,1.7-22.8-3.3,5.1-7.3,10.6-11.3,14.4,0,0,0,0,0,0Z"/><path class="cls-4" d="M50.7,309.1c1.1,3.7-2.4,7.4-6.3,8.2-4,.8-8.1-.4-11.9-1.9-11.6-4.4-17.9-6.4-28.6-12.6-1.3-.7-2.7-1.6-3-3-.2-1,.2-2,.6-2.9,1.1-2.3,2.4-4.6,3.8-6.8,8.1,2.5,18.9,2.2,27,.2l.2-.2c5.3,5.1,8.7,8.4,15,14.5,1.3,1.3,2.7,2.7,3.2,4.4Z"/><path class="cls-8" d="M50.4,159.9c2.2,1.7,4.2,3.8.1,5.4,1.1,1.9-.2,3.5-1.4,3.8,1.5,1.4-.7,2.9-1.7,3.1.8,4.2-6.9,1-8.5-.2-2.1-1.5-5.7-5.2-5.5-8.1,0-.2,0-.4,0-.6-1.2-1.1-3.1-2.3-5.2-3.5,2.1-1.9,5.1-4.9,7.1-7.5,1.3,1.9,2.1,2.7,4.2,3.2,3.6.6,11.1-.9,10.7,4.3Z"/><path class="cls-10" d="M30.7,143.6c.7-.3,1.3-.5,1.9-.5.6,0,1.7,1.2,2.7,2.4.9,1.1,1.7,2.2,2,2.6.6.7-.3,2.4-1.8,4.3-2,2.6-5,5.6-7.1,7.5-1.2,1.1-2.2,1.8-2.3,1.8-2.8-1.8-5.2-3-7.4-5.6.4-.7.9-1.5,1.6-2.5,2.6-3.5,6.9-8.4,10.4-10Z"/><path class="cls-1" d="M100.1,75.3s0,0,0,.1c-1,3.9-2.7,7.9-6.2,10.7,0,0-6.3,5.8-10.7,6.5-2.1.3-9.3-2.4-14.6-5.6-1.4-.8-2.7-1.7-3.7-2.6"/><path class="cls-2" d="M104.3,56c-.2,1.1-.5,2-.8,2.9,0,.1,0,.3-.1.4"/><path class="cls-1" d="M104.9,51.6c0,1.7-.3,3.1-.6,4.4"/><path class="cls-1" d="M91.8,72.1c0,.2,0,.3,0,.5.3,2.4.2,5.6-8,1.8"/><path class="cls-1" d="M90.5,80.4c-5.3-.6-8.6-1-13.4-4.3"/><path class="cls-1" d="M90.5,80.4c-3.6,6.3-12.1,5.9-13.4-4.3"/><path class="cls-1" d="M57.5,171.8s0,0,0,0c7.4,1.2,6.1,0,24.6,1.7.2,0,.3,0,.5,0,1.8-5,1.6-10.2,2.1-17.6h0"/><path class="cls-1" d="M37.2,122.1c0,.2,0,.4,0,.6.6,10.4-1.1,15.6-1.7,22.8"/><path class="cls-1" d="M107,155.6c1.4,1.7,2.7,2.3,3.4,4.2"/><path class="cls-1" d="M92.5,141.5c1.9,2.6,4.1,3.8,8.5,7.4"/><path class="cls-1" d="M114,146.9c1.7,1.8,2.7,2.6,4,3.6"/><path class="cls-2" d="M92.8,115.2c3.4,9.7,9.5,19.3,15.6,26.5"/><path class="cls-1" d="M92.1,113.2c.2.6.4,1.3.7,1.9"/><path class="cls-1" d="M118.9,150.6c-.2,0-.4.1-.7.2-2.9,1.2-6.4,5.6-7.3,9.1-.2.9-.3,1.8-.1,2.5.5,2,1.9,3.7,3.6,4.9,3.5,2.4,5.6,1.4,9-1.2,3.4-2.6,7.8-6.6,6.1-10.6-1.7-3.9-6.5-6.2-10.6-5"/><path class="cls-1" d="M52.5,230.7c2.4-7.4,5.3-16.4,8.9-26,1.2-3.2,2.5-6.5,3.8-9.8"/><path class="cls-1" d="M26.8,198.3c-.3,8.9,1.4,15.3,2,26.8"/><path class="cls-1" d="M52.5,230.7c-3.2,9.7-5.7,16.6-9.4,26.6-4.5,12.3-7.4,23.3-10.6,32.2"/><path class="cls-1" d="M32.3,290.3c-8.1,2-18.8,2.3-27-.2-.4,0-.7-.2-1.1-.3,2.3-11,11.3-35.6,17.6-45.2,2.1-3.2,4.5-7,5.9-10.6,1.5-3.6,1.5-4.9,1-9"/><path class="cls-1" d="M104.9,219.7c0-5.4-8.2-23.7-17.2-34.7-1.3-1.6-2.6-3-3.9-4.2"/><path class="cls-1" d="M62,204.8c3,4.8,16.2,19.7,18.5,25.4"/><path class="cls-1" d="M80.6,230.2s1.4,3.2.9,6.3c-.6,3.7-.2,17.4.2,21.1,1.6,16.1,2.3,23.8,1.6,37.8.6,0,1.3,0,1.9,0,8.6-.3,18.4-3.5,24.7-9"/><path class="cls-1" d="M104.9,219.7c.3,23.2,5.7,47,4.7,66.3h0"/><path class="cls-1" d="M85.3,295.2s0,0,0,.1c-.6,2.1-1.2,3.5-1.5,5.6-.1,1-.2,2.1.3,3,.7,1.2,2.3,1.7,3.7,2.1,12,3.1,21.5,6.2,33.9,7.5,4.1.4,8.4.6,12-1.3,3.6-1.8,5.8-6.3,3.7-9.5-1-1.5-2.7-2.5-4.4-3.4-9.6-5.2-14.6-8.9-22.8-13.2,0,0-.2-.1-.3-.1"/><path class="cls-1" d="M5.5,289.8c0,.1-.1.2-.2.3-1.4,2.2-2.7,4.4-3.8,6.8-.4.9-.8,1.9-.6,2.9.3,1.4,1.7,2.2,3,3,10.7,6.1,17,8.2,28.6,12.6,3.8,1.4,7.9,2.7,11.9,1.9,4-.8,7.4-4.5,6.3-8.2-.5-1.7-1.9-3.1-3.2-4.4-6.3-6.1-9.7-9.4-15-14.5,0,0-.2-.2-.3-.3,0,0-.1-.1-.2-.2"/><path class="cls-2" d="M92.9,114.3c1.4-8,3.4-17.6,5-20.5,5.6-9.9,7.5-12.8,9.6-24,2.8-14.4,1.3-28-1.2-32.6-3.4-6.1-5.5-6.8-11.4-10.6-14.6-9.5-33.9-.4-43.3,11.7-2.9,3.8-5.3,7.9-7.1,12.3-5.7,13.6-7.3,24.1-7.4,38.8,0,1,0,2.2.7,2.9.7.8,1.9.8,3,1,4,.7,7.1.4,9.2,4,2.5,4.3,3.8,9.2,5.4,13.9,1.6,4.7,4.8,25.8,6.1,30.6.3,1,.6,2.5,1,4.3,1.6,7.2,4.7,18.8,13.5,19.7,3.7.4,6.6-3.9,8.8-9.7,4-10.8,5.8-27.1,6.3-30.6.1-.9.4-2.3.6-3.9.3-1.8.7-4,1.1-6.3v-.8"/><path class="cls-1" d="M24.1,136.8c.7,0,1.3.2,1.8.3,0,0,0,0,0,0,4-3.8,8.1-9.3,11.3-14.4,3-4.7,5.4-9,6.4-11"/><path class="cls-1" d="M40.8,93.3c-8.2,2.2-10.3,7.3-12.8,10.2-1.8,2.2-16.2,30-16.2,30"/><path class="cls-1" d="M28.2,159.7c0,0,.2,0,.2.1,2,1.2,4,2.3,5.2,3.5.1.1.2.2.4.4"/><path class="cls-1" d="M11.8,133.6c-2.1,5.4,4.9,15.1,8.5,20,0,0,0,0,0,0"/><path class="cls-1" d="M30.8,143.9c0-.1,0-.2-.2-.3-.4-.8-.7-1.4-1.1-2-1.4-2-2.5-3.4-3.7-4.5"/><path class="cls-1" d="M39.7,155.6c-2.1-.4-2.9-1.2-4.2-3.2,0-.1-.1-.2-.2-.3"/><path class="cls-1" d="M48,158c.5.5,1.5,1.1,2.4,1.8,2.2,1.7,4.2,3.8.1,5.4,1.1,1.9-.2,3.5-1.4,3.8,1.5,1.4-.7,2.9-1.7,3.1.8,4.2-6.9,1-8.5-.2-2.1-1.5-5.7-5.2-5.5-8.1,0-.2,0-.4,0-.6"/><path class="cls-1" d="M39.7,155.6c3.6.6,11.1-.9,10.7,4.3h0"/><path class="cls-1" d="M30.7,143.6c.7-.3,1.3-.5,1.9-.5.6,0,1.7,1.2,2.7,2.4.9,1.1,1.7,2.2,2,2.6.6.7-.3,2.4-1.8,4.3-2,2.6-5,5.6-7.1,7.5-1.2,1.1-2.2,1.8-2.3,1.8-2.8-1.8-5.2-3-7.4-5.6.4-.7.9-1.5,1.6-2.5,2.6-3.5,6.9-8.4,10.4-10Z"/><path class="cls-1" d="M62.5,145.3c0,.2,0,.5,0,.7-.9,9-2.5,17.5-4.9,25.8-2.9,9.8-6.8,19.2-12,28.6-.3.5-.6,1-1.1,1.3-.7.4-1.5.2-2.2,0-5.2-1.2-10.3-2.3-15.5-3.5-1.7-.4-3.5-.8-5.2-1.2,3.9-11.1,7.7-22.2,11.6-33.3"/><path class="cls-1" d="M92.5,141.5c-.4,14.2-2.4,29.5-4.6,43.4"/><path class="cls-2" d="M91.4,119.6c0,.6.2,1.3.3,1.9.8,6.2,1,13,.8,20.1"/><path class="cls-1" d="M101.2,149.1c-.2.2-.4.5-.6.7-.7,1-1.4,2.1-1,3.3.3.8.9,1.3,1.6,1.7,1.4,1,2.8,2,4.2,3.1.5-.8,1-1.5,1.6-2.2,2.2-3,4.5-6,7-8.8.9-1,1.8-2.1,2.8-3.1-1.5-1.1-3.3-2.9-5-3.6-1.8-.7-1.8,0-3.4,1.4-2.6,2.2-5,4.7-7.1,7.5Z"/><path class="cls-1" d="M83.8,180.8s0,0,0,0c0-.1-.4,0-.4-.2"/><path class="cls-1" d="M82.1,173.8c.3,2.4,1.1,4.6,1.7,7"/><path class="cls-2" d="M104.5,56.1s0,0-.1-.1c-8.1-7.7-9.8-15-12.6-14.7-3.9.5-21.3,3.3-23.1,9.7-.2.7-.4,1.5-.6,2.5-.3,1.6-.7,3.4-1,5.5-1.5,9.7-2.3,23.4,1.6,28.1.2.3.5.5.7.8"/><path class="cls-2" d="M66.9,174c-.7,4.5-1.4,9-2.1,13.5"/><path class="cls-2" d="M71.9,173.8c-.1,2.7-.8,5.3-2.1,7.7"/><path class="cls-1" d="M98,66.3c-.3,1.4,0,2.6.4,2.7.5,0,1.1-.9,1.4-2.3s0-2.6-.4-2.7c-.5,0-1.1.9-1.4,2.3Z"/><line class="cls-1" x1="91.1" y1="61.7" x2="90.9" y2="61.7"/><line class="cls-1" x1="90.6" y1="66.2" x2="90.2" y2="66.2"/><path class="cls-1" d="M105.4,62.6c-.2.8-1.1,5.1-1.9,8.2-.4,1.7-1.8,2.8-3.1,2.6-2.2-.4-3.9-.8-5.9-1.3-1-.3-1.7-1.4-1.5-2.8.3-3.1.5-5.6,1.1-9.6,2.1-.3,7.7.7,11.4,2.9Z"/><path class="cls-1" d="M105.5,62.5s0,0,0,0c0,0,0,0,0,.1"/><path class="cls-1" d="M105.4,62.6s0,0,0-.1"/><path class="cls-1" d="M107.4,61.1c-.4,1.5-1.5,5.2-2.6,10.1-.6,2.6-2.6,4.4-4.7,4.3-.1,0-.3,0-.4,0-2.3-.4-3.9-.8-5.9-1.3-.7-.2-1.4-.8-1.9-1.5-.4-.7-.7-1.6-.6-2.5.1-1.3.3-2.5.4-3.7.2-1.5.3-2.9.5-4.5.2-1.3.4-2.8.6-4.5"/><path class="cls-1" d="M92,61.8c-1.4-.3-2.6-.5-4.6-.9"/><path class="cls-1" d="M91.4,66.3c-1.7-.3-1.7-.3-5-1.2"/><path class="cls-1" d="M107.4,61.1l-2.6-1.6c-.4-.2-.8-.4-1.2-.6-2.9-1.4-6-2-9.3-1.8l-1.4.3"/><path class="cls-1" d="M80.7,62.7c-.3,1.3-1,2.3-1.7,2.2-.7-.1-1-1.3-.8-2.7.3-1.3,1-2.3,1.7-2.2.7.1,1,1.3.8,2.7Z"/><path class="cls-1" d="M72,56.3c-.1.8-.8,5.2-1.2,8.4-.2,1.7.9,3.3,2.5,3.6,2.7.5,4.8.9,7.2,1.2,1.3.2,2.5-.6,2.8-1.9.9-3,1.7-5.4,2.7-9.3-2.5-1.2-8-2.7-14-1.9Z"/><path class="cls-1" d="M72,56.3s0,0,0,0h0s0,0,0,0"/><path class="cls-1" d="M70.5,54.1c0,.7-.2,2.5-.5,4.9-.2,1.6-.4,3.5-.7,5.5-.4,2.8,1.4,5.5,4.1,6,2.7.5,4.8.8,7.2,1.2,1.7.2,3.9-.9,4.4-2.7.4-1.3.7-2.6,1.1-3.8.4-1.3.8-2.7,1.2-4.2.4-1.3.7-2.7,1.1-4.4"/><path class="cls-1" d="M68.2,53.5c1.9,0,.5,0,2.3.1h0s.8,0,.8,0c5.5-.7,10.9.1,15.9,2.5l1.2.6"/><path class="cls-1" d="M66.8,58.9c.1,0,.2,0,.3,0,1.8,0,1,0,2.9,0,0,0,.1,0,.2,0"/><path class="cls-2" d="M47.2,89.5c7.4-.2,13.6,4.1,17.4,10.4,1.9,3.2,5.1,5.5,8.6,6.5,3.6,1,7.5.6,10.7-1.2"/><path class="cls-2" d="M64.6,118.3c.6,3.4,2.1,6.9,4.8,9.1,2.7,2.2,6.7,2.9,9.8,1.2"/></svg>