<?xml version="1.0" encoding="UTF-8"?><svg id="asia" xmlns="http://www.w3.org/2000/svg" width="235" height="321.9" viewBox="0 0 235 321.9"><defs><style>.cls-1{fill:none;stroke:#000;stroke-linecap:round;stroke-linejoin:round;}.cls-2,.cls-3,.cls-4,.cls-5,.cls-6,.cls-7,.cls-8{stroke-width:0px;}.cls-3{fill:#f9f9f9;}.cls-4{fill:#383838;}.cls-5{fill:#2e2e2e;}.cls-6{fill:#d42d55;}.cls-7{fill:#ccada2;}.cls-8{fill:#fff;}</style></defs><path class="cls-4" d="M98.6,294.4c1,2.2,5.2,3.6,7.3,2.5,1.3-.7,2.1-2,2.7-3.3.5-1.1.3-2.2.8-3,.1-.2.3-.4.5-.5,1.1-.9,1.7-1,2.7,0h0c7.1,3.8,14.2,7.6,21.3,11.4,1.2.7,2.5,1.4,3.3,2.5,1.6,2.4-.1,5.7-2.8,7-2.7,1.3-5.9,1.2-8.9.9-9.2-.9-18.2-3.3-27.1-5.6-1.1-.3-2.3-.6-2.8-1.5-.4-.7-.3-1.4-.2-2.2.5-3.2,1.4-6.3,2.7-9.3h.5c0,.4,0,.8,0,1.2Z"/><path class="cls-7" d="M130.1,177.5c1.2,2.8-1.9,5.7-4.3,7.5s-3.9,2.6-6.5.8c-1.2-.8-2.2-2-2.6-3.5,0-.1,0-.2,0-.3-.5-2.5,1-5.1,3.1-6.7,2.2-1.6,0-.8,2.7-1.4,2.9-.9,6.4.8,7.6,3.5Z"/><path class="cls-7" d="M122.5,174c-2.6.6-.5-.1-2.7,1.4-2.1,1.5-3.6,4.1-3.1,6.7h-.1c-2.5-6.7-17.6-16.2-19.2-21.4l-.2-.2c2.1-1.7,6.2-3.6,8.9-6,4.2,7.2,12,16.4,16.4,19.5Z"/><path class="cls-3" d="M112.9,251.2c-.3,13.1-1.4,24.5-3.4,39.3-.5.9-.3,2-.8,3-.6,1.3-1.4,2.6-2.7,3.3-2.2,1.2-6.3-.3-7.3-2.5.6-12-.6-18.9-3.7-30.6-.3-1.1-.6-4.1-.9-5.8h0c7-1.2,13.3-3.2,18.7-6.7h.1Z"/><path class="cls-6" d="M58,190.8v-.2c2.2,2.2,5.3,4.7,6.7,4,.4-.2.9-.8,1.4-1.7,10,3,13.5,3.8,26.5,2.6,8.4,8.3,19.2,29.5,20.3,41.8,0,5,0,9.6,0,14h-.1c-5.4,3.5-11.8,5.5-18.7,6.7-8.3,1.4-17.5,1.6-26.9,1.7-1.7,0-3.6,0-5.7,0-5.9-.2-12.5-1.1-16.4-4.2-.4-.3-.8-.7-1.2-1.1,1-1.9,5.4-10.8,5.5-15,.2-7.4-2.6-35.7,4-50.9h0c1.5.8,3,1.6,4.5,2.3Z"/><path class="cls-3" d="M106.1,154.5c-2.6,2.4-6.8,4.3-8.9,6h-.2c-1.4,8.4-3.4,16.9-4.1,27.2-8,.8-15.8.7-23.9-2.3h0c.2-1,.2-1.9,0-2.5-.9-2.2-9.2-4.3-10.8-2.6h0c-1.1-1.5-2-3-2.9-4.5h.4c1-10.3,2.4-21.3,1.6-27.8-2.6,4.7-5.1,9.3-6,10.3-.6-.2-1.2-.4-1.7-.6-4.5-1.8-7.7-4.2-9.6-6.1-1.1-1.1-1.8-2-1.9-2.5-.3-.9,7.7-14.1,8.2-14.9,4.6-7.1,5.9-9.6,12.6-11.9,5.6-1.4,3.4-1,8.9-1.9h0c-.1.5-.1,1.1,0,1.6.3,1.7.7,3.5,1.5,5,2.4,4.3,5.1,6.5,9.6,7.5.6-.5,1.6-1.3,2.7-2.1.3,8.6-.9,17.2-3.6,25.3-.4,1.2-1.7,8.6-1.6,9.9.3,3.5,4.3,5.3,6.1,8.3,3.1-1.8,6.4-3.9,7.3-7.3.5-1.8,1.2-9.8,1-11.6-.9-8.2-1.8-16.5-2.7-24.7h.3c1.1,1,2.3,2.1,2.7,2.7,2-3.2.2-8.6-2.9-12.4l.2-.2c1.7.5,4.3,1.6,5.7,2.8,6.3,5.1,9.7,20.2,13.4,27.3-.4.6-.9,1.1-1.5,1.6Z"/><path class="cls-5" d="M107.2,78c3.1,8.2,1.5,19.5-2.3,27.4-1,2.1-.3,4.8-.4,7.1-.1,2.3-.6,4.7-2.2,6.4-1.5,1.6-3.7,2.4-5.9,2.5-2.2.1-4.4-.3-6.5-.8,1.8-1.2,3.5-2.9,5.1-4.5,1.4-1.4,2.4-2.1,4.4-5.7h.2c1.2-2,2.5-4,2.8-7.1.3-2.6.6-5.2.9-7.8.2-2.1.4-4.2.3-6.2-.5-9-7.1-15.3-15.2-18-1.4-.4-2.6-.7-3.7-.7v-.3c-.4-2.9-2-5.7-4.2-7.6l.2-.2c2.9-1.7,10.2-1.7,14.8.2,7.8,3.2,9,8.2,11.7,15.3Z"/><path class="cls-7" d="M89.8,120.7c-.7.5-1.5.9-2.3,1.3-4.2,1.7-9.5.6-17.2-7.3-.6-.7-1.3-1.4-2-2.1h0c-2.7-4.1-4.2-7.1-5.1-12-2.6.7-4.5-4.1-3.8-6.7,2.1-7.8,5-2.4,7.3-4.9,2.3-2.4,3.8-6.5,5.7-9.3,3.5-5.2,6.8-9.1,12.2-8.9,1.1,0,2.4.3,3.7.7,8.1,2.7,14.7,8.9,15.2,18,.1,2.1-.1,4.2-.3,6.2-.3,2.6-.6,5.2-.9,7.8-.3,3.1-1.7,5.2-2.8,7.1h-.2c-2.1,3.6-3.1,4.3-4.4,5.7-1.6,1.7-3.3,3.3-5.1,4.5ZM101.6,87.1c.4-.3.1-.9-.2-1.3-.8-.9-2-1.3-3.2-1.4s-2.4,0-3.6.2c-.9.2-1.7.7-1.8,1.3,0,.6.7,1.4,1.7,1.4.4,0,.7,0,1.1,0,1.6-.4,3.5,0,5.2,0,.2,0,.5,0,.7-.2ZM98.4,94.9c.1-1.6-.4-3-1.3-3.1-.8,0-1.6,1.2-1.8,2.8-.1,1.6.4,3,1.3,3.1.8,0,1.6-1.2,1.8-2.8ZM86.5,114c3-.2,4.4-1.3,5.9-3.6-5.1,1.8-14.7-1.4-15.6-2.5,1.8,3.3,1.8,2.6,3.4,3.9,1.7,1.3,4.5,2.3,6.3,2.2ZM83.7,85.7c1.1-2.7-4.8-3-6.6-2.8-1.2.2-2.4.5-3.3,1.3-.3.3-.7.6-1,.9-.5.5,0,1.2.6,1,1.9-.7,4.6-.4,6.5.2.7.2,1.4.5,2.1.5.7,0,1.4-.5,1.6-1.1ZM80.4,93.3c.1-1.6-.4-3-1.3-3.1-.8,0-1.6,1.2-1.8,2.8-.1,1.6.4,3,1.3,3.1.8,0,1.6-1.2,1.8-2.8Z"/><path class="cls-2" d="M101.4,85.8c.3.4.6,1,.2,1.3-.2.2-.5.2-.7.2-1.7,0-3.6-.3-5.2,0-.4,0-.7.1-1.1,0-1,0-1.7-.8-1.7-1.4,0-.6.8-1.1,1.8-1.3,1.2-.2,2.4-.3,3.6-.2s2.4.5,3.2,1.4Z"/><path class="cls-2" d="M97.2,91.8c.8,0,1.4,1.5,1.3,3.1-.1,1.6-.9,2.9-1.8,2.8-.8,0-1.4-1.5-1.3-3.1.1-1.6.9-2.9,1.8-2.8Z"/><path class="cls-4" d="M92.9,187.7c-.2,2.4-.3,5-.3,7.7-13,1.1-16.5.4-26.5-2.6,1.2-1.9,2.4-5,2.9-7.3h0c8,3.1,15.8,3.1,23.9,2.3Z"/><path class="cls-6" d="M90.8,157.3c.2,1.8-.5,9.8-1,11.6-1,3.4-4.3,5.5-7.3,7.3-1.7-3-5.8-4.8-6.1-8.3-.1-1.3,1.2-8.7,1.6-9.9,2.7-8.1,3.9-16.8,3.6-25.3,1.3-.9,2.7-1.9,3.6-2.6.2-.1.3-.3.4-.4.5.6,1.6,1.7,2.7,2.8h-.3c.9,8.4,1.8,16.6,2.7,24.8Z"/><path class="cls-3" d="M88.2,122.9c3,3.9,4.8,9.2,2.9,12.4-.5-.6-1.6-1.7-2.7-2.8s-2.3-2.2-2.7-2.8c-.1.1-.3.3-.4.4v-.5c.9,0,1.4-.8,1.9-2.8.3-1.4,0-2.6-.1-4h1c0,0,.1,0,.2.2Z"/><path class="cls-8" d="M92.4,110.5c-1.5,2.2-2.9,3.4-5.9,3.6-1.8.1-4.7-.9-6.3-2.2-1.6-1.3-1.6-.6-3.4-3.9.9,1.1,10.5,4.3,15.6,2.5Z"/><path class="cls-7" d="M87.5,122.1c.2.2.3.4.5.6h-1c.1,1.6.4,2.8.1,4.1-.5,2.1-1,2.8-2,2.8-.5,0-1.1,0-1.8-.3-2.2-.6-12.2-6.6-13.5-10.2h0c0-.3,0-.6.1-.8.2-1.2.1-1.8.3-3.7,7.7,7.9,13,9,17.2,7.3h0Z"/><path class="cls-3" d="M69.8,119.1c1.3,3.5,11.3,9.6,13.5,10.2.7.2,1.3.3,1.8.3v.5c-.8.7-2.3,1.7-3.6,2.6-1.1.8-2.1,1.5-2.7,2.1-4.5-1-7.2-3.2-9.6-7.5-.8-1.5-1.2-3.3-1.5-5,0-.5,0-1.1,0-1.6.1-.5.3-1,.7-1.4.4-.4.8-.7,1.4-.9h.1c0,.2,0,.5-.1.8h0Z"/><path class="cls-5" d="M68.3,112.5h0c.7.7,1.3,1.4,2,2.1-.1,1.9-.1,2.5-.3,3.7h-.1c-.6.1-1.1.4-1.4.8-4.4-.3-5.1-.7-9.1-2.7-2.5-1.3-5.1-3.3-5.5-6.1-.7-4.5,5.1-8.9,3.7-13.2-3.5-10.4,1.2-27,10.6-32.8,3.2-2,8.3-4.8,11.4-2.5.4.3.7.5,1,.8,2.2,2,3.8,4.7,4.2,7.6v.3c-5.4-.2-8.7,3.7-12.2,8.9-1.9,2.8-3.3,6.9-5.7,9.3-2.4,2.4-5.2-2.9-7.3,4.9-.7,2.6,1.2,7.4,3.8,6.7.9,4.9,2.4,8,5.1,12Z"/><path class="cls-2" d="M77.1,83c1.8-.2,7.7,0,6.6,2.8-.2.6-.9,1-1.6,1.1-.7,0-1.4-.3-2.1-.5-1.9-.6-4.6-.9-6.5-.2-.6.2-1.1-.5-.6-1,.3-.3.7-.6,1-.9.8-.8,2-1.1,3.3-1.3Z"/><path class="cls-2" d="M79.1,90.2c.8,0,1.4,1.5,1.3,3.1-.1,1.6-.9,2.9-1.8,2.8-.8,0-1.4-1.5-1.3-3.1.1-1.6.9-2.9,1.8-2.8Z"/><path class="cls-4" d="M35.3,288.4c1.3,1.9,7.7,2,8.6,1,1-1.1.6-2.5,2-3.1.5-.2.9-.3,1.3-.3.5,0,.8.4,1.2,1.1,5.5,5.4,10.9,10.8,16.4,16.2,1,1,2,2,2.3,3.2.8,2.7-1.6,5.4-4.4,5.9-2.8.6-5.8-.4-8.5-1.4-8.3-3.3-15.9-7.8-23.5-12.4-.9-.5-1.9-1.2-2.2-2.2-.2-.7.1-1.5.4-2.1,1.3-2.9,3.7-7.7,6.6-8.5h.5c-.2,1-.4,1.8-.6,2.5h0Z"/><path class="cls-7" d="M66.1,192.8c-.5.9-1,1.5-1.4,1.7-1.4.7-4.5-1.8-6.6-4-.8-.9-1.4-1.7-1.7-2.2-.7-.6-1.4-1.2-2-1.8-7.5-6.6-11.7-10.9-16.5-20.6-1.5-3.1-.5-7.8,2-14.3h0c1.9,1.8,5.1,4.3,9.6,6.1h0c-1.2,1.9-.9,2.3-2.1,4.3,3.6,5.7,5.5,9.7,7.9,13.8.9,1.5,1.8,3,2.9,4.5h0c1.6-1.7,9.9.4,10.8,2.5.2.6.2,1.4,0,2.5-.4,2.3-1.7,5.4-2.9,7.3Z"/><path class="cls-3" d="M61.4,259.6v.2c-4.7,8.7-8.9,18.4-14.3,26.2-.3,0-.8,0-1.3.3-1.3.6-1,2-2,3.1-.9,1-7.3.9-8.6-1h0c.2-.8.4-1.6.6-2.4,2.2-9.5,4.4-23,9.1-30.6h0c3.9,3.2,10.5,4,16.4,4.2Z"/><path class="cls-4" d="M58.1,190.5v.2c-1.6-.8-3.1-1.5-4.6-2.3h0c.3-.7.6-1.2.9-1.8h.1c.6.5,1.3,1,2,1.6.3.5.9,1.4,1.7,2.2Z"/><path class="cls-1" d="M69.8,119.1s0,0,0,0c1.3,3.5,11.3,9.6,13.5,10.2.7.2,1.3.3,1.8.3,1,0,1.5-.8,2-2.8.3-1.4,0-2.6-.1-4"/><path class="cls-1" d="M62.9,137.9c-1.3,2.2-3.5,6.3-5.7,10.3-2.6,4.7-5.1,9.3-6,10.3-.6-.2-1.2-.4-1.7-.6-4.5-1.8-7.7-4.2-9.6-6.1-1.1-1.1-1.8-2-1.9-2.5-.3-.9,7.7-14.1,8.2-14.9,4.6-7.1,5.9-9.6,12.6-11.9"/><path class="cls-1" d="M65.9,192.7c0,0,.1,0,.2,0,10,3,13.5,3.8,26.5,2.6,0-2.7,0-5.2.3-7.7.7-10.3,2.7-18.9,4.1-27.3,1.1-6.5,1.9-12.9,1.5-19.9"/><path class="cls-1" d="M57.1,147.8c0,0,0,.2,0,.3.9,6.5-.5,17.5-1.6,27.6"/><path class="cls-1" d="M39.8,151.7c-2.5,6.5-3.5,11.2-2,14.3,4.8,9.7,8.9,14,16.5,20.6.6.6,1.3,1.2,2,1.8"/><path class="cls-1" d="M49.4,157.8c-1.2,1.9-.9,2.2-2.1,4.3,3.6,5.7,5.5,9.7,7.9,13.8.9,1.5,1.8,3,2.9,4.5.1.1.2.3.3.5"/><path class="cls-1" d="M88.4,122.7c1.7.5,4.3,1.6,5.7,2.8,6.3,5.1,9.7,20.2,13.4,27.3-.4.6-.9,1.1-1.5,1.6-2.6,2.4-6.8,4.3-8.9,6"/><path class="cls-1" d="M58.2,180.4c1.6-1.7,9.9.4,10.8,2.6.2.6.2,1.4,0,2.5-.4,2.3-1.7,5.4-2.9,7.3s-1,1.5-1.4,1.7c-1.4.7-4.5-1.8-6.6-4-.8-.9-1.4-1.7-1.7-2.2"/><path class="cls-1" d="M97.4,160.7c1.5,5.2,16.7,14.7,19.2,21.4"/><path class="cls-1" d="M106,154.4s0,0,0,.1c4.2,7.2,12,16.4,16.4,19.5"/><path class="cls-1" d="M122.5,174c-2.6.6-.5-.1-2.7,1.4-2.1,1.5-3.6,4.1-3.1,6.7,0,.1,0,.2,0,.3.4,1.4,1.4,2.6,2.6,3.5,2.5,1.7,4,1,6.5-.8s5.6-4.7,4.3-7.5c-1.2-2.8-4.7-4.4-7.6-3.5"/><path class="cls-1" d="M54.2,186.7c-.3.6-.6,1.2-.9,1.8-6.7,15.2-3.9,43.5-4,50.9-.1,4.2-4.5,13-5.5,15,.4.4.7.7,1.2,1.1,3.9,3.2,10.5,4,16.4,4.2,2,0,3.9,0,5.7,0,9.4,0,18.6-.3,26.9-1.7,7-1.2,13.3-3.2,18.7-6.7"/><path class="cls-1" d="M61.4,259.8c-4.7,8.7-8.9,18.4-14.3,26.2,0,0,0,0,0,0"/><path class="cls-1" d="M45,255.4c-4.7,7.6-6.9,21.1-9.1,30.6-.2.8-.4,1.6-.6,2.4"/><path class="cls-1" d="M112.9,237.2c-1.2-12.3-11.9-33.5-20.3-41.8"/><path class="cls-1" d="M94,258c.3,1.8.6,4.7.9,5.8,3.1,11.6,4.3,18.5,3.7,30.6v-1.2c0-.3,0-.6,0-1"/><path class="cls-1" d="M112.9,237.2c0,5,0,9.6,0,14-.3,13.1-1.4,24.5-3.4,39.3,0,0,0,.2,0,.2"/><path class="cls-1" d="M58.8,122.5c5.6-1.4,3.4-1,8.9-1.9"/><path class="cls-1" d="M98.5,294.2c0,0,0,.1,0,.2,1,2.2,5.2,3.6,7.3,2.5,1.3-.7,2.1-2,2.7-3.3.5-1.1.3-2.2.8-3,.1-.2.3-.4.5-.5,1.1-.9,1.7-1,2.7,0h0"/><path class="cls-1" d="M98.2,293.1c-1.3,3-2.2,6.1-2.7,9.3-.1.7-.2,1.5.2,2.2.5.9,1.7,1.3,2.8,1.5,8.9,2.3,17.9,4.7,27.1,5.6,3,.3,6.2.4,8.9-.9,2.6-1.3,4.3-4.6,2.8-7-.7-1.1-2-1.8-3.3-2.5-7.1-3.8-14.2-7.6-21.3-11.5"/><path class="cls-1" d="M35.1,287.8c0,.2,0,.4.2.6,1.3,1.9,7.7,2,8.6,1,1-1.1.6-2.5,2-3.1.5-.2.9-.3,1.3-.3.5,0,.8.4,1.2,1.1,0,0,0,.1,0,.2"/><path class="cls-1" d="M35.4,285.9c-2.9.8-5.3,5.6-6.6,8.5-.3.7-.6,1.4-.4,2.1.2,1,1.2,1.7,2.2,2.2,7.6,4.5,15.3,9.1,23.5,12.4,2.7,1.1,5.6,2,8.5,1.4,2.8-.6,5.2-3.3,4.4-5.9-.4-1.3-1.4-2.3-2.3-3.2-5.5-5.4-10.9-10.8-16.4-16.2,0,0-.2-.2-.2-.2"/><path class="cls-1" d="M69,185.4c8,3.1,15.8,3.1,23.9,2.3,0,0,0,0,.1,0"/><path class="cls-1" d="M53.5,188.5c1.5.8,3,1.5,4.5,2.3,0,0,0,0,0,0"/><path class="cls-1" d="M69.9,118.3c-.6.1-1.1.4-1.4.9-.3.4-.6.9-.7,1.4-.1.5-.1,1.1,0,1.6.3,1.7.7,3.5,1.5,5,2.4,4.3,5.1,6.5,9.6,7.5.6-.5,1.6-1.3,2.7-2.1,1.3-.9,2.7-1.9,3.6-2.6.2-.1.3-.3.4-.4.5.6,1.6,1.7,2.7,2.8s2.3,2.2,2.7,2.8c2-3.2.2-8.6-2.9-12.4,0,0-.1-.2-.2-.3-.2-.2-.3-.4-.5-.6"/><path class="cls-1" d="M81.5,132.6s0,0,0,0c.3,8.6-.9,17.2-3.6,25.3-.4,1.2-1.7,8.6-1.6,9.9.3,3.5,4.3,5.3,6.1,8.3,3.1-1.8,6.4-3.9,7.3-7.3.5-1.8,1.2-9.8,1-11.6-.9-8.2-1.8-16.5-2.7-24.7"/><path class="cls-1" d="M99.3,110.5c-2.1,3.6-3.1,4.3-4.4,5.7-1.6,1.7-3.3,3.3-5.1,4.5-.7.5-1.5.9-2.3,1.3-4.2,1.7-9.5.6-17.2-7.3-.6-.7-1.3-1.4-2-2.1"/><path class="cls-1" d="M69.9,119.1c0-.3,0-.5.1-.8.2-1.2.1-1.8.3-3.7,0-.3,0-.6,0-.9"/><path class="cls-1" d="M77.3,93c-.1,1.6.4,3,1.3,3.1.8,0,1.6-1.2,1.8-2.8.1-1.6-.4-3-1.3-3.1-.8,0-1.6,1.2-1.8,2.8Z"/><path class="cls-1" d="M92.5,102.7c-.5,4.3-4.3,3.3-8.3,2.8"/><path class="cls-1" d="M92.4,110.5c-5.1,1.8-14.7-1.4-15.6-2.5,1.8,3.3,1.8,2.6,3.4,3.9,1.7,1.3,4.5,2.3,6.3,2.2,3-.2,4.4-1.3,5.9-3.6Z"/><path class="cls-1" d="M99.5,110.5c1.2-1.9,2.5-4,2.8-7.1.3-2.6.6-5.2.9-7.8.2-2.1.4-4.2.3-6.2-.5-9-7.1-15.3-15.2-18-1.4-.4-2.6-.7-3.7-.7-5.4-.2-8.7,3.7-12.2,8.9-1.9,2.8-3.3,6.9-5.7,9.3-2.4,2.4-5.2-2.9-7.3,4.9-.7,2.6,1.2,7.4,3.8,6.7.9,4.9,2.4,8,5.1,12,.1.1.2.3.3.4"/><path class="cls-1" d="M80.7,62.5c2.9-1.7,10.2-1.7,14.8.2,7.8,3.2,9,8.2,11.7,15.3,3.1,8.2,1.5,19.5-2.3,27.4-1,2.1-.3,4.8-.4,7.1-.1,2.3-.6,4.7-2.2,6.4-1.5,1.6-3.7,2.4-5.9,2.5-2.2.1-4.4-.3-6.5-.8,0,0,0,0,0,0"/><path class="cls-1" d="M84.7,70.4c-.4-2.9-2-5.7-4.2-7.6-.3-.3-.7-.6-1-.8-3.2-2.3-8.3.5-11.4,2.5-9.3,5.8-14.1,22.4-10.6,32.8,1.5,4.3-4.4,8.7-3.7,13.2.4,2.8,3,4.8,5.5,6.1,3.9,2.1,4.7,2.4,9.1,2.7"/><path class="cls-1" d="M83.7,85.7c-.2.6-.9,1-1.6,1.1-.7,0-1.4-.3-2.1-.5-1.9-.6-4.6-.9-6.5-.2-.6.2-1.1-.5-.6-1,.3-.3.7-.6,1-.9.8-.8,2-1.1,3.3-1.3,1.8-.2,7.7,0,6.6,2.8Z"/><path class="cls-1" d="M95.7,87.3c-.4,0-.7.1-1.1,0-1,0-1.7-.8-1.7-1.4,0-.6.8-1.1,1.8-1.3,1.2-.2,2.4-.3,3.6-.2s2.4.5,3.2,1.4c.3.4.6,1,.2,1.3-.2.2-.5.2-.7.2-1.7,0-3.6-.3-5.2,0Z"/><path class="cls-1" d="M95.4,94.6c-.1,1.6.4,3,1.3,3.1.8,0,1.6-1.2,1.8-2.8.1-1.6-.4-3-1.3-3.1-.8,0-1.6,1.2-1.8,2.8Z"/></svg>