<?xml version="1.0" encoding="UTF-8"?><svg id="asia" xmlns="http://www.w3.org/2000/svg" width="235" height="321.9" viewBox="0 0 235 321.9"><defs><style>.cls-1{stroke-linecap:round;stroke-linejoin:round;}.cls-1,.cls-2{fill:none;stroke:#000;}.cls-3{fill:#272728;}.cls-3,.cls-4,.cls-5,.cls-6,.cls-7,.cls-8,.cls-9,.cls-10,.cls-11{stroke-width:0px;}.cls-4{fill:#00cdff;}.cls-5{fill:#23233f;}.cls-6{fill:#000;}.cls-7{fill:#edd2c0;}.cls-2{stroke-miterlimit:10;}.cls-8{fill:#f1f6fc;}.cls-9{fill:#2f4b57;}.cls-10{fill:#cbaa99;}.cls-11{fill:#fff;}</style></defs><path class="cls-8" d="M214.8,207.8c2.8,1.2,3.3,5.1,1.8,7.8s-4.4,4.5-7.2,6c-8.6,4.6-17.8,7.7-27,10.9-3.3,1.2-7.1-1.8-8.2-3.1,0,0,0,0,0,0-.4-6.8,6.4-15.7,10.4-19.4l.2.2c8.5-.8,17.3-1.8,25.8-2.6,1.5-.1,3-.3,4.3.3Z"/><path class="cls-5" d="M64.2,181.5c0-1.4,0-2.8.1-4.3,1.6-10.5,16.5-7,34.3-3.1,8.8,1.9,11.2,4.2,15.6,5.2.3,0,.7.2,1,.2,4.4,1.4,10.2,3.2,13.1,4.5,1.2.5,36.4,13.5,50.4,20.4,4.8,2.4,6,5.2,6,5.3-.1,0-.2.2-.3.3-3.9,3.7-10.7,12.7-10.4,19.4,0,0,0,0,0,0-.6.4-4.4,2.2-9.5-.4-12.3-6.1-39.5-16.9-41.2-17.1-.5,0-1-.1-1.5-.2-9.1-1.1-30.7-4.8-40.1-6.7-2.4-.6-4.3-1.2-5.6-1.7-5-2.5-11.7-9.4-12-21.9Z"/><path class="cls-3" d="M137.1,54.3c3.5,11.2,1.4,15.6-2.5,26.7-.4,1.1-4.4,9.4-5.3,8.8-1.2-.8-.5-6-.6-7.5,0-.3,0-.7,0-1-.4-4.1-2.9-8-6.5-10.1,0,.7,0,1.4-.1,2.2-4.1-2.1-7.7-5.2-10.4-9,0,.5-.2,1-.3,1.5-5.2-1.6-9.5-5.7-11.2-10.8-5.5,4-9.3,19.9-9.9,26.6-.4-1.2-2.4-3.2-3.1-6.3-2.9,6.2-1.6,12.1,0,18.6.2.7.4,1.4.5,2.1-1.1-.5-2.4-1.4-3.6-2.6-3.2-3.2-6.3-8.2-7.8-11.2-3.3-7-3.1-14.4-2.2-22.1.8-7.7,4.3-15.5,10.8-19.8,6.7-4.4,15.2-5.2,23.2-5,5.3.1,12.2,3.4,17.2,5.2,5,1.8,10.2,8.6,11.7,13.6Z"/><path class="cls-8" d="M136.6,303.3c2,2.3.8,6-1.7,7.8-2.5,1.8-5.9,2.2-9,2.3-9.7.4-20.1-3.4-29.7-4.4-1.2-.1-2.4-.3-3.1-1.2-.5-.6-.5-1.5-.5-2.3,0-3.4.2-5.8,1-9.1,12.7,1.4,14.6.6,24.9-2.1,4.5,2.3,10.4,5.4,14.5,6.9,1.4.5,2.8,1.1,3.8,2.1Z"/><path class="cls-7" d="M104.8,91.2l-.2.3c-1.6,8.2,9.3,12.8,12.1,4.8-4.7-.5-7.8-2.3-11.9-5ZM108.5,106.5c-4.6-1.1-13.4-5.1-20.5-12.6l-.8.2c-1.7-6.5-3-12.4,0-18.6.8,3.1,2.8,5.1,3.1,6.3.7-6.7,4.5-22.6,9.9-26.6,1.7,5.1,6,9.3,11.2,10.8,0-.5.2-1,.3-1.5,2.7,3.7,6.3,6.8,10.4,9,0-.7,0-1.4.1-2.2,3.6,2.1,6,6,6.5,10.1h-.2c-.6,2.1-.6,10.6-8.6,19.3,0,0-4.6,5.5-8.8,6.1-.4,0-1.1,0-2.1-.2-.2,0-.3,0-.5-.1ZM125.9,80.1c.4-1.5,0-2.9-.9-3.1-.9-.2-1.9.9-2.2,2.4-.4,1.5,0,2.9.9,3.1s1.9-.9,2.2-2.4ZM108.9,76.2c.3-1.5-.1-2.8-1-3s-1.9.8-2.3,2.3c-.4,1.5.1,2.8,1,3,.9.2,1.9-.8,2.3-2.3Z"/><path class="cls-5" d="M111.8,144h0c-.1,0-.3,0-.4,0,0-.8-.2-1.5-.3-2.3h.3c.8-1.1,2.3-1.2,3.7-1.3,4.3,0,8.7.5,12.9,1.6.1,3.1,0,5.1-.1,5.3v.6c0,1.7-.4,3.4-1.1,4.8-1.1,2.2-2.3,2.4-3.3,3.1-1.7.7-3.3,1.2-4.8,1.6l-.3-.9c.8-5.5-.8-13.9-6.6-12.7Z"/><path class="cls-5" d="M118.3,294.3c-10.4,2.7-12.2,3.6-24.9,2.1-.1,0-.3,0-.4,0-4.6-6.5,6.9-57,4.6-63.6-2.5-7-10-19.8-15.8-27.7,9.3,1.9,30.9,5.5,40.1,6.7,2.9,10.3,4.7,12.8,4.7,20.8,0,1-3.8,41.2-5.8,56.7-.5,3.6-2.3,4.8-2.3,5,0,0,0,0,0,0Z"/><path class="cls-6" d="M124.9,77c.9.2,1.3,1.5.9,3.1-.4,1.5-1.4,2.6-2.2,2.4s-1.3-1.5-.9-3.1c.4-1.5,1.4-2.6,2.2-2.4Z"/><path class="cls-4" d="M111.1,141.8c.1.8.2,1.5.3,2.3.1,0,.3,0,.4,0-11.9,3.2-10.7,1.5-20.1,3.4h0c-.1-3.4-10.6-8.9-13.5-7.5-.9.4-1.9,1.7-2.8,3.4-3.9-.8-7.7-2.5-10.8-5.1h-.8c.3-2.9.5-5.8.8-9h0c0-.5.1-1.1.2-1.7h-.4c-2.2,1.9-5.4,4.5-8.6,6.9v-.2c-3-1.8-5.2-4.5-6.3-7.7-1.1-3.2-1.1-6.7,0-9.9h0c3.4-3.9,6.3-7.1,6.6-7.4,4.4-4,7.6-7.2,13.4-8.4.2,7.6,5.3,14.7,12,18.3,6.8,3.6,15,4,22.5,2.2,6.3-1.5,12.5-4.6,19-4.3h.4c2.9,7.6,4.1,18.6,4.3,25.1-4.2-1.1-8.5-1.7-12.9-1.6-1.3,0-2.8.2-3.7,1.2h-.3Z"/><path class="cls-11" d="M123.3,116.3c0,.2.2.4.3.6h-.4c-6.5-.1-12.7,2.9-19,4.5-7.5,1.8-15.7,1.4-22.5-2.2-6.7-3.6-11.8-10.7-12-18.3,0,0,0,0,0,0,1.9-.4,8.4-2.3,14.6-1.3h.1c0,1.6,0,2.8-.4,3.6v.2c.6,9.3,5.4,11.9,15,8.1,3.1-2,6.2-4,9.7-4.8,4,2.1,12.9,5.7,14.5,9.7Z"/><path class="cls-10" d="M75.4,143.4c.9-1.7,1.9-3,2.8-3.4,2.9-1.4,13.4,4.2,13.5,7.4h0c9.4-1.8,8.2,0,20.1-3.3h0c5.8-1.2,7.4,7.1,6.6,12.7l.3.9c-2.1.6-4,1.1-5.8,1.4-8.4,1.3-14.9-.6-26.5-1.9-2.8,1-13.1,1.3-14.2-1.5-.7-1.7,1.1-8.1,3.3-12.2Z"/><path class="cls-9" d="M115.2,179.5c-.4,0-.7-.1-1-.2h0c.3,0,.7.1,1,.2Z"/><path class="cls-5" d="M114.2,179.2h0c-4.4-1-6.8-3.2-15.6-5.1-17.8-3.9-32.7-7.4-34.3,3.1-.1,1.5-.2,3-.1,4.3-3.2-12-2.2-23.1-.4-43.2h.8c3.1,2.6,6.8,4.4,10.8,5.1-2.2,4.1-3.9,10.6-3.3,12.2,1.1,2.8,11.4,2.5,14.2,1.5,11.7,1.3,18.1,3.2,26.5,1.9-.8,3.3,1.3,14.9,1.4,20.2Z"/><path class="cls-11" d="M116.7,96.2c-2.8,8-13.7,3.4-12.1-4.8l.2-.3c4.1,2.7,7.2,4.5,11.9,5Z"/><path class="cls-6" d="M107.9,73.2c.9.2,1.4,1.5,1,3-.4,1.5-1.4,2.5-2.3,2.3-.9-.2-1.4-1.5-1-3,.3-1.5,1.4-2.5,2.3-2.3Z"/><path class="cls-7" d="M108.5,106.5c0,0,.2,0,.3.1-3.5.8-6.6,2.8-9.7,4.8-9.6,3.8-14.4,1.2-14.9-8.1v-.2c.2-.8.3-2,.3-3.6,0-1.7-.2-3.7-.3-6h0c1.2,1.2,2.4,2.1,3.6,2.6-.2-.7-.4-1.4-.5-2.1l.8-.2c7.1,7.5,15.9,11.5,20.5,12.6Z"/><path class="cls-5" d="M55.7,134.3v.2c-4.1,3.1-8.2,6-9.7,7.1l-.3.2c-.7,1.3-1.4,2.4-2,3.5h-.2c-3.5-4.2-6.1-6.7-9.4-7.4,1.2-2.3,2.5-4.7,3.9-7.2l.4-.6c0-.7,6.1-7.7,11.1-13.4h0c-1.1,3.2-1.2,6.7,0,9.9,1.1,3.2,3.3,5.9,6.2,7.7Z"/><path class="cls-10" d="M33.2,162.7h.1c2.6.7,5.1,10.3,3.4,12.3-1.8,2.2-12.2,3.2-14,2-2.1-1.4.2-9.7,1.6-11.8,2.3-10.3,5.3-18.6,9.8-27.4,3.2.7,5.9,3.2,9.4,7.3h.2c-4,7-7.3,11.1-10.5,17.5Z"/><path class="cls-1" d="M38.5,130.1c0-.7,6.1-7.7,11.1-13.4,3.4-3.8,6.3-7.1,6.6-7.4,4.4-4,7.6-7.2,13.4-8.4,0,0,0,0,0,0,1.9-.4,8.4-2.3,14.6-1.3"/><path class="cls-1" d="M43.5,145.2c-3.5-4.1-6.1-6.6-9.4-7.3,0,0-.2,0-.3,0"/><path class="cls-1" d="M64.4,127.5c-2.2,2-5.4,4.5-8.6,6.9-4.2,3.1-8.4,6-9.9,7.1"/><path class="cls-1" d="M38,130.7c-1.4,2.5-2.7,4.8-3.9,7.2-4.5,8.7-7.5,17.1-9.8,27.4"/><path class="cls-1" d="M45.7,141.8c-.7,1.3-1.4,2.4-2,3.5-4,6.9-7.3,10.9-10.5,17.4,0,.2-.2.4-.3.6"/><path class="cls-1" d="M33.3,162.8c2.6.7,5.1,10.2,3.4,12.3-1.8,2.2-12.2,3.2-14,2-2.1-1.4.2-9.7,1.6-11.8"/><path class="cls-1" d="M127.8,147.5c.2-.2.2-2.2.1-5.3-.3-6.5-1.4-17.5-4.3-25.2,0-.2-.2-.4-.3-.6-1.6-4-10.6-7.6-14.5-9.7-.1,0-.2-.1-.3-.1-.1,0-.2-.1-.3-.2"/><path class="cls-1" d="M111.8,144c5.8-1.2,7.4,7.1,6.6,12.7"/><path class="cls-1" d="M110.3,133.2c0,3.9.4,6.4.8,8.7.1.8.2,1.5.3,2.3.1,0,.3,0,.4,0"/><path class="cls-1" d="M123.4,155.9c-1.7.7-3.3,1.2-4.8,1.6-2.1.6-4,1.1-5.8,1.4-8.4,1.3-14.9-.6-26.5-1.9"/><path class="cls-1" d="M111.9,144s0,0,0,0h0c-11.9,3.2-10.7,1.5-20.1,3.4-.2,0-.5.1-.7.2"/><path class="cls-1" d="M91.6,147.3c-.1-3.2-10.6-8.8-13.5-7.4-.9.4-1.9,1.7-2.8,3.4-2.2,4.1-3.9,10.6-3.3,12.2,1.1,2.8,11.4,2.5,14.2,1.5"/><path class="cls-1" d="M127.9,148.1c-.2,1.7-.6,3.4-1.2,4.8-1.1,2.2-2.3,2.4-3.3,3.1"/><path class="cls-1" d="M64.6,129.3c-.3,3.2-.5,6.1-.8,8.9-1.8,20.1-2.8,31.2.4,43.2l.3,1"/><path class="cls-1" d="M112.8,158.9s0,0,0,0c-.8,3.3,1.3,14.9,1.4,20.2h0"/><path class="cls-1" d="M81.8,205.1c9.3,1.9,30.9,5.5,40.1,6.7.6,0,1.1.1,1.5.2,1.6.2,28.9,11,41.2,17.1,5.1,2.5,8.9.7,9.5.4,0,0,0,0,0,0-.4-6.8,6.4-15.7,10.4-19.4.1-.1.2-.2.3-.3,0,0-1.2-2.9-6-5.3-14-6.9-49.3-19.8-50.4-20.4-2.9-1.3-8.7-3.2-13.1-4.5-.4-.1-.7-.2-1-.3-1.5-.5-2.8-.9-3.6-1.1"/><path class="cls-1" d="M76.2,203.4c1.2.5,3.2,1.1,5.6,1.7"/><path class="cls-1" d="M81.8,205.1c5.8,7.9,13.3,20.7,15.8,27.7,2.3,6.5-9.2,57.1-4.6,63.6.1,0,.3,0,.4,0,12.7,1.4,14.6.6,24.9-2.1,0,0,0,0,0,0,0-.2,1.8-1.4,2.3-5,2-15.4,5.8-55.7,5.8-56.7,0-8-1.8-10.5-4.7-20.8"/><path class="cls-1" d="M64.3,177.1c-.1,1.5-.2,3-.1,4.3.3,12.5,7,19.4,12,21.9"/><path class="cls-1" d="M173.9,229.3s0,.1.1.2c1.2,1.3,4.9,4.3,8.2,3.1,9.1-3.2,18.4-6.3,27-10.9,2.8-1.5,5.7-3.3,7.2-6s1-6.6-1.8-7.8c-1.3-.6-2.8-.4-4.3-.3-8.5.8-17.3,1.8-25.8,2.6"/><path class="cls-1" d="M115.7,179.6c-.1,0-.3,0-.4,0-.4,0-.7-.1-1-.2-4.4-1.1-6.8-3.3-15.6-5.2-17.8-3.9-32.7-7.4-34.3,3.1"/><path class="cls-2" d="M64.6,130c0-.2,0-.5,0-.7,0-.5.1-1.1.2-1.7.4-2.4,1.2-5.6,2.1-8.6"/><path class="cls-1" d="M93.5,296.2c0,0,0,.1,0,.2-.8,3.3-1,5.7-1,9.1,0,.8,0,1.6.5,2.3.7.9,2,1.1,3.1,1.2,9.6,1.1,20,4.9,29.7,4.4,3.2-.1,6.5-.5,9-2.3,2.5-1.8,3.8-5.6,1.7-7.8-.9-1.1-2.4-1.6-3.8-2.1-4.1-1.5-10-4.6-14.5-6.9-.3-.1-.6-.3-.8-.4"/><path class="cls-1" d="M109.1,106.6s0,0-.1,0c0,0-.1,0-.2,0-3.5.8-6.6,2.8-9.7,4.8-9.6,3.8-14.4,1.2-14.9-8.1"/><path class="cls-1" d="M69.6,100.7c0,0,0,.1,0,.2.2,7.6,5.3,14.7,12,18.3,6.8,3.6,15,4,22.5,2.2,6.3-1.5,12.5-4.6,19-4.3"/><path class="cls-1" d="M64.6,138.3c3.1,2.5,6.8,4.3,10.8,5.1.3,0,.6.1.8.1"/><path class="cls-1" d="M49.6,116.8c-1.1,3.2-1.2,6.7,0,9.9,1.1,3.2,3.3,5.9,6.2,7.7"/><path class="cls-1" d="M128.2,142.3c0,0-.2,0-.3,0-4.2-1.1-8.5-1.7-12.9-1.6-1.3,0-2.8.2-3.7,1.2"/><path class="cls-1" d="M111.1,106.8c-.4,0-1.1,0-2.1-.2-.2,0-.3,0-.5-.1-4.6-1.1-13.4-5.1-20.5-12.6"/><path class="cls-1" d="M128.4,81.4c-.6,2.1-.6,10.6-8.6,19.2,0,0-4.6,5.5-8.8,6.1"/><path class="cls-1" d="M103.5,67.5c3.9-1.1,7.6-.4,8.9,1.5"/><path class="cls-1" d="M120.3,88.8c-.2,4.3-9.4,1.7-10.6.2"/><path class="cls-1" d="M122.7,79.4c-.4,1.5,0,2.9.9,3.1s1.9-.9,2.2-2.4c.4-1.5,0-2.9-.9-3.1-.9-.2-1.9.9-2.2,2.4Z"/><path class="cls-1" d="M105.6,75.5c-.4,1.5.1,2.8,1,3,.9.2,1.9-.8,2.3-2.3.3-1.5-.1-2.8-1-3s-1.9.8-2.3,2.3Z"/><path class="cls-1" d="M116.7,96.2c-4.7-.5-7.8-2.3-11.9-5-.3-.2-.6-.4-.9-.6"/><path class="cls-1" d="M116.7,96.2c-2.8,8-13.7,3.4-12.1-4.8"/><path class="cls-1" d="M84.1,93.6c.1,2.3.3,4.4.3,6,0,1.6,0,2.8-.4,3.6"/><path class="cls-1" d="M84.1,93.5c-3.2-3.2-6.3-8.2-7.8-11.2-3.3-7-3.1-14.4-2.2-22.1.8-7.7,4.3-15.5,10.8-19.8,6.7-4.4,15.2-5.2,23.2-5,5.3.1,12.2,3.4,17.2,5.2,5,1.8,10.2,8.6,11.7,13.6,3.5,11.2,1.4,15.6-2.5,26.7-.4,1.1-4.4,9.4-5.3,8.8-1.2-.8-.5-6-.6-7.5,0-.3,0-.7,0-1-.4-4.1-2.9-8-6.5-10.1,0,.7,0,1.4-.1,2.2-4.1-2.1-7.7-5.2-10.4-9,0,.5-.2,1-.3,1.5-5.2-1.6-9.5-5.7-11.2-10.8-5.5,4-9.3,19.9-9.9,26.6-.4-1.2-2.4-3.2-3.1-6.3-2.9,6.2-1.6,12.1,0,18.6.2.7.4,1.4.5,2.1-1.1-.5-2.4-1.4-3.6-2.6Z"/><rect class="cls-11" x="189.4" y="83.9" width="20.3" height="32.8"/></svg>