<?xml version="1.0" encoding="UTF-8"?><svg id="asia" xmlns="http://www.w3.org/2000/svg" width="235" height="321.9" viewBox="0 0 235 321.9"><defs><style>.cls-1{stroke-linecap:round;stroke-linejoin:round;}.cls-1,.cls-2{stroke:#000;}.cls-1,.cls-2,.cls-3{fill:none;}.cls-2,.cls-3{stroke-miterlimit:10;}.cls-3{stroke:#8b878c;}.cls-4{fill:#5e7792;}.cls-4,.cls-5,.cls-6,.cls-7,.cls-8,.cls-9,.cls-10{stroke-width:0px;}.cls-5{fill:#38424d;}.cls-6{fill:#5a4842;}.cls-7{fill:#94535f;}.cls-8{fill:#b89b8b;}.cls-9{fill:#fff;}.cls-10{fill:#020000;}</style></defs><path class="cls-5" d="M101.4,294.8h-.3v.2c-6.2,2-11.2,5.6-20.1,4-.6,2.9-.6,8.1.9,8.9,1.3.7,17.5,1.2,22,1,.4,0,3-.6,3.4-.7,1.3-.6.7-7.9,0-9.1-.9-1.7-3.4-3.2-6-4.3Z"/><path class="cls-4" d="M67.1,211.3c.9,11,8.8,83.6,8.9,86.4,1.8.6,3.5,1.1,5,1.3,8.8,1.6,13.8-2,20.1-4v-.2c0-21.3-5-75.5-7.1-95.6-1.3,1.4-5,2.3-6.8.6-1.5-1.3-3.1-3.1-3.6-5-2.4.7-17.9,3.7-28.6-1.9-.7,1.4-1.6,2.7-3,3.5-1.7,1-3.9,1.1-5.9.6-1.9-.5-2.5-.8-4.1-1.8-5.9,39-11.1,75.2-13.2,100.1,0,0,.2.2.4.2h0c2.5,1.3,13.8,2.2,20.5.9,1.6-.3,3-.8,3.9-1.4,0,0,9-59.8,13.6-83.9Z"/><path class="cls-8" d="M40.3,167.1c-4.7-2.2-6.8-9.6-8.4-13-1.4-2.9-2-5.2-3.3-7.1.7-.7,3.3-3.7,4.6-4.9-1.6-.6-2.8-1.1-4.6-2.9-1.2-1.1-2.9-2.9-4.2-4.8-2.9,3-4.6,4.1-5.9,6.4-2.7,4.9,2.2,16.6,5.8,20.8,2.6,3.1,7.3,8.7,9.7,12.2-1.2,2.7,1.7,6.7,3.5,8.5.9.9,4,2.9,6,3,1.1,0,1.9-.3,1.8-1.7,1,0,3.2-1.2,2-2.7,1.2-.2,2.6-1.5,1.8-3.4,4-1,2.4-3.2.6-5.1.5-2.6-1.3-3.7-3.6-4.3-2-.5-4.3-.7-5.8-1.2h0Z"/><path class="cls-7" d="M46.8,131.6s0,0,0,0c.2,1.1.8,9.6,1,11.1.3,3.2.6,6.5.4,9.8-.3,4.5-1.6,11.6-2,15.7,2.3.6,4.1,1.7,3.6,4.3,1.8,1.9,3.4,4.1-.6,5.1.8,1.9-.6,3.2-1.8,3.4,1.2,1.5-1,2.7-2,2.7,0,1.4-.7,1.8-1.8,1.7-.5,3.3-1,6.5-1.5,9.8,1.7,1,2.2,1.3,4.1,1.8,1.9.5,4.1.5,5.9-.6,1.3-.8,2.2-2.1,3-3.5.2-.4.4-.8.6-1.2,4.8-10.4,5.7-22.1,5.8-33.5,0-11.4-.6-27.4,1.4-38.6-1.4,1.8-3,4-3.2,4.5-4.5-1.7-4.1-5.1-5.2-9.8-.6-2.6-.3-5.3.8-7.7-.5.2-8.6,1.4-9.1,1.7-3.2,2-7.4,5.8-9.7,8-1.9,1.8-13.5,14.1-13.5,14.1,0,1.3.5,2.7,1.4,4.1,1.2,1.9,3,3.7,4.2,4.8,1.9,1.7,3,2.3,4.6,2.9.8.3,1.7.6,2.8,1,2.2-2.4,7-7.4,10.8-11.6,0-.2,0-.2,0,0Z"/><path class="cls-5" d="M24.3,300.4c-.3,1.2-.3,6.4.6,7.3,1,1,2.7,1.2,4.3,1.2,4.9,0,9.7.1,14.6,0,1.8,0,5.2.3,6.4-.9,1.5-1.4-.3-11.1-.6-11.4h0c-6.7,1.2-17.9.3-20.5-1.1h0c-2.2,1.3-4.4,3.1-4.8,4.7Z"/><path class="cls-8" d="M80.6,92.1h0c-1.3,3-3.5,3.8-6.7,3.9-5.5.1-9.9-4.7-9-4.5,4.2,1.2,11.6,2.3,15.6.6ZM76.4,104.1c0,0,.2,0,.2-.1,3.6-1.6,6.5-5.1,9.3-8.4,3-3.5,5.2-6.7,5-9.8-.2-2.9-.4-7.2-.2-8.4.3-2,1-4.1,0-5.9-.8-1.4-2.5-2.2-3-3.6,0,0,0-.2,0-.3-.3-1.3.4-2.8,0-4-.5-1.2-2-1.7-3.4-1.7-1.3,0-2.7.3-4,0-2.5-.5-4-3.1-6.3-4.3-3.6-2-8.4-.4-12-2.6-.4-.2-.7-.5-1-.8-1.3,0-2.5.9-3.2,2-.7,1.3-.9,2.8-1.1,4.3-.2,1.5-.4,3-1.2,4.2-.6.9-1.5,1.6-2.3,2.4-.8.8-1.5,1.8-1.4,2.9,0,.7.3,1.3.4,1.9.1.7,0,1.4-.7,1.7-.8.4-1.7-.5-2.1-1.3-.3-.8-1-2.7-1.8-3.3,0,0-.2,0-.3,0,0,0-.2,0-.4,0h0c-.4,0-.8.1-1.1.3-1.2.8-1.8,2.6-1.9,4.4,0,1.8.5,3.5,1.1,5,.6,1.4,1.4,2.8,2.4,3.5.7.5,1.5.6,2.2.4h0c1.2,7.5,7.2,13.7,9.7,15.9,7.4,6.6,12.7,7.5,16.9,5.8ZM64.6,75.8c0-1.7.7-3,1.6-3s1.6,1.4,1.6,3-.7,3-1.6,3-1.6-1.4-1.6-3ZM83.7,75.6c0-1.5.6-2.6,1.3-2.6s1.3,1.2,1.3,2.6-.6,2.6-1.3,2.6-1.3-1.2-1.3-2.6Z"/><path class="cls-6" d="M47.7,68.9c.8.6,1.5,2.6,1.8,3.3.4.8,1.3,1.7,2.1,1.3.6-.3.8-1.1.7-1.7,0-.7-.4-1.3-.4-1.9,0-1.1.6-2.1,1.4-2.9.8-.8,1.7-1.5,2.3-2.4.8-1.2,1.1-2.7,1.2-4.2.2-1.5.3-3,1.1-4.3.7-1.1,1.9-2.1,3.2-2-.7-.8-1.2-1.8-1.4-2.9-.2-1.4-1.4-3-1.6-4.4,0-.5,0-1,0-1.6h0c-2.3.5-4.7,1-6.8,2.3-2.1,1.2-3.8,3.3-3.9,5.7,0,1.9.8,3.9.1,5.6-.5,1.4-1.8,2.3-2.6,3.6-1.2,1.9-.8,4.6.9,6.1,0-.1.8,0,1.3.2h0c.1,0,.2,0,.4,0,0,0,0,0,.1,0,0,0,.1,0,.2.1Z"/><path class="cls-7" d="M55.2,106.8c-1.1,2.4-1.4,5.1-.8,7.7,1.1,4.7.7,8,5.2,9.8.3-.5,1.9-2.7,3.2-4.5,1-1.4,2-2.6,2.1-2.7-.8-.5-5.6-4.1-5.7-10.9.1-.9.2-1.8.2-2.6,0-.9,0-1.6,0-1.6-1.9,1.1-3.3,2.9-4.2,4.9Z"/><path class="cls-9" d="M65,91.5c-.9-.3,3.5,4.6,9,4.5,3.2,0,5.4-.9,6.7-3.8h0c-4,1.6-11.4.5-15.6-.7Z"/><path class="cls-10" d="M66.2,72.7c-.9,0-1.6,1.4-1.6,3s.7,3,1.6,3,1.6-1.4,1.6-3-.7-3-1.6-3Z"/><path class="cls-8" d="M76.4,104.1c-4.2,1.7-9.4.8-16.9-5.8,0,2.3,0,3.7-.1,5.1,0,.8,0,1.6-.2,2.5-.2,2.8,6.7,8.6,11.7,8,5.8-1,7.2-3.5,5.5-9.9Z"/><path class="cls-9" d="M59.1,106c.1,6.8,4.9,10.4,5.7,10.9,0,0,0,0,0,0,0,0,0,0,.1,0,0,0,0,0-.1,0-.1.1-1,1.3-2.1,2.7-2,11.3-1.3,27.2-1.4,38.6,0,11.4-1,23.1-5.8,33.5-.2.4-.4.8-.6,1.2,10.7,5.6,26.2,2.6,28.6,1.9-1.2-4.7-1.6-8.9-1.7-13.8-.6-19.3,0-45-4.4-61.9-1-1-2-1.9-3.2-2.4,0,0,3.8-3.2,3.8-5.5.1-3.4-1.7-7.2-1.4-7.2h0c0,0-.2,0-.2,0,1.8,6.4.3,8.9-5.5,9.9-5,.6-11.9-5.3-11.7-8,0-.9.1-1.7.2-2.5h0c0,.8,0,1.7-.2,2.6Z"/><path class="cls-7" d="M80.6,106.8c-1.1-1.3-2.7-2.6-3.9-2.7,0,0,0,0,0,0-.3,0,1.5,3.8,1.4,7.2,0,2.4-3.8,5.5-3.8,5.5,1.2.5,2.2,1.4,3.2,2.4,1.4,1.5,2.5,3.1,3.1,3.8,3.4-5.9,2.2-12.2,1.5-14.1-.2-.6-.8-1.4-1.4-2.2Z"/><path class="cls-7" d="M106.4,139.3c.6-.9,1.1-2,1.6-3.4-3.7-5.8-13.2-22.4-19.1-27.3-.4-.4-7.6-1.5-8.3-1.8.7.8,1.2,1.6,1.4,2.2.7,1.9,1.9,8.2-1.5,14.1-.6-.7-1.7-2.4-3.1-3.8,4.4,16.9,3.8,42.6,4.4,61.9.1,4.9.5,9.1,1.7,13.8.5,1.9,2.1,3.6,3.6,5,1.9,1.7,5.5.8,6.8-.6-.4-3.7-.7-6.3-.8-7.3-.2-2-.4-4.6-.5-7.7-.3-5.6-.5-12.5-.7-19.1-.2-7.5-.3-14.6-.3-18.9s.2-5.8.4-8.5c1,1.5,2.3,4.2,3.8,7,.5-.1.9-.3,1.4-.4,5-1.5,7.4-2.4,9.3-5.3Z"/><path class="cls-10" d="M85.1,73c-.7,0-1.3,1.2-1.3,2.6s.6,2.6,1.3,2.6,1.3-1.2,1.3-2.6-.6-2.6-1.3-2.6Z"/><path class="cls-6" d="M91.3,88.7s8.9-6.2,6.5-19.3c-.5-2.5-1.9-4.9-1.7-7.4.1-2,1.2-4,1.1-6-.1-2.2-1.7-4.1-3.5-5.3s-3.9-2.1-5.7-3.2c-4-2.4-7.4-6.4-12.1-7-3.7-.4-7.3,1.5-11,1.6-2,0-4.2-.3-5.6,1-.7.6-1.1,1.4-1.2,2.3,0,.5,0,1.1,0,1.6.2,1.3,1.4,3,1.6,4.4.2,1.1.6,2.1,1.4,2.9.3.3.6.6,1,.8,3.6,2.2,8.4.6,12,2.6,2.2,1.2,3.8,3.8,6.3,4.3,1.3.3,2.7,0,4,0,1.3,0,2.9.5,3.4,1.7.5,1.3-.2,2.7,0,4,0,0,0,.2,0,.3.5,1.5,2.3,2.3,3,3.6,1,1.7.3,3.9,0,5.9-.2,1.2,0,5.4.2,8.4.1,1.7.2,2.9.3,2.9Z"/><path class="cls-8" d="M91.9,165.3c.2,6.6.4,13.5.7,19.1h.5c1.6-.4,1,.2,2-2.5.7-2.1,1.1-3.9,1.8-6,1.5-4.8,4.8-7.5,8.4-11.3,4.8-5.2,8.1-14.8,4.4-20.1-.7-1-1.5-1.9-3.2-5.2-1.9,2.9-4.3,3.7-9.3,5.3v.4c1.4,2.5,3.8,5.7,4,5.3h.5c-1.6,2.7-2.8,5.3-4.1,7.9-.9,1.8-5.3,6.8-5.3,7.1h-.4Z"/><path class="cls-1" d="M29.2,295.7c-2.2,1.3-4.4,3.1-4.8,4.7-.3,1.2-.3,6.4.6,7.3,1,1,2.7,1.2,4.3,1.2,4.9,0,9.7.1,14.6,0,1.8,0,5.2.3,6.4-.9,1.5-1.4-.3-11.1-.6-11.4"/><path class="cls-1" d="M29.4,295.5c0,0-.2,0-.2.1"/><path class="cls-1" d="M81,299c-.6,2.9-.6,8.1.9,8.9,1.3.7,17.5,1.2,22,1,.4,0,3-.6,3.4-.7,1.3-.6.7-7.9,0-9.1-.9-1.7-3.4-3.2-6-4.3"/><path class="cls-2" d="M76.4,103.9c0,0,0,.1,0,.2,1.8,6.4.3,8.9-5.5,9.9-5,.6-11.9-5.3-11.7-8"/><path class="cls-2" d="M80.6,106.7s0,0,0,0c.7.3,7.9,1.5,8.3,1.8,5.9,4.9,15.4,21.5,19.1,27.3-.5,1.4-1.1,2.5-1.6,3.4-1.9,2.9-4.3,3.7-9.3,5.3-.4.1-.9.3-1.4.4"/><path class="cls-2" d="M46.8,131.6c1.9-2.1,3.6-4.1,4.5-5.3"/><path class="cls-2" d="M55.2,106.7h0c-.5.2-8.6,1.4-9.1,1.7-3.2,2-7.4,5.8-9.7,8-1.9,1.8-13.5,14.1-13.5,14.1,0,1.3.5,2.7,1.4,4.1,1.2,1.9,3,3.7,4.2,4.8,1.9,1.7,3,2.3,4.6,2.9.8.3,1.7.6,2.8,1,2.2-2.4,7-7.4,10.8-11.6h0"/><path class="cls-2" d="M83.6,194.9c-2.4.7-17.9,3.7-28.6-1.9"/><path class="cls-2" d="M91.3,124.3c1,4.9.9,9.1.6,13.6-.2,2.7-.4,5.5-.4,8.5s.1,11.3.3,18.9c.2,6.6.4,13.5.7,19.1.2,3,.4,5.7.5,7.7"/><path class="cls-2" d="M46.7,131.6c0-.2,0-.2,0,0t0,0c.2,1.1.8,9.6,1,11.1.3,3.2.6,6.5.4,9.8-.3,4.5-1.6,11.6-2,15.7,0,.1,0,.2,0,.4"/><path class="cls-2" d="M106.4,139.3s0,0,0,0c1.7,3.3,2.4,4.1,3.2,5.2,3.7,5.3.5,14.9-4.4,20.1-3.6,3.8-6.8,6.6-8.4,11.3-.7,2.1-1.1,3.9-1.8,6-1,2.7-.4,2.1-2,2.5"/><path class="cls-2" d="M97.2,144.9c1.3,2.5,3.7,5.7,3.9,5.3"/><path class="cls-2" d="M91.5,137.3c.1.2.3.3.4.6,1,1.5,2.3,4.2,3.8,7"/><path class="cls-2" d="M104.7,146.2c-1.2,1.4-2.2,2.8-3.1,4.1-1.6,2.6-2.8,5.2-4.1,7.9-.9,1.8-5.3,6.8-5.3,7.1s0,0,0,0"/><path class="cls-2" d="M33.1,142.2c-1.4,1.2-3.9,4.2-4.6,4.9"/><path class="cls-2" d="M24.3,134.5c-2.9,3-4.6,4.1-5.9,6.4-2.7,4.9,2.2,16.6,5.8,20.8,2.6,3.1,7.3,8.7,9.7,12.2"/><path class="cls-2" d="M40.9,167.4c-.2,0-.4-.2-.7-.3-4.7-2.2-6.8-9.6-8.4-13-1.4-2.9-2-5.2-3.3-7.1-.8-1.2-1.9-2.3-3.7-3.2"/><path class="cls-2" d="M47.7,170.5c.4.5,1.2,1.2,2,2.1,1.8,1.9,3.4,4.1-.6,5.1.8,1.9-.6,3.2-1.8,3.4,1.2,1.5-1,2.7-2,2.7,0,1.4-.7,1.8-1.8,1.7-2-.2-5.2-2.2-6-3-1.9-1.9-4.7-5.8-3.5-8.5"/><path class="cls-3" d="M49.7,172.5s0,0,0,0"/><path class="cls-2" d="M40.3,167c1.5.5,3.8.6,5.8,1.2,2.3.6,4.1,1.7,3.6,4.3"/><path class="cls-2" d="M67.1,211.3c0-.6,0-1.1,0-1.3"/><path class="cls-2" d="M93.1,192c.1.9.4,3.5.8,7.3,2.1,20.1,7.1,74.3,7.1,95.6v.2c-6.2,2-11.2,5.6-20.1,4-1.5-.3-3.2-.7-5-1.3,0-2.8-8-75.4-8.9-86.4"/><path class="cls-2" d="M29.2,295.7c-.1,0-.3-.2-.4-.2,2.1-24.9,7.2-61.1,13.2-100.1.5-3.2,1-6.5,1.5-9.8h0v-.2"/><line class="cls-1" x1="29.2" y1="295.7" x2="29.2" y2="295.7"/><path class="cls-2" d="M49.7,296.6c-6.7,1.3-17.9.4-20.5-.9"/><path class="cls-2" d="M69.4,201.7c-.5.9-1.2,4.4-2.2,9.6h0c-4.6,24.1-13.5,83.9-13.6,83.9-.9.6-2.3,1-3.9,1.4"/><path class="cls-1" d="M59.3,106c0-.9.1-1.7.2-2.5,0-1.4.1-2.9.1-5.1"/><path class="cls-1" d="M91.1,85.7c.2,3.1-2,6.3-5,9.8-2.8,3.3-5.7,6.9-9.3,8.4,0,0-.2,0-.2.1-4.2,1.7-9.4.8-16.9-5.8-2.5-2.2-8.6-8.4-9.7-15.9"/><path class="cls-2" d="M91.1,85.6c0,0,0,.1,0,.2"/><path class="cls-1" d="M88.2,68.1c-.1,0-.2-.1-.4-.2-1.4-.6-4.7-.6-5.6-.2"/><path class="cls-1" d="M70.1,67.4c-1.9-.9-6.8-.3-7.2.4"/><path class="cls-1" d="M83.7,75.6c0,1.5.6,2.6,1.3,2.6s1.3-1.2,1.3-2.6-.6-2.6-1.3-2.6-1.3,1.2-1.3,2.6Z"/><path class="cls-1" d="M64.6,75.8c0,1.7.7,3,1.6,3s1.6-1.4,1.6-3-.7-3-1.6-3-1.6,1.4-1.6,3Z"/><path class="cls-1" d="M79.2,82.5c.4,6.7-2.1,5.8-6,5.5"/><path class="cls-1" d="M81,91.9c-.1,0-.3.1-.4.2-4,1.7-11.4.6-15.6-.6-.9-.3,3.5,4.6,9,4.5,3.2,0,5.4-.9,6.7-3.8"/><path class="cls-1" d="M49.8,82.4c.4-.1.8-.4,1.2-.8"/><path class="cls-2" d="M47.1,68.8c-.4,0-.8.1-1.1.3-1.2.8-1.8,2.6-1.9,4.4,0,1.8.5,3.5,1.1,5,.6,1.4,1.4,2.8,2.4,3.5.7.5,1.5.6,2.2.4"/><path class="cls-1" d="M49.3,70.6c-.3-.9-.9-1.5-1.6-1.7,0,0-.2,0-.3,0-.1,0-.2,0-.4,0"/><path class="cls-2" d="M65,117s0,0-.1,0c0,0,0,0,0,0-.1.1-1,1.3-2.1,2.7-1.4,1.8-3,4-3.2,4.5-4.5-1.7-4.1-5.1-5.2-9.8-.6-2.6-.3-5.3.8-7.7.9-2,2.3-3.7,4.2-4.9,0,0,0,.7,0,1.6,0,.8,0,1.7-.2,2.6.1,6.8,4.9,10.4,5.7,10.9,0,0,0,0,.1,0h0"/><path class="cls-2" d="M76.7,104.1c-.3,0,1.5,3.8,1.4,7.2,0,2.4-3.8,5.5-3.8,5.5,1.2.5,2.2,1.4,3.2,2.4,1.4,1.5,2.5,3.1,3.1,3.8,3.4-5.9,2.2-12.2,1.5-14.1-.2-.6-.8-1.4-1.4-2.2-1.1-1.3-2.7-2.6-3.9-2.7,0,0,0,0,0,0Z"/><path class="cls-2" d="M62.8,119.7c-2,11.3-1.3,27.2-1.4,38.6,0,11.4-1,23.1-5.8,33.5-.2.4-.4.8-.6,1.2-.7,1.4-1.6,2.7-3,3.5-1.7,1-3.9,1.1-5.9.6-1.9-.5-2.5-.8-4.1-1.8h-.1"/><path class="cls-2" d="M77.5,119.2c4.4,16.9,3.8,42.6,4.4,61.9.1,4.9.5,9.1,1.7,13.8.5,1.9,2.1,3.6,3.6,5,1.9,1.7,5.5.8,6.8-.6,0,0,.2-.2.2-.3"/><path class="cls-2" d="M58.1,45.3c0,.5,0,1.1,0,1.6.2,1.3,1.4,3,1.6,4.4.2,1.1.6,2.1,1.4,2.9.3.3.6.6,1,.8,3.6,2.2,8.4.6,12,2.6,2.2,1.2,3.8,3.8,6.3,4.3,1.3.3,2.7,0,4,0,1.3,0,2.9.5,3.4,1.7.5,1.3-.2,2.7,0,4,0,0,0,.2,0,.3.5,1.5,2.3,2.3,3,3.6,1,1.7.3,3.9,0,5.9-.2,1.2,0,5.4.2,8.4.1,1.7.2,2.9.3,2.9,0,0,8.9-6.2,6.5-19.3-.5-2.5-1.9-4.9-1.7-7.4.1-2,1.2-4,1.1-6-.1-2.2-1.7-4.1-3.5-5.3s-3.9-2.1-5.7-3.2c-4-2.4-7.4-6.4-12.1-7-3.7-.4-7.3,1.5-11,1.6-2,0-4.2-.3-5.6,1-.7.6-1.1,1.4-1.2,2.3Z"/><path class="cls-2" d="M61.5,54.2c-.2,0-.3,0-.5,0-1.3,0-2.5.9-3.2,2-.7,1.3-.9,2.8-1.1,4.3-.2,1.5-.4,3-1.2,4.2-.6.9-1.5,1.6-2.3,2.4-.8.8-1.5,1.8-1.4,2.9,0,.7.3,1.3.4,1.9.1.7,0,1.4-.7,1.7-.8.4-1.7-.5-2.1-1.3-.3-.8-1-2.7-1.8-3.3,0,0-.1,0-.2-.1,0,0,0,0-.1,0,0,0-.2,0-.4,0h0c-.5,0-1.3-.3-1.3-.2-1.6-1.5-2-4.2-.9-6.1.8-1.3,2.1-2.2,2.6-3.6.7-1.8-.2-3.7-.1-5.6.1-2.4,1.8-4.5,3.9-5.7,2.1-1.2,4.4-1.8,6.8-2.3"/></svg>