<?xml version="1.0" encoding="UTF-8"?><svg id="asia" xmlns="http://www.w3.org/2000/svg" width="235" height="321.9" viewBox="0 0 235 321.9"><defs><style>.cls-1{stroke-linecap:round;stroke-linejoin:round;}.cls-1,.cls-2{fill:none;stroke:#000;}.cls-2{stroke-miterlimit:10;}.cls-3,.cls-4,.cls-5,.cls-6,.cls-7,.cls-8,.cls-9,.cls-10{stroke-width:0px;}.cls-4{fill:#5e7792;}.cls-5{fill:#38424d;}.cls-6{fill:#5a4842;}.cls-7{fill:#402d2a;}.cls-8{fill:#94535f;}.cls-9{fill:#b89b8b;}.cls-10{fill:#fff;}</style></defs><path class="cls-5" d="M137.3,303.8c1.8,2.1.7,5.5-1.6,7.1-2.3,1.7-5.4,2-8.3,2.1-8.8.4-18.3-3.1-27.1-4.1-1.1-.1-2.2-.3-2.8-1.1-.4-.6-.5-1.4-.5-2.1,0-1.6,0-3.2.3-4.8l.2-1.6c6.8.7,15.5-1.1,20.1-5.5h0c5.4,2.7,11.1,5.9,16.3,7.9,1.3.5,2.6,1,3.4,1.9Z"/><path class="cls-9" d="M135.1,174.4c1.4,3.5-2.2,7.1-5,9.4-2.8,2.3-4.5,3.2-7.4,1.1-1.4-1-2.5-2.6-3-4.3,0-.1,0-.2,0-.4-.3-3.4,5.5-9.9,6.7-10.2,3.4-1.1,7.3.9,8.7,4.4Z"/><path class="cls-4" d="M28.3,292.7c-.5-.1-1-.2-1.5-.3,10.9-28.4,16.3-46.8,18.7-60.1,1.1-6.2,1.8-17.7,2.7-29.1h.3c3.8-.5,7.2-2.9,9.6-5.9,1.4-1.7,2.6-3.6,3.6-5.5,10.7,3.8,25.7,6.3,31.9,2.4l.4-.2c1.1,2.6,2.5,4.6,5.2,6.5,3.9,8.5,12.3,26,15.8,37.1.8,2.5,3.4,44.9,3.8,54.6-.4.6-.9,1.1-1.4,1.7-4.6,4.4-13.3,6.2-20.1,5.5-1.2-.1-2.3-.3-3.3-.6-.2-10.3-2.2-17.6-1.9-34.1,0-6.3-.7-20.5-2.7-24.1-3.8-6.8-7.4-17.7-12.9-23.2h0c-5.5,18.3-6.7,25.2-8.9,30.5-.7,1.8-11.7,45.8-13.4,46.7-.6.3-1.5.6-2.7.9-2.5.6-6.2,1-9.5,1-4.3,0-9.4-2.8-13.8-3.9Z"/><path class="cls-9" d="M126.4,170c-1.2.3-7,6.8-6.7,10.2h-.2c-2.9-8.4-20.7-20.3-20.6-26.8h-1.1c0-.2,0-.4,0-.6h1c3.9-1,7.4-3.1,9.7-6.1,4,6,11.3,18.4,17.8,23.3Z"/><path class="cls-6" d="M108.7,82.1c-1.1-4.5-2.2-6.8-5.5-8.5-2-1-3.6-3.6-5.1-5.6-1.1-1.5-2.1-3.4-3.9-3.9-1.3-.4-2.7,0-4,.6-1.3.5-2.6,1.2-3.9,1.2-1.3,0-3.2-1.2-3.8-2.3,0,0,0,0,0,0,.1-.3.1-.6,0-1,0-.4-.3-.8-.6-1.3-1-1.8-2.6-3.3-4.6-4.2-1.3-.6-2.6-.9-3.8-1.6-.6-.4-.9-.9-1-1.6,0-.5,0-1.1.3-1.7,1.2-2.9,6.5-2.3,8.2-2.8,2.6-.7,5.2-2.3,7.8-2.7,4.3-.7,7.5,4.2,11.9,3.7,2.2-.3,3.3.5,5.3,1.4s2.4,2.1,3.5,4.1c1.5,2.7,4.1,3.7,5.1,6.6,1.2,3.4-.4,5.2.5,8.7.6,2.3,2.3,3.3,2.1,5.7,0,1.3-.2,3.3-.7,4.5-1,2.5-1.8,6.4-2.4,9.1-.9,3.4-3.7,5.9-7.1,6.9.3-1,.7-2.2,1-3.5.8-3.3,1.4-7.1.9-9.3,0,0,0,0,0,0-.2-.8-.3-1.6-.5-2.3Z"/><path class="cls-8" d="M97.9,152.8c0,.2,0,.4,0,.6-.2,3.8-.5,7.5-.8,11.3-.5,6-1,12-1,18,0,3-.1,5.3,1,8.1,1.3,3.1,2.3,6.2,3.1,9.4h-.8c0,.1,0,.2,0,.2-2.7-1.9-4.1-3.9-5.2-6.5-.6-1.4-1-2.9-1.5-4.6-.8-2.8-2.2-12.6-1.9-15.5,1.8-21.4.9-33.2-3.7-54,0-.2-.1-.5-.2-.7l.5-.2c.5,1.3.9,2.6,1.8,4,2.1-2.8,2.7-6.7,1.6-10.1v-.2c13.1,5.6,14.8,26,18.6,33.1-.2.3-.4.6-.6.9-2.3,3-5.8,5.2-9.7,6.2h-1Z"/><path class="cls-9" d="M87.4,98.4l-.2.2c-1.5,7.4,8.5,11.7,11,4.3-4.3-.4-7.1-2.1-10.9-4.6ZM78.3,115.6c-3.6-1.1-7-3.4-9.6-6l-.2-.4c.2-.4.3-.9.4-1.5.3-2.6.2-7.3-.2-11.4-.2-2.3-.5-4.4-.7-5.8h0c-.5,0-1-.2-1.4-.4-1.6-.8-2.7-2.5-3.1-4.4-.3-1.1-.3-2.2-.2-3.3.2-1.7.9-3.5,2.2-4.4,3.9-2.6,3.7,2.9,4.8,4.6.5.8,1.7,1.4,2.5.9.8-.4,1.1-1.5,1.1-2.4,0-.9-.2-1.9.1-2.7.7-1.9,3.2-2.3,4.5-3.9.9-1.1,1-2.6,1-4,0-1.4,0-2.8.5-4.1.8-1.8,2.2-2.1,2.6-3,.5,1.1,2.5,2.3,3.8,2.3,1.4,0,2.7-.6,3.9-1.2,1.3-.5,2.7-1,4-.6,1.8.5,2.8,2.4,3.9,3.9,1.5,2.1,3.1,4.6,5.1,5.6,3.3,1.7,4.4,4,5.5,8.5-1.1-1.6-3.2-2.2-4.5-1.2-.2.4-.2,1.1.2,1.4.4.3.9.3,1.3.5,1.3.3,2.5.9,3.5,1.7,0,0,0,0,0,0,.5,2.2,0,6-.9,9.3h-.2c-.8,3.4-2.5,8.3-7,13.2,0,0-4.2,5-8,5.6-.7.1-2.1-.1-4-.7-.4-.1-.9-.3-1.4-.5h0c0,1-1,3.8-1.9,4.2,0,0,0,0,0,0v.4c.6,1,1,2,1.4,3.1l-.5.2c0,.2.1.5.2.7h-.2c-.2,2.6-7.5,2.6-9.5,0h-.2c0-.4,0-.7.1-1l-.4-.2c.5-.9.9-1.8,1.4-2.7v-.3ZM106.6,88.2c.3-1.4,0-2.6-.9-2.8-.8-.2-1.7.8-2,2.2-.3,1.4,0,2.6.8,2.8.8.2,1.7-.8,2-2.2ZM93.8,79.5c.5-.1.8-1,.5-1.4-1.2-1.7-4.6-2.4-8.1-1.4-.5.1-.7.8-.5,1.3.2.4.7.7,1.2.8s1,0,1.5,0c1.5,0,3.1.1,4.6.6.2,0,.5.2.8.1ZM91.2,84.7c.3-1.3-.1-2.5-.9-2.7-.8-.2-1.8.8-2.1,2.1-.3,1.3.1,2.5.9,2.7s1.8-.8,2.1-2.1Z"/><path class="cls-7" d="M108.7,82.1c.2.7.3,1.5.5,2.3-1-.8-2.2-1.4-3.5-1.7-.5-.1-.9-.2-1.3-.5-.4-.3-.4-.9-.2-1.4,1.3-.9,3.4-.3,4.5,1.2Z"/><path class="cls-3" d="M105.8,85.4c.8.2,1.2,1.4.9,2.8s-1.2,2.4-2,2.2c-.8-.2-1.2-1.4-.8-2.8.3-1.4,1.2-2.4,2-2.2Z"/><path class="cls-10" d="M94.1,194.1l-.4.2c-6.2,4-21.3,1.4-31.9-2.4.8-1.4,1.5-2.9,2.2-4.4l.2-.4c1.2.6,2.3.9,3,.5,2.1-.9,6.6-10,5.4-12.5-.4-.9-2.3-1.9-4.6-2.5v-.3c4.3-17.2,7.3-34.7,9.2-52.4h.2c2,2.7,9.2,2.7,9.5.1h.2c4.6,20.8,5.5,32.5,3.7,53.9-.2,2.9,1.1,12.7,1.9,15.5.5,1.7,1,3.3,1.5,4.6Z"/><path class="cls-10" d="M98.2,103c-2.5,7.3-12.5,3.1-11-4.3l.2-.2c3.7,2.5,6.6,4.1,10.9,4.6Z"/><path class="cls-7" d="M94.4,78.1c.3.4,0,1.3-.5,1.4-.2,0-.5,0-.8-.1-1.5-.5-3-.7-4.6-.6-.5,0-1,0-1.5,0s-1-.3-1.2-.8c-.2-.4,0-1.1.5-1.3,3.5-1,6.9-.4,8.1,1.4Z"/><path class="cls-8" d="M89.1,112.1c.6.2,1.1.4,1.7.6v.2c1,3.3.4,7.2-1.7,10.1-.8-1.3-1.3-2.6-1.8-4-.4-1-.8-2.1-1.4-3.1v-.4s0,0,0,0c.9-.4,2-3.2,1.9-4.2h0c.5.2.9.3,1.4.5v.3Z"/><path class="cls-3" d="M90.2,82c.8.2,1.2,1.4.9,2.7-.3,1.3-1.2,2.3-2.1,2.1s-1.2-1.4-.9-2.7c.3-1.3,1.2-2.3,2.1-2.1Z"/><path class="cls-9" d="M82.5,62.5c.1.4,0,.8,0,1-.2-.4-.2-.7,0-1Z"/><path class="cls-6" d="M82.4,63.5s0,0,0,0c-.4.9-1.8,1.3-2.6,3-.6,1.3-.5,2.7-.5,4.1,0,1.4-.1,2.9-1,4-1.2,1.6-3.8,2-4.5,3.9-.3.9-.1,1.8-.1,2.7,0,.9-.2,2-1.1,2.4-.9.5-2,0-2.5-.9-1.1-1.7-.9-7.2-4.8-4.6-1.3.9-2,2.6-2.2,4.4-.1,1.1,0,2.2.2,3.3l-1.8.4c-.3-1.3-.6-2.6-.8-3.9-.5-2.9-1-5.9-.3-8.7.6-2.4,1.9-4.6,2.7-7,.9-2.7,1-5.7,2.2-8.4,1.1-2.6,3.2-4.1,6-4.4h1.3c0,.5.3,1,1,1.4,1.2.7,2.5,1,3.8,1.6,1.9.9,3.5,2.4,4.6,4.2.3.5.5.9.6,1.3-.2.3-.2.7,0,1Z"/><path class="cls-8" d="M65.8,110.4c.7-1.1,1.6-2,2.7-2.8h.3c0,.7-.2,1.2-.4,1.6l.2.4c2.5,2.6,6,4.9,9.6,6v.3c-.6.9-1,1.8-1.5,2.7-.8,1.5-1.5,3-2.3,4.5-4.8-1.9-8.4-6.4-9.3-11.5.2-.4.4-.9.7-1.3Z"/><path class="cls-8" d="M46.7,149.7c-5.2-1.2-10.6-4.2-11.9-7.4-.2-.6-.3-1.1-.2-1.7.1-1,13.6-26,20.6-28.4,5.1-.8,7.1-1.2,10.6-1.8-.3.4-.5.8-.7,1.3.9,5.1,4.6,9.6,9.3,11.5.8-1.5,1.5-3,2.3-4.5l.4.2c0,.3,0,.7-.1,1-1.9,17.6-4.9,35.1-9.1,52.4v.3c-3.6-1-7.9-1.5-9.2-.4h0c-2.1-2.5-3.6-4.8-5.2-7.1h0c1.1-10.8,2.1-18.4,2.2-25l-.6-.4c-2.8,4.7-5.7,8.8-7.1,10.3-.5,0-1-.2-1.5-.3Z"/><path class="cls-9" d="M58.8,172.3h0c1.2-1.2,5.6-.7,9.1.3,2.3.7,4.1,1.6,4.6,2.5,1.2,2.5-3.3,11.6-5.4,12.5-.7.3-1.8,0-3-.5-2.9-1.4-6.6-4.7-7.5-6.2-1.6-1.2-3-2.3-4.4-3.3-8.4-6.5-13.4-11.3-19.1-21.1-1.9-3.3-1.3-7,1.6-14h0c1.2,3.2,6.6,6.1,11.9,7.3-1,1.4-.3.5-1.7,2.5,3.8,5.2,6.1,9.1,8.6,12.8,1.5,2.4,3.1,4.7,5.2,7.2Z"/><path class="cls-5" d="M64.8,307.4c1.5,7-3.9,8.8-9.6,7.5-9-2-13.7-4.9-27.2-14.3-.9-.6-2-1.2-2.2-2.3-.2-.8.1-1.6.4-2.3.5-1.3,1.1-2.2,2-3.4,4.4,1.1,9.5,3.9,13.8,3.9,3.4,0,7-.4,9.5-1h0c3.2,6.5,3.2,5.4,10.2,9.4,1.2.7,2.7,1.1,3,2.5Z"/><path class="cls-7" d="M68.6,96.3h-.2c-1.9-1.7-3.6-3.4-5-5.6-.9-1.4-1.5-3-1.9-4.6l1.8-.4c.5,1.9,1.5,3.6,3.1,4.4.4.2.9.4,1.4.4h0c.3,1.4.5,3.5.7,5.8Z"/><path class="cls-8" d="M61.8,191.9c-1,1.9-2.2,3.8-3.6,5.5-2.5,2.9-5.8,5.3-9.6,5.9h-.3c.9-9.8,2-19.5,3.9-25.7h0c1.4,1,2.8,2.1,4.4,3.3.9,1.5,4.6,4.8,7.5,6.2l-.2.4c-.7,1.5-1.4,3-2.2,4.4Z"/><path class="cls-1" d="M61,127.8c-1.2,3.7-3.5,8-5.7,11.9-2.8,4.7-5.7,8.8-7.1,10.3-.5,0-1-.2-1.5-.3-5.2-1.2-10.6-4.2-11.9-7.4-.2-.6-.3-1.1-.2-1.7.1-1,13.6-26,20.6-28.4"/><path class="cls-1" d="M100.1,200.3c-.8-3.2-1.8-6.4-3.1-9.4-1.2-2.8-1.1-5.1-1-8.1,0-6,.5-12,1-18,.3-3.8.6-7.5.8-11.3,0-.2,0-.4,0-.6.5-8.4.5-16.8-.8-25.2"/><path class="cls-1" d="M61.4,191.7c.1,0,.3,0,.4.1,10.7,3.8,25.7,6.3,31.9,2.4"/><path class="cls-1" d="M55.9,140.1c0,6.6-1.1,14.2-2.2,25"/><path class="cls-1" d="M34.8,142.4c-3,7-3.5,10.7-1.6,14,5.7,9.9,10.7,14.6,19.1,21.1,1.4,1.1,2.8,2.2,4.4,3.3"/><path class="cls-1" d="M47,149.3c-.1.2-.2.3-.3.5-1,1.4-.3.5-1.7,2.5,3.8,5.2,6.1,9.1,8.6,12.8,1.5,2.4,3.1,4.7,5.2,7.2.1.2.3.3.4.5"/><path class="cls-1" d="M88.7,112c.1,0,.3,0,.4.1.6.2,1.1.4,1.7.6,13,5.6,14.7,26,18.5,33.1-.2.3-.4.6-.6.9-2.3,3-5.8,5.2-9.7,6.2"/><path class="cls-1" d="M58.9,172.2c1.2-1.1,5.6-.7,9.1.4,2.3.7,4.1,1.6,4.6,2.5,1.2,2.5-3.3,11.6-5.4,12.5-.7.3-1.8,0-3-.5-2.9-1.4-6.6-4.7-7.5-6.2"/><path class="cls-1" d="M98.9,153.5c-.1,6.4,17.7,18.3,20.6,26.8"/><path class="cls-1" d="M108.3,146.3c0,.1.2.3.3.4,4,6,11.3,18.4,17.8,23.3"/><path class="cls-1" d="M126.4,170c-1.2.3-7,6.8-6.7,10.2,0,.1,0,.2,0,.4.4,1.8,1.6,3.3,3,4.3,2.9,2.1,4.6,1.2,7.4-1.1,2.8-2.3,6.4-5.9,5-9.4-1.4-3.5-5.4-5.6-8.7-4.4"/><path class="cls-1" d="M55.2,112.3c5.1-.8,7.1-1.2,10.6-1.8,0,0,0,0,0,0"/><path class="cls-1" d="M52.2,177.6c-1.9,6.1-3.1,15.8-3.9,25.6-1,11.4-1.6,22.9-2.7,29.1-2.4,13.4-7.8,31.7-18.7,60.1.5,0,1,.2,1.5.3,4.4,1.1,9.5,3.9,13.8,3.9,3.4,0,7-.4,9.5-1,1.2-.3,2.1-.6,2.7-.9,1.7-.9,12.7-44.9,13.4-46.7,2.1-5.3,3.3-12.2,8.9-30.5,1.1-3.5,2.3-7.5,3.7-11.9"/><path class="cls-2" d="M76.6,217.5c5.4,5.6,9.1,16.4,12.9,23.2,2,3.5,2.8,17.8,2.7,24.1-.2,16.5,1.8,23.8,1.9,34.1,1,.3,2.2.5,3.3.6,6.8.7,15.5-1.1,20.1-5.5.5-.5,1-1.1,1.4-1.7-.4-9.7-3-52.2-3.8-54.6-3.5-11.1-11.9-28.7-15.8-37.1,0,0,0-.1,0-.2,0-.1-.1-.3-.2-.4"/><path class="cls-1" d="M78.4,115.7s0,0-.1,0c-3.6-1.1-7-3.4-9.6-6"/><path class="cls-1" d="M86.8,120c-.2,2.5-7.5,2.6-9.5,0"/><path class="cls-1" d="M87.8,111.4c0,1-1,3.8-1.9,4.2,0,0,0,0,0,0,.2,0,.8,0,.6.1"/><path class="cls-1" d="M28.3,292.6s0,0,0,0c-.9,1.2-1.5,2.1-2,3.4-.3.7-.6,1.5-.4,2.3.2,1.1,1.3,1.7,2.2,2.3,13.5,9.4,18.3,12.2,27.2,14.3,5.7,1.3,11.2-.6,9.6-7.5-.3-1.4-1.8-1.8-3-2.5-7-4.1-7-3-10.2-9.3"/><path class="cls-1" d="M97.3,301.1c-.2,1.6-.3,3.2-.3,4.8,0,.7,0,1.5.5,2.1.6.8,1.8,1,2.8,1.1,8.7,1,18.3,4.5,27.1,4.1,2.9-.1,5.9-.5,8.3-2.1,2.3-1.7,3.4-5.1,1.6-7.1-.9-1-2.2-1.5-3.4-1.9-5.2-1.9-10.8-5.2-16.3-7.8"/><path class="cls-1" d="M93.1,112.6c-.7.1-2.1-.1-4-.7-.4-.1-.9-.3-1.4-.5-4.4-1.7-10.6-5.1-15.7-10.6"/><path class="cls-1" d="M108.9,89.4c-.2.7-.4,2.2-.8,4.3-.8,3.4-2.5,8.3-7,13.2,0,0-4.2,5-8,5.6"/><path class="cls-1" d="M108.8,82.3c0,0,0-.1-.1-.2-1.1-1.6-3.2-2.2-4.5-1.2-.2.4-.2,1.1.2,1.4.4.3.9.3,1.3.5,1.3.3,2.5.9,3.5,1.7,0,0,0,0,.1.1"/><path class="cls-1" d="M86.3,76.7c3.5-1,6.9-.4,8.1,1.4.3.4,0,1.3-.5,1.4-.2,0-.5,0-.8-.1-1.5-.5-3-.7-4.6-.6-.5,0-1,0-1.5,0s-1-.3-1.2-.8c-.2-.4,0-1.1.5-1.3Z"/><path class="cls-1" d="M100.7,92.6c0,7-2.4,6.3-5.2,4.9"/><path class="cls-1" d="M103.7,87.6c-.3,1.4,0,2.6.8,2.8.8.2,1.7-.8,2-2.2s0-2.6-.9-2.8c-.8-.2-1.7.8-2,2.2Z"/><path class="cls-1" d="M88.2,84.1c-.3,1.3.1,2.5.9,2.7s1.8-.8,2.1-2.1c.3-1.3-.1-2.5-.9-2.7-.8-.2-1.8.8-2.1,2.1Z"/><path class="cls-1" d="M98.2,103c-4.3-.4-7.1-2.1-10.9-4.6-.3-.2-.5-.4-.8-.6"/><path class="cls-1" d="M98.2,103c-2.5,7.3-12.5,3.1-11-4.3"/><path class="cls-1" d="M67.9,90.5c.3,1.4.5,3.5.7,5.8.4,4.1.6,8.7.2,11.4,0,.6-.2,1.2-.4,1.5"/><path class="cls-1" d="M71.3,53.9c-2.8.3-4.8,1.8-6,4.4-1.2,2.6-1.3,5.6-2.2,8.4-.8,2.4-2.1,4.5-2.7,7-.7,2.9-.2,5.8.3,8.7.2,1.3.4,2.6.8,3.9.4,1.6,1,3.2,1.9,4.6,1.4,2.2,3.2,3.8,5,5.6"/><path class="cls-1" d="M82.4,63.5c-.2-.4-.2-.7,0-1,0,0,.1-.2.2-.2"/><path class="cls-1" d="M69.8,89.5c-.4.7-1.1,1-1.9,1-.5,0-1-.1-1.4-.4-1.6-.8-2.7-2.5-3.1-4.4-.3-1.1-.3-2.2-.2-3.3.2-1.7.9-3.5,2.2-4.4,3.9-2.6,3.7,2.9,4.8,4.6.5.8,1.7,1.4,2.5.9.8-.4,1.1-1.5,1.1-2.4,0-.9-.2-1.9.1-2.7.7-1.9,3.2-2.3,4.5-3.9.9-1.1,1-2.6,1-4,0-1.4,0-2.8.5-4.1.8-1.8,2.2-2.1,2.6-3,0,0,0,0,0,0,.1-.3.1-.6,0-1,0-.4-.3-.8-.6-1.3-1-1.8-2.6-3.3-4.6-4.2-1.3-.6-2.6-.9-3.8-1.6-.6-.4-.9-.9-1-1.6,0-.5,0-1.1.3-1.7,1.2-2.9,6.5-2.3,8.2-2.8,2.6-.7,5.2-2.3,7.8-2.7,4.3-.7,7.5,4.2,11.9,3.7,2.2-.3,3.3.5,5.3,1.4s2.4,2.1,3.5,4.1c1.5,2.7,4.1,3.7,5.1,6.6,1.2,3.4-.4,5.2.5,8.7.6,2.3,2.3,3.3,2.1,5.7,0,1.3-.2,3.3-.7,4.5-1,2.5-1.8,6.4-2.4,9.1-.9,3.4-3.7,5.9-7.1,6.9.3-1,.7-2.2,1-3.5.8-3.3,1.4-7.1.9-9.3,0,0,0,0,0,0-.2-.8-.3-1.6-.5-2.3-1.1-4.5-2.2-6.8-5.5-8.5-2-1-3.6-3.6-5.1-5.6-1.1-1.5-2.1-3.4-3.9-3.9-1.3-.4-2.7,0-4,.6-1.3.5-2.6,1.2-3.9,1.2-1.3,0-3.2-1.2-3.8-2.3"/><path class="cls-1" d="M68.5,107.7c-1.1.7-2,1.7-2.7,2.8-.3.4-.5.8-.7,1.3.9,5.1,4.6,9.6,9.3,11.5.8-1.5,1.5-3,2.3-4.5.5-.9.9-1.8,1.4-2.7"/><path class="cls-1" d="M85.9,116c.7,1,1.1,2,1.4,3.1.5,1.3.9,2.6,1.8,4,2.1-2.8,2.7-6.7,1.6-10.1"/><path class="cls-1" d="M77.2,118.9c0,.3,0,.7-.1,1-1.9,17.6-4.9,35.1-9.1,52.4"/><path class="cls-1" d="M86.8,119.2c0,.2.1.5.2.7,4.6,20.8,5.5,32.5,3.7,54-.2,2.9,1.1,12.7,1.9,15.5.5,1.7,1,3.3,1.5,4.6,1.1,2.6,2.5,4.6,5.2,6.5.1,0,.2.1.3.2"/><path class="cls-1" d="M64,187.4c-.7,1.5-1.4,3-2.2,4.4-1,1.9-2.2,3.8-3.6,5.5-2.5,2.9-5.8,5.3-9.6,5.9"/></svg>