<?xml version="1.0" encoding="UTF-8"?><svg id="africaModest" xmlns="http://www.w3.org/2000/svg" width="235" height="321.9" viewBox="0 0 235 321.9"><defs><style>.cls-1{stroke-linecap:round;stroke-linejoin:round;}.cls-1,.cls-2{fill:none;stroke:#000;}.cls-2{stroke-miterlimit:10;}.cls-3,.cls-4,.cls-5,.cls-6,.cls-7,.cls-8,.cls-9,.cls-10{stroke-width:0px;}.cls-4{fill:#6cb8ea;}.cls-5{fill:#402d2a;}.cls-6{fill:#d14a4a;}.cls-7{fill:#8d6849;}.cls-8{fill:#a2211e;}.cls-9{fill:#648ba8;}.cls-10{fill:#fff;}</style></defs><path class="cls-8" d="M137.4,303.2c1.8,2.1.7,5.4-1.6,7.1-2.3,1.6-5.3,2-8.1,2.1-8.7.4-18.1-3-26.8-4-1-.1-2.2-.3-2.8-1.1-.4-.6-.5-1.3-.5-2.1,0-1.6,0-3.1.3-4.7,6.7.8,15.3-2.1,20-7h0c5.4,2.6,10.9,5.8,16.1,7.7,1.2.5,2.5,1,3.4,1.9Z"/><path class="cls-7" d="M135.3,175.5c1.4,3.5-2.2,7-5,9.3-2.8,2.3-4.5,3.2-7.4,1.1-1.4-1-2.5-2.5-2.9-4.3,0-.1,0-.2,0-.3-.3-3.4,5.5-9.8,6.7-10.1,3.3-1.1,7.2.9,8.6,4.4Z"/><path class="cls-9" d="M77.4,217.9c-5.6,18.1-7.3,25.2-9.4,30.4-.7,1.8-12.7,42.7-14.4,43.6-.5.3-1.2.5-2,.7-2.2.5-5.6.8-9.1.8-4.3,0-8.5-.6-12.7-1.2l-1.5-.2c10.8-28.1,18.3-43.8,20.7-57,2.1-11.4,0-32.3,2.7-45.2v-.2c16,4.8,27.8,7.2,44.5,5.6,4.4,7.5,15.8,31.5,19.4,42.7.8,2.4,3.4,44.4,3.8,54-.4.6-.9,1.1-1.4,1.7-4.7,4.9-13.3,7.8-20,7-.7,0-1.4-.2-2-.4-.1-10.1-1.6-18.6-1.4-34.9,0-6.2.6-22.6-1.3-26.2-3.7-6.7-10.3-15.6-15.7-21.1h-.1Z"/><path class="cls-7" d="M126.7,171.1c-1.2.3-7,6.7-6.7,10.1h-.2c-2.8-8.3-20.5-20.1-20.3-26.4h-.5c0-.8,0-1.5,0-2.3h.5c3.5-.9,5.5-2.7,8.6-5l.6.2c3.9,5.8,11.3,18.5,17.9,23.4Z"/><path class="cls-5" d="M112.8,65.4c.6,2,1.7,6,1.1,10.3-.4-1.1-2.2-4.5-3.6-5.4-3.7-2.5-11.8-4.8-13.8-5.2-2.4-.6-4.1-.7-6.4-.6-2,.1-3.8.5-5.7,1.5-1.9,1-3,2.9-3.9,4.9-1.5,3.3-2.4,7-4.5,10-.7,1.1-1.6,2.1-2.8,2.4-1.2.3-2.4-.8-2.9-1.9-.7-1.5-2.7-1.9-4-1-1.3.9-2,2.6-2.2,4.3-.1,1.1,0,2.2.2,3.3l-.8.2c-.6-2.5-.9-5.2-1-7.9-.4-8.5,4.5-23.2,15.9-26.1,19-4.9,32.1,4.4,34.2,11.3Z"/><path class="cls-7" d="M88.2,100.4l-.2.2c-1.4,7.3,8.4,11.5,10.9,4.3-4.2-.4-7-2.1-10.7-4.5ZM88.6,113.2c0,1-1,3.8-1.9,4.2-.9.4-2.8.8-3.8.8-4.8-.3-9.8-3.1-13.2-6.6h0s-.2-.4-.2-.4c.8-1.8.6-7.8.1-12.9-.2-2.2-.5-4.3-.7-5.7h0c-.5,0-1-.2-1.4-.4-1.6-.8-2.6-2.5-3.1-4.3-.3-1.1-.3-2.2-.2-3.3.2-1.7.9-3.4,2.2-4.3,1.3-.9,3.3-.5,4,1,.5,1.2,1.6,2.3,2.9,1.9,1.2-.3,2.1-1.4,2.8-2.4,2-3.1,2.9-6.7,4.5-10,.9-1.9,2-3.8,3.9-4.9,1.9-1,3.6-1.4,5.7-1.5,2.3-.1,4,0,6.4.6,1.9.5,10.1,2.7,13.8,5.2,1.4.9,3.2,4.3,3.6,5.4,0,.4-.1.8-.2,1.2-.9,4.5-.7,5-1.7,8.2-1.3,4.1-1.9,4.2-2.6,6.4-.6,1.9-.6,9.5-7.7,17.3,0,0-4.1,4.9-7.9,5.5-.7.1-2.1-.1-3.9-.7-.4-.1-.9-.3-1.3-.5ZM107.2,90.3c.3-1.4,0-2.6-.8-2.8s-1.7.8-2,2.2,0,2.6.8,2.8,1.7-.8,2-2.2ZM91.9,86.8c.3-1.3,0-2.5-.9-2.7-.8-.2-1.7.8-2,2.1-.3,1.3,0,2.5.9,2.7.8.2,1.7-.8,2-2.1Z"/><path class="cls-4" d="M98.9,141.4c-13.1,3.3-28.1,1.7-41.1-1.7h0c-.3.6-.6,1.2-.9,1.8-2.3,4.5-4.6,8.4-5.9,9.9-.6-.6-1.2-1.2-1.9-1.9-4.5-3.8-11.6-7.3-12-8.4,0,0,0-.1,0-.3.9-2.9,12.7-24.5,19.3-26.7,5.1-.8,9.5-1.6,13-2.3l.3-.3c3.4,3.5,8.3,6.3,13.2,6.6,1,0,2.9-.4,3.8-.8.9-.4,1.9-3.2,1.9-4.2.5.2.9.3,1.3.5v.3c14.3,4.4,16.3,25,20.2,32.3-.7.4-1.3.9-1.9,1.3-3.2,2.3-5.1,4.1-8.6,5h-.5c0-3.7,0-7.4-.1-11.1Z"/><path class="cls-3" d="M106.3,87.6c.8.2,1.2,1.4.8,2.8s-1.2,2.3-2,2.2-1.2-1.4-.8-2.8,1.2-2.3,2-2.2Z"/><path class="cls-6" d="M99,154.8c0,.5,0,.9,0,1.4-13.7,2.8-28.4.6-42-2.7h-.8c.5-4.5.8-8.3.8-11.9h-.1c.3-.6.6-1.2.9-1.8h0c13,3.4,28,5,41.1,1.7.2,3.7.2,7.4.1,11.1,0,.8,0,1.5,0,2.3Z"/><path class="cls-4" d="M96.2,195.2c-16.7,1.6-28.5-.8-44.4-5.6-.3,0-.5-.2-.8-.2,1.7-5.1,1.4-5.7,2.3-11,1.4,1.1,2.8,2.2,4.4,3.4,1.3,2.1,8,7.7,10.4,6.7,2-.9,6.5-9.8,5.3-12.4-1.1-2.3-11.5-4.7-13.5-2.9h0c-2-2.4-3.6-4.7-5.1-7h0c.5-4.9,1-9.1,1.4-12.9h.8c13.5,3.4,28.3,5.6,42,2.8-.5,12.8-2.1,25.5-2.6,39,0,0-.1,0-.2,0Z"/><path class="cls-10" d="M98.9,104.9c-2.5,7.2-12.3,3.1-10.9-4.3l.2-.2c3.7,2.4,6.5,4.1,10.7,4.5Z"/><path class="cls-3" d="M91,84.1c.8.2,1.2,1.4.9,2.7-.3,1.3-1.2,2.2-2,2.1-.8-.2-1.2-1.4-.9-2.7.3-1.3,1.2-2.2,2-2.1Z"/><path class="cls-7" d="M59.9,173.4h0c2-1.9,12.4.4,13.5,2.8,1.2,2.5-3.3,11.5-5.3,12.4-2.4,1.1-9.1-4.6-10.4-6.7-1.6-1.2-3.1-2.3-4.4-3.4-8.2-6.4-13.1-11.1-18.7-20.8-1.9-3.2-.5-10,2.5-16.9h0c0,.2,0,.3,0,.3.4,1.2,7.5,4.6,12,8.4-1.3,1.9-1.3,1.9-2.7,4,3.8,5.1,6.1,9,8.5,12.7,1.5,2.3,3.1,4.6,5.1,7.1Z"/><path class="cls-8" d="M65.9,306.8c1.5,6.9-3.9,8.7-9.5,7.4-8.9-2-13.5-4.8-26.9-14.1-.9-.6-1.9-1.2-2.2-2.3-.2-.8.1-1.5.4-2.3.5-1.3,1.2-2.2,2-3.4h0c4.2.6,8.5,1.2,12.7,1.2,3.5,0,6.9-.3,9.1-.8,3.2,6.3,4.4,7.8,11.3,11.8,1.2.7,2.7,1.1,3,2.4Z"/><path class="cls-5" d="M69.6,98.2h-.1c-3.1-2.9-4.8-6.3-5.8-10.2l.8-.2c.5,1.9,1.5,3.5,3.1,4.3.4.2.9.3,1.4.4h0c.2,1.4.5,3.4.7,5.7Z"/><path class="cls-1" d="M62.1,129.4c-1.1,3.2-2.6,6.9-4.3,10.3-.3.6-.6,1.2-.9,1.8-2.3,4.5-4.6,8.4-5.9,9.9-.6-.6-1.2-1.2-1.9-1.9-4.5-3.8-11.6-7.3-12-8.4,0,0,0-.1,0-.3.9-2.9,12.7-24.5,19.3-26.7"/><path class="cls-1" d="M53.3,178.4c-.9,5.3-.6,5.9-2.3,11,.3,0,.5.2.8.2,15.9,4.8,27.7,7.2,44.4,5.6,0,0,.1,0,.2,0,.5-13.5,2.1-26.2,2.6-39,0-.5,0-.9,0-1.4,0-.8,0-1.5,0-2.3,0-3.7,0-7.4-.1-11.1-.2-4-.6-8-1.2-12.1"/><path class="cls-1" d="M57,141.5c0,3.5-.3,7.4-.8,11.8-.4,3.8-.9,8-1.4,12.9"/><path class="cls-1" d="M37.1,140.8c-2.9,6.9-4.3,13.6-2.5,16.9,5.6,9.7,10.5,14.4,18.7,20.8,1.4,1.1,2.8,2.2,4.4,3.4"/><path class="cls-1" d="M49.2,149.4c0,0,0,.1-.1.2-1.3,1.9-1.3,1.9-2.7,4,3.8,5.1,6.1,9,8.5,12.7,1.5,2.3,3.1,4.6,5.1,7.1.1.2.3.3.4.5"/><path class="cls-1" d="M89.4,113.8c.1,0,.3,0,.4.1,14.4,4.4,16.4,25,20.3,32.3-.7.4-1.3.9-1.9,1.3-3.2,2.3-5.1,4.1-8.6,5"/><path class="cls-1" d="M60,173.3c2-1.8,12.4.5,13.5,2.9,1.2,2.5-3.3,11.5-5.3,12.4-2.4,1.1-9.1-4.6-10.4-6.7"/><path class="cls-1" d="M99.5,154.8c-.1,6.3,17.5,18.1,20.3,26.4"/><path class="cls-1" d="M108.8,147.7c3.9,5.8,11.3,18.5,17.9,23.4"/><path class="cls-1" d="M126.7,171.1c-1.2.3-7,6.7-6.7,10.1,0,.1,0,.2,0,.3.4,1.8,1.5,3.3,2.9,4.3,2.9,2.1,4.6,1.2,7.4-1.1,2.8-2.3,6.4-5.9,5-9.3s-5.3-5.5-8.6-4.4"/><path class="cls-1" d="M56.4,114.1c5.1-.8,9.5-1.6,13-2.3"/><path class="cls-1" d="M51.7,189.8c-2.7,12.9-.6,33.8-2.7,45.2-2.4,13.2-9.9,28.9-20.7,57l1.5.2c4.2.6,8.5,1.2,12.7,1.2,3.5,0,6.9-.3,9.1-.8.8-.2,1.5-.4,2-.7,1.7-.9,13.7-41.8,14.4-43.6,2.1-5.2,3.8-12.2,9.4-30.4,1.1-3.5,2.3-7.4,3.7-11.8"/><path class="cls-2" d="M77.5,218c5.4,5.5,12,14.4,15.7,21.1,1.9,3.5,1.4,20,1.3,26.2-.2,16.3,1.2,24.7,1.4,34.9.7.2,1.3.3,2,.4,6.7.8,15.3-2.1,20-7,.5-.5,1-1.1,1.4-1.7-.4-9.6-3-51.5-3.8-54-3.5-11.2-15-35.2-19.4-42.7,0,0,0,0,0,0"/><path class="cls-1" d="M88.6,113.2c0,1-1,3.8-1.9,4.2-.9.4-2.8.8-3.8.8-4.8-.3-9.8-3.1-13.2-6.6h0"/><path class="cls-1" d="M29.8,292.2c-.9,1.2-1.5,2.1-2,3.4-.3.7-.6,1.5-.4,2.3.2,1.1,1.3,1.7,2.2,2.3,13.4,9.3,18,12.1,26.9,14.1,5.6,1.3,11-.6,9.5-7.4s-1.8-1.8-3-2.4c-6.9-4-8.1-5.5-11.3-11.8"/><path class="cls-1" d="M98,300.5c-.2,1.6-.3,3.1-.3,4.7,0,.7,0,1.5.5,2.1.6.8,1.8,1,2.8,1.1,8.6,1,18,4.4,26.8,4,2.9-.1,5.9-.5,8.1-2.1,2.3-1.6,3.4-5,1.6-7.1-.9-1-2.1-1.5-3.4-1.9-5.2-1.9-10.7-5.1-16.1-7.7"/><path class="cls-2" d="M57.8,139.7c13,3.4,28,5,41.1,1.7.1,0,.3,0,.4-.1"/><path class="cls-1" d="M99.1,156.2s0,0-.1,0c-13.7,2.8-28.4.6-42-2.7"/><path class="cls-1" d="M93.8,114.4c-.7.1-2.1-.1-3.9-.7-.4-.1-.9-.3-1.3-.5-4.4-1.7-10.4-5-15.6-10.5"/><path class="cls-1" d="M112,85.1c-1.3,4.1-1.9,4.2-2.6,6.4-.6,1.9-.6,9.5-7.7,17.3,0,0-4.1,4.9-7.9,5.5"/><path class="cls-1" d="M109.3,84.5c-1.1-1.7-3.2-2.3-4.6-1.4"/><path class="cls-1" d="M87.1,79c3.5-1,6.8-.4,8,1.3"/><path class="cls-1" d="M102.1,98.2c-.2,3.9-8.4,1.5-9.6.2"/><path class="cls-1" d="M104.3,89.7c-.3,1.4,0,2.6.8,2.8s1.7-.8,2-2.2,0-2.6-.8-2.8-1.7.8-2,2.2Z"/><path class="cls-1" d="M88.9,86.2c-.3,1.3,0,2.5.9,2.7.8.2,1.7-.8,2-2.1.3-1.3,0-2.5-.9-2.7-.8-.2-1.7.8-2,2.1Z"/><path class="cls-1" d="M98.9,104.9c-4.2-.4-7-2.1-10.7-4.5-.3-.2-.5-.4-.8-.6"/><path class="cls-1" d="M98.9,104.9c-2.5,7.2-12.3,3.1-10.9-4.3"/><path class="cls-1" d="M68.9,92.6c.2,1.4.5,3.4.7,5.7.4,5,.6,11-.1,12.9"/><path class="cls-1" d="M112,85.1c1-3.2.8-3.7,1.7-8.2,0-.4.1-.8.2-1.2.5-4.3-.5-8.3-1.1-10.3-2.1-6.9-15.2-16.2-34.2-11.3-11.4,2.9-16.3,17.6-15.9,26.1.1,2.8.4,5.4,1,7.9,1,3.8,2.7,7.3,5.8,10.2"/><path class="cls-1" d="M70.8,91.6c-.4.7-1.1,1-1.9,1-.5,0-1-.1-1.4-.4-1.6-.8-2.6-2.5-3.1-4.3-.3-1.1-.3-2.2-.2-3.3.2-1.7.9-3.4,2.2-4.3,1.3-.9,3.3-.5,4,1,.5,1.2,1.6,2.3,2.9,1.9,1.2-.3,2.1-1.4,2.8-2.4,2-3.1,2.9-6.7,4.5-10,.9-1.9,2-3.8,3.9-4.9,1.9-1,3.6-1.4,5.7-1.5,2.3-.1,4,0,6.4.6,1.9.5,10.1,2.7,13.8,5.2,1.4.9,3.2,4.3,3.6,5.4,0,0,0,0,0,.1"/></svg>