<?xml version="1.0" encoding="UTF-8"?><svg id="africaModest" xmlns="http://www.w3.org/2000/svg" width="235" height="321.9" viewBox="0 0 235 321.9"><defs><style>.cls-1{stroke-linecap:round;stroke-linejoin:round;}.cls-1,.cls-2{fill:none;stroke:#000;}.cls-2{stroke-miterlimit:10;}.cls-3,.cls-4,.cls-5,.cls-6,.cls-7,.cls-8{stroke-width:0px;}.cls-4{fill:#f8cf87;}.cls-5{fill:#af9c7e;}.cls-6{fill:#c05180;}.cls-7{fill:#a17859;}.cls-8{fill:#fff;}</style></defs><path class="cls-5" d="M209.7,208.8c2.9,1.2,3.4,5.2,1.8,8.1-1.6,2.8-4.5,4.7-7.4,6.2-8.9,4.7-18.4,8-27.8,11.2-1.1.4-3.8-.4-4.8-.9l-.2-.2c5.8-6.3,9.4-13.1,8.7-21.3,8.7-.8,16.6-2.5,25.3-3.3,1.5-.1,3.1-.3,4.5.3Z"/><path class="cls-6" d="M62.1,148.1c0-3.4.1-6,0-8.6-3.1,2.5-10,7.4-14.8,11.2-4.7,8.5-3.4,18.5-6.8,25.6-1.3-1.2-2.7-2.3-4.3-3.1-3.6-1.9-7.9-2.8-11.8-1.7.2-.6.5-1,.7-1.3,2.6-11.9,4.2-18,11.1-28,3.2-4.5,9.3-14.1,12.5-17.4l.2-.3c.8-1,4.3-4.4,5.1-5.1,1.8-1.6,3.3-3.1,5-4.3.8,2.2,3.5,6.1,4.7,7.7,4.1,5.3,6.7,10.1,12.9,12.6.9.4,1.9.7,2.8.9l-.4,1.8c-.3,0-.5,0-.8,0-1.8.1-3.2,1.8-3.4,3.6-.1,1.7,0,1.6.1,3.4-1.4-1.4-4.4-2.7-6.3-.6-3.5,3.7-2.2,6.5,2,7.5-1.6,3.6-2.7,8.1-2.2,9.5,1,2.5,10.3,2.3,12.9,1.3h.1c-.3,2.3-.3,4.6.1,6.8,2.5.3,4.8.5,6.9.5,6.5.3,11.5-.4,17.2-2v.4c-.7,2.9.8,10.8.9,15.5v.2c12.1,4.5,26.3,9.7,33.8,13.2,14.5,5.3,25.3,8.4,39.8,13.8,0,.2,0,.4,0,.5.7,8.2-2.9,15-8.7,21.3-12.7,13.9-35.8,25.7-47.5,46.2-1.9,3.3-6.6,8-11.5,11.9-3.9,3.1-7.8,5.8-10.6,6.8-7.5,2.9-11.5,1.8-13.8-1.4-3.6-4.9-3.1-14.6-4.5-21.6-3.7-17.3-9.9-33.9-15.8-50.5v-.4c-3.4-13.1-9.3-33.9-8.1-47.8h0c.2-8.7.6-4.7,2.7-28.4h0Z"/><path class="cls-5" d="M130,298.8c15.8,7.3.9,15-6.6,14.2-10.3-1.2-22.6-2.5-33.8-4.6-1.2-.2-2.5-1-3-2.2-.4-.8-.2-1.8,0-2.7.5-2.3.6-4,1.2-6.7h0c2.3,3.1,6.4,4.3,13.8,1.3,2.7-1.1,6.7-3.7,10.6-6.8h0c5.5,2.6,10.7,4.2,17.6,7.5Z"/><path class="cls-4" d="M119.7,65.6c-1.9-4.9-5.8-9-12.7-10.6-5.7-1.3-13.2,0-19.3,5.8-.2.2-.5.4-.7.7-3.7,3.9-5.6,9.7-7.4,17.8h0c-.4,4.8-.8,20.5,3.8,25.5,17.7,15.6,21.6,8.7,28,1.5,8.4-9.6,8.1-20.3,8.1-20.3,1.2-3.4,1.3-4.7,1.5-7.3.5-4.2.3-8.8-1.3-13ZM58.8,115.2c0-.1,0-.3-.1-.4-1.1-3.9,3.7-6.3,4.6-10.1,1.1-4.7,1.8-9.5,2.7-14.2-1.5-6.4-1.8-12.9-.3-18.9,1.5-6,1-10.4,5.4-15.1,4.4-4.7,13.1-7.8,19.7-9,9.7-1.7,16.4-.6,24.3,4.8,7.2,4.9,10,19.9,7.5,30.1-1.5,6.2-3.3,13.8-5.8,20.7.1,4.1-1.2,12.1.4,18.2h0c.7,2,1.1,2.8-.5,3.3-.2,0-.3,0-.5.1-2,.4-6.8,1.5-9.4,2.2-.4.1-.7.2-1,.3-3.3,1-7.4,2.7-10,4.9-.8.7-1.8,1.3-2.7,1.9-4.1,2.3-9.2,3.2-13.8,2.2-1-.2-1.9-.5-2.8-.9-6.2-2.6-8.8-7.3-12.9-12.6-1.2-1.6-3.9-5.5-4.7-7.7Z"/><path class="cls-7" d="M120.9,78.6c-.2,2.6-.3,3.9-1.5,7.3,0,0,.3,10.8-8.1,20.3-6.3,7.2-10.3,14-28-1.5-4.6-5-4.2-20.7-3.8-25.4h0c1.8-8.2,3.6-14,7.4-17.8.2-.2.4-.5.7-.7h0c8.3-2.8,15.1,5.8,23.9,3,4.8-1.6,7.1,0,8.1,1.8,1.6,4.1,1.8,8.8,1.3,13ZM118.6,77.9c.2-.1.3-.3.2-.5,0-.2-.3-.3-.5-.5-1.5-1.1-4-2-6.4-1.7-.9.1-1.6.6-1.7,1.1s.6,1.2,1.6,1.3c.7,0,5.5.3,5.9.4s.7,0,1,0ZM114.6,86.2c.2-1.9-.4-3.5-1.4-3.6-1-.1-1.9,1.3-2.1,3.2-.2,1.9.4,3.5,1.4,3.6,1,.1,1.9-1.3,2.1-3.2ZM101.7,104.9c3.4,0,5.2-1.3,6.9-3.7-6,1.8-17.1-2-18.1-3.2,2,3.7,2,2.9,3.9,4.4,1.9,1.5,5.2,2.6,7.3,2.6ZM97.3,75.1c1.1-2-5-2.5-6.9-2.3-2.4.2-3.9.9-4.4,1.5-.4.4,0,.8.7.8,2.2,0,3.7,0,5.6.2.7,0,2.6.6,3.3.6.8,0,1.5-.3,1.7-.8ZM95.5,84.1c.2-2.1-.5-3.9-1.7-4-1.1-.1-2.3,1.5-2.5,3.5-.2,2.1.5,3.9,1.7,4,1.1.1,2.3-1.5,2.5-3.6Z"/><path class="cls-6" d="M100.8,152.1v-.6c1.4-8.3,4-16.5,7.7-24.1l-1.7-.4c2.7-.7,7.5-1.9,9.4-2.2.2,0,.4,0,.5-.1,2.2,11.7,3.8,33.7,2.2,36.9-1,2-2.1,2.2-3,2.8-1.6.6-3.1,1.2-4.6,1.7.2-.9.7-1.9.2-2.7-1.1-1.6-2.2-1.7-4.4-1.5.8-1.3,2.5-2.8,2.3-4.6-.1-1.7-1.9-3-3.8-2.8s-3.8,2.1-4.5,3.8c-1.1-2.3-5-3.3-7.2-1.3-2.2,1.9-2.1,5.6.3,6.8-1.7.5-2.7.4-4.1,1.5-1.5,1.1-2.5,2.9-1.9,4.4v.3c-2.1,0-4.4-.3-6.9-.5-.4-2.2-.4-4.5-.1-6.8.5-3.2,1.7-6.4,3.4-9l.3.2c.3,0,.6-.1.9-.2,0,0,0,.1,0,.2h0c1.5-.2,2.8-.4,4-.6,3.8-.6,6.8-.7,10.8-1.3Z"/><path class="cls-3" d="M118.8,77.4c0,.2,0,.4-.2.5-.2.1-.6.1-1,0s-5.1-.3-5.9-.4c-1-.1-1.7-.7-1.6-1.3s.8-1,1.7-1.1c2.3-.3,4.8.6,6.4,1.7.2.2.4.3.5.5Z"/><path class="cls-6" d="M119.7,65.6c-.9-1.8-3.3-3.4-8.1-1.8-8.8,2.8-15.6-5.8-23.9-3h0c6.1-5.9,13.6-7.1,19.3-5.8,6.9,1.6,10.8,5.7,12.7,10.6Z"/><path class="cls-3" d="M113.2,82.7c1,.1,1.6,1.7,1.4,3.6-.2,1.9-1.1,3.3-2.1,3.2-1-.1-1.6-1.7-1.4-3.6.2-1.9,1.1-3.3,2.1-3.2Z"/><path class="cls-4" d="M111.6,163.5c.5.7,0,1.7-.2,2.7-2.1.8-4,1.4-5.9,2-5.7,1.7-10.7,2.3-17.2,2v-.3c-.6-1.4.4-3.3,1.9-4.4,1.4-1.1,2.4-1.1,4.1-1.5-2.4-1.2-2.5-4.9-.3-6.8,2.2-1.9,6.1-1,7.2,1.3.7-1.7,2.6-3.7,4.5-3.8s3.7,1.1,3.8,2.8c.1,1.7-1.5,3.3-2.3,4.6,2.1-.2,3.3-.2,4.4,1.5Z"/><path class="cls-4" d="M106.8,127l1.7.4c-3.6,7.7-6.2,15.8-7.7,24.1v.6c-3.9.6-6.8.7-10.7,1.3-.2-1.3-.3-2.8-.2-4.4.3-5,1.8-10.8,3.2-14.8h0c1-.6,1.9-1.2,2.7-1.9,2.6-2.2,6.7-4,10-4.9.3,0,.6-.2,1-.3Z"/><path class="cls-8" d="M108.6,101.2c-1.7,2.4-3.5,3.6-6.9,3.7-2.1,0-5.4-1.1-7.3-2.6-1.9-1.5-1.9-.7-3.9-4.4,1,1.3,12.2,5,18.1,3.2Z"/><path class="cls-3" d="M90.4,72.8c1.9-.2,8,.3,6.9,2.3-.3.4-.9.8-1.7.8-.7,0-2.6-.5-3.3-.6-2-.2-3.4-.2-5.6-.2-.7,0-1-.4-.7-.8.5-.6,2-1.3,4.4-1.5Z"/><path class="cls-3" d="M93.8,80.1c1.2.1,1.9,1.9,1.7,4-.2,2.1-1.3,3.7-2.5,3.6-1.1-.1-1.9-1.9-1.7-4,.2-2.1,1.3-3.7,2.5-3.5Z"/><path class="cls-6" d="M93,134.1h0c-1.4,4-2.9,9.8-3.2,14.8h-.2c0-.5,0-1-.3-1.4-1.2-2.8-5.1-3.8-7.4-1.9.2-1.8.6-2.7,0-4.4s-1.7-2.8-3.1-3.1l.4-1.8c4.6,1,9.7,0,13.8-2.2Z"/><path class="cls-6" d="M89.6,148.9h.2c0,1.6,0,3.1.2,4.4-1.2.2-2.6.4-4,.7h0c0-.2,0-.2,0-.3,2-.7,3.7-2.8,3.7-4.9Z"/><path class="cls-4" d="M89.3,147.5c.2.5.3.9.3,1.4,0,2.1-1.7,4.2-3.7,4.9-.4-2.9-9.6-7.8-12.2-6.5-1.1.5-2.3,2.5-3.3,4.8-4.2-1.1-5.5-3.9-2-7.5,2-2,4.9-.8,6.3.6-.1-1.8-.3-1.7-.1-3.4.2-1.8,1.6-3.5,3.4-3.6.3,0,.5,0,.8,0,1.4.3,2.6,1.6,3.1,3.1s.2,2.6,0,4.4c2.3-1.9,6.2-.9,7.4,1.9Z"/><path class="cls-7" d="M70.4,152c1-2.3,2.2-4.2,3.3-4.8,2.6-1.2,11.8,3.6,12.2,6.5-.3.1-.6.2-.9.2l-.3-.2c-1.8,2.6-3,5.8-3.4,9h-.1c-2.5.9-11.9,1.2-12.9-1.3-.5-1.3.6-5.8,2.2-9.5Z"/><path class="cls-7" d="M36.1,173.3c.8,2.6.9,4.8,0,5.8-1.7,2-11.1,2.9-12.7,1.8s-.4-6.5.8-9.4c3.9-1,8.2-.2,11.8,1.7Z"/><path class="cls-1" d="M48.8,124.6c.8-1,4.3-4.4,5.1-5.1,1.8-1.6,3.3-3.1,5-4.3,0,0,0,0,0,0"/><path class="cls-1" d="M48.6,124.9c-3.2,3.2-9.3,12.8-12.5,17.4-7,10-8.5,16.1-11.1,28"/><path class="cls-1" d="M62.2,139.5s0,0,0,0c-3.1,2.5-10,7.4-14.8,11.2-4.7,8.5-3.4,18.5-6.8,25.6-1.3-1.2-2.7-2.3-4.3-3.1-3.6-1.9-7.9-2.8-11.8-1.7-.2,0-.3,0-.5.1"/><path class="cls-1" d="M36.1,173.1s0,0,0,.1c.8,2.6.9,4.8,0,5.8-1.7,2-11.1,2.9-12.7,1.8s-.4-6.5.8-9.4c.2-.6.5-1,.7-1.3"/><path class="cls-1" d="M85.1,153.2c-.1.2-.3.4-.4.6-1.8,2.6-3,5.8-3.4,9-.3,2.3-.3,4.6.1,6.8,2.5.3,4.8.5,6.9.5,6.5.3,11.5-.4,17.2-2,1.9-.5,3.8-1.2,5.9-2,1.4-.5,3-1.1,4.6-1.7"/><path class="cls-1" d="M109.1,150.3c-3.3.9-6,1.4-8.3,1.8-4,.6-6.9.7-10.8,1.3-1.2.2-2.6.4-4,.7-.2,0-.4,0-.7.1"/><path class="cls-1" d="M86,154s0-.1,0-.2c-.4-2.9-9.6-7.8-12.2-6.5-1.1.5-2.3,2.5-3.3,4.8-1.6,3.6-2.7,8.1-2.2,9.5,1,2.5,10.3,2.3,12.9,1.3"/><path class="cls-1" d="M116.7,124.6s0,0,0,0c2.2,11.7,3.8,33.7,2.2,36.9-1,2-2.1,2.2-3,2.8"/><path class="cls-1" d="M62.1,148.1c-2.1,23.8-2.5,19.8-2.7,28.4,0,.1,0,.3,0,.4"/><path class="cls-1" d="M105.6,168.5c-.8,2.9.7,10.8.8,15.5"/><path class="cls-1" d="M60.7,129.6c.9,4,1.3,6.9,1.4,9.9,0,2.6,0,5.2,0,8.6,0,0,0,.1,0,.2"/><path class="cls-1" d="M67.5,224.7c5.9,16.6,12.2,33.2,15.8,50.5,1.5,6.9.9,16.7,4.5,21.6,2.3,3.2,6.4,4.3,13.8,1.4,2.7-1.1,6.7-3.7,10.6-6.8,4.9-3.9,9.6-8.7,11.5-11.9,11.6-20.5,34.8-32.3,47.5-46.2,5.8-6.3,9.4-13.1,8.7-21.3,0-.2,0-.4,0-.5"/><path class="cls-1" d="M87.9,296.8c-.6,2.7-.7,4.4-1.2,6.7-.2.9-.3,1.9,0,2.7.5,1.2,1.7,1.9,3,2.2,11.2,2.1,23.4,3.4,33.8,4.6,7.5.9,22.3-6.8,6.6-14.2-7-3.2-12.2-4.9-17.6-7.4"/><path class="cls-1" d="M59.4,176.6c-1.2,13.8,4.8,34.7,8,47.8"/><path class="cls-1" d="M87.9,177.2c3.9,1.7,10.8,4.2,18.4,7,12.2,4.5,26.3,9.7,33.9,13.2"/><path class="cls-1" d="M179.9,211.3c-14.5-5.3-25.3-8.4-39.8-13.8"/><path class="cls-1" d="M171.5,233.3c1,.5,3.6,1.3,4.8.9,9.5-3.3,19-6.5,27.8-11.2,2.9-1.5,5.9-3.4,7.4-6.2,1.6-2.8,1.1-6.8-1.8-8.1-1.4-.6-2.9-.4-4.5-.3-8.7.8-16.6,2.5-25.3,3.3,0,0,0,0,0,0"/><path class="cls-2" d="M105,141.8c.1.9,1,8.4,1.1,9.3"/><path class="cls-1" d="M121,77.1c0,.6,0,1.1,0,1.5-.2,2.6-.3,3.9-1.5,7.3,0,0,.3,10.8-8.1,20.3-6.3,7.2-10.3,14-28-1.5"/><path class="cls-1" d="M111.1,85.9c-.2,1.9.4,3.5,1.4,3.6,1,.1,1.9-1.3,2.1-3.2.2-1.9-.4-3.5-1.4-3.6-1-.1-1.9,1.3-2.1,3.2Z"/><path class="cls-1" d="M91.3,83.7c-.2,2.1.5,3.9,1.7,4,1.1.1,2.3-1.5,2.5-3.6.2-2.1-.5-3.9-1.7-4-1.1-.1-2.3,1.5-2.5,3.5Z"/><path class="cls-1" d="M107.9,92.1c.3,4.8-3,4.2-6.7,3.7"/><path class="cls-1" d="M108.6,101.2c-6,1.8-17.1-2-18.1-3.2,2,3.7,2,2.9,3.9,4.4,1.9,1.5,5.2,2.6,7.3,2.6,3.4,0,5.2-1.3,6.9-3.7Z"/><path class="cls-1" d="M79.6,79.3c-.4,4.7-.8,20.4,3.8,25.4"/><path class="cls-1" d="M120.1,66.9c0-.4-.2-.9-.5-1.3-.9-1.8-3.3-3.4-8.1-1.8-8.8,2.8-15.6-5.8-23.9-3"/><path class="cls-1" d="M87,61.5c.2-.2.4-.5.7-.7,6.1-5.9,13.6-7,19.3-5.8,6.9,1.6,10.8,5.7,12.7,10.6,1.6,4.1,1.8,8.8,1.3,13,0,0,0,.2,0,.3"/><path class="cls-1" d="M79.6,79.2c1.8-8.1,3.6-13.9,7.4-17.8"/><path class="cls-1" d="M97.3,75.1c-.3.4-.9.8-1.7.8-.7,0-2.6-.5-3.3-.6-2-.2-3.4-.2-5.6-.2-.7,0-1-.4-.7-.8.5-.6,2-1.3,4.4-1.5,1.9-.2,8,.3,6.9,2.3Z"/><path class="cls-1" d="M111.9,75.2c-.9.1-1.6.6-1.7,1.1s.6,1.2,1.6,1.3c.7,0,5.5.3,5.9.4s.7,0,1,0c.2-.1.3-.3.2-.5,0-.2-.3-.3-.5-.5-1.5-1.1-4-2-6.4-1.7Z"/><path class="cls-1" d="M110.9,115.2c2.4-3.5,4.3-7.7,5.9-12.1,2.5-6.9,4.3-14.5,5.8-20.7,2.5-10.2-.3-25.2-7.5-30.1-7.9-5.4-14.6-6.5-24.3-4.8-6.6,1.2-15.3,4.3-19.7,9-4.4,4.7-3.9,9.1-5.4,15.1-1.5,6-1.2,12.5.3,18.9,1.7,7,4.9,13.8,8.9,19.5"/><path class="cls-1" d="M117.2,121.4s0,0,0,0c-1.6-6.1-.3-14.1-.4-18.2,0,0,0-.2,0-.3"/><path class="cls-1" d="M66.1,90.5s0,0,0,0c-1,4.7-1.6,9.5-2.7,14.2-.9,3.9-5.7,6.2-4.6,10.1,0,.1,0,.2.1.4.8,2.2,3.5,6.1,4.7,7.7,4.1,5.3,6.7,10.1,12.9,12.6.9.4,1.9.7,2.8.9,4.6,1,9.7,0,13.8-2.2,1-.5,1.9-1.2,2.7-1.9,2.6-2.2,6.7-4,10-4.9.3,0,.6-.2,1-.3,2.7-.7,7.5-1.9,9.4-2.2.2,0,.4,0,.5-.1,1.7-.5,1.3-1.3.5-3.3"/><path class="cls-1" d="M85,154c.3,0,.6-.1.9-.2,2-.7,3.7-2.8,3.7-4.9s0-1-.3-1.4c-1.2-2.8-5.1-3.8-7.4-1.9.2-1.8.6-2.7,0-4.4s-1.7-2.8-3.1-3.1c-.3,0-.5,0-.8,0-1.8.1-3.2,1.8-3.4,3.6-.1,1.7,0,1.6.1,3.4-1.4-1.4-4.4-2.7-6.3-.6-3.5,3.7-2.2,6.5,2,7.5,0,0,.1,0,.2,0"/><path class="cls-1" d="M93,134.2c-1.4,4-2.9,9.8-3.2,14.8,0,1.6,0,3.1.2,4.4,0,0,0,.1,0,.2"/><path class="cls-1" d="M108.5,127.4c-3.6,7.7-6.2,15.8-7.7,24.1"/><path class="cls-1" d="M111.3,166.5c0-.1,0-.2,0-.3.2-.9.7-1.9.2-2.7-1.1-1.6-2.2-1.7-4.4-1.5.8-1.3,2.5-2.8,2.3-4.6-.1-1.7-1.9-3-3.8-2.8s-3.8,2.1-4.5,3.8c-1.1-2.3-5-3.3-7.2-1.3-2.2,1.9-2.1,5.6.3,6.8-1.7.5-2.7.4-4.1,1.5-1.5,1.1-2.5,2.9-1.9,4.4"/></svg>