<?xml version="1.0" encoding="UTF-8"?><svg id="africaModest" xmlns="http://www.w3.org/2000/svg" width="235" height="321.9" viewBox="0 0 235 321.9"><defs><style>.cls-1{stroke-linecap:round;stroke-linejoin:round;}.cls-1,.cls-2{fill:none;stroke:#000;}.cls-2{stroke-miterlimit:10;}.cls-3,.cls-4,.cls-5,.cls-6,.cls-7,.cls-8,.cls-9,.cls-10{stroke-width:0px;}.cls-4{fill:#5095b1;}.cls-5{fill:#064c72;}.cls-6{fill:#c99070;}.cls-7{fill:#fff;}.cls-8{fill:#ededed;}.cls-9{fill:#e3e1e1;}.cls-10{fill:#e6e6e6;}</style></defs><path class="cls-5" d="M47.5,149.6c.8,2.2-.6,3.8-1.9,4,1.2,1.8-1.1,3.1-2.1,3.1.2,3.2-3.1,2-5.7.5-6.2,18.1-8.3,103.5-6.7,107.1.5,1.3,2.8,2.1,6.1,2.6,4.2.7,10.1.9,16.6.8,7.2,0,15.1-.5,22.4-.9,6.5-.4,12.3-.8,16.6-1.1,3-.2,5.1-.3,6.2-.3,5.2-13.9,2.8-72.4-4.8-110.6-.9-4.4-1.8-8.6-2.9-12.3-.9-3.3-1.9-6.4-2.9-9.1-12.1,3.4-30.8,3.2-42.4-1.4,0,0-1.5,1.7-3.1,6.1,1.1.2,2.2.5,3.2.9,1.6.8,2.5,2.1,2.1,4.6.8.9,1.5,1.9,1.8,2.8.5,1.3,0,2.5-2.5,3.2Z"/><path class="cls-10" d="M28.8,115.1c3.1-6.1,12.3-18.4,14.1-19.8-3.4-3.5-6.5-7.8-8.9-12.9-8.8,11.3-17.7,24.2-19.7,28.1-3.4,6.2,10.3,29.9,14.7,36.2.6-.5,1.3-.9,1.9-1.3,4.9-3.4,8.5-4.7,8.6-8,0-.5,0-1-.2-1.6-.7-2.9-7-12.1-10.5-20.6h0Z"/><path class="cls-5" d="M55.4,295.6c-1.7-1.7-3.2-1.9-6.2-2.3-3.4-.5-8.1-.8-12.5,1.9,0,0,0,0,0,0-2.6,1.3-7.2,3.2-7.7,5.7-.3,1.2.1,5.8,1.2,6.7,1.2,1,3.2,1.4,4.9,1.3,5.2-.3,10.4,0,15.6-.4,1.9-.2,4-.4,5.2-1.7,1.5-1.5,1.5-9,.2-10.6-.2-.3-.4-.5-.6-.7Z"/><path class="cls-6" d="M42.9,138.1c-1.2-.2-2.5-.4-3.5-.8,0,3.3-3.6,4.6-8.6,8-.6,3,2.4,7.8,4.4,9.9.4.5,1.4,1.3,2.6,2,2.5,1.6,5.8,2.8,5.7-.5,1.1,0,3.3-1.4,2.1-3.1,1.3-.2,2.7-1.8,1.9-4,2.5-.7,2.9-1.9,2.5-3.2-.3-.9-1.1-1.9-1.8-2.8.5-2.5-.5-3.8-2.1-4.6-.9-.5-2-.7-3.2-.9Z"/><path class="cls-5" d="M43.6,286.2c-1.1.4-2.2.9-3.4,1.5-6.4,3.3-2.2,6.6-3.5,7.5,4.3-2.7,9.1-2.4,12.5-1.9,3,.4,4.5.6,6.2,2.3.5-3.4,0-6.2-1.5-8-1.9-2.4-5.3-3.1-10.2-1.4Z"/><path class="cls-8" d="M37.2,267v.9c2.2,6.5,4.1,11.9,6.4,18.4,4.9-1.7,8.4-1,10.2,1.4v-19.8c-6.5,0-12.4-.1-16.6-.8Z"/><path class="cls-7" d="M92.7,43.6c0,3.1-.9,8-4,13-8.6,14.2-17.5,20.1-33.7,0-4.2-7-6.7-21,2.4-27.2,8.5-5.8,17.1-11.8,21.9-8,4.7,3.7,11.6,8.3,13.1,18.8.1.3.3,1.6.3,3.3,0,0,0,0,0,0ZM92.9,69.6c2.2-7.2,2.8-14.3,3.8-22.6,1.3-11.5-2.2-26.8-10.9-34.1-7.4-6.3-15.7-7-24.8-4-6.2,2.1-10.3,5.9-14,11.5-3.7,5.6-5.3,9.4-6.1,16.2-1,8.3.2,16.9,3.2,24.7-.9,10.2-7.4,11.2-10.1,21.1,2.4,5.1,5.5,9.4,8.9,12.9,1,1,2,1.9,3,2.8,9.2,7.7,20.6,10.8,31.1,10.5,6.7-.2,12.6-4.4,16.7-9.4,3-3.7,5-7.9,5.4-11.1.5-3.8-4.7-14.9-6.1-18.5h-.3Z"/><path class="cls-4" d="M46,98.1c2,16.7,1.7,21.3,0,33.9,11.7,4.6,30.4,4.8,42.4,1.4,0-14,2-20.7,4.3-28.6.5-1.9.9-3.4,1-5.5-4,5-10,9.2-16.7,9.4-10.5.2-21.9-2.8-31.1-10.5Z"/><path class="cls-6" d="M92.4,40.2c-1.5-10.5-8.4-15.1-13.1-18.8-4.8-3.8-13.4,2.3-21.9,8-9.1,6.2-6.6,20.2-2.4,27.2,16.2,20.1,25.1,14.2,33.7,0,3.1-5.1,3.9-9.9,4-13,0,0,0,0,0,0,0-1.2-.1-2.3-.3-3.3ZM60.1,36.4c-.2-.2,2-2,3.4-2.3,1-.3,3.1-.5,4.4.3,1.8,1.1,2.2,2.4,1.1,2.3-1-.1-2.9-1.3-6.1-.8-1.8.3-2.6.7-2.8.6ZM63.3,41.8c0-1.8.8-3.2,1.7-3.2s1.7,1.4,1.7,3.2-.8,3.2-1.7,3.2-1.7-1.4-1.7-3.2ZM69.1,60.1c-1.6-1.3-1.6-.5-3.4-3.9.9,1.1,10.2,4,15,2.1-1.4,2.3-2.7,3.6-5.6,3.9-1.7.2-4.5-.7-6.1-2ZM81.2,36.4c-.9,0-.3-1.2,1.2-2.2,1.1-.7,2.8-.4,3.5-.1,1.1.4,3.2,2.3,3,2.5s-2.3-.4-3.7-.7c-2.5-.6-3.3.4-4.2.5ZM83.7,41.8c0-1.5.6-2.8,1.4-2.8s1.4,1.2,1.4,2.8-.6,2.8-1.4,2.8-1.4-1.2-1.4-2.8Z"/><path class="cls-3" d="M63.5,34c-1.4.4-3.6,2.2-3.4,2.3.1.1,1-.3,2.8-.6,3.2-.5,5.1.7,6.1.8,1.2.1.7-1.2-1.1-2.3-1.3-.8-3.4-.5-4.4-.3Z"/><path class="cls-3" d="M65,38.6c-.9,0-1.7,1.4-1.7,3.2s.8,3.2,1.7,3.2,1.7-1.4,1.7-3.2-.8-3.2-1.7-3.2Z"/><path class="cls-9" d="M65.7,56.2c1.8,3.4,1.8,2.6,3.4,3.9,1.6,1.3,4.4,2.2,6.1,2,2.8-.3,4.2-1.5,5.6-3.9-4.8,2-14.1-.9-15-2.1Z"/><path class="cls-5" d="M75,296.5c-1.2,1.8-1.9,9.8.1,11.1,1.4.9,17.3,1.4,22.3,1.5.5,0,2.5,0,3.9-.9s1.1-7.8.3-9c-1.6-2.6-2.3-3.5-6.2-4.7,0,0-5.7-.9-6.4-1-2.4-.2-7-.6-9.4-.2-1.5.2-2.4.7-3.2,1.5-.5.5-.9,1.1-1.3,1.7Z"/><path class="cls-5" d="M76.2,287.6c-1.7,2.3-.5,5.7-.3,7.1h.4c.8-.7,1.7-1.2,3.2-1.4,2.4-.4,7,0,9.4.2.8,0,6.4,1,6.4,1,.2-.3-.8-7.8-8.2-8.7-6.6-1-9.7,0-11,1.8Z"/><path class="cls-8" d="M76.2,266.8h0v20.8c1.3-1.7,4.4-2.8,11-1.8,2.3-6.6,3.4-12.1,5.7-18.7v-1.4c-4.4.3-10.3.7-16.7,1.1Z"/><path class="cls-3" d="M82.4,34.2c-1.6,1-2.2,2.3-1.2,2.2.8,0,1.7-1.1,4.2-.5,1.4.3,3.6.8,3.7.7.2-.2-2-2.1-3-2.5-.8-.3-2.4-.6-3.5.1Z"/><ellipse class="cls-3" cx="85.1" cy="41.8" rx="1.4" ry="2.8"/><path class="cls-6" d="M91.6,142.4h-.3c1,3.9,2,8,2.9,12.4h0c1.5-.6,2.9-1.6,3.9-2.9-4.2-3.9-5.8-6.9-6.6-9.5Z"/><path class="cls-10" d="M100.6,119.4c-3.1,7.1-6.5,15.4-9.8,18,.2,1.6.3,3.2.9,5,.8,2.6,2.4,5.6,6.6,9.5,4.2-2.9,9.8-15.9,15.9-30.2.2-2.2-.2-4.4-1.6-6.9-1.3-2.3-6.7-16.3-13.3-26.6-.4,3.1-2.4,7.3-5.4,11.1-.1,2.1-.5,3.7-1,5.5,2,2.7,7.3,15.2,7.8,14.6ZM100.6,119.4s0,0,0,0c0,0,0,0,0,0Z"/><path class="cls-8" d="M92.4,40.2c.2,1,.3,2.2.3,3.3,0-1.8-.1-3-.3-3.3Z"/><path class="cls-10" d="M100.6,119.3s0,0,0,0c0,0,0,0,0,0Z"/><path class="cls-2" d="M92.7,43.6c0,3.1-.9,8-4,13-8.6,14.2-17.5,20.1-33.7,0"/><path class="cls-2" d="M92.4,40.1s0,0,0,.1c.1.3.3,1.6.3,3.3"/><ellipse class="cls-2" cx="85.1" cy="41.8" rx="1.4" ry="2.8"/><path class="cls-2" d="M63.3,41.8c0,1.8.8,3.2,1.7,3.2s1.7-1.4,1.7-3.2-.8-3.2-1.7-3.2-1.7,1.4-1.7,3.2Z"/><path class="cls-2" d="M78.8,46.2c4.9,7.6-3.4,7.8-4.9,6.8"/><path class="cls-2" d="M80.7,58.3c-4.8,2-14.1-.9-15-2.1,1.8,3.4,1.8,2.6,3.4,3.9,1.6,1.3,4.4,2.2,6.1,2,2.8-.3,4.2-1.5,5.6-3.9Z"/><path class="cls-2" d="M93.7,99.3c-.1,2.1-.5,3.7-1,5.5-2.3,7.9-4.3,14.6-4.3,28.6"/><path class="cls-2" d="M46,98.1c2,16.7,1.7,21.3,0,33.9,0,0-1.5,1.7-3.1,6.1,0,0,0,0,0,0"/><path class="cls-2" d="M99.2,88.2c6.5,10.3,11.9,24.3,13.3,26.6,1.4,2.5,1.9,4.7,1.6,6.9,0,.2,0,.3,0,.4"/><path class="cls-2" d="M100.6,119.4s0,0,0,0"/><path class="cls-2" d="M92.7,104.8c2,2.7,7.3,15.2,7.8,14.6"/><path class="cls-2" d="M102.5,115.1c-.6,1.3-1.3,2.7-1.9,4.2,0,0,0,0,0,0h0c-3.1,7.1-6.5,15.4-9.8,18"/><path class="cls-2" d="M42.9,95.3c-1.9,1.5-11.1,13.8-14.1,19.8"/><path class="cls-2" d="M34,82.4c-8.8,11.3-17.7,24.2-19.7,28.1"/><path class="cls-2" d="M46,141.2c.4.6,1.3,1.4,2.1,2.4.8.9,1.5,1.9,1.8,2.8.5,1.3,0,2.5-2.5,3.2.8,2.2-.6,3.8-1.9,4,1.2,1.8-1.1,3.1-2.1,3.1.2,3.2-3.1,2-5.7.5-1.1-.7-2.1-1.5-2.6-2-2-2.2-5-6.9-4.4-9.9"/><path class="cls-2" d="M39.5,137.3c1,.3,2.2.5,3.5.8,1.1.2,2.2.5,3.2.9,1.6.8,2.5,2.1,2.1,4.6,0,0,0,0,0,0"/><path class="cls-2" d="M92.7,44.5c0-.3,0-.7,0-1,0,0,0,0,0,0,0-1.2-.1-2.3-.3-3.3-1.5-10.5-8.4-15.1-13.1-18.8-4.8-3.8-13.4,2.3-21.9,8-9.1,6.2-6.6,20.2-2.4,27.2"/><path class="cls-2" d="M88.4,133.4c1,2.7,2,5.7,2.9,9.1,1,3.8,2,7.9,2.9,12.3,7.6,38.2,10,96.7,4.8,110.6-1,0-3.2,0-6.2.3-4.3.3-10.1.7-16.6,1.1-7.2.5-15.2.9-22.4.9-6.5,0-12.4-.1-16.6-.8-3.3-.5-5.6-1.4-6.1-2.6-1.6-3.7.5-89,6.7-107.1"/><path class="cls-2" d="M27.1,110.5c.4,1.5,1,3.1,1.6,4.7h0c3.6,8.5,9.8,17.7,10.5,20.6.1.6.2,1.1.2,1.6,0,3.3-3.6,4.6-8.6,8-.6.4-1.2.9-1.9,1.3-4.4-6.3-18.1-30-14.7-36.2"/><path class="cls-2" d="M114.2,121.2c0,.2-.1.3-.2.5-6.1,14.4-11.6,27.3-15.9,30.2-4.2-3.9-5.8-6.9-6.6-9.5-.5-1.8-.6-3.4-.9-5"/><path class="cls-2" d="M88.4,133.4c-12.1,3.4-30.8,3.2-42.4-1.4"/><path class="cls-2" d="M85.9,34.1c1.1.4,3.2,2.3,3,2.5s-2.3-.4-3.7-.7c-2.5-.6-3.3.4-4.2.5-.9,0-.3-1.2,1.2-2.2,1.1-.7,2.8-.4,3.5-.1Z"/><path class="cls-2" d="M63.5,34c-1.4.4-3.6,2.2-3.4,2.3.1.1,1-.3,2.8-.6,3.2-.5,5.1.7,6.1.8,1.2.1.7-1.2-1.1-2.3-1.3-.8-3.4-.5-4.4-.3Z"/><path class="cls-2" d="M98.2,151.9c-1,1.3-2.4,2.3-3.9,2.9"/><path class="cls-2" d="M92.9,267.1c-2.3,6.6-3.4,12.1-5.7,18.7"/><path class="cls-2" d="M76.2,266.9v20.7h0"/><path class="cls-2" d="M37.1,267.8c2.3,6.5,4.2,11.9,6.5,18.4,0,.1,0,.3.1.4"/><path class="cls-2" d="M53.8,267.7h0v19.9h0"/><path class="cls-1" d="M40.2,287.7c-6.4,3.3-2.2,6.6-3.5,7.5,0,0,0,0,0,0-2.6,1.3-7.2,3.2-7.7,5.7-.3,1.2.1,5.8,1.2,6.7,1.2,1,3.2,1.4,4.9,1.3,5.2-.3,10.4,0,15.6-.4,1.9-.2,4-.4,5.2-1.7,1.5-1.5,1.5-9,.2-10.6-.2-.3-.4-.5-.6-.7-1.7-1.7-3.2-1.9-6.2-2.3-3.4-.5-8.1-.8-12.5,1.9"/><path class="cls-1" d="M55.4,295.6h0c.5-3.4,0-6.2-1.5-8-1.9-2.4-5.3-3.1-10.2-1.4-1.1.4-2.2.9-3.4,1.5"/><path class="cls-1" d="M87.2,285.8c7.3.8,8.4,8.4,8.2,8.7,0,0-5.7-.9-6.4-1-2.4-.2-7-.6-9.4-.2-1.5.2-2.4.7-3.2,1.5-.5.5-.9,1.1-1.3,1.7-1.2,1.8-1.9,9.8.1,11.1,1.4.9,17.3,1.4,22.3,1.5.5,0,2.5,0,3.9-.9s1.1-7.8.3-9c-1.6-2.6-2.3-3.5-6.2-4.7"/><path class="cls-1" d="M75.9,294.6c-.2-1.4-1.4-4.8.3-7.1,1.3-1.7,4.4-2.8,11-1.8"/><path class="cls-1" d="M89.7,77.9c1.3-2.8,2.4-5.6,3.2-8.3,2.2-7.2,2.8-14.3,3.8-22.6,1.3-11.5-2.2-26.8-10.9-34.1-7.4-6.3-15.7-7-24.8-4-6.2,2.1-10.3,5.9-14,11.5-3.7,5.6-5.3,9.4-6.1,16.2-1,8.3.2,16.9,3.2,24.7,2,5.5,4.9,10.7,8.4,15.3"/><path class="cls-1" d="M44.1,61.3c-.9,10.2-7.4,11.2-10.1,21.1,2.4,5.1,5.5,9.4,8.9,12.9,1,1,2,1.9,3,2.8,9.2,7.7,20.6,10.8,31.1,10.5,6.7-.2,12.6-4.4,16.7-9.4,3-3.7,5-7.9,5.4-11.1.5-3.8-4.7-14.9-6.1-18.5"/></svg>