<?xml version="1.0" encoding="UTF-8"?><svg id="africaModest" xmlns="http://www.w3.org/2000/svg" width="235" height="321.9" viewBox="0 0 235 321.9"><defs><style>.cls-1{stroke-linecap:round;stroke-linejoin:round;}.cls-1,.cls-2{fill:none;stroke:#000;}.cls-2{stroke-miterlimit:10;}.cls-3,.cls-4,.cls-5,.cls-6,.cls-7,.cls-8,.cls-9,.cls-10{stroke-width:0px;}.cls-4{fill:#f8e7d7;}.cls-5{fill:#7080a9;}.cls-6{fill:#899bcf;}.cls-7{fill:#c6a893;}.cls-8{fill:#d98f8f;}.cls-9{fill:#fff;}.cls-10{fill:#ffb5b2;}</style></defs><path class="cls-7" d="M16.7,151.9l.3-.7c1.4-2.8,1.8-5.9,2.7-8.2h0c-4-1-7.8-1.6-12-.7h-.2c-.9,3.3-1.7,7-2.7,11.3-1.6,2.4-4.2,11.8-1.8,13.5,2,1.4,13.8.3,15.9-2.3,1.9-2.3.6-11.8-2.2-12.9Z"/><path class="cls-4" d="M7.5,142.3h.2c4.1-.8,8-.3,12,.7.7.2,1.4.3,2.1.5,1.7-4.6,3-8.9,6.6-15.2.6-1.1,1.4-2,2.4-2.8,5.8-4.4,12.1-12.7,15.7-15.5h.6c0-4.8.4-8.8,1.2-12.4-1.1-2.1-2-6.1-2.2-7.6-.1-1.2.7-2.8,1.7-4.3h0c-6.9,4.2-14.2,13.6-14.6,14.1-4.2,4.8-10.8,13.5-14.3,18.5-6.2,9-9,15.5-11.3,24Z"/><path class="cls-10" d="M66.4,109.9c.6.3,1.2.6,1.8.9,4.1,2.1,10.4.2,15.2-1.6,4.3-1.6,15.7-10.9,17.8-12.9,1.1-1.1,1.8-2,2.1-2.8.9-2-.1-3.5-.3-4.7-.5-3.4-2.9-5.9-2.7-9.3.3-5.6,4.8-12.7,5.1-18.3h-.1c-.4,2.1-1.1,4.7-2.4,7.1-3.7,6.7-5.6,8.7-7.3,11.1-4.4,6.1-8.9,8.7-20.7,2l-.2-.3c-5.5-4.4-11.8-14.1-10.4-27.1h.1c1.3-5.4,2.3-7.9,3.6-9.9,6.4-14.7,14.1-16.5,21.5-16.3,7.7.2,16.9,4.3,18.1,11.5,0,.4.1.8.2,1.3h.3c-.6-20.4-28.9-23.7-38.4-21.8-7,1.5-15.2,8.4-18.7,14.3-3.5,5.9-4.7,14.5-4.7,21.3,0,6.8,2.8,11.8,4.2,18.5.8,3.8,1.6,4.8,0,8.4-.5,1.2-1.8,2.7-2.8,4.3-1,1.5-1.8,3-1.7,4.3.1,1.5,1.1,5.4,2.2,7.6.2.5.5.9.8,1.1,5.3,5.2,10.9,7.9,17.5,11.2Z"/><path class="cls-4" d="M48.8,126.9c.4,4.9,1.1,11.7.9,15.6-.1,2.1-1.4,23.2-1.7,24.9.4,10.1,3.8,15.3,9.5,20.7l.3-.7c-2-6,0-11.2,3.5-16.4,3.5-5,11.7-7.8,18-8.2-.5,0-1,0-1.5-.1v-.4c-3.5-.2-7-1.6-9.9-3.7-1.6,0-2.8-.2-3.4-.9-1.4-1.8-1.3-11.9.5-16.2h-.2c-1.2-9.9-.1-21.9,1.7-31.6-6.6-3.3-12.2-6-17.5-11.2-.3-.2-.5-.6-.8-1.1-.8,3.6-1.3,7.6-1.2,12.4,0,4.7.6,10.2,1.8,17h0Z"/><path class="cls-5" d="M169.4,197.7h0c-9-4.5-24.6-11.3-32.8-14-4.1-1.3-19.1-9.9-35.7-15.7-7.2-2.5-14.7-4.5-21.8-5.1-6.2.4-14.5,3.2-18,8.2-3.6,5.2-5.5,10.4-3.5,16.4l-.3.7c5.4,5,11.3,7,18,8.5h0c2.5.6,5,1.1,7.7,1.6,18.3,2.6,23.4,2.6,28.2,2.5.7,0,1.3,0,2,0,7.5,0,10.7.9,17.5,4.4,15.5,7.9,19,5.9,33.5,8h0c2.3.2,5.6.6,9.1,1.5h0c3.2-3.9,5.2-8.6,5.7-13.5-3.5-1.3-6.7-2.4-9.7-3.6Z"/><path class="cls-7" d="M67.8,158.7c4.2-.1,10.8-2.4,12.7-3.7l.2.2c4.2-1.5,7.6-2.6,10.7-3.9h.2c-.8-4-1.3-8.1-.3-12h0c-2.7,1-5.6,2.2-9.4,4.2-1.1-3.3-13.5-5.8-16-3.6-.4.3-.7.9-1,1.6-1.8,4.4-1.9,14.4-.5,16.2.5.7,1.8.9,3.4.9Z"/><path class="cls-7" d="M68.1,44.3c-1.4,2-2.4,4.5-3.6,10h-.1c-1.3,13,4.9,22.6,10.4,27l.2.3c11.8,6.7,16.3,4.1,20.7-2,1.7-2.4,3.6-4.4,7.3-11.1,1.3-2.4,2-5,2.4-7.2.3-1.8.5-3.4.5-4.1,0-.3,0-.5,0-.6.7-3,1.6-5.5,1.5-8.6,0-3-.9-6.1-2.9-8.5-2-2.3-5.1-3.7-8.2-4.6-2.8-.8-5.7-1.1-8.6-1.3-6.1-.4-12.7,2.6-16.3,6.5-1.4,1.6-2.5,2.7-3.4,4ZM82.3,55.4c-1-.2-1.4-1.7-1-3.3.4-1.6,1.5-2.7,2.5-2.5,1,.2,1.4,1.7,1,3.3-.4,1.6-1.5,2.7-2.5,2.5ZM95,73c-4.3,9.2-12,2.2-11.8-3.7,6.9,2.2,8.5,3.7,11.8,3.7ZM100.3,59.7c-.9-.2-1.2-1.6-.9-3.1.4-1.5,1.4-2.6,2.3-2.4.9.2,1.3,1.6.9,3.1-.4,1.5-1.4,2.6-2.3,2.4Z"/><path class="cls-4" d="M91.4,139.2h0c-1.1,3.9-.5,8,.3,12,.2,1.1.5,2.3.7,3.4.8-.3,1.6-.7,2.3-1,7.9-3.5,13.5-7.2,22.7-14.2,2.9-3.9-2.5-16.3-6-23.4-2.7-5.5-5.5-19-7.9-22.4-.3.8-1,1.8-2.1,2.8-2.2,2-13.5,11.4-17.8,12.9-4.9,1.7-11.2,3.6-15.2,1.6-.6-.3-1.2-.6-1.8-.9-1.8,9.7-2.9,21.8-1.7,31.5h.2c.3-.6.6-1.2,1-1.5,2.5-2.3,14.9.3,16,3.6,3.8-2.1,6.7-3.2,9.4-4.3ZM93.6,138.4c0-5.8.8-8.6,1.6-13,.8-4.5,1-3.4,1.6-7.5.9,1.7,1.6,3.2,6.7,15.9-4.1,2.3-7,3.5-9.9,4.6Z"/><path class="cls-8" d="M68.1,44.3c.9-1.3,2-2.4,3.4-4,3.6-4,10.2-6.9,16.3-6.5,2.9.2,5.8.4,8.6,1.3,3,.9,6.1,2.2,8.2,4.6,2,2.3,2.9,5.4,2.9,8.5,0,3-.9,5.6-1.5,8.6,0,0,0,.2,0,.6h0c2.1-5.2,2.5-11.9,1.9-16.4,0-.4-.1-.9-.2-1.3-1.2-7.3-10.4-11.4-18.1-11.5-7.4-.1-15.2,1.6-21.5,16.3Z"/><path class="cls-4" d="M92.4,154.6c-.2-1.1-.5-2.3-.7-3.4h-.2c-3.1,1.3-6.5,2.5-10.7,4l-.2-.2c-1.9,1.4-8.5,3.6-12.7,3.7,2.9,2.2,6.3,3.5,9.9,3.7v.4c.5,0,1,0,1.5.1,7,.6,14.5,2.6,21.8,5.1-1.6-4.3-4.5-10.8-6.3-14.4-.8.3-1.5.7-2.3,1Z"/><path class="cls-3" d="M81.3,52.1c-.4,1.6,0,3.1,1,3.3,1,.2,2.1-.9,2.5-2.5.4-1.6,0-3.1-1-3.3-1-.2-2.1.9-2.5,2.5Z"/><path class="cls-5" d="M83.1,198.3c-2.7-.6-5.2-1.1-7.7-1.6,3.9,6.3,13.1,17.4,17,27.8,3.4,9.3,3.4,23.1,3.2,27.7-.1,3.8-.3,4.3-.3,7.9.1,7.2.2,13.6.2,18.8h0c4,1.9,8.8,2.3,13,1h0c2.7-12,2.7-9.6,4.9-22.3.9-3.7,2.9-13.6,2.8-31.1,0-9-2.3-18.3-5-25.6-4.8,0-9.9,0-28.2-2.5Z"/><path class="cls-9" d="M83.2,69.3c-.1,5.9,7.5,12.9,11.8,3.7-3.3,0-5-1.5-11.8-3.7Z"/><path class="cls-9" d="M93.4,301.9c0,.8,0,1.7.4,2.4.6.9,1.8,1.3,2.9,1.5,9.3,1.9,19.2,6.6,28.7,7,3.1.1,6.4,0,9-1.6,2.6-1.6,4.1-5.3,2.3-7.8-.8-1.2-2.2-1.8-3.5-2.5-7.5-3.6-15.6-10.1-23.2-13.8h0c0,0,0,0,0,0-1.6-.6-2-.7-3,.2s-1.5,2.2-2,3.5c-.5,1.2-1.1,2.5-2.3,3.2-2,1.3-6.2-.3-7.2-2.4,0,0,0,0,0,0-1.1,3.3-1.8,6.8-2,10.3Z"/><path class="cls-6" d="M95.4,278.9c0,7.7,0,12.5,0,12.7,0,0,0,0,0,0,1,2.1,5.2,3.6,7.2,2.4,1.2-.7,1.8-2,2.3-3.2.5-1.2,1-2.6,2-3.5.6-2.9,1.2-5.3,1.6-7.3h0c-4.3,1.3-9,.9-13-1h0Z"/><path class="cls-3" d="M99.5,56.6c-.4,1.5,0,3,.9,3.1.9.2,1.9-.9,2.3-2.4.4-1.5,0-2.9-.9-3.1-.9-.2-1.9.9-2.3,2.4Z"/><path class="cls-6" d="M173.5,214.6h0c1.9.6,4,1.3,6.1,2.1h.2c0-.1,0-.2,0-.3,1,3.9,10.9-6.7,10.2-8.1s-1.1-2.2-1.1-3.7c-3.4-1.2-6.6-2.4-9.6-3.5-.5,4.9-2.5,9.6-5.7,13.4Z"/><path class="cls-9" d="M179.6,216.4v.2c.8,3.7,2,7.2,3.7,10.6.4.8.4.9,1.2,1.4,1.1.5,2.4.1,3.5-.3,9.7-3.3,19.5-6.7,28.6-11.6,3-1.6,6-3.5,7.7-6.4s1.1-7-1.9-8.3c-1.4-.6-3-.5-4.6-.3-9,.8-20.2,2.1-29.2,2.9,0,1.5.5,2.4,1.1,3.7s-9.3,11.9-10.2,8.1Z"/><path class="cls-2" d="M96.9,117.5c0,.2,0,.3,0,.4-.6,4.1-.8,3-1.6,7.5-.8,4.4-1.7,7.2-1.6,13h0"/><path class="cls-2" d="M48.8,126.1c0,.3,0,.5,0,.8.4,4.9,1.1,11.7.9,15.6-.1,2.1-1.4,23.2-1.7,24.9"/><path class="cls-2" d="M48.8,126.9c-1.2-6.8-1.8-12.3-1.8-17,0-4.8.4-8.8,1.2-12.4,0,0,0-.1,0-.2"/><path class="cls-2" d="M169.5,197.6c-9-4.4-24.6-11.2-32.8-13.9-4.1-1.3-19.1-9.9-35.7-15.7-7.2-2.5-14.7-4.5-21.8-5.1-.5,0-1,0-1.5-.1-.2,0-.3,0-.5,0"/><path class="cls-2" d="M83.1,198.3c18.3,2.6,23.4,2.6,28.2,2.5.7,0,1.3,0,2,0,7.5,0,10.7.9,17.5,4.4,15.5,7.9,19,5.9,33.5,8,.1,0,.2,0,.3,0"/><path class="cls-2" d="M94.7,153.6h0c1.7,3.6,4.7,10.1,6.3,14.4,0,0,0,.2,0,.3"/><path class="cls-1" d="M47.7,85.7c-6.9,4.2-14.2,13.6-14.6,14.1-4.2,4.8-10.8,13.5-14.3,18.5-6.2,9-9,15.5-11.3,24-.9,3.4-1.7,7.1-2.7,11.4"/><path class="cls-1" d="M19.6,143c-.8,2.3-1.3,5.4-2.7,8.2"/><path class="cls-1" d="M46.4,110c-3.6,2.9-9.9,11.2-15.7,15.5-1,.8-1.8,1.7-2.4,2.8-3.6,6.3-4.9,10.6-6.6,15.2,0,.1,0,.2-.1.3"/><path class="cls-1" d="M16.5,151.9c0,0,.1,0,.2,0,2.8,1.2,4.1,10.6,2.2,12.9-2.1,2.6-13.9,3.6-15.9,2.3-2.4-1.6.3-11.1,1.8-13.5"/><path class="cls-1" d="M91.5,151.3c-3.1,1.3-6.5,2.4-10.7,3.9"/><path class="cls-1" d="M117.4,139.4c-9.2,7.1-14.8,10.7-22.7,14.2-.8.3-1.5.7-2.3,1,0,0-.1,0-.2,0"/><path class="cls-1" d="M106.9,131.7c-1.2.8-2.4,1.4-3.4,2-4.1,2.3-7,3.5-9.9,4.6-.7.3-1.5.6-2.2.8-2.7,1.1-5.6,2.2-9.4,4.3"/><path class="cls-2" d="M67.8,158.7c4.2-.1,10.8-2.4,12.7-3.7"/><path class="cls-1" d="M82,143.5c-1.1-3.3-13.5-5.8-16-3.6-.4.3-.7.9-1,1.6-1.8,4.4-1.9,14.4-.5,16.2.5.7,1.8.9,3.4.9"/><path class="cls-1" d="M103.3,93.3c0,0,.1.1.2.2,2.4,3.4,5.2,17,7.9,22.4,3.5,7.1,8.9,19.5,6,23.4"/><path class="cls-1" d="M93.7,111c2,4.6,2.6,5.8,3.2,6.9.9,1.7,1.6,3.2,6.7,15.9h0"/><path class="cls-2" d="M75.4,196.7c2.5.6,5,1.1,7.7,1.6"/><path class="cls-2" d="M48,167.5c.4,10.1,3.8,15.3,9.5,20.7,5.4,5,11.3,7,18,8.5"/><path class="cls-1" d="M66.5,109.8c0,0,0,.1,0,.2-1.8,9.7-2.9,21.8-1.7,31.5"/><path class="cls-1" d="M7.7,142.3c4.1-.9,8-.3,12,.6.7.2,1.4.3,2.1.5h0"/><path class="cls-1" d="M91.4,139.3c-1.1,3.9-.5,8,.3,12,.2,1.1.5,2.3.7,3.4"/><path class="cls-1" d="M164.3,213.1c2.3.3,5.6.7,9.1,1.6,1.9.5,4,1.1,6.1,2"/><path class="cls-1" d="M188.7,204.7c-3.4-1.2-6.6-2.4-9.6-3.5-3.5-1.3-6.7-2.4-9.7-3.6,0,0,0,0,0,0"/><path class="cls-1" d="M179.6,216.4c1,3.9,10.9-6.7,10.2-8.1s-1.1-2.2-1.1-3.7"/><path class="cls-1" d="M184.5,228.7c1.1.5,2.4.1,3.5-.3,9.7-3.3,19.5-6.7,28.6-11.6,3-1.6,6-3.5,7.7-6.4s1.1-7-1.9-8.3c-1.4-.6-3-.5-4.6-.3-9,.8-20.2,2.1-29.2,2.9"/><path class="cls-1" d="M179.6,216.4v.2c.8,3.7,2,7.2,3.7,10.6.4.8.4.9,1.2,1.4"/><path class="cls-1" d="M75.4,196.7h0c3.9,6.3,13.1,17.4,17,27.8,3.4,9.3,3.4,23.1,3.2,27.7-.1,3.8-.3,4.3-.3,7.9"/><path class="cls-1" d="M111.3,200.8c2.7,7.2,4.9,16.6,5,25.6.1,17.6-1.9,27.5-2.8,31.1"/><path class="cls-1" d="M95.3,260.1c.1,7.2.2,13.6.2,18.8,0,7.7,0,12.5,0,12.7"/><path class="cls-1" d="M113.5,257.5c-2.2,12.7-2.2,10.4-4.9,22.3-.4,2-1,4.4-1.6,7.3"/><line class="cls-1" x1="110" y1="287" x2="110" y2="287.1"/><path class="cls-1" d="M95.4,291.6c1,2.1,5.2,3.6,7.2,2.4,1.2-.7,1.8-2,2.3-3.2.5-1.2,1-2.6,2-3.5s1.4-.8,3-.2"/><path class="cls-1" d="M95.4,291.6s0,0,0,0c-1.1,3.3-1.8,6.8-2,10.3,0,.8,0,1.7.4,2.4.6.9,1.8,1.3,2.9,1.5,9.3,1.9,19.2,6.6,28.7,7,3.1.1,6.4,0,9-1.6,2.6-1.6,4.1-5.3,2.3-7.8-.8-1.2-2.2-1.8-3.5-2.5-7.5-3.6-15.6-10.1-23.2-13.8h0"/><path class="cls-1" d="M74.9,81.6c11.8,6.7,16.3,4.1,20.7-2,1.7-2.4,3.6-4.4,7.3-11.1,1.3-2.4,2-5,2.4-7.2.3-1.8.5-3.4.5-4.1,0-.3,0-.5,0-.6.7-3,1.6-5.5,1.5-8.6,0-3-.9-6.1-2.9-8.5-2-2.3-5.1-3.7-8.2-4.6-2.8-.8-5.7-1.1-8.6-1.3-6.1-.4-12.7,2.6-16.3,6.5-1.4,1.6-2.5,2.7-3.4,4-1.4,2-2.4,4.5-3.6,10"/><path class="cls-1" d="M104.1,50c-.1-2.7-2.8-2.8-3.9-1.3"/><path class="cls-1" d="M86.2,43.8c-1.3-2.1-4-2.8-7-.5"/><path class="cls-1" d="M96,62.8c.4,2.5-.2,8-6.4,4.6"/><path class="cls-1" d="M99.5,56.6c-.4,1.5,0,3,.9,3.1.9.2,1.9-.9,2.3-2.4.4-1.5,0-2.9-.9-3.1-.9-.2-1.9.9-2.3,2.4Z"/><path class="cls-1" d="M81.3,52.1c-.4,1.6,0,3.1,1,3.3,1,.2,2.1-.9,2.5-2.5.4-1.6,0-3.1-1-3.3-1-.2-2.1.9-2.5,2.5Z"/><path class="cls-1" d="M95,73c-3.3,0-5-1.5-11.8-3.7"/><path class="cls-1" d="M95,73c-4.3,9.2-12,2.2-11.8-3.7"/><path class="cls-1" d="M64.5,53.1c0,.4,0,.7-.1,1.1-1.3,13,4.9,22.6,10.4,27.1"/><path class="cls-1" d="M68.1,44.4s0,0,0-.1c6.4-14.7,14.1-16.5,21.5-16.3,7.7.2,16.9,4.3,18.1,11.5,0,.4.1.8.2,1.3.5,4.5.1,11.2-1.9,16.4"/><path class="cls-1" d="M108.2,40.7c-.6-20.4-28.9-23.7-38.4-21.7-7,1.5-15.2,8.4-18.7,14.3-3.5,5.9-4.7,14.5-4.7,21.3,0,6.8,2.8,11.8,4.2,18.5.8,3.8,1.6,4.8,0,8.4-.5,1.2-1.8,2.7-2.8,4.3-1,1.5-1.8,3-1.7,4.3.1,1.5,1.1,5.4,2.2,7.6.2.5.5.9.8,1.1,5.3,5.2,10.9,7.9,17.5,11.2.6.3,1.2.6,1.8.9,4.1,2.1,10.4.2,15.2-1.6,4.3-1.6,15.7-10.9,17.8-12.9,1.1-1.1,1.8-2,2.1-2.8.9-2-.1-3.5-.3-4.7-.5-3.4-2.9-5.9-2.7-9.3.3-5.6,4.8-12.7,5.1-18.3"/><path class="cls-1" d="M57.1,62.6c1.9,6.9,3.8,13.9,7.6,19.9s9.9,11.1,17,11.8"/><path class="cls-2" d="M79.9,162.9c-.2,0-.4,0-.7,0-6.2.4-14.5,3.2-18,8.2-3.6,5.2-5.5,10.4-3.5,16.4"/><path class="cls-2" d="M67.7,158.6s0,0,.1,0c2.9,2.2,6.3,3.5,9.9,3.7"/><path class="cls-1" d="M95.5,278.9c4,1.9,8.8,2.3,13,1"/><path class="cls-1" d="M179.1,201.2s0,0,0,0c-.5,4.9-2.5,9.6-5.7,13.4"/></svg>