<?xml version="1.0" encoding="UTF-8"?><svg id="africaModest" xmlns="http://www.w3.org/2000/svg" width="235" height="321.9" viewBox="0 0 235 321.9"><defs><style>.cls-1{fill:none;stroke:#000;stroke-linecap:round;stroke-linejoin:round;}.cls-2,.cls-3,.cls-4,.cls-5,.cls-6,.cls-7,.cls-8{stroke-width:0px;}.cls-3{fill:#f8cf87;}.cls-4{fill:#956b4d;}.cls-5{fill:#af9c7e;}.cls-6{fill:#c05180;}.cls-7{fill:#a17859;}.cls-8{fill:#fff;}</style></defs><path class="cls-5" d="M135.9,301.6c2.2,2.6.9,6.8-1.9,8.8-2.7,2-6.4,2.4-9.8,2.6-10.5.5-21.9-3.9-32.3-5.1-1.3-.2-2.6-.4-3.4-1.4-.5-.7-.6-1.7-.6-2.6,0-1.3-.1-1.3,0-2.6h0c15.4-3.2,20.1-9.5,23.1-12.3,0,0,.1-.1.2-.2l.4.2c6.7,3.4,13.7,7.6,20.2,10.1,1.5.6,3.1,1.2,4.1,2.4Z"/><path class="cls-4" d="M128.3,170.4c1.3,3-2,6-4.6,7.9-2.6,1.9-4.2,2.7-6.8.9-1.3-.9-2.3-2.2-2.7-3.7-.7-2.8.9-5.7,3.3-7.4,2.3-1.7,0-.9,2.8-1.5,3.1-.9,6.7.8,8,3.7Z"/><path class="cls-6" d="M120.3,166.7c-2.8.6-.5-.2-2.8,1.5-2.3,1.7-4,4.6-3.3,7.4.4,1.5,1.4,2.8,2.7,3.7l-.6.8c-6,5.5-26.1-14-26.6-19.7,0-3,.3-5.9.6-8.9h-.4c.2-.9.3-1.7.5-2.6,1.2-6.7,1.7-13.7.7-20.5v-.6c.3,0,.7,0,1-.1.5,0,1-.3,1.4-.5l.7.2c3.3,16.1,20.7,35.6,26.1,39.3Z"/><path class="cls-6" d="M51.8,178.8c-.5,2.6-1.2,6.3-1.9,10h0c1.1,2.2,6.6,7,8.8,5.9,1.8-.9,5.9-10.4,4.8-13-1-2.5-9.9-4.8-11.8-2.9h0ZM42.6,165.4h.1c1.1-11,.8-9.8,1.2-17h0c-2,3.3-3.6,6.7-5.8,10.3,1.6,2.6,3.1,4.8,4.5,6.7ZM39.3,190.2l.4-.3c1-.4,1.7-1.2,2.1-2.1.8-1.8-.5-3.5-1.3-5.2,1.6,0,5.2,1,6.6,0,1.4-1.1,1.5-3.2.3-4.8s-3.8-2-5.7-1.7c1.3-2.2,0-6-2.8-6.8-2.9-.8-5.9,1.3-5.6,3.9-1.3-1.2-1.8-2-3.5-2.6-1.7-.6-3.8-.5-4.7.8-1.1-1.8-2-3.6-2.9-5.4-2.4-4.9,12.8-39,17.7-47,.6,1.8,1.7,3.4,2.9,4.9,4.1,5.3,9,10.3,15.3,12.9s13.9,2.3,19.1-2c.6-.5,1.1-1,1.6-1.5h0c1.1,9.6.8,24.1,1.9,33.6.1,1.1.3,2.2.7,3.1.5.9,1.4,1.5,2.2,1.2.8-.4,1.2-1.5,1.5-2.5,1.7-5.6,3.4-11.3,4.6-17.1h.4c-.3,3.1-.5,6-.6,9-.2,7.3,0,14.9.4,24.6h0c3.3,9.5,7.4,21.7,11.3,32,2.6,6.9,4.5,14.1,5.5,21.4,2.6,18.3,8.3,46,4.3,50.5,0,0-.1.1-.2.2-3,2.8-7.7,9-23.1,12.1-5.1,1-11.3,1.7-19,1.8-5.4,0-14-1.3-22.6-3.2-12.1-2.6-24.1-6.3-26.5-8.4-.2-.1-.3-.3-.3-.4h0c5-27.5,11.8-42.6,13.5-64.1,1.7-21.6,2-27.5,5.4-37.6h0c.3.2.6.5.9.8ZM75.6,156.2c2.5-.3,4.7-3.6,3.7-6.4-1.1-2.8-4.6-3.9-6.5-2,.1-1.8.5-2.7,0-4.4s-2-3.3-3.5-3.2c-1.5,0-2.8,1.7-2.9,3.5,0,1.7,0,1.5.2,3.4-1.3-1.5-3.9-2.7-5.6-.7-3.1,3.6-.7,6.4,3.1,7.6,0,0-3.6,3.2-2.7,6.7.6,2.2,3,3.3,5,2.8,1.9-.5,2.5-2.5,3.4-4.2,1,1.2,2.4,4.7,4.1,5.2,1.7.4,3.5-.8,4-2.7s-.7-4.3-2.1-5.5Z"/><path class="cls-3" d="M99.1,66.5c-1.9-4.9-5.8-9-12.7-10.6-5.7-1.3-13.2,0-19.3,5.8-.2.2-.5.4-.7.7-3.7,3.9-5.6,9.7-7.4,17.8h0c-.4,4.8-.8,20.5,3.8,25.5,17.7,15.6,21.6,8.7,28,1.5,8.4-9.5,8.1-20.3,8.1-20.3,1.2-3.4,1.3-4.7,1.5-7.3h0c.5-4.2.3-8.9-1.3-13.1ZM40,118.9c0-.2-.1-.4-.2-.5-1.1-3.9,2-8.9,2.9-12.7,1.1-4.7,1.8-9.5,2.7-14.2-1.5-6.4-1.8-12.9-.3-18.9,1.5-6,1-10.4,5.3-15.1,4.4-4.7,13.1-7.8,19.7-9,9.7-1.7,16.4-.6,24.3,4.8,7.1,4.9,10,19.9,7.5,30.1-1.5,6.2-3.3,13.8-5.8,20.7,0,4.2-2,12.7-.4,18.9h0c.6,1.7-.7,3.4-2.4,4.2-.5.2-.9.4-1.4.5-.4,0-.7.1-1.1.1-1.9.2-3.9-.1-5.8.5-2.6.8-4.4,2.9-6.3,4.8-.5.5-1.1,1.1-1.6,1.5-5.2,4.3-12.9,4.6-19.1,2s-11.2-7.5-15.3-12.9c-1.2-1.5-2.3-3.1-2.9-4.9Z"/><path class="cls-7" d="M100.4,79.5c-.1,2.6-.3,3.9-1.5,7.3,0,0,.3,10.8-8.1,20.3-6.3,7.2-10.2,14.1-28-1.5-4.6-5-4.2-20.7-3.8-25.4h0c1.8-8.2,3.6-14,7.4-17.8.2-.2.4-.5.7-.7h0c8.3-2.8,15.1,5.8,23.9,3,4.8-1.5,7.1,0,8,1.8,1.6,4.2,1.8,8.9,1.3,13h0ZM98.1,78.9c.2-.1.3-.3.2-.5,0-.2-.3-.3-.5-.5-1.5-1.1-4-2-6.4-1.7-.9.1-1.6.5-1.7,1.1,0,.5.6,1.2,1.6,1.3.7,0,5.5.3,5.9.4s.7,0,1,0ZM94,87.2c.2-1.9-.4-3.5-1.4-3.6-1-.1-1.9,1.3-2.1,3.2-.2,1.9.4,3.5,1.4,3.6,1,.1,1.9-1.3,2.1-3.2ZM81.2,105.8c3.4,0,5.2-1.3,6.9-3.7-6,1.8-17.1-2-18.1-3.2,2,3.7,2,2.9,3.9,4.4,1.9,1.5,5.2,2.6,7.3,2.6ZM76.7,76c1.1-2-5-2.5-6.9-2.3-2.4.2-3.9.9-4.4,1.5-.4.4,0,.8.7.8,2.2,0,3.7,0,5.6.2.7,0,2.6.6,3.3.6s1.5-.3,1.7-.8ZM74.9,85c.2-2.1-.5-3.9-1.7-4-1.2-.1-2.3,1.5-2.5,3.5-.2,2.1.5,3.9,1.7,4,1.2.1,2.3-1.5,2.5-3.6Z"/><path class="cls-2" d="M98.2,78.3c0,.2,0,.4-.2.5-.2.1-.6.1-1,0s-5.1-.3-5.9-.4c-1-.1-1.7-.7-1.6-1.3,0-.5.8-1,1.7-1.1,2.3-.3,4.8.6,6.4,1.7.2.2.4.3.5.5Z"/><path class="cls-6" d="M99.1,66.5c-1-1.8-3.3-3.3-8-1.8-8.8,2.8-15.6-5.8-23.9-3h0c6.1-5.9,13.6-7.1,19.3-5.8,6.9,1.5,10.7,5.7,12.7,10.6Z"/><path class="cls-2" d="M92.6,83.6c1,.1,1.6,1.7,1.4,3.6-.2,1.9-1.1,3.3-2.1,3.2-1-.1-1.6-1.7-1.4-3.6.2-1.9,1.1-3.3,2.1-3.2Z"/><path class="cls-3" d="M91,128.4c1,6.8.5,13.8-.7,20.5-.2.8-.3,1.7-.5,2.5-1.2,5.8-2.9,11.5-4.6,17.1-.3,1-.7,2.1-1.5,2.5-.8.4-1.7-.3-2.2-1.2-.5-.9-.6-2-.7-3.1-1.1-9.5-.8-24-1.9-33.5h0c1.9-2,3.7-4.2,6.3-4.9,1.9-.6,3.9-.3,5.8-.5v.6Z"/><path class="cls-8" d="M88.1,102.1c-1.7,2.4-3.5,3.6-6.9,3.7-2.1,0-5.4-1.1-7.3-2.6-1.9-1.5-1.9-.7-3.9-4.4,1,1.3,12.2,5,18.1,3.2Z"/><path class="cls-3" d="M79.2,149.8c1.1,2.8-1.1,6.1-3.7,6.4,1.4,1.3,2.6,3.7,2.1,5.5s-2.3,3.1-4,2.7c-1.7-.5-3.1-3.9-4.1-5.2-.9,1.7-1.4,3.7-3.4,4.2-1.9.5-4.4-.6-5-2.8-1-3.5,2.7-6.7,2.7-6.7-3.8-1.1-6.2-3.9-3.1-7.6,1.7-2,4.3-.7,5.6.7-.2-1.8-.3-1.7-.2-3.4,0-1.8,1.4-3.4,2.9-3.5,1.6,0,3,1.5,3.5,3.2s.2,2.6,0,4.4c1.9-1.8,5.4-.7,6.5,2Z"/><path class="cls-2" d="M69.8,73.7c1.9-.2,8,.3,6.9,2.3-.3.4-1,.8-1.7.8s-2.6-.5-3.3-.6c-2-.2-3.4-.2-5.6-.2-.7,0-1-.4-.7-.8.5-.6,2-1.3,4.4-1.5Z"/><path class="cls-2" d="M73.2,81c1.1.1,1.9,1.9,1.7,4-.2,2.1-1.3,3.7-2.5,3.6-1.1-.1-1.9-1.9-1.7-4,.2-2.1,1.3-3.7,2.5-3.5Z"/><path class="cls-7" d="M63.6,181.6c1.1,2.6-3,12.1-4.8,13-2.2,1.1-7.7-3.7-8.8-5.9h0c.7-3.7,1.4-7.4,1.9-10h0c1.8-1.9,10.8.4,11.8,2.9Z"/><path class="cls-5" d="M58.7,309.3c1.7,7.8-4.2,10.9-10.5,9.4-10-2.3-15.3-5.5-30.4-15.9-1-.7-2.2-1.4-2.4-2.6-.2-.9.1-1.8.5-2.6,1.5-3.5,2.3-4.1,3.9-6.2h0c2.4,2.1,14.4,5.8,26.5,8.4v.2c3.3,2.9,3.5,3.5,9,6.7,1.3.8,3.1,1.1,3.5,2.6Z"/><path class="cls-3" d="M47.5,177.7c1.2,1.5,1.1,3.7-.3,4.8-1.4,1.1-5,0-6.6,0,.8,1.7,2,3.4,1.3,5.2-.4.9-1.2,1.7-2.1,2.1l-.4.3c-.3-.3-.6-.6-.9-.9-5.1-5.5-9.7-11.9-13.2-18,.9-1.3,3-1.4,4.7-.8,1.7.6,2.2,1.4,3.5,2.6-.3-2.6,2.7-4.8,5.6-3.9,2.9.8,4.2,4.6,2.8,6.8,1.8-.3,4.5.2,5.7,1.7Z"/><path class="cls-1" d="M90.1,185.7c0-.3,0-.5,0-.7-.3-9.7-.6-17.3-.4-24.6,0-3,.3-5.9.6-8.9"/><path class="cls-1" d="M43.9,148.4c-.4,7.2,0,6-1.2,16.9"/><path class="cls-1" d="M51.9,178.4c0,.1,0,.2,0,.3-.5,2.6-1.2,6.3-1.9,10-.7,3.5-1.3,7-1.8,9.4-3-2.2-6-4.9-8.8-7.9-.3-.3-.6-.6-.9-.9-5.1-5.5-9.7-11.9-13.2-18-1.1-1.8-2-3.6-2.9-5.4-2.4-4.9,12.8-39,17.7-47,.1-.2.2-.4.3-.5"/><path class="cls-1" d="M48.4,141.8c-1.8,2.2-3.2,4.4-4.5,6.6-2,3.3-3.6,6.7-5.8,10.3,1.6,2.6,3.1,4.8,4.5,6.7,3.1,4.5,5.9,7.9,9.1,12.5"/><path class="cls-1" d="M51.9,178.8c1.8-1.9,10.8.4,11.8,2.9,1.1,2.6-3,12.1-4.8,13-2.2,1.1-7.7-3.7-8.8-5.9"/><path class="cls-1" d="M89.7,160.1c0,0,0,.2,0,.3.5,5.8,20.6,25.2,26.6,19.7"/><path class="cls-1" d="M94.2,127.3c3.3,16.1,20.7,35.6,26.1,39.3"/><path class="cls-1" d="M120.3,166.7c-2.8.6-.5-.2-2.8,1.5-2.3,1.7-4,4.6-3.3,7.4.4,1.5,1.4,2.8,2.7,3.7,2.7,1.8,4.2,1.1,6.8-.9,2.6-1.9,5.9-5,4.6-7.9-1.3-2.9-4.9-4.7-8-3.7"/><path class="cls-1" d="M38.3,189.4c-3.4,10.1-3.8,15.9-5.4,37.6-1.6,21.4-8.5,36.6-13.5,64"/><path class="cls-1" d="M19.5,291c0,.1.2.3.3.4,2.4,2.1,14.4,5.8,26.5,8.4,8.5,1.9,17.2,3.2,22.6,3.2,7.7,0,14-.7,19-1.8,15.4-3.1,20.1-9.4,23.1-12.1,0,0,.1-.1.2-.2,4-4.6-1.7-32.2-4.3-50.5-1-7.3-2.9-14.5-5.5-21.4-3.9-10.4-8.1-22.5-11.3-32"/><path class="cls-1" d="M88,301.4c-.1,1.3,0,1.3,0,2.6,0,.9,0,1.8.6,2.6.7,1,2.1,1.2,3.4,1.4,10.4,1.3,21.8,5.6,32.3,5.1,3.4-.1,7.1-.6,9.8-2.6,2.7-2,4.1-6.2,1.9-8.8-1-1.2-2.6-1.8-4.1-2.4-6.5-2.5-13.5-6.8-20.2-10.1"/><path class="cls-1" d="M19.8,291.4c-1.6,2.1-2.4,2.7-3.9,6.2-.3.8-.7,1.7-.5,2.6.3,1.2,1.4,1.9,2.4,2.6,15.1,10.5,20.4,13.7,30.4,15.9,6.3,1.4,12.3-1.7,10.5-9.4-.3-1.5-2.1-1.8-3.5-2.6-5.4-3.2-5.7-3.8-9-6.7"/><path class="cls-1" d="M100.4,79.5c-.1,2.6-.3,3.9-1.5,7.3,0,0,.3,10.8-8.1,20.3-6.3,7.2-10.2,14.1-28-1.5"/><path class="cls-1" d="M100.5,78c0,.6,0,1.1,0,1.6"/><path class="cls-1" d="M90.5,86.8c-.2,1.9.4,3.5,1.4,3.6,1,.1,1.9-1.3,2.1-3.2.2-1.9-.4-3.5-1.4-3.6-1-.1-1.9,1.3-2.1,3.2Z"/><path class="cls-1" d="M70.7,84.6c-.2,2.1.5,3.9,1.7,4,1.2.1,2.3-1.5,2.5-3.6.2-2.1-.5-3.9-1.7-4-1.2-.1-2.3,1.5-2.5,3.5Z"/><path class="cls-1" d="M87.3,93c.2,4.8-3,4.2-6.7,3.8"/><path class="cls-1" d="M88.1,102.1c-6,1.8-17.1-2-18.1-3.2,2,3.7,2,2.9,3.9,4.4,1.9,1.5,5.2,2.6,7.3,2.6,3.4,0,5.2-1.3,6.9-3.7Z"/><path class="cls-1" d="M59,80.2c-.4,4.7-.8,20.4,3.8,25.4"/><path class="cls-1" d="M99.5,67.8c0-.4-.2-.9-.5-1.4-1-1.8-3.3-3.3-8-1.8-8.8,2.8-15.6-5.8-23.9-3"/><path class="cls-1" d="M66.4,62.4c.2-.2.4-.5.7-.7,6.1-5.9,13.6-7.1,19.3-5.8,6.9,1.5,10.7,5.7,12.7,10.6,1.6,4.2,1.8,8.9,1.3,13h0c0,0,0,.2,0,.2"/><path class="cls-1" d="M59,80.1c1.8-8.1,3.6-13.9,7.4-17.8"/><path class="cls-1" d="M76.7,76c-.3.4-1,.8-1.7.8s-2.6-.5-3.3-.6c-2-.2-3.4-.2-5.6-.2-.7,0-1-.4-.7-.8.5-.6,2-1.3,4.4-1.5,1.9-.2,8,.3,6.9,2.3Z"/><path class="cls-1" d="M91.3,76.2c-.9.1-1.6.5-1.7,1.1,0,.5.6,1.2,1.6,1.3.7,0,5.5.3,5.9.4s.7,0,1,0c.2-.1.3-.3.2-.5,0-.2-.3-.3-.5-.5-1.5-1.1-4-2-6.4-1.7Z"/><path class="cls-1" d="M90.3,116.2c2.4-3.4,4.3-7.6,5.9-12.1,2.5-6.9,4.3-14.5,5.8-20.7,2.5-10.2-.3-25.2-7.5-30.1-7.9-5.4-14.6-6.5-24.3-4.8-6.6,1.2-15.3,4.3-19.7,9-4.4,4.7-3.8,9.1-5.3,15.1-1.5,6-1.2,12.5.3,18.9,1.7,7,4.9,13.8,8.9,19.5"/><path class="cls-1" d="M95.8,123s0,0,0,0c-1.6-6.1.5-14.7.4-18.9,0-.1,0-.2,0-.3"/><path class="cls-1" d="M45.5,91.4s0,0,0,0c-1,4.7-1.6,9.5-2.7,14.2-.9,3.9-4,8.8-2.9,12.7,0,.2.1.4.2.5.6,1.8,1.7,3.4,2.9,4.9,4.1,5.3,9,10.3,15.3,12.9s13.9,2.3,19.1-2c.6-.5,1.1-1,1.6-1.5,1.9-1.9,3.7-4.1,6.3-4.8,1.9-.6,3.9-.3,5.8-.5.4,0,.7,0,1.1-.1.5,0,1-.3,1.4-.5,1.7-.8,3-2.5,2.4-4.2"/><path class="cls-1" d="M79,133.2c1.1,9.5.8,24,1.9,33.5.1,1.1.3,2.2.7,3.1.5.9,1.4,1.5,2.2,1.2.8-.4,1.2-1.5,1.5-2.5,1.7-5.6,3.4-11.3,4.6-17.1.2-.8.3-1.7.5-2.5,1.2-6.7,1.7-13.7.7-20.5,0,.2,0,.5,0,.7"/><path class="cls-1" d="M61.3,160.5c.6,2.2,3,3.3,5,2.8,1.9-.5,2.5-2.5,3.4-4.2,1,1.2,2.4,4.7,4.1,5.2,1.7.4,3.5-.8,4-2.7s-.7-4.3-2.1-5.5c2.5-.3,4.7-3.6,3.7-6.4-1.1-2.8-4.6-3.9-6.5-2,.1-1.8.5-2.7,0-4.4s-2-3.3-3.5-3.2c-1.5,0-2.8,1.7-2.9,3.5,0,1.7,0,1.5.2,3.4-1.3-1.5-3.9-2.7-5.6-.7-3.1,3.6-.7,6.4,3.1,7.6,0,0-3.6,3.2-2.7,6.7Z"/><path class="cls-1" d="M39.7,189.9c1-.4,1.7-1.2,2.1-2.1.8-1.8-.5-3.5-1.3-5.2,1.6,0,5.2,1,6.6,0,1.4-1.1,1.5-3.2.3-4.8s-3.8-2-5.7-1.7c1.3-2.2,0-6-2.8-6.8-2.9-.8-5.9,1.3-5.6,3.9-1.3-1.2-1.8-2-3.5-2.6-1.7-.6-3.8-.5-4.7.8,0,0,0,0,0,0"/></svg>