<?xml version="1.0" encoding="UTF-8"?><svg id="africaModest" xmlns="http://www.w3.org/2000/svg" width="235" height="321.9" viewBox="0 0 235 321.9"><defs><style>.cls-1{stroke-linecap:round;stroke-linejoin:round;}.cls-1,.cls-2{fill:none;stroke:#000;}.cls-2{stroke-miterlimit:10;}.cls-3,.cls-4,.cls-5,.cls-6,.cls-7{stroke-width:0px;}.cls-4{fill:#5280df;}.cls-5{fill:#805d50;}.cls-6{fill:#fff;}.cls-7{fill:#e6add9;}</style></defs><path class="cls-5" d="M87.9,103.5h-.3c1.3,6.9,1,14.4-.5,21.9h0c1.5,2.7,5.2,8.8,5.4,8.5-1.6,2.7-2.6,6-4,8.7-1,2-2.3,3.5-3.7,5.2-.7.8-2.3,2.6-3,3.5h0c-.3,6.4-.3,13.1.1,20.7,1.8-.4,2.7-.6,3.8-3.6.8-2.2,1.3-4.2,2-6.5,1.7-5.2,5.3-8.2,9.3-12.4,5.4-5.7,10.7-12.9,6-20-.8-1.2-13.4-22.4-15.3-26Z"/><path class="cls-4" d="M44.6,80.9c-2.1-2.5-3.7-4.1-4.7-7.1-1-3.1-1.3-7.8-.4-16.6,0,0,18.5-26.2,24-22.6,6.7-.3,11.3,8.5,19.7,17.7-.2,4.7.3,3.9-.4,11.7-.6,6.3,0,9.5-4.7,15.8-9.6,12.8-21.8,15.1-33.5,1ZM29.5,59.3c.7,26.4.5,35.3-5.2,44.2,2.4,4.1,3.7,9.5,5.1,15.2,1.3,5.7,2.6,11.7,4.9,17.2,4.1,9.9,11.3,18.2,27.4,20.3,3.9.5,14.2.2,20-13.4.4-1,.8-2,1.2-3,1.8-4.6,3.2-9.6,4.2-14.5h0c1.4-7.5,1.8-15,.5-21.8-.2-1.3-.5-2.5-.9-3.7-.7-2.2-2.1-22.4-.8-40.5,1.6-17.9-.9-26.4-10.5-32-3.4-2-9-3.5-13.4-3.7-10.8-.5-19.4.8-25.6,9.1-5.6,7.6-6.9,13-6.9,26.5Z"/><path class="cls-3" d="M78.1,60c0-1.9-.7-3.5-1.7-3.5s-1.7,1.6-1.7,3.5.7,3.5,1.7,3.5,1.7-1.5,1.7-3.5Z"/><path class="cls-4" d="M70.6,295.6c-1.1,2-1.9,11.1,0,12.5,1.3,1,16,.8,20.8.8.4,0,3.5.1,3.9,0,1.4-.6,1-9.2.4-10.7-1-4.5-4.5-5.9-9.4-6.2-.8,0-1.6,0-2.4,0-2.3,0-6.6-.5-8.9-.1-.9.2-1.6.5-2.1.9-.9.7-1.5,1.6-2.1,2.8Z"/><path class="cls-6" d="M70.9,77.4c-5.7,1.9-18.2-.9-19.3-1.9,2.3,3.3,3.1,3.7,5.1,4.9,2,1.2,6,1.6,8.1,1.4,3.3-.4,4.8-1.8,6.2-4.2h0Z"/><path class="cls-3" d="M56.1,60.1c0-2.2-.9-4-2-4s-2,1.8-2,4,.9,4,2,4,2-1.8,2-4Z"/><path class="cls-5" d="M71.9,285c.5,3.5.6,3.2.8,7.8.6-.4,1.2-.7,2.1-.9,2.3-.4,6.6.1,8.9.1.8,0,1.7,0,2.4,0-.2-1.4-.5-3.9-.7-9.5-3.4,1-8.2,1.9-13.6,2.4Z"/><path class="cls-5" d="M32.1,171.7c2.8,1.3,7.4,2.6,6.8-.7,1.1-.1,3.3-1.7,1.8-3.1,1.3-.4,2.6-1.9,1.5-3.8,4.2-1.5,2.2-3.7,0-5.4.4-4.1-4.2-4.2-8-4.3-1.1,0-2.1,0-2.9-.2-5.8-1.2-8.5-10-10.8-13.6-1.4-2.1-2.3-3.5-3.4-4.7.7-.8,10.3-15.5,11.6-16.9l.7-.2c-1.3-5.7-2.7-11.1-5.1-15.2-2.8,3.5-18.5,25.5-19.6,28-2.3,5.5,3.2,15,7.5,18.9,3.2,2.9,10,8.4,13.1,11.7-.9,3,2.6,6.8,4.9,8.5.4.3,1,.6,1.8,1h0Z"/><path class="cls-4" d="M43.2,306.8c1.4-1.7,1.3-10.3,0-12.1-.4-.6-.8-1-1.2-1.4h0c-1.5-1.5-2.9-1.7-5.6-2.1-2.2-.4-5.1-.7-8.1,0h0c-1.4.4-2.9,1-4.2,2-2.5,1.5-6.9,4.9-7.4,7.8-.2,1.4,0,5.9,1,6.9,1.2,1.1,3,1.1,4.6,1,5.1-.3,10.5.1,15.6-.3,1.9-.2,3.9-.4,5.1-1.9Z"/><path class="cls-5" d="M42.1,293.3c-.4-5.4-.2-4.1.4-8.7-4.9-.7-9.6-1.9-13.8-3.5.1,4.6.1,5.8-.3,10.2,2.9-.8,5.8-.5,8.1,0,2.6.5,4.1.7,5.6,2.1Z"/><path class="cls-7" d="M42.2,158.6c2.2,1.7,4.2,3.9,0,5.4,1.1,1.9-.2,3.5-1.5,3.8,1.5,1.4-.7,3-1.8,3.1.6,3.3-4,2-6.8.7,0,.5-1.7,29.2-1.7,29.3-1.6,9-5.7,74.3-5.9,78.1,1.4.7,2.8,1.4,4.3,2,4.2,1.6,8.9,2.7,13.8,3.5,9.9,1.5,20.6,1.4,29.5.4,5.4-.6,10.1-1.4,13.6-2.4,1.9-.5,3.5-1.1,4.5-1.7-1.4-8.6-3.6-59-4.7-66.2-1-6.3-2.6-33.3-3.1-40,0-.9-.1-1.8-.2-2.7-.4-7.6-.5-14.3-.1-20.7h0c.2-3.8.5-7.5,1-11.3-.4,1-.8,2-1.2,3-5.8,13.6-16.1,13.9-20,13.4-16.1-2.1-23.4-10.4-27.4-20.3h0c.3,3.9.6,6.7.4,10.6-.1,1.9-.2,4.6-.4,7.7,3.8.1,8.3.2,8,4.3Z"/><path class="cls-5" d="M76.4,56.6c.9,0,1.7,1.6,1.7,3.5s-.7,3.5-1.7,3.5-1.7-1.5-1.7-3.5.7-3.5,1.7-3.5ZM54.1,56.1c1.1,0,2,1.8,2,4s-.9,4-2,4-2-1.8-2-4,.9-4,2-4ZM39.9,73.9c1,2.9,2.6,4.6,4.7,7.1,11.7,14.1,23.9,11.8,33.5-1,4.7-6.3,4.1-9.5,4.7-15.8.7-7.7.2-6.9.4-11.7-8.5-9.2-13.1-18-19.7-17.7-5.5-3.6-24,22.6-24,22.6-.9,8.8-.7,13.4.4,16.6ZM51.6,75.5c1.1,1.1,13.6,3.9,19.3,1.9h0c-1.4,2.5-2.9,3.9-6.2,4.3-2,.3-6.1-.1-8.1-1.4-1.9-1.2-2.8-1.6-5.1-4.9Z"/><path class="cls-2" d="M83.2,52.4c-.2,4.7.3,3.9-.4,11.7-.6,6.3,0,9.5-4.7,15.8-9.6,12.8-21.8,15.1-33.5,1-2.1-2.5-3.7-4.1-4.7-7.1-1-3.1-1.3-7.8-.4-16.6"/><path class="cls-2" d="M80.3,52.4c-2-2.4-7.2-2.2-9.1-1"/><path class="cls-2" d="M60,51.3c-3.3-2.4-10.2-1-10.9.9"/><path class="cls-1" d="M82.1,171.9c0,.9.1,1.8.2,2.7"/><path class="cls-2" d="M81.9,151.2c-.3,6.4-.3,13.1.1,20.7"/><path class="cls-2" d="M83.3,137.3c-.1.9-.2,1.8-.3,2.6-.5,3.8-.8,7.5-1,11.3"/><path class="cls-2" d="M34.2,136c.3,3.9.6,6.7.4,10.6-.1,1.9-.2,4.6-.4,7.7,0,0,0,0,0,.1"/><path class="cls-2" d="M82.2,174.6c.5,6.7,2.1,33.7,3.1,40,1.1,7.2,3.3,57.6,4.7,66.2-1,.6-2.6,1.2-4.5,1.7-3.4,1-8.2,1.9-13.6,2.4-8.9.9-19.6,1.1-29.5-.4-4.9-.7-9.6-1.9-13.8-3.5-1.5-.6-3-1.2-4.3-2-.2,0-.3-.2-.5-.2"/><path class="cls-2" d="M24.4,279.3s0,0,0-.2c.2-3.9,4.4-69.2,5.9-78.1,0,0,1.7-28.8,1.7-29.3"/><path class="cls-2" d="M85.5,282.6c.2,5.6.5,8.1.7,9.5"/><path class="cls-2" d="M71.9,285c.5,3.5.6,3.2.8,7.8"/><path class="cls-2" d="M42.5,284.6c-.6,4.6-.8,3.3-.4,8.7"/><path class="cls-2" d="M28.7,281.1c.1,4.6.1,5.8-.3,10.2"/><path class="cls-2" d="M74.8,60c0,1.9.7,3.5,1.7,3.5s1.7-1.5,1.7-3.5-.7-3.5-1.7-3.5-1.7,1.6-1.7,3.5Z"/><path class="cls-2" d="M52.1,60.1c0,2.2.9,4,2,4s2-1.8,2-4-.9-4-2-4-2,1.8-2,4Z"/><path class="cls-2" d="M71.2,69.8c0,2.8-9.6,2.5-11.6,2.4"/><path class="cls-2" d="M71.4,77.3c-.1,0-.3.1-.5.2-5.7,1.9-18.2-.9-19.3-1.9,2.3,3.3,3.1,3.7,5.1,4.9,2,1.2,6,1.6,8.1,1.4,3.3-.4,4.8-1.8,6.2-4.2"/><path class="cls-2" d="M29.5,59.3c0-13.6,1.3-19,6.9-26.5,6.2-8.3,14.8-9.7,25.6-9.1,4.3.2,10,1.8,13.4,3.7,9.6,5.6,12.1,14.1,10.5,32"/><path class="cls-2" d="M24.2,293.2c-2.5,1.5-6.9,4.9-7.4,7.8-.2,1.4,0,5.9,1,6.9,1.2,1.1,3,1.1,4.6,1,5.1-.3,10.5.1,15.6-.3,1.9-.2,3.9-.4,5.1-1.9,1.4-1.7,1.3-10.3,0-12.1-.4-.6-.8-1-1.2-1.4h0c-1.5-1.5-2.9-1.7-5.6-2.1-2.2-.4-5.1-.7-8.1,0h0c-1.4.4-2.9,1-4.2,2"/><path class="cls-2" d="M95.7,298.3c-1-4.5-4.5-5.9-9.4-6.2-.8,0-1.6,0-2.4,0-2.3,0-6.6-.5-8.9-.1-.9.2-1.6.5-2.1.9-.9.7-1.5,1.6-2.1,2.8-1.1,2-1.9,11.1,0,12.5,1.3,1,16,.8,20.8.8.4,0,3.5.1,3.9,0,1.4-.6,1-9.2.4-10.7"/><path class="cls-2" d="M83.2,52.4c-8.5-9.2-13.1-18-19.7-17.7-5.5-3.6-24,22.6-24,22.6"/><path class="cls-1" d="M87.9,103.5c1.9,3.6,14.5,24.8,15.3,26,4.7,7.1-.6,14.3-6,20-4,4.2-7.7,7.2-9.3,12.4-.8,2.3-1.2,4.3-2,6.5-1.1,2.9-2,3.1-3.8,3.6"/><path class="cls-1" d="M87.1,125.4c1.5,2.7,5.2,8.8,5.4,8.5"/><path class="cls-2" d="M81.9,151.2h0c-.3.4-.4.6-.3.6"/><path class="cls-1" d="M96.6,129.4c-1.8,1.1-3,2.7-4.1,4.4h0c-1.6,2.7-2.6,6-4,8.7-1,2-2.3,3.5-3.7,5.2-.7.8-2.3,2.6-3,3.5"/><path class="cls-1" d="M28.7,118.9c-1.3,1.5-10.9,16.1-11.6,16.9"/><path class="cls-1" d="M24.4,103.5c-2.8,3.5-18.5,25.5-19.6,28-2.3,5.5,3.2,15,7.5,18.9,3.2,2.9,10,8.4,13.1,11.7"/><path class="cls-1" d="M31.4,154.1c-5.8-1.2-8.5-10-10.8-13.6-1.4-2.1-2.3-3.5-3.4-4.7-1.3-1.4-2.8-2.5-5.4-4.1"/><path class="cls-2" d="M32.1,171.7h0c-.8-.4-1.4-.7-1.8-1-2.3-1.7-5.8-5.5-4.9-8.5"/><path class="cls-1" d="M39.8,156.7c.5.5,1.5,1.1,2.4,1.9,2.2,1.7,4.2,3.9,0,5.4,1.1,1.9-.2,3.5-1.5,3.8,1.5,1.4-.7,3-1.8,3.1.6,3.3-4,2-6.8.7"/><path class="cls-1" d="M31.4,154.1c.8.1,1.8.2,2.9.2,3.8.1,8.3.2,8,4.3,0,0,0,0,0,0"/><path class="cls-2" d="M29.5,59.3c.7,26.4.5,35.3-5.2,44.2,2.4,4.1,3.7,9.5,5.1,15.2,1.3,5.7,2.6,11.7,4.9,17.2,4.1,9.9,11.3,18.2,27.4,20.3,3.9.5,14.2.2,20-13.4.4-1,.8-2,1.2-3,1.8-4.6,3.2-9.6,4.2-14.5h0c1.4-7.5,1.8-15,.5-21.8-.2-1.3-.5-2.5-.9-3.7-.7-2.2-2.1-22.4-.8-40.5"/><path class="cls-2" d="M49.8,111.2c13-1.4,28.3-9.4,32-37.7"/><path class="cls-2" d="M48.6,133.9c5.2,2.1,11.2,2.3,16.5.3,5.3-1.9,9.8-5.9,12.4-10.9"/><path class="cls-2" d="M48,91.6c-4-5.2-6.8-11.3-8.1-17.7"/></svg>