<?xml version="1.0" encoding="UTF-8"?><svg id="africaModest" xmlns="http://www.w3.org/2000/svg" width="235" height="321.9" viewBox="0 0 235 321.9"><defs><style>.cls-1{stroke-linecap:round;stroke-linejoin:round;}.cls-1,.cls-2{fill:none;stroke:#000;}.cls-2{stroke-miterlimit:10;}.cls-3,.cls-4,.cls-5,.cls-6,.cls-7,.cls-8{stroke-width:0px;}.cls-4{fill:#3a3a3a;}.cls-5{fill:#afd1e1;}.cls-6{fill:#9d715e;}.cls-7{fill:#98bed2;}.cls-8{fill:#fff;}</style></defs><path class="cls-8" d="M89.8,289.7h1.4c1,2.6,4.7,4.2,7.3,2.8,1.5-.8,2.4-2.3,3.2-3.7.7-1.4,1.5-3,2.8-4,1.3-1,2.6-1.2,3.8,0h.1c9.2,5,15.9,10,25,14.9,1.6.9,3.3,1.8,4.2,3.2,2,3.1-.2,7.4-3.6,9.1-3.4,1.7-7.6,1.6-11.5,1.2-11.9-1.2-21-4.2-32.6-7.2-1.4-.4-2.9-.8-3.6-2-.5-.9-.4-1.9-.2-2.8.6-4.2,1.8-8.3,3.5-12.2h.3c0,.2,0,.4,0,.6Z"/><path class="cls-6" d="M130.1,161.6c1.7,3.8-2.6,7.7-5.8,10.1-3.3,2.5-5.3,3.5-8.7,1.2-1.6-1.1-3-2.8-3.4-4.7-.2-.7-.1-1.5.1-2.4.9-3.4,4.3-7.6,7-8.8.2,0,.4-.2.6-.2,3.9-1.2,8.5,1,10.2,4.8Z"/><path class="cls-6" d="M119.1,156.7l.2.3c-2.8,1.1-6.1,5.4-7,8.8h-.4c-.7-1.9-2-2.5-3.3-4.1,2.1-2.9,4.3-5.7,6.7-8.4,1.6,1.7,2.6,2.5,3.9,3.5Z"/><path class="cls-5" d="M117.9,150.3c-.9,1-1.8,2-2.7,3-2.4,2.7-4.6,5.5-6.7,8.4-.5.7-1,1.4-1.5,2.2-1.4-1-2.7-2-4.1-2.9-.6-.4-1.3-.9-1.5-1.7-.4-1.1.3-2.2,1-3.1.2-.2.4-.5.5-.7,2-2.6,4.3-5,6.9-7.2,1.6-1.3,1.6-2,3.3-1.4,1.7.6,3.4,2.4,4.8,3.4Z"/><path class="cls-4" d="M64.7,208.7c-3.4,9.3-6.3,17.9-8.6,25.1-3,9.3-5.3,10.3-10.6,19.7-5.5,9.7-9.1,24.1-16.1,32.9-1.6.6-2.7,1.9-3.8,3.1-1.1,1.2-10,.9-10.3-1.8l-1.4-1c2.2-10.6,6.7-30.3,12.7-39.4,2-3.1,4.3-6.8,5.7-10.2,1.4-3.5,1.4-4.8,1-8.7-.6-11-2.2-17.2-1.9-25.7h0c5,1.1,9.9,2.2,14.9,3.3.7.2,1.5.3,2.2,0,.5-.3.8-.8,1-1.3,4.8-8.7,8.6-18,11.5-27.5,7.1,1.2,5.9,0,23.7,1.6v.3c.2,2.3,1.1,4.4,1.6,6.7,0,0,0,0,0,0,1.3,1.2,2.5,2.5,3.7,4.1,8.6,10.5,16.6,28.2,16.5,33.3.3,22.3,1.1,39.5-2,61.7-1.3,1-2.1,2.5-2.8,4-.8,1.4-1.7,2.9-3.2,3.7-2.6,1.3-6.2-.2-7.3-2.8h-1.4c.7-13.4-.8-23-4.4-35.9-1-3.4-2-10.9-1.5-14.4.5-3-.9-6.1-.9-6.1-2.3-5.5-15-19.8-17.8-24.4l-.5-.2Z"/><path class="cls-4" d="M106.1,64.7h0c.2-1,.3-2,.3-3.1-2.1-16.1-14.1-17.7-21.3-16.1-3.7.8-13.5,2.8-17.6,14.7-.1.4-.3.9-.5,1.4-2.4,8.2-4.6,27.1.9,31.7,4.6,3.9,14.9,8.3,17.5,7.9,4.2-.7,10.3-6.3,10.3-6.3,8.3-6.6,6.5-20.8,7.7-22.7,1.1-1.8,2.1-4.1,2.6-7.5ZM107.9,47.8c2.4,4.4,3.8,17.5,1.1,31.3-2.1,10.8-3.9,13.5-9.3,23-1.7,3.1-4.6,9.6-6.7,15.1-.3.9-.7,1.8-1,2.6h0c-.6,1.6-1.1,3-1.4,4-1.5,5-1.4,11.7-9.1,12.8-4.7.7-11.6-.2-14.9-3.7-3.3-3.5-6.4-9.5-7.9-14.1-1.5-4.5-2.8-9.2-5.2-13.4-.4-.6-.8-1.1-1.2-1.5-1.9-1.8-4.5-1.7-7.6-2.3-1-.2-2.2-.3-2.9-1-.7-.7-.7-1.8-.7-2.8.2-14.1.9-28.6,6.4-41.6,1.8-4.2,4.1-8.2,6.9-11.8,9-11.6,28.3-16,42.4-6.8,5.6,3.7,7.7,4.3,11,10.2Z"/><path class="cls-7" d="M109.8,148.2c-2.5,2.2-4.8,4.5-6.9,7.2l-.2-.2c-4.2-3.5-6.4-4.6-8.2-7.1.3-10.4-.3-20.1-2.4-28.2h0c.3-.8.6-1.7,1-2.6h.1c2.7,11.1,9.6,22.6,16.6,30.9Z"/><path class="cls-4" d="M106.4,61.6c0,1.1-.2,2.1-.3,3.1.1-4.8-11.1-9.1-15.7-10-7.5-1.4-18.4,1.1-23.3,6.9.2-.5.3-1,.5-1.4,4.1-11.8,13.9-13.9,17.6-14.7,7.2-1.6,19.1,0,21.3,16.1Z"/><path class="cls-6" d="M86.4,63.3c-1.8-1.9-5.2-2.5-8.9-.3l-.5.2-.4.4c2.4-.4,5,0,7,1,.6.3,1.3.7,2,.5.5-.1.8-.5.8-.8,0-.3,0-.7,0-1ZM106.1,64.7h0c-.5,3.4-1.6,5.7-2.6,7.5-1.1,1.9.6,16.1-7.7,22.7,0,0-6.1,5.6-10.3,6.3-2.6.4-12.9-3.9-17.5-7.9-5.6-4.5-3.3-23.4-.9-31.7,4.9-5.8,15.8-8.3,23.3-6.9,4.6.8,15.9,5.2,15.7,10ZM102,69.8c.4,0,.9-.2.7-.5h-.3c.2-2.6-3.4-3.1-5.2-2h-.2c-.5.2-.4.9,0,1.2s1.2.4,1.9.5c.7,0,1.3,0,1.9.3.4.2.7.4,1.1.4ZM99.6,75.9c.4-1.6,0-3-.9-3.1-.9-.2-1.9.9-2.2,2.5s0,3,.9,3.1c.9.2,1.9-.9,2.2-2.5ZM79.7,85.2c1.3,9.8,9.4,10.2,12.9,4.1-5.1-.5-8.3-1-12.9-4.1ZM82.6,71.9c.3-1.5-.1-2.9-1-3-.9-.2-1.9.9-2.3,2.4-.3,1.5.1,2.9,1,3.1.9.2,1.9-.9,2.3-2.4Z"/><path class="cls-3" d="M102.6,69.3c.2.3-.2.5-.7.5-.4,0-.7-.3-1.1-.4-.6-.2-1.3-.3-1.9-.3-.7,0-1.4-.2-1.9-.5s-.6-1,0-1.2h.2c1.7-1.1,5.4-.6,5.2,2h.3Z"/><path class="cls-3" d="M98.7,72.8c.9.2,1.3,1.6.9,3.1-.4,1.6-1.4,2.7-2.2,2.5-.9-.2-1.3-1.6-.9-3.1s1.4-2.7,2.2-2.5Z"/><path class="cls-7" d="M94.5,148.1c-.4,13.6-2.3,28.3-4.4,41.7h-.1c-1.2-1.4-2.5-2.8-3.7-4,0,0,0,0,0,0-.6-2.3-1.4-4.3-1.7-6.7v-.3c.2,0,.3,0,.5,0,2.2-6,.8-15.6,2.3-24,1.8-10.7,6-20.6,3.4-30.9.3-1.1.8-2.5,1.4-4,2.1,8.1,2.7,17.8,2.4,28.2Z"/><path class="cls-8" d="M90.7,123.9c2.6,10.3-1.6,20.2-3.4,30.9-1.5,8.4,0,18-2.3,24-.2,0-.3,0-.5,0-17.8-1.6-16.5-.4-23.7-1.6,3.6-11.9,5.5-24.3,5.8-36.8,0-2.5,0-5,0-7.5,3.3,3.5,10.2,4.4,14.9,3.7,7.7-1.1,7.6-7.7,9.1-12.8Z"/><path class="cls-8" d="M92.6,89.3c-3.5,6.1-11.6,5.7-12.9-4.1,4.6,3.1,7.8,3.6,12.9,4.1Z"/><path class="cls-3" d="M86.4,63.3c0,.3.2.7,0,1,0,.3-.4.7-.8.8-.7.2-1.4-.2-2-.5-2-1-4.6-1.4-7-1l.4-.4.5-.2c3.7-2.2,7.1-1.6,8.9.3Z"/><path class="cls-3" d="M81.6,68.9c.9.2,1.4,1.5,1,3-.3,1.5-1.4,2.6-2.3,2.4-.9-.2-1.4-1.6-1-3.1.3-1.5,1.4-2.5,2.3-2.4Z"/><path class="cls-7" d="M41.4,130c-3.1,4.9-7,10.2-10.9,13.8h0s0,0,0,0c1.2,1.1,2.2,2.4,3.6,4.4.3.5.7,1.1,1.1,1.9-3.4,1.5-7.6,6.2-10,9.6-3.4-4.7-10.2-14-8.1-19.2,0,0,13.9-26.8,15.6-28.8,2.3-2.9,4.4-7.7,12.3-9.8,3.1.6,5.7.5,7.6,2.3l-.3.3c-2.1,1.7-3.8,3.9-4.7,6.4,3.5.5,6.8,2.9,8.4,6-1.4.5-1.7,2.6-1.1,3.9.7,1.4,2,2.3,3.1,3.3,4.9,4.1,8,10.2,8.3,16.6h.5c-.3,12.4-2.3,24.8-5.8,36.8-2.8,9.6-6.7,18.8-11.5,27.5-.3.5-.6,1-1,1.3-.6.4-1.4.2-2.2,0-5-1.1-9.9-2.2-14.9-3.3-1.7-.4-3.3-.7-5-1.1,3.7-10.7,7.4-21.3,11.1-32h.3c-.3,2.8,3.2,6.3,5.2,7.8,1.6,1.1,8.9,4.2,8.2.2,1-.1,3.1-1.6,1.6-3,1.2-.4,2.4-1.9,1.4-3.7,3.9-1.5,2-3.6-.1-5.2.3-5-6.9-3.6-10.3-4.1-2-.4-2.8-1.2-4-3,1.4-1.9,2.3-3.5,1.7-4.2-.3-.4-1-1.4-1.9-2.5h.2c.6-7,2.2-11.9,1.7-22Z"/><path class="cls-5" d="M66.7,140.4h-.5c-.4-6.4-3.4-12.5-8.3-16.6-1.2-1-2.5-1.9-3.1-3.3-.7-1.4-.4-3.4,1.1-3.9-1.7-3.2-4.9-5.5-8.4-6,1-2.5,2.6-4.7,4.7-6.4l.3-.3c.4.4.8.9,1.2,1.5,2.4,4.1,3.7,8.8,5.2,13.4,1.5,4.5,4.6,10.6,7.9,14.1,0,2.5,0,5,0,7.5Z"/><path class="cls-8" d="M54.3,309.2c1.1,3.5-2.3,7.1-6.1,7.9-3.8.8-7.8-.4-11.4-1.8-11.1-4.2-17.2-6.2-27.5-12.1-1.2-.7-2.6-1.6-2.9-2.9-.2-1,.2-1.9.6-2.8,1.8-3.9,4.1-7.5,6.8-10.9l1.4,1c.3,2.7,9.2,3,10.3,1.8,1.1-1.2,2.3-2.5,3.8-3.1s2.8-.4,3.7,1h0c7.4,7.3,10.6,10.5,18.1,17.6,1.3,1.2,2.6,2.6,3.1,4.2Z"/><path class="cls-6" d="M37.9,169.1c-1.2-1.1-3-2.2-5-3.3,2-1.8,4.9-4.7,6.8-7.2,1.3,1.8,2,2.6,4,3,3.5.5,10.7-.9,10.3,4.1,2.1,1.6,4.1,3.6.1,5.2,1.1,1.8-.2,3.3-1.4,3.7,1.4,1.3-.6,2.8-1.6,3,.8,4-6.6,1-8.2-.2-2-1.5-5.5-5-5.2-7.8,0-.2,0-.4,0-.5Z"/><path class="cls-5" d="M32.9,165.7c-1.2,1.1-2.1,1.7-2.2,1.7-2.7-1.7-5-2.9-7.1-5.4.4-.6.9-1.5,1.6-2.4,2.5-3.4,6.6-8.1,10-9.6.6-.3,1.3-.4,1.8-.5.5,0,1.6,1.1,2.6,2.3.8,1,1.6,2.1,1.9,2.5.5.7-.3,2.3-1.7,4.2-1.9,2.5-4.8,5.4-6.8,7.2Z"/><path class="cls-1" d="M106.1,64.7c-.5,3.4-1.6,5.6-2.6,7.5-1.1,1.9.6,16.1-7.7,22.7,0,0-6.1,5.6-10.3,6.3-2.6.4-12.9-3.9-17.5-7.9"/><path class="cls-2" d="M106.4,61.6c0,1.1-.2,2.1-.3,3.1"/><path class="cls-1" d="M102.3,69.2c.2-2.6-3.4-3.1-5.2-2"/><path class="cls-1" d="M86.5,63.3h0c-1.8-1.9-5.2-2.5-8.9-.3"/><path class="cls-1" d="M94.5,81.4c.4,2.4,0,6-8.4,2.2"/><path class="cls-1" d="M96.4,75.2c-.4,1.6,0,3,.9,3.1.9.2,1.9-.9,2.2-2.5.4-1.6,0-3-.9-3.1-.9-.2-1.9.9-2.2,2.5Z"/><path class="cls-1" d="M79.3,71.2c-.3,1.5.1,2.9,1,3.1.9.2,1.9-.9,2.3-2.4.3-1.5-.1-2.9-1-3-.9-.2-1.9.9-2.3,2.4Z"/><path class="cls-1" d="M92.6,89.3c-5.1-.5-8.3-1-12.9-4.1"/><path class="cls-1" d="M92.6,89.3c-3.5,6.1-11.6,5.7-12.9-4.1"/><path class="cls-1" d="M60.9,177.2c7.1,1.2,5.9,0,23.7,1.6.2,0,.3,0,.5,0,2.2-6,.8-15.6,2.3-24,1.8-10.7,6-20.6,3.4-30.9"/><path class="cls-1" d="M41.4,129.4c0,.2,0,.4,0,.6.6,10-1.1,15-1.7,21.9"/><path class="cls-1" d="M108.5,161.7c1.3,1.7,2.6,2.2,3.3,4"/><path class="cls-1" d="M94.5,148.1c1.8,2.5,4,3.6,8.2,7.1"/><path class="cls-1" d="M115.2,153.2c1.6,1.7,2.6,2.5,3.9,3.5"/><path class="cls-1" d="M93.1,117.4c2.7,11.1,9.6,22.6,16.6,30.8"/><path class="cls-1" d="M119.9,156.8c-.2,0-.4.1-.6.2-2.8,1.1-6.1,5.4-7,8.8-.2.9-.3,1.7-.1,2.4.5,1.9,1.8,3.6,3.4,4.7,3.4,2.3,5.4,1.3,8.7-1.2,3.3-2.5,7.5-6.4,5.8-10.1s-6.3-6-10.2-4.8"/><path class="cls-1" d="M56.1,233.8c2.3-7.1,5.2-15.8,8.6-25.1,1.1-3.1,2.3-6.2,3.6-9.4"/><path class="cls-1" d="M31.3,202.7c-.3,8.5,1.3,14.7,1.9,25.7"/><path class="cls-1" d="M56.1,233.8c-3,9.3-5.3,10.3-10.6,19.7-5.5,9.7-9.1,24.1-16.1,32.9"/><path class="cls-1" d="M33.2,228.4c.5,3.9.5,5.2-1,8.7-1.4,3.4-3.7,7.1-5.7,10.2-6,9.2-10.5,28.8-12.7,39.4"/><path class="cls-1" d="M106.4,223.2c0-5.1-7.9-22.8-16.5-33.3-1.2-1.5-2.5-2.9-3.7-4.1"/><path class="cls-1" d="M65.2,208.9c2.9,4.6,15.6,18.9,17.8,24.4"/><path class="cls-1" d="M89.8,289.8h0c0-.3,0-.5,0-.6v-1.8"/><path class="cls-1" d="M83,233.3s1.4,3.1.9,6.1c-.6,3.5.5,11,1.5,14.4,3.6,13,5.1,22.5,4.4,35.9"/><path class="cls-1" d="M106.4,223.2c.3,22.3,1.1,39.5-2,61.7"/><path class="cls-1" d="M91.2,289.8c1,2.6,4.7,4.1,7.3,2.8,1.5-.8,2.4-2.3,3.2-3.7.7-1.4,1.5-3,2.8-4,1.3-1,2.6-1.2,3.8,0"/><path class="cls-1" d="M89.6,289.2c-1.7,3.9-2.8,8-3.5,12.2-.1,1-.2,2,.2,2.8.7,1.2,2.2,1.7,3.6,2,11.5,3,20.6,6,32.6,7.2,3.9.4,8.1.5,11.5-1.2,3.4-1.8,5.6-6,3.6-9.1-1-1.5-2.6-2.4-4.2-3.2-9.2-5-15.9-9.9-25-14.9"/><path class="cls-1" d="M15.2,287.7c.3,2.7,9.2,3,10.3,1.8,1.1-1.2,2.3-2.5,3.8-3.1s2.8-.4,3.7,1"/><path class="cls-1" d="M13.9,286.7c-2.7,3.3-5,7-6.8,10.9-.4.9-.8,1.9-.6,2.8.3,1.3,1.7,2.2,2.9,2.9,10.2,5.9,16.4,7.9,27.5,12.1,3.6,1.4,7.6,2.6,11.4,1.8,3.8-.8,7.1-4.4,6.1-7.9-.5-1.7-1.8-3-3.1-4.2-7.4-7.2-10.6-10.4-18.1-17.5"/><path class="cls-2" d="M92.1,119.9c.3-.8.6-1.7,1-2.6,2.1-5.5,5-12.1,6.7-15.1,5.4-9.5,7.2-12.3,9.3-23,2.6-13.8,1.3-26.9-1.1-31.3-3.2-5.9-5.3-6.5-11-10.2-14-9.2-33.4-4.8-42.4,6.8-2.8,3.6-5.1,7.6-6.9,11.8-5.5,13-6.2,27.5-6.4,41.6,0,1,0,2.1.7,2.8.7.7,1.8.8,2.9,1,3.1.6,5.7.5,7.6,2.3.4.4.8.9,1.2,1.5,2.4,4.1,3.7,8.8,5.2,13.4,1.5,4.5,4.6,10.6,7.9,14.1,3.3,3.5,10.2,4.4,14.9,3.7,7.7-1.1,7.6-7.7,9.1-12.8.3-1.1.8-2.5,1.4-4"/><path class="cls-1" d="M28.8,143.5c.6,0,1.2.2,1.7.3h0c3.9-3.6,7.8-9,10.9-13.8,2.9-4.5,5.2-8.6,6.2-10.6"/><path class="cls-1" d="M44.8,101.7c-7.8,2.1-9.9,7-12.3,9.8-1.7,2.1-15.6,28.8-15.6,28.8"/><path class="cls-1" d="M32.7,165.6c0,0,.2,0,.2.1,2,1.1,3.8,2.3,5,3.3.1.1.2.2.3.3"/><path class="cls-1" d="M16.9,140.4c-2.1,5.2,4.7,14.5,8.1,19.2,0,0,0,0,0,0"/><path class="cls-1" d="M35.2,150.4v-.3c-.5-.7-.9-1.4-1.2-1.9-1.3-2-2.4-3.3-3.6-4.4"/><path class="cls-1" d="M43.7,161.6c-2-.4-2.8-1.2-4-3,0,0-.1-.2-.2-.3"/><path class="cls-1" d="M51.7,164c.5.4,1.4,1.1,2.3,1.8,2.1,1.6,4.1,3.6.1,5.2,1.1,1.8-.2,3.3-1.4,3.7,1.4,1.3-.6,2.8-1.6,3,.8,4-6.6,1-8.2-.2-2-1.5-5.5-5-5.2-7.8,0-.2,0-.4,0-.5"/><path class="cls-1" d="M43.7,161.6c3.5.5,10.7-.9,10.3,4.1h0"/><path class="cls-1" d="M35.1,150.1c.6-.3,1.3-.4,1.8-.5.5,0,1.6,1.1,2.6,2.3.8,1,1.6,2.1,1.9,2.5.5.7-.3,2.3-1.7,4.2-1.9,2.5-4.8,5.4-6.8,7.2-1.2,1.1-2.1,1.7-2.2,1.7-2.7-1.7-5-2.9-7.1-5.4.4-.6.9-1.5,1.6-2.4,2.5-3.4,6.6-8.1,10-9.6Z"/><path class="cls-1" d="M66.7,133c0,2.5,0,5,0,7.5-.3,12.4-2.3,24.8-5.8,36.8-2.8,9.6-6.7,18.8-11.5,27.5-.3.5-.6,1-1,1.3-.6.4-1.4.2-2.2,0-5-1.1-9.9-2.2-14.9-3.3-1.7-.4-3.3-.7-5-1.1,3.7-10.7,7.4-21.3,11.1-32"/><path class="cls-1" d="M94.5,148.1c-.4,13.6-2.3,28.3-4.4,41.7"/><path class="cls-2" d="M92.1,119.9h0c2.1,8.1,2.7,17.8,2.4,28.2"/><path class="cls-1" d="M102.9,155.4c-.2.2-.4.5-.5.7-.7.9-1.3,2-1,3.1.3.7.9,1.2,1.5,1.7,1.4,1,2.7,2,4.1,2.9.5-.7,1-1.4,1.5-2.2,2.1-2.9,4.3-5.7,6.7-8.4.9-1,1.8-2,2.7-3-1.4-1-3.2-2.8-4.8-3.4-1.7-.6-1.7,0-3.3,1.4-2.5,2.2-4.8,4.5-6.9,7.2Z"/><path class="cls-1" d="M86.2,185.9s0,0,0,0c0-.1-.4,0-.4-.2"/><path class="cls-1" d="M84.5,179.1c.3,2.3,1.1,4.4,1.7,6.7"/><path class="cls-2" d="M106.4,61.6c-2.1-16.1-14.1-17.7-21.3-16.1-3.7.8-13.5,2.8-17.6,14.7-.1.4-.3.9-.5,1.4-2.4,8.2-4.6,27.1.9,31.7"/><path class="cls-1" d="M86.4,63.3s0,0,0,0c0,.3.2.7,0,1,0,.3-.4.7-.8.8-.7.2-1.4-.2-2-.5-2-1-4.6-1.4-7-1l.4-.4"/><path class="cls-1" d="M96.9,67.3c-.5.2-.4.9,0,1.2s1.2.4,1.9.5c.7,0,1.3,0,1.9.3.4.2.7.4,1.1.4.4,0,.9-.2.7-.5"/><path class="cls-2" d="M52.1,104.3c-2.1,1.7-3.8,3.9-4.7,6.4,3.5.5,6.8,2.9,8.4,6-1.4.5-1.7,2.6-1.1,3.9.7,1.4,2,2.3,3.1,3.3,4.9,4.1,8,10.2,8.3,16.6"/><path class="cls-2" d="M67.1,61.6c4.9-5.8,15.8-8.3,23.3-6.9,4.6.8,15.9,5.2,15.7,10h0c0,.2,0,.3,0,.5"/></svg>