<?xml version="1.0" encoding="UTF-8"?><svg id="africaModest" xmlns="http://www.w3.org/2000/svg" width="235" height="321.9" viewBox="0 0 235 321.9"><defs><style>.cls-1{stroke:#221f1f;}.cls-1,.cls-2{fill:none;stroke-linecap:round;stroke-linejoin:round;}.cls-2{stroke:#000;}.cls-3,.cls-4,.cls-5,.cls-6,.cls-7,.cls-8,.cls-9{stroke-width:0px;}.cls-4{fill:#5095b1;}.cls-5{fill:#064c72;}.cls-6{fill:#c99070;}.cls-7{fill:#fff;}.cls-8{fill:#ededed;}.cls-9{fill:#e6e6e6;}</style></defs><path class="cls-5" d="M8,298.5c-.4.9-.7,1.8-.5,2.7.3,1.2,1.5,2,2.5,2.7,15.7,11,21.2,14.3,31.6,16.7,6.6,1.5,12.9-.7,11.1-8.8-.4-1.6-2.1-2.1-3.5-2.9-9.9-5.8-9.8-7.2-16.3-20.1-.8-1.4-1.5-1.4-3-.8s-1.5.9-2.2,1.6c-.5.5-.9,1-1.4,1.5-.9,1.1-8.6.1-10.6-2-.3-.3-.4-.6-.5-.9-2.4,3.2-5.8,6.6-7.3,10.3Z"/><path class="cls-9" d="M44,149c2.2-4.2,2.8-6.9,3-9.7.1-1.3.2-2.7.2-4.3,0-.9-4.9-3.6-10.1-7.9-.1,0-.2,0-.4-.1,0,0,0-.2,0-.3-2-1.8-4.1-3.8-5.8-6.1.5-2.2,1.5-5.6,2.5-9,1.3-4.2,2.7-8.3,3.4-9.4-5.2-5.2-8.8-11.3-11-15.1h-.2c-7.4,13.8-10,33.3-10.3,37.2-.5,4.7,9.4,13.8,17.8,20.4,3.9,3.1,7.5,5.6,9.5,6.8.5-.9,1-1.7,1.4-2.5Z"/><path class="cls-8" d="M22.5,266.4c-2.8,6.8-5.6,16.8-6.7,22.7,2,2.1,9.7,3,10.6,2,.5-.5.9-1.1,1.4-1.5,4.6-6.1,11.1-15.7,16-22.4-8.6.1-16.2,0-21.3-.7Z"/><path class="cls-7" d="M86.7,48.7c-.5,3.1-1.9,7.7-5.6,12.3-10.3,13-19.9,17.8-33.5-4.2-.1-10,1.6-22.6,8.6-26.3,12.2-6.6,16.9-7.5,21.2-3.1,4.2,4.3,9.5,7.8,9.4,18.1,0,.6,0,1.7-.2,3.2ZM36.7,102.2c7.8,7.7,19.2,13.5,35.2,6.7h.2c2.2-.9,4.1-1.7,5.7-2.6,2.3-1.3,4-2.7,5.3-4.2,5.8-7.2,2-17.3,2.5-30.1.3-9.4,6.2-20.1,6.3-30.3,0-8.1-.3-16.8-6.3-22.6-7.5-7.3-13.7-11.6-28.9-8.7-10.6,2-16.9,6-21.6,15.7-5.8,11.9-5.2,19.5-3.1,34.5,1,6.8-11.9,18-8,23.7.5.7,1.1,1.7,1.8,2.9,2.3,3.8,5.8,9.9,11,15.1Z"/><path class="cls-4" d="M33.4,111.6h0c0,4.4,1.9,10.8,3.2,15.1l.4.4c10.4,3,27.4,2.5,37.7-.5,2.4-7.6,3.1-20.2,3.1-20.2h0c-1.6.7-3.5,1.6-5.7,2.3h-.2c-16,6.9-27.4,1.2-35.2-6.5-.6,1.2-2,5.2-3.4,9.4Z"/><path class="cls-6" d="M58.8,141.4c-1.2-5.6-8.3-2.3-11.8-2.1-.2,2.8-.8,5.5-3,9.7.1,3.3,5,6.7,7.6,7.9,1.9.9,10.1,2.4,8.1-1.8,1-.4,2.5-2.5.7-3.7,1-.7,1.8-2.7.2-4.4,3.4-2.6.8-4.4-1.7-5.7Z"/><path class="cls-6" d="M86.9,45.5c.1-10.3-5.2-13.8-9.4-18.1-4.3-4.4-9-3.5-21.2,3.1-7,3.8-8.7,16.4-8.6,26.3,13.6,22,23.2,17.2,33.5,4.2,3.6-4.6,5.1-9.3,5.6-12.3.1-1.1.2-2.2.2-3.2ZM56.9,36.9c-.1-.2,2.2-1.7,3.7-1.9,1.1-.1,3.2-.1,4.3.8,1.6,1.3,1.9,2.6.8,2.4-1-.2-2.7-1.6-6-1.5-1.8,0-2.7.4-2.8.2ZM60.8,46c-.9-.1-1.5-1.6-1.3-3.4s1.2-3.1,2.1-3c.9.1,1.5,1.6,1.3,3.4-.2,1.8-1.2,3.1-2.1,3ZM61.6,61.4c-1.4-1.5-1.5-.7-2.9-4.3.8,1.2,9.6,5.3,14.7,3.9-1.6,2.2-3.2,3.2-6,3.1-1.7,0-4.4-1.3-5.8-2.8ZM76.2,40c-.9,0-.2-1.2,1.5-2,1.2-.6,2.8,0,3.5.3,1,.5,2.9,2.7,2.7,2.9-.1,0-2.2-.7-3.5-1.2-2.4-.9-3.4,0-4.2,0ZM79,48.6c-.8,0-1.2-1.4-1-2.9.2-1.5,1-2.7,1.7-2.6s1.2,1.4,1,2.9c-.2,1.5-1,2.7-1.7,2.6Z"/><path class="cls-3" d="M59.5,42.6c-.2,1.8.4,3.3,1.3,3.4.9.1,1.9-1.2,2.1-3,.2-1.7-.4-3.3-1.3-3.4-.9-.1-1.9,1.2-2.1,3Z"/><path class="cls-7" d="M58.7,57.1c1.4,3.6,1.4,2.8,2.9,4.3,1.4,1.5,4.1,2.7,5.8,2.8,2.8,0,4.4-1,6-3.1-5.1,1.4-13.9-2.7-14.7-3.9Z"/><path class="cls-3" d="M59.8,36.7c3.3,0,5,1.3,6,1.5,1.1.3.8-1.1-.8-2.4-1.2-.9-3.3-.9-4.3-.8-1.5.2-3.8,1.7-3.7,1.9,0,.1,1-.2,2.8-.2Z"/><path class="cls-5" d="M74.8,126.6c-10.3,2.9-27.3,3.5-37.7.5,5.1,4.3,10.1,7,10.1,7.9,0,1.6-.1,3-.2,4.3,3.6-.3,10.6-3.5,11.8,2.1,2.6,1.2,5.1,3,1.7,5.7,1.6,1.7.9,3.7-.2,4.4,1.8,1.1.3,3.3-.7,3.7,2,4.2-6.2,2.7-8.1,1.8-2.6-1.2-7.5-4.5-7.6-7.9-.4.8-.9,1.6-1.4,2.5-2.1-1.3-5.6-3.8-9.5-6.8h0c-6.2,18-18.8,115.9-17.2,119.5.5,1.1,2.9,1.8,6.7,2.3,5.1.7,12.7.8,21.3.7,14.1-.2,30.9-1.1,44.2-1.9,9.4-.6,17-1.1,20.6-1.2.8,0,1.5,0,1.8,0,1.8-39.7-16.7-92.5-31-126.5h0c-1.6-3.9-3.2-7.5-4.7-10.9Z"/><path class="cls-3" d="M77.7,38c-1.7.8-2.4,2-1.5,2,.8,0,1.8-.9,4.2,0,1.3.5,3.4,1.3,3.5,1.2.2-.1-1.7-2.3-2.7-2.9-.7-.4-2.3-.9-3.5-.3Z"/><path class="cls-9" d="M102.9,134.6c0-.9-.4-1.7-1-2.2-6.5-5.2-13.8-8.9-20-13.6h0c.2-5.7.8-11.9,1.2-16.8h0c-1.3,1.5-3,2.9-5.3,4.2h0c0,.1-.7,12.7-3.1,20.3,1.5,3.3,3.1,7,4.7,10.9h0c5.7,6.2,11.1,11.1,18.2,13.9.3-.9.7-1.9,1-2.8,2.2-5.7,4.4-10.9,4.1-13.9Z"/><path class="cls-3" d="M78,45.7c-.2,1.5.3,2.8,1,2.9s1.5-1.1,1.7-2.6c.2-1.5-.3-2.8-1-2.9s-1.5,1.1-1.7,2.6Z"/><path class="cls-8" d="M88,265.3c-.2,7.2.6,22.4.7,27.5,1.3,2.3,6.3,3.6,8.4,2,1.2-.9,1.8-2.5,2.3-3.9s.9-3,2-4.1c.3-.4.6-.6.9-.7h0c2.6-7.2,4.2-14.5,6.3-21.9h0c-3.6.1-11.2.6-20.6,1.2h0Z"/><path class="cls-5" d="M88.7,292.7c-1,3.9-1.4,8-1.4,12,0,.9,0,1.9.6,2.7.8,1,2.2,1.3,3.5,1.4,10.8,1.3,22.5,5.8,33.4,5.3,3.6-.2,7.3-.6,10.1-2.7,2.8-2.1,4.2-6.5,1.9-9.1-1.1-1.3-2.7-1.9-4.2-2.5-8.9-3.5-18.8-10.1-27.7-13.6h-.1c0,0,0,0,0,0-1.2-.3-1.9-.5-2.5-.2-.3.1-.6.4-.9.7-1.1,1.1-1.5,2.7-2,4.1s-1.1,3-2.3,3.9c-2.1,1.6-7.1.3-8.4-2Z"/><path class="cls-6" d="M98.7,148.5h0c1.6,2.6,8,5.4,10.4,3.6,2.1-1.6,6.7-10.8,5.2-13.6-1.5-2.9-8-4.5-11.6-3.8.3,3.1-2,8.2-4.1,13.9Z"/><path class="cls-2" d="M72.1,108.7c2.2-.7,4.1-1.6,5.7-2.4,2.3-1.3,4-2.7,5.3-4.2,5.8-7.2,2-17.3,2.5-30.1.3-9.4,6.2-20.1,6.3-30.3,0-8.1-.3-16.8-6.3-22.6-7.5-7.3-13.7-11.6-28.9-8.7-10.6,2-16.9,6-21.6,15.7-5.8,11.9-5.2,19.5-3.1,34.5,1,6.8-11.9,18-8,23.7.5.7,1.1,1.7,1.8,2.9,2.3,3.8,5.8,9.9,11,15.1,7.8,7.7,19.2,13.5,35.2,6.7"/><path class="cls-2" d="M77.9,106.4s-.7,12.5-3.1,20.2"/><path class="cls-2" d="M79.5,137.5c14.3,34,32.8,86.8,31,126.5-.4,0-1,0-1.8,0-3.6.1-11.2.7-20.6,1.2-13.3.8-30.1,1.7-44.2,1.9-8.6.1-16.2,0-21.3-.7-3.8-.5-6.2-1.2-6.7-2.3-1.6-3.6,11.1-101.5,17.2-119.4"/><path class="cls-2" d="M74.8,126.6c1.5,3.3,3.1,7,4.7,10.9"/><path class="cls-2" d="M33.5,111.6c0,4.4,1.9,10.8,3.2,15,0,0,0,.2,0,.3.1,0,.2,0,.4.1,10.4,3,27.4,2.5,37.7-.5"/><path class="cls-2" d="M36.7,102.2s0,0,0,0c-.6,1.2-2,5.2-3.4,9.4-1.1,3.4-2,6.8-2.5,9"/><path class="cls-2" d="M25.5,87.2c-7.4,13.7-10,33.2-10.3,37.1"/><path class="cls-2" d="M56,140c.6.4,1.7.8,2.9,1.4,2.6,1.2,5.1,3,1.7,5.7,1.6,1.7.9,3.7-.2,4.4,1.8,1.1.3,3.3-.7,3.7,2,4.2-6.2,2.7-8.1,1.8-2.6-1.2-7.5-4.5-7.6-7.9,0,0,0,0,0,0"/><path class="cls-2" d="M46.9,139.3s0,0,0,0c3.6-.3,10.6-3.5,11.8,2.1,0,0,0,0,0,0"/><path class="cls-2" d="M29.5,118.6c.4.7.9,1.4,1.4,2,1.7,2.3,3.8,4.3,5.8,6.1l.4.4c5.1,4.3,10.1,7,10.1,7.9,0,1.6-.1,3-.2,4.3-.2,2.8-.8,5.5-3,9.7-.4.8-.9,1.6-1.4,2.5-2.1-1.3-5.6-3.8-9.5-6.8-8.4-6.6-18.3-15.7-17.8-20.4"/><path class="cls-2" d="M79.8,117.2c.7.6,1.4,1.1,2.1,1.7,6.2,4.7,13.5,8.4,20,13.6.6.5.9,1.2,1,2.2.3,3.1-2,8.2-4.1,13.9-.3.9-.7,1.9-1,2.8-7.1-2.7-12.5-7.7-18.2-13.9h0"/><path class="cls-2" d="M83.1,102.1c-.3,4.9-1,11.1-1.2,16.7"/><path class="cls-2" d="M43.8,267.1c-4.9,6.7-11.4,16.3-16,22.4"/><path class="cls-2" d="M22.5,266.4c-2.8,6.8-5.6,16.8-6.7,22.7"/><path class="cls-2" d="M15.3,288.2c0,.3.2.6.5.9,2,2.1,9.7,3,10.6,2,.5-.5.9-1.1,1.4-1.5.6-.6,1.3-1.2,2.2-1.6,1.5-.6,2.2-.6,3,.8"/><path class="cls-2" d="M15.3,288.2c-2.4,3.2-5.8,6.6-7.3,10.3-.4.9-.7,1.8-.5,2.7.3,1.2,1.5,2,2.5,2.7,15.7,11,21.2,14.3,31.6,16.7,6.6,1.5,12.9-.7,11.1-8.8-.4-1.6-2.1-2.1-3.5-2.9-9.9-5.8-9.8-7.2-16.3-20.1"/><path class="cls-2" d="M108.7,264c-2.1,7.4-3.7,14.7-6.3,21.8"/><path class="cls-2" d="M88,265.3c-.2,7.2.6,22.4.7,27.5"/><line class="cls-2" x1="104.9" y1="286.2" x2="105" y2="286.3"/><path class="cls-2" d="M88.7,292.7c1.3,2.3,6.3,3.6,8.4,2,1.2-.9,1.8-2.5,2.3-3.9s.9-3,2-4.1c.3-.4.6-.6.9-.7.6-.3,1.2-.1,2.5.2"/><path class="cls-2" d="M88.7,292.7c-1,3.9-1.4,8-1.4,12,0,.9,0,1.9.6,2.7.8,1,2.2,1.3,3.5,1.4,10.8,1.3,22.5,5.8,33.4,5.3,3.6-.2,7.3-.6,10.1-2.7,2.8-2.1,4.2-6.5,1.9-9.1-1.1-1.3-2.7-1.9-4.2-2.5-8.9-3.5-18.8-10.1-27.7-13.6"/><path class="cls-2" d="M102.8,134.6s0,0,0,0c3.6-.7,10.1.9,11.6,3.8,1.5,2.9-3.1,12.1-5.2,13.6-2.5,1.8-8.8-.9-10.4-3.5"/><path class="cls-2" d="M86.8,45.1s0,.1,0,.4c0,.6,0,1.7-.2,3.2-.5,3.1-1.9,7.7-5.6,12.3-10.3,13-19.9,17.8-33.5-4.2"/><path class="cls-2" d="M78,45.7c-.2,1.5.3,2.8,1,2.9s1.5-1.1,1.7-2.6c.2-1.5-.3-2.8-1-2.9s-1.5,1.1-1.7,2.6Z"/><path class="cls-2" d="M59.5,42.6c-.2,1.8.4,3.3,1.3,3.4.9.1,1.9-1.2,2.1-3,.2-1.7-.4-3.3-1.3-3.4-.9-.1-1.9,1.2-2.1,3Z"/><path class="cls-2" d="M72.6,49.5c3.9,8.2-4.3,7.3-5.7,6.2"/><path class="cls-2" d="M73.4,61c-5.1,1.4-13.9-2.7-14.7-3.9,1.4,3.6,1.4,2.8,2.9,4.3,1.4,1.5,4.1,2.7,5.8,2.8,2.8,0,4.4-1,6-3.1Z"/><path class="cls-1" d="M86.6,49.6c0-.3,0-.6,0-.9.1-1.1.2-2.2.2-3.2.1-10.3-5.2-13.8-9.4-18.1-4.3-4.4-9-3.5-21.2,3.1-7,3.8-8.7,16.4-8.6,26.3"/><path class="cls-2" d="M81.2,38.4c1,.5,2.9,2.7,2.7,2.9-.1,0-2.2-.7-3.5-1.2-2.4-.9-3.4,0-4.2,0-.9,0-.2-1.2,1.5-2,1.2-.6,2.8,0,3.5.3Z"/><path class="cls-2" d="M60.6,35c-1.5.2-3.8,1.7-3.7,1.9,0,.1,1-.2,2.8-.2,3.3,0,5,1.3,6,1.5,1.1.3.8-1.1-.8-2.4-1.2-.9-3.3-.9-4.3-.8Z"/><path class="cls-2" d="M32.1,61.1c4.7,12.3,9.2,16.8,19.5,23.3"/><path class="cls-2" d="M86.6,64.6c-3.1,8.4-7.9,12.3-14.4,18.4"/></svg>