<?xml version="1.0" encoding="UTF-8"?><svg id="africaModest" xmlns="http://www.w3.org/2000/svg" width="235" height="321.9" viewBox="0 0 235 321.9"><defs><style>.cls-1{stroke-linecap:round;stroke-linejoin:round;}.cls-1,.cls-2{fill:none;stroke:#000;}.cls-2{stroke-miterlimit:10;}.cls-3,.cls-4,.cls-5,.cls-6,.cls-7,.cls-8,.cls-9,.cls-10{stroke-width:0px;}.cls-4{fill:#54a880;}.cls-5{fill:#dea339;}.cls-6{fill:#ac847b;}.cls-7{fill:#d5d5d4;}.cls-8{fill:#fff;}.cls-9{fill:#ffcc69;}.cls-10{fill:#e880a9;}</style></defs><path class="cls-7" d="M95.5,294.9c1.1,2,5.4,3.1,7.2,1.7,1.1-.8,1.6-2.1,2-3.4.4-1.2.8-2.6,1.7-3.5.9-1,1.4-.9,2.9-.4h0s0,0,0,0c7.7,3,16.1,8.7,23.7,11.6,1.3.5,2.7,1.1,3.6,2.1,1.9,2.3.8,6-1.6,7.8-2.4,1.8-5.6,2.2-8.7,2.3-9.3.4-19.3-3.4-28.6-4.6-1.1-.1-2.3-.3-3-1.2-.5-.6-.5-1.5-.5-2.3,0-3.5.4-6.9,1.2-10.3Z"/><path class="cls-6" d="M130,179.8c1.3,2.9-1.9,5.8-4.4,7.7s-4,2.6-6.6.9c-1.2-.8-2.3-2.1-2.6-3.6,0-.1,0-.2,0-.3-.5-2.6,1.1-5.3,3.2-6.8,2.3-1.6,0-.9,2.8-1.5,3-.9,6.5.8,7.8,3.6Z"/><path class="cls-10" d="M97.4,161.4c0-2.4.2-4.9.2-7.5h.5c2.5-3.2,2.4-3.5,4.2-4.8h0c1.6,7.1,13.9,23.1,19.8,27.2-2.7.6-.5-.2-2.8,1.5-2.2,1.6-3.7,4.2-3.2,6.8h-.1c-2.6-6.8-18.5-16.6-18.4-21.9h-.3c0-.4,0-.9,0-1.3Z"/><path class="cls-4" d="M112.4,240.5c-.4,17.5-3.5,31-6,49.3-.9,1-1.3,2.3-1.7,3.5-.4,1.3-.9,2.6-2,3.4-1.8,1.4-6.1.2-7.2-1.7,0-.7,1.3-16.9-1.7-28.3-.8-3.2.2-13.7.7-17-2-4.7-1-1.7-2.9-6.2,7.5-3.2,13.3-5.6,20.6-2.9h.1Z"/><path class="cls-9" d="M52.8,189.6c.5.4,1,.9,1.5,1.3,1,2,6.5,7.3,8.5,6.3,1.7-.9,5.4-9.4,4.4-11.8-.9-2.2-9.3-4.4-11.1-2.7,0,0,0,0-.1,0-1.1-1.6-2.1-3.1-3-4.6h.4c.4-4.5,1-9.2,1.5-13.8,6.7,2.1,11.6,2.5,18.7,3.5,7.1,1,16.7.8,23.5-1.7-.5,8.4-1.3,16.4-2.2,28.7,6,13.6,12.7,28.3,17.4,39.5,0,2.1,0,4.1,0,6h-.1c-7.3-2.7-13.1-.3-20.6,2.9-6.4,2.7-14,5.9-24.8,6.9-5.5.5-11.7.4-19.1-.6-1.5-.2-3-.4-4.5-.7,1-16.5-.2-31.8,6.2-50.7,1.7-5,1.7-4,2.6-9.2h0c.2.1.5.3.7.6Z"/><path class="cls-5" d="M111.2,87.5c.1,3.4-1.7,15.9-3.5,24-2.4,11.8-2.4,17.3-5.3,26.9-.2.6-.6,1.1-1,1.5-1,.8-2.4,1.4-3.8,2-1.2.6-2.3,1.1-3,2-3,3.8-8.3,5.4-13.2,4.8-4.8-.6-9.2-3.3-12.8-6.6-2.9-2.8-5.4-4.6-7.7-7.5-.4-.5-.8-1-1.2-1.6-1.5-2.2-7.7-4.1-8.5-6.6-1.3-4.2,4.1-11.1,4.8-15.5,1.3-8.2,2.7-16.3,4-24.5.9-5.4,1.9-11.1,5.2-15.4,3.4-4.4,8.9-6.8,14.4-7.6,5.5-.8,11.1-.2,16.6.4,4.8.5,8.5,4.6,11.2,8.6,2.4,3.5,3.6,10.9,3.7,15ZM108.4,95.3c2.4-17.4-9.8-22.3-24-16.1-8,3.5-19.4,23.1-8.3,36.8,6,5,12.7,7.1,15.2,6.7,4-.6,9.8-6,9.8-6,7.9-6.3,6.7-19.5,7.3-21.5Z"/><path class="cls-6" d="M86.7,106.7l-.2.3c0,12,8.9,12.5,11.5,4.6-4.5-.5-7.5-2.2-11.4-4.9ZM84.4,79.2c14.2-6.2,26.4-1.3,24,16.1-.6,2,.6,15.2-7.3,21.5,0,0-5.8,5.3-9.8,6-2.5.4-9.2-1.8-15.2-6.7-11.1-13.8.3-33.4,8.3-36.8ZM104.7,98.9c.3-1.5,0-2.8-.9-3s-1.8.9-2.1,2.3c-.3,1.5,0,2.8.9,3s1.8-.9,2.1-2.3ZM88.5,95.1c.3-1.4-.1-2.7-1-2.9-.9-.2-1.8.8-2.2,2.2-.3,1.4.1,2.7,1,2.9.9.2,1.8-.8,2.2-2.3Z"/><path class="cls-5" d="M103.2,144.1c.3.9.8,2,1.4,3.4-1,.6-1.7,1.1-2.2,1.5-1.9,1.3-1.7,1.7-4.2,4.9h-.5c0-1.7,0-3.4,0-5.2h.3c1-2.1,2.8-3.7,5-4.4h.2Z"/><path class="cls-9" d="M103.2,144.1h-.2c-2.2.8-4,2.4-5,4.5h-.3c0-2.1,0-4.3-.1-6.6,1.4-.6,2.8-1.2,3.8-2,.7.9.4.6,1.8,4.1Z"/><path class="cls-3" d="M103.8,95.9c.8.2,1.2,1.5.9,3-.3,1.5-1.3,2.5-2.1,2.3s-1.2-1.5-.9-3c.3-1.5,1.3-2.5,2.1-2.3Z"/><path class="cls-9" d="M59.3,144.2c.9-2.9,1.3-5.8,1.6-9.5,2.3,2.9,4.7,4.7,7.7,7.5,3.5,3.4,7.9,6,12.8,6.6,4.8.6,10.1-1,13.2-4.8.7-.9,1.8-1.5,3-2,0,2.3,0,4.5.1,6.6,0,1.8,0,3.5,0,5.2,0,2.7-.1,5.2-.2,7.5-13.9,2.3-28.3,1.4-41.8-2.5h0c.3-4.4.4-8.3,0-11.1h0c.8.3,1.5.7,1.8,1,.8-1.6,1.4-3.1,1.9-4.6Z"/><path class="cls-5" d="M97.4,161.4c0,.4,0,.8,0,1.3,0,1.2-.1,2.4-.2,3.6-6.8,2.5-16.4,2.7-23.5,1.7-7.1-1-11.9-1.4-18.7-3.5.2-1.9.4-3.8.5-5.6h0c13.5,4,27.9,4.9,41.8,2.6Z"/><path class="cls-8" d="M98,111.6c-2.7,7.8-11.6,7.4-11.5-4.6l.2-.3c3.9,2.6,6.9,4.4,11.4,4.9Z"/><path class="cls-3" d="M87.6,92.2c.9.2,1.3,1.5,1,2.9-.3,1.4-1.3,2.4-2.2,2.3-.9-.2-1.3-1.5-1-2.9.3-1.4,1.3-2.4,2.2-2.2Z"/><path class="cls-6" d="M56.1,182.8s0,0,.1,0c1.7-1.7,10.2.5,11.1,2.7,1,2.4-2.8,11-4.4,11.8-2,1-7.5-4.3-8.5-6.3-.5-.5-1-.9-1.5-1.3-.3-2.6,1-5.4,3.3-6.8Z"/><path class="cls-4" d="M66.8,250.3c-1.2,6.4-3.3,7.3-7.9,15.9-4.8,9-13.2,18-19.3,26.1,0,0,0,0,0,0-.4.4-.8.9-1.2,1.3-.8.9-7.3,0-9-1.7,1.9-9.8,7.7-23.1,13-31.5,1.8-2.9,4.1-7.7,5.4-10.9,7.3,1,13.6,1.1,19.1.6Z"/><path class="cls-7" d="M60.8,311.2c1.5,6.9-3.9,8.7-9.5,7.4-8.9-2-13.5-4.8-26.9-14.1-.9-.6-1.9-1.2-2.2-2.3-.2-.8.1-1.6.4-2.3,1.3-3.1,4.2-6,6.2-8.7,0,.3.2.5.4.8,1.7,1.8,8.2,2.6,9,1.7.4-.4.8-.9,1.2-1.3,0,0,0,0,0,0,.5-.5,1.1-1,1.8-1.3,1.2-.5,1.9-.5,2.5.7,5.5,10.9,5.4,12.1,13.9,17,1.2.7,2.7,1.1,3,2.4Z"/><path class="cls-9" d="M60.9,134.7c-.3,3.7-.7,6.6-1.6,9.5-5.9-1.6-11.5-4.3-16.6-7.8,4.5-7.5,7.5-10.1,8.4-9.9.8,2.5,7,4.4,8.5,6.6.4.6.8,1.1,1.2,1.6Z"/><path class="cls-5" d="M59.3,144.2c-.5,1.5-1.1,3.1-1.9,4.6-.3-.3-.9-.7-1.8-1.2-2.2-1.2-5.7-2.6-6.7-2.9-1.2-.5-4.8-2.7-6.4-3.8-.4-.3-.7-.5-.8-.6-.3-.9-.2-2,.3-2.9.2-.3.4-.7.6-1,5,3.5,10.6,6.1,16.6,7.8Z"/><path class="cls-10" d="M55.7,147.6h0c-4.3,5.5-7.1,10.6-10.6,16.4,3.7,5.8,5.6,9.9,8.1,14.2.9,1.5,1.8,3,3,4.6-2.3,1.4-3.6,4.2-3.3,6.8-.3-.2-.5-.4-.7-.6-7.6-6.7-11.8-11.1-16.7-21-2.4-4.9,2.8-20.1,7.2-26.8v-.3c1.7,1.1,5.2,3.2,6.5,3.8.9.4,4.4,1.8,6.7,2.9Z"/><path class="cls-1" d="M60.9,134.7c-.3,3.7-.7,6.6-1.6,9.5-.5,1.5-1.1,3.1-1.9,4.6-.3-.3-.9-.7-1.8-1.2-2.2-1.2-5.7-2.6-6.7-2.9-1.2-.5-4.8-2.7-6.4-3.8-.4-.3-.7-.5-.8-.6-.3-.9-.2-2,.3-2.9.2-.3.4-.7.6-1,4.5-7.5,7.5-10.1,8.4-9.9"/><path class="cls-1" d="M95,195c.9-12.3,1.7-20.4,2.2-28.7,0-1.2.1-2.4.2-3.6,0-.4,0-.8,0-1.3,0-2.4.2-4.9.2-7.5,0-1.6,0-3.4,0-5.2,0-2.1,0-4.3-.1-6.6"/><path class="cls-1" d="M52,189.1c-.9,5.2-.9,4.2-2.6,9.2"/><path class="cls-1" d="M55.6,147.8c.4,2.8.3,6.7,0,11-.1,1.8-.3,3.7-.5,5.6-.5,4.6-1.1,9.3-1.5,13.7"/><path class="cls-1" d="M42.5,141.2c-4.4,6.7-9.6,21.9-7.2,26.8,4.9,9.8,9.1,14.3,16.7,21,.2.2.5.4.7.6.5.4,1,.9,1.5,1.3"/><path class="cls-1" d="M55.6,147.8c-4.3,5.4-7.1,10.5-10.6,16.3,3.7,5.8,5.6,9.9,8.1,14.2.9,1.5,1.8,3,3,4.6.1.2.2.3.3.5"/><path class="cls-1" d="M101.3,140c.7.9.4.6,1.8,4.1.3.9.8,2,1.4,3.4-1,.6-1.7,1.1-2.2,1.5-1.9,1.3-1.7,1.7-4.2,4.9"/><path class="cls-1" d="M56.2,182.8s0,0,0,0c1.7-1.7,10.2.5,11.1,2.7,1,2.4-2.8,11-4.4,11.8-2,1-7.5-4.3-8.5-6.3"/><path class="cls-1" d="M97.7,162.6c-.1,5.2,15.8,15,18.4,21.9"/><path class="cls-1" d="M102.4,149c1.6,7,13.9,23.1,19.8,27.2"/><path class="cls-1" d="M122.2,176.2c-2.7.6-.5-.2-2.8,1.5-2.2,1.6-3.7,4.2-3.2,6.8,0,.1,0,.2,0,.3.4,1.5,1.4,2.7,2.6,3.6,2.6,1.8,4.1,1,6.6-.9s5.7-4.8,4.4-7.7c-1.3-2.9-4.8-4.6-7.8-3.6"/><path class="cls-1" d="M49.4,198.3c-6.3,18.8-5.1,34.2-6.2,50.7,1.5.3,3,.5,4.5.7,7.3,1,13.6,1.1,19.1.6,10.8-1,18.4-4.2,24.8-6.9,7.5-3.2,13.3-5.6,20.6-2.9"/><path class="cls-1" d="M66.8,250.3h0c-1.2,6.4-3.3,7.3-7.9,16-4.8,9-13.2,18-19.3,26.1"/><path class="cls-1" d="M47.7,249.7h0c-1.2,3.2-3.6,8-5.4,10.9-5.3,8.4-11.1,21.8-13,31.5"/><path class="cls-1" d="M112.4,234.5c-4.7-11.1-11.5-25.8-17.4-39.5"/><path class="cls-1" d="M95.5,294.9h0"/><path class="cls-1" d="M91.6,243.3s0,0,0,.1c1.9,4.5.9,1.6,2.9,6.2-.5,3.2-1.5,13.8-.7,17,3,11.4,1.8,27.6,1.7,28.3"/><path class="cls-1" d="M112.4,234.5c0,2.1,0,4.1,0,6-.4,17.5-3.5,31-6,49.3"/><path class="cls-1" d="M39.6,292.4c.5-.5,1.1-1,1.8-1.3,1.2-.5,1.9-.5,2.5.7"/><path class="cls-1" d="M39.6,292.4s0,0,0,0"/><path class="cls-1" d="M29,291.3c0,.3.2.5.4.8,1.7,1.8,8.2,2.6,9,1.7.4-.4.8-.9,1.2-1.3"/><path class="cls-1" d="M29,291.3c-2,2.7-4.9,5.6-6.2,8.7-.3.7-.6,1.5-.4,2.3.2,1,1.3,1.7,2.2,2.3,13.4,9.3,18,12.1,26.9,14.1,5.6,1.3,11-.6,9.5-7.4-.3-1.3-1.8-1.8-3-2.4-8.5-4.9-8.4-6.1-13.9-17"/><line class="cls-1" x1="109.3" y1="289.3" x2="109.4" y2="289.4"/><path class="cls-1" d="M95.5,294.9c1.1,2,5.4,3.1,7.2,1.7,1.1-.8,1.6-2.1,2-3.4.4-1.2.8-2.6,1.7-3.5.9-1,1.4-.9,2.9-.4"/><path class="cls-1" d="M95.5,294.9c-.8,3.4-1.2,6.8-1.2,10.3,0,.8,0,1.6.5,2.3.7.9,1.9,1.1,3,1.2,9.2,1.1,19.3,5,28.6,4.6,3-.1,6.3-.5,8.7-2.3,2.4-1.8,3.6-5.5,1.6-7.8-.9-1.1-2.3-1.6-3.6-2.1-7.7-3-16.1-8.7-23.7-11.6"/><path class="cls-1" d="M42.7,136.3h0c5,3.6,10.6,6.2,16.6,7.8.1,0,.3,0,.4.1"/><path class="cls-1" d="M103,144.2c-2.2.7-4,2.4-5,4.4"/><path class="cls-1" d="M55.6,158.8c13.5,4,27.9,4.9,41.8,2.5,0,0,.2,0,.3,0"/><path class="cls-1" d="M54.7,164.3c.1,0,.3,0,.4.1,6.7,2.1,11.6,2.5,18.7,3.5,7.1,1,16.7.8,23.5-1.7l.5-.2"/><path class="cls-1" d="M56.5,182.6c0,0-.2,0-.3.1,0,0,0,0-.1,0-2.3,1.4-3.6,4.2-3.3,6.8,0,0,0,0,0,.1"/><path class="cls-1" d="M108.4,95.3c2.4-17.4-9.8-22.3-24-16.1-8,3.5-19.4,23.1-8.3,36.8"/><path class="cls-1" d="M108.4,95.3c-.6,2,.6,15.2-7.3,21.5,0,0-5.8,5.3-9.8,6-2.5.4-9.2-1.8-15.2-6.7"/><path class="cls-1" d="M105.7,92.1c-.2-2.4-2.5-2.4-3.5-1.1"/><path class="cls-1" d="M89.7,87c-1.2-1.8-3.6-2.4-6.3-.3"/><path class="cls-1" d="M99.5,103.4c.3,2.2-2.6,2.9-4.8,3.5"/><path class="cls-1" d="M101.7,98.2c-.3,1.5,0,2.8.9,3s1.8-.9,2.1-2.3c.3-1.5,0-2.8-.9-3s-1.8.9-2.1,2.3Z"/><path class="cls-1" d="M85.4,94.4c-.3,1.4.1,2.7,1,2.9.9.2,1.8-.8,2.2-2.3.3-1.4-.1-2.7-1-2.9-.9-.2-1.8.8-2.2,2.2Z"/><path class="cls-1" d="M98,111.6c-4.5-.5-7.5-2.2-11.4-4.9-.3-.2-.6-.4-.9-.6"/><path class="cls-1" d="M98,111.6c-2.7,7.8-11.6,7.4-11.5-4.6"/><path class="cls-1" d="M107.7,111.6c-2.4,11.8-2.4,17.3-5.3,26.9-.2.6-.6,1.1-1,1.5-1,.8-2.4,1.4-3.8,2-1.2.6-2.3,1.1-3,2-3,3.8-8.3,5.4-13.2,4.8-4.8-.6-9.2-3.3-12.8-6.6-2.9-2.8-5.4-4.6-7.7-7.5-.4-.5-.8-1-1.2-1.6-1.5-2.2-7.7-4.1-8.5-6.6-1.3-4.2,4.1-11.1,4.8-15.5,1.3-8.2,2.7-16.3,4-24.5.9-5.4,1.9-11.1,5.2-15.4,3.4-4.4,8.9-6.8,14.4-7.6,5.5-.8,11.1-.2,16.6.4,4.8.5,8.5,4.6,11.2,8.6,2.4,3.5,3.6,10.9,3.7,15,.1,3.4-1.7,15.9-3.5,24"/><path class="cls-2" d="M65.2,121.2c4,3,5.7,8.1,9.3,11.6,4.6,4.3,12.2,5.1,17.5,1.8"/></svg>