<?xml version="1.0" encoding="UTF-8"?><svg id="africaModest" xmlns="http://www.w3.org/2000/svg" width="235" height="321.9" viewBox="0 0 235 321.9"><defs><style>.cls-1{stroke-linecap:round;stroke-linejoin:round;}.cls-1,.cls-2{fill:none;stroke:#000;}.cls-2{stroke-miterlimit:10;}.cls-3,.cls-4,.cls-5,.cls-6,.cls-7,.cls-8{stroke-width:0px;}.cls-4{fill:#3a3a3a;}.cls-5{fill:#afd1e1;}.cls-6{fill:#9d715e;}.cls-7{fill:#98bed2;}.cls-8{fill:#fff;}</style></defs><path class="cls-7" d="M54.9,172.4c1.3-10.1,2.2-20.2,2.7-30.9h-.1c-.5-12.4-5.1-20-9.1-22.8,1.7-2,2.4-2.9,4-4.9-.8-1.3-1.5-2.6-2.3-3.8-3.2-4.7-6.1-5.5-8-6.4-1.2,0-.7,0-1.8.5-3.5,1.5-6.3,6.2-9.1,8.8-2,1.9-20.1,27.1-20.1,27.1-2.8,5,2.7,15.4,5.5,20.7,3-3.1,7.9-7.3,11.6-8.3-.3-.8-.5-1.5-.8-2.1-1.1-2.2-1.9-3.7-3-5h0s0,0,0,0c4.8-3.4,9.9-8.7,13.9-13.5h0c3,13.4,2.7,22.5,0,33.9v.2c3.5.6,7.7,1.3,6.9,5.1,1.9,1.9,3.6,4.3-.6,5.3.8,2-.7,3.3-1.9,3.6,1.3,1.6-1.1,2.8-2.1,2.8.1,2.1-1.7,2.1-3.6,1.4h-1c-.8,9.4-4.3,17.1-5.1,26.4,1.1,0,2.1.2,3.2.2,4.7.3,9.4.7,14.1,1,2.9-14.1,5.1-26.8,6.7-39.4Z"/><path class="cls-8" d="M11.2,298.7c-.4,1.4-.3,7.2.7,8.3,1.1,1.2,3.1,1.3,4.8,1.3,5.5,0,10.9.1,16.4,0,2,0,5.8.3,7.2-1,1.7-1.6.6-10.9-.6-12.8-1.8-2.8-3.4-3.1-6.8-3.9-1.9-.4-4.3-.9-6.8-.7-2.1.1-4.2.6-6.4,1.8-2.8,1.2-7.7,4.2-8.4,6.9Z"/><path class="cls-5" d="M31.6,161.7c1.7-1.7,2.8-3.2,2.3-4-.5-.9-2.8-5.4-3.9-5.5-.6,0-1.2,0-1.9.2-3.7,1-8.6,5.2-11.6,8.3-.8.8-1.5,1.6-1.9,2.2,1.8,2.8,4,4.4,6.5,6.5.2,0,1.2-.5,2.5-1.4,2.3-1.5,5.7-4.1,8-6.3Z"/><path class="cls-4" d="M63.6,205.2c4.1,16.4,6.7,17.5,7.7,35.1.8,13.2,12.5,33.7,15.4,55.5,1.1-2,1.9-3.3,4.3-3.9,1.6-.4,6.3-.8,9.2-1-.6-15.4.4-37.5-3.1-50.4-2.6-9.7-1.8-21.7-3.2-31.6-2.4,1-5,1.4-7.5,1.2-1.3-12.6-2.2-25.2-2.6-37.8-3,.1-11.5,5.3-28.8.1-1.6,12.6-3.9,25.3-6.7,39.4-4.7-.4-9.4-.7-14.1-1-1.9,10.4-.4,21.2-4.2,30.2-5.4,13-3.1,34.3-3.8,48.8v.3c2.5-.1,4.9.3,6.8.7,3.5.8,5,1.1,6.8,3.9,4-21.4,13.8-37.7,15.1-53.4,1.1-12.9,6-22.3,8.8-36Z"/><path class="cls-6" d="M45.2,171.1c.8-3.8-3.3-4.5-6.9-5.1-1.1-.2-2.2-.4-3-.6-2-.7-2.6-1.6-3.7-3.7-2.3,2.2-5.7,4.8-8,6.3,1.8,1.5,3.6,2.8,4.6,4.1h0c-1.3,2.8,2.1,7.3,4,9.2.7.7,2.7,2,4.6,2.7,2,.7,3.8.8,3.6-1.4,1,0,3.4-1.2,2.1-2.8,1.3-.2,2.7-1.6,1.9-3.6,4.2-1,2.5-3.4.6-5.3Z"/><path class="cls-4" d="M48.1,60.3c1.2-7,3.4-13.7,7.3-16.5,6.5-4.7,18.9-4.8,25.4-.2,7.1,5,8,8.9,8.6,15.3,0,.5,0,1,0,1.4.1,2.9,0,5.8-.7,8.9,0,0,3,13.3-5,22.6-5.6,6.5-12.9,12.6-30.5,0-5.4-4.3-5.5-10.7-6.2-17.5,0-4.1.2-9.1,1-14ZM52.4,113.8c1.9,3.4,3.7,7.1,5.8,10.3h0c2.7,4.2,5.7,7.5,9.9,7.8,7.2.7,11.6-2.7,14.4-7.1,2.4-3.7,3.6-8.2,4.6-11.7.6-2,1.1-3.7,1.6-4.8.3-.5.5-1,.7-1.5,3.7-7.6,4-15,5.2-26.6.8-7.8.9-20-1.3-27.5-2.2-7.5-7.7-14.8-14.8-18.7-8.9-4.8-31.2-1.9-36.6,6.3-17.4,26.2-9.8,51.3-1.5,62,.4.5,1,.8,1.7,1.1,1.9.8,4.8,1.7,8,6.4.8,1.2,1.6,2.5,2.3,3.8Z"/><path class="cls-6" d="M55.8,64h0c.4-1.4,9.8-3,11.7-1.3h.2c0,.6-.5,1.1-1.1,1.3-.6.2-1.2.3-1.8.2-3-.7-6,0-9-.2ZM78.5,63.1h0c.9-1.1,7.7-1.2,8.7.9l.3.3c.1,0,.3.2.2.3-1.9-.4-3.9-.6-5.8-.6-.6,0-1.2,0-1.8,0-.6-.1-1.2-.3-1.6-.8ZM48.1,60.3c-.8,4.9-1.1,9.9-1,14,.6,6.8.8,13.2,6.2,17.5,17.6,12.6,24.9,6.5,30.5,0,8-9.3,5-22.6,5-22.6.7-3.1.8-6.1.7-8.9h-.3c-2-5.1-10.3-9.5-17.8-9.4-7.3,0-18,2-23.3,9.4ZM60.9,69.7c0-1.6.7-2.9,1.6-2.9s1.6,1.3,1.6,2.9-.7,2.9-1.6,2.9-1.6-1.3-1.6-2.9ZM80.8,69.4c0-1.4.6-2.5,1.3-2.5s1.3,1.1,1.3,2.5-.6,2.5-1.3,2.5-1.3-1.1-1.3-2.5Z"/><path class="cls-5" d="M52.4,113.8c-1.6,2-2.3,2.9-4,4.9,4,2.8,8.6,10.5,9.1,22.8h.1c.3-5.6.4-11.4.5-17.4h0c-2-3.2-3.8-6.9-5.8-10.3Z"/><path class="cls-4" d="M55.4,43.8c-3.8,2.8-6.1,9.4-7.3,16.5,5.2-7.4,15.9-9.3,23.3-9.4,7.5,0,15.8,4.3,17.8,9.4h.3c0-.5,0-1,0-1.4-.7-6.4-1.5-10.3-8.6-15.3-6.6-4.6-18.9-4.5-25.4.2Z"/><path class="cls-8" d="M57.7,141.5c-.5,10.7-1.4,20.8-2.7,30.9,17.3,5.1,25.8,0,28.8-.1-.3-8.3-.3-16.6-.2-25,0-2.2,0-4.4.1-6.6.2-7.7.7-10.5-1.1-15.8-2.8,4.4-7.2,7.7-14.4,7.1-4.2-.4-7.2-3.6-9.9-7.8,0,6-.2,11.8-.5,17.4Z"/><path class="cls-3" d="M55.8,64h0c3,.1,5.9-.5,9,.2s1.2,0,1.8-.2c.6-.2,1.1-.7,1.1-1.2h-.2c-1.8-1.8-11.3-.2-11.7,1.2Z"/><path class="cls-3" d="M62.5,66.8c-.9,0-1.6,1.3-1.6,2.9s.7,2.9,1.6,2.9,1.6-1.3,1.6-2.9-.7-2.9-1.6-2.9Z"/><path class="cls-3" d="M78.5,63.1h0c.4.4,1,.7,1.6.8.6.1,1.2,0,1.8,0,2,0,3.9.2,5.8.6,0-.1,0-.3-.2-.3l-.3-.3c-1-2.1-7.7-2-8.7-.9Z"/><path class="cls-3" d="M82.1,66.9c-.7,0-1.3,1.1-1.3,2.5s.6,2.5,1.3,2.5,1.3-1.1,1.3-2.5-.6-2.5-1.3-2.5Z"/><path class="cls-7" d="M88.1,166.3c0-1.4,0-2.6,0-3.6-.1-5.7-.1-6.8-.1-15.3s1.8-8.6,2.7-13.7c.7-4.4.7-9.5-1.9-16.3l-1-.6c-.9,1.6-1.4,2.8-1.6,5-.8,8.5-1.7,17-2.5,25.4-.1,8.3,0,16.6.2,25,.4,12.6,1.3,25.2,2.6,37.8,2.6.2,5.2-.2,7.5-1.2,1.1-.5,2.2-1,3.2-1.7-3.2-13.7-4.8-19.3-5.8-23.8-1-4.4-1.7-7.8-3.1-16.4,0-.2,0-.4,0-.7Z"/><path class="cls-5" d="M83.5,147.3c.8-8.5,1.7-17,2.5-25.4.2-2.3.8-3.4,1.6-5,.3-.5.6-1.1,1-1.8.5-1-.6-1.2-1.6-1.9-1,3.5-2.3,8-4.6,11.7,1.8,5.4,1.3,8.1,1.1,15.8,0,2.2-.1,4.4-.1,6.6Z"/><path class="cls-8" d="M100.1,291c-2.9.2-7.6.6-9.2,1-2.4.6-3.2,1.9-4.3,3.9-1.1,2-1.6,10.8.4,12,1.5.8,19.6,1.4,24.6,1.1.5,0,3.4-.7,3.8-.8,1.5-.7.8-8.9,0-10.2-1.8-3.4-9.2-6.1-13.2-7.1-.1,0-1,0-2.3.2Z"/><path class="cls-7" d="M99,148.8c-1.4,2.5-2.4,5.2-3.6,7.5-.2.4-.4.7-.6,1.1,2.4.7,6.8,4.3,8.4,6.2.3-.3.5-.6.8-.8,5.1-5.4,11.4-11.9,6.9-18.6-1.7-2.6-8.1-15.6-10-18.8-2.7-5.1-7.3-14.6-11.5-18.4h0c-.2.5-.5,1-.7,1.5-.5,1-1,2.7-1.6,4.8,1,.7,2.1.9,1.6,1.9-.4.7-.7,1.3-1,1.8l1,.6c2.6,6.8,2.6,11.9,1.9,16.3h.4c1.7,3.8,6.3,12.9,7.9,15.1Z"/><path class="cls-6" d="M88.1,166.3c0,.2,0,.4,0,.7,1.4,8.6,2,12,3.1,16.4,1.7-.4,1.1.2,2.1-2.6.8-2.1,1.2-4,1.9-6.2.5-1.7,1.3-3.1,2.2-4.4-2.9-1.4-5.9-4.5-7.4-6.1-.6.8-1.2,1.7-1.9,2.3Z"/><path class="cls-5" d="M97.4,170.1c.6.3,1.3.5,1.9.6,2.2-1.3,5.7-4.8,4.2-6.8,0,0-.1-.2-.2-.3-1.6-2-6-5.5-8.4-6.2-.1,0-.2,0-.3,0-2.9-.6-5.3,3.6-5.3,5.4s0,.5.2.7c.2.2.4.4.6.7,1.4,1.6,4.5,4.7,7.4,6.1Z"/><path class="cls-2" d="M89.4,106.9c4.2,3.8,8.8,13.3,11.5,18.4"/><path class="cls-2" d="M22.7,144.8c.6.2,1.2.3,1.7.5,0,0,0,0,0,0,4.8-3.4,9.9-8.7,13.9-13.5,3.2-3.8,5.8-7.2,7-8.9"/><path class="cls-2" d="M42,103.6c-1.2,0-.7,0-1.8.5-3.5,1.5-6.3,6.2-9.1,8.8-2,1.9-20.1,27.1-20.1,27.1"/><path class="cls-2" d="M83.7,172.2h0c-3,.1-11.5,5.3-28.8.1,0,0,0,0-.1,0"/><path class="cls-2" d="M88.7,117.4c2.6,6.8,2.6,11.9,1.9,16.3-.8,5.1-2.7,9.2-2.7,13.7,0,8.5,0,9.6.1,15.3,0,1,0,2.2,0,3.6,0,.2,0,.4,0,.7"/><path class="cls-2" d="M97.5,169.9c0,0-.1.2-.2.2-.9,1.3-1.7,2.7-2.2,4.4-.7,2.2-1.1,4-1.9,6.2-1,2.8-.4,2.2-2.1,2.6"/><path class="cls-2" d="M100.9,125.3c1.9,3.2,8.3,16.3,10,18.8,4.4,6.8-1.8,13.3-6.9,18.6-.3.3-.5.6-.8.8-.1.1-.2.3-.4.4"/><path class="cls-2" d="M91,133.8c1.7,3.8,6.3,12.9,7.9,15,.1.1.2.2.3.3"/><path class="cls-2" d="M90.2,163.7c0,.1-.2.2-.2.4-.6.8-1.2,1.7-1.9,2.3,0,0-.1.1-.2.2"/><path class="cls-2" d="M103.4,143.8c-1.9,1.2-3.3,3.1-4.5,5.1-1.4,2.5-2.4,5.2-3.6,7.5-.2.4-.4.7-.6,1.1,0,0-.1.2-.2.3"/><path class="cls-2" d="M36.4,134c-1.9,1.3-4,4.2-5.9,6s-4.9,4.2-6.1,5.4"/><path class="cls-2" d="M28.3,172.2c.1.1.2.3.3.4"/><path class="cls-2" d="M23.5,167.8l.2.2c1.8,1.5,3.6,2.8,4.6,4.1"/><path class="cls-2" d="M11.1,140c-2.8,5,2.7,15.4,5.5,20.7,0,0,0,0,0,0"/><path class="cls-2" d="M28.3,152.7c0-.1,0-.2-.1-.3-.3-.8-.5-1.5-.8-2.1-1.1-2.2-1.9-3.7-3-5"/><path class="cls-2" d="M35.3,165.4c-2-.7-2.6-1.6-3.7-3.7,0-.1-.1-.2-.2-.3"/><path class="cls-2" d="M43.1,169c.4.5,1.3,1.3,2.1,2.1,1.9,1.9,3.6,4.3-.6,5.3.8,2-.7,3.3-1.9,3.6,1.3,1.6-1.1,2.8-2.1,2.8.1,2.1-1.7,2.1-3.6,1.4-1.9-.7-3.9-2-4.6-2.7-2-1.9-5.3-6.4-4-9.2h0"/><path class="cls-2" d="M35.3,165.4c.8.3,1.9.4,3,.6,3.6.6,7.7,1.3,6.9,5.1,0,0,0,0,0,0"/><path class="cls-2" d="M70.2,194.7c-2.1,1.8-4.8,5.3-5.9,6.4"/><path class="cls-1" d="M19.6,291.8c-2.8,1.2-7.7,4.2-8.4,6.9-.4,1.4-.3,7.2.7,8.3,1.1,1.2,3.1,1.3,4.8,1.3,5.5,0,10.9.1,16.4,0,2,0,5.8.3,7.2-1,1.7-1.6.6-10.9-.6-12.8-1.8-2.8-3.4-3.1-6.8-3.9-1.9-.4-4.3-.9-6.8-.7-2.1.1-4.2.6-6.4,1.8"/><path class="cls-1" d="M86.7,295.9c-1.1,2-1.6,10.8.4,12,1.5.8,19.6,1.4,24.6,1.1.5,0,3.4-.7,3.8-.8,1.5-.7.8-8.9,0-10.2-1.8-3.4-9.2-6.1-13.2-7.1-.1,0-1,0-2.3.2-2.9.2-7.6.6-9.2,1-2.4.6-3.2,1.9-4.3,3.9"/><path class="cls-1" d="M89.4,58.9c0,.5,0,1,0,1.4.1,2.9,0,5.8-.7,8.9,0,0,3,13.3-5,22.6-5.6,6.5-12.9,12.6-30.5,0"/><path class="cls-1" d="M87.2,64c-1-2.1-7.7-2-8.7-.9"/><path class="cls-1" d="M67.5,62.7c-1.8-1.7-11.3-.1-11.7,1.2"/><path class="cls-1" d="M80.8,69.4c0,1.4.6,2.5,1.3,2.5s1.3-1.1,1.3-2.5-.6-2.5-1.3-2.5-1.3,1.1-1.3,2.5Z"/><path class="cls-1" d="M60.9,69.7c0,1.6.7,2.9,1.6,2.9s1.6-1.3,1.6-2.9-.7-2.9-1.6-2.9-1.6,1.3-1.6,2.9Z"/><path class="cls-1" d="M78.5,76.9c2.3,5-3.5,5.4-8.7,4.5"/><path class="cls-1" d="M63.2,86.8c3.4,2.1,13.1,2.8,15.3.8"/><path class="cls-2" d="M34.1,210.7c-1.9,10.4-.4,21.2-4.2,30.2-5.4,13-3.1,34.3-3.8,48.8"/><path class="cls-2" d="M64.3,201.1c-.2,1.4-.5,2.8-.8,4.2-2.8,13.7-7.7,23.1-8.8,36-1.3,15.7-11.1,32-15.1,53.4"/><path class="cls-2" d="M93.7,208c0,.3,0,.6.1.9,1.4,10,.6,21.9,3.2,31.6,3.4,13,2.5,35.1,3.1,50.4,0,0,0,.1,0,.2"/><path class="cls-2" d="M63.4,204.6l.2.6c4.1,16.4,6.7,17.5,7.7,35.1.8,13.2,12.5,33.7,15.4,55.5"/><path class="cls-2" d="M38.4,131.9c3,13.4,2.7,22.5,0,33.9"/><path class="cls-2" d="M36,184.1c-.8,9.3-4.3,17.1-5.1,26.4,1.1,0,2.1.2,3.2.2,4.7.3,9.4.7,14.1,1,2.9-14.1,5.1-26.8,6.7-39.4,1.3-10.1,2.2-20.2,2.7-30.9.3-5.6.4-11.4.5-17.4"/><path class="cls-2" d="M82.5,124.8c1.8,5.4,1.3,8.1,1.1,15.8,0,2.2-.1,4.4-.1,6.6-.1,8.3,0,16.6.2,25,.4,12.6,1.3,25.2,2.6,37.8,2.6.2,5.2-.2,7.5-1.2,1.1-.5,2.2-1,3.2-1.7-3.2-13.7-4.8-19.3-5.8-23.8-1-4.4-1.7-7.8-3.1-16.4"/><path class="cls-2" d="M52.4,113.7s0,0,0,0c-1.6,2-2.3,2.9-4,4.9,4,2.8,8.6,10.5,9.1,22.8"/><path class="cls-2" d="M87.1,113.2c1,.7,2.1.9,1.6,1.9-.4.7-.7,1.3-1,1.8-.9,1.6-1.4,2.8-1.6,5-.8,8.5-1.7,17-2.5,25.4"/><path class="cls-2" d="M28.2,152.4c.7-.2,1.3-.3,1.9-.2,1,.1,3.4,4.7,3.9,5.5.4.8-.6,2.3-2.3,4-2.3,2.2-5.7,4.8-8,6.3-1.4.9-2.4,1.5-2.5,1.4-2.5-2.1-4.7-3.7-6.5-6.5.5-.6,1.1-1.4,1.9-2.2,3-3.1,7.9-7.3,11.6-8.3Z"/><path class="cls-2" d="M89.2,162.7c0,.3,0,.5.2.7.2.2.4.4.6.7,1.4,1.6,4.5,4.7,7.4,6.1.6.3,1.3.5,1.9.6,2.2-1.3,5.7-4.8,4.2-6.8,0,0-.1-.2-.2-.3-1.6-2-6-5.5-8.4-6.2-.1,0-.2,0-.3,0-2.9-.6-5.3,3.6-5.3,5.4Z"/><path class="cls-1" d="M47.1,74.3c.6,6.8.8,13.2,6.2,17.5"/><path class="cls-1" d="M89.4,58.9c-.7-6.4-1.5-10.3-8.6-15.3-6.6-4.6-18.9-4.5-25.4.2-3.8,2.8-6.1,9.4-7.3,16.5-.8,4.9-1.1,9.9-1,14"/><line class="cls-2" x1="58.1" y1="124.1" x2="58.1" y2="124.1"/><path class="cls-1" d="M58.1,124.1c2.7,4.2,5.7,7.5,9.9,7.8,7.2.7,11.6-2.7,14.4-7.1,2.4-3.7,3.6-8.2,4.6-11.7.6-2,1.1-3.7,1.6-4.8.3-.5.5-1,.7-1.5,3.7-7.6,4-15,5.2-26.6.8-7.8.9-20-1.3-27.5-2.2-7.5-7.7-14.8-14.8-18.7-8.9-4.8-31.2-1.9-36.6,6.3-17.4,26.2-9.8,51.3-1.5,62,.4.5,1,.8,1.7,1.1,1.9.8,4.8,1.7,8,6.4.8,1.2,1.6,2.5,2.3,3.8,1.9,3.4,3.7,7.1,5.8,10.3"/><path class="cls-1" d="M67.6,62.7c0,.6-.5,1-1.1,1.2-.6.2-1.2.3-1.8.2-3-.7-6,0-9-.2h0"/><path class="cls-1" d="M78.5,63.1s0,0,0,0c.4.4,1,.7,1.6.8.6.1,1.2,0,1.8,0,2,0,3.9.2,5.8.6,0-.1,0-.3-.2-.3"/><path class="cls-2" d="M47.9,60.7c0-.1.2-.3.3-.4,5.2-7.4,15.9-9.3,23.3-9.4,7.5,0,15.8,4.3,17.8,9.4"/></svg>