<?xml version="1.0" encoding="UTF-8"?><svg id="africaModest" xmlns="http://www.w3.org/2000/svg" width="235" height="321.9" viewBox="0 0 235 321.9"><defs><style>.cls-1{stroke-linecap:round;stroke-linejoin:round;}.cls-1,.cls-2{fill:none;stroke:#000;}.cls-2{stroke-miterlimit:10;}.cls-3,.cls-4,.cls-5,.cls-6,.cls-7,.cls-8,.cls-9,.cls-10{stroke-width:0px;}.cls-4{fill:#f8e7d7;}.cls-5{fill:#7080a9;}.cls-6{fill:#899bcf;}.cls-7{fill:#c6a893;}.cls-8{fill:#d98f8f;}.cls-9{fill:#fff;}.cls-10{fill:#ffb5b2;}</style></defs><path class="cls-9" d="M4.6,297.4c-.4.8-.7,1.7-.5,2.6.3,1.2,1.5,1.9,2.6,2.6,16,10.6,21.6,13.8,32.2,16.1,6.7,1.5,13.2-.6,11.4-8.5-.4-1.5-2.2-2-3.6-2.8-10.2-5.6-10-7-16.6-19.5-.7-1.2-1.4-1.4-2.7-.9-.1,0-.2,0-.4.1-1.5.6-2.6,1.9-3.6,3-.9,1-8.8.1-10.8-1.9-.3-.3-.5-.6-.5-.9-2.4,3.1-5.9,6.4-7.5,10Z"/><path class="cls-4" d="M27.3,159.9h0c2.7,2,4.3,3.2,6.1,4.5l-.2.3c-3.2,13.1-1.5,24.1-.9,33.3h.3c9.7-5.3,21.1-7.5,32.2-6.3,0,0,.2,0,.3,0,.3,1.4,1.7,1.9,3.1,1.9v-.3c-1.4-19.8-1.2-57-.1-73.1-.5,0-1,0-1.5,0-4.6,0-9-1.7-13-3.8-7.4-3.7-13.7-7.3-19.6-13-1.2-1.1-3.8-.8-4.6-1.9-4.2,3.2-14.6,34.1-15.4,39.4-1,6.4,8,15.2,13.5,18.9ZM35,125.3c0,1.5.2,4.9.3,6.3.4,4.8.3,14.8,0,16.5l-.2.2c-.3-.3-.6-.7-.9-1-3.3-3.6-3.6-3.8-5.9-5.4.6-1.2,4.1-10.6,6.6-16.7ZM38.1,166c.9-3.6,2.2-6.6,4.2-10,1.6,1.4,3.3,2.6,5.2,3.6,4,0,11.1-2.6,11.9,3.2,2.6,1.5,5.3,3.6,1.3,6,.4.5.6,1,.7,1.5.3,1.4-.5,2.6-1.4,3,1.9,1.3,0,3.4-1.1,3.7,1.8,4.5-7,2.2-8.9,1.1-2.7-1.5-7.3-5.1-7.1-8.5-1.6-1.1-3.2-2.5-4.8-3.6h0Z"/><path class="cls-6" d="M17.5,277.5c-1.2,3-2.7,6.2-5,10.8,2.1,2,9.9,3,10.8,1.9,1.1-1.2,2.1-2.4,3.6-3,.1,0,.3-.1.4-.1h0c.6-1.6,1.3-2.9,1.9-4.1h-.2c-4.4,0-8.9-2-11.5-5.5Z"/><path class="cls-5" d="M22,263c-1.8,6.4-2.8,10.2-4.5,14.5,2.6,3.4,7,5.5,11.5,5.4h.2c3.5-6.9,6.6-11,10.6-17,6.2-10.6,18.2-29.6,19.5-37.5,1.1-7,3.5-12.2,4.7-25,.3-3.3.5-7,.6-11.4h0c-11.1-1.3-22.5.9-32.2,6.2h-.3c.7,9.2,2.2,17.1,2.8,24.8.3,4.4-9.4,21.6-13,40.1Z"/><path class="cls-10" d="M58.3,92.8c-5.4-4.7-12.2-15.1-10.9-27.6h.1c2.7-6.8,3.1-7.7,4.8-10h0c6.4-14.9,13-16.4,20.4-16.3,7.7.2,16.9,4.3,18.1,11.5,0,.4.1.8.2,1.3h.3c-.6-20.4-28.9-23.8-38.4-21.8-7,1.5-15.2,8.4-18.7,14.3-3.5,5.9-4.7,14.5-4.7,21.3,0,6.8,2.8,11.8,4.2,18.5.8,3.8,1.6,4.8,0,8.3-1.1,2.3-4.7,6.1-4.5,8.6,0,.3.1.5.2.6.8,1.1,3.5.7,4.6,1.9,5.8,5.7,12.2,9.3,19.6,13,4.1,2.1,8.4,3.8,13,3.8.5,0,1,0,1.5,0,4.1-.4,7.9-2.2,9.5-5.8.3-.6.6-1.1,1-1.6,1.1-1.4,2.4-2.4,3.4-4,.2-.3.4-.7.5-1,.7-1.6.3-5.3,0-7-.5-3.4-.9-3.6-.7-7,.3-5.6,6.6-15.9,6.9-21.5h-.1c-.4,2.1-1.1,4.7-2.4,7.1-3.7,6.7-5.6,8.7-7.3,11.1-4.4,6.1-8.9,8.7-20.4,2.2Z"/><path class="cls-7" d="M59.3,162.8c-.8-5.7-7.9-3.2-11.9-3.2-1.9-1-3.6-2.3-5.2-3.6-2,3.4-3.3,6.4-4.2,10h0c1.6,1.1,3.2,2.5,4.8,3.6-.2,3.5,4.4,7,7.1,8.5,2,1.1,10.7,3.4,8.9-1.1,1.1-.3,3-2.4,1.1-3.7.9-.5,1.7-1.7,1.4-3-.1-.5-.3-1-.7-1.5,3.9-2.4,1.3-4.5-1.3-6Z"/><path class="cls-7" d="M47.3,65.2c-1.2,12.5,5.6,22.8,10.9,27.6,11.5,6.5,16,3.8,20.4-2.2,1.7-2.4,3.6-4.4,7.3-11.1,1.3-2.4,2-5,2.4-7.2.3-1.8.5-3.4.5-4.1,0-.3,0-.5,0-.6.7-3,1.6-5.5,1.5-8.6s-.9-6.1-2.9-8.5c-2-2.3-5.1-3.7-8.1-4.6-2.8-.8-5.7-1.1-8.6-1.3-6.1-.4-12.8,2.8-16,7.1-1.2,1.6-2,2.6-2.6,3.4-1.7,2.3-2.1,3.1-4.8,10h-.1ZM65.2,66.5c-1-.2-1.4-1.7-1-3.3.4-1.6,1.5-2.7,2.5-2.5,1,.2,1.4,1.7,1,3.3-.4,1.6-1.5,2.7-2.5,2.5ZM77.9,84.1c-4.3,9.2-12,2.1-11.8-3.7,6.9,2.2,8.5,3.7,11.8,3.7ZM83.3,70.8c-.9-.2-1.2-1.6-.9-3.2.4-1.5,1.4-2.6,2.3-2.4.9.2,1.3,1.6.9,3.2s-1.4,2.6-2.3,2.4Z"/><path class="cls-8" d="M52.2,55.2h0c.6-.8,1.4-1.8,2.6-3.4,3.2-4.3,9.9-7.5,16-7.1,2.9.2,5.8.4,8.6,1.3,3,.9,6.1,2.2,8.1,4.6,2,2.3,2.9,5.4,2.9,8.5s-.9,5.6-1.5,8.6c0,0,0,.2,0,.6h.1c2.1-5.2,2.5-11.9,1.9-16.4,0-.5-.1-.9-.2-1.3-1.2-7.3-10.4-11.4-18.1-11.5-7.4-.1-14,1.4-20.4,16.3Z"/><path class="cls-5" d="M107.1,258.5c.7-5.2,0-21.3,0-26.5-4.6-22.3-11.9-32.1-18.6-44.2-5.5-.2-11,1.1-15.7,3.8-1.4.8-2.7,1.7-4.3,1.9-.1,0-.3,0-.4,0-1.4,0-2.8-.5-3.1-1.9,0,0-.2,0-.3,0h0c-.1,4.5-.3,8.3-.6,11.6h0c6.9,12,10.3,15.9,18.5,26.3,4,5.1,5.4,12.9,5.8,22.2.2,3.8-.2,6.1.6,10.4.7,8.5,1.7,17.2,2.5,23.4h.1c4.5.5,9,0,13.3-1.3h.1c1-8.6,1.7-15,2.3-25.6h-.2Z"/><path class="cls-3" d="M64.2,63.2c-.4,1.6,0,3.1,1,3.3,1,.2,2.1-.9,2.5-2.5.4-1.6,0-3.1-1-3.3-1-.2-2.1.9-2.5,2.5Z"/><path class="cls-9" d="M66.1,80.3c-.1,5.9,7.5,12.9,11.8,3.7-3.3,0-5-1.5-11.8-3.7Z"/><path class="cls-4" d="M67.9,120.2c-1.1,16.1-1.3,53.3,0,73.1v.3c.1,0,.3,0,.4,0,1.6-.2,2.9-1.1,4.3-1.9,4.7-2.7,10.3-4.1,15.7-3.8-2.5-4.5-5-9.4-7.2-15.4-1.2-6-2.2-11.1-2.9-15.5-1.4-8.3-1.8-14.4-.6-20.5.6-3.3,2.5-15,.8-23.7-.4.5-.7,1-1,1.6-1.6,3.6-5.5,5.4-9.5,5.8Z"/><path class="cls-4" d="M91.9,161.1c.6-2.6,1.7-5,3.2-7.3.4-.6.9-1.3,1.4-1.9h0c-4.7-3-5.5-2.3-9.4-5.1-3.1-2.3-4.3-2.8-6.8-4.3,1.9-13,1.4-14.8,1.9-28.6,0-1.9.1-3-.4-5-.9,1.5-2.3,2.6-3.4,4,1.7,8.7-.1,20.4-.8,23.7-1.2,6.1-.8,12.1.6,20.5h.5c2.6,1.5,3.3,2,5.2,2.8,4.4,2,2.7,1.6,7.2,4h.2c.1-1,.3-1.8.5-2.7Z"/><path class="cls-3" d="M82.5,67.6c-.4,1.5,0,3,.9,3.2.9.2,1.9-.9,2.3-2.4s0-3-.9-3.2c-.9-.2-1.9.9-2.3,2.4Z"/><path class="cls-6" d="M91.5,285.5h-.1c.7,5.2,1.2,8.7,1.3,8.7,0,0,0,0,0,0,1.2,2,5.8,3.2,7.7,1.8,1.1-.8,1.7-2.1,2.1-3.4s.8-2.6,1.8-3.6c.2-1.7.4-3.2.6-4.7h-.1c-4.3,1.4-8.8,1.8-13.3,1.3Z"/><path class="cls-9" d="M92.7,294.1c-.9,3.4-1.3,6.9-1.3,10.5,0,.8,0,1.7.6,2.3.7.9,2,1.1,3.2,1.2,9.9,1.1,20.6,5.1,30.5,4.7,3.3-.1,6.7-.5,9.3-2.4s3.8-5.6,1.8-8c-1-1.1-2.5-1.7-3.9-2.2-8.2-3-17.2-8.8-25.4-11.9h-.1s0,0,0,0c-1.7-.4-2.1-.5-3.1.5-1,1-1.4,2.3-1.8,3.6s-1,2.6-2.1,3.4c-2,1.4-6.5.2-7.7-1.8,0,0,0,0,0,0Z"/><path class="cls-7" d="M91.9,161.1c2,1.4,4,2.9,6,4.3,1.1.8,2,2,2.7,3.2,1.4,2.5,7.3,6,10,4.8,2.3-1.1,6.9-9.7,5.6-12.7-1.2-2.8-8.9-5-11.1-2.8-3.2-1.4-6.6-2.7-9.8-4h-.2c-1.5,2.2-2.6,4.6-3.2,7.2Z"/><path class="cls-2" d="M57.9,92.6c.1,0,.2.1.4.2,11.5,6.5,16,3.8,20.4-2.2,1.7-2.4,3.6-4.4,7.3-11.1,1.3-2.4,2-5,2.4-7.2.3-1.8.5-3.4.5-4.1,0-.3,0-.5,0-.6.7-3,1.6-5.5,1.5-8.6s-.9-6.1-2.9-8.5c-2-2.3-5.1-3.7-8.1-4.6-2.8-.8-5.7-1.1-8.6-1.3-6.1-.4-12.8,2.8-16,7.1-1.2,1.6-2,2.6-2.6,3.4-1.7,2.3-2.1,3.1-4.8,10"/><line class="cls-2" x1="80.1" y1="99.6" x2="80" y2="99.6"/><line class="cls-2" x1="12.9" y1="310.9" x2="12.8" y2="310.7"/><path class="cls-2" d="M78.4,112.6c0,0,0,.1,0,.2,1.7,8.7-.1,20.4-.8,23.7-1.2,6.1-.8,12.1.6,20.5.7,4.4,1.7,9.5,2.9,15.5"/><path class="cls-2" d="M34.9,124.9c0-.6,0-.3,0,.4,0,1.5.2,4.9.3,6.3.4,4.8.3,14.8,0,16.5"/><path class="cls-1" d="M87,61c-.1-2.7-2.8-2.8-3.9-1.3"/><path class="cls-1" d="M69.2,54.8c-1.3-2.1-4-2.8-7-.5"/><path class="cls-1" d="M79,73.8c.4,2.5-.2,8-6.4,4.7"/><path class="cls-1" d="M82.5,67.6c-.4,1.5,0,3,.9,3.2.9.2,1.9-.9,2.3-2.4s0-3-.9-3.2c-.9-.2-1.9.9-2.3,2.4Z"/><path class="cls-1" d="M64.2,63.2c-.4,1.6,0,3.1,1,3.3,1,.2,2.1-.9,2.5-2.5.4-1.6,0-3.1-1-3.3-1-.2-2.1.9-2.5,2.5Z"/><path class="cls-1" d="M77.9,84.1c-3.3,0-5-1.5-11.8-3.7"/><path class="cls-1" d="M77.9,84.1c-4.3,9.2-12,2.1-11.8-3.7"/><line class="cls-1" x1="61.5" y1="170.2" x2="61.4" y2="170.3"/><line class="cls-1" x1="47.1" y1="159.6" x2="47.1" y2="159.7"/><path class="cls-1" d="M37.3,120.2c-.4.6-1.3,2.6-2.3,5.1-2.5,6.1-6,15.5-6.6,16.7"/><path class="cls-1" d="M29.4,101.5s0,0-.1,0c-4.2,3.2-14.6,34.1-15.4,39.4-1,6.4,8,15.2,13.5,18.9,0,0,.2.1.2.2"/><path class="cls-1" d="M47.9,159.8l-.5-.2c-1.9-1-3.6-2.3-5.2-3.6-2.9-2.5-5.2-5.4-7.2-7.6-.3-.3-.6-.7-.9-1-3.3-3.6-3.6-3.8-5.9-5.4-.6-.4-1.4-1-2.4-1.7"/><path class="cls-1" d="M38.1,166c1.6,1.1,3.2,2.5,4.8,3.6-.2,3.5,4.4,7,7.1,8.5,2,1.1,10.7,3.4,8.9-1.1,1.1-.3,3-2.4,1.1-3.7.9-.5,1.7-1.7,1.4-3-.1-.5-.3-1-.7-1.5,3.9-2.4,1.3-4.5-1.3-6-1.2-.7-2.3-1.2-2.9-1.7"/><path class="cls-1" d="M47.1,159.6h.3c4,0,11.1-2.6,11.9,3.2,0,0,0,0,0,0"/><path class="cls-1" d="M78.8,156.8c2.6,1.6,3.3,2,5.2,2.9,4.4,2,2.7,1.6,7.2,4"/><path class="cls-1" d="M96.5,151.8c-4.7-2.9-5.5-2.2-9.4-5-3.1-2.3-4.3-2.8-6.8-4.3"/><path class="cls-1" d="M81.8,108.7c0,0,0,0,0,.1.5,2,.5,3.1.4,5-.6,13.9,0,15.6-1.9,28.6"/><path class="cls-2" d="M39.9,265.9c6.2-10.6,18.2-29.6,19.5-37.5,1.1-7,3.5-12.2,4.7-25,.3-3.3.5-7,.6-11.4"/><path class="cls-2" d="M32.2,198c.7,9.2,2.2,17.1,2.8,24.8.3,4.4-9.4,21.6-13,40.1"/><path class="cls-2" d="M33.1,164.7c-3.2,13.1-1.5,24.1-.9,33.3"/><path class="cls-2" d="M81.2,172.4c2.2,6,4.7,10.8,7.2,15.4,6.8,12.2,14,22,18.6,44.2"/><path class="cls-2" d="M64,203.3c6.9,12,10.3,15.9,18.5,26.3,4,5.1,5.4,12.9,5.8,22.2.2,3.8-.2,6.1.6,10.4"/><path class="cls-2" d="M42.3,155.9h0c-2,3.5-3.3,6.4-4.2,10.1-.1.6-.3,1.1-.4,1.7-1.9-1.4-3.2-2.3-4.4-3.2-1.8-1.3-3.3-2.5-6.1-4.5,0,0,0,0,0,0"/><path class="cls-2" d="M67.9,120.1s0,0,0,0c-1.1,16.1-1.3,53.3,0,73.1"/><path class="cls-2" d="M107.1,232c0,5.2.7,21.3,0,26.5,0,0,0,0,0,0"/><path class="cls-1" d="M39.9,265.9c-4,6-7.2,10.1-10.6,17.1-.6,1.2-1.2,2.6-1.9,4"/><path class="cls-1" d="M22,263c-1.8,6.4-2.8,10.2-4.5,14.5-1.2,3-2.7,6.2-5,10.8"/><path class="cls-1" d="M12,287.4c0,.3.2.6.5.9,2.1,2,9.9,3,10.8,1.9,1.1-1.2,2.1-2.4,3.6-3,.1,0,.3-.1.4-.1,1.3-.5,1.9-.3,2.7.9"/><path class="cls-1" d="M12,287.4c-2.4,3.1-5.9,6.4-7.5,10-.4.8-.7,1.7-.5,2.6.3,1.2,1.5,1.9,2.6,2.6,16,10.6,21.6,13.8,32.2,16.1,6.7,1.5,13.2-.6,11.4-8.5-.4-1.5-2.2-2-3.6-2.8-10.2-5.6-10-7-16.6-19.5"/><path class="cls-1" d="M88.9,262.1c.7,8.5,1.7,17.2,2.5,23.4.7,5.2,1.2,8.6,1.3,8.6"/><path class="cls-1" d="M107.2,258.5c-.6,10.7-1.3,17-2.3,25.6-.2,1.5-.4,3-.6,4.7"/><line class="cls-1" x1="107.5" y1="288.4" x2="107.6" y2="288.4"/><path class="cls-1" d="M92.7,294.1c1.2,2,5.8,3.2,7.7,1.8,1.1-.8,1.7-2.1,2.1-3.4s.8-2.6,1.8-3.6c1-1,1.4-.9,3.1-.5"/><path class="cls-1" d="M92.7,294.1s0,0,0,0c-.9,3.4-1.3,6.9-1.3,10.5,0,.8,0,1.7.6,2.3.7.9,2,1.1,3.2,1.2,9.9,1.1,20.6,5.1,30.5,4.7,3.3-.1,6.7-.5,9.3-2.4s3.8-5.6,1.8-8c-1-1.1-2.5-1.7-3.9-2.2-8.2-3-17.2-8.8-25.4-11.9"/><path class="cls-2" d="M47.5,64.2c0,.4,0,.7-.1,1.1-1.2,12.5,5.6,22.8,10.9,27.6.2.2.5.4.7.6"/><path class="cls-1" d="M91.9,161.1s0,0,0,0c2,1.4,4,2.9,6,4.3,1.1.8,2,2,2.7,3.2,1.4,2.5,7.3,6,10,4.8,2.3-1.1,6.9-9.7,5.6-12.7-1.2-2.8-8.9-5-11.1-2.8-3.2-1.4-6.6-2.7-9.8-4"/><path class="cls-1" d="M96.5,151.9c-.5.6-.9,1.2-1.4,1.9-1.5,2.3-2.6,4.7-3.2,7.3-.2.8-.4,1.7-.5,2.6"/><path class="cls-1" d="M17.4,277.4s0,0,0,0c2.6,3.4,7,5.5,11.5,5.4"/><path class="cls-1" d="M91.5,285.5c4.5.5,9,0,13.3-1.3"/><path class="cls-1" d="M88.8,187.8c-.1,0-.2,0-.4,0-5.5-.2-11,1.1-15.7,3.8-1.4.8-2.7,1.7-4.3,1.9-.1,0-.3,0-.4,0-1.4,0-2.8-.5-3.1-1.9,0,0-.2,0-.3,0-11.1-1.2-22.5,1.1-32.2,6.3"/><path class="cls-2" d="M52.2,55.2c6.4-14.8,13-16.4,20.4-16.3,7.7.2,16.9,4.3,18.1,11.5,0,.4.1.8.2,1.3.5,4.5.1,11.2-1.9,16.4"/><path class="cls-2" d="M91.2,51.7c-.6-20.4-28.9-23.7-38.4-21.7-7,1.5-15.2,8.4-18.7,14.3-3.5,5.9-4.7,14.5-4.7,21.3,0,6.8,2.8,11.8,4.2,18.5.8,3.8,1.6,4.8,0,8.3-1.1,2.3-4.7,6.1-4.5,8.6,0,.3.1.5.2.6.8,1.1,3.5.7,4.6,1.9,5.8,5.7,12.2,9.3,19.6,13,4.1,2.1,8.4,3.8,13,3.8.5,0,1,0,1.5,0,4.1-.4,7.9-2.2,9.5-5.8.3-.6.6-1.1,1-1.6,1.1-1.4,2.4-2.4,3.4-4,.2-.3.4-.7.5-1,.7-1.6.3-5.3,0-7-.5-3.4-.9-3.6-.7-7,.3-5.6,6.6-15.9,6.9-21.5"/></svg>