<?xml version="1.0" encoding="UTF-8"?><svg id="africaModest" xmlns="http://www.w3.org/2000/svg" width="235" height="321.9" viewBox="0 0 235 321.9"><defs><style>.cls-1{stroke-linecap:round;stroke-linejoin:round;}.cls-1,.cls-2{fill:none;stroke:#000;}.cls-2{stroke-miterlimit:10;}.cls-3,.cls-4,.cls-5,.cls-6,.cls-7,.cls-8{stroke-width:0px;}.cls-4{fill:#3a3a3a;}.cls-5{fill:#afd1e1;}.cls-6{fill:#9d715e;}.cls-7{fill:#98bed2;}.cls-8{fill:#fff;}</style></defs><path class="cls-8" d="M216.5,201.8c3,1.3,3.6,5.5,1.9,8.5-1.7,3-4.8,4.9-7.9,6.5-9.4,5-19.4,8.4-29.4,11.9-1.2.4-2.6.8-3.6.3h-.3c-.4-.4-.6-.9-.9-1.4-1.7-3.5-2.9-7.1-3.7-10.9,0,0,0-.2,0-.3,1,4,11.2-6.9,10.5-8.3-.7-1.3-1.1-2.3-1.2-3.8.4,0,.7,0,1.1-.1h0c9-.8,19.9-2,28.8-2.8,1.6-.1,3.3-.3,4.7.3Z"/><path class="cls-4" d="M97.6,170.8c4.3,1.4,6.4,2.7,9.4,3.5,0,0,0,0,0,0,1,.4,2.2.8,3.4,1.3,4.7,1.8,10,3.9,12.4,4.8,9.3,3.8,8.6,2.3,20.3,9.4,15.3,5.6,23.6,8.9,38.9,14.5,0,1.5.5,2.4,1.2,3.8.7,1.3-9.5,12.3-10.5,8.3,0,0,0,.2,0,.3h-.2c-20.6-8.5-23.3-.2-35.7-11.5-10.9-2.1-12.4,0-19.7-.2-.1,0-.3,0-.4,0-1.5-.1-3.1-.3-4.6-.4-11.5-1.1-22.5-2.2-35.6-5.4-1-.2-1.9-.5-2.7-.7-1.1-.3-2-.6-2.7-.9-4.9-2.5-11.5-9.3-11.5-21.8,0-1.1,0-2.2.1-3.3,1.6-10,15.8-6.7,32.8-3,2,.4,3.7.9,5.1,1.4Z"/><path class="cls-8" d="M90.6,289.8c1.1,2.5,4.7,4,7.2,2.7,1.5-.8,2.4-2.3,3.2-3.7.7-1.3,1.3-2.6,2.3-3.6.1-.1.3-.3.5-.4,1.3-1,2.6-1.2,3.8,0h.1c9.2,5,15.9,10,25.1,14.9,1.6.9,3.2,1.8,4.2,3.2,2,3.1-.1,7.4-3.6,9.1s-7.6,1.6-11.5,1.2c-11.9-1.2-21-4.2-32.6-7.2-1.4-.4-2.9-.8-3.6-2-.5-.9-.4-1.9-.2-2.8.6-4.2,1.8-8.3,3.5-12.2h1.7c0,.2,0,.5,0,.7h0Z"/><path class="cls-4" d="M110.2,107.6c-3.3,2-7.1,4.2-9.2,7.2-.4.6-.7,1.1-.9,1.7-.2.4-1.4,3.3-4.2,6.1-3.6,3.6-9.9,7-19.6,4.2-7.1-1.1-9.1-6-10.3-11.4-.3-1.3-.5-2.6-.7-3.9-.6-3.4-1.3-6.8-3-9.2l-.2-.3c-.6-.8-1.5-.8-2.2-1.5-.7-.7-.1-3.8,0-4.8.2-14.1.9-28.6,6.4-41.7,1.8-4.2,4.1-8.2,6.9-11.8,9-11.6,28.3-16,42.4-6.8,5.6,3.7,7.7,4.3,11,10.2,2.4,4.4,3.8,17.5,1.1,31.3-2.1,10.8-6.5,16.6-11.8,26.1-.9,1.5-2.9,2.9-5.3,4.3,0,0,0,0-.1,0ZM85.9,58.7c-2.5,7.7-5.1,27.8.7,32.5,4.6,3.9,14.9,8.3,17.5,7.9,4.2-.7,10.3-6.3,10.3-6.3,8.2-6.6,6.5-20.8,7.7-22.7,1.2-2,2.3-4.5,2.8-8.5,0-.7.1-1.3.2-2.1-2.1-16.1-14-17.7-21.3-16.1-3.7.8-13.5,2.8-17.6,14.7,0,.2-.1.4-.2.5Z"/><path class="cls-4" d="M125,59.5c0,.7-.1,1.4-.2,2.1.3-4.8-9.8-9-14.4-9.8-7.4-1.4-19.4,1.2-24.5,6.9,0-.2.1-.4.2-.5,4.1-11.8,13.9-13.9,17.6-14.7,7.2-1.6,19.1,0,21.3,16.1Z"/><path class="cls-6" d="M105,61.2c-1.8-1.9-5.2-2.5-9-.3v.5c2.2-.2,4.4.2,6.1,1.1.6.3,1.3.7,2,.5.5-.1.7-.5.8-.8,0-.3,0-.7,0-1ZM110.4,51.8c4.6.8,14.7,5.1,14.4,9.8-.5,3.9-1.6,6.5-2.8,8.5-1.1,1.9.6,16.1-7.7,22.7,0,0-6.1,5.6-10.3,6.3-2.6.4-12.9-3.9-17.5-7.9-5.8-4.7-3.1-24.9-.7-32.5,5.1-5.6,17.1-8.2,24.5-6.9ZM120.5,67.7c.4,0,.9-.2.7-.5h-.3c.2-2.6-3.4-3.2-5.2-2.1h-.2c-.5.2-.4.9,0,1.2.5.3,1.2.4,1.9.5.7,0,1.3,0,1.9.3.4.1.7.4,1.1.4ZM118.2,73.8c.4-1.6,0-3-.9-3.1-.9-.2-1.9.9-2.2,2.5-.4,1.6,0,3,.9,3.1.9.2,1.9-.9,2.2-2.5ZM98.3,83.1c1.3,9.8,9.4,10.2,12.9,4.1-5.1-.5-8.3-1-12.9-4.1ZM101.2,69.9c.3-1.5-.1-2.9-1-3-.9-.2-1.9.9-2.3,2.4-.3,1.5.1,2.9,1,3.1.9.2,1.9-.9,2.3-2.4Z"/><path class="cls-3" d="M121.2,67.2c.2.3-.3.5-.7.5-.4,0-.8-.3-1.1-.4-.6-.2-1.3-.3-1.9-.3-.7,0-1.4-.2-1.9-.5-.5-.3-.6-1,0-1.2h.2c1.8-1.1,5.4-.6,5.2,2h.3Z"/><path class="cls-7" d="M95,142.4c0-.7,0-1.4-.1-2.1,0,.3-1.1.6-2.3,1h0c.1-2.7.4-5.3.8-7.9h0c3.2-5,6.6-7.9,10.1-11.2.6-.6,1.2-1.2,1.5-1.9.6-1.8-.8-3.5-2.2-4.8,3.4-1.3,7.2-1.8,10.8-1.5-.2-2.4-1.4-4.8-3.3-6.4,0,0,0,0,.1,0,3.4,1.9,5.6,5.1,7.2,9.1,2,5.5,1.8,12.7,2.4,18,.3,3.5,1.1,11.2-.6,14.6-1.1,2.1-2.2,2.3-3.2,3-3.5,1.4-6.4,2.2-9.1,2.7-4.2.8-7.8.7-11.8.3h0c0-4.2,0-8.5-.3-12.7Z"/><path class="cls-3" d="M117.2,70.7c.9.2,1.3,1.6.9,3.1-.4,1.5-1.4,2.7-2.2,2.5-.9-.2-1.3-1.6-.9-3.1.4-1.5,1.4-2.7,2.2-2.5Z"/><path class="cls-4" d="M111.8,205.6c3.2,11.4,6.5,14.1,6,22.8-1.3,10.9-2.3,14.9-5,25.1-2.9,10.6-5.8,21.3-9.6,31.4v.3c-1,1-1.6,2.3-2.3,3.6-.8,1.4-1.6,2.9-3.2,3.7-2.6,1.3-6.1-.2-7.2-2.7h0c0-.3,0-.5,0-.8-.3-10.8-1-27.7,2.3-37.5,1.2-3.4,2.4-7.4,3-11,.5-3.7.2-6.5-1.5-9.8-1.3-3.8-11.4-12.9-17.7-25h0c-1.2-2.3-2.2-4.7-3-7.2.8.2,1.7.5,2.7.7,13,3.2,24,4.3,35.6,5.4v1.1Z"/><path class="cls-5" d="M110.2,107.6c1.9,1.6,3.1,3.9,3.3,6.4-3.7-.3-7.4.2-10.8,1.5l-1.6-.6c2.1-3,5.9-5.2,9.2-7.2Z"/><path class="cls-7" d="M107,174.4s0,0,0,0c-3-.8-5.1-2.2-9.4-3.5-2.5-4.1-4.2-8.6-4.8-13.4v-.4c.8,0,1.6.1,2.4.2,0-.7,0-1.4,0-2.1h0c4.1.4,7.7.5,11.8-.3,0,4.2,1.9,15.4,3.3,20.8-1.2-.5-2.3-.9-3.4-1.3Z"/><path class="cls-8" d="M111.1,87.3c-3.5,6.1-11.6,5.7-12.9-4.1,4.6,3.1,7.8,3.6,12.9,4.1Z"/><path class="cls-3" d="M105,61.2c0,.3.1.7,0,1,0,.3-.4.7-.8.8-.7.2-1.4-.2-2-.5-1.8-.9-4-1.3-6.1-1.1v-.5c3.7-2.2,7.1-1.6,8.9.3Z"/><path class="cls-5" d="M102.7,115.5c1.3,1.3,2.8,3.1,2.2,4.8-.3.8-.9,1.4-1.5,1.9-3.5,3.3-6.9,6.2-10.1,11.2.6-3.6,1.5-7.2,2.7-10.7h0c2.8-2.8,4.1-5.7,4.2-6.1.2-.6.6-1.2.9-1.7l1.6.6Z"/><path class="cls-3" d="M100.2,66.8c.9.2,1.4,1.5,1,3-.3,1.5-1.4,2.6-2.3,2.4-.9-.2-1.4-1.5-1-3.1.3-1.5,1.4-2.5,2.3-2.4Z"/><path class="cls-8" d="M95.9,122.6h0c-1.2,3.5-2.1,7.1-2.7,10.8h0c-.4,2.6-.7,5.2-.8,7.8h0c-1.2.4-2.4.7-2.7.7-1.6.4-2.1.4-2.2,1.8h0c-.7.1-1.2.2-1.8.3h0c-.1-3.2-10.2-8.5-12.9-7.2-3,1.4-6.7,12.7-5.8,15,1.1,2.7,10.9,2.4,13.6,1.4,2.6.3,4.5.5,6.7.8h0c0,.8,0,1.7,0,2.5,1.8.2,3.7.3,5.5.5v.4c.6,4.7,2.2,9.3,4.8,13.4-1.4-.5-3.1-.9-5.1-1.4-17-3.7-31.3-7.1-32.8,3,0,1.2-.1,2.3-.1,3.3-1.8-6.5-1.9-11.4-1.2-17.6.6-5.1,1.6-11.1,2.6-19.6.3-2.6.6-5.4.9-8.5,1.1-6,2.1-8.8,4.4-14.5,1.1,5.4,3.1,10.3,10.3,11.4,9.7,2.8,15.9-.6,19.6-4.2Z"/><path class="cls-5" d="M95,142.4c.2,4.2.3,8.5.3,12.7,0,.7,0,1.4,0,2.1-.8,0-1.6-.1-2.4-.2-1.8-.2-3.7-.3-5.5-.5,0-.8,0-1.7,0-2.5,0-3.3,0-6.5.2-9.8,0-.2,0-.4,0-.6.1-1.3.6-1.4,2.2-1.8.3,0,1.5-.3,2.7-.7,1.2-.3,2.3-.7,2.3-1,0,.7,0,1.4.1,2.1Z"/><path class="cls-6" d="M85.8,144c.6-.1,1.1-.2,1.8-.3h0c0,.2,0,.4,0,.6-.2,3.2-.2,6.5-.2,9.8h0c-2.1-.3-4.1-.6-6.7-.8-2.7,1-12.5,1.3-13.6-1.4-.9-2.3,2.8-13.6,5.8-15,2.8-1.3,12.8,4,12.9,7.1h0Z"/><path class="cls-7" d="M76.7,205.6c-3.6,2.1-20.6-3.3-24.7-3.6,1-13.4,2.9-30.2,6.3-44-.7,6.2-.6,11.1,1.2,17.6,0,12.5,6.6,19.3,11.5,21.8.7.3,1.6.6,2.7.9.8,2.5,1.9,4.9,3,7.2Z"/><path class="cls-5" d="M65.4,111.6c.2,1.3.5,2.6.7,3.9-2.2,5.7-3.2,8.5-4.4,14.5-.3,3.1-.6,5.9-.9,8.5h-.3c0-4.9.3-8.4.1-12.2-.1-2.4-.5-4.9-1.2-7.9-1-1.9-1.2-3-1.2-3,.1-.3,4.9-2.3,5.2-3.1,0,0,0-.2,0-.3l1.8-.3Z"/><path class="cls-5" d="M65.4,111.6l-1.8.3c-.3-1.4-2.8-6.6-4.9-7.8,1-1,2.3-1.6,3.7-1.7h0c1.8,2.4,2.4,5.7,3,9.1Z"/><path class="cls-7" d="M63.6,111.9c0,.1,0,.2,0,.3-.3.8-5,2.8-5.2,3.1,0,0,.2,1.1,1.2,3,.7,3,1,5.5,1.2,7.9h-1.5c-.3.3-.6.5-.9.8-3.8,2.8-11.7,7.7-16.4,11.4-2.5,4.5-4.2,7.2-6.2,10.2h0c-.2,0-.5-.2-.8-.3-3.2-1.3-6.6-1.5-10-1,1.8-5.3,4.1-10,8.3-16,3.3-4.8,9.9-13.4,13.3-16.8,2.3-2.8,7.4-10.4,13.5-14,.7.8,1.6.7,2.2,1.5l.2.3h0c-1.4.2-2.7.8-3.7,1.7,2.2,1.2,4.7,6.4,4.9,7.8Z"/><path class="cls-7" d="M60.6,138.5h.3c-1,8.5-2,14.5-2.6,19.6-3.4,13.8-5.2,30.6-6.3,44-2.7-22.5-.8-53.4,6.3-74.9h0c.3-.3.7-.5.9-.7h1.5c.2,3.7,0,7.2-.1,12.1Z"/><path class="cls-5" d="M24.8,147.6c3.4-.5,6.8-.4,10,1,.3.1.5.2.8.4.3.2.6.4.9.8.5.8.4,1.8.3,2.7-.2,1.3-.4,2.7-1.4,3.4-.7.5-1.6.6-2.4.6-.6,0-1.2,0-1.9,0-2.7,0-5.3-.3-7.9-.9-.2,0-.4,0-.6-.1-.5-.1-1.1-.3-1.4-.7-.3-.4-.3-1-.2-1.5.3-2.8.9-5.2,3.8-5.6,0,0,.1,0,.2,0Z"/><path class="cls-6" d="M29.9,158.6h0c2.5.7,4.8,9.8,3.2,11.8-1.7,2.1-11.7,3-13.4,1.9-2-1.4.2-9.3,1.5-11.3.5-2.3,1.3-3.6,1.8-5.5h0c2.6.6,5.2.8,7.9.9-.5.9-.8,1.4-1.2,2.2Z"/><path class="cls-1" d="M23.2,155.5c-.5,2-1.3,3.2-1.8,5.5"/><path class="cls-1" d="M46.4,114.7c-3.3,3.4-9.9,12.1-13.3,16.8-4.2,6-6.6,10.7-8.3,16,0,0,0,0,0,0"/><path class="cls-1" d="M31.1,156.4c-.5.9-.8,1.4-1.2,2.2h0c0,.2-.2.3-.3.5"/><path class="cls-1" d="M59.2,126.4c-.3.2-.6.5-.9.7-3.8,2.8-11.7,7.7-16.4,11.4-2.5,4.5-4.2,7.2-6.2,10.2"/><path class="cls-1" d="M30,158.7c2.5.7,4.8,9.8,3.2,11.8-1.7,2.1-11.7,3-13.4,1.9-2-1.4.2-9.3,1.5-11.3"/><path class="cls-1" d="M120,134.6c-.6-5.3-.4-12.5-2.4-18-1.5-4.1-3.7-7.2-7.2-9.1"/><path class="cls-1" d="M87.3,154.1c-2.1-.3-4.1-.6-6.7-.8"/><path class="cls-1" d="M116.2,152.1c-3.5,1.4-6.4,2.2-9.1,2.7-4.2.8-7.8.7-11.8.3"/><path class="cls-1" d="M87.6,143.7c-.7.1-1.2.2-1.8.3-.2,0-.4,0-.7.1"/><path class="cls-1" d="M110.2,140c-.7.2-1.4.4-2,.5-5.9,1.4-9.4,1.5-13.3,1.9"/><path class="cls-1" d="M85.8,143.9c-.1-3.1-10.2-8.4-12.9-7.1-3,1.4-6.7,12.7-5.8,15,1.1,2.7,10.9,2.4,13.6,1.4"/><path class="cls-1" d="M120,134.6c.3,3.5,1.1,11.2-.6,14.6-1.1,2.1-2.2,2.3-3.2,3"/><path class="cls-1" d="M61.7,130c-.3,3.1-.6,5.9-.9,8.5-1,8.4-2,14.4-2.6,19.6-.7,6.2-.6,11.1,1.2,17.6"/><path class="cls-1" d="M107.1,154.9c0,4.2,1.9,15.4,3.3,20.8"/><path class="cls-1" d="M59.5,118.4c.7,3,1,5.5,1.2,7.9.2,3.8,0,7.3-.1,12.2"/><path class="cls-1" d="M107,174.3c-1.2-.4-2.2-.8-3-1.1"/><path class="cls-1" d="M122.7,180.4c-2.3-.9-7.7-3-12.4-4.8-1.2-.5-2.3-.9-3.4-1.3"/><path class="cls-1" d="M76.4,199.2c13,3.2,24,4.3,35.6,5.4,1.5.1,3.1.3,4.6.4"/><path class="cls-1" d="M71.1,197.5c.7.3,1.6.6,2.7.9.8.2,1.7.5,2.7.7"/><path class="cls-1" d="M117.9,228.5c.4-8.7-2.8-11.4-6-22.8"/><path class="cls-1" d="M76.7,205.6c6.2,12.1,16.3,21.2,17.7,25"/><path class="cls-1" d="M73.7,198.4c.8,2.5,1.9,4.9,3,7.2"/><path class="cls-1" d="M117.9,228.5c-1.3,10.9-2.3,14.9-5,25.1-2.9,10.6-5.8,21.3-9.6,31.4"/><path class="cls-1" d="M94.4,230.7c1.7,3.3,2,6.1,1.5,9.8-.5,3.6-1.8,7.6-3,11-3.3,9.9-2.6,26.7-2.3,37.5,0,.3,0,.5,0,.8"/><path class="cls-1" d="M59.7,172.4c0,1.2-.1,2.3-.1,3.3,0,12.5,6.6,19.3,11.5,21.8"/><path class="cls-1" d="M122.7,180.4c9.3,3.8,8.6,2.3,20.3,9.4"/><path class="cls-1" d="M116.9,205c7.4.3,8.8-1.9,19.7.2"/><path class="cls-1" d="M116.5,205c.1,0,.3,0,.4,0"/><path class="cls-1" d="M136.7,205.1c12.4,11.3,15.1,3,35.7,11.6"/><path class="cls-1" d="M181.9,204.4c-15.3-5.6-23.6-8.9-38.9-14.5"/><path class="cls-1" d="M181.8,203.7s0,0,0,0c0,.1.3.6,1.2.5"/><path class="cls-1" d="M172.5,216.4c1,4,11.2-6.9,10.5-8.3-.7-1.3-1.1-2.3-1.2-3.8,0-.4,0-.6,0-.6"/><path class="cls-1" d="M177.5,228.9c1.1.5,2.4.1,3.6-.3,10-3.4,20-6.9,29.4-11.9,3.1-1.6,6.2-3.6,7.9-6.5,1.7-3,1.1-7.2-1.9-8.5-1.4-.6-3.1-.5-4.7-.3-8.8.8-19.8,2-28.8,2.8h0c-.4,0-.7,0-1.1.1"/><path class="cls-1" d="M172.5,216.4c0,0,0,.2,0,.3.8,3.8,2,7.4,3.7,10.9.2.5.5,1,.9,1.4.2.3.5.5.8.6"/><path class="cls-1" d="M108.8,174.7c-.7-.1-1.2-.2-1.8-.4,0,0,0,0,0,0-3-.8-5.1-2.2-9.4-3.5-1.4-.5-3.1-.9-5.1-1.4-17-3.7-31.3-7.1-32.8,3"/><path class="cls-2" d="M106,123.1c.1.9,2,15.1,2.3,17.4,0,.1,0,.2,0,.3"/><path class="cls-1" d="M125,59.5c0,.7-.1,1.4-.2,2.1-.5,3.9-1.6,6.5-2.8,8.5-1.1,1.9.6,16.1-7.7,22.7,0,0-6.1,5.6-10.3,6.3-2.6.4-12.9-3.9-17.5-7.9"/><path class="cls-1" d="M113.1,79.3c.4,2.4,0,6-8.4,2.2"/><path class="cls-1" d="M111.1,87.3c-5.1-.5-8.3-1-12.9-4.1"/><path class="cls-1" d="M111.1,87.3c-3.5,6.1-11.6,5.7-12.9-4.1"/><path class="cls-1" d="M76.4,126.9c9.7,2.8,15.9-.6,19.6-4.2,2.8-2.8,4.1-5.7,4.2-6.1.2-.6.6-1.2.9-1.7,2.1-3,5.9-5.2,9.2-7.2,0,0,0,0,.1,0,2.4-1.5,4.5-2.8,5.3-4.3,5.4-9.5,9.8-15.4,11.8-26.1,2.7-13.8,1.3-26.9-1.1-31.3-3.2-5.9-5.3-6.5-11-10.2-14-9.2-33.4-4.8-42.4,6.8-2.8,3.6-5.1,7.6-6.9,11.8-5.5,13-6.2,27.5-6.4,41.7,0,1-.6,4.1,0,4.8.7.8,1.6.7,2.2,1.5l.2.3c1.8,2.4,2.4,5.7,3,9.2.2,1.3.5,2.6.7,3.9,1.1,5.4,3.1,10.3,10.3,11.4"/><path class="cls-1" d="M59.9,100.7c-6.1,3.6-11.2,11.2-13.5,14"/><path class="cls-1" d="M125,59.5c-2.1-16.1-14-17.7-21.3-16.1-3.7.8-13.5,2.8-17.6,14.7,0,.2-.1.4-.2.5-2.5,7.7-5.1,27.8.7,32.5"/><path class="cls-1" d="M94.8,140.3c0,.3-1.1.6-2.3,1-1.2.3-2.4.6-2.7.7-1.6.4-2.1.4-2.2,1.8,0,.2,0,.4,0,.6-.2,3.2-.2,6.5-.2,9.8,0,.8,0,1.7,0,2.5,1.8.2,3.7.3,5.5.5.8,0,1.6.1,2.4.2,0-.7,0-1.4,0-2.1,0-4.2,0-8.5-.3-12.7,0-.7,0-1.4-.1-2.1h0"/><path class="cls-1" d="M24.8,147.6c0,0-.1,0-.2,0-2.9.4-3.5,2.8-3.8,5.6,0,.5,0,1.1.2,1.5.3.4.9.6,1.4.7.2,0,.4,0,.6.1,2.6.6,5.2.8,7.9.9.6,0,1.2,0,1.9,0,.8,0,1.7-.1,2.4-.6,1-.7,1.3-2.1,1.4-3.4.1-.9.2-1.9-.3-2.7-.2-.3-.5-.6-.9-.8-.2-.1-.5-.3-.8-.4-3.2-1.3-6.6-1.5-10-1Z"/><path class="cls-1" d="M66.1,115.5s0,0,0,0c-2.2,5.7-3.2,8.5-4.4,14.5"/><path class="cls-1" d="M58.3,127.2c-7.1,21.5-9,52.4-6.3,74.9,4.1.3,21.2,5.7,24.7,3.6h0"/><path class="cls-1" d="M93.3,133.4c-.4,2.6-.7,5.2-.8,7.8"/><path class="cls-1" d="M96,122.7c-1.2,3.5-2.1,7.1-2.7,10.7"/><path class="cls-1" d="M92.8,157.4c.6,4.7,2.3,9.3,4.8,13.4l.2.3"/><path class="cls-1" d="M110.2,107.6s0,0,0,0c1.9,1.6,3.1,3.9,3.3,6.4-3.7-.3-7.4.2-10.8,1.5,1.3,1.3,2.8,3.1,2.2,4.8-.3.8-.9,1.4-1.5,1.9-3.5,3.3-6.9,6.2-10.1,11.2h0"/><path class="cls-1" d="M62.3,102.5c-1.4.1-2.7.7-3.7,1.7,2.2,1.2,4.7,6.4,4.9,7.8,0,.1,0,.2,0,.3-.3.8-5,2.8-5.2,3.1,0,0,.2,1.1,1.2,3"/><path class="cls-1" d="M120.9,67.2c.2-2.6-3.4-3.1-5.2-2"/><path class="cls-1" d="M105,61.3s0,0,0,0c-1.8-1.9-5.2-2.5-9-.3"/><path class="cls-1" d="M115,73.2c-.4,1.6,0,3,.9,3.1.9.2,1.9-.9,2.2-2.5.4-1.6,0-3-.9-3.1-.9-.2-1.9.9-2.2,2.5Z"/><path class="cls-1" d="M97.9,69.2c-.3,1.5.1,2.9,1,3.1.9.2,1.9-.9,2.3-2.4.3-1.5-.1-2.9-1-3-.9-.2-1.9.9-2.3,2.4Z"/><path class="cls-1" d="M105,61.2s0,0,0,0c0,.3.1.7,0,1,0,.3-.4.7-.8.8-.7.2-1.4-.2-2-.5-1.8-.9-4-1.3-6.1-1.1-.3,0-.6,0-.9,0,.1-.1.2-.3.4-.4"/><path class="cls-1" d="M115.5,65.2c-.5.2-.4.9,0,1.2.5.3,1.2.4,1.9.5.7,0,1.3,0,1.9.3.4.1.7.4,1.1.4.4,0,.9-.2.7-.5"/><path class="cls-1" d="M90.6,289.7s0,0,0,0c1.1,2.5,4.7,4,7.2,2.7,1.5-.8,2.4-2.3,3.2-3.7.7-1.3,1.3-2.6,2.3-3.6.1-.1.3-.3.5-.4,1.3-1,2.6-1.2,3.8,0"/><path class="cls-1" d="M88.9,289c-1.7,3.9-2.8,8-3.5,12.2-.1,1-.2,2,.2,2.8.7,1.2,2.2,1.6,3.6,2,11.5,3,20.6,6,32.6,7.2,3.9.4,8.1.5,11.5-1.2s5.6-6,3.6-9.1c-1-1.5-2.6-2.4-4.2-3.2-9.2-5-15.9-9.9-25.1-14.9"/><path class="cls-1" d="M58.3,158.1c-3.4,13.8-5.2,30.6-6.3,44"/><path class="cls-2" d="M85.7,58.9c0,0,.1-.2.2-.3,5.1-5.6,17.1-8.2,24.5-6.9,4.6.8,14.7,5.1,14.4,9.8,0,.2,0,.3,0,.5"/></svg>