<?xml version="1.0" encoding="UTF-8"?><svg id="africaModest" xmlns="http://www.w3.org/2000/svg" width="235" height="321.9" viewBox="0 0 235 321.9"><defs><style>.cls-1{stroke-linecap:round;stroke-linejoin:round;}.cls-1,.cls-2{fill:none;stroke:#000;}.cls-2{stroke-miterlimit:10;}.cls-3,.cls-4,.cls-5,.cls-6,.cls-7{stroke-width:0px;}.cls-4{fill:#5280df;}.cls-5{fill:#805d50;}.cls-6{fill:#fff;}.cls-7{fill:#e6add9;}</style></defs><path class="cls-5" d="M36.3,132.5h0c4.8-4.3,8.6-7.4,11.3-9.6-1-8-1.6-15.2-1.4-18.3,0-.3,0-.6,0-.9-3.8,3.6-5.4,5.3-5.6,5.6-3.8,4.3-9.7,12.2-12.9,16.7-.9,1.3-1.8,2.6-2.5,3.8-2.3,4.4-7.1,20.2-9.3,26.3v.4c-1.4,2.2-4.6,12.1-2.5,13.6,1.8,1.2,12-.3,14.4-2,1.4-1-.9-10-2.2-11,.6-5.9,9-19.5,10.6-24.6Z"/><path class="cls-4" d="M67.5,78.2s0,0,0,0c-.6-3-.3-7.4,1.5-15.4,0,0,15.7-16.8,24.1-15.7,6.5.9,11.4,7.6,14.5,16.3-.7,4.4-.1,3.7-1.7,10.8-1.3,5.8-1.1,8.8-6.2,14.1-10.3,10.8-19.5,11.4-28.7-3-1.6-2.5-3-4.2-3.6-7ZM53.8,152.6c.3.7.6,1.4.9,1.9,3.2,5,8.3,6.7,13.7,6.2h.2c-.9-3.6-.6-12.6,1.6-14.6,2.3-2,13.4.2,14.5,3.1,1-.3,1.9-.5,2.8-.8,4-5.4,7.1-11.4,9-16.2.5-1.3,1.1-2.5,1.6-3.6.4-.9.9-1.7,1.3-2.4,4.4-7.2,8.7-7.5,10-8.6.2-.1.3-.3.3-.5.9-2.9-3.3-12.5-3.9-15.2-.7-2.9-.7-5.8-.6-8.8.3-8.9,5.8-19,5.9-28.5,0-7.7-.2-15.8-5.9-21.3-7.1-6.9-12.9-10.9-27.2-8.2-10,1.9-15.9,5.7-20.3,14.8-5.5,11.2-4.9,18.4-3,32.5,1,6.8-7.1,13.3-8.1,20,0,.5-.1.9-.2,1.4,0,.3,0,.6,0,.9-.2,3.2.3,10.3,1.4,18.3,1.4,11.1,3.7,23.9,6.1,29.6Z"/><path class="cls-7" d="M103.4,174.7c-1.2-3.6-4.4-12.4-6-19h0c-4.6,1.5-9.4,2.7-13.3,3.7h-.3c-2.3,1.8-13,4.7-14.7,2.4-.2-.3-.4-.7-.5-1.2h-.2c-5.4.6-10.5-1.1-13.7-6.1-.3-.5-.6-1.1-.9-1.9,0,2.9.1,13,0,15.1h.1c-.6,9,.7,16.8,5,24.2,4.4,7.4,8.8,14.7,12.4,22.4,11.9,25.7,16.4,50.6,16,76.6.9-1,1.8-2,2.8-2.9,4.9-4.6,10.6-8.1,16.4-11.3,7.2-4,14.6-7.8,20.9-13.2,9-7.6,15.4-18.1,22.1-27.7,2.6-3.7,5.8-7.1,9.5-9.8,5.9-4.4,12.9-7,20.1-6.2h0c-2.8-1.8,2.6,1.4-7.7-4.6-5.8-3.1-23.3-12.5-29.6-16.7-3.3-2.2-20.2-14.7-38.5-23.9Z"/><path class="cls-5" d="M94,85.6h0c-1.6,2.2-3.1,3.3-6.2,3.3-1.9,0-5.6-.8-7.3-2.2-1.6-1.3-2.4-1.8-4.2-5.1.9,1.1,12.1,5.1,17.7,4ZM69,62.8c-1.8,8.1-2.1,12.4-1.5,15.4,0,0,0,0,0,0,.6,2.8,1.9,4.5,3.6,7,9.2,14.4,18.4,13.8,28.7,3,5.1-5.3,4.9-8.3,6.2-14.1,1.6-7.1,1-6.4,1.7-10.8-3.1-8.7-8.1-15.3-14.5-16.3-8.5-1.1-24.1,15.7-24.1,15.7ZM81.4,71.4c-1-.1-1.7-1.9-1.4-3.9.3-2,1.3-3.6,2.3-3.5,1,.1,1.7,1.9,1.4,3.9-.3,2-1.3,3.6-2.3,3.5ZM99.7,73.3c-.8-.1-1.4-1.6-1.1-3.4.2-1.8,1.1-3.1,1.9-3,.8.1,1.4,1.6,1.1,3.4-.2,1.8-1.1,3.1-1.9,3Z"/><path class="cls-5" d="M87.5,148.5c-.9.3-1.8.5-2.8.8-1.1-2.9-12.2-5.2-14.5-3.1-2.2,1.9-2.5,10.9-1.6,14.5.1.5.3.9.5,1.2,1.8,2.3,12.4-.6,14.7-2.3h.3c3.9-1.1,8.6-2.3,13.3-3.9,8.2-2.6,16.2-6.1,19.6-10.5,2.6-3.5-2.3-14.7-5.4-21.1-.9-1.8-1.2-3.3-2.2-6.3-1.3,1.1-5.6,1.4-10,8.6h0c1,2.4.4.6,5,13.8h0c-3.3,2-5.9,3.6-8.3,4.8-2.9,1.5-5.5,2.6-8.7,3.6Z"/><path class="cls-6" d="M76.3,81.6c1.8,3.3,2.5,3.8,4.2,5.1,1.7,1.4,5.4,2.2,7.3,2.2,3.1,0,4.7-1.1,6.2-3.2h0c-5.5,1-16.8-3-17.7-4.1Z"/><path class="cls-3" d="M79.9,67.5c-.2,2,.4,3.8,1.4,3.9,1,.1,2.1-1.4,2.3-3.5.2-2-.4-3.8-1.4-3.9-1-.1-2.1,1.4-2.3,3.5Z"/><path class="cls-4" d="M90.2,294.5c-.9,3.7-1.3,7.5-1.3,11.3,0,.9,0,1.8.6,2.5.7,1,2.1,1.2,3.3,1.3,10.1,1.2,21.2,5.5,31.4,5,3.3-.1,6.9-.5,9.5-2.5s3.9-6.1,1.8-8.6c-1-1.2-2.5-1.8-4-2.3-8.4-3.3-17.7-9.5-26.1-12.8h-.1c-1.2-.4-1.8-.5-2.3-.2-.3.1-.5.3-.9.7-1,1.1-1.4,2.5-1.9,3.9-.4,1.4-1,2.8-2.2,3.7-2,1.5-6.7.2-7.9-1.9Z"/><path class="cls-5" d="M90.1,288.1c-.1,6.3.1,3.6.1,6.4,1.2,2.2,5.9,3.4,7.9,1.9,1.2-.9,1.7-2.3,2.2-3.7.4-1.4.9-2.8,1.9-3.9.3-.3.6-.6.9-.7h0c.9-2.6,1.4-3.8,1.7-4.7.5-1.5.6-2.2,1.9-6.6h0c-5.9,3.2-11.5,6.6-16.4,11.2Z"/><path class="cls-7" d="M96.4,132.3c-1.9,4.7-5,10.8-9,16.2,3.2-1,5.8-2.1,8.7-3.6.3-5.3,1.3-12,1.9-16.2-.5,1.1-1.1,2.3-1.6,3.6Z"/><path class="cls-3" d="M98.6,69.9c-.2,1.8.3,3.3,1.1,3.4.8.1,1.7-1.2,1.9-3,.2-1.8-.3-3.3-1.1-3.4-.8-.1-1.7,1.2-1.9,3Z"/><path class="cls-7" d="M104.6,283.5h.1c20.4-4,58.2-33.2,65.3-52.8h0c-4.4-2.5-6.7-2.6-11-4.6h0c-3.7,2.7-6.9,6.1-9.5,9.8-6.7,9.6-13.2,20.1-22.1,27.7-6.4,5.4-13.8,9.2-20.9,13.2h0c-1.3,4.5-1.4,5.2-1.9,6.7Z"/><path class="cls-5" d="M174.2,233.1c0,0,0,.1,0,.2,1.2,2.7,11.5-5.2,11.1-6.5-.4-1.4-.7-2.3-.4-3.7-3.2-1.9-4.9-2.8-5.7-3.4h0c-7.2-.7-14.2,1.9-20.1,6.3h0c4.3,2,6.6,2,11,4.5,1.1.6,2.4,1.4,4,2.5h.2Z"/><path class="cls-4" d="M174.3,233.3h-.1c.1,3.8.7,7,1.7,10.6.2.8.5,1.7,1.2,2.2,1.1.3,2-.2,3.2-.4,9.9-1.6,19.9-3.1,29.6-6.2,3.1-1,6.4-2.3,8.5-4.8,2-2.5,2.3-6.6-.4-8.3-1.2-.8-2.8-1-4.4-1.1-8.8-.8-19.8-1.5-28.6-2.2-.2,1.4,0,2.4.4,3.7.4,1.3-9.9,9.1-11.1,6.5Z"/><path class="cls-1" d="M98,128.7c-.6,4.2-1.6,11-1.9,16.2"/><path class="cls-2" d="M98.1,128.3c0,.1,0,.2,0,.4"/><path class="cls-2" d="M53.8,152.1c0,.1,0,.3,0,.5,0,2.9.1,13,0,15.1,0,.1,0,.2,0,.2"/><path class="cls-2" d="M172.7,215.9c-.3-.2-.7-.4-1.2-.6-5.8-3.1-23.3-12.5-29.6-16.7-3.3-2.2-20.2-14.7-38.5-23.9-8.4-4.2-17-7.6-24.8-9"/><path class="cls-2" d="M97.4,155.7c1.7,6.6,4.8,15.4,6,19,0,.2.1.4.2.5"/><path class="cls-1" d="M46.5,103.7s0,0,0,0c-3.8,3.6-5.4,5.3-5.6,5.6-3.8,4.3-9.7,12.2-12.9,16.7-.9,1.3-1.8,2.6-2.5,3.8"/><path class="cls-1" d="M47.7,122.9s0,0,0,0c-2.7,2.2-6.5,5.2-11.3,9.6"/><path class="cls-1" d="M25.7,157.2c1.3,1,3.6,9.9,2.2,11-2.4,1.8-12.6,3.3-14.4,2-2.1-1.5,1-11.4,2.5-13.6"/><path class="cls-1" d="M107.5,138.3c-1.1.7-2.1,1.3-3.1,1.9-3.3,2-5.9,3.5-8.3,4.8-2.9,1.5-5.5,2.6-8.7,3.6-.9.3-1.8.5-2.8.8,0,0-.2,0-.3,0,0,0,0,0,0,0"/><path class="cls-1" d="M84.7,149.3s0,0,0,0c-1.1-2.9-12.2-5.2-14.5-3.1-2.2,1.9-2.5,10.9-1.6,14.5.1.5.3.9.5,1.2,1.8,2.3,12.4-.6,14.7-2.3"/><path class="cls-1" d="M109.3,117.6s0,0,0,.1c.9,3,1.3,4.5,2.2,6.3,3.2,6.4,8,17.6,5.4,21.1"/><path class="cls-1" d="M99.4,126.2c1,2.4.4.6,5,13.8"/><path class="cls-2" d="M179.2,219.9c-7.2-.8-14.2,1.8-20.1,6.2-3.7,2.7-6.9,6.2-9.5,9.8-6.7,9.6-13.2,20.1-22.1,27.7-6.4,5.4-13.8,9.2-20.9,13.2-5.9,3.3-11.5,6.7-16.4,11.3-1,.9-1.9,1.9-2.8,2.9"/><path class="cls-2" d="M170,230.7c-7.1,19.6-44.9,48.8-65.3,52.8"/><path class="cls-2" d="M53.8,167.7c-.6,8.9.7,16.8,5,24.1,4.4,7.4,8.8,14.7,12.4,22.4,11.9,25.7,16.4,50.6,16,76.6"/><path class="cls-2" d="M16,156.2c2.2-6.1,7-21.9,9.3-26.3"/><path class="cls-2" d="M36.4,132.3c0,0,0,.2,0,.3-1.6,5.2-9.9,18.8-10.6,24.6"/><path class="cls-2" d="M84.1,159.4c3.9-1,8.6-2.2,13.3-3.8,8.2-2.6,16.2-6.1,19.6-10.5"/><path class="cls-2" d="M84.5,149v.3c0,.1,0,.2-.1.4"/><path class="cls-1" d="M104.6,283.5c-.3.9-.8,2.1-1.7,4.6"/><path class="cls-2" d="M106.5,276.9c-1.3,4.4-1.4,5.1-1.9,6.6"/><path class="cls-1" d="M90.1,287.8c0,.1,0,.2,0,.3-.1,6.3.1,3.6.1,6.4"/><path class="cls-1" d="M159.1,226.1c4.3,2,6.6,2,11,4.5,1.1.6,2.4,1.4,4,2.5"/><path class="cls-1" d="M185,223.1c-3.2-1.9-4.9-2.8-5.7-3.4-2.8-1.6,2.6,1.5-7.7-4.5"/><path class="cls-1" d="M174.2,232.8c0,0,0,.2,0,.3,0,0,0,.1,0,.2,1.2,2.7,11.5-5.2,11.1-6.5-.4-1.4-.7-2.3-.4-3.7"/><path class="cls-1" d="M177.1,246.1c1.1.3,2-.2,3.2-.4,9.9-1.6,19.9-3.1,29.6-6.2,3.1-1,6.4-2.3,8.5-4.8,2-2.5,2.3-6.6-.4-8.3-1.2-.8-2.8-1-4.4-1.1-8.8-.8-19.8-1.5-28.6-2.2"/><path class="cls-1" d="M174.2,233.3c.1,3.8.7,7,1.7,10.6.2.8.5,1.7,1.2,2.2"/><line class="cls-1" x1="105.3" y1="288.4" x2="105.5" y2="288.4"/><path class="cls-1" d="M90.2,294.5c1.2,2.2,5.9,3.4,7.9,1.9,1.2-.9,1.7-2.3,2.2-3.7.4-1.4.9-2.8,1.9-3.9.3-.3.6-.6.9-.7.6-.3,1.2-.1,2.3.2"/><path class="cls-1" d="M90.2,294.5c-.9,3.7-1.3,7.5-1.3,11.3,0,.9,0,1.8.6,2.5.7,1,2.1,1.2,3.3,1.3,10.1,1.2,21.2,5.5,31.4,5,3.3-.1,6.9-.5,9.5-2.5s3.9-6.1,1.8-8.6c-1-1.2-2.5-1.8-4-2.3-8.4-3.3-17.7-9.5-26.1-12.8"/><path class="cls-1" d="M87.4,148.6h0c4-5.5,7.1-11.5,9-16.3.5-1.3,1.1-2.5,1.6-3.6.4-.9.9-1.7,1.3-2.4,4.4-7.2,8.7-7.5,10-8.6.2-.1.3-.3.3-.5.9-2.9-3.3-12.5-3.9-15.2-.7-2.9-.7-5.8-.6-8.8.3-8.9,5.8-19,5.9-28.5,0-7.7-.2-15.8-5.9-21.3-7.1-6.9-12.9-10.9-27.2-8.2-10,1.9-15.9,5.7-20.3,14.8-5.5,11.2-4.9,18.4-3,32.5,1,6.8-7.1,13.3-8.1,20,0,.5-.1.9-.2,1.4,0,.3,0,.6,0,.9-.2,3.2.3,10.3,1.4,18.3,1.4,11.1,3.7,23.9,6.1,29.6.3.7.6,1.4.9,1.9,3.2,5,8.3,6.7,13.7,6.2"/><path class="cls-1" d="M67.5,78.2c-.6-3-.3-7.4,1.5-15.4"/><path class="cls-1" d="M107.6,63.4c-.7,4.4-.1,3.7-1.7,10.8-1.3,5.8-1.1,8.8-6.2,14.1-10.3,10.8-19.5,11.4-28.7-3-1.6-2.5-3-4.2-3.6-7"/><path class="cls-1" d="M104.9,63c-1.6-2.4-6.4-2.9-8.3-1.9"/><path class="cls-1" d="M86.2,59.7c-2.8-2.6-9.4-2.1-10.2-.4"/><path class="cls-1" d="M98.6,69.9c-.2,1.8.3,3.3,1.1,3.4.8.1,1.7-1.2,1.9-3,.2-1.8-.3-3.3-1.1-3.4-.8-.1-1.7,1.2-1.9,3Z"/><path class="cls-1" d="M79.9,67.5c-.2,2,.4,3.8,1.4,3.9,1,.1,2.1-1.4,2.3-3.5.2-2-.4-3.8-1.4-3.9-1-.1-2.1,1.4-2.3,3.5Z"/><path class="cls-1" d="M95.8,78.2c-.3,2.6-9.2,1.3-11,.9"/><path class="cls-1" d="M94.5,85.5c-.1,0-.3,0-.4.1-5.5,1.1-16.8-2.9-17.7-4,1.8,3.3,2.5,3.8,4.2,5.1,1.7,1.4,5.4,2.2,7.3,2.2,3.1,0,4.7-1.1,6.2-3.2"/><path class="cls-1" d="M107.6,63.4c-3.1-8.7-8.1-15.3-14.5-16.3-8.5-1.1-24.1,15.7-24.1,15.7"/><path class="cls-1" d="M73,95.5c-3.1-5.3-5-11.2-5.5-17.3,0,0,0,0,0,0"/><path class="cls-1" d="M60.3,98.9c-1.9,4.4-2.4,9.5-1,14.1,1.3,4.6,4.6,8.7,8.9,10.7,4.4,2,9.8,1.7,13.7-1.1,2.5-1.8,8.1-10.5,10.7-12"/><path class="cls-1" d="M61.6,136c.1,1.6,1.8,2.5,3.4,2.9,3.3,1,6.8,1.2,10.3.7"/></svg>