<?xml version="1.0" encoding="UTF-8"?><svg id="africaModest" xmlns="http://www.w3.org/2000/svg" width="235" height="321.9" viewBox="0 0 235 321.9"><defs><style>.cls-1{stroke:#221f1f;}.cls-1,.cls-2{stroke-linecap:round;stroke-linejoin:round;}.cls-1,.cls-2,.cls-3{fill:none;}.cls-2,.cls-3{stroke:#000;}.cls-3{stroke-miterlimit:10;}.cls-4,.cls-5,.cls-6,.cls-7,.cls-8,.cls-9,.cls-10{stroke-width:0px;}.cls-5{fill:#5095b1;}.cls-6{fill:#064c72;}.cls-7{fill:#c99070;}.cls-8{fill:#fff;}.cls-9{fill:#ededed;}.cls-10{fill:#e6e6e6;}</style></defs><path class="cls-6" d="M81.6,282.3c2.1-.6,4.6-1.3,6.6-1.9,0-1.2,0-2.5,0-3.9-2.4,1.7-4.7,3.5-6.7,5.7Z"/><path class="cls-7" d="M16.9,144c-2.6.1-5.1-.5-7.6-1.1-1.3-.3-2.7-.7-3.8-1.5-1.5,2.3-4.9,12.9-2.6,14.4,1.9,1.3,12.7-.3,15.2-2.2,1.5-1.1,0-8.6-1.3-9.6Z"/><path class="cls-10" d="M37.7,86.1c0-.3,0-.6,0-.9-4.1,3.8-5.7,5.7-6,6-4,4.6-10.3,12.9-13.7,17.8-1,1.4-1.9,2.8-2.7,4.1-2.5,4.7-8.3,16.4-10.4,21.2-.8,1.8-1.5,3.8-.8,5.5.3.7.8,1.2,1.3,1.6,1.1.8,2.5,1.2,3.8,1.5,2.5.6,5,1.2,7.6,1.1,2.6-.1,3-.5,4.6-2.5,1.4-1.9,9.4-25,14.8-32.2,5.1-4.7,3.8-3.6,6.7-5.9h.2c-3.9-4.9-5.8-11-5.4-17.3Z"/><path class="cls-8" d="M46.6,62.5c1,7.2-7.5,14.2-8.6,21.2,0,.5-.1,1-.2,1.5,0,.3,0,.6,0,.9-.4,6.3,1.5,12.3,5.4,17.1.9,1.1,2,2.2,3.1,3.2.6.5,1.3,1,2,1.5,7.2,5,15.2,5.5,23.6,5.4,7.9,0,14.7-.8,20.2-7.5.1-.2.3-.3.4-.5,2.1-2.6,3.8-5.5,6.2-7.8,1.3-1.3,2.9-2.4,3.7-4,.1-.2.2-.5.3-.8,1-3.1-1.1-6.5-1.8-9.4-.7-3.1-.8-6.1-.7-9.3.3-9.4,6.2-20.1,6.3-30.3,0-8.1-.3-16.8-6.3-22.6-7.5-7.3-13.7-11.6-28.9-8.7-10.6,2-16.9,6-21.6,15.7-5.8,11.9-5.2,19.5-3.1,34.5ZM101.5,50.7c-.5,3.1-1.9,7.7-5.6,12.4-10.3,13-19.9,17.8-33.5-4.2-.1-10,1.6-22.6,8.6-26.3,12.2-6.6,16.9-7.5,21.2-3.1,4.2,4.3,9.5,7.8,9.4,18.1,0,.5,0,1.7-.2,3.2,0,0,0,0,0,0Z"/><path class="cls-5" d="M48.3,107.9c-.7-.5-1.4-1-2-1.5,1.1,10.2,2.5,25.1,2.4,28,4,1.8,7.8,2.1,12.2,2.1h.2c.3-2.8.9-5.4,2-6.4,2.4-2.1,14.1.2,15.4,3.3,4.6-2.5,7.9-3.7,11.5-5.1,0-5.6.8-8.3,1.6-12.6.8-4.5,1.2-4,1.8-8.4h0c-.3-.8-.6-1.3-.9-2-.1.2-.3.3-.4.5-5.5,6.7-12.3,7.5-20.2,7.5-8.5,0-16.4-.4-23.6-5.4Z"/><path class="cls-7" d="M101.6,47.5c.1-10.3-5.2-13.8-9.4-18.1-4.3-4.4-9.1-3.5-21.2,3.1-7,3.8-8.7,16.4-8.6,26.3,13.6,22,23.2,17.2,33.5,4.2,3.7-4.6,5.1-9.3,5.6-12.4,0,0,0,0,0,0,.1-1.1.2-2.2.2-3.2ZM71.7,38.9c-.1-.2,2.2-1.7,3.7-1.9,1.1-.1,3.2-.1,4.3.8,1.6,1.3,1.9,2.6.8,2.4-1-.2-2.7-1.6-6-1.5-1.8,0-2.7.4-2.8.2ZM75.5,48c-.9-.1-1.5-1.6-1.3-3.4.2-1.8,1.2-3.1,2.1-3,.9.1,1.5,1.6,1.3,3.4-.2,1.8-1.2,3.1-2.1,3ZM76.3,63.4c-1.4-1.5-1.5-.7-2.9-4.3.8,1.2,9.6,5.3,14.7,3.9-1.6,2.2-3.2,3.2-6,3.1-1.8,0-4.4-1.3-5.8-2.8ZM90.9,42c-.9,0-.2-1.2,1.5-2,1.2-.6,2.8,0,3.5.3,1,.5,2.9,2.7,2.7,2.9-.1,0-2.2-.7-3.5-1.2-2.4-.9-3.4,0-4.2,0ZM93.7,50.6c-.8,0-1.2-1.4-1-2.9.2-1.5,1-2.7,1.7-2.6.8,0,1.2,1.4,1,2.9-.2,1.5-1,2.7-1.7,2.6Z"/><path class="cls-4" d="M74.2,44.6c-.2,1.8.4,3.3,1.3,3.4.9.1,1.9-1.2,2.1-3,.2-1.8-.4-3.3-1.3-3.4-.9-.1-1.9,1.2-2.1,3Z"/><path class="cls-8" d="M73.4,59.1c1.4,3.6,1.4,2.8,2.9,4.3,1.4,1.5,4,2.7,5.8,2.8,2.8,0,4.4-1,6-3.1-5.1,1.4-13.9-2.7-14.7-3.9Z"/><path class="cls-4" d="M74.5,38.7c3.3,0,5,1.3,6,1.5,1.1.3.8-1.1-.8-2.4-1.2-.9-3.3-.9-4.3-.8-1.5.2-3.8,1.7-3.7,1.9,0,.1,1-.2,2.8-.2Z"/><path class="cls-10" d="M78.4,133.4c0,0-.2,0-.3.1-.8,4.6-1.7,7.9-.4,10.8.6,1.4,1.7,2.7,3.6,4.1,2,1.5,8-.3,11.5-3.1,0,0,.1-.1.2-.2,7.2-5.7,14.1-8.7,19.7-16,2.7-3.7-2.4-15.6-5.8-22.5-1.4-2.9-2.8-7.8-4.5-13.1h-.1c-.8,1.5-2.4,2.7-3.7,3.9-2.4,2.3-4.2,5.2-6.2,7.8.3.6.5,1.2.9,2,1,2.2,2.4,5.9,6.1,16.4-3.8,2.1-6.7,3.4-9.5,4.5-3.5,1.4-6.8,2.7-11.5,5.1Z"/><path class="cls-7" d="M78.4,133.4c-1.3-3.1-12.9-5.4-15.4-3.3-1.1,1-1.7,3.5-2,6.4-.4,4.2,0,9,.9,10.3,1.9,2.4,13.2-.6,15.7-2.4h.2c-1.3-3-.5-6.2.4-10.8,0,0,.2,0,.3-.1Z"/><path class="cls-6" d="M88.7,293.1c-1,3.9-1.4,8-1.4,12,0,.9,0,1.9.6,2.7.8,1,2.2,1.3,3.5,1.4,10.8,1.3,22.5,5.8,33.4,5.3,3.5-.2,7.3-.6,10.1-2.7s4.2-6.5,1.9-9.1c-1.1-1.2-2.7-1.9-4.2-2.5-8.9-3.5-18.8-10.1-27.7-13.6h-.1c-1.2-.4-1.9-.6-2.5-.3-.3.1-.6.4-.9.7-1.1,1.1-1.5,2.7-2,4.1-.5,1.5-1.1,3-2.3,3.9-2.1,1.6-7.1.3-8.4-2Z"/><path class="cls-9" d="M88.3,280.5c0,5,.4,8.5.5,12.6,1.3,2.3,6.3,3.6,8.4,2,1.2-.9,1.8-2.5,2.3-3.9.5-1.5.9-3,2-4.1.3-.4.6-.6.9-.7v-.2c1.5-4.2,2.7-7.7,3.8-11.4.8-2.6,1.6-5.3,2.5-8.4-7,3.1-14.2,6-20.3,10.2,0,1.4,0,2.7,0,3.9Z"/><path class="cls-4" d="M92.4,40c-1.7.8-2.4,2-1.5,2,.8,0,1.8-.9,4.2,0,1.3.5,3.4,1.3,3.5,1.2.2-.1-1.7-2.3-2.7-2.9-.7-.4-2.3-.9-3.5-.3Z"/><path class="cls-4" d="M92.7,47.7c-.2,1.5.3,2.8,1,2.9.8,0,1.5-1.1,1.7-2.6.2-1.5-.3-2.8-1-2.9-.8,0-1.5,1.1-1.7,2.6Z"/><path class="cls-6" d="M98.4,160.5c-1.2-3.7-3.5-10.9-5.2-15.2v-.2c-.2,0-.3.1-.3.2-3.5,2.8-9.5,4.6-11.5,3.1-1.8-1.3-2.9-2.7-3.6-4.1h-.2c-2.5,1.8-13.8,4.9-15.7,2.5-.9-1.2-1.3-6.1-.9-10.3h-.2c-4.4,0-8.1-.3-12.2-2.1h0c-.1,2-2.1,15.2-2.4,16.9-2.7,8.7.1,19.6,4.8,27.4,4.6,7.8,10.9,14.5,15.8,22.2,14.7,23.3,14.8,53.9,14.4,81.5.1,0,.3,0,.4-.1,2-2.2,4.3-4.1,6.7-5.7,6.1-4.2,13.3-7.1,20.3-10.2,6.3-2.8,12.4-5.8,17.6-10.1,9.5-8,14.8-19.9,21.9-30.1,2-2.8,4.1-5.5,6.4-7.8,5.9-6,12.9-9.8,21.8-8.8,0,0,0,0,.1,0-4.1-2.2-29.9-18.9-37.1-23.7-3.5-2.3-21.4-15.6-40.9-25.3Z"/><path class="cls-6" d="M106.2,274.8h0c21.7-4.3,51.7-32.4,59.2-53.2-4.5-1.5-7.5-1.7-10.9-3.2-2.3,2.3-4.4,5-6.4,7.8-7.2,10.2-12.4,22.1-21.9,30.1-5.2,4.4-11.3,7.4-17.6,10.1-.9,3.1-1.7,5.8-2.5,8.4Z"/><path class="cls-9" d="M178,227.8c0,0,0-.2,0-.3.3,4.2,12.4-4.9,11.9-6.4s-.7-2.4-.5-4c-13.9-8.1-.8-.5-13.1-7.7-8.9-1-15.9,2.8-21.8,8.8,3.4,1.5,6.4,1.7,10.9,3.2,3.2,1.1,7.1,2.8,12.4,6.2h.2Z"/><path class="cls-6" d="M178,227.8c.1,3.9.7,7.8,1.8,11.5.2.9.6,1.8,1.3,2.4,1.2.3,2.1-.2,3.4-.4,10.6-1.6,21.2-3.3,31.4-6.6,3.3-1.1,6.8-2.4,9-5.1,2.2-2.7,2.4-7-.4-8.8-1.3-.9-3-1-4.6-1.2-9.3-.8-21-1.6-30.4-2.4-.2,1.5,0,2.5.5,4s-11.6,10.5-11.9,6.4c0,0,0,.2,0,.3Z"/><path class="cls-3" d="M93.3,107.3c-.6,4.4-1,3.9-1.8,8.4-.8,4.2-1.7,6.9-1.6,12.6"/><path class="cls-3" d="M46.2,106.1v.3c1.1,10.2,2.6,25.1,2.4,28h0c-.1,2-2.1,15.2-2.4,16.9"/><path class="cls-3" d="M176.4,209.5c-4.1-2.2-29.9-18.9-37.1-23.7-3.5-2.3-21.4-15.6-40.9-25.3-8.9-4.4-18.1-8.1-26.4-9.6"/><path class="cls-3" d="M93.2,145.3c1.7,4.2,4,11.5,5.2,15.2,0,.2.1.4.2.5"/><path class="cls-2" d="M37.9,85.1h0c-4.1,3.9-5.7,5.7-6,6-4,4.6-10.3,12.9-13.7,17.8-1,1.4-1.9,2.8-2.7,4.1"/><path class="cls-2" d="M43,103.3c-2.9,2.3-1.6,1.3-6.7,5.9"/><path class="cls-2" d="M16.9,144c1.4,1,2.8,8.5,1.3,9.6-2.6,1.9-13.4,3.5-15.2,2.2-2.3-1.6,1.1-12.1,2.6-14.4"/><path class="cls-2" d="M102.7,121.8c-1.2.7-2.3,1.4-3.3,1.9-3.8,2.1-6.7,3.4-9.5,4.5-3.5,1.4-6.8,2.7-11.5,5.1,0,0-.2,0-.3.1,0,0,0,0,0,0"/><path class="cls-2" d="M78.5,133.5s0,0,0-.1c-1.3-3.1-12.9-5.4-15.4-3.3-1.1,1-1.7,3.5-2,6.4-.4,4.2,0,9,.9,10.3,1.9,2.4,13.2-.6,15.7-2.4"/><path class="cls-2" d="M102.5,93.6c1.7,5.3,3,10.2,4.5,13.1,3.4,6.9,8.5,18.7,5.8,22.5"/><path class="cls-2" d="M92.5,105.3s0,0,0,0c.3.6.5,1.2.9,2,1,2.2,2.4,5.9,6.1,16.4"/><path class="cls-3" d="M176.4,209.5s0,0-.1,0c-8.9-1-15.9,2.8-21.8,8.8-2.3,2.3-4.4,5-6.4,7.8-7.2,10.2-12.4,22.1-21.9,30.1-5.2,4.4-11.3,7.4-17.6,10.1-7,3.1-14.2,6-20.3,10.2-2.4,1.7-4.7,3.5-6.7,5.7-.1.2-.3.3-.4.5"/><path class="cls-3" d="M165.4,221.6s0,0,0,0c-7.5,20.8-37.5,48.9-59.2,53.2"/><path class="cls-3" d="M46.2,151.4c-2.7,8.7.1,19.6,4.8,27.4,4.6,7.8,10.9,14.5,15.8,22.2,14.7,23.3,14.8,53.9,14.4,81.5,0,.1,0,.2,0,.4"/><path class="cls-3" d="M16.9,144c-2.6.1-5.1-.5-7.6-1.1-1.3-.3-2.7-.7-3.8-1.5-.6-.4-1-.9-1.3-1.6-.8-1.7,0-3.8.8-5.5,2.2-4.8,8-16.6,10.4-21.2"/><path class="cls-3" d="M36.2,109.3c-5.3,7.2-13.4,30.3-14.8,32.2-1.5,2-2,2.4-4.6,2.5"/><path class="cls-3" d="M78.2,133.3v.3c-.9,4.6-1.7,7.9-.4,10.8.6,1.4,1.7,2.7,3.6,4.1,2,1.5,8-.3,11.5-3.1,0,0,.1-.1.2-.2,7.2-5.7,14.1-8.7,19.7-16"/><path class="cls-2" d="M106.2,274.8c-1.1,3.7-2.3,7.3-3.9,11.4"/><path class="cls-3" d="M108.6,266.4c-.9,3.1-1.7,5.8-2.5,8.4"/><path class="cls-2" d="M88.3,276.6c0,1.4,0,2.7,0,3.9,0,5,.4,8.5.5,12.6"/><path class="cls-2" d="M154.5,218.3c3.4,1.5,6.4,1.7,10.9,3.2,3.2,1.1,7.1,2.8,12.4,6.2"/><path class="cls-2" d="M189.4,217.2c-13.9-8.1-.8-.5-13.1-7.7-.4-.2-.7-.4-1.1-.7"/><path class="cls-2" d="M178,227.5c.3,4.2,12.4-4.9,11.9-6.4s-.7-2.4-.5-4"/><path class="cls-2" d="M181,241.7c1.2.3,2.1-.2,3.4-.4,10.6-1.6,21.2-3.3,31.4-6.6,3.3-1.1,6.8-2.4,9-5.1,2.2-2.7,2.4-7-.4-8.8-1.3-.9-3-1-4.6-1.2-9.3-.8-21-1.6-30.4-2.4"/><path class="cls-2" d="M178,227.5c0,0,0,.2,0,.3.1,3.9.7,7.8,1.8,11.5.2.9.6,1.8,1.3,2.4"/><line class="cls-2" x1="104.8" y1="286.6" x2="104.9" y2="286.6"/><path class="cls-2" d="M88.7,293.1c1.3,2.3,6.3,3.6,8.4,2,1.2-.9,1.8-2.5,2.3-3.9.5-1.5.9-3,2-4.1.3-.4.6-.6.9-.7.6-.3,1.2-.1,2.5.2"/><path class="cls-2" d="M88.7,293.1c-1,3.9-1.4,8-1.4,12,0,.9,0,1.9.6,2.7.8,1,2.2,1.3,3.5,1.4,10.8,1.3,22.5,5.8,33.4,5.3,3.5-.2,7.3-.6,10.1-2.7s4.2-6.5,1.9-9.1c-1.1-1.2-2.7-1.9-4.2-2.5-8.9-3.5-18.8-10.1-27.7-13.6"/><path class="cls-3" d="M81,282.5c0,0,.1,0,.2,0,.1,0,.3,0,.4-.1,2.1-.6,4.6-1.3,6.6-1.9,0,0,.1,0,.1,0"/><path class="cls-3" d="M48.6,134.4s0,0,0,0c4,1.8,7.8,2.1,12.2,2.1"/><path class="cls-2" d="M37.8,85.1c0,.3,0,.6,0,.9-.4,6.3,1.5,12.3,5.4,17.1.9,1.1,2,2.2,3.1,3.2.6.5,1.3,1,2,1.5,7.2,5,15.2,5.5,23.6,5.4,7.9,0,14.7-.8,20.2-7.5.1-.2.3-.3.4-.5,2.1-2.6,3.8-5.5,6.2-7.8,1.3-1.3,2.9-2.4,3.7-4,.1-.2.2-.5.3-.8,1-3.1-1.1-6.5-1.8-9.4-.7-3.1-.8-6.1-.7-9.3.3-9.4,6.2-20.1,6.3-30.3,0-8.1-.3-16.8-6.3-22.6-7.5-7.3-13.7-11.6-28.9-8.7-10.6,2-16.9,6-21.6,15.7-5.8,11.9-5.2,19.5-3.1,34.5,1,7.2-7.5,14.2-8.6,21.2,0,.5-.1,1-.2,1.5Z"/><path class="cls-2" d="M101.5,50.7c-.5,3.1-1.9,7.7-5.6,12.4-10.3,13-19.9,17.8-33.5-4.2"/><path class="cls-2" d="M101.5,47.1s0,.1,0,.4c0,.5,0,1.7-.2,3.2"/><path class="cls-2" d="M92.7,47.7c-.2,1.5.3,2.8,1,2.9.8,0,1.5-1.1,1.7-2.6.2-1.5-.3-2.8-1-2.9-.8,0-1.5,1.1-1.7,2.6Z"/><path class="cls-2" d="M74.2,44.6c-.2,1.8.4,3.3,1.3,3.4.9.1,1.9-1.2,2.1-3,.2-1.8-.4-3.3-1.3-3.4-.9-.1-1.9,1.2-2.1,3Z"/><path class="cls-2" d="M87.3,51.5c3.9,8.2-4.3,7.3-5.7,6.2"/><path class="cls-2" d="M88.1,63c-5.1,1.4-13.9-2.7-14.7-3.9,1.4,3.6,1.4,2.8,2.9,4.3,1.4,1.5,4,2.7,5.8,2.8,2.8,0,4.4-1,6-3.1Z"/><path class="cls-1" d="M101.5,50.7c.1-1.1.2-2.2.2-3.2.1-10.3-5.2-13.8-9.4-18.1-4.3-4.4-9.1-3.5-21.2,3.1-7,3.8-8.7,16.4-8.6,26.3"/><path class="cls-2" d="M101.5,50.7s0,0,0,0"/><path class="cls-1" d="M101.4,51.6c0-.3,0-.6,0-.9"/><path class="cls-2" d="M95.9,40.4c1,.5,2.9,2.7,2.7,2.9-.1,0-2.2-.7-3.5-1.2-2.4-.9-3.4,0-4.2,0-.9,0-.2-1.2,1.5-2,1.2-.6,2.8,0,3.5.3Z"/><path class="cls-2" d="M75.4,37c-1.5.2-3.8,1.7-3.7,1.9,0,.1,1-.2,2.8-.2,3.3,0,5,1.3,6,1.5,1.1.3.8-1.1-.8-2.4-1.2-.9-3.3-.9-4.3-.8Z"/><path class="cls-2" d="M46.8,63.1c4.7,12.2,2,18.9,12.3,25.4"/><path class="cls-2" d="M101.3,66.6c-3.1,8.4-4.4,9.8-10.9,15.9"/></svg>