<?xml version="1.0" encoding="UTF-8"?><svg id="oceania" xmlns="http://www.w3.org/2000/svg" width="235" height="321.9" viewBox="0 0 235 321.9"><defs><style>.cls-1{fill:none;stroke:#000;stroke-linecap:round;stroke-linejoin:round;}.cls-2,.cls-3,.cls-4,.cls-5,.cls-6,.cls-7,.cls-8,.cls-9,.cls-10{stroke-width:0px;}.cls-3{fill:#1d273d;}.cls-4{fill:#423b38;}.cls-5{fill:#cb9686;}.cls-6{fill:#9bc8e4;}.cls-7{fill:#fff;}.cls-8{fill:#ea1e79;}.cls-9{fill:#e9f3f6;}.cls-10{fill:#003580;}</style></defs><path class="cls-3" d="M26.1,314.5c-2.3.4-5.7.3-8.1-.5-2.9-1-3.3-5.2-1.2-7.4h0c-.6,1.1-.8,2.5-.2,3.6.6,1.2,2.1,2,3.6,2.1,1.5.1,2.9-.2,4.3-.6,1.7-.5,3.2-1,4.7-1.5,2.1-.7,4-1.5,5.8-2.4,1.7-.9,3.4-2,5.2-3.4,1.1-.9,2.2-1.8,2.8-3,.3-.6.5-1.2.6-1.8,1.1,4.2-2.4,8.6-6.5,10.9-4.5,2.5-6.1,3.2-11.1,4.1Z"/><path class="cls-5" d="M29.2,310v.2c-1.4.5-2.9,1-4.6,1.5-1.4.4-2.9.8-4.3.6-1.5-.1-2.9-.9-3.6-2.1-.6-1.1-.4-2.5.2-3.6,0-.2.2-.3.3-.5.2-.2.3-.4.5-.6,4.2-.4,8.6,1.3,11.5,4.5Z"/><path class="cls-3" d="M95.4,310.4c2.4.2,4.8,0,6.9-.5,2-.5,4-1.1,3.9-3,1.6,1.4,1,4.1-.8,5.4-1.7,1.3-4.6,1.1-6.8,1.2-6.1.3-10.4-1.1-14.4-3.7-1.9-1.2-3.5-2.7-4.9-4.5-1.3-1.7-1.9-4.2-.7-6h0c.7,4.3,4.4,7.5,9,9.4,2.4,1,5.1,1.5,7.7,1.7Z"/><path class="cls-5" d="M31.2,275.5c4.9,2,9.9,2.4,14.3,2.1h0c-1.5,8.4-2.1,12.8-2.1,19.6v.4c.2.6.3,1.3.3,1.9h0c0,.7-.3,1.3-.6,1.9-.7,1.2-1.7,2.1-2.8,3-1.8,1.4-3.5,2.5-5.2,3.4v-.2c-.5-2.3-2.3-4.1-4.3-5-2-1-4.3-1.3-6.6-1.5,2.9-1.7,5.7-3.3,8.8-4.8.1-7.4-.7-13.1-1.8-20.6Z"/><path class="cls-8" d="M82.7,30.7c-.8-2.7-2.2-5.5-3.5-7.4.4-.8,1.8-2,2.6-2.3,1.2-.5,1.4.4,2.1.9,0,.4.2.8.2,1.2h0c.2,1.2.4,2.4.5,3.7.2,2.1.3,4.3.2,6.7-.3.2-.7.2-1,.2-.2,0-.4-.1-.5-.2,0-.6-.2-1.2-.4-1.9h0c0-.3,0-.6-.2-.8Z"/><path class="cls-4" d="M82.7,30.7c.2.2.2.5.2.8,0-.3-.1-.5-.2-.8Z"/><path class="cls-8" d="M83,31.5c.2.6.3,1.2.4,1.9,0,0-.2-.1-.2-.2-.3-.4-.2-1.1-.2-1.6Z"/><path class="cls-10" d="M59.9,170.8c9.8,1,25.2-4.3,27.9-9.2.2.8.3,1.7.5,2.7,3.9,21.8,9.7,89.8,7.3,111.6-1.8.4-3.6.9-5.3,1.4-4.6,1.3-9,2.5-14.3,1.5-1.3-.2-2.6-.6-4.1-1.1-.9-8.4-10.1-102.2-10.1-102.2-1.6,10-10.6,92.5-11.8,101.3-1.4.3-3,.6-4.6.7-4.4.4-9.5,0-14.3-2.1-2.3-.9-4.5-2.2-6.6-3.8,0,0,6.5-92.9,7.9-107.1h0c4.6,3.5,20.7,5.5,27.3,6.1Z"/><path class="cls-8" d="M83.9,21.9c0,0,.2.1.3.2,0,.3,0,.7,0,1,0-.4-.2-.8-.2-1.2Z"/><path class="cls-5" d="M100.6,123.1c-.6.6-11-20.1-13.4-23.3,1.1-9.1.4-19.5.6-23.1,7.9,8.9,23,39.6,24.6,42.2,5,7.9-.8,14-6.6,20.3-4.3,4.7-8.1,8-9.9,13.8-.8,2.5-1.3,4.7-2.1,7.3-1.1,3.3-3.3,3.5-5.2,4h-.2c-.2-.9-.3-1.8-.5-2.6-.2-.9-.4-1.6-.6-2.3-.9-4.5-1.6-8.8-2.2-12.9h0c1.7-1.9,6.7-7.9,7.7-9.2,1.5-1.9,2.8-3.5,3.9-5.8,1.4-3,2.5-5.7,4.2-8.2l-.3-.2Z"/><path class="cls-3" d="M103.4,304c-1.7-.2-3.5.3-4.9,1.3-1.5,1.1-2.6,2.7-3,4.5v.6c-2.7-.2-5.4-.8-7.8-1.7l.2-.4c.3-2.3,1.5-4.4,3.2-5.9,1.7-1.5,4-2.3,6.3-2.3h0c2.2,1,4.4,2.2,6,3.1v.9Z"/><path class="cls-5" d="M81,28.9c-.1.5,0,1.2.4,1.4.3.2.8,0,1.1.2,0,0,.2,0,.2.2,0,.3.2.5.2.8h0c0,.6,0,1.2.2,1.6,0,.1.1.2.2.2.1.1.3.2.5.2-.1,1.3-.2,1.7-.8,4.2,0,.3-.1.6-.2,1,.2,0,.9,4.9-.9,10.6-.6,1.9-1.4,3.9-2.7,5.8-3.6,5.8-7.1,11.2-11.2,13.3-4.3,2.1-9.4.7-16.4-7.6-1.4-1.6-2.8-3.5-4.3-5.7-.9-1.5-2-4-2.8-7.1-.7-2.8-1.3-6.1-1.5-9.6,1.8.7,5.1-15,11.5-18.2s18-3.8,22.6.4c.5.5,1.2,1.4,2,2.5,0,0,0,0,0,0-.4,1-.2,2.2.6,2.9.5.4,1.1.6,1.3,1.1.2.5,0,1,0,1.6ZM80.8,33.7c.2-.1-2.4-2.5-3.6-2.9-.8-.3-2.5-.6-3.7,0-1.6.9-2.2,2-1.2,2,.9,0,2.3-1.4,4.9-.8,1.5.3,3.4,1.8,3.5,1.7ZM77.3,40.3c0-1.4-.6-2.6-1.3-2.6s-1.3,1.1-1.3,2.6.6,2.5,1.3,2.5,1.3-1.1,1.3-2.5ZM66.2,60.8c2.7-.2,4-1.4,5.3-3.6-4.6,1.9-13.4-.9-14.2-2,1.7,3.2,1.7,2.5,3.2,3.7,1.5,1.2,4.1,2.1,5.8,2ZM62.1,32.9c1.3,0,.8-1.1-1.1-2-1.4-.7-3.6-.4-4.8,0-1.6.4-5.5,2.7-5.3,2.8.1.1,3-1.3,4.9-1.7,3.5-.6,5.1.9,6.2,1ZM58.6,40.3c0-1.6-.7-2.9-1.6-2.9s-1.6,1.3-1.6,2.9.7,2.9,1.6,2.9,1.6-1.3,1.6-2.9Z"/><path class="cls-5" d="M103.4,304v-.9c1.5.7,2.8,2.3,2.8,3.8,0,1.9-1.9,2.5-3.9,3-2.2.5-4.6.7-6.9.5v-.6c.5-1.8,1.6-3.4,3.1-4.5,1.4-1,3.2-1.4,4.9-1.3Z"/><path class="cls-5" d="M97.4,300h0c-2.3,0-4.6.9-6.3,2.4-1.7,1.5-2.9,3.6-3.2,5.9l-.2.4c-4.6-1.8-8.2-5.1-9-9.4,0-.3,0-.5-.1-.8h.3c0-6.1-1.7-11.8-2.9-19.3v-.3c5.4.9,9.7-.2,14.3-1.5v.4c-.8,7.2-2.7,9.6-2.5,17.7,2.6,1.2,6.2,2.9,9.6,4.6Z"/><path class="cls-8" d="M89.2,27.5c.3.8,0,1.7-.5,2.4-.6.7-1.5,1-2.3.9-.2.8-.5,1.7-1.1,2.3-.1.1-.3.2-.5.3,0-2.3,0-4.6-.2-6.7h1c1.1.2,2.4-.4,2.8-1.5h.1c0,.1,0,.2,0,.3,0,.7.5,1.2.7,1.8Z"/><path class="cls-8" d="M86.6,21.7c1.4-.3,2.7,1.1,2.4,2.5,0,.4-.3.7-.4,1.1h-.1c-.5,1-1.7,1.7-2.8,1.4h-1c-.1-1.2-.3-2.4-.5-3.6h0c0-.3,0-.7,0-1,0,0,0,0,0,0,.7.3,1.6-.3,2.4-.4Z"/><path class="cls-9" d="M73.2,88.9c.3-5-.4-10.8-2.7-16.6,4,.5,11.6,1.1,14.2,2,.8.2,1.8,1,3,2.3-.2,3.6.5,14-.6,23.1-.6,4.7-1.7,9-3.6,12-1.8,5.9-1.1,18.1,1.5,34.7.6,4,1.4,8.3,2.2,12.9.2.6.4,1.4.6,2.3-2.7,4.9-18.1,10.3-27.9,9.2-6.6-.7-22.7-2.6-27.3-6.1,1.3.1,2.2-.4,2.1-2.1,1.2,0,3.8-1.4,2.4-3.3,1.1-.2,2.2-1.1,2.4-2.5,0-.5,0-1-.2-1.6,4.7-1.2,2.8-3.9.7-6.2.5-2.4-.6-3.8-2.4-4.6l.3-.5c.3-4.1,3-9.4,3.5-17.6.3-4-.6-10.5-1-15.3-.1-1.9-2.8-12.9-3.4-13.9,0,0,0-.3,0-.5,0-2.9-4.2-16.2-7.5-17.4,2.9-2.9,5.2-4.7,6.3-4.5,1.7-.3,3.6-1.2,5.4-1.4h.5c-.6,3.1-.9,6.1-.9,9.5,0,5.1.4,8.6,2.4,13.8,1.5,3.9,5.2,9.9,5.4,8.7.4-1.8,1.2-9.3.9-12.5s0-3.3,0-7.5,0-4.2.3-6.4c.6,3.6,1.7,7.8,3.5,11.7,2.8,6.1,7.3,11.4,14.4,12.6,2.9-1.9,5.3-7.3,5.7-14.1Z"/><path class="cls-5" d="M84.6,38.7c.9.7,1.3,1.4,1.1,2.7-.2,2-1.8,7.3-3.7,7.9h0c1.8-5.7,1.1-10.5.9-10.6,0-.4.2-.7.2-1,.6.3,1.1.6,1.5,1Z"/><path class="cls-4" d="M84.9,33.4c0,1.7-.1,3.5-.2,5.3-.4-.3-1-.6-1.5-1,.6-2.4.6-2.9.8-4.2.3,0,.7,0,1-.2Z"/><path class="cls-4" d="M43.1,38.5c0,0-.1,0-.2-.1-.6-.8-1.5-1-2.5-.9h0c-2.3-14.3,2.5-30.5,22.4-30.5s19,5.7,21.1,15c-.7-.5-.9-1.4-2.1-.9-.8.3-2.2,1.4-2.6,2.3-.7-1.2-1.5-2.1-2-2.5-4.6-4.3-15.2-4.2-22.6-.4s-9.7,18.9-11.5,18.2Z"/><path class="cls-8" d="M82.7,30.7c0,0-.1-.1-.2-.2-.3-.2-.8,0-1.1-.2-.5-.2-.5-.9-.4-1.4,0-.5.3-1.1,0-1.6-.2-.6-.8-.8-1.3-1.1-.8-.6-1-1.9-.6-2.9,0,0,0,0,0,0,1.3,2,2.7,4.7,3.5,7.4Z"/><path class="cls-4" d="M77.2,30.9c1.1.4,3.7,2.7,3.6,2.9-.1,0-2-1.4-3.5-1.7-2.6-.6-4.1.8-4.9.8-1,0-.4-1.1,1.2-2,1.2-.6,2.8-.3,3.7,0Z"/><path class="cls-2" d="M75.9,37.8c.7,0,1.3,1.1,1.3,2.6s-.6,2.5-1.3,2.5-1.3-1.1-1.3-2.5.6-2.6,1.3-2.6Z"/><path class="cls-5" d="M70.5,72.3h0c2.3,5.8,3,11.6,2.7,16.6-3.1,1.5-5.2,2.1-8.7,2.4-3.6.4-8-.4-11.5-.9-1.8-3.9-2.9-8.1-3.5-11.7.2-1.6.5-3.3,1.1-5.1,0,0,0,0,0,0,1.4-3.6,1.2-9,1-12.8h0c7,8.3,12.1,9.8,16.4,7.6-.5,1.5.9,3.6,2.5,3.8Z"/><path class="cls-7" d="M71.4,57.2c-1.3,2.2-2.6,3.4-5.3,3.6-1.6.1-4.2-.7-5.8-2-1.5-1.2-1.5-.5-3.2-3.7.9,1.1,9.6,3.9,14.2,2Z"/><path class="cls-6" d="M64.6,91.3c3.4-.4,5.6-.9,8.7-2.4-.4,6.8-2.8,12.2-5.7,14.1-7.1-1.2-11.6-6.5-14.4-12.6,3.4.6,7.8,1.3,11.5.9Z"/><path class="cls-4" d="M61,30.8c1.9.9,2.3,2.1,1.1,2-1.1,0-2.7-1.5-6.2-1-2,.3-4.8,1.8-4.9,1.7-.2-.2,3.7-2.5,5.3-2.8,1.1-.3,3.4-.6,4.8,0Z"/><path class="cls-2" d="M57,37.4c.9,0,1.6,1.3,1.6,2.9s-.7,2.9-1.6,2.9-1.6-1.3-1.6-2.9.7-2.9,1.6-2.9Z"/><path class="cls-4" d="M50.7,73.7c-.6,1.8-.9,3.4-1.1,5.1-.3,2.2-.3,4.3-.3,6.4,0,4.3-.3,4.4,0,7.5s-.5,10.7-.9,12.5c-.2,1.1-3.9-4.8-5.4-8.7-2-5.2-2.4-8.8-2.4-13.8,0-3.4.2-6.3.9-9.4.3-1.5.7-3,1.3-4.5,1.7-4.8.6-15.7,1.7-20.7.8,3.1,1.9,5.6,2.8,7.1,1.5,2.2,2.9,4,4.3,5.7h0c.3,3.7.4,9.2-1,12.8,0,0,0,0,0,0Z"/><path class="cls-5" d="M44.6,48.1c-3.4,2.8-7.9-5.2-6.8-8.6.4-1.1,1.5-1.8,2.6-2,.9-.1,1.9.1,2.5.9,0,0,.1.1.2.1.1,3.4.7,6.7,1.5,9.6Z"/><path class="cls-5" d="M16,119.6c1.4,1.8,2.3,3.2,4,6.9,2,4.3,2.6,13.4,8.7,15.7,2.3.7,6.2.9,8.7,2.1,1.8.8,2.9,2.2,2.4,4.6,2.1,2.3,4,5-.7,6.2.2.6.3,1.2.2,1.6-.2,1.4-1.3,2.3-2.4,2.5,1.4,1.8-1.2,3.3-2.4,3.3,0,1.7-.8,2.2-2.1,2.1,0,0,0,0,0,0h0c-2.4-.2-6.1-2.6-7.1-3.7-2.2-2.3-5.6-7.1-4.2-10.3-2.8-4.2-7.5-10.1-10.6-13.8-4.2-5.1-12-16.5-8.8-22.4,2-3.7,18.2-25.7,27.7-35.3,3.3,1.3,7.5,14.5,7.5,17.4h-.2c-2.6,2-10,11.9-12.1,13.9-1.5,1.5-7.3,7.8-8.7,9.3,0,0,0,0,0,0Z"/><path class="cls-3" d="M35,307.5v.2c-1.7,1-3.6,1.7-5.7,2.4v-.2c-2.9-3.2-7.3-4.9-11.5-4.5.8-.9,1.8-1.6,2.8-2.2,1.2-.8,2.4-1.5,3.6-2.3,2.2.3,4.5.6,6.6,1.5,2.1,1,3.9,2.8,4.2,5Z"/><path class="cls-10" d="M32.5,164.6s0,0,0,0h0Z"/><line class="cls-1" x1="39.5" y1="156.8" x2="39.4" y2="156.8"/><polyline class="cls-1" points="37.7 143.8 37.5 144.3 37.5 144.3"/><path class="cls-1" d="M83.5,111.7c-1.8,5.9-1.1,18.1,1.5,34.7.6,4,1.4,8.3,2.2,12.9"/><path class="cls-1" d="M36.7,97c0-.2,0-.2.1-.1.6,1,3.3,12,3.4,13.9.4,4.8,1.3,11.3,1,15.3-.5,8.2-3.2,13.5-3.5,17.6"/><path class="cls-1" d="M84.7,74.3c.8.2,1.8,1,3,2.3,7.9,8.9,23,39.6,24.6,42.2,5,7.9-.8,14-6.6,20.3-4.3,4.7-8.1,8-9.9,13.8-.8,2.5-1.3,4.7-2.1,7.3-1.1,3.3-3.3,3.5-5.2,4"/><path class="cls-1" d="M87,99.7s0,0,0,.1c2.5,3.2,12.8,24,13.4,23.3,0,0,0,0,0,0"/><path class="cls-1" d="M105.3,118.8c-1.9,1.3-3.3,2.8-4.5,4.4-1.7,2.4-2.8,5.2-4.2,8.2-1.1,2.2-2.4,3.9-3.9,5.8-1,1.3-6,7.3-7.7,9.2"/><path class="cls-1" d="M16,119.6s0,0,0,0"/><path class="cls-1" d="M36.7,96.5c-2.6,2.1-10,11.9-12.1,13.9-1.5,1.5-7.3,7.8-8.7,9.3"/><path class="cls-1" d="M35.7,74.6c-1.1-.3-3.4,1.5-6.3,4.5-9.5,9.6-25.6,31.6-27.7,35.3-3.2,5.9,4.6,17.3,8.8,22.4,3.1,3.7,7.8,9.6,10.6,13.8"/><path class="cls-1" d="M28.8,142.2c-6.1-2.2-6.7-11.3-8.7-15.7-1.8-3.8-2.6-5.1-4-6.9,0,0,0,0,0,0-.7-1-1.6-2-2.9-3.7"/><path class="cls-1" d="M37.5,146.4c.5.6,1.4,1.5,2.4,2.5,2.1,2.3,4,5-.7,6.2.2.6.3,1.2.2,1.6-.2,1.4-1.3,2.3-2.4,2.5,1.4,1.8-1.2,3.3-2.4,3.3,0,1.7-.8,2.2-2.1,2.1h0c-2.4-.2-6.1-2.6-7.1-3.7-2.2-2.3-5.6-7.1-4.2-10.3"/><path class="cls-1" d="M28.8,142.2c2.3.7,6.2.9,8.7,2.1,1.8.8,2.9,2.2,2.4,4.6,0,0,0,0,0,0"/><path class="cls-1" d="M24.6,271.7s6.5-92.9,7.9-107.1h0"/><path class="cls-1" d="M87.8,161.6c-2.7,4.9-18.1,10.3-27.9,9.2-6.6-.7-22.7-2.6-27.3-6.1,0,0,0,0,0,0"/><path class="cls-1" d="M70.5,72.3c-.6,0-1.2-.2-1.6-.2"/><path class="cls-1" d="M84.7,74.3c-2.6-1-10.2-1.5-14.2-2"/><path class="cls-1" d="M41.1,73.2c-1.7.2-3.7,1.1-5.4,1.4"/><path class="cls-1" d="M87.2,159.3c.2.6.4,1.4.6,2.3.2.8.3,1.7.5,2.7,3.9,21.8,9.7,89.8,7.3,111.6-1.8.4-3.6.9-5.3,1.4-4.6,1.3-9,2.5-14.3,1.5-1.3-.2-2.6-.6-4.1-1.1-.9-8.4-10.1-102.2-10.1-102.2-1.6,10-10.6,92.5-11.8,101.3-1.4.3-3,.6-4.6.7-4.4.4-9.5,0-14.3-2.1-2.3-.9-4.5-2.2-6.6-3.8"/><path class="cls-1" d="M45.6,277.6c-1.5,8.4-2.1,12.8-2.1,19.5"/><path class="cls-1" d="M31.2,275.5c1.1,7.4,1.9,13.2,1.8,20.6"/><path class="cls-1" d="M67.5,103c2.9-1.9,5.3-7.3,5.7-14.1.3-5-.4-10.8-2.7-16.6h0"/><path class="cls-1" d="M49.3,77.2c0,.5.2,1,.3,1.5.6,3.6,1.7,7.8,3.5,11.7,2.8,6.1,7.3,11.4,14.4,12.6"/><path class="cls-1" d="M87.7,76.7c-.2,3.6.5,14-.6,23.1-.6,4.7-1.7,9-3.6,12"/><path class="cls-1" d="M29.4,79.1h0c3.3,1.3,7.5,14.5,7.5,17.4,0,.2,0,.4,0,.5,0,0,0,0-.1.1"/><path class="cls-1" d="M76,279.1c1.2,7.5,2.9,13.3,2.9,19.3"/><path class="cls-1" d="M90.4,277.6c-.9,7.2-2.8,9.6-2.6,17.7"/><path class="cls-1" d="M83.9,33.6c-.1,1.3-.2,1.7-.8,4.2,0,.3-.1.6-.2,1,.2,0,.9,4.9-.9,10.6-.6,1.9-1.4,3.9-2.7,5.8-3.6,5.8-7.1,11.2-11.2,13.3-4.3,2.1-9.4.7-16.4-7.6-1.4-1.6-2.8-3.5-4.3-5.7"/><path class="cls-1" d="M74.6,40.3c0,1.4.6,2.5,1.3,2.5s1.3-1.1,1.3-2.5-.6-2.6-1.3-2.6-1.3,1.1-1.3,2.6Z"/><path class="cls-1" d="M55.4,40.3c0,1.6.7,2.9,1.6,2.9s1.6-1.3,1.6-2.9-.7-2.9-1.6-2.9-1.6,1.3-1.6,2.9Z"/><path class="cls-1" d="M71.8,51.2c-.9,1.7-5.6,2.3-7.5,1"/><path class="cls-1" d="M71.4,57.2c-4.6,1.9-13.4-.9-14.2-2,1.7,3.2,1.7,2.5,3.2,3.7,1.5,1.2,4.1,2.1,5.8,2,2.7-.2,4-1.4,5.3-3.6Z"/><path class="cls-1" d="M43.1,38.4s0,0,0,.1c.1,3.4.7,6.7,1.5,9.6.8,3.1,1.9,5.6,2.8,7.1"/><path class="cls-1" d="M83.9,21.9c-2.1-9.2-7.8-15-21.1-15-19.9,0-24.7,16.2-22.4,30.4"/><path class="cls-1" d="M84.6,38.7h0c.1-1.8.2-3.6.2-5.3"/><path class="cls-1" d="M79.2,23.3c-.7-1.2-1.5-2.1-2-2.5-4.6-4.3-15.2-4.2-22.6-.4s-9.7,18.9-11.5,18.2c0,0-.1,0-.2-.1"/><path class="cls-1" d="M83,31.5c0-.3-.1-.5-.2-.8"/><path class="cls-1" d="M83.5,35.2c0-.6,0-1.2-.2-1.8"/><path class="cls-1" d="M50.7,73.7c0,.1-.1.3-.2.4"/><path class="cls-1" d="M51.6,60.8c.3,3.7.4,9.2-1,12.8"/><path class="cls-1" d="M68.1,68.5c-.5,1.5.9,3.6,2.5,3.8"/><path class="cls-1" d="M42.9,38.4c-.6-.8-1.5-1-2.5-.9-1.1.2-2.3.9-2.6,2-1.1,3.3,3.3,11.4,6.8,8.6"/><path class="cls-1" d="M83.1,37.8s0,0,0,0c.6.3,1.1.6,1.5,1,.9.7,1.3,1.4,1.1,2.7-.2,2-1.8,7.3-3.7,7.9"/><path class="cls-1" d="M77.2,30.9c1.1.4,3.7,2.7,3.6,2.9-.1,0-2-1.4-3.5-1.7-2.6-.6-4.1.8-4.9.8-1,0-.4-1.1,1.2-2,1.2-.6,2.8-.3,3.7,0Z"/><path class="cls-1" d="M56.3,30.7c-1.6.4-5.5,2.7-5.3,2.8.1.1,3-1.3,4.9-1.7,3.5-.6,5.1.9,6.2,1,1.3,0,.8-1.1-1.1-2-1.4-.7-3.6-.4-4.8,0Z"/><path class="cls-1" d="M87.8,295.3c2.6,1.2,6.2,2.9,9.6,4.6,2.2,1.1,4.4,2.3,6,3.2,1.4.7,2.7,2.3,2.8,3.8,0,1.9-1.9,2.5-3.9,3-2.2.5-4.6.7-6.9.5-2.7-.2-5.3-.8-7.7-1.7-4.6-1.8-8.2-5.1-9-9.4,0-.3,0-.5-.1-.8,0-.1,0-.3,0-.4"/><path class="cls-1" d="M43.7,299.5c0,.6-.3,1.3-.6,1.8-.7,1.2-1.7,2.1-2.8,3-1.8,1.4-3.5,2.5-5.2,3.4-1.8,1-3.7,1.7-5.8,2.4-1.5.5-3,1-4.7,1.5-1.4.4-2.9.8-4.3.6-1.5-.1-2.9-.9-3.6-2.1-.6-1.1-.4-2.5.2-3.6,0-.2.2-.3.3-.5.2-.2.3-.4.5-.6.8-.9,1.8-1.6,2.8-2.2,1.2-.8,2.4-1.5,3.6-2.3,2.9-1.7,5.7-3.3,8.8-4.8"/><path class="cls-1" d="M43.3,297.6c.3.6.5,1.3.4,1.9"/><path class="cls-1" d="M16.8,306.6c-2.1,2.2-1.7,6.4,1.2,7.4,2.4.8,5.8.9,8.1.5,5-.9,6.6-1.5,11.1-4.1,4.1-2.3,7.6-6.7,6.5-10.9h0c0-.2-.1-.5-.2-.7"/><path class="cls-1" d="M78.6,299.3c-1.1,1.9-.6,4.3.7,6,1.3,1.7,3,3.2,4.9,4.5,4,2.6,8.4,4.1,14.4,3.7,2.2-.1,5.1,0,6.8-1.2,1.7-1.3,2.4-4,.8-5.4"/><path class="cls-1" d="M52.9,90.4c0,0,.1,0,.2,0,3.4.6,7.8,1.3,11.5.9,3.4-.4,5.6-.9,8.7-2.4,0,0,0,0,0,0"/><path class="cls-1" d="M44.6,48.1c-1.1,5,0,15.9-1.7,20.7-.6,1.6-1,3.1-1.3,4.5-.6,3-.9,6-.9,9.4,0,5.1.4,8.6,2.4,13.8,1.5,3.9,5.2,9.9,5.4,8.7.4-1.8,1.2-9.3.9-12.5s0-3.3,0-7.5,0-4.2.3-6.4c.2-1.6.5-3.3,1.1-5.1,0,0,0,0,0,0,0-.3.2-.6.3-.9"/><path class="cls-1" d="M79.2,23.3s0,0,0,0c-.4,1-.2,2.2.6,2.9.5.4,1.1.6,1.3,1.1.2.5,0,1,0,1.6-.1.5,0,1.2.4,1.4.3.2.8,0,1.1.2,0,0,.2,0,.2.2.2.2.2.5.2.8h0c0,.6,0,1.2.2,1.6,0,.1.1.2.2.2.1.1.3.2.5.2.3,0,.7,0,1-.2.2,0,.4-.2.5-.3.6-.6.9-1.5,1.1-2.3.8.1,1.7-.3,2.3-.9.6-.7.7-1.6.5-2.4-.2-.6-.7-1.1-.7-1.8,0-.1,0-.2,0-.3,0-.4.3-.7.4-1.1.3-1.4-1-2.8-2.4-2.5-.8.2-1.6.7-2.4.4,0,0,0,0,0,0,0,0-.2,0-.3-.2-.7-.5-.9-1.4-2.1-.9-.8.3-2.2,1.4-2.6,2.3Z"/><path class="cls-1" d="M84.1,21.8c0,0,0,.1,0,.2,0,.3,0,.7,0,1h0c-.2.6-.5,1.2-1.1,1.6"/><path class="cls-1" d="M88.5,25.3c-.5,1.1-1.7,1.7-2.8,1.4"/><path class="cls-1" d="M17.7,305.5h0c4.2-.4,8.6,1.3,11.5,4.5"/><path class="cls-1" d="M24.1,301s0,0,0,0c2.2.3,4.5.6,6.6,1.5,2.1,1,3.9,2.8,4.2,5"/><path class="cls-1" d="M97.4,300.1c-2.3,0-4.6.8-6.3,2.3-1.7,1.5-2.9,3.6-3.2,5.9"/><path class="cls-1" d="M103.8,304c-.1,0-.3,0-.4,0-1.7-.2-3.5.3-4.9,1.3-1.5,1.1-2.6,2.7-3,4.5"/></svg>