<?xml version="1.0" encoding="UTF-8"?><svg id="oceania" xmlns="http://www.w3.org/2000/svg" width="235" height="321.9" viewBox="0 0 235 321.9"><defs><style>.cls-1{fill:#cb9780;}.cls-1,.cls-2,.cls-3,.cls-4,.cls-5,.cls-6,.cls-7{stroke:#000;stroke-linecap:round;stroke-linejoin:round;}.cls-2{fill:#132340;}.cls-3{fill:#1e160d;}.cls-4{fill:#fff;}.cls-5{fill:#f51968;}.cls-6{fill:none;}</style></defs><path class="cls-5" d="M94.9,106.5l-.4.4c-.6,4.5-1.1,9-1.7,13.5-1.5-2.5-3.6-4.6-6-6h-.1c0,.4-.2.8-.3,1.2-.1.4-.2.8-.4,1.3-2.3-1.8-4.8-3.4-7.5-4.7,1.3,8.2,2.1,20.8,1,40.5,3-2.2,6.6-4.5,9.7-6.4,2,2.1,3.7,4.3,5.3,6.7h.3c.2-2.5.5-5.2.7-8.2.2-2.1.4-4.5.5-7h.4c3.8-1.2,6.3-3,10.3-4.3h.2c-2.1-7.9-3.2-19.5-12-26.9ZM96.6,130c-.1,2.1-.3,4.1-.4,5.9-4.4-1.9-8.9-4.6-12.6-7.5,4.5,0,8.9-.6,13.2-1.7,0,1.5-.2,2.6-.2,3.3Z"/><path class="cls-1" d="M71.2,168.9c-.3.5-1,1-1.9,1.6,1.6,1.9.4,4-.9,4.7,2,1.3-.2,3.6-1.4,3.9,1.7,4.7-7.7,2.6-9.7,1.6-2.9-1.4-7.7-5-7.3-8.6-1.4-1.1-3.5-2.2-5.8-3.4-4.1-2.1-8.9-4.1-11.6-5.8-5.7-3.5-14.2-12.6-12.8-19.4,1-1.8,2.6-5.7,3.7-7.8,2.7,1.8,8.9,4.8,13.9,7.4-.6,1.1.1-.1-.8,1.5h0c1.6,1.1,3.1,2.5,5.1,4.5,1.1,1.2,2.4,3.1,3.8,5,2.5,3.4,5.6,6.9,9.6,7.4h0c1.7-.2,4-.7,6.2-1,3.4-.4,6.5-.1,6.9,3.6,2.2,1.2,4.4,2.7,3,4.6Z"/><path class="cls-3" d="M114.6,58.4h.2c-.3-2.9-2.5-5.6-4.8-7.6-6.3-5.6-10.2-5.8-18.4-7.6-2.8-.6-10.1.3-11.9,2.4-4.6,5.3-7.1,9.7-10.6,17.2-.3.8-.9,1.7-1.7,1.5-.4,0-.7-.4-.9-.7-1.8-2.2-.5-1.2-1.9-3.6-.8-1.5-2.7-2.1-4.2-1.5-1.5.6-2.5,4.5-2.3,6.2,0,1.7,1.4,5.2,2.9,5.8.7.3,1.3.4,1.8.2-.4,2.9-1.2,8.5-.9,9.4.4,1.5,1,2.6,1.7,3.6h-1.2c0,.2.1.4.2.6h-.4c-8-11.6-12.8-22.6-4.7-41.7,2.4-5.8,9.2-14.7,14.9-17.3,5.4-2.5,8.1-2,13.8-.3,6.1,1.8,12.2,4,18.1,6.4,5.4,2.3,9.9,3.1,13.1,8.1,3.2,4.8-.1,18.6-4.4,26,1-2.1,1.7-4.5,1.7-7.2Z"/><path class="cls-6" d="M112.9,65.6c-.1.2-.2.4-.3.6"/><path class="cls-6" d="M62.7,70.7h0s0,0,0,0"/><path class="cls-1" d="M110,50.8c-6.3-5.6-10.2-5.8-18.4-7.6-2.8-.6-10.1.3-11.9,2.4-4.6,5.3-7.1,9.7-10.6,17.2-.3.8-.9,1.7-1.7,1.5-.4,0-.7-.4-.9-.7-1.8-2.2-.5-1.2-1.9-3.6-.8-1.5-2.7-2.1-4.2-1.5-1.5.6-2.5,4.5-2.3,6.2,0,1.7,1.4,5.2,2.9,5.8.7.3,1.3.4,1.8.2-.4,2.9-1.2,8.5-.9,9.4.4,1.5,1,2.6,1.7,3.6,1.5,2.2,3.4,3.6,5.3,5.8,2.5,2.9,9,7.5,14,10.4,1.2.7,2.2,1.2,3.2,1.7h0c1,.4,1.8.8,2.4.9,0,0,0,0,0,0,0,0,0,0,0,0,0,0,0,0,.1,0,.2,0,.3,0,.4,0,4.2-.7,11.6-8.4,11.6-8.4,7.3-7.1,8.2-20,8.9-22.1.4-1.4,2-3.6,3.3-6.5,1-2.1,1.7-4.5,1.7-7.2h.2c-.3-2.9-2.5-5.6-4.8-7.6ZM92.8,58.7c3,1,1.1,3.8.3,3.5-2.1-.6-9.8-1.3-9.8-1.7.3-4,6.4-2.9,9.5-1.8ZM89,69.6c-.3,1.5-1.4,2.6-2.3,2.4-.9-.2-1.4-1.5-1-3.1.3-1.5,1.4-2.5,2.3-2.4.9.2,1.4,1.6,1,3.1ZM83.6,84l.2-.3c4.1,2.8,7.2,4.7,11.9,5.2-2.8,8.3-13.8,2-12.1-4.9ZM105.9,73.6c-.3,1.6-1.4,2.7-2.2,2.5-.9-.2-1.3-1.6-.9-3.1.4-1.5,1.4-2.7,2.2-2.5.9.2,1.3,1.6.9,3.1ZM107.8,68.5c-.6-.2-3.7-1.7-4.3-2-1.6-.9-.3-3.2,1-3.4,1.4-.2,4.4,2.3,4.3,3.1,0,.8-.3,2.6-1,2.3Z"/><path class="cls-4" d="M95.7,88.9c-2.8,8.3-13.8,2-12.1-4.9l.2-.3c4.1,2.8,7.2,4.7,11.9,5.2Z"/><path class="cls-6" d="M100,80.8c-3.3,2.7-4.5,1.5-9-.6"/><path class="cls-7" d="M105.9,73.6c-.3,1.6-1.4,2.7-2.2,2.5-.9-.2-1.3-1.6-.9-3.1.4-1.5,1.4-2.7,2.2-2.5.9.2,1.3,1.6.9,3.1Z"/><path class="cls-7" d="M89,69.6c-.3,1.5-1.4,2.6-2.3,2.4-.9-.2-1.4-1.5-1-3.1.3-1.5,1.4-2.5,2.3-2.4.9.2,1.4,1.6,1,3.1Z"/><path class="cls-6" d="M83.7,83.7c-.3-.2-.6-.4-.9-.6"/><path class="cls-1" d="M82.6,103.2c-.5.7-1,2-1.6,3.4,0,0,0,0-.1,0,0,0,0,.1,0,.2-1.2,2.9-2.7,6-4.9,4.4-.9-.6-3-2.2-5.5-4.1-2.7-2.1-5.9-4.7-8.3-7.2-.9-.9-1.6-1.8-2.3-2.6,1.2-.6,2.2-2.2,2.8-4.4.6-2.3.7-5.3-.2-8.5,0-.2-.1-.4-.2-.5h1.2c1.5,2.2,3.4,3.5,5.3,5.8,2.5,2.9,9,7.5,14,10.4,0,.1,0,.5,0,.9,0,.8,0,1.8-.3,2.3Z"/><path class="cls-6" d="M82.8,100s0,0,0,0"/><path class="cls-4" d="M42.7,138.4c-1.4,2.8-2.7,4.9-3.5,5.8-.6-.3-1.1-.6-1.7-.9-5-2.5-11.2-5.5-13.9-7.4-.8-.6-1.3-1-1.4-1.3s.9-2.9,2.6-6.6c0,0,0,0,0,0h.3c4.6,4.3,10.6,7.6,17.7,10.5Z"/><path class="cls-5" d="M79.5,152.6c-.2.1-.4.3-.6.5-2.5-2-4.9-4.1-7.4-6.1-1.1-.9-2.2-1.8-3.5-2-1.4-.2-2.7.4-4,.9-4.4,2-8.8,4.2-13,6.6-1.4-2.1-3.4-3.4-4.5-4.4h0c.3-3,.6-5.6.8-8,9.6-.9,19-4.9,26.2-11.3-8.5.6-16.8-1.4-23.9-6-.8,2.1-1.7,4.2-2.5,6.3-1.4,3.4-2.9,6.6-4.2,9.2-7-2.9-13.1-6.2-17.7-10.3h-.3c4.3-9.7,13-26.1,19.6-27.8.3,0,.5-.1.8-.1l-.3.9c4.1,1.5,7.3,4.9,9.6,8.6,2.4,3.8,4,8,6.2,12,.1.4.3.9.5,1.3,2.7-2,5.1-4.3,7.1-7l1.3-.3c1,.9,2.1,1.8,3.3,2.7.2-.3.5-.7.7-1,1.4-1.8,3.7-3.5,4.7-5.2,0,0,.2,0,.3.2,1.3,8.2,2.1,20.8,1,40.5Z"/><path class="cls-6" d="M50.5,119.9c-.3,1-.7,2-1.1,3"/><path class="cls-6" d="M51.8,116.3c-.4,1.2-.8,2.4-1.2,3.6"/><path class="cls-6" d="M96.2,135.9c0,.6,0,1.3-.1,1.9"/><path class="cls-6" d="M96.6,119.9c.3,2.6.3,4.9.2,6.8"/><path class="cls-4" d="M94.8,153c-.2,2.1-.3,4-.5,5.9h-.2c-1.5-2.4-3.3-4.7-5.3-6.7-3.1,1.9-6.7,4.2-9.7,6.4.1-2.1.3-4,.4-5.9,3-2.2,6.6-4.5,9.7-6.4,2,2.1,3.7,4.3,5.3,6.7h.3Z"/><path class="cls-4" d="M96.8,126.6c0,1.5-.2,2.6-.2,3.3-.1,2.1-.3,4.1-.4,5.9-4.4-1.9-8.9-4.6-12.6-7.5,4.5,0,8.9-.6,13.2-1.7Z"/><path class="cls-4" d="M93.6,166.9c-.1,1.9-.3,4-.4,6.2h-.1c-1.5-2.4-3.3-4.6-5.3-6.7-3.2,2-6.9,4.3-9.9,6.6.2-2.2.4-4.3.6-6.3h0c3-2.3,6.6-4.5,9.7-6.4,2,2.1,3.7,4.3,5.3,6.7h.2Z"/><path class="cls-5" d="M94.3,158.9c-.2,2.7-.5,5.2-.7,7.9h-.2c-1.5-2.4-3.3-4.6-5.3-6.7-3.1,1.9-6.7,4.2-9.7,6.4.2-2.8.5-5.4.6-8,3-2.2,6.6-4.5,9.7-6.4,1.9,2.1,3.7,4.3,5.3,6.7h.2Z"/><path class="cls-5" d="M93.2,173.1c-.2,4-.5,8.5-.7,14.1-2.2,1.6-6.1,3.8-8.9,3.9-3,.1-5-2.3-7.3-4.1.6-5,1.1-9.7,1.5-14.1,3-2.3,6.7-4.6,9.9-6.6,2,2.1,3.7,4.3,5.3,6.7h.1Z"/><path class="cls-5" d="M77.9,172.9c-.4,4.4-1,9.1-1.5,14.1h0c-2.5,2.3-4,4.5-7.3,4.5-2.8,0-6.1-1-8.8-1.8-6.4-1.8-12.5-4.7-18.2-8.2-.3-.2-.7-.4-1-.6,1.9-5.5,2.3-6.4,3.3-12.1,2.3,1.1,4.3,2.3,5.8,3.4-.4,3.6,4.4,7.2,7.3,8.6,2.1,1,11.4,3.1,9.7-1.6,1.2-.4,3.3-2.7,1.4-3.9,1.3-.7,2.5-2.8.9-4.7.9-.6,1.5-1.1,1.9-1.6,2.1,1.8,4.1,2.6,6.3,4.3.1-.1.3-.2.4-.3Z"/><path class="cls-4" d="M94.9,106.5l-.4.4c-.6,4.5-1.1,9-1.7,13.5-1.5-2.5-3.6-4.6-6-6h-.1c.2-.9.3-1.7.4-2.6h.1c1.2,0,3.4,1.6,4.5,2.1.3-2.6.1-6.1.8-8.7l.2-.4h0c.8.5,1.5,1.1,2.2,1.6t0,0h0Z"/><path class="cls-4" d="M108.8,138.4c-.3.2-.6.3-.8.5-4.9,2.7-9.8,3.7-12.1,5.9h-.3c0,0,0,0,0,0,.2-2.1.4-4.5.5-7h.4c3.8-1.2,6.3-3,10.3-4.3h.2c.5,1.9,1.1,3.6,1.8,5Z"/><path class="cls-5" d="M92.7,104.9l-.2.4c-.6,2.6-.4,6-.8,8.7-1.1-.5-3.3-2.1-4.5-2.1h-.1c.2-2,.2-4-.1-5.9-.2-1.4-.5-2.9-1-4.2,1,.4,1.8.8,2.4.9h0c1.6.7,3,1.5,4.3,2.4Z"/><path class="cls-1" d="M125.5,160.3c-3.1.7-.6-.2-3.2,1.6-2,1.3-4.7,4.3-5.6,7h-.4c-2.9-7.6-15-9-20.8-24h.3c2.3-2.3,7.2-3.3,12.1-6,6.3,6,13.4,18.7,17.6,21.5Z"/><path class="cls-1" d="M127.3,176.8c-2.9,2.1-4.6,2.9-7.6.9-1.4-.9-2.8-4.9-3.2-6.5-.2-.7-.1-1.5.2-2.3.9-2.6,3.6-5.6,5.6-7,2.6-1.8,0-.9,3.2-1.6,3.4-1,7.5.8,8.9,3.9,1.5,3.1-4.2,10.5-7.1,12.5Z"/><path class="cls-6" d="M42,181.4c0,0,0,.1,0,.1"/><path class="cls-1" d="M35,284.3l-.3.3c4.2,4,7.3,7.3,10.5,10.7,0,2.8-2,5.3-4.4,6.6-2.6,1.4-5.5,1.8-8.4,2.1l-.2.4c-6.3-3.6-11.9-7.6-17.6-12.6,2-2.9,5-5.6,7.2-8.2,2.2-10.6,5.2-25.9,11.1-35,2-3.1,3.4-6.7,4.8-10.1h0c5.7,3.4,12.1,6,18.7,7.6v.3c-5.5,9.8-14.5,29.1-21.5,37.9Z"/><path class="cls-6" d="M21.8,283.6v.4"/><path class="cls-2" d="M113.6,235.9c-.3,0-.6.1-.8.2-6.5,1.7-12.1,2.6-18.2,5.4-1.5.7-3,1.3-4.5,2-4.2,1.8-8.5,3.2-12.9,3.7-6.9.8-13.9.3-20.7-1.2-6.6-1.5-12.9-4.1-18.7-7.6-1-.6-1.9-1.2-2.8-1.8h-.2c1.2-17.9,0-34.7,7.2-55.1,5.7,3.5,11.8,6.4,18.2,8.2,2.7.8,6,1.8,8.8,1.8,3.4,0,4.8-2.3,7.3-4.6h0c2.3,1.8,4.3,4.2,7.3,4.1,2.8-.1,6.7-2.3,8.9-3.9,8,10.9,23.8,35.9,21.1,48.8Z"/><path class="cls-6" d="M96.1,291.1c0,0,0,.1,0,.2"/><path class="cls-5" d="M67,113.3c-.2.9-4.6,5.3-5.2,4.9-.5-.3-4.6-10.4-6.7-13s-3.8-5-7.1-5.6v-.2c2.5-.4,5.6-.9,7.8-1.3,0,.1,0,.2,0,.3,0,.4,0,.9.2,1.4.3.8.9,1.5,1.5,2.2,1.8,2.2,3.6,4.3,5.3,6.3,1.4,1.7,2.8,3.2,4.4,4.8Z"/><path class="cls-6" d="M56.1,98.2c0,0-.1,0-.2,0"/><path class="cls-1" d="M119.5,297.5c-.4,3.4-2,6.5-4.5,8.8-.1.1-.5.5-.7.5v.7c-7.5-1.3-14.7-3.2-21.7-5.9.6-3.7,1.7-7,3.2-10.6h.3c0-.8,0-1.5,0-2.3.4-12.2-1.1-21.4-4.5-33.6-.8-2.8-1.7-8-1.7-11.7,1.5-.6,3-1.3,4.5-2,6.1-2.8,11.8-3.8,18.2-5.4.1,19.9-1.2,31.6-4,52.4v.2c3.7,2,6.8,3.7,9.7,5.2v.2c1,.5,1.2,2.1,1,3.3Z"/><path class="cls-1" d="M138.1,309.2c0,.1,0,.2-.1.3l-1-.3c-5,.1-10.1,0-15.1-.6v-.8c1.4-.7,2.7-1.4,3.8-2.4,1.1-1,2-2.3,2.1-3.8.1-1.3-.4-2.7-1.4-3.4,1.9,1,4,2.1,6.2,3.4,1.6.9,3.2,1.5,4.2,3,1.1,1.7,1.6,3.3,1.3,4.6Z"/><path class="cls-2" d="M138,309.6c-.3,1-1.2,1.9-2.6,2.7-3.4,1.8-7.6,1.6-11.5,1.2-11.9-1.2-16.1-2.7-27.7-5.7-1.4-.4-2.9-.8-3.6-2-.5-.9-.4-1.9-.2-2.9,0-.4.1-.8.2-1.2,7,2.7,14.2,4.6,21.6,5.9,2.6.4,5.1.8,7.7,1.1,5,.5,10.1.7,15.1.6l1,.3Z"/><path class="cls-2" d="M127.8,301.7c-.2,1.5-1,2.8-2.1,3.8-1.1,1-2.4,1.7-3.7,2.4v.8c-2.7-.3-5.2-.6-7.8-1.1v-.7c.3,0,.7-.4.8-.5,2.5-2.3,4.1-5.5,4.5-8.8.2-1.2,0-2.8-1.2-3.3v-.2c2.8,1.4,5.3,2.8,8.1,4.3,1,.8,1.5,2.1,1.4,3.4Z"/><path class="cls-6" d="M34.6,284.6h0"/><path class="cls-1" d="M57.2,310.2h0s-.2,0-.2,0c-.9,1.7-3.1,2.3-5,2.1-1.9-.2-6-1.2-7.7-1.9-1.5-.7-3-1.3-4.4-2l.3-.7c4.2-.8,8.1-3.1,10.7-6.5h0c.8.8,1.7,1.7,2.6,2.5,1.3,1.2,2.6,2.6,3.1,4.2.2.8.4,1.5.5,2.2Z"/><path class="cls-2" d="M53.9,314.7c-3.8.8-6.7.8-10.3-.5-11.1-4.2-17.6-8.8-27.9-14.7-1.2-.7-2.6-1.6-2.9-2.9-.2-.9.2-1.9.6-2.8.3-.7.7-1.4,1.2-2,5.6,5,11.3,9,17.6,12.6,2.5,1.4,5,2.7,7.7,4h0c1.4.7,2.9,1.3,4.4,2,1.8.8,5.8,1.7,7.7,1.9,1.9.2,4-.4,5-2.1h.2c.3,2.3-.3,3.9-3.2,4.5Z"/><path class="cls-2" d="M50.9,301.3h0c-2.6,3.4-6.5,5.8-10.7,6.5l-.3.7h0c-2.7-1.3-5.2-2.6-7.7-4l.2-.4c2.9-.3,5.8-.7,8.4-2.1,2.4-1.3,4.4-3.8,4.4-6.6,1.8,1.9,3.7,3.8,5.8,5.9Z"/><path class="cls-6" d="M22,283.4c0,0-.1.2-.2.2"/><path class="cls-6" d="M114.9,58.4c.1.8,0,1.6-.2,2.4"/><path class="cls-6" d="M62.7,70.8h0c.6-.1,1.1-.5,1.8-.9"/><path class="cls-6" d="M36.6,144.8c-2-1.3-4.1-1.9-7.5-2.5"/><path class="cls-6" d="M56,161.7c-.3,0-.6,0-.9,0"/><path class="cls-6" d="M68.2,164.3c-1.2-.7-2.5-1.2-3.1-1.6"/><path class="cls-6" d="M68.2,164.3s0,0,0,0"/><path class="cls-3" d="M93.1,62.2c-2.1-.6-9.8-1.3-9.8-1.7.3-4,6.4-2.9,9.5-1.8,3,1,1.1,3.8.3,3.5Z"/><path class="cls-3" d="M108.9,66.2c0,.8-.3,2.6-1,2.3-.6-.2-3.7-1.7-4.3-2-1.6-.9-.3-3.2,1-3.4,1.4-.2,4.4,2.3,4.3,3.1Z"/><path class="cls-4" d="M79.5,152.6c-.1,1.9-.2,3.9-.4,5.9-.2.2-.4.3-.7.5-2.5-2-4.9-4.1-7.4-6.1-1.1-.9-2.1-1.9-3.4-2.1-1.4-.2-2.8.5-4.1,1-4.4,2-8.8,4.2-13,6.6-1.1-2-3.2-3.5-4.7-5,.2-1.9.4-3.7.5-5.3h0c1.1,1.1,3.1,2.3,4.5,4.4,4.2-2.4,8.6-4.6,13-6.6,1.3-.6,2.6-1.1,4-.9,1.3.2,2.5,1.1,3.5,2,2.5,2,4.9,4.1,7.4,6.1.2-.2.4-.3.6-.5Z"/><path class="cls-4" d="M78.5,166.6c-.2,2-.4,4.1-.6,6.3-.1,0-.3.2-.4.3-2.1-1.8-4.1-2.5-6.3-4.3,1.4-1.9-.8-3.5-3-4.6-.3-3.7-3.5-4-6.9-3.6h0c.5-.3,1.1-.6,1.6-.8,1.2-.6,2.6-1.1,4-.9,1.4.2,2.5,1.1,3.5,2,2.5,2,5,4.1,7.4,6.1.2-.1.4-.3.6-.4Z"/><path class="cls-5" d="M79.1,158.6c-.2,2.6-.4,5.2-.6,8h0c-.2.2-.4.3-.6.5-2.5-2-4.9-4.1-7.4-6.1-1-.9-2.2-1.8-3.5-2-1.4-.2-2.7.4-4,.9-.5.2-1.1.5-1.6.7h0c-2.2.3-4.6.8-6.2.9h0c-4-.3-7.1-3.9-9.6-7.3l.2-.2c0-.2,0-.4,0-.6,1.6,1.5,3.6,3,4.7,5,4.2-2.4,8.6-4.6,13-6.6,1.3-.6,2.7-1.2,4.1-1,1.3.2,2.4,1.2,3.4,2.1,2.5,2,4.9,4.1,7.4,6.1.2-.2.4-.3.7-.5Z"/><path class="cls-6" d="M76.3,187h0"/><path class="cls-6" d="M78.5,112.1c0-.1,0-.2,0-.3"/><path class="cls-6" d="M86,101.7s0,0,0,0"/><path class="cls-4" d="M62.8,108.4h-.1c-1.7-1.9-3.5-4-5.3-6.2-.6-.7-1.1-1.4-1.5-2.2-.2-.5-.2-1-.2-1.4h.6c1.9.7,3.8,1.2,5.8,1.4-.2,2.8,0,5.7.7,8.5Z"/><path class="cls-4" d="M73.5,117.2c-.3.3-.5.7-.7,1-1.2-.9-2.3-1.8-3.3-2.7-.8-.7-1.6-1.5-2.4-2.3-1.5-1.5-3-3.1-4.4-4.8h.1c2.6-.5,5.1-1,7.7-1.4,1.6,3.1,2.6,6.6,2.9,10h0Z"/><path class="cls-4" d="M87.1,111.8c0,.9-.2,1.7-.4,2.6,0,.4-.2.8-.3,1.2h-.4c0-1.4-4.8-6.4-5.1-8.8,0,0,0-.2,0-.3,1.9-.7,3.9-.9,5.9-.7h0c.3,1.9.3,3.9.1,5.9Z"/><path class="cls-5" d="M59.9,97.3c.6.8,1.4,1.7,2.3,2.6h0c-2-.2-3.9-.6-5.8-1.3h-.6c0-.2,0-.2,0-.4h0c.2-.8.9-1.4,1.6-2.2,1.2-1.4,3-2.4,5-3.2h.3c-.6,2.3-1.7,3.9-2.8,4.5Z"/><path class="cls-5" d="M70.5,107.1h0c-2.6.4-5.1.9-7.7,1.3-.7-2.8-.9-5.6-.7-8.5h0c2.4,2.4,5.6,5,8.3,7.1Z"/><path class="cls-5" d="M86.4,115.6c-.1.4-.2.8-.4,1.3-2.3-1.8-4.8-3.4-7.5-4.7,0,0-.2-.1-.3-.2-1,1.8-3.3,3.5-4.7,5.2h0c-.4-3.6-1.3-7-2.9-10.1h0c2.5,1.9,4.7,3.5,5.5,4.1,2.2,1.6,3.7-1.5,4.9-4.4.3,2.3,5,7.3,5.1,8.6h.4Z"/><path class="cls-6" d="M42.7,138.4s0,0,0,0"/><path class="cls-6" d="M25.4,127.8c-.1,0-.2.2-.4.2"/><path class="cls-6" d="M44.8,100.9c-.1,0-.2,0-.3-.1"/><path class="cls-4" d="M69.4,115.6l-1.3.3c-2,2.6-4.4,5-7.1,7-.2-.4-.3-.9-.5-1.3-2.1-3.9-3.8-8.2-6.2-12-2.3-3.7-5.5-7.1-9.6-8.6l.3-.9c.7-.2,1.7-.3,2.9-.5v.2c3.3.6,5,3,7.1,5.6s6.2,12.7,6.7,13c.6.4,5-4,5.2-4.9.8.8,1.6,1.5,2.4,2.3Z"/><path class="cls-6" d="M66.9,113.2c0,0,0,0,0,.2"/><path class="cls-4" d="M47.1,140.2c.4-4.1.5-7.4,0-10.9h-.2c.9-2.1,1.7-4.2,2.5-6.3,7.1,4.6,15.4,6.6,23.9,6-7.2,6.4-16.6,10.4-26.2,11.3Z"/><path class="cls-6" d="M47.1,140.2s0,0,0,0"/><line class="cls-6" x1="96.2" y1="135.9" x2="96.2" y2="135.9"/><path class="cls-6" d="M45.8,153.5c-.1-.1-.2-.2-.3-.3"/><path class="cls-6" d="M71.2,168.9h0"/><path class="cls-4" d="M87,105.9h0c-1.2-1.5-2.8-3.5-4-5h0c0-.4,0-.8,0-.9,1.2.7,2.2,1.2,3.2,1.7h0c.5,1.4.8,2.8,1,4.2Z"/><path class="cls-5" d="M86.9,105.9c-2-.2-4,0-5.9.7.6-1.4,1.1-2.7,1.6-3.4.3-.5.3-1.5.3-2.3h0c1.2,1.5,2.8,3.5,4,5Z"/><path class="cls-6" d="M126.4,298.3c-.1-.1-.3-.2-.5-.3"/></svg>