<?xml version="1.0" encoding="UTF-8"?><svg id="oceania" xmlns="http://www.w3.org/2000/svg" width="235" height="321.9" viewBox="0 0 235 321.9"><defs><style>.cls-1{fill:#2b3135;}.cls-1,.cls-2,.cls-3,.cls-4,.cls-5,.cls-6,.cls-7,.cls-8,.cls-9,.cls-10{stroke:#000;stroke-linecap:round;stroke-linejoin:round;}.cls-2{fill:#339fca;}.cls-3{fill:#dfd4e6;}.cls-4{fill:#d13a0f;}.cls-5{fill:#cbc21d;}.cls-6{fill:#9e5a3c;}.cls-7{fill:#ea3b82;}.cls-8{fill:#fff;}.cls-9{fill:none;}</style></defs><path class="cls-9" d="M77.1,77.3s0,0,0,0"/><path class="cls-4" d="M66.7,104.9c-3.8,3.6-4,3.6-5.3,4.5-.4.3-.8.6-1.2.9-5.3-2.9-7.8-12.8-8.2-16.6,0-.6,0-1.1,0-1.3.2-1.1,5-5.7,5.9-6.5,1.2-1.2,2.4-2.2,3.5-3.2h0c-.6.7,0,1.6.7,2,.7.4,1.5.7,1.7,1.5.3.9-.6,1.7-1,2.5-1.1,2-1,5.7,1.1,6.3.8.2,1,1.8,1.6,2.7.6,2.7,1,5,1.2,7.2Z"/><path class="cls-9" d="M67,104.7c-.1.1-.2.2-.3.3"/><path class="cls-6" d="M47.1,119.6c-5.1,9.5-8.9,14-12.7,21.8h.1c2.6.8,5.1,10.7,3.4,12.8-1.9,2.3-12.4,3.3-14.2,2.1-2.1-1.5.2-10.1,1.6-12.2,2.9-13.6,4.7-20.7,12.5-32.1,3.5-5.2,10.6-14.6,14.1-18.3.5,3.8,3,13.8,8.2,16.6-3.7,2.6-8.8,5.9-13.1,9.3Z"/><path class="cls-9" d="M34.4,141.4c0,.2-.2.4-.3.6"/><path class="cls-9" d="M62.8,108.3c-.4.3-.9.7-1.5,1.1"/><path class="cls-9" d="M109.9,82.4s0,0,0,0"/><path class="cls-6" d="M119,86.9l-.2.2c-2.4,2.2-7.9,6.2-11.8,7.4-3.9,1.2-8.4,1.8-12.7,1.3-4.3-.5-8.3-2-10.6-4.2-1.7-1.6-3-4.2-3.4-6.1-.7-3.2-.5-5.4.3-8.1,3.2.2,6.6.3,8.6.3.5,0,1,0,1.3,0h0c0,0,0-.1,0-.2.5-2.4,1.1-5.6,1.4-7.9,8.4,9.6,13.5,11,17.6,9.5h.4c-.2,1-.4,1.4-.2,3.2,1.5.9,6.5,3.2,8.9,4.4h.1c0,.1,0,.2.1.2Z"/><path class="cls-9" d="M117.2,118.8c-.2,0-.5,0-.7.1"/><path class="cls-4" d="M128.5,98.8c-.1,0-.2,0-.3,0-1.3,0-2.1,1.4-2.4,2.6-.2.9-.5,2-1.2,2.7-1.2,1.2-3.3.9-5,.5-1.7-.4-3.6-.9-5.1,0-1.5.9-1.8,2.9-3.1,4.1-1.3,1.1-2.9.6-4.6.2-1.7-.3-3.6-1.6-5.3-1.4-1.8.2-3.6,2.7-5.2,3.4-1.6.8-2.7,1.1-4.3.3-1.8-.9-3-4.6-4.8-5.4-1.7-.8-4,.7-5.8,1.2s-4.3,1.4-5.4-.1c-.9-1.2-1.7-2.5-1.6-4,.2-2.4.3-3.6-1-5-1.4-1.5-.9-.4-5-2.6-1.6-.9-3.7-2-3.9-3.9-.1-1.7,2.2-2.7,2.4-4.3.1-1-.6-1.9-1.2-2.6-.7-.7-1.5-1.5-1.6-2.5-.1-1,1.1-2.6,2.3-3.2h0c1.5-.9,3.2-1.5,5.1-1.9.2,0,.9,0,2.1,0-.9.2-1.7.9-2.1,1.7-.5,1-.4,2.4.4,3.3.7.8,1.7,1.2,2.2,2.1,1.3,2.6-3.9,5.1-2.7,7.9,1,2.4,5.1.9,6.8,2.8,1.8,1.9-.3,5.6,1.6,7.4,1.2,1.1,3.1.5,4.5-.2,1.4-.7,3-1.6,4.5-1.1,2.4.9,2.8,4.7,5.2,5.4,3.3.9,5.3-4.6,8.7-4.5,2.5,0,4.7,3.2,6.9,2.2,1.9-.9,1.6-4.1,3.3-5.3,2.5-1.9,6.8,1.7,8.9-.6.7-.8.8-1.9.8-2.9,0-1,0-2.2.7-3,.4-.5,1.2-.8,1.8-.7.8.7,1.4,1.2,1.5,1.6.8,1.9,1.4,3.9,2,5.8Z"/><path class="cls-3" d="M129.7,102.8h-.6c-.6,2.2-1.4,4.4-3.3,5.3-2.4,1-6.4-.8-8.8.3-2,.9-1.7,3.6-3.6,4.6-1.5.8-3.2.5-4.8,0s-4.3-1.7-6-1.8c-4.1-.2-2.8,5.1-11.2,3.9-2.6-.4-3.9-4.3-6.5-4.8-2.7-.5-5.6,1.7-8.3,1.1-1.8-.4-4.2-1.8-4.8-3.7-.3-1-.1-2.2-.3-3.2-.2-1.4-.4-2.4-1.2-3.4-1-1.3-3.2-1.8-4.3-2.9-.1-.1-.2-.2-.3-.4-.6-.9-.9-2.5-1.6-2.7-2.1-.7-2.2-4.4-1.1-6.3.5-.8,1.3-1.6,1-2.5-.2-.8-1.1-1.1-1.7-1.5-.7-.4-1.2-1.3-.7-1.9h0c1.6-1.5,3.1-2.7,4.9-3.6,0,0,.1,0,.2-.1h0c-1.2.6-2.5,2.3-2.3,3.2.1,1,.9,1.7,1.6,2.5.7.7,1.4,1.6,1.2,2.6-.2,1.7-2.5,2.7-2.4,4.3.2,1.8,2.2,3,3.9,3.9,4.2,2.2,3.7,1.1,5,2.6,1.3,1.4,1.2,2.7,1,5-.1,1.5.8,2.8,1.6,4,1.1,1.5,3.5.6,5.4.1s4.1-2,5.8-1.2c1.9.9,3,4.5,4.8,5.4,1.6.8,2.7.5,4.3-.3,1.6-.8,3.5-3.2,5.2-3.4,1.8-.2,3.6,1.1,5.3,1.4,1.7.3,3.3.9,4.6-.2,1.3-1.2,1.6-3.2,3.1-4.1,1.5-.9,3.4-.4,5.1,0,1.7.4,3.7.7,5-.5.7-.7,1-1.7,1.2-2.7.3-1.2,1.1-2.7,2.4-2.6.1,0,.2,0,.3,0,.4,1.4.8,2.7,1.1,4Z"/><path class="cls-3" d="M125,91.4c-.6-.1-1.4.1-1.8.7-.6.8-.7,2-.7,3,0,1,0,2.2-.8,2.9-2.1,2.3-6.4-1.2-8.9.6-1.7,1.3-1.4,4.4-3.3,5.3-2.2,1.1-4.4-2.1-6.9-2.2-3.4,0-5.4,5.4-8.7,4.5-2.5-.7-2.8-4.6-5.2-5.4-1.5-.5-3.1.4-4.5,1.1-1.4.7-3.3,1.2-4.5.2-1.9-1.7.1-5.5-1.6-7.4-1.7-1.9-5.8-.4-6.8-2.8-1.1-2.7,4-5.2,2.7-7.9-.4-.9-1.5-1.3-2.2-2.1-.8-.9-1-2.2-.4-3.3.4-.8,1.2-1.4,2.1-1.7h0c1,0,2.1.1,3.5.2-.8.3-1.6.7-1.8,1.3-.5.9-.3,2.1.4,2.9.6.7,1.5,1,1.9,1.8,1.1,2.3-3.4,4.5-2.4,6.9.9,2.1,4.5.8,6,2.4,1.5,1.7-.3,4.9,1.4,6.5,1.1.9,2.7.5,4-.2,1.2-.6,2.7-1.4,4-.9,2.1.7,2.4,4.1,4.6,4.7,2.9.8,4.7-4,7.7-3.9,2.2,0,4.1,2.8,6.1,1.9,1.7-.8,1.4-3.5,2.9-4.7,2.2-1.6,6,1.5,7.8-.5.6-.7.7-1.7.7-2.6,0-.9.2-1.8.6-2.6.4-.8.9-.6,1.8-.6.8.6,1.6,1.2,2.3,1.8Z"/><path class="cls-6" d="M129.4,131.1c-1.1,2.3-2.4,2.5-3.4,3.2-4.1,1.7-7.6,2.6-10.8,3.1-8.6,1.4-15.1-.6-27-1.9-2.9,1.1-13.3,1.4-14.4-1.5-.9-2.5,3-14.8,6.2-16.3,2.9-1.4,13.6,4.4,13.7,7.7h0c9.2-1.8,13.2-.9,23.8-3.6-.1-.9-.3-2.1-.4-3,5-1.1,10.8-.7,13.4-1.1h0c.3,3.9.6,9.8-1.2,13.4Z"/><path class="cls-9" d="M93.8,125.5c-.2,0-.5.1-.8.2"/><path class="cls-9" d="M119.7,121.2c-.7.2-1.4.4-2.1.6"/><path class="cls-9" d="M63.9,151.3c0,.1,0,.3,0,.4"/><path class="cls-9" d="M115.3,137.4s0,0,0,0"/><path class="cls-9" d="M67,118.7c0,.3,0,.6,0,.8"/><path class="cls-9" d="M65.5,97.7c0,0,0-.1,0-.2"/><path class="cls-4" d="M133,165.1c-3.1,2.9-3.4,9.4-4.8,13.2-1.7,4.8-.4,10.1-.8,15.2,0,.2,0,.5,0,.7-.4,4.2-1.6,8.5-3.8,12-.2.3-.4.7-.7,1-2.8,3.9-6.9,6.5-10.5,9.5-3,2.5-6,5.5-7.4,9.1-.2.6-.4,1.1-.6,1.8h-.3c-1.7-5-20-33.5-28.5-45.2l-.4-.4c-4.5-5.5-12.5-14.8-11.2-30.7h0c.2-9.9.7-5.4,3-32.6h0c0-5.4.2-9.3-.3-13.8-.2-2.2-.6-4.6-1.2-7.2.1.2.2.3.3.4,1.2,1.1,3.3,1.6,4.3,2.9.9,1.1,1.1,2.1,1.2,3.4.1,1.1,0,2.2.3,3.2.6,1.9,3,3.3,4.8,3.7,2.7.6,5.6-1.6,8.3-1.1,2.6.5,3.9,4.4,6.5,4.8,8.4,1.3,7.1-4.1,11.2-3.9,1.6.1,4.4,1.3,6,1.8s3.4.8,4.8,0c1.9-1.1,1.6-3.7,3.6-4.6,2.4-1.1,6.4.8,8.8-.3,2-.8,2.7-3.1,3.3-5.1h.6c2,7.7,2.5,13.9,2.1,14.3-.2.2-.6.3-1.2.4-2.5.4-8.4,0-13.4,1.1.1.9.3,2.1.4,3-10.6,2.7-14.5,1.8-23.8,3.8h0c-.1-3.5-10.8-9.3-13.7-7.8-3.2,1.6-7.1,13.8-6.2,16.3,1.1,2.9,11.6,2.6,14.4,1.5,11.9,1.3,18.4,3.3,27,1.9-.9,3.4,1.3,15.5,1.4,21h0c.3.2.7.3,1.1.3,6.6,2.1,16.4,5.2,15.2,6.3Z"/><path class="cls-9" d="M117.8,158.8c-.4-.1-.7-.2-1-.3-1.5-.5-2.8-.9-3.7-1.2"/><path class="cls-9" d="M104.4,227.7c0,.2-.1.4-.1.6"/><path class="cls-9" d="M110.5,287.5c0,.1,0,.2-.1.3"/><path class="cls-6" d="M123.4,246.3c-3,11.4-9,30.2-12.9,41.2h.2c2.9,2.4,5.4,4.3,7.8,6.2v.2c.8.6.7,2,.4,3.1-.9,2.9-2.8,5.4-5.3,7.1-.1,0-.5.3-.7.4l-.2.6c-6.3-2.2-12.3-5.1-18.1-8.5,1.1-3.2,2.5-5.9,4.4-8.8v-.2c-.3-11.7-.4-32.4,3.3-43.4,1.2-3.7,2.6-8,3.1-12,.6-4,.6-3.2,0-6h-.4c1.4-3.8,4.4-6.7,7.4-9.2,3.7-3,7.7-5.6,10.5-9.5.2-.3.5-.7.7-1l.4.2c.4.7,5.3,15.2,5.4,15.9,1.1,5.5-3.4,14.1-6,23.8Z"/><path class="cls-9" d="M127.5,193.6h-.1"/><path class="cls-9" d="M196.2,205.8c-.3-.1-.6-.2-.9-.3"/><path class="cls-9" d="M203.3,194.5s0,0-.1,0"/><path class="cls-9" d="M90.7,151c3.2.6,6.6,1.4,10.2,2.2,9,2,11.4,4.3,15.9,5.4"/><path class="cls-9" d="M118.2,158.9c-.2,0-.3,0-.5,0"/><path class="cls-9" d="M117.6,122.1c0,0,0-.2,0-.3"/><path class="cls-9" d="M117.2,118.8s0-.1,0-.1"/><path class="cls-9" d="M80.7,77c0,.2-.1.4-.1.5"/><path class="cls-4" d="M122.7,89.6c-.9,0-1.3-.2-1.8.6-.4.8-.6,1.7-.6,2.6,0,.9,0,1.9-.7,2.6-1.8,2-5.6-1.1-7.8.5-1.5,1.1-1.2,3.9-2.9,4.7-2,1-3.9-1.8-6.1-1.9-3,0-4.8,4.8-7.7,3.9-2.2-.6-2.5-4-4.6-4.7-1.3-.5-2.7.3-4,.9-1.3.6-2.9,1.1-4,.2-1.7-1.5.1-4.8-1.4-6.5-1.5-1.7-5.1-.4-6-2.4-1-2.4,3.6-4.6,2.4-6.9-.4-.8-1.3-1.1-1.9-1.8-.7-.8-.8-2-.4-2.9.3-.5,1-1,1.8-1.3t0,0c1.1,0,2.3.1,3.5.2-.8,2.7-1,4.9-.3,8.1.4,1.9,1.7,4.5,3.4,6.1,2.3,2.2,6.3,3.8,10.6,4.2,4.3.5,8.9,0,12.7-1.3,3.9-1.2,9.4-5.2,11.8-7.4l.2-.2c.7.5,2.3,1.6,3.8,2.7Z"/><path class="cls-9" d="M123.1,89.6c-.1,0-.2,0-.3,0"/><path class="cls-9" d="M78.7,77.1c-.4,0-1,0-1.6.3"/><path class="cls-9" d="M125.9,92c-.2-.3-.5-.5-.8-.6"/><path class="cls-9" d="M74.5,77.1c-.3,0-.6,0-.9,0"/><path class="cls-6" d="M133.2,310.3l-.8-.4c-4.5-.6-8.8-1.6-13.2-2.8l.2-.6c1.3-.4,2.5-.9,3.7-1.6s2.1-1.8,2.4-3c.3-1.1,0-2.5-.8-3.3,1.5,1.2,3.2,2.5,5,3.9,1.3,1,2.6,1.8,3.2,3.3.8,1.8.9,3.4.3,4.6Z"/><path class="cls-1" d="M133.2,310.3c-.5.8-1.3,1.5-2.7,1.9-3.3,1-6.9.3-10.3-.7-10.3-2.9-13.8-4.8-23.5-9.2-1.2-.5-2.4-1.2-2.9-2.3-.3-.8,0-1.7.2-2.6.1-.4.2-.7.4-1,5.7,3.4,11.8,6.2,18.1,8.5,2.2.8,4.4,1.5,6.6,2.1h0c4.3,1.2,8.7,2.2,13.2,2.8l.8.4Z"/><path class="cls-1" d="M125.5,301.8c-.4,1.3-1.3,2.3-2.4,3s-2.4,1.1-3.7,1.6l-.2.6h0c-2.2-.6-4.4-1.3-6.6-2.1l.2-.6c.1,0,.6-.3.7-.4,2.5-1.6,4.4-4.2,5.3-7.1.3-1.1.4-2.4-.5-3.1v-.2c2.2,1.6,4.2,3.2,6.4,4.9,0,0,0,0,0,0,.8.8,1.1,2.1.8,3.3Z"/><path class="cls-9" d="M94.5,296.5c0,0-.1,0-.2-.1"/><path class="cls-9" d="M124.7,298.5c0-.1-.2-.2-.3-.3"/><path class="cls-6" d="M216.3,204.6l.3.6c-6,2.9-12.2,5.3-18.7,7-1.1-2.2-1.9-4.4-2.6-6.8-3.5-1.4-6.7-2.4-9.7-3-1-.2-2.1-.4-3.1-.6-7.4-1.1-13.6-.7-19.3-1.4-2.2-.3-4.4-.8-6.5-1.6-2.7-1-5.4-2.6-8.1-5.1-11.8-2.3-13.2.2-21.3-.2.4-5.1-.9-10.4.8-15.2,1.3-3.9,1.7-10.4,4.8-13.2,9.9,4.2,10.1,4.3,22.4,12,9.6,3.6,18.9,6.9,28.3,10.2,1,.4,2.1.7,3.1,1.1,1.4.5,2.7,1,4.1,1.5,4.1,1.5,8.2,3,12.3,4.5,3.5-.5,6.5-.9,9.4-1.3v.2c1.1-.2,2,.8,2.6,1.8,1.5,2.6,1.9,5.8,1.4,8.7,0,.1-.2.6-.2.7Z"/><path class="cls-9" d="M203.2,194.4c-.1,0-.2,0-.4,0"/><path class="cls-6" d="M234.9,194.3l-.9.2c-3.6,2.7-7.3,5.2-11.2,7.5l-.3-.6c.6-1.2,1.1-2.4,1.4-3.7s.2-2.7-.5-3.9c-.6-1-1.6-1.7-2.7-1.7,1.9-.3,3.9-.5,6.2-.8,1.6-.2,3.1-.6,4.6,0,1.8.7,3.1,1.7,3.5,3,0,0,0,0,0,0Z"/><path class="cls-1" d="M234.4,197.4c-1.6,3.1-4.6,5.1-7.7,6.9-9.2,5.4-13,6.5-23,10.4-1.2.5-2.5.9-3.6.4-.8-.4-1.3-1.2-1.7-1.9-.2-.3-.3-.7-.5-1,6.4-1.7,12.7-4.1,18.7-7,2.1-1,4.1-2.1,6.1-3.3,3.9-2.2,7.7-4.7,11.2-7.5l.9-.2c.2.9.1,1.9-.5,3.2Z"/><path class="cls-1" d="M223.8,197.7c-.3,1.3-.9,2.5-1.4,3.7l.3.6c-2,1.2-4.1,2.3-6.1,3.3l-.3-.6c0-.1.2-.6.2-.7.6-2.9,0-6.1-1.4-8.7-.5-1-1.5-2-2.6-1.8v-.2c2.6-.4,5.2-.7,8-1.1h0c1.1,0,2.2.8,2.7,1.7.7,1.2.7,2.6.5,3.9Z"/><path class="cls-9" d="M195.4,205.5c-.2-.8-.4-1.7-.6-2.5"/><path class="cls-9" d="M198,212.3c0,0-.1,0-.2,0"/><path class="cls-9" d="M220,192.1c.2,0,.4,0,.6,0"/><path class="cls-9" d="M83.8,78.1c-1.8,2.3-2.2,5.3-2.5,8.2-.7,6.9-1.4,13.8-2.1,20.8-.4,3.6-.6,7.5,1.5,10.5"/><path class="cls-9" d="M113.2,84.5c-11.9,9-21.9,20.6-28.9,33.8,0-.1.1-.2.2-.3"/><path class="cls-9" d="M110.2,84.2c-.1-.8-.2-1.4-.3-1.9"/><path class="cls-6" d="M123.1,63.9c-.3-2.4-.3-5-.3-6.4-.1-4-.5-8-1.4-11.9-.7.2-1.3.5-2,.4-.9-.1-1.5-1.2-1.4-2.1.2-.9,1-1.6,1.8-1.9.3,0,.2-.1.5-.2h0c-1.6-4.5-4.1-8.7-7.9-11.7-2.3-1.9-5.3-3.3-8.3-2.9-2.1.3-3.9,1.4-5.5,2.7-5.6,4.5-9.1,10.5-9.9,17.6h0c-2-1.2-5,0-5.7,2.3-.7,2.6,2.1,7.3,4.6,6.7.6,5.1,1.9,8.3,4.3,12.8h0c8.4,9.6,13.5,11.1,17.6,9.6.1,0,.2-.1.4-.1,2.4-1,4.5-2.9,6.7-4.8,2-1.6,3.7-2.8,7-8.9-.3-.5-.5-1-.5-1.5ZM98.3,41.7c-.8.2-1.3-.7-.7-1.2.4-.3.8-.6,1.2-.9,1.1-.8,2.6-1.1,4.1-1.2,2.3-.1,9.5.7,8,3.6-.3.6-1.2,1.1-2.1,1.1-.9,0-1.7-.4-2.5-.7-2.3-.8-5.6-1.3-8-.8ZM105,50.6c-.2,1.6-1.1,2.9-2,2.7-.9-.1-1.4-1.6-1.1-3.2.2-1.6,1.1-2.9,2-2.7.8.1,1.3,1.6,1.1,3.2ZM110,71.8c-1.6,0-4-1.1-5.4-2.5-1.3-1.4-1.4-.6-2.7-4.1.7,1.2,9,4.8,13.6,3.2-1.5,2.2-2.8,3.3-5.5,3.3ZM122.3,52.7c-.2,1.4-1,2.5-1.6,2.4-.7,0-1.1-1.3-.9-2.8.2-1.4.9-2.5,1.6-2.4.7.1,1.1,1.4.9,2.8Z"/><path class="cls-9" d="M90.5,77.7c-.2.8-.3,1.5-.4,2"/><path class="cls-10" d="M122.3,52.7c-.2,1.4-1,2.5-1.6,2.4-.7,0-1.1-1.3-.9-2.8.2-1.4.9-2.5,1.6-2.4.7.1,1.1,1.4.9,2.8Z"/><path class="cls-10" d="M105,50.6c-.2,1.6-1.1,2.9-2,2.7-.9-.1-1.4-1.6-1.1-3.2.2-1.6,1.1-2.9,2-2.7.8.1,1.3,1.6,1.1,3.2Z"/><path class="cls-9" d="M116.5,61.6c.2,3.9-3.6,2-6.4,2"/><path class="cls-8" d="M115.4,68.5c-1.5,2.2-2.8,3.3-5.5,3.3-1.6,0-4-1.1-5.4-2.5-1.3-1.4-1.4-.6-2.7-4.1.7,1.2,9,4.8,13.6,3.2Z"/><path class="cls-9" d="M89.3,48.2c-.2-.2-.4-.3-.6-.4"/><path class="cls-1" d="M110.9,42.1c-.3.6-1.2,1.1-2.1,1.1-.9,0-1.7-.4-2.5-.7-2.3-.8-5.6-1.3-8-.8-.8.2-1.3-.7-.7-1.2.4-.3.8-.6,1.2-.9,1.1-.8,2.6-1.1,4.1-1.2,2.3-.1,9.5.7,8,3.6Z"/><path class="cls-1" d="M121.4,45.6c-.7.2-1.3.5-2,.4-.9-.1-1.5-1.2-1.4-2.1.2-.9,1-1.6,1.8-1.9.3,0,.2-.1.5-.2h0c0,.2.2.5.2.7.3,1,.6,2,.8,3Z"/><path class="cls-9" d="M121.5,45.6s0,0,0,0"/><path class="cls-9" d="M124.6,24.4h0"/><path class="cls-1" d="M132.1,44.8c-.2,8.1-1.9,14.8-6.2,21.7-.9.2-1.7-.3-2.2-1.1-.3-.5-.5-1-.5-1.5-.3-2.4-.3-5-.3-6.4-.1-4-.5-8-1.4-11.9-.2-1-.5-2-.8-3,0-.2-.2-.5-.2-.7-1.6-4.5-4.1-8.7-7.9-11.7-2.3-1.9-5.3-3.3-8.3-2.9-2.1.3-3.9,1.4-5.5,2.7-5.6,4.5-9.1,10.5-9.9,17.6h0c-2-1.2-5,0-5.7,2.3-.7,2.6,2.1,7.3,4.6,6.7.6,5.1,1.9,8.3,4.3,12.8h0c-.2-.1-.3-.3-.5-.5-2.9-2.1-5.3-4.3-7.3-6.7-3.5-4.2-5.5-8.8-6.3-13.4-1.3-7.2.8-31.3,25.3-33.4h0c7.4-.4,16.2,3.4,21.3,8.7h0c5,5.5,8.2,11.9,7.5,20.4Z"/><path class="cls-1" d="M92,69.7c-.3,2.2-.9,5.5-1.4,7.9,0,0,0,.2,0,.2h0c-.3,0-.8,0-1.3,0v-.2c-3,0-5.8-.6-7.8-2.8-1.6-1.8-2.3-4.4-1.8-6.7.5-2.4,2.2-4.4,4.4-5.4l.3-.2c1.9,2.4,4.3,4.6,7.3,6.7.1.2.3.4.5.5Z"/><path class="cls-9" d="M90.5,77.5c-.4,0-.9,0-1.3,0"/><path class="cls-5" d="M114.2,147.7c-.4,0-.7.2-1,.6-.2.3-.3.7-.5,1-.3.7-1,1.2-1.6,1.4-.7.2-1.4,0-1.9-.6h0c.5-1.3.4-3-.3-3.4,1.2-.2,2.1-1.4,2.2-2.8h.2c.6-.3.9.1,1.4.6.5.5.9,1.2,1.3,1.9h0l.3,1.4Z"/><line class="cls-9" x1="109.2" y1="150" x2="109.1" y2="149.9"/><path class="cls-2" d="M108.9,146.6c.7.4.8,2.2.3,3.4-.2.4-.4.7-.6.9-1.8,1.4-3.5-1.9-3.5-1.9,0,0-2.1,2.9-3.7,1.5-.6-.5-.9-1.6-.9-2.6,0-1,.2-2,.9-2.5-1.3,0-2.5-1.7-2.1-3.2.2-.6.5-1.1,1-1.4,0,0,0,0,0,0,.7-.4,1.5-.4,2.2,0-.1-1.6,1.2-3.2,2.6-3.1,1.4.1,2.5,1.9,2.2,3.5,1.2-1.1,3.3-.4,3.8,1.3.1.4.2.8.1,1.2-.1,1.4-1,2.7-2.2,2.8Z"/><path class="cls-5" d="M101.2,145.4c-.6.4-.9,1.4-.9,2.5h-.1c-1.1.4-2.3,0-3-1.1-.3-.5-.6-1.1-.9-1.6-.5-.7-1.3-1.1-2.1-1,.3-.4,1.6-3,4-3.8,1.6-.5,2,.2,2,.3,0,0,0,0,0,0-.5.3-.9.8-1,1.4-.4,1.5.8,3.3,2.1,3.2Z"/><path class="cls-9" d="M94.1,144.2s0,0,0,0c0,0,0,0,0,0Z"/><line class="cls-9" x1="111.6" y1="197.2" x2="111.6" y2="197.2"/><line class="cls-9" x1="111.6" y1="197.3" x2="111.6" y2="197.3"/><path class="cls-7" d="M123.5,194.7c-.2,1.4-1.9,2.3-3.5,1.7,1,1.4.3,3.4-1.4,3.8-.4,0-.8,0-1.2,0-1.3-.3-2.5-1.4-2.6-2.7-.4.6-2.1.5-3.3-.2-.4-.2-.7-.5-.9-.8-1.3-2.1,1.9-3.3,1.9-3.3,0,0-2.7-2.6-1.3-4.1.5-.5,1.5-.7,2.5-.5,1,.1,2,.6,2.4,1.3,0-1.4,1.7-2.3,3.2-1.7.6.2,1,.7,1.3,1.3,0,0,0,0,0,0,.4.8.4,1.7-.1,2.2,1.6.1,3.1,1.7,3,3.1Z"/><path class="cls-5" d="M116.9,201.7c-.5.5-2.2,1.3-2.9,1.6h-.2c-.7-.6-2.8-3.4-2.9-4.1-.1-.7.1-1.4.7-1.9h0c1.2.6,2.9.8,3.3.2.1,1.2,1.3,2.4,2.6,2.7h0s0,.2,0,.2h0c.3.7,0,.9-.6,1.4Z"/><path class="cls-5" d="M120.7,189.4s0,0,0,0c-.3-.5-.7-1-1.3-1.3-1.5-.6-3.2.3-3.2,1.7-.4-.7-1.4-1.2-2.4-1.3h0c-.3-1.3.1-2.5,1.1-3.1.5-.3,1.1-.4,1.6-.7.7-.4,1.1-1.2,1.1-2,.3.4,2.8,2.1,3.5,4.6.5,1.8-.3,2.1-.4,2Z"/><path class="cls-9" d="M117.6,182.6h0c0,0,0,0,0,0Z"/><line class="cls-9" x1="73.1" y1="156" x2="73.1" y2="156"/><path class="cls-7" d="M80.8,152.1c-.2,2.3-3.8,1.3-3.8,1.3,0,0,.6,3.6-1.5,3.8-.8,0-1.7-.4-2.5-1.1-.8-.7-1.3-1.6-1.2-2.3-.9,1-2.9.6-3.8-.7-.3-.5-.4-1.2-.3-1.7t0,0c.1-.8.7-1.4,1.5-1.6-1.3-1-1.6-3.1-.5-4,1-.9,3.1-.5,4.1.8,0-1.6,1.9-2.7,3.5-1.9.4.2.7.4,1,.7.9,1,1.2,2.6.6,3.5.7-.2,2.1.9,2.7,2.1.2.4.3.8.2,1.1Z"/><path class="cls-5" d="M82.4,150c-.3.6-1,1-1.8,1h0c-.6-1.2-1.9-2.3-2.7-2.1.7-1,.4-2.5-.6-3.5h0s.2-.1.2-.1c.2-.7.7-.6,1.4-.6.7,0,1.5.2,2.2.3l1.2.8c-.2.3-.3.7-.2,1.1,0,.3.3.7.4,1,.3.7.3,1.5,0,2.1Z"/><path class="cls-5" d="M73.1,156h0c-.4,1.1-1.6,1.8-2.9,1.6-.6,0-1.2-.3-1.8-.4-.8-.1-1.7.2-2.2.8,0-.5-1.1-3.2,0-5.5.8-1.6,1.6-1.3,1.6-1.2s0,0,0,0c-.1.6,0,1.2.3,1.7.9,1.3,2.9,1.7,3.8.7,0,.8.5,1.6,1.2,2.3Z"/><path class="cls-9" d="M66.1,158.1s0,0,0,0c0,0,0,0,0,0Z"/><line class="cls-9" x1="100.4" y1="170.8" x2="100.4" y2="170.8"/><path class="cls-2" d="M101.8,166.1s2.5,2.9,1.1,4.3c-.5.5-1.5.6-2.5.4-1-.2-1.9-.7-2.2-1.5,0,1.4-1.8,2.3-3.1,1.5-.6-.3-1-.8-1.2-1.4,0,0,0,0,0,0-.3-.8-.3-1.7.2-2.3-1.5-.2-2.9-1.9-2.7-3.4.2-1.4,2-2.2,3.4-1.5-.9-1.5-.1-3.5,1.5-3.8.4,0,.8,0,1.1.1,1.3.4,2.4,1.7,2.5,2.9.4-.6,2-.4,3.2.4.3.2.6.5.8.9,1.2,2.2-2,3.3-2,3.3Z"/><line class="cls-9" x1="97.4" y1="158.4" x2="97.4" y2="158.4"/><path class="cls-5" d="M103,161.9h0c-1.1-.7-2.8-1-3.2-.4,0-1.3-1.2-2.5-2.5-2.9h0s0-.2,0-.2h0c-.3-.7.1-.9.6-1.4.5-.4,1.2-.7,1.8-1,.6-.3,1.2-.7,1.5-1.3-.2.8-.3,1.8.3,2.5.2.3.6.5.9.7.6.5,1.1,1.3,1.2,2,0,.8-.2,1.5-.7,1.9Z"/><path class="cls-5" d="M99.2,173.9c-.5.3-1.1.4-1.6.6-.7.4-1.1,1.1-1.1,2-.3-.4-2.6-2.3-3.2-5-.4-1.8.3-2.1.5-2,0,0,0,0,0,0,.2.6.7,1.1,1.2,1.4,1.4.7,3.1-.1,3.1-1.5.4.8,1.3,1.3,2.2,1.5h0c.3,1.3-.2,2.6-1.2,3.1Z"/><path class="cls-9" d="M96.5,176.6h0c0,0,0,0,0,0Z"/><path class="cls-7" d="M94.5,197.9s0,0,0,0c-.3.8-1,1.4-1.7,1.4,1,1.2.9,3.4-.3,4.3-1.1.9-3,.2-3.6-1.4l-4.9-8.1c1.1-.1,2.3.4,2.3.4,0,0,0-3.8,2.1-3.7.7,0,1.5.6,2.1,1.5.6.8.9,1.8.7,2.6,1-.9,2.8-.3,3.4,1.2.2.6.2,1.3,0,1.8Z"/><path class="cls-5" d="M96.2,196.8c-1,1.6-1.7,1.2-1.7,1.1s0,0,0,0c.2-.6.2-1.2,0-1.8-.5-1.5-2.4-2.1-3.4-1.2.2-.8-.1-1.8-.7-2.6h0c.6-1.1,1.8-1.6,2.9-1.3.5.2,1,.5,1.6.7.8.2,1.6,0,2.2-.6,0,.5.4,3.5-1,5.7Z"/><path class="cls-9" d="M97.3,191h0s0,0,0,0Z"/></svg>