<?xml version="1.0" encoding="UTF-8"?><svg id="oceania" xmlns="http://www.w3.org/2000/svg" width="235" height="321.9" viewBox="0 0 235 321.9"><defs><style>.cls-1{fill:#2c66cd;}.cls-1,.cls-2,.cls-3,.cls-4,.cls-5,.cls-6{stroke:#000;stroke-linecap:round;stroke-linejoin:round;}.cls-2{fill:#29262c;}.cls-3{fill:#4cb8eb;}.cls-4{fill:#c8967b;}.cls-5{fill:#fff;}.cls-6{fill:none;}</style></defs><path class="cls-3" d="M103.7,117.1c-.5,1-2.5,1-3.2.1s-.7-2.2-.6-3.3c.8,0,2.2,0,3,0-1.3-5.1-3.2-10.5-7.1-15l-.3.3c-1.2.5-2.1,1.5-2.5,2.7-2.3-3.3-5.4-6.1-9-7.8v-.2c-1.2,0-2.5-.1-3.5.1,1.2,1.1,3.3,2.7,4.4,4-.2,0-2.8,2.9-5.4,6l.2.2c2.5,2,4,4.6,4,7.3-2.9.3-5.7.5-8.6.6.5,5.3.8,11.9.7,20,5.8-.1,11.6-.5,17.3-1.2,0-1.4.2-2.8.3-4.3h.3c4.1-1.2,6.8-3,11.3-4.4h.2c-.4-1.6-.8-3.2-1.3-5ZM92.8,124.9c-.6,1.8-2.2,2-3.6,1.9-1.9-.1-3.8-.4-5.8-.7-.3,0-.7-.2-.9-.6-.2-.5,0-1.1.1-1.6.8-2.6,2.4-9.1,4.2-10.5,2.2-1.8,3.9,4,5,6.2.7,1.6,1.5,3.6,1,5.3Z"/><path class="cls-4" d="M65.3,158.3c-.3.3-.8.6-1.3.9,1.8,1.9.5,4-1,4.8.5.3.8.7.8,1.1.2,1.2-1.4,2.6-2.3,2.9,1.2,3.1-3,3.2-6.6,2.6-.1,0-.3,0-.4,0-1.5-.3-2.9-.7-3.6-1-3.1-1.4-8.4-5-7.9-8.6-1.5-1.1-3.7-2.2-6-3.3-4.5-2.1-9.9-4.2-12.9-5.9-6.2-3.5-15.5-12.6-14-19.4,1-1.8,2.8-5.7,4-7.8,3,1.8,9.7,4.9,15.2,7.4-.7,1.2.1-.1-.9,1.5h0c1.8,1.1,3.4,2.5,5.5,4.5,1.2,1.2,2.6,3.1,4.1,5t0,0c1.4,1.7,2.9,3.4,4.5,4.8,1.7,1.4,3.7,2.4,5.9,2.7h0c2.2-.2,5.3-.9,8.1-1.1.4.1.7.2,1,.2.3,0,.6,0,1-.1,2.2.2,3.9,1.1,4.2,3.7,2.7,1.3,5.4,3.1,2.5,5.4Z"/><path class="cls-6" d="M54.1,86.4c-.2-.2-.3-.3-.4-.5"/><path class="cls-3" d="M74.9,112c-2.7.1-5.4.1-8.1,0-.4,0-.8,0-1.2-.2-.6-.3-.5-.9-.3-1.4.8-2,1.6-4,2.3-6l.3-.5c-4.7-3.1-10.1-5.1-15.7-5.7.9-.7,4-4.9,3.2-5.8-.5-.6-6-1-9-.7-5.4,1.8-10,5.7-12.7,10.7-2.1-2-4.7-3.5-7.4-4.5-.9,1.3-1.9,2.6-2.8,3.9h.1c3.2,1.4,5.2,5.1,4.5,8.5-.2.8-.5,1.6-.5,2.4,0,1.6,1,3,2,4.2-.4.5-.8,1.1-1.2,1.6-3.3-2.8-7.2-4.8-11.4-5.7-.7,1.3-1.3,2.5-1.9,3.6h.3c5,4.3,11.6,7.6,19.2,10.5,1.4-2.6,3-5.8,4.6-9.2h.2c.6,3.7.4,7,0,11.2,11.8,2.2,23.8,3.2,35.7,3,.1-8.1-.2-14.7-.7-20ZM64.5,126.4c-.7.5-1.5.6-2.4.7-4.4.5-8.9,0-13.1-1.2-.7-.2-1.3-.5-1.7-1-.7-1.1.1-2.4.9-3.4,1.7-2.1,6-9.9,9.3-9.4.8.1,1.4.7,2,1.2,1.9,1.9,3.6,4.1,4.9,6.4.6,1.1,1.2,2.2,1.3,3.4.1,1.2-.3,2.6-1.3,3.3Z"/><path class="cls-6" d="M43.5,108.5c-1.2,3-2.5,6.2-3.9,9.3"/><path class="cls-1" d="M35,127c-1.5,2.8-2.9,4.9-3.8,5.8-.6-.3-1.2-.6-1.9-.9-5.5-2.5-12.2-5.5-15.2-7.4-.9-.5-1.4-1-1.5-1.3,0-.3,1-2.9,2.8-6.6,0,0,0,0,0,0h.3c5,4.3,11.6,7.6,19.2,10.5Z"/><path class="cls-6" d="M44.9,104.9c-.4,1.2-.9,2.4-1.3,3.6"/><path class="cls-6" d="M92.8,133.6c0,.1,0,.3,0,.4"/><path class="cls-6" d="M93.7,108.5c.6,5.1,0,9.3,0,11.1-.2,2.4-.3,4.7-.4,6.8"/><path class="cls-6" d="M37,157.5v.2"/><path class="cls-3" d="M92.3,144.9c-.3,11,0,17.8-.7,34.7-1-2.5-1.6-5.4-3.4-7.4-.7-.8-1.8-1.5-2.8-1.2-1.1.3-7.8,10.9-8,15.4-2.2-.7-4-2.6-6-4.1,0,0,0,0,0,0,2.1-.4,3.8-2.5,4.8-5,.3-.7.6-1.4.7-2.2,0-.8,0-1.7-.5-2.1-.4-.5-1-.5-1.6-.5-.8,0-1.5,0-2.2,0,.3-2.3.5-4.5.7-6.6,2.4-.1,4.8-.5,7.1-1,1.6-.3,3.3-.8,4.5-2,1.1-1.2,1.3-3.4,0-4.4-1-.7-2.4-.5-3.6-.3-2.4.4-4.9.7-7.3.7.2-2.1.4-4.2.5-6.2,2.9,0,6,0,6.1,0-1.3-2.4-3-4.5-5-6.3-.2-.2-.4-.4-.7-.5.1-2,.2-3.9.3-5.7,3.4,1.5,9.2,10,11.5,10.2,1.6,0,5.5-3.3,5.5-5.7h0Z"/><path class="cls-1" d="M95.7,98.8l-.3.3c-1.2.5-2.1,1.5-2.5,2.7-2.3-3.3-5.4-6.1-9-7.8v-.2c1.3,0,2.7.1,3.8-.1-.5-.4-2-1.5-3.1-2.3l.2-.2c4.9,1.9,8.4,4.6,11,7.6Z"/><path class="cls-1" d="M106.9,127c-.3.2-.6.3-.9.5-5.3,2.7-10.6,3.7-13.1,5.9h0c0-.9,0-1.8.1-2.7,0-1.4.2-2.8.3-4.3h.3c4.1-1.2,6.8-3,11.3-4.4h.2c.6,1.9,1.2,3.6,2,5Z"/><path class="cls-4" d="M125.1,149c-3.4.7-.6-.2-3.4,1.6-2.1,1.3-5.2,4.4-6.1,7h-.4c-3.1-7.5-15.8-9-22.3-23.3,0-.2,0-.5,0-.7,0,0,0,0,0,0,0,0,0-.1,0-.2h0c2.5-2.2,7.8-3.2,13.1-5.9,6.9,5.9,14.6,18.7,19.1,21.5Z"/><path class="cls-6" d="M92.9,134.4c0-.1-.1-.2-.1-.3"/><path class="cls-6" d="M92.6,133.7c0,0,0-.2,0-.2"/><path class="cls-4" d="M127.1,165.5c-3.1,2-5,2.9-8.2.9-1.6-.9-3-4.9-3.5-6.5-.2-.7-.1-1.5.2-2.3,1-2.6,4-5.7,6.1-7,2.8-1.8,0-.9,3.4-1.6,3.7-1,8.1.8,9.7,4,1.6,3.1-4.6,10.5-7.7,12.5Z"/><path class="cls-6" d="M33.3,175.2c0,.2-.1.4-.2.6"/><path class="cls-6" d="M32.9,271.2c0,.2-.2.3-.2.4"/><path class="cls-4" d="M36.8,294.1c0,2.8-2.2,5.3-4.8,6.6-2.8,1.4-6,1.8-9.1,2.1l-.2.4c-6.9-3.6-13-7.6-19.1-12.6,2.2-2.9,5.5-5.6,7.9-8.2,1-4.4,2.9-11,5-18.1,4.4,2.8,10.1,5.3,16.2,7.4-2.5,4.8-4.8,8.9-7,11.4l-.3.3c4.5,4,7.9,7.3,11.4,10.7Z"/><path class="cls-6" d="M11.4,282.4c0,.1,0,.3-.1.4"/><path class="cls-6" d="M92.4,287.8c0,.7,0,1.4,0,2.2,0,0,0,.1,0,.2"/><path class="cls-1" d="M67.7,185.6c-1.2.9-2.5,1.6-4.3,1.6-3.1,0-6.7-1.1-9.6-2-7.3-2.1-14.3-5.4-20.7-9.5,0,0-.1,0-.2-.1.1-.3.2-.6.3-.8h.3c4.3-.8,6.8-1.6,11.2-2.5,1.9-.4,7.2-1.5,9.2-1.4.2,0,.4,0,.6,0,3.1.5,4.4,3.3,6.7,5.7,2.5,2.5,4.6,5.3,6.4,8.3v.5Z"/><path class="cls-6" d="M112.2,224.8c0-.4,0-.9,0-1.3"/><path class="cls-4" d="M117.7,296.3c-.5,3.3-2.2,6.5-4.9,8.8-.1.1-.6.5-.7.5v.7c-8.1-1.3-16-3.2-23.6-5.9.7-3.7,1.9-7,3.5-10.6h.3c0-.7,0-1.4,0-2.2h0c.2-5.3.2-11.3,0-17.3v-.3c5.5-1.9,10.8-2.8,16.8-4.3-.9,7-2,14-3.1,21.4v.2c4,2,7.4,3.6,10.6,5.2v.2c1.1.5,1.3,2.1,1.2,3.3Z"/><path class="cls-4" d="M138,308c0,.1,0,.3-.1.4l-1.1-.4c-5.3.1-10.6,0-15.9-.5v-1.1c1.3-.6,2.6-1.3,3.6-2.2,1.2-1,2.1-2.3,2.3-3.8.1-1.3-.4-2.7-1.5-3.4,2.1,1,4.3,2.1,6.8,3.4,1.7.9,3.5,1.5,4.6,3,1.2,1.7,1.8,3.3,1.4,4.6Z"/><path class="cls-2" d="M137.8,308.4c-.4,1-1.3,1.9-2.8,2.6-3.7,1.8-8.3,1.6-12.5,1.2-13-1.2-17.6-2.6-30.1-5.7-1.5-.4-3.2-.8-3.9-2-.5-.9-.4-1.9-.3-2.9,0-.4.1-.8.2-1.2,7.6,2.7,15.5,4.6,23.5,5.9,2.8.5,5.6.8,8.4,1.1.2,0,.3,0,.5,0,5.3.5,10.6.7,15.9.5l1.1.4Z"/><path class="cls-2" d="M126.8,300.5c-.2,1.5-1.1,2.8-2.3,3.8-1,.9-2.3,1.5-3.5,2.2v1.1c-.3,0-.4,0-.6,0-2.8-.3-5.6-.6-8.4-1.1v-.7c.3,0,.7-.4.9-.5,2.7-2.3,4.5-5.5,4.9-8.8.2-1.2,0-2.8-1.3-3.3v-.2c3,1.4,5.7,2.8,8.8,4.3,0,0,0,0,0,0,1.1.8,1.7,2.1,1.5,3.4Z"/><path class="cls-6" d="M25.4,283.4s0,0-.1,0"/><path class="cls-4" d="M49.9,309h0s-.2,0-.2,0c-1,1.7-3.4,2.3-5.4,2.1s-6.5-1.2-8.4-1.9c-1.6-.7-3.3-1.3-4.8-2l.3-.7c4.6-.8,8.8-3.1,11.7-6.5h0c.9.8,1.8,1.7,2.8,2.5,1.4,1.2,2.9,2.6,3.4,4.2.3.8.5,1.5.6,2.2Z"/><path class="cls-2" d="M46.3,313.6c-4.1.8-7.3.8-11.2-.6-12.1-4.2-19.2-8.8-30.4-14.7-1.3-.7-2.8-1.6-3.1-2.9-.2-1,.2-1.9.6-2.8.4-.7.8-1.3,1.2-2,6.1,5,12.3,9.1,19.1,12.6,2.7,1.4,5.5,2.7,8.4,4,1.6.7,3.2,1.3,4.8,2,1.9.8,6.3,1.7,8.4,1.9s4.4-.4,5.4-2.1h.2c.4,2.3-.3,3.9-3.5,4.5Z"/><path class="cls-2" d="M43,300.1h0c-2.8,3.4-7.1,5.8-11.7,6.5l-.3.7c-2.9-1.3-5.7-2.6-8.4-4l.2-.4c3.1-.3,6.3-.7,9.1-2.1,2.6-1.3,4.8-3.8,4.8-6.6,2,1.9,4,3.8,6.3,5.9Z"/><path class="cls-6" d="M11.6,282.1c0,0-.2.2-.2.2"/><path class="cls-6" d="M28.4,133.5c-2.2-1.3-4.5-1.9-8.2-2.5"/><path class="cls-6" d="M49.4,150.4c-.3,0-.6,0-.9,0"/><path class="cls-6" d="M62.8,153c-1.3-.7-2.7-1.2-3.4-1.6"/><path class="cls-6" d="M62.8,153s0,0,0,0"/><path class="cls-5" d="M74.1,159c-.2,2.2-.4,4.6-.7,6.9-3.2.2-6.4,0-9.5-1h0c0-.4-.3-.8-.8-1.1,1.5-.7,2.7-2.8,1-4.8.5-.3,1-.6,1.3-.9,2.9.5,5.8.8,8.8.7Z"/><path class="cls-6" d="M74,105.2c0-.2,0-.4,0-.6"/><path class="cls-6" d="M35,127s0,0,0,0"/><path class="cls-6" d="M16.2,116.4c-.1,0-.3.2-.4.2"/><path class="cls-6" d="M121,306.4c-.2,0-.4.2-.5.3"/><path class="cls-6" d="M125.2,297c-.2-.1-.3-.2-.5-.3"/><path class="cls-1" d="M74.6,109.2c-2-2-4.2-3.8-6.6-5.4-4.7-3.1-10.1-5.1-15.7-5.7.9-.7,4-4.9,3.2-5.8-.5-.6-6-1-9-.7-.5,0-1,.1-1.3.2.6-1.8,1.4-3.3,2.4-4.6,2.2-2.9,5.3-4.9,9-6.6h0c-.5,2.8-1.5,5.1-2.6,5.7,4.8,5.5,19,16.9,19.4,18.1.2.5.3.7.5.8h0c.2,1.2.4,2.5.6,3.9Z"/><path class="cls-1" d="M80.3,93.9c1.2,1.1,3.3,2.7,4.4,4-.2,0-2.8,2.9-5.4,6-1.7,2-3.5,4-4.5,5.4h-.1c-.2-1.5-.4-2.8-.6-4,1.5.6,3.6-10.5,4.5-13.4.4,0,.9,0,1.4,0,1.3,0,2.7-.4,3.9-1.1h0c.2.2.4.4.8.7,1,.8,2.6,1.9,3.1,2.3-1.2.2-2.5.2-3.8.1-1.2,0-2.5-.1-3.6.1Z"/><path class="cls-1" d="M45.3,91.8c.3,0,.8-.2,1.3-.2-5.4,1.8-10,5.7-12.7,10.7-2.1-2-4.7-3.5-7.4-4.5,3.8-5.1,7.8-9,11.2-9.2,2.5-.5,6.5-.9,10-1.4h0c-1,1.4-1.8,2.9-2.4,4.6Z"/><path class="cls-6" d="M46.9,91.5h-.3"/><path class="cls-5" d="M29.9,116.9c-.4.5-.8,1.1-1.2,1.6-3.3-2.8-7.2-4.8-11.4-5.7,1.8-3.5,4-7.4,6.5-11.1h.1c3.2,1.4,5.2,5.1,4.5,8.5-.2.8-.5,1.6-.5,2.4,0,1.6,1,3,2,4.2Z"/><path class="cls-6" d="M17.3,112.9c0,0-.1,0-.2,0"/><path class="cls-1" d="M74.9,112c-2.7.1-5.4.1-8.1,0-.4,0-.8,0-1.2-.2-.6-.3-.5-.9-.3-1.4.8-2,1.6-4,2.3-6l.3-.5c2.4,1.5,4.6,3.3,6.6,5.4.1.9.2,1.8.3,2.8Z"/><path class="cls-1" d="M83.5,111.4c-2.9.3-5.7.5-8.6.6,0-1-.2-1.9-.3-2.8h.1c1.1-1.3,2.8-3.3,4.5-5.3l.2.2c2.5,2,4,4.6,4,7.3Z"/><path class="cls-1" d="M39.8,129c-.2,2.2-.5,4.6-.8,7.4,3.1,2.1,13.1,11.5,17.6,12.9.7,0,1.4,0,2,0,5-1.1,14.1-9.1,15.8-9.1.3,0,.6,0,.9.2.1-3,.2-5.8.2-8.5-12,.2-24-.8-35.7-3ZM66.5,137.1c-1.3.2-2.7-.1-4-.5.6,2.7-1,5.7-3.5,6.9s-5.7.7-7.9-1c-2.2-1.7-3.4-4.5-3.5-7.3-1.1.3-2.3.7-3.3.2-1.5-.7-1.3-2.4-.2-3.1,1.4-.8,5,.3,6.4.7-1,2-.6,4.6,1,6.2,1.6,1.6,4.2,2,6.2,1,2-1,3.2-3.4,2.8-5.6,3,0,6,.2,9,.2-.5,1.3-1.8,2-3.1,2.2Z"/><path class="cls-6" d="M39.8,129c0,0-.1,0-.2,0"/><path class="cls-1" d="M92.9,130.7c0,.9,0,1.8-.1,2.7,0,0,0,.2,0,.2,0,0-.1,0-.2,0-1.4.2-2.7.4-4.1.6.1,1.7,0,3.5-.4,5.1-.1.6-.4,1.3-1,1.3-.7,0-1-.7-1.2-1.4-.5-1.7-1-3.4-1.4-5.2,0,.1-6.6-.9-5.5,1.9,1.2.2,2.6.1,3.8.1,0,2.7.9,5.5,2.5,7.7.8,1,1.8,1.9,3,1.8,1.1-.1,2-1.1,2.3-2.2.3-1.1.2-2.2,0-3.3-.1-1.1-.2-2.3.2-3.3.5.1,1.1,0,1.6-.2-.1,3.1-.2,5.8-.3,8.3h0c0,2.4-3.8,5.8-5.5,5.7-2.2-.1-8.1-8.7-11.5-10.2.1-3,.2-5.8.2-8.5,5.8-.1,11.6-.5,17.3-1.2Z"/><path class="cls-6" d="M92.2,144.9c0,0,0-.1,0-.2"/><path class="cls-6" d="M39,136.4s0,0-.1,0"/><path class="cls-1" d="M91.7,179.6h0c0,.1,0,.2,0,.4s0,.1,0,.2c-2.4,1.8-9.3,6.4-12.3,6.5-.7,0-1.3,0-1.9-.2.2-4.5,6.9-15.1,8-15.4,1-.3,2,.5,2.8,1.2,1.8,1.9,2.5,4.9,3.4,7.4Z"/><path class="cls-6" d="M91.7,179.8h0"/><path class="cls-6" d="M77.5,186.4s0,0,0,.1"/><path class="cls-5" d="M80.7,153c0-.2-3.2-.1-6.1,0,.2-2.3.3-4.5.5-6.7.2.1.5.3.7.5,2,1.8,3.7,3.9,5,6.3Z"/><path class="cls-3" d="M70.1,152.8c.5.1,2.4.1,4.5.1-.1,2-.3,4.1-.5,6.2-2.9,0-5.9-.2-8.8-.7,2.8-2.3.2-4.1-2.5-5.4-.3-2.5-1.9-3.4-4.2-3.7,5-1.1,14.1-9.1,15.8-9.1.3,0,.6,0,.9.2,0,1.9-.2,3.8-.3,5.7-.4-.2-.8-.4-1.2-.4-.7,0-1.3.5-1.9,1-2,1.8-6.7,4.8-1.8,6Z"/><path class="cls-5" d="M75,146.2c-.1,2.2-.3,4.4-.5,6.7-2.1,0-4,0-4.5-.1-4.8-1.2-.2-4.1,1.8-6,.5-.5,1.1-1,1.9-1,.4,0,.8.2,1.2.4Z"/><path class="cls-5" d="M71.5,182v.3s0,0,0,0h-.1c0,0-.1,0-.2,0-.3,0-.6,0-.9,0-1.2-.2-2.2-.9-3-2.1-.3-.5-2.3-5.8-1-5.8.6-1.3,1.9-1.6,3-1.7.8,0,1.5-.1,2.3-.2s.8,0,1.1,0c-.3,3-.7,6.1-1.2,9.4Z"/><path class="cls-6" d="M71.5,182.3c-.1,0-.2,0-.3,0,0,0,.1-.1.2-.2h.1Z"/><path class="cls-5" d="M77,175.2c0,.8-.4,1.5-.7,2.2-1,2.4-2.8,4.5-4.8,5v-.3c.4-3.2.8-6.4,1.1-9.4.8,0,1.5,0,2.2,0,.6,0,1.1,0,1.6.5.5.5.6,1.4.5,2.1Z"/><path class="cls-2" d="M112.2,224.8h0c.1,14.4-1.2,27.6-3,41.2-6,1.5-11.4,2.4-16.9,4.3-1.1.4-2.2.8-3.4,1.3-6,2.5-12.4,5.1-18.9,5.7-10.6,1.1-24.9-1.3-37.3-5.5-6.2-2.1-11.8-4.6-16.2-7.4,3.1-10.3,6.7-21.6,8.9-29.1l.2-.4c1.3-17.8,0-38.6,7.6-59,6.4,4.1,13.3,7.4,20.7,9.5,3,.8,6.5,2,9.6,2,1.8,0,3.1-.6,4.3-1.6,1.2-.9,2.2-2.1,3.5-3.3.1,0,.2,0,.3,0,1.9,1.5,3.7,3.5,6,4.1.6.2,1.2.3,1.9.2,3.1-.1,9.9-4.7,12.3-6.5,0,0,0-.1,0-.2h.2c8.7,11,21.5,31.9,20.4,44.8Z"/><path class="cls-3" d="M73.4,166c-.2,2.1-.5,4.4-.7,6.6-.4,0-.8,0-1.1,0-.8,0-1.5,0-2.3.2-1.1.1-2.4.4-3,1.7-1.2,0,.7,5.3,1,5.8.8,1.2,1.8,1.9,3,2.1.3,0,.6,0,.9,0-1.3,1.2-2.3,2.4-3.5,3.3v-.5c-1.9-3-4.1-5.8-6.5-8.3-2.3-2.4-3.7-5.2-6.7-5.7v-.6c.3,0,.4,0,.5,0,3.6.6,7.8.5,6.6-2.6,1-.3,2.5-1.7,2.3-2.9h0c3.1.9,6.3,1.1,9.5.9Z"/><path class="cls-3" d="M54.5,170.5v.6c-.3,0-.5,0-.8,0-1.9-.1-7.3,1-9.2,1.4-4.3.9-6.9,1.7-11.2,2.5h-.2c.4-1.4.8-2.6,1.1-3.9,2.4.1,4.9-.8,6.6-2.5.4-.4.7-.9.5-1.3-.1-.2-.4-.4-.6-.5-1.6-.8-3.3-1.5-4.9-2.3h0c.4-2.2.8-4.5,1.2-6.8,2.4,1.1,4.5,2.2,6,3.3-.5,3.6,4.8,7.2,7.9,8.6.7.3,2.1.7,3.6,1Z"/><path class="cls-5" d="M40.9,168.5c-1.7,1.7-4.2,2.7-6.6,2.5.6-2.2,1.1-4.4,1.5-6.7h0c1.6.8,3.3,1.6,4.9,2.3.2.1.5.2.6.5.2.4-.1,1-.5,1.3Z"/><path class="cls-3" d="M56.6,149.3c-2.8.1-5.9.9-8.1.9h0c-2.2-.1-4.1-1.1-5.9-2.5l.2-.2c-.3-2.8-2-5.5-4.2-7.3h0c.1-1.4.3-2.6.4-3.9,3.1,2.1,13.1,11.5,17.6,12.9Z"/><path class="cls-5" d="M42.8,147.5l-.2.2c-1.7-1.4-3.2-3.1-4.5-4.8t0,0h.2c0-1,.2-1.9.3-2.7h0c2.2,1.8,3.8,4.5,4.2,7.3Z"/><path class="cls-5" d="M85,163c-1.1,1.2-2.9,1.7-4.5,2-2.3.5-4.7.8-7.1,1,.2-2.4.5-4.7.7-6.9,2.5,0,4.9-.3,7.3-.7,1.2-.2,2.6-.5,3.6.3,1.4,1,1.2,3.2,0,4.4Z"/><path class="cls-5" d="M64.5,126.4c-.7.5-1.5.6-2.4.7-4.4.5-8.9,0-13.1-1.2-.7-.2-1.3-.5-1.7-1-.7-1.1.1-2.4.9-3.4,1.7-2.1,6-9.9,9.3-9.4.8.1,1.4.7,2,1.2,1.9,1.9,3.6,4.1,4.9,6.4.6,1.1,1.2,2.2,1.3,3.4.1,1.2-.3,2.6-1.3,3.3Z"/><path class="cls-5" d="M92.8,124.9c-.6,1.8-2.2,2-3.6,1.9-1.9-.1-3.8-.4-5.8-.7-.3,0-.7-.2-.9-.6-.2-.5,0-1.1.1-1.6.8-2.6,2.4-9.1,4.2-10.5,2.2-1.8,3.9,4,5,6.2.7,1.6,1.5,3.6,1,5.3Z"/><path class="cls-5" d="M69.6,134.9c-.5,1.3-1.8,2-3.1,2.2-1.3.2-2.7-.1-4-.5.6,2.7-1,5.7-3.5,6.9s-5.7.7-7.9-1c-2.2-1.7-3.4-4.5-3.5-7.3-1.1.3-2.3.7-3.3.2-1.5-.7-1.3-2.4-.2-3.1,1.4-.8,5,.3,6.4.7-1,2-.6,4.6,1,6.2,1.6,1.6,4.2,2,6.2,1,2-1,3.2-3.4,2.8-5.6,3,0,6,.2,9,.2Z"/><path class="cls-5" d="M92.7,134c0,.9,0,1.7-.1,2.5-.5.2-1.1.3-1.6.2-.4,1-.3,2.2-.2,3.3,0,1.1.2,2.3,0,3.3-.3,1.1-1.1,2.1-2.3,2.2-1.2.1-2.3-.8-3-1.8-1.7-2.2-2.6-4.9-2.5-7.7-1.3,0-2.6,0-3.8-.1-1-2.7,5.6-1.8,5.5-1.9.5,1.7,1,3.4,1.4,5.2.2.6.5,1.4,1.2,1.4.6,0,.9-.8,1-1.3.4-1.7.5-3.4.4-5.1,1.4-.2,2.7-.4,4.1-.6,0,.1.1.2.2.4Z"/><path class="cls-6" d="M92.6,136.6c0-.8,0-1.7.1-2.5,0-.1-.1-.2-.2-.4,0,0,.1,0,.2,0,0,0,0,0,0,0,0,.2,0,.5,0,.7,0,.6.1,1.3.2,2-.1,0-.3.2-.4.2Z"/><path class="cls-5" d="M103.7,117.1h0c-.5,1-2.5,1-3.2.1s-.7-2.2-.6-3.3c.8,0,2.2,0,3,0,.3,1.1.6,2.2.8,3.2Z"/><path class="cls-2" d="M105.4,52.1c.9-3.5-.8-9.4-4.4-9.2-6.8.5-9,.5-15.2-2.9-2.3-1.2-10-7.8-14.8-4.1-5.1,4-10.5,19.3-10.6,19-.4-1.5.1-.5-.6-2.9-.4-1.5-2.9-3.5-5.2-1.9-2.8,1.9-2.6,5.6-2.5,7.2,0,1.6,1.3,4.8,2.7,5.4.5.2,1,.4,1.4.4-.3,2.7-.5,6.3-.3,7.2.2,1.1.5,2,.8,2.9.3,1.5.4,3,.4,4.5h0c-9.5-5.1-12.8-24.5-5.2-42.3,2.3-5.4,8.1-11.8,13.4-14.2,5-2.3,7.6-1.9,12.9-.3,5.7,1.7,11.4,3.7,16.9,6,5.1,2.1,9.1,3.5,12.1,8.1,3,4.5.5,15-3.5,21.8.5-1.2,1.1-2.7,1.6-4.6h.1Z"/><path class="cls-6" d="M103.6,56.7c-.1.2-.2.4-.4.6"/><path class="cls-6" d="M56.2,63.1s0,0,0,0"/><path class="cls-4" d="M101,42.9c-6.8.5-9,.5-15.2-2.9-2.3-1.2-10-7.8-14.8-4.1-5.1,4-10.5,19.3-10.6,19-.4-1.5.1-.5-.6-2.9-.4-1.5-2.9-3.5-5.2-1.9-2.8,1.9-2.6,5.6-2.5,7.2,0,1.6,1.3,4.8,2.7,5.4.5.2,1,.4,1.4.4-.3,2.7-.5,6.3-.3,7.2.2,1.1.5,2,.8,2.9.9,2.4,2.1,4.1,4,7.1,3.2,4.9,8.4,11.2,17.8,11.5.4,0,.9,0,1.4,0,1.3,0,2.7-.4,3.9-1.1,4.6-2.2,8.5-7.3,8.5-7.3,6.4-7.1,7.7-18.7,8.3-20.7.5-1.7,1.8-3.1,3.1-6.1.5-1.2,1.1-2.7,1.6-4.6h.1c.9-3.5-.8-9.4-4.4-9.1ZM82.9,48.7c3.4,1.2,1.2,4.7.4,4.4-2.4-.8-10.9-1.7-10.9-2.1.4-5,7.1-3.6,10.6-2.3ZM79.6,60c-.3,1.4-1.3,2.4-2.1,2.2-.9-.2-1.3-1.5-1-2.9.3-1.4,1.3-2.4,2.1-2.2.8.2,1.3,1.5,1,2.9ZM71.7,73.2l.2-.3c5,3.2,8.7,5.4,14.5,6-3.4,9.6-16.8,2.4-14.7-5.7ZM97.1,64.3c-.3,1.4-1.3,2.5-2.1,2.3-.8-.2-1.2-1.5-.9-2.9.3-1.5,1.3-2.5,2.1-2.3s1.2,1.5.9,2.9ZM99.8,59.9c-.7-.3-4.4-2.1-5.1-2.5-1.9-1.1-.3-3.9,1.2-4.1,1.7-.2,5.3,2.8,5.2,3.8-.1,1.1-.3,3.2-1.2,2.8Z"/><path class="cls-6" d="M90.1,72c-3.1,2.5-6.1,1.7-10.7-.8"/><path class="cls-6" d="M97.1,64.3c-.3,1.4-1.3,2.5-2.1,2.3-.8-.2-1.2-1.5-.9-2.9.3-1.5,1.3-2.5,2.1-2.3s1.2,1.5.9,2.9Z"/><path class="cls-6" d="M79.6,60c-.3,1.4-1.3,2.4-2.1,2.2-.9-.2-1.3-1.5-1-2.9.3-1.4,1.3-2.4,2.1-2.2.8.2,1.3,1.5,1,2.9Z"/><path class="cls-6" d="M71.9,72.8c-.4-.2-.7-.5-1.1-.7"/><path class="cls-5" d="M86.3,78.8c-3.4,9.6-16.8,2.4-14.7-5.7l.2-.3c5,3.2,8.7,5.4,14.5,6Z"/><path class="cls-4" d="M78.5,91.8c-.9,3-3,14-4.5,13.4h0c-.2,0-.3-.3-.5-.8-.4-1.1-14.6-12.6-19.4-18.1,1.2-.6,2.2-2.9,2.6-5.7.2-.9.3-1.9.3-3,0-1.5,0-3-.4-4.5.9,2.4,2.1,4.1,4,7.1,3.2,4.9,8.4,11.2,17.8,11.5Z"/><path class="cls-6" d="M54.1,86.4s0,0,0,0"/><path class="cls-6" d="M56.6,73.3c-.1-.6-.3-1.1-.4-1.7"/><path class="cls-6" d="M105.4,52.1h0"/><path class="cls-6" d="M56.2,63.2c.7,0,1.2,0,2-.6"/><path class="cls-2" d="M83.2,53.1c-2.4-.8-10.9-1.7-10.9-2.1.4-5,7.1-3.6,10.6-2.3,3.4,1.2,1.2,4.7.4,4.4Z"/><path class="cls-2" d="M101.1,57.1c-.1,1.1-.3,3.2-1.2,2.8-.7-.3-4.4-2.1-5.1-2.5-1.9-1.1-.3-3.9,1.2-4.1,1.7-.2,5.3,2.8,5.2,3.8Z"/></svg>