<?xml version="1.0" encoding="UTF-8"?><svg id="oceania" xmlns="http://www.w3.org/2000/svg" width="235" height="321.9" viewBox="0 0 235 321.9"><defs><style>.cls-1{fill:#2c66cd;}.cls-1,.cls-2,.cls-3,.cls-4,.cls-5,.cls-6,.cls-7{stroke:#000;stroke-linecap:round;stroke-linejoin:round;}.cls-2{fill:#29262c;}.cls-3{fill:#4cb8eb;}.cls-4{fill:#c8967b;}.cls-5{fill:#fff;}.cls-6{fill:none;}</style></defs><path class="cls-4" d="M91.5,47.1c-.7-8.1-4.9-21.4-10.3-22.2-3.7-.6-5,1.1-11.1,1-6.4,0-10.9-2.2-14.3-.2-11.2,6.4-7.9,25.4-8.1,24.9-1.8-3.9-2.3-4.1-4.8-3.2-.2,0-.3.1-.5.2-2.8,1.6-.5,6.7.4,9,1,2.7,3.4,3.4,4.6,2.6h.4c.9,4.6,3.2,10,4.6,11.4,1.6,1.8,3.3,3.2,4.9,4.5.2.2.5.3.7.5,3.7,2.6,7.2,3.8,9.2,4.2,3.8.7,7.8-1,11.5-3.4h0c.3-.2.5-.3.8-.5,2.3-1.6,4.8-3.8,6.2-5.8,1.9-2.5,1.9-4,3.2-8.9.2-.7.4-1.5.6-2.2,1.1-4.7,2.1-9.3,2.1-9.3,0-.8,0-1.6-.1-2.6ZM59.1,50.4c-.6,0-1.1-.9-1.1-2.1s.5-2.1,1.1-2.1,1.2.9,1.2,2.1-.5,2.1-1.2,2.1ZM65,44.1c-5.4-1.6-11.7.8-12.2-1,.2-1.9,3.7-2.9,4.7-3.2,2.3-.8,6.2,0,8.2,1.4-.4,1.3,0,2.5-.7,2.8ZM82.3,50.4c-.6,0-1-.9-1-2s.5-2,1-2,1.1.9,1.1,2-.5,2-1.1,2ZM77,44.1c-1.2-4.3,2-4.6,5-4.5,3.1,0,6.1,2.9,6.7,5.1-3.1-1.2-9.1-1.3-11.7-.6Z"/><path class="cls-6" d="M78.7,60c-2.4,2.3-5.1,2.3-8.9,1.7"/><path class="cls-6" d="M47.7,59.1c-.2-1.2-.4-2.3-.4-3.3"/><path class="cls-1" d="M104.9,93.3h0c-1.7,1.6-3.4,3.1-5.1,4.6-1.4-6.1-5.7-11.4-11.4-14,.6-.1,1.3-.3,1.9-.4-1.1-1-2.2-2-3.5-2.9,3.1.5,5.6.5,8,1.1,2.6.6,6.9,6.6,10.1,11.6Z"/><path class="cls-1" d="M117.7,119.6c-5.5-1.4-9.5,3.6-13.3,8.2h0c-.4.5-.8,1-1.3,1.5-.4-.7-1.4-2.3-2.6-4.1,3.7-5.2,9-8.7,15.3-10,.7,1.5,1.3,3,1.9,4.4Z"/><path class="cls-3" d="M114.4,111.9c-3.1,1.7-6,3.4-9.1,5-.5-1.1,0-2.4,1-3.1.9-.8,2.1-1.1,3.2-1.4-1.1-1.6-2.6-2.9-3.8-4.4s-2.2-3.4-1.9-5.3c.2-2.3,1.8-3.9,3.8-5-.7-1.2-1.6-2.7-2.6-4.3h0c-1.7,1.6-3.4,3.1-5.1,4.6-1.4-6.1-5.7-11.4-11.4-14-2.3.5-4.6,1-6.8,1.5,1.9,1,3.8,2,5.8,2.9-4.6,1.2-9,4.3-12.8,7.8,1,2.4,2.8,5.7,3.7,8.1-2.7.5-5.4.7-8.2.7,1.2,8.5,1.8,17,2.1,25.5,8-.1,15.9,0,23.9.2h.1s0,0,0,0c-.4-4.8-.5-8.7-.4-12.3h.1c.7,1,2.8,4.4,4.6,7.2,3.7-5.2,9-8.7,15.3-10-.5-1.1-1-2.2-1.5-3.4ZM77.2,125.4c.7,0,3.8-9.1,4.3-10.3,1.8-4.3,2-5.8,4.4-2.6,2.1,2.8,6.2,6.8,6.7,11.8-5.1,1.6-10.3,2-15.4,1.1Z"/><path class="cls-1" d="M44.5,82.6c.7.2,1.4.3,2.2.5-4.7,4.1-8,9.9-9.1,16.1-4.8-2.1-9.4-4.7-13.6-7.8,3.2-3.4,10.4-8.7,14.1-10.2,1.9-.8,6.9-1.1,9.2-1.1-1,.7-1.9,1.6-2.7,2.5Z"/><path class="cls-4" d="M43,158.3c0,.2.2.4.2.7.4,1.8-1.1,3.1-2.4,3.3,1.4,1.7-1.2,3.1-2.4,3.1,0,.2,0,.3,0,.5,0,0,0,0,0,0,0,.1,0,.2,0,.4,0,0,0,0,0,0-.9,3-7.9-1-9.3-2.4-2.2-2.2-5.7-6.7-4.3-9.8-2.9-4-17.1-15.7-20.1-23.6,0,0-1.9-4.2,2.9-14.7,5.4,3.6,6.6,5.1,10.4,7.9,0,0,0,0,0,0,0,0,0,0,.1,0,.9.8,2.2,2.7,3.4,3.7.7,1,1.3,2.2,2.1,3.7,2.1,4.1,6.2,8.7,8.8,13.5l-.3.2c0,0,.2,0,.3,0,2,.5,5,1,7.4,2,.9.4,1.8.8,2.4,1.3,0,0,0,0,.1,0,1.2,1,1.9,2.3,1.5,4.1,1,1,1.9,2,2.2,3,.3,1.2-.3,2.3-2.9,2.9Z"/><path class="cls-5" d="M23.8,112.6c-1,.4-1.9,1-2.6,1.8-2.8-2.1-5.8-3.9-8.9-5.4l-.8-.5h0s0,0,0,0c2.4-3.9,5.5-8.4,9.6-13.6h0l.5.4c1.5,1.3,2,3.6,1.5,5.5-.5,2-1.8,3.6-3.3,5-.6.6-1.2,1.3-1,2,.1.3.3.5.5.7,1.5,1.4,3,2.7,4.5,4.1Z"/><path class="cls-3" d="M70,104.8c-3.2,0-6.4-.3-9.5-.9.3-2.5,1.1-5.1,2.8-6.9l.2-.3c-4.4-2.8-9-5.3-13.9-6.4.7-2.1,1.8-4.1,3.3-5.7-2.1-.5-4.2-1-6.3-1.5-4.7,4.1-8,9.9-9.1,16.1-4.8-2.1-9.4-4.7-13.6-7.8-.3.3-.5.6-.8.9-.7.9-1.4,1.8-2.1,2.6l.5.4c1.5,1.3,2,3.6,1.5,5.5-.5,2-1.8,3.6-3.3,5-.6.6-1.2,1.3-1,2,.1.3.3.5.5.7,1.5,1.4,3,2.7,4.5,4.1-1,.4-1.9,1-2.6,1.8-2.8-2.1-5.8-3.9-8.9-5.4l-.8-.5c-.9,1.5-1.7,2.9-2.4,4.3,6.9,1.7,12.9,6.5,16.3,12.8,3-3.7,8.6-11.1,12.6-16.6h.2c1,2.3,1.4,12.9,1.6,14.9,0,.9.2,4,.2,7.8,10.7-.7,21.5-1.1,32.2-1.3-.3-8.5-1-16.9-2.1-25.5ZM62.8,125.3c-5.8,1.1-11.7,1.8-17.6,2,0,0,2.6-7.1,2.9-7.7,1.2-2.3,2.7-5,4.4-6.5,2.5-2.2,2.9-1,5,1.7,2,2.6,4,5.3,5.9,8,.3.4.7.9.6,1.5,0,.8-.7,1-1.2,1.1Z"/><path class="cls-6" d="M47.4,80.1h-.2"/><path class="cls-1" d="M97.8,176.9s.3.9-1.4,1.9c-2,1.2-6.6,2.5-17.6,2.6h-.2c-.2,0-.6-.4-.9-1h1.1c4.1-4.9,7.7-10.1,10.8-15.7,2.8,4,5.2,7.4,8.1,11.4h0v.8Z"/><path class="cls-3" d="M98,170.4h0c0,2.1,0,4-.1,5.8h0c-2.8-4-5.2-7.4-8.1-11.4-3.1,5.6-6.7,10.9-10.8,15.7h-1.1c-1-1.5-2.4-4.5-3.6-6.7l.8-.2c2.1-3.7,2.9-6.8,5-10.5-2.6.4-5.2.7-7.8,1.1,0-1.1,0-2.3,0-3.4,4.3,0,8.6-.5,12.9-1.1,2.4-.3,4.7-3,1.4-4.1-1.7-.6-5.3.6-7.2.6-2.3,0-4.6.1-6.9.3,0-1.2,0-2.5,0-3.7,2.5,0,5.1-.2,7.5-.8-.5,0-5.3-6.6-7.4-6.8,0,0,0,0,0,0,0-1.7,0-3.4,0-5.1,1,.7,11.2,6.7,15.7,11.1,3.7-4.1,6.5-6.7,8.8-11.6.1,1.7.2,3.3.3,4.9-1.4,1.6-2.6,3.3-3.4,5.2-.1.2-.2.5,0,.7.2.3.6.3.9.2,1-.2,1.8.2,2.9,0,0,1.6.1,3.3.2,4.9h-.2c-1.2,0-2.6.2-3.7.6-.3.1-.6.3-.8.6-.3.6.3,1.2.9,1.5,1.2.6,2.7.5,3.8-.1h0c0,1.7,0,3.3.1,4.8h0c0,.6,0,1.1,0,1.6-.4.4-.9,1.1-1.4,1.1-.6,0-1.3.2-1.2.8,0,.2.2.4.3.6,1,1.3,1.4,1.8,2.4,3.2Z"/><path class="cls-6" d="M96.2,100.7c0,7.2-.3,12.1-.5,17.4"/><path class="cls-6" d="M98,163.2h-.1"/><path class="cls-4" d="M110.9,143.1c-4.3,4.4-8.3,7.6-10.1,13.1-.8,2.3-1.3,5.4-2.8,6.9,0-1.6,0-3.2-.1-4.8,0-.9,0-1.8,0-2.6,0-1.6-.1-3.2-.2-4.9,0-2-.2-4.1-.3-6.2,0-1.6-.2-3.3-.3-4.9,0-.3,0-.7,0-1h.4c.8-.9,3.4-3.2,4.5-5.3,1.1-2.1,1.8-3.9,2.7-5.5h0c3.8-4.6,7.8-9.6,13.3-8.2,1.2,2.7,2.2,4.8,3,5.9,2.8,7.4-4,11.6-9.9,17.6Z"/><path class="cls-6" d="M104.8,127.1c-.1.2-.2.4-.3.6"/><path class="cls-6" d="M18,123.6c-1.1-.8-2.4-1.6-4-2.4"/><path class="cls-6" d="M32.3,144.7s0,0,0,0"/><path class="cls-3" d="M64.6,152c2.6.5,5.2.8,7.8.8,0,1.2,0,2.4,0,3.7-4.7.4-9.4,1.1-14.1,2.1,4.5,1.6,9.2,2.2,14,2.1,0,1.1,0,2.3,0,3.4-2.8.4-5.6.8-8.4,1.2,2.3,2.7,4.2,5.7,5.7,9h.4c-.7,1.9-1.3,4-2,5.4-5.6-5.1-9.9-10.5-13.8-17-5.7,4.9-11.3,9.7-17,14.6h-.5c.2-1.7.5-3.4.8-4.9,1.6-1,3.5-2.5,5.2-3.5.3-.2.8-.6.5-1-.2-.2-.4-.2-.7-.2-1.5.1-2.7-.1-4.2,0,0-.5.2-.9.3-1.4,0,0,0,0,0,0,0-.1,0-.2,0-.4,0,0,0,0,0,0,0-.1,0-.3,0-.5,1.2,0,3.8-1.4,2.4-3.1,1.3-.2,2.8-1.5,2.4-3.3,2.3,0,4.3-.1,6.5-.6.4,0,.8-.2,1.1-.4.3-.2.6-.6.5-1-.1-.4-.5-.6-.9-.8-1.1-.4-3.2-.9-4.4-.8-.3-1-1.2-2-2.2-3,.4-1.8-.3-3.1-1.5-4.1.5.2,1.8,0,2.1-.3.3-.4.3-.9.2-1.4s-.5-.8-.8-1.2c-1.1-1.2-2.4-2.3-3.8-3.1h0c0-1.6,0-3.4,0-5.2h0c3.5,4.5,7.4,9,11.8,12.6.9.7,1.8,1.4,2.9,1.5,1.4.1,2.8-.7,3.9-1.5,4.6-3.2,9.2-6.4,13.7-9.5h0s0,0,0,0c0,1.7,0,3.4,0,5.1-3.1-.2-6.2,4.5-7.8,6.8Z"/><path class="cls-6" d="M43.8,152.4c-.9-1-1.9-1.8-2.4-2.4"/><path class="cls-6" d="M43.8,152.4s0,0,0,0"/><path class="cls-2" d="M101.9,276.9c-1.2,3.1-3.2,5.2-6,6.6-.2.1-.4.2-.7.3-3.4,1.6-7.8,2.3-12.9,2.6-5.2.3-11.2.2-17.7.2s-8.1-.3-11.8-.9c-5.3-.8-10-2-13.8-3.3-4.4-1.6-7.4-3.4-8.4-5,0,0-.7-57.2,5.7-99.8h0c2.2,2.3,17.9,3.3,29.9,3.7.5,0,1-.6,1.5-1.6.7-1.4,1.4-3.4,2-5.2.8-2,1.5-3.7,2.2-3.6.5,0,1.3,1.3,2.2,2.9,1.2,2.3,2.6,5.2,3.6,6.7.4.6.7,1,.9,1h.2c11,0,15.6-1.4,17.6-2.6.9,8.8.5,5.3,1.1,11.6,1.1,11.4,4.3,70.4,4.3,86.4Z"/><path class="cls-6" d="M56.7,78.3v-.3"/><path class="cls-6" d="M56.7,76v-.3"/><path class="cls-4" d="M78.7,76.4c0,.2-.1.5-.2.7-.3,1-.2,1.4-.5,2.7-1.2,6.9-8,20.5-8.2,20.9h0s0,0,0,0c-.2,0-.3-.2-.4-.3,0,0,0,0,0,0-2.1-2.1-9.8-13.2-12.6-22.4,0-.7,0-.3,0-2,.2,0,.5,0,.7-.1v-.8c.1.2.4.3.6.5,3.7,2.6,7.2,3.8,9.2,4.2,3.8.7,7.8-1,11.5-3.4Z"/><path class="cls-6" d="M78.7,76.3s0,0,0,.1"/><path class="cls-2" d="M88.7,44.6c-3.1-1.2-9.1-1.3-11.7-.6-1.2-4.3,2-4.6,5-4.5,3.1,0,6.1,2.9,6.7,5.1Z"/><path class="cls-2" d="M65.8,41.3c-.4,1.3,0,2.5-.7,2.8-5.4-1.6-11.7.8-12.2-1,.2-1.9,3.7-2.9,4.7-3.2,2.3-.8,6.2,0,8.2,1.4Z"/><path class="cls-6" d="M79,66.2c-5.5,1.7-13.3,2.2-18.8-.8"/><path class="cls-7" d="M83.3,48.4c0,1.1-.5,2-1.1,2s-1-.9-1-2,.5-2,1-2,1.1.9,1.1,2Z"/><path class="cls-7" d="M60.2,48.3c0,1.1-.5,2.1-1.2,2.1s-1.1-.9-1.1-2.1.5-2.1,1.1-2.1,1.2.9,1.2,2.1Z"/><path class="cls-4" d="M89.5,59c1.1-4.7,2.1-9.3,2.1-9.3,0-.8,0-1.6-.1-2.6h.5c.3-.1.6-.1.9,0,.2,0,.3.2.4.3.3.3.5.8.6,1.2.9,3.1.3,8.3-4.5,10.4Z"/><path class="cls-1" d="M25.3,125.5c-1.2,1.5-2,2.4-2.2,2.4-.5.2-1.1,0-1.6-.5-1-1.5-2-2.7-3.4-3.7,0,0,0,0-.1,0,0,0,0,0,0,0-3.8-2.8-4.9-4.4-10.4-7.9.4-.9.9-1.9,1.4-2.9,6.9,1.7,12.9,6.5,16.3,12.8Z"/><path class="cls-6" d="M37.9,108.9c2.1-2.9,3.7-5.2,4.4-6.4"/><path class="cls-1" d="M88.3,83.9c-2.3.5-4.6,1-6.8,1.5,1.9,1,3.8,2,5.8,2.9-4.6,1.2-9,4.3-12.8,7.8-1.7,1.5-3.2,3.1-4.6,4.6.2-.4,7-14.1,8.2-20.9.3-1.3.2-1.7.5-2.7h.7c2.7.8,5.3,1.9,7.6,3.5h0c1.2.8,2.4,1.8,3.5,2.9-.6.1-1.3.3-1.9.4Z"/><path class="cls-1" d="M69.3,100.4c-1.9-1.2-3.8-2.4-5.8-3.6h0c-4.4-2.8-9-5.3-13.9-6.4.7-2.1,1.8-4.1,3.3-5.7-2.1-.5-4.2-1-6.3-1.5-.7-.2-1.4-.3-2.2-.5.8-.9,1.7-1.7,2.7-2.5,2.8-2.1,6-3.6,9.5-4.1,0,1.7,0,1.4,0,2,2.9,9.1,10.5,20.2,12.6,22.4Z"/><path class="cls-6" d="M57.8,75.8c-.1,0-.3,0-.4,0"/><path class="cls-6" d="M69.4,100.5h0c0-.1,0-.2,0-.2"/><path class="cls-1" d="M67.8,179.7c-.5,1-1,1.6-1.5,1.6-12-.4-27.6-1.4-29.9-3.7h0c0-.1,0-.2,0-.4h.5c5.7-4.8,11.3-9.6,17-14.5,3.9,6.5,8.2,11.9,13.8,17Z"/><path class="cls-1" d="M96.9,138.6c-.2-2.7-.4-5.4-.7-8.2h-.1c-8-.2-15.9-.2-23.9-.1,0,1.5.1,3,.2,4.5,0,1.8,0,3.6,0,5.3,1,.7,11.2,6.7,15.7,11.1,3.7-4.1,6.5-6.7,8.8-11.6,0-.3,0-.7,0-1ZM95.9,133.9c-1.7.3-1.7.3-3.4.6.6,1.6.4,4.9-.2,6.5-.7,1.6-.7,2-1.9,3-1.3,1.2-3.9,1.8-5.5,1.3-1.6-.5-2.7-2.2-3.2-4.1-.5-1.9-.6-4-.6-6.1,0,0-4.6.4-5,.4-.2-2.2.6-2.1,2.1-2.2,1.6,0,3.2,0,4.8-.1-1,2.3-.6,5.6,1,7.3,1.6,1.7,4.2,1.7,5.7,0,1.6-1.8,2-5.1.9-7.4,2.3-.4,3.2-.5,5.5-.9,0,.6-.2,1.2-.2,1.9Z"/><line class="cls-6" x1="96.9" y1="139.6" x2="96.9" y2="139.6"/><path class="cls-1" d="M72.3,134.8c0-1.5,0-3-.2-4.5-10.8.1-21.5.6-32.2,1.3,0,1.5,0,3,0,4.5,0,.3,0,.6,0,1h0c3.5,4.5,7.4,9,11.8,12.6.9.7,1.8,1.4,2.9,1.5,1.4.1,2.8-.7,3.9-1.5,4.6-3.2,9.2-6.4,13.7-9.5h0s0,0,0,0c0-1.8,0-3.6,0-5.3ZM62.9,142.2c-.8,1.6-.9,2-2.4,3-1.7,1.2-5.1,1.8-7.2,1.3-2-.5-3.5-2.2-4.2-4.1-.7-1.9-.7-4-.8-6.1,0,0-5.9.4-6.4.4,0-.2,0-.4,0-.5,0-1.7.9-1.6,2.7-1.6,2.1,0,4.1-.1,6.2-.2-1.3,2.3-.8,5.6,1.3,7.3,2.1,1.7,5.4,1.7,7.4,0,2-1.8,2.6-5,1.2-7.4,3-.4,6-.8,8.9-1.1,0,.6,0,1.2,0,1.8-2.2.3-4.4.6-6.5.8.8,1.6.5,4.9-.3,6.5Z"/><path class="cls-5" d="M64.1,124.1c0,.8-.7,1-1.2,1.1-5.8,1.1-11.7,1.8-17.6,2,0,0,2.6-7.1,2.9-7.7,1.2-2.3,2.7-5,4.4-6.5,2.5-2.2,2.9-1,5,1.7,2,2.6,4,5.3,5.9,8,.3.4.7.9.6,1.5Z"/><path class="cls-5" d="M92.6,124.2c-5.1,1.6-10.3,2-15.4,1.1.7,0,3.8-9.1,4.3-10.3,1.8-4.3,2-5.8,4.4-2.6,2.1,2.8,6.2,6.8,6.7,11.8Z"/><path class="cls-5" d="M72.4,145.2c0,2.5,0,5,0,7.6-2.6,0-5.2-.3-7.8-.8,1.6-2.3,4.7-7,7.8-6.8Z"/><path class="cls-5" d="M79.9,152c-2.5.5-5,.8-7.5.8,0-2.5,0-5.1,0-7.6,0,0,0,0,0,0,2.1.2,6.9,6.8,7.4,6.8Z"/><path class="cls-5" d="M72.2,164.2c0,2.2-.1,4.4-.2,6.6-.7,0-1.4,1.6-2.2,3.6h-.4c-1.5-3.4-3.4-6.4-5.7-9.1,2.8-.4,5.6-.8,8.4-1.2Z"/><path class="cls-5" d="M80,163.1c-2.1,3.7-2.9,6.8-5,10.5l-.8.2c-.9-1.6-1.7-2.9-2.2-2.9,0-2.2.1-4.4.2-6.6,2.6-.4,5.2-.7,7.8-1.1Z"/><path class="cls-5" d="M72.3,156.5c0,1.4,0,2.8,0,4.3-4.8,0-9.5-.5-14-2.1,4.6-1.1,9.3-1.8,14.1-2.1Z"/><path class="cls-5" d="M85.1,159.6c-4.2.6-8.6,1.1-12.9,1.1,0-1.4,0-2.9,0-4.3,2.3-.2,4.6-.3,6.9-.3,1.9,0,5.5-1.2,7.2-.6,3.4,1.1,1,3.8-1.4,4.1Z"/><path class="cls-5" d="M63.2,135.7c.8,1.6.5,4.9-.3,6.5-.8,1.6-.9,2-2.4,3-1.7,1.2-5.1,1.8-7.2,1.3-2-.5-3.5-2.2-4.2-4.1-.7-1.9-.7-4-.8-6.1,0,0-5.9.4-6.4.4,0-.2,0-.4,0-.5,0-1.7.9-1.6,2.7-1.6,2.1,0,4.1-.1,6.2-.2-1.3,2.3-.8,5.6,1.3,7.3,2.1,1.7,5.4,1.7,7.4,0,2-1.8,2.6-5,1.2-7.4,3-.4,6-.8,8.9-1.1,0,.6,0,1.2,0,1.8-2.2.3-4.4.6-6.5.8Z"/><path class="cls-5" d="M95.9,133.9c-1.7.3-1.7.3-3.4.6.6,1.6.4,4.9-.2,6.5-.7,1.6-.7,2-1.9,3-1.3,1.2-3.9,1.8-5.5,1.3-1.6-.5-2.7-2.2-3.2-4.1-.5-1.9-.6-4-.6-6.1,0,0-4.6.4-5,.4-.2-2.2.6-2.1,2.1-2.2,1.6,0,3.2,0,4.8-.1-1,2.3-.6,5.6,1,7.3,1.6,1.7,4.2,1.7,5.7,0,1.6-1.8,2-5.1.9-7.4,2.3-.4,3.2-.5,5.5-.9,0,.6-.2,1.2-.2,1.9Z"/><path class="cls-5" d="M97.6,150.8c-1,.2-1.8-.2-2.9,0-.3,0-.8,0-.9-.2-.1-.2,0-.5,0-.7.9-1.9,2-3.7,3.4-5.2.1,2.1.2,4.2.3,6.2Z"/><line class="cls-6" x1="97.3" y1="144.5" x2="97.3" y2="144.6"/><path class="cls-5" d="M98,170.4c-1-1.3-1.4-1.8-2.4-3.2-.1-.2-.3-.4-.3-.6,0-.6.7-.8,1.2-.8.5,0,1-.7,1.4-1.1,0,1.9,0,3.8,0,5.6Z"/><line class="cls-6" x1="98" y1="170.4" x2="98" y2="170.4"/><path class="cls-6" d="M98,164.8h0"/><path class="cls-5" d="M44.4,148c-.3.3-1.6.5-2.1.3,0,0,0,0-.1,0-.7-.5-1.5-.9-2.4-1.3,0-1,.1-2.7.2-4.6h0c1.4.8,2.6,1.9,3.8,3.1.3.4.6.7.8,1.2s.2,1-.2,1.4Z"/><path class="cls-5" d="M50.8,157.9c-.3.2-.7.3-1.1.4-2.2.4-4.2.6-6.5.6,0-.2-.1-.4-.2-.7,2.6-.6,3.3-1.7,2.9-2.9,1.2-.1,3.3.3,4.4.8.4.1.8.4.9.8,0,.4-.1.8-.5,1Z"/><path class="cls-5" d="M97.9,158.3h0c-1.1.7-2.6.7-3.8.1-.6-.3-1.1-.9-.9-1.5.1-.3.4-.5.8-.6,1.1-.5,2.5-.7,3.7-.6h.2c0,.9,0,1.8,0,2.6Z"/><path class="cls-5" d="M42.4,168.8c-1.6,1-3.6,2.5-5.2,3.5.3-1.6.5-3.1.8-4.7,1.5-.1,2.7.1,4.2,0,.2,0,.5,0,.7.2.3.3-.2.8-.5,1Z"/><path class="cls-5" d="M114.4,111.9c-3.1,1.7-6,3.4-9.1,5-.5-1.1,0-2.4,1-3.1.9-.8,2.1-1.1,3.2-1.4-1.1-1.6-2.6-2.9-3.8-4.4s-2.2-3.4-1.9-5.3c.2-2.3,1.8-3.9,3.8-5,.3.6.6,1.1.8,1.5,1.9,3.4,4,8.2,6,12.8Z"/><path class="cls-6" d="M23.9,91.4h0"/><path class="cls-6" d="M88.3,83.9s0,0-.1,0"/><path class="cls-1" d="M70,104.8c-3.2,0-6.4-.3-9.5-.9.3-2.5,1.1-5.1,2.8-6.9l.2-.3h0c2,1.2,3.9,2.5,5.8,3.6,0,0,0,0,0,.1.2,1.5.4,2.9.6,4.4Z"/><path class="cls-1" d="M78.2,104.2c-2.7.5-5.4.7-8.2.7-.2-1.5-.4-2.9-.6-4.4.2.2.4.3.4.2h0c1.4-1.5,3-3.1,4.6-4.6,1,2.4,2.8,5.7,3.7,8.1Z"/><line class="cls-6" x1="74.4" y1="96.1" x2="74.4" y2="96"/><path class="cls-2" d="M93.1,46.9v.3c-.4-.1-.8-.2-1.1,0h-.5c-.7-8-4.9-21.4-10.3-22.2-3.7-.6-5,1.1-11.1,1-6.4,0-10.9-2.2-14.3-.2-11.2,6.4-7.9,25.4-8.1,24.9-1.8-3.9-2.3-4.1-4.8-3.2-.2,0-.3.1-.5.2-2.6-7.9,1.8-27.8,2.8-29.2,1.8-2.4,4.4-3.5,6-4,8.2-2.4,8.5-1.4,17-1.6,5.2-.1,11.8-.5,16.7,1.2,2.6.9,3.1,1.5,4.9,3.6,1.5,1.8,3.9,20.8,3.2,29.3Z"/><path class="cls-6" d="M42.5,47.8v-.2"/><path class="cls-4" d="M102.3,302.9c-.9,1.3-2.8,1.4-4.3,1.3-3.9-.1-7.9-.3-11.7-1.4-.8-1.1-1.5-2.4-1.9-3.7-.1-.6-.2-1.1-.2-1.6,0-1.1.2-2.1.2-3.3,0-2.6-1-5.3-2-7.6h0c5.1-.4,9.5-1.1,12.9-2.7h.9c-.7,3.4-.2,7.6,1,10.8,1.2.6,2.4,1.1,3.5,1.7.7.8,1.3,2.4,1.7,3.4.4,1,.4,2.2-.2,3.1Z"/><path class="cls-4" d="M114.6,306.6c.1,2.2-2.2,3-4.3,3.5,0,0,0,0,0,0h0v-.3c-1.3-2.2-2.5-4.5-3.7-6.7-.3-.6-.6-1.2-.7-1.8,0-.6.2-1.4.8-1.7v-.2c1.7.9,3.3,1.8,4.9,2.7,1.5.9,3,2.7,3.1,4.5Z"/><path class="cls-4" d="M52.9,285.7h0c-1.2,2.1-1.3,9.2-1.9,13.3-.2,1-.4,1.8-.6,2.3-.5.9-1.1,1.6-1.8,2.3h0c-5,.9-9.9,1.6-15,2.1-.9,0-1.8.2-2.5-.3-.9-.5-1.3-1.7-1.2-2.8,0-1,.5-2,1-2.9,2.7-1.7,5.4-3.3,8.4-4.8,0-4.3,0-8.4,0-12.7,3.7,1.4,8.5,2.6,13.8,3.3Z"/><path class="cls-4" d="M26,306.7c0,1.3-.6,2.5-1.3,3.5-.7,1-1.6,2-2,3.2h0c-.7-.3-1.3-.9-1.7-1.6-.6-1.3-.4-2.9.2-4.2.1-.2.2-.4.4-.6,1-1.4,2.3-2.5,3.8-3.4,0,0,0,0,.2,0-.1,1.1.5,2.2.6,3.3Z"/><path class="cls-2" d="M48.5,303.7c-.4.4-.9.8-1.3,1.2-2.3,1.9-4.5,3.4-6.7,4.6v-.2c-2.7,0-5.3-.1-7.8.6-2.4.7-4.7,2.2-5.8,4.4-.6,0-1.3.1-1.9,0-.8,0-1.6-.3-2.3-.7h0c.4-1.3,1.3-2.3,2-3.3.8-1,1.4-2.2,1.3-3.5,0-1.1-.7-2.2-.6-3.3,1.8-1.2,3.5-2.4,5.3-3.5-.5.9-.9,1.8-1,2.9,0,1.1.3,2.2,1.2,2.8.7.4,1.7.4,2.5.3,5-.5,10-1.2,15-2.2h0Z"/><path class="cls-6" d="M39.1,282.4h0"/><path class="cls-6" d="M48.4,303.6c-.3,0-.5.1-.8.2"/><path class="cls-6" d="M30.8,299.8s0,0,0,.1"/><path class="cls-4" d="M40.5,309.4c-3.2,1.7-6.6,2.9-10.7,4.1-.9.3-1.9.6-2.9.7,1.1-2.2,3.4-3.7,5.8-4.4,2.5-.7,5.1-.7,7.7-.6v.2Z"/><path class="cls-6" d="M26.9,314.2c0,0,0,.2-.1.3"/><path class="cls-6" d="M86.2,302.8c-.3,0-.5-.2-.8-.2"/><path class="cls-6" d="M107.4,310.8c0,0-.2-.1-.2-.2"/><path class="cls-6" d="M93.8,308.6s0,0-.1,0"/><path class="cls-2" d="M43.9,311.8c-4.2,2.5-9.2,4.4-13.2,4.9-2.5.3-6,.7-8.1-.7-2.9-1.9-3.9-5.9-1.5-8.5h0c-.7,1.4-.9,2.9-.2,4.3.4.7,1,1.3,1.7,1.7.7.4,1.5.7,2.3.7.7,0,1.3,0,1.9,0,1-.1,1.9-.4,2.9-.7,4.1-1.3,7.5-2.4,10.7-4.1,2.2-1.2,4.4-2.6,6.7-4.6.4-.4.9-.8,1.3-1.2.7-.7,1.3-1.4,1.8-2.3.3-.5.5-1.3.6-2.3,1.3,5-2.4,10.1-7,12.8Z"/><path class="cls-6" d="M50.9,299c0-.2-.1-.4-.2-.6"/><path class="cls-2" d="M110.2,310.1c-1,.2-2,.4-3,.5-3.6-2.4-9.2-3.6-13.3-2.1-1.2-.6-2.4-1.2-3.5-2-1.5-1-2.9-2.3-4-3.8,3.8,1.1,7.8,1.3,11.7,1.4,1.6,0,3.4,0,4.3-1.3.6-.9.6-2.1.2-3.1-.4-1-1-2.6-1.7-3.4,2,1,4,2,5.9,3.1v.2c-.7.3-1,1-.9,1.7,0,.7.4,1.2.7,1.8l3.7,6.7v.3Z"/><path class="cls-4" d="M107.1,310.6c-4.5.5-9.2-.2-13.3-2.1h0c4.2-1.6,9.7-.3,13.3,2.1Z"/><path class="cls-2" d="M113.7,312.9c-1.9,1.5-4.5,1.7-7,1.5-5.6-.4-11.3-2-16.3-4.6-2.2-1.2-4.2-3.1-5.7-5.1-1.5-2.1-2.1-5-.8-7.2h.2c0,.5,0,1,.2,1.6.4,1.4,1,2.6,1.9,3.7,1.1,1.5,2.5,2.8,4,3.8,1.1.8,2.3,1.4,3.5,2h0c4.1,1.9,8.9,2.6,13.3,2.1,1-.1,2-.3,3-.5h0s0,0,0,0c2.2-.5,4.4-1.3,4.3-3.5,1.8,1.7,1.1,4.9-.8,6.4Z"/></svg>