<?xml version="1.0" encoding="UTF-8"?><svg id="oceania" xmlns="http://www.w3.org/2000/svg" width="235" height="321.9" viewBox="0 0 235 321.9"><defs><style>.cls-1{fill:#3b2310;}.cls-1,.cls-2,.cls-3,.cls-4,.cls-5,.cls-6,.cls-7,.cls-8{stroke:#000;stroke-linecap:round;stroke-linejoin:round;}.cls-2{fill:#17baac;}.cls-3{fill:#c27557;}.cls-4{fill:#af52c2;}.cls-5{fill:#fff;}.cls-6{fill:none;}.cls-7{fill:#f8ad3b;}</style></defs><line class="cls-6" x1="18.9" y1="142.9" x2="18.9" y2="143"/><path class="cls-6" d="M78.4,93.3c0,.2,0,.3-.2.5"/><path class="cls-3" d="M78.2,93.8c-1.9,5.8-5.7,8.4-11.8,8.4-12.6,0-15.3-5-16.9-8.9,1.3-.4,2.3-.7,2.8-.7v-.8c.2,0,.6-5.6.6-5.6l.5-.6c10.1,8.5,16,8.1,20.4,5.1h.5s-.3,2.4-.3,2.4c.3.1,1.9.4,4.1.9Z"/><path class="cls-2" d="M90,96.6c-1.6,5.5-3.3,18.9-21.6,18.7-13.2-.2-24.9-4.9-32-17,3.3-1.3,9.4-3.8,13.2-5,1.6,3.9,4.2,8.8,16.9,8.9,6.1,0,9.9-2.6,11.8-8.4,3.5.7,8.4,1.6,11.8,2.8Z"/><path class="cls-6" d="M52.6,92.5s0,0-.2,0"/><path class="cls-2" d="M101,246.8h-.3c-20.1,7.6-56.7,11.1-79.8,1.4.2-2.8.4-5.8.7-8.8,25.7,6.7,53.2,6,78.5-1.9.3,3.2.6,6.4.9,9.4Z"/><path class="cls-4" d="M102.2,259.4h-.3c-8.1,4.6-17.7,5.7-26.9,6.5-9.2.8-18.6,1.4-27.8.6-9.2-.8-18.5-2.9-26.6-7.2,0-3.3.2-7.1.5-11.2,23,9.8,59.7,6.2,79.8-1.3h.3c.4,4.7.8,8.9,1.2,12.6Z"/><path class="cls-2" d="M103,271.7c-.2.9-4.5,2.5-10.6,4.1-4.9,1.2-10.9,2.5-16.8,3.4-4.5.7-9,1.1-12.8,1.2-5.7.1-10.7,0-15.1-.4-6.3-.5-11.4-1.5-15.5-2.7-4.4-1.3-7.5-2.8-9.7-4.4-1.6-1.1-2.1-6.2-2-13.5,8.2,4.4,17.4,6.5,26.6,7.2,9.2.8,18.6.2,27.8-.6,9.3-.8,18.9-1.9,26.9-6.5h.3c.5,5.9.8,10.2.8,12.2Z"/><path class="cls-6" d="M92.5,112.9c.7,3.3.7,8.2.3,13.6"/><path class="cls-6" d="M37.8,124.4c0,0-.1-.2-.2-.2"/><path class="cls-6" d="M115.7,153.3c-.1.2-.3.5-.5.7"/><path class="cls-2" d="M120,148.3c-.8,2.8-2.2,5.5-3.6,7.7-.3-.7-.7-1.4-1.1-2-2.5-3.9-7.2-7.7-11.4-7.9.1-.2.3-.4.4-.6.8-1.1,1.7-2.1,2.8-3.1,4.9-.4,10,1.9,12.9,5.9Z"/><path class="cls-4" d="M119.2,139.4c-1.9-3-14.9-26.6-17-30.3-2.1-4.1-7.8-10.6-10.2-11.7-.6-.3-1.2-.5-2-.8-1.6,5.5-3.3,18.9-21.6,18.7-13.2-.2-24.9-4.9-32-17-1,.4-1.7.7-2.1.9-4,1.8-12,11-12,11-5.6,5.6-18.7,25-21.4,29.9-1.9,3.4-.6,7.5,1.7,11.3.4-3.2,2-6.2,4.6-8.2,2.6-2,6-2.9,9.3-2.4h0c.6,1.1,1,1.9,1.5,2.6.2.3.4.6.5.8,2-2,7.6-8.1,9-9.5,1.4-1.4,6.4-6.3,10.3-10.2,1.3,2.3,1.4,6.2,1.9,9,.8,4.8-3.2,26.4-3.6,31.3h0v.5c3.6.7,7.2,1.8,6.4,5.7,2.2,2.2,4.1,5-.7,6.2.9,2.3-.7,3.9-2.2,4.1,1.4,1.8-1.2,3.2-2.4,3.2.2,4.9-7.8,0-9.4-1.6.5,1-3.9,31.2-6.1,56.4,25.7,6.7,53.2,6,78.5-1.9-1.7-16.6-3.8-36.4-5.6-52.9-.9-8.4-1.7-16-2.4-21.9-.6-5.6-1-9.7-1.2-11.4-.3-3.2,1.3-14.6,1.9-24.8h.1c2.4,2.8,10.4,19.4,11.1,18.8l.3.2h0c.8-1.1,1.7-2.1,2.8-3.1,4.9-.4,10,1.9,12.9,5.9.9-3.1.9-6.3-.8-8.9ZM54.4,153.3c.4,2.4,1.8,4.5,2.5,6.8,1.5,5.1-.5,13.3-2.6,18.2-2.1,4.9-4.4,7.4-3,12.6,1,3.8,1.1,14.9,2.4,18.6,1.3,3.8,1.3,7.9.2,11.8-1.1,3.8-1.4,6-3.3,9.5-.7,1.3-1.7,2.9-3.2,3-1.8.1-3.1-1.9-3-3.7.1-1.8,1.1-3.4,1.9-5,1.8-3.7,2.6-8,2.1-12.1-.4-4-1-14.5-2.2-18.4-1.1-3.9-1.9-8.1-.7-12,1.2-4,4.4-7.1,5.8-11.1,3-8.4-2.8-17.6-1.6-26.5.5-3.3,1.9-6.4,2.6-9.6.7-2.8,0-5.2.2-8,0-2.1.8-3.2,2.4-1.4,3.2,3.7,3.6,5.5,2.5,10.1-1.1,4.5-3.7,12.8-2.9,17.4ZM86.2,231.5c-3.8-3.1-4.5-4.8-4.1-9.5.3-4.7,1.5-13.2-.1-17.6-.8-2.3-1.6-10.8-2.7-12.9-2.3-4.8-1.7-13.2-.5-18.3,1.3-5.2,3.1-8.1.9-12.9-1.6-3.6-3.4-7.8-5.3-11.2-2-3.5-2.6-7.6-2.1-11.6.5-3.9.4-6.1,1.7-9.9.5-1.4,1.2-3.1,2.7-3.5,1.7-.4,3.3,1.4,3.5,3.1.2,1.8-.5,3.5-1,5.2-1.2,4-1.2,8.3,0,12.3,1.1,3.9,3.3,7.4,5.1,11,1.8,3.6,3.2,7.7,2.7,11.7-.5,4.1-3.1,7.8-3.8,11.9-1.5,8.8,4.8,23.6,5.1,32.5.1,3.3-.8,6.6-1,9.9-.2,2.9.8,5.2,1.2,7.9.3,2.1-.3,3.3-2.1,1.8Z"/><path class="cls-6" d="M104.1,145.2s0,0,0,0"/><path class="cls-3" d="M115.3,154c-1.8,2.6-3.9,5.1-5.9,7.3-4.3,4.7-8.2,7.9-10.1,13.7-.8,2.5-2.4,7-3.3,9.5l-1.4.2c-.9-8.4-1.7-16-2.4-21.9h.7c0-.2,2.3-2.1,3.3-3.3,1.5-1.9,2.9-3.5,4-5.7,1.3-2.7,2.3-5.2,3.8-7.5,4.2.1,8.9,3.9,11.4,7.9Z"/><path class="cls-6" d="M92.9,162.7s0,0,0,0"/><path class="cls-6" d="M108.9,141.1c-.6.4-1.2.9-1.8,1.3"/><path class="cls-6" d="M18.5,144l-.4.4"/><path class="cls-6" d="M42.6,119.9c-.9.8-2.6,2.5-4.7,4.5"/><path class="cls-3" d="M41.7,177.1c.9,2.3-.7,3.9-2.2,4.1,1.4,1.8-1.2,3.2-2.4,3.2.2,4.9-7.8,0-9.4-1.6-2.2-2.2-5.7-7-4.2-10.3-2.9-4.2-11.6-12.9-14.7-16.6h0c1.4-5.4,4.5-11.1,9.3-12.8.2.3.4.6.5.8,1.1,1.7,2,2.7,3.7,6.3,2,4.1,3.3,11.5,8.8,14.1h0c1.3.3,3.1.5,4.8.8,3.6.7,7.3,1.8,6.5,5.7,2.2,2.2,4.1,5-.7,6.2Z"/><path class="cls-2" d="M18,143.2c-4.8,1.7-7.9,7.5-9.3,12.8-.2.9-.4,1.8-.6,2.7-1.8-2.1-3.9-4.7-5.5-7.4.4-3.2,2-6.2,4.6-8.2,2.6-2,6-2.9,9.3-2.4h0c.6,1.1,1,1.9,1.5,2.6Z"/><path class="cls-6" d="M16.5,140.6c-.1-.2-.2-.5-.4-.7"/><path class="cls-6" d="M31.9,164.7c-.3-.1-.6-.2-.8-.3"/><path class="cls-6" d="M42.4,170.9c-.9-1-1.9-1.9-2.4-2.5"/><path class="cls-6" d="M42.4,170.9s0,0,0,0"/><path class="cls-3" d="M89.3,45.4c0-3.2-2.9-5-4.1-5.9-1.8-1.3-2.5-4-4.6-4.7-2.8-.9-5.3,2.4-8.2,2.4-2.7,0-4.8-2.9-7.5-2.9-2.7,0-4.6,2.9-7.2,3.5-1.7.4-3.4-.2-5.2-.3-1.7-.1-3.8.5-4.3,2.2-.4,1.6.8,3.3.1,4.8-.6,1.5-2.8,1.9-3.6,3.3-.7,1.2-.4,2.8.4,3.9.7,1,1.3,3.1.6,5.7-.4,1.3-2.7.6-3.6-.4-2.2-1.1-4.5.9-5.7,3.2-.6,1.2-.9,2.5-.8,3.5.6,3.9,4.7,9.3,7.7,8.2,1.6,5.7,1.2,4.2,4.5,8.4h0c2,2,3.9,3.7,5.6,5.2,0,0,0,0,0,0,10.1,8.5,16,8.1,20.4,5.1,0,0,.2-.1.3-.2,3.1-2.3,5.5-6,8.1-8.8,3.1-3.3,4.8-7.2,5.8-10.8,1.7-6.2,1-11.5,1-11.5.1-.7.2-1.3.3-2,.5-4,0-8.3-.2-11.8ZM51.3,50.7c-.7,0-1-.4-.8-1,.5-1,1.9-2,4.2-2.7,1.9-.5,8.1-.6,7.2,2.3-.2.7-.8,1.2-1.6,1.3-.8.1-2.7-.4-3.4-.4-2,0-3.4.2-5.7.4ZM57.9,64.5c-1.2,0-2.1-1.9-2.1-4.2s.9-4.1,2.1-4.1,2.1,1.9,2.1,4.1-.9,4.2-2.1,4.2ZM71.3,83.6c-2.1.3-5.5-.6-7.6-1.9-2-1.4-1.9-.5-4.4-4.3,1.2,1.2,12.7,4,18.4,1.4-1.5,2.8-3.1,4.3-6.5,4.8ZM81.5,63.8c-1,0-1.8-1.6-1.8-3.7s.8-3.7,1.8-3.7,1.8,1.7,1.8,3.7-.8,3.7-1.8,3.7ZM85.4,50.7c-.2.2-.6.3-.9.2-.3,0-5.2.4-5.9.4-1,0-1.8-.9-1.7-1.8,0-.9.7-1.7,1.6-2.1,2.3-1,4.9.1,6.5,1.6.2.2.5.4.6.7.1.3,0,.6-.1.9Z"/><path class="cls-6" d="M52.3,91.7s0,0,0,0"/><path class="cls-8" d="M83.3,60.1c0,2.1-.8,3.7-1.8,3.7s-1.8-1.6-1.8-3.7.8-3.7,1.8-3.7,1.8,1.7,1.8,3.7Z"/><path class="cls-8" d="M60,60.4c0,2.3-.9,4.2-2.1,4.2s-2.1-1.9-2.1-4.2.9-4.1,2.1-4.1,2.1,1.9,2.1,4.1Z"/><path class="cls-6" d="M76.8,70.1c-.6,5.2-5.3,3.7-9.1,3.7"/><path class="cls-5" d="M77.8,78.8c-1.5,2.8-3.1,4.3-6.5,4.8-2.1.3-5.5-.6-7.6-1.9-2-1.4-1.9-.5-4.4-4.3,1.2,1.2,12.7,4,18.4,1.4Z"/><path class="cls-6" d="M48.3,80.8c-.1-.2-.3-.3-.4-.5"/><path class="cls-1" d="M61.9,49.3c-.2.7-.8,1.2-1.6,1.3-.8.1-2.7-.4-3.4-.4-2,0-3.4.2-5.7.4-.7,0-1-.4-.8-1,.5-1,1.9-2,4.2-2.7,1.9-.5,8.1-.6,7.2,2.3Z"/><path class="cls-1" d="M85.4,50.7c-.2.2-.6.3-.9.2-.3,0-5.2.4-5.9.4-1,0-1.8-.9-1.7-1.8,0-.9.7-1.7,1.6-2.1,2.3-1,4.9.1,6.5,1.6.2.2.5.4.6.7.1.3,0,.6-.1.9Z"/><path class="cls-3" d="M92.3,67.7c-.3.8-.7,1.6-1.3,2.2-.6.6-1.4,1-2.3,1h-.5c1.7-6.3,1-11.6,1-11.6.1-.7.2-1.3.3-2,.4-.2,1.4-.3,2.2-.2.5,0,1,.2,1.1.4.4.6.6,1.3.6,2,.3,2.8-.1,5.7-1.2,8.4Z"/><path class="cls-3" d="M99.3,302.3c-1,1.3-2.9,1.3-4.6,1.3-4.1-.1-9.9-.9-14.1-2-1.5-1.7-2.4-3.7-2.7-5.9,0,0,0,0,0-.1-.3-7.2-1-11.3-2.4-16.4,5.9-.9,11.9-2.1,16.8-3.4,0,8.8.3,15.7.7,17.7,1.5.7,3.1,1.4,4.7,2.2v.2c.7.8,1.3,2.4,1.8,3.4.4,1,.5,2.2-.2,3.1Z"/><path class="cls-3" d="M46.8,294.8c.4.7.6,1.5.5,2.3,0,0,0,0,0,0,0,.8-.3,1.5-.7,2.2-.4.8-1.4,1.6-2.5,2.4-5.1.9-11.6,2.1-16.7,2.6-.9,0-1.9.2-2.7-.3-1-.5-1.4-1.7-1.3-2.7,0-1,.6-2,1.1-2.9l-.2-.3c2.1-1.5,4.2-3,7-4.4.6-5.8.9-10.2.9-16.3,4.1,1.2,9.2,2.2,15.5,2.7-.9,5.5-1.4,10-1,14.9Z"/><path class="cls-6" d="M78,295.5c0-.2,0-.5,0-.7"/><path class="cls-8" d="M107.6,309.4c-.9.2-1.8.4-2.8.5-4-2.3-10-3.4-14.5-2-3.9-1.5-7.4-3.6-9.7-6.3,4.2,1.1,10,1.9,14.1,2,1.7,0,3.6,0,4.6-1.3.7-.9.6-2.1.2-3.1-.4-1-1.1-2.6-1.8-3.4v-.2c2.1,1,4.2,2.1,6.2,3.1v.3c-.8.3-1.1,1-1,1.6,0,.6.4,1.2.7,1.8,1.3,2.2,2.6,4.4,3.9,6.6v.3Z"/><path class="cls-3" d="M112.3,305.9c.1,2.2-2.3,3-4.6,3.5,0,0,0,0,0,0v-.3c-1.4-2.2-2.6-4.4-3.9-6.6-.3-.6-.7-1.1-.7-1.8,0-.6.2-1.4.8-1.6v-.3c1.9.9,3.6,1.8,5.2,2.7,1.6.9,3.1,2.7,3.2,4.4Z"/><path class="cls-8" d="M44.1,301.6s0,0,0,0c-.8.6-1.7,1.2-2.2,1.6-2.4,1.9-4.7,3.4-7.1,4.5v-.2c-2.8,0-5.6-.1-8.2.6-2.5.7-4.9,2.1-6.1,4.4-.7,0-1.4.1-2.1,0-.8,0-1.7-.3-2.4-.7h0c.4-1.3,1.3-2.2,2.1-3.3.8-1,1.5-2.2,1.4-3.4,0-1.1-.7-2.2-.6-3.3,2.1-1.4,3.8-2.7,5.4-3.9l.2.3c-.5.9-1,1.9-1.1,2.9,0,1.1.3,2.2,1.3,2.7.8.4,1.8.3,2.7.3,5.1-.5,11.6-1.7,16.7-2.6Z"/><path class="cls-3" d="M34.7,307.7c-3.4,1.7-7,2.8-11.3,4.1-1,.3-2,.5-3,.7,1.1-2.2,3.6-3.7,6.1-4.4,2.6-.7,5.4-.6,8.1-.6v.2Z"/><path class="cls-3" d="M19.5,305.1c0,1.2-.6,2.4-1.4,3.4-.8,1-1.7,2-2.1,3.2h0c-.8-.3-1.4-.9-1.8-1.6-.7-1.3-.4-2.9.3-4.2.1-.2.2-.4.4-.6,1-1.4,2.5-2.4,4-3.4,0,0,0,0,.1-.1-.1,1.1.5,2.2.6,3.3Z"/><path class="cls-6" d="M44.1,301.6c0,0-.2,0-.3,0"/><path class="cls-6" d="M19,301.2c0,.2-.1.4-.1.6"/><path class="cls-6" d="M20.4,312.4c0,0,0,.2-.1.3"/><path class="cls-6" d="M80.7,301.6c-.4-.1-.8-.2-1.1-.3"/><path class="cls-6" d="M104.9,309.9s0,0,0,0"/><path class="cls-6" d="M90.4,307.9c-.1,0-.3,0-.4.1"/><path class="cls-8" d="M38.7,310.1c-3.8,2-7.1,3.6-13.4,4.8-2.6.5-7.1.6-9.3-.8-3.1-1.9-4.1-5.7-1.6-8.3h0c-.7,1.3-.9,2.9-.3,4.2.4.7,1,1.3,1.8,1.7.7.4,1.6.7,2.4.7.7,0,1.4,0,2.1,0,1-.1,2-.4,3-.7,4.4-1.3,7.9-2.4,11.3-4.1,2.4-1.2,4.7-2.6,7.1-4.5.6-.4,1.4-1,2.2-1.6.2,0,.4,0,.5-.1-.2,0-.3,0-.5.1,1-.8,2.1-1.6,2.5-2.4.4-.7.6-1.4.7-2.2,1.2,5-3.7,10.5-8.6,13Z"/><path class="cls-6" d="M47,296.3c0,.2.2.5.2.8,0,0,0,0,0,0"/><path class="cls-3" d="M104.8,309.9c-4.6.5-9.8-.3-14.5-2,4.5-1.4,10.4-.3,14.5,2Z"/><path class="cls-8" d="M111.4,312.2c-2,1.5-4.8,1.6-7.3,1.5-6-.4-12.1-2-17.4-4.6-2.4-1.2-6.2-3.7-7.8-5.7-1.6-2-2.2-4.9-.8-7.1,0-.2,0-.4,0-.6.3,2.2,1.2,4.2,2.7,5.9,2.3,2.7,5.8,4.9,9.7,6.3,4.6,1.7,9.9,2.4,14.5,2,1-.1,1.9-.2,2.8-.5,0,0,0,0,0,0,2.3-.5,4.7-1.2,4.6-3.5,1.9,1.6,1.1,4.8-.9,6.3Z"/><path class="cls-6" d="M18.9,143c-.3,0-.6.2-.9.3"/><path class="cls-6" d="M103.9,146.1c-.1,0-.2,0-.4,0"/><path class="cls-6" d="M90.1,96.3c0,0,0,.2,0,.2"/><path class="cls-6" d="M36.4,98.3c-.1-.2-.2-.4-.3-.5"/><path class="cls-6" d="M2.6,151.3c0,0,0,.1,0,.2"/><path class="cls-6" d="M120.2,148.6c0,0-.1-.2-.2-.3"/><path class="cls-6" d="M107.1,142.4c0,0-.1,0-.2,0"/><path class="cls-6" d="M20.5,259.3h0"/><path class="cls-6" d="M20.9,248.2c0,0-.1,0-.2,0"/><path class="cls-6" d="M100.4,237.3c-.1,0-.2,0-.3.1"/><path class="cls-6" d="M21.6,239.3s0,0,0,0"/><path class="cls-2" d="M54.3,178.3c-2.1,4.9-4.4,7.4-3,12.6,1,3.8,1.1,14.9,2.4,18.6,1.3,3.8,1.3,7.9.2,11.8-1.1,3.8-1.4,6-3.3,9.5-.7,1.3-1.7,2.9-3.2,3-1.8.1-3.1-1.9-3-3.7.1-1.8,1.1-3.4,1.9-5,1.8-3.7,2.6-8,2.1-12.1-.4-4-1-14.5-2.2-18.4-1.1-3.9-1.9-8.1-.7-12,1.2-4,4.4-7.1,5.8-11.1,3-8.4-2.8-17.6-1.6-26.5.5-3.3,1.9-6.4,2.6-9.6.7-2.8,0-5.2.2-8,0-2.1.8-3.2,2.4-1.4,3.2,3.7,3.6,5.5,2.5,10.1-1.1,4.5-3.7,12.8-2.9,17.4.4,2.4,1.8,4.5,2.5,6.8,1.5,5.1-.5,13.3-2.6,18.2Z"/><path class="cls-2" d="M86.2,231.5c-3.8-3.1-4.5-4.8-4.1-9.5.3-4.7,1.5-13.2-.1-17.6-.8-2.3-1.6-10.8-2.7-12.9-2.3-4.8-1.7-13.2-.5-18.3,1.3-5.2,3.1-8.1.9-12.9-1.6-3.6-3.4-7.8-5.3-11.2-2-3.5-2.6-7.6-2.1-11.6.5-3.9.4-6.1,1.7-9.9.5-1.4,1.2-3.1,2.7-3.5,1.7-.4,3.3,1.4,3.5,3.1.2,1.8-.5,3.5-1,5.2-1.2,4-1.2,8.3,0,12.3,1.1,3.9,3.3,7.4,5.1,11,1.8,3.6,3.2,7.7,2.7,11.7-.5,4.1-3.1,7.8-3.8,11.9-1.5,8.8,4.8,23.6,5.1,32.5.1,3.3-.8,6.6-1,9.9-.2,2.9.8,5.2,1.2,7.9.3,2.1-.3,3.3-2.1,1.8Z"/><path class="cls-1" d="M93.3,47c-.5,4.2-1,5.8-1.6,10-.8,0-1.9,0-2.2.2.5-4,0-8.3-.2-11.8,0-3.2-2.9-5-4.1-5.9-1.8-1.3-2.5-4-4.6-4.7-2.8-.9-5.3,2.4-8.2,2.4-2.7,0-4.8-2.9-7.5-2.9-2.7,0-4.6,2.9-7.2,3.5-1.7.4-3.4-.2-5.2-.3-1.7-.1-3.8.5-4.3,2.2-.4,1.6.8,3.3.1,4.8-.6,1.5-2.8,1.9-3.6,3.3-.7,1.2-.4,2.8.4,3.9.7,1,1.3,3.1.6,5.7-.4,1.3-2.7.6-3.6-.4-2.2-1.1-4.5.9-5.7,3.2h-.3c-2.4-.9-3.1-4.5-2.5-7.3.6-2.8,2-5.3,2.2-8.1.3-3.2-.9-6.7.7-9.3,1.7-2.7,5.4-2.6,7.5-4.9,2-2.3,2-6.4,4.3-8.3,2.1-1.7,4.9-.8,7.4-1.3,3.4-.6,6.3-3.7,9.7-3.5,4.4.2,7.4,5.4,11.7,6.5,3.4.8,7.5-.9,9.9,1.9,1.8,2,1.6,5.2,2.6,7.8.9,2.2,2.6,3.8,3.4,6,.8,2.3.5,4.8.2,7.3Z"/><path class="cls-5" d="M51.7,57.2c-.3,1.4-2,2-4.1,1.3-1.1-.4-3.1-.2-4.1,1.5-.7,1.3-1.9,4.8-3.2,4.6-1.3-.2-1.4-1.9-1.5-3.3,0-1.6-.4-2.7-.4-3.9,0-1.3-.2-2.1-3.5-2.8-.9-.2-2.1-.4-3-.9-.9-.4-1.4-1.6-.9-2.5.4-.6,2.8-1.2,3.5-1.5,2.3-1.1,3.7-3.8,3.7-6,0-.8,0-1.7.8-2,1.7-.7,3.8,3.6,5.4,3.7.9,0,4.2-1.5,5-1.8.8-.3,1.8-.2,2.3.5.5.9,0,2-.6,2.8-.9,1.3-1.2,1.8-2.1,3.1-.5.8-1.5,2.1,1.2,4.6.7.7,1.8,1.6,1.7,2.7Z"/><path class="cls-7" d="M44.3,51.7c-.5-2.2-2.5-1.7-3.2-1.1s-.7,1.7,0,2.4,1.6.8,2.4.3c.6-.3,1-1,.8-1.7"/><path class="cls-6" d="M36.5,48.7c1.1-.1,2.2.2,2.9,1"/><path class="cls-6" d="M44.1,45.5c.8.6,1.2,1.7,1,2.7"/><path class="cls-6" d="M48.2,50.8c-.5.8-1.3,1.3-2.1,1.5"/><path class="cls-6" d="M46.7,58.3c-1.4-.6-2.6-1.3-3.8-2.3"/><path class="cls-6" d="M38.7,56.5c0-.9.3-1.8.8-2.5-.1,0-.2.2-.3.3"/></svg>