<?xml version="1.0" encoding="UTF-8"?><svg id="oceania" xmlns="http://www.w3.org/2000/svg" width="235" height="321.9" viewBox="0 0 235 321.9"><defs><style>.cls-1{stroke-linecap:round;stroke-linejoin:round;}.cls-1,.cls-2{fill:none;stroke:#000;}.cls-2{stroke-miterlimit:10;}.cls-3,.cls-4,.cls-5,.cls-6,.cls-7,.cls-8,.cls-9,.cls-10{stroke-width:0px;}.cls-4{fill:#f3eccf;}.cls-5{fill:#6bc297;}.cls-6{fill:#353638;}.cls-7{fill:#d7ad75;}.cls-8{fill:#a76541;}.cls-9{fill:#fff;}.cls-10{fill:#eebede;}</style></defs><path class="cls-8" d="M136.9,302.7c1.3,1.4,1.2,3.5.2,5.2l-.3-.2c-2.2.6-4.9.9-7.9.9v-.4c-.2-3,2.5-8.2,2.3-8.2h0c.7.2,1.4.5,2.1.7,1.3.5,2.6,1,3.5,2Z"/><path class="cls-6" d="M136.9,307.7l.3.2c-.4.8-1.1,1.6-1.9,2.2-2.4,1.7-5.5,2-8.4,2.2-9,.4-18.7-3.1-27.7-4.1-1.1-.1-2.3-.3-2.9-1.1-.5-.6-.5-1.4-.5-2.1,0-.7,0-1.4,0-2.1,5,1.3,10.7,2.7,16.3,3.8,5.9,1.2,11.7,2,16.8,2,3,0,5.7-.2,7.9-.9Z"/><path class="cls-6" d="M131.4,299.9h0c.1,0-2.6,5.3-2.3,8.3v.4c-5,0-10.9-.9-16.8-2v-.6c.5-2.4,1-4.8,2-7,1-2.2,2.7-4.2,5-5,4.1,2.1,8.2,4.3,12.2,6Z"/><path class="cls-8" d="M134.8,170.6c1.5,3.6-2.2,7.3-5.1,9.6s-4.6,3.3-7.6,1.1c-1.4-1.1-2.6-2.6-3-4.4,0-.1,0-.2,0-.4-.3-3.5,5.7-10.2,6.9-10.4,3.4-1.2,7.5.9,8.9,4.5Z"/><path class="cls-8" d="M116.8,292.7c.8.4,1.6.8,2.4,1.2-2.3.9-3.9,2.9-5,5-1,2.2-1.5,4.6-1.9,7v.6c-5.7-1.1-11.4-2.5-16.5-3.8,0-.9.1-1.9.2-2.8h0c6.9.9,15.9-2.2,20.7-7.2h0Z"/><path class="cls-6" d="M74.9,214.5c-5.8,18.7-7.6,26-9.8,31.4-.7,1.8-13.1,44.1-14.8,45.1-.5.3-1.2.5-2.1.7-2.3.5-5.8.8-9.4.8-4.4,0-8.8-.6-13.1-1.2-.5,0-1-.1-1.5-.2,11.2-29,18.9-45.3,21.4-58.9,2.1-11.8,0-33.4,2.8-46.7v-.2c16.5,4.9,28.7,7.5,46,5.8,4.5,7.8,16.4,32.5,20,44.2.8,2.5,3.5,45.9,3.9,55.8-.4.6-.9,1.2-1.4,1.7-4.8,5-13.7,8.1-20.7,7.2-.7,0-1.4-.2-2.1-.4-.2-10.5-1.7-19.2-1.4-36.1,0-6.4.7-23.4-1.4-27-3.8-6.9-10.7-16.2-16.2-21.9h-.1Z"/><path class="cls-8" d="M125.8,166.1c-1.2.3-7.2,7-6.9,10.4h-.2c-2.9-8.6-21.2-20.8-21-27.3h-.6c0-.8,0-1.6,0-2.4h.5c3.7-1,5.7-2.8,8.9-5.2l.6.2c4,6,11.7,19.1,18.5,24.2Z"/><path class="cls-7" d="M119.5,57.7c.8,1.7.6,3.6-.4,5.2-2.5,3.9-1.4,5.5-2.1,8.8l.2.7c-2.1,2.2-3.8,2.2-5.2,1.5-1.2-.6-2.1-1.8-2.7-2.6-1.2-1.7-2.6-3.9-4.7-3.9-1.9,0-3.6,1.9-5.4,1.3-2.3-.8-2.5-5.1-5-4.9-1.6.1-2.2,2.2-3.7,2.7-1.5.5-3-.8-4.1-1.9-1.1-1.1-2.9-2.2-4.2-1.3-1.3.9-1,2.9-2.1,4.1-.7.8-1.9.9-3,.9s-2.3,0-3.1.8c-1.3,1.1.2,2.2-.2,3.3-.5,1.3-2,2.7-3.3,3-1.3.3-2.4-.8-3-2-.7-1.6-2.8-2-4.1-1.1-1.4.9-2.1,2.7-2.3,4.4-.3,3.1.9,6.5,3.4,7.8.4.2,1,.4,1.4.4h0c.3,1.4.5,3.5.7,5.8-3.7,1-5.4-6.2-8.5-6.5-2.7-.3-3.2-4.8-2.6-7.5.3-1.5,1.1-3.4,0-4.4-.9-.8-1.3-2.2-2.3-2.7-1.9-.9-1.8-3.7-.8-5.5,1-1.8,1.6-1.7,1.7-3.8.2-3.3-3.3-6.5-1.8-9.5.9-1.8,3.4-2.3,4.7-3.9,1.1-1.2,1.3-3,1.4-4.6s1.4-2.3,2.4-3.6,3-2.1,4.2-1c6.7-.4,6.2-6.2,10.5-4,2.5,1.3,4.4,1.5,8,.3,1.8-.6,3.6-1.6,5.5-1.3,2.7.5,4.5,3.4,7.3,3.7,2.9.4,5.8-1.4,8.1.4,2.2,1.8,1.1,5,3.2,6.8,1.6,1.3,5.9,1.8,7.4,3.2,1.9,1.8.6,4.1,1.4,6.5.6,1.7,2.3,2.7,3,4.3Z"/><path class="cls-8" d="M86,93l-.2.2c-1.5,7.6,8.7,11.9,11.3,4.4-4.4-.4-7.3-2.1-11.1-4.7ZM66.1,84.9c-.5,0-1-.1-1.4-.4-2.5-1.3-3.8-4.8-3.4-7.8.2-1.7.9-3.5,2.3-4.4,1.4-.9,3.5-.5,4.1,1.1.5,1.2,1.7,2.3,3,2,1.3-.3,2.8-1.8,3.3-3,.4-1.1-1.1-2.1.2-3.3.8-.7,2-.8,3.1-.8s2.3-.1,3-.9c1.1-1.1.8-3.2,2.1-4.1,1.3-.9,3.1.2,4.2,1.3,1.1,1.1,2.6,2.4,4.1,1.9,1.5-.5,2.2-2.6,3.7-2.7,2.4-.2,2.6,4.1,5,4.9,1.8.6,3.5-1.2,5.4-1.3,2.1,0,3.5,2.2,4.7,3.9.6.8,1.5,2,2.7,2.6h0c-1.3,4.3-3.3,7.7-4,10-.6,1.9-.6,9.9-8,17.9,0,0-4.3,5.1-8.2,5.7-.7.1-2-.1-3.8-.7-.5-.2-1.1-.4-1.7-.6,0,1-1.1,3.9-2,4.3-.9.4-2.9.8-3.9.8-5-.3-10.1-3.2-13.6-6.8h0s-.2-.4-.2-.4c.8-1.9.6-8.2.1-13.4-.2-2.3-.5-4.4-.7-5.8h0ZM105.6,82.6c.3-1.4,0-2.7-.9-2.8s-1.7.8-2.1,2.2,0,2.7.9,2.8,1.7-.8,2.1-2.2ZM89.9,79c.3-1.4-.1-2.6-.9-2.8-.8-.2-1.8.8-2.1,2.1-.3,1.4,0,2.6.9,2.8.8.2,1.8-.8,2.1-2.2Z"/><path class="cls-10" d="M97.3,146.9c0,.8,0,1.6,0,2.4-.4,13.7-2.2,27.3-2.7,41.8,0,0-.1,0-.2,0-17.2,1.7-29.4-.8-45.9-5.8-.3,0-.5-.2-.8-.3,1.7-5.2,1.5-5.9,2.4-11.3,1.4,1.1,2.9,2.3,4.6,3.5,1.3,2.2,8.3,8,10.8,6.9,2.1-.9,6.7-10.2,5.5-12.8-1.1-2.4-11.9-4.8-13.9-2.9h0c-2.1-2.5-3.7-4.9-5.3-7.3h0c1.1-11,2.2-18.8,2.3-25.6h-.1c-2.4,4.6-4.8,8.6-6.1,10.2-.6-.6-1.3-1.3-2-1.9-4.7-3.9-12-7.5-12.4-8.7,0,0,0-.1,0-.3.9-3,13.2-25.4,19.9-27.7,5.2-.8,9.9-1.7,13.5-2.3l.3-.3c3.5,3.6,8.6,6.5,13.6,6.8,1,0,3-.4,3.9-.8.9-.4,2-3.3,2-4.3.6.2,1.2.4,1.7.6v.3c14.5,4.8,16.6,25.8,20.6,33.3-.7.5-1.4.9-2,1.3-3.3,2.3-5.2,4.2-8.9,5.2h-.5ZM92,142.7c.7-3.1.8-6.7,2.3-9.1-.9.5-1.9.4-2.9.1-1-.3-1.9-.8-2.8-1.1-3.1-1-6.5.6-8.7,4.1h-1.4c0,.1,0,.1-.1.1-1.6,0-3.1,2.5-2.9,4.9-1.1-1.9-3.5-1.5-4.3.7-.9,2.2,0,5.4,1.7,6-1.1.9-1.4,3.3-.8,4.8s2,2.3,3.2,2c1.9-.5,3.8-3.7,3.8-3.7.9,1.3,3.8,3.4,5,.6.2-.4.3-.8.3-1.3h.3c1.6.3,2.2.2,3.9-1.3,1.7-1.5,2.9-4.1,3.4-6.9Z"/><path class="cls-3" d="M104.8,79.7c.8.2,1.2,1.4.9,2.8-.3,1.4-1.3,2.4-2.1,2.2s-1.2-1.4-.9-2.8,1.3-2.4,2.1-2.2Z"/><path class="cls-5" d="M94.3,133.6c-1.5,2.4-1.6,6-2.3,9.1-.6,2.8-1.8,5.4-3.4,6.9-1.7,1.5-2.3,1.5-3.9,1.3h-.3c0-1.2-.2-2.5-.9-3.1.7-.5,1.5-.9,2-1.8.6-.8.9-2,.7-3.2-.2-1.3-1.2-2.1-2.1-2.2-.9,0-1.8.4-2.7.9.1-2.4-1.3-4.7-2.9-4.8h1.4c2.2-3.5,5.6-5.1,8.7-4.2,1,.3,1.9.8,2.8,1.1,1,.3,2,.4,2.9-.1Z"/><path class="cls-9" d="M97.1,97.6c-2.6,7.5-12.7,3.2-11.3-4.4l.2-.2c3.8,2.5,6.7,4.2,11.1,4.7Z"/><path class="cls-3" d="M88.9,76.2c.8.2,1.3,1.4.9,2.8-.3,1.4-1.3,2.3-2.1,2.2-.9-.2-1.3-1.4-.9-2.8.3-1.4,1.3-2.3,2.1-2.1Z"/><path class="cls-4" d="M86.2,142.9c.2,1.1-.2,2.4-.7,3.2-.6.8-1.3,1.3-2,1.8.7.6,1,1.9.9,3.1,0,.5-.1.9-.3,1.3-1.1,2.8-4.1.7-5-.6,0,0-1.9,3.3-3.8,3.7-1.2.3-2.6-.4-3.2-2s-.3-3.9.8-4.8c-1.6-.6-2.5-3.9-1.7-6,.9-2.2,3.2-2.6,4.3-.7-.2-2.5,1.2-4.9,2.9-4.9,0,0,0,0,.1,0,1.6,0,3,2.4,2.9,4.8.9-.5,1.8-1,2.7-.9.9,0,1.9.9,2.1,2.2Z"/><path class="cls-8" d="M56.8,168.4h0c2.1-1.9,12.8.5,13.9,2.9,1.2,2.6-3.4,11.9-5.5,12.8-2.5,1.1-9.4-4.7-10.8-6.9-1.6-1.2-3.2-2.4-4.6-3.5-8.5-6.6-13.6-11.5-19.3-21.5-1.9-3.3-.5-10.3,2.5-17.4h0c0,.2,0,.3,0,.3.4,1.2,7.7,4.8,12.4,8.7-1.3,1.9-1.3,2-2.8,4.2,3.9,5.3,6.3,9.3,8.8,13.1,1.6,2.4,3.2,4.8,5.3,7.3Z"/><path class="cls-8" d="M63,306.4c.4,1.7.3,3.1,0,4.3h-.5c-1.7-.2-3.3-.4-5-.7v-.6c1-1.8,1.6-3.8,1.9-5.9.2,0,.3.2.5.3,1.2.7,2.8,1.1,3.1,2.5Z"/><path class="cls-6" d="M62.4,310.6h.5c-1.1,3.7-5.4,4.5-9.8,3.5-9.2-2.1-14-5-27.8-14.6-.9-.6-2-1.3-2.2-2.3-.2-.8.1-1.6.4-2.3.3-.7.6-1.2.9-1.8h.3c4.6,4.8,10,8.8,16,11.7,5.2,2.6,10.9,4.4,16.7,5.3,1.6.3,3.3.4,5,.5Z"/><path class="cls-6" d="M59.4,303.6c-.3,2-.9,4-1.8,5.9v.6c-5.9-.9-11.5-2.7-16.8-5.3l1.3-.3c1.4-3.9,4.5-7.1,8.3-8.8,2,3.3,4,5,9,7.9Z"/><path class="cls-8" d="M48.2,291.7c.8,1.6,1.5,2.9,2.1,4-3.8,1.7-6.9,4.9-8.3,8.8l-1.3.3c-5.9-2.9-11.4-6.9-16-11.7h-.3c.3-.6.7-1.1,1.2-1.8h0c4.4.6,8.7,1.2,13.1,1.2,3.6,0,7.1-.3,9.4-.8Z"/><path class="cls-1" d="M59,123c-1.3,3.9-3.3,8.5-5.3,12.5-2.4,4.7-4.8,8.7-6.1,10.2-.6-.6-1.3-1.3-2-1.9-4.7-3.9-12-7.5-12.4-8.7,0,0,0-.1,0-.3.9-3,13.2-25.4,19.9-27.7"/><path class="cls-1" d="M50,173.7c-.9,5.4-.7,6.1-2.4,11.3.3,0,.6.2.8.3,16.5,4.9,28.7,7.5,45.9,5.8,0,0,.1,0,.2,0,.5-14.5,2.3-28,2.7-41.8,0-.8,0-1.6,0-2.4.2-7.9-.1-15.8-1.4-24"/><path class="cls-1" d="M53.8,135.5c0,6.8-1.1,14.5-2.3,25.5"/><path class="cls-1" d="M33.2,134.8c-3,7.1-4.5,14.1-2.5,17.4,5.8,10,10.8,14.9,19.3,21.5,1.4,1.1,2.9,2.3,4.6,3.5"/><path class="cls-1" d="M45.7,143.6c0,0,0,.1-.1.2-1.3,1.9-1.3,2-2.8,4.2,3.9,5.3,6.3,9.3,8.8,13.1,1.6,2.4,3.2,4.8,5.3,7.3s.3.3.4.5"/><path class="cls-1" d="M87.3,106.9c.2,0,.5.1.7.2,14.6,4.8,16.7,25.8,20.7,33.3-.7.5-1.4.9-2,1.3-3.3,2.3-5.2,4.2-8.9,5.2"/><path class="cls-1" d="M56.9,168.4c2.1-1.9,12.8.5,13.9,2.9,1.2,2.6-3.4,11.9-5.5,12.8-2.5,1.1-9.4-4.7-10.8-6.9"/><path class="cls-1" d="M97.7,149.2c-.1,6.6,18.1,18.7,21,27.3"/><path class="cls-1" d="M107.3,141.9c4,6,11.7,19.1,18.5,24.2"/><path class="cls-1" d="M125.8,166.1c-1.2.3-7.2,7-6.9,10.4,0,.1,0,.2,0,.4.4,1.8,1.6,3.4,3,4.4,3,2.2,4.7,1.3,7.6-1.1s6.6-6,5.1-9.6-5.5-5.7-8.9-4.5"/><path class="cls-1" d="M53.2,107.1c5.2-.8,9.9-1.7,13.5-2.3"/><path class="cls-1" d="M48.3,185.5c-2.8,13.3-.7,34.9-2.8,46.7-2.5,13.6-10.2,29.9-21.4,58.9.5,0,1,.2,1.5.2,4.4.6,8.7,1.2,13.1,1.2,3.6,0,7.1-.3,9.4-.8.9-.2,1.6-.4,2.1-.7,1.7-.9,14.1-43.2,14.8-45.1,2.2-5.4,3.9-12.7,9.8-31.4,1.1-3.6,2.4-7.6,3.8-12.2"/><path class="cls-2" d="M75,214.6c5.5,5.7,12.4,14.9,16.2,21.9,2,3.6,1.5,20.6,1.4,27-.2,16.8,1.3,25.6,1.4,36.1.7.2,1.4.3,2.1.4,6.9.9,15.9-2.2,20.7-7.2.5-.6,1-1.1,1.4-1.7-.4-9.9-3.1-53.3-3.9-55.8-3.7-11.6-15.5-36.4-20-44.2,0,0,0,0,0,0"/><path class="cls-1" d="M86.4,106.2c0,1-1.1,3.9-2,4.3-.9.4-2.9.8-3.9.8-5-.3-10.1-3.2-13.6-6.8h0"/><path class="cls-1" d="M25.7,291.3c-.5.6-.8,1.2-1.2,1.7s-.6,1.1-.9,1.8c-.3.7-.6,1.6-.4,2.3.2,1.1,1.3,1.7,2.2,2.3,13.8,9.6,18.7,12.5,27.8,14.6,4.4,1,8.7.1,9.8-3.4.4-1.1.4-2.6,0-4.3-.3-1.4-1.9-1.8-3.1-2.5-.2-.1-.4-.2-.5-.3-5-2.9-7-4.6-9-7.9-.7-1.1-1.3-2.4-2.1-4"/><path class="cls-1" d="M96.1,299.9c-.1.9-.2,1.9-.2,2.8,0,.7,0,1.4,0,2.1,0,.7,0,1.5.5,2.1.6.8,1.8,1,2.9,1.1,8.9,1,18.6,4.6,27.7,4.1,2.9-.1,6.1-.5,8.4-2.2.8-.6,1.4-1.3,1.9-2.2.9-1.7,1-3.7-.2-5.2-.9-1-2.2-1.5-3.5-2-.7-.3-1.4-.5-2.1-.8-4-1.7-8.1-3.9-12.2-6-.8-.4-1.6-.8-2.4-1.2"/><path class="cls-1" d="M91.9,107.5c-.7.1-2-.1-3.8-.7-.5-.2-1.1-.4-1.7-.6-4.5-1.7-10.8-5.2-16.1-10.8"/><path class="cls-1" d="M112,74c-1.3,4.2-3.3,7.5-4,9.8-.6,1.9-.6,9.9-8,17.9,0,0-4.3,5.1-8.2,5.7"/><path class="cls-1" d="M107.9,76.5c-1.1-1.7-3.3-2.4-4.7-1.4"/><path class="cls-1" d="M84.9,70.9c3.6-1,7.1-.4,8.3,1.4"/><path class="cls-1" d="M100.5,90.7c-.2,4-8.7,1.6-9.9.2"/><path class="cls-1" d="M102.7,82c-.3,1.4,0,2.7.9,2.8s1.7-.8,2.1-2.2c.3-1.4,0-2.7-.9-2.8s-1.7.8-2.1,2.2Z"/><path class="cls-1" d="M86.8,78.3c-.3,1.4,0,2.6.9,2.8.8.2,1.8-.8,2.1-2.2.3-1.4-.1-2.6-.9-2.8-.8-.2-1.8.8-2.1,2.1Z"/><path class="cls-1" d="M97.1,97.6c-4.4-.4-7.3-2.1-11.1-4.7-.3-.2-.6-.4-.9-.6"/><path class="cls-1" d="M97.1,97.6c-2.6,7.5-12.7,3.2-11.3-4.4"/><path class="cls-1" d="M66.1,84.9c.3,1.4.5,3.5.7,5.8.5,5.2.7,11.5-.1,13.4"/><path class="cls-1" d="M68,83.9c-.4.8-1.1,1.1-1.9,1-.5,0-1-.1-1.4-.4-2.5-1.3-3.8-4.8-3.4-7.8.2-1.7.9-3.5,2.3-4.4,1.4-.9,3.5-.5,4.1,1.1.5,1.2,1.7,2.3,3,2,1.3-.3,2.8-1.8,3.3-3,.4-1.1-1.1-2.1.2-3.3.8-.7,2-.8,3.1-.8s2.3-.1,3-.9c1.1-1.1.8-3.2,2.1-4.1,1.3-.9,3.1.2,4.2,1.3,1.1,1.1,2.6,2.4,4.1,1.9,1.5-.5,2.2-2.6,3.7-2.7,2.4-.2,2.6,4.1,5,4.9,1.8.6,3.5-1.2,5.4-1.3,2.1,0,3.5,2.2,4.7,3.9.6.8,1.5,2,2.7,2.6,1.4.7,3.1.7,5.2-1.5"/><path class="cls-1" d="M78.5,136.8s0,0-.1,0c-1.6,0-3.1,2.5-2.9,4.9-1.1-1.9-3.5-1.5-4.3.7-.9,2.2,0,5.4,1.7,6-1.1.9-1.4,3.3-.8,4.8s2,2.3,3.2,2c1.9-.5,3.8-3.7,3.8-3.7.9,1.3,3.8,3.4,5,.6.2-.4.3-.8.3-1.3,0-1.2-.2-2.5-.9-3.1.7-.5,1.5-.9,2-1.8.6-.8.9-2,.7-3.2-.2-1.3-1.2-2.1-2.1-2.2-.9,0-1.8.4-2.7.9.1-2.4-1.3-4.7-2.9-4.8Z"/><path class="cls-1" d="M79.9,136.7c2.2-3.4,5.6-5,8.7-4.1,1,.3,1.9.8,2.8,1.1,1,.3,2,.4,2.9-.1-1.5,2.4-1.6,6-2.3,9.1-.6,2.8-1.8,5.4-3.4,6.9-1.7,1.5-2.3,1.5-3.9,1.3"/><path class="cls-2" d="M24.8,293.1c4.6,4.8,10,8.8,16,11.7,5.2,2.6,10.9,4.4,16.7,5.3,1.6.3,3.3.4,5,.5"/><path class="cls-2" d="M95.7,302.7s0,0,.1,0c5,1.3,10.7,2.7,16.3,3.8,5.9,1.2,11.7,2,16.8,2,3,0,5.7-.2,7.9-.9"/><path class="cls-2" d="M50.4,295.7s0,0,0,0c-3.8,1.7-6.9,4.9-8.3,8.8"/><path class="cls-2" d="M59.4,303.2c0,.1,0,.3,0,.4-.3,2-.9,4-1.8,5.9"/><path class="cls-2" d="M119.2,293.9h0c-2.3.9-3.9,2.9-5,5.1-1,2.2-1.5,4.6-1.9,7"/><path class="cls-2" d="M131.3,300c.1,0-2.6,5.2-2.3,8.2"/><path class="cls-1" d="M67.1,90.6c0,0-.2,0-.2,0-3.7,1-5.4-6.2-8.5-6.5-2.7-.3-3.2-4.8-2.6-7.5.3-1.5,1.1-3.4,0-4.4-.9-.8-1.3-2.2-2.3-2.7-1.9-.9-1.8-3.7-.8-5.5,1-1.8,1.6-1.7,1.7-3.8.2-3.3-3.3-6.5-1.8-9.5.9-1.8,3.4-2.3,4.7-3.9,1.1-1.2,1.3-3,1.4-4.6s1.4-2.3,2.4-3.6,3-2.1,4.2-1c6.7-.4,6.2-6.2,10.5-4,2.5,1.3,4.4,1.5,8,.3,1.8-.6,3.6-1.6,5.5-1.3,2.7.5,4.5,3.4,7.3,3.7,2.9.4,5.8-1.4,8.1.4,2.2,1.8,1.1,5,3.2,6.8,1.6,1.3,5.9,1.8,7.4,3.2,1.9,1.8.6,4.1,1.4,6.5.6,1.7,2.3,2.7,3,4.3.8,1.7.6,3.6-.4,5.2-2.5,3.9-1.4,5.5-2.1,8.8"/></svg>