<?xml version="1.0" encoding="UTF-8"?><svg id="oceania" xmlns="http://www.w3.org/2000/svg" width="235" height="321.9" viewBox="0 0 235 321.9"><defs><style>.cls-1{stroke-linecap:round;stroke-linejoin:round;}.cls-1,.cls-2{fill:none;stroke:#000;}.cls-2{stroke-miterlimit:10;}.cls-3,.cls-4,.cls-5,.cls-6,.cls-7,.cls-8,.cls-9,.cls-10,.cls-11{stroke-width:0px;}.cls-4{fill:#1d273d;}.cls-5{fill:#423b38;}.cls-6{fill:#cb9686;}.cls-7{fill:#9bc8e4;}.cls-8{fill:#fff;}.cls-9{fill:#ea1e79;}.cls-10{fill:#e9f3f6;}.cls-11{fill:#003580;}</style></defs><path class="cls-6" d="M13.3,143.8c3.9-8,7.9-12.8,13.1-22,.6-1.1,1.4-2,2.4-2.7,5.7-4.3,13.4-13.9,16.9-16.7,0-10.7,2-20.7,2.8-23.7-.4.1-.7.2-.8.3-4.7,2.3-16.1,14.3-16.6,14.9-4.1,4.7-10.6,13.2-14,18.2-8.6,12.4-10.5,20-13.7,34.7-1.5,2.3-4.1,11.6-1.8,13.2,1.9,1.3,13.6.3,15.6-2.2,1.9-2.3-.9-13-3.7-13.8h-.1Z"/><path class="cls-10" d="M59.2,94.9c-1-3.6-1.5-7.3-1.3-11-.4,1.7-.7,3.4-1,5-1.4,8.5-2.1,17.2-2.2,25.9-4.1-2.3-5.4-7.5-5.8-12.2-1.1-11.8,0-19.2,1.6-24.5h0c-.2,0-1.2.3-2,.6h0c-.8,3-2.9,13-2.8,23.7,0,5.1.5,10.4,1.9,15.2.4,4.8,1.2,11.3.9,15.3,0,1.5-1.3,13.8-2.1,21.4h.1c5.9-2.1,17.9-.2,24.1,1.2,1.4,0,2.9.1,4.4.2,3.3.2,6.6.4,9.7,0,3.2-.4,5.8-2,8.8-2.1-.2-.7-.3-1.3-.4-1.8-.7-2.7-1.4-4.6-1.8-6.9-4.2,1.2-8.9,2.2-14.7,3.2-2.5,1.8-12.8,5.2-14.7,2.7-1.6-2.1-1.2-15.1,1.5-17.5,2.5-2.2,14.7.3,15.7,3.5h0c4.5-2.2,7.8-3.5,11.3-4.9,0-5.8.8-8.5,1.6-12.9.8-4.6,1.3-4.1,1.9-8.6h.2c-2.2-7.8-2.1-11.9-1.8-18.4h0c0-3.3,1.3-7.3,2.8-9.7l.3-.4c-2.1-1.6-4.5-3-6.7-3.5-.7,0-1.8-.2-3-.5.1,1.5-1.3,8.3-1.9,11.1-.7,2.8-1.8,5-3.4,7.4-.2.3-.4.6-.6.9-3.4,4.6-7.9,8.5-12.9,11.4-3.7-3.8-6.4-8.6-7.8-13.7Z"/><path class="cls-11" d="M97.6,160.2c-8.2-2.4-16.1-4.1-22.6-4.5-1.5,0-2.9-.2-4.4-.2-6.2-1.4-18.2-3.3-24.1-1.2h-.1c-.3,3.1-.6,5.5-.7,6,.4,9.9,3.7,20,9.3,25.3,6.5,6.1,13.9,7.6,22.5,9.4.9.2,1.8.4,2.7.6,11.6,1.6,21.1,1.9,28.1,2,5.4,0,9.4,0,11.8.3,7.7,1,1.7-1.4,8.4,2,15.3,7.8,29.5,12.2,44.8,20,.8-3,2.7-6.7,4.7-10.6,2.4-4.6,5-9.3,6.4-13.1.2-.5.3-1,.5-1.5-7.7-3.3-8.5-4-19.2-8.3-8.1-3.2-12.3-4.8-20.6-8.2-4.1-1.7-26.6-11.8-47.5-17.9Z"/><path class="cls-5" d="M57.9,83.9c.7-2.9,1.9-5.6,4.2-7.5h0c.7-1.7,1.8-5.8,2.4-9.2h-.4c-1-.2-3.7-2.3-6.2-5.2h0c-.8,5.3-4.8,8.2-7.3,16.1-1.7,5.2-2.7,12.7-1.6,24.5.4,4.7,1.7,9.9,5.8,12.2,0-8.7.7-17.3,2.2-25.9.3-1.7.6-3.4,1-5Z"/><path class="cls-5" d="M52.6,36.5c-1.4,6.1-.5,11,.7,17.2.6,2.9,2.5,5.9,4.7,8.3,2.5,2.9,5.2,4.9,6.2,5.2h.4c.2-1.2.4-2.2.5-3.1-3.8-5.1-5.6-10.9-5.5-16.4-.6-.3-1.1-.9-1.5-1.5-.8-1.4-1-3-1.1-4.7,0-1.4,0-2.9.9-4,.6-.7,1.6-1.1,2.5-1s1.7.7,2.2,1.6c8-13.5,22-16.3,29-12.1,5.4,3.2,9,3.9,9.9,11.3h.2c.6-.2,1.2-.3,1.8-.3,0-1.3,0-2.5,0-4-.2-5-1.6-10-7.7-14.4-8-6.7-22.7-7.6-31.3-2.2-7.1,4.4-9.6,11.4-11.6,19.9Z"/><path class="cls-6" d="M65.1,64.1c1,1.4,2.2,2.7,3.4,3.9,3.8,4.2,7.5,7.3,10.7,7.1.5,0,1-.2,1.6-.3,0-.1,0-.4,0,0,0,0,.1,0,.2,0,4.4-1.6,9.9-7.1,12.9-11.2.7-1,1.3-1.9,1.7-2.7,1.8-3.5,2.6-8.1,2.8-10.6.1-1.2.2-2,.2-2,1.3-3.9,2.6-6.3,2.8-10,0-.2,0-.4,0-.7-.9-7.4-4.6-8.1-9.9-11.3-7-4.2-21-1.5-29,12.1-.4-.9-1.3-1.5-2.2-1.6s-1.9.3-2.5,1c-.8,1.1-.9,2.6-.9,4,0,1.6.3,3.3,1.1,4.7.4.6.9,1.1,1.5,1.5,0,5.6,1.8,11.4,5.5,16.4ZM74.6,35.7c-.1-.2,3.6-1.5,4.9-1.5,1,0,2.9.3,3.8,1.4,1.3,1.4,1.4,2.8.4,2.4-.9-.4-1.8-2.3-4.8-2.6-1.7-.2-4.3.5-4.4.4ZM88.1,64.1c-4.3,7.9-14.2-.9-11.8-5.5,5.8,3.4,8.9,5.5,11.8,5.5ZM78.2,47.7c-.8-.2-1.2-1.6-.9-3.2.3-1.5,1.3-2.6,2.1-2.4.8.2,1.2,1.6.9,3.2-.4,1.6-1.3,2.6-2.1,2.4ZM93,41.6c-.8-.2.1-1.2,1.7-1.6,1.1-.3,2.3.5,2.9,1,.7.7,2,2.8,1.8,2.9-.1,0-1.2-1.1-2.2-1.8-1.8-1.3-3.5-.3-4.1-.5ZM93.8,52.3c-.8-.2-1.2-1.7-.8-3.3.4-1.6,1.3-2.7,2.1-2.5s1.2,1.7.8,3.3-1.3,2.7-2.1,2.5Z"/><path class="cls-6" d="M62.2,76.4h0c-2.3,1.9-3.4,4.6-4.2,7.5-.2,3.7.3,7.4,1.3,11,6.3,3,13.6,3.8,20.4,2.2l.3.2c.2-.3.4-.6.6-.9,1.6-2.3,2.7-4.6,3.4-7.4.7-2.8,2.1-9.6,1.9-11.1-1.7-.4-3.6-.8-4.7-.8,0-1.3-.2-2-.3-2.3h0s0,0,0,0c-.6.2-1.1.3-1.6.3-3.2.3-6.8-2.9-10.7-7.1-1.3-1.2-2.4-2.5-3.4-3.9,0,.9-.3,1.9-.5,3.1-.7,3.4-1.7,7.5-2.4,9.2Z"/><path class="cls-6" d="M91.3,144.9c7.8-2.3,14-5.6,22.6-12.2,2.8-3.8-2.5-16-5.9-23-2.7-5.5-6.6-21.5-9-24.5-.9-1.2-2.1-2.3-3.5-3.4l-.3.4c-1.5,2.4-2.7,6.4-2.8,9.7h0c-.3,6.4-.4,10.6,1.8,18.3,1.2,4.2,3.1,9.5,6,16.8-3.9,2.2-6.9,3.5-9.7,4.6-3.5,1.4-6.8,2.7-11.3,5h0c-1.1-3.3-13.2-5.9-15.7-3.6-2.7,2.4-3.1,15.4-1.5,17.5,1.9,2.5,12.2-.8,14.7-2.7,5.8-1,10.5-2,14.7-3.2Z"/><path class="cls-7" d="M59.2,94.9c1.5,5.1,4.1,9.9,7.8,13.7,5-2.8,9.4-6.7,12.9-11.4l-.3-.2c-6.8,1.6-14.1.9-20.4-2.2Z"/><path class="cls-5" d="M79.5,34.2c-1.4,0-5,1.3-4.9,1.5,0,.1,2.7-.6,4.4-.4,3,.4,3.9,2.3,4.8,2.6,1,.4.9-.9-.4-2.4-.9-1.1-2.8-1.3-3.8-1.4Z"/><path class="cls-8" d="M76.4,58.7c-2.5,4.5,7.5,13.4,11.8,5.5-2.8,0-5.9-2.1-11.8-5.5Z"/><path class="cls-3" d="M77.4,44.5c-.4,1.6,0,3,.9,3.2.8.2,1.8-.9,2.1-2.4.3-1.5,0-3-.9-3.2-.8-.2-1.8.9-2.1,2.4Z"/><path class="cls-11" d="M84.7,155.7c-3.1.4-6.4.2-9.7,0,6.5.4,14.4,2.2,22.6,4.5-1.4-3.6-2.6-5.2-4.2-8.6h-.3c.1.6.3,1.2.4,1.9-3.1.1-5.7,1.7-8.8,2.1Z"/><path class="cls-11" d="M105.5,269.7c3-.6,5.8-1.3,8.2-2.2.2.7,2.1-9.2,1-33.3-.4-9.5-4.5-26.9-6.4-36.4v-.3c-7,0-16.5-.3-28.1-2-.9-.2-1.8-.4-2.7-.6,1.7,3.9,9.6,19.3,12,26.7s.3-1.4,0,8c-.5,20-3.5,28.7-4.3,42.4,1.6,0,3.3-.2,5.2-.3,4.6-.4,10-1,15-2Z"/><path class="cls-4" d="M88.4,303.7c-.1.9-.2,1.8.2,2.5.6,1.1,2,1.5,3.2,1.8,10.3,2.7,14,4,24.7,5.1,3.5.4,7.2.5,10.2-1.1,1.3-.7,2-1.5,2.3-2.4l-.9-.2c-4.5.1-9,0-13.5-.5-2.3-.2-4.6-.6-6.9-1-6.6-1.1-13-2.9-19.2-5.3,0,.3-.1.7-.2,1.1Z"/><path class="cls-6" d="M91.7,293.2h-.3c-1.4,3.2-2.3,6.1-2.9,9.4,6.2,2.4,12.7,4.1,19.2,5.3v-.7c.2,0,.6-.4.7-.5,2.2-2,3.7-4.9,4-7.9.1-1.1,0-2.5-1-2.9v-.2c-2.5-1.4-5.3-2.9-8.6-4.7h0c1.2-8.7,2-14.8,2.5-21.4-5,1-10.4,1.6-15,2v.7c1.4,6.9,1.6,12.9,1.2,20.8Z"/><path class="cls-5" d="M94.6,40c-1.6.4-2.5,1.4-1.7,1.6.7.2,2.4-.8,4.1.5,1,.7,2.1,1.8,2.2,1.8.2,0-1.1-2.2-1.8-2.9-.5-.5-1.7-1.2-2.9-1Z"/><path class="cls-3" d="M93,49c-.4,1.6,0,3.1.8,3.3s1.7-.9,2.1-2.5,0-3.1-.8-3.3-1.7.9-2.1,2.5Z"/><path class="cls-5" d="M94,63.4h.2c2.6-3,3.9-3.4,6.9-12.9h0c-.1-.1-.2-.2-.3-.3-.2.5-.8.9-1.4.8-.6,0-.8-.4-.9-1h0c-.3,2.6-1,7.1-2.8,10.6-.4.8-1,1.7-1.7,2.7Z"/><path class="cls-9" d="M103.4,37.1c-.6,0-1.2.1-1.8.3h-.2c0,.2,0,.5,0,.7-.2,3.7-1.6,6.1-2.8,10,0,0,0,.8-.2,2h0c0,.6.3.9.9,1,.6,0,1.2-.3,1.4-.8,0,0,.2.1.3.2,1.4.7,4.2,0,4-1.5-.4-3.1.6-2.8,1.5-4.9.8-1.8-2.3-2.5-1.2-4.2.4-.6,0-1.5-.5-2.1-.4-.5-1-.6-1.6-.6Z"/><path class="cls-4" d="M107.9,307.2v.7c2.2.4,4.5.7,6.8,1v-.7c1.2-.6,2.4-1.3,3.4-2.2,1-.9,1.8-2.1,1.9-3.4.1-1.1-.3-2.4-1.2-3-2.5-1.3-4.8-2.6-7.1-3.8v.2c.9.5,1.1,1.8.9,2.9-.4,3-1.8,5.8-4,7.9,0,0-.5.4-.6.5Z"/><path class="cls-6" d="M114.8,308.2v.7c4.4.5,8.9.6,13.4.5l.9.2c.4-1.3,0-2.8-1.1-4.4-.9-1.3-2.3-1.9-3.7-2.7-2-1.1-3.8-2.1-5.5-3,.9.7,1.4,1.9,1.2,3-.1,1.3-.9,2.5-1.9,3.4-1,.9-2.2,1.5-3.3,2.2Z"/><path class="cls-6" d="M195.9,214.6c.9,2.6,1.9,5,3.3,7.4,5.9-2,11.7-4.4,17.3-7.2,0-.3.6-2.3.7-2.4.4-3-.3-6.1-1.9-8.6-.6-.9-1.5-1.8-2.5-1.6v-.2c-4,.8-8.1,1.6-12.4,2.5l-.2-.3c-7.6-4-10-5.3-15.9-8-1.3,3.8-4,8.5-6.4,13.1l.6.3c6.8,1.1,9.1,1.9,17.3,5.1h0Z"/><path class="cls-4" d="M222.3,211.6c-1.9,1.1-3.9,2.2-5.8,3.2-5.6,2.8-11.5,5.2-17.3,7.2.2.3.4.6.5.9.4.7,1,1.5,1.8,1.8,1.1.4,2.4-.1,3.6-.7,9.6-4.5,13.4-5.9,22.2-11.8,2.9-1.9,5.8-4.2,7.2-7.4.3-.8.5-1.5.5-2.1h-.2c-3.8,3.4-8,6.3-12.5,8.9Z"/><path class="cls-4" d="M212.7,202v.2c1-.1,1.9.8,2.5,1.6,1.6,2.5,2.3,5.6,1.9,8.6,0,.1-.6,2.1-.7,2.4,2-1,3.9-2.1,5.8-3.2.5-1.2,1.5-4.6,1.7-5.9.2-1.3,0-2.7-.7-3.8-.6-.9-1.8-1.6-2.9-1.5-2.6.5-5.2,1.1-7.7,1.6Z"/><path class="cls-6" d="M220.4,200.4c1.1,0,2.2.6,2.9,1.5.7,1.1.9,2.5.7,3.8-.2,1.3-1.2,4.6-1.7,5.9,4.4-2.6,8.7-5.6,12.5-8.9h.2c0-1.9-1.5-3.2-3.9-3.9-1.5-.5-3,0-4.6.3-2.1.4-4.1.8-6.1,1.2Z"/><path class="cls-2" d="M62.1,76.6c0,0,0-.2,0-.2.7-1.8,1.8-5.9,2.4-9.2.2-1.2.4-2.2.5-3.1,0,0,0,0,0,0"/><path class="cls-2" d="M80.9,74.8c0,.3.2,1,.3,2.3"/><path class="cls-2" d="M80.9,74.8s0,0,0,0c0-.1,0-.4,0,0s0,0,0,0"/><line class="cls-2" x1="80.9" y1="74.8" x2="80.9" y2="74.8"/><path class="cls-2" d="M81.1,74.4c0,0,0,.1,0,.2,0,0-.1.1-.1.1"/><polyline class="cls-2" points="48.6 78.6 48.6 78.6 48.6 79.6"/><path class="cls-2" d="M70.6,155.5c-6.2-1.4-18.2-3.3-24.1-1.2"/><path class="cls-2" d="M91.3,144.5c0,.1,0,.3,0,.4.4,2.3,1.1,4.1,1.8,6.9.1.6.3,1.2.4,1.8-3.1.1-5.7,1.7-8.8,2.1-3.1.4-6.4.2-9.7,0-1.5,0-2.9-.2-4.4-.2"/><path class="cls-2" d="M94,110.4c-.6,4.5-1.1,4-1.9,8.6-.8,4.3-1.7,7.1-1.6,12.9"/><path class="cls-2" d="M47.6,117.5c.4,4.8,1.2,11.3.9,15.3,0,1.5-1.3,13.8-2.1,21.4-.3,3.2-.6,5.5-.7,6"/><path class="cls-2" d="M92.4,92c0-3.3,1.3-7.3,2.8-9.7"/><path class="cls-1" d="M92.5,93.4c0-.4,0-.9,0-1.4"/><path class="cls-2" d="M47.6,117.5c-1.4-4.8-1.9-10-1.9-15.2,0-10.7,2-20.7,2.8-23.7,0,0,0,0,0,0"/><path class="cls-2" d="M80.3,195.6c11.6,1.6,21.1,1.9,28.1,2,5.4,0,9.4,0,11.8.3,7.7,1,1.7-1.4,8.4,2,15.3,7.8,29.5,12.2,44.8,20,.8-3,2.7-6.7,4.7-10.6,2.4-4.6,5-9.3,6.4-13.1.2-.5.3-1,.5-1.5-7.7-3.3-8.5-4-19.2-8.3-8.1-3.2-12.3-4.8-20.6-8.2-4.1-1.7-26.6-11.8-47.5-17.9-8.2-2.4-16.1-4.1-22.6-4.5-.2,0-.4,0-.6,0"/><path class="cls-2" d="M108.4,197.8c1.9,9.5,6,26.9,6.4,36.4,1,24.1-.9,33.9-1,33.3"/><path class="cls-2" d="M93.4,151.7c1.6,3.3,2.8,5,4.2,8.6.1.3.2.6.3.9"/><path class="cls-2" d="M77.5,195c1.7,3.9,9.6,19.3,12,26.7s.3-1.4,0,8c-.5,20-3.5,28.7-4.3,42.4,1.6,0,3.3-.2,5.2-.3,4.6-.4,10-1,15-2,3-.6,5.8-1.3,8.2-2.2"/><path class="cls-1" d="M50.6,78c-.2,0-1.2.4-2,.6h0c-.4.1-.7.2-.8.3-4.7,2.3-16.1,14.3-16.6,14.9-4.1,4.7-10.6,13.2-14,18.2-8.6,12.4-10.5,20-13.7,34.7"/><path class="cls-1" d="M45.7,102.4h0c-3.5,2.8-11.2,12.4-16.9,16.7-1,.7-1.8,1.7-2.4,2.7-5.2,9.2-9.2,14-13.1,22-.1.2-.2.4-.3.6"/><path class="cls-1" d="M13.4,143.9c2.9.8,5.6,11.5,3.7,13.8-2,2.5-13.7,3.6-15.6,2.2-2.3-1.6.3-10.9,1.8-13.2"/><path class="cls-1" d="M113.9,132.7c-8.6,6.6-14.8,9.9-22.6,12.2-4.2,1.2-8.9,2.2-14.7,3.2-.1,0-.2,0-.3,0"/><path class="cls-1" d="M103.6,125.2c-1.2.7-2.3,1.4-3.4,2-3.9,2.2-6.9,3.5-9.7,4.6-3.5,1.4-6.8,2.7-11.3,5-.2.1-.5.2-.7.4"/><path class="cls-1" d="M79.2,136.7c-1.1-3.2-13.2-5.7-15.7-3.5-2.7,2.4-3.1,15.4-1.5,17.5,1.9,2.5,12.2-.8,14.7-2.7"/><path class="cls-1" d="M88.9,78.4c2.2.5,4.6,1.9,6.7,3.5,1.4,1.1,2.6,2.2,3.5,3.4,2.3,2.9,6.3,18.9,9,24.5,3.4,7,8.7,19.2,5.9,23"/><path class="cls-1" d="M92.4,92c-.3,6.4-.4,10.6,1.8,18.3,1.2,4.2,3.1,9.5,6,16.8"/><path class="cls-2" d="M45.7,160.3c.4,9.9,3.7,20,9.3,25.3,6.5,6.1,13.9,7.6,22.5,9.4.9.2,1.8.4,2.7.6"/><path class="cls-2" d="M81.2,77.1c1.1,0,3,.5,4.7.8,1.2.3,2.3.5,3,.5"/><path class="cls-1" d="M91.7,293.4c0,0,0,0,0-.2,0-.7,0-1.4,0-2"/><path class="cls-1" d="M90.6,272.4c1.3,6.9,1.6,12.9,1.2,20.8"/><path class="cls-1" d="M105.5,269.4c0,.1,0,.2,0,.3-.6,6.6-1.4,12.7-2.5,21.3"/><path class="cls-1" d="M91.5,293.2c-1.4,3.2-2.3,6.1-2.9,9.4,0,.3-.1.7-.2,1.1-.1.9-.2,1.8.2,2.5.6,1.1,2,1.5,3.2,1.8,10.3,2.7,14,4,24.7,5.1,3.5.4,7.2.5,10.2-1.1,1.3-.7,2-1.5,2.3-2.4.4-1.3,0-2.8-1.1-4.4-.9-1.3-2.3-1.9-3.7-2.7-2-1.1-3.8-2.1-5.5-3-2.5-1.3-4.8-2.6-7.1-3.8-2.6-1.4-5.4-2.9-8.7-4.7"/><path class="cls-1" d="M88.4,302.6h.2c6.2,2.4,12.7,4.2,19.2,5.3,2.3.4,4.6.7,6.9,1,4.5.5,9,.6,13.5.5"/><path class="cls-1" d="M111.5,296c1,.5,1.2,1.8,1,2.9-.4,3-1.8,5.8-4,7.9,0,0-.5.4-.6.5"/><path class="cls-1" d="M118.3,299.3c.2,0,.3.2.5.3.9.7,1.4,1.9,1.2,3-.1,1.3-.9,2.5-1.9,3.4-1,.9-2.2,1.5-3.3,2.2"/><path class="cls-1" d="M178.6,209.5c6.8,1.1,9.1,1.9,17.3,5.1"/><path class="cls-1" d="M184,196c.1,0,.2.1.3.2,5.9,2.7,8.2,4,15.9,8"/><path class="cls-1" d="M195.4,212.9c.2.6.3,1.1.5,1.7.9,2.6,1.9,5,3.3,7.4.2.3.4.6.5.9.4.7,1,1.5,1.8,1.8,1.1.4,2.4-.1,3.6-.7,9.6-4.5,13.4-5.9,22.2-11.8,2.9-1.9,5.8-4.2,7.2-7.4.3-.8.5-1.5.5-2.1,0-1.9-1.5-3.2-3.9-3.9-1.5-.5-3,0-4.6.3-2.1.4-4.1.8-6.1,1.2-2.6.5-5.2,1.1-7.7,1.6-4,.8-8,1.6-12.3,2.5"/><path class="cls-1" d="M199,222c0,0,.1,0,.2,0,5.9-2,11.7-4.4,17.3-7.2,2-1,3.9-2.1,5.8-3.2,4.4-2.6,8.7-5.6,12.5-8.9"/><path class="cls-1" d="M212.6,202.2c0,0,.1,0,.2,0,1-.1,1.9.8,2.5,1.6,1.6,2.5,2.3,5.6,1.9,8.6,0,.1-.6,2.1-.7,2.4,0,0,0,0,0,0"/><path class="cls-1" d="M219.9,200.5c.2,0,.4,0,.6,0,1.1,0,2.2.6,2.9,1.5.7,1.1.9,2.5.7,3.8-.2,1.3-1.2,4.6-1.7,5.9,0,0,0,0,0,0"/><path class="cls-2" d="M57.9,82.9c0,.3,0,.6,0,.9-.2,3.7.3,7.4,1.3,11,1.5,5.1,4.1,9.9,7.8,13.7,5-2.8,9.4-6.7,12.9-11.4.2-.3.4-.6.6-.9,1.6-2.3,2.7-4.6,3.4-7.4.7-2.8,2.1-9.6,1.9-11.1,0-.1,0-.2,0-.2"/><path class="cls-2" d="M58.9,94.7c0,0,.2,0,.2.1,6.3,3,13.6,3.8,20.4,2.2"/><path class="cls-1" d="M97.5,41c.7.7,2,2.8,1.8,2.9-.1,0-1.2-1.1-2.2-1.8-1.8-1.3-3.5-.3-4.1-.5-.8-.2.1-1.2,1.7-1.6,1.1-.3,2.3.5,2.9,1Z"/><path class="cls-1" d="M79.5,34.2c-1.4,0-5,1.3-4.9,1.5,0,.1,2.7-.6,4.4-.4,3,.4,3.9,2.3,4.8,2.6,1,.4.9-.9-.4-2.4-.9-1.1-2.8-1.3-3.8-1.4Z"/><path class="cls-1" d="M101.5,38c-.2,3.7-1.6,6.1-2.8,10,0,0,0,.8-.2,2-.3,2.6-1,7.1-2.8,10.6-.4.8-1,1.7-1.7,2.7-3,4.2-8.5,9.7-12.9,11.2,0,0-.1,0-.2,0,0,0,0,0,0,0-.6.2-1.1.3-1.6.3-3.2.3-6.8-2.9-10.7-7.1"/><path class="cls-1" d="M89.4,54.4c.7.8-.3,7.5-5.8,3.4"/><path class="cls-1" d="M93,49c-.4,1.6,0,3.1.8,3.3s1.7-.9,2.1-2.5,0-3.1-.8-3.3-1.7.9-2.1,2.5Z"/><path class="cls-1" d="M77.4,44.5c-.4,1.6,0,3,.9,3.2.8.2,1.8-.9,2.1-2.4.3-1.5,0-3-.9-3.2-.8-.2-1.8.9-2.1,2.4Z"/><path class="cls-1" d="M88.1,64.1c-2.8,0-5.9-2.1-11.8-5.5"/><path class="cls-1" d="M88.1,64.1c-4.3,7.9-14.2-.9-11.8-5.5"/><path class="cls-1" d="M59.6,47.5h0c0,5.7,1.8,11.5,5.5,16.5,1,1.4,2.2,2.7,3.4,3.9"/><path class="cls-1" d="M62.5,38.1c-.4-.9-1.3-1.5-2.2-1.6s-1.9.3-2.5,1c-.8,1.1-.9,2.6-.9,4,0,1.6.3,3.3,1.1,4.7.4.6.9,1.1,1.5,1.5.7.4,1.6.6,2.4.3"/><path class="cls-1" d="M101.5,38c0-.2,0-.4,0-.7-.9-7.4-4.6-8.1-9.9-11.3-7-4.2-21-1.5-29,12.1"/><path class="cls-1" d="M95.6,18.7c-8-6.7-22.7-7.6-31.3-2.2-7.1,4.4-9.6,11.4-11.6,19.9-1.4,6.1-.5,11,.7,17.2.6,2.9,2.5,5.9,4.7,8.3,2.5,2.9,5.2,4.9,6.2,5.2"/><path class="cls-1" d="M101.1,50.4c-3.1,9.5-4.3,9.9-6.9,13.1"/><path class="cls-1" d="M95.6,18.7c6.2,4.4,7.5,9.4,7.7,14.4,0,1.4.1,2.6,0,4,0,0,0,.2,0,.3"/><path class="cls-1" d="M57.9,62c-.8,5.3-4.8,8.2-7.3,16-1.7,5.2-2.7,12.7-1.6,24.5.4,4.7,1.7,9.9,5.8,12.2,0-8.7.7-17.3,2.2-25.9.3-1.7.6-3.4,1-5,.7-2.9,1.9-5.6,4.2-7.5"/><path class="cls-1" d="M101.6,37.3c.6-.2,1.2-.3,1.8-.3.6,0,1.2.2,1.6.6.5.6.9,1.5.5,2.1-1.1,1.7,2,2.3,1.2,4.2-.9,2-1.9,1.8-1.5,4.9.2,1.5-2.6,2.2-4,1.5-.1,0-.2-.1-.3-.2-.2.5-.8.9-1.4.8-.6,0-.8-.4-.9-1"/></svg>