<?xml version="1.0" encoding="UTF-8"?><svg id="oceania" xmlns="http://www.w3.org/2000/svg" width="235" height="321.9" viewBox="0 0 235 321.9"><defs><style>.cls-1{fill:#cb9780;}.cls-1,.cls-2,.cls-3,.cls-4,.cls-5,.cls-6,.cls-7{stroke:#000;stroke-linecap:round;stroke-linejoin:round;}.cls-2{fill:#132340;}.cls-3{fill:#1e160d;}.cls-4{fill:#fff;}.cls-5{fill:#f51968;}.cls-6{fill:none;}</style></defs><path class="cls-5" d="M90.7,96.5c-2.4,3.5-4.5,6.9-6.6,10.6-1.4-1.2-2.9-2.2-4.5-3h0c.3-1.2.6-2.5.9-3.7.5-1.8,1-3.5,1.8-5,.5-.9.9-1.9,1-2.9,1.1.5,5.1,2.1,7.4,4Z"/><path class="cls-4" d="M93.3,99.4c-2.7,4.2-5.3,8.1-7.6,12.6-2.1-2.3-4.3-3.8-6.9-5.5.3-.8.5-1.6.8-2.4h0c1.6.8,3.2,1.8,4.5,3,2.1-3.7,4.2-7.1,6.6-10.6.3.2.5.4.7.7.6.7,1.3,1.4,1.9,2.3Z"/><path class="cls-5" d="M101.7,114.3h-.2c-2.7,4.9-6.5,8.3-11.6,10.5,0-3.1,0-6.1-.1-9.2-5.3,2.2-11,3.5-16.7,3.8,5.5,3.8,11.1,7.6,16.6,11.4h.2c0,2.1,0,4.3,0,6.6s0,3.9,0,6.2h0c-2.4-2.5-7.1-7-7.7-7-.6,0-8.3,4.2-10.9,6.8,0,0-.1-.1-.2-.2-.4-12.7-1.3-26.2-3-36,0,0,.1-.2.3-.6,1.6,1.6,4,2.8,5.6,4.3.1.1.2.2.3.3.2.2.4.3.7.3.5,0,.9-.3,1.2-.7,1.1-1.2,1.9-2.7,2.4-4.3,2.6,1.7,4.8,3.2,6.9,5.5,2.3-4.5,4.9-8.3,7.6-12.6,2.8,3.9,5.6,9.6,8.5,14.8Z"/><path class="cls-4" d="M104.3,118.5c-.4,1.1-.8,2.1-1.2,2.9h0c-1.9,4.3-3.7,5.7-9.8,7.7-.6.2-1.2.4-1.9.6-.3-1-1.1-1.9-1.4-2.9h0c0-.7,0-1.3,0-2,5-2.2,8.8-5.6,11.6-10.4h.2c.8,1.3,1.7,2.8,2.5,4.1Z"/><line class="cls-6" x1="83.2" y1="92.5" x2="83.2" y2="92.5"/><path class="cls-5" d="M54.2,106.2h0c-1.8,1.8-4.1,3.1-6.4,3.8-2.1-6-5-11.6-8.7-16.8l.6-.4c1.4-.2,2.7-.4,2.9-.4.2.3.3.5.5.8,2.5,4.1,5.6,7.9,9.2,11.2h0c.6.6,1.3,1.2,2,1.8Z"/><path class="cls-5" d="M71.2,143.2c-3.1-2.6-11.7-8-13-8-1.2,0-14.1,7.4-19,10.2,0-.3,0-.6,0-.9.2-2.9,0-5.7-.2-8.5h.3c9.9-4.9,15.9-10.3,25.1-16.5-9.1.3-15.5.1-24.5-1.3-.6.8-1.1,1.6-1.7,2.5-1.4,2-2.9,4-4.3,5.9l-.4-.3c-4.1-.8-7.9-2.9-10.8-5.8-1.3-1.3-2.4-2.8-3-4.6-.8-2.2-.6-4.5-.5-6.8h-.1c2.5-2.7,5.3-5.6,6.4-6.6,3.1-2.9,5.4-7.1,9.3-8.6,5.2,6.8,9.4,14.3,12.8,22.1,2.3-3.1,5-5.9,8-8.4,2.1,1.7,4.4,3.2,6.8,4.5.3.2.6.3.9.5,1.1-2.2,2.5-4.1,4.4-5.7.3.3.5.4.5.4,1.7,9.8,2.6,23.4,3,36Z"/><path class="cls-4" d="M33.9,126.5c-1.4,1.8-2.7,3.5-3.9,4.7-2-.8-3.5-1.3-5-2.1-1.6-.8-3.1-1.8-4.8-3.4-1.3-1.3-3-4-4.2-6.7-.8-2-1.4-4.1-1.3-5.6,0,0,2-2.1,4.4-4.6h.1c-.1,2.4-.2,4.8.5,6.9.6,1.7,1.8,3.2,3,4.6,2.9,2.9,6.7,5,10.8,5.8l.4.3Z"/><path class="cls-6" d="M42.9,113.8c-.8,1.1-1.8,2.6-2.9,4.2"/><path class="cls-5" d="M92,183.6c-2.8,0-13.3,3.8-14.7,3.1-1.3-.7-5-7.1-5.6-7.1s0-7.2-.1-17.6c.9.2,8.8-5.6,11.4-6.6,2.3,1.8,5.3,5,7.6,6.8h0c.2,4.3.4,8.6.7,12.5.2,3.4.5,6.4.7,8.9Z"/><path class="cls-6" d="M89.8,115.6c0-1.3,0-2.7,0-4.1"/><line class="cls-6" x1="38.3" y1="156.1" x2="38.3" y2="156.1"/><path class="cls-4" d="M64.5,119.4c-9.1,6.2-15.1,11.7-25.1,16.5h-.3c0-.9-.2-1.9-.2-2.9-.2-2-.5-10.7-.6-12.5.6-.8,1.2-1.7,1.7-2.5,9,1.4,15.4,1.7,24.5,1.3Z"/><path class="cls-1" d="M106.2,151.5c-4.2,4.5-8,7.7-9.8,13.2-.8,2.4-1.2,4.6-2.1,7-1.1,3.2-.4,2.5-2.3,2.9h-.7c-.2-3.8-.5-8.1-.7-12.4,0-1.8-.2-3.6-.2-5.4,0-1.5-.1-3-.2-4.4h.7c0-.1,4.1-2.9,5.1-4.9,1.3-2.7,2-4.5,3.2-6.4l-.4-.4c-.4,0-4.1-8.4-5.7-11.3v-.2c6-2,7.8-3.4,9.7-7.7,2,3.8,7.2,12.4,8,13.6,4.4,6.2.8,10.3-4.9,16.4Z"/><path class="cls-6" d="M99,140.7s0,0,0,0"/><path class="cls-4" d="M90,130.7h-.2c-5.5-3.8-11.1-7.6-16.6-11.4,5.7-.2,11.4-1.5,16.7-3.8,0,3.1.1,6.2.1,9.2,0,.7,0,1.3,0,2h0c0,1.3,0,2.6,0,3.9Z"/><path class="cls-6" d="M90,126.8s0,0,0,0"/><path class="cls-6" d="M91,152.4s0,0,0,0"/><path class="cls-6" d="M103.2,135.9c-1.9,2.1-3,3.6-3.9,5.1"/><path class="cls-1" d="M40.6,166.8c.9,2.2-.7,3.8-2.1,4,1.4,1.8-1.2,3.1-2.3,3.1,0,.3,0,.7-.2,1.1-1.1,2.7-7.6-1.2-9-2.6-2.2-2.2-5.5-6.8-4.1-9.9-2.8-4-8.3-10.6-11.3-14.2-4.2-4.9-10.1-11.6-7-17.3,1.5-2.7,8-8.5,11.4-11.9,1.2,2.7,2.9,5.4,4.2,6.7,1.7,1.6,3.2,2.6,4.8,3.4-1.6,1.4-5.1,5.7-6,6.5,1.3,2.7,1.7,5.7,3.6,9.2,1.9,3.6,6.7,8.3,8.1,9.7h0c2.1.6,5.2.8,7.5,1.6,1.2.4,2.1,1,2.7,1.9.5.7.6,1.7.4,2.9.7.7,1.4,1.5,1.8,2.2.9,1.5.7,3-2.5,3.7Z"/><line class="cls-6" x1="16.1" y1="119" x2="16.1" y2="119"/><path class="cls-6" d="M19.1,135.7c-.7-1.4-1.6-2.8-3-4.1"/><path class="cls-6" d="M30.7,154.5c.2.2.3.3.4.4h0"/><path class="cls-6" d="M41.3,160.8c-.9-.9-1.9-1.8-2.3-2.4"/><path class="cls-6" d="M41.3,160.8s0,0,0,0"/><path class="cls-6" d="M30.7,154.5c-.1,0-.2,0-.3,0"/><path class="cls-1" d="M72.7,91.5c-.1,2.9-.7,5.8-1.4,8.2-1,3.3-2.2,5.8-2.7,6.9-.2.4-.3.6-.3.6,0,0-.2-.2-.5-.4-.9-.7-2.7-2.3-4.8-4.2-3.3-3-7.4-7-9.4-9.7-.8-1.1-1.3-2.1-1.3-2.7.1-1.8.2-3.3.3-5.2,0-1.1,0-2.4,0-4,.3.2.6.5.8.7,8.4,7.6,14.2,7.9,19.1,5.1.2,1.6.3,3.2.2,4.8Z"/><line class="cls-6" x1="52.6" y1="81" x2="52.6" y2="81"/><path class="cls-1" d="M89.1,47.9c-1.3-15-10.7-16.9-21.3-17.4-11.4-.6-19.3,5.2-21.1,11.6-1.2,4.1-1,10.3-1.3,12-.3,1.4-2.7,2.2-3.3-1.1-.6-1.9-3-1.9-4.5-1.3-1.8.7-2.1,1.8-2.1,3.9,0,2.1.6,4.2,1.4,6,.7,1.6,2.1,4.4,3.3,5.3.6.4,1.2.6,1.8.6h.8c2.2,8.1,7,11,10,13.5.3.2.6.5.8.7,8.4,7.6,14.2,7.9,19.1,5.1.5-.3,1-.6,1.4-.9,2.6-1.9,5-4.6,7.4-7.5,2.6-3,4.6-6.4,6-11.3,1-3.7,1.6-8.2,1.7-14.1,0-.4,0-.8,0-1.2,0-3.2-.1-.9,0-3.8ZM53.5,47c.4-.5,1.1-.8,1.7-.9,2.3-.6,4.6-.7,6.9-.4.5,0,1,.1,1.3.6.3.5.2,1.2-.2,1.7-.3.5-.8.7-1.2,1,.1,0-.1,0,0-.2-3-.5-5.6,0-8.4.6-.4-.6-.5-1.8,0-2.4ZM58.6,59.2c-1.1,0-1.9-1.6-1.9-3.6s.9-3.5,1.9-3.5,1.9,1.6,1.9,3.5-.9,3.6-1.9,3.6ZM69.4,78.3c-5.8.3-10.6-5.2-9.6-4.9,4.5,1.3,12.4,2.4,16.5.3h0c-1.3,3.5-3.6,4.4-7,4.6ZM80.6,58.5c-.9,0-1.6-1.4-1.6-3.1s.7-3.1,1.6-3.1,1.6,1.4,1.6,3.1-.7,3.1-1.6,3.1ZM84.1,49.3c-1.2-.9-5.8-1-7-.5-.7-.6-.8-2-.2-2.6.6-.5,1.4-.6,2.2-.6,1.3,0,2.7.2,4,.5.6.2,1.3.4,1.5,1,.2.5-.2,1.7-.5,2.2Z"/><path class="cls-4" d="M76.4,73.8c-1.3,3.3-3.6,4.3-7,4.5-5.8.3-10.6-5.2-9.6-4.9,4.5,1.3,12.4,2.4,16.5.3h0Z"/><path class="cls-6" d="M89.1,46.9c0,.4,0,.7,0,1"/><path class="cls-3" d="M84.1,49.3c-1.2-.9-5.8-1-7-.5-.7-.6-.8-2-.2-2.6.6-.5,1.4-.6,2.2-.6,1.3,0,2.7.2,4,.5.6.2,1.3.4,1.5,1,.2.5-.2,1.7-.5,2.2Z"/><path class="cls-3" d="M63.3,48c-.3.5-.8.7-1.2,1,.1,0-.1,0,0-.2-3-.5-5.6,0-8.4.6-.4-.6-.5-1.8,0-2.4.4-.5,1.1-.8,1.7-.9,2.3-.6,4.6-.7,6.9-.4.5,0,1,.1,1.3.6.3.5.2,1.2-.2,1.7Z"/><path class="cls-7" d="M82.1,55.4c0,1.7-.7,3.1-1.6,3.1s-1.6-1.4-1.6-3.1.7-3.1,1.6-3.1,1.6,1.4,1.6,3.1Z"/><path class="cls-7" d="M60.5,55.6c0,2-.9,3.6-1.9,3.6s-1.9-1.6-1.9-3.6.9-3.5,1.9-3.5,1.9,1.6,1.9,3.5Z"/><path class="cls-6" d="M75.3,67.1c-.8,1.5-6,2.4-8.5,1"/><path class="cls-6" d="M76.8,73.5c-.2,0-.3.2-.5.2"/><path class="cls-3" d="M90.7,51.7h0c-.4,0-1,0-1.6,0,0-3.2-.1-.9,0-3.8-1.3-15-10.7-16.9-21.3-17.4-11.4-.6-19.3,5.2-21.1,11.6-1.2,4.1-1,10.3-1.3,12-.3,1.4-2.7,2.2-3.3-1.1-.6-1.9-3-1.9-4.5-1.3,0-7.5,1.4-16.7,3.2-23.5,2.7-10,17.9-10.8,27.2-10.2,14.1,1.1,19.9,3.6,22,14.5,1.6,8,.9,13.7.8,19.2Z"/><path class="cls-6" d="M41.8,67.5c.2,0,.5,0,.7,0,.5-.1,1-.4,1.4-.9"/><path class="cls-1" d="M92,58.5c-.4,2.9-2.9,9.6-4.7,8.5,1-3.7,1.6-8.2,1.7-14.1,0-.4,0-.8,0-1.2.7,0,1.2,0,1.6,0,2.7.7,1.6,4.8,1.3,6.7Z"/><path class="cls-6" d="M87.4,67s0,0,0,0"/><path class="cls-6" d="M89.1,48.5c0-.2,0-.4,0-.6"/><path class="cls-2" d="M99,245.1c-.6.2-1.3.4-2,.6-5.5,1.7-12.5,3.3-20.9,4.2-4.1.4-8.5.7-13.3.7s-9.8-.4-16-1.2h0c-8-.9-16.1-2.4-19.8-4.2-1.3-.6-2-1.2-2-1.9,0,0,10.1-53.6,11.7-62.6v-.2c5.8,3.5,12.5,5.1,19.1,5.8,3,.3,6.5.9,9.4,0,2.9-.9,6.5-6.9,6.5-6.9.6,0,4.2,6.5,5.6,7.1,1.4.6,11.9-3,14.7-3.1,1.1,7,7,54,7,61.6Z"/><path class="cls-6" d="M37.7,293.9c0,0,0,.2,0,.3"/><path class="cls-1" d="M37.7,293c0,.3,0,.6,0,.9,0,.2.2.5.2.7,0,.8-.3,1.7-.8,2.4-.5.9-1.3,1.8-2.1,2.5h0c-5.7.9-11.5,1.7-17.3,2.3-1,0-2.1.2-2.9-.3-1.1-.6-1.5-1.8-1.4-3,.1-1.1.6-2.1,1.1-3.1,3.1-1.8,6.3-3.5,9.7-5.2,1.8-10.3,1.9-32.6,2.8-45,3.7,1.7,11.8,3.2,19.8,4.2-1.7,6.1-3.5,11.9-4.5,15.8-1.3,5-3.7,13.2-4.6,27.7Z"/><path class="cls-5" d="M71.8,179.5s-3.6,6-6.5,6.9c-2.9.9-6.4.2-9.4,0-6.6-.7-13.3-2.2-18.9-5.8-.5-.3-1.1-.7-1.6-1,.1-.8.5-3,.7-4.5.1-.3.2-.7.2-1.1,1.2,0,3.7-1.4,2.3-3.1,1.4-.2,3-1.8,2.1-4,3.1-.8,3.3-2.2,2.5-3.7,4.1-1.9,14.2-7.6,15.6-8.2,1.1-.5,11.9,6.9,12.9,7.1.1,10.3,0,17.6.1,17.6Z"/><path class="cls-5" d="M53.6,92.8c-3.5.2-6.7,0-10.2.3l-.3.2c-.2-.3-.3-.5-.5-.8-.2-.4-.5-.8-.5-1.2-.1-1.2,1-2.1,2.1-2.5,2.7-1.1,5.4-2.4,8.1-3.8h.4c0,1.9-.1,3.4-.3,5.2,0,.6.4,1.5,1.3,2.7Z"/><path class="cls-4" d="M53.6,92.8c-.5,3.9-.6,7.6-1.2,11.5l-.2.2c-3.6-3.3-6.7-7.1-9.2-11.2l.3-.2c3.6-.2,6.7,0,10.2-.3Z"/><path class="cls-4" d="M62.7,111.6l-.2.4c-2.4-1.3-4.7-2.8-6.8-4.5-.5-.4-1-.8-1.5-1.2-.7-.6-1.3-1.1-2-1.7h0s.2-.2.2-.2c3.5-.6,6.9-1.1,10.4-1.7.2,3,0,6-.1,9Z"/><path class="cls-6" d="M67.8,106.7h0"/><path class="cls-5" d="M75,111l-.5.2c-.1,0-.2-.2-.3-.3-1.6-1.6-4-2.8-5.6-4.3.6-1.1,1.8-3.6,2.7-6.9h.5c.4,4,1.5,7.8,3.1,11.3t0,0s0,0,0,0Z"/><path class="cls-4" d="M80.5,100.4c-.3,1.2-.6,2.5-.9,3.7-.2.8-.5,1.7-.8,2.4-.6,1.6-1.3,3.1-2.4,4.3-.3.4-.7.7-1.2.7-.2,0-.5-.1-.7-.3l.5-.2s0,0,0,0t0,0c-1.7-3.5-2.7-7.3-3.1-11.1,3,.8,5.5.9,8.6.6Z"/><path class="cls-4" d="M83.2,92.5c-.1,1-.6,2-1,2.9-.8,1.5-1.3,3.2-1.8,5-2.2-3.4-4.3-6.3-7.4-8.9,3.4-.8,6.1-1.2,9.6-1.4.6.7.7,1.5.6,2.4Z"/><path class="cls-5" d="M82.6,90.1c-3.5.2-6.2.6-9.6,1.4h-.3c0-1.6,0-3.2-.2-4.8.5-.3,1-.6,1.4-.9v.2c3.5,1.8,3.7,1.1,7.1,2.9.6.3,1.2.7,1.6,1.2Z"/><path class="cls-6" d="M89.9,115.5s0,0,0,0"/><line class="cls-6" x1="39.2" y1="145.4" x2="39.2" y2="145.4"/><path class="cls-4" d="M71.4,149.2s-11.5-7.6-12.7-8.1c0,0-15.8,9.6-20,11.8h-.2c.2-2.4.5-4.1.7-7.6,4.9-2.7,17.7-10.2,19-10.2,1.3,0,9.9,5.4,13,8,0,2,.1,4,.2,6Z"/><path class="cls-4" d="M90.2,149.8c-1.9-.9-7.9-6.6-7.9-6.6,0,0-8.9,4.8-10.8,6,0-2-.1-4-.2-6,0,0,.1.1.2.2,2.6-2.7,10.3-6.9,10.9-6.8.6,0,5.2,4.5,7.7,7h0c0,2,0,4.1.2,6.3Z"/><path class="cls-5" d="M90.4,156.8h-.1c-2.4-1.9-5.1-5.7-7.6-7.6-2.7,2-7.8,5.7-11,6.9,0,0-.1,0-.2-.1,0-2.2,0-4.5-.1-6.8,1.9-1.1,10.8-6,10.8-6,0,0,6.1,5.7,7.9,6.6,0,.8,0,1.7,0,2.6,0,1.4,0,2.9.2,4.4Z"/><path class="cls-5" d="M71.6,156c-4.2-2.4-8.3-5.8-12.5-8.2-6.3,2.6-12.1,6.5-17.9,10h-.2c-.6-.8-1.5-1.4-2.7-1.8,0-1.3.2-2.3.3-3.2h.2c4.2-2.2,20-11.8,20-11.8,1.2.4,12.7,8.1,12.7,8.1,0,2.3.1,4.6.1,6.8Z"/><path class="cls-4" d="M71.7,162c-1-.2-11.8-7.6-12.9-7.1-1.4.6-11.5,6.3-15.6,8.2-.4-.8-1.1-1.5-1.8-2.2.3-1.2,0-2.1-.4-2.9h.2c5.8-3.6,11.6-7.6,17.9-10.1,4.2,2.4,8.3,5.7,12.5,8.2,0,2.1,0,4.1,0,6Z"/><path class="cls-4" d="M90.7,162.2h0c-2.3-1.8-5.3-5-7.6-6.8-2.6.9-10.4,6.8-11.4,6.6,0-1.9,0-3.9,0-6,0,0,.1,0,.2.1,3.2-1.2,8.3-4.9,11-6.9,2.4,1.9,5.1,5.7,7.6,7.6h.1c0,1.8.1,3.6.2,5.4Z"/><path class="cls-5" d="M67.7,106.7c-1.8,1.6-3.3,3.5-4.4,5.7-.3-.2-.6-.3-.9-.5l.2-.4c.1-3,.4-6,.1-9h0s0,0,0,0c2.1,1.9,3.9,3.5,4.8,4.2Z"/><path class="cls-5" d="M63,102.5h0c0,0,0,0,0,0-3.5.6-6.9,1.1-10.4,1.7.5-3.9.6-7.6,1.2-11.5,2,2.7,6.1,6.7,9.4,9.7Z"/><line class="cls-6" x1="62.8" y1="102.6" x2="62.8" y2="102.6"/><path class="cls-5" d="M80.5,100.4c-3.1.3-5.6.2-8.6-.6h-.5c.7-2.6,1.3-5.4,1.4-8.3h.3c3.1,2.6,5.2,5.5,7.4,8.9Z"/><path class="cls-6" d="M75,110.9c0-.2-.1-.4-.2-.5"/><line class="cls-6" x1="39.1" y1="93.3" x2="39.1" y2="93.3"/><path class="cls-4" d="M55.7,107.4c-3,2.5-5.7,5.3-8,8.4-3.4-7.9-7.6-15.3-12.8-22.1.5-.2,2.4-.5,4.2-.7.2,0,.4,0,.6,0l-.6.4c3.7,5.2,6.6,10.8,8.7,16.8,2.4-.8,4.6-2.1,6.4-3.8h0c.5.4,1,.8,1.5,1.1Z"/><path class="cls-6" d="M55.7,107.4s0,0,0,0"/><path class="cls-1" d="M108.8,302.2c-1.1,1.4-3.2,1.5-5,1.4-4.6-.2-9.2-.3-13.5-1.5-1.3-1.7-2.2-3.6-2.6-5.8,0-.2,0-.5-.1-.7h-.1c-.7-8.8-7.4-30.3-11.3-45.7,8.4-.9,15.5-2.5,20.9-4.2.7,7.6.7,13.9.7,15.9,0,3.5.7,26.4,1.6,29.7,2.2,1,4.9,2.3,7.7,3.7h0c.8,1,1.5,2.7,2,3.8.5,1.1.5,2.4-.2,3.4Z"/><path class="cls-6" d="M87.5,295.6c0-.3,0-.6,0-.9"/><path class="cls-2" d="M117.9,310c-1,.2-2,.4-3,.5-4.4-2.5-11-3.7-15.9-2.2h0c-3.6-1.5-6.7-3.6-8.8-6.2,4.3,1.2,9,1.4,13.5,1.5,1.8,0,4,0,5-1.4.7-1,.7-2.3.2-3.4-.5-1.1-1.2-2.8-2-3.7h0c2.3,1,4.6,2.2,6.8,3.3v.3c-.8.3-1.1,1.1-1.1,1.8,0,.7.4,1.3.8,2,1.4,2.4,2.8,4.8,4.2,7.2v.4Z"/><path class="cls-1" d="M122.9,306.2c.1,2.4-2.5,3.2-5,3.8,0,0,0,0,0,0h0v-.4c-1.5-2.4-2.9-4.8-4.3-7.2-.4-.6-.7-1.3-.8-2,0-.7.2-1.5.9-1.8v-.3c2.2,1.1,4.1,2.1,5.7,2.9,1.8.9,3.4,2.9,3.6,4.8Z"/><path class="cls-2" d="M35.1,299.6c-.5.4-1,.9-1.5,1.3-2.7,2.1-5.2,3.7-7.8,4.9v-.2c-3.1,0-6.2-.1-9,.7-2.8.7-5.4,2.3-6.7,4.8h0c-.8,0-1.5.1-2.3,0-.9,0-1.9-.3-2.7-.8h0c.5-1.4,1.5-2.5,2.3-3.6.9-1.1,1.6-2.4,1.6-3.8,0-1.2-.8-2.4-.7-3.6,2.1-1.3,4.1-2.6,6.1-3.8-.5,1-1,2-1.1,3.1-.1,1.1.3,2.4,1.4,3,.9.5,1.9.4,2.9.3,5.8-.6,11.6-1.4,17.3-2.4h0Z"/><path class="cls-1" d="M25.8,305.8c-3.7,1.8-7.6,3.1-12.4,4.5-1.1.3-2.2.6-3.3.7,1.2-2.4,3.9-4,6.7-4.8,2.9-.8,5.9-.7,8.9-.7v.2Z"/><path class="cls-1" d="M9.1,302.9c0,1.4-.7,2.7-1.6,3.8-.8,1.1-1.8,2.2-2.3,3.5h0c-.8-.4-1.5-1-1.9-1.8-.8-1.4-.5-3.1.3-4.6.1-.2.3-.5.4-.7,1.1-1.5,2.7-2.6,4.3-3.7,0,0,.1,0,.2-.1-.1,1.2.6,2.4.7,3.6Z"/><path class="cls-6" d="M35,299.5c-.3,0-.6.1-.9.2"/><path class="cls-6" d="M14.6,295.3c0,0,0,0,0,.1"/><path class="cls-6" d="M10.1,311c0,.1-.1.2-.1.3"/><path class="cls-6" d="M90.2,302.1c-.3,0-.6-.2-.9-.3"/><path class="cls-6" d="M98.9,308.4c-.2,0-.3.1-.5.2"/><path class="cls-6" d="M37.7,293.9s0,0,0,0"/><path class="cls-2" d="M30.9,308.4c-5.2,3.6-11.3,6-17.7,6.5-2.9.2-6.1.3-8.6-1.3-3.4-2.1-4-7.1-1.3-9.9h0c-.8,1.5-1,3.2-.3,4.6.4.8,1.1,1.4,1.9,1.9.8.5,1.7.7,2.7.8.8,0,1.5,0,2.3,0h0c1.1-.1,2.2-.4,3.3-.7,4.8-1.4,8.7-2.6,12.4-4.5,2.6-1.3,5.1-2.8,7.8-4.9.5-.4,1-.8,1.5-1.3.8-.8,1.6-1.6,2.1-2.5.4-.7.7-1.6.8-2.4,1.5,5.4-2.1,10.3-7,13.8Z"/><path class="cls-1" d="M114.8,310.5c-5.2.6-11-.2-15.9-2.2,4.9-1.6,11.5-.3,15.9,2.2Z"/><path class="cls-2" d="M122,313.1c-2.2,1.6-5.2,1.8-8,1.6-6.5-.5-12.8-2.2-18.6-5-2.6-1.3-5.2-3.3-6.9-5.5s-2.4-5.4-.9-7.8h0c.4,2.1,1.3,4.1,2.6,5.8,2.1,2.7,5.2,4.8,8.8,6.2h0c4.9,2,10.6,2.8,15.9,2.2,1-.1,2.1-.3,3-.5h0s0,0,0,0c2.5-.6,5.1-1.4,5-3.8,2.1,1.8,1.2,5.3-1,6.9Z"/></svg>