<?xml version="1.0" encoding="UTF-8"?><svg id="oceania" xmlns="http://www.w3.org/2000/svg" width="235" height="321.9" viewBox="0 0 235 321.9"><defs><style>.cls-1{stroke-linecap:round;stroke-linejoin:round;}.cls-1,.cls-2{fill:none;stroke:#000;}.cls-2{stroke-miterlimit:10;}.cls-3,.cls-4,.cls-5,.cls-6,.cls-7,.cls-8,.cls-9{stroke-width:0px;}.cls-4{fill:#4cb8eb;}.cls-5{fill:#2c66cd;}.cls-6{fill:#29262c;}.cls-7{fill:#c8967b;}.cls-8{fill:#cb9780;}.cls-9{fill:#fff;}</style></defs><path class="cls-6" d="M234.8,196.7c.3,1,.2,2.3-.5,3.7-1.8,3.6-5.3,6.1-8.8,8.2-10.7,6.4-15.1,7.8-26.5,12.5-1.4.6-2.9,1.1-4.2.6-.9-.4-1.5-1.3-2-2.2-.2-.4-.4-.7-.6-1.1,7.5-2.1,14.8-5,21.7-8.6,2.4-1.2,4.8-2.5,7.1-3.9,4.5-2.7,8.8-5.6,12.9-8.9l1.1-.2Z"/><path class="cls-8" d="M234.8,196.7l-1.1.2c-4.1,3.2-8.4,6.2-12.9,8.9l-.5-.7c.7-1.4,1.3-2.8,1.6-4.3.3-1.5.2-3.2-.6-4.5-.7-1.1-2-2-3.3-2,2.2-.3,4.6-.7,7.2-1.1,1.9-.3,3.6-.7,5.3-.1,2.2.8,3.7,1.9,4.1,3.5Z"/><path class="cls-6" d="M221.4,196.3c.8,1.3.9,3,.6,4.5-.3,1.5-.9,2.9-1.6,4.3l.5.7c-2.3,1.4-4.7,2.7-7.1,3.9l-.4-.7c0-.1.2-.7.2-.9.6-3.4,0-7.1-1.7-10.2-.6-1.1-1.7-2.3-3-2v-.2c3-.5,6-.9,9.2-1.4h0c1.3,0,2.6.8,3.3,2Z"/><path class="cls-8" d="M197.4,197.9l.2-.4c4.3-.6,7.9-1.2,11.3-1.7v.2c1.3-.3,2.4.9,3.1,2,1.7,3,2.4,6.7,1.7,10.2,0,.1-.2.7-.2.9l.4.7c-6.9,3.5-14.2,6.4-21.7,8.6-1.8-3.3-3.1-5.8-4.2-7.5h-.7c-9-3.3-17.5-5.3-23.4-6h0c2.1-5.8,5.3-11.2,10.5-14.2l.2-.5c.2,0,.3.1.5.2,6.6,2.2,15.7,5.4,22.4,7.7Z"/><path class="cls-6" d="M174.4,190l-.2.5c-5.3,3-8.5,8.5-10.5,14.2-1.9,5.3-2.8,10.9-3.4,14.9-2,13,1.4,25.5-11,37.2-12.3,11.6-22,12-37.6,13.6-4.7.5-9.9,1.1-15.9,2.1-.3,0-.6.1-.9.2-1.2-3.4-27.6-63.8-35-105.3h.3c-.2-.9-.5-1.7-.7-2.5h0c1.3-7.9,11.1-9.3,24-7.8,4.3.5,8.9,1.2,13.6,2.2,8.5,1.7,11.5,3.6,15.4,4.8,0,0,0,0,0,0,12.6,4.5,63.9,24.4,62.5,25.5l-.2.5c-.2,0-.3-.1-.5-.2Z"/><path class="cls-8" d="M137,304.3c1.1,2,1.4,3.8.8,5.2l-1-.4c-5.2-.3-10.5-1-15.6-2l.2-.8c1.4-.6,2.9-1.2,4.1-2.2,1.2-.9,2.3-2.2,2.5-3.7.2-1.3-.2-2.8-1.1-3.7,1.9,1.3,3.9,2.6,6.1,4.1,1.6,1,3.2,1.9,4,3.5Z"/><path class="cls-6" d="M136.8,309.1l1,.4c-.4,1.1-1.4,1.9-3,2.5-3.7,1.5-8,1-12,.2-12.2-2.3-16.4-4.2-28.1-8.4-1.4-.5-2.9-1.1-3.5-2.4-.4-.9-.2-2,0-3,0-.4.2-.8.3-1.2,7,3.4,14.4,6.1,22,8.2,2.5.7,5.1,1.3,7.7,1.8,5.1,1,10.4,1.7,15.6,2Z"/><path class="cls-6" d="M135.7,56.1c.9-3.5-.8-9.4-4.4-9.2-6.8.5-9,.5-15.3-2.9-2.3-1.3-10-7.8-14.8-4.1-5.1,4-10.6,19.3-10.6,19-.4-1.5.1-.5-.6-2.8-.4-1.5-2.9-3.5-5.2-1.9-2.8,1.9-2.6,5.6-2.5,7.2s1.3,4.8,2.7,5.4c.5.2,1,.4,1.3.4-.3,2.7-.5,6.3-.3,7.2.3,1.4.6,2.5,1,3.5.2,1.2.2,2.5.2,3.8h0c-9.5-5.1-12.8-24.5-5.2-42.3,2.3-5.4,8.1-11.8,13.4-14.3,5-2.3,7.6-1.9,12.9-.3,5.7,1.7,11.4,3.7,16.9,6,5.1,2.1,9.1,3.5,12.1,8.1,3,4.5.5,15.1-3.5,21.8.6-1.2,1.1-2.8,1.6-4.7h.1Z"/><path class="cls-7" d="M113.5,95c-1.1.5-2.2.8-3.4.8-1.3,0-2.5,0-3.6-.2-8-1.1-12.7-6.8-15.6-11.3-1.7-2.7-2.9-4.3-3.8-6.5-.4-1-.7-2.1-1-3.5-.2-.9,0-4.5.3-7.2-.4,0-.8-.2-1.3-.4-1.4-.6-2.6-3.9-2.7-5.4s-.3-5.3,2.5-7.2c2.3-1.6,4.8.4,5.2,1.9.7,2.4.2,1.4.6,2.8,0,.4,5.5-15,10.6-19,4.8-3.7,12.5,2.8,14.8,4.1,6.3,3.4,8.5,3.4,15.3,2.9,3.6-.3,5.3,5.7,4.4,9.2h-.1c-.5,1.9-1.1,3.4-1.6,4.6-1.3,3-2.6,4.4-3.1,6-.6,2-1.9,13.6-8.3,20.7,0,0-4.1,5.4-9,7.5ZM102.2,76.9l-.2.3c-2.1,8,11.3,15.3,14.7,5.7-5.7-.6-9.5-2.7-14.4-6ZM131.4,61.1c.1-1-3.5-4.1-5.2-3.8-1.5.2-3.1,3-1.2,4.1.7.4,4.4,2.2,5.1,2.5.9.4,1.1-1.8,1.2-2.8ZM127.4,68.3c.3-1.5,0-2.8-.9-2.9-.8-.2-1.7.9-2.1,2.3s0,2.8.9,2.9c.8.2,1.8-.9,2.1-2.3ZM113.5,57.1c.8.3,3-3.2-.3-4.4-3.5-1.3-10.2-2.7-10.6,2.3,0,.4,8.6,1.4,10.9,2.1ZM109.9,64c.3-1.4-.1-2.7-1-2.8-.9-.2-1.8.8-2.1,2.2-.3,1.4.1,2.7,1,2.9.8.2,1.8-.8,2.1-2.2Z"/><path class="cls-6" d="M126.2,57.3c1.7-.2,5.3,2.8,5.2,3.8s-.3,3.2-1.2,2.8c-.7-.3-4.4-2.1-5.1-2.5-1.9-1.1-.3-3.9,1.2-4.1Z"/><path class="cls-6" d="M126.9,296.7c1,.9,1.4,2.4,1.1,3.7-.3,1.5-1.3,2.8-2.5,3.7-1.2.9-2.7,1.6-4.1,2.2l-.2.8c-2.6-.5-5.1-1.1-7.7-1.8l.3-1c.2-.1.4-.3.5-.3,2.8-2.1,4.8-5.3,5.5-8.7.3-1.3.2-2.9-.9-3.5l.2-.2c2.6,1.7,5.1,3.3,7.8,5.1Z"/><path class="cls-3" d="M126.5,65.3c.8.2,1.2,1.5.9,2.9-.3,1.5-1.3,2.5-2.1,2.3-.8-.2-1.2-1.5-.9-2.9s1.3-2.5,2.1-2.3Z"/><path class="cls-4" d="M109.9,128.2c0,.2,0,.3,0,.5h-.4c-9.9.9-21,.2-30-2.1v-.3c1.4-5,2.3-8.4,3.7-12.1,1.9.6,3.8,1.3,5.6,2.1.7-2.9,1.5-5.8,2.5-8.6l-.2-.4c6.3-3.1,13.8-4,20.3-2.1-.6-2.5-2.1-4.8-4.1-6.3,1.6-.3,3.1-.6,4.7-.9h0c2.7,2.9,4.4,6.6,4.9,10.5,2.7-.9,5.7-.9,8.4.2.3,1.3.5,2.6.7,3.8.1,1,.2,2,.4,2.9h-.3c-1-.2-2-.3-3-.2-1,.1-2,.5-2.7,1.3-.5.7-.7,1.5-.9,2.3-.2.8-.4,1.6-1,2.2-.6.6-1.6.8-2.2.2v2.4c3.6-.3,7.5-.5,10.6,1.3h.2c.1,3.2.1,5.8,0,7.9h-.4c-1.1-3.1-4.1-5.1-7.3-5.7s-6.4,0-9.5,1h-.1ZM102.8,125c.5,0-1.5-9-4.2-9.7-3.5-.9-6.3,3.8-7.9,6.2-.3.5-.6,1.1-.4,1.6.2.5.8.7,1.4.8,3.6.7,7.4,1.1,11.1,1Z"/><path class="cls-9" d="M127.4,124.9h-.2c-3.1-1.9-7-1.6-10.6-1.3v-2.4c.6.5,1.6.3,2.2-.2.6-.6.8-1.4,1-2.2.2-.8.4-1.6.9-2.3.6-.8,1.6-1.2,2.7-1.3,1-.1,2,0,3,.3h.3c.4,3.6.7,6.8.8,9.5Z"/><path class="cls-5" d="M126.9,132.8h.4c-.4,4.2-1.4,6.4-2.8,6.9,0,0,0-12.5-14.2-9,0-.7-.2-1.4-.3-2.1,0-.1,0-.3,0-.5h.1c3.1-.9,6.3-1.6,9.5-1s6.2,2.6,7.3,5.6Z"/><path class="cls-5" d="M121.3,98.9c1.8,1.5,3.3,5.6,4.2,9.7-2.6-1.1-5.7-1.1-8.4-.2-.5-3.9-2.3-7.6-4.9-10.4h0c1.9-.5,3.8-.9,5.6-1.2h0c1.3.6,2.5,1.3,3.5,2.1Z"/><path class="cls-8" d="M67.8,141.1c-.1-.9.1-2.3.5-3.9.7-2.7,2.1-6.1,3.5-8.4.9-1.4,1.8-2.4,2.6-2.8.6-.3,1.4-.3,2.5-.1.7.2,1.4.3,2.1.5,0,0,.1,0,.2,0,4.4,1.4,9.7,4.7,9.8,6.9h0c10.2-1.8,8.2.6,21.2-2.6,14.3-3.6,14.2,9,14.2,9-4.3,2.7-8.4,4.2-12.6,4.9-2.8.5-5.7.6-8.8.5-4.5-.2-9.3-.8-14.8-1.4-1.5-.2-3-.3-4.5-.5-.2,0-.4,0-.5,0-.9.3-2.4.5-4.2.6-1.3,0-2.8.1-4.2,0-3.3-.1-6.4-.8-7-2.2,0-.1-.1-.3-.1-.5Z"/><path class="cls-8" d="M109,285.2h.5c3.6,2.5,6.7,4.5,9.6,6.4l-.2.2c1.1.6,1.2,2.3.9,3.5-.7,3.4-2.7,6.6-5.5,8.7,0,0-.3.2-.5.3l-.3,1c-7.6-2-14.9-4.7-22-8.2,1-3.8,2.4-7.1,4.3-10.6h.3c0-2.6-.2-10.2-.4-14h0c6-1.1,11.2-1.6,15.9-2.1h0c-1,4.2-1.7,11.8-2.7,14.8Z"/><path class="cls-5" d="M117.8,96.8h0c-1.9.4-3.8.8-5.6,1.1-1.6.3-3.1.6-4.7.9,2.1,1.5,3.6,3.8,4.1,6.3-6.5-1.9-14.1-1-20.3,2.1-2.6,1.3-5,3-7,5,0,0,0-.1,0-.2.7-1.6,1.5-3.3,2.5-5.2,1.2.7,16.3-5.8,19.8-11.2,1.1.2,2.3.2,3.6.2,1.1,0,2.3-.3,3.4-.8,1.5.6,3,1.1,4.3,1.8Z"/><path class="cls-6" d="M113.2,52.7c3.4,1.2,1.2,4.7.3,4.4-2.3-.8-10.9-1.7-10.9-2.1.4-5,7.1-3.6,10.6-2.3Z"/><path class="cls-4" d="M112.6,164.1c-3.9-1.1-6.9-3.1-15.4-4.8-4.8-1-9.4-1.7-13.6-2.2v-.9c-.2-.6-.5-1.2-.8-1.7,2.3.2,4.5.5,6.6,1.3.7.3,1.4.6,2.2.6.8,0,1.6-.3,1.8-1,.4-1-.6-2-1.5-2.4-3.4-1.5-7.2-2.1-11.1-2.5-.4-.9-.7-1.7-1-2.6.9,0,1.9,0,2.8,0,.5,0,1,0,1.4-.3.6-.4.8-1.2.7-1.9-.1-.7-.5-1.3-.9-1.9v-.5c1.6.2,3.1.3,4.6.5,2.3,2.2,4.8,4.4,7.9,4.5,2.6,0,4.9-1.4,6.8-3,3,.1,5.9,0,8.8-.5v.3c-.3,1.4,0,4.1.4,7.3-2.7-.8-5.7-.5-8.2.9-.4.2-.9.6-1,1.1,0,.5.4,1,.9,1.2.5.2,1.1,0,1.6,0,2.6-.2,5.2.5,7.5,1.8.5,2.8.9,5.5.9,7.4-.5-.1-1-.2-1.4-.4,0,0,0,0,0,0Z"/><path class="cls-9" d="M112.3,152.1c.3,1.6.6,3.3.8,5-2.2-1.4-4.9-2-7.5-1.8-.5,0-1.1.1-1.6,0-.5-.2-1-.6-.9-1.2,0-.5.5-.8,1-1.1,2.5-1.4,5.5-1.7,8.2-.9Z"/><path class="cls-9" d="M116.6,82.8c-3.4,9.6-16.8,2.4-14.7-5.7l.2-.3c5,3.2,8.7,5.4,14.4,6Z"/><path class="cls-5" d="M110,128.7c0,.7.2,1.4.3,2.1-13,3.2-11,.9-21.2,2.8h0c0-2.3-5.4-5.6-9.8-7,.1,0,.2,0,.3,0,9,2.3,20.1,3,30,2.1h.4Z"/><path class="cls-3" d="M108.9,61.2c.8.2,1.3,1.5,1,2.8-.3,1.4-1.3,2.4-2.1,2.2-.9-.2-1.3-1.5-1-2.9.3-1.4,1.3-2.4,2.1-2.2Z"/><path class="cls-9" d="M98.6,115.3c2.7.7,4.6,9.7,4.2,9.7-3.7,0-7.4-.3-11.1-1-.5-.1-1.2-.3-1.4-.8-.2-.5,0-1.1.4-1.6,1.5-2.4,4.4-7.1,7.9-6.2Z"/><path class="cls-5" d="M103.1,145c-2,1.7-4.3,3.1-6.8,3-3.1,0-5.7-2.3-7.9-4.5,5.4.6,10.3,1.3,14.8,1.4Z"/><path class="cls-9" d="M91.8,152.9c1,.4,1.9,1.4,1.5,2.4-.2.7-1.1,1.1-1.8,1-.8,0-1.5-.3-2.2-.6-2.1-.8-4.3-1.2-6.6-1.3-.8-1.4-1.5-2.7-2-4,3.8.4,7.7,1,11.1,2.5Z"/><path class="cls-5" d="M91.2,107.2l.2.4c-1,2.8-1.9,5.7-2.5,8.6-1.8-.8-3.7-1.5-5.6-2.1.3-.7.6-1.4.9-2.2,0,0,0,.1,0,.2,2-2,4.4-3.7,7-5Z"/><path class="cls-7" d="M90.9,84.3c2.9,4.4,7.6,10.2,15.6,11.3-3.5,5.4-18.6,11.9-19.8,11.2-2.1-1.2-2-8.1-2.6-14.1,1-1.4,2.1-4.3,2.7-7.4.2-1.2.4-2.4.5-3.6,0-1.3,0-2.6-.2-3.8.8,2.1,2,3.8,3.8,6.5Z"/><path class="cls-5" d="M80.1,86.3c2.1-.5,4.4-.9,6.7-1h0c-.6,3.1-1.7,6-2.7,7.4.6,6,.4,12.9,2.6,14.1-1,1.9-1.8,3.6-2.5,5.2-.3-2.7-1.1-5.3-2.4-7.7-.8-1.5-1.9-2.9-3.1-4.2-1.2-2-2.9-3.7-4.9-4.9,1.8-1,3.8-1.8,5.8-2.2-1.3-1.6-3.1-2.7-5.1-3.4-.8-.3-1.6-.4-2.4-.5,2.6-1.2,5.2-2.2,7.8-2.8Z"/><path class="cls-9" d="M84.7,145.6c.1.7,0,1.5-.7,1.9-.4.3-.9.3-1.4.3-.9,0-1.9,0-2.8,0-.3-1.2-.6-2.5-.7-4.1h0c1.8-.2,3.3-.4,4.2-.7.2,0,.4,0,.5,0v.5c.3.6.7,1.2.9,1.9Z"/><path class="cls-4" d="M83.7,156.2v.9c-13.1-1.4-22.8,0-24.1,7.8h0c-2.5-10-1-17.7.9-33h0c1.1,2.9,2.6,5.6,4.4,8.1.4.5.8,1,1.4,1.3.5.2,1.1.2,1.5-.1,0,.2,0,.4.1.5.6,1.4,3.7,2,7,2.2v.3c-1,.7-.7,2.4.3,3.1,1,.7,2.3.7,3.5.7.4,0,.7,0,1.1,0,.3.9.6,1.8,1,2.6-2.5-.3-5-.4-7.4-.7-.8,0-1.6-.2-2.3,0-.8.2-1.5.7-1.7,1.4-.3.9.3,2,1.2,2.5.8.5,1.9.6,2.9.6,3.1.1,6.3,0,9.4.2.3.6.6,1.1.9,1.7Z"/><path class="cls-5" d="M84.2,112c-.3.7-.6,1.4-.9,2.2-2.2-.6-4.4-1.1-6.6-1.3,1.3-3,3-5.9,5-8.5h0c1.3,2.4,2.1,5,2.4,7.7Z"/><path class="cls-4" d="M61.8,119.9c-.2,2.3-.5,4.5-.7,6.5.2-4.9.3-8.7-.4-12.9h0c-3.6,3.1-7.8,6.6-11.1,9.2l-.3-.6c-5-3.2-8.9-8.2-10.7-13.9h-.4c.7-.8,1.5-1.6,2.3-2.5,0,1.2.7,2.4,1.7,2.9.2-.8,1.5-.6,2.1-1.2.5-.6.2-1.5-.2-2.1s-.9-1.5-.5-2.2l-.3-.3c3.7-3.6,7.1-6.9,7.5-7.3,3.9-3.3,7-6,11.5-7.6,1,1.1,1.7,2.5,2.2,4,3.1-1.9,6.5-2.4,10.2-2.2h0c2,.5,3.7,1.7,5.1,3.3-2,.4-4,1.1-5.8,2.2,2,1.2,3.7,2.9,4.9,4.9,1.2,1.3,2.2,2.7,3.1,4.2h0c-2,2.6-3.7,5.5-5,8.5,2.2.3,4.4.7,6.6,1.3-1.4,3.7-2.3,7.1-3.6,12.1v.3c-.2,0-.3,0-.4,0-.8-.3-1.6-.5-2.3-.6-5.6-1.4-10.6-2.1-15.2-6ZM73.9,119.9c.3-2.9,0-5.9-1.1-8.7-1.6-4.3-6.7,1.4-8.2,3.4-.5.7-1,1.6-.7,2.5.3.7.9,1.1,1.6,1.3,2.6,1.2,5.5,1.7,8.3,1.5Z"/><path class="cls-9" d="M82.8,154.5c-3.1-.2-6.3,0-9.4-.2-1,0-2-.1-2.9-.6-.8-.5-1.5-1.5-1.2-2.5.2-.7,1-1.2,1.7-1.4.8-.2,1.5,0,2.3,0,2.4.3,4.9.5,7.4.7.6,1.3,1.3,2.6,2,4Z"/><path class="cls-5" d="M80.1,86.3c-2.6.7-5.2,1.6-7.8,2.8.8,0,1.6.3,2.4.5h0c-3.7,0-7.1.5-10.2,2.3-.4-1.5-1.2-2.8-2.2-4,1-.3,2-.6,3.1-.8,2.1-.4,8.2-1.2,14.7-.9Z"/><path class="cls-9" d="M79.8,147.8c-.4,0-.7,0-1.1,0-1.2,0-2.6,0-3.5-.7-1-.7-1.3-2.4-.3-3.1v-.3c1.4,0,2.9,0,4.2,0h0c.1,1.6.3,2.9.7,4.1Z"/><path class="cls-8" d="M79.3,126.5c0,0-.1,0-.2,0-.7-.2-1.4-.4-2.1-.5.7.1,1.5.3,2.3.6Z"/><path class="cls-5" d="M61.1,126.4c.2-2,.5-4.2.7-6.5,4.6,3.9,9.5,4.6,15.2,6-1-.2-1.9-.2-2.5.1-.8.4-1.8,1.4-2.6,2.8h-.3c-2.6-.5-5.2-1.4-7.5-2.6-.2,1.1-.5,2.2-.7,3.3.6-.7,1.9-.5,2.5.2.6.7.8,1.7.8,2.7,0,.9-.1,1.9,0,2.8.2.9.7,1.7,1.5,2.1-.4,1.6-.6,3-.5,3.9-.4.3-1,.3-1.5.1-.6-.3-1-.8-1.4-1.3-1.9-2.5-3.3-5.2-4.4-8.1h0c.2-1.7.4-3.5.6-5.4Z"/><path class="cls-9" d="M72.8,111.2c1,2.8,1.4,5.8,1.1,8.7-2.8.2-5.7-.3-8.3-1.5-.7-.3-1.3-.7-1.6-1.3-.3-.8.2-1.8.7-2.5,1.4-2,6.5-7.7,8.2-3.4Z"/><path class="cls-9" d="M71.6,128.7h.3c-1.5,2.5-2.8,5.8-3.5,8.5-.8-.3-1.3-1.2-1.5-2.1-.2-.9,0-1.9,0-2.8,0-.9-.2-2-.8-2.7-.6-.7-1.9-.9-2.5-.2.2-1.1.5-2.2.7-3.3,2.3,1.3,4.9,2.1,7.5,2.5Z"/><path class="cls-5" d="M49.2,122l.3.6c-1.7,1.4-3.2,2.5-4.2,3.1-.5-.3-1.1-.6-1.6-.9-4.4-2.8-8-7.7-9.2-10.4-.4-.8-.6-1.4-.5-1.8,0-.4,1.8-2.2,4.1-4.6h.4c1.8,5.8,5.6,10.8,10.7,14Z"/><path class="cls-9" d="M44.1,105.3c.4.7.7,1.6.2,2.1-.6.6-2,.4-2.1,1.2-1.1-.6-1.7-1.7-1.7-2.9h0c.9-.9,1.9-1.9,2.9-2.8l.3.3c-.4.7,0,1.5.5,2.2Z"/><path class="cls-8" d="M25.9,148.7h.1c2.8.7,5.5,10.2,3.6,12.3-2,2.2-13.2,3.2-15.1,2-2.2-1.4.2-9.6,1.7-11.7,3.1-13,5-19.8,13.3-30.7,1.5-1.9,2.7-3.5,4.8-6.1h0c1.3,2.7,4.8,7.6,9.2,10.4h0c-1.8,1.3-2.5,1.7-4.2,2.9-5.4,9.1-9.5,13.4-13.5,20.8Z"/><path class="cls-2" d="M80.1,86.3c.2,0,.4,0,.5,0"/><path class="cls-1" d="M40.4,105.7c.9-.9,1.9-1.9,2.9-2.8,3.7-3.6,7.1-6.9,7.5-7.3,3.9-3.3,7-6,11.5-7.6,1-.3,2-.6,3.1-.8,2.1-.4,8.2-1.2,14.7-.9"/><path class="cls-1" d="M60.6,113.5c-3.6,3-7.8,6.6-11.1,9.1-1.7,1.4-3.2,2.5-4.2,3.1-.5-.3-1.1-.6-1.6-.9-4.4-2.8-8-7.7-9.2-10.4-.4-.8-.6-1.4-.5-1.8,0-.4,1.8-2.2,4.1-4.6.7-.7,1.5-1.5,2.3-2.4"/><path class="cls-1" d="M34.4,114.4c-2.2,2.6-3.4,4.1-4.8,6.1-8.3,10.9-10.2,17.7-13.3,30.7"/><path class="cls-1" d="M43.6,125c-1.8,1.1-2.5,1.6-4.2,2.8-5.4,9.1-9.5,13.4-13.5,20.8-.1.2-.2.4-.3.6"/><path class="cls-1" d="M26,148.7c2.8.7,5.5,10.2,3.6,12.2-2,2.2-13.2,3.2-15.1,2-2.2-1.4.2-9.6,1.7-11.7"/><path class="cls-1" d="M109.3,119.3c0,3.8.4,6.6.7,8.9,0,.2,0,.3,0,.5,0,.7.2,1.4.3,2.1,14.3-3.6,14.2,9,14.2,9,1.5-.5,2.4-2.7,2.8-6.9.2-2.1.2-4.7,0-7.9-.1-2.8-.4-5.9-.8-9.5-.1-.9-.2-1.9-.4-2.9-.2-1.2-.4-2.5-.7-3.8-.9-4.1-2.4-8.3-4.2-9.7-1-.8-2.2-1.5-3.5-2.1-1.3-.6-2.8-1.2-4.3-1.8,0,0,0,0,0,0"/><path class="cls-1" d="M124.5,139.7c-4.3,2.7-8.4,4.2-12.6,4.9-2.8.5-5.7.6-8.8.5-4.5-.2-9.3-.8-14.8-1.4-1.5-.2-3-.3-4.5-.5-.2,0-.4,0-.5,0"/><path class="cls-1" d="M110.3,130.7c-13,3.2-11,.9-21.2,2.8-.3,0-.5.1-.8.2"/><path class="cls-1" d="M89.1,133.4c0-2.2-5.4-5.5-9.8-6.9-.8-.3-1.6-.5-2.3-.6-1-.2-1.9-.2-2.5.1-.8.4-1.8,1.4-2.6,2.8-1.5,2.3-2.8,5.7-3.5,8.4-.4,1.6-.6,3-.5,3.9,0,.2,0,.4.1.5.6,1.4,3.7,2,7,2.2,1.4,0,2.9,0,4.2,0,1.8-.1,3.3-.3,4.2-.6"/><path class="cls-1" d="M61.9,118.9c0,.3,0,.7,0,1-.2,2.3-.5,4.5-.7,6.5-.2,1.9-.4,3.7-.6,5.4-1.9,15.4-3.4,23.1-.9,33.1.2.8.4,1.6.7,2.4,0,.1,0,.2.1.4"/><path class="cls-1" d="M111.9,144.9c-.4,1.4-.1,4.1.4,7.3.3,1.6.6,3.3.8,5,.5,2.8.9,5.5.9,7.4"/><path class="cls-1" d="M58.9,106.7c.8,2.5,1.4,4.7,1.7,6.8.7,4.2.7,8,.4,12.9,0,.5,0,1,0,1.6"/><path class="cls-1" d="M112.6,164.1c-1.2-.4-2-.7-2.4-.8"/><path class="cls-1" d="M175.1,189.6c1.4-1.2-49.9-21-62.5-25.5"/><path class="cls-1" d="M94.5,272.7c.1,0,.3,0,.4,0,.3,0,.6-.1.9-.2,6-1,11.2-1.6,15.9-2.1,15.6-1.6,25.3-2,37.6-13.6,12.4-11.7,8.9-24.2,11-37.2.6-4,1.5-9.6,3.4-14.9,2.1-5.7,5.3-11.2,10.5-14.2"/><path class="cls-1" d="M59.9,167.4c7.4,41.5,33.8,101.9,35,105.3,0,0,0,0,0,0"/><path class="cls-1" d="M111.7,270.5c-1,4.1-1.7,11.8-2.7,14.7,0,0,0,.2-.1.3"/><path class="cls-1" d="M95.8,272.5c.2,3.8.3,11.3.4,13.9"/><path class="cls-1" d="M163.8,204.7c5.9.7,14.5,2.7,23.4,6.1"/><path class="cls-1" d="M197.9,198.1c-.2,0-.4-.1-.5-.2-6.7-2.3-15.8-5.5-22.4-7.7-.2,0-.3-.1-.5-.2-.2,0-.3-.1-.5-.2"/><path class="cls-1" d="M115.7,164.8c-.6,0-1.1-.2-1.6-.3s-1-.2-1.4-.4c0,0,0,0,0,0-3.9-1.1-6.9-3.1-15.4-4.8-4.8-1-9.4-1.7-13.6-2.2-12.9-1.4-22.7,0-24,7.8"/><path class="cls-2" d="M106.5,95.6s0,0,0,0c-3.5,5.4-18.6,11.9-19.8,11.2-2.1-1.2-2-8.1-2.6-14.1v-.3"/><path class="cls-2" d="M86.7,106.8c-1,1.9-1.8,3.6-2.5,5.2-.3.7-.6,1.4-.9,2.2-1.4,3.7-2.3,7.1-3.6,12.1"/><path class="cls-2" d="M79.1,143.7c.1,1.5.3,2.9.7,4.1.3.9.6,1.8,1,2.6.6,1.3,1.3,2.6,2,4,.3.6.6,1.1.9,1.7"/><path class="cls-2" d="M38.5,108.1c1.8,5.7,5.6,10.7,10.7,13.9"/><path class="cls-2" d="M110.1,128.2c3.1-.9,6.3-1.6,9.5-1s6.2,2.6,7.3,5.6c-.2,0-.3,0-.5-.1"/><path class="cls-1" d="M95.9,286.5c-1.9,3.5-3.3,6.9-4.3,10.6-.1.4-.2.8-.3,1.2-.2,1-.4,2,0,3,.6,1.3,2.1,1.9,3.5,2.4,11.6,4.2,15.9,6.1,28.1,8.4,4,.8,8.3,1.3,12-.2,1.6-.6,2.5-1.5,3-2.5.6-1.4.3-3.2-.8-5.2-.8-1.6-2.5-2.4-4-3.5-2.2-1.5-4.2-2.8-6.1-4.1-2.7-1.8-5.2-3.4-7.8-5.1-2.9-1.9-6-3.9-9.6-6.3"/><path class="cls-1" d="M91.4,297.1c0,0,.1,0,.2.1,7,3.4,14.4,6.1,22,8.2,2.5.7,5.1,1.3,7.7,1.8,5.1,1,10.4,1.7,15.6,2"/><path class="cls-1" d="M118.9,291.8c1.1.6,1.2,2.3.9,3.5-.7,3.4-2.7,6.6-5.5,8.7,0,0-.3.2-.5.3-.1,0-.2.1-.3.2"/><path class="cls-1" d="M126.4,296.4c.2.1.3.2.5.4,1,.9,1.4,2.4,1.1,3.7-.3,1.5-1.3,2.8-2.5,3.7-1.2.9-2.7,1.6-4.1,2.2"/><path class="cls-1" d="M218.1,194.3c-3.2.5-6.2.9-9.3,1.4-3.5.5-7.1,1.1-11.3,1.7"/><path class="cls-1" d="M187.9,210.8c1.1,1.7,2.4,4.2,4.2,7.5.2.4.4.7.6,1.1.5.9,1,1.8,2,2.2,1.3.6,2.9,0,4.2-.6,11.5-4.7,15.9-6.1,26.5-12.5,3.5-2.1,7-4.6,8.8-8.2.7-1.4.9-2.7.5-3.7-.4-1.6-1.9-2.7-4.1-3.5-1.7-.6-3.5-.1-5.3.1-2.6.4-5,.7-7.2,1.1"/><path class="cls-1" d="M191.9,218.3c0,0,.1,0,.2,0,7.5-2.1,14.8-5,21.7-8.6,2.4-1.2,4.8-2.5,7.1-3.9,4.5-2.7,8.8-5.6,12.9-8.9"/><path class="cls-1" d="M208.9,196c1.3-.3,2.4.9,3,2,1.7,3,2.4,6.7,1.7,10.2,0,.1-.2.7-.2.9"/><path class="cls-1" d="M217.5,194.4c.2,0,.4,0,.6,0h0c1.3,0,2.6.8,3.3,2,.8,1.3.9,3,.6,4.5-.3,1.5-.9,2.9-1.6,4.3"/><path class="cls-2" d="M117.8,96.8c-1.9.4-3.8.7-5.6,1.1-1.6.3-3.1.6-4.7.9,2.1,1.5,3.6,3.8,4.1,6.3-6.5-1.9-14.1-1-20.3,2.1-2.6,1.3-5,3-7,5,0,0,0-.1,0-.2-.3-2.7-1.1-5.3-2.4-7.7-.8-1.5-1.9-2.9-3.1-4.2-1.2-2-2.9-3.7-4.9-4.9,1.8-1,3.8-1.8,5.8-2.2-1.3-1.6-3.1-2.7-5.1-3.4-.8-.3-1.6-.4-2.4-.5,2.6-1.2,5.2-2.2,7.8-2.8,2.1-.5,4.4-.9,6.7-1"/><path class="cls-2" d="M81.8,104.3c-2,2.6-3.7,5.5-5,8.5,2.2.3,4.4.7,6.6,1.3,1.9.6,3.8,1.3,5.6,2.1.7-2.9,1.5-5.8,2.5-8.6"/><path class="cls-2" d="M112.2,98c2.7,2.8,4.4,6.5,4.9,10.4,2.7-.9,5.7-.9,8.4.2,0,0,0,0,0,0"/><path class="cls-2" d="M74.6,89.8c-3.7-.2-7.1.3-10.2,2.2-.4-1.5-1.2-2.8-2.2-4,0,0-.1-.1-.2-.2"/><path class="cls-2" d="M126.3,115.4c-1-.2-2-.4-3-.3-1,.1-2,.5-2.7,1.3-.5.7-.7,1.5-.9,2.3-.2.8-.4,1.6-1,2.2-.6.6-1.6.8-2.2.2v2.4c3.6-.3,7.5-.5,10.6,1.3"/><path class="cls-1" d="M40.4,105.7h0c0,1.2.7,2.4,1.7,3,.2-.8,1.5-.6,2.1-1.2.5-.6.2-1.5-.2-2.1s-.9-1.5-.5-2.2"/><path class="cls-2" d="M40.4,105.6h0"/><path class="cls-2" d="M61.7,119.8s0,0,.1,0c4.6,3.9,9.5,4.6,15.2,6,.7.2,1.4.3,2.1.5,0,0,.1,0,.2,0,.1,0,.2,0,.3,0,9,2.3,20.1,3,30,2.1"/><path class="cls-2" d="M60.5,131.9c1.1,2.9,2.6,5.6,4.4,8.1.4.5.8,1,1.4,1.3.5.2,1.1.2,1.5-.1,0,0,.2-.1.2-.2"/><path class="cls-2" d="M88.1,143.4c0,0,.1.1.2.2,2.3,2.2,4.8,4.4,7.9,4.5,2.6,0,4.9-1.4,6.8-3,.1-.1.3-.2.4-.4"/><path class="cls-2" d="M74.9,144c-1,.7-.7,2.4.3,3.1,1,.7,2.3.7,3.5.7.4,0,.7,0,1.1,0,.9,0,1.9,0,2.8,0,.5,0,1,0,1.4-.3.6-.4.8-1.2.7-1.9-.1-.7-.5-1.3-.9-1.9"/><path class="cls-2" d="M80.7,150.4c-2.5-.3-5-.4-7.4-.7-.8,0-1.6-.2-2.3,0-.8.2-1.5.7-1.7,1.4-.3.9.3,2,1.2,2.5.8.5,1.9.6,2.9.6,3.1.1,6.3,0,9.4.2,2.3.2,4.5.5,6.6,1.3.7.3,1.4.6,2.2.6.8,0,1.6-.3,1.8-1,.4-1-.6-2-1.5-2.4-3.4-1.5-7.2-2.1-11.1-2.5Z"/><path class="cls-2" d="M112.5,152.2c0,0-.1,0-.2,0-2.7-.8-5.7-.5-8.2.9-.4.2-.9.6-1,1.1,0,.5.4,1,.9,1.2.5.2,1.1,0,1.6,0,2.6-.2,5.2.5,7.5,1.8,0,0,.1,0,.2.1"/><path class="cls-2" d="M71.6,128.7c-2.6-.4-5.2-1.2-7.5-2.5-.2,1.1-.5,2.2-.7,3.3.6-.7,1.9-.5,2.5.2.6.7.8,1.7.8,2.7,0,.9-.1,1.9,0,2.8.2.9.7,1.7,1.5,2.1,0,0,.1,0,.2,0"/><path class="cls-2" d="M64.6,114.6c-.5.7-1,1.6-.7,2.5.3.7.9,1.1,1.6,1.3,2.6,1.2,5.5,1.7,8.3,1.5.3-2.9,0-5.9-1.1-8.7-1.6-4.3-6.7,1.4-8.2,3.4Z"/><path class="cls-2" d="M90.8,121.5c-.3.5-.6,1.1-.4,1.6.2.5.8.7,1.4.8,3.6.7,7.4,1.1,11.1,1,.5,0-1.5-9-4.2-9.7-3.5-.9-6.3,3.8-7.9,6.2Z"/><path class="cls-1" d="M87.3,81.7c-9.5-5.1-12.8-24.5-5.2-42.3,2.3-5.4,8.1-11.8,13.4-14.3,5-2.3,7.6-1.9,12.9-.3,5.7,1.7,11.4,3.7,16.9,6,5.1,2.1,9.1,3.5,12.1,8.1,3,4.5.5,15.1-3.5,21.8-.1.2-.2.4-.3.5"/><path class="cls-1" d="M135.5,56.1c-.5,1.9-1.1,3.4-1.6,4.7-1.3,3-2.6,4.4-3.1,6-.6,2-1.9,13.6-8.3,20.7,0,0-4.1,5.4-9,7.5-1.1.5-2.2.8-3.4.8-1.3,0-2.5,0-3.6-.2-8-1.1-12.7-6.8-15.6-11.3-1.7-2.7-2.9-4.3-3.8-6.5-.4-1-.7-2.1-1-3.5-.2-.9,0-4.5.3-7.2,0,0,0,0,0,0"/><path class="cls-1" d="M120.4,75.9c-3.1,2.5-6.1,1.7-10.7-.8"/><path class="cls-1" d="M124.4,67.6c-.3,1.5,0,2.8.9,2.9.8.2,1.8-.9,2.1-2.3.3-1.5,0-2.8-.9-2.9-.8-.2-1.7.9-2.1,2.3Z"/><path class="cls-1" d="M106.8,63.4c-.3,1.4.1,2.7,1,2.9.8.2,1.8-.8,2.1-2.2.3-1.4-.1-2.7-1-2.8-.9-.2-1.8.8-2.1,2.2Z"/><path class="cls-1" d="M116.6,82.8c-5.7-.6-9.5-2.7-14.4-6-.4-.2-.8-.5-1.1-.7"/><path class="cls-1" d="M116.6,82.8c-3.4,9.6-16.8,2.4-14.7-5.7"/><path class="cls-1" d="M86.5,75.6c.3.7.5,1.5.7,2.3.2,1.2.2,2.5.2,3.8,0,1.2-.2,2.4-.5,3.6-.6,3.1-1.7,6-2.7,7.4,0,0,0,0,0,.1"/><path class="cls-1" d="M88.5,66.6c-.8.5-1.4.7-2.1.6-.4,0-.8-.2-1.3-.4-1.4-.6-2.6-3.9-2.7-5.4s-.3-5.3,2.5-7.2c2.3-1.6,4.8.4,5.2,1.9.7,2.4.2,1.4.6,2.8,0,.4,5.5-15,10.6-19,4.8-3.7,12.5,2.8,14.8,4.1,6.3,3.4,8.5,3.4,15.3,2.9,3.6-.3,5.3,5.7,4.4,9.2,0,0,0,0,0,.1"/><path class="cls-1" d="M102.6,55c0,.4,8.6,1.4,10.9,2.1.8.3,3-3.2-.3-4.4-3.5-1.3-10.2-2.7-10.6,2.3Z"/><path class="cls-1" d="M125,61.4c.7.4,4.4,2.2,5.1,2.5.9.4,1.1-1.8,1.2-2.8s-3.5-4.1-5.2-3.8c-1.5.2-3.1,3-1.2,4.1Z"/></svg>