<?xml version="1.0" encoding="UTF-8"?><svg id="oceania" xmlns="http://www.w3.org/2000/svg" width="235" height="321.9" viewBox="0 0 235 321.9"><defs><style>.cls-1{fill:#2b3135;}.cls-1,.cls-2,.cls-3,.cls-4,.cls-5,.cls-6,.cls-7,.cls-8,.cls-9,.cls-10,.cls-11,.cls-12,.cls-13,.cls-14,.cls-15,.cls-16,.cls-17,.cls-18{stroke-linecap:round;stroke-linejoin:round;}.cls-1,.cls-2,.cls-4,.cls-6,.cls-7,.cls-8,.cls-9,.cls-13,.cls-14,.cls-17,.cls-18{stroke:#000;}.cls-2,.cls-3{fill:#339fca;}.cls-3,.cls-5,.cls-10,.cls-11,.cls-12,.cls-15,.cls-16{stroke:#231f20;}.cls-4,.cls-5{fill:#dfd4e6;}.cls-6,.cls-12{fill:#d13a0f;}.cls-7,.cls-11{fill:#cbc21d;}.cls-8{fill:#d4dfe7;}.cls-9,.cls-10{fill:#9e5a3c;}.cls-13,.cls-15{fill:#ea3b82;}.cls-14{fill:#fff;}.cls-16,.cls-17{fill:none;}</style></defs><path class="cls-12" d="M90.8,93.3c-.3.6-1.1,1-1.8,1-1.7-.1-2.9,1.4-2.3,2.8.2.5.8,2.2.7,2.7-.2,1.3-3,.7-3.8,1.9-.4.6-.1,1.3-.2,2-.1,1-1,1.7-2.1,2.1-.6.2-1.3.3-2,.4-.7,0-1.3.4-1.6,1-.5.9-1.3,1.6-2.4,1.9-1.2.2-1.8,0-2.7-.1-.4,0-.8,0-.9.4-.3.7-1.9,1.7-2.7,1.9-1.1.2-1.9-.4-2.9-.9-1-.4-2.1-.8-3.1-.7-1,.1-2,.8-3,.7-1.7-.2-2.6-2.2-4.3-2.3-1.3,0-2.4,1.1-3.7,1-1.9-.2-2.5-2.8-4.4-3-1.2-.2-2.5.7-3.5.1-1-.6-.6-2-1.5-2.7-1.2-1-3.7.5-4.8-.6-.6-.5,0-3.8-3.3-4.3-1.1-.2-.9-1.8-.8-3.5.1-.4-1.9-2.1-2.7-2.3h0c3.4-3.5,6.1-5.6,7.3-5.4-.9.5-1.9,3.6-.9,3.8,3,.5,2.5,3.8,3,4.3,1.1,1.1,3.2-.4,4.4.6.8.7.5,2.2,1.4,2.7.9.6,2.1-.3,3.2-.2,1.7.2,2.3,2.8,4,3,1.2.1,2.2-1.1,3.4-1,1.5,0,2.3,2.1,3.9,2.3.9.1,1.8-.5,2.7-.7,1-.1,1.9.3,2.8.7.9.4,1.7,1,2.6.9.8-.1,2.2-1.1,2.4-1.8,0-.3.5-.4.8-.4.8.2,1.4.4,2.5.1,1-.2,1.8-1,2.2-1.9.3-.6.8-.9,1.5-1,.6,0,1.2-.1,1.8-.4.9-.4,1.8-1.1,1.9-2.1,0-.7-.2-1.4.2-2,.7-1.1,3.2-.5,3.5-1.9,0-.5-.5-2.2-.7-2.7-.6-1.4.6-2.9,2.1-2.7,1,.2,2.4,1.5,4,3.4,0,0,0,0,0,0,.4.5.5,2.3.2,2.9Z"/><path class="cls-12" d="M96.8,221.9c-.4-3.1-.8-6.8-1.2-10.8h0c-1.5-12.8-3.3-28.8-5.3-38.4-.4-1.8-.8-3.4-1.2-4.7-.1-.6-.2-1.3-.4-1.9,0-.1,0-.2,0-.4h0c-.7-3.5-1.2-6.9-1.8-10-2.1-12.9-2.9-23.1-2.2-29.4.2-1.4.4-2.6.7-3.6,0-.2.1-.4.2-.6.5-1.1,1.3-2.4,2.1-4.2.2-.6.5-1.2.7-1.9,1-3,1.8-7.2,1.4-13.7-.3,1.3-3.3.7-4.2,1.9-.4.6-.1,1.3-.2,2-.1,1-1.1,1.7-2.2,2.1-.7.2-1.4.3-2.2.4-.8,0-1.4.4-1.8,1-.5.9-1.4,1.6-2.6,1.9-1.3.2-2,0-3-.2-.4,0-.8,0-.9.4-.3.7-2,1.7-2.9,1.8-.1,0-.3,0-.4,0-.1,0-.2,0-.3,0,0,0-.1,0-.2,0-.1,0-.3,0-.4-.1,0,0,0,0-.1,0-.5-.2-1.1-.5-1.7-.7-.5-.2-1-.4-1.5-.5,0,0-.2,0-.3,0-.2,0-.4,0-.7-.1h0s0,0-.1,0c-.1,0-.2,0-.3,0s-.3,0-.5,0c-1.1.1-2.1.8-3.3.6-1.8-.2-2.8-2.2-4.7-2.3-1.4,0-2.6,1.1-4.1,1-2.1-.1-2.7-2.8-4.8-3-1.3-.1-2.8.7-3.8.1-.5-.2-.7-.6-.8-1.1-.9,1.1-1.7,2.1-2.5,3,.4.9,1.1,3.1,1.7,5.3.8,2.5,1.5,5.1,1.5,6.1,0,1.1.2,2.4.3,3.6.4,3.9.8,8.1.7,11-.5,7.8-3.2,12.9-3.5,16.8l-.3.5c1.8.8,2.9,2.1,2.4,4.4,2.1,2.2,4,4.8-.7,5.9.2.6.3,1.1.2,1.6-.2,1.3-1.3,2.2-2.4,2.4.5.6.5,1.3.2,1.8-.5.8-1.8,1.4-2.5,1.4,0,.5,0,.9-.2,1.2-.3.7-1,1-1.9.9-.4,3.6-1.4,9.1-2.6,15.1-.7,3.6-1.6,7.5-2.4,11.3-3,13.7-6.2,26.8-6.2,26.8,3,1.2,5.9,2.2,8.8,3,6.5,1.8,13.1,2.7,20.7,2.4,2.7,0,5.5-.3,8.4-.6,4,0,7.7,0,11.1.1,8.4.2,15.2.3,20.9-.9,1.5-.3,2.9-.7,4.2-1.1-.3-1.5-.6-4.1-1-7.4Z"/><path class="cls-12" d="M81.5,87.4c.2.5.7,2.2.6,2.7-.2,1.3-2.4.7-3,1.9-.3.6,0,1.3-.2,2,0,.9-.8,1.7-1.6,2.1-.5.2-1,.3-1.6.4-.6,0-1,.4-1.3,1-.4.9-1,1.6-1.9,1.9-.9.2-1.4,0-2.1-.1-.3,0-.6,0-.7.4-.2.7-1.5,1.7-2.1,1.8-.8.2-1.5-.4-2.3-.9-.8-.4-1.6-.9-2.5-.7-.8.1-1.5.8-2.3.7-1.3-.2-2-2.2-3.3-2.3-1,0-1.9,1.1-2.9,1-1.5-.2-2-2.8-3.5-3-.9-.2-2,.7-2.8.2-.8-.6-.5-2.1-1.2-2.7-1-1-2.9.5-3.8-.6-.4-.5,0-3.8-2.6-4.3-.9-.1-.2-1.5.6-2,2.3-.3,4.7-.6,6.8-.8v.5c.8,2.9,2.9,5.4,5.5,7.1,2.6,1.7,5.7,2.5,8.8,2.9,3.7.5,7.6.3,10.9-1.4,3.3-1.7,5.8-5.9,5.3-9.4,1.5.2,3.1.4,4.4.6-1.1,0-1.8,0-1.4,1.3Z"/><path class="cls-12" d="M101.4,106.9c-1.8-3-3.5-5.9-5.2-8.6-.9-1.4-1.8-2.8-2.7-4,.3.5.3,1.1,0,1.5-.3.6-1.2,1-1.9,1-1.8-.2-3.2,1.4-2.5,2.7.2.5.9,2.2.8,2.7.4,6.5-.4,10.7-1.4,13.7.5.5.8,1.2.9,2,1.1-.3,2.1-.7,3.1-1.1,4.1-1.9,7.4-5.4,8.9-9.5h.2c0-.2-.1-.3-.2-.4Z"/><path class="cls-6" d="M41.7,107.3h0c-.9,1.1-1.7,2.1-2.5,3-1.4,1.6-2.8,3.1-4.3,5.1-.3.4-.6.8-1.1.8-.5,0-1-.3-1.4-.6-2.8-2.4-5.6-4.7-8.3-7.1-.2-.2-.4-.3-.6-.5-1.2-1.1-2.5-2.1-3.7-3.1h0c1.8-2.2,3.7-4.5,5.5-6.5,1-1.2,2-2.3,3-3.3.9.2,3,1.9,2.8,2.2,0,1.7-.3,3.3.9,3.5,3.6.5,3,3.8,3.6,4.3,1.3,1.1,3.9-.4,5.2.6.6.4.7,1.1.9,1.7Z"/><path class="cls-9" d="M80.7,65.3c-.8-3.5-1.3-7-1.9-10.5-1,0-1.5-1.2-1.5-2.8s.2-1.8.6-2.3c-.3-1.7-.7-3.5-1.2-5.2-.4.1-1.2.2-1.6.2-1.1,0-1.9-.7-1.9-1.4,0-.6,1.2-1.4,2.5-1.7-1.9-5.2-4.9-9.9-9.5-13-2.9-1.9-5-1.3-8.1,0-3.1,1.3-5.8,3.2-8.1,5.6-4.7,4.9-8.9,11.5-6.6,18-1.5-1-3.5-.7-4.9.3-.9.6-1.5,1.5-1.6,2.6-.3,2.9,3.5,7.3,6.2,6.3.6,2.1,1.2,3.8,2,5.5,1.2,2.4,2.6,4.4,4.5,6.9,1.7,1.6,3.3,3,4.8,4.1h0c7.6,5.8,12.6,6.1,16.6,4.1,2.8-1.4,5-4.1,7.2-6.7,1.3-1.6,2.3-2.5,4.2-6.4-.9-.9-1.3-2.3-1.6-3.5ZM49.7,44.2c-.7.2-1.3-.4-.8-.8.3-.3.7-.5,1.1-.8.9-.7,2.3-1.2,3.7-1.4,2.1-.4,9-.6,8,1.7-.2.5-1,1-1.8,1.1-.8.1-1.7,0-2.5-.2-2.3-.3-5.4-.3-7.7.4ZM56.5,55.4c-.9,0-1.6-1.4-1.6-3.2s.7-3.2,1.6-3.2,1.6,1.4,1.6,3.2-.7,3.2-1.6,3.2ZM69,73.7c-1.9.3-5-.5-6.9-1.8-1.8-1.2-1.8-.5-4-3.8,1.1,1.1,11.6,3.6,16.8,1.3-1.4,2.5-2.8,3.9-5.9,4.3Z"/><path class="cls-10" d="M73.1,95c-3.3,1.7-7.2,1.9-10.9,1.4-3.1-.4-6.2-1.3-8.8-2.9-2.6-1.7-4.7-4.2-5.5-7.1v-.5c2.6-.3,5-.5,6.4-.7,0-.7,0-1.4,0-2.1,0-1.5,0-3,0-5.3,7.6,5.8,12.6,6.1,16.6,4.1,0,.4-.7,1.5,0,2.8h0c1.7.3,4.6.5,7.5.9.5,3.6-2,7.7-5.3,9.4Z"/><path class="cls-17" d="M71.8,85.8c-.4-.4-.7-.7-.9-1"/><path class="cls-18" d="M78.8,54.7c-1,0-1.5-1.2-1.5-2.8s.2-1.8.6-2.3c.3,1.7.6,3.4.9,5.1Z"/><path class="cls-17" d="M78.6,49.2c-.3,0-.5.2-.7.4"/><path class="cls-18" d="M58.2,52.2c0,1.8-.7,3.2-1.6,3.2s-1.6-1.4-1.6-3.2.7-3.2,1.6-3.2,1.6,1.4,1.6,3.2Z"/><path class="cls-17" d="M74.4,61.2c0,4.6-4.1,2.9-8.5,3.7"/><path class="cls-14" d="M74.9,69.4c-1.4,2.5-2.8,3.9-5.9,4.3-1.9.3-5-.5-6.9-1.8-1.8-1.2-1.8-.5-4-3.8,1.1,1.1,11.6,3.6,16.8,1.3Z"/><line class="cls-17" x1="38.1" y1="87.2" x2="38.1" y2="87.2"/><line class="cls-16" x1="40.4" y1="87.3" x2="40.2" y2="86.5"/><line class="cls-16" x1="41.8" y1="165.5" x2="41.7" y2="165.5"/><path class="cls-16" d="M39.3,110.3c0-.1,0-.2-.1-.3"/><path class="cls-10" d="M107.4,148.8c-4.2,4.5-8,7.6-9.8,13.2-.8,2.4-1.3,4.5-2.1,6.9-1.1,3.1-3.3,3.3-5.2,3.8h-.1c-.4-1.8-.8-3.4-1.2-4.7-.1-.6-.2-1.3-.4-1.9,0-.1,0-.2,0-.4h0c-.7-3.5-1.2-6.9-1.8-10,1.7-1.8,6.7-7.5,7.7-8.8,1.5-1.8,2.8-3.4,3.9-5.5,1.4-2.8,2.5-5.5,4.2-7.8l-.3-.2c-.6.6-7.6-14-9.9-16.7,4.1-1.9,7.4-5.4,8.9-9.5h.2c6,10.1,11.5,20.7,12.4,22.1,4.9,7.6-.8,13.3-6.5,19.3Z"/><path class="cls-16" d="M102.3,133.4s0,0,0,0"/><path class="cls-16" d="M106.9,129.4c-1.9,1.3-3.3,2.7-4.4,4.3"/><path class="cls-16" d="M18.5,130.1s0,0,0,0"/><path class="cls-10" d="M41.5,164c.2.6.3,1.1.2,1.6-.2,1.3-1.3,2.2-2.4,2.4.5.6.5,1.3.2,1.8-.5.8-1.8,1.4-2.5,1.4,0,.5,0,.9-.2,1.2-.3.7-1,1-1.9.9-2.4-.2-6.1-2.5-7.1-3.5-2.2-2.1-5.6-6.7-4.2-9.9-2.8-4-7.4-9.6-10.5-13.2-4.2-4.9-11.9-15.8-8.7-21.4,1.3-2.3,8.1-11.5,15.4-20.3h0c1.2,1.1,2.5,2.1,3.7,3.2.2.2.4.4.6.5,2.8,2.4,5.6,4.7,8.3,7.1,0,0-3.3,3.7-5.4,5.7-1.5,1.4-7.2,7.5-8.6,8.8h0c1.4,1.8,2.3,3,4,6.6,1.9,4,3.2,12.5,8.6,15.1h0c2.2.6,6.1.7,8.6,1.9,1.8.8,2.9,2.1,2.4,4.4,2.1,2.2,4,4.8-.7,5.9Z"/><path class="cls-16" d="M18.5,130.1c-.7-.9-1.6-2-2.8-3.5"/><path class="cls-16" d="M31.8,152.1c-.3,0-.5-.2-.8-.3"/><path class="cls-16" d="M42.2,158c-.9-1-1.9-1.8-2.4-2.4"/><path class="cls-16" d="M42.2,158s0,0,0,0"/><path class="cls-16" d="M34.9,172.8v.2h0"/><path class="cls-16" d="M70.9,84.7c-.2,0-.4,0-.5,0"/><path class="cls-5" d="M84.5,89.7c.2.5.8,2.2.7,2.7-.2,1.3-2.7.7-3.5,1.9-.4.6-.1,1.3-.2,2-.1,1-.9,1.7-1.9,2.1-.6.2-1.2.3-1.8.4-.6,0-1.2.4-1.5,1-.4.9-1.2,1.6-2.2,1.9-1.1.2-1.6,0-2.5-.1-.3,0-.7,0-.8.4-.2.7-1.7,1.7-2.4,1.8-1,.2-1.7-.4-2.6-.9-.9-.4-1.9-.9-2.8-.7-.9.1-1.8.8-2.7.7-1.5-.2-2.3-2.2-3.9-2.3-1.2,0-2.2,1.1-3.4,1-1.7-.2-2.3-2.8-4-3-1.1-.1-2.3.7-3.2.2-.9-.6-.6-2-1.4-2.7-1.1-1-3.3.5-4.4-.6-.5-.5,0-3.8-3-4.3-1-.2,0-3.3.9-3.8.7-.1,1.4-.2,2.2-.3.3,0,.5,0,.8-.1-.8.5-1.5,1.8-.6,2,2.6.5,2.1,3.8,2.6,4.3.9,1.1,2.8-.4,3.8.6.7.7.4,2.2,1.2,2.7.8.6,1.8-.3,2.8-.2,1.5.2,2,2.8,3.5,3,1,0,1.9-1.1,2.9-1,1.3,0,2,2.1,3.3,2.3.8,0,1.5-.5,2.3-.7.9-.1,1.7.3,2.5.7.8.4,1.4,1.1,2.3.9.7-.1,1.9-1.1,2.1-1.8,0-.3.4-.4.7-.4.7.2,1.2.4,2.1.1.9-.2,1.5-1,1.9-1.9.2-.6.7-.9,1.3-1,.5,0,1.1-.1,1.6-.4.8-.4,1.5-1.1,1.6-2.1,0-.7-.2-1.4.2-2,.6-1.2,2.8-.5,3-1.9,0-.5-.4-2.2-.6-2.7-.4-1.2.3-1.3,1.4-1.3h0c1.6.2,2.9.5,3.7.8-1.5-.1-2.7,1.4-2.1,2.7Z"/><path class="cls-9" d="M53.3,231.7h0c-.4,4.2-.3,7.4-1,16.9-1,14.1-6.7,31.7-6.7,46.2.3.5.5,1.1.6,1.7.2,1,0,2-.4,2.8-.5.8-1.1,1.5-1.8,2.2h0c-5,.8-10.1,1.5-15.1,2-.9,0-1.8.2-2.6-.2-.9-.5-1.3-1.6-1.2-2.6,0-.9.5-1.7.9-2.5,3.2-2.1,5.9-4.1,7.9-5.6.3-17.4-6-34-2.3-50.8,1.1-5.1,1.3-8.7,1.1-12.5,6.5,1.8,13.1,2.7,20.7,2.4Z"/><path class="cls-17" d="M32.6,229.3c0-.3,0-.6,0-.9"/><path class="cls-1" d="M89.1,61.5c-.8,2.1-2.9,8.5-5.1,8.2-.7,0-1.2-.4-1.7-.9-.9-.9-1.3-2.3-1.6-3.5-.8-3.5-1.3-7-1.9-10.5-.3-1.7-.5-3.4-.9-5.1-.3-1.7-.7-3.5-1.2-5.2,0-.1,0-.2-.1-.3-.2-.8-.5-1.7-.8-2.5-1.9-5.2-4.9-9.9-9.5-13-2.9-1.9-5-1.3-8.1,0-3.1,1.3-5.8,3.2-8.1,5.6-4.7,4.9-8.9,11.5-6.6,18-1.5-1-3.5-.7-4.9.3v-.2c-4.8-10.7-1.2-24.4,8.1-31.4,7-5.3,17.4-5.7,25.6-2.8,9,2.7,15.7,10.8,18.2,19.8,2.5,9,1.9,14.8-1.4,23.6Z"/><path class="cls-17" d="M49.9,74.2c-.1-.1-.2-.3-.3-.5"/><path class="cls-1" d="M61.7,42.9c-.2.5-1,1-1.8,1.1-.8.1-1.7,0-2.5-.2-2.3-.3-5.4-.3-7.7.4-.7.2-1.3-.4-.8-.8.3-.3.7-.5,1.1-.8.9-.7,2.3-1.2,3.7-1.4,2.1-.4,9-.6,8,1.7Z"/><path class="cls-1" d="M76.7,44.5c-.4.1-1.2.2-1.6.2-1.1,0-1.9-.7-1.9-1.4,0-.6,1.2-1.4,2.5-1.7.3.8.6,1.7.8,2.5,0,.1,0,.2.1.3Z"/><path class="cls-17" d="M75.9,41.6c0,0-.1,0-.2,0"/><path class="cls-9" d="M99.9,302.9c-.9,1.2-2.8,1.3-4.4,1.2-4.1-.1-8.2-.3-12-1.4-1.1-1.3-1.9-2.8-2.4-4.5-.2-.7-.3-1.5-.4-2.3,0-14.5-5.7-32.1-6.7-46.2-.7-9.7-.7-13.6-1.3-18.5,8.4.2,15.2.3,20.9-.9-.1,3.8,0,7.5,1.2,12.6,3.7,16.8-2.6,33.4-2.3,50.8,1.8.8,3.8,1.7,5.9,2.8v.2c.7.8,1.3,2.3,1.7,3.2.4,1,.5,2.1-.2,3Z"/><path class="cls-17" d="M88.4,115.9c0,0-.1-.1-.2-.2"/><path class="cls-17" d="M83.3,86.2c-.2,0-.3,0-.4,0"/><path class="cls-4" d="M93.5,95.7c-.3.6-1.2,1-1.9,1-1.8-.2-3.2,1.4-2.5,2.7.2.5.9,2.2.8,2.7-.3,1.3-3.3.7-4.2,1.9-.4.6-.1,1.3-.2,2-.1,1-1.1,1.7-2.2,2.1-.7.2-1.4.3-2.2.4-.8,0-1.4.4-1.8,1-.5.9-1.4,1.6-2.6,1.9-1.3.2-2,0-3-.2-.4,0-.8,0-.9.4-.3.7-2,1.7-2.9,1.8-.1,0-.3,0-.4,0-.1,0-.2,0-.3,0,0,0-.1,0-.2,0-.1,0-.3,0-.4-.1-.6-.2-1.2-.5-1.8-.7-.5-.2-1-.4-1.5-.5,0,0-.2,0-.3,0-.2,0-.4,0-.7-.1h0c-.1,0-.3,0-.4,0s-.3,0-.5,0c-1.1.1-2.1.8-3.3.6-1.8-.2-2.8-2.2-4.7-2.3-1.4,0-2.6,1.1-4.1,1-2.1-.1-2.7-2.8-4.8-3-1.3-.1-2.8.7-3.8.1-.5-.2-.7-.6-.8-1.1h0c-.2-.6-.3-1.3-.9-1.7-1.4-1-4,.5-5.2-.6-.6-.5,0-3.8-3.6-4.3-1.2-.2-1-1.8-.9-3.5.2-.4-2-2-2.8-2.2.8-.9,1.7-1.8,2.5-2.6h0c.7.2,2.8,2,2.7,2.4,0,1.7-.3,3.3.8,3.5,3.3.5,2.7,3.8,3.3,4.3,1.2,1.1,3.6-.4,4.8.6.9.7.5,2.2,1.5,2.7,1,.6,2.3-.3,3.5-.1,1.9.2,2.5,2.8,4.4,3,1.3.1,2.4-1.1,3.7-1,1.7,0,2.6,2.1,4.3,2.3.1,0,.3,0,.4,0,0,0,0,0,.1,0,0,0,.1,0,.2,0,0,0,.1,0,.2,0,.3,0,.6-.2.9-.3.2,0,.4-.1.5-.2.2,0,.4-.1.6-.1,1.1-.1,2.1.3,3.1.7,1,.4,1.8,1.1,2.9.9.1,0,.2,0,.3-.1.2,0,.3-.1.5-.2.4-.2.8-.4,1.1-.7,0,0,.1,0,.2-.1,0,0,.1-.1.2-.2.1,0,.2-.2.3-.3,0,0,0,0,0-.1,0,0,0,0,0-.1.1-.3.5-.4.9-.4.9.2,1.6.4,2.7.1,1.1-.2,1.9-1,2.4-1.9.3-.6.9-.9,1.6-1,.7,0,1.4-.1,2-.4,1-.4,1.9-1.1,2.1-2.1,0-.7-.2-1.4.2-2,.8-1.1,3.6-.5,3.8-1.9,0-.5-.5-2.2-.7-2.7-.6-1.4.7-2.9,2.3-2.8.7,0,1.5-.4,1.8-1,.3-.6.2-2.3-.2-2.9.9,1,1.8,2.3,2.7,3.6,0,0,0,0,0,0,0,0,0,0,0,0,0,0,0,0,0,0,.3.5.3,1.1,0,1.5Z"/><path class="cls-17" d="M93.3,94c0,0,0-.1-.1-.2"/><path class="cls-17" d="M93.4,94.2s0,0,0,0"/><path class="cls-17" d="M28.3,95s0,0,0,0"/><line class="cls-17" x1="88.7" y1="166" x2="88.6" y2="165.7"/><line class="cls-17" x1="88.7" y1="166" x2="88.7" y2="166"/><path class="cls-17" d="M42.9,125.3s0,0,0,0"/><path class="cls-17" d="M41,115.6h-.1"/><path class="cls-15" d="M101.4,106.9l-.3.2c-.6.1-1.4-.1-2-.6-.6-.5-1.1-1.1-1-1.7-.7.9-2.4.9-3.1,0-.3-.4-.4-.9-.3-1.4.1-.6.6-1.3,1.3-1.5-1.1-.7-1.3-2.3-.4-3.2.3-.3.2-.4.6-.5h0c1.7,2.7,3.5,5.6,5.2,8.6Z"/><path class="cls-11" d="M87.7,117.8c-.8,1.8-1.6,3.1-2.1,4.2-.3-.3-.7-.4-1-.4,1-.9,1-2.5.2-3.5.3-.6,1.1-.5,1.8-.5.4,0,.7,0,1.1.2h0Z"/><path class="cls-3" d="M96.8,221.9h-.8c0,0-.2-.3-.2-.4-.7,1.5-3,2-4.3.9-.3-.2-.5-.6-.7-.9-.5-1.1-.2-2.6.9-3.3-.8,0-1.7-1.3-1.8-2.5,0-.4,0-.7.2-1.1.2-.4.5-.6.8-.8,0,0,0,0,0,0,0,0,0,0,0,0,1.4-.6,3.4.5,3.4.5,0,0,0-2.3,1-3.2h.2c.5,4,.9,7.7,1.2,10.8Z"/><path class="cls-11" d="M51.6,211.3h-.1c-1.1.6-2.5.5-3.5-.3-.5-.4-.8-.9-1.3-1.2-.7-.5-1.6-.7-2.4-.5.3-.4,1.2-2.9,3.6-4.1,1.8-.8,2.3-.2,2.2,0,0,0,0,0,0,0-.5.4-.8.9-.8,1.5-.1,1.4,1.4,2.7,2.8,2.4-.6.5-.7,1.5-.5,2.4Z"/><path class="cls-7" d="M88.7,166c-.4,0-.8.2-1.1.5-.2.3-.3.6-.5.9-.4.6-1,1.1-1.8,1.2-.8.1-1.5,0-2.1-.6h0c.6-1.1.4-2.7-.3-3.1,1.3-.1,2.3-1.3,2.4-2.5h.2c.7-.3,1,0,1.6.6.6.5,1,1.1,1.4,1.7l.2.8h0c0,.2,0,.3,0,.4Z"/><path class="cls-7" d="M53.1,148.7h-.2c-.5.6-.9.4-1.6.2-.7-.2-1.4-.6-2-1-.7-.3-1.4-.6-2.1-.5.9-.2,1.8-.6,2.1-1.4,0-.3,0-.7,0-1,0-.7.5-1.4,1.1-1.8.6-.4,1.4-.5,2.2-.3h0c0,1.2.7,2.6,1.6,2.7-1.1.6-1.6,2.1-1.2,3.2Z"/><path class="cls-2" d="M65.2,146.4s0,0,0,0c-.5.6-1.4,1-2.2.9.8,1.3,0,3.2-1.4,3.7-1.5.5-3.2-.5-3.5-2-.8,1.4-3.1,1.7-4.3.6-.3-.3-.5-.6-.6-.9-.4-1.2,0-2.6,1.2-3.2-.8,0-1.6-1.4-1.6-2.7,0-.4,0-.7.3-1,1.3-2,4.2,0,4.2,0,0,0,1.1-3.3,3.2-2.8.8.2,1.5.9,1.9,1.7h0c.4.8.5,1.8,0,2.4,1.3-.6,3.1.3,3.3,1.7,0,.6-.1,1.1-.5,1.6Z"/><path class="cls-7" d="M69.9,141.1c-.2.4-.5,3.1-2.6,4.8-1.5,1.2-2.1.7-2.1.6s0,0,0,0c.4-.4.6-1,.5-1.6-.2-1.4-2-2.3-3.3-1.7.5-.6.4-1.6,0-2.4h.1c.9-.8,2.4-1,3.5-.5.5.3,1,.7,1.5.9.8.4,1.7.3,2.5,0Z"/><path class="cls-7" d="M70,141.1s0,0,0,0c0,0,0,0,0,0Z"/><path class="cls-13" d="M82.8,165.1c.7.4.9,1.9.3,3-.2.4-.4.6-.7.8-2,1.3-3.9-1.7-3.9-1.7,0,0-2.4,2.6-4.1,1.3-.6-.5-1-1.4-1-2.3,0-.9.3-1.8,1-2.2-1.5,0-2.7-1.5-2.3-2.9.2-.6.6-1,1.1-1.3,0,0,0,0,0,0,.8-.4,1.7-.4,2.4,0-.2-1.5,1.3-2.9,2.8-2.8,1.6.1,2.8,1.7,2.4,3.2,1.4-1,3.6-.4,4.2,1.2.1.3.2.7.2,1.1-.1,1.2-1.1,2.4-2.4,2.5Z"/><line class="cls-17" x1="88.7" y1="166" x2="88.7" y2="166"/><path class="cls-7" d="M74.4,164c-.7.4-1,1.3-1,2.2h-.1c-1.2.4-2.6,0-3.3-1-.4-.4-.6-1-1-1.4-.6-.6-1.4-1-2.3-.9.4-.3,1.7-2.7,4.4-3.4,1.8-.5,2.2.1,2.2.3,0,0,0,0,0,0-.5.3-.9.7-1.1,1.3-.4,1.4.8,2.9,2.3,2.9Z"/><path class="cls-7" d="M66.5,162.9s0,0,0,0c0,0,0,0,0,0Z"/><path class="cls-2" d="M85.6,122c0,.2-.2.4-.2.6-.3,1-.6,2.2-.7,3.6-1,0-2-.3-2-.3,0,0-.2,3.5-2.4,3.5-.8,0-1.7-.5-2.3-1.2-.6-.7-1-1.6-.7-2.3-1.1.9-3.1.4-3.7-.9-.2-.6-.2-1.2,0-1.7.3-.8,1.1-1.3,1.9-1.4-1.1-1.1-.9-3.1.4-3.9,1.3-.8,3.3-.3,3.9,1.1.4-1.6,2.6-2.4,4.1-1.6.3.2.6.4.8.7.8,1,.8,2.6-.2,3.5.3,0,.7,0,1,.4Z"/><path class="cls-7" d="M78,128.2h0c-.7,1.1-2,1.6-3.2,1.3-.6-.1-1.1-.4-1.7-.5-.8-.1-1.7,0-2.4.6,0-.4-.2-2.1.5-3.8.2-.2.3-.3.4-.5.2-.3.4-.7.5-1.1,1.1-1.3,1.8-1.1,1.8-.9-.2.5-.3,1.1,0,1.7.6,1.3,2.5,1.8,3.7.9-.3.7,0,1.6.7,2.3Z"/><path class="cls-17" d="M73.7,123.3s0,0,0,0"/><path class="cls-7" d="M71.9,124.2h-.1c-.4.6-.6,1.1-.8,1.6"/><path class="cls-7" d="M70.4,129.7s0,0,0,0c0,0,0,0,0,0Z"/><line class="cls-17" x1="51.2" y1="126.1" x2="51.2" y2="126.1"/><path class="cls-13" d="M54.3,121c-.3,1.2-1.6,2.1-2.8,2.1.6.5.5,2.1-.3,3-.2.3-.5.6-.9.7-2.2.9-3.5-2.3-3.5-2.3,0,0-2.4,1.8-4,.9-.1-1.3-.2-2.5-.3-3.6,0-1-.8-3.6-1.5-6.1,1.7-.1,2.1.5,2,.7.8-.2,1.8-.1,2.3.5.1-1.5,1.8-2.6,3.3-2.3,1.5.4,2.4,2.2,1.8,3.6,1.5-.7,3.6.3,3.9,1.9,0,.4,0,.8,0,1.1Z"/><path class="cls-7" d="M41.6,117.3c.3-.5.8-.9,1.3-1,0,0,0,0,0,0"/><path class="cls-17" d="M42.9,125.3s0,0,0,0"/><path class="cls-7" d="M58.5,125.3c-.8-.3-1.9-.5-2.5,0-.3.2-.4.5-.7.8-.5.6-1.2.9-2,.9s-1.5-.4-2-.9h0c.7-1,.9-2.6.3-3.1,1.3,0,2.5-.9,2.8-2.1h.2c.7-.1.9.3,1.4.8.5.6.8,1.2,1.1,1.9s.8,1.3,1.4,1.6Z"/><path class="cls-17" d="M43,116.2s0,0,0,0"/><path class="cls-17" d="M41,115.6h-.1"/><path class="cls-2" d="M52.7,178.8c-.3.5-.8.9-1.3,1.1h0c-.8.3-1.8.2-2.4-.4,0,1.5-1.8,2.7-3.3,2.3-1.5-.3-2.4-2.1-1.8-3.5-1.5.8-3.6-.2-4-1.8,0-.4,0-.8,0-1.1.3-1.2,1.5-2.2,2.8-2.1-.7-.5-.5-2,.2-3,.2-.3.5-.6.8-.7,2.2-.9,3.5,2.2,3.5,2.2,0,0,2.8-2.2,4.3-.6.6.5.7,1.5.6,2.4-.1.9-.6,1.8-1.3,2,1.4.2,2.4,1.9,1.8,3.2Z"/><path class="cls-7" d="M42.8,173.2c-1.3,0-2.5.9-2.8,2.1h-.2c-.7.1-1-.3-1.5-.8-.5-.5-1.1-1.6-1.4-2.3h-.1c.1-.4.2-.7.2-1.2.7,0,2-.5,2.5-1.4h0c.5-.6.7-.4,1.4-.4s1.5.3,2,.9h0c-.7,1-.8,2.6-.2,3.1Z"/><path class="cls-7" d="M58.4,177.9c-.4.3-2.2,2.4-4.9,2.6-2,.2-2.2-.6-2.1-.7h0c.6-.2,1.1-.5,1.3-1.1.6-1.3-.3-3-1.8-3.2.7-.3,1.2-1.1,1.3-2h.1s0,0,0,0c1.2-.2,2.5.4,3.1,1.5.3.5.5,1.1.8,1.6.4.7,1.2,1.2,2.1,1.3Z"/><path class="cls-17" d="M58.4,177.9s0,0,0,0t0,0s0,0,0,0c0,0,0,0,0,0"/><line class="cls-17" x1="86.8" y1="190.9" x2="86.7" y2="190.9"/><path class="cls-2" d="M86.7,192c-.9,2.1-4.2.7-4.2.7,0,.2-.5,3.4-2.6,3.3-.8,0-1.6-.6-2.2-1.4-.6-.8-.8-1.7-.5-2.4-1.2.8-3.1.2-3.6-1.1-.2-.6,0-1.2.2-1.7.4-.7,1.2-1.3,2-1.3-1-1.1-.7-3.1.7-3.9,1.3-.8,3.3,0,3.8,1.3.5-1.6,2.8-2.3,4.2-1.4.3.2.6.5.8.8.6,1.1.5,2.6-.5,3.4.8-.1,1.8,1.1,2,2.3,0,.4,0,.8,0,1.1Z"/><path class="cls-7" d="M89.6,187.2c0,.3,0,.7,0,1,0,.7-.2,1.5-.8,2-.5.5-1.3.8-2.1.7h0c-.2-1.2-1.2-2.4-2-2.3,1-.8,1.1-2.3.5-3.4h.2c.4-.7.8-.6,1.6-.5.8,0,1.4.4,2.2.6.7.2,1.5.4,2.2.2-.8.4-1.7.9-1.8,1.8Z"/><path class="cls-7" d="M77.6,194.8h0c-.8.9-2.1,1.4-3.3,1-.6-.2-1.1-.5-1.7-.6-.8-.2-1.8,0-2.4.5.1-.5-.2-3.1,1.6-5.2,1.2-1.4,2-1.1,2-1-.3.5-.4,1.1-.2,1.7.5,1.3,2.4,1.9,3.6,1.1-.3.7,0,1.6.5,2.4h-.1Z"/><path class="cls-17" d="M73.8,189.5s0,0,0,0"/><path class="cls-7" d="M70.1,195.7s0,0,0,0c0,0,0,0,0,0Z"/><line class="cls-17" x1="61.5" y1="211.4" x2="61.5" y2="211.4"/><path class="cls-13" d="M60.6,208.5c.8.2,1.2,1.7.9,2.9h0c-.1.4-.3.7-.5.9-1.7,1.6-4.1-.9-4.1-.9,0,0-1.8,3-3.8,2.1-.7-.3-1.2-1.2-1.4-2.1-.2-.9,0-1.8.5-2.4-1.4.3-3-1-2.8-2.4,0-.6.4-1.1.8-1.5,0,0,0,0,0,0,.7-.5,1.6-.7,2.4-.4-.4-1.4.7-3.1,2.2-3.3,1.5-.2,3.1,1.2,3,2.7,1.1-1.2,3.5-1,4.4.4.2.3.3.7.4,1.1.1,1.2-.6,2.5-1.9,2.9Z"/><path class="cls-7" d="M68,208.1c-.9,0-1.9.2-2.4.9-.2.3-.2.7-.3,1-.2.7-.8,1.3-1.5,1.6-.7.3-1.5.2-2.2-.2h0c.3-1.2-.1-2.7-.9-2.9,1.2-.4,2-1.7,1.9-2.9h.2s0,0,0,0c.6-.4,1-.1,1.6.2.7.3,1.2.9,1.7,1.4.6.5,1.2.9,2,1Z"/><path class="cls-7" d="M44.2,209.3s0,0,0,0c0,0,0,0,0,0Z"/><path class="cls-7" d="M99,106.5h0c-.4,1-1.3,1.6-2.3,1.6-.5,0-1-.1-1.5,0-.7,0-1.4.4-1.8.9,0-.4-.9-2.4,0-4.4.6-1.4,1.3-1.3,1.3-1.2,0,.5,0,1,.3,1.4.7.9,2.4,1,3.1,0,0,.6.4,1.3,1,1.7Z"/><path class="cls-17" d="M94.6,103.3s0,0,0,0"/><path class="cls-7" d="M93.3,109s0,0,0,0c0,0,0,0,0,0Z"/><path class="cls-2" d="M29.8,104.2c0,.3-.1.6-.3.9-.6.8-1.7,1.3-2.7,1,.4.5-.1,1.7-1,2.3-.2.2-.5.3-.8.4-.3,0-.6,0-.9-.1-.2-.2-.4-.3-.6-.5-1.2-1.1-2.5-2.1-3.7-3.1h0c1.8-2.2,3.7-4.5,5.5-6.5h0c.5,0,1,0,1.4.3,1.1.6,1.3,2.3.5,3.2,1.4-.2,2.8,1,2.6,2.3Z"/><path class="cls-7" d="M24.2,108.5c-.3-.1-.5-.3-.6-.5-.6-.8-.7-1.9-.7-1.9,0,0-.4.2-1,.3"/><path class="cls-7" d="M31.7,109.4c-.6-.4-1.3-.8-2-.6-.3.1-.5.3-.7.5-.5.3-1.2.4-1.8.3-.6-.2-1.1-.6-1.4-1.2h0c.8-.6,1.3-1.9,1-2.4,1,.4,2.2-.1,2.7-1h.1c.6,0,.7.5.9,1,.2.5.3,1.1.4,1.7,0,.6.3,1.2.7,1.6Z"/><line class="cls-17" x1="37.7" y1="191.8" x2="37.7" y2="191.8"/><path class="cls-13" d="M38,197.1c-.3.5-.8.9-1.3,1,0,0,0,0,0,0-.8.2-1.7.1-2.3-.5-.1,1.5-1.8,2.7-3.3,2.3-.3,0-.5-.2-.7-.3h-.4c.8-3.9,1.6-7.8,2.4-11.4h.2c.4.6.3,1.7.3,1.7,0,0,2.8-2.1,4.3-.6.5.6.7,1.5.6,2.4-.2.9-.6,1.8-1.4,2,1.4.2,2.4,2,1.7,3.2Z"/><path class="cls-7" d="M43.7,196.3c-.4.2-2.2,2.3-4.9,2.5-1.9.2-2.2-.6-2.1-.7,0,0,0,0,0,0,.6-.2,1.1-.5,1.3-1,.7-1.3-.3-3-1.7-3.2.8-.3,1.2-1.1,1.4-2h.1s0,0,0,0c1.2-.1,2.5.5,3.1,1.5.3.5.4,1.1.7,1.6.4.7,1.2,1.2,2.1,1.3Z"/><path class="cls-17" d="M43.7,196.3h0,0c0,0,0,0,0,0,0,0,0,0,0,0"/><line class="cls-17" x1="90.9" y1="213.8" x2="90.7" y2="213.8"/><path class="cls-7" d="M90.8,221.4h-.2c-.4.7-.9.5-1.6.3-.7-.1-1.4-.5-2.1-.8-.7-.3-1.4-.5-2.2-.4.8-.3,1.8-.7,2-1.6,0-.3,0-.7,0-1,0-.7.4-1.5,1-1.9.6-.5,1.4-.6,2.2-.5h0c0,1.2,1,2.5,1.8,2.5-1.1.7-1.4,2.2-.9,3.3Z"/><path class="cls-1" d="M54.4,83.1h-.3c-3,2.4-7.6,2.3-10.6-.1-2.9-2.4-3.8-7-2-10.4,1.2-2.3,3.4-3.1,3.5-5.7,1.2,2.4,2.6,4.4,4.5,6.9,1.7,1.6,3.3,3,4.8,4.1h0c0,2.2,0,3.8,0,5.3Z"/><path class="cls-9" d="M112.3,306.4c.1,2.1-2.2,2.8-4.4,3.3,0,0,0,0,0,0v-.3c-1.3-2.1-2.5-4.2-3.8-6.3-.3-.5-.7-1.1-.7-1.7,0-.6.2-1.3.8-1.6v-.2c1.9.9,3.6,1.8,5,2.6,1.6.8,3,2.6,3.1,4.2Z"/><path class="cls-9" d="M21.3,304.4c0,1.2-.6,2.3-1.3,3.3-.8,1-1.6,1.9-2,3h0c-.7-.3-1.3-.9-1.7-1.6-.6-1.2-.4-2.8.3-4,.1-.2.2-.4.4-.6.9-1.3,2.3-2.4,3.8-3.2,0,0,0,0,.1,0-.1,1,.5,2.1.6,3.1Z"/><path class="cls-9" d="M35.9,307c-3.3,1.6-6.7,2.7-10.8,3.9-.9.3-1.9.5-2.9.7,1.1-2.1,3.4-3.5,5.8-4.2,2.5-.7,5.2-.6,7.8-.6v.2Z"/><path class="cls-1" d="M44,301.5c-.4.4-.9.8-1.3,1.1-2.3,1.8-4.5,3.2-6.8,4.3v-.2c-2.7,0-5.4,0-7.9.6-2.4.6-4.7,2.1-5.8,4.2-.6,0-1.3,0-2,0-.8,0-1.6-.3-2.3-.7h0c.4-1.2,1.3-2.1,2-3.1.8-1,1.4-2.1,1.3-3.3,0-1.1-.7-2.1-.6-3.1,1.9-1,3.6-2.1,5.2-3.1-.4.8-.8,1.6-.9,2.5,0,1,.3,2.1,1.2,2.6.8.4,1.7.3,2.6.2,5.1-.5,10.1-1.2,15.1-2h0Z"/><path class="cls-17" d="M43.9,301.5c-.3,0-.5.1-.8.2"/><path class="cls-17" d="M26.1,297.9c0,.1-.1.2-.2.3"/><path class="cls-17" d="M20.8,300.8c0,.2-.1.4-.1.5"/><path class="cls-17" d="M22.1,311.5c0,0,0,.2-.1.3"/><path class="cls-17" d="M83.4,302.7c-.2,0-.4-.1-.6-.2"/><path class="cls-17" d="M105.2,310.2s0,0,0,0"/><path class="cls-17" d="M91.4,308.2c-.2,0-.4.1-.6.2"/><path class="cls-1" d="M40.6,308.8c-4.5,3.1-10,5-15.6,5.5-2.6.2-5.4.5-7.6-.9-2.9-1.8-3.5-5.8-1.1-8.2h0c-.7,1.3-.9,2.8-.3,4,.4.7,1,1.3,1.7,1.6.7.4,1.5.6,2.3.7.7,0,1.3,0,2,0,1-.1,1.9-.4,2.9-.7,4.2-1.2,7.6-2.3,10.8-3.9,2.3-1.1,4.5-2.5,6.8-4.3.4-.4.9-.7,1.3-1.1.7-.7,1.4-1.4,1.8-2.2.4-.8.5-1.8.4-2.8h0c1.9,4.9-1.2,9.1-5.7,12.3Z"/><path class="cls-1" d="M107.8,309.7c-.9.2-1.8.4-2.7.4h0c-3.8-2.1-9.4-3.2-13.7-1.9-3.2-1.3-6.1-3.1-8-5.5,3.9,1.1,8,1.3,12,1.4,1.6,0,3.5,0,4.4-1.2.7-.8.6-2,.2-3-.4-1-1-2.5-1.8-3.2v-.2c2,1,4.1,2,6,3v.2c-.7.3-1,1-.9,1.6,0,.6.4,1.2.7,1.7,1.2,2.1,2.5,4.2,3.7,6.3v.3Z"/><path class="cls-9" d="M105.1,310.1c-4.5.5-9.4-.2-13.7-1.9,4.3-1.3,9.9-.2,13.7,1.9Z"/><path class="cls-1" d="M111.4,312.4c-1.9,1.4-4.6,1.6-7,1.4-5.7-.4-11.2-2.3-16.2-4.9-2.3-1.1-4.5-2.4-6-4.4-1.4-1.8-2-4.3-1.1-6.3.4,1.6,1.2,3.1,2.4,4.5,1.9,2.3,4.8,4.2,8,5.5,4.3,1.7,9.2,2.4,13.7,1.9h0c.9,0,1.8-.2,2.7-.4,0,0,0,0,0,0,2.2-.5,4.5-1.2,4.4-3.3,1.8,1.6,1.1,4.6-.8,6Z"/><path class="cls-17" d="M81.3,297.8c0,.2-.2.3-.2.5"/><path class="cls-17" d="M52.1,85c1.9,11.1,7.1,21.7,14.7,30.2,3.5-4.1,5.2-9.5,5.7-14.9s-.2-10.7-.8-16.1"/><path class="cls-8" d="M71.4,125.5c-.8,1.3-2.6,1.8-4.1,1.4-1.5-.4-2.7-1.6-3.3-2.9-.6-1.4-.6-2.9-.3-4.4.3-1.5,1.3-3.7,3.2-3.9,2-.3,2.8,2.2,3.5,3.5.6,1,1.1,2,1.4,3.1s.2,2.3-.4,3.3Z"/></svg>