<?xml version="1.0" encoding="UTF-8"?><svg id="oceania" xmlns="http://www.w3.org/2000/svg" width="235" height="321.9" viewBox="0 0 235 321.9"><defs><style>.cls-1{stroke-linecap:round;stroke-linejoin:round;}.cls-1,.cls-2{fill:none;stroke:#000;}.cls-2{stroke-miterlimit:10;}.cls-3,.cls-4,.cls-5,.cls-6,.cls-7,.cls-8,.cls-9,.cls-10{stroke-width:0px;}.cls-4{fill:#f3eccf;}.cls-5{fill:#6bc297;}.cls-6{fill:#353638;}.cls-7{fill:#d7ad75;}.cls-8{fill:#a76541;}.cls-9{fill:#fff;}.cls-10{fill:#eebede;}</style></defs><path class="cls-7" d="M142.5,63.8c.8,1.7.6,3.5-.4,5.2-2.5,3.9-1.4,5.5-2.1,8.8l.2.7c-2.1,2.2-3.8,2.2-5.2,1.5-1.2-.6-2.1-1.8-2.7-2.6-1.2-1.7-2.6-3.9-4.7-3.9-1.9,0-3.6,1.9-5.4,1.3-2.3-.8-2.5-5.1-5-4.9-1.6.1-2.2,2.2-3.7,2.7-1.5.5-3-.8-4.1-1.9-1.1-1.1-2.9-2.2-4.2-1.3-1.3.9-1,2.9-2.1,4.1-.7.8-1.9.9-3,.9-1.1,0-2.3,0-3.1.8-1.3,1.1.2,2.2-.2,3.3-.5,1.3-2,2.7-3.3,3-1.3.3-2.4-.8-3-2-.7-1.6-2.8-2-4.1-1.1-1.4.9-2.1,2.7-2.3,4.4-.3,3.1.9,6.5,3.4,7.8.4.2.9.4,1.4.4h0c.3,1.4.5,3.5.7,5.8-3.7,1-5.4-6.2-8.5-6.5-2.7-.3-3.2-4.8-2.7-7.5.3-1.5,1.1-3.4,0-4.4-.9-.8-1.3-2.2-2.3-2.7-1.9-.9-1.8-3.7-.8-5.5,1-1.8,1.6-1.7,1.7-3.8.2-3.3-3.3-6.5-1.8-9.5.9-1.8,3.4-2.3,4.7-3.9,1.1-1.2,1.3-3,1.4-4.6.1-1.6,1.4-2.3,2.4-3.6.9-1.3,3-2.1,4.2-1,6.7-.4,6.2-6.2,10.5-4,2.5,1.3,4.4,1.5,8,.3,1.8-.6,3.6-1.6,5.5-1.3,2.7.5,4.5,3.4,7.3,3.7,2.9.4,5.8-1.4,8.1.4,2.2,1.8,1.1,5,3.2,6.8,1.6,1.3,5.9,1.8,7.4,3.2,1.9,1.8.6,4.1,1.4,6.5.6,1.7,2.3,2.7,3,4.3Z"/><path class="cls-8" d="M89.8,96.8c-.2-2.3-.5-4.4-.7-5.8h0c-.5,0-1-.2-1.4-.4-2.5-1.3-3.8-4.7-3.4-7.8.2-1.7.9-3.5,2.3-4.4,1.4-.9,3.5-.5,4.1,1.1.5,1.2,1.7,2.3,3,2,1.3-.3,2.8-1.8,3.3-3,.4-1.1-1.1-2.1.2-3.3.8-.7,2-.8,3.1-.8,1.1,0,2.3-.1,3-.9,1.1-1.1.8-3.2,2.1-4.1,1.3-.9,3.1.2,4.2,1.3,1.1,1.1,2.6,2.4,4.1,1.9,1.5-.5,2.2-2.6,3.7-2.7,2.4-.2,2.6,4.1,5,4.9,1.8.6,3.5-1.2,5.4-1.3,2.1,0,3.5,2.2,4.7,3.9.6.8,1.5,2,2.7,2.6h0c-1.3,4.3-3.3,7.7-4,10-.6,1.9-.6,9.9-8,17.9,0,0-4.3,5.1-8.2,5.7-.4,0-1.1,0-2.1-.2,0,0,0,0-.1,0,0,0,0,0,0,0-2.3,1-5.9,5.3-8.9,7.2-4.8,3.9-13.6-1.7-14.1-10.3h0c.3-.7.4-1.9.5-3.5.1-2.8,0-6.6-.4-9.9ZM108.9,99.1l-.2.3c-1.5,7.6,8.7,11.9,11.3,4.4-4.4-.5-7.3-2.1-11.1-4.7ZM128.6,88.7c.3-1.4,0-2.7-.9-2.9-.8-.2-1.7.8-2.1,2.3-.3,1.4,0,2.7.9,2.8.8.2,1.7-.8,2.1-2.2ZM112.8,85.1c.3-1.4-.1-2.6-.9-2.8-.9-.2-1.8.8-2.1,2.1-.3,1.4.1,2.6,1,2.8.8.2,1.8-.8,2.1-2.1Z"/><path class="cls-8" d="M216,210.3c1.8.8,2.6,2.8,2.4,4.8h-.4c-3,2-6.1,3.9-9.3,5.7v-.2c.2-3.7-1.5-7.5-4.3-9.8,2.4-.3,4.9-.5,7.5-.7,1.4-.1,2.8-.2,4,.3Z"/><path class="cls-6" d="M218,215.1h.4c0,.9-.3,1.8-.8,2.5-1.4,2.6-4.1,4.2-6.7,5.6-8,4.2-16.6,7.2-25.1,10.1-1,.4-2.2.7-3.1.2h-.4c0-.7,0-1.4,0-2.1h.2c4.2-1.1,8.2-2.5,12.2-4,4.8-1.9,9.5-4.1,14-6.6,3.2-1.8,6.3-3.7,9.3-5.7Z"/><path class="cls-6" d="M208.7,220.6v.2c-4.4,2.5-9.1,4.7-13.9,6.6l-.2-.4c-.1-4.3-1.7-8.6-4.4-11.9-.5-.6-1.1-1.5-.6-2.1l-.6-.2c0-.1.2-.3.2-.4,5.3-.5,10.1-1,15.1-1.5,2.8,2.4,4.5,6.1,4.2,9.8Z"/><path class="cls-8" d="M194.6,227l.2.4c-4,1.6-8.1,2.9-12.2,4h-.2c.5-5.4,3.8-13.8,6.7-18.8l.6.2c-.5.6,0,1.5.6,2.1,2.7,3.4,4.2,7.6,4.4,11.9Z"/><path class="cls-6" d="M70.5,183.1c0-1.3,0-2.6.1-4,1.5-9.8,15.4-6.5,31.9-2.9,8.2,1.8,10.4,3.9,14.5,4.9.3,0,.6.1,1,.2,4.1,1.3,9.5,3,12.2,4.2,1.3.6,61.7,23.5,61.3,23.8-.7.6-1.5,1.7-2.3,3,0,.1-.2.3-.2.4-3,5-6.2,13.4-6.7,18.8,0,.7-.1,1.4,0,2,0,.3-54.8-21.8-56.7-22-.4,0-.9-.1-1.4-.2-8.5-1.1-28.6-4.5-37.3-6.2-2.2-.6-4-1.1-5.2-1.6-4.7-2.4-10.9-8.8-11.2-20.4Z"/><path class="cls-8" d="M137,302.7c1.7,1.9.9,5-1,6.8h0c-2.2.2-4.4.2-6.7.2v-.5c.2-3.1,1.5-6.1,3.5-8.5v-.2c.3,0,.6.2.8.3,1.3.5,2.6,1,3.5,2Z"/><path class="cls-6" d="M136,309.5h0c-.2.2-.4.4-.6.6-2.4,1.7-5.5,2-8.4,2.2-9,.4-18.7-3.1-27.7-4.1-1.1-.1-2.3-.3-2.9-1.1-.5-.6-.5-1.4-.5-2.1,0-.4,0-.8,0-1.1h.4c5.4,1.6,11.2,3.1,17,4.2,5.4,1,10.8,1.7,15.9,1.8,2.3,0,4.6,0,6.7-.2Z"/><path class="cls-6" d="M132.8,300.5v.2c-2.1,2.4-3.4,5.4-3.6,8.5v.5c-5.1-.1-10.5-.8-15.9-1.8v-.5c.7-4.2,2.5-8.3,5.3-11.5v-.4c.8-.1,1.7-.3,2.7-.5,4,2,7.7,4,11.5,5.5Z"/><path class="cls-10" d="M70.9,134.5c0-.4,0-.8.1-1.3-4.7,4.3-10.9,9.4-13.3,11.2-.4-.2-.8-.5-1.2-.7-4-2.8-6.9-7.9-7.7-10.5-.2-.6-.3-1.1-.3-1.4.1-1,13.7-15.3,14.5-16,4.1-3.8,7.1-6.8,12.6-7.8,1.8-.4,8.4-2.2,14.1-1.4h.4c0,1.6-.2,2.8-.5,3.5h0c.5,8.7,9.3,14.3,14.1,10.3,3-1.9,6.6-6.2,8.9-7.2,0,0,.1,0,.2,0,3.8,1.9,11.9,5.3,13.3,8.9,4.2,10.5,6.1,29.1,5.6,29.6-.2.2-.8.1-1.7-.2-3.3-1-10.5-4.4-15-3.5-8.8,2.4-10,1.9-14.4,2.5,1.1-1.4,2-3,2.5-4.7,1-3.1,1.1-6.7,3.3-9.1-1.3.5-2.8.4-4.2.1-1.4-.3-2.7-.8-4.1-1.1-4.5-1-9.4.6-12.6,4h0c-.2,0-.4,0-.6,0-2,0-3.8,2.5-3.5,4.9-1.4-1.9-4.4-1.5-5.4.7-1,2.2.1,5.4,2.2,6-1.3.9-1.7,3.2-.9,4.8.2.3.4.6.6.9,0,.7,0,1.3,0,1.7,1,2.6,10.6,2.3,13.2,1.4,10.9,1.2,16.9,3,24.7,1.7-.8,3,1.2,13.9,1.3,18.8h0c-4.1-.9-6.3-3-14.5-4.8-16.6-3.6-30.4-6.9-31.9,2.9-.1,1.4-.2,2.8-.1,4-3.4-12.7-1.7-24.4.4-48.6h0Z"/><path class="cls-8" d="M77.7,157.4c.3-3.2,2.4-9.2,4.5-11.8.4-.5.8-.9,1.2-1.1,1-.5,2.9,0,5,.8,2.1.8,4.3,2.1,5.8,3.4,1.1,1,1.8,1.9,1.9,2.7h0c1.9-.3,3.3-.5,4.5-.6,4.4-.6,5.6,0,14.4-2.5,4.5-.9,11.7,2.5,15,3.5v.3c-.3,1.6-.6,3.2-1.2,4.5-1,2.1-2.2,2.2-3.1,2.9-3.8,1.5-7,2.3-9.9,2.8-7.8,1.2-13.8-.5-24.7-1.7-2.6.9-12.2,1.2-13.2-1.4-.1-.4-.2-.9,0-1.7Z"/><path class="cls-3" d="M127.7,85.8c.8.2,1.2,1.4.9,2.9-.3,1.4-1.3,2.4-2.1,2.2-.8-.2-1.2-1.4-.9-2.8.3-1.4,1.3-2.4,2.1-2.3Z"/><path class="cls-6" d="M124.2,211.3c2.7,9.6,4.4,11.9,4.4,19.4,0,1.2-5.6,62.9-5.7,64-.5,0-1,.2-1.5.3-1,.2-1.9.3-2.8.5-7.3,1.2-12,1.7-21.7.7-.4,0-.7,0-1.1-.1-.5-1.3,8.3-63.7,7.3-66.5-2.4-6.5-10.8-17.1-16.2-24.4,8.7,1.8,28.8,5.2,37.3,6.2Z"/><path class="cls-8" d="M118.5,295.5v.4c-2.7,3.2-4.6,7.3-5.2,11.5v.5c-5.9-1.1-11.6-2.6-17-4.2h-.4c0-2.7.3-4.8,1-7.5,9.6,1,14.4.5,21.7-.7Z"/><path class="cls-10" d="M118.1,181.3c-.3,0-.7-.1-1-.2h0c.3,0,.6.1,1,.2Z"/><path class="cls-9" d="M120,103.8c-2.6,7.5-12.7,3.2-11.3-4.4l.2-.3c3.8,2.5,6.7,4.2,11.1,4.7Z"/><path class="cls-3" d="M111.9,82.3c.8.2,1.3,1.4.9,2.8-.3,1.4-1.3,2.3-2.1,2.1-.9-.2-1.3-1.4-1-2.8.3-1.4,1.3-2.3,2.1-2.1Z"/><path class="cls-5" d="M102.1,137.1c1.4.3,2.9.4,4.2-.1-2.2,2.4-2.3,6-3.3,9.1-.5,1.7-1.4,3.3-2.5,4.7-1.2.2-2.6.4-4.5.8h0c0-.9-.8-1.9-1.9-2.8.4-.7.6-1.6.4-2.4-.3-1.3-1.5-2.1-2.7-2.2-1.1,0-2.2.4-3.3.9.1-2.2-1.4-4.4-3.2-4.8h0c3.2-3.5,8.1-5.1,12.6-4.2,1.4.3,2.7.8,4.1,1.1Z"/><path class="cls-4" d="M94.6,146.2c.2.8,0,1.7-.4,2.4-1.5-1.3-3.7-2.6-5.8-3.4v-.3c1.2-.5,2.3-1,3.4-.9,1.1,0,2.4.9,2.7,2.2Z"/><path class="cls-4" d="M85.4,140.1c1.8.4,3.3,2.5,3.2,4.8v.3c-2.2-.8-4.1-1.2-5.1-.8-.4.2-.8.6-1.2,1.1l-1-.6c-.3-2.4,1.5-4.9,3.5-4.9.2,0,.4,0,.6,0Z"/><path class="cls-4" d="M81.2,145l1,.6c-2.1,2.6-4.2,8.7-4.5,11.8-.2-.3-.4-.5-.6-.9-.8-1.6-.5-3.9.9-4.8-2.1-.6-3.2-3.9-2.2-6,1-2.2,3.9-2.5,5.4-.7Z"/><path class="cls-8" d="M41.7,165.6h0c2.4.7,4.7,9.6,3.1,11.5-1.7,2.1-11.4,3-13,1.8-1.9-1.3.2-9,1.5-11,2.7-12.2,5.2-17.9,11.4-28.8,1.4-2.4,2.7-4.6,4-6,.9,2.6,3.7,7.7,7.7,10.5-3.2,2.5-1.9,1.4-3.2,2.4-4.7,8.5-8.2,12.5-11.6,19.5Z"/><path class="cls-1" d="M71.1,133.2s0,0,0,0c-4.7,4.3-10.9,9.4-13.3,11.2-.4-.2-.8-.5-1.2-.7-4-2.8-6.9-7.9-7.7-10.5-.2-.6-.3-1.1-.3-1.4.1-1,13.7-15.3,14.5-16,4.1-3.8,7.1-6.8,12.6-7.8,1.8-.4,8.4-2.2,14.1-1.4"/><path class="cls-1" d="M48.8,133.3c-1.2,1.4-2.6,3.6-4,6-6.3,10.8-8.8,16.6-11.4,28.8"/><path class="cls-1" d="M56.5,143.7c-3.2,2.5-1.9,1.4-3.2,2.4-4.7,8.5-8.2,12.5-11.6,19.5,0,.2-.2.4-.3.5"/><path class="cls-1" d="M41.7,165.7c2.4.6,4.7,9.5,3.1,11.5-1.7,2.1-11.4,3-13,1.8-1.9-1.3.2-9,1.5-11"/><path class="cls-1" d="M113.5,138.1c0,4.9.7,7.4,1,10.2.2,0,.3,0,.5-.1,4.5-.9,11.7,2.5,15,3.5.9.3,1.5.4,1.7.2.5-.5-1.4-19.1-5.6-29.6-1.5-3.6-9.5-7-13.3-8.9,0,0,0,0-.1,0-.2-.1-.4-.2-.6-.3"/><path class="cls-1" d="M125.6,159.3c-3.8,1.5-7,2.3-9.9,2.8-7.8,1.2-13.8-.5-24.7-1.7"/><path class="cls-1" d="M114.9,148.2c-8.8,2.4-10,1.9-14.4,2.5-1.2.2-2.6.4-4.5.8-.2,0-.5,0-.7.1"/><path class="cls-1" d="M96.1,151.3c0-.8-.8-1.8-1.9-2.7-1.5-1.3-3.7-2.6-5.8-3.4-2.1-.8-4-1.2-5-.8-.4.2-.8.6-1.2,1.1-2.1,2.6-4.2,8.7-4.5,11.8,0,.7,0,1.3,0,1.7,1,2.6,10.6,2.3,13.2,1.4"/><path class="cls-1" d="M129.9,152c-.2,1.6-.5,3.2-1.2,4.5-1,2.1-2.2,2.2-3.1,2.9"/><path class="cls-1" d="M70.9,134.5c-2.1,24.2-3.8,35.8-.4,48.6,0,.3.2.6.3,1"/><path class="cls-1" d="M115.8,162.1s0,0,0,0c-.8,3,1.2,13.9,1.3,18.8h0"/><path class="cls-1" d="M86.9,205.1c8.7,1.8,28.8,5.2,37.3,6.2.5,0,1,.1,1.4.2,1.9.2,56.7,22.3,56.7,22,0-.6,0-1.3,0-2,.5-5.4,3.8-13.8,6.7-18.8,0-.1.2-.3.2-.4.8-1.3,1.6-2.4,2.3-3,.3-.3-60-23.2-61.3-23.8-2.7-1.3-8.1-2.9-12.2-4.2-.3-.1-.7-.2-1-.3-1.4-.4-2.6-.8-3.4-1.1"/><path class="cls-1" d="M81.7,203.5c1.1.5,2.9,1,5.2,1.6"/><path class="cls-1" d="M86.9,205.1c5.4,7.4,13.8,17.9,16.2,24.4,1,2.8-7.7,65.2-7.3,66.5.4,0,.7,0,1.1.1,9.6,1,14.4.5,21.7-.7.9-.1,1.8-.3,2.8-.5.5,0,1-.2,1.5-.3,0-1.1,5.7-62.9,5.7-64,0-7.5-1.7-9.8-4.4-19.4"/><path class="cls-1" d="M70.6,179.1c-.1,1.4-.2,2.8-.1,4,.3,11.7,6.5,18.1,11.2,20.4"/><path class="cls-1" d="M182.7,233.6c.9.5,2.1.1,3.1-.2,8.5-2.9,17.1-5.9,25.1-10.1,2.6-1.4,5.3-3,6.7-5.6.4-.8.7-1.6.8-2.5.2-2-.6-4-2.4-4.8-1.2-.5-2.7-.4-4-.3-2.6.2-5.1.5-7.5.7-5,.5-9.8,1-15.1,1.5"/><path class="cls-1" d="M118.5,181.3c-.1,0-.3,0-.4,0-.3,0-.7-.1-1-.2-4.1-1-6.3-3.1-14.5-4.9-16.6-3.6-30.4-6.9-31.9,2.9"/><path class="cls-2" d="M70.9,135.2c0-.2,0-.4,0-.7,0-.4,0-.8.1-1.3.3-2.3,1.1-5.4,2-8.4"/><path class="cls-1" d="M96.9,296.1c-.7,2.8-.9,4.9-1,7.5,0,.4,0,.7,0,1.1,0,.7,0,1.5.5,2.1.6.8,1.8,1,2.9,1.1,8.9,1,18.6,4.6,27.7,4.1,2.9-.1,6.1-.5,8.4-2.2.2-.2.4-.3.6-.5,1.9-1.8,2.7-4.9,1-6.8-.9-1-2.2-1.5-3.5-2-.2,0-.5-.2-.7-.3-3.8-1.5-7.5-3.4-11.5-5.5"/><path class="cls-1" d="M112.5,113.3c-2.3,1-5.9,5.3-8.9,7.2-4.8,3.9-13.6-1.7-14.1-10.3"/><path class="cls-1" d="M112.8,113.2c0,0-.2,0-.2,0,0,0,0,0,0,0"/><path class="cls-1" d="M94.1,148.7s0,0,0,0c.4-.7.6-1.6.4-2.4-.3-1.3-1.5-2.1-2.7-2.2-1.1,0-2.2.4-3.3.9.1-2.2-1.4-4.4-3.2-4.8-.2,0-.4,0-.6,0-2,0-3.8,2.5-3.5,4.9-1.4-1.9-4.4-1.5-5.4.7-1,2.2.1,5.4,2.2,6-1.3.9-1.7,3.2-.9,4.8.2.3.4.6.6.9,0,0,0,0,0,0"/><path class="cls-1" d="M85.4,140c3.2-3.4,8.1-5,12.6-4,1.4.3,2.7.8,4.1,1.1,1.4.3,2.9.4,4.2-.1-2.2,2.4-2.3,6-3.3,9.1-.5,1.7-1.4,3.3-2.5,4.7h0"/><path class="cls-2" d="M96.3,303.7c5.4,1.6,11.2,3.1,17,4.2,5.4,1,10.8,1.7,15.9,1.8,2.3,0,4.6,0,6.7-.2"/><path class="cls-2" d="M118.6,295.9c-2.8,3.2-4.6,7.3-5.2,11.5"/><path class="cls-2" d="M132.7,300.7c-2,2.4-3.3,5.4-3.5,8.5"/><path class="cls-2" d="M182.5,231.5c4.2-1.1,8.2-2.5,12.2-4,4.8-1.9,9.5-4.1,14-6.6,3.2-1.8,6.3-3.7,9.3-5.7"/><path class="cls-2" d="M189.7,212.9c-.5.6,0,1.5.6,2.1,2.7,3.4,4.2,7.6,4.4,11.9"/><path class="cls-2" d="M204.2,210.6c0,0,.2.1.2.2,2.8,2.4,4.5,6.1,4.2,9.8"/><path class="cls-1" d="M114.8,113.6c-.4,0-1.1,0-2.1-.2,0,0-.1,0-.2,0-4.2-1-12.5-4.7-19.3-11.8"/><path class="cls-1" d="M134.9,80.1c-1.3,4.2-3.3,7.5-4,9.8-.6,1.9-.6,9.9-8,17.9,0,0-4.3,5.1-8.2,5.7"/><path class="cls-1" d="M130.8,82.7c-1.1-1.7-3.3-2.4-4.7-1.4"/><path class="cls-1" d="M107.8,77c3.6-1,7.1-.4,8.3,1.4"/><path class="cls-1" d="M123.4,96.9c-.2,4-8.7,1.6-9.9.2"/><path class="cls-1" d="M125.6,88.1c-.3,1.4,0,2.7.9,2.8.8.2,1.7-.8,2.1-2.2.3-1.4,0-2.7-.9-2.9-.8-.2-1.7.8-2.1,2.3Z"/><path class="cls-1" d="M109.7,84.5c-.3,1.4.1,2.6,1,2.8.8.2,1.8-.8,2.1-2.1.3-1.4-.1-2.6-.9-2.8-.9-.2-1.8.8-2.1,2.1Z"/><path class="cls-1" d="M120,103.8c-4.4-.5-7.3-2.1-11.1-4.7-.3-.2-.6-.4-.9-.6"/><path class="cls-1" d="M120,103.8c-2.6,7.5-12.7,3.2-11.3-4.4"/><path class="cls-1" d="M89,91.1c.3,1.4.5,3.5.7,5.8.3,3.3.5,7.1.4,9.9,0,1.5-.2,2.8-.5,3.5"/><path class="cls-1" d="M91,90c-.4.8-1.1,1.1-1.9,1-.5,0-1-.2-1.4-.4-2.5-1.3-3.8-4.7-3.4-7.8.2-1.7.9-3.5,2.3-4.4,1.4-.9,3.5-.5,4.1,1.1.5,1.2,1.7,2.3,3,2,1.3-.3,2.8-1.8,3.3-3,.4-1.1-1.1-2.1.2-3.3.8-.7,2-.8,3.1-.8,1.1,0,2.3-.1,3-.9,1.1-1.1.8-3.2,2.1-4.1,1.3-.9,3.1.2,4.2,1.3,1.1,1.1,2.6,2.4,4.1,1.9,1.5-.5,2.2-2.6,3.7-2.7,2.4-.2,2.6,4.1,5,4.9,1.8.6,3.5-1.2,5.4-1.3,2.1,0,3.5,2.2,4.7,3.9.6.8,1.5,2,2.7,2.6,1.4.7,3.1.7,5.2-1.5"/><path class="cls-1" d="M90,96.8c0,0-.2,0-.2,0-3.7,1-5.4-6.2-8.5-6.5-2.7-.3-3.2-4.8-2.7-7.5.3-1.5,1.1-3.4,0-4.4-.9-.8-1.3-2.2-2.3-2.7-1.9-.9-1.8-3.7-.8-5.5,1-1.8,1.6-1.7,1.7-3.8.2-3.3-3.3-6.5-1.8-9.5.9-1.8,3.4-2.3,4.7-3.9,1.1-1.2,1.3-3,1.4-4.6.1-1.6,1.4-2.3,2.4-3.6.9-1.3,3-2.1,4.2-1,6.7-.4,6.2-6.2,10.5-4,2.5,1.3,4.4,1.5,8,.3,1.8-.6,3.6-1.6,5.5-1.3,2.7.5,4.5,3.4,7.3,3.7,2.9.4,5.8-1.4,8.1.4,2.2,1.8,1.1,5,3.2,6.8,1.6,1.3,5.9,1.8,7.4,3.2,1.9,1.8.6,4.1,1.4,6.5.6,1.7,2.3,2.7,3,4.3.8,1.7.6,3.5-.4,5.2-2.5,3.9-1.4,5.5-2.1,8.8"/></svg>