<?xml version="1.0" encoding="UTF-8"?><svg id="Layer_3" xmlns="http://www.w3.org/2000/svg" width="200" height="200" viewBox="0 0 200 200"><defs><style>.cls-1{opacity:.08;}.cls-2{fill:#edebeb;}.cls-2,.cls-3,.cls-4{stroke:#000;stroke-miterlimit:10;stroke-width:2px;}.cls-3{fill:#fff;}.cls-4{fill:#1f1f1f;}.cls-5{opacity:.25;}.cls-5,.cls-6,.cls-7{stroke-width:0px;}.cls-6{opacity:.13;}</style></defs><path class="cls-3" d="M70.79,7.07s-4.88,8.59-6.33,16.59c0,0-18.89,12.71-31.24,30.14,0,0-11.75-.13-21.13,4.84C23.47,34.19,44.76,15.29,70.79,7.07Z"/><path class="cls-4" d="M129.48,18.57s-11.14,7.63-29,14.89c0,0-20.04-9.08-36.02-9.8,1.45-8,6.33-16.59,6.33-16.59,9.22-2.92,19.03-4.49,29.21-4.49,6.44,0,12.73.63,18.81,1.83,7.12,6.91,10.67,14.16,10.67,14.16Z"/><path class="cls-3" d="M178.8,43.07c-4.8-.94-12.63-1.62-12.63-1.62-15.98-17.79-36.69-22.88-36.69-22.88,0,0-3.55-7.25-10.67-14.16,24.62,4.84,45.9,19,59.99,38.66Z"/><path class="cls-4" d="M37.58,90.5s-11.99,18.53-20.34,25.79c-6.99-4.89-13.65-13.88-14.14-14.55-.02-.73-.03-1.47-.03-2.21,0-14.61,3.23-28.46,9.02-40.88,9.38-4.97,21.13-4.84,21.13-4.84,0,0,3.63,17.8,4.36,36.69Z"/><path class="cls-3" d="M105.7,72.4s-20.29,12.9-30.4,29.3c-5.51-3.32-37.72-11.2-37.72-11.2-.73-18.89-4.36-36.69-4.36-36.69,12.35-17.43,31.24-30.14,31.24-30.14,15.98.72,36.02,9.8,36.02,9.8,5.51,17.8,5.22,38.93,5.22,38.93Z"/><path class="cls-4" d="M195.93,85.63c-3.14,3.13-6.87,13.89-6.87,13.89-.12-.12-.24-.25-.36-.38-.12-.12-.24-.26-.36-.39-.48-.51-.97-1.05-1.47-1.6-1.34-1.47-2.76-3.07-4.18-4.71-.37-.42-.73-.84-1.1-1.26-.15-.17-.29-.34-.43-.5-.48-.55-.94-1.1-1.41-1.64-1.15-1.35-2.28-2.68-3.33-3.93-.31-.36-.6-.71-.89-1.05-1.4-1.68-2.66-3.19-3.66-4.4-.15-.18-.29-.35-.43-.52-.17-.2-.33-.4-.48-.58-.11-.14-.22-.28-.33-.4-.03-.04-.06-.08-.08-.11-.11-.13-.2-.24-.29-.35-.11-.13-.21-.25-.3-.36-.08-.1-.16-.19-.22-.27-.07-.08-.13-.15-.16-.2-.02,0-.03-.02-.03-.03-.05-.06-.09-.1-.1-.12-.01-.01-.01,0-.01,0v-.03c0-21.44-3.27-35.24-3.27-35.24,0,0,7.83.68,12.63,1.62,8.86,12.34,14.89,26.84,17.13,42.56Z"/><path class="cls-3" d="M33.22,155.53s-3.01,4.71-4.05,10.16C13.45,148.87,3.65,126.43,3.1,101.74c.49.67,7.15,9.66,14.14,14.55,0,0,5.45,22.53,15.98,39.24Z"/><path class="cls-3" d="M177.81,157.32c1.1-6.54-1.83-14.52-1.83-14.52,12.57-18,13.08-43.28,13.08-43.28,0,0,3.73-10.76,6.87-13.89.66,4.53,1,9.17,1,13.89,0,21.66-7.11,41.66-19.12,57.8Z"/><path class="cls-4" d="M85.17,187.85s-7.67,3.53-14.37,4.13h0c-16.1-5.08-30.37-14.24-41.62-26.28h0c1.04-5.46,4.05-10.17,4.05-10.17,0,0,14.11,9.04,32.69,10.17,0,0,9.86,13.7,19.26,22.15Z"/><path class="cls-4" d="M177.81,157.32h0c-9.07,12.2-20.95,22.19-34.67,29.02-5.24-.06-11.11-2.13-11.11-2.13l-.57-.07c.12-.08.24-.16.35-.24.01,0,.01-.01.02-.02h.01s.03-.02.04-.03c.62-.44,1.18-.97,1.65-1.59l19.2-24.93h.01c.6-.29,19.73-9.49,23.24-14.53,0,0,2.93,7.98,1.83,14.52Z"/><path class="cls-3" d="M143.14,186.35c-12.99,6.47-27.64,10.11-43.14,10.11-10.17,0-19.99-1.57-29.2-4.48,6.7-.6,14.37-4.13,14.37-4.13,0,0,26.71,4.74,45.18-3.12.38-.16.75-.36,1.11-.58l.57.07s5.87,2.07,11.11,2.13Z"/><path class="cls-3" d="M90.21,137.5s-20.75,28.41-24.3,28.2c-18.58-1.13-32.69-10.17-32.69-10.17-10.53-16.71-15.98-39.24-15.98-39.24,8.35-7.26,20.34-25.79,20.34-25.79,0,0,32.21,7.88,37.72,11.2,0,0,10.5,29.03,14.91,35.8Z"/><path class="cls-3" d="M169.44,76.69v.02s-.01.07-.02.11c0,.02,0,.04,0,.05-.01.06-.03.12-.06.18-.03.06-.06.13-.1.19-.05.07-.09.14-.14.21-.05.07-.11.14-.18.21-.09.11-.2.22-.32.34s-.25.24-.4.37c-.1.09-.2.18-.3.26-.21.17-.44.35-.69.54s-.51.38-.79.57c-.14.1-.29.2-.44.3-.3.21-.61.41-.93.61-.28.19-.57.37-.88.56-.12.08-.25.16-.37.23-.18.11-.37.22-.56.33-.49.29-1,.59-1.52.89-1.37.79-2.83,1.6-4.31,2.39-.78.41-1.56.83-2.34,1.23-4.37,2.27-8.58,4.3-10.7,5.3-.2.1-.38.18-.54.26-.12.06-.23.11-.33.15-.09.04-.17.08-.24.11-.2.1-.31.15-.31.15-21.4-15.67-37.26-19.86-37.26-19.86,0,0,.29-21.13-5.22-38.93,17.86-7.26,29-14.89,29-14.89,0,0,20.71,5.09,36.69,22.88,0,0,3.27,13.8,3.27,35.24Z"/><path class="cls-3" d="M153.04,156.93l-.3.39h-.01s-19.2,24.94-19.2,24.94c-.47.62-1.03,1.15-1.65,1.59-.01.01-.03.02-.04.03h-.01s-.01.02-.02.02c-.11.08-.23.16-.35.24-.36.22-.73.42-1.11.58-18.47,7.86-45.18,3.12-45.18,3.12-9.4-8.45-19.26-22.15-19.26-22.15,3.55.21,24.3-28.2,24.3-28.2,18.48,1.95,45.38-3.66,45.38-3.66,0,0,9.76,12.68,17.45,23.1Z"/><path class="cls-4" d="M135.59,133.84s-26.9,5.61-45.38,3.66c-4.41-6.77-14.91-35.8-14.91-35.8,10.11-16.4,30.4-29.3,30.4-29.3,0,0,15.86,4.19,37.26,19.86,0,0,2,15.17-7.37,41.58Z"/><path class="cls-3" d="M189.06,99.53s-.51,25.28-13.08,43.28c-3.51,5.04-22.64,14.24-23.24,14.52l.3-.39c-7.69-10.42-17.45-23.1-17.45-23.1,9.37-26.41,7.37-41.58,7.37-41.58,0,0,.11-.05.31-.15.07-.03.15-.07.24-.11.1-.04.21-.09.33-.15.16-.08.34-.16.54-.26,2.12-1,6.33-3.03,10.7-5.3.78-.4,1.56-.82,2.34-1.23,1.48-.79,2.94-1.6,4.31-2.39.52-.3,1.03-.6,1.52-.89.19-.11.38-.22.56-.33.12-.07.25-.15.37-.23.31-.19.6-.37.88-.56.32-.2.63-.4.93-.61.15-.1.3-.2.44-.3.28-.19.54-.38.79-.57s.48-.37.69-.54c.1-.08.2-.17.3-.26.15-.13.28-.25.4-.37s.23-.23.32-.34c.07-.07.13-.14.18-.21.05-.07.09-.14.14-.21.04-.06.07-.13.1-.19.03-.06.05-.12.06-.18,0,0,0-.03,0-.05.01-.03.01-.05.01-.07.01,0,.01-.02.01-.03h.01s.05.06.1.12c0,.01.01.02.03.03.03.05.09.12.16.2.06.08.14.17.22.27.09.11.19.23.3.36.09.11.18.22.29.35.02.03.05.07.08.11.11.12.22.26.33.4.15.18.31.38.48.58.14.17.28.34.43.52,1,1.21,2.26,2.72,3.66,4.4.29.34.58.69.89,1.05,1.05,1.25,2.18,2.58,3.33,3.93.47.54.93,1.09,1.41,1.64.14.16.28.33.43.5.37.42.73.84,1.1,1.26,1.42,1.64,2.84,3.24,4.18,4.71.5.55.99,1.09,1.47,1.6.12.13.24.27.36.39.12.13.24.26.36.38Z"/><path class="cls-2" d="M3.1,101.74s-.03-.04-.03-.04"/><line class="cls-2" x1="195.94" y1="85.63" x2="195.93" y2="85.64"/><g class="cls-1"><path class="cls-7" d="M148.92,15.83c-7.35-.26-14.28-.16-20.83.27-18.49,1.2-33.89,4.97-46.71,10.56-22.1,9.63-36.52,24.68-45.85,41.29-8.17,14.53-12.42,30.25-14.5,44.58-.63,4.26-1.06,8.39-1.33,12.34-.89,12.32-.33,22.8.28,29.36,17.46,25.49,46.79,42.22,80.02,42.22,53.53,0,96.93-43.4,96.93-96.93,0-35.69-19.29-66.87-48.01-83.69Z"/></g><path class="cls-6" d="M195.93,85.62c-1.44-10.12-4.46-19.73-8.79-28.59-1.39,12.28-3.5,23.38-6.21,33.39-7.34,27.13-19.09,46.35-32.84,59.86-21.66,21.29-48.29,28.39-70.45,29.94-13.52.93-25.38-.19-33.44-1.44,8.04,5.68,17,10.16,26.59,13.19h.01c9.22,2.91,19.02,4.48,29.2,4.48,15.5,0,30.15-3.64,43.14-10.11,13.72-6.83,25.6-16.82,34.66-29.01,12.02-16.14,19.13-36.15,19.13-57.81,0-4.72-.34-9.36-1-13.9Z"/><circle class="cls-5" cx="100" cy="100" r="95.94"/></svg>