<?xml version="1.0" encoding="UTF-8"?><svg id="usa" xmlns="http://www.w3.org/2000/svg" width="235" height="321.9" viewBox="0 0 235 321.9"><defs><style>.cls-1,.cls-2,.cls-3,.cls-4,.cls-5,.cls-6,.cls-7,.cls-8,.cls-9{stroke:#000;stroke-miterlimit:10;}.cls-2{fill:#698e51;}.cls-3{fill:#fff;}.cls-4{fill:#e8c155;}.cls-5{fill:#b39b68;}.cls-6{fill:#9c6547;}.cls-7{fill:#414141;}.cls-8{fill:#434343;}.cls-9{fill:none;}.cls-10{fill:#825541;stroke-width:0px;}</style></defs><path class="cls-6" d="M131.3,59.5c-.4-2.8-1.2-5.3-2.5-7.2-4-6.2-12.5-21.4-39.5-15.2-18.7,4.2-20.3,22.5-19.9,32.5.3,8.2,3.2,15.2,9.2,20.8,0,2.6,0,5.4-.2,8-.2,3.7-.6,6.9-1.1,8.2.5,5.8,3.7,9.6,8.1,10.5,1.5.3,3.3.2,5.2-.2h0c3.3-.8,6.7-2.9,8.5-5.7-.4-3.2-.6-2-.2-5.2.7.4,1.7.8,2.8,1.4-.2-.2-.3-.3-.5-.5h0c3.6,1.4,6.5,2.1,7.6,1.9,4.4-.7,9.3-6.5,9.3-6.5,8.4-9.1,8.4-18.1,9.1-20.3.8-2.6,1.5-2.8,3-7.5,1.3-4.1,1.8-9.7,1-14.6ZM102.3,77.7c.4-1.5,1.4-2.6,2.4-2.4,1,.2,1.4,1.6,1.1,3.1-.4,1.5-1.4,2.6-2.4,2.4-1-.2-1.5-1.6-1.1-3.1ZM103.5,91.3l.2-.3c4.3,2.9,7.6,4.8,12.6,5.3-2.9,8.5-12.9,8-12.8-5ZM123.7,82.5c-.4,1.6-1.4,2.7-2.4,2.5-.9-.2-1.4-1.6-1-3.2.4-1.6,1.4-2.7,2.4-2.5.9.2,1.4,1.6,1,3.2Z"/><path class="cls-3" d="M116.3,96.3c-2.9,8.5-12.9,8-12.8-5l.2-.3c4.3,2.9,7.6,4.8,12.6,5.3Z"/><path class="cls-10" d="M131.3,59.5c-3.9,1.4-8.1,2.5-12.3,1.9-3.4-.5-6.5-2.1-9.6-3.6-3.1-1.5-6.3-3-9.7-3.2-3.4-.3-7.1.9-9,3.8-1.1,1.6-1.5,3.6-2,5.5-.5,1.9-1,3.9-2.4,5.3-1.2,1.3-3.3,2-4.9,1.2h0c-.8-1.8-3.1-2.3-4.7-1.2-1.5,1-2.3,3.1-2.6,5-.4,3.5,1,7.4,3.9,8.9.3,1.7.5,4.3.5,7.2-6-5.6-8.9-12.6-9.2-20.8-.4-9.9,1.2-28.2,19.9-32.5,27-6.1,35.5,9,39.5,15.2,1.2,1.9,2.1,4.5,2.5,7.2Z"/><path class="cls-7" d="M74.7,99.4c-.2.1-.5.2-.7.3h0c-5.5,1-9.2,3.4-11.9,7.9h0c-1.4,2.4-2.5,5.4-3.4,9.1-.9,3.7-1.5,8.1-2,13.3h0c0,.4,0,.7-.1,1.1-.3,3-.6,5.8-.9,8.4,0,0,0,0,0,.1h-.3c0-5.4.2-9.2-.3-13.5-5,4.4-11,9.7-13.6,11.5-.6-.3-1.1-.7-1.7-1.1-3.8-3.1-5.9-9.2-6.6-12.5-.2-1-.3-1.7-.2-2,.2-1,12.4-12.8,13.2-13.5,4.4-3.9,7.7-6.9,13.6-8.1,1.9-.4,8.9-1.9,14.9-1.2Z"/><line class="cls-9" x1="74.7" y1="99.4" x2="74.7" y2="99.4"/><path class="cls-9" d="M55.3,126c0,0-.2.2-.3.3"/><path class="cls-6" d="M35.7,139.7c-5,8.8-8.8,12.9-12.5,20.1h.1c2.6.7,5.1,9.8,3.4,11.8-1.8,2.1-12.3,3-14,1.9-2.1-1.4.2-9.3,1.6-11.3,2.9-12.5,4.6-19,12.3-29.5,3.5-4.8,4.2-5.9,6.6-8.5.7,3.3,2.8,9.4,6.6,12.5-2.3,1.5-1.9,1.4-4.1,3Z"/><path class="cls-9" d="M23.2,159.8c0,.2-.2.4-.3.5"/><path class="cls-7" d="M119.9,145.3c-.2.2-.8.1-1.6-.2-2.8-.9-8.5-3.6-13.4-3.4-1.1,0-2.2.3-3.2.7-.4-2.9-1-5.9-1.1-10.8,0,0,0-.2,0-.2,0-3.3-.5-6.3-.5-9.1s.2-4.1.9-6.1h0c1.1.1,2.2.5,2.9,1.4.9-2,.9-4.4.3-6.5,1.1-.8,2.6-1.2,4-.9,0,0,0,0,0,0,2.8,1.5,5.2,3.3,5.9,5.1,4.5,10.8,6.3,29.6,5.8,30.1Z"/><path class="cls-6" d="M118.3,145.2c-.1,2.2-.4,3.4-1.3,5.2-1.1,2.1-2.3,2.3-3.3,3-4.1,1.5-7.5,2.4-10.6,2.9-8.5,1.3-14.9-.6-26.6-1.8-2.3.8-9.7,1.1-12.8-.2-.7-.3-1.2-.7-1.4-1.2-.6-1.4.6-6,2.3-9.8,1.1-2.5,2.5-4.6,3.7-5.2.9-.4,2.5-.2,4.3.4h0c.7.3,1.5.6,2.2.8t0,0c3.5,1.6,7,4.1,7,5.8h0c7.2-1.3,9.8-.7,15.7-1.7,2-.3,4.3-.8,7.3-1.6,5-.3,10.7,2.5,13.4,3.4Z"/><path class="cls-9" d="M81.8,145.2c-.2,0-.5.1-.8.1"/><path class="cls-7" d="M78.2,118h-.1c-5.5-3.1-10.8-6.5-16-10.3h0c2.7-4.6,6.4-7,11.9-8-2.7,1.3-5.1,3.3-6.8,5.7,3.8.5,7.1,3.2,9,6.6,1,1.9,1.7,3.9,2.1,6Z"/><path class="cls-9" d="M54.5,178.7c-.1-.3-.2-.7-.3-1"/><path class="cls-9" d="M54.2,177.7s0,0,0,0"/><path class="cls-9" d="M54.2,177.6s0,0,0,0"/><path class="cls-4" d="M102.8,159.3h-.5c-8.3,0-16.7,0-24.9-1.3-4.8-.8-9.5-2-13.9-3.8h0c3.2,1.3,10.5,1,12.8.2,11.7,1.2,18.2,3,26.6,1.8-.2.7-.2,1.8-.2,3.1Z"/><path class="cls-9" d="M103,156.1s0,0,0,0"/><path class="cls-2" d="M103.9,169.9h-.3c-11.5-1.5-22.2-3.4-32.8-3.7-1.1,0-2.1,0-3.2-.1-.3,0-.5,0-.8,0-1.9-.1-3.8-.4-5.6-.8-3-.7-6-2-8.2-4.2.3-3.5.8-7.3,1.5-11.8,2.8,2,5.9,3.6,9.1,5,4.4,1.8,9.1,3,13.9,3.8,8.2,1.3,16.6,1.3,24.9,1.3h.5c.1,2.9.7,7,1.1,10.6Z"/><path class="cls-7" d="M104.4,175.5h0c-4.4-.9-6.8-3.1-15.7-4.9-8.3-1.7-16-3.4-22-3.6v-.9c.3,0,.6,0,.9,0,1,0,2.1,0,3.2.1,10.5.2,21.3,2.1,32.8,3.7h.3c.3,2.2.5,4.2.5,5.6Z"/><path class="cls-9" d="M55.1,126.2c-.2-2.1-.6-4.3-1.2-6.9"/><path class="cls-5" d="M150.3,191c-.3.8-.7,1.6-1.2,2.6h0c-2.2,4.8-5.6,11.7-6.9,17.5h0c-.2.8-.4,1.7-.5,2.5-.1.8-15.1-2.1-31.5-5.4-15.6-3.2-32.3-6.7-38.4-7.9-2.4-.6-4.3-1.1-5.6-1.6-5-2.4-11.8-9-12.1-21h0c0,0,0,0,0,0,0-1.3,0-2.6.1-4,.9-5.4,5.5-6.9,12.5-6.6,6,.3,13.7,1.9,22,3.6,8.8,1.8,11.2,4,15.7,5,.3,0,.6.1,1,.2h0c12.7,3.8,45.6,13.7,44.9,15.2Z"/><path class="cls-9" d="M105.4,175.8c-.3,0-.7-.2-1-.3-1.8-.5-3-.9-3.6-1.1"/><path class="cls-5" d="M113.6,253.8c-1.3.2-2.5.4-3.6.6-.3,0-.5,0-.8.1-7.1,1.1-10.8,1.2-20.1.3-.9,0-1.8-.2-2.7-.3,0-6.4,3.6-13.4,1.5-22.6-2.6-11.6-11.2-22-16.1-31.5,6.1,1.2,22.8,4.7,38.4,7.9,1.4,4.9,6.4,16.3,6.8,23.6.6,9.7-3.2,17-3.5,21.9Z"/><path class="cls-9" d="M110.1,254.7s0,0,0,0"/><path class="cls-6" d="M100.1,286.1l.2.3c-1.3.9-2.1,2.3-2.9,3.7-.8,1.4-1.8,2.8-3.3,3.4-2,.9-5.5-.6-7.3-2.5-.3-10.8-1.2-26.1,2.4-36.2,9.2.9,12.9.8,20.1-.3l.8.2c-3,10.6-6.1,21.3-10,31.4Z"/><path class="cls-8" d="M123.3,312.9c-11.4-1.3-25-2.6-37.4-4.8-1.4-.2-2.7-1.1-3.3-2.3-.4-.9-.2-1.9,0-2.9.9-4.1,1.5-9.9,3.3-13.6.2.5.5,1.1,1,1.6,1.8,2,5.2,3.4,7.3,2.5,1.5-.6,2.5-2,3.3-3.4.8-1.4,1.6-2.8,2.9-3.7,0,0,0,0,0,0,1.4-.9,2.6-.9,3.6.3h.1c8.3,4.5,15.9,6.7,26.4,11.4,17.5,7.8,1,15.9-7.2,14.9Z"/><path class="cls-6" d="M172.7,217.6c0,0,0,.2,0,.3h-.2c-17.4-6.9-22.2-2.6-30.3-6.7,1.4-5.8,4.7-12.7,6.9-17.5h0c12.5,4.5,19.4,7,33.3,11.9,0,1.5.5,2.4,1.2,3.8.7,1.3-10,12.3-11,8.3Z"/><path class="cls-9" d="M182.5,205.6c0-1.4-.3,0,.9,0"/><path class="cls-8" d="M220.8,211.4c-1.7,3-5,4.9-8.2,6.5-9.8,5-20.3,8.4-30.8,11.9-1.3.4-2.7.8-3.8.3h-.4c-.4-.4-.7-.9-.9-1.4-1.8-3.5-3.1-7.1-3.9-10.9,0,0,0-.2,0-.3,1,4,11.7-6.9,11-8.3-.7-1.3-1.2-2.2-1.2-3.8.3,0,.6,0,.9,0,0,0,.2,0,.3,0,9.5-.8,20.9-2,30.2-2.9,1.7-.1,3.4-.3,4.9.3,3.2,1.3,3.7,5.5,2,8.5Z"/><path class="cls-9" d="M178.4,230.8c-.3-.2-.6-.4-.8-.6"/><path class="cls-7" d="M66.9,166v.9c-7-.3-11.6,1.2-12.5,6.6-.1,1.4-.2,2.8-.1,4-1.6-5.7-1.7-10.7-1.2-16.5,2.3,2.1,5.2,3.4,8.2,4.2,1.8.4,3.7.7,5.6.8Z"/><path class="cls-9" d="M105.9,175.9c-.2,0-.3,0-.5,0"/><path class="cls-7" d="M101,116.2c-.7,2.1-.9,4.1-.9,6.1h0c-5.2,1-11.6.2-16.5-1.8h0c2.4-1.1,4.9-2,7.4-2.8,2.3-.7,4.7-1.2,7.1-1.5,1-.1,2-.2,3-.1Z"/><path class="cls-9" d="M101.1,115.7c0,.2-.1.3-.2.5"/><path class="cls-7" d="M108.1,110.1c-1.3-.3-2.8.1-4,.9-.5-1.5-1.3-2.9-2.4-4.1,1.9.9,4.2,2,6.4,3.1Z"/><path class="cls-9" d="M104.2,111.1c-.2.1-.3.2-.5.4"/><path class="cls-9" d="M108.5,110.2c-.1,0-.2,0-.3,0"/><path class="cls-9" d="M58.7,116.7s0,0,0,0"/><line class="cls-9" x1="56.7" y1="130.1" x2="56.7" y2="130.1"/><path class="cls-9" d="M101.3,106.4c-4.9-2.1-11.3-5.9-16.8-11.7"/><path class="cls-1" d="M123.7,82.5c-.4,1.6-1.4,2.7-2.4,2.5-.9-.2-1.4-1.6-1-3.2.4-1.6,1.4-2.7,2.4-2.5.9.2,1.4,1.6,1,3.2Z"/><path class="cls-1" d="M105.8,78.4c-.4,1.5-1.4,2.6-2.4,2.4-1-.2-1.5-1.6-1.1-3.1.4-1.5,1.4-2.6,2.4-2.4,1,.2,1.4,1.6,1.1,3.1Z"/><path class="cls-9" d="M103.7,91c-.3-.2-.6-.4-1-.6"/><path class="cls-9" d="M81.5,70.4h0c-.8-1.8-3.1-2.3-4.7-1.2-1.5,1-2.3,3.1-2.6,5-.4,3.5,1,7.4,3.9,8.9.3,1.7.5,4.3.5,7.2-6-5.6-8.9-12.6-9.2-20.8-.4-9.9,1.2-28.2,19.9-32.5,27-6.1,35.5,9,39.5,15.2,1.2,1.9,2.1,4.5,2.5,7.2"/><path class="cls-9" d="M81.5,70.4h0c-.8-1.8-3.1-2.3-4.7-1.2-1.5,1-2.3,3.1-2.6,5-.4,3.5,1,7.4,3.9,8.9.3,1.7.5,4.3.5,7.2-6-5.6-8.9-12.6-9.2-20.8-.4-9.9,1.2-28.2,19.9-32.5,27-6.1,35.5,9,39.5,15.2,1.2,1.9,2.1,4.5,2.5,7.2"/><line class="cls-9" x1="78.6" y1="90.3" x2="78.6" y2="90.3"/><path class="cls-9" d="M78.2,83.1c1.3.7,3.1.6,3.8-.7"/><path class="cls-7" d="M97.5,143.4c-5.9,1-8.5.4-15.7,1.8h0c0-1.9-3.5-4.4-7-5.9,7.1,2.6,14.8,4.3,22.7,4v.2Z"/><path class="cls-2" d="M97.5,143.2c-7.9.3-15.6-1.3-22.7-4t0,0c-.7-.3-1.5-.6-2.2-.8h0c-5.8-2.4-11.2-5.3-15.9-8.3h0c.5-5.2,1.1-9.6,2-13.3,11.6,9.4,26.6,14.8,41.8,15h0c0,4.9.7,7.9,1.1,10.8l-4.2.7Z"/><path class="cls-4" d="M100.5,131.7h0c-15.2-.2-30.2-5.6-41.8-15,.9-3.7,2-6.6,3.4-9,5.1,3.7,10.5,7.1,16,10.3h.1c.3,1.7.5,3.4.5,5.1,1.6-.9,3.2-1.8,4.8-2.5h0c4.9,2,11.3,2.8,16.5,1.8h0c0,2.8.4,5.8.5,9.1,0,0,0,.2,0,.2Z"/><path class="cls-7" d="M103.9,117.6c-.7-.9-1.8-1.2-2.9-1.4h0c-1-.1-2,0-3,.1-2.4.3-4.8.9-7.1,1.5-2.5.7-5,1.6-7.4,2.7-1.6.8-3.2,1.6-4.8,2.5,0-1.7-.2-3.4-.5-5.1-.4-2.1-1-4.1-2.1-6-1.9-3.4-5.2-6.1-9-6.6,1.8-2.4,4.1-4.4,6.8-5.7h0c.5,0,1-.2,1.5-.2-.3,0-.5,0-.8-.1,1.2-.5,2.4-.9,3.7-1.1h0c-.2,3.7-.6,6.9-1.1,8.2.5,5.8,3.7,9.6,8.1,10.5,1.5.3,3.3.2,5.2-.2h0c3.3-.8,6.7-2.9,8.5-5.7-.4-3.2-.6-2-.2-5.2.7.4,1.7.8,2.8,1.4,1.1,1.1,1.9,2.5,2.4,4.1.6,2.1.6,4.4-.3,6.5Z"/><line class="cls-9" x1="74.7" y1="99.4" x2="74.7" y2="99.4"/><path class="cls-9" d="M126.8,75.8c-.2-2.6-4.9-3.2-6-1.8"/><path class="cls-9" d="M108.5,70.5c-1.4-2-5.5-3.5-8.4-1.3"/><path class="cls-9" d="M131.5,59.5c0,0-.2,0-.2,0"/><path class="cls-9" d="M81.5,70.4c-.1,0-.3-.1-.4-.2"/><path class="cls-9" d="M62,107.7s0,0,0,0"/><path class="cls-7" d="M72.5,138.4c-1.8-.6-3.4-.8-4.3-.4-1.2.6-2.6,2.7-3.7,5.2-3.1-.7-6.1-1.9-8.8-3.6.3-2.6.6-5.4.9-8.4,0-.4,0-.7.1-1.1,4.7,3,10,5.9,15.9,8.3Z"/><path class="cls-9" d="M64.8,143.2c-.1,0-.2,0-.3,0"/><path class="cls-4" d="M63.6,154.1h0c-3.2-1.3-6.3-2.9-9.1-4.9h0c.4-2.9.8-6,1.2-9.5h0c0,0,0,0,0-.1,2.7,1.7,5.7,2.9,8.8,3.6-1.7,3.8-2.9,8.4-2.3,9.8.2.5.7.9,1.4,1.2Z"/><path class="cls-9" d="M54.4,149.2s0,0-.1,0"/><path class="cls-9" d="M53,161.1c0,0-.2-.1-.3-.2"/><path class="cls-9" d="M118.6,87.7c.5,7-7.4,3.5-8.7,1.9"/></svg>