<?xml version="1.0" encoding="UTF-8"?><svg id="usa" xmlns="http://www.w3.org/2000/svg" width="235" height="321.9" viewBox="0 0 235 321.9"><defs><style>.cls-1{fill:#2e3191;}.cls-1,.cls-2,.cls-3,.cls-4,.cls-5,.cls-6,.cls-7,.cls-8{stroke:#000;stroke-linecap:round;stroke-linejoin:round;}.cls-2{fill:#6088d8;}.cls-3{fill:#72777c;}.cls-4{fill:#302f2d;}.cls-5{fill:#e4cfb5;}.cls-6{fill:#fff;}.cls-7{fill:none;}</style></defs><path class="cls-1" d="M81.7,81.6c-.3,0-.6,0-.9.2-1.8.8-3.9,3.6-3.9,5.2v.2c-3.4-.8-6.9-.9-10.4-.5,2.8-3.1,6.4-4.8,11.3-5.5h0c1.4,0,2.7.1,3.8.2Z"/><path class="cls-7" d="M82.2,81.6c-.2,0-.3,0-.5,0h0"/><path class="cls-1" d="M77.9,81.3c-4.9.7-8.5,2.3-11.3,5.5-4.4,4.9-6.5,13.5-7.8,27.4,0,.2,0,.5,0,.8-.2,2.6-.5,5-.7,7.4.2-4.9.2-8.7-.4-12.9h0c-5.1,4.8-11.8,10.6-14.4,12.6-.5-.3-1-.6-1.5-.9-4.2-2.9-7.5-7.9-8.7-10.7h0c-.4-.8-.5-1.5-.5-1.8.2-1.1,15-16.8,15.9-17.5,4.5-4.1,7.8-7.4,13.8-8.6,1.6-.3,9.5-1.3,15.9-1.2Z"/><path class="cls-5" d="M41.5,121.1h0c-1.7,1.3-2.3,1.8-3.9,3-5.1,9.3-8.9,13.7-12.7,21.3h.1c2.6.8,5.1,10.5,3.4,12.6-1.9,2.3-12.5,3.2-14.2,2-2.1-1.4.2-9.9,1.6-12,2.9-13.3,4.7-20.2,12.5-31.4,1.4-2,2.5-3.5,4.6-6.2,1.2,2.8,4.5,7.8,8.7,10.7Z"/><path class="cls-7" d="M24.8,145.4c-.1.2-.2.4-.3.6"/><path class="cls-1" d="M112.2,92.4c-1.7-.6-4.3.4-5.6,1.6-.2.2-.5.4-.7.7h0c-.6-.7-1.3-1.2-2.1-1.4h-.3c.3-1.3.3-2.6-.1-3.7,1.7.9,3,1.5,3.6,1.4.4,0,.9-.3,1.4-.5,2.2,1.3,2.9,1.4,3.9,2Z"/><path class="cls-1" d="M117.7,136.3s0-12.8-13.4-9.2c-.2-1.7-.4-3.4-.6-5.5-.2-1.8-.3-3.8-.3-6.3-.2-6.4.3-11.2.6-16.8,0-1.5.9-2.8,2-3.9.2-.2.4-.5.7-.7,1.3-1.2,4-2.2,5.6-1.6h0c.6.4,1.3.9,2.5,2,2.2,2,4,8.9,4.6,13.9,2.1,18.4,1.2,26.9-1.6,27.9Z"/><path class="cls-5" d="M117.7,136.3c-4,2.8-7.9,4.3-11.9,5,0,0-.1,0-.2,0-7.8,1.4-16.1-.4-26.8-1.6-2.9,1-13.4,1.4-14.5-1.5-.9-2.4,3-14.5,6.2-16,.6-.3,1.4-.3,2.4-.1.3,0,.5.1.8.2,4.3,1.1,10.4,5,10.5,7.5v.2c9.6-1.9,7.7.5,20-2.8,13.5-3.6,13.4,9.2,13.4,9.2Z"/><path class="cls-7" d="M84.3,129.9c-.2,0-.5,0-.8.1"/><path class="cls-7" d="M56.6,165.5c-.1-.4-.2-.7-.3-1.1"/><path class="cls-2" d="M107.3,162.1c-1.6-.4-2.9-.8-3.6-1.1,0,0,0,0,0,0-2.8-1.2-5.9-2.7-12.2-4.1-18.1-4-33.3-7.5-34.9,3.1-.1,1.5-.2,3-.1,4.3-3.2-12.3-.6-21.1,1.6-41.9,0,0,0-.1,0-.2.2-2.3.5-4.7.7-7.4,0-.3,0-.5,0-.8h.1c4.7,2.3,9.7,4,14.8,5.3.2,0,.5.1.8.2,0,0,0,0,0,0,9.5,2.3,19.5,3,29.2,1.8.2,2.1.4,3.8.6,5.5-12.3,3.3-10.4.9-20,2.8v-.2c-.1-2.5-6.3-6.4-10.6-7.5-.3,0-.6-.1-.8-.2-1-.2-1.8-.2-2.4.1-3.2,1.5-7.1,13.6-6.2,16,1.1,2.9,11.6,2.5,14.5,1.5,10.8,1.2,19,2.9,26.8,1.6v.7c-.5,3.8,1.5,14.9,1.6,20.1Z"/><line class="cls-7" x1="107.3" y1="162.3" x2="107.3" y2="162.3"/><path class="cls-7" d="M105.9,141.5c0,.1,0,.3,0,.5"/><path class="cls-7" d="M58,122.5c0,.6,0,1.2,0,1.8"/><path class="cls-7" d="M57.6,109.4c-.3-2.2-.9-4.4-1.6-7"/><path class="cls-3" d="M130.9,169.7c-.3.3-.7.8-1,1.3-2.8,4.4-5.6,15.5-5.3,23.5,0,2.4.5,4.6,1.2,6.2.2.4-3.3-.3-8.7-1.6-12.2-2.9-34-8.8-42.8-10.5-2.4-.6-4.4-1.2-5.7-1.7-5.1-2.6-12-9.6-12.3-22.4t0,0c0-1.4,0-2.8.1-4.3,1.6-10.7,16.8-7.1,34.9-3.1,6.3,1.4,9.4,2.9,12.2,4.1,0,0,0,0,0,0,1.2.5,2.3.9,3.6,1.2v-.2c8.2,2.2,24.8,6.5,23.6,7.6Z"/><path class="cls-3" d="M120.5,227.6c-1,.2-1.9.3-2.8.5-8.4,1.3-12.7,1-22.6-.1-.9-.1-1.9-.2-3-.3-.8-2.4-9-26.9-17.8-39.1,8.8,1.8,30.5,7.6,42.8,10.5,3.4,12.1,3.9,19.3,3.4,28.5Z"/><path class="cls-5" d="M113.1,246.4c-2.1,7.8-4.3,15.8-6.8,23.5-5.8,1.3-12,.6-17.4-2.1.2-8.8,1-17.8,3-23.6,1.2-3.6,4.1-12,3.1-16.1h0c10,1,14.2,1.3,22.6,0,1.1,4.3-1.7,7.5-4.6,18.3Z"/><path class="cls-6" d="M106.2,270.2c-1,3.3-2.1,6.5-3.3,9.6l.3.3c-1.4.9-2.2,2.5-3,3.9-.8,1.5-1.8,2.9-3.3,3.6-2.3,1-6.4-1-7.9-3.4h0c-.1-4.8-.2-10.5,0-16.4,5.4,2.7,11.6,3.4,17.4,2.1,0,0,0,.2,0,.2Z"/><path class="cls-4" d="M132.5,311.9c-3.5,1.5-7.5,1-11.3.3-11.5-2.3-22.6-6.6-33.6-10.8-1.3-.5-2.8-1.1-3.3-2.4-.4-1-.2-2,0-3,.9-4.4,2.3-8.6,4.2-12.6.1.3.2.7.5,1h0c1.5,2.4,5.6,4.5,7.9,3.4,1.5-.7,2.5-2.2,3.3-3.6.8-1.5,1.6-3,3-3.9,1.4-.9,2.6-1,3.7.3h.1c8.6,6.2,17.1,12.2,25.7,18.3,1.5,1.1,3,2.2,3.9,3.8,1.8,3.5-.7,7.8-4.1,9.4Z"/><line class="cls-7" x1="124.6" y1="194.5" x2="124.6" y2="194.5"/><path class="cls-5" d="M175.1,189.9l-.2.4c-.3,5.3-2.1,10.4-5.1,14.6-16-5-19.6.8-31.3-9.9-8.1-1.5-10-.9-13.9-.5-.3-8,2.5-19.1,5.3-23.5h.1c9.9,4.1,2.9.1,15.3,7.7,12,4.4,20,7.5,29.9,11.2Z"/><path class="cls-6" d="M176.6,206.9c0,0,0,.2,0,.3h-.2c-2.5-1-4.7-1.8-6.7-2.4,3-4.1,4.9-9.3,5.1-14.6l.2-.4c3.5,1.3,7.2,2.7,11.5,4.3,0,1.6.5,2.6,1.2,4,.7,1.4-10.1,13-11.2,8.8Z"/><path class="cls-7" d="M186.5,193.5c0,0,0,.3,0,.7"/><path class="cls-7" d="M186.5,193.4s0,0,0,0c0,.1.3.6,1,.6"/><path class="cls-4" d="M225.5,200.4c-1.8,3.2-5.1,5.2-8.4,6.9-10,5.3-20.7,9-31.3,12.6-1.3.4-2.7.9-3.9.3h-.4c-.4-.4-.7-.9-.9-1.5-1.8-3.7-3.1-7.6-4-11.6,0,0,0-.2,0-.3,1.1,4.2,11.9-7.4,11.2-8.8-.7-1.4-1.2-2.4-1.2-4,.3,0,.6,0,1,0,0,0,.2,0,.3,0,9.6-.9,21.2-2.2,30.6-3,1.7-.2,3.5-.3,5,.3,3.2,1.4,3.8,5.9,2,9.1Z"/><path class="cls-7" d="M182.4,221c-.3-.2-.6-.4-.8-.7"/><path class="cls-7" d="M108.8,162.6c-.5,0-1-.2-1.5-.3"/><path class="cls-2" d="M103.9,98.6c-.3,5.6-.7,10.4-.6,16.8,0,2.5.2,4.5.3,6.3-9.7,1.2-19.7.5-29.2-1.8,0,0,0,0,0,0-.2,0-.5-.1-.8-.2-5.1-1.3-10-3.1-14.8-5.3h-.1c1.3-13.9,3.4-22.5,7.8-27.4,3.5-.5,7-.3,10.4.5h0c0,10.3,3.7,11.6,10.6,13.3,8.9,2.1,14.7-2.6,15.8-7.3h.3c.8.3,1.5.8,2.1,1.4h0c-1,1.1-1.9,2.4-2,3.9Z"/><path class="cls-1" d="M103.4,93.2c-1.1,4.8-6.9,9.4-15.8,7.3-6.9-1.7-10.6-3-10.6-13.3v-.2c0-1.7,2.1-4.4,3.9-5.2h2.2c-.5,2-1.2,3.4-1.8,3.9-2.3,7.6,3.3,9.8,7.6,11.1,6,1.8,14.6-2.9,12.7-8.3.6.4,1.2.8,1.8,1.1.4,1.1.4,2.4.1,3.7Z"/><line class="cls-7" x1="103.3" y1="89.6" x2="103.3" y2="89.5"/><path class="cls-7" d="M82.2,81.6c-.2,0-.3,0-.5,0h0"/><path class="cls-7" d="M77,87.3s0,0,0,0"/><path class="cls-7" d="M66.6,86.8c-.1,0-.2,0-.3,0"/><path class="cls-7" d="M106,270.5c0-.1.2-.2.2-.3,0,0,.1-.2.2-.3,0,0,0,0-.1,0"/><path class="cls-7" d="M88.9,267.8c-.1,0-.2,0-.3-.1"/><path class="cls-7" d="M169.8,204.8c0,0-.1.2-.2.2"/><path class="cls-5" d="M120.3,38.8c-2-1.6-14-5.2-17.5-4.1-3.6,1.8-6.1,1.5-7.1,6-.9,4.5-4.6,16.2-4.8,15.9-1.6-2.2-3.7-5.7-4.9-8.1-.7-1.5-2.4-2.1-3.7-1.5-1.3.6-2.2,4.5-2.1,6.2,0,1.7,1.1,3.2,2.4,3.9.3.1.5.2.8.3l-.4.8c-.3,2.9.2,7.2.4,8.2h0c0,.3.2.6.2.9,0,0,0,0,0,0,1.2,4.4,3.1,7.9,5.4,10.9,2.2,3,8,7.6,12.5,10.4h0c.6.4,1.2.8,1.8,1.1,1.7.9,3,1.5,3.6,1.4.4,0,.9-.3,1.4-.5,3.7-1.9,8.8-7.9,8.8-7.9,6.4-7.1,7.2-20,7.8-22.1.4-1.6,2.4-4.8,3.8-8.5.8-2,1.3-4.2,1.3-6.5.5-3.4-6.8-5.1-9.7-6.7ZM101.7,49.3c.3-3.3,5.6-2.3,8.4-1.5,2.7.8.9,3.1.3,2.9-1.9-.5-8.7-1.1-8.7-1.4ZM106.7,58.1c-.3,1.5-1.2,2.6-2,2.4-.8-.2-1.2-1.6-.9-3.1.3-1.5,1.2-2.5,2-2.4s1.2,1.5.9,3ZM103.3,71.5l.2-.2c3.6,2.8,6.3,4.6,10.5,5.1-2.5,8.2-10.7,7.8-10.6-4.9ZM121.6,62c-.3,1.6-1.2,2.7-2,2.5-.8-.2-1.1-1.6-.8-3.1.3-1.6,1.2-2.7,2-2.5.8.2,1.2,1.6.8,3.1ZM123.4,56.9c-.5-.2-3.2-1.5-3.8-1.8-1.4-.8-.2-2.8.9-3,1.2-.2,4.5,2.9,4.4,3.6,0,.8-.9,1.4-1.5,1.1Z"/><path class="cls-6" d="M113.9,76.4c-2.5,8.2-10.7,7.8-10.6-4.9l.2-.2c3.6,2.8,6.3,4.6,10.5,5.1Z"/><path class="cls-7" d="M115.4,64.4c2.7,1.8,2.9,6.1-.9,6.7"/><path class="cls-8" d="M121.6,62c-.3,1.6-1.2,2.7-2,2.5-.8-.2-1.1-1.6-.8-3.1.3-1.6,1.2-2.7,2-2.5.8.2,1.2,1.6.8,3.1Z"/><path class="cls-8" d="M106.7,58.1c-.3,1.5-1.2,2.6-2,2.4-.8-.2-1.2-1.6-.9-3.1.3-1.5,1.2-2.5,2-2.4s1.2,1.5.9,3Z"/><path class="cls-7" d="M103.5,71.2c-.3-.2-.6-.4-.8-.6"/><path class="cls-5" d="M88.8,96.8c-4.3-1.3-10-3.5-7.6-11.1.7-.4,1.3-1.8,1.8-3.8h0c.6-2.3,1-5.4,1.1-8.4,0-2.2-.1-4.4-.5-6.3,1.2,4.4,3.1,7.9,5.4,10.9,2.2,3,8,7.6,12.5,10.4h0c2,5.4-6.7,10.2-12.7,8.4Z"/><path class="cls-7" d="M83.4,57.2c1.1.2,2.3,0,3.3-.7"/><path class="cls-4" d="M129,52.1h-.4c.8-2.2,1.3-4.4,1.3-6.6.5-3.4-6.8-5.1-9.7-6.7-2-1.6-14-5.2-17.5-4.1-3.6,1.8-6.1,1.5-7.1,6-.9,4.5-4.6,16.2-4.8,15.9-1.6-2.2-3.7-5.7-4.9-8.1-.7-1.5-2.4-2.1-3.7-1.5-1.3.6-2.2,4.5-2.1,6.2,0,1.7,1.1,3.2,2.4,3.9.3.1.5.2.8.3l-.4.8c-.3,2.9.2,7.2.4,8.2h0c0,.3.2.6.2.9,0,0,0,0,0,0,.4,1.9.6,4.1.5,6.3-10.5-6.4-11.1-41.3-3.9-47.3,5.8-4.8,2.9-8.1,12.3-9.6,9.4-2.5,30,2.3,40.1,6,2.8,8.2,1.4,24.3-3.5,29.6Z"/><path class="cls-4" d="M110.4,50.6c-1.9-.5-8.7-1.1-8.7-1.4.3-3.3,5.6-2.3,8.4-1.5,2.7.8.9,3.1.3,2.9Z"/><path class="cls-4" d="M124.9,55.7c0,.8-.9,1.4-1.5,1.1-.5-.2-3.2-1.5-3.8-1.8-1.4-.8-.2-2.8.9-3,1.2-.2,4.5,2.9,4.4,3.6Z"/><path class="cls-7" d="M104.3,121.5c-.2,0-.4,0-.6,0"/></svg>