<?xml version="1.0" encoding="UTF-8"?><svg id="usa" xmlns="http://www.w3.org/2000/svg" width="235" height="321.9" viewBox="0 0 235 321.9"><defs><style>.cls-1,.cls-2,.cls-3,.cls-4,.cls-5,.cls-6,.cls-7,.cls-8,.cls-9{stroke:#000;stroke-miterlimit:10;}.cls-2{fill:#698e51;}.cls-3{fill:#fff;}.cls-4{fill:#e8c155;}.cls-5{fill:#b39b68;}.cls-6{fill:#9c6547;}.cls-7{fill:#414141;}.cls-8{fill:#434343;}.cls-9{fill:none;}.cls-10{fill:#825541;stroke-width:0px;}</style></defs><path class="cls-5" d="M109.1,259.6c-1.1.3-2.2.6-3.2.8-7.5,1.9-13.5,3.7-20,4.4,0,0,0,0,0,0,0,0,0,0,0,0-1.8.2-3.7.3-5.6.3-1.1-7.8,1.9-31-16.5-46.9h-.2c-4.8,15.9-10.9,37.9-18.4,47.8-1.9-.2-3.6-.5-5.1-.9-7.9-1.8-11.7-5.1-18.2-9.1-1.1-.7-2.3-1.4-3.6-2.1,14.7-19.3,6.5-45.2,14.2-65.3h0c19.1,4.9,33.2,7.5,53.2,5.7,5.4,4.7,20.5,26.2,21.7,36.2,2,17.3,1.5,24.4,1.8,29.2Z"/><path class="cls-6" d="M107.2,58.8c-.4-2.8-1.2-5.3-2.5-7.2-4-6.2-12.5-21.4-39.5-15.2-18.7,4.2-20.3,22.5-19.9,32.5.3,8.2,3.2,15.2,9.2,20.8,0,3.9-.1,8.3-.5,11.6-.2,2.1-.5,3.7-.8,4.6v.3c1.5,3.9,11.1,7.8,13.9,8.4,2.8.7,6,.2,8-1.6,2-1.9-.7-4.2,0-7.6l.2-.4c1.1.5,2.1,1,3.1,1.3,3.1,1.2,5.4,1.7,6.5,1.5,4.4-.7,9.3-6.5,9.3-6.5,8.4-9.1,8.4-18.1,9-20.3.8-2.6,1.5-2.8,3-7.5,1.3-4.1,1.8-9.7,1-14.6ZM78.3,76.9c.4-1.5,1.4-2.6,2.4-2.4,1,.2,1.4,1.6,1.1,3.1-.4,1.5-1.4,2.6-2.4,2.4-1-.2-1.4-1.6-1.1-3.1ZM79.5,90.5l.2-.3c4.3,2.9,7.6,4.8,12.6,5.3-2.9,8.5-12.9,8-12.8-5ZM99.7,81.7c-.4,1.6-1.4,2.7-2.4,2.6s-1.4-1.6-1-3.2c.4-1.6,1.4-2.7,2.3-2.6s1.4,1.6,1,3.2Z"/><path class="cls-3" d="M92.3,95.6c-2.9,8.5-12.9,8-12.8-5l.2-.3c4.3,2.9,7.6,4.8,12.6,5.3Z"/><path class="cls-9" d="M75.4,104.9c-4.6-2.2-10.1-5.8-14.9-10.8"/><path class="cls-9" d="M102.2,74.9c-.2-2.6-4.2-3-5.4-1.6"/><path class="cls-9" d="M85.5,70c-1.4-2-6.5-3.8-9.4-1.6"/><path class="cls-9" d="M94.2,87c.5,7-7.4,3.5-8.7,1.9"/><path class="cls-1" d="M99.7,81.7c-.4,1.6-1.4,2.7-2.4,2.6s-1.4-1.6-1-3.2c.4-1.6,1.4-2.7,2.3-2.6s1.4,1.6,1,3.2Z"/><path class="cls-1" d="M81.8,77.6c-.4,1.5-1.4,2.6-2.4,2.4-1-.2-1.4-1.6-1.1-3.1.4-1.5,1.4-2.6,2.4-2.4,1,.2,1.4,1.6,1.1,3.1Z"/><path class="cls-9" d="M79.7,90.3c-.3-.2-.6-.4-1-.6"/><path class="cls-7" d="M47.5,120c-1.4,3.6-3.5,7.9-5.8,12.1-1.2,2.1-2.3,4.2-3.5,6.2-3.3,5.6-6.4,10.3-7.9,11.7-.9-.3-1.8-.6-2.8-1-5.1-1.9-10.2-4.1-12.6-5.6-.9-.5-1.4-1-1.6-1.3-.4-1,8.6-18.7,9.4-20,3.9-6.8,9.1-11.5,17.4-13.9.2,0,.4-.1.7-.2,0,0,.1,0,.2,0,2.7-.6,4.6-.3,6,1,0,.2-.1.4-.1.6.3,0,.5,0,.8,0,.5.7,1,1.5,1.5,2.5.6,1.3-.2,4.2-1.6,7.9Z"/><path class="cls-7" d="M47.7,109.6c-.3,0-.5,0-.8,0,0-.2,0-.4.1-.6.2.2.5.4.7.7Z"/><path class="cls-2" d="M89.7,146.1h0c-10.9,1.6-35.1,1.3-51.2-3,0-1.7-.1-3.3-.3-4.8,1.2-2,2.3-4.1,3.5-6.2,15.6,3.2,37.9,3.2,48,1.9h0c.2,4,.1,8,0,12.1Z"/><path class="cls-7" d="M89.7,146.1c0,1.5-.2,2.9-.2,4.4-.2,2.6-.4,5.3-.6,7.9h-.1c-12.2,1.9-34.7-.1-51.1-3.4h0c.5-4.3.9-8.3.9-11.9,16.1,4.3,40.2,4.6,51.2,3h0Z"/><path class="cls-4" d="M88.8,158.4c-.4,4.1-.8,8.3-1.3,12.4h0c-8.8,1.7-34.6.7-51.4-4.4.5-4,1-7.9,1.4-11.5h0c16.4,3.3,38.9,5.4,51.1,3.4h.1Z"/><path class="cls-2" d="M87.5,170.8c-.5,4.2-.9,8.3-1.2,12.4-11.8,1.1-23.2,0-34.8-2.1h-.2c1.2-2.8,2-5.6,1.4-6.9-1.1-2.4-11.4-4.7-13.4-2.8h0c-1.3-1.6-2.5-3.2-3.5-4.8l.4-.2c16.8,5.1,42.6,6.1,51.4,4.4h0Z"/><path class="cls-7" d="M86.3,183.3c-.3,3.6-.6,7.3-.7,10.9-20,1.8-34.2-.8-53.2-5.8-.4-.1-.8-.2-1.1-.3,2-5.4,2.1-4.2,3.1-9.8h0c.9.6,1.8,1.3,2.7,2,1.3,2.1,7.9,7.8,10.3,6.8,1-.5,2.7-3,3.9-5.8h.2c11.6,2.1,23,3.3,34.8,2.1Z"/><path class="cls-9" d="M38.2,138.3c0,0,0-.1,0-.2"/><path class="cls-6" d="M51.3,181.1c-1.2,2.8-2.9,5.3-3.9,5.8-2.4,1.1-9-4.6-10.3-6.8-1-.7-1.9-1.4-2.7-2.1-9.2-7.1-14.3-11.9-20.1-22.3-1.7-3-1.3-6.9.7-12.3,2.5,1.5,7.5,3.7,12.6,5.6-.8,1.3-.4.6-1.6,2.5,4.5,6.2,6.8,10.7,9.9,15.2,1,1.6,2.2,3.2,3.5,4.9h0c2-1.9,12.3.4,13.4,2.8.6,1.3-.2,4.1-1.4,6.8Z"/><path class="cls-9" d="M39.7,172.1c-.1-.2-.3-.3-.4-.5"/><path class="cls-7" d="M88.6,121.8c-5.2.8-10.2,1.4-15.3,1.5.8-2.8,1.6-5.6,3.2-8,1.6-2.5,4.2-4.6,7.2-5.1,2.3,2.9,4.1,7.1,4.7,10.6,0,.3.1.7.2,1Z"/><path class="cls-7" d="M102.2,144.4c-.6.4-1.2.7-1.8,1.2-3.7,2.6-6.8,5.9-9.5,7.7-.8-1-1.3-1.9-1.4-2.8,0-1.5.2-3,.2-4.4.2-4,.2-8.1,0-12.1-.1-4.1-.5-8.2-1.1-12.2,0-.3-.1-.7-.2-1-.6-3.5-2.4-7.7-4.7-10.6,9.1,3.7,13.8,26.4,18.5,34.2Z"/><path class="cls-9" d="M90.9,153.3c-.5.3-1,.6-1.5.8"/><path class="cls-6" d="M118.9,164.5c-3.2.6-.6-.2-3.3,1.6-2.6,1.6-4.5,4.5-3.9,7.3h-.2c-2.6-6.1-16.2-14.2-20.7-20.1,2.8-1.8,5.8-5.2,9.5-7.7,4.8,7.1,12.9,15.5,18.5,18.9Z"/><path class="cls-9" d="M89.4,150c0,.1,0,.3,0,.5"/><path class="cls-6" d="M123,176.5c-3,2-4.9,2.8-8,.9-1.5-.9-2.7-2.2-3.2-3.8,0-.1,0-.2,0-.3-.6-2.8,1.3-5.6,3.9-7.3,2.7-1.7,0-.9,3.3-1.6,3.6-1,7.9.8,9.4,3.9,1.5,3.1-2.3,6.2-5.3,8.2Z"/><path class="cls-9" d="M68.2,203.9c-1.4,3.3-3,8.4-4.8,14.2"/><path class="cls-9" d="M40.1,264.7c0,0,0,.2-.2.3"/><path class="cls-6" d="M22.8,290.8h0c0,0-.2.3-.2.3-1.2,1.2-10.5,1-10.9-1.7h-.6c0-.4.1-.7.2-1,2.2-10.3,4.2-23.9,10.3-32.6h0c6.5,4.1,10.3,7.3,18.2,9.1-5.1,8.7-10.9,18.5-17.2,25.8Z"/><path class="cls-9" d="M11.2,289.3c0,.1,0,.2,0,.3"/><path class="cls-9" d="M89.5,293.8h0c0,0,0-.2,0-.4"/><path class="cls-9" d="M86,266.3c0-.4-.2-.8-.3-1.2"/><path class="cls-6" d="M105.8,260.4c-.9,8.7-2,15.6-3.6,26.5-1.2,1.1-1.7,2.7-2.2,4.1-.5,1.5-1.2,3-2.6,3.9-2.4,1.6-6.3.6-7.8-1.7h0c0-.1,0-.3,0-.5-.2-3.4-1-16.1-3.5-26.6l-.2-1.5c6.5-.7,12.5-2.4,20-4.4Z"/><path class="cls-7" d="M48.4,105.8c-.6,1-1.1,2-1.4,3.1-1.4-1.3-3.3-1.7-6-1,2-.6,5.2-1.7,7.4-2.1Z"/><path class="cls-8" d="M134.8,311.1c-3.2,2.1-7.5,2.5-11.5,2.7-12.3.5-20.2-3.4-32.4-4.7-1.5-.2-3.1-.4-4-1.4-.6-.7-.7-1.7-.7-2.7,0-4,.5-8.1,1.6-12h1.6c0,0,0,.2,0,.4h0c1.5,2.3,5.4,3.3,7.8,1.7,1.4-.9,2.1-2.5,2.6-3.9.5-1.5,1-3,2.2-4.1,1.2-1.1,2.5-1.5,3.9-.5h.1c10.1,3.5,15.9,9.5,26,13,1.8.6,3.6,1.2,4.8,2.5,2.6,2.7,1,7-2.2,9.1Z"/><path class="cls-9" d="M30.5,288.9c0-.1-.2-.2-.2-.3"/><path class="cls-8" d="M40,320c-11.7-2.4-18.1-5.5-35.8-16.3-1.2-.7-2.5-1.4-2.8-2.6-.2-.9.2-1.8.6-2.6,1.8-3.7,5.5-7,8.2-10.2l1.2.2c0,.3-.1.6-.2.8h.6c.3,2.8,9.7,3,10.9,1.8l.2-.2c1.1-1.1,2.2-2.3,3.8-2.9,1.5-.6,2.8-.5,3.6.6l-.3.2c7.3,12.8,4.6,12.7,15.8,18.4,1.6.8,3.3.2,3.7,1.8,2,8-2.2,12.5-9.6,11Z"/><path class="cls-7" d="M73,123.3c-8.6.2-17.1-.8-25.5-3.3,1.5-3.7,2.2-6.6,1.6-7.9-.4-1-.9-1.8-1.5-2.5,9.9,1.1,19.2,6.1,25.4,13.6Z"/><path class="cls-7" d="M83.7,110.2c-3.1.4-5.6,2.5-7.2,5.1-1.6,2.4-2.4,5.3-3.2,8,0,0-.2,0-.3,0-6.2-7.5-15.5-12.5-25.4-13.6-.2-.3-.4-.5-.7-.7.3-1.1.8-2.2,1.4-3.1,1.3-2,3.3-3.7,5.7-4.6h0c-.2,2.1-.5,3.7-.8,4.6v.3c1.5,3.9,11.1,7.8,13.9,8.4,2.8.7,6,.2,8-1.6,2-1.9-.7-4.2,0-7.6l.2-.4c1.1.5,2.1,1,3.1,1.3h0c2.4,1,3.5,1.8,5.3,4Z"/><path class="cls-9" d="M78.4,106.2c-.3-.1-.7-.3-1.1-.4"/><path class="cls-10" d="M107.2,58.8c-3.9,1.4-8.1,2.5-12.3,1.9-3.4-.5-6.5-2.1-9.6-3.6-3.1-1.5-6.3-3-9.7-3.2-3.4-.2-7.1.9-9,3.8-1.1,1.6-1.5,3.6-2,5.5-.5,1.9-1,3.9-2.4,5.3-1.2,1.3-3.3,2-4.9,1.2h0c-.8-1.8-3.1-2.3-4.7-1.2-1.5,1-2.3,3.1-2.6,5-.4,3.5,1,7.4,3.9,8.9.3,1.7.5,4.3.5,7.2-6-5.6-8.9-12.6-9.2-20.8-.4-10,1.2-28.2,19.9-32.5,27-6.1,35.5,9,39.5,15.2,1.2,1.9,2,4.5,2.5,7.2Z"/><path class="cls-9" d="M54.6,89.6h0"/><path class="cls-9" d="M54.2,82.4c1.3.7,3.1.6,3.8-.8"/><path class="cls-9" d="M107.5,58.7c0,0-.1,0-.2,0"/><path class="cls-4" d="M89.8,134h0c-10.2,1.3-32.4,1.3-48-1.9,2.3-4.2,4.4-8.5,5.8-12.1,8.4,2.5,16.9,3.5,25.5,3.3,0,0,.1.2.2.2,0,0,0-.2,0-.2,5.1-.1,10.1-.6,15.3-1.5.6,4,1,8.1,1.1,12.2Z"/><path class="cls-9" d="M57.5,69.7c-.8-1.8-3.1-2.2-4.7-1.2-1.5,1-2.3,3.1-2.6,5-.4,3.5,1,7.4,3.9,8.9.3,1.7.5,4.3.5,7.2-6-5.6-8.9-12.6-9.2-20.8-.4-10,1.2-28.2,19.9-32.5,27-6.1,35.5,9,39.5,15.2,1.2,1.9,2,4.5,2.5,7.2"/></svg>