<?xml version="1.0" encoding="UTF-8"?><svg id="usa" xmlns="http://www.w3.org/2000/svg" width="235" height="321.9" viewBox="0 0 235 321.9"><defs><style>.cls-1{fill:#3a6793;}.cls-1,.cls-2,.cls-3,.cls-4,.cls-5,.cls-6,.cls-7,.cls-8{stroke:#000;stroke-linecap:round;stroke-linejoin:round;}.cls-2{fill:#35221e;}.cls-3{fill:#cc915a;}.cls-4{fill:#636567;}.cls-5{fill:#bc6c29;}.cls-6{fill:none;}.cls-7{fill:#f9ce0d;}</style></defs><path class="cls-3" d="M99.7,183.6c-3.4,3.7-6.4,6.4-7.9,11-.6,2-1,3.8-1.7,5.8-.9,2.6-2.6,2.8-4.1,3.2h-.3c-.4-2.5-.8-5-.9-7.1.5-.1,1.1-.2,1.6-.2.1-3.4.2-7.1.3-10.8h0c.4-.6,2-2.5,2.7-3.4,1.2-1.5,2.2-2.8,3.1-4.6,1.2-2.5,2-5.4,3.5-7.9l-.5-.3c-.5.5-5.5-10.5-7.3-12.7h0c4.5-1.8,6.1-4.6,7.5-8.2h0c1.7,3,7.6,15.2,9.1,17.5,3.9,6.3-.5,12.7-5.1,17.7Z"/><path class="cls-2" d="M101.5,90.2c-1.9-2-4.2-3.5-6.7-4.7-1.4-.6-2.8-1.2-4.3-1.6-7.6-2.3-16.5-2.1-23.8-2.3,0-4.9-1.6-9.1-3.7-13.2,1.9,3.9.3,9.1-.9,13.4-5.4-.5-10.5-.4-14.6-.2v2.3c-1,14.6-2.7,22.9,1.4,32.5-2.5.6-2.8.5-6.3,1.3-9-2.5-10.9-16.1-10.9-27.8s3.4-24.6,9-29.8c2.3-2.1,6.2-6.6,15.7-6.4,9.1,3.4,8.1-2.2,14.1-1.6,4.7.5,10.8,5.3,14.6,7.7,10.2,6.8,13.3,18.8,16.4,30.4Z"/><path class="cls-3" d="M72.1,124.9c.2,5.3-3.1,11.6-8.8,8.9q-3.5-1.6-4.9-2.8c-.2-.3-.3-.7-.5-1-1.7-3.5-4.9-6-4.1-9.8,8.3,5.8,13.5,6.4,18.2,4.3h0c0,.2,0,.3,0,.4Z"/><line class="cls-6" x1="72.1" y1="124.9" x2="72.1" y2="124.9"/><path class="cls-1" d="M70.9,138.7c-3,2.1-6.6,2.1-9.8.8h0c-.6-3-1.6-6.1-2.6-8.5q1.4,1.2,4.9,2.8c5.7,2.7,9-3.6,8.8-8.9.7.6,1.3,1.3,1.8,1.9,3.4,4.8-.3,9.9-3,11.8Z"/><path class="cls-1" d="M87,156.9c0,3.2-.2,6.3-.2,9.2,0,6.1,0,12.8-.2,19.4h0c0,3.7-.2,7.4-.3,10.8-.5,0-1.1,0-1.6.2-2.1.4-4.3,1.4-6.4,1.7-4.1.5-8.4.8-12.6.6-3.7-.2-14.6-1-16-3.7h-.6c.5-1.1-.6-2.4-1.7-3.6.5-2.5-1.2-3.6-3.4-4.2.3-4,1.6-10.8,1.9-15.2.2-3.2-.1-6.4-.4-9.5-.1-1.5-.3-6-.3-6l-.2-.2c1.7-2.3,2-4,2.8-6.7,1.2,6.9,2.8,14.7,5.4,17.9,3.4-6.6,7.9-12.9,8.4-20.6.1-2.1-.1-4.8-.7-7.5h0c3.2,1.2,6.8,1.3,9.8-.9,2.7-1.9,6.4-7,3-11.8,1.8-.2,5.5.6,7.4,1.1.6.2,1.2.4,1.7.6.4,2.2,2.7,9.1,2.4,10.6l.8,2.2c1,4.8,1,10.2.9,15.6Z"/><path class="cls-1" d="M97.2,144.1c-.6,1.5-1.1,2.9-1.6,4.3-1.4,3.6-3,6.4-7.5,8.2-.3.1-.7.3-1.1.4,0-5.4,0-10.8-.9-15.6l-.8-2.2c.2-1.5-2-8.4-2.4-10.6,1.9.9,3.2,2.5,5.1,4.2,3.8,3.5,5.7,7.7,9.2,11.3Z"/><path class="cls-6" d="M87,156.9s0,0-.1,0"/><path class="cls-1" d="M47.9,149.6c-.8,2.8-1.1,4.4-2.8,6.7-.4.6-1,1.3-1.7,2.1-1.4-.5-2.7-.9-4.1-1.4-2-.6-3.9-1.4-5.4-2.9-1.2-1.2-3.3-3.6-4.5-5.9-.6-1.2-1-2.4-.9-3.4,0,0,4.7-6.1,6.5-7.8,2.5-2.4,4.3-6.1,7.4-7.5h0c.1,3.6,2.7,6.1,3.6,10.3.5,2.3,1,5.9,1.7,9.8Z"/><path class="cls-6" d="M44.2,187.2c0,.1,0,.2,0,.4"/><path class="cls-6" d="M45.3,156.5s0,0,0,.2"/><path class="cls-6" d="M95.5,169.2s0,0,0,0"/><path class="cls-6" d="M86.7,185.5c-.1.2-.1.2,0,.2"/><path class="cls-6" d="M99.2,165.9c-1.4.9-2.4,2.2-3.3,3.7"/><path class="cls-3" d="M49.2,195c-.3.5-.9,1-2.2,1.3.7,1.8-.6,3.1-1.7,3.3,1.1,1.5-.9,2.6-1.9,2.6,0,1.4-.7,1.8-1.7,1.7-1.9-.2-4.9-2.1-5.7-2.9-1.8-1.8-4.4-5.6-3.3-8.2-2.2-3.4-8-8.2-10.5-11.2-3.3-4-7.6-14.5-5.1-19.2,2.1-3.8,8.5-9.5,12.2-14.1,1.2,2.3,3.2,4.7,4.5,5.9,1.5,1.5,3.4,2.3,5.4,2.9-1.6,1.3-3.3,3.7-4.9,5.3-1.2,1.2-4.3,3.9-5.4,5h0c.9,1.2,1.7,2.6,2.6,4.7,1.5,3.3,2.7,11.9,7,14.1h0c1.4.4,3.6.5,5.5,1.1,2.2.6,3.9,1.7,3.4,4.2,1.1,1.2,2.1,2.5,1.7,3.6Z"/><path class="cls-6" d="M29,167.4c-1.1-1.4-2.5-2.5-4.8-3.7"/><path class="cls-6" d="M39.3,186.4c-.2,0-.4-.2-.6-.3"/><path class="cls-6" d="M47.5,191.4c-.7-.8-1.5-1.5-1.9-2"/><path class="cls-6" d="M47.5,191.4s0,0,0,0"/><path class="cls-4" d="M92.3,233.1c-1.2.7-2.7,1.4-4.2,2-5,2-11.3,3.2-18.3,2.1-1.9-.3-3.8-.8-5.8-1.5,0-2.9-.4-6.7-.4-10h-.2c-.7,4.8-1.2,9.2-1.2,9.7-1.6.3-3.1.6-4.5.8-4.1.7-7.8.9-12.3-.2-1.2-.3-3.7-1.2-6-2.2-2.1-.9-4-2-4.9-2.8,0,0,6-19.5,7.3-27,1,0,1.8-.3,1.7-1.7.9,0,3-1.1,1.9-2.6,1.1-.2,2.4-1.5,1.7-3.3,1.3-.3,2-.8,2.2-1.3h.6c1.3,2.7,12.3,3.5,16,3.7,4.2.2,8.5,0,12.6-.6,2.2-.2,4.3-1.2,6.4-1.7.2,2.1.5,4.6.9,7.1.7,4.1,1.5,8.5,2,11.5.9,5.8,1.8,11.6,4.6,18Z"/><path class="cls-6" d="M41.7,203.7v.2h0"/><path class="cls-6" d="M66,214.7c-1.1,2.2-2,6.7-2.6,10.9"/><path class="cls-6" d="M72.6,208c-1.8,1.7-5.6,5.7-6.6,6.7"/><path class="cls-6" d="M92.4,277.2c0-.3-.1-.7-.2-1.1"/><path class="cls-6" d="M88.2,234.9s0,.1,0,.2"/><path class="cls-6" d="M69.8,236.8c0,.1,0,.2,0,.4"/><path class="cls-6" d="M57.6,236.1s0,0,0,0"/><path class="cls-3" d="M53.8,243.9c-.5,3,.2,6-.3,9.1-1.1,7.1-5.4,13.7-7.5,20.6-1.3,4.2-3.7,16.9-3.9,22-.7-1.2-1.4-1.9-2.3-2.4h0c1.7-7.8-4.4-9.8-6.5-9.7-.6,0-1.3.1-1.9.3v-.3c2.3-13.8,1.2-20.7,2.6-28.1.6-3.4,3.1-7.6,3.9-10.6.9-3.4.5-7.2,1.3-11.2,2.3,1,4.8,1.9,6,2.2,4.5,1.1,8.2.9,12.3.2-1.2,2.9-3.2,4.7-3.8,7.8Z"/><line class="cls-6" x1="39.3" y1="233.7" x2="39.3" y2="233.6"/><path class="cls-3" d="M87.1,286.3c-1.7,1.9-2,4.7-1.5,7.2h1c-1.3.7-2,1.8-2.7,3.3-.7-7.8-5.4-21.5-9.4-33.3-1.9-5.6-6.2-13.6-1.9-19-.9-2.1-2.8-5-2.8-7.2,7,1.2,13.3,0,18.3-2.1-.6,1.8,0,5.4-.3,7.6,3.9,5.4,3.5,10.4,3.5,15.1,0,3.1.3,13.9.9,18.2h0c.4,3.2,1,6.6,1.4,8.1-2.3,0-5.2.8-6.4,2.1Z"/><path class="cls-6" d="M93.6,284.5c0,0,0-.2,0-.3"/><path class="cls-5" d="M39.8,293.2c-1-.6-2.1-.8-3.8-1.2-2.5-.6-5.7-1.1-9.1-.1.6-.3,1.2-.7,1.6-1.3.5-.7-.4-3.5,0-4.3.5-1.2,1.6-2,2.9-2.4.6-.2,1.3-.3,1.9-.3,2.1,0,8.2,1.9,6.5,9.7Z"/><path class="cls-5" d="M42.7,307.5c-1.2,1.2-4.6.9-6.4,1-4.9,0-9.7,0-14.6,0-1.5,0-3.2-.1-4.2-1.2-.9-1-1-6.5-.6-7.7.7-2.6,5-5.3,7.5-6.5.9-.4,1.8-.7,2.7-1.2,3.3-1,6.6-.5,9.1.1,1.7.4,2.8.7,3.8,1.2h0c.8.5,1.5,1.2,2.3,2.4,1.1,1.7,2,10.5.6,11.9Z"/><path class="cls-5" d="M109.5,308.2c-.4.2-3,.8-3.4.8-4.5.2-20.6-.3-21.9-1.1-1.8-1.1-1.3-9.3-.4-11.2.8-1.5,1.4-2.6,2.7-3.2.3-.1.7-.3,1.1-.4,2.1-.5,6.2-.5,8.4-.4.7,0,1.5,0,1.9-.6,3.6.9,10.1,3.4,11.7,6.6.6,1.3,1.2,8.9,0,9.5Z"/><path class="cls-5" d="M97.9,292.1c-.3.6-1.2.6-1.9.6-2.2,0-6.2,0-8.4.4-.4.1-.7.2-1.1.4h-1c-.5-2.5-.2-5.3,1.5-7.2,1.2-1.3,4.1-2.2,6.4-2.1,1.1,0,2.1.3,2.7.9,1.6,1.3,1.6,4,1.7,6,0,.4,0,.7-.2,1Z"/><path class="cls-6" d="M47.6,81.6c-2.2.1-4.1.3-5.8.4.8-7.9,3-16.1,9.8-20.8"/><path class="cls-2" d="M94.8,85.5v.3c-1.9,10.4-3.3,21.6-6.8,26.2-2.3,2.5-2.4,3-6.4,5.6,4-3.4,5.5-6.4,6.6-11.5,1.2-5.5,0-10.2,0-10.2.9-4.2,2.1-8,2.3-11.9,1.5.4,2.9,1,4.3,1.6Z"/><path class="cls-6" d="M47.8,82.4c0,.5,0,1-.1,1.5"/><path class="cls-3" d="M90.5,83.9c-7.6-2.3-16.5-2.1-23.8-2.3,0-4.9-1.6-9.1-3.7-13.2,1.9,3.9.3,9.1-.9,13.4-5.4-.5-10.5-.4-14.6-.2v2.3c-1,14.6-2.7,22.9,1.4,32.5,1.7,1.4,3.3,2.6,4.8,3.7,0,0,0,0,.1.1,8.3,5.8,13.5,6.4,18.2,4.3,3.2-1.4,6.1-4,9.6-7,4-3.4,5.5-6.4,6.6-11.5,1.2-5.5,0-10.2,0-10.2.9-4.2,2.1-8,2.3-11.9ZM56.2,94.4c0-1.8.8-3.2,1.7-3.2s1.7,1.5,1.7,3.2-.8,3.3-1.7,3.3-1.7-1.5-1.7-3.3ZM71.3,116.4c-2,.3-6.2-.1-8.2-1.4-2-1.3-2.8-1.7-5.2-5.2,1.1,1.1,13.8,4.1,19.6,2h0c-1.4,2.7-3,4.1-6.3,4.5ZM81.5,96.9c-.8,0-1.4-1.3-1.4-2.8s.6-2.8,1.4-2.8,1.4,1.3,1.4,2.8-.6,2.8-1.4,2.8Z"/><path class="cls-6" d="M77.6,111.9c-1.4,2.6-3,4-6.3,4.5-2,.3-6.2-.1-8.2-1.4-2-1.3-2.8-1.7-5.2-5.2,1.1,1.1,13.8,4.1,19.6,2h0Z"/><line class="cls-6" x1="90.5" y1="83.9" x2="90.5" y2="83.9"/><path class="cls-6" d="M83.9,87.8c-1.1-2.4-3.1-2.1-4.1-.8"/><path class="cls-6" d="M59.4,87.3c-2-2-4.6-1-5,.6"/><path class="cls-8" d="M82.9,94.1c0,1.6-.6,2.8-1.4,2.8s-1.4-1.3-1.4-2.8.6-2.8,1.4-2.8,1.4,1.3,1.4,2.8Z"/><path class="cls-8" d="M59.7,94.4c0,1.8-.8,3.3-1.7,3.3s-1.7-1.5-1.7-3.3.8-3.2,1.7-3.2,1.7,1.5,1.7,3.2Z"/><path class="cls-6" d="M73.2,101.2c0,1.2,1,1.6,2.1,1.3,0,1-.5,4-2.1,4.5"/><path class="cls-6" d="M78,111.7c-.2,0-.3.1-.5.2"/><path class="cls-7" d="M53.8,120.1c-2.2,1.6-7.1,1.8-9.8,1.6-.8-1.2-1.3-2.7-1.2-4,3.4-.8,3.8-.7,6.3-1.3,1.7,1.4,3.3,2.6,4.8,3.7Z"/><path class="cls-6" d="M53.9,120c0,0,0,0-.1,0"/><path class="cls-2" d="M61.6,147c-.5,7.7-5,14-8.4,20.6-2.6-3.2-4.2-11-5.4-17.9-.7-3.9-1.2-7.5-1.7-9.8-.9-4.3-3.5-6.7-3.6-10.3h0c-1.6-2.2.3-6.2,1.5-7.8,2.8.2,7.6,0,9.8-1.6,0,0,0,0,.1.1-.9,3.9,2.3,6.3,4.1,9.8.1.3.3.7.5,1,1,2.4,1.9,5.4,2.6,8.5.5,2.7.8,5.3.7,7.5Z"/><path class="cls-6" d="M42.7,127.5c-.1.7-.2,1.4-.2,2"/></svg>