<?xml version="1.0" encoding="UTF-8"?><svg id="usa" xmlns="http://www.w3.org/2000/svg" width="235" height="321.9" viewBox="0 0 235 321.9"><defs><style>.cls-1{fill:#604131;}.cls-1,.cls-2,.cls-3,.cls-4,.cls-5,.cls-6,.cls-7,.cls-8{stroke:#000;stroke-linecap:round;stroke-linejoin:round;}.cls-2{fill:#d3a57f;}.cls-3{fill:#6d5f48;}.cls-4{fill:#949d6d;}.cls-5{fill:#866d9a;}.cls-6{fill:#fff;}.cls-7{fill:none;}</style></defs><path class="cls-4" d="M208.3,201.7c-.3,1.2-.8,2.5-1.5,4-2.7,6.1-7.5,14.3-9.2,19.5-.1.3-.2.6-.3.9-13.8-7-39-14.8-52.8-21.8-6-3.1-8-1.8-14.9-2.8-2.1-.3-5.7-.2-10.6-.2-6.4,0-14.9-.3-25.4-1.8-.8-.2-1.6-.3-2.5-.5-7.7-1.6-14.4-2.9-20.3-8.5-5.1-4.8-8-13.9-8.4-22.8,0-.4.3-2.6.6-5.4h0c3.6-1.3,9.6-.9,14.9-.2h0c.2,0,.4,0,.6,0,2.4.4,4.6.8,6.3,1.1,1.1,0,2.3.1,3.4.2.3,0,.7,0,1,0,5.8.4,12.7,2,19.8,4.1,18.9,5.5,39.2,14.6,42.8,16.1,7.4,3.1,18.3,6.2,25.9,8.4,12.3,3.5,19.6,5.5,30.3,9.6Z"/><path class="cls-4" d="M109.2,167.6c-7.1-2.1-14.1-3.6-19.8-4.1,2.8.2,5.6.3,8.2,0,2.9-.3,5.2-1.8,8-1.9-.1-.6-.3-1.2-.4-1.7h.3c1.5,3,2.5,4.4,3.8,7.7Z"/><path class="cls-4" d="M122.2,288.2c-.3.1-.7.2-1.1.4-6.6,2.2-15.7,3.2-22.3,3.6h0c-.8,0-1.5,0-2.2.1.7-12.3,5.3-34.5,5.8-52.6.2-8.5,1.5-11.3-.4-16.8-2.2-6.6-9.3-20.6-10.8-24,.8.2,1.6.3,2.5.5,10.4,1.5,19,1.7,25.4,1.8v.2c1.7,8.6,5.4,24.2,5.8,32.8.9,21.3-2.3,53.3-2.5,54Z"/><line class="cls-7" x1="91.2" y1="198.9" x2="91.2" y2="198.9"/><path class="cls-1" d="M122.9,58.7c-.6-.9-1.1-1.6-1.5-2.2-.6-.9-1.3-1.4-2.5-1.6-.5,0-.8,0-1.2-.1-1.2-.2-1.7-.2-3.6,0-3.5.3-5.3-1.3-9.1-1.9.5-4.5-1-9.2-2.5-13.1,1.3,3.8-.2,9.1-1.8,12.9-.8-.2-2-.3-3.2-.5-1.1-1.7-3-2.4-5.3-1,0,0-.2,0-.3-.1-1.4-.7-2.9-1.1-4.3-1,.9,3.7,1.3,6.2.6,8.9-.9,3.4-4.4,8.9-4.5,12.2-.1,3.8-1,3.5,0,7,.6,2.4-.1,5.2.5,7.5,0,.4.2.8.5,1.2-.7,0-2.5-.1-4.4-.3,0,0,0-.1,0-.2-.1,0-.3,0-.4.1-1.9-.2-3.8-.5-4.5-.4-1,.1-2.4-.4-3.3-.3-1.5.1-2.9.3-4.3.4-1.1,0-2.5.5-3.9.7-.5,0-.9.2-1.3.2-.5-1.7-.9-4.1-.9-4.1-2.2-1.8-4.3-8.5-4.1-10.8.3-2.6-1.2-6-.6-11.3.1-1.1,1.2-5.5,1.8-9.1.9-4.8,1-8.4,4.1-12.3,1.8-2.3,3.1-4.7,4.2-6.8,2.2-4.1,4.2-5.2,6.4-6.8,2.3-1.7,7.8-4.5,16.5-3.4,8,4.1,7.7-1.2,13.1,0,4.3.9,9.4,5.9,12.6,8.6,8.7,7.3,7.6,17.5,7.4,27.7Z"/><path class="cls-7" d="M90.6,30.5c-4.3,2.3-7.3,7.4-8.4,11.9-.7,3-2.3,4.4-2.3,7.7,1.7,0,3.9,1.1,6,.3.6-.2,1.1-.4,1.7-.4"/><path class="cls-1" d="M121.3,56.5c-1.1,1.9-.1,4.9-.6,8.2-.4,2.9-2,5.2-2,8.4,0,3,1.3,5.8,1.5,8.3.4,3.7-4.2,7.4-3.4,9-1.6.7-3,.5-5.2,1.2-2.9.9-3.1-2.1-5.6-1.6-2.9.6-4.2-.9-5.8-1.7,2-1.1,3.7-2.8,5.4-4.4,1.9-1.8,4.8-4.9,8-11.1,2.6-5,1.6-10.2,1.6-10.2,1.3-3.7,2.2-4.4,2.4-7.8h0c.3,0,.7,0,1.2.1,1.3.2,1.9.7,2.5,1.6h0Z"/><path class="cls-7" d="M100.2,88.3c-.1,0-.2-.1-.4-.2"/><path class="cls-7" d="M80.2,86.4c-.1,0-.3,0-.4,0"/><path class="cls-2" d="M117.6,54.7c-1.2-.2-1.7-.2-3.6,0-3.5.3-5.3-1.3-9.1-1.9.5-4.5-1-9.2-2.5-13.1,1.3,3.8-.2,9.1-1.8,12.9-.8-.2-2-.3-3.2-.5-2-.2-4.1-.5-5.3-1,0,0-.2,0-.3-.1-1.4-.7-2.9-1.1-4.3-1,.9,3.7,1.3,6.2.6,8.9-.9,3.4-4.4,8.9-4.5,12.2-.1,3.8-1,3.5,0,7,.6,2.4-.1,5.2.5,7.5,4.2,2.9,7.6,4.1,10.4,4.2,2.2,0,4-.5,5.7-1.5,2-1.1,3.7-2.8,5.4-4.4,1.9-1.8,4.8-4.9,8-11.1,2.6-5,1.6-10.2,1.6-10.2,1.3-3.7,2.2-4.4,2.4-7.8h0ZM93.2,59.7c.4-1.5,1.3-2.5,2.2-2.3.8.2,1.2,1.6.9,3-.4,1.5-1.3,2.5-2.2,2.3-.8-.2-1.2-1.6-.9-3ZM93,73.4c6,3.4,9.2,5.5,12.1,5.5-3.8,8.4-13.8,2.8-12.1-5.5ZM112,64.7c-.4,1.5-1.3,2.6-2.2,2.4-.8-.2-1.2-1.6-.8-3.1.4-1.5,1.3-2.6,2.1-2.4.8.2,1.2,1.6.8,3.1Z"/><path class="cls-1" d="M97.5,52c-2-.2-4.1-.5-5.3-1,2.3-1.4,4.3-.7,5.3,1Z"/><path class="cls-7" d="M84.1,85.5s0,0,0,0"/><path class="cls-7" d="M94.6,89.6c0,0,0,.1,0,.2"/><path class="cls-1" d="M79.8,86.3c-1.2.4-2.6,1.5-4.1,1.1-1.9-.5-4.3-.8-5.8-.4-2.8.7-5,0-6.1-.3,1.4-.3,2.8-.6,3.9-.7,1.5-.2,2.9-.3,4.3-.4.9,0,2.3.4,3.3.3.6,0,2.5.2,4.5.4Z"/><path class="cls-7" d="M63.8,86.8c-.3,0-.5-.2-.6-.2"/><line class="cls-7" x1="65.1" y1="94" x2="65.1" y2="94.8"/><path class="cls-7" d="M103.6,153.7v-.4"/><path class="cls-7" d="M103.7,106.2c0-.4,0-.8,0-1.2"/><path class="cls-7" d="M97.6,93.1c0-.2,0-.4,0-.5"/><path class="cls-7" d="M73.3,92.9c-.8,0-1.6.1-2.4.1"/><path class="cls-7" d="M113.1,57.8c0-2.5-2.4-2.5-3.5-1.2"/><path class="cls-7" d="M92.2,51c-.2.2-.5.3-.8.5"/><path class="cls-7" d="M97.5,52.1s0,0,0,0"/><path class="cls-7" d="M105.3,68.1c1.7,2.6,1.7,2.4,3.1,3.5-1.2,2.2-2,2.5-4.2,3.1"/><path class="cls-8" d="M112,64.7c-.4,1.5-1.3,2.6-2.2,2.4-.8-.2-1.2-1.6-.8-3.1.4-1.5,1.3-2.6,2.1-2.4.8.2,1.2,1.6.8,3.1Z"/><path class="cls-8" d="M96.2,60.5c-.4,1.5-1.3,2.5-2.2,2.3-.8-.2-1.2-1.6-.9-3,.4-1.5,1.3-2.5,2.2-2.3.8.2,1.2,1.6.9,3Z"/><path class="cls-6" d="M105.2,78.9c-3.8,8.4-13.8,2.8-12.1-5.5,6,3.4,9.2,5.5,12.1,5.5Z"/><path class="cls-7" d="M122.2,288.3s0,0,0,0"/><path class="cls-3" d="M234.6,210c-.3.6-.9,1-1.5,1.4-6.7,4-13.4,7.9-20.3,11.5-2.9,1.5-3.1,1.8-6,3.2-1.8.8-7.4.7-8.8-.8h-.3c1.7-5.3,6.5-13.5,9.2-19.6,5.1-.4,21.3-1.4,25.7.9,1.3.7,2.7,2,2.1,3.4Z"/><path class="cls-3" d="M133.1,312.6c-4,0-24.9-5.2-29.2-7.5-4.2-2.3-7.1-7.6-5.1-11.8v-1c6.5-.4,15.7-1.5,22.3-3.6,4.5,3,15,14.3,15.8,16.4.7,2.1-1.7,7.5-3.8,7.6Z"/><path class="cls-7" d="M121.2,288.6c0,0-.2-.1-.2-.1"/><path class="cls-7" d="M33.3,152.8c-.1.2-.2.4-.3.6"/><path class="cls-7" d="M90.4,156.6c0,0-.2,0-.3,0"/><path class="cls-2" d="M124,142.8c-7.7,5.9-13.4,8.9-20.4,11-3.8,1.1-8,2-13.2,2.9-1.9,1.4-8.8,3.7-11.9,3.1-.6-.1-1.1-.4-1.3-.7-1.5-1.9-1.1-13.7,1.4-15.8,2.2-2,13.2.3,14.2,3.1h0c4.1-2,7-3.1,10.2-4.4,2.6-1.1,5.2-2.2,8.8-4.2h0c-2.6-6.4-4.4-11.2-5.6-15.2-2.4-7.5-2.7-11.7-2.4-17.6,0-3.4.2-8.9-2.2-11.2,3.3.8,7,3.6,9.1,6.2,2.1,2.6,5.7,17.1,8.1,22,3.1,6.3,7.8,17.3,5.3,20.7Z"/><path class="cls-7" d="M92.7,146.5c-.2.1-.4.2-.6.3"/><path class="cls-7" d="M114.7,136c-1.1.7-2.1,1.2-3.1,1.8"/><path class="cls-2" d="M91.4,111.5c-.3.6-5-.2-5.2.3-.6,1.1-.5,2.2-1,3-1.8,2.5-2.5,4.5-3.6.4-.2-.9-.7-1.8-1-2.7-.3-.8-1.1-1.3-1.9-1.2-7.9.4-5.5-12.8-5.4-18.4,1.8-.1,3.7-.4,5.5-.7.4-2,1.1-2.8,1.4-5.8,1.9.2,3.7.4,4.4.3-.2-.4-.4-.8-.5-1.2,4.2,2.9,7.6,4.1,10.4,4.2-.5.7-.3-1.1,0,2.8.8,0,1.9.2,3.2.5.8,5.6-3.9,13.7-6.2,18.4Z"/><path class="cls-2" d="M62.6,115.4h0c-3.2,2.5-10.1,11.2-15.3,15.1-.9.7-1.6,1.5-2.2,2.5-4.7,8.3-8.2,12.6-11.8,19.8h0c2.6.8,5.1,10.4,3.4,12.5-1.8,2.3-12.3,3.2-14.1,2-2.1-1.4.2-9.8,1.6-11.9,2.9-13.3,4.6-20.2,12.4-31.3,3.1-4.5,8.9-12.2,12.7-16.4.5-.5,12.1-12.9,15.7-13.7,1,1.5-2,11.2-2.5,21.4Z"/><path class="cls-5" d="M105.2,159.9c.1.5.3,1.1.4,1.7-2.8.1-5.1,1.5-8,1.9-2.6.3-5.4.2-8.2,0-.4,0-.7,0-1,0-1.2,0-2.3-.1-3.4-.2-1.7-.4-3.9-.8-6.3-1.1-.2,0-.4,0-.6,0h0c-5.3-.7-11.3-1.1-14.9.2h0c.7-6.9,1.8-18,1.9-19.3.2-3.6-.5-9.5-.8-13.8-1.5-4.2-1.9-9-1.7-13.7.4-10.2,3.5-19.9,2.5-21.4,5.9-1,8.2-1.4,8.2-1.4,0,.1,0,.2,0,.3,0,5.5-2.5,18.8,5.4,18.4.8,0,1.6.4,1.9,1.2.3.9.7,1.8,1,2.7,1.1,4.1,1.8,2.2,3.6-.4.5-.8.5-1.9,1-3,.3-.5,5,.3,5.2-.3,2.3-4.8,7-12.8,6.2-18.4,1.4.3,2.9.7,3.8.7,2.5,2.3,2.1,7.8,2.2,11.2-.3,5.9,0,10.1,2.4,17.6-.6,4.1-1,3.6-1.7,7.7-.7,3.9-1.5,6.4-1.5,11.6-3.2,1.3-6.1,2.4-10.2,4.5h0c-1-3-11.9-5.3-14.2-3.3-2.4,2.2-2.8,13.9-1.4,15.8.3.4.8.6,1.3.7.2,0,.4,0,.5,0h0c3.3.3,9.5-1.9,11.3-3.2,5.2-.9,9.4-1.8,13.2-2.9.4,2.1,1,3.7,1.6,6.2Z"/></svg>