<?xml version="1.0" encoding="UTF-8"?><svg id="usa" xmlns="http://www.w3.org/2000/svg" width="235" height="321.9" viewBox="0 0 235 321.9"><defs><style>.cls-1{fill:#783b3e;}.cls-1,.cls-2,.cls-3,.cls-4,.cls-5,.cls-6,.cls-7,.cls-8,.cls-9,.cls-10{stroke:#000;stroke-linecap:round;stroke-linejoin:round;}.cls-2{fill:#727a99;}.cls-3{fill:#604940;}.cls-4{fill:#191918;}.cls-5{fill:#404a61;}.cls-6{fill:#65282a;}.cls-7{fill:#c1c1c1;}.cls-8{fill:#fff;}.cls-9{fill:none;}</style></defs><path class="cls-2" d="M79.4,151.3h0c-12.9-2.4-22.6-2.7-23.9,5.8-.1,1.6-.2,3.1-.1,4.5-3.7-13.6-.8-14.1,1.6-41.1.3-7,.5-11.8-.8-17.8-5.1,4.8-7.5,8.2-10.2,10.1-1.7,1.2-5.1,5.3-6.7,6.5-5.4,9.7-9.3,14.7-13.3,22.9-.7.2-1.3.3-2,.5h0c-3.2.6-6.3.5-9.6.4,3-13.6,8.5-27.3,16.5-38.7.2-1.1,15.3-17.1,16.2-17.9,4.6-4.2,8-7.5,14-8.8,2-.4,4.5-1.2,8.1-1.2-.6.7-1.3,1.4-1.9,2.1-1.3,1.5-2.7,3.3-2.9,5.3,0,1.5.5,3,1.1,4.4,3.3,7.5,6.9,14.8,10.9,22h0c-.8,1.8-1.6,3.7-2.4,5.5,1,.7,2.3,1,3.5,1,0,.9,0,1.8,0,2.7l-1.3.2c-2.6-1.2-5.2-1.8-6.5-1.2-3.2,1.6-7.3,13.9-6.3,16.3,1.1,2.9,11.8,2.6,14.8,1.5h.6c0,.8-.1,1.5-.1,2.3h-.9c0,4.3.5,8.6,1.5,12.8Z"/><path class="cls-9" d="M56.3,102.5c0,0-.1.1-.2.2"/><path class="cls-3" d="M26.7,154.9c-1.9,2.3-12.7,3.3-14.5,2.1-2.2-1.5.7-11.7,2.1-13.8,3.3,0,6.4.2,9.6-.4h0c2.7.7,4.6,10,2.8,12.2Z"/><path class="cls-9" d="M103.3,102.5c0,5.5.7,17.7,1,20.9,2.3-.6,4.1-.8,5.7-.6"/><path class="cls-3" d="M83.9,126.3c-.2,0-.5,0-.8.2l-.5.3c-2,2.8-3.3,6.2-3.7,9.6h-.6c-2.9,1-13.6,1.3-14.8-1.6-1-2.4,3.1-14.8,6.3-16.3,1.2-.6,3.8,0,6.5,1.2,3.7,1.7,7.5,4.5,7.6,6.4v.2Z"/><path class="cls-2" d="M118,132.7c-4.9,2.5-8.7,4.1-12.1,5.1,0,0-.1,0-.2,0-7.9,2.2-14,1.2-26.8,1.2,0-.2,0-.4,0-.5,0-.7,0-1.5.1-2.2.4-3.5,1.7-6.8,3.7-9.6l.5-.3c.3,0,.5-.1.8-.2v-.2c-.1-1.9-3.9-4.8-7.6-6.4l1.3-.2c0-.9,0-1.8,0-2.7,0-2.2,0-4.4.3-6.6h0s0,0,0,0c7.5-8.1,17.7-13.7,28.5-15.8,1.7-.3,3.4-.6,5-1.3,1.4-.7,2.7-1.8,3.2-3.3h.4c2.2,2.1,4.1,9.2,4.7,14.3,2.2,18.8,1.2,27.5-1.7,28.5Z"/><path class="cls-9" d="M83.9,126.3c9.8-2,7.9.5,20.4-2.9"/><path class="cls-9" d="M55.6,162.6c0-.4-.2-.7-.3-1.1"/><path class="cls-2" d="M106.6,151.2h0c-3.9,2.2-8.5,3.1-13,2.6v.6c-.3,0-.6-.1-.8-.2-.5-.1-1-.2-1.6-.4-4.1-.9-8.1-1.8-11.8-2.5h0c-1.1-4.3-1.6-8.6-1.5-12.9h.9c0,.2,0,.4,0,.5,12.8,0,18.9,1,26.8-1.2l.3.3c-.6,2.1.1,7.8.7,13Z"/><path class="cls-9" d="M56.1,102.7c-.3-1.4-.7-2.9-1.2-4.5"/><path class="cls-5" d="M195,192.6c-1.3,3.4-4.1,17-7.3,25.3-.1.3-62.7-25.4-65.4-25.9-2.6-.6-6.3-1.1-10.6-1.6-12.8-1.4-30.4-2.6-38.1-4.2-2.5-.6-4.5-1.2-5.8-1.8-5.2-2.6-12.2-9.8-12.5-22.8,0-1.4,0-2.9.1-4.5,1.3-8.5,11-8.1,23.9-5.7,3.7.7,7.7,1.6,11.8,2.5.6.1,1.1.2,1.6.4.2,0,.5.1.7.2,7.3,1.9,9.7,3.9,13.9,4.9v-.2c5.3,1.5,14,3.7,19.4,5.5,3.1,1,68.5,27.4,68.2,28Z"/><path class="cls-5" d="M107.4,159.1c-1.6-.5-3-.8-3.8-1.1"/><path class="cls-5" d="M121,224c0,1.8-10,57.8-10,59.3-11.5,2-11.4,7.2-25.1,5.6-.1-.4,8.3-62.4,7.9-63.9-2.5-8.6-12.5-28.2-20.1-38.8,7.7,1.6,25.3,2.8,38.1,4.2,2.9,10.3,9.3,24.7,9.2,33.6Z"/><path class="cls-6" d="M133,312.6c-3.5,1.6-7.7,1-11.5.3-11.7-2.4-23-6.7-34.3-11-1.3-.5-2.8-1.2-3.4-2.5-.4-1-.2-2.1,0-3.1q.9-4.5,2-7.3c13.7,1.6,13.6-3.6,25.1-5.6,8.8,6.2,13.6,9.7,22.4,15.9,1.5,1.1,3.1,2.2,3.9,3.9,1.8,3.5-.7,8-4.2,9.5Z"/><path class="cls-6" d="M233.5,199.1c-1.8,3.2-5.2,5.3-8.5,7.1-10.2,5.4-21.1,9.1-31.9,12.9-1.3.5-3.6,1.2-5.3-1.2,3.2-8.3,6-21.9,7.3-25.3,10-.9,21.2-2.2,31.3-3.1,1.7-.2,3.6-.3,5.1.4,3.3,1.4,3.9,6,2.1,9.2Z"/><path class="cls-5" d="M107.4,159.1v.2c-4.2-1-6.6-3-13.9-4.9v-.6c4.5.5,9.1-.4,13-2.6h0c.4,3,.7,5.9.8,7.9Z"/><path class="cls-9" d="M108.9,159.6c-.5,0-1.1-.2-1.5-.3"/><path class="cls-9" d="M100.5,88.9s0,0,0,.1"/><path class="cls-9" d="M77.9,136.8c0,.6,0,1.1,0,1.7"/><path class="cls-9" d="M93.6,153.8c-.2,0-.4,0-.7,0"/><path class="cls-3" d="M101.4,85.7c0,1.2-.4,2.4-1,3.3-2.1,3.3-7.2,4.9-11.9,3.5-4.4-1.4-10.2-3.6-7.8-11.4h0c1.2-1.8,1.9-6.1,1.8-10.5,0-1.8-.3-3.6-.7-5.2,1.2,4.2,3,6.4,6,9.4,3.5,3.4,8.5,9.2,13.7,10.9Z"/><path class="cls-1" d="M100.5,89c-2.6,4.4-7.4,6.9-11.9,9.5-4.5,2.6-9.1,6-10.4,11,0-.2,0-.3-.1-.5-2.5-9-1.8-18.9,1.9-27.4.2-.1.4-.3.6-.6h0c-2.4,7.8,3.4,10.1,7.8,11.4,4.7,1.4,9.8-.2,11.9-3.5h0Z"/><path class="cls-2" d="M80.6,81c-.2.3-.4.5-.6.6-3.8,8.6-4.4,18.4-1.9,27.4h0c0,.4-.1.8-.1,1.2h0c-.3.3-.6.6-.8.9,0,0,0,0,0,0,0,0,0,0,0,0,.1.1.4.9.3.7-.3-.5-.5-1-.8-1.5h0c-4-7.2-7.6-14.5-10.9-22-.6-1.4-1.2-2.9-1.1-4.4.1-2,1.5-3.8,2.9-5.3.6-.7,1.2-1.4,1.9-2.1,1.5-1.6,3.2-3.1,5.1-4.3,2.7-1.6,5.1-2.7,8.1-1.8.2,4.4-.6,8.8-1.8,10.5Z"/><path class="cls-2" d="M114.6,89.5c0,.1,0,.3-.1.4-.5,1.5-1.7,2.6-3.2,3.3-1.5.7-3.3,1-5,1.3-10.9,2-21,7.6-28.5,15.8,0-.4,0-.8.1-1.2h0c0,.2,0,.3.1.5,1.3-5,5.9-8.4,10.4-11,4.4-2.6,9.3-5.1,11.9-9.5h0c.6-1,1-2.2,1-3.4,1.1.4,2.1.5,3.2.4,2.3-.2,4.6-1.4,6.5-3,1.5,1.8,4,4.1,3.6,6.4Z"/><path class="cls-7" d="M77.8,110.3c-.2,2.2-.3,4.4-.3,6.6-1.2,0-2.5-.3-3.5-1,.8-1.8,1.6-3.6,2.4-5.5.3.5.5,1,.8,1.5.1.2-.2-.5-.3-.7.3-.3.5-.6.8-.9Z"/><path class="cls-9" d="M77.6,116.8h0"/><path class="cls-9" d="M76.6,110.2c0,0,0,.1,0,.2"/><path class="cls-3" d="M117.9,38.4c-3-1.5-14.1-5.3-17.5-4.2-3.2,1.4-6.2,1.5-7.1,6.1-.9,4.6-4.6,16.5-4.8,16.1-1.6-2.2-.9-5.3-2.1-7.8-.7-1.5-4.5-3.4-6.6-1.9-1.2.8-2.2,4.6-2.1,6.3.1,1.7,1.4,6.2,2.8,6.8-.3,2.9.7,3.7.9,4.7,0,.3.2.6.2.9,1.2,4.2,3,6.4,6,9.4,3.5,3.4,8.5,9.2,13.7,10.9,1.1.4,2.1.5,3.2.4,2.3-.2,4.6-1.4,6.5-3,3-2.5,5.1-5.5,5.1-5.5,4.3-7.1,6.4-13.7,6.4-15.9s2-5.4,3.5-9.3c0,0,0,0,0,0,.9-2.3,1.6-4.8,1.6-7.2.5-3.4-6.8-5.2-9.8-6.8ZM107.8,47.5c2.7.8.9,3.1.3,3-1.9-.5-8.7-1.1-8.7-1.4.3-3.3,5.6-2.4,8.4-1.5ZM104.4,58c-.3,1.5-1.2,2.6-2,2.4-.8-.2-1.2-1.6-.9-3.1.3-1.5,1.2-2.6,2-2.4s1.2,1.6.9,3.1ZM101.4,69.8c4,3.2,6.2,4.4,10.7,5-2.5,8.4-12.2,1.4-10.7-5ZM119.3,62c-.3,1.6-1.2,2.7-2,2.5-.8-.2-1.1-1.6-.8-3.2.3-1.6,1.2-2.7,2-2.5.8.2,1.1,1.6.8,3.2ZM121,56.8c-.5-.2-3.3-1.6-3.8-1.8-1.4-.8-.2-2.9.9-3,1.2-.2,4.5,2.9,4.4,3.7,0,.8-.9,1.5-1.5,1.2Z"/><path class="cls-8" d="M112.1,74.8c-2.5,8.4-12.2,1.4-10.7-5,4,3.2,6.2,4.4,10.7,5Z"/><path class="cls-9" d="M114.2,68c.8,4.1-5.3,2.2-8.3.9"/><path class="cls-10" d="M119.3,62c-.3,1.6-1.2,2.7-2,2.5-.8-.2-1.1-1.6-.8-3.2.3-1.6,1.2-2.7,2-2.5.8.2,1.1,1.6.8,3.2Z"/><path class="cls-10" d="M104.4,58c-.3,1.5-1.2,2.6-2,2.4-.8-.2-1.2-1.6-.9-3.1.3-1.5,1.2-2.6,2-2.4s1.2,1.6.9,3.1Z"/><path class="cls-9" d="M83.9,59.8c-1.2.9-2.1.6-3.4,0"/><path class="cls-4" d="M127.7,45.2c.5-3.4-6.8-5.2-9.8-6.8-3-1.5-14.1-5.3-17.5-4.2-3.2,1.4-6.2,1.5-7.1,6.1-.9,4.6-4.6,16.5-4.8,16.1-1.6-2.2-.9-5.3-2.1-7.8-.7-1.5-4.5-3.4-6.6-1.9-1.2.8-2.2,4.6-2.1,6.3.1,1.7,1.4,6.2,2.8,6.8-.3,2.9.7,3.7.9,4.7-7.3-14.3-4.7-23.7-1.9-34.2,2-7.4,5.8-11.1,7.4-12,11.2-6.7,38.2,4.7,44.1,11,2.6,7.9-1.7,16.3-5,23.2.9-2.3,1.6-4.8,1.6-7.2Z"/><path class="cls-9" d="M126,52.4c-.2.4-.4.9-.6,1.3"/><path class="cls-4" d="M108,50.5c-1.9-.5-8.7-1.1-8.7-1.4.3-3.3,5.6-2.4,8.4-1.5,2.7.8.9,3.1.3,3Z"/><path class="cls-4" d="M122.6,55.6c0,.8-.9,1.5-1.5,1.2-.5-.2-3.3-1.6-3.8-1.8-1.4-.8-.2-2.9.9-3,1.2-.2,4.5,2.9,4.4,3.7Z"/></svg>