<?xml version="1.0" encoding="UTF-8"?><svg id="usa" xmlns="http://www.w3.org/2000/svg" width="235" height="321.9" viewBox="0 0 235 321.9"><defs><style>.cls-1{fill:#3a6793;}.cls-1,.cls-2,.cls-3,.cls-4,.cls-5,.cls-6,.cls-7,.cls-8,.cls-9{stroke:#000;stroke-linecap:round;stroke-linejoin:round;}.cls-2{fill:#35221e;}.cls-3{fill:#cc915a;}.cls-4{fill:#636567;}.cls-5{fill:#bc6c29;}.cls-6{fill:#fff;}.cls-7{fill:none;}.cls-8{fill:#f9ce0d;}</style></defs><path class="cls-2" d="M116.5,101.7c-1.3-1.3-2.8-2.7-4.4-4.1-.8-.7-1.7-1.4-2.5-2.1-5.7-4.5-12.5-8.3-18.6-8-.5-5-1.3-11-.9-15.9-1.7,5.2-2.1,10.1-4.1,15-3.1.2-5.6,0-8.2,0-1.9.8-4.6,4.9-6.4,10.2-.2-1-1.2-1.7-2.2-1.7-1,0-1.9.6-2.5,1.4-.6.8-.9,1.8-1,2.8-.2,1.7.2,3.5,1.3,4.9.3.3.6.6.9.8,0,4-.6,5.7,0,9.7.3,1.7,1.4,4.5,3,6.1-4.2,0-5.3.4-8.9.5-3.7-5.4-16.4-26-3.6-47.6,3.6-6,12.8-16.4,22.7-12.4,0,0,3.1-2.8,6-1.9,21.9,4.8,33.9,23.7,29.5,42.3Z"/><path class="cls-2" d="M66.1,170.7c-.2.3,4.2-31.6-2.5-44.2-.4-.7-.8-1.4-1.3-2,.6.8,7.8-.7,8.6-.9,1.9,2.9,3.1,5.9,3.8,9.1,2.9,13.1-3.3,27.9-8.7,38Z"/><path class="cls-4" d="M109,234.1c-9,2.5-13,8.3-19.7,12.6-2.4-4-12.5-17.4-14.9-21.4-1.9,6.5-3.7,13.1-7.6,21.9-.3,0-.5,0-.8-.1-9.7-1.4-8.6-2.9-18.8-4.4,0-.2,0-.3,0-.5.9-15.4-3.5-24.4,2.4-42.2h0c15.1,4.4,26.3,6.7,42.1,5.1,8.2,8.1,12.6,18.4,17.1,29Z"/><path class="cls-7" d="M83.3,64.5c-8.3,4.3-11.8,16.2-10.7,22.1,1.8,0,3.5,0,5.1,0"/><path class="cls-3" d="M90.9,87.6c-.5-5-1.3-11-.9-15.9-1.7,5.2-2.1,10.1-4.1,15-3.1.2-5.6,0-8.2,0-1.9.8-4.6,4.9-6.4,10.2-.2-1-1.2-1.7-2.2-1.7-1,0-1.9.6-2.5,1.4-.6.8-.9,1.8-1,2.8-.2,1.7.2,3.5,1.3,4.9.3.3.6.6.9.8,0,4-.6,5.7,0,9.7.3,1.7,1.4,4.5,3,6.1h.5c.8.4.6,2.4-.3,2.7,1.9,2.9,3.1,5.9,3.8,9.1,1.3.6,1.9.9,2.6,1.1,2.2.6,4.8.2,6.3-1.5,1.1-1.2.3-2.9,0-4.8h0c-.2-.8-.2-1.6,0-2.5v-.2c3.7,1.9,7,3.1,7.9,3,3.5-.6,8.5-5.5,8.5-5.5,3.4-2.9,4.9-7.4,5.6-11.5s.5-7.5.8-8.5c.6-2.2,1.5-2.8,3.2-6.7-5.7-4.5-12.5-8.3-18.6-8ZM86.2,101.4c.3-1.3,1.1-2.2,1.9-2.1.8.2,1.1,1.4.9,2.7-.3,1.3-1.1,2.2-1.9,2.1-.8-.2-1.1-1.4-.9-2.7ZM87.1,113l.2-.2c3.4,2.4,6,4.1,9.9,4.5-2.3,7.2-10.2,6.8-10.1-4.3ZM103.1,105.5c-.3,1.4-1.1,2.3-1.9,2.2-.7-.2-1.1-1.4-.8-2.8.3-1.4,1.1-2.3,1.9-2.2.7.2,1.1,1.4.8,2.8Z"/><path class="cls-6" d="M97.2,117.3c-2.3,7.2-10.2,6.8-10.1-4.3l.2-.2c3.4,2.4,6,4.1,9.9,4.5Z"/><path class="cls-7" d="M83.6,124.7c-4.9-2.6-10.6-6.3-12.1-9.4"/><line class="cls-7" x1="109.5" y1="95.5" x2="109.5" y2="95.5"/><path class="cls-7" d="M103.9,99.3c-.1-2.2-2.2-2.2-3.1-1"/><path class="cls-7" d="M89.9,94.5c-1.1-1.7-3.2-2.2-5.5-.3"/><path class="cls-7" d="M97.1,107.6c.3,2.1.4,3.4,2.8,3.1-1,2-1.7,2.3-3.7,2.8"/><path class="cls-9" d="M103.1,105.5c-.3,1.4-1.1,2.3-1.9,2.2-.7-.2-1.1-1.4-.8-2.8.3-1.4,1.1-2.3,1.9-2.2.7.2,1.1,1.4.8,2.8Z"/><path class="cls-9" d="M88.9,102c-.3,1.3-1.1,2.2-1.9,2.1-.8-.2-1.1-1.4-.9-2.7.3-1.3,1.1-2.2,1.9-2.1.8.2,1.1,1.4.9,2.7Z"/><path class="cls-7" d="M87.3,112.8c-.3-.2-.5-.4-.8-.6"/><path class="cls-1" d="M56.5,152.3c-.5-.5-1.1-1-1.7-1.5-3.8-2.8-10.1-4.7-12.4-6-.4-.2-.7-.5-.8-.6-.3-.9,0-1.9.3-2.8,2.3-6.4,7.4-11.2,14-13.4,1-.2,1.9-.3,2.6-.5h0c2.2,0,3.5,1.4,4.6,4,1.7,4.4-3.4,17.2-6.5,20.7Z"/><path class="cls-7" d="M58.5,127.6c-.7.1-1.5.3-2.6.5,1-.3,1.8-.5,2.6-.5Z"/><path class="cls-1" d="M95.3,157.1c0,2.9-.1,5.9-.3,8.8h0c-.7,13.1-2.6,26.3-3.1,39.1-15.8,1.6-27-.7-42.1-5.2-.3,0-.6-.2-.9-.3,1.6-4.8,1.6-3.8,2.5-8.8h0c.7.5,1.4,1.1,2.1,1.8,1,1.9,6.2,7,8.2,6,1.6-.8,5.2-9,4.2-11.3-.9-2.1-9-4.2-10.6-2.5h0c-1.1-1.5-2-2.9-2.8-4.3l.3-.2c1-10.1,2.9-22.6,2-28.9v-.5c.7.5,1.3,1,1.8,1.5,3.1-3.5,8.2-16.3,6.5-20.7-1-2.6-2.4-4-4.6-4,3.3-.7,2.9-.6,5.2-1.1,6.6,12.5,2.3,44.5,2.5,44.2,5.3-10.1,11.5-24.9,8.7-38,1.3.6,1.9.9,2.6,1.1,2.2.6,4.8.2,6.3-1.5,1.1-1.2.3-2.9,0-4.8h0s.2,0,.2,0c1.7.9,3.7.8,5.4,1.9.4.3.8.6,1.1,1h0c0,.2.2.3.2.4,1.8,2.6,3.2,5.5,3.7,8.7.9,5.8,1.2,11.8,1.1,17.8Z"/><path class="cls-7" d="M90.2,130.3c-.3-.4-.7-.7-1.1-1"/><path class="cls-3" d="M61.7,198.6c-1.9,1-7.2-4.1-8.2-6-.7-.6-1.5-1.3-2.1-1.9-7.2-6.4-11.3-10.6-16-20-2.3-4.7,2.7-19.2,6.9-25.6v-.2c2.4,1.2,8.7,3.1,12.5,6v.5c-4.1,5.1-6.8,10-10.1,15.5,3.6,5.6,5.4,9.5,7.8,13.6.8,1.4,1.7,2.9,2.8,4.4h0c1.6-1.7,9.7.4,10.6,2.5.9,2.3-2.6,10.5-4.2,11.3Z"/><path class="cls-7" d="M55.6,185.3c-.1-.1-.2-.3-.3-.4"/><path class="cls-1" d="M101.5,151.1c-.9.6-1.6,1-2.1,1.4-1.8,1.3-1.6,1.6-4,4.6h0c0-6-.2-11.9-1.1-17.8-.5-3.2-1.9-6.1-3.7-8.7,0-.1-.2-.2-.2-.3,5.3,5.2,7.8,14.2,11.2,20.7Z"/><path class="cls-3" d="M118.3,178.5c-2.6.6-.5-.1-2.6,1.4-2.1,1.5-3.6,4-3.1,6.5h-.1c-2.4-6.4-16.9-15.4-17.5-20.5h0c.2-3,.3-5.9.3-8.8h0c2.4-3,2.2-3.4,4-4.6h0c1.5,6.8,13.2,22.1,18.9,26Z"/><path class="cls-7" d="M94.9,165.6c0,.1,0,.2,0,.4"/><path class="cls-3" d="M121.5,189.3c-2.4,1.8-3.8,2.5-6.3.8-1.2-.8-2.2-2-2.5-3.4,0-.1,0-.2,0-.3-.5-2.5,1-5,3.1-6.5,2.1-1.5,0-.8,2.6-1.4,2.9-.9,6.2.7,7.4,3.5,1.2,2.7-1.8,5.5-4.2,7.3Z"/><path class="cls-7" d="M78.2,213.8c-1.6,4.1-2.7,7.8-3.8,11.5"/><path class="cls-7" d="M47.3,242.7s0,0,0,0v-.4"/><path class="cls-3" d="M66.1,247.1v.8c-3.2,8-5.2,8.7-10.2,16.6-5.2,8.2-13,15.5-19.4,22.8h0c0,.1-.1.2-.2.2-1,1-8.4.3-8.5-2.1h-.5c0-.4.1-.7.2-.9,2.6-8.9,7.5-19.3,12.9-26.7,1.9-2.6,4-5.6,5.4-8.6,1-2.1,1.4-4.3,1.4-6.6,10.2,1.4,9.1,2.9,18.8,4.4Z"/><path class="cls-7" d="M27.4,285.3c0,0,0,.1,0,.2"/><path class="cls-7" d="M47.3,242.2c0-.8-.1-1.5-.3-2.3"/><path class="cls-7" d="M95,294.3h0c0,0,0-.2,0-.4"/><path class="cls-3" d="M105.1,288.2c-1,1-1.3,2.4-1.8,3.7-.4,1.3-1,2.7-2.1,3.5-1.9,1.4-5,.6-6.2-1.5h0c0,0,0-.2,0-.4h0c-.2-3.6-1.1-18.9-3.7-28.7-.8-3-1.7-9.6-1.2-12.7.4-2.6-.7-5.4-.7-5.4,6.8-4.3,10.7-10.1,19.7-12.6.2,19.6-1.4,34.6-3.9,54Z"/><path class="cls-5" d="M135.1,310.3c-2.5,1.9-5.9,2.3-9.1,2.4-9.7.4-20.2-3.6-29.9-4.8-1.2-.1-2.5-.4-3.1-1.3-.5-.7-.5-1.5-.5-2.4,0-3.6.4-7.2,1.2-10.7h1.3c0,.1,0,.2,0,.3h0c1.2,2,4.3,2.9,6.2,1.5,1.1-.8,1.7-2.2,2.1-3.5.4-1.3.8-2.7,1.8-3.7,1-1,1.9-1.3,3-.5h.1c8,3.1,16.8,9.1,24.8,12.2,1.4.5,2.8,1.1,3.8,2.2,2,2.4.8,6.3-1.7,8.2Z"/><path class="cls-7" d="M42.7,286c0-.1-.1-.2-.2-.3"/><path class="cls-5" d="M48,314.5c-9.1-2.8-13.7-6-27-16.7-.9-.7-1.9-1.4-2.1-2.5-.1-.8.2-1.6.6-2.3,1.6-3.2,4.8-5.9,7.2-8.6l.9.3c0,.3-.2.5-.2.8h.5c0,2.6,7.5,3.2,8.5,2.2,0,0,.1-.1.2-.2,1-.9,1.9-1.9,3.2-2.3,1.2-.4,2.2-.3,2.8.8h-.2c4.9,12,4.7,13.1,13.2,18.9,1.2.8,2.6.4,2.8,1.8,1.1,7.3-4.6,9.7-10.3,8Z"/><path class="cls-2" d="M112.1,97.6c-1.3,5.5-3.3,8.5-6.5,13.1.7-4,.5-7.5.8-8.5.6-2.2,1.5-2.8,3.2-6.7.9.7,1.7,1.4,2.5,2.1Z"/><path class="cls-7" d="M105.5,110.7c0,0-.1.1-.2.2"/><path class="cls-8" d="M71,123.6c-.8.3-8,1.8-8.6.9-.6-.8-1.3-2.5-.5-3.1,3.7,0,4.8-.5,8.9-.5h.5c.8.4.6,2.4-.3,2.7Z"/><path class="cls-7" d="M71.6,104.9c0,.2,0,.3,0,.5-1.2.6-2.6.4-3.7-.3"/></svg>