<?xml version="1.0" encoding="UTF-8"?><svg id="usa" xmlns="http://www.w3.org/2000/svg" width="235" height="321.9" viewBox="0 0 235 321.9"><defs><style>.cls-1{fill:#787878;}.cls-1,.cls-2,.cls-3,.cls-4,.cls-5,.cls-6,.cls-7,.cls-8{stroke:#000;stroke-linecap:round;stroke-linejoin:round;}.cls-2{fill:#3f4040;}.cls-3{fill:#a14599;}.cls-4{fill:#ddcbbf;}.cls-5{fill:#fff;}.cls-6{fill:#eaeae9;}.cls-7{fill:none;}</style></defs><path class="cls-4" d="M92.7,73.8c-7.3-1.6-14.5-2.9-24.6-2.4-7.7-.7-12.1,1.3-16.5,2-1.2,9.2-1,17.8-.2,25.9h0c1.3,3.6,4,6.2,6.1,7.7.4.3.8.5,1.1.7,7.4,4.4,11.8,5.6,15.7,4.6,3.4-.9,6.3-3.4,10.3-6.9,4.2-3.6,5.6-6.2,6.8-11.6,1.3-5.8.8-12.6.8-12.6,1-4.3.4-3.6.6-7.5ZM59.9,81.5c0-1.9.8-3.4,1.8-3.4s1.8,1.5,1.8,3.4-.8,3.4-1.8,3.4-1.8-1.5-1.8-3.4ZM75.2,103.5c-2.2.3-6.5-.1-8.6-1.5-2-1.3-2.9-1.8-5.4-5.4,1.2,1.2,14.4,4.3,20.6,2.1h0c-1.5,2.8-3.1,4.3-6.6,4.8ZM85.2,84.1c-.8,0-1.5-1.3-1.5-3s.7-3,1.5-3,1.5,1.3,1.5,3-.7,3-1.5,3Z"/><path class="cls-2" d="M46.9,70.9h0c.8,2,2.4,7.1,2.7,2h.3c0,.2,0,.5,0,.7.6,0,1.2-.1,1.7-.2-1.2,9.2-1,17.8-.2,25.9.6,6,1.5,11.8,2.5,17.4-.3,0-.8-.1-1.3,0-.4,0-.9,0-1.3,0-1.7-.2-3.2-.2-4.6,0-1.1,0-2.2.1-3.2.6-.4.2-.8.4-1.2.7-.4.3-.8.6-1.1.9h0c-2.7,2-4.2,4.9-6,6.9,0,0,0,0,0,.1,0,0,0,0-.1.1-.2.2-.4.4-.6.6h0c-.7.7-1.5,1.2-2.5,1.4,6.8-11.1,4.6-28.6,6.3-44,1.4-12.6,2.7-28.9,7.4-34.3,2.1-2.4,9.3-8.8,19.2-8.6,8.3,0,6,0,12.2.7,1.6.2,2.8.4,3.9.7-9.6-1.7-25.4,1.3-29.4,8.1-4.2,7.1-4.4,14.2-4.5,20.3Z"/><path class="cls-2" d="M97.2,74.8c-1.5-.3-3-.7-4.5-1-7.3-1.6-14.5-2.9-24.6-2.4-7.7-.7-12.1,1.3-16.5,2-.6,0-1.2.2-1.7.2,0-.2,0-.4,0-.6.7-8.1,0-16.9,5.4-22.1h0c4.9-4.5,12.5-5.6,19.4-5.6s16.8,4.2,20.3,10.1c2.1,5.7,1.7,12.2,2.2,19.4Z"/><path class="cls-3" d="M94.9,55.3c-3.6-5.9-10.9-10.1-20.3-10.1s-14.5,1.1-19.4,5.6h0c-5.3,5.3-4.7,14-5.4,22.2h-.3c-.4,5.1-1.9,0-2.7-2.1h0c.1-6.1.3-13.2,4.5-20.3,4-6.9,19.8-9.8,29.4-8.1,0,0,0,0,0,0,2.2.6,3.8,1.6,6.5,3.4,4.1,2.7,6.4,5.9,7.7,9.4Z"/><path class="cls-2" d="M94.4,125.4c-1-1.4-2.2-2.7-3.5-4-2.1-1.9-3.4-3.7-5.7-4.7h0c-.5-.2-.9-.4-1.5-.5-2-.5-4.8-.8-6.7-.6l-.6.2c-.4-.8-1.1-1.6-1.9-2.4l-.3-1.1c3.4-.9,6.3-3.4,10.3-6.9,4.2-3.6,5.6-6.2,6.8-11.6,1.3-5.8.8-12.6.8-12.6,1-4.3.4-3.6.6-7.5,1.5.3,3,.7,4.5,1-.6-7.2-.1-13.8-2.2-19.4-1.3-3.5-3.6-6.7-7.7-9.4-2.7-1.8-4.2-2.8-6.5-3.4.4,0,.8.1,1.2.2,3.7.9,7,3.7,9.8,6.1h.1c14.3,14.6,4.5,67.6,2.5,76.6Z"/><path class="cls-7" d="M91.9,48.7h0c-.4-.4-.7-.7-1.1-1"/><path class="cls-7" d="M94.4,125.4c-.1.5-.2.8-.2,1.1"/><path class="cls-7" d="M92.7,73.8h0"/><path class="cls-7" d="M87.7,74.6c-1.1-2.5-3.2-2.2-4.3-.9"/><path class="cls-7" d="M63.4,74c-2.1-2.1-4.9-1-5.3.6"/><path class="cls-4" d="M74.5,113.5c-.1-.1-.3-.2-.4-.4.2,5.7-3.3,12.3-9.3,9.5-3.7-1.7-8.2-4.5-7.9-7.3,0-.9.2-1.8.3-2.8.2-1.5.3-3.3.3-5.4.4.3.8.5,1.1.7,7.4,4.4,11.8,5.6,15.7,4.6l.3,1.1Z"/><path class="cls-7" d="M57.4,107.1h0"/><path class="cls-7" d="M74.1,113.1c0-.1,0-.3,0-.4"/><path class="cls-7" d="M57.3,112.5s0,0-.1,0"/><line class="cls-7" x1="74.1" y1="113.1" x2="74.1" y2="113.1"/><path class="cls-3" d="M100.6,133.5c-.6,1.7-1.2,3.3-1.7,4.8-1.5,4-3.4,7.1-8.8,8.8,0-.3,0-.5-.2-.7h0c0-5.5,0-11-1-15.8l-.8-2.4c.4-1.5-1.8-8.4-2.9-11.4,2.2,1,3.6,2.7,5.7,4.7,1.3,1.3,2.5,2.6,3.5,4,2,2.7,3.8,5.5,6.2,8.1Z"/><path class="cls-7" d="M90.1,147.1c0,0-.1,0-.2,0,0,0,0,0-.1,0"/><path class="cls-3" d="M51,133.3v1.4c-2,3.1-3.3,8-5.5,11.8-.5.8-1,1.6-1.6,2.3-.7-.3-1.3-.5-2-.7-2.9-1-5.9-1.7-8.1-3.8-1.2-1.2-3.1-3.4-4.4-5.6h0c-.8-1.5-1.4-3-1.3-4.3,0,0,4.1-5.3,6.3-7.7h0c.2-.2.4-.4.6-.6,0,0,0,0,.1-.1,0,0,0,0,0-.1,1.9-1.9,3.8-4.9,6-6.9h0c.4-.3.9-.7,1.4-.9h2.1c2.8,2.2,4.5,4.3,5.6,7.6.5,1.5.9,3,1,4.6,0,.8,0,3.2-.1,3.2Z"/><path class="cls-7" d="M54.3,116.5c.2.3.1.3-.1.3"/><path class="cls-3" d="M72.8,127.7c-6.3,4.5-15.4-.3-17.7-5.7-.4-.9-.9-3.1-.9-5.2,0-2.5.6-4.9,3-4.3-.1,1-.2,1.9-.3,2.8-.2,2.9,4.2,5.6,7.9,7.3,6,2.8,9.5-3.8,9.3-9.5.2.1.3.2.4.4.8.8,1.5,1.6,1.9,2.4,2.7,4.9-1,9.9-3.6,11.8Z"/><path class="cls-3" d="M89.9,146.3h0c0,.3,0,.5,0,.8,0,3.4-.2,6.7-.2,9.8s0,3.7,0,5.5c0,4.4-.1,8.8-.2,13.2-.1,3.9-.2,7.9-.4,11.8-.6,0-1.1,0-1.7.2-2.2.5-4.5,1.5-6.8,1.8-4.4.5-8.9.8-13.4.6-3.5-.2-18.9-2-22.9-4.4-.5-.3-.8-.5-.9-.8,0-1.1.3-2.8.7-4.8.6-3.5,1.3-7.8,1.9-11.4h0c.3-2.1.6-3.9.7-5.2.2-3.4-.1-6.8-.4-10.1-.1-1.6-.3-6.4-.4-6.4l-.3-.2c2.3-3.8,3.6-8.7,5.7-11.8v-1.4s0-2.4,0-3.2c0-1.6-.5-3.1-1-4.6-1-3.3-2.8-5.4-5.6-7.5h-2.1c.6-.4,1.2-.7,1.8-.9.7-.2,1.5-.4,2.3-.5.6,0,1.2,0,1.9,0s1.8,0,2.7,0c.8.1,1.8.3,2.7.5,0-.1,0-.3,0-.4.2,0,.3,0,.4,0,0,2.1.5,4.3.9,5.2,2.3,5.4,11.4,10.2,17.7,5.7,2.7-1.9,6.4-7,3.6-11.8l.6-.2c1.9-.2,4.7,0,6.7.6.5.1,1,.3,1.5.5h0c1.1,3,3.3,9.9,2.9,11.4l.8,2.4c1,4.8,1.1,10.4,1,15.8Z"/><path class="cls-7" d="M45.8,146.7s0,0,0,.3"/><path class="cls-7" d="M51,133.3s0,0,0-.2"/><path class="cls-7" d="M85.2,116.8c-.1-.3-.2-.5-.3-.7"/><path class="cls-4" d="M89.5,175.5h0c.1-4.4.2-8.8.2-13.2,1.3-1.3,2-2.2,2.7-2.8-.5-.3-1.4-7.9-2.3-12.5,5.4-1.8,7.3-4.9,8.8-8.8l.7.3c.7,3.6,2.6,17.8,3.3,20.7,1.9,7.7-7.3,12.7-13.5,16.3Z"/><path class="cls-7" d="M92.4,159.6s0,0,.1,0"/><path class="cls-7" d="M89.9,146.3c-.2-.9-.4-1.6-.5-2"/><path class="cls-7" d="M92.4,159.6c1.1-.9,2.1-1.4,5-2.2"/><path class="cls-4" d="M45.9,168.3h0c-.6,3.6-1.3,8-1.9,11.5h-.7c-3.8-2.2-2.4-1.6-6.1-3.2-5.1-2.2-13.8-7.9-13.7-13.6,0-4.7,3.5-18.4,5.8-24.5,1.3,2.3,3.2,4.5,4.4,5.6,2.2,2.2,5.2,2.9,8.1,3.8h0c-.9,2-1.4,4.1-2.1,6.5-.5,1.7-2.1,5.8-2.6,7.4l-.3.5c3.1,1.9,6.1,3.9,9.1,5.9Z"/><path class="cls-1" d="M95.1,227.7c-1.3.8-3.9,1.5-7.3,2.1-4.6.8-10.6,1.4-17.1,1.5h-.1c-3.2,0-6.5,0-9.7-.2-6.2-.3-12.4-1.2-17.9-2.6-3.3-.9-6.3-2-8.9-3.3.6-1.9,6.6-22.2,7.9-29.7,0,0,2.5-9.9,2.5-10,4.1,2.4,19.4,4.2,22.9,4.4,4.4.2,9,0,13.4-.6,2.3-.2,4.6-1.3,6.8-1.8.4,5.6,2.1,11.9,2.9,17.2.9,6.2,1.8,16.2,4.8,22.9Z"/><path class="cls-7" d="M33.9,225.2c0,0,0,.1,0,.1"/><path class="cls-7" d="M90.7,290.5c0-.4-.1-1.2-.2-2.2"/><path class="cls-4" d="M90.5,288.3c-.2-.7-.5-1.3-.9-1.8-1.7-1.7-6.7-1.1-8.4.6-1,1-1.6,2.4-1.8,3.8h-.3c-.6-14.6-2.7-20.4-6.4-33.7-.6-2.1-2-9.6-.8-16.8-.7-2.1-.9-5.4-1.2-7.9v-1.4c6.5,0,12.5-.7,17.1-1.5l.3,1.5c.4,2.3.5,6.1,0,8.5,1.7,8,1.9,12.8,1.6,17.8-.2,3.2.3,23.4.8,30.7Z"/><path class="cls-7" d="M70.6,232.6c0-.4-.1-.7-.2-1"/><path class="cls-7" d="M53.1,293.8c0-.2,0-.5,0-.7"/><path class="cls-4" d="M60.7,231.1v.4c-1,3.2-2,5.4-2.4,8.7-.3,3.2-.1,6-.4,9.3-.6,7.6-1.3,15.5-3,22.9-1,4.5-2.5,12.4-2,20.6h-.7c-.3-5.9-5.5-8-7.1-7.8-1.4.1-2.7.8-3.5,1.8.4-13.6-2.4-28.3-1.6-35.3.4-3.6,1.6-6,2.2-9.2.6-3.1-.3-8,.4-13l.2-.9c5.5,1.4,11.7,2.2,17.9,2.6Z"/><path class="cls-7" d="M41.5,291.3c0,.3,0,.6,0,.9"/><path class="cls-7" d="M76.5,88.6c0,1.3,3.1,1.3,3.2,3,0,2.4-2,2.4-3.8,2.3"/><path class="cls-5" d="M81.8,98.8c-1.5,2.7-3.1,4.2-6.6,4.7-2.2.3-6.5-.1-8.6-1.5-2-1.3-2.9-1.8-5.4-5.4,1.2,1.2,14.4,4.3,20.6,2.1h0Z"/><path class="cls-8" d="M86.7,81.2c0,1.6-.7,3-1.5,3s-1.5-1.3-1.5-3,.7-3,1.5-3,1.5,1.3,1.5,3Z"/><path class="cls-8" d="M63.5,81.5c0,1.9-.8,3.4-1.8,3.4s-1.8-1.5-1.8-3.4.8-3.4,1.8-3.4,1.8,1.5,1.8,3.4Z"/><path class="cls-7" d="M82.3,98.5c-.2,0-.3.1-.5.2"/><path class="cls-7" d="M95.4,56.1c-.1-.2-.3-.5-.4-.7"/><path class="cls-7" d="M55.2,50.8c-.3.2-.5.5-.8.7"/><path class="cls-7" d="M46.8,70.9c-.1-.3-.2-.6-.3-.7"/><path class="cls-6" d="M52.3,293.1c0,.4,0,.8,0,1.2-1-.7-2.2-.9-4-1.2-2.3-.4-5.3-.7-8.2.5.5-.3,1-.8,1.3-1.3.1-.2.1-.5,0-.9-.1-1.1-.6-2.6-.4-3.2.2-.4.4-.8.6-1.2.8-1,2.1-1.7,3.5-1.8,1.6-.2,6.8,2,7.1,7.9Z"/><path class="cls-6" d="M54,306.5c-1,1.2-2.8,1.5-4.4,1.6-4.4.4-8.8.7-13.2.9-1.4,0-3,0-3.9-.9-.9-.9-1.2-5.4-1.1-6.6.4-2.5,4.1-5.4,6.3-6.7.7-.4,1.6-.8,2.3-1.3h0c3-1.2,6-.9,8.2-.5,1.8.3,3,.5,4,1.2.6.4,1.1,1,1.7,1.8,1.1,1.6,1.2,8.9,0,10.4Z"/><path class="cls-7" d="M40,293.6c-.8.3-1.5.7-2.3,1.3"/><path class="cls-6" d="M90.7,292.3c0,.3,0,.6-.1.8,0,0,0,0,0,.1-.3.5-1.1.5-1.7.5-2-.2-5.7-.5-7.6,0-.6.1-1.1.3-1.5.6l-.4-.4c-.1-1-.1-1.9,0-2.9.2-1.4.8-2.8,1.8-3.8,1.7-1.7,6.7-2.4,8.4-.6.5.5.8,1.1.9,1.8h0c.3,1.3.3,2.8.3,4Z"/><path class="cls-6" d="M98.6,308.3c-.4.1-2.8.5-3.1.5-4.1,0-16.9-.4-18-1.2-1.6-1.2-1-9,0-10.7.7-1.2,1.2-2.1,2.2-2.7.4-.3.9-.4,1.5-.6,1.9-.4,5.6,0,7.6,0,.6,0,1.4,0,1.7-.5,0,0,0,0,0-.1,3.1,1.2,7.2,3.1,8.4,6,.5,1.2.9,8.6-.3,9.1Z"/><path class="cls-7" d="M46,168.4s0,0-.1,0"/><path class="cls-7" d="M36.8,162.4c-.6-.4-1.2-.7-1.8-1.1"/></svg>