<?xml version="1.0" encoding="UTF-8"?><svg id="usa" xmlns="http://www.w3.org/2000/svg" width="235" height="321.9" viewBox="0 0 235 321.9"><defs><style>.cls-1{fill:#783b3e;}.cls-1,.cls-2,.cls-3,.cls-4,.cls-5,.cls-6,.cls-7,.cls-8,.cls-9,.cls-10{stroke:#000;stroke-linecap:round;stroke-linejoin:round;}.cls-2{fill:#727a99;}.cls-3{fill:#604940;}.cls-4{fill:#191918;}.cls-5{fill:#404a61;}.cls-6{fill:#65282a;}.cls-7{fill:#c1c1c1;}.cls-8{fill:#fff;}.cls-9{fill:none;}</style></defs><path class="cls-5" d="M101.8,292.2c-.6.3-1.2.6-1.9.8-.2,0-.5.2-.7.2-6.1,2-15.2,2.1-24,.9-.9-.1-1.8-.2-2.7-.4,0-2.3-3.8-52-5.7-66.5-1.8-14-3.8-32-4-35.6h0c.5-3.5,1-6.2,1.4-7.4.6,0,1.4,0,2.3,0,6.4-.4,19.1-2.8,21.6-3.9.2,3.9.6,5.3,1.2,10.8,1.1,9.5,10.7,91.7,12.3,101Z"/><path class="cls-5" d="M64.4,184.3c-.4,1.3-.9,3.9-1.4,7.4h0c-1.4,9.4-2.9,25.1-4.1,37.4-1.4,15.9-2.7,63.2-2.7,64.1-.6.1-1.2.3-1.9.4,0,0,0,0,0,0,0,0,0,0,0,0-7.2,1.1-20.4-.3-25-2.6-.7-.3-1.2-.7-1.4-1.1.5-.1,4.7-49.1,5.9-68.3.8-13.2,1.5-31,2.8-43.4h.2c1.6,3.3,23.3,5.8,27.6,6Z"/><path class="cls-2" d="M69.4,137.1c-1-4.9-1-9.9-.9-14.9,0-1.6,0-3.2,0-4.7h0c0-2.4-9.8-8.6-20.3-17.6-5.4-4.6-13.5-14.3-14-17.3,0,0,0,0,0-.1h-.9c-3,2.8-4.8,8.2-6.7,11.8-1.4,2.6-5.9,20.4-5.9,20.4-2.6,6.7-2.5,9-3.5,14.3-1.2,6.3,8.3,15.1,13.4,18.7,2.3,1.8,5.3,4,8.2,6,1.2-4.4,4-8.3,7.8-10.8,1.5,1.4,3.1,2.9,4.6,4.7-2.6,3.1-5.1,7.5-5.8,10.8-1.8-1.3-4.2-3-6.7-4.7h0c.2,7.6-.2,12.3-.3,14.1,8.9,3.4,19.5,5.1,29.8,4.7.2-.7.5-1.3.8-2,4.3-9.4,2.5-22.5.4-33.2ZM33.8,130.5c.9-2,1.7-4.9,2.8-8.6h.2c.3.8.6,5.8.9,12.4-1.6-1.8-2.7-3-3.8-3.8Z"/><path class="cls-2" d="M107.4,139.7c-3.2,5-6.6,9.5-10.4,13.8h-.2c-1.5-4.5-4.3-8.3-7.9-11.1,1-1.4,1.9-2.8,2.4-3.4,1.8-2.3,3-4.3,4.3-6-.8-1.3-3.6-9.8-5.5-12.8-.2,2.2-.4,4.7-.5,7.6-.1,4.2-.8,7.8-.8,14.3,0,0,.2.1.2.2-1.6,2.4-3.4,5.1-3.9,6.1,2.8,2.8,5.9,7.2,6.4,10.8.3,2.9-3.4,6.8-3.4,9.3-6.1,2.2-13,3.5-20,3.7.2-.7.5-1.3.8-2,4.3-9.4,2.5-22.5.4-33.2-1-4.9-1-9.9-.9-14.9h.1c1.2-.3,2.4-.7,3.6-1-1.1-1.5-2.4-3.6-3.5-5.2,4.7-7.8,9.8-15.4,15.5-22.5,1.8-2.3,3.6-4.5,4.9-7.1.3-.7.6-1.1.8-1.4h1c3.4,1.2,5.6,7,7.6,10.3,3.4,5.5,6.9,17.2,8.1,21.5,1.4,4.3,2.4,8.8,3,12.3.7,4.2-.6,7.7-2.2,10.6Z"/><path class="cls-2" d="M68.4,117.5h0c0-2.4-9.8-8.6-20.3-17.6-5.4-4.6-13.5-14.3-14-17.3,0,0,0,0,0-.1-.4-2.9,1.2-4,3.6-5.9,2.4-1.9,12.1-4.1,15.1-3.1.7.8,1.4,1.5,2.1,2.1,0,2.5.3,8.9,0,9.8h-.1c0-.2,0-.4,0-.5-6.2,8.6,6.8,18.4,9.4,21.7.9,1.1,2.9,4.1,3.7,6.2h0c.3.6.4,1.2.5,1.6,0,.7,0,1.4,0,2.1,0,.3,0,.7,0,1Z"/><path class="cls-2" d="M89.9,85c-.2.3-.4.7-.8,1.4-1.3,2.6-3.1,4.9-4.9,7.1-5.6,7.2-10.8,14.7-15.5,22.5-.1.1-.2.3-.3.5,0-.7,0-1.4,0-2.1,0-.4-.2-1-.5-1.6h0c3.7-6.5,12.6-20.6,6.9-27.2h-.1c0-1.5.2-3.1.6-4.6l-.7-.2c.1,0,.3-.2.4-.3,2-1.3,3.6-3.4,5.1-5.8l.7.4c2.9.4,8.5,4.2,9.2,7,.5,2.1.6,1.9,0,2.7Z"/><path class="cls-3" d="M87.6,38.5c.6-3.8-2.6-6.4-6.2-7.9-3.6-1.5-7.5-1.3-11.4-1.1-2.9.2-5.8.3-8.7.5-3.1.1-6.2.3-8.9,1.8-2.7,1.5-6.1,4.1-5.2,7-.3,2.3,1,17.5.1,17.8-.9.3-2.2-1.6-2-3.2,0-3.6-2.9-5.1-5.9-3.9-4.3,1.5-.1,8.8,1,11.8,1,2.6,2.3,3.1,3.5,2.8h.8c2.8,3.5,5.4,6.7,7.9,9.4.7.8,1.4,1.5,2.1,2.1,4.9,4.8,9.8,7.4,15.7,6.7,1.4-.2,2.7-.7,3.9-1.4.1,0,.3-.2.4-.3,2-1.3,3.6-3.4,5.1-5.8,1.8-3,3.2-6.6,4.4-10.2.9-2.8,1.7-5.6,2.3-7.9h0c.5-2.4.5-2.4.5-2.4,1-4.3,1.2-11.4.5-15.8ZM57.6,56.2c-.9,0-1.6-1.5-1.6-3.4s.7-3.4,1.6-3.4,1.6,1.5,1.6,3.4-.7,3.4-1.6,3.4ZM61,46.7s0,0,0,0c-2.4-.6-5.9-.5-7.2-.1-.4-2.1,1-1.7,1.7-2.2,1.6-1.2,4.9,0,6.4,1.1-.3,1.1-.1,1.7-.9,1.3ZM70.7,74.2c-1.6.2-4.2-.4-5.8-1.5-1.5-1-1.5-.4-3.4-3.2.9.9,9.8,3.1,14.2,1.1-1.1,2.1-2.4,3.3-5,3.7ZM79.3,55.4c-.7,0-1.3-1.3-1.3-2.9s.6-2.9,1.3-2.9,1.3,1.3,1.3,2.9-.6,2.9-1.3,2.9ZM82.6,46.5c-2.8-.8-5.5,0-7.8.4-.8-1.5,1.7-2.5,4.4-2.5,2.8,0,3,.6,3.5,2h0Z"/><path class="cls-3" d="M89,62.2c-.2.8-.5,1.5-1,2.1-.5.5-2.8,1-3.3.5h-.4c.9-2.9,1.7-5.7,2.3-8.1-.2.7-.4,1.8-.7,3.2,1.3.5,2.5-4.4,3.3-9.6.3,0,.6,0,.9,0,.3,4,0,8.1-1.1,11.9Z"/><path class="cls-9" d="M74.8,47c0,0-.1,0-.2,0"/><path class="cls-9" d="M61.3,46.8c-.1,0-.2,0-.3,0"/><path class="cls-9" d="M76.6,61.4c.9,3.2-3,5.5-10.6,3.9"/><path class="cls-9" d="M45,63.7l-.3.2c-.2.1-.4.2-.7.3"/><path class="cls-4" d="M90.2,39.4c0,2.1-.4,6.6-1,10.9-.8,5.3-2,10.2-3.3,9.6.3-1.4.5-2.5.7-3.2h0c.5-2.4.5-2.4.5-2.4,1-4.3,1.2-11.4.5-15.8.6-3.8-2.6-6.4-6.2-7.9-3.6-1.5-7.5-1.3-11.4-1.1-2.9.2-5.8.3-8.7.5-3.1.1-6.2.3-8.9,1.8-2.7,1.5-6.1,4.1-5.2,7-.3,2.3,1,17.5.1,17.8-.9.3-2.2-1.6-2-3.2,0-3.6-2.9-5.1-5.9-3.9-3.6-11.1-1.2-24.4,1-29.4,3.3-7.7,44.8-10.6,47.5-3,3.1,8.4,2,16.6,2.2,22.3Z"/><path class="cls-9" d="M54.8,75.5h0"/><path class="cls-9" d="M74.8,47s0,0,0,0"/><path class="cls-9" d="M39.7,111.4c-1.3,4-2.3,7.6-3.1,10.5"/><path class="cls-9" d="M33.8,130.5s0,0,0,0"/><path class="cls-2" d="M51,147.5c-2.6,3.1-5.1,7.5-5.8,10.8-1.8-1.3-4.2-3-6.7-4.7,1.2-4.4,4-8.3,7.8-10.8,1.5,1.4,3.1,2.9,4.6,4.7Z"/><path class="cls-2" d="M88.3,180.4c-2.5,1.1-15.2,3.5-21.6,3.9v-.3c-.5-4.2,0-7.8,1.4-11.6,7-.2,13.9-1.5,20-3.7,0,5,.3,9.1.2,11.7Z"/><path class="cls-9" d="M91.4,104c.4,5.6-.6,9.7-1.3,16.4"/><path class="cls-9" d="M37.6,134.4h0"/><path class="cls-9" d="M95.6,133.2s0,0,0,0"/><path class="cls-9" d="M85.1,148.6c-.1.2-.2.4-.1.4"/><path class="cls-9" d="M99.4,128.9c-1.5,1.2-2.6,2.6-3.8,4.2"/><path class="cls-9" d="M33.8,130.5c-1.3-1-2.8-1.6-5.4-2.5"/><path class="cls-9" d="M37.6,134.4c.2.2.4.5.7.8,2,2.4,5,4.8,8.1,7.7"/><path class="cls-9" d="M51.1,147.6s0,0,0,0"/><path class="cls-9" d="M63,191.7c0-.1,0-.2,0-.3"/><path class="cls-2" d="M66.7,183.9v.3c-.9,0-1.7,0-2.3,0-4.3-.2-26-2.8-27.6-6h-.2c.5-4.4,1-8.1,1.7-10.6,8.9,3.4,19.5,5.1,29.8,4.7-1.4,3.7-1.9,7.4-1.4,11.6Z"/><path class="cls-9" d="M56.3,293.2h0"/><path class="cls-6" d="M54.7,307.4c-1.4,1.7-20.7,1-26.1.9-1.7,0-5.9-3.8-5.3-9.9.3-3.4,3.3-5.7,5.9-7.3,4.6,2.3,17.8,3.7,25,2.6,0,0,0,0,0,0s0,0,0,0l.2,1.2c1.1,3,1.7,10.7.2,12.6Z"/><path class="cls-9" d="M54.6,294.8c0-.2-.2-.5-.3-.7"/><path class="cls-9" d="M29.5,290.9c0,0-.2,0-.3.1"/><path class="cls-6" d="M104.5,308.5c-.4.2-27.2,1.1-28.7,0-2-1.5-1.5-11.4-.5-14.3,8.8,1.1,17.8,1.1,24-.9h.8c2.7,1.6,5.4,3.6,6.3,5.8.7,1.7-.4,8.6-1.9,9.4Z"/><path class="cls-9" d="M75.4,293.9c0,0,0,.2-.1.3"/><path class="cls-9" d="M53,145.3c-.7.6-1.3,1.4-2,2.2"/><path class="cls-2" d="M97,153.5c-1.7,2-3.6,3.9-5.5,5.8-.5-3.6-3.6-8-6.4-10.8.5-1,2.3-3.8,3.9-6.1,3.6,2.8,6.4,6.6,7.9,10.9h.2Z"/><path class="cls-9" d="M85.1,148.6c-.7-.7-1.4-1.3-2.1-1.8"/><path class="cls-9" d="M87.1,54.5c-.2.7-.3,1.4-.5,2.2"/><path class="cls-8" d="M75.7,70.5c-1.1,2.1-2.4,3.3-5,3.7-1.6.2-4.2-.4-5.8-1.5-1.5-1-1.5-.4-3.4-3.2.9.9,9.8,3.1,14.2,1.1Z"/><path class="cls-10" d="M59.2,52.8c0,1.9-.7,3.4-1.6,3.4s-1.6-1.5-1.6-3.4.7-3.4,1.6-3.4,1.6,1.5,1.6,3.4Z"/><path class="cls-10" d="M80.6,52.5c0,1.6-.6,2.9-1.3,2.9s-1.3-1.3-1.3-2.9.6-2.9,1.3-2.9,1.3,1.3,1.3,2.9Z"/><path class="cls-4" d="M82.6,46.5h0c-2.8-.7-5.5,0-7.8.5-.8-1.5,1.7-2.5,4.4-2.5,2.8,0,3,.6,3.5,2Z"/><path class="cls-4" d="M61.9,45.5c-.3,1.1-.1,1.7-.9,1.3,0,0,0,0,0,0-2.4-.6-5.9-.5-7.2-.1-.4-2.1,1-1.7,1.7-2.2,1.6-1.2,4.9,0,6.4,1.1Z"/><path class="cls-9" d="M68.4,117.5c0,.1,0,.2,0,.4"/><path class="cls-9" d="M52.9,73.5s0,0-.1,0"/><path class="cls-1" d="M67.9,112.8c-.9-2.1-2.8-5.1-3.7-6.2-2.6-3.3-15.6-13.1-9.4-21.7,0,.2,0,.3,0,.5.2,3,4.5,6.6,9,7.5,5.3,1,9.6-2,10.9-5.8,0-.5,0-.9,0-1.4h.1c5.7,6.6-3.2,20.6-6.9,27.2Z"/><path class="cls-9" d="M68.4,116.5c0,0,0,.1-.1.2"/><path class="cls-3" d="M75.2,81c-.4,1.5-.5,3.1-.6,4.6,0,.5,0,.9,0,1.4-1.3,3.9-5.6,6.8-10.9,5.8-4.5-.9-8.8-4.4-9-7.5h.1c.3-.9,0-7.3,0-9.8,4.9,4.8,9.8,7.4,15.7,6.7,1.4-.2,2.7-.7,3.9-1.4l.7.2Z"/><path class="cls-9" d="M46.6,142.8s0,0-.1,0"/><path class="cls-7" d="M72.2,121.2c-1.2.3-2.4.6-3.6,1h-.1c0-1.6,0-3.2,0-4.7,0-.3,0-.7,0-1,0-.1.2-.3.3-.5,1.1,1.6,2.4,3.7,3.5,5.2Z"/><path class="cls-9" d="M68.7,116s0,0-.1-.1"/><path class="cls-9" d="M45.3,158.3c0,5.2,3.6,9.4,5.8,10.5"/><path class="cls-9" d="M88.7,166.4c-2.9,1.4-6.2,2.1-9.4,2,0,0,.1.1.2.2"/></svg>