<?xml version="1.0" encoding="UTF-8"?><svg id="usa" xmlns="http://www.w3.org/2000/svg" width="235" height="321.9" viewBox="0 0 235 321.9"><defs><style>.cls-1{fill:#7a4f2c;}.cls-1,.cls-2,.cls-3,.cls-4,.cls-5,.cls-6,.cls-7,.cls-8,.cls-9,.cls-10{stroke:#000;stroke-linecap:round;stroke-linejoin:round;}.cls-2{fill:#54331a;}.cls-3{fill:#2f4b57;}.cls-4{fill:#302f2d;}.cls-5{fill:#b3292e;}.cls-6{fill:#b95a27;}.cls-7{fill:#fff;}.cls-8{fill:#e8cebf;}.cls-9{fill:none;}.cls-11{fill:#c6a28d;stroke-width:0px;}</style></defs><path class="cls-9" d="M90.3,83.3c0,0,0-.2,0-.3"/><path class="cls-8" d="M89.7,91.1c-.3,1.5-.7,3-1.2,4.4-1.2,3.3-2.9,6.3-5.6,8.9-1.9,1.8-3.5,3.3-5.1,4.4-5.1,3.6-9.6,3.5-19.5-4.3-1.5-1.1-3-2.4-4.8-3.9h0c-1.8-1.7-4.6-7.5-4.8-11.8h-.1c-1.1.9-2.3.9-3.2-2.2-.4-1.4-1.3-3.7-1.8-5.9-.5-2.3-.5-4.5,1.1-5.2,2.2-1,4.3.4,4.3,3.7s1.1.7,2,.5h0c.2,0,.4,0,.7,0,.5,0,1,0,1.2,0h0c.4,4.8,4.4,8.5,9.4,8.5s9.4-4.2,9.4-9.3,0-1.2-.2-1.7c1.3-.7,2.5-.7,3.5-.1-.1.6-.2,1.3-.2,2,0,5,3.7,9,8.3,9s5.9-1.9,7.3-4.8c0,2,.2,4.4-.6,7.9Z"/><path class="cls-9" d="M91.7,68.2s0,0,0,0"/><path class="cls-9" d="M74.4,84.7c1,1.2,2.8,1.2,3.7,3.1,0,2.5-1.1,3.2-2.6,3.8"/><path class="cls-4" d="M52.8,78.9c0,.3,0,.5,0,.8h0c-.1,0-.7,0-1.2,0-.3,0-.6,0-.7,0h0c-1,.2-2,.2-2-.5,0-3.4-2.1-4.8-4.3-3.7-1.6.7-1.6,2.9-1.1,5.2-.4.7-.5.1-1.3.7-.3-.5-.6-1.2-.8-2h0c-.6-2.9.3-6.9,6-4.3h0c1.1.6,2,1.3,3.3,1.7.7.2,1.4.2,2.3,0-.2.7-.3,1.5-.3,2.3Z"/><path class="cls-9" d="M39.1,65.7c0,1.1-.1,2.5-.2,4"/><path class="cls-9" d="M53.9,100.7c-.1,0-.2-.2-.4-.3"/><path class="cls-9" d="M48.7,88.7c0-.4,0-.8,0-1.2"/><path class="cls-1" d="M98,294.3c-.2,0-.4,0-.6-.1-8.9-1.6-14.7-1.4-25.6,2.6h0c-.3.1-.6.2-.9.3,0-4.3-4.5-81.6-4.5-86.6h-.2c-2.7,17.6-6.4,85.7-6.5,87.2-.5-.3-.9-.5-1.4-.8-6.4-3-16.9-3.8-23.9-3.4-.9,0-1.8.1-2.6.2,0,0,6-64.5,8.1-83.4-1.3-1.6-1.8-3.8-2.2-5.9-.3-1.2-.5-2.4-.2-3.6.2-.7.5-1.3,1-1.9,0,0,0,0,0,0,.4-.6,1-1,1.5-1.5,2-1.7,4.2-3.2,6.7-4,1.3-.4,2.7-.6,4.1-.4,4.4,1,23.6,2.1,28.3,1.6,3-.3,8.2-.7,11.3-.8.8,1.1,1.7,2.3,2.5,3.6.9,1.4,1.6,3,1.8,4.6.4,3.1-.9,6.2-2.3,9.1,1.1,11.4,4.1,75,5.6,83.2Z"/><path class="cls-9" d="M92.4,211.1c0-.3,0-.6,0-.8"/><path class="cls-9" d="M40.3,206.8c-.1.9-.2,2-.4,3.5"/><path class="cls-9" d="M59.7,297.6h0"/><path class="cls-9" d="M67,206.9c-.2.7-.5,1.9-.7,3.5"/><path class="cls-9" d="M71.6,202.9c-2.9,2.1-4.6,2.7-4.7,3.5"/><path class="cls-9" d="M77.5,110.7c.1,1.3,0,2.5-.2,3.6"/><path class="cls-8" d="M77.5,110c-.2,1.4-.3,2.9-.2,4.3-.7,3.3-3.2,5.4-7.8,5-.5,0-1-.1-1.5-.2-4.7-.9-9.8-3-9.6-5.8h-.1c.2-.5.1-2.3,0-4.3,0-1.6-.1-3.4-.1-4.5,9.9,7.7,14.4,7.9,19.5,4.3h0c-.1.4-.2.8-.3,1.3Z"/><path class="cls-9" d="M77.3,114.5c0,0,0-.2,0-.3"/><path class="cls-6" d="M87.1,71.1c-1-2.3-5.7-1.4-7.2-.4,0,0,0,0,0,0,0,0,0,0-.2,0l-.3-.2c-.4-.6-.1-1.1.5-1.5.9-.6,2.7-.9,3.9-.9,2.6,0,3.5,1.3,3.2,2.9Z"/><path class="cls-6" d="M65.8,68.5c-.2.6-.2,1.2-.5,1.6-.3-.1-.6-.2-.9-.3-2.2-1.4-6.4-.5-6.8.9,0,0-.2.1-.3.2h0c-.5,0-.2-2.1,1.2-2.8,1.7-.9,5.8-.4,7.3.4Z"/><path class="cls-9" d="M40.9,117c-.1,0-.3,0-.4,0"/><path class="cls-9" d="M79.2,99.3c-4.1.3-10.3-.6-14.4-2.1"/><path class="cls-6" d="M96.1,76.1c-.7-1-1.3-2-1.9-3.1h0c-.9-1.6-1.7-3.3-2.5-4.9-3.2-6.3-6.7-12.2-15.9-12.2,2.2,2.4,3.1,8.8,3.5,12.1-2.7-4.3-20.1-15.9-22.6-14.5-6.2,3.4-7.2,18.5-6,23-1.3-.3-2.2-1.1-3.3-1.5h0c-5.6-2.7-6.6,1.3-6,4.2h0c.2.8.5,1.6.8,2,.7-.6.9,0,1.3-.7.5,2.2,1.4,4.5,1.8,5.9.9,3.1,2.1,3.1,3.2,2.2h.1c.3,4.3,3,10.1,4.8,11.8h0c-1.2-1-2.5-2.1-3.8-3.3v-.5c-.9-.8-1.7-1.7-2.4-2.6-.3-.4-.4,1.1-.7.8-2.6-3.6-4.8-9.8-6.1-15.3-.2-.6-.3-1.3-.4-1.9,0-.5-.7,1.7-.7,1.2-.4-2.3-.4-5.9-.3-9.1h-.6c-1.7-4.3.6-11.7,1.4-14.3,0-.1.1-.2.1-.4,0,.1,0,.2-.1.4-.4.6-1.6,1.3-1.8,1.8,2.1-8.1,8-17,17.2-19.1-.9-1.4-2.3-2.7-3.7-3.3,2.9-.5,6.5-1.3,9.5-.4h.6c2.2-1.4,10-2.1,14.2-1.7,4.8.6,10.3,3.6,14.2,6.7,11.1,8.7,10.6,23.3,6.2,36.7Z"/><path class="cls-9" d="M50.8,76.7s0,0,0-.1"/><path class="cls-9" d="M37.9,57.4c0,0,0-.1,0-.2,0,0,0,.1,0,.2Z"/><path class="cls-9" d="M61.4,34.5c-.1,0-.3,0-.4-.1"/><path class="cls-9" d="M47.4,75c-.2,0-.4-.2-.6-.2"/><path class="cls-9" d="M53.3,76.6c0,0-.2,0-.3,0"/><path class="cls-9" d="M50.9,79.6c-1-.2-1.2-1.1-1.9-1.5"/><path class="cls-9" d="M52.3,79.5c-.3,0-.5.1-.7.1"/><path class="cls-9" d="M70.9,75.6s0,0,0,0"/><path class="cls-4" d="M75.3,75.5c-.2.5-.4,1-.5,1.6-.9-.6-2.2-.6-3.5.1-.1-.6-.3-1.1-.5-1.6,1.3-.8,3.7-1.1,4.4,0h0Z"/><path class="cls-9" d="M71.4,77.2c0,0-.1,0-.2,0"/><path class="cls-9" d="M75,77.1s0,0-.1,0"/><path class="cls-4" d="M90.9,76.4c-1.1-3.7-4.2-6.3-7.9-6.3s-2.1.2-3.1.6c0,0,0,0,0,0,0,0,0,0-.1,0h0c-2,.9-3.5,2.6-4.4,4.7-.2.5-.4,1-.5,1.6-.1.6-.2,1.3-.2,2,0,5,3.7,9,8.3,9s5.9-1.9,7.3-4.8c.2-.5.5-1,.6-1.5.2-.9.4-1.8.4-2.7s-.1-1.8-.4-2.7ZM82.8,85.5c-3.4,0-6.2-3-6.2-6.7s2.8-6.7,6.2-6.7,6.2,3,6.2,6.7-2.8,6.7-6.2,6.7Z"/><path class="cls-9" d="M79.8,70.8h0c0,0,.1,0,.2,0,0,0,0,0-.1,0Z"/><path class="cls-7" d="M82.8,72.1c-3.4,0-6.2,3-6.2,6.7s2.8,6.7,6.2,6.7,6.2-3,6.2-6.7-2.8-6.7-6.2-6.7ZM83.2,80c-.6,0-1.1-.9-1.1-2.1s.5-2.1,1.1-2.1,1.1,1,1.1,2.1-.5,2.1-1.1,2.1Z"/><path class="cls-10" d="M84.3,77.9c0,1.2-.5,2.1-1.1,2.1s-1.1-.9-1.1-2.1.5-2.1,1.1-2.1,1.1,1,1.1,2.1Z"/><path class="cls-4" d="M71.4,77.2c-.1-.6-.3-1.1-.5-1.6-1-2.5-3-4.5-5.6-5.4,0,0-.2.2-.3.2-.2-.2-.4-.3-.6-.5-.7-.2-1.5-.3-2.3-.3-1.6,0-3.2.4-4.5,1.1,0,0,0,0,0,0-.1,0-.2.1-.3.1h0c-2.1,1.2-3.7,3.3-4.3,5.7-.2.7-.3,1.5-.3,2.3s0,.5,0,.8c.4,4.8,4.4,8.5,9.4,8.5s9.4-4.2,9.4-9.3,0-1.2-.2-1.7ZM62.3,85.9c-3.9,0-7.1-3.2-7.1-7.1s3.2-7.1,7.1-7.1,7.1,3.2,7.1,7.1-3.2,7.1-7.1,7.1Z"/><path class="cls-9" d="M57.6,70.8c-.1,0-.2.1-.3.1,0,0,.2-.1.3-.2,0,0,0,0,0,0Z"/><path class="cls-9" d="M65,70.3c-.2-.2-.4-.3-.6-.5.3,0,.6.2.9.3,0,0-.2.2-.3.2Z"/><path class="cls-7" d="M62.3,71.7c-3.9,0-7.1,3.2-7.1,7.1s3.2,7.1,7.1,7.1,7.1-3.2,7.1-7.1-3.2-7.1-7.1-7.1ZM61.7,80.3c-.7,0-1.2-1.1-1.2-2.3s.6-2.3,1.2-2.3,1.2,1,1.2,2.3-.6,2.3-1.2,2.3Z"/><path class="cls-10" d="M62.9,77.9c0,1.3-.6,2.3-1.2,2.3s-1.2-1.1-1.2-2.3.6-2.3,1.2-2.3,1.2,1,1.2,2.3Z"/><path class="cls-9" d="M43.6,80.5s0,0,0,.1"/><path class="cls-9" d="M47.9,75.1c-.1,0-.3-.1-.4-.2"/><path class="cls-9" d="M90.9,81.7c-.2,0-.3,0-.2,0"/><path class="cls-8" d="M90.9,76.4h0c-1.1-3.7-4.2-6.3-7.9-6.3s-2.1.2-3.1.6c1.5-1,6.1-1.9,7.2.4.2-1.6-.7-2.9-3.2-2.9-1.2,0-3,.3-3.9.9-.6.4-.9.9-.5,1.5l.3.2c-2,.9-3.5,2.6-4.4,4.7h0c-.7-1-3.1-.7-4.4,0-1-2.5-3-4.5-5.6-5.4.3-.3.3-1,.5-1.6-1.5-.8-5.6-1.3-7.3-.4-1.4.8-1.7,2.8-1.2,2.8-2.1,1.2-3.7,3.3-4.3,5.7-.9.2-1.6.1-2.3,0-1.2-4.5-.2-19.6,6-23,2.4-1.3,19.8,10.2,22.6,14.5-.4-3.2-1.3-9.7-3.5-12.1,9.3,0,12.7,5.8,15.9,12.2.5,3.4,0,5.1-.8,8.2Z"/><path class="cls-4" d="M92.4,81.5c-.3,0-1.1.2-1.5.3.2-.9.4-1.8.4-2.7s-.1-1.8-.4-2.7h0c0,0,1.6.8,2.1.7.3,1.4,0,3.2-.6,4.4Z"/><path class="cls-6" d="M92.7,87.5s0-2-.3-2.6c-.7,3.7-1.1,8.4-3.2,11.5,0-.4,0-1-.1-1.4,0,.2-.2,1.2-.5.6h-.1c.5-1.4.9-2.9,1.2-4.4.8-3.4.7-5.9.6-7.9.2-.5.5-1,.6-1.5.4-.1,1.2-.3,1.5-.3.6-1.2.9-3,.6-4.4-.5,0-2.1-.7-2.1-.7h0c.7-3.1,1.3-4.8.8-8.2.8,1.6,1.6,3.3,2.5,4.9h0c.4,4.9,0,10.1-1.5,14.4Z"/><path class="cls-9" d="M94.2,73c0,0,0-.1,0-.2"/><path class="cls-2" d="M57.5,307.9c-2.1,1.2-15.4,1.1-24.4.6-8.4-.4-2.2-13.2,1.3-15,7-.4,17.5.4,23.9,3.4,1.2,2.1,1.3,9.8-.8,11Z"/><path class="cls-2" d="M111.8,305.6c-.8,1.6-7,3.8-16,3.2-4.7-.3-17.4,1-20.6-.4-3.2-1.4-3.3-7.8-3.3-11.3v-.2c10.9-4,16.7-4.3,25.6-2.6h0c3.8,2.2,15.4,9.3,14.4,11.4Z"/><path class="cls-7" d="M45.5,157.8c-.4.2-1,.3-1.7.4-3.4.4-9.2-.5-13.2-1.1-.7-.1-1.3-.2-1.8-.3-.8-16.4,4.1-36.5,11.6-39.7.1,0,.3,0,.4,0,5.2-1,6.6,6.2,6.5,19.7,0,0,.3,20.2-1.8,21.1Z"/><path class="cls-7" d="M96.2,158.3c-.6.2-1.2.2-1.8.3-.7,0-1.4,0-2.1.2,0-2.3.1-4.4.1-6.2,0-10.7.9-25.5-3.9-35.7,4.3,1.3,9.4,26.4,7.7,41.4Z"/><path class="cls-9" d="M92.2,158.7c-.2,0-.5,0-.7.1"/><path class="cls-8" d="M92.9,197.3h-.1c-.8-1.2-1.7-2.4-2.5-3.5.1,0,.2,0,.3,0,.3-8.7,1.3-24,1.6-35.1.7-.1,1.4-.1,2.1-.2.4,13.4.5,33.7-1.4,38.8Z"/><path class="cls-5" d="M73.1,125.3h-.2c-2.9,6.6-6.9,1.7-7.3,0h0c.9-1.7,1.5-3.6,3.8-4.7,1.2,1.2,2.6,3,3.7,4.7Z"/><path class="cls-7" d="M74.3,127.3c-.3-.6-.8-1.3-1.2-2-1.1-1.7-2.5-3.6-3.7-4.7-2.3,1.1-2.9,3-3.8,4.7-.4.7-.8,1.3-1.5,1.8-3.7-1-10.5-8.8-7.2-16,0-.2.2-.4.3-.5.3-.6.7-1.1,1.1-1.7h0c0,2,0,3.8,0,4.2h.1c-.3,2.9,4.9,5,9.6,5.9.5,0,1,.2,1.5.2,4.7.4,7.1-1.7,7.8-5-.1-1.4,0-2.9.2-4.3h.5c.5.8,1,1.6,1.3,2.4,2.4,5.7,0,12.4-5,14.9Z"/><path class="cls-3" d="M92.3,152.6c0,1.8,0,3.9-.1,6.2-.3,11.1-1.3,26.4-1.6,35.1,0,0-.2,0-.3,0-3,.1-8.3.4-11.3.8-4.7.5-23.9-.6-28.3-1.6-1.4-.2-2.8,0-4.1.4-2.1-6.3-3.4-16.8-3.4-23.4,0-5.1-.5-7.1.6-11.9.7,0,1.2-.2,1.7-.4,2.2-.9,1.8-21.1,1.8-21.1.1-13.5-1.3-20.7-6.5-19.7,2.9-.8,13.3-5.6,15.6-6l.7-.4c-.1.2-.2.4-.3.5-3.3,7.2,3.5,15,7.2,16,.7-.5,1.1-1.1,1.5-1.8h0c.4,1.7,4.4,6.6,7.3.1h.2c.5.6.9,1.3,1.2,1.9,5-2.5,7.5-9.2,5-14.9,2.9,1.8,6,3.3,9.2,4.4,4.7,10.1,3.9,25,3.9,35.7Z"/><path class="cls-9" d="M40.2,210.7c-.1-.1-.2-.2-.3-.4"/><path class="cls-8" d="M46.7,193.5c-2.4.8-4.7,2.3-6.7,4-.5.5-1.1,1-1.5,1.5l-.4-.3c-2.6-7.6-5.7-19.3-6.9-27.9-.8-5.7-.2-8.3-.5-13.7,4,.6,9.8,1.6,13.2,1.1-1.1,4.8-.7,6.8-.6,11.9,0,6.6,1.3,17.1,3.4,23.4Z"/><line class="cls-9" x1="46.7" y1="193.5" x2="46.7" y2="193.5"/><path class="cls-9" d="M92.4,211.1c-.1.2-.2.5-.3.7"/><path class="cls-11" d="M72.7,85.3c-.1,0-.2.1-.2.2h0v.2c0,.1.1.2.2.2s.2-.1.2-.2h0v-.2c0-.1-.1-.2-.2-.2Z"/><path class="cls-11" d="M72.6,88.2s0,0,0,0h0c-.1,0-.3,0-.3-.3,0-.2,0-.2.3-.2h0s0,0,0,0c.1,0,.3,0,.5,0,.1,0,.2.1.2.3s-.1.2-.2.2h-.4s0,0,0,0Z"/><path class="cls-11" d="M74.9,88.1c-.1,0-.2,0-.3-.1-.1,0-.2-.2,0-.3,0-.1.2-.2.3,0,0,0,0,0,0,0,0,0,0,0,0,0,0,0,0-.1,0-.2,0-.1.2-.2.3-.2.1,0,.2.2.2.3,0,0,0,.1,0,.2,0,.2,0,.4-.3.5,0,0-.1,0-.2,0Z"/></svg>