<?xml version="1.0" encoding="UTF-8"?><svg id="usa" xmlns="http://www.w3.org/2000/svg" width="235" height="321.9" viewBox="0 0 235 321.9"><defs><style>.cls-1{fill:#7c583c;}.cls-1,.cls-2,.cls-3,.cls-4,.cls-5,.cls-6,.cls-7,.cls-8,.cls-9,.cls-10,.cls-11,.cls-12{stroke:#000;stroke-linecap:round;stroke-linejoin:round;}.cls-2{fill:#342f29;}.cls-3{fill:#606060;}.cls-4{fill:#111110;}.cls-5{fill:#8a8a8a;}.cls-6{fill:#ac6070;}.cls-7{fill:#c08d23;}.cls-8{fill:#fff;}.cls-9{fill:#6b3237;}.cls-10{fill:#6b3137;}.cls-11{fill:none;}</style></defs><path class="cls-6" d="M85.6,112.2h0c-.4,1.5-1.8,1.8-3.2,2.5h-.2c-.2,1.7-.7,3.4-1.3,5.3-1.5,4.1-.7,8.2-.6,12.6.2,3.8.9,8,1.8,12.1h0c.9,4.2,2.1,8.3,3.2,12-5.9,2.4-21.7,2.6-22.3,2.4,0,0,0,0,0,0,.9-.4,1.6-1.5,1.3-2.7-.1-.4-.3-.9-.7-1.3,3.8-2.2,1.3-4.1-1.3-5.4-.8-5.3-8.1-2.8-11.8-2.9h0c-4.4-.6-7.7-5.1-10.3-8.6h0c1.3-9.6-1.1-14.3-2.3-20.4.2-.5.4-1,.7-1.5-4.8-1.1-10-4.8-11.8-9.4,4.7-10.2,10.6-19.7,15.8-18.8,1.9,0,3.9-.2,5.9-.4v.8c8.7,10.4,15.3,16.5,20.6,26.9,4.2-9.3,2.9-17.2.1-27v-.8c4.6.4,12.2,1.3,14.9,11.1,1.3,4.8,1.8,9.3,1.7,13.6Z"/><path class="cls-7" d="M101.6,201.6c-3.4,6.7-15.2,9.9-22.8,11.6-.3,0-.6.1-.8.2-3.4-6.3-7.2-13.7-10.7-20,0,6.4.1,12.9-1.4,20.5-1,0-2,.1-3,.2-7.6.7-15.6,2.2-23,.2-1.9-.5-1.8.4-3-1.1-1.2-1.5-1.5-3.4-1.6-5.3-1.2-13.3-1.6-27.8.2-41.2h.8c4.3,3.2,22.9,2.7,28.7,3.2,7.3.7,16.3-1.2,22.9-2.9,5.3,11.7,14.8,32.3,13.6,34.6Z"/><path class="cls-11" d="M37.8,117.6c0-.1,0-.2,0-.4"/><line class="cls-11" x1="64.4" y1="156.2" x2="64.3" y2="156.2"/><line class="cls-11" x1="50.5" y1="146.7" x2="50.5" y2="146.7"/><line class="cls-11" x1="32.3" y1="130.7" x2="32.3" y2="130.7"/><path class="cls-11" d="M41.6,109.5c-.5.6-1.7,3.3-3.1,6.5"/><path class="cls-1" d="M63.6,154.9c.4.5.6.9.7,1.3.3,1.2-.5,2.3-1.3,2.7,0,0,0,0,0,0,1.7,1.2,0,3.1-1.1,3.4,1.7,4.1-6.7,2-8.6,1-1.9-1-4.8-2.9-6.1-5.1-.5-.8-.8-1.7-.8-2.6-2.4-1.8-5.7-4-8.8-6-1.7-1.1-3.4-2.2-4.8-3-5.3-3.3-15.6-11-14.7-16.8.4-2.4,3.9-13.1,8.5-23.1,1.8,4.6,7,8.3,11.8,9.4-.2.5-.4,1-.7,1.5-2.4,5.6-5,12.1-5.5,13.1,1.8,1.2,3,2.1,5.7,4.8.7.7,1.4,1.6,2.1,2.5h0c2.7,3.4,6,8,10.3,8.7h0c3.8,0,11.1-2.6,11.8,2.7,2.6,1.4,5.1,3.2,1.3,5.4Z"/><path class="cls-11" d="M32.3,130.7c-.9-.6-2.1-1.3-3.6-2.4"/><path class="cls-11" d="M51.3,146.8c-.3,0-.5,0-.8,0"/><path class="cls-11" d="M62.3,149.5c-1.1-.6-2.3-1.1-2.9-1.5"/><path class="cls-11" d="M62.3,149.5s0,0,0,0"/><path class="cls-1" d="M101.6,151.8c0,.6,0,1.2,0,1.7h-.3c-4.3-2.2-16.8-7.4-19.3-8.8h0s0,0,0,0c-.9-4.1-1.7-8.3-1.8-12.1-.2-4.4-1-8.5.6-12.6.7-1.8,1.1-3.6,1.3-5.3h.2c1.4-.6,2.8-1,3.2-2.5-.1,6.3-1.4,12.3-2.9,18.9,2.3,1.4,3.6,1.8,6.5,3.9,3.8,2.6,10.7,10.3,16.8,9.7-3,1.5-4.1,3.8-4.4,7Z"/><path class="cls-1" d="M118.3,150.9c0,4.1-2.4,8.7-6.9,9.6-4.6,1-9-2.8-9.7-7-.1-.6-.1-1.2,0-1.7.3-3.2,1.4-5.5,4.4-7,1.4-.7,3.2-1.2,5.5-1.6,2.1-.3,4.2.8,5.4,2.3,1.2,1.6,1.5,3.5,1.4,5.4Z"/><path class="cls-11" d="M67.3,193.3c0-5.7-.1-11.3.9-17.7"/><path class="cls-11" d="M67.3,193.3l-.2-.4"/><path class="cls-1" d="M63,214c-.6,3.6-1,11.3-3,16.7-6.4,16.6-12.8,31.2-28.7,52.7-1.5.6-2.5,1.9-3.5,3.1-.8.9-6.7.3-9.5-1.2,4.9-15.4,7.9-32.5,14.8-45.2,1.5-2.9,3.5-5.6,4.5-8.6,1.8-5.3.3-12.7-.6-18.2,1.2,1.5,1.2.6,3,1.1,7.3,1.9,15.3.4,23-.2Z"/><path class="cls-11" d="M18.3,285.3c0,.1,0,.2-.1.4"/><path class="cls-11" d="M63,213.8c0,0,0,.1,0,.2"/><path class="cls-1" d="M106.6,216.6c-1.6-2.5-4.4-4.2-7.5-5-4.4-1.1-8.5-.4-11,3.4-2.6,3.7-3,8-2.2,12.7-2.8-5.1-4.1-9-6.9-14v-.4c7.6-1.7,19.4-4.8,22.8-11.6,1.8,6.1,3.1,9.7,5,14.9Z"/><path class="cls-11" d="M107.7,219.7c0,0,0,.1,0,.2,0-.3,0-.5-.1-.8t0,0c-.2-.9-.6-1.8-1-2.5"/><path class="cls-2" d="M106.2,250.8c-.7,1.8-1.6,3.5-2.8,5-1.5,1.8-3.4,3.1-5.6,3.1s-3.2-.8-4.5-1.9c-.6-.6-1.1-1.2-1.6-1.9-1.4-2.1-2.1-4.7-2.8-7.2-1.6-6.6-2.7-13.4-3.2-20.3-.7-4.7-.3-8.9,2.2-12.7,2.6-3.7,6.6-4.5,11-3.4,3.1.8,6,2.4,7.5,5,.4,1,.7,2,1.1,3.1h0c1.2,10.4,2.1,21.4-1.6,31.1Z"/><path class="cls-11" d="M107.7,219.1h0s0,0,0,0c0,.2,0,.4,0,.6"/><path class="cls-11" d="M85.8,227.6c0-1.3-.2-2.6-.2-3.9"/><path class="cls-3" d="M102.9,262.9h0c0,0-.1.2-.2.2-1.9,1.8-5,2.1-7.2.7l-.3-.2c-1.9-1.5-2.6-4.3-1.8-6.5,1.3,1.2,2.8,1.9,4.5,1.9s4.1-1.3,5.6-3.1c1.4,2.1,1.2,5.2-.5,7Z"/><path class="cls-11" d="M103.4,255.8c0,0,0-.1-.1-.2"/><path class="cls-11" d="M95.5,263.8c0,0,0-.1,0-.2"/><path class="cls-5" d="M101.8,294h0c-.3.6-.7,1.2-1.3,1.6-1.4,1-4.1.7-6-.3v-.2c-.4-7.5,1.4-23.6.9-31.2,2.2,1.4,5.3,1.1,7.2-.7,0,0,.1-.2.2-.2,0,9.7-.4,30.5-1.1,31.1Z"/><path class="cls-11" d="M101.8,294s0,0,0,0"/><path class="cls-11" d="M82.2,114.6c.8-6-.9-11.4-2.9-17.9"/><path class="cls-10" d="M88,167c-6.6,1.7-15.7,3.6-22.9,2.9-5.9-.6-24.5,0-28.7-3.1h-.8c.2-1.3.3-2.6.5-3.8.3-1.8.4-4,.6-6.3h.6c3.6.6,9.9,1.5,9.9,1.6,1.3,2.2,4.2,4.2,6.1,5.1,1.9,1,10.3,3.1,8.6-1,1-.3,2.8-2.2,1.1-3.4.6.2,16.3,0,22.3-2.4,1.3,4.5,2.4,8.2,2.7,10.3Z"/><path class="cls-11" d="M85.6,112.1s0,0,0,0"/><path class="cls-10" d="M68.9,115.2c-5.3-10.4-11.9-16.5-20.5-26.9v-.8c.8-.1,1.8-.2,2.7-.4h0c0,0,.2.2.2.4,1.4,2.3,2.9,4.5,4.9,6.2,2.2,1.8,5.2,2.8,8,2,2.7-.9,4.7-5.7,3.5-8.3.4,0,.8,0,1.3.1v.8c2.7,9.8,4,17.8-.2,27Z"/><path class="cls-11" d="M51.2,87s0,0,0,0"/><path class="cls-6" d="M47.2,158.2s-6.2-1-9.9-1.5h-.6c.2-2.4.4-4.9.9-6.9v-.2c3.2,2,6.5,4.2,8.9,6,0,.9.2,1.8.8,2.6Z"/><path class="cls-1" d="M77.5,34.9c-5.9-1.3-12.2-.3-17.9,4.3-4.8,3.9-9.4,9.5-8.2,15.7-.6-.6-1.4-.9-2.2-.9h0c-1.6,0-3.4,1.1-3.8,2.8-.7,2.6,2.1,7.2,4.5,6.6.6,5.1,1.9,8.2,4.2,12.7,0,0,0,0,0,0,5.7,7.5,10.1,10.2,13.8,10.3,4.2.2,7.4-2.8,10.6-5.8,1.8-1.7,4.6-4.7,7.8-10.7,1.7-3.2,2-6.6,2-8.5,0-1,0-1.5,0-1.5.1-.4.2-.7.4-1,1-2.9,1.3-4.2,1.6-7.2.9-3.4-3.3-14.8-12.6-16.9ZM60.3,48.6c-.8.2-1.3-.7-.7-1.2.4-.3.8-.6,1.2-.9,1.1-.8,2.6-1.1,4.1-1.2,2.2-.1,9.4.7,7.9,3.6-.3.6-1.2,1.1-2,1.1-.9,0-1.7-.4-2.5-.7-2.3-.8-5.5-1.3-8-.8ZM66.9,57.4c-.2,1.6-1.1,2.8-2,2.7-.8-.1-1.3-1.5-1.1-3.2.2-1.6,1.1-2.8,2-2.7.8.1,1.3,1.5,1.1,3.2ZM71.8,78.4c-1.6,0-4-1.1-5.3-2.5-1.3-1.4-1.4-.6-2.7-4,.7,1.2,8.9,4.7,13.5,3.2-1.5,2.2-2.8,3.3-5.4,3.3ZM84,59.5c-.2,1.4-.9,2.5-1.6,2.4s-1.1-1.3-.9-2.7c.2-1.4.9-2.5,1.6-2.4s1.1,1.3.9,2.7ZM87.8,53.2c-.3.2-.6.2-.9,0-.3-.1-.6-.3-.9-.5-.8-.5-1.8-.6-2.7-.4-.7.2-1.3.6-2,.4-.9-.1-1.5-1.2-1.4-2.1.2-.9.9-1.6,1.8-1.9,2.3-.6,4.6.8,5.9,2.5.2.2.4.5.4.8,0,.3,0,.7-.2.8Z"/><path class="cls-1" d="M64.3,95.6c-2.7.9-5.8-.2-8-2-2-1.7-3.5-4-4.9-6.2l.5-.3c.5-2,1.7-7.8,2.1-10.9,5.7,7.5,10.1,10.2,13.8,10.3v.7c1.1,2.6-.8,7.4-3.5,8.3Z"/><path class="cls-12" d="M84,59.5c-.2,1.4-.9,2.5-1.6,2.4s-1.1-1.3-.9-2.7c.2-1.4.9-2.5,1.6-2.4s1.1,1.3.9,2.7Z"/><path class="cls-12" d="M66.9,57.4c-.2,1.6-1.1,2.8-2,2.7-.8-.1-1.3-1.5-1.1-3.2.2-1.6,1.1-2.8,2-2.7.8.1,1.3,1.5,1.1,3.2Z"/><path class="cls-11" d="M78.3,68.3c.2,3.9-3.5,2-6.4,2"/><path class="cls-8" d="M77.2,75.1c-1.5,2.2-2.8,3.3-5.4,3.3-1.6,0-4-1.1-5.3-2.5-1.3-1.4-1.4-.6-2.7-4,.7,1.2,8.9,4.7,13.5,3.2Z"/><path class="cls-2" d="M88.9,59.2h-.4c1-3,1.3-4.3,1.6-7.4.9-3.4-3.3-14.8-12.6-16.9-5.9-1.3-12.2-.3-17.9,4.3-4.8,3.9-9.4,9.5-8.2,15.7-.6-.6-1.4-.9-2.2-.9h0v-.2c-.3-9,4.5-18.1,12.1-22.3,7.5-4.2,17.4-3.1,23.6,2.9,6.2,6,8,16.6,4.1,24.6Z"/><path class="cls-7" d="M88.2,61.6c0-1,0-1.5,0-1.5.1-.4.2-.7.4-1h.4c3.9-7.9,2.1-18.5-4.1-24.5-6.2-6-16.1-7.1-23.6-2.9-7.5,4.2-12.4,13.3-12,22.3v.2c-1.7,0-3.4,1.1-3.9,2.8-5.2-12.7-.3-23,7.7-28.8,1-.7,2-1.3,3-1.9.6-.3,1.3-.6,1.9-.9,1.3-.6,2.7-1,4.1-1.3,7.1-1.5,15,.1,20.8,4.4,0,0,0,0,0,0,1.2.9,2.3,1.9,3.3,3,7.3,8.1,8.2,21.2,1.9,30.1Z"/><path class="cls-11" d="M88.2,61.6s0,.1-.1.1"/><path class="cls-7" d="M57.9,25.2h0c-.7.4-1.3.7-1.9,1-1,.6-2.1,1.2-3,1.9-5.3.4-9.9-2.5-11.4-7.6,4.3-1,9.1.2,12.5,3.1-1.6-4.1-.4-9.2,3-12,3.1,3.8,3.5,9.5.9,13.6Z"/><path class="cls-11" d="M42.1,31.2c-.2.2-.4.5-.6.8"/><path class="cls-11" d="M53,28.1s0,0-.1,0"/><path class="cls-2" d="M64.2,20.2c-.1.3-.2.6-.3.9-.4,1.2-.8,2.2-1.9,2.4v.4c-1.3.3-2.7.7-4,1.3h0c2.6-4.2,2.2-9.9-.9-13.7-3.4,2.9-4.6,7.9-3,12-3.4-2.9-8.2-4.1-12.5-3.1,1.5,5.1,6.1,8,11.4,7.6-8,5.8-12.9,16.1-7.7,28.8-.7,2.6,2.1,7.2,4.5,6.6.6,5.1,1.9,8.2,4.2,12.7,0,0,0,0,0,0-.2-.2-.3-.4-.4-.6-13.4-4-15.9-17.2-17.1-24.4-1.2-6.8.6-13.8,5-19.4-.8.2-1.6,0-2.3-.3-1.2-.7-1.8-2.4-1.3-3.7-1.5.5-3.3-.1-4.2-1.4s-.8-3.1.1-4.4c-2.2-.8-3.6-3.5-2.8-5.7.7-2.2,3.4-3.7,5.7-3-1.7-.7-1.9-3.3-.7-4.7,1.3-1.4,3.4-1.7,5.2-1.3-1-1.8-.3-4.4,1.6-5.4s4.5,0,5.4,1.8c-.2.2.3,1.1.1,1.3,1.1-2.1,4-3.2,6.2-2.2s3.4,3.8,2.6,6c1.5-1.1,3.8-.9,5.1.5,1.3,1.3,1.4,3.6.3,5.1,1.7,1.3,2.4,3.7,1.6,5.7Z"/><path class="cls-11" d="M43.1,31.1c-.4.5-1,.8-1.6.9"/><path class="cls-11" d="M62,23.6c-.2,0-.5,0-.8,0"/><path class="cls-4" d="M72.7,49c-.3.6-1.2,1.1-2,1.1-.9,0-1.7-.4-2.5-.7-2.3-.8-5.5-1.3-8-.8-.8.2-1.3-.7-.7-1.2.4-.3.8-.6,1.2-.9,1.1-.8,2.6-1.1,4.1-1.2,2.2-.1,9.4.7,7.9,3.6Z"/><path class="cls-4" d="M87.8,53.2c-.3.2-.6.2-.9,0-.3-.1-.6-.3-.9-.5-.8-.5-1.8-.6-2.7-.4-.7.2-1.3.6-2,.4-.9-.1-1.5-1.2-1.4-2.1.2-.9.9-1.6,1.8-1.9,2.3-.6,4.6.8,5.9,2.5.2.2.4.5.4.8,0,.3,0,.7-.2.8Z"/><path class="cls-2" d="M82.9,28.4c-5.8-4.3-13.7-6-20.8-4.4v-.4c1-.3,1.4-1.2,1.8-2.4,7-.3,14,2.5,19,7.3Z"/><path class="cls-11" d="M83.6,29.1c-.2-.2-.4-.4-.6-.6"/><path class="cls-11" d="M63.9,21.1h0"/><path class="cls-9" d="M42.7,315.3c-10.2-2.3-15.6-5.6-31.1-16.3-1-.7-2.2-1.4-2.5-2.6-.2-.9.1-1.8.5-2.6,1.5-3.6,4.8-6.9,7.2-10.1,0,.6.6,1.2,1.4,1.6,2.8,1.5,8.7,2.1,9.5,1.2,1-1.2,2.1-2.4,3.5-3.1,1.4-.6,2.1-.6,2.9.8,6.4,12.6,6.2,14,16,19.7,1.4.8,3.1,1.3,3.5,2.8,1.8,7.9-4.5,10.1-11,8.6Z"/><path class="cls-9" d="M135,310.8c-2.6,1.9-6,2.3-9.2,2.4-9.9.4-20.6-3.6-30.4-4.8-1.2-.1-2.5-.4-3.2-1.3-.5-.7-.6-1.6-.6-2.4,0-3.7.4-7.3,1.3-10.9.3.6,1,1.1,1.7,1.6,1.9,1,4.6,1.3,6,.3.5-.4,1-.9,1.3-1.5.4-.6.6-1.4.8-2,.4-1.3.8-2.7,1.8-3.8,1-1,1.4-.9,3.1-.5h.1c8.1,3.2,17.1,9.2,25.2,12.4,1.4.5,2.9,1.1,3.9,2.3,2.1,2.4.8,6.4-1.8,8.3Z"/></svg>