<?xml version="1.0" encoding="UTF-8"?><svg id="usa" xmlns="http://www.w3.org/2000/svg" width="235" height="321.9" viewBox="0 0 235 321.9"><defs><style>.cls-1{fill:#2e3191;}.cls-1,.cls-2,.cls-3,.cls-4,.cls-5,.cls-6,.cls-7,.cls-8{stroke:#000;stroke-linecap:round;stroke-linejoin:round;}.cls-2{fill:#6088d8;}.cls-3{fill:#72777c;}.cls-4{fill:#302f2d;}.cls-5{fill:#e4cfb5;}.cls-6{fill:#fff;}.cls-7{fill:none;}</style></defs><path class="cls-3" d="M90.9,234.4c-1.3.9-2.6,1.8-4,2.6-.2.1-.4.2-.7.4-4.7,2.7-9.9,4.1-16.4,2.3-2.4-.6-4.9-1.7-7.7-3.3.2-4.8-1.2-27.2-.9-32.7h0c-1.4,13.3-2.8,35.6-3,34.2-2.3.9-3.9,1.7-5.4,2.2-2.9,1-5,1.2-9.9,0-1.8-.4-5.9-2.2-9.2-4.1-1.9-1.1-3.5-2.3-4.4-3.3,0,0,3.9-19.3,6.1-35.1.9-6.2,1.4-11.8,1.4-15.6,1.6,3.3,19.1,5.1,23.4,5.3,4.9.3,9.2,1.1,14.1.5,3.2-.4,8.8-.8,11.8-.9,0-.1,0-.2,0-.3h.7c0,8.8.3,9.8.8,18.1h0c.6,9.6,2,20.3,3.1,29.6Z"/><path class="cls-4" d="M87.8,67h-.4c.3-3,.4-5.2.4-5.2.8-3.5,1.1-8.9.9-13.3h-.4c-.5-3.4-.6-4.6-1.6-8.1-.8-2.8-4.9-4-9.5-3.3-2,.3-6.9.6-9.1.3-7.2-.7-10.4,0-18.9,1.1-2.5.3-4.6,12.8-3.6,24.2-1.2.2-3,.5-3-.4,0-3.3-2.2-4.7-4.6-3.7-3.3,1.4,0,8.3.8,11,1,3.1,2.3,3.1,3.5,2.2h.3c.8,4.6,4.3,10.7,5.7,13.2-.6-.5-1.3-1.1-1.9-1.7l-.6.6c-1.5-1.9-4.3-6-5-6.8-.3-.3-6.4-12.6-6.5-13-.6-3.4-.2-12.1,0-15.7.6-10.7,2.9-12.2,5.1-17.1,1-2.2,1.4-1,2.3-2.4,2.1-2.4,15.8-10.4,33.2-12.8,1.2.8,3.4,5.1,5.6,9.4h0c1,.4,5.2,4.7,5.8,5.5,3.6,5.1,8.4,11.6,1.4,36.1Z"/><path class="cls-7" d="M46.4,83.3s0,0-.1,0"/><path class="cls-5" d="M88.7,48.6h-.4c-.5-3.4-.6-4.6-1.6-8.1-.8-2.8-4.9-4-9.5-3.3-2,.3-6.9.6-9.1.3-7.2-.7-10.4,0-18.9,1.1-2.5.3-4.6,12.8-3.6,24.2-1.2.2-3,.5-3-.4,0-3.3-2.2-4.7-4.6-3.7-3.3,1.4,0,8.3.8,11,1,3.1,2.3,3.1,3.5,2.2h.3c.8,4.6,4.3,10.7,5.7,13.2,1.7,1.4,3.3,2.7,4.8,3.8,7.1,4.9,13.2,6.2,18.1,5,.4,0,.8-.2,1.1-.3,3-1,5.5-2.9,7.4-5.5,3.5-4.5,5.3-7.8,6.5-13.4.6-2.6.9-5.3,1.2-7.6.3-3,.4-5.1.4-5.1.8-3.5,1.1-8.9.9-13.3ZM55.8,63.9c-1,0-1.7-1.6-1.7-3.6s.8-3.6,1.7-3.6,1.7,1.6,1.7,3.6-.8,3.6-1.7,3.6ZM59.4,53.8c-2.6-.6-6.4-.5-7.7-.1-.4-2.2,1-1.8,1.8-2.4,1.8-1.2,5.3,0,6.9,1.1-.3,1.2-.1,1.8-1,1.4ZM79.4,63.1c-.8,0-1.4-1.4-1.4-3.1s.6-3.1,1.4-3.1,1.4,1.4,1.4,3.1-.6,3.1-1.4,3.1ZM82.9,53.6c-3-.8-6,0-8.4.5-.9-1.6,1.8-2.7,4.7-2.6,3,0,3.2.6,3.8,2.1h0Z"/><path class="cls-4" d="M83,53.5h0c-3-.7-6,0-8.4.6-.9-1.6,1.8-2.7,4.7-2.6,3,0,3.2.6,3.8,2.1Z"/><path class="cls-4" d="M60.4,52.5c-.3,1.2-.1,1.8-1,1.4-2.6-.6-6.4-.5-7.7-.1-.4-2.2,1-1.8,1.8-2.4,1.8-1.2,5.3,0,6.9,1.1Z"/><path class="cls-7" d="M88.7,48.6c0-1.3-.2-2.5-.4-3.6"/><path class="cls-7" d="M74.4,54.1c0,0-.2,0-.2,0"/><path class="cls-7" d="M59.8,53.9c-.1,0-.2,0-.4-.1"/><path class="cls-8" d="M80.8,60c0,1.7-.6,3.1-1.4,3.1s-1.4-1.4-1.4-3.1.6-3.1,1.4-3.1,1.4,1.4,1.4,3.1Z"/><path class="cls-8" d="M57.6,60.3c0,2-.8,3.6-1.7,3.6s-1.7-1.6-1.7-3.6.8-3.6,1.7-3.6,1.7,1.6,1.7,3.6Z"/><path class="cls-7" d="M70.3,65.9c.7,2,3.4,4,3.9,5.1,0,2.8-1.7,2.5-3.4,3.1"/><path class="cls-7" d="M46.6,84.9c-.2-.1-.5-.5-.8-.9"/><path class="cls-7" d="M84.7,33.7c-1-1.9-2.5-5.1-4.1-8.3"/><path class="cls-7" d="M48.6,85.5c0-.1-.2-.3-.3-.5"/><path class="cls-7" d="M42.6,71.8c-.1-.8-.2-1.5-.1-2.1"/><path class="cls-7" d="M53.1,88.5v.3"/><path class="cls-7" d="M74.5,54.1s0,0,0,0"/><path class="cls-7" d="M76,81c-5.6,2-11.9,1-14.7-1.3"/><path class="cls-7" d="M50.7,37.2c-2.8-.8-4.7-5-6-7.6"/><path class="cls-1" d="M97.7,135.2c-1.5,2.8-1.7,3.6-3.1,4.4-1.1.6-2.9,1.1-6.5,2.2,0-4.4,0-8.6,0-12.6,0-2.5,0-4.9-.2-7.2-1.7-10.9-2.7-18.2-11.7-20.5h-.6c0-1.2-.3-2.6-1-4h.1c2.4,0,8.6,2.9,10.7,3.8,3.5,1.7,5.9,5.5,7.4,9.1,2.2,5.7,3.3,19.9,4.9,24.9Z"/><path class="cls-1" d="M50.9,101.5h-.2c-4.3-1-6.7,2-8,6.2,1-5.6-2.8-8.1-5.4-7.4.5-.3.9-.6,1.4-.8,1.8-.8,10.7-2.9,12.7-2.9-.8,1.6-.8,3.3-.4,5Z"/><path class="cls-1" d="M42.7,107.6s0,0,0,0c-1.8,5.2-1.9,12.2-2.3,15.2,0,2.2-.1,4.4-.2,6.4-.2,4.7-.5,8.8-.5,12.2h0c0,1,0,1.9,0,2.7-.5-.2-1.2-.4-2-.6-4.1-1.1-11.1-2.2-13.7-4.2-.7-.5-1.1-1.1-1-1.7,0,0,3.6-22.7,6-27.6,1.4-3,5-7.5,8.2-9.7h0c2.6-.6,6.4,1.8,5.4,7.4Z"/><path class="cls-7" d="M87.8,122c-.1-3.8-.2-7.1-.5-10"/><path class="cls-7" d="M39.7,141.4c0-.8-.1-1.6-.2-2.4"/><path class="cls-2" d="M88.1,141.8c0,11.6-1.4,33.4-1.8,44.9h0c0,.1,0,.2,0,.3-3.1.1-8.7.5-11.8.9-4.8.6-9.2-.2-14.1-.5-4.3-.2-21.8-2-23.4-5.3.3-4.7,2.6-26,2.9-31.5.2-3.1,0-6.1-.3-9.1h0c0-3.4.3-7.5.5-12.2h.2c16.6,4.8,30.9,6.1,47.1,0h.5c0,4,0,8.2,0,12.6Z"/><path class="cls-7" d="M62.3,196.5c-.3,1.7-.6,4.2-1,7.2"/><path class="cls-7" d="M67.7,193.8c-2.1,2-3.7,2.6-4.9,3.9"/><path class="cls-5" d="M89.5,268.6h0c-2.9,1.5-9.9,3.7-12.2,1.1-1.8-7.9-2.9-9.7-4.7-16.5-2.1-8.1-2.7-9.9-2.6-13.6,6.5,1.8,11.6.4,16.4-2.3h.9c.9,6,1.7,8.8,1.5,13.2-.1,2.7.3,11.2.8,18Z"/><path class="cls-6" d="M90.3,276.9c-3-1.2-9.4.6-11.1,2.9-.8-4.3-1.4-7.5-2-10.1,2.3,2.6,9.3.4,12.2-1.1h0c.3,3.7.6,6.9.8,8.3Z"/><path class="cls-7" d="M69.9,239.7h0"/><path class="cls-6" d="M47.2,294.2h-.1c-.3-.5-.6-1-1-1.5h0c1.9-10.7-1.5-13.6-8.6-14.6-1.7,0-3.3.8-4.4,2.1.1-2.8.2-5.3.2-7.6,2,2.9,11.2,3,13.6,1.2-.4,6.6-.1,15.8.2,20.3Z"/><path class="cls-7" d="M53,240.2c0-.1,0-.2,0-.4"/><path class="cls-5" d="M53.1,243.1c-.2,8.7-2.7,15-5.4,25.2-.4,1.3-.6,3.3-.7,5.6-2.4,1.8-11.6,1.7-13.6-1.2,0-11.2-1.3-16.1-.9-23.6.2-3.9.9-9.3,1.4-13.1,3.4,2,7.4,3.7,9.2,4.1,4.9,1.2,7,1,9.9,0,0,1,.2,1.9.1,2.9Z"/><path class="cls-7" d="M34,235.4c0,.2,0,.4,0,.7"/><path class="cls-7" d="M72.8,96c0,1.2,0,2.5-.2,3.6"/><path class="cls-1" d="M75.5,101.5c.1,5.6-5.1,9.4-10.1,9.9-6.3.7-11.1-2.2-13.4-6.9h-.1c-.4-1-.8-2-1-3.1-.3-1.6-.3-3.3.4-5,.4-.8,1-1.7,1.8-2.4h.2c0,2.2.1,4.2,0,4.7-.3,3.1,4.2,7,9,8,6,1.1,9.4-2.4,10.3-7.1-.1-1.5,0-3,.2-4.4h.5c.5.8.9,1.5,1.2,2.2.7,1.4,1,2.8,1,4.1Z"/><path class="cls-5" d="M73.1,93.8c-.1.4-.2.9-.3,1.4h0c-.2,1.4-.3,3-.2,4.4-.9,4.7-4.4,8.2-10.3,7.1-4.8-.9-9.3-4.9-9-8,.2-.5.1-2.5,0-4.7,0-1.9-.2-4-.2-5.3,7.1,4.9,13.2,6.2,18.1,5h1.9Z"/><path class="cls-7" d="M72.6,100.2c0-.2,0-.4,0-.5"/><path class="cls-7" d="M52.2,105.6c-.1-.3-.2-.6-.4-.9"/><path class="cls-7" d="M88.1,123.5c0-.5-.1-1-.2-1.5"/><path class="cls-4" d="M30.5,289.6c-1,.4-2,.9-3,1.6"/><path class="cls-4" d="M46.1,292.7h0c-1.4-1.7-2.9-2.1-5.5-2.9-2.7-.8-6.3-1.6-10.1-.2.7-.4,1.3-1,1.7-1.8.6-1-.4-4.8,0-5.9.2-.6.5-1.2.9-1.7h0c1.1-1.4,2.7-2.1,4.4-2.1,7.1.9,10.5,3.8,8.6,14.5Z"/><path class="cls-4" d="M48.2,307.7c-1.4,1.7-5.1,1.3-7.1,1.3-5.4,0-11.2.2-16.6,0-1.7,0-3.6-2.4-4.7-3.9-1-1.3-.9-3.3-.6-5,.7-3.5,5.6-7.2,8.3-8.8,1-.5,2-1,3-1.6,3.7-1.4,7.4-.6,10.1.2,2.7.8,4.2,1.2,5.5,2.9.3.4.7.9,1,1.5,0,.1.2.3.2.5,1.2,2.4,2.5,10.9.9,12.9Z"/><path class="cls-4" d="M107.2,307.1c-.4.2-5.7,1.3-6.1,1.4-5,.3-22.7,1.1-24.2,0-2.1-1.5-.4-12.3.6-14.8.6-1.4,1.1-2.5,1.8-3.3h0c.6-.8,1.4-1.3,2.5-1.6,2.3-.7,6.9-.7,9.3-.6.8,0,1.7,0,2.1-.9,4,1.3,11.3,4.7,13.1,9.1.7,1.7,2.5,10,1,10.8Z"/><path class="cls-4" d="M93.1,287.2c-.4.8-1.3.9-2.1.9-2.4,0-7-.1-9.3.6-1.1.3-1.9.9-2.5,1.6-.6-3.4-1.9-7.8,0-10.5,1.7-2.3,8.1-4.1,11.1-2.9.4.2.8.4,1,.6,1.8,1.9,1.8,5.4,1.9,8.2,0,.5,0,1-.2,1.4Z"/><path class="cls-7" d="M36.7,151h0"/><path class="cls-7" d="M37.7,143.2c0,0,0,.2,0,.2"/><path class="cls-5" d="M37.7,143.5c-.5,4.2-1,6.6-1.1,7.5h0c-.2,3.9,0,4.6-1.5,9.4-1.2,4-5.1,24.6-1.9,29.3h0c1.2,1.7.7.8,1.4,2.6.4,1,.3,3.2,0,5.3-.2,1.8-.6,3.5-1,4.3-.8,1.8-2.7,2.2-5,2.5-2.3.3-4.9-.9-5.4-2.8.1,0,.3.7.5.6-3-3.6-.4-15.5-1.4-19.5-1.7-6.7-2.3-31.4.6-36.7.6-1.1.8-2.8,1.1-6.8,2.6,2,9.6,3.1,13.7,4.2Z"/><path class="cls-7" d="M24.1,139.1c0,0,0,.1,0,.1"/><path class="cls-7" d="M36.7,149.6c0,.5,0,.9,0,1.3"/><path class="cls-7" d="M33.3,189.7s0,0,0,0"/><path class="cls-5" d="M94,192.2c1.6,6.5,1.2,11.8-6.1,12.6-.5-8.3-.8-9.2-.8-18h-.7c.4-11.6,1.8-33.4,1.8-44.9,3.6-1.2,5.4-1.7,6.5-2.2.1,3.3-.2,4.4,0,6.4,2.6,21.5-4.6,29.9-.6,46.2Z"/><path class="cls-7" d="M87.8,204.8c-.1,0-.2,0-.3,0"/><path class="cls-2" d="M88,129.2h-.5c-16.2,6.1-30.5,4.8-47.1,0h-.2c0-2,.2-4.2.2-6.4.4-2.9.5-9.9,2.3-15.2,0,0,0,0,0,0,1.4-4.1,3.8-7.1,8-6.1h.2c.2,1.1.6,2.1,1,3.1h.1c2.3,4.6,7,7.5,13.4,6.8,5.1-.5,10.3-4.4,10.1-9.9h.6c9,2.2,10.1,9.5,11.7,20.4,0,2.3.1,4.7.2,7.2Z"/></svg>