<?xml version="1.0" encoding="UTF-8"?><svg id="usa" xmlns="http://www.w3.org/2000/svg" width="235" height="321.9" viewBox="0 0 235 321.9"><defs><style>.cls-1{fill:#787878;}.cls-1,.cls-2,.cls-3,.cls-4,.cls-5,.cls-6,.cls-7,.cls-8{stroke:#000;stroke-linecap:round;stroke-linejoin:round;}.cls-2{fill:#3f4040;}.cls-3{fill:#a14599;}.cls-4{fill:#ddcbbf;}.cls-5{fill:#fff;}.cls-6{fill:#eaeae9;}.cls-7{fill:none;}</style></defs><path class="cls-4" d="M85.6,77.8v.3c-1.4,11.4-2.6,22.9-3.6,34.5h.5c1.7,1.6,4.3,3.2,7,4.5,3.5,1.7,6.9,2.9,8.2,2.7,3.6-.6,8.9-5.7,8.9-5.7,7.1-6,6.1-18.7,6.6-20.7.6-2.3,2.7-4.5,4.9-8.2-7-4.2-21.4-6.7-32.4-7.3ZM92.2,92.6c.3-1.4,1.2-2.3,2-2.1.8.2,1.2,1.4.9,2.8-.3,1.4-1.2,2.3-2,2.2-.8-.2-1.2-1.4-.9-2.8ZM93.2,104.6l.2-.2c3.5,2.5,6.2,4.2,10.3,4.7-2.4,7.5-10.6,7.1-10.5-4.4ZM109.7,96.8c-.3,1.4-1.2,2.4-1.9,2.2-.8-.2-1.1-1.4-.8-2.8.3-1.4,1.2-2.4,1.9-2.2.8.2,1.1,1.4.8,2.8Z"/><path class="cls-3" d="M110.8,59.2l-.3.5c-5.6-2-10.4-2.3-14.5-1.5-15.2,2.5-18.9,19.1-24.5,26.4,0-25.9,11.6-31.8,23.4-32.4,6.7,1.6,12,4,16,7Z"/><path class="cls-2" d="M121.6,88.5c-.4-.7-1-1.3-1.7-1.9-.6-.5-1.2-.9-2-1.4-7-4.2-21.4-6.7-32.4-7.3-3.5-.2-6.6-.2-9.1-.1,3.9-9.4,9.9-17.6,19.4-19.5,4.1-.8,8.9-.5,14.5,1.5l.3-.5c8.8,6.6,11.8,16.4,10.9,29.3Z"/><path class="cls-2" d="M85.6,77.8v.3c-1.4,11.4-2.6,22.9-3.6,34.5-.4,4.3-.7,8.6-1,12.9-.7,9.3-1.2,18.6-1.7,27.9-6.4-.7-11.7-5.2-15.8-5.6.5-6.1,1.9-11.8,1.2-18.1-.1-1.6-.4-2.9-.8-4-1.4-3.6-3.5-4.6-7.2-3.3-1.7.5-3.1,1.6-4.4,3,2.2-10.3,3.4-23.1,4.5-33.6,1.1-10.5,1.4-17.8,7.5-26.4,6-8.6,13.4-15.4,28.8-13.7.6.1,1.3.3,1.9.4-11.7.7-23.4,6.5-23.4,32.4,5.6-7.3,9.4-24,24.5-26.4-9.5,1.9-15.5,10.1-19.4,19.5,2.5-.1,5.6-.1,9.1.1Z"/><path class="cls-7" d="M118,85s0,0,0,.1"/><path class="cls-7" d="M110.6,90.4c-.1-2.3-2.3-2.3-3.2-1.1"/><path class="cls-7" d="M96,85.4c-1.1-1.8-3.3-2.3-5.7-.3"/><path class="cls-7" d="M103.5,99c.3,2.1.4,3.5,2.9,3.2-1.1,2.1-1.8,2.3-3.8,2.9"/><path class="cls-7" d="M93.3,104.3c-.3-.2-.5-.4-.8-.6"/><path class="cls-7" d="M89.4,116.9s0,0,0,.1"/><path class="cls-7" d="M80.9,125.5s0,0,0,0"/><path class="cls-3" d="M61.5,145.3c-.4-.4-.8-.8-1.3-1.2,0,0-.2-.1-.2-.2-3.9-3-10.7-5.1-13-6.4-.5-.2-.8-.5-.8-.7-.3-.9-.2-2,.3-2.8,1.9-3.4,3.7-6.4,5.8-8.6,1.3-1.4,2.8-2.5,4.4-3,3.8-1.3,5.8-.3,7.2,3.3.4,1,.7,2.4.8,4,.5,5.4-.6,12.8-3.1,15.6Z"/><path class="cls-4" d="M89.5,124.5c-1.6,1.7-6.3,1.6-8.6,1,.3-4.3.7-8.6,1-12.9h.5c1.7,1.6,4.3,3.2,7,4.5-.1.8,0,1.7,0,2.4.4,2,1.2,3.8,0,5Z"/><path class="cls-3" d="M101.6,150.2c0,3-.1,6.1-.3,9.1h0c-.8,13.6-2.7,27.2-3.2,40.5-16.4,1.6-28-.7-43.6-5.4-.3,0-.6-.2-.9-.3,1.7-5,1.7-3.9,2.5-9.1h0c.7.5,1.5,1.2,2.2,1.9,1,2,6.5,7.3,8.4,6.2,1.7-.8,5.4-9.3,4.4-11.7-.9-2.2-9.3-4.3-11-2.6h0c-1.1-1.5-2-3-2.9-4.5l.3-.2c1.1-10.4,3-23.4,2.1-29.9l.3-.4c0,0,.2.1.2.2.5.4.9.8,1.3,1.2,2.5-2.8,3.6-10.3,3.1-15.6.7,6.3-.7,12-1.2,18.1,4.1.5,9.4,5,15.8,5.6.4-9.3,1-18.6,1.7-27.9,2.3.6,7,.7,8.6-1,1.1-1.2.3-3,0-5h.2c1.7.9,3.8.8,5.6,2t0,0c.4.3.8.7,1.2,1.1,0,.1.2.2.3.4,1.9,2.7,3.3,5.7,3.8,9,.9,6,1.2,12.2,1.1,18.4Z"/><path class="cls-4" d="M66.8,193.2c-2,1-7.4-4.3-8.4-6.2-.8-.7-1.5-1.3-2.2-2-7.5-6.6-11.7-11-16.5-20.7-2.4-4.8,2.8-19.9,7.1-26.5v-.2c2.5,1.3,9.3,3.3,13.2,6.4l-.3.4c-4.2,5.3-7,10.3-10.5,16.1,3.7,5.8,5.6,9.9,8.1,14.1.9,1.5,1.8,3,2.9,4.5h0c1.6-1.8,10.1.4,11,2.6,1,2.4-2.7,10.8-4.4,11.7Z"/><path class="cls-7" d="M60.5,179.4c-.1-.1-.2-.3-.3-.5"/><path class="cls-4" d="M125.5,172.4c-2.7.6-.5-.2-2.7,1.5-2.1,1.5-3.7,4.2-3.2,6.8h-.1c-2.5-6.6-17.5-15.9-18.2-21.2h0c.2-3.1.3-6.1.3-9.1h0c2.5-3.1,2.3-3.5,4.2-4.8h0c.4,1.9,1.6,4.4,3.2,7.1,4.4,7.5,12.1,16.8,16.4,19.8Z"/><path class="cls-7" d="M101.2,159c0,.1,0,.2,0,.4"/><path class="cls-4" d="M128.8,183.5c-2.5,1.9-4,2.6-6.5.8-1.2-.8-2.2-2.1-2.6-3.5,0-.1,0-.2,0-.3-.5-2.6,1.1-5.2,3.2-6.8,2.2-1.6,0-.9,2.7-1.5,3-.9,6.4.8,7.7,3.6,1.3,2.8-1.9,5.7-4.4,7.6Z"/><path class="cls-7" d="M46.4,282.2c-.8.9-1.5,1.8-2.2,2.8"/><path class="cls-7" d="M71.4,240.3v-.3"/><path class="cls-4" d="M71.4,240.3c-.1,8.3-3.9,12.6-8.4,21-4.2,7.8-10.9,13.9-16.5,20.8-1.3.6-2.2,1.7-3.2,2.7-.9,1-7.4.9-8.7-1h0c1.9-9.7,6.8-19.8,12-28.2,1.8-2.8,3.7-6.1,4.9-9.2,1.2-3.1,2.1-3.2,1.4-6.2,7.1.8,13.2.8,18.5.2Z"/><path class="cls-7" d="M52.9,240.2c0,0,0-.1,0-.2"/><path class="cls-1" d="M115.8,230c-7.8-2.9-14,.3-22.5,4-5.8,2.5-12.8,5.3-21.9,6.4-5.3.6-11.4.7-18.5-.2-2-.2-4.1-.5-6.3-.9,1-16.3,1.5-26,7.8-44.6v-.2c15.7,4.7,27.3,7.1,43.7,5.4,8.5,8.4,13,19.1,17.7,30.1Z"/><path class="cls-4" d="M109.8,286.2l.5.4c-.5.8-.9,1.6-1.3,2.4-.6,1.3-1.4,2.7-2.7,3.4-2.2,1.2-5.4-.2-6.3-2.5h-1.2c0,0,0-.1,0-.2.6-12,1.8-16.2-1.3-28-.8-3.1.2-13.6.7-16.8-2-4.7-2.9-6.3-4.8-11,8.5-3.7,14.8-6.9,22.5-4,.3,20.3-3.4,36.1-6.1,56.3Z"/><path class="cls-6" d="M134.4,311.6c-3,1.6-6.6,1.5-9.9,1.1-10.3-1.1-15.6-5.2-25.6-7.9-1.2-.3-2.5-.8-3.1-1.8-.4-.8-.3-1.7-.2-2.6.5-3.8,1.5-7.5,3-11.1h.2c0,.1,0,.3,0,.4,0,0,0,.1,0,.2h1.2c.9,2.3,4,3.7,6.3,2.5,1.3-.7,2.1-2.1,2.7-3.4.4-.8.8-1.7,1.3-2.4.3-.4.7-.8,1.1-1.2,1.2-.9,2.2-1.1,3.3,0h0c7.9,4.6,11.2,10.4,19.1,14.9,1.4.8,2.8,1.6,3.6,2.9,1.8,2.8-.1,6.7-3.1,8.3Z"/><path class="cls-6" d="M63.7,312.1c-3.3.7-3.9,1-7.1-.2-9.6-3.8-18.5-9.2-27.4-14.6-1.1-.6-2.2-1.4-2.5-2.6-.2-.9.2-1.7.5-2.6,1.6-3.5,3.5-6.8,5.9-9.8l1.2.9c0,.2,0,.4.2.6,1.3,1.9,7.8,2,8.7,1,.9-1,1.9-2.2,3.2-2.7,0,0,.1,0,.2,0,1.4-.6,2.4-.4,3.2.9h0c6.4,6.6,10,11.7,16.5,18.2,1.1,1.1,2.3,2.3,2.7,3.8.9,3.2-2,6.4-5.2,7.2Z"/><path class="cls-7" d="M33.2,282.3s0,0,0,0"/><path class="cls-7" d="M63.4,147.8s0,0,0,0"/><path class="cls-5" d="M103.6,109c-2.4,7.5-10.6,7.1-10.5-4.4l.2-.2c3.5,2.5,6.2,4.2,10.3,4.7Z"/><path class="cls-8" d="M109.7,96.8c-.3,1.4-1.2,2.4-1.9,2.2-.8-.2-1.1-1.4-.8-2.8.3-1.4,1.2-2.4,1.9-2.2.8.2,1.1,1.4.8,2.8Z"/><path class="cls-8" d="M95,93.2c-.3,1.4-1.2,2.3-2,2.2-.8-.2-1.2-1.4-.9-2.8.3-1.4,1.2-2.3,2-2.1.8.2,1.2,1.4.9,2.8Z"/><path class="cls-3" d="M108,144c-.9.6-1.6,1.1-2.2,1.4-1.8,1.3-1.7,1.7-4.2,4.8h0c0-6.2-.2-12.3-1.1-18.4-.5-3.3-1.9-6.3-3.8-9,0-.1-.2-.2-.3-.4,5.5,5.4,8.1,14.7,11.6,21.5Z"/><path class="cls-2" d="M119.9,86.5h-.5c-7,21-8.9,44-10.3,66h0c-1.6-2.7-2.8-5.2-3.2-7h0c.5-.4,1.2-.9,2.2-1.5-3.6-6.8-6.1-16.1-11.6-21.5-.4-.4-.8-.8-1.2-1.1t0,0c-1.7-1.1-3.8-1-5.6-2h-.2c-.1-.7-.2-1.6,0-2.4,3.5,1.7,6.9,2.9,8.2,2.7,3.6-.6,8.9-5.7,8.9-5.7,7.1-6,6.1-18.7,6.6-20.7.6-2.3,2.7-4.5,4.9-8.2.7.5,1.4.9,2,1.4Z"/><path class="cls-7" d="M95.1,52.2c-.1,0-.2,0-.4,0"/><path class="cls-7" d="M63.4,147.8c0,.2,0,.5,0,.7"/></svg>