<?xml version="1.0" encoding="UTF-8"?><svg id="usa" xmlns="http://www.w3.org/2000/svg" width="235" height="321.9" viewBox="0 0 235 321.9"><defs><style>.cls-1{fill:#7a4f2c;}.cls-1,.cls-2,.cls-3,.cls-4,.cls-5,.cls-6,.cls-7,.cls-8,.cls-9,.cls-10{stroke:#000;stroke-linecap:round;stroke-linejoin:round;}.cls-2{fill:#54331a;}.cls-3{fill:#2f4b57;}.cls-4{fill:#302f2d;}.cls-5{fill:#b3292e;}.cls-6{fill:#b95a27;}.cls-7{fill:#fff;}.cls-8{fill:#e8cebf;}.cls-9{fill:none;}</style></defs><path class="cls-1" d="M110.8,285.9c-.3.5-.7,1-1.2,1.4-4.4,4.9-12.7,7.9-19.5,7.6-1.2,0-2.5-.2-3.6-.5-.2-10.5-1.7-19.2-1.4-36.1,0-6.4.6-23.4-1.4-27-3.8-6.9-10.7-16.2-16.2-21.9h-.1c-5.8,18.7-7.6,26-9.8,31.4-.7,1.8-13.1,44.1-14.8,45.1-1.8,1-6.5,1.5-11.5,1.5-3.8,0-7.5-.4-11.3-.9-1.1-.1-2.2-.3-3.3-.5,11.1-29,18.9-45.2,21.4-58.9,2.1-11.8,0-33.4,2.8-46.7v-.2c16.5,4.9,28.7,7.5,46,5.8,4.6,7.8,16.4,32.5,20,44.1.8,2.5,3.5,45.9,3.9,55.8Z"/><path class="cls-8" d="M101.4,85.6c-1,.4-2.1.5-3.2.3-1.4-.2-2.6-1-3.5-2.1h0c.3-1.2-.1-2.8-1.9-4.1-.2-1.3-.3-2.7,0-4.1.1-.7.3-1.3.5-1.9-.7-.7-1.8-.9-3-.4,0,.6,0,1.2-.2,1.8-.9,5.1-5.3,8.6-9.7,7.8-4.1-.8-6.9-5-6.4-9.8-3.1-1.5-8.7-6.4-9.3-7h0c0-1-.6-1.9-1.3-2.6-1-1-2.4-1.7-3.8-1.8-1.9-.2-3.1,3.7-3.5,5.8-.4,2.1,1.2,5,2.9,6.1.5.3.9.4,1.4.4v.3c0,4.2.4,11.3,1.4,14.2.3,1,5,5.4,8.9,8.4,0,0,0,0,.1,0,2,1.4,4.2,2.7,6.2,3.8.6.3,1.1.6,1.7.9.5.2.9.4,1.3.7,0,0,0,0,0,0,.6.2,1.2.4,1.7.7,0,0,0,0,.1,0,1.4.6,2.5.9,3.1.8,0,0,.2,0,.3,0,3.7-1,10.8-8.2,10.8-8.2,3.3-2.8,3.5-6,5-10.3h0ZM86.1,95c-3.5-1.7-4.8-3.3-5.7-6.9,6.6,3.1,8.9,4.2,12.2,4.7-1.5,1.6-4.5,3.1-6.5,2.2Z"/><path class="cls-7" d="M92.6,92.9c-1.5,1.6-4.5,3.1-6.5,2.2-3.5-1.7-4.8-3.3-5.7-6.9,6.6,3.1,8.9,4.2,12.2,4.7Z"/><path class="cls-8" d="M107.2,66.5h-.1c-.9,1.5-1.7,2.7-2.2,3.4-.3-.3-.6-.6-.9-.8,0-.1.1-.3.2-.4.2-.6.3-1.4-.2-1.9-.2-.2-.5-.3-.8-.5-1-.4-2-.7-3.1-.5-.2,0-.4.2-.6.3-.7.5-1.2,1.3-.9,2.1h0c-1.8.6-3.5,2.1-4.5,4.1h0c-.4-1.1-2.5-1.2-3.7-.6-.3-2-1.1-3.8-2.4-5.1,0-.2.2-.4.3-.6.3-.6.5-1.3.1-1.9-.2-.3-.6-.6-1-.7-2.2-1-4.7-1.4-7.1-.9-.6.1-1.2.3-1.5.9-.3.6,0,1.2.2,1.8h0c-1.8,1.1-3.3,2.9-4.2,5.1-2.2-.9-5.2-2.7-7.6-4.2h0c1.7-10.5,7.9-16.1,15.1-19.4,2.6-1.1,14.8,13.6,16.7,18.4.3-3.3,2.6-9.3.9-12.1,3.9,3,6.1,7.2,7.2,13.5Z"/><path class="cls-9" d="M94.7,83.8c-.3,1.3-1.5,2.3-2.9,2.4"/><path class="cls-9" d="M92.8,79.8s0,0,0,0"/><path class="cls-8" d="M77.3,100.9c0,1-.5,2.3-1.4,2.7-.3.1-.6.2-1,.3-.6.1-1.3.1-2,0,0,0-.2,0-.3,0-4.9-.4-9.5-4.2-12.9-7.8.5-1.2,1-2.2,1.4-3.2.5-1.4.8-2.7.8-4.4.3,1,5,5.4,8.9,8.4,0,0,0,0,.1,0,2,1.4,4.2,2.7,6.2,3.8Z"/><path class="cls-7" d="M53.1,110.9c.1,4.1-3.3,12.6-6.8,19.5-2.4,4.7-4.8,8.7-6.1,10.2-.6-.7-1.2-1.3-2-1.9-4.7-4-12-7.5-12.4-8.7,0,0,0-.1,0-.3,1.1-3,15.2-25.4,22-27.7.4,0,.8-.1,1.2-.2h0c3.1.1,3.9,5.4,4,9.1Z"/><path class="cls-9" d="M49.1,101.8c-.4,0-.8.1-1.2.2.5-.2.9-.2,1.2-.2Z"/><path class="cls-9" d="M80.3,102.5c0,0-.2,0-.3,0"/><path class="cls-3" d="M89.9,141.8c0,.8,0,1.6,0,2.4h0c-.5,13.8-2.2,27.4-2.7,41.8,0,0-.1,0-.2,0-17.2,1.7-29.4-.8-45.9-5.8-.3,0-.6-.2-.8-.2,1.7-5.2,1.5-5.9,2.4-11.3,1.4,1.1,2.9,2.3,4.6,3.5,1.3,2.2,8.3,8,10.8,6.9,2.1-.9,6.8-10.2,5.5-12.8-1.2-2.4-11.9-4.8-13.9-2.9h0c-1.8-2.2-3.3-4.3-4.7-6.4,1.1-11,2.7-19.5,1.7-26.4h-.1c3.5-7,6.9-15.4,6.8-19.6-.1-3.7-.8-8.9-4-9.1,4.2-.7,6.6-1.4,9.7-2,.7,3.2,3.7,7.3,5.5,8.8,2.6,2.1,3.5,2.5,6.6,3.4v.2c1.6,1.8,4.8,1.6,6.3-.2h.1s0,0,0,0c1.5-1.8,2.7-2.6,3.3-4.9.3-1.3.3-2.8-1.7-5.3.5.2.9.4,1.3.7,0,0,0,0,0,0,.6.3,1.2.5,1.7.7,0,0,0,0,.1,0,1.7.9,3.1,2.3,4,3.6,3,4.5,1.8,7.4,2.3,10.9,1.2,8.2,1.5,16.1,1.4,24Z"/><path class="cls-8" d="M57.9,179c-2.5,1.1-9.4-4.8-10.8-6.9-1.6-1.2-3.2-2.4-4.6-3.5-8.5-6.6-13.6-11.5-19.3-21.5-1.9-3.4-.5-10.3,2.5-17.4h0c0,.2,0,.3,0,.3.4,1.2,7.7,4.8,12.4,8.7-1,1.4-1.6,2.4-2.8,4.1,4.2,5.7,6.6,9.9,9.3,14,1.4,2.1,2.9,4.2,4.7,6.5h0c2.1-2,12.8.4,13.9,2.9,1.2,2.6-3.4,11.9-5.5,12.8Z"/><path class="cls-9" d="M49.8,163.9c-.1-.2-.3-.3-.4-.5"/><path class="cls-7" d="M101.3,135.3c-.6.4-1.1.8-1.6,1.1-3.4,2.5-5.4,4.4-9.2,5.4h-.5c.2-7.9-.1-15.8-1.4-24-.5-3.4.6-6.4-2.3-10.9-.8-1.3-2.3-2.7-4-3.6,1.4.6,2.5.9,3.1.8,6.6,4.2,12.3,24.2,15.9,31.1Z"/><path class="cls-9" d="M85.3,104.2c-.7-.4-1.3-.7-2-.8"/><path class="cls-8" d="M118.4,161.1c-1.2.3-7.2,6.9-6.9,10.4h-.2c-2.9-8.6-21.1-20.7-21-27.2h-.5c0-.9,0-1.6,0-2.4h.5c3.8-1,5.8-2.9,9.2-5.4l.3.4c4,6,11.7,19.1,18.5,24.2Z"/><path class="cls-8" d="M122.2,175.2c-2.9,2.4-4.6,3.3-7.6,1.1-1.4-1.1-2.6-2.6-3-4.4,0-.1,0-.2,0-.4-.3-3.5,5.7-10.1,6.9-10.4,3.4-1.2,7.5.9,8.9,4.5,1.4,3.6-2.2,7.3-5.1,9.6Z"/><path class="cls-2" d="M134.3,312c-3.1,1.7-6.9,1.5-10.5,1.1-10.8-1.1-21.4-4.1-31.9-6.9-1.3-.3-2.7-.8-3.3-1.9-.5-.8-.1-4.7,1.4-8.4v-.9c6.8.3,15.1-2.8,19.5-7.6h0c8.4,4.8,15.7,8.1,24,12.8,1.5.8,3,1.7,3.8,3.1,1.8,3-.1,7.1-3.3,8.8Z"/><path class="cls-2" d="M57.9,315.5c-3.5.8-7.1-.4-10.4-1.7-10.1-4-19.5-9.7-28.8-15.3-1.1-.7-2.3-1.5-2.6-2.7-.2-.9.2-1.8.5-2.7q1.6-3.7,3.5-6.5c3.8.5,7.5.9,11.3.9,5,0,9.7-.6,11.5-1.5h.2c6.8,6.8,10.8,11.1,17.5,18,1.2,1.2,2.4,2.5,2.8,4,1,3.4-2.1,6.8-5.5,7.5Z"/><path class="cls-9" d="M20.1,286.5s0,0,0,0"/><path class="cls-9" d="M71.3,197.3c-1.5,4.5-2.7,8.6-3.8,12.2"/><path class="cls-9" d="M86.9,186s0,0,0,0"/><path class="cls-7" d="M72.7,104c-1,3-1.6,4.8-1.6,8,0,0-.1,0-.2,0-3.1-.9-4-1.3-6.6-3.4-1.8-1.4-4.9-5.6-5.5-8.8h0c-.3-1.5-.1-2.8,1-3.6,3.4,3.5,8,7.4,12.9,7.8Z"/><path class="cls-9" d="M77.3,100.9h0"/><path class="cls-7" d="M80.7,107.1c-.6,2.3-1.7,3-3.3,4.9,0,0,0,0,0-.1-.6-3.1-1.4-5-2.4-8,.3,0,.6-.2,1-.3.9-.4,1.4-1.7,1.4-2.7.6.3,1.1.6,1.7.9,2.1,2.5,2.1,4,1.7,5.3Z"/><path class="cls-5" d="M77.4,111.9h-.1c-1.5,1.9-4.7,2-6.4.3v-.2c.1,0,.2,0,.2,0,0-3.2.6-5,1.6-8,0,0,.2,0,.3,0,.7,0,1.3,0,2,0,1,3,1.9,4.9,2.4,8Z"/><path class="cls-9" d="M77,70.8c0,0-.1,0-.2,0"/><path class="cls-4" d="M74.8,70.3c-.2.6-.4,1.2-.5,1.9,0,.3,0,.6-.1,1-3.1-1.5-8.7-6.4-9.3-7h0c0-1-.6-1.9-1.3-2.6.5.3,1.9,1.3,3.6,2.5,2.4,1.5,5.4,3.3,7.6,4.2Z"/><path class="cls-9" d="M90.3,71.7s0,0,0,0"/><path class="cls-9" d="M90.4,73.3c0,0-.1,0-.2,0"/><path class="cls-9" d="M93.5,73.9h0"/><path class="cls-9" d="M92.9,79.9s0,0,0,0"/><path class="cls-4" d="M104.9,70c-.3-.3-.6-.6-.9-.8-.7-.6-1.5-.9-2.5-1.1-1-.2-2,0-2.9.2-1.8.6-3.5,2-4.5,4-.3.5-.5,1-.7,1.5-.2.6-.4,1.2-.5,1.9-.3,1.4-.2,2.8,0,4.1,1.8,1.3,2.2,2.8,1.9,4.1h0c.9,1.1,2.1,1.8,3.5,2.1,1.1.2,2.1,0,3.2-.3,1.8-.7,3.4-2.2,4.5-4.3,0,0,0,0,0,0h0c.5-.9.8-1.9,1-3,.1-.8.2-1.6.2-2.3h0c0-2.4-.9-4.5-2.2-6ZM105.1,77.7c-.7,3.7-3.6,6.2-6.5,5.7-2.9-.5-4.7-3.9-4-7.6.7-3.7,3.6-6.2,6.5-5.7,2.9.5,4.7,3.9,4,7.6Z"/><path class="cls-7" d="M101,70.1c-2.9-.5-5.8,2-6.5,5.7-.7,3.7,1.1,7.1,4,7.6,2.9.5,5.8-2,6.5-5.7.7-3.7-1.1-7.1-4-7.6ZM100.8,77.4c-.3,1.5-1.2,2.5-2,2.4-.8-.2-1.2-1.5-.9-3,.3-1.5,1.2-2.5,2-2.4.8.2,1.2,1.5.9,3Z"/><path class="cls-10" d="M100.8,77.4c-.3,1.5-1.2,2.5-2,2.4-.8-.2-1.2-1.5-.9-3,.3-1.5,1.2-2.5,2-2.4.8.2,1.2,1.5.9,3Z"/><path class="cls-4" d="M109.2,77c0,1.5-.6,3.2-1.3,4.3-.3,0-1.7,0-2,0,.5-.9.8-1.9,1-3,.1-.8.2-1.6.2-2.3h0c.1.1,1.6,1,2.1,1Z"/><path class="cls-9" d="M105.9,81.3s0,0,0,0h0"/><path class="cls-9" d="M107.1,75.9h0c0-2.4-.9-4.5-2.2-6"/><path class="cls-9" d="M60.6,74.1c1.3.1,2.6-.6,3.6-1.8"/><path class="cls-6" d="M88.2,66c0,.2-.2.4-.3.6-1-1.1-2.4-1.9-4-2.2-1.7-.3-3.4,0-4.9.9h0c-.2-.7-.5-1.4-.2-1.9.3-.5.9-.8,1.5-.9,2.4-.5,4.9-.2,7.1.9.4.2.7.4,1,.7.4.6.2,1.3-.1,1.9Z"/><path class="cls-4" d="M90.3,71.7c-.3-2-1.1-3.8-2.4-5.1-1-1.1-2.4-1.9-4-2.2-1.7-.3-3.4,0-4.9.9-1.8,1-3.3,2.8-4.2,5-.2.6-.4,1.2-.5,1.9,0,.3,0,.6-.1,1-.5,4.8,2.3,9,6.4,9.8,4.4.8,8.7-2.7,9.7-7.8.1-.6.2-1.2.2-1.8,0-.6,0-1.1-.1-1.7ZM88.4,74.7c-.7,3.9-4,6.6-7.3,6-3.3-.6-5.4-4.3-4.7-8.2.1-.6.3-1.1.5-1.7h0c1.2-3,4-4.8,6.8-4.3,3.3.6,5.4,4.3,4.7,8.2Z"/><path class="cls-7" d="M83.7,66.5c-2.8-.5-5.6,1.3-6.8,4.3h0c-.2.5-.4,1.1-.5,1.7-.7,3.9,1.4,7.6,4.7,8.2,3.3.6,6.6-2.1,7.3-6,.7-3.9-1.4-7.6-4.7-8.2ZM84.5,74c-.3,1.4-1.2,2.5-2.1,2.3-.8-.2-1.2-1.5-.9-2.9.3-1.4,1.2-2.4,2.1-2.2.8.2,1.2,1.5.9,2.9Z"/><path class="cls-10" d="M84.5,74c-.3,1.4-1.2,2.5-2.1,2.3-.8-.2-1.2-1.5-.9-2.9.3-1.4,1.2-2.4,2.1-2.2.8.2,1.2,1.5.9,2.9Z"/><path class="cls-4" d="M94.1,72.3c-.3.5-.5,1-.7,1.5-.7-.7-1.8-.9-3-.4,0-.6,0-1.1-.1-1.7,1.3-.6,3.4-.5,3.7.6h0Z"/><path class="cls-9" d="M64.9,66.2c0,.6,0,1.2-.4,1.8"/><path class="cls-9" d="M50,51.7c-.3,1.1-.6,2.4-1,3.9"/><path class="cls-6" d="M108.1,73.6c-.2-2.6-.5-5-.9-7.1-1.2-6.3-3.3-10.6-7.2-13.5,1.7,2.8-.6,8.8-.9,12.1-1.8-4.9-14.1-19.6-16.7-18.4-7.2,3.3-13.4,8.8-15.1,19.3h0c-1.8-1.1-3.2-2-3.6-2.4-1-1-2.4-1.7-3.8-1.8-1.9-.2-3.1,3.7-3.5,5.8-.4,2.1,1.2,5,2.9,6.1.5.3.9.4,1.4.4v.3c0,4.2.4,11.3,1.4,14.2,0,1.7-.3,3-.8,4.4l-.9-.5c-4.1,0-4.9-7.8-5.5-8.9-.2-.4-.6,1-.8.6-2.1-4.6-5.5-14.4-5.5-20.5s-1,1.5-1,1.1c0-2.4.8-6,1.5-9.2h-.6c-.8-4.7,4.6-11.4,5.9-13.6-.6.5-3.4.7-3.8,1.1,3.7-7.6,13.9-13.2,23.4-13.4-.6-1.6-1.7-3.1-3-4,3.2.1,7.1,0,9.9,1.7l.3-.2c2.5-.9,8.2.7,12.3,2,4.6,1.5,9.6,4.8,12.9,8.6,9.2,10.8,8.9,23.3,1.8,35.7Z"/><path class="cls-9" d="M50.5,43.2s0,0,0-.1h0Z"/><path class="cls-9" d="M71.1,97.1c.3.2.5.4.8.6"/><path class="cls-6" d="M104.1,68.7c0,.1-.1.3-.2.4-.7-.6-1.5-.9-2.5-1.1-1-.2-2,0-2.9.2h0c-.3-.8.2-1.7.9-2.1.2-.1.4-.2.6-.3,1-.3,2.1,0,3.1.5.3.1.6.2.8.5.5.5.4,1.3.2,1.9Z"/></svg>