<?xml version="1.0" encoding="UTF-8"?><svg id="usa" xmlns="http://www.w3.org/2000/svg" width="235" height="321.9" viewBox="0 0 235 321.9"><defs><style>.cls-1,.cls-2,.cls-3,.cls-4,.cls-5,.cls-6,.cls-7,.cls-8,.cls-9{stroke:#000;stroke-miterlimit:10;}.cls-2{fill:#698e51;}.cls-3{fill:#fff;}.cls-4{fill:#e8c155;}.cls-5{fill:#b39b68;}.cls-6{fill:#9c6547;}.cls-7{fill:#414141;}.cls-8{fill:#434343;}.cls-9{fill:none;}.cls-10{fill:#825541;stroke-width:0px;}</style></defs><path class="cls-6" d="M93.3,52.7c-1.7-3.8-4.2-7.1-7.5-9.5-6.6-4.9-12.3-6.6-20.5-6.4-9.3.2-15.9,4.8-21.4,12.3-3.7,5.2-4.7,14.2-4.1,21.9h0c-.2.1-.5.2-.7.3-1.4.8-2.1,2.6-2.2,4.4,0,1.8.6,3.5,1.3,5,.7,1.4,1.6,2.8,2.8,3.5.6.3,1.2.5,1.8.5h.8c.7,3.7.8,5.5,1.8,7.1,3.5,3.6,6.7,6.6,9.5,8.9,8.3,6.7,14,8.1,18.9,6.9.2,0,.4-.1.6-.2,3.1-1,5.9-3,8.9-5.4,4.8-3.9,8.3-9.4,9.6-15.5,0-.4.2-.9.2-1.3.9-4.8.8-8.6.8-9.3,0-.1,0-.2,0-.3.3-1.5.6-2.7.9-3.8.4-2.2.7-4,.9-6.8,0-4.4-.8-8.7-2.5-12.5ZM60.7,77.9c-1.1,0-1.9-1.6-1.9-3.6s.9-3.6,1.9-3.6,1.9,1.6,1.9,3.6-.9,3.6-1.9,3.6ZM75.3,98.6c-2.2.3-6.8-.2-9-1.6-1.4-.9-2.2-1.4-3.3-2.6-.7-.8,0-2,1.1-1.8,4.8,1.3,13.5,2.6,18.2.9h0c-1.6,3-3.3,4.5-6.9,5ZM86.6,77.1c-.9,0-1.6-1.4-1.6-3.1s.7-3.1,1.6-3.1,1.6,1.4,1.6,3.1-.7,3.1-1.6,3.1Z"/><path class="cls-6" d="M74.2,108.2c0,0-.1,0-.2,0,.4,5.9-4,12.7-10.7,9.8-4-1.8-8.9-4.6-8.6-7.5.1-1.2.2-2.6.2-4.1,0-1.7,0-3.5,0-5.4,8.3,6.7,14,8.1,18.9,6.9.2,0,.4-.1.6-.2l-.3.7Z"/><path class="cls-7" d="M88.6,123h-.3c-5.8.9-12.9,1.1-18.7,1.8.8-1.8,1.6-3.5,2.8-5,2-2.5,4.9-4.6,8.2-4.8-.8-1.4-1.8-3-3-4.3,1.2,0,2.7,0,4.1.2,3.3,3.3,5.6,7.6,7,12Z"/><path class="cls-7" d="M108.6,142.6c-.5,1.2-1,2.3-1.4,3.2-1.8,3.5-3.9,4.8-9.5,6.5-.4.1-.7.2-1.1.3-1.8-3.2-4.7-7.3-6-8.9,0-2.5,0-5,0-7.5,0-3.4-.3-6.8-1-9.9h-.2c0,0,0-.2,0-.4-.2-1-.5-2-.8-3-1.4-4.4-3.7-8.8-7-12,.8.1,1.7.2,2.4.4,3.5.8,5.1,2.9,7.8,5.3,4.3,3.9,12.8,22,16.9,26Z"/><path class="cls-9" d="M96.6,152.6c-.1,0-.3,0-.4.1"/><path class="cls-9" d="M77.5,110.7c-.3,0-.6,0-.8,0"/><path class="cls-7" d="M65.3,125.2c-5.1-.2-12.8-.2-17.9-.4-.2-1.5-.6-3-1.4-4.7-1.9-4.3-4.3-6.6-9.5-4.8.8-.7,1.8-1.4,2.8-1.8,1.7-.8,4.2-1.7,6.2-1.7s2.5,0,3.7,0c-.9,1.7-1.4,3.5-1.4,5.2,4.1-.5,8.2.9,11.6,3.2,2.2,1.5,4.1,3.2,5.9,5.1Z"/><path class="cls-7" d="M46.8,131.7c-.7,1-1.9,2.5-3.3,4.3-.7.9-1.5,1.9-2.3,3-4,5.2-8.9,11.3-11.2,13.7-1.1-.4-2.1-.8-3-1.1-2.2-.9-4-1.9-6.1-3.8-1.4-1.2-3.1-4-4.1-6.6-.7-1.6-1.1-3.3-1-4.5,0,0,12.9-13.5,14.9-15.4,2-1.9,3.7-4.2,5.8-6,5.2-1.8,7.6.5,9.5,4.8.8,1.7,1.2,3.2,1.4,4.7.3,2.2,0,4.3-.6,6.9Z"/><path class="cls-9" d="M49.9,111.8c-.2,0-.4,0-.6,0"/><path class="cls-4" d="M90.6,136.2h-.5s0,0,0,0c-.7,0-29.6,4-46.6-.2,1.4-1.8,2.6-3.4,3.3-4.3.6-2.6.9-4.8.6-6.9,5.2.2,12.8.2,17.9.4,1,1,1.9,2,2.8,3,.4-1.2.9-2.3,1.3-3.5h0c5.8-.8,12.9-1,18.7-1.7h.3c.3.9.6,1.9.8,2.9,0,.1,0,.3,0,.4h.2c.6,3,.9,6.4,1,9.8Z"/><path class="cls-2" d="M90.6,143.7c0,1.6,0,3.3-.1,4.8h-.4c-15.3,2.8-31.2,1.8-46.6-.6h-.6c-.2-2.7-.5-8.6-.5-8.6l-1.2-.4c.8-1,1.6-2.1,2.3-3,17,4.2,45.9.3,46.6.2h.5c0,2.5,0,5,0,7.5Z"/><path class="cls-4" d="M90.4,159.4c0,2.9,0,5.8,0,8.8-15.6,1.8-29.5,1.5-47.3-.4h-.6c.4-3,.9-6,1-8.4,0-.2,0-.4,0-.7h.5c15.5,1.8,31.3,2.1,46.4.6Z"/><path class="cls-2" d="M90.3,168.2c0,2,0,4,0,6h0c0,1.2,0,2.4,0,3.5h-.3c-14.4,3-30.6,1.5-45.4,0h0c-.7-.8-1.9-1.3-3.2-1.6.2-2.2.7-5.2,1.2-8.3h.6c17.8,2,31.7,2.3,47.3.5Z"/><path class="cls-9" d="M89.6,126.4c0-.1,0-.3,0-.4"/><path class="cls-9" d="M41.3,176c0,.1,0,.3,0,.4"/><path class="cls-9" d="M42.4,139.4s0,0,0,.2"/><path class="cls-9" d="M107.2,145.8c0,0,0-.2-.1-.3"/><path class="cls-9" d="M96.7,152.8s0,0,0-.1"/><path class="cls-9" d="M90.6,143.7c0-.1-.2-.2-.2-.3"/><path class="cls-7" d="M90.5,148.5c0,1.5,0,3,0,4.5,0,2.1,0,4.2,0,6.4-15.2,1.5-30.9,1.2-46.4-.6h-.5c.1-3.3-.2-6.5-.5-9.7,0-.2,0-.6,0-1.1h.6c15.4,2.4,31.2,3.3,46.6.5h.4Z"/><path class="cls-9" d="M104.7,152.8c-1.7,1.1-2.9,2.6-3.9,4.3"/><path class="cls-9" d="M90.2,174.2c-.1.2-.1.2,0,.2"/><path class="cls-6" d="M47,184.5c-.3.6-1.1,1.1-2.5,1.5.8,2-.7,3.4-2,3.6,1.3,1.6-1.1,2.8-2.2,2.8,0,1.5-.8,1.9-1.9,1.8-2.2-.2-5.6-2.3-6.5-3.2-2-2-5.1-6.1-3.8-9-2.6-3.7-9.2-8.9-12.1-12.2-3.8-4.4-8.8-15.9-5.8-21,1.2-2.2,3.8-4.9,6.6-7.7,1.1,2.7,2.8,5.4,4.1,6.6,2.1,1.9,3.8,2.9,6.1,3.8-1.2,1.1-2.5,2.1-3.2,2.8h0c1.1,1.3,2,2.8,3,5.1,1.8,3.6,3.1,12.9,8.1,15.4h0c1.6.4,4.2.6,6.3,1.1,1.3.4,2.5.8,3.2,1.6h0c.6.7.9,1.6.6,2.9,1.3,1.3,2.5,2.8,1.9,3.9Z"/><path class="cls-9" d="M23.8,154.4c-1.3-1.6-2.9-2.7-5.6-4.1"/><path class="cls-9" d="M35.6,175.2c-.2,0-.5-.2-.7-.3"/><path class="cls-9" d="M45.1,180.6c-.9-.9-1.7-1.6-2.2-2.2"/><path class="cls-9" d="M45.1,180.6s0,0,0,0"/><path class="cls-7" d="M90.2,177.7c0,2.8-.2,5.6-.3,8.3-.6,0-1.2.1-1.9.2-2.4.5-4.9,1.6-7.4,1.8-4.8.5-9.7.9-14.6.6-4.2-.2-16.8-1.1-18.4-4.1h-.7c.6-1.2-.6-2.6-1.9-3.9.3-1.3,0-2.2-.6-2.9,14.8,1.5,31,3,45.4,0h.3Z"/><path class="cls-6" d="M105.3,172.2c-3.9,4.1-7.4,6.9-9,12-.7,2.2-1.2,4.1-2,6.3-1,2.9-3,3-4.7,3.5h-.4c-.5-2.7-.9-5.5-1.1-7.7.6-.1,1.2-.2,1.9-.2,0-2.6.2-5.4.3-8.3,0-1.2,0-2.3,0-3.5h0c.5-.7,2.4-2.8,3.1-3.7,1.4-1.7,2.6-3.1,3.6-5,1.3-2.6,2.3-5.7,3.8-8.4-.2.4-1.6-2.1-3.1-4.8h0c5.6-1.7,7.6-3,9.5-6.5,1.8,3.4,3.2,5.9,3.9,7,4.6,6.9-.6,13.9-5.8,19.3Z"/><path class="cls-9" d="M88,186.2c0-.1,0-.3,0-.4"/><path class="cls-5" d="M100.4,257.1c-1.5.5-3,.9-4.7,1.3-5.5,1.3-12,2-19.7.5h0c-2.2-.4-4.5-1-6.8-1.8,0-3.2-5.5-35.4-5.5-39h-.6c-3.7,15.2-8.4,39.5-8.4,38.8-1.4.2-3.3.3-5.5.2-6.6-.2-15.6-1.6-20-3-1.3-.4-2.2-.8-2.6-1.1,0,0,10.4-50.5,12-58.7,1.2.1,2-.3,1.9-1.8,1.1,0,3.4-1.2,2.2-2.8,1.3-.2,2.8-1.6,2-3.6,1.5-.3,2.3-.9,2.5-1.5h.7c1.6,2.9,14.1,3.9,18.4,4.1,4.9.2,9.8-.1,14.6-.6,2.5-.3,5-1.4,7.4-1.8.2,2.3.6,5,1.1,7.8.8,4.5,1.7,9.2,2.3,12.6,1,6.4,9,43.7,9,50.5Z"/><path class="cls-9" d="M38.4,194.1v.2h0"/><path class="cls-9" d="M66.4,206.1c-.8,1.5-2,6-3.4,11.8"/><path class="cls-9" d="M74,198.8c-2.1,1.8-6.5,6.2-7.6,7.4"/><path class="cls-9" d="M96.8,274.3c0-.4-.2-1-.3-1.7"/><path class="cls-6" d="M49.1,257c-1.9,4.5-4.3,8.8-5.7,13.3-1.5,4.6-4.2,18.5-4.5,24-.9-1.3-1.7-2.1-2.6-2.6,2-8.5-5.1-10.6-7.5-10.6-.8,0-1.5.1-2.2.4v-.4c2.3-12.8,1.7-20.2,2.5-27.1,4.5,1.3,13.4,2.8,20,3Z"/><path class="cls-6" d="M90.7,284.2c-2,2.1-2.3,5.1-1.7,7.8l.5.4c-1.1.7-1.8,1.8-2.5,3.2-.8-8.5-6.3-23.5-10.8-36.3,0-.1,0-.3-.1-.4,7.6,1.5,14.1.8,19.7-.5.1,4.7.4,10.9.9,14.2h0c.5,3.7,1.2,7.5,1.7,9.3-2.7-.1-6,.9-7.4,2.3Z"/><path class="cls-8" d="M98.2,282.3c0-.1,0-.2,0-.3"/><path class="cls-9" d="M96.5,272.6c-.5-3.2-.8-6.3-.8-7.7"/><path class="cls-8" d="M21.5,290.2c-1,.3-2,.7-3.1,1.3"/><path class="cls-8" d="M36.3,291.7c-1.1-.6-2.5-.9-4.4-1.4-2.8-.6-6.6-1.2-10.4-.1.7-.4,1.4-.8,1.8-1.4.6-.8-.4-3.8,0-4.7.6-1.3,1.9-2.2,3.3-2.6.7-.2,1.5-.4,2.2-.4,2.4,0,9.5,2.1,7.5,10.6Z"/><path class="cls-8" d="M39.5,307.4c-1.4,1.3-5.3,1-7.3,1-5.6,0-11.2,0-16.8,0-1.8,0-3.7-.1-4.9-1.4-1-1.1-1.1-7-.7-8.4.8-2.8,5.8-5.8,8.6-7,1-.4,2.1-.8,3.1-1.3,3.9-1.1,7.6-.5,10.4.1,1.9.4,3.3.7,4.4,1.4,1,.5,1.8,1.3,2.6,2.6,1.2,1.9,2.3,11.4.6,13Z"/><path class="cls-8" d="M116.5,308.1c-.4.2-3.4.8-3.9.9-5.1.2-23.7-.3-25.2-1.2-2.1-1.2-1.5-10.1-.4-12.2.8-1.4,1.4-2.5,2.5-3.2.5-.3,1.1-.6,1.9-.8,2.4-.6,7.1-.5,9.6-.5.8,0,1.8,0,2.1-.7,4.1,1,11.7,3.8,13.5,7.2.7,1.4,1.4,9.7,0,10.4Z"/><path class="cls-8" d="M103.1,290.5c-.4.6-1.3.7-2.1.7-2.5,0-7.2,0-9.6.5-.8.2-1.4.4-1.9.8l-.5-.4c-.6-2.7-.2-5.7,1.7-7.8,1.3-1.4,4.7-2.4,7.4-2.3,1.3,0,2.4.3,3.1.9,1.8,1.5,1.9,4.3,2,6.5,0,.4,0,.8-.2,1.1Z"/><path class="cls-3" d="M82.3,93.7c-1.6,2.8-3.3,4.4-6.9,4.9-2.2.3-6.8-.2-9-1.6-1.4-.9-2.2-1.4-3.3-2.6-.7-.8,0-2,1.1-1.8,4.8,1.3,13.5,2.6,18.2.9h0Z"/><path class="cls-9" d="M91.4,67.6c-1.2-2.6-7.2-3.1-8.3-1.7"/><path class="cls-9" d="M64.4,66.3c-2.2-2.2-7.9-.8-8.4.9"/><path class="cls-1" d="M88.2,74c0,1.7-.7,3.1-1.6,3.1s-1.6-1.4-1.6-3.1.7-3.1,1.6-3.1,1.6,1.4,1.6,3.1Z"/><path class="cls-1" d="M62.6,74.3c0,2-.9,3.6-1.9,3.6s-1.9-1.6-1.9-3.6.9-3.6,1.9-3.6,1.9,1.6,1.9,3.6Z"/><path class="cls-9" d="M81,82.5c1.1,1.9.7,3.9.6,4.3-.6,3.3-4.8,3.3-9.7,2"/><path class="cls-9" d="M82.7,93.4c-.2,0-.3.1-.5.2"/><path class="cls-10" d="M93.3,52.7c-4.7,3.3-11,4.1-17.8,2.5-4.8-1.1-13-6.1-17.9-6.4-4.9-.2-7.5,4.3-9.8,8.7-1.9,3.4-2.6,7.6-1.7,11.3.3,1.4.7,3,0,4.1-.8,1.2-3.2,1-3.2-.4h0c-.5-1.2-1.9-1.8-3-1.5h0c-.6-7.8.4-16.8,4.1-22,5.4-7.5,12.1-12.1,21.4-12.3,8.2-.2,13.9,1.5,20.5,6.4,3.3,2.5,5.8,5.7,7.5,9.5Z"/><path class="cls-9" d="M42.9,84.8c.2,0,.5,0,.7,0,.5-.1,1-.4,1.4-.8"/><path class="cls-6" d="M97.8,80.3c-.4,2.5-2.8,6-4.6,5,.9-4.8.8-8.6.8-9.3,0-.1,0-.2,0-.3.3-1.5.6-2.7.9-3.8h.2c.6-.1,1.3.3,1.7.8.4.5.5,1.2.7,1.9.4,1.9.7,3.8.3,5.7Z"/><path class="cls-7" d="M80.5,115c-3.3.2-6.2,2.2-8.2,4.8-1.2,1.5-2.1,3.3-2.8,5h0c-.5,1.1-.9,2.3-1.3,3.5-.9-1-1.9-2-2.8-3-1.8-1.9-3.8-3.6-5.9-5.1-3.4-2.2-7.5-3.7-11.6-3.2,0-1.8.6-3.6,1.4-5.2,1.2-2.3,3.1-4.4,5.4-5.6h.2c0,1.6-.1,3-.2,4.1-.3,2.9,4.6,5.7,8.6,7.5,6.7,3,11.2-3.9,10.7-9.8,0,0,.1,0,.2,0,1.2.6,2.3,1.5,3.3,2.5,1.2,1.3,2.2,2.8,3,4.3Z"/><path class="cls-9" d="M47.4,124.8c0,0-.2,0-.2,0"/><path class="cls-9" d="M90.7,159.4c0,0-.2,0-.3,0"/><path class="cls-9" d="M43,72.9c-.5-1.2-2-2.1-3.2-1.8h0c-.6-7.8.4-16.8,4.1-22,5.4-7.5,12.1-12.1,21.4-12.3,8.2-.2,13.9,1.5,20.5,6.4,3.3,2.5,5.8,5.7,7.5,9.5"/></svg>