<?xml version="1.0" encoding="UTF-8"?><svg id="usa" xmlns="http://www.w3.org/2000/svg" width="235" height="321.866" viewBox="0 0 235 321.866"><defs><style>.cls-1{fill:#3a6793;}.cls-1,.cls-2,.cls-3,.cls-4,.cls-5,.cls-6,.cls-7,.cls-8,.cls-9{stroke:#000;stroke-linecap:round;stroke-linejoin:round;}.cls-2{fill:#35221e;}.cls-3{fill:#cc915a;}.cls-4{fill:#636567;}.cls-5{fill:#bc6c29;}.cls-6{fill:#fff;}.cls-7{fill:none;}.cls-8{fill:#f9ce0d;}</style></defs><path class="cls-1" d="M76.411,117.562c-.93,1.06-1.77,2.27-2.53,3.61-5.31,3.84-6.01,10.37-7.28,24.85-.25,2.83-.51,5.43-.78,7.83l-.29-.03c.09-4.89.19-8.4-.24-12.32-3.28,3.04-3.48,3.07-4.57,3.78-.02.01-.03.02-.05.03-.27.18-.59.39-1.02.71-4.54-2.42-6.69-10.8-7.09-14.02-.07-.54-.09-.94-.06-1.14.14-.96,4.35-4.79,5.07-5.44,3.88-3.54,6.72-6.36,11.86-7.39.72-.14,4.23-.23,6.98-.47Z"/><path class="cls-7" d="M65.541,141.272c-.09.08-.17.16-.25.23"/><path class="cls-3" d="M48.371,153.882c-4.42,8.02-7.7,11.79-10.96,18.39l.09.04c2.27.61,4.43,8.96,2.94,10.79-1.6,1.96-10.73,2.78-12.25,1.74-1.82-1.24.2-8.49,1.42-10.32,2.51-11.49,4.04-17.45,10.78-27.09,3.06-4.36,9.11-12.3,12.17-15.43.4,3.22,2.55,11.6,7.09,14.02.43-.32.75-.53,1.02-.71-3.21,2.31-8.18,5.34-12.3,8.57Z"/><path class="cls-7" d="M37.411,172.272c-.09.16-.17.33-.25.5"/><path class="cls-7" d="M61.951,144.352c-.37.29-.78.6-1.23.93"/><path class="cls-1" d="M121.421,151.932c-.14.15-.49.27-1,.36-2.17.38-7.28.32-11.54.92-.39.05-.76.11-1.12.18-.69.12-1.34.26-1.94.43-.31-2.7-.69-2.87-.76-7.5-.13-5.47-1.07-9.8.5-14.43.49-1.44,1.14-2.87,2.25-3.91,1.03-.97,2.52-1.53,3.88-1.2,2.43,1.4,4.55,3,5.22,4.66,3.98,9.91,4.96,20,4.51,20.49Z"/><path class="cls-3" d="M119.431,163.622c-.97,1.96-2.04,2.11-2.91,2.7-3.56,1.38-6.55,2.21-9.3,2.63v.01c-7.38,1.15-13.05-.51-23.27-1.63-2.47.89-11.5,1.17-12.46-1.3-.81-2.07,2.6-12.45,5.33-13.76,2.53-1.2,11.73,3.69,11.83,6.5l.03.13c7.49-1.54,10.93-.99,18.89-2.8.52-.12,1.07-.25,1.63-.39-.1-.78-.22-1.75-.32-2.5,4.26-.6,9.37-.54,11.54-.92v.02c.31,3.22.56,8.2-.99,11.31Z"/><path class="cls-7" d="M88.681,158.902c-.22.04-.44.08-.66.13"/><path class="cls-7" d="M111.031,155.242c-.64.17-1.24.33-1.83.47"/><path class="cls-7" d="M64.821,189.612c-.09-.31-.17-.61-.24-.91"/><path class="cls-1" d="M105.561,131.892c-1.57,4.63-.63,8.96-.5,14.43.07,4.63.45,4.8.76,7.5.6-.17,1.25-.31,1.94-.43-.08,1.15-.11,1.56-.19,2.71-7.96,1.81-11.4,1.26-18.89,2.8l-.03-.13c-.1-2.81-9.3-7.7-11.83-6.5-2.73,1.31-6.14,11.69-5.33,13.76.96,2.47,9.99,2.19,12.46,1.3,10.22,1.12,15.89,2.78,23.27,1.63-.74,2.86,1.12,13.11,1.25,17.75v.08c-3.86-.93-5.96-2.9-13.7-4.58-15.62-3.41-28.67-6.5-30.09,2.7-.11,1.32-.14,2.58-.1,3.79-2.72-10.37-.65-17.85,1.24-34.85.27-2.4.53-5,.78-7.83,1.27-14.48,1.97-21.01,7.28-24.85-5.56,9.84-6.41,26.31-4.91,38.39,2.53-10.78,6.82-21.15,12.66-30.56.9-1.45,1.84-2.9,2.68-4.39.52,5.22,3.72,7.54,7.51,8.36,3.81.83,9.48-1.45,11.98-5.49-.21-1.89-.24-3.27-.14-4.81,1.72.96,5.09,2.4,8.03,4.11-1.36-.33-2.85.23-3.88,1.2-1.11,1.04-1.76,2.47-2.25,3.91Z"/><path class="cls-7" d="M107.231,168.932q0,.01-.01.02"/><path class="cls-7" d="M65.291,141.502c-.21-1.92-.55-3.95-1.08-6.28"/><path class="cls-4" d="M122.521,192.272c-3.27,2.96-7.97,15.82-5.67,22.51.1.29.21.56.33.82.09.19-.45.23-1.48.15-5.72-.41-26.45-4.43-35.69-6.31-2.09-.54-3.8-1.05-4.87-1.48-4.41-2.22-10.27-8.28-10.56-19.26-.04-1.21-.01-2.47.1-3.79,1.42-9.2,14.47-6.11,30.09-2.7,7.74,1.68,9.84,3.65,13.7,4.58.29.08.59.15.9.19.01.01.02.01.03.01,5.72,1.77,14.09,4.4,13.12,5.28Z"/><path class="cls-7" d="M105.311,185.712c.74.25,1.85.59,3.16,1,.29.08.59.18.9.27"/><path class="cls-4" d="M119.171,236.802c-.46.08-.91.16-1.35.23-7.84,1.33-12.52,1.58-21.22.72-1.06-.1-2.18-.22-3.37-.36-1.45-4.18-5.9-18.03-13.22-27.95,9.24,1.88,29.97,5.9,35.69,6.31,2.9,10.43,3.88,13.07,3.47,21.05Z"/><path class="cls-3" d="M113.451,259.282c-2.61,9.68-5.32,19.53-8.77,28.8l.2.26c-1.17.82-1.86,2.13-2.56,3.37-.72,1.26-1.56,2.54-2.87,3.13-1.79.81-4.84-.53-6.38-2.33-.26-9.87-1.03-25.84,2.11-35.09,1.06-3.14,2.23-6.79,2.71-10.09.49-3.37.18-5.93-1.35-9l.06-.58c8.7.86,13.38.61,21.22-.72l.06.35c2.87,4.47-1.92,12.59-4.43,21.9Z"/><path class="cls-5" d="M124.931,312.702c-10-1.17-21.86-2.39-32.7-4.43-1.2-.23-2.39-.98-2.88-2.11-.36-.82-.21-1.75-.03-2.61.77-3.76,1.26-9.06,2.91-12.5.15.5.44.99.84,1.46,1.54,1.8,4.59,3.14,6.38,2.33,1.31-.59,2.15-1.87,2.87-3.13.7-1.24,1.39-2.55,2.56-3.37.01-.01.03-.02.04-.03,1.18-.82,2.24-.86,3.17.28l.1.07c7.26,4.07,13.94,6.08,23.08,10.34,15.27,7.11.89,14.55-6.34,13.7Z"/><path class="cls-3" d="M168.171,225.272c.02.08.03.15.05.23l-.17.04c-18.91-7.85-21.35-.2-32.74-10.61-10.21-1.91-11.38.16-18.46-.15-2.3-6.69,2.4-19.55,5.67-22.51,8.56,3.52,7.91,2.12,18.59,8.65,14.03,5.17,21.6,8.16,35.63,13.33.03,1.38.44,2.22,1.05,3.45.62,1.22-8.7,11.23-9.62,7.57Z"/><path class="cls-7" d="M176.741,214.252c-.03-1.3-.28-.08.81-.08"/><path class="cls-5" d="M210.231,219.652c-1.52,2.72-4.39,4.5-7.2,5.99-8.58,4.55-17.79,7.72-26.95,10.87-1.1.38-2.34.75-3.33.25l-.19.19c-.04-.04-.09-.08-.13-.13-.33-.39-.58-.87-.8-1.33-1.54-3.17-2.68-6.53-3.41-9.99-.02-.08-.03-.15-.05-.23.92,3.66,10.24-6.35,9.62-7.57-.61-1.23-1.02-2.07-1.05-3.45.27-.02.54-.05.81-.08.08,0,.16-.01.24-.02,8.27-.77,18.28-1.88,26.39-2.61,1.46-.13,3-.26,4.31.3,2.79,1.19,3.27,5.08,1.74,7.81Z"/><path class="cls-7" d="M173.141,237.402c-.21-.12-.41-.27-.58-.45"/><path class="cls-7" d="M109.761,187.062c-.12-.02-.24-.04-.36-.07"/><path class="cls-7" d="M84.311,124.612c-.01-.04-.02-.09-.02-.14"/><path class="cls-7" d="M103.921,119.922c-.02.19-.04.38-.06.56"/><path class="cls-7" d="M112.001,126.872c-.1-.04-.21-.07-.31-.09"/><path class="cls-7" d="M109.241,155.962c-.01-.08-.02-.16-.04-.25"/><path class="cls-7" d="M108.881,153.212c-.01-.06-.01-.11-.02-.16"/><path class="cls-2" d="M132.481,95.402c-1.33-1.35-2.82-2.76-4.42-4.14-.82-.71-1.67-1.41-2.54-2.1-5.76-4.53-12.57-8.3-18.68-7.97-.55-4.99-1.36-10.99-.96-15.92-1.73,5.24-2.11,10.16-4.14,15.08-3.08.16-5.63.08-8.21,0-1.9.77-4.57,4.96-6.44,10.25-.2-.97-1.19-1.66-2.19-1.67-.99-.01-1.93.57-2.52,1.37-.59.8-.87,1.8-.98,2.78-.19,1.72.15,3.57,1.27,4.88.27.31.59.59.94.81.03,4.01-.62,5.72.03,9.71.23,1.41,1.08,3.62,2.31,5.28.19.27.39.52.61.75.01.03.03.07.05.11-4.16-.01-6.15-.92-9.81-.87-3.69-5.38-15.54-24.81-2.69-46.43,3.61-6.08,12.83-16.48,22.79-12.48,0,0,3.12-2.8,5.97-1.89,22.02,4.83,34.05,23.78,29.61,42.45Z"/><path class="cls-7" d="M99.151,58.072c-8.31,4.29-11.83,16.28-10.78,22.21,1.83-.02,3.5.02,5.16.07"/><path class="cls-3" d="M106.841,81.192c-.55-4.99-1.36-10.99-.96-15.92-1.73,5.24-2.11,10.16-4.14,15.08-3.08.16-5.63.08-8.21,0-1.9.77-4.57,4.96-6.44,10.25-.2-.97-1.19-1.66-2.19-1.67-.99-.01-1.93.57-2.52,1.37-.59.8-.87,1.8-.98,2.78-.19,1.72.15,3.57,1.27,4.88.27.31.59.59.94.81.03,4.01-.62,5.72.03,9.71.23,1.41,1.08,3.62,2.31,5.28.2.11.41.39.61.75.02.04.06.07.09.11h-.04c.51,1,.83,2.5.25,2.68-.1.03-.3.06-.58.08-.47.04-1.18.06-1.98.06l2.7.1c-.36,2.52-1.41,4.84-2.69,7.07.52,5.22,3.72,7.54,7.51,8.36,3.81.83,9.48-1.45,11.98-5.49-.21-1.89-.24-3.27-.14-4.81.04-.68.11-1.39.2-2.19,1.66.68,2.93,1.04,3.45.96,3.5-.59,8.59-5.53,8.59-5.53,3.45-2.93,4.92-7.47,5.59-11.5.68-4.04.55-7.57.82-8.51.62-2.22,1.51-2.8,3.21-6.74-5.76-4.53-12.57-8.3-18.68-7.97ZM102.091,95.092c.29-1.32,1.14-2.24,1.9-2.08.76.17,1.15,1.37.86,2.69-.29,1.32-1.14,2.25-1.9,2.08-.77-.16-1.15-1.36-.86-2.69ZM103.031,106.732l.16-.23c3.43,2.44,6.05,4.08,9.99,4.52-2.34,7.27-10.23,6.88-10.15-4.29ZM119.061,99.192c-.3,1.37-1.14,2.35-1.88,2.18-.73-.16-1.08-1.39-.78-2.76s1.14-2.34,1.87-2.18c.73.16,1.09,1.4.79,2.76Z"/><path class="cls-6" d="M113.181,111.022c-2.34,7.27-10.23,6.88-10.15-4.29l.16-.23c3.43,2.44,6.05,4.08,9.99,4.52Z"/><path class="cls-7" d="M103.861,120.482c-5.28-2.15-14.51-7.43-16.43-11.43"/><path class="cls-7" d="M119.909,92.963c-.136-2.248-2.22-2.226-3.113-1.025"/><path class="cls-7" d="M105.821,88.141c-1.087-1.7-3.188-2.236-5.491-.299"/><path class="cls-7" d="M113.087,101.335c.3,2.081.43,3.433,2.812,3.081-1.047,1.999-1.735,2.264-3.697,2.847"/><path class="cls-9" d="M119.061,99.192c-.3,1.37-1.14,2.35-1.88,2.18-.73-.16-1.08-1.39-.78-2.76s1.14-2.34,1.87-2.18c.73.16,1.09,1.4.79,2.76Z"/><path class="cls-9" d="M104.851,95.702c-.29,1.32-1.14,2.25-1.9,2.08-.77-.16-1.15-1.36-.86-2.69.29-1.32,1.14-2.24,1.9-2.08.76.17,1.15,1.37.86,2.69Z"/><path class="cls-7" d="M103.191,106.502c-.25-.18-.51-.37-.78-.56"/><path class="cls-2" d="M128.061,91.262c-1.36,5.52-3.34,8.55-6.57,13.15.68-4.04.55-7.57.82-8.51.62-2.22,1.51-2.8,3.21-6.74.87.69,1.72,1.39,2.54,2.1Z"/><path class="cls-7" d="M121.491,104.412c-.05.07-.11.15-.16.23"/><path class="cls-7" d="M85.951,113.762c-.01,0-.01-.01-.02-.01"/><path class="cls-8" d="M86.861,117.302c-.1.03-.3.06-.58.08-.47.04-1.18.06-1.98.06-2.71,0-6.61-.23-7.03-.79-.62-.84-1.32-2.29-.47-2.9,3.66-.05,5.65.86,9.81.87.51,1,.83,2.5.25,2.68Z"/><path class="cls-7" d="M83.611,98.772c1.12.72,2.56.93,3.73.33.03-.17.06-.33.09-.5"/><path class="cls-2" d="M87.001,117.542c-.36,2.52-1.41,4.84-2.69,7.07-.84,1.49-1.78,2.94-2.68,4.39-5.84,9.41-10.13,19.78-12.66,30.56-1.5-12.08-.65-28.55,4.91-38.39.76-1.34,1.6-2.55,2.53-3.61.28-.32.57-.62.86-.91.42.56,4.32.79,7.03.79l2.7.1Z"/></svg>