<?xml version="1.0" encoding="UTF-8"?><svg id="usa" xmlns="http://www.w3.org/2000/svg" width="235" height="321.9" viewBox="0 0 235 321.9"><defs><style>.cls-1{fill:#dbbb93;}.cls-1,.cls-2,.cls-3,.cls-4,.cls-5,.cls-6,.cls-7,.cls-8{stroke:#000;stroke-linecap:round;stroke-linejoin:round;}.cls-2{fill:#dfcad2;}.cls-3{fill:#9facc0;}.cls-4{fill:#6b7d99;}.cls-5{fill:#ddc5b7;}.cls-6{fill:#fff;}.cls-7{fill:none;}</style></defs><path class="cls-5" d="M90.7,53.7c-.6-4-2.2-9.9-6.6-13.3-3.2-2.5-5.7-3.8-15.6-3.2-7.4,10.6-9.1,16.5-19.8,23.4-2.5-1.4-6.2.6-6.3,3.4,0,.2,0,.4,0,.6.3,2.6,3.5,4.5,5.9,3.4.9,5.1,3.4,9.9,7,13.6,1.3,1.2,2.6,2.3,3.8,3.2,6.9,5.5,11.5,7.2,14.9,6.8,4.7-.5,7.1-4.8,10.3-8.6.1-.1.2-.3.3-.4.3-.5.8-1,1.2-1.7.1-.2.3-.4.4-.7.2-.3.4-.6.5-.9.1-.2.2-.4.4-.7.5-.9,1-1.8,1.4-2.8.2-.3.3-.7.5-1.1.3-.8.6-1.5,1-2.4.2-.4.3-.8.5-1.3.2-.4.3-.9.5-1.3.2-.5.3-.9.5-1.4h0c0-5.3-.3-10.7-.8-14.7ZM62.8,63.2c-.9,0-1.6-1.4-1.6-3.2s.7-3.2,1.6-3.2,1.6,1.4,1.6,3.2-.7,3.2-1.6,3.2ZM75.3,81.5c-1.9.3-5-.5-6.9-1.8-1.8-1.2-1.8-.5-4-3.8,1.1,1.1,11.6,3.6,16.8,1.3-1.4,2.5-2.8,3.9-5.9,4.3ZM84.9,62.5c-.7,0-1.3-1.2-1.3-2.8s.6-2.8,1.3-2.8,1.3,1.2,1.3,2.8-.6,2.8-1.3,2.8Z"/><path class="cls-5" d="M71,113.3c-6.3-3.9-11-12.1-12.6-19.4h0c0-.9.2-2,.3-3.2.2-1.8.4-3.7.4-5.7v-.2c7,5.5,11.6,7.2,15.1,6.8v.4c1.9,6.3,1,16.2-3.2,21.3Z"/><path class="cls-7" d="M91.7,67.7c0,.2-.1.4-.2.6"/><path class="cls-7" d="M87.2,53.7c-1-2.3-2.9-2.1-3.9-.8"/><path class="cls-7" d="M64.2,53.1c-1.9-1.9-4.4-1-4.7.6"/><path class="cls-7" d="M58.4,93.9h0"/><path class="cls-7" d="M76.5,63.5c-.6,4.7,2.4,5.9,2.4,5.9,0,1-.4,2.2-3.3,2.6"/><line class="cls-7" x1="90" y1="180.4" x2="90" y2="180.4"/><line class="cls-7" x1="90.7" y1="180.4" x2="90.2" y2="180.4"/><line class="cls-7" x1="47.6" y1="173.3" x2="47.5" y2="173.3"/><line class="cls-6" x1="94.5" y1="294.3" x2="94.5" y2="294.3"/><path class="cls-7" d="M45.1,116.2s0,0,0,.1"/><path class="cls-5" d="M96.5,173.3c-.5,1.7-.6,1.5-1.2,3.2-.9,2.7-3.3,3.4-5,3.8h-.2c-.2-1.6-.4-3.2-.5-4.7-.6-5.5-1.1-10.1-1.4-13.3,0,.1.2.3.2.4,2.2,3.8,5,7.4,8.2,10.5Z"/><path class="cls-2" d="M90.1,119.6c0,.7,0,1.3,0,1.9-.2,5.9-1.4,8.6-1.7,11.5-1.2,10.7-.6,15.3-.2,29.4-1.6,2.1-8.9,2.7-16.9,2.5,1.4-16.2.6-32.7,0-49.3,3.1-4.8,8.1-11.6,13-14.2-2-1.3-4.3-2.5-6.3-3.8,1.6-1,4.9-1.4,7.4-1.7h0c.9.4,2.8,1.7,3.4,2.4-1.8,13.5-4.5,28.9-7.4,32.9,3.4-.1,6.3-5,8.8-11.7Z"/><path class="cls-2" d="M112.8,146.1c-1.9,4.4-6,11.4-9.5,17.7h0c-3.8-2-7.1-4.6-9.9-7.8.4-.6.8-1,.9-1.3,1.3-1.8,2.5-3.4,3.4-5.5,1.2-2.8,2.2-5.5,3.7-7.8l-.2-.2c-.6.6-9.2-17-11.2-19.6h0c0-.6,0-1.2,0-1.9h0c1.6-4.3,3-9.3,4.2-14.3,4.4,5.3,15.8,29,17.4,31.9,1.9,3.2,2,6.2,1.2,8.9Z"/><path class="cls-2" d="M101.3,141.1s0,0,0,0"/><path class="cls-7" d="M88.3,162.8s0,0,0,.1"/><path class="cls-2" d="M105.5,137.1c-1.7,1.2-2.9,2.7-3.9,4.2"/><path class="cls-7" d="M27.5,138.9c0,.1-.2.2-.2.3"/><path class="cls-7" d="M47.2,113.7c-.4.3-1.2,1.3-2.1,2.5"/><path class="cls-1" d="M47,130.2c-3.6-.9-6.3-4.4-6.2-8.1,1.5-2.1,3-4.3,4.3-5.9h0c.1,0,1.2,7.7,1.9,14.1Z"/><path class="cls-2" d="M71.1,165c-11.3-.3-24.2-2.2-25.1-4.1.9-11,1.1-15.2,1.6-23,0-1.3-.2-4.3-.5-7.6-.7-6.4-1.8-14-1.9-14h0c-1.2,1.6-2.8,3.8-4.3,5.9-2.3,3.4-4.6,6.6-5.5,7.6-1.2,1.3-6.2,7.4-7.8,9.2.9,1.3,1.6,2.7,2.9,5.6.7,1.6,1.4,3.2,2.4,5,0,0,0,0,0,0-3.2,3.5-6.4,7-9.6,10.5h-.1c-1.4-2.4-2.8-4.7-3.8-6-3.7-4.9-7.8-15.5-4.9-21.1,1.6-3.2,12.5-22.3,23.4-33.3,1.2-1.2,2.3-2.3,3.5-3.2,3.6-3,8.9-3.9,12-3.9-2.2,1.1-4.2,2.5-5.1,3.8l7.5,3.4c-1.9.6-3.5,2.3-4,4.3,5.9,1.5,15.6,7,19.1,12.3.1-.2.2-.3.3-.5.6,16.6,1.4,33,0,49.3Z"/><path class="cls-5" d="M47.3,171.7c.8,2.2-.7,3.7-1.9,4,1.2,1.7-1.1,3.1-2.1,3.1,0,1.6-.7,2.1-1.9,2-2.1-.2-5.4-2.5-6.3-3.5-1.9-2.1-3.3-2.9-3.6-5.8,3.8-2.7,6.6-6.9,7.5-11.5,1.9.6,4.7.6,6.7,1.4,1.6.6,2.6,1.8,2.1,4.3.8.9,1.5,1.9,1.8,2.8.4,1.3,0,2.5-2.4,3.2Z"/><path class="cls-7" d="M47.9,165.8c-.8-1-1.7-1.8-2.1-2.4"/><path class="cls-2" d="M39.3,158.7c0,.4-.1.9-.2,1.3-.9,4.6-3.7,8.8-7.5,11.5-.5.4-1.1.7-1.8.6-1.6-2.5-4.3-7.7-6.7-12h.1c3.2-3.6,6.4-7.1,9.6-10.6,1.5,2.7,3.4,5.7,6.5,9.3Z"/><path class="cls-7" d="M39.1,160s0,0,0,0"/><path class="cls-7" d="M47.9,165.8s0,0,0,0"/><path class="cls-7" d="M70.7,214.1c0-.2,0-.6-.2-1.1"/><path class="cls-4" d="M95.4,255.6h-.6c-6.5.9-13.1,1.8-19.6,2.6-1.3-11.3-3.9-37.4-4.9-45.2h.2c-.6-4.6-2.3-20.3-2.4-24.8,0-.2,0-.4,0-.5,0,.2-.1.4-.2.6-3.4,11-7.5,34.7-7.5,35-1.6,16.2-4.6,26.1-6.2,35.5-6,.6-11.9.2-17.8-1.1,0-8.6.2-22.9,1.4-43.6,0,0,2.2-24.3,3.7-33.2,1.1.1,1.9-.4,1.9-2,1,0,3.3-1.4,2.1-3.1,1.2-.2,2.7-1.8,1.9-4,2.5-.7,2.9-1.9,2.4-3.2-.3-.9-1-1.9-1.8-2.8.5-2.5-.6-3.7-2.1-4.3h0c0,0,.2-.6.2-.6.9,1.9,13.8,3.8,25.1,4.1,8.1.2,15.4-.4,16.9-2.5.3,3.2.8,7.8,1.4,13.3.2,1.5.3,3.1.5,4.7,0,0,0,0,0,0,2.4,22.1,5.9,55,5.4,75.1Z"/><path class="cls-7" d="M41.4,180.6v.2h0"/><path class="cls-7" d="M72.6,185.9c-2,2-3.4,2-4.9,2.4"/><path class="cls-5" d="M29.8,172.1c-.8-.1-1.4-.9-1.8-1.7"/><path class="cls-2" d="M103.4,163.8c-1.9,3.5-3.7,6.8-4.8,9.3-.1.3-.3.7-.6.8-.5.2-1.1-.2-1.5-.6-3.2-3.1-5.9-6.6-8.2-10.5,1.2-1.5,3.7-4.8,5.1-6.9,2.7,3.2,6.1,5.9,9.9,7.8h0Z"/><path class="cls-2" d="M71.1,115.7c-.1.2-.2.4-.3.5-3.5-5.3-13.2-10.8-19.1-12.3.5-2,2.1-3.6,4-4.3l-7.5-3.4c.8-1.3,2.9-2.8,5.1-3.8h0c2-1,4-1.7,5.5-1.8-.1,1.2-.2,2.3-.3,3.2h0c1.6,7.4,6.3,15.5,12.6,19.4,0,.8,0,1.6,0,2.4Z"/><line class="cls-7" x1="53.3" y1="92.4" x2="53.3" y2="92.4"/><path class="cls-7" d="M58.8,90.7h0"/><path class="cls-7" d="M58.4,93.9c0-.2-.1-.4-.1-.6"/><path class="cls-3" d="M54.2,258.7c-.6,3.2-1,6.4-1.1,9.7-.2,0-.5,0-.7,0-5.3-.4-10.3.4-15.5-.9-.1,0-.3,0-.4-.1,0-.7,0-3.9,0-9.6,5.9,1.3,11.8,1.6,17.8,1.1Z"/><path class="cls-7" d="M36.4,267.3c0,.2,0,.2,0,0,0,0,0,0,0,0Z"/><path class="cls-7" d="M70.4,213c0-.4-.1-.8-.1-1,0-.2,0-.4,0-.6"/><path class="cls-3" d="M95.4,255.6h0c-.1,5.3-.5,9.7-1.3,12.8-.4,0-.9.1-1.4.2-4.2.6-11,1.8-14.3,0-.6-.3-1-.8-1.4-1.3-.8-1.3-1-2.8-1.2-4.3-.1-.8-.3-2.5-.6-4.7,6.5-.9,13.1-1.8,19.6-2.6h.6Z"/><path class="cls-5" d="M52.4,268.3h0c-.6,8.1-2,22-2.1,22,0,0,0,0,0,0-.4-1.3-1.2-2.4-2.4-3.1-2.1-1.4-4.8-1.5-7.2-.8-.7.2-1.5.5-2.1,1,0-.4-.9-12.2-1.7-19.9h0c5.1,1.2,10.2.4,15.5.8Z"/><path class="cls-6" d="M38.5,287.4h0"/><path class="cls-5" d="M92.7,268.6c-.8,7.7-.7,12.8-1.8,18.8-.8-.5-1.7-.7-2.6-.7-2.5,0-5.8.3-7.8,1.8-.4.3-.7.6-.9,1-.7-7.4-.7-13.3-1.3-20.7l.2-.3c3.2,1.9,10,.6,14.3,0Z"/><path class="cls-7" d="M75.2,258.2s0,0-.1,0"/><path class="cls-7" d="M32.8,149.5s0,0,0,0c0,0,0,0,0,0-.3.2-.6.4-.8.6"/><path class="cls-7" d="M93.4,156c-.1-.1-.2-.2-.3-.3"/><path class="cls-1" d="M55.4,81.6c1.3,1.2,2.6,2.3,3.8,3.2v.2c-.1,1.9-.3,3.9-.5,5.7-1.4.1-3.5.8-5.5,1.8h0c-3.1,0-8.4,1-12,3.9-1.2,1-2.3,2-3.5,3.2-2.5-5.7,2.4-24.8,2.6-29.5,0-1.8,0-3.6-.2-5.3-.3-4-1.1-8-1-12,.3-13.1,9.2-26,26-27.3,0,0,0,.2.1.2,2.4,3.9,2.9,5.7,3.2,11.4-7.4,10.6-9.1,16.5-19.8,23.4-2.5-1.4-6.2.6-6.3,3.4,0,.2,0,.4,0,.6.3,2.6,3.5,4.5,5.9,3.4.9,5.1,3.4,9.9,7,13.6Z"/><path class="cls-1" d="M98.2,83.1c-.6,4.5-2,13.3-4,22.3-1.2,5-2.6,10-4.2,14.3h0c-2.5,6.7-5.5,11.6-8.8,11.8,2.9-4,5.5-19.5,7.4-32.9,1.3-9.6,2.2-18.2,2.5-21,0-.9.2-1.8.2-2.7,0-.4,0-.9,0-1.4,0-.3,0-.6,0-.9,0-.2,0-.4,0-.6,0-.4,0-.8,0-1.1,0-.8,0-1.6,0-2.4h0c0-5.3-.3-10.7-.8-14.7-.6-4-2.2-9.9-6.6-13.3-3.2-2.5-5.7-3.8-15.6-3.2-.3-5.7-.8-7.5-3.2-11.4l.4-.2c5.6-4.1,15,.8,20.6,4.8,17.4,12.6,12.8,45.8,12,52.7Z"/><path class="cls-7" d="M40.8,121.7c0,.1,0,.3,0,.4"/><path class="cls-6" d="M81.2,77.1c-1.4,2.5-2.8,3.9-5.9,4.3-1.9.3-5-.5-6.9-1.8-1.8-1.2-1.8-.5-4-3.8,1.1,1.1,11.6,3.6,16.8,1.3Z"/><path class="cls-8" d="M86.3,59.7c0,1.5-.6,2.8-1.3,2.8s-1.3-1.2-1.3-2.8.6-2.8,1.3-2.8,1.3,1.2,1.3,2.8Z"/><path class="cls-8" d="M64.4,60c0,1.8-.7,3.2-1.6,3.2s-1.6-1.4-1.6-3.2.7-3.2,1.6-3.2,1.6,1.4,1.6,3.2Z"/><path class="cls-2" d="M86.2,95.9c-.3,0-.7,0-1.1.1-2.5.3-5.8.7-7.4,1.7,2,1.3,4.3,2.5,6.3,3.8-4.9,2.5-9.9,9.4-13,14.2,0-.8,0-1.6,0-2.4,4.1-5,5-15,3.2-21.3,3.4-.2,9.2,1.2,12.1,3.4.2.2.1.5-.1.5Z"/><path class="cls-1" d="M91.5,68.4c0,.8,0,1.6,0,2.4,0,.4,0,.8,0,1.1,0,.2,0,.4,0,.6,0,.3,0,.6,0,.9,0,.5,0,.9,0,1.4,0,.9-.1,1.9-.2,2.7-.3,2.8-1.2,11.4-2.5,21-.6-.7-2.5-2-3.4-2.3h0c.4-.1.7-.2,1.1-.2.3,0,.3-.4.1-.5-3-2.1-8.7-3.6-12.1-3.4v-.4c4.6-.5,7.1-4.8,10.2-8.6.1-.1.2-.3.3-.4.3-.5.8-1,1.2-1.7.1-.2.3-.4.4-.7.2-.3.4-.6.5-.9.1-.2.2-.4.4-.7.5-.9,1-1.8,1.4-2.8.2-.3.3-.7.5-1.1.3-.8.6-1.5,1-2.4.2-.4.3-.8.5-1.3.2-.4.3-.9.5-1.3.2-.5.3-.9.5-1.4Z"/><path class="cls-6" d="M54.8,307.6c-1.4,1.3-5.2,1-7.2,1-5.5,0-9.3-.2-14.8-.3-1.7,0-3.7-.2-4.8-1.3-1-1.1-1.1-4.5-.7-5.9.8-2.8,4-5.5,6.8-6.8.8-.5,1.7-.8,2.5-1.1,4-1.3,7.8-.7,10.7,0,1.1.3,2,.5,2.8.7,1.7.5,2.8,1.3,4.1,3.2,1.2,1.9,2.3,8.9.7,10.5Z"/><path class="cls-6" d="M102.5,308.4c-.4.2-3.3.5-3.8.5-5.1.2-21.3.2-22.7-.7-2.1-1.2-1.5-7.6-.5-9.6,1-1.8,1.8-3.1,3.7-3.7.2,0,.4-.1.6-.2,2.3-.5,11.4-1.2,11.6-1.2.6.2,1.3.3,1.9.6,3.6,1.2,7.7,3.5,9.2,6.4.7,1.4,1.4,7.2,0,7.9Z"/><path class="cls-6" d="M50.1,293.7v.2c-.9-.2-1.8-.5-2.9-.7-2.9-.7-6.8-1.3-10.7,0-.8-1.3-.5-3,.3-4.3.4-.6,1-1.1,1.7-1.6.7-.4,1.4-.7,2.1-1,2.4-.7,5.1-.6,7.2.8,1.1.7,1.9,1.9,2.4,3.1,0,0,0,0,0,0,.4,1.1.4,2.3,0,3.4Z"/><path class="cls-6" d="M36.6,293.3s0,0,0-.1"/><path class="cls-6" d="M79.3,295s0,0,0,0"/><path class="cls-6" d="M93.4,294.1c-.7-.2-1.3-.4-1.9-.6-.2,0-9.3.6-11.6,1.2-.2,0-.4.1-.6.2-.2-.9-.6-3.7.3-5.4.2-.4.5-.8.9-1,2.1-1.5,5.3-1.7,7.8-1.8.9,0,1.8.2,2.6.7.7.4,1.2.8,1.7,1.4,1,1.3,1.3,3.7.8,5.3Z"/></svg>