<?xml version="1.0" encoding="UTF-8"?><svg id="usa" xmlns="http://www.w3.org/2000/svg" width="235" height="321.9" viewBox="0 0 235 321.9"><defs><style>.cls-1{fill:#957346;}.cls-1,.cls-2,.cls-3,.cls-4,.cls-5,.cls-6,.cls-7,.cls-8{stroke:#000;stroke-linecap:round;stroke-linejoin:round;}.cls-2{fill:#636567;}.cls-3{fill:#fbd00d;}.cls-4{fill:#debea3;}.cls-5{fill:#b3292e;}.cls-6{fill:#fff;}.cls-7{fill:none;}</style></defs><path class="cls-1" d="M101.3,102.2c-1.8-1.9-3.9-3.3-6.3-4.4-1.3-.6-2.6-1.1-4-1.5-7.1-2.1-15.4-2-22.2-2.2,0-4.5-1.5-8.5-3.4-12.2,1.8,3.6.2,8.5-.9,12.5-5-.5-9.6-.4-13.5-.2v.7c-3.5,11.2-3.2,22.4,1.1,31.6.9,1.9,1.9,3.7,3.2,5.4-6.2,1.6-10,2.1-15.7,3.5,0,0,0,0,0,0-4.6-11.2-9.5-16.4-7.9-30,1.2-11.2,7.7-26.5,12.9-31.2,2.1-1.9,5.8-6.1,14.7-6,8.5,3.2,7.6-2,13.1-1.5,4.4.4,10.1,4.9,13.6,7.2,9.5,6.3,12.4,17.5,15.3,28.2Z"/><path class="cls-7" d="M51.1,94.2c-2.1.1-4,.2-5.6.4.7-7.4,2.8-14.9,9.2-19.3"/><path class="cls-1" d="M98.1,132.3c-5.2,2.8-15.4,1.6-20.8,0v-.2c1.7-1.3,3.5-2.9,5.5-4.6,3.7-3.2,5.1-6,6.2-10.7,1.1-5.1,0-9.5,0-9.5.9-3.9,1.9-7.5,2.1-11.1,1.4.4,2.7.9,4,1.5v.3c-3.5,7.7-.2,29.2,3.1,34.2Z"/><path class="cls-4" d="M91,96.4c-7.1-2.1-15.4-2-22.2-2.2,0-4.5-1.5-8.5-3.4-12.2,1.8,3.6.2,8.5-.9,12.5-5-.5-9.6-.4-13.5-.2v.7c-3.5,11.2-3.2,22.4,1.1,31.6h0c1.6,1.4,3.2,2.5,4.6,3.5,6.1,4.3,10.5,5.5,14.2,4.9.2,0,.4,0,.6-.1,2-.4,3.8-1.4,5.6-2.7,1.8-1.3,3.6-2.9,5.6-4.6,3.7-3.2,5.1-6,6.2-10.7,1.1-5.1,0-9.5,0-9.5.9-3.9,1.9-7.5,2.1-11.1ZM58.9,106.1c0-1.7.7-3,1.6-3s1.6,1.4,1.6,3-.7,3-1.6,3-1.6-1.4-1.6-3ZM73,126.6c-1.9.3-5.8-.1-7.7-1.3-1.8-1.2-2.6-1.6-4.8-4.8,1.1,1,12.9,3.8,18.3,1.9h0c-1.3,2.5-2.8,3.8-5.9,4.2ZM82.6,108.4c-.7,0-1.3-1.2-1.3-2.6s.6-2.6,1.3-2.6,1.3,1.2,1.3,2.6-.6,2.6-1.3,2.6Z"/><path class="cls-6" d="M78.9,122.4c-1.3,2.4-2.8,3.7-5.9,4.1-1.9.3-5.8-.1-7.7-1.3-1.8-1.2-2.6-1.6-4.8-4.8,1.1,1,12.9,3.8,18.3,1.9h0Z"/><path class="cls-7" d="M84.8,100c-1-2.2-2.9-2-3.8-.8"/><path class="cls-7" d="M61.9,99.5c-1.9-1.8-4.3-.9-4.7.5"/><path class="cls-7" d="M56.7,130.1v-.2"/><line class="cls-7" x1="39.6" y1="135.5" x2="39.6" y2="135.5"/><path class="cls-1" d="M56.7,130.1c0,1.2,0,2.2-.1,3.2-4.9,1.5-16.1,2.1-16.9,2.2,5.6-1.4,9.5-1.9,15.7-3.5-1.2-1.7-2.3-3.5-3.2-5.4h0c1.6,1.4,3.2,2.5,4.6,3.5Z"/><path class="cls-7" d="M56.7,133.2c0,0,0,0-.1,0"/><path class="cls-4" d="M71.6,135.3c.2,5-2.9,10.9-8.3,8.4-3.3-1.5-7.3-4-7.1-6.5,0-.8.2-1.6.2-2.5,0-.5,0-1,.1-1.5,0-.9.1-2,.1-3.2,6.1,4.3,10.5,5.5,14.2,4.9h.6c0,.1,0,.3,0,.4Z"/><line class="cls-7" x1="71.6" y1="135.3" x2="71.6" y2="135.3"/><path class="cls-7" d="M56.6,134.8s0,0-.1,0"/><path class="cls-3" d="M70.4,148.3c-5.6,4-13.7-.2-15.8-5.1-.3-.8-.8-2.8-.8-4.6,0-2.2.5-4.3,2.6-3.8,0,.9-.2,1.7-.2,2.5-.2,2.5,3.8,5,7.1,6.5,5.4,2.5,8.5-3.4,8.3-8.4.8.7,1.4,1.4,1.9,2.1,2.8,4.4-.6,9.1-3,10.8Z"/><path class="cls-3" d="M95.3,153.4c-.5,1.4-1,2.8-1.5,4-1.3,3.4-2.8,6.1-7,7.7-.3.1-.7.2-1.1.4,0,3-.2,5.9-.2,8.7,0,5.8,0,12.1-.2,18.3,0,3.5-.1,7-.3,10.2-.5,0-1,0-1.5.2-2,.4-4,1.3-6.1,1.6-3.9.4-7.9.8-11.9.5-3.5-.2-13.8-1-15.1-3.5h-.5c.5-1-.5-2.3-1.6-3.4.5-2.4-1.1-3.4-3.2-3.9.3-3.7,1.5-10.2,1.8-14.3.2-3-.1-6-.4-9-.1-1.4-.3-5.7-.3-5.7l-.3-.2c-.4.7-.9,1.4-1.5,2-1.3-.5-2.6-.9-3.9-1.3-1.9-.6-3.7-1.3-5.1-2.7-1.2-1.1-3.1-3.4-4.2-5.6-.6-1.1-.9-2.2-.9-3.2,0,0,4.5-5.7,6.1-7.4,2.3-2.3,4.7-6.4,7.6-7.8.3-.1.5-.2.8-.3,1.2-.3,2.4-.2,3.8-.2s2.4,0,3.6,0c.6,0,1.2.1,1.5.1,0,1.9.5,3.8.8,4.6,2.1,4.8,10.2,9.1,15.8,5.1,2.4-1.8,5.8-6.4,3-10.8l.8.2c1.7-.2,4.2,0,6,.5.5.1.9.3,1.3.4,2,.9,3.2,2.4,5.1,4.1,3.5,3.3,5.4,7.2,8.7,10.7Z"/><path class="cls-7" d="M85.7,165.5s0,0-.1,0"/><path class="cls-7" d="M46,164.9c2-3.3,3.2-7.7,5.1-10.4"/><path class="cls-7" d="M53.9,138.3c.2.2.1.3,0,.3"/><path class="cls-7" d="M85.7,165.5c0-5,0-10.2-.9-14.7"/><path class="cls-7" d="M45.3,194.1c0,.1,0,.2,0,.3"/><path class="cls-7" d="M46.3,165.1s0,0,0,.2"/><path class="cls-7" d="M45.3,139.7c2.5,1.9,4,3.7,5,6.7.4,1.3.8,2.7.9,4,0,.8,0,3.5-.2,2.6"/><path class="cls-7" d="M81.3,138c.9,2.1,3.2,9.3,2.8,10.7"/><path class="cls-4" d="M97.7,190.7c-3.2,3.5-6.1,6-7.4,10.4-.6,1.9-1,3.6-1.6,5.4-.9,2.5-2.5,2.6-3.9,3h-.3c-.4-2.4-.7-4.7-.9-6.7.5-.1,1-.2,1.5-.2.1-3.2.2-6.7.3-10.2.4-.6,1.9-2.4,2.5-3.2,1.1-1.4,2.1-2.6,2.9-4.3,1.1-2.4,1.9-5.1,3.3-7.5l-.4-.3c-.4.5-5.2-9.9-6.9-12h0c4.2-1.7,5.7-4.4,7-7.7h0c1.6,2.8,7.2,14.3,8.6,16.6,3.7,6-.5,12-4.8,16.7Z"/><path class="cls-7" d="M93.7,177.1s0,0,0,0"/><path class="cls-7" d="M85.4,192.4c0,.1-.1.2,0,.2"/><path class="cls-4" d="M97.2,173.9c-1.3.9-2.3,2.1-3.1,3.5"/><path class="cls-7" d="M41,165.3c-.1,0-.2.2-.4.3"/><path class="cls-4" d="M50,201.4c-.2.5-.9,1-2.1,1.3.7,1.7-.6,2.9-1.6,3.1,1,1.4-.9,2.5-1.8,2.5,0,1.3-.6,1.7-1.6,1.6-1.8-.2-4.6-2-5.4-2.8-1.6-1.7-4.2-5.3-3.1-7.8-2.1-3.2-7.6-7.7-9.9-10.5-3.2-3.8-7.2-13.7-4.8-18.2,2-3.6,8-9,11.5-13.3,1.1,2.2,3,4.5,4.2,5.6,1.4,1.4,3.2,2.1,5.1,2.7-1.5,1.2-3.1,3.5-4.6,5-1.1,1.1-4.1,3.7-5.1,4.7h0c.9,1.1,1.6,2.5,2.5,4.4,1.5,3.1,2.5,11.2,6.6,13.3h0c1.3.3,3.4.5,5.2,1,2,.6,3.6,1.6,3.2,3.9,1,1.1,2,2.4,1.6,3.4Z"/><path class="cls-7" d="M31.5,157.1c0,0,0,.1-.1.2"/><path class="cls-7" d="M30.9,175.4c-1.1-1.4-2.4-2.3-4.6-3.5"/><path class="cls-7" d="M40.6,193.3c-.2,0-.4-.2-.6-.3"/><path class="cls-7" d="M48.4,198c-.7-.8-1.4-1.4-1.8-1.9"/><path class="cls-7" d="M48.4,198s0,0,0,0"/><path class="cls-2" d="M90.7,237.4c-1.2.7-2.5,1.3-4,1.9-4.7,1.9-10.7,3.1-17.3,2-1.8-.3-3.6-.8-5.5-1.4,0-2.7-.4-6.3-.4-9.5h-.2c-.7,4.5-1.1,8.7-1.2,9.1-1.5.3-2.9.5-4.2.7h0c-3.9.6-7.4.8-11.6-.2-1.2-.3-3.5-1.1-5.7-2.1-1.9-.9-3.8-1.9-4.6-2.6,0,0,5.6-18.4,6.9-25.4,1,0,1.6-.3,1.6-1.6.9,0,2.8-1.1,1.8-2.5,1-.2,2.3-1.4,1.6-3.1,1.2-.3,1.8-.8,2.1-1.3h.5c1.3,2.5,11.6,3.3,15.1,3.5,4,.2,8,0,11.9-.5,2.1-.2,4.1-1.2,6.1-1.6.2,1.9.5,4.3.9,6.7.6,3.9,1.4,8,1.9,10.9.9,5.5,1.7,11,4.3,17Z"/><path class="cls-7" d="M83.6,202.8c0-.1,0-.2,0-.4"/><path class="cls-7" d="M42.9,209.7v.2h0"/><path class="cls-7" d="M62.2,239.5h0"/><path class="cls-7" d="M65.8,220.1c-1,2.1-1.8,6.3-2.5,10.3"/><path class="cls-7" d="M72.1,213.7c-1.7,1.6-5.3,5.4-6.2,6.4"/><path class="cls-7" d="M90.8,279c0-.3-.1-.6-.2-1.1"/><path class="cls-7" d="M86.8,239.1s0,.1,0,.2"/><path class="cls-7" d="M69.4,240.9c0,.1,0,.2,0,.4"/><path class="cls-7" d="M57.9,240.2h0s0,0,0,0"/><path class="cls-4" d="M54.4,247.6c-.5,2.9.1,5.7-.3,8.6-1,6.7-5.1,13-7.1,19.5-1.2,4-3.5,16-3.7,20.7-.7-1.1-1.3-1.8-2.1-2.2,1.6-7.4-4.2-9.2-6.1-9.2-.6,0-1.2.1-1.8.3v-.3c2.2-13,1.2-19.5,2.5-26.5.6-3.2,2.9-7.2,3.7-10,.8-3.2.5-6.9,1.2-10.5,2.2,1,4.5,1.8,5.7,2.1,4.3,1,7.8.8,11.6.2-1.1,2.7-3.1,4.5-3.6,7.3Z"/><path class="cls-8" d="M83.9,105.8c0,1.5-.6,2.6-1.3,2.6s-1.3-1.2-1.3-2.6.6-2.6,1.3-2.6,1.3,1.2,1.3,2.6Z"/><path class="cls-8" d="M62.2,106.1c0,1.7-.7,3-1.6,3s-1.6-1.4-1.6-3,.7-3,1.6-3,1.6,1.4,1.6,3Z"/><path class="cls-7" d="M74.8,112.4c0,1.2.9,1.4,2,1.3,0,.9-.5,3.7-1.9,4.2"/><path class="cls-7" d="M79.3,122.2c-.1,0-.3.1-.4.2"/><path class="cls-4" d="M85.8,287.6c-1.6,1.8-1.9,4.4-1.4,6.8h.9c-1.3.6-1.9,1.7-2.6,3.1-.6-7.4-5.1-20.3-8.8-31.4-1.8-5.3-5.8-12.9-1.8-18-.8-1.9-2.7-4.7-2.7-6.8,6.6,1.1,12.6,0,17.3-2-.6,1.7,0,5.1-.3,7.2,3.7,5.1,3.3,9.8,3.3,14.2,0,3,.3,13.1.8,17.2h0c.4,3.1.9,6.2,1.3,7.7-2.2,0-4.9.8-6,2Z"/><path class="cls-7" d="M91.9,285.9c0,0,0-.2,0-.3"/><path class="cls-7" d="M90.5,277.9c-.4-2.9-.7-5.7-.7-7"/><path class="cls-7" d="M29,292.8c-.8.2-1.7.6-2.5,1.1"/><path class="cls-5" d="M41.2,294.1c-.9-.5-2-.8-3.6-1.2-2.3-.6-5.4-1.1-8.5-.1.6-.3,1.1-.7,1.5-1.2.5-.7-.3-3.3,0-4.1.5-1.1,1.5-1.9,2.7-2.3.6-.2,1.2-.3,1.8-.3,2,0,7.8,1.8,6.1,9.2Z"/><path class="cls-5" d="M43.8,307.6c-1.1,1.1-4.3.9-6,.9-4.6,0-9.2,0-13.7,0-1.4,0-3.1-.1-4-1.2-.8-.9-.9-6.1-.6-7.3.6-2.4,4.7-5,7-6.1.8-.4,1.7-.7,2.5-1.1,3.2-.9,6.2-.4,8.5.1,1.6.4,2.7.6,3.6,1.2.8.4,1.4,1.1,2.1,2.2,1,1.6,1.9,9.9.5,11.3Z"/><path class="cls-5" d="M106.9,308.3c-.4.2-2.8.7-3.2.7-4.2.2-19.4-.3-20.6-1-1.7-1-1.2-8.8-.4-10.5.7-1.4,1.3-2.5,2.6-3.1.3-.1.6-.3,1-.4,2-.5,5.8-.4,7.9-.4.7,0,1.4,0,1.8-.6,3.3.9,9.6,3.3,11.1,6.2.6,1.2,1.2,8.4,0,9Z"/><path class="cls-5" d="M95.9,293c-.3.6-1.1.6-1.8.6-2.1,0-5.9,0-7.9.4-.4,0-.7.2-1,.4h-.9c-.5-2.4-.2-5,1.4-6.8,1.1-1.2,3.8-2.1,6-2,1.1,0,2,.3,2.6.8,1.5,1.3,1.5,3.7,1.6,5.6,0,.3,0,.7-.1,1Z"/></svg>