<?xml version="1.0" encoding="UTF-8"?><svg id="usa" xmlns="http://www.w3.org/2000/svg" width="235" height="321.9" viewBox="0 0 235 321.9"><defs><style>.cls-1{fill:#50637f;}.cls-1,.cls-2,.cls-3,.cls-4,.cls-5,.cls-6,.cls-7,.cls-8,.cls-9,.cls-10{stroke:#000;stroke-linecap:round;stroke-linejoin:round;}.cls-2{fill:#e1a73f;}.cls-3{fill:#e0bfa4;}.cls-4{fill:#9c6548;}.cls-5{fill:#a1624e;}.cls-6{fill:#68513e;}.cls-7{fill:#ddd2c7;}.cls-8{fill:#fff;}.cls-9{fill:none;}</style></defs><path class="cls-7" d="M114,123.9c-.6-1.5-2.2-3.1-4.2-4.6-1.5,1.7-9,6.6-14,7.4-5.7.9-13.1-.4-17.8-3.7-4.7-3.3-9.8-9.3-8.9-14.9v-.2c-2.9.3-5.3.7-6.2.9-5.6,1.1-8.8,4-13,7.7-.8.7-15.1,17.1-15.2,18.1-.9,1.2-1.9,2.6-3.6,5-6.4,8.8-8.5,14.6-10.8,23.8,2.7-1.4,6-1.4,8.8-.1,3.2-5.6,6.5-9.5,10.8-17,1.4-1,1.7-1.4,2.4-1.9,0,0,0,0,.1-.1,0,0,.2-.1.3-.2,0,0,0,0,0,0,3-1.9,11.1-6.7,15.7-10.8.5,4.1.4,7.8.3,12.9-2.2,24.5-4.8,26.1-.9,39h0c-.2-2-.2-4.1,0-6.4,1.6-9.6,16.1-7.3,33.1-2.8,3.4.9,7.5,2.4,11.6,3.7.5.1,1.7.5,3.5,1.1-.1-4.8-2.2-15.7-1.4-18.7,3-.4,6.3-1.3,10.2-2.8,1-.6,1,.3,2.1-1.7.9-1.7,1.1-2.8,1.2-4.9,0-.8.3-18.4-4-28.8ZM83.9,152.1c-.4,2.9-.8,5.7-1.2,8.6h0c-1.2,0-2.5-.2-3.8-.3-2.7.9-12.6,1.2-13.7-1.4-.9-2.2,2.9-13,5.9-14.4,2.8-1.3,12.9,3.9,13,6.8h0c-.1.2-.2.2-.3.2v.5Z"/><path class="cls-9" d="M58.7,133.1c0,0-.2.2-.3.2"/><path class="cls-3" d="M31.2,176.9c-1.8,2.1-11.8,2.9-13.5,1.8-2-1.3.2-8.9,1.6-10.8.4-1.6.7-3.1,1.1-4.6,2.7-1.4,6-1.4,8.8-.1-.4.7-.8,1.5-1.2,2.3h0c2.5.7,4.9,9.4,3.2,11.4Z"/><path class="cls-9" d="M37.5,131.4c-1.2,1.2-1.9,2.1-2.7,3.2"/><path class="cls-9" d="M27.8,165.6c0,.2-.2.4-.3.5"/><path class="cls-9" d="M43.8,143.4c-.7.5-1.2.8-1.6,1.1"/><path class="cls-2" d="M109.9,119.4c-1.5,1.7-9,6.6-14,7.4-5.7.9-13.1-.4-17.8-3.7-4.7-3.3-9.8-9.3-8.9-14.9v-.2c3.3-.3,7.3-.5,10.5,0-.2,1.8-.5,3.2-.8,3.9.5,5.6,2.9,8.3,6.9,9.8,4,1.5,12.2,1.3,14.9-2.9-.2-2.2-.3-3.4-.2-5h0c2.1,1.1,6.1,3.3,9.3,5.7Z"/><path class="cls-9" d="M102.1,138.4c0,4.8.7,7.8,1,10.6,6.8-1.6,9.6.2,10.5,1"/><path class="cls-9" d="M82.7,160.9c8.9,1.1,14.6,2.3,21.8,1.3"/><path class="cls-9" d="M83.8,151.7c-.1,0-.2,0-.4,0"/><path class="cls-9" d="M84.1,151.6c8.9-1.7,10.4-.4,20.8-2.9.4-.1.8-.2,1.3-.3"/><path class="cls-3" d="M83.8,151.7v.5c-.3,2.9-.7,5.7-1.1,8.6h0c-1.2,0-2.5-.2-3.8-.3-2.7.9-12.6,1.2-13.7-1.4-.9-2.2,2.9-13,5.9-14.4,2.8-1.3,12.9,3.9,13,6.8h0c-.1.2-.2.2-.3.2Z"/><path class="cls-9" d="M105.9,180.8h0"/><path class="cls-9" d="M104.5,162.1s0,0,0,0"/><path class="cls-9" d="M58.5,133.4c-.2-2-.6-4.1-1.2-6.6"/><path class="cls-1" d="M174.2,204.5c-.3.7-.6,1.5-.9,2.4-1.4,3.9-2.7,8.7-4.8,13.4-.5,1-1,2-1.5,2.9-.4.8-29.6-5.4-55.3-10.8-16.8-3.6-32.2-6.9-37-7.9-2.3-.6-4.2-1.1-5.3-1.6-4.5-2.2-10.3-7.8-11.5-17.7-.2-2-.2-4.1,0-6.4,1.6-9.6,16.1-7.3,33.1-2.8,3.4.9,7.5,2.4,11.6,3.7.5.1,1.7.5,3.5,1.1,14.8,4.7,68.9,22.2,68.3,23.7Z"/><path class="cls-1" d="M109.3,284.5c-2.5.4-4.4.7-6,1-4.8.7-7.2.6-14.6-.2-.9-.1-1.9-.2-2.9-.3,0-6.2,6.3-41.3,4.3-50.1-2.5-11.1-10.8-21.1-15.5-30.3,4.8.9,20.1,4.2,37,7.9,1.4,4.7,6.1,15.3,6.5,22.4.5,9.3-8.5,44.9-8.7,49.7Z"/><path class="cls-3" d="M103.5,286.5c-.5,0-1,.3-1.5.6-1.3.9-2.1,2.3-2.9,3.6-.8,1.3-1.7,2.7-3.1,3.3-2,.8-5.3-.6-7-2.5,0-2.2-.1-3.8-.2-6.3,7.3.8,9.7.9,14.6.2v1.1Z"/><path class="cls-4" d="M124,312.7c-11-1.2-24-2.5-35.9-4.6-1.3-.2-2.6-1-3.2-2.2-.4-.9-.2-1.8,0-2.7.8-3.9,1.4-9.5,3.2-13.1.2.5.5,1,.9,1.5,1.7,1.9,5,3.3,7,2.5,1.4-.6,2.4-2,3.1-3.3.8-1.3,1.6-2.7,2.9-3.6.5-.4,1-.6,1.5-.6.7,0,1.4.2,2,.9h.1c8,4.3,15.3,6.4,25.4,10.9,16.8,7.4,1,15.2-7,14.4Z"/><path class="cls-3" d="M171.4,221.1c0,0,0,.2,0,.2h-.2c-1-.3-1.9-.7-2.8-1h-.2c2.2-4.7,3.5-9.5,4.8-13.5,1.5.5,6.1,2.1,7.6,2.7,0,1.4.5,2.3,1.2,3.6.7,1.3-9.6,11.8-10.6,7.9Z"/><path class="cls-9" d="M173.3,206.9s0,0,0,0"/><path class="cls-9" d="M180.9,209.6c0-1.4-.3,0,.9,0"/><path class="cls-4" d="M217.7,215.2c-1.7,2.9-4.8,4.7-7.9,6.3-9.4,4.8-19.5,8.1-29.6,11.4-1.2.4-2.6.8-3.7.3h-.3c-.4-.4-.6-.9-.9-1.3-1.7-3.3-2.9-6.8-3.7-10.4,0,0,0-.2,0-.2,1,3.8,11.2-6.7,10.6-7.9-.7-1.3-1.1-2.2-1.2-3.6.3,0,.6,0,.9,0,0,0,.2,0,.2,0,9.1-.8,20.1-2,29-2.7,1.6-.1,3.3-.3,4.7.3,3.1,1.2,3.6,5.3,1.9,8.2Z"/><path class="cls-9" d="M176.9,233.8c-.3-.1-.6-.4-.8-.6"/><path class="cls-3" d="M107,67.9c-8.8.6-17.2,4-25,8.1h0c-1-.7-2.5-.7-3.5,0-1.5,1-2.2,2.9-2.5,4.8,0,.8,0,1.7,0,2.5.3,2.5,1.6,4.9,3.7,6,.6,3.2.6,10.2.2,15.6,0,1-.2,2-.3,2.9-.2,1.8-.5,3.2-.8,3.9.5,5.6,2.9,8.3,6.9,9.8,4,1.5,12.2,1.3,14.9-2.9-.2-2.2-.3-3.4-.2-5,0-.7.1-1.4.2-2.4,4,1.8,7.2,2.6,8.4,2.4,4.2-.7,8.9-6.2,8.9-6.2,8-8.8,8-17.4,8.7-19.5.3-1.1.6-1.7,1-2.5.5-1,1.1-2.2,1.9-4.7.5-10.2-13.9-13.4-22.7-12.8ZM103,84.1c.3-1.5,1.4-2.5,2.3-2.3.9.2,1.4,1.5,1,3-.4,1.5-1.4,2.5-2.3,2.3-.9-.2-1.4-1.5-1-3ZM104.1,97.2l.2-.3c4.2,2.8,7.3,4.6,12.1,5.1-2.8,8.2-12.4,7.7-12.3-4.8ZM123.5,88.7c-.4,1.5-1.4,2.6-2.3,2.5-.9-.2-1.3-1.6-.9-3.1s1.4-2.6,2.3-2.4c.9.2,1.3,1.6,1,3.1Z"/><path class="cls-8" d="M116.4,102c-2.8,8.2-12.4,7.7-12.3-4.8l.2-.3c4.2,2.8,7.3,4.6,12.1,5.1Z"/><line class="cls-9" x1="100.8" y1="111.3" x2="100.8" y2="111.3"/><path class="cls-9" d="M85.8,100.6c4.8,5.1,10.4,8.6,15,10.7"/><path class="cls-3" d="M125.9,82.2c-.2-2.5-4.1-2.9-5.1-1.6"/><path class="cls-9" d="M109.9,77.5c-1.3-1.9-6.2-3.7-9-1.5"/><path class="cls-3" d="M117.2,89.4c1.7,7.1.8,10.5-3.2,8.6"/><path class="cls-10" d="M123.5,88.7c-.4,1.5-1.4,2.6-2.3,2.5-.9-.2-1.3-1.6-.9-3.1s1.4-2.6,2.3-2.4c.9.2,1.3,1.6,1,3.1Z"/><path class="cls-10" d="M106.3,84.8c-.4,1.5-1.4,2.5-2.3,2.3-.9-.2-1.4-1.5-1-3,.3-1.5,1.4-2.5,2.3-2.3.9.2,1.4,1.5,1,3Z"/><path class="cls-9" d="M104.3,96.9c-.3-.2-.6-.4-.9-.6"/><path class="cls-9" d="M79.7,89.4c1.2.6,3,.6,3.7-.7"/><path class="cls-9" d="M83,77.2c-.2-.5-.6-.9-1-1.2"/><path class="cls-5" d="M127.9,85.5c.5-1,1.1-2.2,1.9-4.7.5-10.2-13.9-13.4-22.7-12.8s-17.2,4-25,8.1h0c-1-.7-2.5-.7-3.5,0-1.5,1-2.2,2.9-2.5,4.8,0,.8,0,1.7,0,2.5h-.1c-1,2.3-1.5,5.3-1.6,8.3h-.4c-2.2-.4-7.5-16.9-4.7-21.2,2.8-4.3,6.6-9.9,11-12.5,9.4-5.4,21.9-8.5,32.6-6.6,9.3,1.7,11.9,4.3,15.2,7.8.7.8,1.4,1.5,2.3,2.4,4.2,4.2,2.8,25.9-2.4,23.8Z"/><path class="cls-9" d="M127.9,85.5c-.1,0-.2-.1-.4-.2"/><path class="cls-5" d="M128,59.3c-3.3-3.5-5.9-6.1-15.2-7.8-10.7-1.9-23.2,1.2-32.6,6.6-4.4,2.5-8.2,8.2-11,12.5,0-10.4,2.8-16.3,11-22.6,8.2-6.4,20.2-8.3,30-4.9,9.3,3.2,13.8,6.5,17.8,16.3Z"/><path class="cls-9" d="M128.2,59.8c0-.2-.2-.4-.2-.6"/><path class="cls-6" d="M79.9,105c-1.1-1.5-2-3.2-2.5-5-.6.9-1.1,2-1.4,3.1-1.1-2.1-1.9-6.7-1.7-11.3.1-3,.6-6,1.6-8.3h.1c.3,2.5,1.6,4.9,3.7,6,.6,3.2.6,10.2.2,15.6Z"/><path class="cls-9" d="M80.2,105.3c-.1-.1-.2-.2-.3-.4"/><path class="cls-9" d="M29.3,163.4c0,0-.1,0-.2,0"/><path class="cls-9" d="M20.3,163.4c-.2.1-.4.2-.6.4"/></svg>