<?xml version="1.0" encoding="UTF-8"?><svg id="usa" xmlns="http://www.w3.org/2000/svg" width="235" height="321.9" viewBox="0 0 235 321.9"><defs><style>.cls-1{fill:#2e3191;}.cls-1,.cls-2,.cls-3,.cls-4,.cls-5,.cls-6,.cls-7,.cls-8{stroke:#000;stroke-linecap:round;stroke-linejoin:round;}.cls-2{fill:#6088d8;}.cls-3{fill:#72777c;}.cls-4{fill:#302f2d;}.cls-5{fill:#e4cfb5;}.cls-6{fill:#fff;}.cls-7{fill:none;}</style></defs><path class="cls-3" d="M109.2,228c-.4,0-.7.2-1,.3-8.7,2.5-15.3,5.5-22,9.4-.9.6-1.9,1.1-2.8,1.7-3.4-12.7-13-27.5-15.8-32.3-3.4,11.5-6.9,24.9-10.6,36.3-1.3-.2-2.5-.4-3.7-.6-8.1-1.5-11.5-3.6-18.2-8.1-.9-.6-1.8-1.3-2.9-2,1.2-18.4,0-35.6,7-56.6v-.2c17.6,5.3,30.7,8,49.1,6.1,7.8,11.2,21.4,36.8,20.8,45.8Z"/><path class="cls-5" d="M96.4,42.3c-2-1.7-14-5.2-17.5-4.1-3.6,1.8-6.1,1.5-7,6-.9,4.5-4.6,16.2-4.8,15.9-1.6-2.2-3.7-5.7-4.9-8.1-.7-1.5-2.4-2.1-3.7-1.5-1.3.6-2.2,4.5-2.1,6.2,0,1.7,1.1,3.2,2.4,3.9.3.1.5.2.8.3l-.4.8c-.3,2.9.1,7.2.4,8.2,0,.3.2.6.2.9,1.2,4.4,3.1,7.9,5.4,10.9,2.5,3.3,9.3,8.6,13.9,11.3.8.5,1.5.9,2.2,1.1.2,0,.3.2.5.2.6.2,1,.3,1.3.3,3.7-.7,10.2-8.4,10.2-8.4,6.4-7.1,7.2-20,7.8-22.1.4-1.6,2.4-4.8,3.8-8.5.8-2,1.3-4.3,1.3-6.5.5-3.4-6.8-5.1-9.7-6.7ZM77.9,52.8c.3-3.3,5.6-2.4,8.4-1.5,2.7.8.9,3.1.3,2.9-1.9-.5-8.7-1.1-8.7-1.4ZM82.9,61.6c-.3,1.5-1.2,2.6-2,2.4-.8-.2-1.2-1.6-.9-3.1.3-1.5,1.2-2.5,2-2.3.8.2,1.2,1.5.9,3ZM79.4,75l.2-.2c3.6,2.8,6.3,4.6,10.5,5.1-2.5,8.2-10.7,7.8-10.6-4.9ZM97.8,65.5c-.3,1.6-1.2,2.7-2,2.5-.8-.2-1.1-1.6-.8-3.1.3-1.5,1.2-2.6,2-2.5.8.2,1.1,1.6.8,3.1ZM99.5,60.4c-.5-.2-3.2-1.5-3.8-1.8-1.4-.8-.2-2.8.9-3,1.2-.2,4.5,2.9,4.4,3.6,0,.8-.9,1.4-1.5,1.1Z"/><path class="cls-6" d="M90.1,79.9c-2.5,8.2-10.7,7.8-10.6-4.9l.2-.2c3.6,2.8,6.3,4.6,10.5,5.1Z"/><path class="cls-7" d="M91.5,68c2.7,1.8,2.9,6.1-.9,6.7"/><path class="cls-8" d="M97.8,65.5c-.3,1.6-1.2,2.7-2,2.5-.8-.2-1.1-1.6-.8-3.1.3-1.5,1.2-2.6,2-2.5.8.2,1.1,1.6.8,3.1Z"/><path class="cls-8" d="M82.9,61.6c-.3,1.5-1.2,2.6-2,2.4-.8-.2-1.2-1.6-.9-3.1.3-1.5,1.2-2.5,2-2.3.8.2,1.2,1.5.9,3Z"/><path class="cls-5" d="M79.6,74.8c-.3-.2-.6-.4-.8-.6"/><path class="cls-5" d="M78.8,97.1c-1.5,2.2-4.8,2.4-7.3,1.7-2.5-.7-10.9-3.3-14.8-8.7l.6-.9c1.5-.9,2.8-6.7,2.9-12.3,0-2.2-.1-4.4-.5-6.3,1.2,4.4,3.1,7.9,5.4,10.9,2.5,3.3,9.3,8.6,13.9,11.3,0,.4.3,3.5-.2,4.3Z"/><path class="cls-7" d="M79,92.8h0"/><path class="cls-1" d="M44.4,122h0c-3,7.5-6.2,14.3-7.8,16.1-.4-.5-.9-.9-1.5-1.4-4-3.3-10.7-5.7-13.7-7.3-.8-.4-1.4-.8-1.5-1.1-.4-1,13.4-34.6,22.4-35.4,4-.3,6,.7,7.6,3.5.3.5.5,1.1.8,1.7,1.2,2.9-2.4,14.1-6.3,24Z"/><path class="cls-2" d="M92.4,123.6c0,1.3-.2,2.6-.2,3.8h-.2c-6.4,6.8-32.2,2.2-47.3-3.5h0c0-.6-.1-1.3-.2-1.9h0c3.9-9.9,7.4-21,6.3-24-.2-.6-.5-1.2-.8-1.7,2.2-.5,4.5-1.2,6.6-2.2,7.4,7.4,16,11.8,22.6,10,3-.8,4.5-2.8,3.9-5.8,1.2,0,2.5.2,3.7.2h0c7.4,9.3,5.8,21.6,5.6,24.9Z"/><path class="cls-2" d="M92.1,127.4c-.2,3.2-.4,6.1-.6,8.8,0,.9-.1,1.7-.2,2.5-1.3,16.9-2.2,23.3-2.9,43.5-18.5,1.8-31.5-.8-49.1-6.1-.3-.1-.7-.2-1.1-.3,1.9-5.6,2.2-6.6,3.2-12.4,2.2,1.2,4.2,2.3,5.6,3.5-.4,3.7,4.3,7.3,7.1,8.8,2,1.1,11.1,3.2,9.5-1.6,1.1-.4,3.2-2.7,1.3-4,1.3-.7,2.5-2.9.9-4.9,4.3-2.8,1.6-4.9-1.1-6.4-.5-6.3-8.7-2.9-12.8-2.8v.2c-3.6-.5-6.4-3.6-8.8-6.8h0c1.1-10.8,2-18.5,1.3-25.4,15.1,5.7,40.9,10.4,47.3,3.5h.2Z"/><path class="cls-1" d="M104.9,131.5c-.6.4-1.1.7-1.7.9h0c-4.3,1.7-8.4-.2-11.6,3.8.2-2.6.4-5.5.6-8.8,0-1.2.2-2.5.2-3.8.2-3.3,1.8-15.6-5.6-25-.8-1-1.6-1.9-2.6-2.8l.3-.3c17.4,7.8,16.1,27.8,20.4,36Z"/><path class="cls-5" d="M120.5,154.7c-3,.7-.6-.2-3.1,1.6-1.9,1.4-4.6,4.4-5.5,7.1h-.4c-2.9-7.8-14.6-9.3-20.3-24.8,0-.8.1-1.7.2-2.5,3.1-4,7.3-2.1,11.6-3.8h0c6.2,6,13.2,19.4,17.4,22.3Z"/><path class="cls-1" d="M103.1,132.4c0,0-.1-.1-.2-.2"/><path class="cls-5" d="M122.3,171.6c-2.8,2.1-4.5,2.9-7.4,1-1.4-.9-2.7-5-3.1-6.7-.2-.7,0-1.5.2-2.4.8-2.7,3.6-5.8,5.5-7.1,2.5-1.8,0-1,3.1-1.6,3.3-1,7.2.9,8.7,4.1,1.4,3.2-4.1,10.7-6.9,12.8Z"/><path class="cls-7" d="M72.4,192.4c-1.6,4.2-3.2,9.3-4.9,14.8h0"/><path class="cls-5" d="M53.3,242.9c-4.1,7.6-9.6,19.9-15,29.3-5.5,0-11-2-15.4-5.8,1.8-7.8,4.1-15.8,7.5-21.2,2-3.2,3.3-6.9,4.7-10.4,6.6,4.5,10,6.6,18.2,8.1Z"/><path class="cls-6" d="M38.3,272.2c-1.7,3-3.5,5.8-5.1,7.9-1.5.6-2.6,2-3.7,3.2-.8.9-6.8.4-9.7-1.1h0c.9-4.6,1.9-10.1,3.2-15.7,4.3,3.8,9.9,5.8,15.4,5.8Z"/><line class="cls-7" x1="67.6" y1="207.2" x2="67.6" y2="207.2"/><path class="cls-7" d="M92,288.8c0,0,0,.1,0,.2"/><path class="cls-5" d="M105.2,278.8c-3.7,2.3-9.2,2.4-13.1.5h0c-.3-9.2-1.7-17.2-4.4-27.2-.9-3.5-2.1-10.7-1.5-14.3,6.6-4,13.2-6.9,22-9.4.3,20.3-.7,32.2-3,50.5Z"/><path class="cls-6" d="M104.2,286.2h0c-.3.6-.6,1.2-.9,1.8-.7,1.5-1.6,3-3.1,3.8-2.4,1.3-7-.6-8.4-3,0-.5,0-1,0-1.5,0-.3,0-.6,0-.9,0-2.5,0-4.9,0-7.2h0c3.9,2,9.4,1.8,13.1-.5-.3,2.3-.6,4.8-.9,7.4Z"/><line class="cls-7" x1="108.1" y1="228.3" x2="108.1" y2="228.3"/><path class="cls-1" d="M56.5,94.2c-2.1.9-4.3,1.7-6.6,2.2-1.5-2.8-3.6-3.9-7.6-3.5,1.7-.4,7-1.4,10.9-2.1,1,1.2,2.1,2.4,3.2,3.5Z"/><path class="cls-4" d="M132.9,311.5c-3.3,1.8-7.4,1.6-11.2,1.2-11.6-1.2-18.4-3.8-29.6-6.9-1.3-.4-2.8-.9-3.5-2.1-.5-.9-.4-1.9-.2-2.9.6-4.3,1.7-8.5,3.4-12.5,0,.2.1.3.2.5,1.4,2.4,6,4.3,8.4,3,1.5-.8,2.3-2.3,3.1-3.8.3-.6.6-1.2.9-1.8.5-.9,1-1.7,1.8-2.3,1.3-1,2.5-1.2,3.7,0h.1c8.9,5.2,13.4,9.7,22.3,14.8,1.5.9,3.2,1.8,4.1,3.3,2,3.2-.1,7.6-3.5,9.4Z"/><path class="cls-4" d="M54.6,314.4c-3.7.8-6.5.9-10-.6-10.8-4.3-20.8-10.4-30.8-16.5-1.2-.7-2.5-1.6-2.8-2.9-.2-1,.2-2,.6-2.9,1.7-4,4-7.7,6.6-11.1,0,.7.7,1.3,1.6,1.8,2.9,1.6,8.9,2.1,9.7,1.1,1.1-1.2,2.2-2.5,3.7-3.2,1.5-.6,2.8-.5,3.6,1h0c7.2,7.5,13.4,13.5,20.6,20.9,1.2,1.3,2.5,2.6,3,4.3,1,3.6-2.2,7.3-5.9,8.1Z"/><path class="cls-5" d="M59.5,60.7c1.1.2,2.3,0,3.3-.7"/><path class="cls-4" d="M105.2,55.6h-.4c.8-2.2,1.3-4.4,1.3-6.6.5-3.4-6.8-5.1-9.7-6.7-2-1.7-14-5.2-17.5-4.1-3.6,1.8-6.1,1.5-7,6-.9,4.5-4.6,16.2-4.8,15.9-1.6-2.2-3.7-5.7-4.9-8.1-.7-1.5-2.4-2.1-3.7-1.5-1.3.6-2.2,4.5-2.1,6.2,0,1.7,1.1,3.2,2.4,3.9.3.1.5.2.8.3l-.4.8c-.3,2.9.1,7.2.4,8.2,0,.3.2.6.2.9.4,1.9.6,4.1.5,6.3-10.5-6.4-11.1-41.3-3.9-47.3,5.7-4.8,2.9-8.1,12.3-9.6,9.4-2.5,30,2.3,40.1,6,2.8,8.2,1.4,24.3-3.5,29.6Z"/><path class="cls-1" d="M86.8,98.6h0c-1.2,0-2.5,0-3.7-.2-.2-1.3-.8-2.8-1.9-4.4h0c.2,0,.3,0,.5.1.6.2,1,.3,1.3.3.3.2.9,1.1,1.1,1.3,1,.9,1.8,1.8,2.6,2.8Z"/><path class="cls-1" d="M79.1,104.2c-6.6,1.8-15.2-2.6-22.6-10-1.1-1.1-2.2-2.3-3.2-3.5,1.4-.3,2.6-.5,3.5-.6,3.9,5.4,12.2,8,14.8,8.7,2.5.7,5.8.5,7.3-1.7.5-.8.2-3.8.2-4.3.8.5,1.5.9,2.2,1.1h0c1.1,1.7,1.7,3.2,1.9,4.5.6,3-1,5-3.9,5.8Z"/><path class="cls-1" d="M34.1,138.7c-1.9-1.3-4-2-7.3-2.6"/><path class="cls-1" d="M52.9,156.1c-.3,0-.6,0-.8,0"/><path class="cls-1" d="M64.8,158.7c-1.2-.7-2.4-1.2-3-1.7"/><path class="cls-1" d="M64.8,158.8s0,0,0,0"/><path class="cls-5" d="M65.9,165.1c1.6,2,.4,4.1-.9,4.9,1.9,1.3-.2,3.6-1.3,4,1.6,4.8-7.5,2.7-9.5,1.6-2.8-1.5-7.5-5.1-7.1-8.8-1.4-1.1-3.4-2.3-5.6-3.5-4-2.1-8.6-4.2-11.3-5.9-5.6-3.6-13.9-12.9-12.5-19.9,1-1.9,2.6-6.2,3.6-8.2,3,1.6,9.7,4,13.7,7.3-1,2,0,.2-1,2h0c1.6,1.1,3,2.5,4.9,4.7,1.3,1.4,2.7,3.7,4.3,5.9,2.3,3.2,5.1,6.3,8.7,6.8v-.2c4.1,0,12.2-3.4,12.8,2.8,2.7,1.5,5.4,3.6,1.1,6.4Z"/><path class="cls-1" d="M21.4,129.3s0,0,0,0"/><path class="cls-4" d="M86.5,54.2c-1.9-.5-8.7-1.1-8.7-1.4.3-3.3,5.6-2.4,8.4-1.5,2.7.8.9,3.1.3,2.9Z"/><path class="cls-4" d="M101,59.2c0,.8-.9,1.4-1.5,1.1-.5-.2-3.2-1.5-3.8-1.8-1.4-.8-.2-2.8.9-3,1.2-.2,4.5,2.9,4.4,3.6Z"/><path class="cls-1" d="M56.8,94.1c0,0-.2,0-.3.1"/><path class="cls-1" d="M49.9,96.4s0,0,0,0"/><path class="cls-1" d="M83,98.4c-.1,0-.2,0-.3,0"/><line class="cls-7" x1="38.3" y1="272.2" x2="38.3" y2="272.2"/><path class="cls-7" d="M22.9,266.5s0,0,0,0"/><line class="cls-7" x1="105.2" y1="278.8" x2="105.2" y2="278.8"/><path class="cls-1" d="M44.6,123.9c0,0-.1,0-.2,0"/></svg>