<?xml version="1.0" encoding="UTF-8"?><svg id="usa" xmlns="http://www.w3.org/2000/svg" width="235" height="321.9" viewBox="0 0 235 321.9"><defs><style>.cls-1{fill:#dbbb93;}.cls-1,.cls-2,.cls-3,.cls-4,.cls-5,.cls-6,.cls-7,.cls-8{stroke:#000;stroke-linecap:round;stroke-linejoin:round;}.cls-2{fill:#dfcad2;}.cls-3{fill:#9facc0;}.cls-4{fill:#6b7d99;}.cls-5{fill:#ddc5b7;}.cls-6{fill:#fff;}.cls-7{fill:none;}</style></defs><path class="cls-4" d="M111.6,251.5c-.1,0-.3,0-.4,0-7.3,1.4-10.5,1.4-18.3,2.8-1-8.6-4.2-19.6-6.2-24.5-7.5-18.2-9.7-23-15.9-34.2-1.2,13.6-3.5,23.3-4.5,29.7-.8,5.5-7.1,25.6-12.8,37.9-7.6-2.1-12.2-3.9-18.5-9.2,4.2-13.5,9.3-30.7,9.1-33.9-1-14.8-5.8-36.2,0-61.1,2.2,2.3,4.3,4.5,6.5,6.2.1-.7.3-1.4.5-2.1h.3c-.2,3.4,4,6.8,6.5,8.2,1.8,1,9.8,3.3,8.1-1.1,1-.3,2.7-2.3,1-3.5.6-.3,1.2-1.1,1.3-2h0c1.3,0,2.6.1,4,.2,4,.2,8.1.2,11.8-.6h.3c7.6,19.8,20,36.6,25.6,64.7,1.4,4.8,1.9,14.9,1.7,22.6Z"/><path class="cls-2" d="M72.9,114h-.2c-4.6-6.5-13.9-12.1-21.9-11.5.5-2.1,1.4-4.2,2.8-5.9-3.1-.9-6.3-1.4-9.5-1.5.6-1.3,1.4-2.7,2.6-3.6.6-.5,1.4-.9,2.2-1,2.5-.3,4.7-.5,6.7,0h.4c0,.4-.1.7-.1.9,7.4,5.1,14.1,14,17.1,22.5Z"/><path class="cls-2" d="M76.6,95.8c1.1,1.2,2,2.7,2.6,4.3-2.8,3.5-4.2,8.9-5.5,13.5,0,0,0,0,0,0-.1.4-.2.8-.4,1.2.7-5.6-.1-12.3-1.1-18.1,0-.1,0-.3,0-.4,0,0,0-.1,0-.2-.3-1.9-.4-3.7-.2-5.4h.2c1.8.2,4.4,1,8.5,2.9-.7.3-1.2.5-1.8.8-.8.4-1.4.8-2.3,1.4Z"/><path class="cls-2" d="M73.3,115c0,0,0,.1,0,.2"/><path class="cls-2" d="M73.7,113.6c-.1.4-.2.8-.4,1.2,0,0,0,0,0,0,0,.1,0,.2,0,.3,0,0,0,0,0,0h0c-.1-.4-.2-.7-.4-1.1h-.2c-4.6-6.5-13.9-12.1-21.9-11.5.5-2.1,1.4-4.2,2.8-5.9-3.1-.9-6.3-1.4-9.5-1.5.6-1.3,1.4-2.7,2.6-3.6l-5.2,1.1c-.3,0-.6.2-.9.5-4.7,4.4-15.1,38-15.8,42.8-.9,5.9,8.1,13.7,13.2,17.4,0,0,0,0,0,0,2,1.5,3.9,3.6,5.9,5.6,1-3.4,2.8-6.6,5.1-9.2l.3-.9c1.6,1.6,3.4,3.2,5.4,4.4.2.1.4.2.6.3,3.6,0,10.2-2.4,10.9,3,2.4,1.5,4.8,3.4,1.2,5.7.4.5.6,1,.7,1.4,0,.3,0,.6,0,.9h0c1.3,0,2.6.1,4,.2-1.2-18.6.4-36.2,1.5-51.3ZM46.3,141.1c-.1,1.8,0,2.5-.3,3.9-1-1.1-1.8-2.2-2.6-3.1-3-3.5-3.3-3.6-5.4-5.1h0c.6-1.3,3.8-12.3,5.9-18.5h.2c0,0,0,0,.1.2.3,1.2,1.1,6.7,1.2,8.2.3,4.5,1.1,10.6.9,14.4Z"/><path class="cls-2" d="M73.7,112.7c0,.3,0,.5,0,.8"/><path class="cls-2" d="M102.1,147.4c-2.9,3-4.7,7.2-4.8,11.4h0c-3.1-2-6.2-4.1-8.5-5.1-1.8-.8-3.8-1.1-6.2-2.6h-.5c.4,3.2.8,6.7,1.2,10.6.3.8.6,1.6.9,2.4h-.3c-3.7,1-7.8.9-11.8.8-1.2-18.6.4-36.2,1.5-51.3,0,0,0,0,0,0,1.3-4.6,2.7-9.9,5.5-13.5-.6-1.6-1.4-3-2.6-4.3.9-.6,1.6-1,2.3-1.4q1.2.7,4.3,3.2c2.1,1.7,4.1,7.9,3.9,12.3,0,1.9-.1,3.6-.2,5.1-.2,8.3,0,11.3-1.3,20.3,0,.6-.2,1.3-.3,2,2.2,1.4,3.4,1.9,6.2,4.1,2.2,1.7,6.5,3.9,10.5,6.1Z"/><path class="cls-5" d="M92.6,51.3c-1-8.3-4.5-12.1-12.7-18.1-5,6.8-10.9,13.1-17.4,18.5-2.2,1.8-4.8,3.7-7.6,3.2-1.2-.2-2.6-2.1-3.9-2.3-3.4-.6-4.4,5.7-3.8,9,.6,3.4,2.9,3.9,5.9,2.2-1,7.6,1,12.5,3.4,15.6,1.7,2.2,3.6,3.5,4.8,4.2,4.7,2.8,8.2,4.4,10.9,5.2,6.9,1.9,8.8-1.7,11.7-5.9,1.6-2.3,3.3-4.2,6.6-10.6,2.6-4.9,2.7-10.7,2.7-11.3h0c-.2-4-.4-7.4-.7-9.9ZM71.7,60.1c-.9-.2-1.3-1.6-.9-3.1.4-1.5,1.4-2.6,2.3-2.4.9.2,1.3,1.6.9,3.1-.4,1.5-1.4,2.6-2.3,2.4ZM72.5,73.3c6.2,2.1,7.7,3.6,10.8,3.6-3.9,8.8-10.9,2.1-10.8-3.6ZM90.4,62.1c-.4,1.6-1.4,2.7-2.2,2.5-.8-.2-1.2-1.6-.8-3.2.4-1.6,1.4-2.7,2.2-2.5.8.2,1.2,1.7.8,3.2Z"/><path class="cls-5" d="M73.3,114.8s0,0,0,0c0,0,0,.1,0,.2-.1-.4-.2-.7-.4-1.1-3-8.5-9.7-17.4-17.1-22.5,0-.3,0-.5.1-.9.4-2.7,1-7.3.6-11,1.7,2.2,3.6,3.5,4.8,4.2,4.7,2.8,8.2,4.4,10.9,5.2-.1.6-.2,1.2-.2,1.8-.2,1.7-.1,3.4.2,5.4,0,0,0,.1,0,.2,0,.1,0,.3,0,.4.9,5.8,1.7,12.5,1.1,18.1Z"/><path class="cls-7" d="M56.6,79.6c0,0,0-.1,0-.2"/><path class="cls-7" d="M55.8,91.5c0,.2,0,.3,0,.5"/><line class="cls-7" x1="47.3" y1="91.4" x2="46.7" y2="91.5"/><line class="cls-7" x1="44.6" y1="118.4" x2="44.1" y2="118.5"/><path class="cls-7" d="M83.7,108.7c.7,2.1,1,4.2,1,6.2,0,5.7-2.3,10.4-2.9,12.7-1.5,5.4-.9,12.2.4,23.5.4,3.1.8,6.6,1.2,10.6"/><path class="cls-7" d="M46,145c0,.1,0,.2,0,.4"/><path class="cls-7" d="M44.1,118.3s0,.1,0,.2"/><path class="cls-7" d="M91.6,54.9c-.1-2.6-2.5-2.6-3.6-1.3"/><path class="cls-7" d="M75.3,48.9c-1.2-2-3.7-2.7-6.4-.5"/><path class="cls-7" d="M83.4,65.6c1.8,2.7,1.8,2.5,3.2,3.7-1.3,2.3-2.1,2.6-4.4,3.2"/><line class="cls-7" x1="68.3" y1="163.8" x2="68.2" y2="163.8"/><line class="cls-7" x1="55.2" y1="153.6" x2="55.1" y2="153.7"/><path class="cls-7" d="M45.6,114.1c-.3.5-.9,2-1.6,4.1"/><path class="cls-7" d="M38.6,153.6c-.1-.1-.3-.2-.5-.3"/><path class="cls-7" d="M38,136.8c-.6-.4-1.3-.9-2.2-1.6"/><path class="cls-7" d="M49.4,148.8c-1.2-1.3-2.4-2.6-3.4-3.8"/><path class="cls-7" d="M55.9,153.8c-.1,0-.3-.1-.4-.2"/><path class="cls-7" d="M66.3,156.6c-1.1-.6-2.1-1.2-2.7-1.6"/><path class="cls-7" d="M66.3,156.7s0,0,0,0"/><path class="cls-7" d="M55.2,153.6h.3"/><path class="cls-7" d="M104,163.1c0,0-.1,0-.2-.1"/><path class="cls-2" d="M108.6,151.1v.3c-.2.2-.3.4-.5.6-2.1,3.1-3.6,6.6-4.2,10.3,0,.2,0,.5,0,.7h0c-1.8-1-4.1-2.5-6.4-4.1,0-4.2,1.8-8.4,4.8-11.4,2.4,1.3,4.8,2.6,6.4,3.6Z"/><path class="cls-7" d="M71.6,182.2c-.1,4.8-.4,9.3-.8,13.4"/><path class="cls-3" d="M53.5,263.3c-2.2,4.8-4.3,8.5-5.9,9.6-5.7-1.9-10.4-3.7-16.1-7.5.9-3,2.2-7,3.5-11.4,6.4,5.3,11,7.1,18.5,9.2Z"/><path class="cls-7" d="M44.2,159s0,0,0,0"/><path class="cls-3" d="M111.2,251.6c-.2,4-.4,7.1-.7,9.8-.8.7-2.8,1.3-3.8,1.5-4.4.8-8.9,1.5-13.3,2.3-.2-3.4-.1-3.9-.3-7.5,0-1-.1-2.1-.3-3.3,7.8-1.4,11-1.4,18.3-2.8Z"/><path class="cls-7" d="M70.8,195.6l-.2-.3"/><path class="cls-7" d="M55,153c0,0,0,.2-.1.2"/><path class="cls-7" d="M55.8,91.5l-.7-.5"/><path class="cls-7" d="M72.2,96.1c0-.5-.2-1-.2-1.5"/><path class="cls-7" d="M72.2,165s0,0,0-.1"/><path class="cls-7" d="M44.2,159c-.1.3-.3.6-.4.9,0-.3.2-.7.3-1"/><path class="cls-7" d="M44.2,159s0,0,0,0"/><path class="cls-7" d="M97.4,158c0,.3,0,.5,0,.8v.4"/><path class="cls-7" d="M97.4,159.2h0c0-.2,0-.3,0-.4"/><path class="cls-7" d="M102.2,147.3h-.1"/><path class="cls-2" d="M54.9,153.2c-1.7,3.1-3,6.4-3.8,9.8h0c-.2.7-.3,1.4-.5,2.1-2.1-1.6-4.3-3.9-6.5-6.2h0c0,0,0-.1-.1-.1,1-3.4,2.8-6.6,5.1-9.2l.3-.9c1.6,1.6,3.4,3.2,5.4,4.4Z"/><path class="cls-5" d="M67.5,162.4c.4.5.6,1,.7,1.4,0,.3,0,.6,0,.9-.1.9-.7,1.7-1.3,2,1.7,1.3,0,3.2-1,3.5,1.6,4.3-6.4,2.1-8.1,1.1-2.5-1.4-6.7-4.8-6.5-8.2h-.3c.8-3.5,2.1-6.8,3.8-9.9.2.1.4.2.6.3,3.6,0,10.2-2.4,10.9,3,2.4,1.5,4.8,3.4,1.2,5.7Z"/><path class="cls-7" d="M111.6,251.5c0,5.2-.5,9.3-1,9.8,0,0,0,0,0,0"/><path class="cls-7" d="M111.6,251.5s0,0,0,0"/><line class="cls-7" x1="92.9" y1="254.4" x2="92.9" y2="254.4"/><path class="cls-5" d="M47.6,272.8c-4.3,6.8-6.9,8.3-13.6,17.1-.5.5-.9.9-1.3,1.4-.9,1-8,.1-9.9-1.8,5.2-10.8,5.8-13.9,8.6-24.2,5.7,3.7,10.4,5.6,16.1,7.5Z"/><path class="cls-6" d="M46.9,318.6c-9.7-2.2-14.8-5.3-29.4-15.4-1-.7-2.1-1.3-2.4-2.5-.2-.8.1-1.7.5-2.5,1.5-3.4,4.6-6.6,6.8-9.6,0,.3.2.6.4.9,1.9,1.9,9,2.8,9.9,1.8.4-.5.8-1,1.3-1.4.6-.6,1.2-1.1,2-1.5,1.4-.6,2-.6,2.8.7,6,11.9,5.9,13.2,15.2,18.6,1.3.8,3,1.2,3.3,2.7,1.7,7.5-4.2,9.5-10.4,8.1Z"/><path class="cls-5" d="M110.5,261.4c-.9,10.5-1.9,13.2-3.9,28.7-.9.9-1.2,2.2-1.6,3.5-.4,1.2-.9,2.5-1.9,3.3-1.8,1.3-5.9.2-7-1.7h0c0-.7.4-18.7-2.6-29.9,4.4-.8,8.8-1.5,13.3-2.3,1-.2,3-.8,3.8-1.5Z"/><path class="cls-7" d="M111.3,250.3c0,.5,0,.9,0,1.3"/><path class="cls-6" d="M134.6,310.7c-2.4,1.8-5.5,2.1-8.5,2.2-9.1.4-18.8-3.4-27.8-4.4-1.1-.1-2.3-.3-2.9-1.2-.5-.6-.5-1.5-.5-2.2,0-3.4.4-6.7,1.2-10,1.1,1.9,5.3,3,7,1.7,1-.8,1.5-2.1,1.9-3.3.4-1.2.8-2.5,1.6-3.5.9-1,1.3-.9,2.8-.4h.1c7.5,2.9,15.7,8.5,23.1,11.4,1.3.5,2.6,1,3.5,2.1,1.9,2.2.8,5.8-1.6,7.6Z"/><path class="cls-7" d="M80.2,32.9c0,.1-.2.2-.3.3"/><path class="cls-7" d="M79.9,33.2c0,0-.2-.1-.3-.2"/><path class="cls-1" d="M92.3,133.7s0,0,0,0c-.2,0-.4,0-.7,0,2.5-13.4,2.7-51.4,1.7-72.5h0c-.2-4-.4-7.4-.7-9.9-1-8.3-4.5-12.1-12.7-18.1-5,6.8-10.9,13.1-17.4,18.5-2.2,1.8-4.8,3.7-7.6,3.2-1.2-.2-2.6-2.1-3.9-2.3-3.4-.6-4.4,5.7-3.8,9,.6,3.4,2.9,3.9,5.9,2.2-1,7.6,1,12.5,3.4,15.6.4,3.7-.2,8.4-.6,11h-.4c-2-.6-4.2-.4-6.7-.1-.8,0-1.6.5-2.2,1l-5.2,1.1c-.3,0-.6.2-.9.5l-.2-.3c-1.2-9.6-2.3-19.3-1.5-29,.8-9.7,3.6-19.4,9.7-27,6.1-7.6,16.1-12.5,25.8-11.5,7.3.5,14.3,4.1,19.1,9.6,4.8,5.5,7.3,13,6.8,20.3,2.2,19.1-2.5,76.4-7.9,78.6Z"/><path class="cls-6" d="M83.3,76.9c-3.9,8.8-10.9,2.1-10.8-3.6,6.2,2.1,7.7,3.6,10.8,3.6Z"/><path class="cls-8" d="M90.4,62.1c-.4,1.6-1.4,2.7-2.2,2.5-.8-.2-1.2-1.6-.8-3.2.4-1.6,1.4-2.7,2.2-2.5.8.2,1.2,1.7.8,3.2Z"/><path class="cls-8" d="M74,57.7c-.4,1.5-1.4,2.6-2.3,2.4-.9-.2-1.3-1.6-.9-3.1.4-1.5,1.4-2.6,2.3-2.4.9.2,1.3,1.6.9,3.1Z"/><path class="cls-1" d="M92.3,133.7c-1.9,1.3-4.3,1.8-6.5,1.5,1.2-9,1.1-12,1.3-20.3,0-1.5,0-3.2.2-5.1.2-4.4-1.8-10.7-3.9-12.3q-3.1-2.5-4.3-3.2c.5-.2,1.1-.5,1.8-.8-4.1-1.9-6.7-2.7-8.5-2.9h-.2c0-.6.1-1.2.2-1.8,6.9,1.9,8.8-1.7,11.7-5.9,1.6-2.3,3.3-4.2,6.6-10.6,2.6-4.9,2.7-10.7,2.7-11.3,1,21.1.8,59.1-1.7,72.5.2.1.5.1.7,0Z"/><path class="cls-7" d="M92.3,133.7s0,0,0,0c0,0,.1,0,.2-.1"/><path class="cls-5" d="M114.8,168.2c-2.5,1.2-9.6-3.5-10.8-5.9h0c.6-3.7,2-7.2,4.2-10.3,2-2.1,10.7,1.4,11.8,4.1,1.2,2.9-3.1,11.1-5.2,12.1Z"/></svg>