<?xml version="1.0" encoding="UTF-8"?><svg id="usa" xmlns="http://www.w3.org/2000/svg" width="235" height="321.9" viewBox="0 0 235 321.9"><defs><style>.cls-1{fill:#7c583c;}.cls-1,.cls-2,.cls-3,.cls-4,.cls-5,.cls-6,.cls-7,.cls-8,.cls-9,.cls-10,.cls-11,.cls-12{stroke:#000;stroke-linecap:round;stroke-linejoin:round;}.cls-2{fill:#342f29;}.cls-3{fill:#606060;}.cls-4{fill:#111110;}.cls-5{fill:#8a8a8a;}.cls-6{fill:#ac6070;}.cls-7{fill:#c08d23;}.cls-8{fill:#fff;}.cls-9{fill:#6b3237;}.cls-10{fill:#6b3137;}.cls-11{fill:none;}</style></defs><path class="cls-1" d="M97,39.9c-5.9-1.3-12.2-.3-17.9,4.3-4.8,3.9-9.4,9.5-8.2,15.7-.6-.6-1.4-.9-2.3-.9h0c-1.7,0-3.4,1.1-3.9,2.8-.7,2.6,2.1,7.2,4.6,6.6.6,5.1,1.8,8.2,4.2,12.7,0,0,0,0,0,0,5.9,7.7,10.4,10.4,14.2,10.4s.2,0,.3,0c3.8-.1,6.9-3,10-5.8,1.8-1.8,4.5-4.7,7.7-10.7,1.7-3.2,2-6.6,2-8.5,0-1,0-1.6,0-1.6.1-.4.2-.7.4-1,1-2.9,1.3-4.2,1.6-7.2.9-3.4-3.4-14.8-12.6-16.9ZM79.8,53.6c-.8.2-1.3-.7-.7-1.2.4-.3.8-.6,1.2-.9,1.1-.8,2.6-1.1,4-1.2,2.2-.1,9.4.7,7.9,3.6-.3.6-1.2,1.1-2,1.1-.9,0-1.7-.4-2.5-.7-2.3-.8-5.5-1.3-8-.8ZM86.5,62.4c-.2,1.6-1.1,2.8-2,2.7-.8-.1-1.3-1.5-1.1-3.2s1.1-2.8,2-2.7c.8.1,1.3,1.5,1.1,3.2ZM91.4,83.4c-1.6,0-4-1.1-5.4-2.5-1.3-1.4-1.4-.6-2.7-4,.7,1.2,8.9,4.7,13.4,3.2-1.4,2.2-2.8,3.2-5.4,3.3ZM103.6,64.5c-.2,1.4-.9,2.5-1.6,2.4-.7,0-1.1-1.3-.9-2.7.2-1.4.9-2.5,1.6-2.4.7,0,1.1,1.3.9,2.7ZM107.3,58.2c-.2.2-.6.2-.9,0-.3-.1-.6-.3-.9-.5-.8-.5-1.8-.6-2.7-.4-.7.2-1.3.6-2,.4-.9-.1-1.5-1.2-1.4-2.1.2-.9.9-1.6,1.8-1.9,2.3-.6,4.6.8,5.9,2.5.2.2.4.5.4.8,0,.3,0,.6-.2.8Z"/><path class="cls-11" d="M97.8,153.1c0-.1,0-.2,0-.4"/><path class="cls-11" d="M54,161.4c0,.5-.1.9-.2,1.1"/><path class="cls-11" d="M55.6,105.2c-.4,2.5-1.6,5.5-1.9,10.1"/><path class="cls-11" d="M70.8,92.4c0,0,.1,0,.2,0,0,0,0,0,.1,0"/><path class="cls-7" d="M106.6,204.2c0,0-.2,0-.3.1-7.8-1.8-16.4-3.9-24.1-6.3-.4-.1-.7-.2-1.1-.3-8.8-3.5-16.5-5.9-22-13.1-4.3-5.5-5.5-14.7-4.1-23.3,2.3-.6,5.4-.8,8.6-.6.7,0,1.4,0,2.2.1.4,0,.9,0,1.3.1.6,0,1.2.1,1.9.2,0,0,.1,0,.2,0,0,0,.2,0,.2,0,.3,0,.6,0,.9.1,0,0,.2,0,.3,0,.1,0,.2,0,.3,0,.1,0,.3,0,.4,0,2.5.3,4.7.7,6.5,1.1,2.2,0,4.6.2,6.9.3v.6c6.2,1.5,13.5,4.3,20.9,7.8,2.8,1.3,5.7,2.7,8.5,4.2-7.9,7.5-7.6,29-7.5,28.8Z"/><path class="cls-10" d="M105.6,171.3c-7.4-3.4-14.7-6.3-20.9-7.8v-.6c2.3,0,4.6,0,6.7-.2,3.1-.3,5.6-1.8,8.6-1.9,2.2,4,3.6,5.2,5.7,10.4Z"/><line class="cls-11" x1="105.6" y1="171.3" x2="105.6" y2="171.3"/><path class="cls-1" d="M51.7,117c-3.8,3.5-9.8,10-14.4,13.1-.9.7-1.7,1.5-2.3,2.4-5,8.2-8.9,12.4-12.7,19.6h.1c2.8.8,5.5,10.3,3.6,12.3-2,2.2-13.2,3.2-15.1,2-2.2-1.4.2-9.7,1.7-11.8,3.1-13.1,5-19.9,13.3-30.9,3.3-4.4,8.9-10.6,12.9-14.8.2-.2,3-3,6.7-6.2,1,5.3,1.9,10.1,5.8,13.9l.2.2Z"/><path class="cls-11" d="M22.3,152.2c-.1.2-.2.4-.3.6"/><path class="cls-1" d="M119.7,142.3c-8.3,5.8-14.3,8.8-21.9,10.8-4.1,1.1-8.6,1.9-14.2,2.9-2,1.3-8.9,3.5-12.4,3.1-.8-.1-1.5-.3-1.8-.8-1.6-1.9-1.1-13.5,1.5-15.6,2.4-2,14.2.3,15.2,3.1h0c4.4-2,7.5-3.1,10.9-4.4,2.7-1,5.6-2.2,9.4-4.1-3.6-8.3-5.1-11.3-6.2-13.8-.4-.9-.7-1.7-1.1-2.7,2.8-3.7,7.3-6,11.9-6.4,1,3,2.1,5.7,3,7.4,3.3,6.2,8.4,17,5.7,20.4Z"/><path class="cls-11" d="M83.6,156c-.1,0-.2,0-.3,0"/><path class="cls-11" d="M86.1,146c-.2.1-.4.2-.7.3"/><path class="cls-1" d="M109.7,135.6c-1.2.7-2.3,1.2-3.3,1.8"/><path class="cls-6" d="M99.1,120.9c.4,1,.7,1.8,1.1,2.7h0c-.6,4-1.4,5.6-1.9,7.7-.9,3.8-1.3,5.1-1.3,10.2-3.4,1.3-6.6,2.4-10.9,4.5h0c-1-3-12.8-5.2-15.2-3.2-2.6,2.1-3,13.7-1.5,15.6,0,0,0,.1.1.1,0,0,.1.1.2.1,0,0,.1,0,.2.1.1,0,.3.1.5.2.2,0,.3,0,.5.1,0,0,.2,0,.3,0,.1,0,.3,0,.4,0,3.7.2,10.1-1.9,12-3.2,5.6-.9,10.1-1.8,14.2-2.9.5,2.5,1.3,4.3,2.1,7.7-3,0-5.5,1.5-8.6,1.9-2.1.2-4.4.2-6.7.2-2.4,0-4.7-.3-6.9-.3-1.8-.4-4-.8-6.5-1.1-.1,0-.3,0-.4,0-.1,0-.2,0-.3,0-5.5-.7-11.7-1.1-15.6,0-.2,0-.4,0-.5.2h-.5c.6-4.2,2.3-17.4,2.4-19,.2-3.6-.5-9.3-.9-13.7-1.6-5.8-2-10.1-1.8-13.5h0c-.6.4-1.2,1-2,1.7l-.2-.2c-3.9-3.8-4.8-8.6-5.8-13.9,5.2-4.4,12.3-9.7,17.1-9.7,1.8,0,3.7-.2,5.5-.4h0c-3.9,8.9-3.4,19.7,1.5,28.1,9.7-12.1,20.1-25.3,22.6-27.5h0c1.2.2,2.4.5,3.2.5,3.5.8,7.6,3.5,9.8,6.2,1.5,1.7,3.7,8.5,5.7,14.4-4.6.4-9,2.8-11.9,6.4Z"/><path class="cls-11" d="M99.1,120.9c-.6-1.6-1.3-3.6-2.4-7"/><path class="cls-11" d="M55.1,160.9c0,.1,0,.3,0,.4"/><path class="cls-11" d="M88,92.8h0"/><path class="cls-8" d="M96.7,80.1c-1.4,2.2-2.8,3.2-5.4,3.3-1.6,0-4-1.1-5.4-2.5-1.3-1.4-1.4-.6-2.7-4,.7,1.2,8.9,4.7,13.4,3.2Z"/><line class="cls-11" x1="70.8" y1="93.4" x2="70.8" y2="93.4"/><path class="cls-12" d="M103.6,64.5c-.2,1.4-.9,2.5-1.6,2.4-.7,0-1.1-1.3-.9-2.7.2-1.4.9-2.5,1.6-2.4.7,0,1.1,1.3.9,2.7Z"/><path class="cls-12" d="M86.5,62.4c-.2,1.6-1.1,2.8-2,2.7-.8-.1-1.3-1.5-1.1-3.2s1.1-2.8,2-2.7c.8.1,1.3,1.5,1.1,3.2Z"/><path class="cls-11" d="M97.9,73.3c.2,3.9-3.5,2-6.4,2"/><path class="cls-2" d="M108.4,64.2h-.4c1-3,1.3-4.3,1.6-7.4.9-3.4-3.4-14.8-12.6-16.9-5.9-1.3-12.2-.3-17.9,4.3-4.8,3.9-9.4,9.5-8.2,15.7-.6-.6-1.4-.9-2.3-.9h0,0c-.3-9.1,4.5-18.2,12-22.4,7.5-4.2,17.4-3.1,23.6,2.9,6.2,6,8,16.6,4.1,24.6Z"/><path class="cls-7" d="M107.7,66.6c0-1,0-1.6,0-1.6.1-.4.2-.7.4-1h.4c3.9-7.9,2-18.5-4.1-24.5-6.2-6-16.1-7.2-23.6-2.9-7.5,4.2-12.4,13.3-12,22.3h0c-1.7.1-3.4,1.2-3.9,2.9-5.2-12.7-.3-23,7.7-28.8,1-.7,2-1.3,3-1.9.6-.3,1.3-.6,1.9-.9,1.3-.6,2.7-1,4.2-1.3,7.1-1.5,14.9.1,20.8,4.4,0,0,0,0,0,0,1.2.9,2.4,1.9,3.4,3,7.3,8.1,8.2,21.3,1.9,30.2Z"/><path class="cls-11" d="M107.7,66.6s0,0,0,.1"/><path class="cls-7" d="M77.4,30.2h0c-.6.4-1.3.7-1.9,1-1,.6-2.1,1.2-3,1.9-5.3.4-9.9-2.5-11.4-7.6,4.3-1,9.1.2,12.5,3.1-1.6-4.1-.4-9.2,3-12,3.1,3.8,3.5,9.5.9,13.6Z"/><path class="cls-11" d="M61.6,36.2c-.2.2-.4.5-.6.8"/><path class="cls-11" d="M72.6,33.1s0,0-.1,0"/><path class="cls-2" d="M83.7,25.2c-.1.3-.2.6-.3.9-.4,1.2-.8,2.2-1.9,2.4v.4c-1.3.3-2.7.7-4,1.3h0c2.6-4.2,2.2-9.9-.9-13.7-3.4,2.9-4.6,7.9-3,12-3.3-2.9-8.1-4.1-12.5-3.1,1.5,5.1,6.1,8,11.4,7.6-8,5.8-12.9,16.1-7.7,28.8-.7,2.6,2.1,7.2,4.6,6.6.6,5.1,1.8,8.2,4.2,12.7,0,0,0,0,0,0-.1-.2-.3-.4-.4-.6-13.4-4-15.9-17.2-17.1-24.4-1.2-6.8.6-13.8,5-19.4-.8.2-1.6,0-2.3-.3-1.2-.7-1.8-2.4-1.3-3.7-1.5.5-3.3-.1-4.2-1.4-.9-1.3-.8-3.1.1-4.3-2.2-.8-3.6-3.5-2.8-5.7.7-2.2,3.4-3.7,5.7-3-1.7-.7-1.9-3.3-.7-4.7,1.2-1.4,3.4-1.7,5.2-1.3-1-1.8-.2-4.4,1.6-5.4,1.9-.9,4.5,0,5.4,1.8-.2.2.3,1.1.1,1.3,1.1-2.1,4-3.2,6.2-2.2,2.2.9,3.4,3.8,2.6,6,1.5-1.1,3.8-.9,5.1.5,1.3,1.3,1.4,3.6.3,5.1,1.7,1.3,2.4,3.7,1.6,5.7Z"/><path class="cls-11" d="M62.6,36c-.4.5-1,.8-1.6.9"/><path class="cls-11" d="M81.5,28.5c-.2,0-.5,0-.8,0"/><path class="cls-4" d="M92.3,54c-.3.6-1.2,1.1-2,1.1-.9,0-1.7-.4-2.5-.7-2.3-.8-5.5-1.3-8-.8-.8.2-1.3-.7-.7-1.2.4-.3.8-.6,1.2-.9,1.1-.8,2.6-1.1,4-1.2,2.2-.1,9.4.7,7.9,3.6Z"/><path class="cls-4" d="M107.3,58.2c-.2.2-.6.2-.9,0-.3-.1-.6-.3-.9-.5-.8-.5-1.8-.6-2.7-.4-.7.2-1.3.6-2,.4-.9-.1-1.5-1.2-1.4-2.1.2-.9.9-1.6,1.8-1.9,2.3-.6,4.6.8,5.9,2.5.2.2.4.5.4.8,0,.3,0,.6-.2.8Z"/><path class="cls-2" d="M102.4,33.4c-5.9-4.3-13.7-5.9-20.8-4.4v-.4c1-.3,1.4-1.2,1.8-2.4,7-.3,14,2.4,19,7.3Z"/><path class="cls-11" d="M103.1,34.1c-.2-.2-.4-.4-.7-.7"/><path class="cls-11" d="M83.4,26.1h0"/><path class="cls-11" d="M111.1,114.5s0,0,0,0"/><path class="cls-11" d="M99.1,120.9s0,0,0,0"/><path class="cls-10" d="M92.3,93.5h0c-2.5,2.2-12.9,15.4-22.6,27.5-4.8-8.4-5.4-19.2-1.5-28.1h0c.9-.2,1.8-.3,2.6-.4,0,.3,0,.6,0,.9h0c0,2.2,1.6,4.3,3.6,5.3,2.4,1.1,5.3.8,7.7-.4,2.4-1.1,4.3-3,6.1-5,0,0,0,0,0,0,0,0,0,0,0-.1s0-.1,0-.2c1,0,2.6.4,4.2.7Z"/><path class="cls-1" d="M88.1,93.2c-1.7,2-3.7,3.9-6.1,5-2.4,1.2-5.3,1.5-7.7.4-2-.9-3.6-3.1-3.6-5.2h0c0-.3.1-.6.2-1,.7-2.7,2.2-8.4,2.6-11.1,5.9,7.7,10.4,10.4,14.2,10.4h.3c0,.4,0,.8,0,1.2,0,0,0,.1,0,.2s0,.1,0,.1c0,0,0,0,0,0Z"/><path class="cls-11" d="M70.9,92.2c0,0,0,.2,0,.3"/><path class="cls-11" d="M88,93.2h0"/><path class="cls-11" d="M114.4,175.1c-.1.1-.2.2-.3.3"/><path class="cls-1" d="M115.7,214.4c-1.3-2.6-3.9-4.5-6.9-5.6-4.2-1.6-8.4-1.3-11.3,2.2-2.9,3.4-3.8,7.6-3.6,12.3h0c-2.2-5.3-3.2-9.3-5.4-14.7h-1.1c0,0,0-.1,0-.2h.3c.3-.2.6-.2.9-.2,7.2-.8,12.3-1.4,17.8-3.9,2.6.6,5.1,1.1,7.5,1.6,1,5.6,1.2,5.3,2,8.5Z"/><path class="cls-11" d="M113.7,205.9c0,0,0-.2,0-.3"/><path class="cls-11" d="M116.6,217.8v.2c0-.3,0-.6,0-.9h0c-.1-1-.4-1.9-.8-2.7"/><path class="cls-2" d="M111.7,248.6c-.8,1.7-2,3.3-3.3,4.7-1.7,1.7-3.7,2.7-5.9,2.5-1.6-.2-3.1-1.1-4.2-2.4-.5-.6-1-1.3-1.4-2-1.2-2.3-1.6-4.9-2-7.5-.9-6.8-1.2-13.7-1-20.5h0c-.2-4.7.6-8.9,3.6-12.4,2.9-3.4,7.1-3.7,11.3-2.2,3,1.1,5.6,3,6.9,5.6.2.8.5,1.9.8,3.4,0,10.5-.2,21.5-4.9,30.8Z"/><path class="cls-11" d="M116.6,217.8v-.6h0"/><path class="cls-11" d="M94.1,219.5c0,1.3-.1,2.5-.2,3.8"/><path class="cls-3" d="M107.1,260.2h0c0,0-.2.2-.2.2-2,1.6-5.2,1.5-7.2,0-.1,0-.2-.2-.3-.3-1.7-1.7-2.2-4.5-1.1-6.7,1.1,1.3,2.6,2.2,4.2,2.4,2.2.2,4.2-.8,5.9-2.5,1.2,2.2.6,5.3-1.3,6.9Z"/><path class="cls-11" d="M108.4,253.3c0,0,0-.1-.1-.2"/><path class="cls-5" d="M102.8,291h0c-.4.6-.9,1.1-1.5,1.5-1.5.9-4.1.3-5.9-.9l.2-.2c.2-7.5,3.8-23.3,4.1-31,2,1.6,5.1,1.7,7.2,0,0,0,.2-.1.2-.2-1,9.4-3.6,29.6-4.3,30.8Z"/><path class="cls-11" d="M99.7,260.1c0,0,0,.2,0,.2"/><path class="cls-11" d="M102.8,291c0,0,0,0-.1,0"/><path class="cls-9" d="M134,311.2c-2.8,1.6-6.2,1.7-9.5,1.5-9.9-.6-20.1-5.8-29.7-8.1-1.2-.3-2.4-.6-3-1.6-.4-.7-.4-1.6-.3-2.5.4-3.7,1.2-7.3,2.4-10.7.3.6.9,1.2,1.6,1.7,1.8,1.2,4.4,1.8,5.9.9.6-.4,1.1-.9,1.5-1.4.4-.6.7-1.2,1-1.9.6-1.3,1.1-2.6,2.2-3.5,1.1-.9,1.5-.8,3.1-.2h0c7.8,4.1,16,11,23.8,15,1.3.7,2.8,1.4,3.6,2.7,1.8,2.6.2,6.4-2.6,8.1Z"/><path class="cls-7" d="M106.3,204.3c-5.5,2.4-10.6,3.1-17.8,3.9-.3,0-.6,0-.9,0h-.3c-1.7-3.3-3.4-6.8-5.1-10.2h0c7.6,2.4,16.2,4.5,24.1,6.2Z"/><path class="cls-1" d="M194.9,215.4c-.4.5-.5,1.1-.5,1.9,0,1.6-2.3,12.5-9.1,10.8-17.2-6-21.4.8-35.4-11.9-5.7-4.1-12.4-4.3-19.5-6.6-2.3-.7-8.6-2-16.7-3.7-2.4-.5-4.9-1.1-7.5-1.6,0,0,.2,0,.3-.1,0,.3-.4-21.3,7.5-28.8,15.2,7.8,28.9,16.6,31.9,18.4,7.1,4.4,3.1,2.8,10.6,6.4,15.9,5.9,22.4,9.3,38.3,15.2Z"/><path class="cls-9" d="M233.9,222.2c-1.7,3.2-5,5.1-8.2,6.8-9.8,5-20.4,8.4-30.9,11.7-1.3.4-2.7.8-3.8.2-.8-.5-1.3-1.3-1.7-2.2-1.7-3.7-3.1-6.6-3.9-10.6,6.7,1.8,9.1-9.2,9.1-10.8,0-.8.1-1.4.5-1.9.3-.5.9-.8,1.6-.8,9.7-.6,20.6-1.5,30.3-2.1,1.7,0,3.4-.2,5,.5,3.2,1.5,3.8,6.1,2.1,9.2Z"/></svg>