<?xml version="1.0" encoding="UTF-8"?><svg id="usa" xmlns="http://www.w3.org/2000/svg" width="235" height="321.9" viewBox="0 0 235 321.9"><defs><style>.cls-1{fill:#50637f;}.cls-1,.cls-2,.cls-3,.cls-4,.cls-5,.cls-6,.cls-7,.cls-8,.cls-9,.cls-10{stroke:#000;stroke-linecap:round;stroke-linejoin:round;}.cls-2{fill:#e1a73f;}.cls-3{fill:#e0bfa4;}.cls-4{fill:#9c6548;}.cls-5{fill:#a1624e;}.cls-6{fill:#68513e;}.cls-7{fill:#ddd2c7;}.cls-8{fill:#fff;}.cls-9{fill:none;}</style></defs><path class="cls-7" d="M99.9,168.2c-.4-1.2-1-4.1-1.8-7.8-1.7-6-3.5-26.1-6.4-30.8-1.8-2.9-2.8-5.3-5.8-6.9-1.1-.6-4.7-1.7-8-2.6v.3c-1.7,3.8-5.9,5.8-10,6.5-7.6,1.3-15.8-1.4-21.2-6.9-3.9,1-8.1,2.1-8.8,2.4-1.7.8-1.8,1-3,2.4-2.4,2.8-5.9,16.7-7.4,21.7-1.4,4-4.1,20.3-4.3,23-.3,5.7,8.7,13.4,13.9,15.6.6.2,1.3.5,2.1.8,2.2.7,5,1.5,7.6,2.3h0c-.3-3.3.7-6.7,2.8-9.3h0c2.1,1.6,4.4,2.8,6.7,2.5,3.5-.6,9.3-4.3,10.5.7.2,0,.3.1.5.1,2.5.7,5.8.4,9.5-1.3h0c2.7,1.7,4.6,4.5,5.2,7.6v.5c1.7-1.3,3.6-2.2,5.8-3.5.5-.3,1.1-.6,1.6-.9,6.3-3.7,12.9-8.7,10.5-16.3ZM42,171.4c-1.9-1.5-3.3-2.4-4.8-3.1.7-1.2,1.2-2.5,1.6-3.8.9-3,2.2-7.8,3.6-13h.3c-.1,2.1-.3,17.3-.7,19.9Z"/><path class="cls-3" d="M71.9,118.6c-1.4,4.5-6.9,7.8-12.3,5.4-3.9-1.7-6.2-3.3-5.9-6.1.2-2.3.3-5.6.3-9.2,6.7,5.4,11.6,7.2,15.8,7h2.5c0,1,0,1.9-.3,2.8Z"/><line class="cls-9" x1="53.9" y1="108.9" x2="53.9" y2="108.8"/><path class="cls-2" d="M77.8,120.1v.3c-1.7,3.8-5.9,5.8-10,6.5-7.6,1.3-15.8-1.4-21.2-6.9,3.3-.8,6.4-1.7,6.9-2-.2,2.8,2,4.3,5.9,6.1,5.4,2.4,10.9-1,12.3-5.4h.4c.8.3,3.1.8,5.6,1.5Z"/><path class="cls-9" d="M44.8,141.6c-.7,3.2-1.5,6.7-2.4,10"/><path class="cls-9" d="M53.1,191.9c0,0-.2,0-.3,0"/><path class="cls-9" d="M77.7,192.7h-.8"/><path class="cls-7" d="M87.7,185.4c0,1.8-.1,3.5-.2,5.2-.2,0-.4,0-.5,0-2.7.2-5.5,1.6-8.4,1.9,1.1-1.6,2.2-2.7,3.4-3.7,1.7-1.3,3.5-2.2,5.7-3.5Z"/><path class="cls-9" d="M85.8,138.9c1.3,7.6.8,10,.8,17.6,0,4,0,11.7,0,15.9"/><path class="cls-3" d="M82,188.9c-1.2,1-2.3,2.1-3.4,3.7-.3,0-.6,0-.9,0-1.8-4.9-6.1-8.8-11.1-10.2l.2-.6c.2,0,.3.1.5.1,2.5.7,5.8.4,9.5-1.3h0c2.7,1.7,4.6,4.5,5.2,7.6v.5Z"/><path class="cls-9" d="M93.9,166.5c-4.8,1.4-7.2,6.5-10.5,9.6-2.2,2.1-4.5,3.6-6.7,4.7"/><path class="cls-9" d="M52.7,190.4c-.2-.1-.4-.2-.6-.3"/><path class="cls-9" d="M30.7,167.2c2.8,0,4.7.4,6.5,1.1"/><path class="cls-9" d="M49.6,178.7c-3-2.4-5.7-5.8-7.6-7.3"/><line class="cls-9" x1="52.1" y1="190.1" x2="52.1" y2="190.1"/><path class="cls-3" d="M77.9,193.3c-2.1,1.7-7.4,3.8-8.9,3.7-2.2.2-7.8,0-9.2-.4-2-.7-5.6-2.4-7.1-4.6h0c-.4-.6-.6-1.2-.6-1.8-1.4-.7-3.4-1.4-5.4-2h0c-.3-3.3.7-6.7,2.8-9.3h0c2.1,1.6,4.4,2.8,6.7,2.5,3.5-.6,9.3-4.3,10.5.7l-.2.6c5,1.4,9.3,5.3,11.1,10.2,0,.2.1.4.2.6Z"/><path class="cls-1" d="M94.9,283.8c-1.4.4-2.6.8-3.7,1.3-3.8,1.6-6.5,3.5-12,2.6-1.8-.3-3.8-.9-6.3-1.9,0-.6-5.3-29.3-5.4-30.8-.5-7.6-5-29.7-4.8-32.6-2.1,10.4-4.5,24.1-5.5,31.2-.4,3.3-5.1,35.5-5.1,35.5-1.5.4-3.3.5-5.3.3-4.3-.3-9-1.6-12.3-2.9-1.7-.7-3-1.3-3.5-1.7,0,0,1.4-26,1.8-33,.8-12.2,4.9-45.9,5.6-52.4,0,0,.5-7.7.7-11.1h.3c.8,1.6,7.1,2.9,13.3,3.8h0c1.4,2.2,5,4,7.1,4.6,1.4.4,7,.7,9.2.4,1.5,0,6.7-1.9,8.9-3.7.3-.2.5-.5.7-.7,2.8-.3,5.6-1.7,8.4-1.9.1,5.7,1.6,14.6,2.2,19.9.6,5.2,2.6,31.1,3.7,43.3.2,2.4,2.2,28.9,2.2,29.9Z"/><path class="cls-9" d="M87,190.6c0,0,0-.1,0-.2"/><path class="cls-7" d="M52.7,191.9c-6.2-.9-12.5-2.2-13.3-3.7h-.3c0-1,0-2.3,0-2.4,2.2.7,5,1.5,7.6,2.3,2,.6,3.9,1.3,5.4,2,0,.6.2,1.2.6,1.8Z"/><path class="cls-9" d="M62.8,222.3c1.3-6.3,2.5-11.4,3.2-13.3,0-.1,0-.2.1-.3"/><path class="cls-9" d="M72.2,202.9c-2,1.8-6.2,6-7.3,7.1"/><path class="cls-4" d="M49.6,308c-1.3,1.3-5.1,1-7.1,1-5.4,0-10.7,0-16.1,0-1.7,0-3.6-.2-4.7-1.3-1-1-1.1-6.8-.7-8.1.7-2.7,5.5-5.6,8.3-6.8,1-.4,2-.7,2.9-1.2,3.7-1.1,7.3-.5,10,.1,1.8.4,3.1.7,4.2,1.3.9.5,1.7,1.2,2.5,2.5,1.2,1.8,2.2,11,.6,12.5Z"/><path class="cls-9" d="M32.3,291.6c-1,.3-2,.7-2.9,1.2"/><path class="cls-3" d="M46.9,289.3h0q-.3,2.2-.3,3.7c-1.1-.6-2.4-.9-4.2-1.3-2.7-.6-6.3-1.2-10-.1.7-.4,1.3-.8,1.7-1.4.6-.8.3-2.6.5-3.8,3.2,1.2,8,2.6,12.3,2.9Z"/><path class="cls-3" d="M92.1,291.2c-.4.6-1.3.7-2.1.7-2.4,0-6.9,0-9.2.5-.5.1-1,.3-1.4.5h0c.2-2.2,0-3.4,0-5.2,5.5.9,8.2-.9,12-2.6.4,2.1.8,3.4,1,5,0,.4,0,.8-.2,1.1Z"/><path class="cls-4" d="M105,308.1c-.4.2-3.3.8-3.8.8-4.9.2-22.8-.3-24.2-1.1-2-1.2-1.5-9.7-.4-11.7.8-1.5,1.5-2.6,2.8-3.3.4-.2.9-.4,1.4-.5,2.3-.6,6.8-.5,9.2-.5.8,0,1.7,0,2.1-.7,3.9,1,11.2,3.6,13,6.9.7,1.3,1.4,9.4,0,10Z"/><path class="cls-3" d="M77.8,62.9c-10.9-1.1-17.2,0-27.5,6.9-3.7,2.5-7.5,6.9-8.4,11.2-.8-.8-2.1-1-3.1-.5-.2.1-.5.3-.7.5-.9.9-1.4,2.3-1.4,3.7,0,1.7.5,3.4,1.3,4.8.6,1.2,1.3,2.3,2.3,3.1.1.1.3.2.4.3.5.3,1.2.5,1.8.5h.7c.7,3.5.8,5.3,1.7,6.9,2.4,2.5,4.6,4.6,6.7,6.4.8.7,1.7,1.4,2.4,2.1,6.7,5.4,11.6,7.2,15.8,7,.8,0,1.6-.2,2.4-.4,3.2-.8,6.1-2.9,9.2-5.4.7-.6,1.4-1.2,2-1.8,3.6-3.5,6.1-8.1,7.1-13,0-.4.2-.8.2-1.2.8-4.6.8-8.2.8-8.9,0,0,0-.2,0-.3.4-1.8.7-2.8.9-3.7.3-1.2.4-2.1.5-4.4-.2-7-7.5-13.1-15.1-13.9ZM59.4,86.9c-1,0-1.8-1.6-1.8-3.4s.8-3.4,1.8-3.4,1.8,1.5,1.8,3.4-.8,3.4-1.8,3.4ZM73.5,106.7c-2.2.3-6.5-.2-8.7-1.5-1.3-.8-2.1-1.3-3.2-2.5-.7-.8,0-2,1-1.7,4.7,1.2,13,2.5,17.5.9h0c-1.5,2.8-3.2,4.3-6.7,4.8ZM84.3,86.1c-.8,0-1.5-1.3-1.5-3s.7-3,1.5-3,1.5,1.3,1.5,3-.7,3-1.5,3Z"/><path class="cls-8" d="M80.2,102c-1.5,2.7-3.2,4.2-6.7,4.7-2.2.3-6.5-.2-8.7-1.5-1.3-.8-2.1-1.3-3.2-2.5-.7-.8,0-2,1-1.7,4.7,1.2,13,2.5,17.5.9h0Z"/><path class="cls-9" d="M92.9,76.6s0,0,0,.1"/><path class="cls-9" d="M88.9,76.9c-1.1-2.5-6.9-3-8-1.7"/><path class="cls-9" d="M63,75.7c-2.1-2.1-7.6-.7-8.1.9"/><path class="cls-10" d="M85.8,83.1c0,1.7-.7,3-1.5,3s-1.5-1.3-1.5-3,.7-3,1.5-3,1.5,1.3,1.5,3Z"/><path class="cls-10" d="M61.3,83.4c0,1.9-.8,3.4-1.8,3.4s-1.8-1.6-1.8-3.4.8-3.4,1.8-3.4,1.8,1.5,1.8,3.4Z"/><path class="cls-9" d="M76.7,86.8c-.1,3.1,6,11-3.4,10.1"/><path class="cls-9" d="M80.6,101.7c-.2,0-.3.1-.5.2"/><path class="cls-5" d="M88.9,54.6h0c-6.9-4-15.2-4.5-26.8-2.6-6.4,1-13.4,3.6-18.8,7.2-1.7,1.1-4.1,3.4-6,5.6.9-10.3,15.3-19.5,24.1-21.3,9.4-1.8,24.5,2.8,27.5,11Z"/><path class="cls-6" d="M42.3,93.5c.2,0,.5,0,.7,0,.5-.1.9-.4,1.3-.8"/><path class="cls-9" d="M42.4,82c-.1-.4-.3-.7-.6-1"/><path class="cls-3" d="M95.1,89.2c-.3,1.7-1.6,3.9-2.9,4.7-.5.3-1,.4-1.5.1h0c.8-4.6.8-8.2.8-8.9,0,0,0-.2,0-.3.4-1.8.7-2.8.9-3.7h.1c.6-.1,1.3.2,1.6.8.4.5.5,1.2.6,1.8.4,1.8.7,3.7.3,5.5Z"/><path class="cls-9" d="M77.9,193.5c0,0,0-.1,0-.2"/><path class="cls-9" d="M66.6,182.5c-.6-.2-1.2-.3-1.8-.4"/><path class="cls-9" d="M37.2,168.4s0,0,0,0"/><path class="cls-9" d="M92.9,76.7c0,.4,0,.8,0,1.1"/><path class="cls-5" d="M94.1,81.9c-.4-.5-1-.9-1.6-.8h-.1c.3-1.2.4-2.2.5-4.4-.2-7-7.5-13.1-15.1-13.9-10.9-1.1-17.2,0-27.5,6.9-3.7,2.5-7.5,6.9-8.4,11.2-.8-.8-2.1-1-3.1-.5-.2.1-.5.3-.7.5-3.1-1.3-4.7-8.9-3.5-12,.5-1.3,1.5-2.8,2.7-4.2,1.9-2.3,4.3-4.5,6-5.6,5.4-3.6,12.4-6.1,18.8-7.2,11.6-1.9,19.9-1.4,26.8,2.6,1.4.8,2.8,1.8,4.1,2.9,4.1,3.6,3.8,19.5,1.2,24.4Z"/><path class="cls-9" d="M38.4,81.2c-.1,0-.3,0-.4-.1"/><path class="cls-6" d="M51.5,106.8c-.2.3-1.3,1.2-1.5,1.5-5.3-3.4-9-9.1-10.1-15.3l.2-.3c.1.1.3.2.4.3.5.3,1.2.5,1.8.5h.7c.7,3.5.8,5.3,1.7,6.9,2.4,2.5,4.6,4.6,6.7,6.4Z"/><path class="cls-9" d="M51.5,106.8s0,0,0,0"/><path class="cls-6" d="M92.2,93.9c-.5,3.1-1,6.1-2.4,8.9-1.3,2.6-6,5.4-6.3,5.6l-.2-.2c3.6-3.5,6.1-8.1,7.1-13,0-.4.2-.8.2-1.2h0c.5.3,1,.2,1.5-.1Z"/><path class="cls-9" d="M83.5,108.4s0,0,0,0"/><path class="cls-9" d="M92.3,93.8s0,0,0,.1"/></svg>