<?xml version="1.0" encoding="UTF-8"?><svg id="usa" xmlns="http://www.w3.org/2000/svg" width="235" height="321.9" viewBox="0 0 235 321.9"><defs><style>.cls-1{fill:#2d231c;}.cls-1,.cls-2,.cls-3,.cls-4,.cls-5,.cls-6,.cls-7,.cls-8{stroke:#000;stroke-linecap:round;stroke-linejoin:round;}.cls-2{fill:#469bdb;}.cls-3{fill:#c98028;}.cls-4{fill:#976a38;}.cls-5{fill:#dda833;}.cls-6{fill:#fff;}.cls-7{fill:none;}</style></defs><path class="cls-1" d="M91.8,61.1c-.1,0-1.2-1-2.2-1.6-1.8-1.2-3.5-.3-4.2-.5-.8-.2.1-1.1,1.7-1.4,1.2-.3,2.3.4,2.9.9.7.6,2,2.6,1.9,2.7Z"/><path class="cls-1" d="M76.2,55.7c-.9-.3-1.8-2.1-4.8-2.5-1.7-.2-4.3.5-4.4.3-.1-.2,3.6-1.4,5-1.4,1,0,2.9.3,3.8,1.3,1.3,1.3,1.4,2.6.4,2.2Z"/><path class="cls-4" d="M88.7,44.8c-.5-.4-1.2-.8-1.9-1.1-7.1-3.9-24.1.6-32.2,13.2-.4-.8-1.3-1.4-2.2-1.5-.9-.1-1.9.3-2.5,1-.9,1-.9,2.4-.9,3.7,0,1.5.3,3.1,1.1,4.3.4.6.9,1.1,1.5,1.4,0,5,1.6,10.2,5.2,14.8,1.1,1.4,2.4,2.8,3.8,4.1,3.6,3.6,7,6.3,10,6.6.2,0,.4,0,.6,0h0c0,0,.1,0,.2,0,2.2,0,4.5-1.1,6.6-2.5,1.4-1,2.7-2.1,4-3.3h0c2.7-2.6,4.7-5.6,5.7-7.5,2.5-4.9,3-11.8,3-11.8,1.3-3.7,2.6-5.9,2.8-9.3-.7-6.5-1.2-9.4-5.1-12ZM67,53.6c-.1-.2,3.6-1.4,5-1.4,1,0,2.9.3,3.8,1.3,1.3,1.3,1.4,2.6.4,2.2-.9-.3-1.8-2.1-4.8-2.5-1.7-.2-4.3.5-4.4.3ZM72.8,62.5c-.3,1.5-1.3,2.5-2.1,2.2-.8-.2-1.2-1.5-.9-3,.3-1.4,1.3-2.4,2.1-2.2.8.2,1.2,1.5.9,3ZM69.6,75.2c5.9,3.4,9.1,5.4,11.9,5.4-4.3,7.7-12.8,2.6-11.9-5.4ZM88.3,66.7c-.4,1.5-1.3,2.5-2.1,2.4-.8-.2-1.2-1.6-.8-3.1.4-1.5,1.3-2.5,2.1-2.4.8.2,1.2,1.6.8,3.1ZM89.6,59.5c-1.8-1.2-3.5-.3-4.2-.5-.8-.2.1-1.1,1.7-1.4,1.2-.3,2.3.4,2.9.9.7.6,2,2.6,1.9,2.7-.1,0-1.2-1-2.2-1.6Z"/><path class="cls-6" d="M81.6,80.6c-4.3,7.7-12.8,2.6-11.9-5.4,5.9,3.4,9.1,5.4,11.9,5.4Z"/><path class="cls-5" d="M44.8,123.5c-.2,4.8.2,10.2,1.9,14.2.1.1.3.2.4.4,1.5,1.3,2.8,2.8,4,4.4,2.3,3.2,3.7,7.1,3.3,11.8-.2,2.6-1,5.5-2.5,8.7-.4.8-.8,1.5-1.2,2.3-1.9-1.2-5.1-3.4-8.7-6.2-7.6-6-16.6-14.2-16.2-18.5.3-4.7,4.6-36.9,17.5-44.4,1-.4,2.4-.7,3.9-1,4.6,1.2,7.4,18.8,8.5,19.6.9.6,18.6,5.5,22.5,0h0c.2.9.3,1.9.4,2.8.2,1.9.4,3.8.5,5.6.1,2.2.1,4.4.2,6.5,0,.1,0,.2,0,.3,0,2.4,0,4.6,0,6.5-10.6,3.4-21.9,2.8-32.1-1.6,0-4.1-1.1-5.5-2.4-11.3Z"/><path class="cls-7" d="M82.8,71c1.9,2.8-.9,7.1-7.3,2.8"/><path class="cls-8" d="M88.3,66.7c-.4,1.5-1.3,2.5-2.1,2.4-.8-.2-1.2-1.6-.8-3.1.4-1.5,1.3-2.5,2.1-2.4.8.2,1.2,1.6.8,3.1Z"/><path class="cls-8" d="M72.8,62.5c-.3,1.5-1.3,2.5-2.1,2.2-.8-.2-1.2-1.5-.9-3,.3-1.4,1.3-2.4,2.1-2.2.8.2,1.2,1.5.9,3Z"/><path class="cls-7" d="M51.7,65.8h0"/><path class="cls-7" d="M51.7,65.8c.7.4,1.6.5,2.4.3"/><path class="cls-3" d="M112.2,267.4c-.3,0-.9,0-1.7,0-3.3.1-10.2.6-18.7,1.1-12.1.7-27.4,1.6-40.1,1.7-7.8,0-14.7,0-19.3-.6-3.5-.4-5.7-1.1-6.1-2.1-1.4-3.3,10-92.1,15.6-108.4h0c3.5,2.7,6.8,5,8.7,6.1.5-.8.9-1.6,1.2-2.3,0,3,4.6,6.1,6.9,7.2,1.7.8,9.2,2.2,7.3-1.6.9-.4,2.3-2.3.6-3.3,1-.6,1.6-2.4.2-4,3.1-2.4.8-4-1.6-5.1-1.1-5.1-7.8-2-11-1.8.4-4.7-1.1-8.6-3.3-11.8,9.4,2.8,19.3,2.9,28.8.3,1.3,3,2.8,6.3,4.2,9.9,13,30.9,29.8,78.8,28.1,114.8Z"/><path class="cls-1" d="M85.5,127.8c-.1,1.5-.3,3.1-.5,4.6,0,.1,0,.2,0,.3,0,.2,0,.4,0,.6-.4,3.1-1,6.4-1.8,9.7-2.8,1.3-3.6-1-3.8-5.4,0-.1,0-.3,0-.4h0c0-.3,0-.6,0-.8,0-1.9,0-4.1,0-6.5,0,0,0-.2,0-.3,0-2,0-4.2-.2-6.5,0-1.8-.2-3.7-.5-5.6-.1-.9-.2-1.9-.4-2.8,0-.4-.2-.9-.2-1.3-.5-2.4-1.1-4.8-2-7.1-.7-1.9-1.6-3.7-2.6-5.4-.4-.7-.9-1.4-1.4-2.1-1.7-2.7-1.8-5.6-1.2-7.4v-.2c.2,0,.4,0,.6,0h0c0,0,.1,0,.2,0,2.2,0,4.5-1.1,6.6-2.5.3.5.5,1,.8,1.5,1.1,2.2,2,4.5,2.9,6.8,0,.2.2.4.2.6,1.2,3.4,2.1,6.9,2.7,10.6.3,1.7.5,3.5.7,5.2.4,4.5.5,9.3,0,14.3Z"/><path class="cls-7" d="M47.1,134.8s0,0-.1,0"/><path class="cls-2" d="M79.8,142.7c-9.5,2.7-19.4,2.6-28.8-.3-1.1-1.6-2.5-3.1-4-4.4,0-1.2.1-2.3,0-3.2,10.2,4.4,21.5,5,32.1,1.6,0,.3,0,.5,0,.8h0c0,.9,0,2.7.5,5.4Z"/><path class="cls-7" d="M46.3,112.9c-.5,1-1.3,5.4-1.5,10.5"/><path class="cls-4" d="M66.7,165.2c1.6,1,.2,3-.6,3.3,1.8,3.8-5.6,2.4-7.3,1.6-2.4-1.1-6.9-4.2-6.9-7.2,1.5-3.1,2.3-6,2.5-8.7,3.2-.2,9.9-3.3,11,1.8,2.3,1.1,4.6,2.7,1.6,5.1,1.5,1.5.8,3.3-.2,4Z"/><path class="cls-7" d="M65.3,156c-1-.5-2-.9-2.6-1.2"/><path class="cls-7" d="M65.3,156.1s0,0,0,0"/><path class="cls-7" d="M46.6,137.7c-2.1-1.8-4.4-3.3-6.4-4.5"/><path class="cls-5" d="M105.2,149.9c0,2.7-2.4,7.4-4.4,12.3-.5,1.2-1,2.5-1.5,3.7-6.4-2.5-11.7-7.9-15.3-13.5-1.5-3.5-2.9-6.8-4.2-9.9-.5-2.8-.5-4.5-.5-5.4,0,.1,0,.3,0,.4.2,4.3,1,6.6,3.8,5.4.8-3.3,1.3-6.6,1.8-9.7,0-.2,0-.4,0-.6,0-.1,0-.2,0-.3.2-1.6.4-3.1.5-4.6.4-5,.4-9.7,0-14.3-.2-1.8-.4-3.5-.7-5.2-.6-3.7-1.5-7.2-2.7-10.6l1-.4c3.1,1,4.1,4.8,4.5,8,1.1,9.3.6,18.9-1.3,28,4.6,4.4,11.9,10.9,18.1,14.7.6.4.9,1.1.9,2Z"/><path class="cls-7" d="M86.3,133.3c0,0,0,.1,0,.2"/><path class="cls-4" d="M51.7,270.2c-4.5,6.1-10.4,14.8-14.5,20.3-.4.5-.9.9-1.3,1.4-.8.9-7.8,0-9.6-1.8,1-5.3,3.5-14.4,6.1-20.6,4.6.6,11.5.7,19.3.6Z"/><line class="cls-7" x1="32.3" y1="269.6" x2="32.3" y2="269.6"/><path class="cls-6" d="M49.6,318.7c-9.4-2.2-14.4-5.2-28.6-15.1-.9-.7-2-1.3-2.3-2.4-.2-.8.1-1.7.5-2.4,1.4-3.4,4.5-6.4,6.6-9.4,0,.3.2.6.4.8,1.8,1.9,8.8,2.8,9.6,1.8.4-.5.8-1,1.3-1.4.6-.6,1.2-1.1,2-1.4,1.3-.6,2-.6,2.7.7,5.9,11.7,5.7,13,14.8,18.2,1.3.7,2.9,1.2,3.2,2.6,1.6,7.4-4.1,9.3-10.1,8Z"/><path class="cls-4" d="M104.8,287.2h0c-.3.3-.5.5-.8.8-1,1-1.4,2.4-1.8,3.7-.4,1.3-1,2.7-2.1,3.6-1.9,1.5-6.5.2-7.7-1.9-.1-4.6-.8-18.4-.6-24.9,8.5-.5,15.4-1,18.7-1.1-1.9,6.8-3.4,13.4-5.8,19.8Z"/><path class="cls-6" d="M134.4,310.4c-2.6,1.9-6,2.3-9.2,2.4-9.9.4-20.5-3.6-30.3-4.8-1.2-.1-2.5-.4-3.2-1.3-.5-.7-.6-1.6-.6-2.4,0-3.6.4-7.3,1.2-10.9,1.2,2.1,5.7,3.3,7.7,1.9,1.1-.9,1.7-2.2,2.1-3.6.4-1.3.8-2.7,1.8-3.7.3-.3.6-.5.8-.7.6-.3,1.1-.1,2.3.2h.1c8.1,3.2,17,9.2,25.1,12.4,1.4.5,2.9,1.1,3.8,2.3,2.1,2.4.8,6.4-1.7,8.3Z"/><path class="cls-4" d="M111,165.8c-2.2,1.3-8.3-1.2-10.2-3.5,2-4.9,4.4-9.6,4.4-12.3,1.9-2.3,9.4,1.3,10.8,4,1.4,2.9-3,10.6-5,11.8Z"/><path class="cls-7" d="M100.8,162.3c-.1-.1-.2-.3-.3-.4"/><path class="cls-1" d="M88.7,44.8h0c-.5-.3-1.2-.7-1.9-1.1-7.1-3.9-24.1.6-32.2,13.2-.4-.8-1.3-1.4-2.2-1.5-.9-.1-1.9.3-2.5,1-.9,1-.9,2.4-.9,3.7,0,1.5.3,3.1,1.1,4.3.4.6.9,1.1,1.5,1.4,0,5,1.6,10.2,5.2,14.8,0,2,0,3.9-.3,5.6-1.8-.4-10.7-7.9-11.9-13.6-1.2-5.8-1.4-11.5,0-17.2,2-7.9,5-19.1,12.1-23.2,8.6-5,28.2-6,31.3,2.2,1,2.7,2.4,8.2.5,10.4Z"/><path class="cls-1" d="M82.2,85.5c2.7-2.6,4.7-5.6,5.7-7.5,2.5-4.9,3-11.8,3-11.8,1.3-3.7,2.6-5.9,2.8-9.3-.7-6.5-1.2-9.4-5.1-12h0c1.9-2.2.5-7.8-.5-10.5,6.5,1.3,9.6,10.5,9.8,15.1.7,21.1-11.9,36.1-15.7,36Z"/><path class="cls-4" d="M78.2,114.8h0c-3.9,5.4-21.6.5-22.5,0-1.1-.8-3.9-18.4-8.5-19.6,3.1-.6,6.7-1.1,8.4-1.4.3-1.3.8-4.1,1-7.5.2-1.7.3-3.6.3-5.6,1.1,1.4,2.4,2.8,3.8,4.1,3.6,3.6,7,6.3,10,6.6v.2c-.5,1.8-.5,4.7,1.2,7.4.5.7,1,1.4,1.4,2.1,1.1,1.7,1.9,3.5,2.6,5.4.9,2.3,1.5,4.7,2,7.1,0,.4.2.9.2,1.3Z"/><path class="cls-7" d="M71.3,91.5c1.6,1.5,3.5,4.1,5.6,4.3"/><path class="cls-7" d="M79,90.1c-.7,4-3.1,7.7-5.6,10.8"/><path class="cls-7" d="M81.8,97.1c-.5,3.8-3,7.1-5.9,9.4"/><path class="cls-7" d="M78.5,104.6c1.7,1.6,3.8,2.8,5.9,3.7"/><path class="cls-7" d="M79.5,137.7c.8.2,1.3-.3,1.9-.8,1.5-1.2,2.4-2.6,3.6-4.1"/><path class="cls-7" d="M77.9,113.5s0,0,0,0c2.5-1,4.7-2.9,6.2-5.2,0,0,.1-.2.2-.2"/><path class="cls-7" d="M79.3,129.9c1.4,1.7,3.1,3,4.9,4"/><path class="cls-7" d="M78.7,117.6c2.6-.2,5.2-1.7,6.6-4"/><path class="cls-7" d="M79.4,129.6c2.3,0,4.3-.5,6.2-1.8"/><path class="cls-7" d="M79.3,123.2c2.2-1.9,3.7-4.6,4.2-7.5"/></svg>