<?xml version="1.0" encoding="UTF-8"?><svg id="usa" xmlns="http://www.w3.org/2000/svg" width="235" height="321.9" viewBox="0 0 235 321.9"><defs><style>.cls-1,.cls-2,.cls-3,.cls-4,.cls-5,.cls-6,.cls-7,.cls-8,.cls-9{stroke:#000;stroke-miterlimit:10;}.cls-2{fill:#fff;}.cls-3{fill:#c48f6f;}.cls-4{fill:#b39b68;}.cls-5{fill:#2b388d;}.cls-6{fill:#724e2b;}.cls-7{fill:#604131;}.cls-8{fill:#262261;}.cls-9{fill:none;}</style></defs><path class="cls-7" d="M135.4,77.4c-.3-.5-1.6-2.1-2.8-3.4-1-1.1-1.8-2.1-2.2-2.2-.4.4-1.4,4-2.2,6.1h0c-.4,1.1-.7,1.8-.8,1.5-1.5-2.9-2.5-4.9-4.8-7.5-.6-.7-4,3.2-5.1,5-.5.8-1.4-6.2-4.5-9.8-.5-.6-6.2,3.9-6.6,3.2-1.3-2-4-3.8-4.5-3.8-1.7-.2-2.1,2.1-3.6,4.5-.5.8-4-3.3-4.6-2.7-3.5,3.2-4.9,4.6-5.9,10.1-.2,1.2-3.1-5.3-6.3-.9-2.6,3.6.9,7,1.3,13.2,0,.4-.2.5-.6.5-.8,0-2.2-.8-2.4-1,.2,1.5-.9,5.8-1.6,4.7-.8-1.3-1.4-2.6-1.9-3.8-.8,1.3-.3,1.2-.5,3.8,0,.2-.1.4-.3.6-.6.7-2.1.6-2.5-.4-5-10.1-5.4-20.8-2.8-30.4,1.1-4.1,2.8-8,4.9-11.6-.1,0-.3,0-.5,0-.9,0-1.4-1-1-1.7,4.8-6.9,16.3-9.7,24.1-8.7,1.2.1-6.2-3.7-4.3-4.4,3.2-1.2,18.1.5,21.2,4.4,1.2.8,2.7,2.3,4.3,4.2h.6c11.4,3.8,17.2,18.1,15.7,30.8Z"/><path class="cls-5" d="M79.4,106.2c-8.6,1.1-13,5.8-15.5,16.7-.8,3.6-1.4,7.9-1.9,12.9,0,.3,0,.7,0,1-.3,3-.5,5.7-.8,8.3h-.3c0-5.2.2-8.9-.3-13-3.5,3.3-3.7,3.2-4.9,4,0,0-.2.1-.3.2-.2.2-.5.4-.8.5-4.8-2.6-7.1-11.4-7.5-14.8,0-.6,0-1,0-1.2.1-1,4.6-5.1,5.3-5.8,4.1-3.7,7.1-6.7,12.5-7.8,1.4-.3,8.7-1.1,14.5-1Z"/><path class="cls-9" d="M60.8,131.8c0,0-.2.2-.3.2"/><path class="cls-3" d="M42.7,145.1c-4.7,8.5-8.1,12.5-11.6,19.4h0c2.4.7,4.7,9.5,3.1,11.4-1.7,2.1-11.3,2.9-13,1.8-1.9-1.3.2-9,1.5-10.9,2.7-12.1,4.3-18.4,11.4-28.6,3.2-4.6,9.6-13,12.9-16.3.4,3.4,2.7,12.3,7.5,14.8-3.4,2.3-8,5.2-11.9,8.3Z"/><path class="cls-9" d="M31.1,164.6c0,.2-.2.4-.3.5"/><path class="cls-9" d="M57,135.1c-.5.4-1,.8-1.6,1.2"/><path class="cls-5" d="M109.6,116.5c-1.4-.4-3,.2-4.1,1.3-1.2,1.1-1.9,2.6-2.4,4.1-1.7,4.9-.7,9.5-.5,15.2,0,0,0,.2,0,.2h0c-14-.2-28-5.4-38.6-14.5,2.5-10.9,6.9-15.5,15.5-16.7h0c1.4,0,2.8.1,3.9.3h.2c-1.2,3.1-2.5,6.2-3,7.6.5,5.6,3.9,8.1,8,9,4,.9,10-1.5,12.7-5.8-.3-2.4-.3-3.3,0-5,1.8,1,5.4,2.5,8.4,4.3Z"/><path class="cls-9" d="M101.2,112.2s0,0,0,0"/><path class="cls-5" d="M119.9,143.1c-.2.2-.5.3-1.1.4-2.3.4-7.7.3-12.2,1-.4,0-.8.1-1.2.2-.7.1-1.4.3-2.1.5-.3-2.8-.7-3-.8-7.7,0,0,0-.2,0-.2-.1-5.8-1.1-10.4.5-15.2.5-1.5,1.2-3,2.4-4.1,1.1-1,2.7-1.6,4.1-1.3,2.5,1.5,4.8,3.2,5.5,4.9,4.2,10.5,5.2,21.1,4.8,21.6Z"/><path class="cls-3" d="M117.7,155.4c-1,2.1-2.1,2.2-3.1,2.8-3.8,1.5-6.9,2.3-9.8,2.8h0c-7.8,1.2-13.8-.5-24.6-1.7-2.6.9-12.1,1.2-13.2-1.4-.9-2.2,2.7-13.2,5.6-14.5.8-.4,2.2-.2,3.9.4,0,0,0,0,0,0,.7.3,1.4.6,2.1.9,3.2,1.5,6.4,3.9,6.5,5.6h0c6-1.1,9.5-1.1,14.5-1.8,1.6-.2,3.4-.6,5.5-1,.5-.1,1.1-.3,1.7-.4,0-.8-.2-1.8-.3-2.6,4.5-.6,9.9-.6,12.2-1h0c.3,3.4.6,8.7-1.1,12Z"/><path class="cls-8" d="M105.4,144.6c0,1.2-.1,1.6-.2,2.9-2.1.5-3.9.8-5.5,1-7.3.3-14.4-1.3-21-3.8-.7-.3-1.4-.6-2.1-.9,0,0,0,0,0,0-5.3-2.3-10.2-5.1-14.6-8,.5-5,1.1-9.3,1.9-12.9,10.7,9.1,24.6,14.3,38.6,14.5h0c0,4.7.5,4.9.8,7.7.6-.2,1.3-.3,2.1-.5Z"/><path class="cls-9" d="M85.3,150.4c-.2,0-.5,0-.7.1"/><path class="cls-9" d="M108.9,146.6c-.7.2-1.3.4-1.9.5"/><path class="cls-5" d="M99.7,148.5c-5,.7-8.5.7-14.5,1.9h0c0-1.8-3.3-4.2-6.5-5.8,6.6,2.5,13.7,4.1,21,3.8Z"/><path class="cls-9" d="M60,182.9c0-.3-.2-.6-.2-1"/><path class="cls-5" d="M106.2,179.8h0c-4.1-.9-6.3-3-14.5-4.7-16.5-3.6-30.3-6.9-31.8,2.9-.1,1.4-.2,2.7-.1,4-2.9-10.9-.7-18.8,1.3-36.8.3-2.5.6-5.3.8-8.3,0-.3,0-.7,0-1,4.3,2.9,9.2,5.7,14.6,8-1.6-.5-3.1-.7-3.9-.4-2.9,1.4-6.5,12.4-5.6,14.5,1,2.6,10.5,2.3,13.2,1.4,10.8,1.2,16.8,2.9,24.6,1.7-.8,3,1.2,13.8,1.3,18.8Z"/><path class="cls-9" d="M104.9,161.1h0"/><path class="cls-9" d="M60.5,132.1c-.2-2-.6-4.2-1.1-6.6"/><path class="cls-4" d="M121,185.7c-3.5,3.1-8.4,16.7-6,23.8,0,.3.2.6.3.9,0,.2-.3.2-1.1.2-5.4-.2-28.1-4.7-38.1-6.7-2.2-.6-4-1.1-5.1-1.6-4.7-2.3-10.9-8.7-11.2-20.4t0,0s0,0,0,0c0-1.3,0-2.6.1-4,1.5-9.7,15.3-6.5,31.8-2.9,8.2,1.8,10.4,3.9,14.5,4.8.3,0,.6.1,1,.2h0c6,1.9,14.9,4.7,13.8,5.6Z"/><path class="cls-9" d="M102.8,178.8c.8.3,2,.6,3.3,1h0c.3.1.7.2,1,.3"/><path class="cls-4" d="M117.5,232.8c-.4,0-.9.1-1.3.2,0,0-.1,0-.2,0-8.3,1.4-13.2,1.7-22.4.8-1.1-.1-2.3-.2-3.5-.4-1.5-4.4-6.2-19.1-14-29.5,10,2,32.8,6.4,38.1,6.7,3.1,11,3.7,13.8,3.2,22.2Z"/><path class="cls-9" d="M116.3,233.8c0-.1-.1-.3-.2-.4"/><path class="cls-3" d="M111.4,256.5c-2.8,10.2-5.6,20.6-9.3,30.4l.2.2c-1.2.9-2,2.3-2.8,3.6-.8,1.3-1.6,2.7-3,3.3-1.9.9-5.1-.5-6.7-2.4h0c-.3-10.4-1.1-27.3,2.2-37.1,1.1-3.3,2.4-7.2,2.9-10.7.5-3.6.2-6.3-1.4-9.5v-.6c9.3.9,14.2.6,22.5-.8,0,0,.1,0,.2,0v.8c2.7,4.8-2.2,13.2-4.8,22.8Z"/><path class="cls-6" d="M123.6,312.9c-10.6-1.2-23.1-2.5-34.6-4.7-1.3-.2-2.5-1-3-2.2-.4-.9-.2-1.8,0-2.8.8-4,1.3-9.6,3.1-13.2.2.5.5,1.1.9,1.6,1.6,1.9,4.8,3.3,6.7,2.4,1.4-.6,2.3-2,3-3.3.8-1.3,1.5-2.7,2.8-3.6s2.4-.9,3.4.3h0c7.7,4.4,14.7,6.5,24.4,11,16.1,7.5.9,15.4-6.7,14.5Z"/><line class="cls-9" x1="115" y1="209.5" x2="115" y2="209.5"/><path class="cls-3" d="M169.2,220.6c0,0,0,.2,0,.2h-.2c-20-8.2-22.6-.2-34.6-11.2-10.8-2-12,.2-19.5-.2-2.5-7,2.5-20.6,6-23.8,9,3.7,8.4,2.2,19.6,9.1,14.8,5.5,22.8,8.6,37.7,14.1,0,1.5.5,2.4,1.1,3.6.6,1.3-9.2,11.9-10.2,8Z"/><path class="cls-9" d="M178.3,208.9c0-1.4-.3,0,.9,0"/><path class="cls-6" d="M213.7,214.6c-1.6,2.9-4.6,4.8-7.6,6.3-9.1,4.8-18.8,8.1-28.5,11.5-1.2.4-2.5.8-3.5.3h-.3c-.4-.3-.6-.9-.9-1.3-1.6-3.4-2.8-6.9-3.6-10.5,0,0,0-.2,0-.2,1,3.9,10.8-6.7,10.2-8-.7-1.3-1.1-2.2-1.1-3.6.3,0,.6,0,.9,0,0,0,.2,0,.2,0,8.7-.8,19.3-2,27.9-2.8,1.5-.1,3.2-.3,4.5.3,3,1.2,3.5,5.4,1.8,8.2Z"/><path class="cls-9" d="M174.5,233.4c-.3-.2-.5-.4-.7-.6"/><path class="cls-9" d="M107.5,180.2c-.1,0-.2,0-.4,0"/><path class="cls-3" d="M101.2,117.3c-2.7,4.3-8.6,6.7-12.7,5.8-4-.9-7.5-3.4-8-9,.5-1.4,1.8-4.5,3-7.5,1-2.5,1.9-5,2-6.2,4.6,4.6,10.8,8,15.8,10,0,.7-.2,1.3-.2,1.8-.2,1.7-.2,2.6,0,5Z"/><path class="cls-9" d="M109.9,116.6c-.1,0-.2,0-.3-.1"/><path class="cls-9" d="M107,147.3c0,0,0-.2,0-.3"/><path class="cls-9" d="M106.6,144.4c0,0,0-.1,0-.2"/><path class="cls-3" d="M128.2,78c-.4,1-.7,1.8-.8,1.5-1.5-2.9-2.5-4.9-4.8-7.5-.6-.7-4,3.2-5.1,5-.5.8-1.4-6.2-4.5-9.8-.5-.6-6.2,3.9-6.6,3.2-1.3-2-4-3.8-4.5-3.8-1.7-.2-2.1,2.1-3.6,4.5-.5.8-4-3.3-4.6-2.7-3.5,3.2-4.9,4.6-5.9,10.1-.2,1.2-3.1-5.3-6.3-.9-2.6,3.6.9,7,1.3,13.2,0,.4-.2.5-.6.5.2,2,.8,4.5,1.1,6.4.1.5.3,1.1.8,1.4h0c.4.5.9,1,1.3,1.4,4.6,4.6,10.8,8,15.8,10,3.9,1.6,6.9,2.4,7.9,2.2,3.7-.6,7.8-5.8,7.8-5.8,1.8-2.1,3.1-4.3,4.1-6.5,3.1-6.6,3.5-13.1,3.9-14.6.7-2.4,2.2-3.3,3.4-7.6h-.3ZM103.8,84.8c.3-1.4,1.2-2.4,2-2.2.8.2,1.2,1.4.9,2.8-.3,1.4-1.2,2.4-2,2.2-.8-.2-1.2-1.4-.9-2.9ZM104.8,97.1l.2-.2c3.6,2.6,6.4,4.3,10.5,4.8-2.5,7.7-10.8,7.3-10.7-4.5ZM121.7,89.1c-.3,1.4-1.2,2.5-2,2.3-.8-.2-1.1-1.5-.8-2.9.3-1.4,1.2-2.5,2-2.3.8.2,1.1,1.5.8,2.9Z"/><path class="cls-2" d="M115.5,101.6c-2.5,7.7-10.8,7.3-10.7-4.5l.2-.2c3.6,2.6,6.4,4.3,10.5,4.8Z"/><path class="cls-9" d="M122.6,82.5c-.1-2.4-2.3-2.4-3.3-1.1"/><path class="cls-9" d="M107.7,77.4c-1.1-1.8-3.4-2.4-5.8-.3"/><path class="cls-9" d="M115.4,91.3c4.3,4.5,1.1,5.6-.9,6.3"/><path class="cls-1" d="M121.7,89.1c-.3,1.4-1.2,2.5-2,2.3-.8-.2-1.1-1.5-.8-2.9.3-1.4,1.2-2.5,2-2.3.8.2,1.1,1.5.8,2.9Z"/><path class="cls-1" d="M106.7,85.4c-.3,1.4-1.2,2.4-2,2.2-.8-.2-1.2-1.4-.9-2.9.3-1.4,1.2-2.4,2-2.2.8.2,1.2,1.4.9,2.8Z"/><path class="cls-9" d="M104.9,96.9c-.3-.2-.5-.4-.8-.6"/><path class="cls-9" d="M86.5,48.6c-8.9,8.1-15.2,12.1-14.2,26.2.3-2.1,1.1-4.3,2.3-5.7-.4,9.2-1,15.2,1.8,21.9"/><path class="cls-9" d="M75.2,52.9c1.3.2,2.2.4,3.1-.7"/><path class="cls-9" d="M119.1,46.7c4.2,4.8,9,12,10.5,15.3.5,1-8.1-1.4-10.3-3"/><path class="cls-9" d="M75.7,52.2c-.1.2-.3.5-.4.7"/><path class="cls-9" d="M76.6,90.7c0,.1-.1.2-.2.3"/><path class="cls-9" d="M75.6,95.4s0,0,0-.1"/><path class="cls-7" d="M85.6,100.4c-.9,1.7-2.6,3.6-2.8,5.5-3-3-5.5-6.6-7.2-10.5.2-.1.2-.4.3-.6.2-2.6-.3-2.4.5-3.8.5,1.2,1.1,2.5,1.9,3.8.7,1.1,1.7-3.2,1.6-4.7.2.2,1.6.9,2.4,1,.2,2,.8,4.5,1.1,6.4.1.5.3,1.1.8,1.4h0c.4.5.9,1,1.3,1.4Z"/><path class="cls-9" d="M82.3,91.1c0,0,0-.2,0-.2"/><path class="cls-7" d="M128.1,95.4c-.4-1.3-.7-2.6-1.1-3.9-1.5,3.6-2.2,6.6-5.4,8.8h-.4c3.1-6.7,3.5-13.2,3.9-14.7.7-2.4,2.2-3.3,3.4-7.6h-.3c.8-2.3,1.8-5.9,2.2-6.3.3.1,1.2,1.1,2.2,2.2,1.6,7.8-1,14.2-4.5,21.4Z"/><path class="cls-9" d="M63.9,122.9s0,0,0,0"/></svg>