<?xml version="1.0" encoding="UTF-8"?><svg id="usa" xmlns="http://www.w3.org/2000/svg" width="235" height="321.9" viewBox="0 0 235 321.9"><defs><style>.cls-1{fill:#787878;}.cls-1,.cls-2,.cls-3,.cls-4,.cls-5,.cls-6,.cls-7,.cls-8{stroke:#000;stroke-linecap:round;stroke-linejoin:round;}.cls-2{fill:#3f4040;}.cls-3{fill:#a14599;}.cls-4{fill:#ddcbbf;}.cls-5{fill:#fff;}.cls-6{fill:#eaeae9;}.cls-7{fill:none;}</style></defs><path class="cls-4" d="M102.7,80h0v.3c-2.1,23-8.2,35.8-12.4,49.3,1.4,1.8,3.4,2.8,5.6,3.3,3.7.8,9.3-1.4,11.8-5.4-.2-1.9-.2-3.2-.1-4.7,0-.8.1-1.7.3-2.7v-.2c3.1,1.4,5.9,2.3,7,2.1,3.6-.6,8.8-5.7,8.8-5.7,7.1-6,6.1-18.7,6.6-20.6.6-2.3,2.7-4.5,4.9-8.2-7-4.2-21.4-6.7-32.4-7.3ZM109.3,94.7c.3-1.3,1.2-2.3,2-2.1.8.2,1.2,1.4.9,2.8-.3,1.4-1.2,2.3-2,2.2-.8-.2-1.2-1.4-.9-2.8ZM110.2,106.7l.2-.2c3.5,2.5,6.2,4.2,10.3,4.7-2.4,7.5-10.5,7.1-10.5-4.4ZM126.8,99c-.3,1.4-1.2,2.4-1.9,2.2-.8-.2-1.1-1.4-.8-2.8.3-1.4,1.2-2.4,1.9-2.3.8.2,1.1,1.5.8,2.9Z"/><path class="cls-3" d="M79.6,120c-5.7,3.6-7.3,10.8-8.6,25.6-.2,2.8-.5,5.3-.7,7.7h-.3c0-4.8.2-8.3-.2-12.1-3.2,3-3.4,3-4.5,3.7-.3.2-.7.5-1,.7-4.5-2.4-6.6-10.6-7-13.8,0-.5,0-.9,0-1.1.1-.9,4.3-4.7,5-5.3,3-2.7,5.3-5,8.5-6.3.9-.4,2-.7,3.1-.9.7-.2.8-.2,3.7-.5,1.1.2,1.8,1.1,2.1,2.3Z"/><path class="cls-7" d="M70,141c0,0-.2.2-.2.2"/><path class="cls-4" d="M53.2,153.3c-4.3,7.9-7.5,11.6-10.7,18h0c2.2.6,4.3,8.8,2.9,10.6-1.6,1.9-10.5,2.7-12,1.7-1.8-1.2.2-8.3,1.4-10.1,2.5-11.3,4-17.1,10.6-26.6,3-4.3,8.9-12.1,11.9-15.1.4,3.2,2.5,11.4,7,13.8-3.1,2.2-7.4,4.9-11.1,7.7Z"/><path class="cls-7" d="M42.5,171.4c0,.2-.2.3-.2.5"/><path class="cls-7" d="M66.5,144c-.4.3-.8.6-1.2.9"/><path class="cls-3" d="M124.9,150.1h0c0,.5,0,.9,0,1.3-.1.1-.5.3-1,.3-2.1.4-7.1.3-11.3.9-.4,0-.7.1-1.1.2-.7.1-1.3.2-1.9.4-.3-2.7-.7-2.8-.8-7.3-.1-5.4-1-9.6.5-14.2.5-1.4,1.1-2.8,2.2-3.8,1-1,2.5-1.5,3.8-1.2,2.4,1.4,4.5,3,5.1,4.6,3.1,7.8,4.4,15.7,4.5,18.8Z"/><path class="cls-7" d="M124.9,150.2c0,.7,0,1.2,0,1.3"/><path class="cls-4" d="M122.9,162.9c-1,1.9-2,2.1-2.9,2.7-3.5,1.4-6.4,2.2-9.1,2.6-7.2,1.1-12.8-.5-22.8-1.6-2.4.9-11.3,1.2-12.2-1.3-.8-2,2.5-12.2,5.2-13.5.4-.2.9-.2,1.6-.1.2,0,.4,0,.6,0,3.6.7,9.3,4.2,9.4,6.4h0c7.3-1.4,10.7-.8,18.5-2.6.5-.1,1-.2,1.6-.4-.1-.8-.2-1.7-.3-2.4,4.2-.6,9.2-.5,11.3-.9h0c.3,3.2.5,8-1,11.1Z"/><path class="cls-7" d="M92.7,158.3c-.2,0-.4,0-.6.1"/><path class="cls-3" d="M112.1,185.5h0c-1.1-.2-2.1-.5-3.1-1-2.4-1-5-2.3-10.3-3.4-15.3-3.3-28.1-6.4-29.5,2.6-.2,1-.3,2-.4,3h0c-.6-10.5.1-16.6,1.6-33.4.2-2.3.5-4.9.7-7.7,1.3-14.8,2.9-22,8.6-25.6,1.6,6.2-5.2,22.8-5.6,28.1,3.3.3,4.9,1.9,8.7,2.9v.6c-.8,0-1.3,0-1.7.1-2.7,1.3-6,11.5-5.2,13.5.9,2.4,9.8,2.1,12.2,1.3,10,1.1,15.6,2.7,22.8,1.6-.7,2.8,1.1,12.8,1.2,17.4Z"/><line class="cls-7" x1="112.1" y1="185.6" x2="112.1" y2="185.6"/><path class="cls-7" d="M110.9,168.1s0,0,0,0"/><path class="cls-7" d="M69.8,141.2c-.2-1.9-.5-3.9-1.1-6.2"/><path class="cls-1" d="M125.9,191c-2.8,13.6-9.6,19.4-15.5,25-3.1,3-6,5.9-7.8,10-.5,1.2-2.6,4.2-5,7-2.8,3.3-5.9,6.4-7.4,6.1-8.8-14.5-25.9-20.6-21.5-52.3.1-1,.3-2,.4-3,1.4-9,14.2-6,29.5-2.6,5.3,1.2,7.9,2.5,10.3,3.4,1,.4,2,.8,3.1,1,.2,0,.5.1.8.2,0,0,0,0,0,0,5.6,1.7,13.9,4.3,13,5.2Z"/><path class="cls-7" d="M109,184.6c.7.2,1.8.6,3.1,1,.2,0,.5.2.8.2"/><path class="cls-6" d="M133.4,312c-2.9,1.3-6.3.9-9.5.2-9.7-2-19.1-5.5-28.4-9.1-1.1-.4-2.4-1-2.8-2.1-.3-.8-.2-1.7,0-2.6.8-3.7,2-7.3,3.6-10.6,0,.3.2.6.4.8,1.3,2,4.7,3.8,6.7,2.9,1.3-.6,2.1-1.8,2.8-3.1.7-1.2,1.4-2.5,2.5-3.3,0,0,0,0,0,0,1.2-.8,2.2-.8,3.1.3h.1c7.2,5.2,14.5,10.3,21.7,15.5,1.2.9,2.6,1.8,3.3,3.2,1.5,2.9-.6,6.6-3.5,7.9Z"/><path class="cls-4" d="M117,256.7c-2.6,9.5-5.2,19.1-8.6,28.2l.2.2c-1.1.8-1.8,2.1-2.5,3.3-.7,1.2-1.5,2.5-2.8,3.1-2,.9-5.4-.8-6.7-2.9-.2-10-.3-25.6,2.5-33.8,1-3.1,2.2-6.7,2.6-9.9.5-3.3-2.6-9-4.1-12h0c2.4-2.8,4.5-5.8,5-7,1.8-4.1,4.6-7,7.8-10,1.3,0,2.7-.1,4.2-.4v.3c.4.5,7.4,20.4,7.5,21.1,1,4.6-2.9,11.7-5.1,19.7Z"/><path class="cls-4" d="M170.7,223.3c0,0,0,.2,0,.2h-.2c-18.5-7.7-20.9-.2-32.1-10.4-8-1.5-17,1.4-23.9,2.4-1.5.2-2.9.4-4.2.4,5.9-5.6,12.7-11.3,15.5-25,8.4,3.5,7.8,2.1,18.2,8.5,13.8,5.1,21.2,8,34.9,13.1,0,1.4.4,2.2,1,3.4.6,1.2-8.5,11-9.4,7.4Z"/><path class="cls-6" d="M211.9,217.8c-1.5,2.7-4.3,4.4-7.1,5.9-8.4,4.5-17.4,7.6-26.4,10.7-1.1.4-2.3.7-3.3.2h-.3c-.3-.3-.6-.8-.8-1.2-1.5-3.1-2.6-6.4-3.3-9.8,0,0,0-.1,0-.2.9,3.6,10-6.2,9.4-7.4-.6-1.2-1-2-1-3.4.3,0,.5,0,.8,0,0,0,.2,0,.2,0,8.1-.8,17.9-1.8,25.9-2.6,1.4-.1,2.9-.2,4.2.3,2.7,1.2,3.2,5,1.7,7.6Z"/><path class="cls-7" d="M113.4,185.9c-.1,0-.3,0-.4,0"/><path class="cls-7" d="M115.6,126.9c0,0-.2,0-.3,0"/><line class="cls-7" x1="111.4" y1="152.9" x2="111.4" y2="152.9"/><path class="cls-3" d="M127.9,61.4l-.3.4c-5.6-2-10.4-2.3-14.5-1.5-15.2,2.4-18.9,19.1-24.5,26.4,0-25.9,11.6-31.8,23.3-32.4,6.7,1.7,12,4,16,7Z"/><path class="cls-2" d="M138.7,90.6c-.4-.7-1-1.3-1.7-1.9-.6-.5-1.2-.9-2-1.4-7-4.2-21.4-6.7-32.4-7.3h0c-3.5-.2-6.6-.2-9,0,3.9-9.4,9.9-17.6,19.4-19.5,4.1-.8,8.9-.5,14.5,1.5l.3-.4c8.8,6.6,11.8,16.4,10.8,29.3Z"/><path class="cls-2" d="M102.7,80v.3c-2.1,23-8.2,35.8-12.4,49.3-2.1,6.7-3.7,13.6-4.1,22-1-.1-1.9-.2-2.7-.4-.2,0-.4,0-.6-.1-3.8-1-5.5-2.6-8.7-2.9.4-5.3,7.1-21.9,5.6-28.1-.3-1.3-1-2.1-2.1-2.3-2.9.2-3,.3-3.7.5-1.1.2-2.2.5-3.1.9,2.2-10.2,1.9-14.7,3-25.1,1.1-10.5,1.4-17.8,7.5-26.4,6-8.6,13.3-15.4,28.8-13.7.6.1,1.3.3,1.9.4-11.7.7-23.3,6.5-23.3,32.4,5.6-7.3,9.3-24,24.5-26.4-9.5,1.9-15.5,10.1-19.4,19.5,2.5-.2,5.6-.1,9,0Z"/><path class="cls-7" d="M107.8,119.8c-3-1.4-6.2-3.3-8.2-5.1"/><path class="cls-7" d="M135.1,87.2s0,0,0,.1"/><path class="cls-7" d="M127.7,92.5c-.1-2.3-2.3-2.3-3.2-1.1"/><path class="cls-7" d="M113.1,87.6c-1.1-1.8-3.3-2.3-5.7-.3"/><path class="cls-7" d="M120.6,101.2c.3,2.1.4,3.5,2.9,3.2-1.1,2.1-1.8,2.3-3.8,2.9"/><path class="cls-7" d="M110.4,106.5c-.3-.2-.5-.4-.8-.6"/><path class="cls-3" d="M115.3,126.8c-1.3-.3-2.8.2-3.8,1.2-1.1,1-1.7,2.4-2.2,3.8-1.5,4.5-.6,8.8-.5,14.2,0,4.5.5,4.7.8,7.3.6-.2,1.2-.3,1.9-.4,0,1.1-.1,1.5-.2,2.6-7.8,1.8-11.2,1.2-18.5,2.7h0c0-2.3-5.8-5.8-9.4-6.5-.2,0-.4,0-.6,0v-.6c.3,0,.5,0,.8.1.8.2,1.7.3,2.7.4.4-8.4,2-15.3,4.1-22,1.4,1.8,3.4,2.8,5.6,3.3,3.7.8,9.3-1.4,11.8-5.4-.2-1.9-.2-3.2-.1-4.7,1.7.9,5,2.3,7.9,4Z"/><path class="cls-8" d="M112.1,95.3c-.3,1.4-1.2,2.3-2,2.2-.8-.2-1.2-1.4-.9-2.8.3-1.3,1.2-2.3,2-2.1.8.2,1.2,1.4.9,2.8Z"/><path class="cls-8" d="M126.8,99c-.3,1.4-1.2,2.4-1.9,2.2-.8-.2-1.1-1.4-.8-2.8.3-1.4,1.2-2.4,1.9-2.3.8.2,1.1,1.5.8,2.9Z"/><path class="cls-5" d="M120.7,111.2c-2.4,7.5-10.5,7.1-10.5-4.4l.2-.2c3.5,2.5,6.2,4.2,10.3,4.7Z"/><path class="cls-2" d="M137,88.7h-.5c-6.9,20.6-10.1,40-11.6,61.4-.2-3.1-1.4-11-4.5-18.8-.7-1.6-2.7-3.2-5.1-4.6-2.9-1.7-6.2-3.1-7.9-4,0-.8.1-1.7.3-2.7v-.2c3.1,1.4,5.9,2.3,7,2.1,3.6-.6,8.8-5.7,8.8-5.7,7.1-6,6.1-18.7,6.6-20.6.6-2.3,2.7-4.5,4.9-8.2.8.4,1.4.9,2,1.4Z"/><path class="cls-7" d="M70.8,119.1s0,0,0,0"/><path class="cls-7" d="M112.2,54.3c-.1,0-.2,0-.3,0"/></svg>