<?xml version="1.0" encoding="UTF-8"?><svg id="usa" xmlns="http://www.w3.org/2000/svg" width="235" height="321.9" viewBox="0 0 235 321.9"><defs><style>.cls-1{fill:#2d231c;}.cls-1,.cls-2,.cls-3,.cls-4,.cls-5,.cls-6,.cls-7,.cls-8{stroke:#000;stroke-linecap:round;stroke-linejoin:round;}.cls-2{fill:#469bdb;}.cls-3{fill:#c98028;}.cls-4{fill:#976a38;}.cls-5{fill:#dda833;}.cls-6{fill:#fff;}.cls-7{fill:none;}</style></defs><path class="cls-3" d="M93.1,141.8c0,.7,0,1.4,0,2.1h0c-3.1,1.3-6,2.4-10,4.5h0c-.3-1-1.7-1.9-3.5-2.6.7,0,1.4,0,2-.1.4.4.8.8,1.4,1.2,0-.4,0-.9,0-1.3,4.2-.5,7-1.6,10.2-3.7Z"/><path class="cls-3" d="M171.6,217.7s0,0-.1,0c-8.1-.9-14.4,2.6-19.8,8-2.1,2.1-4,4.5-5.8,7.1-6.5,9.3-11.2,20-19.9,27.3-4.7,4-10.3,6.7-16,9.2-6.4,2.8-12.9,5.4-18.5,9.3-2.2,1.5-4.2,3.2-6,5.2-.1,0-.3,0-.4.1.3-25,.2-52.8-13.1-73.9-4.4-7-10.1-13.1-14.3-20.2-4.2-7.1-6.8-17-4.3-24.9.3-1.5,2.3-18.2,2.4-20,0-.6,0-1.1,0-1.8h.2c3.8,1.8,8,2.7,12.2,2.7h.3c-1.9,3.2-2.2,13.2-.8,15,1.7,2.2,10.8-.7,13-2.4h0c.6-.1.6-.1,1.3-.2l.7-.2c.9,3.3,2.7,6.4,5.4,8.4,1.8,1.3,3.9,1.7,5.9,1,1.5-.5,2.6-1.9,3.6-3.2,1.5,3.8,2.1,6.1,3,9,17.7,8.8,34,20.9,37.1,23,6.6,4.4,29.9,19.5,33.7,21.5Z"/><path class="cls-2" d="M81.6,145.7c-.6,0-1.3.1-2,.1h0c-3.7-1.4-9-2-10.5-.6-.2.2-.4.4-.5.6h-.3c-4.2,0-8.4-.9-12.2-2.8h-.2c0-2.4-.3-5.3-.5-8.1h.1c5.3,4.1,8.1,3.5,14.8,4.1,2.6.2,6,0,9.2,0,.2,2.4.7,4.9,2.1,6.6Z"/><path class="cls-7" d="M55.1,131.5c0,0,0-.2,0-.2"/><path class="cls-7" d="M51.8,120.1c-.2-1.7-.2-3.3,0-5.1"/><path class="cls-7" d="M55.1,131.7c0,0,0-.1,0-.2"/><path class="cls-5" d="M79.4,137.1c0,.6,0,1.3,0,2-3.2,0-6.6.2-9.2,0-6.7-.6-9.5,0-14.8-4.1h-.1c-.1-1.2-.2-2.4-.3-3.5-1.4-3.7-2.7-7.5-3.2-11.4h0c-2.6,2.1-2.8,2.3-7.4,6.6-4.8,6.5-8,14.2-9.5,22.7-.4,2.1-.6,4.3-1.9,6-1.4,1.8-3.8,2.7-6.1,2.8-2.3.1-4.6-.5-6.9-1-1.2-.3-2.5-.7-3.4-1.4-.5-.4-.9-.8-1.2-1.4-.7-1.6,0-3.4.7-5,2-4.4,7.2-15.1,9.5-19.3.7-1.2,1.6-2.4,2.5-3.7,3.1-4.4,8.8-12,12.4-16.1.5-.5,11.9-12.7,15.5-13.5,4.7-.8,6.4-1,6.8-1,0,0,.1,0,.2,0-3,1.4-5.4,19.7,1.2,19.3.6,0,9.7.3,15.5.2,0,.9-.1,1.9-.2,2.8-.1,2-.1,4-.2,6.1v.5c0,2.2,0,4.3,0,6.5,0,.5,0,1,0,1.5,0,1.5,0,2.9,0,4.4Z"/><path class="cls-7" d="M62.7,95.7c-.4,0-.7,0-1,0"/><path class="cls-7" d="M69.4,94.9c-.3,0-.6.1-.8.1"/><path class="cls-7" d="M100.8,173.1c-8.1-4-16.4-7.3-23.9-8.7"/><path class="cls-7" d="M100.9,173.6c0-.2-.1-.3-.2-.5"/><path class="cls-4" d="M28,166.9c-2.3,1.7-12.1,3.2-13.8,2-2.1-1.4,1-11,2.4-13.1,1,.7,2.3,1.1,3.4,1.4,2.2.6,4.5,1.1,6.9,1,1.2.9,2.5,7.7,1.1,8.7Z"/><path class="cls-7" d="M80.8,158.4c0,0-.2,0-.3,0"/><path class="cls-7" d="M104.7,138c-1.1.6-2.1,1.2-3,1.8"/><path class="cls-4" d="M82.8,157.9l-.7.2c-.7.1-.8.1-1.3.2h0c-2.3,1.6-11.3,4.6-13,2.4-1.3-1.7-1.1-11.7.8-14.9.2-.3.3-.5.5-.6,1.5-1.3,6.8-.8,10.5.6h0c1.8.7,3.2,1.5,3.5,2.5h0c-.2.2-.4.3-.6.4-.5,3-.4,6.2.4,9.2Z"/><line class="cls-7" x1="101.7" y1="139.8" x2="101.7" y2="139.8"/><path class="cls-7" d="M93.6,118.2c1.3,3.9,1.7,4.5,2.6,6.7"/><path class="cls-7" d="M85.6,283.7c-.1.1-.3.3-.4.4"/><path class="cls-7" d="M161.6,228.6s0,0,0,0"/><path class="cls-7" d="M85.2,284.2v-.3"/><path class="cls-5" d="M113.8,144.7c-5.2,6.6-10.9,12.7-16,19.4-1,1.3-2.1,2.6-3.6,3.2-2.1.7-4.2.4-5.9-1-2.7-2-4.5-5-5.4-8.4-.8-3-.9-6.2-.4-9.2.2-.1.4-.2.6-.3,4-2.1,6.9-3.2,10-4.5h0c2.5-1,5.2-2.2,8.6-4.1-3.2-9.3-4.6-12.8-5.5-14.9-.6,4-1,3.6-1.7,7.6-.2,1-.4,1.9-.6,2.9-3.1,1.6-6.5,2.5-10.8,3,.1-1,.2-2.1.4-3.1.2-1.5.5-3,.8-4.5.4-1.6.8-3.3,1.2-4.9,1-3.6,2.4-7.2,4-10.7t0,0h0s0,0,0,0c.8-1.9,1.8-3.8,2.8-5.6,1-1.9,2-4.8,2.3-7.9.1-1,.2-2,.2-3.1h1c2,1.2,3.4,2.5,4.7,4.2,2.1,2.6,5.6,16.8,8,21.7,3.1,6.2,7.7,17,5.2,20.4Z"/><path class="cls-4" d="M107.9,276.9c-1,3.4-2.1,6.6-3.5,10.4h0c-.3.3-.5.5-.8.8-1,1-1.4,2.4-1.8,3.7-.4,1.3-1,2.7-2.1,3.6-1.9,1.5-6.5.2-7.7-1.9,0-3.7-.4-7-.4-11.5,0-1.1,0-2.2,0-3.5,5.5-3.9,12.1-6.4,18.5-9.3-.8,2.8-1.5,5.2-2.2,7.6Z"/><line class="cls-7" x1="91.6" y1="278.5" x2="91.6" y2="278.5"/><path class="cls-3" d="M161.6,228.6c-6.8,18.9-34.1,44.3-53.7,48.3h0c.7-2.4,1.4-4.9,2.2-7.6,5.7-2.5,11.3-5.2,16-9.2,8.6-7.3,13.4-18,19.9-27.3,1.8-2.6,3.7-5,5.8-7.1,3,1.4,5.8,1.6,9.9,3Z"/><path class="cls-4" d="M173,234c0,0,0,.2,0,.2h-.2c-4.8-3.1-8.4-4.6-11.2-5.6-4.1-1.4-6.8-1.6-9.9-3,5.3-5.4,11.7-8.9,19.8-8,11.2,6.5-.7-.4,11.9,7-.2,1.4,0,2.3.4,3.6.4,1.3-10.6,9.6-10.8,5.8Z"/><path class="cls-7" d="M171.5,217.7c-.3-.2-.7-.4-1-.6"/><path class="cls-6" d="M215.5,235.8c-2,2.4-5.1,3.7-8.2,4.6-9.3,3-18.9,4.5-28.5,6-1.2.2-2,.6-3.1.4-.7-.5-.9-1.4-1.2-2.1-1-3.4-1.5-6.9-1.6-10.5,0,0,0-.2,0-.2.3,3.8,11.2-4.5,10.8-5.8-.4-1.3-.7-2.2-.4-3.6,8.5.7,19.1,1.4,27.5,2.1,1.5.1,3,.3,4.2,1.1,2.5,1.7,2.3,5.6.3,8Z"/><path class="cls-7" d="M83.2,138.4c0,0-.2,0-.3,0"/><path class="cls-7" d="M79.5,139.1h0"/><path class="cls-7" d="M93.2,141.7s0,0-.1,0"/><path class="cls-6" d="M134,310.5c-2.6,1.9-6,2.3-9.2,2.4-9.9.4-20.5-3.6-30.3-4.8-1.2-.1-2.5-.4-3.2-1.3-.5-.7-.6-1.6-.6-2.4,0-3.6.4-7.3,1.3-10.9,1.2,2.1,5.7,3.3,7.7,1.9,1.1-.9,1.7-2.2,2.1-3.6.4-1.3.8-2.7,1.8-3.7.3-.3.6-.5.8-.7.5-.3,1.1-.1,2.3.2h0c8.1,3.2,17,9.2,25.1,12.4,1.4.5,2.9,1.1,3.8,2.3,2.1,2.4.8,6.4-1.7,8.3Z"/><path class="cls-3" d="M91.6,278.5c0,1.3,0,2.4,0,3.5-1.8.5-4.1,1.2-6,1.7,1.8-2,3.9-3.7,6-5.2Z"/><path class="cls-7" d="M91.7,282s0,0-.1,0"/><path class="cls-7" d="M85.2,283.8c0,0-.1,0-.2,0"/><line class="cls-7" x1="92.4" y1="89.5" x2="92.4" y2="89.4"/><path class="cls-2" d="M94,135.4c-.4,2-.7,3.8-.8,6.4-3.2,2.1-6,3.2-10.2,3.7,0-2.4,0-4.8.3-7.1,4.2-.5,7.6-1.4,10.8-3Z"/><path class="cls-4" d="M101.6,46.4c-.5-.4-1.2-.8-1.9-1.1-7.1-3.9-24.1.6-32.2,13.2-.4-.8-1.3-1.4-2.2-1.5-.9-.1-1.9.3-2.5,1-.8,1-.9,2.4-.9,3.7,0,1.5.3,3.1,1.1,4.3.4.6.9,1.1,1.5,1.4,0,5,1.6,10.2,5.2,14.8,1.1,1.4,2.4,2.8,3.8,4.1,3.9,3.9,7.5,6.7,10.7,6.6,2.7,0,5.5-1.5,8-3.4,1-.8,1.9-1.6,2.8-2.5,2.7-2.6,4.7-5.6,5.7-7.5,2.5-4.9,3-11.8,3-11.8,1.3-3.7,2.6-5.9,2.8-9.3-.6-6.5-1.2-9.4-5.1-12ZM79.9,55.1c-.1-.2,3.6-1.4,5-1.4,1,0,2.9.3,3.8,1.3,1.3,1.3,1.4,2.6.4,2.2-.9-.3-1.8-2.1-4.8-2.5-1.7-.2-4.3.5-4.4.3ZM85.7,64.1c-.3,1.5-1.3,2.5-2.1,2.2-.8-.2-1.2-1.5-.9-3,.3-1.4,1.3-2.4,2.1-2.2.8.2,1.2,1.5.9,3ZM82.5,76.8c5.9,3.4,9.1,5.4,11.9,5.4-4.3,7.8-12.8,2.6-11.9-5.4ZM101.2,68.2c-.4,1.5-1.3,2.6-2.1,2.4-.8-.2-1.2-1.6-.8-3,.4-1.5,1.3-2.6,2.1-2.4.8.2,1.2,1.6.8,3.1ZM102.5,61c-1.8-1.2-3.5-.3-4.2-.5-.8-.2.1-1.1,1.7-1.5,1.2-.3,2.3.4,2.9.9.7.6,2,2.6,1.8,2.7-.1,0-1.2-1-2.2-1.6Z"/><path class="cls-6" d="M94.5,82.2c-4.3,7.8-12.8,2.6-11.9-5.4,5.9,3.4,9.1,5.4,11.9,5.4Z"/><path class="cls-1" d="M104.7,62.7c-.1,0-1.2-1-2.2-1.6-1.8-1.2-3.5-.3-4.2-.5-.8-.2.1-1.1,1.7-1.5,1.2-.3,2.3.4,2.9.9.7.6,2,2.6,1.8,2.7Z"/><path class="cls-1" d="M89.1,57.2c-.9-.3-1.8-2.1-4.8-2.5-1.7-.2-4.3.5-4.4.3-.1-.2,3.6-1.4,5-1.4,1,0,2.9.3,3.8,1.3,1.3,1.3,1.4,2.6.4,2.2Z"/><path class="cls-7" d="M68.5,95.1c0,0,0,.1,0,.2"/><path class="cls-7" d="M95.7,72.6c1.9,2.8-.9,7.1-7.3,2.8"/><path class="cls-8" d="M101.2,68.2c-.4,1.5-1.3,2.6-2.1,2.4-.8-.2-1.2-1.6-.8-3,.4-1.5,1.3-2.6,2.1-2.4.8.2,1.2,1.6.8,3.1Z"/><path class="cls-8" d="M85.7,64.1c-.3,1.5-1.3,2.5-2.1,2.2-.8-.2-1.2-1.5-.9-3,.3-1.4,1.3-2.4,2.1-2.2.8.2,1.2,1.5.9,3Z"/><path class="cls-7" d="M64.6,67.3h0"/><path class="cls-7" d="M64.6,67.3c.7.4,1.6.5,2.4.3"/><path class="cls-1" d="M101.6,46.3h0c-.5-.3-1.2-.7-1.9-1.1-7.1-3.9-24.1.6-32.2,13.2-.4-.8-1.3-1.4-2.2-1.5-.9-.1-1.9.3-2.5,1-.8,1-.9,2.4-.9,3.7,0,1.5.3,3.1,1.1,4.3.4.6.9,1.1,1.5,1.4,0,5,1.6,10.2,5.2,14.8,0,2-.1,3.9-.3,5.6h0c-1.8-.4-10.7-7.9-11.9-13.6-1.2-5.8-1.4-11.5,0-17.2,2-7.9,5-19.1,12.1-23.2,8.6-5,28.2-6,31.3,2.2,1,2.7,2.4,8.2.5,10.4Z"/><path class="cls-1" d="M95.1,87c2.7-2.6,4.7-5.6,5.7-7.5,2.5-4.9,3-11.8,3-11.8,1.3-3.7,2.6-5.9,2.8-9.3-.6-6.5-1.2-9.4-5.1-12h0c1.9-2.2.5-7.8-.5-10.5,6.5,1.3,9.6,10.5,9.8,15.1.7,21.1-11.9,36.1-15.7,36Z"/><path class="cls-7" d="M95.1,87h0"/><path class="cls-1" d="M94.9,98.5c0,1,0,2.1-.2,3.1-.4,3.1-1.3,6-2.3,7.9-1,1.8-1.9,3.7-2.8,5.6,0,0,0,0,0,0t0,0c-1.6,3.5-2.9,7.1-4,10.7-.5,1.6-.9,3.3-1.2,4.9-.3,1.5-.6,3-.8,4.5-.2,1-.3,2.1-.4,3.1-.2,2.4-.3,4.8-.3,7.1,0,.4,0,.9,0,1.3-.5-.3-1-.7-1.4-1.2-1.5-1.7-2-4.2-2.1-6.6,0-.7,0-1.3,0-2,0-1.5,0-2.9,0-4.4,0-.5,0-1,0-1.5,0-2.2,0-4.3,0-6.5v-.5c0-2,0-4.1.2-6.1,0-.9.1-1.9.2-2.8h0c0-.4,0-.7.1-1.1.2-2.7.6-5.4,1.2-8,.3-1.6.8-3.1,1.3-4.7h0c.7-2.1,1.5-4.1,2.6-6.1,0,0,0,0,0,0-.1-1.5-.4-1.5-.5-2.5,2.7,0,5.5-1.5,8-3.4,1.1,1.6,1.8,3.5,2.2,5.5.2,1.2.3,2.4.4,3.6Z"/><path class="cls-4" d="M84.8,95.4s0,0,0,0c-1.1,2-1.9,4-2.6,6.1h0c-.5,1.5-1,3.1-1.3,4.7-.6,2.6-1,5.3-1.2,8,0,.4,0,.7-.1,1.1h0c-5.8,0-14.9-.3-15.5-.2-6.5.4-4.2-17.9-1.2-19.3,1.9,0,3.8-.3,5.7-.6.3-1.4.7-4.1,1-7.3h0c.1-1.7.3-3.6.3-5.6,1.1,1.4,2.4,2.8,3.8,4.1,3.9,3.9,7.5,6.7,10.7,6.6,0,1,.3,1,.5,2.5Z"/><path class="cls-7" d="M94.4,94.9c-3.1-1-6.6-.8-9.6.5-.1,0-.2,0-.3.1"/><path class="cls-7" d="M83.4,135.2c-1.3,1-2.5,2-3.8,3"/><path class="cls-7" d="M94.6,94.9c-4.7,1.2-9,3.5-12.6,6.8"/><path class="cls-7" d="M79.2,132.6c1.1.9,2.9,2.2,4.3,2.6"/><path class="cls-7" d="M94.9,101.6c-3.5-1.9-7.8-2.3-11.6-.9"/><path class="cls-7" d="M79.4,131.2c1.1.9,3.7,0,5-.4"/><path class="cls-7" d="M80.8,106.2c2.3-.6,5.2-.9,7.4-.3,1,.2,2.1.6,2.8,1.3s1.7,1.3,1.3,2.3"/><path class="cls-7" d="M79.4,124.7c1.4,1.5,4.3,1.6,6.3,1.2"/><path class="cls-7" d="M81.9,105.9c.3,0,.6,0,.9,0,1.5,0,2.9,1,3.9,2.2,1.1,1.4,3.2,5.7,2.9,7.1"/><path class="cls-7" d="M89.6,115.1c-2.8-.8-6.9-2.2-9.8-.9"/><path class="cls-7" d="M79.4,118.1c2.5,1.6,4.7,4.5,7.1,2.7.1,0,.2-.2.3-.2-2.3,1.7-4.9,2.9-7.6,3.5"/></svg>